<?xml version="1.0" encoding="UTF-8" standalone="no"?>
<!-- Created with Inkscape (http://www.inkscape.org/) -->

<svg
   xmlns:dc="http://purl.org/dc/elements/1.1/"
   xmlns:cc="http://creativecommons.org/ns#"
   xmlns:rdf="http://www.w3.org/1999/02/22-rdf-syntax-ns#"
   xmlns:svg="http://www.w3.org/2000/svg"
   xmlns="http://www.w3.org/2000/svg"
   xmlns:sodipodi="http://sodipodi.sourceforge.net/DTD/sodipodi-0.dtd"
   xmlns:inkscape="http://www.inkscape.org/namespaces/inkscape"
   width="7.084836mm"
   height="4.7328668mm"
   viewBox="0 0 7.084836 4.7328668"
   version="1.1"
   id="svg8"
   inkscape:version="0.92.4 (5da689c313, 2019-01-14)"
   sodipodi:docname="albania.svg">
  <defs
     id="defs2" />
  <sodipodi:namedview
     id="base"
     pagecolor="#ffffff"
     bordercolor="#666666"
     borderopacity="1.0"
     inkscape:pageopacity="0.0"
     inkscape:pageshadow="2"
     inkscape:zoom="11.2"
     inkscape:cx="9.8968903"
     inkscape:cy="5.4287318"
     inkscape:document-units="mm"
     inkscape:current-layer="layer1"
     showgrid="false"
     inkscape:window-width="954"
     inkscape:window-height="630"
     inkscape:window-x="-3"
     inkscape:window-y="6"
     inkscape:window-maximized="0" />
  <metadata
     id="metadata5">
    <rdf:RDF>
      <cc:Work
         rdf:about="">
        <dc:format>image/svg+xml</dc:format>
        <dc:type
           rdf:resource="http://purl.org/dc/dcmitype/StillImage" />
        <dc:title></dc:title>
      </cc:Work>
    </rdf:RDF>
  </metadata>
  <g
     inkscape:label="Layer 1"
     inkscape:groupmode="layer"
     id="layer1"
     transform="translate(-86.724129,-105.62592)">
    <g
       id="g14282"
       transform="matrix(0.35277777,0,0,-0.35277777,86.75341,110.32951)">
      <path
         d="M 0,0 H 19.917 L 19.916,13.251 H 0 Z M 19.958,-0.042 V 0 Z M -0.083,-0.083 V 13.333 H 20 V -0.042 -0.083 Z"
         style="fill:#221f21;fill-opacity:1;fill-rule:nonzero;stroke:none"
         id="path14284"
         inkscape:connector-curvature="0" />
    </g>
    <path
       d="m 93.794262,110.34432 h -7.05556 v -4.70358 h 7.05556 z"
       style="fill:#c12131;fill-opacity:1;fill-rule:nonzero;stroke:none;stroke-width:0.35277778"
       id="path14286"
       inkscape:connector-curvature="0" />
    <g
       id="g14288"
       transform="matrix(0.35277777,0,0,-0.35277777,90.26638,109.47564)">
      <path
         d="m 0,0 c -0.15,0.18 -0.379,0.379 -0.314,0.642 l 0.149,0.233 0.013,0.204 C -0.268,0.956 -0.372,0.805 -0.54,0.746 -0.652,0.699 -0.786,0.732 -0.875,0.811 l -0.01,0.122 c 0.12,0.081 0.294,0.065 0.392,0.18 0.106,0.106 0.126,0.263 0.109,0.405 C -0.561,1.428 -0.68,1.211 -0.896,1.203 -1.05,1.167 -1.224,1.268 -1.243,1.43 c 0.16,0.094 0.354,0.082 0.52,0.156 0.103,0.052 0.141,0.17 0.117,0.281 -0.152,-0.058 -0.289,-0.193 -0.464,-0.159 -0.138,-0.016 -0.284,0.097 -0.273,0.24 0.104,0.021 0.208,0.036 0.31,0.054 0.194,0.048 0.346,0.195 0.46,0.351 0.162,0.241 0.276,0.52 0.298,0.811 L -0.345,3.37 C -0.484,3.39 -0.549,3.249 -0.62,3.162 -0.793,2.908 -0.949,2.637 -1.047,2.342 -1.189,2.341 -1.308,2.418 -1.425,2.495 L -1.641,2.471 C -1.836,2.384 -2.041,2.322 -2.238,2.235 l 0.218,-0.088 0.249,-0.033 0.146,-0.149 0.02,-0.215 -0.1,0.103 c -0.08,0.084 -0.223,-0.035 -0.299,0.061 -0.092,0.123 -0.238,0.181 -0.375,0.235 l -0.13,0.01 C -2.632,2.094 -2.758,2.024 -2.853,1.918 L -3,1.749 -3.215,1.713 -3.333,1.49 c -0.086,0.131 -0.022,0.288 0.015,0.426 0.033,0.123 0.175,0.124 0.279,0.132 0.144,-0.011 0.26,0.089 0.367,0.167 -0.241,0 -0.479,-0.016 -0.718,-0.048 l -0.228,0.083 -0.25,-0.016 0.132,0.147 c 0.093,0.033 0.194,0.045 0.291,0.07 0.114,0.03 0.203,-0.067 0.308,-0.088 0.159,-0.027 0.322,-0.032 0.483,-0.027 -0.133,0.107 -0.279,0.208 -0.456,0.217 -0.095,0.002 -0.132,0.105 -0.215,0.134 l -0.235,0.02 0.117,0.145 C -3.342,2.863 -3.24,2.83 -3.135,2.836 L -2.9,2.755 c 0.101,-0.173 0.275,-0.28 0.447,-0.371 L -2.335,2.4 c 0.23,0.092 0.461,0.177 0.683,0.287 l -0.168,0.21 c 0.279,0.147 0.571,0.307 0.75,0.576 0.094,0.143 0.199,0.304 0.179,0.48 -0.13,-0.19 -0.233,-0.441 -0.48,-0.504 l -0.123,0.137 c 0.05,0.081 0.132,0.142 0.164,0.234 0.051,0.094 0.051,0.203 0.065,0.306 L -1.427,4.109 C -1.5,3.986 -1.532,3.84 -1.602,3.714 -1.704,3.531 -1.797,3.318 -1.992,3.219 c -0.11,-0.035 -0.317,0.03 -0.268,0.18 0.11,0.125 0.283,0.192 0.357,0.353 0.082,0.158 0.196,0.361 0.089,0.532 C -1.981,4.141 -2.067,3.931 -2.216,3.771 -2.412,3.553 -2.583,3.295 -2.855,3.166 -2.986,3.105 -3.133,3.059 -3.275,3.086 -3.413,3.103 -3.551,3.174 -3.617,3.298 l 0.078,0.151 c 0.1,0.04 0.203,-0.003 0.305,-0.006 0.173,-0.015 0.333,0.071 0.462,0.173 0.254,0.234 0.428,0.542 0.548,0.86 L -2.271,4.534 C -2.458,4.329 -2.646,4.116 -2.886,3.972 -3.045,3.877 -3.238,3.803 -3.425,3.855 c -0.143,0.028 -0.302,0.131 -0.302,0.29 0.012,0.1 0.132,0.105 0.207,0.094 0.191,-0.022 0.399,-0.041 0.573,0.055 0.222,0.125 0.374,0.333 0.527,0.53 0.069,0.111 0.182,0.217 0.166,0.36 C -2.5,5.058 -2.677,4.832 -2.922,4.702 -3.106,4.574 -3.357,4.539 -3.564,4.633 -3.664,4.674 -3.736,4.785 -3.72,4.894 l 0.106,0.151 c 0.207,-0.009 0.412,-0.105 0.621,-0.044 0.225,0.083 0.396,0.258 0.548,0.436 l 0.091,0.21 C -2.597,5.595 -2.807,5.451 -3.028,5.348 -3.154,5.291 -3.298,5.287 -3.435,5.303 -3.581,5.322 -3.717,5.436 -3.738,5.584 l 0.107,0.157 c 0.192,0.04 0.33,-0.144 0.518,-0.115 0.322,0.007 0.677,0.173 0.799,0.49 L -2.359,6.165 C -2.526,6.137 -2.673,6.045 -2.836,6.002 -3.15,5.941 -3.506,6.007 -3.731,6.248 l 0.033,0.254 c 0.147,0.027 0.27,-0.076 0.397,-0.134 0.226,-0.12 0.527,-0.146 0.742,0.015 0.125,0.086 0.263,0.206 0.257,0.372 C -2.49,6.728 -2.653,6.622 -2.84,6.598 -3.065,6.576 -3.316,6.582 -3.51,6.715 -3.663,6.809 -3.809,6.979 -3.766,7.172 l 0.199,0.074 c 0.096,-0.07 0.161,-0.178 0.266,-0.238 0.162,-0.118 0.375,-0.133 0.569,-0.119 0.127,0.015 0.289,-0.01 0.369,0.117 L -2.5,7.186 c -0.379,0.063 -0.748,0.203 -1.059,0.432 -0.116,0.083 -0.219,0.194 -0.255,0.334 -0.029,0.131 0.053,0.304 0.199,0.312 0.095,0 0.152,-0.09 0.194,-0.163 0.232,-0.388 0.671,-0.596 1.099,-0.685 l 0.088,0.202 C -2.008,7.514 -1.775,7.432 -1.542,7.348 -1.45,7.309 -1.348,7.27 -1.294,7.179 -1.162,7.015 -1.263,6.785 -1.203,6.596 l 0.196,-0.135 c 0.144,-0.016 0.282,0.09 0.298,0.236 0.024,0.342 -0.145,0.711 -0.462,0.865 C -1.36,7.676 -1.583,7.689 -1.797,7.723 -1.942,7.734 -1.981,7.93 -2.125,7.938 -2.244,7.947 -2.367,7.98 -2.453,8.064 l -0.087,0.149 0.112,0.03 C -2.337,8.182 -2.287,8.072 -2.185,8.021 -2.058,7.981 -1.924,7.973 -1.795,8 V 8.087 L -1.951,8.124 -2.129,8.02 -2.051,8.248 c 0.102,0.059 0.229,0.046 0.339,0.07 0.092,-10e-4 0.158,0.075 0.246,0.088 0.174,0.015 0.342,-0.045 0.501,-0.118 0.192,-0.106 0.416,-0.021 0.62,-0.005 C -0.414,8.177 -0.515,8.101 -0.63,8.052 L -0.641,8.007 c 0.101,-0.074 0.214,-0.13 0.329,-0.183 l -0.179,-0.11 c 0.074,-0.11 0.201,-0.172 0.328,-0.2 L -0.33,7.42 -0.208,7.305 -0.049,7.287 -0.11,7.132 0.004,7.127 0.111,7.132 0.05,7.287 0.208,7.305 0.332,7.42 0.163,7.514 c 0.129,0.028 0.255,0.09 0.329,0.2 L 0.314,7.824 C 0.428,7.877 0.54,7.933 0.642,8.007 L 0.629,8.052 C 0.517,8.101 0.414,8.177 0.346,8.283 0.551,8.267 0.775,8.182 0.966,8.288 1.124,8.361 1.292,8.421 1.467,8.406 1.555,8.393 1.621,8.317 1.713,8.318 1.823,8.294 1.95,8.307 2.052,8.248 L 2.13,8.02 1.952,8.124 1.796,8.087 V 8 C 1.926,7.973 2.059,7.981 2.186,8.021 2.287,8.072 2.338,8.182 2.429,8.243 L 2.541,8.213 2.454,8.064 C 2.367,7.98 2.244,7.947 2.126,7.938 1.982,7.93 1.944,7.734 1.798,7.723 1.584,7.689 1.361,7.676 1.172,7.562 0.856,7.408 0.686,7.039 0.71,6.697 0.726,6.551 0.864,6.445 1.008,6.461 L 1.203,6.596 C 1.264,6.785 1.162,7.015 1.295,7.179 1.349,7.27 1.451,7.309 1.542,7.348 1.775,7.432 2.009,7.514 2.234,7.618 L 2.322,7.416 C 2.75,7.505 3.189,7.713 3.421,8.101 3.464,8.174 3.52,8.264 3.616,8.264 3.761,8.256 3.844,8.083 3.816,7.952 3.779,7.812 3.674,7.701 3.559,7.618 3.249,7.389 2.879,7.249 2.5,7.186 L 2.364,7.006 C 2.443,6.879 2.607,6.904 2.733,6.889 2.926,6.875 3.14,6.89 3.302,7.008 3.406,7.068 3.472,7.176 3.567,7.246 L 3.766,7.172 C 3.809,6.979 3.663,6.809 3.51,6.715 3.317,6.582 3.065,6.576 2.84,6.598 2.653,6.622 2.49,6.728 2.303,6.755 2.296,6.589 2.435,6.469 2.56,6.383 2.775,6.222 3.076,6.248 3.302,6.368 3.429,6.426 3.552,6.529 3.699,6.502 L 3.732,6.248 C 3.507,6.007 3.15,5.941 2.836,6.002 2.674,6.045 2.526,6.137 2.361,6.165 L 2.315,6.116 C 2.436,5.799 2.792,5.633 3.114,5.626 3.302,5.597 3.441,5.781 3.631,5.741 L 3.739,5.584 C 3.719,5.436 3.581,5.322 3.436,5.303 3.299,5.287 3.155,5.291 3.029,5.348 2.807,5.451 2.598,5.595 2.355,5.647 l 0.09,-0.21 C 2.598,5.259 2.769,5.084 2.994,5.001 3.202,4.94 3.408,5.036 3.615,5.045 L 3.722,4.894 C 3.737,4.785 3.665,4.674 3.564,4.633 3.358,4.539 3.107,4.574 2.922,4.702 2.678,4.832 2.5,5.058 2.255,5.184 2.237,5.041 2.352,4.935 2.421,4.824 2.574,4.627 2.725,4.419 2.947,4.294 3.121,4.198 3.33,4.217 3.52,4.239 3.594,4.25 3.717,4.245 3.727,4.145 3.727,3.986 3.569,3.883 3.425,3.855 3.238,3.803 3.046,3.877 2.887,3.972 2.646,4.116 2.459,4.329 2.272,4.534 L 2.225,4.476 C 2.345,4.158 2.518,3.85 2.772,3.616 2.903,3.514 3.062,3.428 3.235,3.443 3.338,3.446 3.439,3.489 3.54,3.449 L 3.618,3.298 C 3.552,3.174 3.414,3.103 3.276,3.086 3.132,3.059 2.986,3.105 2.856,3.166 2.583,3.295 2.413,3.553 2.217,3.771 2.068,3.931 1.982,4.141 1.815,4.284 1.708,4.113 1.822,3.91 1.904,3.752 1.978,3.591 2.151,3.524 2.262,3.399 2.311,3.249 2.102,3.184 1.993,3.219 1.798,3.318 1.704,3.531 1.604,3.714 1.533,3.84 1.502,3.986 1.427,4.109 L 1.266,4.126 C 1.28,4.023 1.28,3.914 1.33,3.82 1.363,3.728 1.444,3.667 1.494,3.586 L 1.372,3.449 C 1.124,3.512 1.021,3.763 0.892,3.953 0.871,3.777 0.977,3.616 1.071,3.473 1.249,3.204 1.541,3.044 1.82,2.897 L 1.652,2.687 C 1.874,2.577 2.105,2.492 2.336,2.4 L 2.454,2.384 C 2.625,2.475 2.8,2.582 2.9,2.755 L 3.136,2.836 C 3.24,2.83 3.342,2.863 3.445,2.852 L 3.561,2.707 3.325,2.687 C 3.244,2.658 3.206,2.555 3.11,2.553 2.934,2.544 2.788,2.443 2.655,2.336 2.816,2.331 2.978,2.336 3.138,2.363 3.244,2.384 3.332,2.481 3.446,2.451 3.543,2.426 3.644,2.414 3.737,2.381 L 3.869,2.234 3.619,2.25 C 3.543,2.222 3.481,2.149 3.391,2.167 3.152,2.199 2.913,2.215 2.672,2.215 2.779,2.137 2.896,2.037 3.039,2.048 3.143,2.04 3.285,2.039 3.318,1.916 3.356,1.778 3.42,1.621 3.334,1.49 L 3.216,1.713 3,1.749 2.853,1.918 C 2.758,2.024 2.632,2.094 2.509,2.159 L 2.38,2.149 C 2.242,2.095 2.097,2.037 2.005,1.914 1.929,1.818 1.786,1.937 1.707,1.853 L 1.605,1.75 1.627,1.965 1.772,2.114 2.021,2.147 2.237,2.235 C 2.042,2.322 1.837,2.384 1.641,2.471 L 1.425,2.495 C 1.309,2.418 1.189,2.341 1.047,2.342 0.951,2.637 0.793,2.908 0.62,3.162 0.551,3.249 0.485,3.39 0.346,3.37 L 0.276,3.164 C 0.297,2.873 0.413,2.594 0.574,2.353 0.688,2.197 0.839,2.05 1.034,2.002 1.136,1.984 1.24,1.969 1.344,1.948 1.354,1.805 1.208,1.692 1.071,1.708 0.895,1.674 0.758,1.809 0.606,1.867 0.582,1.756 0.62,1.638 0.724,1.586 0.89,1.512 1.084,1.524 1.244,1.43 1.225,1.268 1.051,1.167 0.898,1.203 0.68,1.211 0.561,1.428 0.384,1.518 0.367,1.376 0.388,1.219 0.494,1.113 0.592,0.998 0.766,1.014 0.885,0.933 L 0.875,0.811 C 0.787,0.732 0.654,0.699 0.54,0.746 0.373,0.805 0.269,0.956 0.153,1.079 L 0.167,0.875 0.315,0.642 C 0.379,0.379 0.152,0.18 0,0"
         style="fill:#0f0f0f;fill-opacity:1;fill-rule:nonzero;stroke:none"
         id="path14290"
         inkscape:connector-curvature="0" />
    </g>
  </g>
</svg>
