<?xml version="1.0" encoding="UTF-8" standalone="no"?>
<!-- Created with Inkscape (http://www.inkscape.org/) -->

<svg
   xmlns:dc="http://purl.org/dc/elements/1.1/"
   xmlns:cc="http://creativecommons.org/ns#"
   xmlns:rdf="http://www.w3.org/1999/02/22-rdf-syntax-ns#"
   xmlns:svg="http://www.w3.org/2000/svg"
   xmlns="http://www.w3.org/2000/svg"
   xmlns:sodipodi="http://sodipodi.sourceforge.net/DTD/sodipodi-0.dtd"
   xmlns:inkscape="http://www.inkscape.org/namespaces/inkscape"
   width="7.084836mm"
   height="4.7328668mm"
   viewBox="0 0 7.084836 4.7328668"
   version="1.1"
   id="svg8"
   inkscape:version="0.92.4 (5da689c313, 2019-01-14)"
   sodipodi:docname="angola.svg">
  <defs
     id="defs2" />
  <sodipodi:namedview
     id="base"
     pagecolor="#ffffff"
     bordercolor="#666666"
     borderopacity="1.0"
     inkscape:pageopacity="0.0"
     inkscape:pageshadow="2"
     inkscape:zoom="11.2"
     inkscape:cx="20.405015"
     inkscape:cy="9.6254478"
     inkscape:document-units="mm"
     inkscape:current-layer="layer1"
     showgrid="false"
     inkscape:window-width="954"
     inkscape:window-height="630"
     inkscape:window-x="-3"
     inkscape:window-y="6"
     inkscape:window-maximized="0" />
  <metadata
     id="metadata5">
    <rdf:RDF>
      <cc:Work
         rdf:about="">
        <dc:format>image/svg+xml</dc:format>
        <dc:type
           rdf:resource="http://purl.org/dc/dcmitype/StillImage" />
        <dc:title></dc:title>
      </cc:Work>
    </rdf:RDF>
  </metadata>
  <g
     inkscape:label="Layer 1"
     inkscape:groupmode="layer"
     id="layer1"
     transform="translate(-82.19174,-102.42535)">
    <g
       id="g10914"
       transform="matrix(0.35277777,0,0,-0.35277777,82.221021,107.12894)">
      <path
         d="M 0,0 H 19.917 V 13.251 H 0 Z M 19.958,-0.042 V 0 Z M -0.083,-0.083 V 13.333 H 20 V -0.042 -0.083 Z"
         style="fill:#221f21;fill-opacity:1;fill-rule:nonzero;stroke:none"
         id="path10916"
         inkscape:connector-curvature="0" />
    </g>
    <path
       d="m 89.261802,102.44017 h -7.05556 v 2.35161 h 7.05556 z"
       style="fill:#c12131;fill-opacity:1;fill-rule:nonzero;stroke:none;stroke-width:0.35277778"
       id="path10918"
       inkscape:connector-curvature="0" />
    <path
       d="m 82.206242,107.14375 h 7.05556 v -2.35197 h -7.05556 z"
       style="fill:#0e0f0e;fill-opacity:1;fill-rule:nonzero;stroke:none;stroke-width:0.35277778"
       id="path10920"
       inkscape:connector-curvature="0" />
    <g
       id="g10922"
       transform="matrix(0.35277777,0,0,-0.35277777,85.047731,104.21852)">
      <path
         d="M 0,0 H 0.88 L 1.151,0.837 1.424,0 H 2.303 L 1.591,-0.517 1.863,-1.354 1.151,-0.836 0.44,-1.354 0.712,-0.517 Z"
         style="fill:#e8c729;fill-opacity:1;fill-rule:nonzero;stroke:none"
         id="path10924"
         inkscape:connector-curvature="0" />
    </g>
    <g
       id="g10926"
       transform="matrix(0.35277777,0,0,-0.35277777,86.27419,105.88352)">
      <path
         d="m 0,0 0.315,0.37 0.552,-0.463 c 0,0 0.286,-0.264 0.386,-0.428 C 1.401,-0.759 1.22,-1.056 0.99,-0.897 0.867,-0.812 0.861,-0.617 0.663,-0.433 0.527,-0.308 0.416,-0.167 0.038,-0.081 Z"
         style="fill:#e8c729;fill-opacity:1;fill-rule:nonzero;stroke:none"
         id="path10928"
         inkscape:connector-curvature="0" />
    </g>
    <g
       id="g10930"
       transform="matrix(0.35277777,0,0,-0.35277777,86.61025,104.85828)">
      <path
         d="M 0,0 C 0.021,0.219 0.021,0.441 0,0.661 L -0.258,0.635 c -0.02,0.207 -0.061,0.407 -0.12,0.598 l 0.249,0.076 C -0.193,1.521 -0.278,1.725 -0.382,1.92 L -0.615,1.796 C -0.712,1.976 -0.826,2.145 -0.956,2.3 l 0.207,0.169 c -0.14,0.172 -0.297,0.328 -0.468,0.469 l -0.172,-0.21 c -0.157,0.126 -0.327,0.239 -0.507,0.335 l 0.129,0.242 c -0.194,0.104 -0.399,0.188 -0.61,0.253 L -2.457,3.293 C -2.642,3.35 -2.834,3.389 -3.032,3.409 L -3.094,2.833 c 1.272,-0.134 2.267,-1.198 2.267,-2.504 0,-0.774 -0.348,-1.465 -0.897,-1.93 l 0.71,-0.491 c 0.093,0.089 0.183,0.183 0.265,0.283 l -0.2,0.164 c 0.129,0.157 0.242,0.327 0.339,0.508 l 0.228,-0.122 c 0.104,0.195 0.189,0.399 0.253,0.611 l -0.247,0.075 c 0.058,0.192 0.098,0.392 0.118,0.598 z"
         style="fill:#e8c729;fill-opacity:1;fill-rule:nonzero;stroke:none"
         id="path10932"
         inkscape:connector-curvature="0" />
    </g>
    <g
       id="g10934"
       transform="matrix(0.35277777,0,0,-0.35277777,85.716061,105.58518)">
      <path
         d="m 0,0 c -0.258,-0.089 -0.534,-0.14 -0.821,-0.14 -0.609,0 -1.159,0.225 -1.596,0.584 l -0.37,-0.451 c 0.157,-0.128 0.326,-0.24 0.504,-0.338 l -0.128,-0.238 c 0.195,-0.104 0.399,-0.189 0.611,-0.254 l 0.077,0.255 c 0.191,-0.061 0.39,-0.104 0.597,-0.125 l -0.026,-0.258 c 0.22,-0.021 0.442,-0.021 0.661,0 l -0.025,0.257 c 0.206,0.02 0.407,0.06 0.599,0.119 l 0.075,-0.248 c 0.104,0.033 0.207,0.069 0.308,0.111 l -0.137,0.531 z"
         style="fill:#e8c729;fill-opacity:1;fill-rule:nonzero;stroke:none"
         id="path10936"
         inkscape:connector-curvature="0" />
    </g>
    <g
       id="g10938"
       transform="matrix(0.35277777,0,0,-0.35277777,86.260051,105.8656)">
      <path
         d="M 0,0 C 0,0 -1.51,0.92 -2.589,1.534 -3.249,1.93 -4.002,2.612 -3.483,3.626 -3.251,2.79 0.29,0.341 0.29,0.341 Z"
         style="fill:#e8c729;fill-opacity:1;fill-rule:nonzero;stroke:none"
         id="path10940"
         inkscape:connector-curvature="0" />
    </g>
    <g
       id="g10942"
       transform="matrix(0.35277777,0,0,-0.35277777,85.157791,104.8786)">
      <path
         d="m 0,0 c 0.906,-1.042 2.185,-1.562 3.119,-2.438 l 0.019,0.001 v 0.019 c -0.94,0.88 -2.217,1.399 -3.117,2.436 l -0.02,0.001 z"
         style="fill:#0e0f0e;fill-opacity:1;fill-rule:nonzero;stroke:none"
         id="path10944"
         inkscape:connector-curvature="0" />
    </g>
    <g
       id="g10946"
       transform="matrix(0.35277777,0,0,-0.35277777,86.462651,105.86253)">
      <path
         d="M 0,0 -0.056,-0.055 -0.11,0 -0.056,0.056 Z"
         style="fill:#0e0f0e;fill-opacity:1;fill-rule:nonzero;stroke:none"
         id="path10948"
         inkscape:connector-curvature="0" />
    </g>
    <g
       id="g10950"
       transform="matrix(0.35277777,0,0,-0.35277777,86.56926,105.95708)">
      <path
         d="M 0,0 -0.056,-0.056 -0.11,0 -0.056,0.055 Z"
         style="fill:#0e0f0e;fill-opacity:1;fill-rule:nonzero;stroke:none"
         id="path10952"
         inkscape:connector-curvature="0" />
    </g>
    <g
       id="g10954"
       transform="matrix(0.35277777,0,0,-0.35277777,86.668491,106.0596)">
      <path
         d="M 0,0 -0.056,-0.055 -0.111,0 -0.056,0.056 Z"
         style="fill:#0e0f0e;fill-opacity:1;fill-rule:nonzero;stroke:none"
         id="path10956"
         inkscape:connector-curvature="0" />
    </g>
  </g>
</svg>
