<?xml version="1.0" encoding="UTF-8" standalone="no"?>
<!-- Created with Inkscape (http://www.inkscape.org/) -->

<svg
   xmlns:dc="http://purl.org/dc/elements/1.1/"
   xmlns:cc="http://creativecommons.org/ns#"
   xmlns:rdf="http://www.w3.org/1999/02/22-rdf-syntax-ns#"
   xmlns:svg="http://www.w3.org/2000/svg"
   xmlns="http://www.w3.org/2000/svg"
   xmlns:sodipodi="http://sodipodi.sourceforge.net/DTD/sodipodi-0.dtd"
   xmlns:inkscape="http://www.inkscape.org/namespaces/inkscape"
   width="7.084836mm"
   height="4.7328668mm"
   viewBox="0 0 7.084836 4.7328668"
   version="1.1"
   id="svg8"
   inkscape:version="0.92.4 (5da689c313, 2019-01-14)"
   sodipodi:docname="antigua_and_barbuda.svg">
  <defs
     id="defs2" />
  <sodipodi:namedview
     id="base"
     pagecolor="#ffffff"
     bordercolor="#666666"
     borderopacity="1.0"
     inkscape:pageopacity="0.0"
     inkscape:pageshadow="2"
     inkscape:zoom="11.2"
     inkscape:cx="22.271633"
     inkscape:cy="4.209867"
     inkscape:document-units="mm"
     inkscape:current-layer="layer1"
     showgrid="false"
     inkscape:window-width="1920"
     inkscape:window-height="1001"
     inkscape:window-x="-9"
     inkscape:window-y="-9"
     inkscape:window-maximized="1" />
  <metadata
     id="metadata5">
    <rdf:RDF>
      <cc:Work
         rdf:about="">
        <dc:format>image/svg+xml</dc:format>
        <dc:type
           rdf:resource="http://purl.org/dc/dcmitype/StillImage" />
        <dc:title />
      </cc:Work>
    </rdf:RDF>
  </metadata>
  <g
     inkscape:label="Layer 1"
     inkscape:groupmode="layer"
     id="layer1"
     transform="translate(-81.697863,-100.99247)">
    <g
       transform="matrix(0.35277777,0,0,-0.35277777,81.727144,105.69606)"
       id="g38940">
      <path
         inkscape:connector-curvature="0"
         id="path38942"
         style="fill:#221f21;fill-opacity:1;fill-rule:nonzero;stroke:none"
         d="M 0,0 H 19.917 L 19.916,13.251 H 0 Z M 19.958,-0.042 V 0 Z M -0.083,-0.083 V 13.333 H 20 V -0.042 -0.083 Z" />
    </g>
    <path
       inkscape:connector-curvature="0"
       id="path38944"
       style="fill:#3a6ebf;fill-opacity:1;fill-rule:nonzero;stroke:none;stroke-width:0.35277775"
       d="m 81.712536,102.84773 h 7.055555 v 1.02235 h -7.055555 z" />
    <path
       inkscape:connector-curvature="0"
       id="path38946"
       style="fill:#0e0f0e;fill-opacity:1;fill-rule:nonzero;stroke:none;stroke-width:0.35277775"
       d="m 81.712536,101.00693 h 7.055555 v 1.84045 h -7.055555 z" />
    <g
       transform="matrix(0.35277777,0,0,-0.35277777,81.712502,101.00711)"
       id="g38948">
      <path
         inkscape:connector-curvature="0"
         id="path38950"
         style="fill:#c12131;fill-opacity:1;fill-rule:nonzero;stroke:none"
         d="M 0,0 V -13.333 H 20 V 0 L 10,-13.333 Z" />
    </g>
    <g
       transform="matrix(0.35277777,0,0,-0.35277777,85.986829,102.69917)"
       id="g38952">
      <path
         inkscape:connector-curvature="0"
         id="path38954"
         style="fill:#ecc028;fill-opacity:1;fill-rule:nonzero;stroke:none"
         d="M 0,0 1.795,1.199 -0.321,0.778 0.877,2.572 -0.917,1.374 -0.496,3.491 -1.695,1.695 -2.116,3.813 -2.538,1.695 -3.737,3.491 -3.316,1.374 -5.111,2.572 -3.911,0.778 -6.028,1.199 -4.234,0 -6.351,-0.421 h 8.469 z" />
    </g>
    <path
       style="fill:#ffffff;stroke-width:0.08928572"
       d="M 10.798419,14.303133 8.2519631,10.910276 h 5.1357409 5.135742 l -2.546456,3.392857 c -1.40055,1.866072 -2.565729,3.392858 -2.589286,3.392858 -0.02356,0 -1.188735,-1.526786 -2.589285,-3.392858 z"
       id="path3718"
       inkscape:connector-curvature="0"
       transform="matrix(0.26458333,0,0,0.26458333,81.697863,100.99247)" />
    <path
       style="fill:#ffffff;stroke-width:0.08928572"
       d="m 10.81154,14.33479 -2.5525339,-3.379871 2.5930449,-0.02368 c 1.426175,-0.01302 3.732739,-0.01302 5.125698,0 l 2.532654,0.02368 -2.409272,3.214286 c -1.3251,1.767857 -2.483024,3.288799 -2.573165,3.379871 -0.15928,0.160925 -0.235732,0.07046 -2.716426,-3.214286 z"
       id="path3720"
       inkscape:connector-curvature="0"
       transform="matrix(0.26458333,0,0,0.26458333,81.697863,100.99247)" />
  </g>
</svg>
