<?xml version="1.0" encoding="UTF-8" standalone="no"?>
<!-- Created with Inkscape (http://www.inkscape.org/) -->

<svg
   xmlns:dc="http://purl.org/dc/elements/1.1/"
   xmlns:cc="http://creativecommons.org/ns#"
   xmlns:rdf="http://www.w3.org/1999/02/22-rdf-syntax-ns#"
   xmlns:svg="http://www.w3.org/2000/svg"
   xmlns="http://www.w3.org/2000/svg"
   xmlns:sodipodi="http://sodipodi.sourceforge.net/DTD/sodipodi-0.dtd"
   xmlns:inkscape="http://www.inkscape.org/namespaces/inkscape"
   width="7.084836mm"
   height="4.7328668mm"
   viewBox="0 0 7.0848358 4.7328668"
   version="1.1"
   id="svg8"
   inkscape:version="0.92.4 (5da689c313, 2019-01-14)"
   sodipodi:docname="bolivarian_republic_of_venezuela.svg">
  <defs
     id="defs2">
    <radialGradient
       id="radialGradient37584"
       spreadMethod="pad"
       gradientTransform="matrix(0.975099,0,0,0.975099,159.64062,365.06934)"
       gradientUnits="userSpaceOnUse"
       r="1"
       cy="0"
       cx="0"
       fy="0"
       fx="0">
      <stop
         id="stop37578"
         offset="0"
         style="stop-opacity:1;stop-color:#852c26" />
      <stop
         id="stop37580"
         offset="0.0015476"
         style="stop-opacity:1;stop-color:#852c26" />
      <stop
         id="stop37582"
         offset="1"
         style="stop-opacity:1;stop-color:#451617" />
    </radialGradient>
    <clipPath
       id="clipPath37532"
       clipPathUnits="userSpaceOnUse">
      <path
         inkscape:connector-curvature="0"
         id="path37530"
         d="M 0,400 H 400 V 0 H 0 Z" />
    </clipPath>
    <radialGradient
       id="radialGradient37522"
       spreadMethod="pad"
       gradientTransform="matrix(-0.2637247,0,0,0.2637247,159.68652,365.88965)"
       gradientUnits="userSpaceOnUse"
       r="1"
       cy="0"
       cx="0"
       fy="0"
       fx="0">
      <stop
         id="stop37516"
         offset="0"
         style="stop-opacity:1;stop-color:#852c26" />
      <stop
         id="stop37518"
         offset="0.0015476"
         style="stop-opacity:1;stop-color:#852c26" />
      <stop
         id="stop37520"
         offset="1"
         style="stop-opacity:1;stop-color:#451617" />
    </radialGradient>
    <clipPath
       id="clipPath37354"
       clipPathUnits="userSpaceOnUse">
      <path
         inkscape:connector-curvature="0"
         id="path37352"
         d="M 0,400 H 400 V 0 H 0 Z" />
    </clipPath>
    <radialGradient
       id="radialGradient37344"
       spreadMethod="pad"
       gradientTransform="matrix(0.975099,0,0,0.975099,155.76025,365.06934)"
       gradientUnits="userSpaceOnUse"
       r="1"
       cy="0"
       cx="0"
       fy="0"
       fx="0">
      <stop
         id="stop37338"
         offset="0"
         style="stop-opacity:1;stop-color:#eee54f" />
      <stop
         id="stop37340"
         offset="0.9977451"
         style="stop-opacity:1;stop-color:#e04a20" />
      <stop
         id="stop37342"
         offset="1"
         style="stop-opacity:1;stop-color:#e04a20" />
    </radialGradient>
    <clipPath
       id="clipPath37272"
       clipPathUnits="userSpaceOnUse">
      <path
         inkscape:connector-curvature="0"
         id="path37270"
         d="M 0,400 H 400 V 0 H 0 Z" />
    </clipPath>
    <radialGradient
       id="radialGradient37262"
       spreadMethod="pad"
       gradientTransform="matrix(0.2636045,0,0,0.2636045,155.71484,365.89062)"
       gradientUnits="userSpaceOnUse"
       r="1"
       cy="0"
       cx="0"
       fy="0"
       fx="0">
      <stop
         id="stop37256"
         offset="0"
         style="stop-opacity:1;stop-color:#eee54f" />
      <stop
         id="stop37258"
         offset="0.9977451"
         style="stop-opacity:1;stop-color:#e04a20" />
      <stop
         id="stop37260"
         offset="1"
         style="stop-opacity:1;stop-color:#e04a20" />
    </radialGradient>
    <radialGradient
       id="radialGradient5422"
       spreadMethod="pad"
       gradientTransform="matrix(0.1021146,-0.0756367,0.070541,0.1077099,271.97559,176.14746)"
       gradientUnits="userSpaceOnUse"
       r="1"
       cy="0"
       cx="0"
       fy="0"
       fx="0">
      <stop
         id="stop5416"
         offset="0"
         style="stop-opacity:1;stop-color:#ffffff" />
      <stop
         id="stop5418"
         offset="0.00091915"
         style="stop-opacity:1;stop-color:#ffffff" />
      <stop
         id="stop5420"
         offset="1"
         style="stop-opacity:1;stop-color:#e63e6e" />
    </radialGradient>
    <clipPath
       id="clipPath5374"
       clipPathUnits="userSpaceOnUse">
      <path
         inkscape:connector-curvature="0"
         id="path5372"
         d="M 0,400 H 400 V 0 H 0 Z" />
    </clipPath>
    <radialGradient
       id="radialGradient5364"
       spreadMethod="pad"
       gradientTransform="matrix(0.1318831,-9.013e-4,-1.001e-4,0.1311822,269.56445,176.4248)"
       gradientUnits="userSpaceOnUse"
       r="1"
       cy="0"
       cx="0"
       fy="0"
       fx="0">
      <stop
         id="stop5358"
         offset="0"
         style="stop-opacity:1;stop-color:#ffffff" />
      <stop
         id="stop5360"
         offset="0.00091915"
         style="stop-opacity:1;stop-color:#ffffff" />
      <stop
         id="stop5362"
         offset="1"
         style="stop-opacity:1;stop-color:#e63e6e" />
    </radialGradient>
    <clipPath
       id="clipPath5316"
       clipPathUnits="userSpaceOnUse">
      <path
         inkscape:connector-curvature="0"
         id="path5314"
         d="M 0,400 H 400 V 0 H 0 Z" />
    </clipPath>
    <radialGradient
       id="radialGradient5306"
       spreadMethod="pad"
       gradientTransform="matrix(0.1105445,0.0935377,-0.0930375,0.1086438,268.6875,176.89062)"
       gradientUnits="userSpaceOnUse"
       r="1"
       cy="0"
       cx="0"
       fy="0"
       fx="0">
      <stop
         id="stop5300"
         offset="0"
         style="stop-opacity:1;stop-color:#ffffff" />
      <stop
         id="stop5302"
         offset="0.00091915"
         style="stop-opacity:1;stop-color:#ffffff" />
      <stop
         id="stop5304"
         offset="1"
         style="stop-opacity:1;stop-color:#e63e6e" />
    </radialGradient>
  </defs>
  <sodipodi:namedview
     id="base"
     pagecolor="#ffffff"
     bordercolor="#666666"
     borderopacity="1.0"
     inkscape:pageopacity="0.0"
     inkscape:pageshadow="2"
     inkscape:zoom="11.2"
     inkscape:cx="20.834116"
     inkscape:cy="5.3004462"
     inkscape:document-units="mm"
     inkscape:current-layer="layer1"
     showgrid="false"
     inkscape:window-width="954"
     inkscape:window-height="630"
     inkscape:window-x="-3"
     inkscape:window-y="6"
     inkscape:window-maximized="0" />
  <metadata
     id="metadata5">
    <rdf:RDF>
      <cc:Work
         rdf:about="">
        <dc:format>image/svg+xml</dc:format>
        <dc:type
           rdf:resource="http://purl.org/dc/dcmitype/StillImage" />
        <dc:title></dc:title>
      </cc:Work>
    </rdf:RDF>
  </metadata>
  <g
     inkscape:label="Layer 1"
     inkscape:groupmode="layer"
     id="layer1"
     transform="translate(-44.471287,-98.334054)">
    <g
       id="g14718"
       transform="matrix(0.35277777,0,0,-0.35277777,44.500568,103.03764)">
      <path
         d="M 0,0 H 19.918 L 19.917,13.251 H 0 Z M 19.959,-0.042 V 0 Z M -0.083,-0.083 V 13.333 H 20 V -0.042 -0.083 Z"
         style="fill:#221f21;fill-opacity:1;fill-rule:nonzero;stroke:none"
         id="path14720"
         inkscape:connector-curvature="0" />
    </g>
    <path
       d="m 44.48624,103.05211 h 7.05556 v -1.56775 h -7.05556 z"
       style="fill:#c22135;fill-opacity:1;fill-rule:nonzero;stroke:none;stroke-width:0.35277778"
       id="path14722"
       inkscape:connector-curvature="0" />
    <path
       d="M 44.48624,101.48436 H 51.5418 V 99.91662 H 44.48624 Z"
       style="fill:#2843a0;fill-opacity:1;fill-rule:nonzero;stroke:none;stroke-width:0.35277778"
       id="path14724"
       inkscape:connector-curvature="0" />
    <path
       d="M 51.5418,98.348522 H 44.48624 V 99.91627 H 51.5418 Z"
       style="fill:#e6c128;fill-opacity:1;fill-rule:nonzero;stroke:none;stroke-width:0.35277778"
       id="path14726"
       inkscape:connector-curvature="0" />
    <g
       id="g14728"
       transform="matrix(0.35277777,0,0,-0.35277777,46.783277,100.93336)">
      <path
         d="m 0,0 0.142,-0.427 0.43,0.009 -0.343,-0.273 0.142,-0.428 -0.353,0.26 -0.343,-0.274 0.124,0.434 -0.353,0.258 0.43,0.008 z"
         style="fill:#ffffff;fill-opacity:1;fill-rule:nonzero;stroke:none"
         id="path14730"
         inkscape:connector-curvature="0" />
    </g>
    <g
       id="g14732"
       transform="matrix(0.35277777,0,0,-0.35277777,47.076827,100.53786)">
      <path
         d="m 0,0 -0.018,-0.45 0.406,-0.144 -0.417,-0.135 -0.018,-0.449 -0.24,0.366 -0.416,-0.134 0.268,0.361 -0.239,0.366 0.405,-0.142 z"
         style="fill:#ffffff;fill-opacity:1;fill-rule:nonzero;stroke:none"
         id="path14734"
         inkscape:connector-curvature="0" />
    </g>
    <g
       id="g14736"
       transform="matrix(0.35277777,0,0,-0.35277777,47.490918,100.27123)">
      <path
         d="m 0,0 -0.176,-0.416 0.329,-0.277 -0.437,0.021 -0.176,-0.414 -0.095,0.427 -0.437,0.021 0.379,0.243 -0.095,0.428 0.329,-0.277 z"
         style="fill:#ffffff;fill-opacity:1;fill-rule:nonzero;stroke:none"
         id="path14738"
         inkscape:connector-curvature="0" />
    </g>
    <g
       id="g14740"
       transform="matrix(0.35277777,0,0,-0.35277777,47.972177,100.16822)">
      <path
         d="m 0,0 -0.311,-0.326 0.21,-0.376 -0.402,0.175 -0.31,-0.327 0.062,0.433 -0.402,0.174 0.44,0.095 0.063,0.432 0.21,-0.375 z"
         style="fill:#ffffff;fill-opacity:1;fill-rule:nonzero;stroke:none"
         id="path14742"
         inkscape:connector-curvature="0" />
    </g>
    <g
       id="g14744"
       transform="matrix(0.35277777,0,0,-0.35277777,48.458977,100.2416)">
      <path
         d="m 0,0 -0.406,-0.194 0.064,-0.426 -0.314,0.304 -0.406,-0.196 0.21,0.384 -0.314,0.306 0.445,-0.069 0.211,0.384 0.065,-0.426 z"
         style="fill:#ffffff;fill-opacity:1;fill-rule:nonzero;stroke:none"
         id="path14746"
         inkscape:connector-curvature="0" />
    </g>
    <g
       id="g14748"
       transform="matrix(0.35277777,0,0,-0.35277777,48.888938,100.48138)">
      <path
         d="m 0,0 -0.449,-0.04 -0.09,-0.421 -0.188,0.397 -0.448,-0.04 0.333,0.284 -0.187,0.396 0.393,-0.221 0.332,0.286 -0.09,-0.421 z"
         style="fill:#ffffff;fill-opacity:1;fill-rule:nonzero;stroke:none"
         id="path14750"
         inkscape:connector-curvature="0" />
    </g>
    <g
       id="g14752"
       transform="matrix(0.35277777,0,0,-0.35277777,49.206588,100.85758)">
      <path
         d="M 0,0 -0.435,0.122 -0.667,-0.24 -0.702,0.195 -1.137,0.316 -0.725,0.465 -0.76,0.902 -0.47,0.558 -0.059,0.707 -0.291,0.345 Z"
         style="fill:#ffffff;fill-opacity:1;fill-rule:nonzero;stroke:none"
         id="path14754"
         inkscape:connector-curvature="0" />
    </g>
    <g
       id="g14756"
       transform="matrix(0.35277777,0,0,-0.35277777,49.371258,101.32127)">
      <path
         d="M 0,0 -0.363,0.266 -0.709,0.01 -0.589,0.43 -0.952,0.695 -0.515,0.69 -0.394,1.111 -0.244,0.687 0.194,0.682 -0.151,0.424 Z"
         style="fill:#ffffff;fill-opacity:1;fill-rule:nonzero;stroke:none"
         id="path14758"
         inkscape:connector-curvature="0" />
    </g>
  </g>
</svg>
