<?xml version="1.0" encoding="UTF-8" standalone="no"?>
<!-- Created with Inkscape (http://www.inkscape.org/) -->

<svg
   xmlns:dc="http://purl.org/dc/elements/1.1/"
   xmlns:cc="http://creativecommons.org/ns#"
   xmlns:rdf="http://www.w3.org/1999/02/22-rdf-syntax-ns#"
   xmlns:svg="http://www.w3.org/2000/svg"
   xmlns="http://www.w3.org/2000/svg"
   xmlns:sodipodi="http://sodipodi.sourceforge.net/DTD/sodipodi-0.dtd"
   xmlns:inkscape="http://www.inkscape.org/namespaces/inkscape"
   width="7.084836mm"
   height="4.7328668mm"
   viewBox="0 0 7.084836 4.7328668"
   version="1.1"
   id="svg8"
   inkscape:version="0.92.4 (5da689c313, 2019-01-14)"
   sodipodi:docname="burundi.svg">
  <defs
     id="defs2">
    <radialGradient
       id="radialGradient37584"
       spreadMethod="pad"
       gradientTransform="matrix(0.975099,0,0,0.975099,159.64062,365.06934)"
       gradientUnits="userSpaceOnUse"
       r="1"
       cy="0"
       cx="0"
       fy="0"
       fx="0">
      <stop
         id="stop37578"
         offset="0"
         style="stop-opacity:1;stop-color:#852c26" />
      <stop
         id="stop37580"
         offset="0.0015476"
         style="stop-opacity:1;stop-color:#852c26" />
      <stop
         id="stop37582"
         offset="1"
         style="stop-opacity:1;stop-color:#451617" />
    </radialGradient>
    <clipPath
       id="clipPath37532"
       clipPathUnits="userSpaceOnUse">
      <path
         inkscape:connector-curvature="0"
         id="path37530"
         d="M 0,400 H 400 V 0 H 0 Z" />
    </clipPath>
    <radialGradient
       id="radialGradient37522"
       spreadMethod="pad"
       gradientTransform="matrix(-0.2637247,0,0,0.2637247,159.68652,365.88965)"
       gradientUnits="userSpaceOnUse"
       r="1"
       cy="0"
       cx="0"
       fy="0"
       fx="0">
      <stop
         id="stop37516"
         offset="0"
         style="stop-opacity:1;stop-color:#852c26" />
      <stop
         id="stop37518"
         offset="0.0015476"
         style="stop-opacity:1;stop-color:#852c26" />
      <stop
         id="stop37520"
         offset="1"
         style="stop-opacity:1;stop-color:#451617" />
    </radialGradient>
    <clipPath
       id="clipPath37354"
       clipPathUnits="userSpaceOnUse">
      <path
         inkscape:connector-curvature="0"
         id="path37352"
         d="M 0,400 H 400 V 0 H 0 Z" />
    </clipPath>
    <radialGradient
       id="radialGradient37344"
       spreadMethod="pad"
       gradientTransform="matrix(0.975099,0,0,0.975099,155.76025,365.06934)"
       gradientUnits="userSpaceOnUse"
       r="1"
       cy="0"
       cx="0"
       fy="0"
       fx="0">
      <stop
         id="stop37338"
         offset="0"
         style="stop-opacity:1;stop-color:#eee54f" />
      <stop
         id="stop37340"
         offset="0.9977451"
         style="stop-opacity:1;stop-color:#e04a20" />
      <stop
         id="stop37342"
         offset="1"
         style="stop-opacity:1;stop-color:#e04a20" />
    </radialGradient>
    <clipPath
       id="clipPath37272"
       clipPathUnits="userSpaceOnUse">
      <path
         inkscape:connector-curvature="0"
         id="path37270"
         d="M 0,400 H 400 V 0 H 0 Z" />
    </clipPath>
    <radialGradient
       id="radialGradient37262"
       spreadMethod="pad"
       gradientTransform="matrix(0.2636045,0,0,0.2636045,155.71484,365.89062)"
       gradientUnits="userSpaceOnUse"
       r="1"
       cy="0"
       cx="0"
       fy="0"
       fx="0">
      <stop
         id="stop37256"
         offset="0"
         style="stop-opacity:1;stop-color:#eee54f" />
      <stop
         id="stop37258"
         offset="0.9977451"
         style="stop-opacity:1;stop-color:#e04a20" />
      <stop
         id="stop37260"
         offset="1"
         style="stop-opacity:1;stop-color:#e04a20" />
    </radialGradient>
  </defs>
  <sodipodi:namedview
     id="base"
     pagecolor="#ffffff"
     bordercolor="#666666"
     borderopacity="1.0"
     inkscape:pageopacity="0.0"
     inkscape:pageshadow="2"
     inkscape:zoom="11.2"
     inkscape:cx="20.671675"
     inkscape:cy="3.8827556"
     inkscape:document-units="mm"
     inkscape:current-layer="layer1"
     showgrid="false"
     inkscape:window-width="954"
     inkscape:window-height="630"
     inkscape:window-x="-3"
     inkscape:window-y="6"
     inkscape:window-maximized="0" />
  <metadata
     id="metadata5">
    <rdf:RDF>
      <cc:Work
         rdf:about="">
        <dc:format>image/svg+xml</dc:format>
        <dc:type
           rdf:resource="http://purl.org/dc/dcmitype/StillImage" />
        <dc:title></dc:title>
      </cc:Work>
    </rdf:RDF>
  </metadata>
  <g
     inkscape:label="Layer 1"
     inkscape:groupmode="layer"
     id="layer1"
     transform="translate(-69.059869,-95.625324)">
    <g
       id="g39202"
       transform="matrix(0.35277777,0,0,-0.35277777,69.08915,100.32891)">
      <path
         d="M 0,0 H 19.917 V 13.251 H 0 Z M 19.958,-0.042 V 0 Z M -0.083,-0.083 V 13.333 H 20 V -0.042 -0.083 Z"
         style="fill:#221f21;fill-opacity:1;fill-rule:nonzero;stroke:none"
         id="path39204"
         inkscape:connector-curvature="0" />
    </g>
    <g
       id="g39206"
       transform="matrix(0.35277777,0,0,-0.35277777,76.130069,99.99007)">
      <path
         d="M 0,0 V 11.33 L -8.498,5.665 Z"
         style="fill:#43b840;fill-opacity:1;fill-rule:nonzero;stroke:none"
         id="path39208"
         inkscape:connector-curvature="0" />
    </g>
    <g
       id="g39210"
       transform="matrix(0.35277777,0,0,-0.35277777,75.599701,95.639788)">
      <path
         d="m 0,0 h -16.994 l 8.497,-5.665 z"
         style="fill:#c12131;fill-opacity:1;fill-rule:nonzero;stroke:none"
         id="path39212"
         inkscape:connector-curvature="0" />
    </g>
    <g
       id="g39214"
       transform="matrix(0.35277777,0,0,-0.35277777,69.07451,95.993094)">
      <path
         d="m 0,0 v -11.33 l 8.498,5.665 z"
         style="fill:#43b840;fill-opacity:1;fill-rule:nonzero;stroke:none"
         id="path39216"
         inkscape:connector-curvature="0" />
    </g>
    <g
       id="g39218"
       transform="matrix(0.35277777,0,0,-0.35277777,69.604391,100.34355)">
      <path
         d="M 0,0 H 16.996 L 8.498,5.666 Z"
         style="fill:#c12131;fill-opacity:1;fill-rule:nonzero;stroke:none"
         id="path39220"
         inkscape:connector-curvature="0" />
    </g>
    <g
       id="g39222"
       transform="matrix(0.35277777,0,0,-0.35277777,73.13234,97.991581)">
      <path
         d="M 0,0 8.498,5.665 V 6.667 H 6.994 L -1.502,1.002 -10,6.667 h -1.502 V 5.665 L -3.005,0 -11.502,-5.665 V -6.667 H -10 l 8.498,5.666 8.498,-5.666 h 1.502 v 0 1.002 z"
         style="fill:#ffffff;fill-opacity:1;fill-rule:nonzero;stroke:none"
         id="path39224"
         inkscape:connector-curvature="0" />
    </g>
    <g
       id="g39226"
       transform="matrix(0.35277777,0,0,-0.35277777,73.778281,97.991581)">
      <path
         d="m 0,0 c 0,-1.841 -1.493,-3.333 -3.334,-3.333 -1.84,0 -3.333,1.492 -3.333,3.333 0,1.841 1.493,3.333 3.333,3.333 C -1.493,3.333 0,1.841 0,0"
         style="fill:#ffffff;fill-opacity:1;fill-rule:nonzero;stroke:none"
         id="path39228"
         inkscape:connector-curvature="0" />
    </g>
    <g
       id="g39230"
       transform="matrix(0.35277777,0,0,-0.35277777,72.602642,97.649986)">
      <path
         d="m 0,0 -0.024,0.041 -0.194,0.334 h -0.381 -0.047 l 0.023,0.041 0.191,0.331 -0.191,0.33 -0.023,0.04 h 0.047 0.381 L -0.024,1.452 0,1.492 0.022,1.452 0.216,1.117 H 0.597 0.644 L 0.62,1.077 0.43,0.747 0.62,0.416 0.644,0.375 H 0.597 0.216 L 0.022,0.041 Z"
         style="fill:#c12131;fill-opacity:1;fill-rule:nonzero;stroke:none"
         id="path39232"
         inkscape:connector-curvature="0" />
    </g>
    <g
       id="g39234"
       transform="matrix(0.35277777,0,0,-0.35277777,72.60229,97.104627)">
      <path
         d="m 0,0 -0.047,-0.081 -0.185,-0.32 h -0.366 -0.094 l 0.047,-0.08 0.184,-0.318 -0.184,-0.318 -0.047,-0.081 h 0.094 0.366 L -0.047,-1.519 0,-1.6 l 0.047,0.081 0.185,0.321 h 0.366 0.094 l -0.047,0.081 -0.183,0.318 0.183,0.318 0.047,0.08 H 0.598 0.232 l -0.185,0.32 z M 0,-0.107 0.201,-0.456 H 0.598 L 0.399,-0.799 0.598,-1.144 H 0.201 L 0,-1.492 -0.201,-1.144 h -0.397 l 0.199,0.345 -0.199,0.343 h 0.397 z"
         style="fill:#43b840;fill-opacity:1;fill-rule:nonzero;stroke:none"
         id="path39236"
         inkscape:connector-curvature="0" />
    </g>
    <g
       id="g39238"
       transform="matrix(0.35277777,0,0,-0.35277777,72.05351,98.592926)">
      <path
         d="m 0,0 -0.023,0.04 -0.194,0.335 h -0.382 -0.047 l 0.023,0.04 0.191,0.331 -0.191,0.331 -0.023,0.04 h 0.047 0.382 L -0.023,1.452 0,1.492 0.023,1.452 0.216,1.117 H 0.597 0.644 L 0.621,1.077 0.43,0.746 0.621,0.415 0.644,0.375 H 0.597 0.216 L 0.023,0.04 Z"
         style="fill:#c12131;fill-opacity:1;fill-rule:nonzero;stroke:none"
         id="path39240"
         inkscape:connector-curvature="0" />
    </g>
    <g
       id="g39242"
       transform="matrix(0.35277777,0,0,-0.35277777,72.05351,98.047566)">
      <path
         d="m 0,0 -0.048,-0.081 -0.185,-0.32 h -0.366 -0.093 l 0.046,-0.081 0.183,-0.318 -0.183,-0.318 -0.046,-0.08 h 0.093 0.367 L -0.048,-1.52 0,-1.601 0.047,-1.52 0.231,-1.198 h 0.366 0.094 l -0.046,0.08 -0.184,0.318 0.183,0.318 0.047,0.081 H 0.597 0.231 l -0.184,0.32 z M 0,-0.107 0.2,-0.456 H 0.597 L 0.398,-0.8 0.597,-1.144 H 0.2 L 0,-1.492 -0.201,-1.144 H -0.599 L -0.4,-0.8 -0.599,-0.456 h 0.398 z"
         style="fill:#43b840;fill-opacity:1;fill-rule:nonzero;stroke:none"
         id="path39244"
         inkscape:connector-curvature="0" />
    </g>
    <g
       id="g39246"
       transform="matrix(0.35277777,0,0,-0.35277777,73.151462,98.592926)">
      <path
         d="m 0,0 -0.023,0.04 -0.194,0.335 h -0.381 -0.047 l 0.023,0.04 0.191,0.331 -0.191,0.331 -0.023,0.04 h 0.047 0.381 L -0.023,1.452 0,1.492 0.023,1.452 0.216,1.117 H 0.597 0.645 L 0.622,1.077 0.431,0.746 0.622,0.415 0.646,0.375 H 0.597 0.216 L 0.023,0.04 Z"
         style="fill:#c12131;fill-opacity:1;fill-rule:nonzero;stroke:none"
         id="path39248"
         inkscape:connector-curvature="0" />
    </g>
    <g
       id="g39250"
       transform="matrix(0.35277777,0,0,-0.35277777,73.151462,98.047566)">
      <path
         d="m 0,0 -0.047,-0.081 -0.185,-0.32 h -0.366 -0.094 l 0.047,-0.081 0.184,-0.318 -0.184,-0.318 -0.047,-0.08 h 0.094 0.366 L -0.047,-1.52 0,-1.601 0.047,-1.52 0.232,-1.198 h 0.366 0.093 l -0.045,0.08 -0.184,0.318 0.184,0.318 0.045,0.081 H 0.597 0.232 l -0.185,0.32 z M 0,-0.107 0.2,-0.456 H 0.597 L 0.398,-0.8 0.598,-1.144 H 0.2 L 0,-1.492 -0.201,-1.144 h -0.397 l 0.199,0.344 -0.199,0.344 h 0.397 z"
         style="fill:#43b840;fill-opacity:1;fill-rule:nonzero;stroke:none"
         id="path39252"
         inkscape:connector-curvature="0" />
    </g>
  </g>
</svg>
