<?xml version="1.0" encoding="UTF-8" standalone="no"?>
<!-- Created with Inkscape (http://www.inkscape.org/) -->

<svg
   xmlns:dc="http://purl.org/dc/elements/1.1/"
   xmlns:cc="http://creativecommons.org/ns#"
   xmlns:rdf="http://www.w3.org/1999/02/22-rdf-syntax-ns#"
   xmlns:svg="http://www.w3.org/2000/svg"
   xmlns="http://www.w3.org/2000/svg"
   xmlns:sodipodi="http://sodipodi.sourceforge.net/DTD/sodipodi-0.dtd"
   xmlns:inkscape="http://www.inkscape.org/namespaces/inkscape"
   width="7.084836mm"
   height="4.7328668mm"
   viewBox="0 0 7.084836 4.7328668"
   version="1.1"
   id="svg8"
   inkscape:version="0.92.4 (5da689c313, 2019-01-14)"
   sodipodi:docname="cape_verde.svg">
  <defs
     id="defs2">
    <radialGradient
       id="radialGradient37584"
       spreadMethod="pad"
       gradientTransform="matrix(0.975099,0,0,0.975099,159.64062,365.06934)"
       gradientUnits="userSpaceOnUse"
       r="1"
       cy="0"
       cx="0"
       fy="0"
       fx="0">
      <stop
         id="stop37578"
         offset="0"
         style="stop-opacity:1;stop-color:#852c26" />
      <stop
         id="stop37580"
         offset="0.0015476"
         style="stop-opacity:1;stop-color:#852c26" />
      <stop
         id="stop37582"
         offset="1"
         style="stop-opacity:1;stop-color:#451617" />
    </radialGradient>
    <clipPath
       id="clipPath37532"
       clipPathUnits="userSpaceOnUse">
      <path
         inkscape:connector-curvature="0"
         id="path37530"
         d="M 0,400 H 400 V 0 H 0 Z" />
    </clipPath>
    <radialGradient
       id="radialGradient37522"
       spreadMethod="pad"
       gradientTransform="matrix(-0.2637247,0,0,0.2637247,159.68652,365.88965)"
       gradientUnits="userSpaceOnUse"
       r="1"
       cy="0"
       cx="0"
       fy="0"
       fx="0">
      <stop
         id="stop37516"
         offset="0"
         style="stop-opacity:1;stop-color:#852c26" />
      <stop
         id="stop37518"
         offset="0.0015476"
         style="stop-opacity:1;stop-color:#852c26" />
      <stop
         id="stop37520"
         offset="1"
         style="stop-opacity:1;stop-color:#451617" />
    </radialGradient>
    <clipPath
       id="clipPath37354"
       clipPathUnits="userSpaceOnUse">
      <path
         inkscape:connector-curvature="0"
         id="path37352"
         d="M 0,400 H 400 V 0 H 0 Z" />
    </clipPath>
    <radialGradient
       id="radialGradient37344"
       spreadMethod="pad"
       gradientTransform="matrix(0.975099,0,0,0.975099,155.76025,365.06934)"
       gradientUnits="userSpaceOnUse"
       r="1"
       cy="0"
       cx="0"
       fy="0"
       fx="0">
      <stop
         id="stop37338"
         offset="0"
         style="stop-opacity:1;stop-color:#eee54f" />
      <stop
         id="stop37340"
         offset="0.9977451"
         style="stop-opacity:1;stop-color:#e04a20" />
      <stop
         id="stop37342"
         offset="1"
         style="stop-opacity:1;stop-color:#e04a20" />
    </radialGradient>
    <clipPath
       id="clipPath37272"
       clipPathUnits="userSpaceOnUse">
      <path
         inkscape:connector-curvature="0"
         id="path37270"
         d="M 0,400 H 400 V 0 H 0 Z" />
    </clipPath>
    <radialGradient
       id="radialGradient37262"
       spreadMethod="pad"
       gradientTransform="matrix(0.2636045,0,0,0.2636045,155.71484,365.89062)"
       gradientUnits="userSpaceOnUse"
       r="1"
       cy="0"
       cx="0"
       fy="0"
       fx="0">
      <stop
         id="stop37256"
         offset="0"
         style="stop-opacity:1;stop-color:#eee54f" />
      <stop
         id="stop37258"
         offset="0.9977451"
         style="stop-opacity:1;stop-color:#e04a20" />
      <stop
         id="stop37260"
         offset="1"
         style="stop-opacity:1;stop-color:#e04a20" />
    </radialGradient>
  </defs>
  <sodipodi:namedview
     id="base"
     pagecolor="#ffffff"
     bordercolor="#666666"
     borderopacity="1.0"
     inkscape:pageopacity="0.0"
     inkscape:pageshadow="2"
     inkscape:zoom="11.2"
     inkscape:cx="24.583483"
     inkscape:cy="6.4444406"
     inkscape:document-units="mm"
     inkscape:current-layer="layer1"
     showgrid="false"
     inkscape:window-width="954"
     inkscape:window-height="630"
     inkscape:window-x="-3"
     inkscape:window-y="6"
     inkscape:window-maximized="0" />
  <metadata
     id="metadata5">
    <rdf:RDF>
      <cc:Work
         rdf:about="">
        <dc:format>image/svg+xml</dc:format>
        <dc:type
           rdf:resource="http://purl.org/dc/dcmitype/StillImage" />
        <dc:title></dc:title>
      </cc:Work>
    </rdf:RDF>
  </metadata>
  <g
     inkscape:label="Layer 1"
     inkscape:groupmode="layer"
     id="layer1"
     transform="translate(-68.024868,-96.303104)">
    <g
       id="g37712"
       transform="matrix(0.35277777,0,0,-0.35277777,68.054149,101.00669)">
      <path
         d="M 0,0 H 19.917 V 13.25 H 0 Z M 19.958,-0.042 V 0 Z M -0.083,-0.083 V 13.333 H 20 V -0.042 -0.083 Z"
         style="fill:#221f21;fill-opacity:1;fill-rule:nonzero;stroke:none"
         id="path37714"
         inkscape:connector-curvature="0" />
    </g>
    <path
       d="m 75.095001,101.0214 h -7.05556 v -4.703583 h 7.05556 z"
       style="fill:#294190;fill-opacity:1;fill-rule:nonzero;stroke:none;stroke-width:0.35277778"
       id="path37716"
       inkscape:connector-curvature="0" />
    <path
       d="m 75.095001,99.063487 h -7.05556 V 98.67155 h 7.05556 z"
       style="fill:#ffffff;fill-opacity:1;fill-rule:nonzero;stroke:none;stroke-width:0.35277778"
       id="path37718"
       inkscape:connector-curvature="0" />
    <path
       d="m 75.095001,99.455775 h -7.05556 v -0.391936 h 7.05556 z"
       style="fill:#c12131;fill-opacity:1;fill-rule:nonzero;stroke:none;stroke-width:0.35277778"
       id="path37720"
       inkscape:connector-curvature="0" />
    <path
       d="m 75.095001,99.847711 h -7.05556 v -0.391936 h 7.05556 z"
       style="fill:#ffffff;fill-opacity:1;fill-rule:nonzero;stroke:none;stroke-width:0.35277778"
       id="path37722"
       inkscape:connector-curvature="0" />
    <g
       id="g37724"
       transform="matrix(0.35277777,0,0,-0.35277777,70.076589,98.235447)">
      <path
         d="M 0,0 -0.132,-0.405 H -0.558 L -0.212,-0.656 -0.345,-1.061 0,-0.809 0.346,-1.061 0.213,-0.656 0.559,-0.405 H 0.132 Z"
         style="fill:#ecc028;fill-opacity:1;fill-rule:nonzero;stroke:none"
         id="path37726"
         inkscape:connector-curvature="0" />
    </g>
    <g
       id="g37728"
       transform="matrix(0.35277777,0,0,-0.35277777,69.701058,98.752901)">
      <path
         d="M 0,0 -0.133,-0.404 H -0.56 L -0.213,-0.655 -0.346,-1.061 0,-0.81 0.344,-1.061 0.212,-0.655 0.557,-0.404 H 0.131 Z"
         style="fill:#ecc028;fill-opacity:1;fill-rule:nonzero;stroke:none"
         id="path37730"
         inkscape:connector-curvature="0" />
    </g>
    <g
       id="g37732"
       transform="matrix(0.35277777,0,0,-0.35277777,69.701058,99.392311)">
      <path
         d="M 0,0 -0.133,-0.405 H -0.56 L -0.213,-0.656 -0.346,-1.062 0,-0.811 0.344,-1.062 0.212,-0.656 0.557,-0.405 H 0.131 Z"
         style="fill:#ecc028;fill-opacity:1;fill-rule:nonzero;stroke:none"
         id="path37734"
         inkscape:connector-curvature="0" />
    </g>
    <g
       id="g37736"
       transform="matrix(0.35277777,0,0,-0.35277777,70.076589,99.909765)">
      <path
         d="m 0,0 -0.132,-0.406 h -0.426 l 0.346,-0.25 -0.133,-0.405 0.345,0.25 0.346,-0.25 -0.133,0.405 0.346,0.25 H 0.132 Z"
         style="fill:#ecc028;fill-opacity:1;fill-rule:nonzero;stroke:none"
         id="path37738"
         inkscape:connector-curvature="0" />
    </g>
    <g
       id="g37740"
       transform="matrix(0.35277777,0,0,-0.35277777,70.684988,98.037715)">
      <path
         d="m 0,0 -0.132,-0.405 h -0.426 l 0.344,-0.251 -0.132,-0.405 0.346,0.25 0.344,-0.25 -0.131,0.405 0.345,0.251 H 0.132 Z"
         style="fill:#ecc028;fill-opacity:1;fill-rule:nonzero;stroke:none"
         id="path37742"
         inkscape:connector-curvature="0" />
    </g>
    <g
       id="g37744"
       transform="matrix(0.35277777,0,0,-0.35277777,70.684988,100.10736)">
      <path
         d="M 0,0 -0.132,-0.405 H -0.558 L -0.214,-0.656 -0.346,-1.061 0,-0.81 0.344,-1.061 0.213,-0.656 0.558,-0.405 H 0.132 Z"
         style="fill:#ecc028;fill-opacity:1;fill-rule:nonzero;stroke:none"
         id="path37746"
         inkscape:connector-curvature="0" />
    </g>
    <g
       id="g37748"
       transform="matrix(0.35277777,0,0,-0.35277777,71.293038,99.909765)">
      <path
         d="m 0,0 -0.131,-0.406 h -0.428 l 0.346,-0.25 -0.131,-0.405 0.344,0.25 0.345,-0.25 -0.132,0.405 0.345,0.25 H 0.132 Z"
         style="fill:#ecc028;fill-opacity:1;fill-rule:nonzero;stroke:none"
         id="path37750"
         inkscape:connector-curvature="0" />
    </g>
    <g
       id="g37752"
       transform="matrix(0.35277777,0,0,-0.35277777,71.669069,98.752901)">
      <path
         d="M 0,0 -0.132,-0.404 H -0.559 L -0.213,-0.655 -0.344,-1.061 0,-0.81 0.346,-1.061 0.213,-0.655 0.558,-0.404 H 0.131 Z"
         style="fill:#ecc028;fill-opacity:1;fill-rule:nonzero;stroke:none"
         id="path37754"
         inkscape:connector-curvature="0" />
    </g>
    <g
       id="g37756"
       transform="matrix(0.35277777,0,0,-0.35277777,71.669069,99.392311)">
      <path
         d="M 0,0 -0.132,-0.405 H -0.559 L -0.213,-0.656 -0.344,-1.062 0,-0.811 0.346,-1.062 0.213,-0.656 0.558,-0.405 H 0.131 Z"
         style="fill:#ecc028;fill-opacity:1;fill-rule:nonzero;stroke:none"
         id="path37758"
         inkscape:connector-curvature="0" />
    </g>
    <g
       id="g37760"
       transform="matrix(0.35277777,0,0,-0.35277777,71.293038,98.235447)">
      <path
         d="M 0,0 -0.131,-0.405 H -0.559 L -0.213,-0.656 -0.344,-1.061 0,-0.809 0.345,-1.061 0.213,-0.656 0.558,-0.405 H 0.132 Z"
         style="fill:#ecc028;fill-opacity:1;fill-rule:nonzero;stroke:none"
         id="path37762"
         inkscape:connector-curvature="0" />
    </g>
  </g>
</svg>
