<?xml version="1.0" encoding="UTF-8" standalone="no"?>
<!-- Created with Inkscape (http://www.inkscape.org/) -->

<svg
   xmlns:dc="http://purl.org/dc/elements/1.1/"
   xmlns:cc="http://creativecommons.org/ns#"
   xmlns:rdf="http://www.w3.org/1999/02/22-rdf-syntax-ns#"
   xmlns:svg="http://www.w3.org/2000/svg"
   xmlns="http://www.w3.org/2000/svg"
   xmlns:sodipodi="http://sodipodi.sourceforge.net/DTD/sodipodi-0.dtd"
   xmlns:inkscape="http://www.inkscape.org/namespaces/inkscape"
   width="7.084836mm"
   height="4.7328668mm"
   viewBox="0 0 7.084836 4.7328668"
   version="1.1"
   id="svg8"
   inkscape:version="0.92.4 (5da689c313, 2019-01-14)"
   sodipodi:docname="croatia.svg">
  <defs
     id="defs2">
    <radialGradient
       id="radialGradient37584"
       spreadMethod="pad"
       gradientTransform="matrix(0.975099,0,0,0.975099,159.64062,365.06934)"
       gradientUnits="userSpaceOnUse"
       r="1"
       cy="0"
       cx="0"
       fy="0"
       fx="0">
      <stop
         id="stop37578"
         offset="0"
         style="stop-opacity:1;stop-color:#852c26" />
      <stop
         id="stop37580"
         offset="0.0015476"
         style="stop-opacity:1;stop-color:#852c26" />
      <stop
         id="stop37582"
         offset="1"
         style="stop-opacity:1;stop-color:#451617" />
    </radialGradient>
    <clipPath
       id="clipPath37532"
       clipPathUnits="userSpaceOnUse">
      <path
         inkscape:connector-curvature="0"
         id="path37530"
         d="M 0,400 H 400 V 0 H 0 Z" />
    </clipPath>
    <radialGradient
       id="radialGradient37522"
       spreadMethod="pad"
       gradientTransform="matrix(-0.2637247,0,0,0.2637247,159.68652,365.88965)"
       gradientUnits="userSpaceOnUse"
       r="1"
       cy="0"
       cx="0"
       fy="0"
       fx="0">
      <stop
         id="stop37516"
         offset="0"
         style="stop-opacity:1;stop-color:#852c26" />
      <stop
         id="stop37518"
         offset="0.0015476"
         style="stop-opacity:1;stop-color:#852c26" />
      <stop
         id="stop37520"
         offset="1"
         style="stop-opacity:1;stop-color:#451617" />
    </radialGradient>
    <clipPath
       id="clipPath37354"
       clipPathUnits="userSpaceOnUse">
      <path
         inkscape:connector-curvature="0"
         id="path37352"
         d="M 0,400 H 400 V 0 H 0 Z" />
    </clipPath>
    <radialGradient
       id="radialGradient37344"
       spreadMethod="pad"
       gradientTransform="matrix(0.975099,0,0,0.975099,155.76025,365.06934)"
       gradientUnits="userSpaceOnUse"
       r="1"
       cy="0"
       cx="0"
       fy="0"
       fx="0">
      <stop
         id="stop37338"
         offset="0"
         style="stop-opacity:1;stop-color:#eee54f" />
      <stop
         id="stop37340"
         offset="0.9977451"
         style="stop-opacity:1;stop-color:#e04a20" />
      <stop
         id="stop37342"
         offset="1"
         style="stop-opacity:1;stop-color:#e04a20" />
    </radialGradient>
    <clipPath
       id="clipPath37272"
       clipPathUnits="userSpaceOnUse">
      <path
         inkscape:connector-curvature="0"
         id="path37270"
         d="M 0,400 H 400 V 0 H 0 Z" />
    </clipPath>
    <radialGradient
       id="radialGradient37262"
       spreadMethod="pad"
       gradientTransform="matrix(0.2636045,0,0,0.2636045,155.71484,365.89062)"
       gradientUnits="userSpaceOnUse"
       r="1"
       cy="0"
       cx="0"
       fy="0"
       fx="0">
      <stop
         id="stop37256"
         offset="0"
         style="stop-opacity:1;stop-color:#eee54f" />
      <stop
         id="stop37258"
         offset="0.9977451"
         style="stop-opacity:1;stop-color:#e04a20" />
      <stop
         id="stop37260"
         offset="1"
         style="stop-opacity:1;stop-color:#e04a20" />
    </radialGradient>
  </defs>
  <sodipodi:namedview
     id="base"
     pagecolor="#ffffff"
     bordercolor="#666666"
     borderopacity="1.0"
     inkscape:pageopacity="0.0"
     inkscape:pageshadow="2"
     inkscape:zoom="11.2"
     inkscape:cx="21.020263"
     inkscape:cy="4.9434745"
     inkscape:document-units="mm"
     inkscape:current-layer="layer1"
     showgrid="false"
     inkscape:window-width="954"
     inkscape:window-height="630"
     inkscape:window-x="-3"
     inkscape:window-y="6"
     inkscape:window-maximized="0" />
  <metadata
     id="metadata5">
    <rdf:RDF>
      <cc:Work
         rdf:about="">
        <dc:format>image/svg+xml</dc:format>
        <dc:type
           rdf:resource="http://purl.org/dc/dcmitype/StillImage" />
        <dc:title></dc:title>
      </cc:Work>
    </rdf:RDF>
  </metadata>
  <g
     inkscape:label="Layer 1"
     inkscape:groupmode="layer"
     id="layer1"
     transform="translate(-58.230909,-94.591729)">
    <g
       id="g40642"
       transform="matrix(0.35277777,0,0,-0.35277777,58.26019,99.295315)">
      <path
         d="M 0,0 H 19.917 V 13.25 H 0 Z M 19.958,-0.042 V 0 Z M -0.083,-0.083 V 13.333 H 20 V -0.042 -0.083 Z"
         style="fill:#221f21;fill-opacity:1;fill-rule:nonzero;stroke:none"
         id="path40644"
         inkscape:connector-curvature="0" />
    </g>
    <path
       d="m 58.245652,99.310167 h 7.05556 V 97.74207 h -7.05556 z"
       style="fill:#2c398d;fill-opacity:1;fill-rule:nonzero;stroke:none;stroke-width:0.35277778"
       id="path40646"
       inkscape:connector-curvature="0" />
    <path
       d="m 58.245652,97.742423 h 7.05556 v -1.567745 h -7.05556 z"
       style="fill:#ffffff;fill-opacity:1;fill-rule:nonzero;stroke:none;stroke-width:0.35277778"
       id="path40648"
       inkscape:connector-curvature="0" />
    <path
       d="m 65.301212,94.606581 h -7.05556 v 1.567745 h 7.05556 z"
       style="fill:#c92428;fill-opacity:1;fill-rule:nonzero;stroke:none;stroke-width:0.35277778"
       id="path40650"
       inkscape:connector-curvature="0" />
    <g
       id="g40652"
       transform="matrix(0.35277777,0,0,-0.35277777,60.962361,96.221598)">
      <path
         d="M 0,0 V -2.698 L -0.001,-2.76 0.005,-2.91 c 0.027,-0.226 0.09,-0.442 0.188,-0.641 0.088,-0.178 0.203,-0.346 0.343,-0.502 0.228,-0.253 0.519,-0.463 0.84,-0.606 0.25,-0.112 0.587,-0.188 0.919,-0.204 h 0.004 0.003 c 0.332,0.016 0.669,0.092 0.92,0.204 0.32,0.143 0.611,0.353 0.84,0.606 0.139,0.156 0.254,0.324 0.342,0.502 0.098,0.199 0.161,0.415 0.189,0.641 l 0.006,0.15 -0.001,0.063 V 0 L 4.597,0.067 H 4.53 2.299 0.067 0 Z M 2.297,-4.93 H 2.292 c -0.34,0.017 -0.683,0.093 -0.944,0.209 -0.329,0.148 -0.627,0.363 -0.862,0.623 -0.143,0.16 -0.262,0.334 -0.353,0.517 -0.102,0.207 -0.167,0.43 -0.195,0.663 l -0.006,0.158 0.001,0.063 V 0 0.134 H 0.067 2.299 4.53 4.631 V 0.101 H 4.597 4.631 V 0.134 H 4.664 V 0 L 4.665,-2.696 V -2.76 L 4.659,-2.918 C 4.632,-3.151 4.566,-3.374 4.464,-3.581 4.374,-3.764 4.255,-3.938 4.111,-4.098 3.876,-4.358 3.578,-4.573 3.249,-4.721 2.988,-4.837 2.646,-4.913 2.305,-4.93 H 2.299 Z"
         style="fill:#c92428;fill-opacity:1;fill-rule:nonzero;stroke:none"
         id="path40654"
         inkscape:connector-curvature="0" />
    </g>
    <g
       id="g40656"
       transform="matrix(0.35277777,0,0,-0.35277777,61.77333,97.93123)">
      <path
         d="M 0,0 H -0.002 C -0.333,0.016 -0.666,0.09 -0.917,0.202 -1.235,0.344 -1.523,0.553 -1.751,0.805 -1.889,0.958 -2.004,1.125 -2.09,1.302 -2.188,1.5 -2.251,1.714 -2.277,1.938 l -0.006,0.211 10e-4,2.697 v 0.05 H -2.232 0 2.231 2.282 V 4.846 2.148 L 2.277,1.938 C 2.25,1.714 2.188,1.5 2.09,1.302 2.003,1.125 1.889,0.958 1.75,0.805 1.523,0.553 1.235,0.344 0.916,0.202 0.666,0.09 0.333,0.016 0.002,0 Z"
         style="fill:#c92428;fill-opacity:1;fill-rule:nonzero;stroke:none"
         id="path40658"
         inkscape:connector-curvature="0" />
    </g>
    <path
       d="m 62.240162,96.235003 h -0.31115 v 0.33267 h 0.31115 z"
       style="fill:#ffffff;fill-opacity:1;fill-rule:nonzero;stroke:none;stroke-width:0.35277778"
       id="path40660"
       inkscape:connector-curvature="0" />
    <path
       d="m 61.929012,96.567673 h -0.31115 v 0.333375 h 0.31115 z"
       style="fill:#ffffff;fill-opacity:1;fill-rule:nonzero;stroke:none;stroke-width:0.35277778"
       id="path40662"
       inkscape:connector-curvature="0" />
    <path
       d="m 62.240162,96.901048 h 0.30727 v -0.333375 h -0.30727 z"
       style="fill:#ffffff;fill-opacity:1;fill-rule:nonzero;stroke:none;stroke-width:0.35277778"
       id="path40664"
       inkscape:connector-curvature="0" />
    <path
       d="m 61.306352,96.567673 h -0.30727 v 0.333375 h 0.30727 z"
       style="fill:#ffffff;fill-opacity:1;fill-rule:nonzero;stroke:none;stroke-width:0.35277778"
       id="path40666"
       inkscape:connector-curvature="0" />
    <path
       d="m 61.929012,97.23407 h -0.31115 v 0.333375 h 0.31115 z"
       style="fill:#ffffff;fill-opacity:1;fill-rule:nonzero;stroke:none;stroke-width:0.35277778"
       id="path40668"
       inkscape:connector-curvature="0" />
    <g
       id="g40670"
       transform="matrix(0.35277777,0,0,-0.35277777,62.240121,97.567621)">
      <path
         d="m 0,0 h 0.498 c 0.074,0.099 0.137,0.203 0.19,0.311 0.093,0.188 0.154,0.393 0.179,0.607 L 0.869,0.945 H 0 Z"
         style="fill:#ffffff;fill-opacity:1;fill-rule:nonzero;stroke:none"
         id="path40672"
         inkscape:connector-curvature="0" />
    </g>
    <g
       id="g40674"
       transform="matrix(0.35277777,0,0,-0.35277777,61.306499,97.234141)">
      <path
         d="m 0,0 h -0.869 l 0.002,-0.027 c 0.025,-0.215 0.085,-0.419 0.179,-0.608 0.052,-0.107 0.116,-0.212 0.189,-0.31 H 0 Z"
         style="fill:#ffffff;fill-opacity:1;fill-rule:nonzero;stroke:none"
         id="path40676"
         inkscape:connector-curvature="0" />
    </g>
    <path
       d="m 61.617502,96.235003 h -0.31115 v 0.33267 h 0.31115 z"
       style="fill:#ffffff;fill-opacity:1;fill-rule:nonzero;stroke:none;stroke-width:0.35277778"
       id="path40678"
       inkscape:connector-curvature="0" />
    <path
       d="m 61.929012,97.23407 h 0.31115 v -0.333022 h -0.31115 z"
       style="fill:#ffffff;fill-opacity:1;fill-rule:nonzero;stroke:none;stroke-width:0.35277778"
       id="path40680"
       inkscape:connector-curvature="0" />
    <path
       d="m 61.306352,97.23407 h 0.31115 v -0.333022 h -0.31115 z"
       style="fill:#ffffff;fill-opacity:1;fill-rule:nonzero;stroke:none;stroke-width:0.35277778"
       id="path40682"
       inkscape:connector-curvature="0" />
    <g
       id="g40684"
       transform="matrix(0.35277777,0,0,-0.35277777,61.92887,97.567621)">
      <path
         d="m 0,0 v -0.886 c 0.161,0.033 0.312,0.08 0.439,0.137 0.157,0.07 0.306,0.156 0.443,0.257 V 0 Z"
         style="fill:#ffffff;fill-opacity:1;fill-rule:nonzero;stroke:none"
         id="path40686"
         inkscape:connector-curvature="0" />
    </g>
    <g
       id="g40688"
       transform="matrix(0.35277777,0,0,-0.35277777,61.306499,97.567621)">
      <path
         d="M 0,0 V -0.492 C 0.138,-0.593 0.286,-0.679 0.442,-0.749 0.57,-0.806 0.721,-0.853 0.882,-0.886 V 0 Z"
         style="fill:#ffffff;fill-opacity:1;fill-rule:nonzero;stroke:none"
         id="path40690"
         inkscape:connector-curvature="0" />
    </g>
    <g
       id="g40692"
       transform="matrix(0.35277777,0,0,-0.35277777,62.595999,96.186144)">
      <path
         d="m 0,0 h -0.101 -2.231 -2.232 -0.1 v -0.101 l -0.001,-2.697 0.006,-0.217 c 0.027,-0.229 0.092,-0.449 0.191,-0.652 0.09,-0.18 0.206,-0.352 0.348,-0.508 0.232,-0.258 0.526,-0.471 0.851,-0.616 0.256,-0.114 0.595,-0.189 0.932,-0.206 h 0.005 0.005 c 0.336,0.017 0.676,0.092 0.931,0.206 0.326,0.145 0.62,0.358 0.852,0.616 0.141,0.156 0.258,0.328 0.347,0.508 0.1,0.203 0.165,0.423 0.192,0.652 L 0,-2.798 v 2.697 z M -0.101,-0.101 -0.1,-2.799 -0.105,-3.003 c -0.025,-0.215 -0.086,-0.425 -0.182,-0.62 -0.087,-0.176 -0.2,-0.339 -0.332,-0.485 -0.227,-0.251 -0.508,-0.453 -0.818,-0.591 -0.267,-0.119 -0.602,-0.183 -0.895,-0.197 -0.294,0.014 -0.628,0.078 -0.896,0.197 -0.309,0.138 -0.591,0.34 -0.817,0.591 -0.132,0.146 -0.246,0.309 -0.332,0.485 -0.096,0.195 -0.157,0.405 -0.183,0.62 l -0.004,0.204 v 2.698 h 2.232 2.231"
         style="fill:#ffffff;fill-opacity:1;fill-rule:nonzero;stroke:none"
         id="path40694"
         inkscape:connector-curvature="0" />
    </g>
    <g
       id="g40696"
       transform="matrix(0.35277777,0,0,-0.35277777,62.661129,95.457481)">
      <path
         d="M 0,0 -0.016,-0.006 -0.131,-0.053 C -0.234,-0.096 -0.39,-0.16 -0.52,-0.213 l -0.167,-0.067 -0.05,-0.021 -0.008,-0.003 -0.001,0.001 c -0.035,0.036 -0.162,0.175 -0.28,0.304 L -1.185,0.175 -1.235,0.23 -1.249,0.245 -1.252,0.249 -1.253,0.25 h -0.001 l -0.011,0.013 -0.66,-0.4 -0.619,0.474 -0.583,-0.466 -0.681,0.394 -0.496,-0.59 -0.745,0.319 -0.41,-0.736 0.598,-1.201 0.016,0.006 c 0.719,0.255 1.517,0.394 2.296,0.395 h 0.019 c 0.773,0 1.562,-0.122 2.341,-0.401 l 0.016,-0.006 0.599,1.208 z"
         style="fill:#c92428;fill-opacity:1;fill-rule:nonzero;stroke:none"
         id="path40698"
         inkscape:connector-curvature="0" />
    </g>
    <g
       id="g40700"
       transform="matrix(0.35277777,0,0,-0.35277777,60.949589,96.134462)">
      <path
         d="M 0,0 C 0.722,0.256 1.521,0.395 2.303,0.397 3.084,0.399 3.881,0.276 4.669,-0.006 L 5.255,1.177 4.843,1.895 4.102,1.593 3.583,2.156 2.926,1.759 2.308,2.231 1.727,1.766 1.048,2.158 0.553,1.57 -0.188,1.887 -0.585,1.176 Z"
         style="fill:#ffffff;fill-opacity:1;fill-rule:nonzero;stroke:none"
         id="path40702"
         inkscape:connector-curvature="0" />
    </g>
    <g
       id="g40704"
       transform="matrix(0.35277777,0,0,-0.35277777,62.209289,95.409433)">
      <path
         d="M 0,0 V 0 C 0.167,-0.183 0.334,-0.365 0.501,-0.547 V -0.549 L 0.5,-0.55 0.482,-0.613 C 0.375,-0.985 0.269,-1.356 0.163,-1.727 c -0.112,0.022 -0.224,0.045 -0.336,0.063 -0.195,0.032 -0.391,0.05 -0.588,0.066 v 0.002 c 0.037,0.408 0.073,0.816 0.11,1.224 C -0.434,-0.248 -0.217,-0.124 0,0"
         style="fill:#3e4191;fill-opacity:1;fill-rule:nonzero;stroke:none"
         id="path40706"
         inkscape:connector-curvature="0" />
    </g>
    <g
       id="g40708"
       transform="matrix(0.35277777,0,0,-0.35277777,62.108358,95.614256)">
      <path
         d="m 0,0 0.068,0.002 0.024,-0.003 0.033,-0.013 0.025,-0.003 0.058,-0.018 0.049,-0.01 0.064,0.008 0.021,0.012 0.027,-10e-4 V -0.043 L 0.313,-0.08 0.27,-0.095 0.211,-0.098 0.176,-0.096 0.181,-0.105 0.23,-0.124 0.28,-0.146 0.335,-0.152 0.423,-0.146 0.445,-0.14 0.467,-0.141 0.466,-0.155 0.37,-0.199 0.274,-0.207 0.15,-0.186 0.103,-0.165 0.03,-0.144 l -0.054,-0.01 -0.129,0.086 0.049,0.041 z"
         style="fill:#c92428;fill-opacity:1;fill-rule:nonzero;stroke:none"
         id="path40710"
         inkscape:connector-curvature="0" />
    </g>
    <g
       id="g40712"
       transform="matrix(0.35277777,0,0,-0.35277777,62.10921,95.615949)">
      <path
         d="M 0,0 0.015,0.001 0.024,-0.038 V -0.067 L 0.021,-0.061 0.014,-0.028 Z"
         style="fill:#7f3138;fill-opacity:1;fill-rule:nonzero;stroke:none"
         id="path40714"
         inkscape:connector-curvature="0" />
    </g>
    <g
       id="g40716"
       transform="matrix(0.35277777,0,0,-0.35277777,62.14798,95.641102)">
      <path
         d="M 0,0 -0.005,0.066 0.009,0.062 0.005,0.016 Z"
         style="fill:#7f3138;fill-opacity:1;fill-rule:nonzero;stroke:none"
         id="path40718"
         inkscape:connector-curvature="0" />
    </g>
    <g
       id="g40720"
       transform="matrix(0.35277777,0,0,-0.35277777,62.06253,95.631471)">
      <path
         d="M 0,0 0.022,0.016 0.055,-0.011 0.061,-0.029 0.036,-0.012 Z"
         style="fill:#7f3138;fill-opacity:1;fill-rule:nonzero;stroke:none"
         id="path40722"
         inkscape:connector-curvature="0" />
    </g>
    <g
       id="g40724"
       transform="matrix(0.35277777,0,0,-0.35277777,62.176729,95.630625)">
      <path
         d="M 0,0 0.014,-0.009 0.018,-0.05 0.011,-0.049 Z"
         style="fill:#7f3138;fill-opacity:1;fill-rule:nonzero;stroke:none"
         id="path40726"
         inkscape:connector-curvature="0" />
    </g>
    <g
       id="g40728"
       transform="matrix(0.35277777,0,0,-0.35277777,62.20844,95.633376)">
      <path
         d="M 0,0 H 0.012 L 0.011,-0.025 -0.003,-0.029 Z"
         style="fill:#7f3138;fill-opacity:1;fill-rule:nonzero;stroke:none"
         id="path40730"
         inkscape:connector-curvature="0" />
    </g>
    <g
       id="g40732"
       transform="matrix(0.35277777,0,0,-0.35277777,61.99967,95.645582)">
      <path
         d="m 0,0 0.015,0.021 0.081,-0.041 0.017,0.017 0.036,0.02 0.13,-0.086 0.011,-0.003 0.09,0.003 -0.032,-0.046 -0.083,-0.041 0.059,-0.079 0.022,-0.014 0.025,-0.006 0.048,-0.005 0.021,-0.006 0.021,0.007 0.041,0.006 0.02,-0.001 0.037,0.005 0.023,0.01 0.029,-0.002 0.026,-0.006 0.036,0.006 h 0.04 l 0.037,-0.005 0.029,0.009 0.032,0.024 0.021,0.013 0.014,-0.013 0.006,-0.03 V -0.288 L 0.832,-0.332 0.841,-0.348 0.839,-0.374 0.833,-0.389 0.805,-0.428 0.796,-0.45 0.793,-0.506 0.8,-0.522 0.788,-0.538 0.787,-0.583 0.801,-0.594 0.799,-0.641 0.792,-0.65 0.73,-0.708 0.722,-0.727 0.72,-0.766 0.678,-0.799 l -0.066,0.025 0.009,0.018 0.034,0.052 0.008,0.026 0.002,0.06 L 0.661,-0.607 0.62,-0.579 0.558,-0.643 0.543,-0.656 0.531,-0.689 0.501,-0.706 0.491,-0.733 0.425,-0.717 0.439,-0.696 0.444,-0.674 0.452,-0.657 0.498,-0.583 0.452,-0.586 0.435,-0.572 0.397,-0.586 0.382,-0.576 0.357,-0.592 H 0.331 L 0.3,-0.65 0.272,-0.688 0.267,-0.725 0.262,-0.78 0.242,-0.795 0.228,-0.811 0.225,-0.81 0.209,-0.807 0.158,-0.792 0.18,-0.735 0.193,-0.711 v 0.075 L 0.216,-0.569 0.19,-0.557 0.155,-0.565 0.145,-0.573 0.094,-0.655 0.093,-0.668 0.085,-0.703 0.074,-0.721 l -0.076,0.019 0.013,0.039 0.028,0.039 0.036,0.051 0.002,0.042 0.005,0.023 -0.001,0.062 -0.018,0.003 -0.005,0.022 0.013,0.019 -0.016,0.01 0.011,0.032 0.061,0.061 -0.028,0.007 -0.001,0.007 0.007,0.015 -0.018,0.01 0.006,0.031 -0.072,-0.005 -0.018,0.015 0.005,0.039 0.023,0.044 0.02,0.057 -0.044,0.044 z"
         style="fill:#484523;fill-opacity:1;fill-rule:nonzero;stroke:none"
         id="path40734"
         inkscape:connector-curvature="0" />
    </g>
    <g
       id="g40736"
       transform="matrix(0.35277777,0,0,-0.35277777,62.000689,95.647135)">
      <path
         d="m 0,0 0.012,0.021 0.082,-0.042 0.041,0.034 0.014,0.003 0.13,-0.088 0.092,0.004 -0.033,-0.045 -0.082,-0.036 0.077,-0.095 0.029,-0.009 0.056,-0.007 0.026,-0.004 0.057,0.012 0.032,-0.002 0.027,0.008 0.019,0.008 0.027,-0.003 0.034,-0.005 0.029,0.006 h 0.039 l 0.044,-0.005 0.026,0.009 0.037,0.029 0.016,0.007 0.013,-0.018 0.001,-0.04 V -0.291 L 0.826,-0.322 0.835,-0.345 0.831,-0.375 0.79,-0.442 0.787,-0.5 0.793,-0.52 0.781,-0.532 0.779,-0.568 0.783,-0.584 0.794,-0.591 0.792,-0.638 0.726,-0.699 0.715,-0.717 0.714,-0.76 0.675,-0.79 0.614,-0.768 0.621,-0.754 0.655,-0.701 0.663,-0.676 0.666,-0.612 0.659,-0.598 0.616,-0.571 0.553,-0.635 0.537,-0.649 0.525,-0.684 0.495,-0.699 0.485,-0.724 0.427,-0.709 0.444,-0.684 0.448,-0.662 0.503,-0.573 0.459,-0.579 0.442,-0.575 0.433,-0.562 0.393,-0.578 0.381,-0.564 0.354,-0.583 0.324,-0.584 0.292,-0.646 0.262,-0.695 0.257,-0.775 0.232,-0.791 0.223,-0.802 l -0.064,0.017 0.017,0.047 0.015,0.021 0.002,0.018 0.001,0.067 0.023,0.068 -0.034,0.015 -0.043,-0.013 -0.055,-0.09 -0.002,-0.037 -0.014,-0.023 -0.071,0.017 0.017,0.041 0.026,0.035 0.019,0.035 0.015,0.013 0.004,0.048 0.004,0.018 -0.005,0.042 0.007,0.028 -0.021,-0.002 -0.005,0.02 0.018,0.023 -0.016,0.001 -0.006,0.013 0.014,0.025 0.064,0.064 -0.035,0.006 0.01,0.023 -0.021,0.01 0.008,0.03 -0.076,-0.004 -0.015,0.013 0.001,0.029 0.024,0.045 0.023,0.067 -0.043,0.041 z"
         style="fill:#e2eb30;fill-opacity:1;fill-rule:nonzero;stroke:none"
         id="path40738"
         inkscape:connector-curvature="0" />
    </g>
    <g
       id="g40740"
       transform="matrix(0.35277777,0,0,-0.35277777,62.13401,95.640432)">
      <path
         d="M 0,0 0.023,-0.035 0.008,-0.07 0.01,-0.042 Z"
         style="fill:#7f3138;fill-opacity:1;fill-rule:nonzero;stroke:none"
         id="path40742"
         inkscape:connector-curvature="0" />
    </g>
    <g
       id="g40744"
       transform="matrix(0.35277777,0,0,-0.35277777,62.09097,95.642478)">
      <path
         d="M 0,0 0.034,-0.025 0.04,-0.056 0.028,-0.064 0.015,-0.023 Z"
         style="fill:#7f3138;fill-opacity:1;fill-rule:nonzero;stroke:none"
         id="path40746"
         inkscape:connector-curvature="0" />
    </g>
    <g
       id="g40748"
       transform="matrix(0.35277777,0,0,-0.35277777,62.174679,95.652814)">
      <path
         d="m 0,0 0.005,-0.005 0.007,-0.034 -0.009,-0.014 -0.02,-0.011 0.004,0.006 z"
         style="fill:#7f3138;fill-opacity:1;fill-rule:nonzero;stroke:none"
         id="path40750"
         inkscape:connector-curvature="0" />
    </g>
    <g
       id="g40752"
       transform="matrix(0.35277777,0,0,-0.35277777,62.204489,95.665902)">
      <path
         d="m 0,0 0.018,-0.005 0.013,-0.03 -0.008,-0.022 -0.017,0.001 0.009,0.031 z"
         style="fill:#7f3138;fill-opacity:1;fill-rule:nonzero;stroke:none"
         id="path40754"
         inkscape:connector-curvature="0" />
    </g>
    <g
       id="g40756"
       transform="matrix(0.35277777,0,0,-0.35277777,62.235991,95.668513)">
      <path
         d="M 0,0 H 0.015 L 0.017,-0.034 0.003,-0.041 Z"
         style="fill:#7f3138;fill-opacity:1;fill-rule:nonzero;stroke:none"
         id="path40758"
         inkscape:connector-curvature="0" />
    </g>
    <g
       id="g40760"
       transform="matrix(0.35277777,0,0,-0.35277777,62.0927,95.67952)">
      <path
         d="M 0,0 0.079,0.008 0.05,-0.015 0.029,-0.027 0.008,-0.037 -0.03,-0.02 Z"
         style="fill:#484523;fill-opacity:1;fill-rule:nonzero;stroke:none"
         id="path40762"
         inkscape:connector-curvature="0" />
    </g>
    <g
       id="g40764"
       transform="matrix(0.35277777,0,0,-0.35277777,62.039461,95.683647)">
      <path
         d="M 0,0 0.047,0.012 0.088,0 0.062,-0.014 0.047,-0.022 0.028,-0.012 Z"
         style="fill:#484523;fill-opacity:1;fill-rule:nonzero;stroke:none"
         id="path40766"
         inkscape:connector-curvature="0" />
    </g>
    <g
       id="g40768"
       transform="matrix(0.35277777,0,0,-0.35277777,62.293001,95.722417)">
      <path
         d="m 0,0 -0.008,-0.059 -0.028,-0.003 -0.008,0.016 z"
         style="fill:#484523;fill-opacity:1;fill-rule:nonzero;stroke:none"
         id="path40770"
         inkscape:connector-curvature="0" />
    </g>
    <g
       id="g40772"
       transform="matrix(0.35277777,0,0,-0.35277777,62.211549,95.758577)">
      <path
         d="M 0,0 0.016,-0.002 0.027,-0.076 0.029,-0.091 0.019,-0.09 0.01,-0.038 Z"
         style="fill:#484523;fill-opacity:1;fill-rule:nonzero;stroke:none"
         id="path40774"
         inkscape:connector-curvature="0" />
    </g>
    <g
       id="g40776"
       transform="matrix(0.35277777,0,0,-0.35277777,62.051841,95.759459)">
      <path
         d="m 0,0 0.016,-0.002 0.011,-0.074 0.002,-0.015 -0.01,0.001 -0.01,0.051 z"
         style="fill:#484523;fill-opacity:1;fill-rule:nonzero;stroke:none"
         id="path40778"
         inkscape:connector-curvature="0" />
    </g>
    <g
       id="g40780"
       transform="matrix(0.35277777,0,0,-0.35277777,62.077349,95.817173)">
      <path
         d="M 0,0 0.016,-0.002 0.027,-0.076 0.029,-0.09 H 0.019 L 0.01,-0.038 Z"
         style="fill:#484523;fill-opacity:1;fill-rule:nonzero;stroke:none"
         id="path40782"
         inkscape:connector-curvature="0" />
    </g>
    <g
       id="g40784"
       transform="matrix(0.35277777,0,0,-0.35277777,62.22876,95.81234)">
      <path
         d="M 0,0 0.016,-0.002 0.027,-0.077 0.029,-0.091 0.019,-0.09 0.01,-0.039 Z"
         style="fill:#484523;fill-opacity:1;fill-rule:nonzero;stroke:none"
         id="path40786"
         inkscape:connector-curvature="0" />
    </g>
    <g
       id="g40788"
       transform="matrix(0.35277777,0,0,-0.35277777,62.107509,95.765844)">
      <path
         d="M 0,0 H 0.009 L 0.029,-0.052 0.034,-0.07 0.017,-0.073 0.001,-0.011 Z"
         style="fill:#484523;fill-opacity:1;fill-rule:nonzero;stroke:none"
         id="path40790"
         inkscape:connector-curvature="0" />
    </g>
    <g
       id="g40792"
       transform="matrix(0.35277777,0,0,-0.35277777,62.177431,95.752721)">
      <path
         d="M 0,0 H 0.01 L 0.03,-0.051 0.035,-0.07 0.017,-0.073 0.001,-0.011 Z"
         style="fill:#484523;fill-opacity:1;fill-rule:nonzero;stroke:none"
         id="path40794"
         inkscape:connector-curvature="0" />
    </g>
    <g
       id="g40796"
       transform="matrix(0.35277777,0,0,-0.35277777,62.142469,95.756884)">
      <path
         d="M 0,0 H 0.009 L 0.029,-0.052 0.035,-0.07 0.017,-0.074 0.001,-0.011 Z"
         style="fill:#484523;fill-opacity:1;fill-rule:nonzero;stroke:none"
         id="path40798"
         inkscape:connector-curvature="0" />
    </g>
    <g
       id="g40800"
       transform="matrix(0.35277777,0,0,-0.35277777,62.24047,95.77477)">
      <path
         d="M 0,0 V 0.012 L 0.011,-0.015 0.033,-0.056 0.078,-0.101 0.084,-0.109 0.042,-0.11 0.028,-0.121 0.02,-0.066 Z"
         style="fill:#484523;fill-opacity:1;fill-rule:nonzero;stroke:none"
         id="path40802"
         inkscape:connector-curvature="0" />
    </g>
    <g
       id="g40804"
       transform="matrix(0.35277777,0,0,-0.35277777,62.176899,95.782883)">
      <path
         d="m 0,0 h 0.002 l -0.005,-0.083 -0.016,-0.034 -0.002,0.009 0.009,0.043 z"
         style="fill:#484523;fill-opacity:1;fill-rule:nonzero;stroke:none"
         id="path40806"
         inkscape:connector-curvature="0" />
    </g>
    <g
       id="g40808"
       transform="matrix(0.35277777,0,0,-0.35277777,62.138169,95.792514)">
      <path
         d="m 0,0 h 0.002 l -0.005,-0.083 -0.017,-0.035 -0.001,0.009 0.009,0.043 z"
         style="fill:#484523;fill-opacity:1;fill-rule:nonzero;stroke:none"
         id="path40810"
         inkscape:connector-curvature="0" />
    </g>
    <g
       id="g40812"
       transform="matrix(0.35277777,0,0,-0.35277777,61.99812,95.895031)">
      <path
         d="M 0,0 0.075,-0.016 0.074,-0.042 0.057,-0.065 0.033,-0.072 -0.031,-0.073 -0.034,-0.039 Z"
         style="fill:#c92428;fill-opacity:1;fill-rule:nonzero;stroke:none"
         id="path40814"
         inkscape:connector-curvature="0" />
    </g>
    <g
       id="g40816"
       transform="matrix(0.35277777,0,0,-0.35277777,62.137111,95.911718)">
      <path
         d="M 0,0 0.032,0.033 0.1,0.016 0.095,-0.01 0.085,-0.025 0.059,-0.03 0.001,-0.027 Z"
         style="fill:#c92428;fill-opacity:1;fill-rule:nonzero;stroke:none"
         id="path40818"
         inkscape:connector-curvature="0" />
    </g>
    <g
       id="g40820"
       transform="matrix(0.35277777,0,0,-0.35277777,62.200859,95.931897)">
      <path
         d="M 0,0 0.038,0.032 0.104,0.009 v -0.02 L 0.064,-0.039 0,-0.033 Z"
         style="fill:#c92428;fill-opacity:1;fill-rule:nonzero;stroke:none"
         id="path40822"
         inkscape:connector-curvature="0" />
    </g>
    <g
       id="g40824"
       transform="matrix(0.35277777,0,0,-0.35277777,62.04412,95.936342)">
      <path
         d="M 0,0 0.028,0.027 0.083,0.018 0.099,0.015 0.084,-0.022 0.061,-0.031 0,-0.032 Z"
         style="fill:#c92428;fill-opacity:1;fill-rule:nonzero;stroke:none"
         id="path40826"
         inkscape:connector-curvature="0" />
    </g>
    <g
       id="g40828"
       transform="matrix(0.35277777,0,0,-0.35277777,61.32615,95.406858)">
      <path
         d="M 0,0 H 0.001 L 0.09,-0.052 c 0.187,-0.106 0.375,-0.214 0.563,-0.321 l 0.009,-0.005 c -0.156,0 -0.311,-0.002 -0.467,-0.017 l -0.229,-0.034 c -0.152,-0.031 -0.343,-0.104 -0.445,-0.151 0,0 0.32,0.389 0.479,0.58"
         style="fill:#3e4191;fill-opacity:1;fill-rule:nonzero;stroke:none"
         id="path40830"
         inkscape:connector-curvature="0" />
    </g>
    <g
       id="g40832"
       transform="matrix(0.35277777,0,0,-0.35277777,61.392639,95.546028)">
      <path
         d="M 0,0 C 0.155,0.015 0.311,0.016 0.466,0.016 H 0.473 C 0.481,-0.086 0.491,-0.189 0.499,-0.291 L 0.439,-0.292 0.333,-0.293 0.098,-0.309 -0.158,-0.342 C -0.249,-0.357 -0.339,-0.375 -0.427,-0.4 l -0.169,-0.059 -0.054,0.202 -0.001,0.008 -0.017,0.064 c 0.139,0.067 0.287,0.119 0.439,0.151 z"
         style="fill:#c92428;fill-opacity:1;fill-rule:nonzero;stroke:none"
         id="path40834"
         inkscape:connector-curvature="0" />
    </g>
    <g
       id="g40836"
       transform="matrix(0.35277777,0,0,-0.35277777,61.51012,95.649392)">
      <path
         d="m 0,0 0.106,0.001 0.06,0.001 0.004,-0.049 0.022,-0.244 c -0.193,0.011 -0.389,0.01 -0.582,-0.02 -0.158,-0.023 -0.314,-0.063 -0.465,-0.114 v -0.009 l 0.059,-0.223 V -0.66 l -0.005,0.016 c -0.042,0.159 -0.085,0.318 -0.128,0.478 l 0.169,0.059 c 0.088,0.025 0.178,0.043 0.269,0.058 l 0.256,0.033 z"
         style="fill:#3e4191;fill-opacity:1;fill-rule:nonzero;stroke:none"
         id="path40838"
         inkscape:connector-curvature="0" />
    </g>
    <g
       id="g40840"
       transform="matrix(0.35277777,0,0,-0.35277777,61.372639,95.75893)">
      <path
         d="M 0,0 C 0.192,0.03 0.388,0.03 0.582,0.02 L 0.584,0.019 c 0.01,-0.105 0.02,-0.209 0.028,-0.313 L 0.611,-0.296 C 0.463,-0.305 0.315,-0.316 0.168,-0.335 -0.017,-0.358 -0.2,-0.392 -0.38,-0.437 h -0.002 l -0.023,0.085 -0.002,0.003 10e-4,0.002 -0.06,0.224 v 0.008 C -0.314,-0.063 -0.158,-0.023 0,0"
         style="fill:#c92428;fill-opacity:1;fill-rule:nonzero;stroke:none"
         id="path40842"
         inkscape:connector-curvature="0" />
    </g>
    <g
       id="g40844"
       transform="matrix(0.35277777,0,0,-0.35277777,61.431909,95.87711)">
      <path
         d="m 0,0 c 0.147,0.019 0.295,0.03 0.443,0.039 0.01,-0.103 0.019,-0.206 0.029,-0.31 V -0.276 C 0.273,-0.29 0.075,-0.312 -0.122,-0.343 -0.238,-0.36 -0.355,-0.381 -0.471,-0.401 c -0.035,0.129 -0.069,0.258 -0.104,0.387 l 0.002,-0.002 0.023,-0.086 h 0.002 C -0.368,-0.057 -0.185,-0.023 0,0"
         style="fill:#3e4191;fill-opacity:1;fill-rule:nonzero;stroke:none"
         id="path40846"
         inkscape:connector-curvature="0" />
    </g>
    <g
       id="g40848"
       transform="matrix(0.35277777,0,0,-0.35277777,60.892579,95.498827)">
      <path
         d="m 0,0 h 0.001 c 0.245,-0.106 0.489,-0.213 0.734,-0.319 0.103,-0.385 0.206,-0.77 0.31,-1.155 V -1.477 C 0.951,-1.496 0.856,-1.517 0.763,-1.542 0.67,-1.565 0.578,-1.594 0.487,-1.625 0.382,-1.661 0.279,-1.701 0.176,-1.74 c -0.177,0.373 -0.353,0.747 -0.53,1.12 v 0.001 C -0.236,-0.413 -0.118,-0.206 0,0"
         style="fill:#486ebf;fill-opacity:1;fill-rule:nonzero;stroke:none"
         id="path40850"
         inkscape:connector-curvature="0" />
    </g>
    <g
       id="g40852"
       transform="matrix(0.35277777,0,0,-0.35277777,61.15216,95.808213)">
      <path
         d="M 0,0 0.021,0.031 0.018,-0.192 -0.075,-0.336 -0.163,-0.399 -0.211,-0.422 -0.45,-0.44 l -0.169,0.08 -0.091,0.114 0.244,-0.02 0.192,0.037 0.164,0.1 z"
         style="fill:#ffffff;fill-opacity:1;fill-rule:nonzero;stroke:none"
         id="path40854"
         inkscape:connector-curvature="0" />
    </g>
    <g
       id="g40856"
       transform="matrix(0.35277777,0,0,-0.35277777,61.01986,95.622334)">
      <path
         d="m 0,0 -0.02,-0.135 0.121,-0.096 -0.136,-0.056 -0.031,-0.133 -0.105,0.078 -0.134,-0.061 0.017,0.145 -0.131,0.093 0.148,0.063 0.017,0.143 0.124,-0.09 z"
         style="fill:#f0b223;fill-opacity:1;fill-rule:nonzero;stroke:none"
         id="path40858"
         inkscape:connector-curvature="0" />
    </g>
    <g
       id="g40860"
       transform="matrix(0.35277777,0,0,-0.35277777,61.018839,95.62371)">
      <path
         d="M 0,0 -0.021,-0.13 -0.154,-0.189 Z"
         style="fill:#e1eb35;fill-opacity:1;fill-rule:nonzero;stroke:none"
         id="path40862"
         inkscape:connector-curvature="0" />
    </g>
    <g
       id="g40864"
       transform="matrix(0.35277777,0,0,-0.35277777,60.931349,95.611151)">
      <path
         d="M 0,0 0.104,-0.08 0.094,-0.225 Z"
         style="fill:#e1eb35;fill-opacity:1;fill-rule:nonzero;stroke:none"
         id="path40866"
         inkscape:connector-curvature="0" />
    </g>
    <g
       id="g40868"
       transform="matrix(0.35277777,0,0,-0.35277777,60.916008,95.762034)">
      <path
         d="M 0,0 0.119,0.058 0.137,0.203 Z"
         style="fill:#e1eb35;fill-opacity:1;fill-rule:nonzero;stroke:none"
         id="path40870"
         inkscape:connector-curvature="0" />
    </g>
    <g
       id="g40872"
       transform="matrix(0.35277777,0,0,-0.35277777,60.878649,95.682448)">
      <path
         d="m 0,0 0.108,-0.076 0.135,0.053 z"
         style="fill:#e1eb35;fill-opacity:1;fill-rule:nonzero;stroke:none"
         id="path40874"
         inkscape:connector-curvature="0" />
    </g>
    <g
       id="g40876"
       transform="matrix(0.35277777,0,0,-0.35277777,61.05175,95.703473)">
      <path
         d="M 0,0 -0.129,-0.053 -0.161,-0.181 -0.247,0.037 Z"
         style="fill:#e1eb35;fill-opacity:1;fill-rule:nonzero;stroke:none"
         id="path40878"
         inkscape:connector-curvature="0" />
    </g>
    <g
       id="g40880"
       transform="matrix(0.35277777,0,0,-0.35277777,61.764009,95.381881)">
      <path
         d="M 0,0 V 0 C 0.198,-0.15 0.396,-0.301 0.594,-0.451 V -0.458 C 0.56,-0.864 0.525,-1.27 0.49,-1.676 H 0.471 c -0.12,0.007 -0.24,0.01 -0.359,0.012 -0.189,0.002 -0.379,-0.004 -0.568,-0.012 -0.038,0.407 -0.075,0.814 -0.113,1.221 v 0.002 C -0.379,-0.301 -0.189,-0.151 0,0"
         style="fill:#486ebf;fill-opacity:1;fill-rule:nonzero;stroke:none"
         id="path40882"
         inkscape:connector-curvature="0" />
    </g>
    <g
       id="g40884"
       transform="matrix(0.35277777,0,0,-0.35277777,61.66756,95.566525)">
      <path
         d="m 0,0 0.052,-0.025 0.002,-0.039 h 0.024 l -0.006,0.03 0.001,0.008 0.037,0.01 0.016,0.013 L 0.16,-0.004 0.164,-0.026 0.133,-0.07 V -0.105 L 0.161,-0.117 0.171,-0.175 0.216,-0.218 0.219,-0.25 0.234,-0.273 0.242,-0.303 0.216,-0.301 0.22,-0.353 H 0.189 L 0.184,-0.4 0.128,-0.402 0.126,-0.429 0.111,-0.453 0.006,-0.465 l -0.038,0.01 h -0.042 l -0.002,0.018 -0.024,0.017 -0.017,0.01 -0.039,0.006 -0.007,0.037 -0.026,0.004 -0.009,0.027 -0.013,0.02 0.013,0.037 -0.018,0.017 0.029,0.055 0.039,0.008 -0.001,0.058 0.032,0.008 0.003,0.026 -0.039,0.052 v 0.031 l 0.032,-0.004 0.03,-0.011 0.008,-0.008 0.016,-0.025 0.016,0.005 0.003,0.034 z"
         style="fill:#484523;fill-opacity:1;fill-rule:nonzero;stroke:none"
         id="path40886"
         inkscape:connector-curvature="0" />
    </g>
    <g
       id="g40888"
       transform="matrix(0.35277777,0,0,-0.35277777,61.66583,95.571181)">
      <path
         d="M 0,0 0.006,0.004 0.012,0.001 0.015,-0.022 0.05,-0.021 v -0.023 l -0.029,0.005 -0.008,0.014 -0.015,-10e-4 -0.004,-0.014 -0.031,-0.002 0.001,0.014 0.033,0.006 z"
         style="fill:#e1eb2f;fill-opacity:1;fill-rule:nonzero;stroke:none"
         id="path40890"
         inkscape:connector-curvature="0" />
    </g>
    <g
       id="g40892"
       transform="matrix(0.35277777,0,0,-0.35277777,61.69822,95.58875)">
      <path
         d="M 0,0 0.067,0.051 0.069,0.039 0.042,0.001 0.038,-0.008 0.039,-0.042 0.031,-0.051 -0.004,-0.052 -0.153,-0.064 -0.178,-0.07 l -0.018,0.002 0.003,0.027 -0.041,0.053 0.001,0.019 0.043,-0.045 h 0.03 l 0.003,-0.004 0.034,0.008 0.076,0.003 L 0,-0.008 Z"
         style="fill:#e1eb2f;fill-opacity:1;fill-rule:nonzero;stroke:none"
         id="path40894"
         inkscape:connector-curvature="0" />
    </g>
    <g
       id="g40896"
       transform="matrix(0.35277777,0,0,-0.35277777,61.64361,95.614573)">
      <path
         d="M 0,0 0.124,0.018 0.157,0.013 0.18,-0.02 0.184,-0.051 0.163,-0.057 H 0.136 l -0.049,0.002 v 0.03 L 0.116,-0.006 0.06,-0.007 0.045,-0.01 0.071,-0.023 v -0.036 h -0.083 l -0.013,0.02 -0.002,0.018 z"
         style="fill:#e1eb2f;fill-opacity:1;fill-rule:nonzero;stroke:none"
         id="path40898"
         inkscape:connector-curvature="0" />
    </g>
    <g
       id="g40900"
       transform="matrix(0.35277777,0,0,-0.35277777,61.70062,95.643007)">
      <path
         d="m 0,0 0.028,0.023 0.008,-0.004 -0.003,-0.07 -0.031,-0.006 -0.003,-0.041 -0.022,-0.023 -0.047,0.006 -10e-4,0.019 0.024,0.016 0.005,0.014 -0.026,-0.011 h -0.03 l -0.029,0.005 0.018,-0.017 0.021,-0.005 v -0.022 l -0.024,-0.014 -0.009,0.003 -0.008,0.031 -0.023,0.013 -0.002,0.019 -0.024,0.01 -0.003,0.017 -0.012,0.009 v 0.041 l 0.012,0.001 0.014,-0.021 0.033,-0.036 0.018,-0.002 0.004,0.008 0.016,0.039 0.03,0.001 0.031,-0.041 0.014,0.003 z"
         style="fill:#e1eb2f;fill-opacity:1;fill-rule:nonzero;stroke:none"
         id="path40902"
         inkscape:connector-curvature="0" />
    </g>
    <g
       id="g40904"
       transform="matrix(0.35277777,0,0,-0.35277777,61.726649,95.654543)">
      <path
         d="M 0,0 0.042,0.005 0.06,-0.027 0.064,-0.045 0.046,-0.043 0.032,-0.022 0.026,-0.027 0.041,-0.049 0.044,-0.096 H 0.023 L 0.014,-0.065 0.007,-0.068 0.015,-0.098 0.01,-0.144 h -0.021 l -0.02,0.035 -0.001,0.009 v 0.054 l 0.003,0.007 z"
         style="fill:#e1eb2f;fill-opacity:1;fill-rule:nonzero;stroke:none"
         id="path40906"
         inkscape:connector-curvature="0" />
    </g>
    <g
       id="g40908"
       transform="matrix(0.35277777,0,0,-0.35277777,61.60297,95.66368)">
      <path
         d="M 0,0 0.033,0.001 0.041,-0.037 0,-0.079 0.005,-0.082 0,-0.081 l -0.005,0.014 0.017,0.043 z"
         style="fill:#e1eb2f;fill-opacity:1;fill-rule:nonzero;stroke:none"
         id="path40910"
         inkscape:connector-curvature="0" />
    </g>
    <g
       id="g40912"
       transform="matrix(0.35277777,0,0,-0.35277777,61.612781,95.695359)">
      <path
         d="M 0,0 0.02,0.047 0.029,0.039 0.031,-0.036 0.006,-0.032 Z"
         style="fill:#e1eb2f;fill-opacity:1;fill-rule:nonzero;stroke:none"
         id="path40914"
         inkscape:connector-curvature="0" />
    </g>
    <g
       id="g40916"
       transform="matrix(0.35277777,0,0,-0.35277777,61.66393,95.693807)">
      <path
         d="M 0,0 0.026,0.017 0.077,0.005 0.068,-0.017 0.053,-0.036 H 0.021 l -0.019,0.018 z"
         style="fill:#e1eb2f;fill-opacity:1;fill-rule:nonzero;stroke:none"
         id="path40918"
         inkscape:connector-curvature="0" />
    </g>
    <g
       id="g40920"
       transform="matrix(0.35277777,0,0,-0.35277777,61.695471,95.703473)">
      <path
         d="M 0,0 0.038,0.021 0.054,-0.006 H 0.042 L 0.04,-0.038 0.029,-0.055 0.012,-0.04 0.007,-0.032 Z"
         style="fill:#e1eb2f;fill-opacity:1;fill-rule:nonzero;stroke:none"
         id="path40922"
         inkscape:connector-curvature="0" />
    </g>
    <g
       id="g40924"
       transform="matrix(0.35277777,0,0,-0.35277777,61.633101,95.700192)">
      <path
         d="M 0,0 0.029,0.002 0.035,-0.053 0.029,-0.058 0.028,-0.053 -0.004,-0.029 Z"
         style="fill:#e1eb2f;fill-opacity:1;fill-rule:nonzero;stroke:none"
         id="path40926"
         inkscape:connector-curvature="0" />
    </g>
    <g
       id="g40928"
       transform="matrix(0.35277777,0,0,-0.35277777,61.679278,95.717937)">
      <path
         d="M 0,0 0.018,0.007 0.035,-0.021 -0.008,-0.026 Z"
         style="fill:#e1eb2f;fill-opacity:1;fill-rule:nonzero;stroke:none"
         id="path40930"
         inkscape:connector-curvature="0" />
    </g>
    <g
       id="g40932"
       transform="matrix(0.35277777,0,0,-0.35277777,61.664459,95.720689)">
      <path
         d="M 0,0 0.02,0.001 0.031,-0.019 0.014,-0.02 -0.009,-0.014 Z"
         style="fill:#e1eb2f;fill-opacity:1;fill-rule:nonzero;stroke:none"
         id="path40934"
         inkscape:connector-curvature="0" />
    </g>
    <g
       id="g40936"
       transform="matrix(0.35277777,0,0,-0.35277777,61.658958,95.645088)">
      <path
         d="M 0,0 -0.016,-0.012 -0.031,0 -0.016,0.012 Z"
         style="fill:#e1eb2f;fill-opacity:1;fill-rule:nonzero;stroke:none"
         id="path40938"
         inkscape:connector-curvature="0" />
    </g>
    <g
       id="g40940"
       transform="matrix(0.35277777,0,0,-0.35277777,61.695119,95.645088)">
      <path
         d="M 0,0 -0.016,-0.012 -0.032,0 -0.016,0.012 Z"
         style="fill:#e1eb2f;fill-opacity:1;fill-rule:nonzero;stroke:none"
         id="path40942"
         inkscape:connector-curvature="0" />
    </g>
    <g
       id="g40944"
       transform="matrix(0.35277777,0,0,-0.35277777,61.856509,95.566525)">
      <path
         d="m 0,0 0.052,-0.025 0.001,-0.039 h 0.025 l -0.006,0.03 0.001,0.008 0.037,0.01 0.016,0.013 L 0.16,-0.004 0.164,-0.026 0.132,-0.07 0.133,-0.105 0.162,-0.117 0.171,-0.175 0.215,-0.218 0.219,-0.25 0.234,-0.273 0.242,-0.303 0.216,-0.301 0.219,-0.353 H 0.189 L 0.184,-0.4 0.127,-0.402 0.126,-0.429 0.111,-0.453 0.006,-0.465 l -0.039,0.01 h -0.041 l -0.003,0.018 -0.022,0.017 -0.019,0.01 -0.038,0.006 -0.007,0.037 -0.026,0.004 -0.009,0.027 -0.013,0.02 0.012,0.037 -0.017,0.017 0.029,0.055 0.039,0.008 -0.002,0.058 0.033,0.008 0.003,0.026 -0.04,0.052 v 0.031 l 0.032,-0.004 0.031,-0.011 0.008,-0.008 0.016,-0.025 0.017,0.005 0.002,0.034 z"
         style="fill:#484523;fill-opacity:1;fill-rule:nonzero;stroke:none"
         id="path40946"
         inkscape:connector-curvature="0" />
    </g>
    <g
       id="g40948"
       transform="matrix(0.35277777,0,0,-0.35277777,61.854639,95.571181)">
      <path
         d="m 0,0 0.006,0.004 0.006,-0.003 0.003,-0.023 0.035,10e-4 10e-4,-0.023 -0.03,0.005 -0.007,0.014 -0.015,-10e-4 -0.005,-0.014 -0.031,-0.002 0.001,0.014 0.033,0.006 z"
         style="fill:#e1eb2f;fill-opacity:1;fill-rule:nonzero;stroke:none"
         id="path40950"
         inkscape:connector-curvature="0" />
    </g>
    <g
       id="g40952"
       transform="matrix(0.35277777,0,0,-0.35277777,61.887029,95.58875)">
      <path
         d="M 0,0 0.067,0.051 0.069,0.039 0.042,0.001 0.038,-0.008 0.039,-0.042 0.032,-0.051 l -0.035,-0.001 -0.15,-0.012 -0.025,-0.006 -0.018,0.002 0.003,0.027 -0.04,0.053 v 0.019 l 0.043,-0.045 h 0.031 l 0.003,-0.004 0.033,0.008 0.077,0.003 L 0,-0.008 Z"
         style="fill:#e1eb2f;fill-opacity:1;fill-rule:nonzero;stroke:none"
         id="path40954"
         inkscape:connector-curvature="0" />
    </g>
    <g
       id="g40956"
       transform="matrix(0.35277777,0,0,-0.35277777,61.832419,95.614573)">
      <path
         d="M 0,0 0.125,0.018 0.158,0.013 0.18,-0.02 0.185,-0.051 0.163,-0.057 H 0.137 l -0.049,0.002 v 0.03 L 0.116,-0.006 0.061,-0.007 0.046,-0.01 0.071,-0.023 0.072,-0.059 h -0.084 l -0.012,0.02 -0.002,0.018 z"
         style="fill:#e1eb2f;fill-opacity:1;fill-rule:nonzero;stroke:none"
         id="path40958"
         inkscape:connector-curvature="0" />
    </g>
    <g
       id="g40960"
       transform="matrix(0.35277777,0,0,-0.35277777,61.889601,95.643007)">
      <path
         d="m 0,0 0.029,0.023 0.006,-0.004 -0.002,-0.07 -0.032,-0.006 -0.002,-0.041 -0.022,-0.023 -0.048,0.006 -0.001,0.019 0.024,0.016 0.006,0.014 -0.026,-0.011 h -0.03 l -0.029,0.005 0.017,-0.017 0.022,-0.005 v -0.022 l -0.024,-0.014 -0.009,0.003 -0.008,0.031 -0.023,0.013 -0.002,0.019 -0.024,0.01 -0.003,0.017 -0.012,0.009 -0.001,0.041 0.013,0.001 0.013,-0.021 0.034,-0.036 0.018,-0.002 0.004,0.008 0.016,0.039 0.03,0.001 0.031,-0.041 0.014,0.003 z"
         style="fill:#e1eb2f;fill-opacity:1;fill-rule:nonzero;stroke:none"
         id="path40962"
         inkscape:connector-curvature="0" />
    </g>
    <g
       id="g40964"
       transform="matrix(0.35277777,0,0,-0.35277777,61.915599,95.654543)">
      <path
         d="M 0,0 0.043,0.005 0.06,-0.027 0.064,-0.045 0.046,-0.043 0.032,-0.022 0.025,-0.027 0.041,-0.049 0.044,-0.096 H 0.022 L 0.015,-0.065 0.007,-0.068 0.015,-0.098 0.01,-0.144 H -0.012 L -0.03,-0.109 -0.032,-0.1 v 0.054 l 0.003,0.007 z"
         style="fill:#e1eb2f;fill-opacity:1;fill-rule:nonzero;stroke:none"
         id="path40966"
         inkscape:connector-curvature="0" />
    </g>
    <g
       id="g40968"
       transform="matrix(0.35277777,0,0,-0.35277777,61.791919,95.66368)">
      <path
         d="M 0,0 0.033,0.001 0.041,-0.037 0,-0.079 0.005,-0.082 0,-0.081 l -0.005,0.014 0.017,0.043 z"
         style="fill:#e1eb2f;fill-opacity:1;fill-rule:nonzero;stroke:none"
         id="path40970"
         inkscape:connector-curvature="0" />
    </g>
    <g
       id="g40972"
       transform="matrix(0.35277777,0,0,-0.35277777,61.801759,95.695359)">
      <path
         d="M 0,0 0.019,0.047 0.029,0.039 0.031,-0.036 0.005,-0.032 Z"
         style="fill:#e1eb2f;fill-opacity:1;fill-rule:nonzero;stroke:none"
         id="path40974"
         inkscape:connector-curvature="0" />
    </g>
    <g
       id="g40976"
       transform="matrix(0.35277777,0,0,-0.35277777,61.852909,95.693807)">
      <path
         d="M 0,0 0.026,0.017 0.077,0.005 0.067,-0.017 0.053,-0.036 H 0.021 l -0.019,0.018 z"
         style="fill:#e1eb2f;fill-opacity:1;fill-rule:nonzero;stroke:none"
         id="path40978"
         inkscape:connector-curvature="0" />
    </g>
    <g
       id="g40980"
       transform="matrix(0.35277777,0,0,-0.35277777,61.88459,95.703473)">
      <path
         d="M 0,0 0.037,0.021 0.054,-0.006 H 0.041 L 0.04,-0.038 0.029,-0.055 0.012,-0.04 0.006,-0.032 Z"
         style="fill:#e1eb2f;fill-opacity:1;fill-rule:nonzero;stroke:none"
         id="path40982"
         inkscape:connector-curvature="0" />
    </g>
    <g
       id="g40984"
       transform="matrix(0.35277777,0,0,-0.35277777,61.821899,95.700192)">
      <path
         d="M 0,0 0.029,0.002 0.036,-0.053 0.03,-0.058 0.029,-0.053 -0.004,-0.029 Z"
         style="fill:#e1eb2f;fill-opacity:1;fill-rule:nonzero;stroke:none"
         id="path40986"
         inkscape:connector-curvature="0" />
    </g>
    <g
       id="g40988"
       transform="matrix(0.35277777,0,0,-0.35277777,61.868051,95.717937)">
      <path
         d="M 0,0 0.018,0.007 0.035,-0.021 -0.008,-0.026 Z"
         style="fill:#e1eb2f;fill-opacity:1;fill-rule:nonzero;stroke:none"
         id="path40990"
         inkscape:connector-curvature="0" />
    </g>
    <g
       id="g40992"
       transform="matrix(0.35277777,0,0,-0.35277777,61.853268,95.720689)">
      <path
         d="M 0,0 0.02,0.001 0.031,-0.019 0.014,-0.02 -0.008,-0.014 Z"
         style="fill:#e1eb2f;fill-opacity:1;fill-rule:nonzero;stroke:none"
         id="path40994"
         inkscape:connector-curvature="0" />
    </g>
    <g
       id="g40996"
       transform="matrix(0.35277777,0,0,-0.35277777,61.8479,95.645088)">
      <path
         d="M 0,0 -0.016,-0.012 -0.032,0 -0.016,0.012 Z"
         style="fill:#e1eb2f;fill-opacity:1;fill-rule:nonzero;stroke:none"
         id="path40998"
         inkscape:connector-curvature="0" />
    </g>
    <g
       id="g41000"
       transform="matrix(0.35277777,0,0,-0.35277777,61.8841,95.645088)">
      <path
         d="M 0,0 -0.016,-0.012 -0.032,0 -0.016,0.012 Z"
         style="fill:#e1eb2f;fill-opacity:1;fill-rule:nonzero;stroke:none"
         id="path41002"
         inkscape:connector-curvature="0" />
    </g>
    <g
       id="g41004"
       transform="matrix(0.35277777,0,0,-0.35277777,61.762109,95.731201)">
      <path
         d="m 0,0 0.052,-0.025 0.002,-0.038 h 0.025 l -0.007,0.03 0.002,0.007 0.036,0.01 0.016,0.013 L 0.16,-0.004 0.164,-0.026 0.133,-0.07 V -0.104 L 0.162,-0.117 0.171,-0.174 0.216,-0.218 0.219,-0.25 0.234,-0.273 0.243,-0.303 0.216,-0.3 0.22,-0.353 H 0.189 L 0.184,-0.4 0.128,-0.402 0.126,-0.428 0.111,-0.453 0.006,-0.465 l -0.039,0.01 -0.041,0.001 -0.002,0.018 -0.023,0.017 -0.018,0.01 -0.039,0.006 -0.007,0.036 -0.026,0.004 -0.009,0.027 -0.013,0.021 0.013,0.036 -0.018,0.017 0.03,0.055 0.038,0.008 -0.001,0.058 0.032,0.008 0.003,0.026 -0.039,0.052 v 0.031 l 0.032,-0.004 0.03,-0.011 0.008,-0.008 0.016,-0.025 0.017,0.005 0.002,0.034 z"
         style="fill:#484523;fill-opacity:1;fill-rule:nonzero;stroke:none"
         id="path41006"
         inkscape:connector-curvature="0" />
    </g>
    <g
       id="g41008"
       transform="matrix(0.35277777,0,0,-0.35277777,61.76041,95.735858)">
      <path
         d="M 0,0 0.006,0.005 0.012,0.001 0.015,-0.022 0.05,-0.021 v -0.022 l -0.029,0.005 -0.008,0.013 -0.015,-10e-4 -0.004,-0.013 -0.031,-0.003 0.001,0.015 0.033,0.005 z"
         style="fill:#e1eb2f;fill-opacity:1;fill-rule:nonzero;stroke:none"
         id="path41010"
         inkscape:connector-curvature="0" />
    </g>
    <g
       id="g41012"
       transform="matrix(0.35277777,0,0,-0.35277777,61.792621,95.753426)">
      <path
         d="M 0,0 0.067,0.051 0.069,0.04 0.042,0.002 0.038,-0.008 0.04,-0.042 0.032,-0.05 l -0.035,-0.002 -0.15,-0.012 -0.024,-0.006 -0.018,0.002 0.003,0.027 -0.041,0.053 0.001,0.019 0.042,-0.045 h 0.031 l 0.003,-0.004 0.033,0.008 0.077,0.003 H 0 Z"
         style="fill:#e1eb2f;fill-opacity:1;fill-rule:nonzero;stroke:none"
         id="path41014"
         inkscape:connector-curvature="0" />
    </g>
    <g
       id="g41016"
       transform="matrix(0.35277777,0,0,-0.35277777,61.73819,95.77925)">
      <path
         d="M 0,0 0.124,0.018 0.157,0.013 0.18,-0.02 0.185,-0.051 0.163,-0.056 H 0.137 l -0.049,0.001 v 0.031 L 0.115,-0.006 0.06,-0.007 0.046,-0.01 0.071,-0.023 v -0.036 l -0.083,10e-4 -0.013,0.019 -10e-4,0.018 z"
         style="fill:#e1eb2f;fill-opacity:1;fill-rule:nonzero;stroke:none"
         id="path41018"
         inkscape:connector-curvature="0" />
    </g>
    <g
       id="g41020"
       transform="matrix(0.35277777,0,0,-0.35277777,61.79537,95.807684)">
      <path
         d="M 0,0 0.028,0.023 0.035,0.019 0.033,-0.05 0.001,-0.056 l -0.003,-0.042 -0.021,-0.023 -0.048,0.006 -0.001,0.02 0.024,0.015 0.006,0.014 -0.026,-0.01 -0.03,-0.001 -0.029,0.005 0.017,-0.017 0.022,-0.005 v -0.021 l -0.024,-0.014 -0.009,0.002 -0.008,0.031 -0.024,0.013 -0.001,0.019 -0.024,0.011 -0.004,0.016 -0.011,0.009 -0.001,0.041 0.013,0.002 0.013,-0.022 0.034,-0.036 0.018,-0.002 0.004,0.008 0.015,0.039 0.031,0.001 0.03,-0.04 0.015,0.002 z"
         style="fill:#e1eb2f;fill-opacity:1;fill-rule:nonzero;stroke:none"
         id="path41022"
         inkscape:connector-curvature="0" />
    </g>
    <g
       id="g41024"
       transform="matrix(0.35277777,0,0,-0.35277777,61.821201,95.81922)">
      <path
         d="M 0,0 0.043,0.005 0.06,-0.027 0.064,-0.045 0.046,-0.043 0.032,-0.022 0.026,-0.027 0.041,-0.049 0.044,-0.096 H 0.023 L 0.015,-0.065 0.007,-0.067 0.015,-0.098 0.01,-0.143 -0.011,-0.144 -0.03,-0.109 -0.031,-0.1 v 0.054 l 0.002,0.008 z"
         style="fill:#e1eb2f;fill-opacity:1;fill-rule:nonzero;stroke:none"
         id="path41026"
         inkscape:connector-curvature="0" />
    </g>
    <g
       id="g41028"
       transform="matrix(0.35277777,0,0,-0.35277777,61.697511,95.828356)">
      <path
         d="M 0,0 0.033,0.002 0.041,-0.037 0,-0.078 0.005,-0.082 0,-0.08 l -0.005,0.013 0.018,0.044 z"
         style="fill:#e1eb2f;fill-opacity:1;fill-rule:nonzero;stroke:none"
         id="path41030"
         inkscape:connector-curvature="0" />
    </g>
    <g
       id="g41032"
       transform="matrix(0.35277777,0,0,-0.35277777,61.707531,95.860036)">
      <path
         d="M 0,0 0.019,0.047 0.028,0.039 0.031,-0.035 0.005,-0.031 Z"
         style="fill:#e1eb2f;fill-opacity:1;fill-rule:nonzero;stroke:none"
         id="path41034"
         inkscape:connector-curvature="0" />
    </g>
    <g
       id="g41036"
       transform="matrix(0.35277777,0,0,-0.35277777,61.75851,95.858166)">
      <path
         d="M 0,0 0.026,0.016 0.077,0.004 0.068,-0.017 0.053,-0.036 0.021,-0.037 0.002,-0.019 Z"
         style="fill:#e1eb2f;fill-opacity:1;fill-rule:nonzero;stroke:none"
         id="path41038"
         inkscape:connector-curvature="0" />
    </g>
    <g
       id="g41040"
       transform="matrix(0.35277777,0,0,-0.35277777,61.790189,95.867797)">
      <path
         d="M 0,0 0.037,0.02 0.054,-0.007 H 0.042 L 0.04,-0.039 0.029,-0.056 0.012,-0.04 0.006,-0.033 Z"
         style="fill:#e1eb2f;fill-opacity:1;fill-rule:nonzero;stroke:none"
         id="path41042"
         inkscape:connector-curvature="0" />
    </g>
    <g
       id="g41044"
       transform="matrix(0.35277777,0,0,-0.35277777,61.727679,95.864869)">
      <path
         d="M 0,0 0.029,0.002 0.035,-0.053 0.029,-0.058 v 0.006 l -0.033,0.023 z"
         style="fill:#e1eb2f;fill-opacity:1;fill-rule:nonzero;stroke:none"
         id="path41046"
         inkscape:connector-curvature="0" />
    </g>
    <g
       id="g41048"
       transform="matrix(0.35277777,0,0,-0.35277777,61.773859,95.882614)">
      <path
         d="M 0,0 0.018,0.007 0.036,-0.021 -0.008,-0.026 Z"
         style="fill:#e1eb2f;fill-opacity:1;fill-rule:nonzero;stroke:none"
         id="path41050"
         inkscape:connector-curvature="0" />
    </g>
    <g
       id="g41052"
       transform="matrix(0.35277777,0,0,-0.35277777,61.75904,95.885365)">
      <path
         d="M 0,0 0.02,0.002 0.031,-0.018 0.013,-0.02 -0.009,-0.014 Z"
         style="fill:#e1eb2f;fill-opacity:1;fill-rule:nonzero;stroke:none"
         id="path41054"
         inkscape:connector-curvature="0" />
    </g>
    <g
       id="g41056"
       transform="matrix(0.35277777,0,0,-0.35277777,61.753679,95.809765)">
      <path
         d="M 0,0 -0.016,-0.011 -0.032,0 -0.016,0.012 Z"
         style="fill:#e1eb2f;fill-opacity:1;fill-rule:nonzero;stroke:none"
         id="path41058"
         inkscape:connector-curvature="0" />
    </g>
    <g
       id="g41060"
       transform="matrix(0.35277777,0,0,-0.35277777,61.789869,95.809765)">
      <path
         d="M 0,0 -0.016,-0.011 -0.032,0 -0.016,0.012 Z"
         style="fill:#e1eb2f;fill-opacity:1;fill-rule:nonzero;stroke:none"
         id="path41062"
         inkscape:connector-curvature="0" />
    </g>
    <g
       id="g41064"
       transform="matrix(0.35277777,0,0,-0.35277777,62.33816,95.789269)">
      <path
         d="m 0,0 c 0.125,-0.028 0.248,-0.061 0.37,-0.096 0.141,-0.041 0.279,-0.089 0.416,-0.14 L 0.996,-0.32 0.898,-0.518 0.838,-0.64 c -0.156,0.062 -0.314,0.118 -0.474,0.169 -0.143,0.046 -0.286,0.091 -0.433,0.125 l -0.027,0.006 0.005,0.014 0.025,0.09 v 0.003 l 0.005,0.014 z"
         style="fill:#c92428;fill-opacity:1;fill-rule:nonzero;stroke:none"
         id="path41066"
         inkscape:connector-curvature="0" />
    </g>
    <g
       id="g41068"
       transform="matrix(0.35277777,0,0,-0.35277777,62.29113,95.955321)">
      <path
         d="m 0,0 0.037,0.131 c 0,0 0.282,-0.048 0.511,-0.125 0.228,-0.076 0.424,-0.175 0.424,-0.175 l -0.06,-0.122 z"
         style="fill:#ffffff;fill-opacity:1;fill-rule:nonzero;stroke:none"
         id="path41070"
         inkscape:connector-curvature="0" />
    </g>
    <g
       id="g41072"
       transform="matrix(0.35277777,0,0,-0.35277777,62.33816,95.789269)">
      <path
         d="m 0,0 0.037,0.131 c 0,0 0.281,-0.048 0.51,-0.125 0.229,-0.076 0.509,-0.204 0.509,-0.204 L 0.996,-0.32 Z"
         style="fill:#ffffff;fill-opacity:1;fill-rule:nonzero;stroke:none"
         id="path41074"
         inkscape:connector-curvature="0" />
    </g>
    <g
       id="g41076"
       transform="matrix(0.35277777,0,0,-0.35277777,62.389981,95.603919)">
      <path
         d="M 0,0 C 0,0 0.478,0.194 0.717,0.29 0.835,0.092 0.954,-0.107 1.072,-0.306 L 1.095,-0.344 V -0.345 L 1.082,-0.371 C 1.024,-0.488 0.967,-0.605 0.909,-0.724 0.771,-0.664 0.632,-0.607 0.49,-0.558 0.294,-0.49 0.093,-0.437 -0.11,-0.395 Z"
         style="fill:#486ebf;fill-opacity:1;fill-rule:nonzero;stroke:none"
         id="path41078"
         inkscape:connector-curvature="0" />
    </g>
    <g
       id="g41080"
       transform="matrix(0.35277777,0,0,-0.35277777,62.292329,95.952217)">
      <path
         d="m 0,0 c 0,0 0.227,-0.069 0.34,-0.104 l 0.22,-0.07 c 0.117,-0.037 0.351,-0.12 0.351,-0.12 0,0 -0.022,-0.05 -0.081,-0.17 l -0.106,0.042 c -0.119,0.046 -0.24,0.088 -0.363,0.123 -0.138,0.04 -0.278,0.072 -0.418,0.104 v 0.001 z"
         style="fill:#486ebf;fill-opacity:1;fill-rule:nonzero;stroke:none"
         id="path41082"
         inkscape:connector-curvature="0" />
    </g>
    <g
       id="g41084"
       transform="matrix(0.35277777,0,0,-0.35277777,62.608918,95.594959)">
      <path
         d="m 0,0 0.024,-0.134 0.145,-0.053 -0.111,-0.096 0.013,-0.137 -0.124,0.04 -0.107,-0.1 -0.031,0.143 -0.154,0.046 0.12,0.107 -0.029,0.142 0.147,-0.047 z"
         style="fill:#f0b223;fill-opacity:1;fill-rule:nonzero;stroke:none"
         id="path41086"
         inkscape:connector-curvature="0" />
    </g>
    <g
       id="g41088"
       transform="matrix(0.35277777,0,0,-0.35277777,62.608421,95.596828)">
      <path
         d="M 0,0 0.021,-0.13 -0.086,-0.229 Z"
         style="fill:#e1eb35;fill-opacity:1;fill-rule:nonzero;stroke:none"
         id="path41090"
         inkscape:connector-curvature="0" />
    </g>
    <g
       id="g41092"
       transform="matrix(0.35277777,0,0,-0.35277777,62.521429,95.612703)">
      <path
         d="M 0,0 0.125,-0.043 0.161,-0.184 Z"
         style="fill:#e1eb35;fill-opacity:1;fill-rule:nonzero;stroke:none"
         id="path41094"
         inkscape:connector-curvature="0" />
    </g>
    <g
       id="g41096"
       transform="matrix(0.35277777,0,0,-0.35277777,62.555189,95.760306)">
      <path
         d="M 0,0 0.094,0.092 0.065,0.235 Z"
         style="fill:#e1eb35;fill-opacity:1;fill-rule:nonzero;stroke:none"
         id="path41098"
         inkscape:connector-curvature="0" />
    </g>
    <g
       id="g41100"
       transform="matrix(0.35277777,0,0,-0.35277777,62.49437,95.697441)">
      <path
         d="M 0,0 0.126,-0.037 0.237,0.057 Z"
         style="fill:#e1eb35;fill-opacity:1;fill-rule:nonzero;stroke:none"
         id="path41102"
         inkscape:connector-curvature="0" />
    </g>
    <g
       id="g41104"
       transform="matrix(0.35277777,0,0,-0.35277777,62.665079,95.661598)">
      <path
         d="m 0,0 -0.106,-0.092 0.012,-0.131 -0.152,0.178 z"
         style="fill:#e1eb35;fill-opacity:1;fill-rule:nonzero;stroke:none"
         id="path41106"
         inkscape:connector-curvature="0" />
    </g>
    <g
       id="g41108"
       transform="matrix(0.35277777,0,0,-0.35277777,62.365531,95.829556)">
      <path
         d="m 0,0 h 0.093 l 0.002,-0.034 0.048,-0.028 0.079,-0.033 0.01,-0.003 0.19,-0.016 0.085,-0.028 0.046,-0.044 0.009,-0.01 L 0.783,-0.231 0.822,-0.237 0.827,-0.256 0.791,-0.284 0.7,-0.29 0.629,-0.272 0.583,-0.264 0.593,-0.285 0.636,-0.325 0.651,-0.333 0.65,-0.42 0.632,-0.437 l -0.02,0.013 0.009,0.022 -0.003,0.035 -0.014,0.024 -0.02,0.01 -0.075,0.027 -0.02,0.013 L 0.477,-0.294 0.44,-0.327 0.415,-0.326 0.377,-0.319 0.312,-0.304 0.315,-0.286 0.338,-0.284 0.369,-0.288 0.404,-0.29 0.402,-0.261 0.317,-0.247 0.241,-0.217 0.216,-0.209 0.092,-0.21 0.055,-0.218 0,-0.229 l -0.026,0.002 -0.011,0.008 0.003,0.013 0.108,0.022 -0.011,0.019 -0.058,0.001 -0.045,0.003 -0.036,0.013 -0.006,0.005 -0.001,0.018 0.022,-0.004 0.055,-0.006 0.052,0.006 0.001,0.023 -0.009,0.021 -0.071,0.008 -0.022,0.014 -0.002,0.021 0.04,0.022 z"
         style="fill:#2a1714;fill-opacity:1;fill-rule:nonzero;stroke:none"
         id="path41110"
         inkscape:connector-curvature="0" />
    </g>
    <g
       id="g41112"
       transform="matrix(0.35277777,0,0,-0.35277777,62.36638,95.830932)">
      <path
         d="M 0,0 H 0.086 L 0.087,-0.033 0.142,-0.064 0.208,-0.09 0.226,-0.097 0.415,-0.114 0.475,-0.129 0.545,-0.182 0.557,-0.195 0.8,-0.232 0.82,-0.24 0.822,-0.247 0.807,-0.266 0.729,-0.286 0.627,-0.264 0.576,-0.256 0.582,-0.276 0.645,-0.331 v -0.06 L 0.643,-0.415 0.629,-0.428 0.616,-0.419 0.623,-0.398 0.621,-0.363 0.604,-0.334 0.575,-0.323 0.493,-0.288 0.471,-0.287 0.439,-0.318 0.396,-0.316 0.313,-0.297 0.314,-0.286 H 0.345 L 0.405,-0.29 0.406,-0.257 0.464,-0.254 0.443,-0.2 0.405,-0.176 0.366,-0.174 0.217,-0.179 0.219,-0.202 0.15,-0.198 0.086,-0.202 0.046,-0.21 l -0.054,-0.013 -0.029,0.01 0.003,0.007 0.084,0.013 0.024,0.009 -0.012,0.027 -0.015,0.001 -0.067,-0.001 -0.036,0.009 -0.021,0.007 -0.005,0.016 0.045,-0.01 H 0.01 l 0.038,0.007 v 0.034 l -0.016,0.018 -0.063,0.006 -0.022,0.01 -0.002,0.019 0.035,0.02 z"
         style="fill:#43291b;fill-opacity:1;fill-rule:nonzero;stroke:none"
         id="path41114"
         inkscape:connector-curvature="0" />
    </g>
    <g
       id="g41116"
       transform="matrix(0.35277777,0,0,-0.35277777,62.444239,95.895208)">
      <path
         d="M 0,0 0.156,0.004 0.208,-0.01 0.238,-0.068 0.181,-0.072 0.085,-0.053 0.002,-0.021 Z"
         style="fill:#ffffff;fill-opacity:1;fill-rule:nonzero;stroke:none"
         id="path41118"
         inkscape:connector-curvature="0" />
    </g>
  </g>
</svg>
