<?xml version="1.0" encoding="UTF-8" standalone="no"?>
<!-- Created with Inkscape (http://www.inkscape.org/) -->

<svg
   xmlns:dc="http://purl.org/dc/elements/1.1/"
   xmlns:cc="http://creativecommons.org/ns#"
   xmlns:rdf="http://www.w3.org/1999/02/22-rdf-syntax-ns#"
   xmlns:svg="http://www.w3.org/2000/svg"
   xmlns="http://www.w3.org/2000/svg"
   xmlns:sodipodi="http://sodipodi.sourceforge.net/DTD/sodipodi-0.dtd"
   xmlns:inkscape="http://www.inkscape.org/namespaces/inkscape"
   width="7.084836mm"
   height="4.7328668mm"
   viewBox="0 0 7.084836 4.7328668"
   version="1.1"
   id="svg8"
   inkscape:version="0.92.4 (5da689c313, 2019-01-14)"
   sodipodi:docname="cyprus.svg">
  <defs
     id="defs2">
    <radialGradient
       id="radialGradient37584"
       spreadMethod="pad"
       gradientTransform="matrix(0.975099,0,0,0.975099,159.64062,365.06934)"
       gradientUnits="userSpaceOnUse"
       r="1"
       cy="0"
       cx="0"
       fy="0"
       fx="0">
      <stop
         id="stop37578"
         offset="0"
         style="stop-opacity:1;stop-color:#852c26" />
      <stop
         id="stop37580"
         offset="0.0015476"
         style="stop-opacity:1;stop-color:#852c26" />
      <stop
         id="stop37582"
         offset="1"
         style="stop-opacity:1;stop-color:#451617" />
    </radialGradient>
    <clipPath
       id="clipPath37532"
       clipPathUnits="userSpaceOnUse">
      <path
         inkscape:connector-curvature="0"
         id="path37530"
         d="M 0,400 H 400 V 0 H 0 Z" />
    </clipPath>
    <radialGradient
       id="radialGradient37522"
       spreadMethod="pad"
       gradientTransform="matrix(-0.2637247,0,0,0.2637247,159.68652,365.88965)"
       gradientUnits="userSpaceOnUse"
       r="1"
       cy="0"
       cx="0"
       fy="0"
       fx="0">
      <stop
         id="stop37516"
         offset="0"
         style="stop-opacity:1;stop-color:#852c26" />
      <stop
         id="stop37518"
         offset="0.0015476"
         style="stop-opacity:1;stop-color:#852c26" />
      <stop
         id="stop37520"
         offset="1"
         style="stop-opacity:1;stop-color:#451617" />
    </radialGradient>
    <clipPath
       id="clipPath37354"
       clipPathUnits="userSpaceOnUse">
      <path
         inkscape:connector-curvature="0"
         id="path37352"
         d="M 0,400 H 400 V 0 H 0 Z" />
    </clipPath>
    <radialGradient
       id="radialGradient37344"
       spreadMethod="pad"
       gradientTransform="matrix(0.975099,0,0,0.975099,155.76025,365.06934)"
       gradientUnits="userSpaceOnUse"
       r="1"
       cy="0"
       cx="0"
       fy="0"
       fx="0">
      <stop
         id="stop37338"
         offset="0"
         style="stop-opacity:1;stop-color:#eee54f" />
      <stop
         id="stop37340"
         offset="0.9977451"
         style="stop-opacity:1;stop-color:#e04a20" />
      <stop
         id="stop37342"
         offset="1"
         style="stop-opacity:1;stop-color:#e04a20" />
    </radialGradient>
    <clipPath
       id="clipPath37272"
       clipPathUnits="userSpaceOnUse">
      <path
         inkscape:connector-curvature="0"
         id="path37270"
         d="M 0,400 H 400 V 0 H 0 Z" />
    </clipPath>
    <radialGradient
       id="radialGradient37262"
       spreadMethod="pad"
       gradientTransform="matrix(0.2636045,0,0,0.2636045,155.71484,365.89062)"
       gradientUnits="userSpaceOnUse"
       r="1"
       cy="0"
       cx="0"
       fy="0"
       fx="0">
      <stop
         id="stop37256"
         offset="0"
         style="stop-opacity:1;stop-color:#eee54f" />
      <stop
         id="stop37258"
         offset="0.9977451"
         style="stop-opacity:1;stop-color:#e04a20" />
      <stop
         id="stop37260"
         offset="1"
         style="stop-opacity:1;stop-color:#e04a20" />
    </radialGradient>
  </defs>
  <sodipodi:namedview
     id="base"
     pagecolor="#ffffff"
     bordercolor="#666666"
     borderopacity="1.0"
     inkscape:pageopacity="0.0"
     inkscape:pageshadow="2"
     inkscape:zoom="11.2"
     inkscape:cx="27.261882"
     inkscape:cy="6.1350483"
     inkscape:document-units="mm"
     inkscape:current-layer="layer1"
     showgrid="false"
     inkscape:window-width="954"
     inkscape:window-height="630"
     inkscape:window-x="-3"
     inkscape:window-y="6"
     inkscape:window-maximized="0" />
  <metadata
     id="metadata5">
    <rdf:RDF>
      <cc:Work
         rdf:about="">
        <dc:format>image/svg+xml</dc:format>
        <dc:type
           rdf:resource="http://purl.org/dc/dcmitype/StillImage" />
        <dc:title></dc:title>
      </cc:Work>
    </rdf:RDF>
  </metadata>
  <g
     inkscape:label="Layer 1"
     inkscape:groupmode="layer"
     id="layer1"
     transform="translate(-56.57948,-94.907)">
    <g
       id="g14616"
       transform="matrix(0.35277777,0,0,-0.35277777,56.608761,99.610586)">
      <path
         d="M 0,0 H 19.917 L 19.916,13.25 H 0 Z M 19.958,-0.042 V 0 Z M -0.083,-0.083 V 13.333 H 20 V -0.042 -0.083 Z"
         style="fill:#221f21;fill-opacity:1;fill-rule:nonzero;stroke:none"
         id="path14618"
         inkscape:connector-curvature="0" />
    </g>
    <path
       d="m 63.649613,99.625436 h -7.05556 v -4.703584 h 7.05556 z"
       style="fill:#ffffff;fill-opacity:1;fill-rule:nonzero;stroke:none;stroke-width:0.35277778"
       id="path14620"
       inkscape:connector-curvature="0" />
    <g
       id="g14622"
       transform="matrix(0.35277777,0,0,-0.35277777,61.754171,95.876116)">
      <path
         d="M 0,0 C 0.244,-0.006 0.46,0.127 0.665,0.241 L 0.577,-0.009 0.35,-0.068 C 0.241,-0.14 0.125,-0.199 0.022,-0.279 -0.066,-0.347 -0.057,-0.501 -0.177,-0.535 -0.341,-0.58 -0.446,-0.72 -0.549,-0.847 -0.694,-0.876 -0.816,-0.961 -0.953,-1.018 -1.058,-1.061 -1.134,-1.148 -1.22,-1.223 -1.305,-1.299 -1.398,-1.373 -1.436,-1.487 l -0.093,-0.171 c -0.089,-0.054 -0.194,-0.017 -0.287,-0.019 -0.111,-0.026 -0.245,-0.092 -0.242,-0.222 -0.148,-0.117 -0.148,-0.324 -0.128,-0.492 0.031,-0.162 0.157,-0.278 0.264,-0.389 l 0.1,-0.188 c 0.065,-0.085 0.187,-0.116 0.23,-0.221 l 0.134,-0.176 0.031,-0.194 c -0.139,0.091 -0.307,0.125 -0.469,0.142 l -0.256,-0.054 c 0.026,-0.102 -0.074,-0.191 -0.173,-0.156 -0.106,0.057 -0.191,0.162 -0.316,0.17 -0.193,0.018 -0.429,0.034 -0.563,-0.136 -0.096,-0.145 -0.057,-0.33 -0.071,-0.494 l -0.144,-0.214 -0.217,0.011 -0.196,-0.178 c -0.142,-0.023 -0.29,-0.066 -0.392,-0.174 l -0.191,-0.09 -0.145,-0.069 -0.215,0.009 c -0.063,-0.106 -0.203,-0.111 -0.308,-0.077 -0.167,0.045 -0.346,0.016 -0.491,-0.071 -0.162,-0.048 -0.299,-0.171 -0.367,-0.325 -0.048,-0.127 0.045,-0.241 0.114,-0.338 -0.128,0.015 -0.262,0.018 -0.39,0.035 0.046,0.187 -0.096,0.34 -0.227,0.454 -0.122,0.086 -0.273,-0.014 -0.407,0.029 -0.09,-0.049 -0.178,-0.114 -0.289,-0.088 l -0.083,-0.043 c -0.119,0.043 -0.238,0.091 -0.358,0.133 l -0.188,0.146 -0.227,0.056 -0.188,0.074 c -0.065,0.097 -0.175,0.137 -0.27,0.196 -0.017,0.1 -0.059,0.191 -0.073,0.291 l -0.057,0.164 -0.16,0.1 -0.096,0.187 -0.02,0.227 c 0,0.094 0.026,0.191 -0.006,0.282 -0.051,0.085 -0.122,0.162 -0.145,0.258 l 0.057,0.228 c 0.06,-0.125 0.185,-0.196 0.281,-0.293 0.103,-0.042 0.236,-0.04 0.33,0.025 0.091,0.06 0.185,0.121 0.267,0.189 0.072,0.09 0.077,0.216 0.145,0.309 l 0.094,0.105 c 0.156,0.026 0.287,0.134 0.449,0.123 0.24,-0.021 0.45,-0.154 0.662,-0.248 l 0.2,0.038 c 0.113,0.07 0.221,0.176 0.25,0.314 0.04,0.18 0.04,0.365 0.04,0.547 0.003,0.13 -0.04,0.256 -0.043,0.383 0.201,-0.085 0.409,-0.156 0.625,-0.204 l 0.228,0.025 0.17,-0.037 0.142,0.04 0.174,-0.086 c 0.113,-0.002 0.227,0.027 0.335,-0.005 0.131,-0.037 0.268,-0.017 0.401,-0.045 0.25,0.022 0.512,0.017 0.745,0.122 0.107,0.034 0.227,-0.011 0.332,0.04 0.116,0.056 0.205,0.159 0.315,0.224 l 0.231,0.009 c 0.307,0.014 0.591,0.156 0.858,0.296 0.122,0.062 0.233,0.15 0.367,0.19 0.162,0.034 0.239,0.199 0.338,0.312 0.194,-0.034 0.35,0.089 0.523,0.151 0.105,0.046 0.156,0.159 0.245,0.227 l 0.213,0.043 z"
         style="fill:#e36d21;fill-opacity:1;fill-rule:nonzero;stroke:none"
         id="path14624"
         inkscape:connector-curvature="0" />
    </g>
    <g
       id="g14626"
       transform="matrix(0.35277777,0,0,-0.35277777,59.223061,97.937644)">
      <path
         d="m 0,0 c 0.165,-0.137 0.248,-0.35 0.279,-0.558 0.017,-0.096 0,-0.196 -0.037,-0.29 -0.137,0.089 -0.213,0.239 -0.247,0.393 C -0.04,-0.305 -0.048,-0.148 0,0"
         style="fill:#2d6353;fill-opacity:1;fill-rule:nonzero;stroke:none"
         id="path14628"
         inkscape:connector-curvature="0" />
    </g>
    <g
       id="g14630"
       transform="matrix(0.35277777,0,0,-0.35277777,60.93078,98.084258)">
      <path
         d="M 0,0 C 0.043,0.156 0.12,0.312 0.247,0.416 0.31,0.216 0.282,-0.002 0.202,-0.193 0.165,-0.293 0.091,-0.373 0.006,-0.432 -0.054,-0.293 -0.042,-0.139 0,0"
         style="fill:#2d6353;fill-opacity:1;fill-rule:nonzero;stroke:none"
         id="path14632"
         inkscape:connector-curvature="0" />
    </g>
    <g
       id="g14634"
       transform="matrix(0.35277777,0,0,-0.35277777,58.95847,97.989008)">
      <path
         d="M 0,0 C 0.202,-0.026 0.384,-0.137 0.529,-0.276 0.625,-0.366 0.696,-0.486 0.699,-0.62 0.384,-0.551 0.045,-0.347 0,0"
         style="fill:#2d6353;fill-opacity:1;fill-rule:nonzero;stroke:none"
         id="path14636"
         inkscape:connector-curvature="0" />
    </g>
    <g
       id="g14638"
       transform="matrix(0.35277777,0,0,-0.35277777,61.112361,98.07117)">
      <path
         d="M 0,0 C 0.137,0.117 0.301,0.21 0.486,0.233 0.437,-0.114 0.1,-0.318 -0.216,-0.387 -0.213,-0.23 -0.116,-0.097 0,0"
         style="fill:#2d6353;fill-opacity:1;fill-rule:nonzero;stroke:none"
         id="path14640"
         inkscape:connector-curvature="0" />
    </g>
    <g
       id="g14642"
       transform="matrix(0.35277777,0,0,-0.35277777,59.352601,98.14229)">
      <path
         d="M 0,0 0.065,0.23 C 0.261,0.028 0.4,-0.296 0.244,-0.558 0.107,-0.404 0.008,-0.21 0,0"
         style="fill:#2d6353;fill-opacity:1;fill-rule:nonzero;stroke:none"
         id="path14644"
         inkscape:connector-curvature="0" />
    </g>
    <g
       id="g14646"
       transform="matrix(0.35277777,0,0,-0.35277777,60.802441,98.338999)">
      <path
         d="M 0,0 C -0.156,0.262 -0.017,0.589 0.179,0.788 0.228,0.708 0.256,0.62 0.245,0.529 0.228,0.33 0.131,0.146 0,0"
         style="fill:#2d6353;fill-opacity:1;fill-rule:nonzero;stroke:none"
         id="path14648"
         inkscape:connector-curvature="0" />
    </g>
    <g
       id="g14650"
       transform="matrix(0.35277777,0,0,-0.35277777,59.513819,98.157459)">
      <path
         d="M 0,0 C 0.165,-0.14 0.291,-0.338 0.31,-0.557 L 0.25,-0.808 C 0.009,-0.623 -0.068,-0.284 0,0"
         style="fill:#2d6353;fill-opacity:1;fill-rule:nonzero;stroke:none"
         id="path14652"
         inkscape:connector-curvature="0" />
    </g>
    <g
       id="g14654"
       transform="matrix(0.35277777,0,0,-0.35277777,60.617981,98.353816)">
      <path
         d="M 0,0 C 0.02,0.215 0.142,0.417 0.31,0.554 0.381,0.27 0.301,-0.068 0.062,-0.251 Z"
         style="fill:#2d6353;fill-opacity:1;fill-rule:nonzero;stroke:none"
         id="path14656"
         inkscape:connector-curvature="0" />
    </g>
    <g
       id="g14658"
       transform="matrix(0.35277777,0,0,-0.35277777,58.991529,98.255637)">
      <path
         d="M 0,0 C 0.304,0.065 0.656,0.02 0.893,-0.196 0.776,-0.293 0.617,-0.319 0.472,-0.284 0.292,-0.242 0.111,-0.153 0,0"
         style="fill:#2d6353;fill-opacity:1;fill-rule:nonzero;stroke:none"
         id="path14660"
         inkscape:connector-curvature="0" />
    </g>
    <g
       id="g14662"
       transform="matrix(0.35277777,0,0,-0.35277777,59.655419,98.233589)">
      <path
         d="M 0,0 C 0.15,-0.137 0.287,-0.301 0.344,-0.5 0.372,-0.6 0.355,-0.705 0.31,-0.799 0.127,-0.665 0.031,-0.449 -0.012,-0.23 Z"
         style="fill:#2d6353;fill-opacity:1;fill-rule:nonzero;stroke:none"
         id="path14664"
         inkscape:connector-curvature="0" />
    </g>
    <g
       id="g14666"
       transform="matrix(0.35277777,0,0,-0.35277777,60.469489,98.394138)">
      <path
         d="M 0,0 C 0.065,0.179 0.191,0.33 0.33,0.455 0.378,0.275 0.321,0.091 0.245,-0.068 0.193,-0.176 0.114,-0.272 0.02,-0.344 -0.034,-0.239 -0.042,-0.114 0,0"
         style="fill:#2d6353;fill-opacity:1;fill-rule:nonzero;stroke:none"
         id="path14668"
         inkscape:connector-curvature="0" />
    </g>
    <g
       id="g14670"
       transform="matrix(0.35277777,0,0,-0.35277777,60.93491,98.324888)">
      <path
         d="M 0,0 C 0.235,0.216 0.588,0.262 0.893,0.196 0.781,0.04 0.6,-0.046 0.418,-0.088 0.275,-0.123 0.116,-0.097 0,0"
         style="fill:#2d6353;fill-opacity:1;fill-rule:nonzero;stroke:none"
         id="path14672"
         inkscape:connector-curvature="0" />
    </g>
    <g
       id="g14674"
       transform="matrix(0.35277777,0,0,-0.35277777,59.80874,98.288904)">
      <path
         d="M 0,0 C 0.298,-0.139 0.429,-0.498 0.375,-0.81 0.145,-0.614 -0.042,-0.312 0,0"
         style="fill:#2d6353;fill-opacity:1;fill-rule:nonzero;stroke:none"
         id="path14676"
         inkscape:connector-curvature="0" />
    </g>
    <g
       id="g14678"
       transform="matrix(0.35277777,0,0,-0.35277777,60.299981,98.574654)">
      <path
         d="M 0,0 C -0.054,0.312 0.077,0.671 0.378,0.81 0.418,0.498 0.23,0.196 0,0"
         style="fill:#2d6353;fill-opacity:1;fill-rule:nonzero;stroke:none"
         id="path14680"
         inkscape:connector-curvature="0" />
    </g>
    <g
       id="g14682"
       transform="matrix(0.35277777,0,0,-0.35277777,59.150031,98.431356)">
      <path
         d="M 0,0 C 0.068,0.066 0.15,0.128 0.25,0.137 0.429,0.157 0.605,0.091 0.779,0.049 0.673,-0.082 0.494,-0.107 0.335,-0.107 0.216,-0.107 0.097,-0.073 0,0"
         style="fill:#2d6353;fill-opacity:1;fill-rule:nonzero;stroke:none"
         id="path14684"
         inkscape:connector-curvature="0" />
    </g>
    <g
       id="g14686"
       transform="matrix(0.35277777,0,0,-0.35277777,60.816591,98.414105)">
      <path
         d="M 0,0 C 0.173,0.042 0.35,0.108 0.531,0.088 0.628,0.08 0.71,0.017 0.779,-0.049 0.62,-0.174 0.401,-0.174 0.213,-0.128 Z"
         style="fill:#2d6353;fill-opacity:1;fill-rule:nonzero;stroke:none"
         id="path14688"
         inkscape:connector-curvature="0" />
    </g>
    <g
       id="g14690"
       transform="matrix(0.35277777,0,0,-0.35277777,59.315379,98.573631)">
      <path
         d="M 0,0 C 0.168,0.247 0.523,0.375 0.796,0.233 0.594,0.032 0.285,-0.103 0,0"
         style="fill:#2d6353;fill-opacity:1;fill-rule:nonzero;stroke:none"
         id="path14692"
         inkscape:connector-curvature="0" />
    </g>
    <g
       id="g14694"
       transform="matrix(0.35277777,0,0,-0.35277777,60.65311,98.488541)">
      <path
         d="M 0,0 C 0.27,0.128 0.611,0 0.773,-0.241 0.526,-0.335 0.253,-0.235 0.054,-0.079 Z"
         style="fill:#2d6353;fill-opacity:1;fill-rule:nonzero;stroke:none"
         id="path14696"
         inkscape:connector-curvature="0" />
    </g>
    <g
       id="g14698"
       transform="matrix(0.35277777,0,0,-0.35277777,59.47695,98.651842)">
      <path
         d="M 0,0 C 0.193,0.208 0.509,0.302 0.781,0.208 0.728,0.123 0.662,0.04 0.568,-0.006 0.392,-0.097 0.179,-0.071 0,0"
         style="fill:#2d6353;fill-opacity:1;fill-rule:nonzero;stroke:none"
         id="path14700"
         inkscape:connector-curvature="0" />
    </g>
    <g
       id="g14702"
       transform="matrix(0.35277777,0,0,-0.35277777,60.48964,98.578464)">
      <path
         d="M 0,0 C 0.27,0.094 0.585,0 0.779,-0.208 0.6,-0.276 0.386,-0.305 0.21,-0.214 0.12,-0.168 0.054,-0.085 0,0"
         style="fill:#2d6353;fill-opacity:1;fill-rule:nonzero;stroke:none"
         id="path14704"
         inkscape:connector-curvature="0" />
    </g>
    <g
       id="g14706"
       transform="matrix(0.35277777,0,0,-0.35277777,59.845919,98.577582)">
      <path
         d="m 0,0 c 0.259,-0.06 0.515,-0.142 0.779,-0.173 0.264,0.031 0.52,0.113 0.779,0.171 C 1.355,-0.08 1.151,-0.15 0.943,-0.216 1.072,-0.252 1.196,-0.312 1.308,-0.387 1.128,-0.355 0.958,-0.295 0.779,-0.267 0.6,-0.295 0.429,-0.355 0.253,-0.387 0.363,-0.31 0.486,-0.252 0.614,-0.216 0.409,-0.15 0.202,-0.08 0,0"
         style="fill:#2d6353;fill-opacity:1;fill-rule:nonzero;stroke:none"
         id="path14708"
         inkscape:connector-curvature="0" />
    </g>
    <g
       id="g14710"
       transform="matrix(0.35277777,0,0,-0.35277777,59.633371,98.753971)">
      <path
         d="M 0,0 C 0.165,0.238 0.455,0.389 0.745,0.369 0.679,0.244 0.6,0.117 0.466,0.054 0.321,-0.017 0.156,-0.012 0,0"
         style="fill:#2d6353;fill-opacity:1;fill-rule:nonzero;stroke:none"
         id="path14712"
         inkscape:connector-curvature="0" />
    </g>
    <g
       id="g14714"
       transform="matrix(0.35277777,0,0,-0.35277777,60.345281,98.623761)">
      <path
         d="M 0,0 C 0.29,0.02 0.583,-0.131 0.745,-0.369 0.574,-0.381 0.389,-0.386 0.239,-0.293 0.125,-0.227 0.06,-0.111 0,0"
         style="fill:#2d6353;fill-opacity:1;fill-rule:nonzero;stroke:none"
         id="path14716"
         inkscape:connector-curvature="0" />
    </g>
  </g>
</svg>
