<?xml version="1.0" encoding="UTF-8" standalone="no"?>
<!-- Created with Inkscape (http://www.inkscape.org/) -->

<svg
   xmlns:dc="http://purl.org/dc/elements/1.1/"
   xmlns:cc="http://creativecommons.org/ns#"
   xmlns:rdf="http://www.w3.org/1999/02/22-rdf-syntax-ns#"
   xmlns:svg="http://www.w3.org/2000/svg"
   xmlns="http://www.w3.org/2000/svg"
   xmlns:sodipodi="http://sodipodi.sourceforge.net/DTD/sodipodi-0.dtd"
   xmlns:inkscape="http://www.inkscape.org/namespaces/inkscape"
   width="7.0848398mm"
   height="4.732904mm"
   viewBox="0 0 7.0848398 4.732904"
   version="1.1"
   id="svg8"
   inkscape:version="0.92.4 (5da689c313, 2019-01-14)"
   sodipodi:docname="dominican_republic.svg">
  <defs
     id="defs2">
    <radialGradient
       id="radialGradient37584"
       spreadMethod="pad"
       gradientTransform="matrix(0.975099,0,0,0.975099,159.64062,365.06934)"
       gradientUnits="userSpaceOnUse"
       r="1"
       cy="0"
       cx="0"
       fy="0"
       fx="0">
      <stop
         id="stop37578"
         offset="0"
         style="stop-opacity:1;stop-color:#852c26" />
      <stop
         id="stop37580"
         offset="0.0015476"
         style="stop-opacity:1;stop-color:#852c26" />
      <stop
         id="stop37582"
         offset="1"
         style="stop-opacity:1;stop-color:#451617" />
    </radialGradient>
    <clipPath
       id="clipPath37532"
       clipPathUnits="userSpaceOnUse">
      <path
         inkscape:connector-curvature="0"
         id="path37530"
         d="M 0,400 H 400 V 0 H 0 Z" />
    </clipPath>
    <radialGradient
       id="radialGradient37522"
       spreadMethod="pad"
       gradientTransform="matrix(-0.2637247,0,0,0.2637247,159.68652,365.88965)"
       gradientUnits="userSpaceOnUse"
       r="1"
       cy="0"
       cx="0"
       fy="0"
       fx="0">
      <stop
         id="stop37516"
         offset="0"
         style="stop-opacity:1;stop-color:#852c26" />
      <stop
         id="stop37518"
         offset="0.0015476"
         style="stop-opacity:1;stop-color:#852c26" />
      <stop
         id="stop37520"
         offset="1"
         style="stop-opacity:1;stop-color:#451617" />
    </radialGradient>
    <clipPath
       id="clipPath37354"
       clipPathUnits="userSpaceOnUse">
      <path
         inkscape:connector-curvature="0"
         id="path37352"
         d="M 0,400 H 400 V 0 H 0 Z" />
    </clipPath>
    <radialGradient
       id="radialGradient37344"
       spreadMethod="pad"
       gradientTransform="matrix(0.975099,0,0,0.975099,155.76025,365.06934)"
       gradientUnits="userSpaceOnUse"
       r="1"
       cy="0"
       cx="0"
       fy="0"
       fx="0">
      <stop
         id="stop37338"
         offset="0"
         style="stop-opacity:1;stop-color:#eee54f" />
      <stop
         id="stop37340"
         offset="0.9977451"
         style="stop-opacity:1;stop-color:#e04a20" />
      <stop
         id="stop37342"
         offset="1"
         style="stop-opacity:1;stop-color:#e04a20" />
    </radialGradient>
    <clipPath
       id="clipPath37272"
       clipPathUnits="userSpaceOnUse">
      <path
         inkscape:connector-curvature="0"
         id="path37270"
         d="M 0,400 H 400 V 0 H 0 Z" />
    </clipPath>
    <radialGradient
       id="radialGradient37262"
       spreadMethod="pad"
       gradientTransform="matrix(0.2636045,0,0,0.2636045,155.71484,365.89062)"
       gradientUnits="userSpaceOnUse"
       r="1"
       cy="0"
       cx="0"
       fy="0"
       fx="0">
      <stop
         id="stop37256"
         offset="0"
         style="stop-opacity:1;stop-color:#eee54f" />
      <stop
         id="stop37258"
         offset="0.9977451"
         style="stop-opacity:1;stop-color:#e04a20" />
      <stop
         id="stop37260"
         offset="1"
         style="stop-opacity:1;stop-color:#e04a20" />
    </radialGradient>
  </defs>
  <sodipodi:namedview
     id="base"
     pagecolor="#ffffff"
     bordercolor="#666666"
     borderopacity="1.0"
     inkscape:pageopacity="0.0"
     inkscape:pageshadow="2"
     inkscape:zoom="11.2"
     inkscape:cx="21.798698"
     inkscape:cy="8.8755558"
     inkscape:document-units="mm"
     inkscape:current-layer="layer1"
     showgrid="false"
     inkscape:window-width="954"
     inkscape:window-height="630"
     inkscape:window-x="-3"
     inkscape:window-y="6"
     inkscape:window-maximized="0" />
  <metadata
     id="metadata5">
    <rdf:RDF>
      <cc:Work
         rdf:about="">
        <dc:format>image/svg+xml</dc:format>
        <dc:type
           rdf:resource="http://purl.org/dc/dcmitype/StillImage" />
        <dc:title></dc:title>
      </cc:Work>
    </rdf:RDF>
  </metadata>
  <g
     inkscape:label="Layer 1"
     inkscape:groupmode="layer"
     id="layer1"
     transform="translate(-58.024946,-95.632056)">
    <path
       d="m 58.054226,100.33562 h 7.02628 v -4.674657 h -7.02628 z m 7.0411,0.0148 v -0.0148 z m -7.07038,0.0145 v -4.732864 h 7.08484 v 4.718404 0.0145 z"
       style="fill:#221f21;fill-opacity:1;fill-rule:nonzero;stroke:none;stroke-width:0.35277778"
       id="path38202"
       inkscape:connector-curvature="0" />
    <path
       d="m 65.095326,100.35044 h -7.05556 v -4.703588 h 7.05556 z"
       style="fill:#399545;fill-opacity:1;fill-rule:nonzero;stroke:none;stroke-width:0.35277778"
       id="path38204"
       inkscape:connector-curvature="0" />
    <path
       d="m 61.371046,100.35044 h -0.39158 v -4.703588 h 0.39158 z"
       style="fill:#f1bc24;fill-opacity:1;fill-rule:nonzero;stroke:none;stroke-width:0.35277778"
       id="path38206"
       inkscape:connector-curvature="0" />
    <path
       d="m 61.763686,100.35044 h -0.39229 v -4.703588 h 0.39229 z"
       style="fill:#0e0f0e;fill-opacity:1;fill-rule:nonzero;stroke:none;stroke-width:0.35277778"
       id="path38208"
       inkscape:connector-curvature="0" />
    <path
       d="m 62.155276,100.35044 h -0.39159 v -4.703588 h 0.39159 z"
       style="fill:#ffffff;fill-opacity:1;fill-rule:nonzero;stroke:none;stroke-width:0.35277778"
       id="path38210"
       inkscape:connector-curvature="0" />
    <path
       d="m 65.095326,97.802324 h -7.05556 v -0.391583 h 7.05556 z"
       style="fill:#f1bc24;fill-opacity:1;fill-rule:nonzero;stroke:none;stroke-width:0.35277778"
       id="path38212"
       inkscape:connector-curvature="0" />
    <path
       d="m 65.095326,98.194966 h -7.05556 v -0.392289 h 7.05556 z"
       style="fill:#0e0f0e;fill-opacity:1;fill-rule:nonzero;stroke:none;stroke-width:0.35277778"
       id="path38214"
       inkscape:connector-curvature="0" />
    <path
       d="m 65.095326,98.586549 h -7.05556 v -0.391583 h 7.05556 z"
       style="fill:#ffffff;fill-opacity:1;fill-rule:nonzero;stroke:none;stroke-width:0.35277778"
       id="path38216"
       inkscape:connector-curvature="0" />
    <g
       id="g38218"
       transform="matrix(0.35277777,0,0,-0.35277777,62.790583,97.99861)">
      <path
         d="m 0,0 c 0,-1.916 -1.553,-3.468 -3.467,-3.468 -1.915,0 -3.468,1.552 -3.468,3.468 0,1.916 1.553,3.468 3.468,3.468 C -1.553,3.468 0,1.916 0,0"
         style="fill:#de1c41;fill-opacity:1;fill-rule:nonzero;stroke:none"
         id="path38220"
         inkscape:connector-curvature="0" />
    </g>
    <g
       id="g38222"
       transform="matrix(0.35277777,0,0,-0.35277777,61.567573,96.921685)">
      <path
         d="M 0,0 0.105,-0.325 H 0.446 L 0.17,-0.524 0.275,-0.85 0,-0.649 -0.276,-0.85 l 0.105,0.326 -0.275,0.199 h 0.341 z"
         style="fill:#399545;fill-opacity:1;fill-rule:nonzero;stroke:none"
         id="path38224"
         inkscape:connector-curvature="0" />
    </g>
    <g
       id="g38226"
       transform="matrix(0.35277777,0,0,-0.35277777,61.656793,97.210716)">
      <path
         d="M 0,0 -0.097,0.298 0.157,0.483 H -0.157 L -0.253,0.779 -0.35,0.483 H -0.665 L -0.411,0.298 -0.507,0 -0.253,0.185 Z m -0.253,0.156 -0.299,-0.217 0.115,0.351 -0.298,0.215 h 0.369 l 0.102,0.316 0.011,0.033 0.113,-0.349 H 0.229 L -0.069,0.29 0.045,-0.061 Z"
         style="fill:#0e0f0e;fill-opacity:1;fill-rule:nonzero;stroke:none"
         id="path38228"
         inkscape:connector-curvature="0" />
    </g>
    <g
       id="g38230"
       transform="matrix(0.35277777,0,0,-0.35277777,60.934693,97.127531)">
      <path
         d="M 0,0 0.274,-0.2 0.552,0 0.446,-0.324 0.722,-0.524 H 0.381 L 0.274,-0.849 0.171,-0.524 H -0.17 l 0.276,0.2 z"
         style="fill:#399545;fill-opacity:1;fill-rule:nonzero;stroke:none"
         id="path38232"
         inkscape:connector-curvature="0" />
    </g>
    <g
       id="g38234"
       transform="matrix(0.35277777,0,0,-0.35277777,60.976393,97.243807)">
      <path
         d="M 0,0 -0.253,-0.183 H 0.06 l 0.096,-0.299 0.098,0.299 H 0.568 L 0.314,0 0.411,0.299 0.156,0.115 -0.096,0.299 Z M 0.043,-0.207 H -0.324 L -0.027,0.01 -0.129,0.325 -0.118,0.33 -0.129,0.325 -0.14,0.36 0.156,0.143 0.456,0.36 0.342,0.01 0.641,-0.207 H 0.271 L 0.156,-0.558 Z"
         style="fill:#0e0f0e;fill-opacity:1;fill-rule:nonzero;stroke:none"
         id="path38236"
         inkscape:connector-curvature="0" />
    </g>
    <g
       id="g38238"
       transform="matrix(0.35277777,0,0,-0.35277777,60.543673,97.665835)">
      <path
         d="M 0,0 H 0.341 L 0.445,0.323 0.552,0 H 0.893 L 0.617,-0.201 0.723,-0.525 0.445,-0.324 0.17,-0.525 0.275,-0.201 Z"
         style="fill:#399545;fill-opacity:1;fill-rule:nonzero;stroke:none"
         id="path38240"
         inkscape:connector-curvature="0" />
    </g>
    <g
       id="g38242"
       transform="matrix(0.35277777,0,0,-0.35277777,60.790693,97.840495)">
      <path
         d="M 0,0 -0.099,0.299 0.156,0.482 H -0.157 L -0.255,0.781 -0.352,0.482 H -0.665 L -0.411,0.299 -0.508,0 -0.255,0.186 Z M -0.255,0.156 -0.552,-0.061 -0.438,0.29 -0.707,0.486 -0.7,0.495 -0.707,0.486 -0.735,0.507 h 0.368 l 0.112,0.349 0.114,-0.349 H 0.228 L -0.07,0.29 0.044,-0.062 Z"
         style="fill:#0e0f0e;fill-opacity:1;fill-rule:nonzero;stroke:none"
         id="path38244"
         inkscape:connector-curvature="0" />
    </g>
    <g
       id="g38246"
       transform="matrix(0.35277777,0,0,-0.35277777,60.543673,98.331244)">
      <path
         d="M 0,0 0.275,0.2 0.17,0.524 0.445,0.324 0.723,0.524 0.617,0.2 0.893,0 H 0.552 L 0.445,-0.324 0.341,0 Z"
         style="fill:#399545;fill-opacity:1;fill-rule:nonzero;stroke:none"
         id="path38248"
         inkscape:connector-curvature="0" />
    </g>
    <g
       id="g38250"
       transform="matrix(0.35277777,0,0,-0.35277777,60.666693,98.326764)">
      <path
         d="M 0,0 0.097,-0.299 0.194,0 H 0.509 L 0.253,0.183 0.352,0.482 0.097,0.297 -0.156,0.482 -0.06,0.183 -0.313,0 Z m -0.016,-0.025 h -0.333 v 0.012 l 0.007,-0.008 -0.007,0.008 V -0.025 L -0.384,-0.024 -0.087,0.192 -0.2,0.542 0.097,0.327 0.395,0.543 0.281,0.192 0.579,-0.025 H 0.211 l -0.114,-0.35 z"
         style="fill:#0e0f0e;fill-opacity:1;fill-rule:nonzero;stroke:none"
         id="path38252"
         inkscape:connector-curvature="0" />
    </g>
    <g
       id="g38254"
       transform="matrix(0.35277777,0,0,-0.35277777,60.934693,98.869724)">
      <path
         d="m 0,0 0.106,0.324 -0.276,0.2 H 0.171 L 0.274,0.849 0.381,0.524 H 0.722 L 0.446,0.324 0.552,0 0.274,0.2 Z"
         style="fill:#399545;fill-opacity:1;fill-rule:nonzero;stroke:none"
         id="path38256"
         inkscape:connector-curvature="0" />
    </g>
    <g
       id="g38258"
       transform="matrix(0.35277777,0,0,-0.35277777,60.976393,98.753449)">
      <path
         d="M 0,0 -0.096,-0.299 0.156,-0.115 0.411,-0.299 0.314,0 0.568,0.185 H 0.254 L 0.156,0.482 0.06,0.185 h -0.313 z m -0.107,-0.332 -0.011,0.002 z m 0.263,0.19 -0.267,-0.196 -0.029,-0.02 0.113,0.348 -0.297,0.217 H 0.043 L 0.156,0.558 0.271,0.207 h 0.37 L 0.342,-0.01 0.456,-0.358 Z"
         style="fill:#0e0f0e;fill-opacity:1;fill-rule:nonzero;stroke:none"
         id="path38260"
         inkscape:connector-curvature="0" />
    </g>
    <g
       id="g38262"
       transform="matrix(0.35277777,0,0,-0.35277777,61.567573,99.07557)">
      <path
         d="M 0,0 -0.105,0.326 H -0.446 L -0.171,0.524 -0.276,0.851 0,0.649 0.275,0.851 0.17,0.524 0.446,0.326 H 0.105 Z"
         style="fill:#399545;fill-opacity:1;fill-rule:nonzero;stroke:none"
         id="path38264"
         inkscape:connector-curvature="0" />
    </g>
    <g
       id="g38266"
       transform="matrix(0.35277777,0,0,-0.35277777,61.511763,98.89142)">
      <path
         d="m 0,0 -0.254,-0.186 h 0.316 l 0.096,-0.296 0.096,0.296 H 0.568 L 0.314,0 0.411,0.296 0.158,0.113 -0.096,0.296 Z m 0.158,-0.522 0.01,0.005 z M 0.045,-0.208 H -0.324 L -0.026,0.008 -0.139,0.358 0.158,0.143 0.456,0.358 0.342,0.008 0.64,-0.208 H 0.271 L 0.168,-0.523 0.158,-0.558 Z"
         style="fill:#0e0f0e;fill-opacity:1;fill-rule:nonzero;stroke:none"
         id="path38268"
         inkscape:connector-curvature="0" />
    </g>
    <g
       id="g38270"
       transform="matrix(0.35277777,0,0,-0.35277777,62.200073,98.869724)">
      <path
         d="M 0,0 -0.274,0.2 -0.552,0 l 0.107,0.324 -0.278,0.2 h 0.342 l 0.107,0.325 0.103,-0.325 h 0.342 l -0.276,-0.2 z"
         style="fill:#399545;fill-opacity:1;fill-rule:nonzero;stroke:none"
         id="path38272"
         inkscape:connector-curvature="0" />
    </g>
    <g
       id="g38274"
       transform="matrix(0.35277777,0,0,-0.35277777,62.047463,98.753449)">
      <path
         d="M 0,0 -0.097,-0.299 0.156,-0.115 0.41,-0.298 0.314,0 0.567,0.185 H 0.254 L 0.156,0.482 0.062,0.185 h -0.315 z m 0.158,-0.142 -0.3,-0.216 0.116,0.348 -0.299,0.217 H 0.043 L 0.156,0.558 0.272,0.207 H 0.64 L 0.341,-0.01 0.444,-0.325 0.433,-0.33 0.44,-0.32 0.433,-0.33 0.444,-0.325 0.456,-0.358 Z"
         style="fill:#0e0f0e;fill-opacity:1;fill-rule:nonzero;stroke:none"
         id="path38276"
         inkscape:connector-curvature="0" />
    </g>
    <g
       id="g38278"
       transform="matrix(0.35277777,0,0,-0.35277777,62.591443,98.331244)">
      <path
         d="M 0,0 H -0.341 L -0.446,-0.324 -0.552,0 h -0.341 l 0.276,0.2 -0.106,0.324 0.277,-0.2 0.275,0.2 L -0.276,0.2 Z"
         style="fill:#399545;fill-opacity:1;fill-rule:nonzero;stroke:none"
         id="path38280"
         inkscape:connector-curvature="0" />
    </g>
    <g
       id="g38282"
       transform="matrix(0.35277777,0,0,-0.35277777,62.378893,98.262347)">
      <path
         d="M 0,0 -0.255,-0.183 H 0.06 l 0.096,-0.299 0.097,0.299 H 0.566 L 0.312,0 0.409,0.299 0.156,0.115 -0.098,0.299 Z M 0.042,-0.208 H -0.326 L -0.028,0.009 -0.142,0.36 0.156,0.144 0.454,0.361 0.34,0.009 0.608,-0.186 0.603,-0.195 v 0.012 -0.012 l 0.005,0.009 0.03,-0.021 H 0.27 l -0.114,-0.35 z"
         style="fill:#0e0f0e;fill-opacity:1;fill-rule:nonzero;stroke:none"
         id="path38284"
         inkscape:connector-curvature="0" />
    </g>
    <g
       id="g38286"
       transform="matrix(0.35277777,0,0,-0.35277777,62.591443,97.665835)">
      <path
         d="m 0,0 -0.276,-0.201 0.105,-0.324 -0.275,0.201 -0.277,-0.201 0.106,0.324 L -0.893,0 h 0.341 L -0.446,0.323 -0.341,0 Z"
         style="fill:#399545;fill-opacity:1;fill-rule:nonzero;stroke:none"
         id="path38288"
         inkscape:connector-curvature="0" />
    </g>
    <g
       id="g38290"
       transform="matrix(0.35277777,0,0,-0.35277777,62.523253,97.840495)">
      <path
         d="M 0,0 -0.097,0.299 0.157,0.482 H -0.156 L -0.253,0.781 -0.35,0.482 H -0.664 L -0.409,0.299 -0.507,0 -0.253,0.186 Z m -0.253,0.156 -0.298,-0.217 0.114,0.351 -0.298,0.217 h 0.368 L -0.253,0.856 -0.14,0.507 H 0.193 V 0.495 0.507 H 0.229 L -0.069,0.29 0.045,-0.062 Z"
         style="fill:#0e0f0e;fill-opacity:1;fill-rule:nonzero;stroke:none"
         id="path38292"
         inkscape:connector-curvature="0" />
    </g>
    <g
       id="g38294"
       transform="matrix(0.35277777,0,0,-0.35277777,62.200073,97.127531)">
      <path
         d="m 0,0 -0.105,-0.324 0.276,-0.2 h -0.342 l -0.103,-0.325 -0.107,0.325 h -0.342 l 0.278,0.2 L -0.552,0 -0.274,-0.2 Z"
         style="fill:#399545;fill-opacity:1;fill-rule:nonzero;stroke:none"
         id="path38296"
         inkscape:connector-curvature="0" />
    </g>
    <g
       id="g38298"
       transform="matrix(0.35277777,0,0,-0.35277777,62.047463,97.243807)">
      <path
         d="M 0,0 -0.253,-0.183 H 0.06 l 0.098,-0.299 0.097,0.299 H 0.567 L 0.314,0 0.41,0.299 0.158,0.115 -0.097,0.299 Z M 0.043,-0.207 H -0.325 L -0.026,0.01 -0.142,0.36 0.158,0.143 0.427,0.338 0.456,0.36 0.341,0.01 0.64,-0.207 H 0.272 L 0.158,-0.558 Z"
         style="fill:#0e0f0e;fill-opacity:1;fill-rule:nonzero;stroke:none"
         id="path38300"
         inkscape:connector-curvature="0" />
    </g>
    <g
       id="g38302"
       transform="matrix(0.35277777,0,0,-0.35277777,61.510043,97.324593)">
      <path
         d="M 0,0 H 0.034 L 0.278,-0.073 0.458,-0.218 0.603,-0.344 0.786,-0.458 0.809,-0.467 0.709,-0.48 0.63,-0.481 0.762,-0.547 0.813,-0.551 0.771,-0.6 0.716,-0.646 0.861,-0.725 0.922,-0.73 0.812,-0.833 0.927,-0.886 0.972,-0.89 0.851,-0.998 0.958,-1.05 1.012,-1.053 0.909,-1.15 0.757,-1.187 0.649,-1.159 c 0.133,-0.177 0.237,-0.375 0.321,-0.578 0.069,-0.172 0.124,-0.35 0.15,-0.534 l 0.012,-0.233 -0.019,-0.1 0.003,-0.022 0.023,-0.205 v -0.046 l 0.02,-0.146 V -3.059 L 1.138,-3.261 1.048,-3.061 1.042,-3.195 1.091,-3.267 1.057,-3.383 1.016,-3.41 0.968,-3.583 0.92,-3.651 0.883,-3.666 0.851,-3.771 0.813,-3.815 0.772,-3.813 0.735,-3.77 0.691,-3.667 0.634,-3.642 0.582,-3.563 0.492,-3.553 0.381,-3.552 0.304,-3.566 0.265,-3.558 0.243,-3.563 0.156,-3.556 -0.007,-3.444 h -0.132 l -0.063,10e-4 -0.226,0.004 -0.227,0.015 -0.039,0.012 -0.041,0.046 -0.077,0.131 -0.021,0.048 v 0.015 l 0.101,0.004 0.033,0.02 0.012,0.042 0.045,0.084 0.095,0.046 0.164,-0.101 0.022,-0.073 0.007,-0.035 0.023,-0.005 c 0.107,0.003 0.215,0.007 0.322,0.012 l 0.106,0.091 -0.054,0.164 -0.063,0.045 -0.046,0.119 -0.004,0.159 -0.005,0.015 -0.019,0.055 -0.008,0.015 c -0.127,0.141 -0.232,0.304 -0.294,0.487 -0.046,0.129 -0.07,0.266 -0.072,0.403 -0.005,0.091 0,0.183 0.007,0.276 0.019,0.187 0.062,0.373 0.147,0.541 l 0.014,0.036 0.037,0.081 0.017,0.054 0.028,0.032 0.018,0.056 -0.012,0.006 -0.114,-0.043 -0.092,0.021 -0.048,-0.129 -0.066,0.219 0.025,0.134 0.098,0.068 0.058,0.015 0.106,0.182 z"
         style="fill:#0e0f0f;fill-opacity:1;fill-rule:nonzero;stroke:none"
         id="path38304"
         inkscape:connector-curvature="0" />
    </g>
    <g
       id="g38306"
       transform="matrix(0.35277777,0,0,-0.35277777,61.452143,97.344384)">
      <path
         d="m 0,0 0.256,0.029 0.173,-0.064 0.162,-0.131 c 0.08,-0.072 0.161,-0.146 0.252,-0.208 L 0.891,-0.4 0.72,-0.384 0.662,-0.36 0.492,-0.464 0.365,-0.498 0.173,-0.515 l -0.196,0.041 -0.003,0.007 0.029,0.072 -0.054,0.062 0.007,0.058 -0.037,0.066 -0.08,0.012 0.065,0.136 z"
         style="fill:#832897;fill-opacity:1;fill-rule:nonzero;stroke:none"
         id="path38308"
         inkscape:connector-curvature="0" />
    </g>
    <g
       id="g38310"
       transform="matrix(0.35277777,0,0,-0.35277777,61.502103,97.391762)">
      <path
         d="m 0,0 0.1,-0.021 0.027,-0.048 -0.033,-0.046 -0.091,-0.019 -0.072,0.027 -0.022,0.043 0.023,0.042 z"
         style="fill:#0e0f0f;fill-opacity:1;fill-rule:nonzero;stroke:none"
         id="path38312"
         inkscape:connector-curvature="0" />
    </g>
    <g
       id="g38314"
       transform="matrix(0.35277777,0,0,-0.35277777,61.498323,97.399699)">
      <path
         d="m 0,0 0.09,-0.013 0.023,-0.026 -0.013,-0.03 -0.069,-0.02 -0.073,0.02 -0.016,0.027 0.015,0.024 z"
         style="fill:#de1b41;fill-opacity:1;fill-rule:nonzero;stroke:none"
         id="path38316"
         inkscape:connector-curvature="0" />
    </g>
    <g
       id="g38318"
       transform="matrix(0.35277777,0,0,-0.35277777,61.502803,97.403474)">
      <path
         d="m 0,0 0.046,-0.031 -0.048,-0.027 -0.02,0.036 z"
         style="fill:#0e0f0f;fill-opacity:1;fill-rule:nonzero;stroke:none"
         id="path38320"
         inkscape:connector-curvature="0" />
    </g>
    <g
       id="g38322"
       transform="matrix(0.35277777,0,0,-0.35277777,61.370513,97.428098)">
      <path
         d="M 0,0 0.101,0.021 0.153,-0.007 0.164,-0.071 0.11,-0.138 0.058,-0.161 l -0.131,-0.172 -0.042,0.159 0.027,0.12 z"
         style="fill:#efbc23;fill-opacity:1;fill-rule:nonzero;stroke:none"
         id="path38324"
         inkscape:connector-curvature="0" />
    </g>
    <g
       id="g38326"
       transform="matrix(0.35277777,0,0,-0.35277777,61.393943,97.439634)">
      <path
         d="M 0,0 0.023,-0.007 0.017,-0.048 -0.019,-0.03 Z"
         style="fill:#0e0f0f;fill-opacity:1;fill-rule:nonzero;stroke:none"
         id="path38328"
         inkscape:connector-curvature="0" />
    </g>
    <g
       id="g38330"
       transform="matrix(0.35277777,0,0,-0.35277777,61.429743,97.469091)">
      <path
         d="m 0,0 0.043,-0.032 -0.014,-0.054 -0.096,-0.062 -0.111,0.01 0.106,0.085 z"
         style="fill:#efbc23;fill-opacity:1;fill-rule:nonzero;stroke:none"
         id="path38332"
         inkscape:connector-curvature="0" />
    </g>
    <g
       id="g38334"
       transform="matrix(0.35277777,0,0,-0.35277777,61.685053,97.481332)">
      <path
         d="M 0,0 0.013,-0.001 0.062,-0.02 0.083,-0.029 0.186,-0.094 0.271,-0.126 0.144,-0.209 -0.003,-0.202 -0.181,-0.104 Z"
         style="fill:#832897;fill-opacity:1;fill-rule:nonzero;stroke:none"
         id="path38336"
         inkscape:connector-curvature="0" />
    </g>
    <g
       id="g38338"
       transform="matrix(0.35277777,0,0,-0.35277777,61.601333,97.524053)">
      <path
         d="M 0,0 0.029,0.006 0.036,0.004 0.234,-0.105 0.434,-0.092 0.615,-0.185 0.612,-0.191 0.518,-0.26 0.381,-0.272 0.231,-0.211 0.057,-0.067 Z"
         style="fill:#832897;fill-opacity:1;fill-rule:nonzero;stroke:none"
         id="path38340"
         inkscape:connector-curvature="0" />
    </g>
    <g
       id="g38342"
       transform="matrix(0.35277777,0,0,-0.35277777,61.443183,97.550759)">
      <path
         d="M 0,0 0.011,0.083 0.185,0.048 0.178,-0.008 0.093,-0.061 Z"
         style="fill:#399545;fill-opacity:1;fill-rule:nonzero;stroke:none"
         id="path38344"
         inkscape:connector-curvature="0" />
    </g>
    <g
       id="g38346"
       transform="matrix(0.35277777,0,0,-0.35277777,61.566203,97.530439)">
      <path
         d="M 0,0 0.078,0.013 0.115,-0.043 0.11,-0.074 -0.01,-0.09 Z"
         style="fill:#399545;fill-opacity:1;fill-rule:nonzero;stroke:none"
         id="path38348"
         inkscape:connector-curvature="0" />
    </g>
    <g
       id="g38350"
       transform="matrix(0.35277777,0,0,-0.35277777,61.516913,97.534213)">
      <path
         d="M 0,0 0.12,0.008 0.08,-0.097 -0.031,-0.094 Z"
         style="fill:#399545;fill-opacity:1;fill-rule:nonzero;stroke:none"
         id="path38352"
         inkscape:connector-curvature="0" />
    </g>
    <g
       id="g38354"
       transform="matrix(0.35277777,0,0,-0.35277777,61.431473,97.550759)">
      <path
         d="M 0,0 0.008,0.004 0.062,-0.068 0.173,-0.074 0.118,-0.141 0.002,-0.113 Z"
         style="fill:#399545;fill-opacity:1;fill-rule:nonzero;stroke:none"
         id="path38356"
         inkscape:connector-curvature="0" />
    </g>
    <g
       id="g38358"
       transform="matrix(0.35277777,0,0,-0.35277777,61.613723,97.551958)">
      <path
         d="M 0,0 C 0.071,-0.069 0.146,-0.136 0.237,-0.18 L 0.401,-0.22 0.488,-0.203 0.509,-0.209 0.632,-0.263 0.499,-0.35 0.341,-0.335 0.127,-0.199 0.068,-0.144 0.006,-0.058 Z"
         style="fill:#832897;fill-opacity:1;fill-rule:nonzero;stroke:none"
         id="path38360"
         inkscape:connector-curvature="0" />
    </g>
    <g
       id="g38362"
       transform="matrix(0.35277777,0,0,-0.35277777,61.597523,97.570056)">
      <path
         d="M 0,0 0.022,0.011 0.07,-0.081 0.061,-0.142 h -0.06 l 0.023,0.073 z"
         style="fill:#399545;fill-opacity:1;fill-rule:nonzero;stroke:none"
         id="path38364"
         inkscape:connector-curvature="0" />
    </g>
    <g
       id="g38366"
       transform="matrix(0.35277777,0,0,-0.35277777,61.543443,97.578663)">
      <path
         d="m 0,0 0.04,0.029 0.09,-0.014 0.023,-0.083 -0.079,-0.07 -0.082,0.022 0.015,0.032 z"
         style="fill:#399545;fill-opacity:1;fill-rule:nonzero;stroke:none"
         id="path38368"
         inkscape:connector-curvature="0" />
    </g>
    <g
       id="g38370"
       transform="matrix(0.35277777,0,0,-0.35277777,61.501083,97.573477)">
      <path
         d="m 0,0 0.098,-0.021 0.011,-0.059 -0.047,-0.064 -0.124,0.002 0.023,0.059 0.011,0.017 z"
         style="fill:#399545;fill-opacity:1;fill-rule:nonzero;stroke:none"
         id="path38372"
         inkscape:connector-curvature="0" />
    </g>
    <g
       id="g38374"
       transform="matrix(0.35277777,0,0,-0.35277777,61.418383,97.618457)">
      <path
         d="M 0,0 -0.002,0.11 0.058,0.036 0.172,0.035 0.11,-0.033 Z"
         style="fill:#399545;fill-opacity:1;fill-rule:nonzero;stroke:none"
         id="path38376"
         inkscape:connector-curvature="0" />
    </g>
    <g
       id="g38378"
       transform="matrix(0.35277777,0,0,-0.35277777,61.627513,97.606215)">
      <path
         d="M 0,0 0.016,-0.01 0.253,-0.185 0.455,-0.22 0.492,-0.211 0.632,-0.274 0.523,-0.353 0.387,-0.358 0.229,-0.288 0.07,-0.157 0.004,-0.062 Z"
         style="fill:#832897;fill-opacity:1;fill-rule:nonzero;stroke:none"
         id="path38380"
         inkscape:connector-curvature="0" />
    </g>
    <g
       id="g38382"
       transform="matrix(0.35277777,0,0,-0.35277777,61.382223,97.670985)">
      <path
         d="M 0,0 0.068,0.164 0.15,0.092 0.261,0.118 0.321,0.094 0.365,0.096 0.394,0 0.456,-0.036 C 0.432,-0.146 0.44,-0.26 0.457,-0.37 0.454,-0.496 0.478,-0.622 0.511,-0.743 0.556,-0.904 0.617,-1.06 0.694,-1.209 L 0.623,-1.313 0.609,-1.57 0.604,-1.591 0.588,-1.781 c -0.145,0.093 -0.275,0.211 -0.381,0.344 -0.127,0.162 -0.22,0.35 -0.263,0.551 l -0.027,0.224 v 0.179 C -0.076,-0.32 -0.053,-0.156 0,0"
         style="fill:#832897;fill-opacity:1;fill-rule:nonzero;stroke:none"
         id="path38384"
         inkscape:connector-curvature="0" />
    </g>
    <g
       id="g38386"
       transform="matrix(0.35277777,0,0,-0.35277777,61.520023,97.634826)">
      <path
         d="M 0,0 0.043,0.028 0.148,-0.001 0.071,-0.116 0.011,-0.073 Z"
         style="fill:#399545;fill-opacity:1;fill-rule:nonzero;stroke:none"
         id="path38388"
         inkscape:connector-curvature="0" />
    </g>
    <g
       id="g38390"
       transform="matrix(0.35277777,0,0,-0.35277777,61.591353,97.626359)">
      <path
         d="M 0,0 0.015,-0.003 0.002,-0.004 Z"
         style="fill:#399545;fill-opacity:1;fill-rule:nonzero;stroke:none"
         id="path38392"
         inkscape:connector-curvature="0" />
    </g>
    <g
       id="g38394"
       transform="matrix(0.35277777,0,0,-0.35277777,61.612343,97.629287)">
      <path
         d="M 0,0 0.023,0.005 0.027,-0.006 Z"
         style="fill:#399545;fill-opacity:1;fill-rule:nonzero;stroke:none"
         id="path38396"
         inkscape:connector-curvature="0" />
    </g>
    <g
       id="g38398"
       transform="matrix(0.35277777,0,0,-0.35277777,61.591353,97.636378)">
      <path
         d="M 0,0 0.098,-0.015 0.14,-0.073 0.249,-0.169 0.288,-0.202 0.278,-0.208 0.359,-0.36 0.414,-0.499 0.425,-0.576 0.419,-0.592 0.372,-0.572 0.26,-0.452 0.237,-0.42 0.219,-0.303 0.13,-0.099 0.109,-0.11 0.183,-0.27 0.214,-0.378 V -0.413 H 0.202 L 0.155,-0.373 0.03,-0.182 0.01,-0.193 0.082,-0.312 0.102,-0.345 0.129,-0.441 0.126,-0.464 0.091,-0.448 0.013,-0.36 -0.058,-0.254 -0.076,-0.265 0.018,-0.402 0.045,-0.437 0.068,-0.512 v -0.047 l -0.046,0.029 -0.136,0.184 -0.012,-0.008 0.007,0.188 0.047,0.122 z"
         style="fill:#399545;fill-opacity:1;fill-rule:nonzero;stroke:none"
         id="path38400"
         inkscape:connector-curvature="0" />
    </g>
    <g
       id="g38402"
       transform="matrix(0.35277777,0,0,-0.35277777,61.700183,97.712154)">
      <path
         d="M 0,0 0.057,-0.035 0.071,-0.048 C 0.196,-0.208 0.296,-0.387 0.377,-0.572 0.455,-0.749 0.516,-0.93 0.55,-1.12 l 0.021,-0.245 c -0.009,0.113 -0.05,0.22 -0.105,0.317 L 0.458,-0.924 0.354,-0.71 0.27,-0.467 0.128,-0.25 0.11,-0.227 Z"
         style="fill:#399545;fill-opacity:1;fill-rule:nonzero;stroke:none"
         id="path38404"
         inkscape:connector-curvature="0" />
    </g>
    <g
       id="g38406"
       transform="matrix(0.35277777,0,0,-0.35277777,61.547253,97.767117)">
      <path
         d="M 0,0 0.059,-0.087 0.063,-0.1 0.125,-0.247 0.207,-0.352 0.268,-0.375 0.298,-0.359 0.331,-0.524 0.326,-0.581 0.312,-0.588 0.27,-0.556 0.202,-0.458 0.106,-0.263 0.085,-0.27 0.177,-0.463 0.173,-0.509 0.206,-0.686 0.321,-0.913 0.414,-0.998 0.45,-1.089 l 0.137,-0.203 0.06,-0.074 -0.128,0.135 -0.162,0.23 c -0.058,0.095 -0.11,0.194 -0.155,0.294 -0.051,0.113 -0.094,0.229 -0.129,0.346 -0.033,0.111 -0.058,0.225 -0.071,0.34 z"
         style="fill:#399545;fill-opacity:1;fill-rule:nonzero;stroke:none"
         id="path38408"
         inkscape:connector-curvature="0" />
    </g>
    <g
       id="g38410"
       transform="matrix(0.35277777,0,0,-0.35277777,61.640953,97.774349)">
      <path
         d="M 0,0 0.053,-0.042 0.081,-0.046 0.158,-0.143 0.168,-0.157 0.17,-0.229 0.152,-0.26 0.114,-0.254 0.042,-0.18 0.028,-0.143 0.008,-0.085 0.01,-0.066 Z"
         style="fill:#399545;fill-opacity:1;fill-rule:nonzero;stroke:none"
         id="path38412"
         inkscape:connector-curvature="0" />
    </g>
    <g
       id="g38414"
       transform="matrix(0.35277777,0,0,-0.35277777,61.619573,97.801548)">
      <path
         d="m 0,0 0.049,-0.021 0.038,-0.156 -0.011,-0.067 -0.034,-0.007 -0.07,0.062 -0.076,0.143 0.064,-0.058 0.035,-0.007 0.018,0.028 z"
         style="fill:#399545;fill-opacity:1;fill-rule:nonzero;stroke:none"
         id="path38416"
         inkscape:connector-curvature="0" />
    </g>
    <g
       id="g38418"
       transform="matrix(0.35277777,0,0,-0.35277777,61.745693,97.813613)">
      <path
         d="M 0,0 0.146,-0.245 0.208,-0.476 0.193,-0.571 0.147,-0.58 0.071,-0.523 0.062,-0.51 l -0.076,0.185 0.03,0.013 0.018,0.051 -0.032,0.151 0.006,0.025 z"
         style="fill:#399545;fill-opacity:1;fill-rule:nonzero;stroke:none"
         id="path38420"
         inkscape:connector-curvature="0" />
    </g>
    <g
       id="g38422"
       transform="matrix(0.35277777,0,0,-0.35277777,61.709143,97.837567)">
      <path
         d="m 0,0 0.082,-0.045 0.033,-0.122 -0.009,-0.057 -0.031,-0.007 -0.056,0.038 -0.02,0.026 -0.023,0.07 z"
         style="fill:#399545;fill-opacity:1;fill-rule:nonzero;stroke:none"
         id="path38424"
         inkscape:connector-curvature="0" />
    </g>
    <g
       id="g38426"
       transform="matrix(0.35277777,0,0,-0.35277777,61.657503,97.853054)">
      <path
         d="M 0,0 0.064,-0.056 0.101,-0.062 0.138,-0.204 0.128,-0.271 0.099,-0.28 0.04,-0.239 0.034,-0.22 -0.001,-0.083 Z"
         style="fill:#399545;fill-opacity:1;fill-rule:nonzero;stroke:none"
         id="path38428"
         inkscape:connector-curvature="0" />
    </g>
    <g
       id="g38430"
       transform="matrix(0.35277777,0,0,-0.35277777,61.555163,97.858557)">
      <path
         d="M 0,0 0.014,-0.058 C 0.048,-0.178 0.09,-0.295 0.14,-0.409 0.219,-0.596 0.316,-0.777 0.439,-0.938 l 0.219,-0.224 0.037,-0.03 -0.091,0.03 -0.156,0.144 -0.136,0.19 c -0.059,0.097 -0.112,0.2 -0.157,0.305 -0.05,0.115 -0.093,0.235 -0.124,0.357 z"
         style="fill:#de1b41;fill-opacity:1;fill-rule:nonzero;stroke:none"
         id="path38432"
         inkscape:connector-curvature="0" />
    </g>
    <g
       id="g38434"
       transform="matrix(0.35277777,0,0,-0.35277777,61.712953,97.914049)">
      <path
         d="m 0,0 0.035,-0.026 0.018,-0.014 0.064,-0.138 0.038,-0.157 -0.01,-0.077 -0.028,-0.02 -0.051,0.022 -0.038,0.036 -0.007,0.012 -0.106,0.239 0.05,-0.006 0.033,0.034 z"
         style="fill:#399545;fill-opacity:1;fill-rule:nonzero;stroke:none"
         id="path38436"
         inkscape:connector-curvature="0" />
    </g>
    <g
       id="g38438"
       transform="matrix(0.35277777,0,0,-0.35277777,61.616823,97.941072)">
      <path
         d="M 0,0 0.071,-0.094 0.119,-0.12 0.148,-0.1 0.157,-0.039 C 0.212,-0.12 0.252,-0.213 0.275,-0.307 L 0.284,-0.45 0.257,-0.487 0.214,-0.478 0.137,-0.398 0.06,-0.265 0.01,-0.112 Z"
         style="fill:#399545;fill-opacity:1;fill-rule:nonzero;stroke:none"
         id="path38440"
         inkscape:connector-curvature="0" />
    </g>
    <g
       id="g38442"
       transform="matrix(0.35277777,0,0,-0.35277777,61.826973,97.979313)">
      <path
         d="m 0,0 0.071,-0.15 0.018,-0.111 -0.108,0.149 z"
         style="fill:#399545;fill-opacity:1;fill-rule:nonzero;stroke:none"
         id="path38444"
         inkscape:connector-curvature="0" />
    </g>
    <g
       id="g38446"
       transform="matrix(0.35277777,0,0,-0.35277777,61.772543,98.011381)">
      <path
         d="m 0,0 0.075,-0.044 0.045,0.005 0.134,-0.198 0.079,-0.213 0.013,-0.154 -0.11,0.202 -0.109,0.143 -0.116,0.164 -0.003,0.02 z"
         style="fill:#399545;fill-opacity:1;fill-rule:nonzero;stroke:none"
         id="path38448"
         inkscape:connector-curvature="0" />
    </g>
    <g
       id="g38450"
       transform="matrix(0.35277777,0,0,-0.35277777,61.773603,98.056148)">
      <path
         d="M 0,0 0.066,-0.093 0.201,-0.268 C 0.272,-0.369 0.332,-0.48 0.356,-0.602 L 0.369,-0.728 C 0.334,-0.634 0.28,-0.546 0.221,-0.466 L 0.102,-0.32 c -0.067,0.084 -0.126,0.174 -0.173,0.269 l 0.041,0.006 z"
         style="fill:#399545;fill-opacity:1;fill-rule:nonzero;stroke:none"
         id="path38452"
         inkscape:connector-curvature="0" />
    </g>
    <g
       id="g38454"
       transform="matrix(0.35277777,0,0,-0.35277777,61.724313,98.058723)">
      <path
         d="M 0,0 0.038,-0.032 C 0.101,-0.167 0.186,-0.286 0.281,-0.398 0.353,-0.48 0.415,-0.57 0.462,-0.667 0.503,-0.755 0.527,-0.852 0.529,-0.948 l -0.01,-0.149 c -0.042,0.096 -0.086,0.191 -0.142,0.28 -0.086,0.139 -0.19,0.265 -0.293,0.389 -0.062,0.074 -0.116,0.157 -0.146,0.25 l 0.037,0.01 0.028,0.061 z"
         style="fill:#399545;fill-opacity:1;fill-rule:nonzero;stroke:none"
         id="path38456"
         inkscape:connector-curvature="0" />
    </g>
    <g
       id="g38458"
       transform="matrix(0.35277777,0,0,-0.35277777,61.618553,98.117461)">
      <path
         d="M 0,0 0.034,0.035 0.108,-0.098 0.117,-0.12 0.1,-0.267 0.053,-0.36 0.01,-0.377 l -0.04,0.054 -0.014,0.197 z"
         style="fill:#399545;fill-opacity:1;fill-rule:nonzero;stroke:none"
         id="path38460"
         inkscape:connector-curvature="0" />
    </g>
    <g
       id="g38462"
       transform="matrix(0.35277777,0,0,-0.35277777,61.668153,98.170201)">
      <path
         d="m 0,0 0.106,-0.144 -0.041,-0.13 -0.044,-0.045 -0.04,0.016 -0.032,0.084 V -0.2 Z"
         style="fill:#399545;fill-opacity:1;fill-rule:nonzero;stroke:none"
         id="path38464"
         inkscape:connector-curvature="0" />
    </g>
    <g
       id="g38466"
       transform="matrix(0.35277777,0,0,-0.35277777,61.488343,98.22721)">
      <path
         d="M 0,0 0.092,-0.087 0.045,-0.076 Z"
         style="fill:#399545;fill-opacity:1;fill-rule:nonzero;stroke:none"
         id="path38468"
         inkscape:connector-curvature="0" />
    </g>
    <g
       id="g38470"
       transform="matrix(0.35277777,0,0,-0.35277777,61.712253,98.228762)">
      <path
         d="M 0,0 0.119,-0.112 0.073,-0.251 0.027,-0.29 l -0.039,0.025 -0.028,0.09 -0.005,0.046 0.01,0.018 z"
         style="fill:#399545;fill-opacity:1;fill-rule:nonzero;stroke:none"
         id="path38472"
         inkscape:connector-curvature="0" />
    </g>
    <g
       id="g38474"
       transform="matrix(0.35277777,0,0,-0.35277777,61.602003,98.238746)">
      <path
         d="m 0,0 0.055,-0.056 0.06,0.022 0.014,-0.05 0.003,-0.017 V -0.195 L 0.125,-0.222 0.079,-0.281 0.04,-0.284 l -0.036,0.048 -0.02,0.118 z"
         style="fill:#399545;fill-opacity:1;fill-rule:nonzero;stroke:none"
         id="path38476"
         inkscape:connector-curvature="0" />
    </g>
    <g
       id="g38478"
       transform="matrix(0.35277777,0,0,-0.35277777,61.491763,98.251481)">
      <path
         d="m 0,0 0.057,-0.044 0.045,0.011 0.042,-0.035 0.004,-0.014 0.016,-0.08 0.001,-0.022 -0.03,-0.071 -0.041,-0.018 -0.048,0.042 -0.04,0.115 z"
         style="fill:#399545;fill-opacity:1;fill-rule:nonzero;stroke:none"
         id="path38480"
         inkscape:connector-curvature="0" />
    </g>
    <g
       id="g38482"
       transform="matrix(0.35277777,0,0,-0.35277777,61.760833,98.27353)">
      <path
         d="m 0,0 0.094,-0.038 -0.012,-0.09 -0.044,-0.103 -0.04,-0.03 -0.034,0.021 -0.028,0.065 0.002,0.018 0.047,0.093 z"
         style="fill:#399545;fill-opacity:1;fill-rule:nonzero;stroke:none"
         id="path38484"
         inkscape:connector-curvature="0" />
    </g>
    <g
       id="g38486"
       transform="matrix(0.35277777,0,0,-0.35277777,61.655773,98.283196)">
      <path
         d="M 0,0 0.048,-0.022 0.094,-0.003 0.131,-0.127 0.13,-0.141 0.087,-0.199 H 0.051 l -0.036,0.061 z"
         style="fill:#399545;fill-opacity:1;fill-rule:nonzero;stroke:none"
         id="path38488"
         inkscape:connector-curvature="0" />
    </g>
    <g
       id="g38490"
       transform="matrix(0.35277777,0,0,-0.35277777,61.552763,98.285066)">
      <path
         d="M 0,0 0.031,-0.02 0.11,-0.07 0.141,-0.146 0.111,-0.189 0.072,-0.18 0.03,-0.114 Z"
         style="fill:#399545;fill-opacity:1;fill-rule:nonzero;stroke:none"
         id="path38492"
         inkscape:connector-curvature="0" />
    </g>
    <g
       id="g38494"
       transform="matrix(0.35277777,0,0,-0.35277777,61.801823,98.287323)">
      <path
         d="m 0,0 0.012,0.001 0.046,-0.062 0.004,-0.06 c 0.004,-0.106 0.006,-0.21 0.006,-0.315 -0.092,0.004 -0.185,0.002 -0.278,0.002 l 0.017,0.035 0.004,0.024 0.038,0.141 0.044,-0.008 0.057,0.05 0.044,0.137 z"
         style="fill:#399545;fill-opacity:1;fill-rule:nonzero;stroke:none"
         id="path38496"
         inkscape:connector-curvature="0" />
    </g>
    <g
       id="g38498"
       transform="matrix(0.35277777,0,0,-0.35277777,61.830783,98.321261)">
      <path
         d="M 0,0 0.116,-0.191 0.115,-0.27 0.11,-0.355 0.009,-0.342 C 0.01,-0.227 0.006,-0.113 0,0"
         style="fill:#399545;fill-opacity:1;fill-rule:nonzero;stroke:none"
         id="path38500"
         inkscape:connector-curvature="0" />
    </g>
    <g
       id="g38502"
       transform="matrix(0.35277777,0,0,-0.35277777,61.624053,98.348283)">
      <path
         d="M 0,0 0.077,0.066 0.119,-0.026 0.169,-0.042 0.116,-0.179 0.063,-0.204 0.023,-0.162 Z"
         style="fill:#399545;fill-opacity:1;fill-rule:nonzero;stroke:none"
         id="path38504"
         inkscape:connector-curvature="0" />
    </g>
    <g
       id="g38506"
       transform="matrix(0.35277777,0,0,-0.35277777,61.555513,98.327787)">
      <path
         d="m 0,0 0.059,-0.082 0.05,-0.008 -0.018,-0.124 -0.039,-0.05 -0.043,0.009 -0.048,0.077 -0.023,0.099 z"
         style="fill:#399545;fill-opacity:1;fill-rule:nonzero;stroke:none"
         id="path38508"
         inkscape:connector-curvature="0" />
    </g>
    <g
       id="g38510"
       transform="matrix(0.35277777,0,0,-0.35277777,61.708473,98.335548)">
      <path
         d="m 0,0 0.03,-0.01 0.032,0.007 0.031,-0.072 -0.035,-0.145 -0.045,-0.056 -0.038,-0.002 -0.037,0.053 -0.012,0.047 0.026,0.106 0.008,0.012 z"
         style="fill:#399545;fill-opacity:1;fill-rule:nonzero;stroke:none"
         id="path38512"
         inkscape:connector-curvature="0" />
    </g>
    <g
       id="g38514"
       transform="matrix(0.35277777,0,0,-0.35277777,61.608213,98.343627)">
      <path
         d="m 0,0 0.022,-0.012 0.007,-0.113 0.048,-0.1 -0.036,-0.008 -0.058,0.065 -0.007,0.034 0.006,0.107 z"
         style="fill:#399545;fill-opacity:1;fill-rule:nonzero;stroke:none"
         id="path38516"
         inkscape:connector-curvature="0" />
    </g>
    <g
       id="g38518"
       transform="matrix(0.35277777,0,0,-0.35277777,61.290573,98.394462)">
      <path
         d="m 0,0 0.097,0.034 0.116,-0.08 0.025,-0.072 0.013,-0.05 0.04,-0.014 c 0.103,0.005 0.205,0.01 0.307,0.013 L 0.569,-0.241 0.6,-0.39 0.382,-0.386 0.283,-0.385 0.07,-0.378 l -0.117,0.01 -0.03,0.025 -0.081,0.13 -0.026,0.051 0.082,0.006 0.039,0.019 0.015,0.041 z"
         style="fill:#994e28;fill-opacity:1;fill-rule:nonzero;stroke:none"
         id="path38520"
         inkscape:connector-curvature="0" />
    </g>
    <g
       id="g38522"
       transform="matrix(0.35277777,0,0,-0.35277777,61.587543,98.421167)">
      <path
         d="m 0,0 0.036,0.016 0.022,-0.028 -0.101,-0.179 0.069,-0.166 0.108,-0.075 -0.084,0.006 -0.135,0.088 -0.057,0.139 0.078,0.152 0.038,0.029 z"
         style="fill:#efbc23;fill-opacity:1;fill-rule:nonzero;stroke:none"
         id="path38524"
         inkscape:connector-curvature="0" />
    </g>
    <g
       id="g38526"
       transform="matrix(0.35277777,0,0,-0.35277777,61.646103,98.437536)">
      <path
         d="M 0,0 0.091,0.062 0.131,-0.002 0.184,-0.015 0.09,-0.06 0.047,-0.103 0.065,-0.229 0.195,-0.3 l 0.03,-0.043 -0.016,-0.035 -0.06,-0.007 -0.132,0.063 -0.085,0.124 -0.005,0.06 z"
         style="fill:#efbc23;fill-opacity:1;fill-rule:nonzero;stroke:none"
         id="path38528"
         inkscape:connector-curvature="0" />
    </g>
    <g
       id="g38530"
       transform="matrix(0.35277777,0,0,-0.35277777,61.522773,98.439759)">
      <path
         d="M 0,0 0.076,0.055 0.113,0.03 0.024,-0.113 0.045,-0.248 0.19,-0.382 l -0.092,0.019 -0.121,0.091 -0.046,0.126 z"
         style="fill:#efbc23;fill-opacity:1;fill-rule:nonzero;stroke:none"
         id="path38532"
         inkscape:connector-curvature="0" />
    </g>
    <g
       id="g38534"
       transform="matrix(0.35277777,0,0,-0.35277777,61.640603,98.428752)">
      <path
         d="m 0,0 0.012,0.003 -0.077,-0.104 -0.015,-0.102 0.072,-0.139 0.096,-0.067 -0.039,0.001 -0.128,0.061 -0.088,0.139 0.03,0.135 0.063,0.068 0.049,-0.009 z"
         style="fill:#efbc23;fill-opacity:1;fill-rule:nonzero;stroke:none"
         id="path38536"
         inkscape:connector-curvature="0" />
    </g>
    <g
       id="g38538"
       transform="matrix(0.35277777,0,0,-0.35277777,61.719163,98.44819)">
      <path
         d="M 0,0 C 0.108,0 0.216,0.001 0.322,-0.005 L 0.266,-0.077 0.295,-0.196 0.321,-0.217 C 0.223,-0.225 0.124,-0.229 0.025,-0.23 l -0.062,-0.001 -0.045,0.02 -0.053,0.039 -0.01,0.078 0.041,0.047 0.084,0.038 z"
         style="fill:#994e28;fill-opacity:1;fill-rule:nonzero;stroke:none"
         id="path38540"
         inkscape:connector-curvature="0" />
    </g>
    <g
       id="g38542"
       transform="matrix(0.35277777,0,0,-0.35277777,61.848003,98.452847)">
      <path
         d="M 0,0 0.105,-0.061 0.064,-0.183 -0.05,-0.171 -0.072,-0.058 Z"
         style="fill:#994e28;fill-opacity:1;fill-rule:nonzero;stroke:none"
         id="path38544"
         inkscape:connector-curvature="0" />
    </g>
    <g
       id="g38546"
       transform="matrix(0.35277777,0,0,-0.35277777,61.831453,98.532962)">
      <path
         d="M 0,0 0.081,0.009 0.028,-0.167 -0.025,-0.217 Z"
         style="fill:#399545;fill-opacity:1;fill-rule:nonzero;stroke:none"
         id="path38548"
         inkscape:connector-curvature="0" />
    </g>
    <g
       id="g38550"
       transform="matrix(0.35277777,0,0,-0.35277777,61.741213,98.53709)">
      <path
         d="M 0,0 0.232,0.009 0.209,-0.204 0.183,-0.306 0.154,-0.354 0.131,-0.358 0.098,-0.32 0.048,-0.198 Z"
         style="fill:#399545;fill-opacity:1;fill-rule:nonzero;stroke:none"
         id="path38552"
         inkscape:connector-curvature="0" />
    </g>
    <g
       id="g38554"
       transform="matrix(0.35277777,0,0,-0.35277777,61.720193,98.53776)">
      <path
         d="M 0,0 0.036,0.001 0.087,-0.206 0.039,-0.17 0.008,-0.116 0.036,-0.077 Z"
         style="fill:#399545;fill-opacity:1;fill-rule:nonzero;stroke:none"
         id="path38556"
         inkscape:connector-curvature="0" />
    </g>
  </g>
</svg>
