<?xml version="1.0" encoding="UTF-8" standalone="no"?>
<!-- Created with Inkscape (http://www.inkscape.org/) -->

<svg
   xmlns:dc="http://purl.org/dc/elements/1.1/"
   xmlns:cc="http://creativecommons.org/ns#"
   xmlns:rdf="http://www.w3.org/1999/02/22-rdf-syntax-ns#"
   xmlns:svg="http://www.w3.org/2000/svg"
   xmlns="http://www.w3.org/2000/svg"
   xmlns:sodipodi="http://sodipodi.sourceforge.net/DTD/sodipodi-0.dtd"
   xmlns:inkscape="http://www.inkscape.org/namespaces/inkscape"
   width="7.084836mm"
   height="4.7328668mm"
   viewBox="0 0 7.084836 4.7328668"
   version="1.1"
   id="svg8"
   inkscape:version="0.92.4 (5da689c313, 2019-01-14)"
   sodipodi:docname="egypt.svg">
  <defs
     id="defs2">
    <radialGradient
       id="radialGradient37584"
       spreadMethod="pad"
       gradientTransform="matrix(0.975099,0,0,0.975099,159.64062,365.06934)"
       gradientUnits="userSpaceOnUse"
       r="1"
       cy="0"
       cx="0"
       fy="0"
       fx="0">
      <stop
         id="stop37578"
         offset="0"
         style="stop-opacity:1;stop-color:#852c26" />
      <stop
         id="stop37580"
         offset="0.0015476"
         style="stop-opacity:1;stop-color:#852c26" />
      <stop
         id="stop37582"
         offset="1"
         style="stop-opacity:1;stop-color:#451617" />
    </radialGradient>
    <clipPath
       id="clipPath37532"
       clipPathUnits="userSpaceOnUse">
      <path
         inkscape:connector-curvature="0"
         id="path37530"
         d="M 0,400 H 400 V 0 H 0 Z" />
    </clipPath>
    <radialGradient
       id="radialGradient37522"
       spreadMethod="pad"
       gradientTransform="matrix(-0.2637247,0,0,0.2637247,159.68652,365.88965)"
       gradientUnits="userSpaceOnUse"
       r="1"
       cy="0"
       cx="0"
       fy="0"
       fx="0">
      <stop
         id="stop37516"
         offset="0"
         style="stop-opacity:1;stop-color:#852c26" />
      <stop
         id="stop37518"
         offset="0.0015476"
         style="stop-opacity:1;stop-color:#852c26" />
      <stop
         id="stop37520"
         offset="1"
         style="stop-opacity:1;stop-color:#451617" />
    </radialGradient>
    <clipPath
       id="clipPath37354"
       clipPathUnits="userSpaceOnUse">
      <path
         inkscape:connector-curvature="0"
         id="path37352"
         d="M 0,400 H 400 V 0 H 0 Z" />
    </clipPath>
    <radialGradient
       id="radialGradient37344"
       spreadMethod="pad"
       gradientTransform="matrix(0.975099,0,0,0.975099,155.76025,365.06934)"
       gradientUnits="userSpaceOnUse"
       r="1"
       cy="0"
       cx="0"
       fy="0"
       fx="0">
      <stop
         id="stop37338"
         offset="0"
         style="stop-opacity:1;stop-color:#eee54f" />
      <stop
         id="stop37340"
         offset="0.9977451"
         style="stop-opacity:1;stop-color:#e04a20" />
      <stop
         id="stop37342"
         offset="1"
         style="stop-opacity:1;stop-color:#e04a20" />
    </radialGradient>
    <clipPath
       id="clipPath37272"
       clipPathUnits="userSpaceOnUse">
      <path
         inkscape:connector-curvature="0"
         id="path37270"
         d="M 0,400 H 400 V 0 H 0 Z" />
    </clipPath>
    <radialGradient
       id="radialGradient37262"
       spreadMethod="pad"
       gradientTransform="matrix(0.2636045,0,0,0.2636045,155.71484,365.89062)"
       gradientUnits="userSpaceOnUse"
       r="1"
       cy="0"
       cx="0"
       fy="0"
       fx="0">
      <stop
         id="stop37256"
         offset="0"
         style="stop-opacity:1;stop-color:#eee54f" />
      <stop
         id="stop37258"
         offset="0.9977451"
         style="stop-opacity:1;stop-color:#e04a20" />
      <stop
         id="stop37260"
         offset="1"
         style="stop-opacity:1;stop-color:#e04a20" />
    </radialGradient>
  </defs>
  <sodipodi:namedview
     id="base"
     pagecolor="#ffffff"
     bordercolor="#666666"
     borderopacity="1.0"
     inkscape:pageopacity="0.0"
     inkscape:pageshadow="2"
     inkscape:zoom="11.2"
     inkscape:cx="23.218895"
     inkscape:cy="7.4779116"
     inkscape:document-units="mm"
     inkscape:current-layer="layer1"
     showgrid="false"
     inkscape:window-width="954"
     inkscape:window-height="630"
     inkscape:window-x="-3"
     inkscape:window-y="6"
     inkscape:window-maximized="0" />
  <metadata
     id="metadata5">
    <rdf:RDF>
      <cc:Work
         rdf:about="">
        <dc:format>image/svg+xml</dc:format>
        <dc:type
           rdf:resource="http://purl.org/dc/dcmitype/StillImage" />
        <dc:title></dc:title>
      </cc:Work>
    </rdf:RDF>
  </metadata>
  <g
     inkscape:label="Layer 1"
     inkscape:groupmode="layer"
     id="layer1"
     transform="translate(-57.649185,-95.2623)">
    <g
       id="g9824"
       transform="matrix(0.35277777,0,0,-0.35277777,57.678466,99.965886)">
      <path
         d="M 0,0 H 19.917 L 19.916,13.25 H 0 Z M 19.958,-0.042 V 0 Z M -0.083,-0.083 V 13.333 H 20 V -0.042 -0.083 Z"
         style="fill:#221f21;fill-opacity:1;fill-rule:nonzero;stroke:none"
         id="path9826"
         inkscape:connector-curvature="0" />
    </g>
    <path
       d="m 57.663718,99.980736 h 7.05555 v -1.568093 h -7.05555 z"
       style="fill:#0e0f0e;fill-opacity:1;fill-rule:nonzero;stroke:none;stroke-width:0.35277778"
       id="path9828"
       inkscape:connector-curvature="0" />
    <path
       d="m 57.663718,98.412996 h 7.05555 v -1.567745 h -7.05555 z"
       style="fill:#ffffff;fill-opacity:1;fill-rule:nonzero;stroke:none;stroke-width:0.35277778"
       id="path9830"
       inkscape:connector-curvature="0" />
    <path
       d="m 64.719268,95.277154 h -7.05555 v 1.567745 h 7.05555 z"
       style="fill:#c12131;fill-opacity:1;fill-rule:nonzero;stroke:none;stroke-width:0.35277778"
       id="path9832"
       inkscape:connector-curvature="0" />
    <g
       id="g9834"
       transform="matrix(0.35277777,0,0,-0.35277777,61.192794,98.162383)">
      <path
         d="m 0,0 h -0.048 c -0.16,0 -0.678,0.005 -0.845,0.06 l -0.075,0.012 c -0.082,0 -0.161,-0.048 -0.161,-0.147 h 0.014 l 0.003,0.013 -0.023,0.003 -0.052,-0.045 -0.099,-0.036 -0.004,-0.027 0.082,-0.068 0.059,-0.084 0.003,0.012 h -0.013 l -0.002,-0.051 0.095,-0.099 C -0.826,-0.512 -0.001,-0.535 0,-0.535 v 0.027 c -0.001,0 -0.827,0.024 -1.061,0.078 l -0.073,0.072 0.002,0.051 v 0.01 l -0.01,0.003 -0.04,0.062 -0.1,0.092 -0.004,-0.013 v -0.014 l 0.121,0.048 0.03,0.033 0.017,-0.002 0.016,-0.004 v 0.017 l 0.134,0.12 0.068,-0.011 c 0.175,-0.057 0.69,-0.061 0.852,-0.061 H 0 Z"
         style="fill:#ecc028;fill-opacity:1;fill-rule:nonzero;stroke:none"
         id="path9836"
         inkscape:connector-curvature="0" />
    </g>
    <g
       id="g9838"
       transform="matrix(0.35277777,0,0,-0.35277777,61.192794,98.171872)">
      <path
         d="M 0,0 H 0.048 C 0.209,0 0.724,0.004 0.9,0.061 l 0.068,0.011 0.135,-0.12 v -0.017 l 0.016,0.003 0.016,0.003 0.029,-0.033 0.122,-0.048 v 0.014 L 1.282,-0.113 1.182,-0.205 1.143,-0.267 1.133,-0.27 V -0.28 L 1.135,-0.331 1.062,-0.403 C 0.826,-0.458 0.001,-0.481 0,-0.481 v -0.027 c 0.001,0 0.825,0.023 1.067,0.078 L 1.161,-0.331 1.16,-0.28 H 1.146 L 1.15,-0.292 1.208,-0.208 1.29,-0.14 1.286,-0.113 1.187,-0.077 1.135,-0.032 1.113,-0.035 1.116,-0.048 H 1.13 c 0,0.099 -0.08,0.147 -0.162,0.147 L 0.893,0.086 C 0.726,0.032 0.207,0.026 0.048,0.026 L 0,0.027 Z"
         style="fill:#ecc028;fill-opacity:1;fill-rule:nonzero;stroke:none"
         id="path9840"
         inkscape:connector-curvature="0" />
    </g>
    <g
       id="g9842"
       transform="matrix(0.35277777,0,0,-0.35277777,61.215193,98.274001)">
      <path
         d="m 0,0 0.022,-0.008 z m -0.122,-0.01 -0.034,0.002 0.068,0.021 z m 0.103,0.008 -0.042,-0.006 -0.005,0.042 -0.096,-0.023 -0.044,-0.016 -0.017,0.038 -0.034,-0.036 -0.011,0.02 -0.017,0.03 -0.005,-0.023 0.01,-0.028 -0.01,-0.036 -0.084,-0.011 0.025,-0.03 0.036,-0.01 0.047,0.052 0.043,0.017 0.064,-0.021 0.089,-0.002 0.053,0.009 0.024,-0.001 0.042,-0.007 -0.01,0.066 z M 0.274,-0.053 0.26,-0.06 0.237,-0.081 0.266,-0.082 0.28,-0.076 0.304,-0.053 Z M 0.815,0.016 0.846,0.007 0.862,0.041 0.831,0.049 Z M 0.721,0.08 0.744,0.078 Z M 0.608,-0.018 0.576,0.004 0.604,-0.002 Z M 0.593,0.075 0.606,0.072 0.581,0.05 Z M 0.52,0.033 0.524,0.034 Z M 0.895,0.118 0.84,0.154 0.787,0.113 0.854,0.103 0.771,0.081 0.744,0.128 0.708,0.083 0.603,0.044 0.628,0.091 0.601,0.115 0.577,0.066 0.54,0.036 0.499,0.074 0.521,0.001 0.475,-0.039 0.449,-0.041 0.422,-0.04 0.491,-0.063 0.528,-0.028 0.537,-0.008 0.562,0.003 0.611,-0.049 0.618,0.014 0.685,0.027 0.71,0.05 0.761,0.047 0.859,0.068 0.91,0.081 V 0.104 Z M 0.396,0.029 0.409,0.008 0.389,-0.03 0.347,-0.059 0.307,-0.057 0.374,-0.078 0.421,-0.02 0.402,0.066 Z M 0.173,0.027 0.153,0.029 0.18,0.05 Z M 0.289,0.062 0.278,0.029 0.292,0.004 0.206,0.001 0.187,0.107 0.17,0.064 0.131,0.021 0.138,-0.006 0.185,0.015 0.2,-0.031 0.259,-0.034 0.306,-0.018 0.302,0.039 Z m -0.785,-0.005 0.005,-0.048 0.004,-0.037 0.013,0.045 -0.014,0.122 z m -0.399,-0.04 -0.018,0.014 -0.006,-0.029 0.016,-0.012 0.01,0.019 0.019,-0.014 0.014,0.023 -0.023,0.019 z m 0.051,-0.019 0.031,-0.022 0.015,0.025 -0.03,0.023 z m -0.149,0.24 0.017,-0.014 0.015,0.021 -0.022,0.017 -0.012,-0.017 -0.02,0.014 -0.013,-0.02 0.024,-0.019 z m 0.365,-0.174 -0.009,0.009 0.009,0.008 0.011,-0.014 z M -0.526,0.101 -0.513,0.128 -0.54,0.154 -0.55,0.132 -0.542,0.1 -0.528,0.021 -0.6,0.033 -0.602,0.085 -0.662,0.078 -0.64,0.042 H -0.67 L -0.689,0.094 -0.694,0.072 -0.685,0.042 -0.692,0.009 -0.779,0.004 -0.724,-0.042 -0.67,0.005 -0.625,0.017 -0.513,-0.016 -0.519,0.06 Z M 0.17,0.128 0.202,0.144 H 0.173 L 0.159,0.138 0.135,0.119 0.159,0.107 Z m -1.16,0.01 -0.017,0.009 0.024,0.011 z M -0.802,0.122 -0.812,0.093 -0.798,0.063 -0.834,0.07 -0.858,0.087 -0.875,0.137 -0.885,0.108 -0.871,0.079 -0.958,0.106 -0.977,0.212 -0.986,0.177 -1.026,0.152 V 0.113 l 0.047,0.007 0.062,-0.066 0.132,-0.028 -0.004,0.07 z"
         style="fill:#ecc028;fill-opacity:1;fill-rule:nonzero;stroke:none"
         id="path9844"
         inkscape:connector-curvature="0" />
    </g>
    <g
       id="g9846"
       transform="matrix(0.35277777,0,0,-0.35277777,61.710605,98.132079)">
      <path
         d="m 0,0 h 0.014 c 0,0.003 -0.078,1.794 -0.105,2.408 -0.007,0.194 -0.098,0.271 -0.217,0.27 -0.109,-10e-4 -0.24,-0.061 -0.353,-0.13 -0.091,-0.054 -0.185,-0.071 -0.285,-0.071 -0.161,0 -0.336,0.044 -0.526,0.044 -0.188,0 -0.363,-0.044 -0.524,-0.044 -0.101,0 -0.195,0.017 -0.286,0.071 C -2.396,2.617 -2.525,2.677 -2.636,2.677 -2.754,2.679 -2.847,2.602 -2.853,2.408 -2.878,1.794 -2.956,0.003 -2.956,0 L -2.957,-0.013 H 0.014 V 0 H 0 V 0.014 H -2.942 V 0 h 0.013 c 0,0 0.078,1.793 0.104,2.407 0.009,0.187 0.085,0.242 0.189,0.243 0.101,10e-4 0.229,-0.057 0.34,-0.125 0.096,-0.058 0.196,-0.075 0.3,-0.075 0.166,0 0.34,0.044 0.524,0.044 0.186,0 0.36,-0.044 0.526,-0.044 0.103,0 0.203,0.017 0.299,0.075 0.111,0.068 0.24,0.126 0.339,0.126 0.105,-0.002 0.18,-0.057 0.19,-0.244 C -0.092,1.793 -0.014,0 -0.014,0 H 0 v 0.014 z"
         style="fill:#ecc028;fill-opacity:1;fill-rule:nonzero;stroke:none"
         id="path9848"
         inkscape:connector-curvature="0" />
    </g>
    <g
       id="g9850"
       transform="matrix(0.35277777,0,0,-0.35277777,61.275484,97.277863)">
      <path
         d="m 0,0 0.219,-0.048 c 0,0 -0.221,0.305 -0.164,0.559 C 0.133,0.85 0.05,0.985 -0.096,1.021 -0.208,1.049 -0.255,1.036 -0.309,1.016 L -0.424,0.932 -0.558,0.981 c -0.054,0.01 -0.137,0 -0.137,-0.119 l 0.018,0.018 0.134,-0.055 c 0.036,-0.03 0.082,-0.162 0.098,-0.282 0.037,-0.251 -0.25,-0.591 -0.25,-0.591 L -0.476,0 -0.558,-0.1 c 0.101,0.018 0.235,0.134 0.235,0.134 l 0.085,-0.116 0.086,0.116 c 0,0 0.133,-0.116 0.234,-0.134 z"
         style="fill:#ffffff;fill-opacity:1;fill-rule:nonzero;stroke:none"
         id="path9852"
         inkscape:connector-curvature="0" />
    </g>
    <g
       id="g9854"
       transform="matrix(0.35277777,0,0,-0.35277777,61.275484,97.277863)">
      <path
         d="m 0,0 -0.003,-0.013 0.219,-0.049 0.035,-0.007 -0.022,0.028 c 0,0 -0.17,0.239 -0.17,0.464 L 0.067,0.508 C 0.089,0.599 0.098,0.675 0.098,0.739 0.1,0.918 0.021,1.007 -0.093,1.035 L -0.205,1.051 -0.313,1.029 -0.426,0.947 -0.553,0.994 -0.589,0.998 C -0.644,0.997 -0.709,0.966 -0.709,0.862 V 0.83 l 0.035,0.034 0.126,-0.052 c 0.026,-0.02 0.075,-0.154 0.089,-0.27 l 0.003,-0.045 c 0.002,-0.237 -0.25,-0.536 -0.25,-0.536 l -0.025,-0.031 0.22,0.049 -0.057,-0.07 -0.023,-0.028 0.035,0.006 c 0.108,0.02 0.241,0.136 0.242,0.136 l -0.009,0.011 -0.011,-0.008 0.085,-0.116 0.011,-0.015 0.096,0.131 -0.01,0.008 -0.009,-0.011 c 0.001,0 0.134,-0.116 0.241,-0.136 L 0.116,-0.119 0.011,0.009 0,0 -0.003,-0.013 0,0 -0.011,-0.009 0.071,-0.108 0.082,-0.1 0.084,-0.086 c -0.094,0.015 -0.228,0.13 -0.228,0.13 l -0.01,0.009 -0.084,-0.113 -0.074,0.102 -0.009,0.012 -0.011,-0.01 c 0,0 -0.134,-0.115 -0.228,-0.13 l 0.002,-0.014 0.011,-0.008 0.082,0.099 0.025,0.031 -0.258,-0.057 0.003,-0.013 0.01,-0.009 c 0,0.001 0.255,0.3 0.256,0.554 l -0.003,0.048 c -0.017,0.122 -0.06,0.253 -0.102,0.29 l -0.138,0.058 -0.008,0.003 -0.025,-0.024 0.01,-0.01 h 0.013 c 0.001,0.092 0.046,0.107 0.093,0.109 l 0.029,-0.003 0.131,-0.049 0.007,-0.002 0.121,0.088 0.096,0.018 0.106,-0.015 C 0.002,0.982 0.07,0.911 0.071,0.739 L 0.042,0.514 0.032,0.423 c 0,-0.237 0.175,-0.478 0.176,-0.479 l 0.011,0.008 0.003,0.013 -0.219,0.048 -0.038,0.008 0.024,-0.03 z"
         style="fill:#ecc028;fill-opacity:1;fill-rule:nonzero;stroke:none"
         id="path9856"
         inkscape:connector-curvature="0" />
    </g>
    <g
       id="g9858"
       transform="matrix(0.35277777,0,0,-0.35277777,61.291994,96.955918)">
      <path
         d="m 0,0 -0.114,0.097 h -0.251 l -0.102,-0.08 0.123,-0.044 0.108,0.017 0.104,0.052 z"
         style="fill:#ecc028;fill-opacity:1;fill-rule:nonzero;stroke:none"
         id="path9860"
         inkscape:connector-curvature="0" />
    </g>
    <g
       id="g9862"
       transform="matrix(0.35277777,0,0,-0.35277777,61.291994,96.955918)">
      <path
         d="M 0,0 0.009,0.01 -0.105,0.107 -0.109,0.111 -0.365,0.11 H -0.37 l -0.106,-0.082 -0.018,-0.015 0.145,-0.053 0.004,-0.001 0.111,0.018 0.103,0.051 0.127,-0.041 L 0.009,0.01 0,0 0.004,0.013 -0.128,0.055 -0.133,0.057 -0.242,0.002 -0.343,-0.014 -0.439,0.021 -0.36,0.083 -0.119,0.084 -0.009,-0.01 0,0 0.004,0.013 Z"
         style="fill:#ecc028;fill-opacity:1;fill-rule:nonzero;stroke:none"
         id="path9864"
         inkscape:connector-curvature="0" />
    </g>
    <g
       id="g9866"
       transform="matrix(0.35277777,0,0,-0.35277777,61.185565,96.945052)">
      <path
         d="M 0,0 -0.02,-0.02 -0.04,0 -0.02,0.02 Z"
         style="fill:#ffffff;fill-opacity:1;fill-rule:nonzero;stroke:none"
         id="path9868"
         inkscape:connector-curvature="0" />
    </g>
    <g
       id="g9870"
       transform="matrix(0.35277777,0,0,-0.35277777,61.032954,96.962797)">
      <path
         d="M 0,0 C 0,0 0.098,0.027 0.2,-0.026 0.294,-0.075 0.344,-0.149 0.344,-0.149 L 0.269,-0.126 0.228,-0.25 0.168,-0.092 Z"
         style="fill:#f1ba23;fill-opacity:1;fill-rule:nonzero;stroke:none"
         id="path9872"
         inkscape:connector-curvature="0" />
    </g>
    <g
       id="g9874"
       transform="matrix(0.35277777,0,0,-0.35277777,61.102875,97.284918)">
      <path
         d="M 0,0 C 0,0 0.144,0.177 0.11,0.366"
         style="fill:#ffffff;fill-opacity:1;fill-rule:nonzero;stroke:none"
         id="path9876"
         inkscape:connector-curvature="0" />
    </g>
    <g
       id="g9878"
       transform="matrix(0.35277777,0,0,-0.35277777,61.106645,97.287846)">
      <path
         d="M 0,0 C 0,0.001 0.117,0.144 0.118,0.316 L 0.113,0.376 0.086,0.372 0.091,0.316 C 0.092,0.157 -0.021,0.018 -0.021,0.017 Z"
         style="fill:#ecc028;fill-opacity:1;fill-rule:nonzero;stroke:none"
         id="path9880"
         inkscape:connector-curvature="0" />
    </g>
    <g
       id="g9882"
       transform="matrix(0.35277777,0,0,-0.35277777,61.279934,97.283895)">
      <path
         d="M 0,0 C 0,0 -0.144,0.174 -0.11,0.363"
         style="fill:#ffffff;fill-opacity:1;fill-rule:nonzero;stroke:none"
         id="path9884"
         inkscape:connector-curvature="0" />
    </g>
    <g
       id="g9886"
       transform="matrix(0.35277777,0,0,-0.35277777,61.283744,97.280791)">
      <path
         d="m 0,0 c 0,0 -0.113,0.137 -0.112,0.296 l 0.005,0.056 -0.028,0.004 -0.005,-0.06 c 0,-0.171 0.119,-0.312 0.119,-0.313 z"
         style="fill:#ecc028;fill-opacity:1;fill-rule:nonzero;stroke:none"
         id="path9888"
         inkscape:connector-curvature="0" />
    </g>
    <g
       id="g9890"
       transform="matrix(0.35277777,0,0,-0.35277777,61.161435,97.272359)">
      <path
         d="M 0,0 C 0.011,0.016 0.059,0.133 0.059,0.256 L 0.054,0.323 0.026,0.318 0.032,0.256 C 0.033,0.142 -0.018,0.02 -0.021,0.016 Z"
         style="fill:#ecc028;fill-opacity:1;fill-rule:nonzero;stroke:none"
         id="path9892"
         inkscape:connector-curvature="0" />
    </g>
    <g
       id="g9894"
       transform="matrix(0.35277777,0,0,-0.35277777,61.226205,97.265974)">
      <path
         d="M 0,0 C -0.004,0.003 -0.055,0.127 -0.054,0.242 L -0.048,0.304 -0.075,0.309 -0.08,0.242 c 0,-0.124 0.048,-0.242 0.059,-0.258 z"
         style="fill:#ecc028;fill-opacity:1;fill-rule:nonzero;stroke:none"
         id="path9896"
         inkscape:connector-curvature="0" />
    </g>
    <g
       id="g9898"
       transform="matrix(0.35277777,0,0,-0.35277777,61.024315,97.77602)">
      <path
         d="m 0,0 -0.154,-0.167 0.07,1.2 0.141,0.016 z"
         style="fill:#ecc028;fill-opacity:1;fill-rule:nonzero;stroke:none"
         id="path9900"
         inkscape:connector-curvature="0" />
    </g>
    <g
       id="g9902"
       transform="matrix(0.35277777,0,0,-0.35277777,60.727024,98.065228)">
      <path
         d="m 0,0 -0.154,-0.167 0.099,2.419 0.156,0.061 z"
         style="fill:#ecc028;fill-opacity:1;fill-rule:nonzero;stroke:none"
         id="path9904"
         inkscape:connector-curvature="0" />
    </g>
    <g
       id="g9906"
       transform="matrix(0.35277777,0,0,-0.35277777,60.808304,97.990827)">
      <path
         d="M 0,0 -0.154,-0.167 -0.055,2.063 0.1,1.91 Z"
         style="fill:#ecc028;fill-opacity:1;fill-rule:nonzero;stroke:none"
         id="path9908"
         inkscape:connector-curvature="0" />
    </g>
    <g
       id="g9910"
       transform="matrix(0.35277777,0,0,-0.35277777,60.889616,97.91572)">
      <path
         d="M 0,0 -0.154,-0.167 -0.072,1.656 0.064,1.545 Z"
         style="fill:#ecc028;fill-opacity:1;fill-rule:nonzero;stroke:none"
         id="path9912"
         inkscape:connector-curvature="0" />
    </g>
    <g
       id="g9914"
       transform="matrix(0.35277777,0,0,-0.35277777,60.958516,97.844424)">
      <path
         d="m 0,0 -0.155,-0.166 0.077,1.469 0.135,-0.06 z"
         style="fill:#ecc028;fill-opacity:1;fill-rule:nonzero;stroke:none"
         id="path9916"
         inkscape:connector-curvature="0" />
    </g>
    <g
       id="g9918"
       transform="matrix(0.35277777,0,0,-0.35277777,61.358844,97.77602)">
      <path
         d="m 0,0 0.154,-0.167 -0.071,1.2 -0.141,0.016 z"
         style="fill:#ecc028;fill-opacity:1;fill-rule:nonzero;stroke:none"
         id="path9920"
         inkscape:connector-curvature="0" />
    </g>
    <g
       id="g9922"
       transform="matrix(0.35277777,0,0,-0.35277777,61.656174,98.065228)">
      <path
         d="m 0,0 0.154,-0.167 -0.1,2.419 -0.155,0.061 z"
         style="fill:#ecc028;fill-opacity:1;fill-rule:nonzero;stroke:none"
         id="path9924"
         inkscape:connector-curvature="0" />
    </g>
    <g
       id="g9926"
       transform="matrix(0.35277777,0,0,-0.35277777,61.574505,97.990827)">
      <path
         d="M 0,0 0.155,-0.167 0.055,2.063 -0.1,1.91 Z"
         style="fill:#ecc028;fill-opacity:1;fill-rule:nonzero;stroke:none"
         id="path9928"
         inkscape:connector-curvature="0" />
    </g>
    <g
       id="g9930"
       transform="matrix(0.35277777,0,0,-0.35277777,61.493186,97.91572)">
      <path
         d="M 0,0 0.154,-0.167 0.072,1.656 -0.065,1.545 Z"
         style="fill:#ecc028;fill-opacity:1;fill-rule:nonzero;stroke:none"
         id="path9932"
         inkscape:connector-curvature="0" />
    </g>
    <g
       id="g9934"
       transform="matrix(0.35277777,0,0,-0.35277777,61.424286,97.844424)">
      <path
         d="M 0,0 0.155,-0.166 0.078,1.303 -0.056,1.243 Z"
         style="fill:#ecc028;fill-opacity:1;fill-rule:nonzero;stroke:none"
         id="path9936"
         inkscape:connector-curvature="0" />
    </g>
    <g
       id="g9938"
       transform="matrix(0.35277777,0,0,-0.35277777,61.203134,97.779478)">
      <path
         d="M 0,0 0.056,-0.883 -0.033,-0.996 -0.121,-0.885 -0.065,0 Z"
         style="fill:#ecc028;fill-opacity:1;fill-rule:nonzero;stroke:none"
         id="path9940"
         inkscape:connector-curvature="0" />
    </g>
    <g
       id="g9942"
       transform="matrix(0.35277777,0,0,-0.35277777,61.213786,97.779478)">
      <path
         d="M 0,0 0.261,-0.836 0.203,-0.972 0.091,-0.891 -0.063,-0.02 Z"
         style="fill:#ecc028;fill-opacity:1;fill-rule:nonzero;stroke:none"
         id="path9944"
         inkscape:connector-curvature="0" />
    </g>
    <g
       id="g9946"
       transform="matrix(0.35277777,0,0,-0.35277777,61.169016,97.779478)">
      <path
         d="m 0,0 -0.261,-0.836 0.059,-0.136 0.11,0.081 0.155,0.871 z"
         style="fill:#ecc028;fill-opacity:1;fill-rule:nonzero;stroke:none"
         id="path9948"
         inkscape:connector-curvature="0" />
    </g>
    <g
       id="g9950"
       transform="matrix(0.35277777,0,0,-0.35277777,61.045685,98.172049)">
      <path
         d="M 0,0 -0.548,0.189 -0.084,1.494 0.378,1.199 Z"
         style="fill:#ffffff;fill-opacity:1;fill-rule:nonzero;stroke:none"
         id="path9952"
         inkscape:connector-curvature="0" />
    </g>
    <g
       id="g9954"
       transform="matrix(0.35277777,0,0,-0.35277777,61.045685,98.172049)">
      <path
         d="M 0,0 0.005,0.013 -0.53,0.198 -0.077,1.473 0.361,1.193 -0.013,0.004 0,0 0.005,0.013 0,0 l 0.013,-0.004 0.382,1.209 -0.471,0.3 -0.015,0.009 -0.474,-1.333 0.56,-0.194 0.014,-0.005 0.004,0.014 z"
         style="fill:#ecc028;fill-opacity:1;fill-rule:nonzero;stroke:none"
         id="path9956"
         inkscape:connector-curvature="0" />
    </g>
    <g
       id="g9958"
       transform="matrix(0.35277777,0,0,-0.35277777,60.969874,97.77535)">
      <path
         d="M 0,0 0.05,-0.143 0.195,0"
         style="fill:#ffffff;fill-opacity:1;fill-rule:nonzero;stroke:none"
         id="path9960"
         inkscape:connector-curvature="0" />
    </g>
    <g
       id="g9962"
       transform="matrix(0.35277777,0,0,-0.35277777,60.965395,97.776902)">
      <path
         d="m 0,0 0.05,-0.143 0.007,-0.021 0.161,0.158 -0.02,0.02 -0.13,-0.128 -0.043,0.123 z"
         style="fill:#ecc028;fill-opacity:1;fill-rule:nonzero;stroke:none"
         id="path9964"
         inkscape:connector-curvature="0" />
    </g>
    <g
       id="g9966"
       transform="matrix(0.35277777,0,0,-0.35277777,61.030874,97.693188)">
      <path
         d="m 0,0 0.064,-0.493 0.157,0.208"
         style="fill:#ffffff;fill-opacity:1;fill-rule:nonzero;stroke:none"
         id="path9968"
         inkscape:connector-curvature="0" />
    </g>
    <g
       id="g9970"
       transform="matrix(0.35277777,0,0,-0.35277777,61.026035,97.693682)">
      <path
         d="m 0,0 0.064,-0.493 0.004,-0.034 0.177,0.235 -0.021,0.017 -0.137,-0.182 -0.06,0.46 z"
         style="fill:#ecc028;fill-opacity:1;fill-rule:nonzero;stroke:none"
         id="path9972"
         inkscape:connector-curvature="0" />
    </g>
    <g
       id="g9974"
       transform="matrix(0.35277777,0,0,-0.35277777,61.096665,97.816166)">
      <path
         d="M 0,0 0.104,-0.191"
         style="fill:#ffffff;fill-opacity:1;fill-rule:nonzero;stroke:none"
         id="path9976"
         inkscape:connector-curvature="0" />
    </g>
    <g
       id="g9978"
       transform="matrix(0.35277777,0,0,-0.35277777,61.092535,97.818389)">
      <path
         d="M 0,0 0.104,-0.191 0.127,-0.179 0.023,0.013"
         style="fill:#ecc028;fill-opacity:1;fill-rule:nonzero;stroke:none"
         id="path9980"
         inkscape:connector-curvature="0" />
    </g>
    <g
       id="g9982"
       transform="matrix(0.35277777,0,0,-0.35277777,60.926835,97.899528)">
      <path
         d="m 0,0 0.149,0.083 0.048,-0.19 0.109,0.154 0.065,-0.288 0.163,0.12"
         style="fill:#ffffff;fill-opacity:1;fill-rule:nonzero;stroke:none"
         id="path9984"
         inkscape:connector-curvature="0" />
    </g>
    <g
       id="g9986"
       transform="matrix(0.35277777,0,0,-0.35277777,60.929234,97.903655)">
      <path
         d="M 0,0 0.134,0.074 0.177,-0.099 0.185,-0.128 0.292,0.026 0.351,-0.232 0.355,-0.253 0.535,-0.121 0.52,-0.098 0.373,-0.206 0.312,0.062 0.306,0.092 0.196,-0.063 0.156,0.098 0.151,0.115 -0.014,0.024 Z"
         style="fill:#ecc028;fill-opacity:1;fill-rule:nonzero;stroke:none"
         id="path9988"
         inkscape:connector-curvature="0" />
    </g>
    <g
       id="g9990"
       transform="matrix(0.35277777,0,0,-0.35277777,60.905454,97.965497)">
      <path
         d="m 0,0 0.078,-0.202 0.154,0.143 0.049,-0.22 0.16,0.169 0.042,-0.193"
         style="fill:#ffffff;fill-opacity:1;fill-rule:nonzero;stroke:none"
         id="path9992"
         inkscape:connector-curvature="0" />
    </g>
    <g
       id="g9994"
       transform="matrix(0.35277777,0,0,-0.35277777,60.900974,97.967226)">
      <path
         d="M 0,0 0.078,-0.202 0.085,-0.221 0.237,-0.08 0.28,-0.277 0.286,-0.302 0.446,-0.133 0.482,-0.301 0.51,-0.295 0.468,-0.102 0.462,-0.077 0.302,-0.246 0.259,-0.051 0.253,-0.027 0.097,-0.173 0.025,0.01 Z"
         style="fill:#ecc028;fill-opacity:1;fill-rule:nonzero;stroke:none"
         id="path9996"
         inkscape:connector-curvature="0" />
    </g>
    <g
       id="g9998"
       transform="matrix(0.35277777,0,0,-0.35277777,60.864115,98.108302)">
      <path
         d="M 0,0 0.177,0.146 0.221,-0.05 0.372,0.063 0.401,-0.121 0.588,0.051"
         style="fill:#ffffff;fill-opacity:1;fill-rule:nonzero;stroke:none"
         id="path10000"
         inkscape:connector-curvature="0" />
    </g>
    <g
       id="g10002"
       transform="matrix(0.35277777,0,0,-0.35277777,60.867213,98.111935)">
      <path
         d="M 0,0 0.159,0.132 0.198,-0.043 0.203,-0.063 0.354,0.049 0.379,-0.113 0.383,-0.138 0.588,0.051 0.57,0.071 0.402,-0.083 0.377,0.075 0.373,0.098 0.221,-0.017 0.182,0.16 0.177,0.182 -0.018,0.021 Z"
         style="fill:#ecc028;fill-opacity:1;fill-rule:nonzero;stroke:none"
         id="path10004"
         inkscape:connector-curvature="0" />
    </g>
    <g
       id="g10006"
       transform="matrix(0.35277777,0,0,-0.35277777,61.337825,98.173072)">
      <path
         d="M 0,0 0.546,0.189 0.083,1.493 -0.379,1.198 Z"
         style="fill:#ffffff;fill-opacity:1;fill-rule:nonzero;stroke:none"
         id="path10008"
         inkscape:connector-curvature="0" />
    </g>
    <g
       id="g10010"
       transform="matrix(0.35277777,0,0,-0.35277777,61.337825,98.173072)">
      <path
         d="M 0,0 0.005,-0.013 0.551,0.177 0.563,0.181 0.09,1.514 -0.387,1.21 -0.396,1.204 -0.009,-0.018 0.005,-0.013 0,0 0.013,0.004 -0.363,1.192 0.076,1.473 0.528,0.198 -0.005,0.013 0,0 0.013,0.004 Z"
         style="fill:#ecc028;fill-opacity:1;fill-rule:nonzero;stroke:none"
         id="path10012"
         inkscape:connector-curvature="0" />
    </g>
    <g
       id="g10014"
       transform="matrix(0.35277777,0,0,-0.35277777,61.413284,97.776197)">
      <path
         d="m 0,0 -0.049,-0.144 -0.145,0.143"
         style="fill:#ffffff;fill-opacity:1;fill-rule:nonzero;stroke:none"
         id="path10016"
         inkscape:connector-curvature="0" />
    </g>
    <g
       id="g10018"
       transform="matrix(0.35277777,0,0,-0.35277777,61.408805,97.774644)">
      <path
         d="m 0,0 -0.042,-0.124 -0.13,0.128 -0.019,-0.02 0.145,-0.142 0.016,-0.015 0.055,0.164 z"
         style="fill:#ecc028;fill-opacity:1;fill-rule:nonzero;stroke:none"
         id="path10020"
         inkscape:connector-curvature="0" />
    </g>
    <g
       id="g10022"
       transform="matrix(0.35277777,0,0,-0.35277777,61.351975,97.694564)">
      <path
         d="M 0,0 -0.063,-0.492 -0.22,-0.284"
         style="fill:#ffffff;fill-opacity:1;fill-rule:nonzero;stroke:none"
         id="path10024"
         inkscape:connector-curvature="0" />
    </g>
    <g
       id="g10026"
       transform="matrix(0.35277777,0,0,-0.35277777,61.347136,97.693858)">
      <path
         d="m 0,0 -0.06,-0.459 -0.135,0.181 -0.022,-0.016 0.156,-0.208 0.02,-0.027 0.068,0.526 z"
         style="fill:#ecc028;fill-opacity:1;fill-rule:nonzero;stroke:none"
         id="path10028"
         inkscape:connector-curvature="0" />
    </g>
    <g
       id="g10030"
       transform="matrix(0.35277777,0,0,-0.35277777,61.286496,97.817189)">
      <path
         d="M 0,0 -0.104,-0.192"
         style="fill:#ffffff;fill-opacity:1;fill-rule:nonzero;stroke:none"
         id="path10032"
         inkscape:connector-curvature="0" />
    </g>
    <g
       id="g10034"
       transform="matrix(0.35277777,0,0,-0.35277777,61.282366,97.814967)">
      <path
         d="m 0,0 -0.104,-0.192 0.024,-0.013 0.103,0.192"
         style="fill:#ecc028;fill-opacity:1;fill-rule:nonzero;stroke:none"
         id="path10036"
         inkscape:connector-curvature="0" />
    </g>
    <g
       id="g10038"
       transform="matrix(0.35277777,0,0,-0.35277777,61.456324,97.901256)">
      <path
         d="m 0,0 -0.149,0.084 -0.047,-0.19 -0.11,0.155 -0.065,-0.288 -0.162,0.119"
         style="fill:#ffffff;fill-opacity:1;fill-rule:nonzero;stroke:none"
         id="path10040"
         inkscape:connector-curvature="0" />
    </g>
    <g
       id="g10042"
       transform="matrix(0.35277777,0,0,-0.35277777,61.458756,97.897129)">
      <path
         d="m 0,0 -0.149,0.084 -0.016,0.009 -0.044,-0.178 -0.093,0.13 -0.017,0.025 -0.068,-0.298 -0.145,0.107 -0.016,-0.021 0.162,-0.12 0.017,-0.012 0.063,0.278 0.092,-0.129 0.017,-0.025 0.05,0.202 0.133,-0.075 z"
         style="fill:#ecc028;fill-opacity:1;fill-rule:nonzero;stroke:none"
         id="path10044"
         inkscape:connector-curvature="0" />
    </g>
    <g
       id="g10046"
       transform="matrix(0.35277777,0,0,-0.35277777,61.478054,97.966697)">
      <path
         d="m 0,0 -0.078,-0.202 -0.154,0.142 -0.049,-0.218 -0.16,0.168 -0.042,-0.193"
         style="fill:#ffffff;fill-opacity:1;fill-rule:nonzero;stroke:none"
         id="path10048"
         inkscape:connector-curvature="0" />
    </g>
    <g
       id="g10050"
       transform="matrix(0.35277777,0,0,-0.35277777,61.473575,97.965003)">
      <path
         d="m 0,0 -0.071,-0.183 -0.14,0.129 -0.017,0.015 -0.048,-0.216 -0.143,0.15 -0.018,0.018 -0.047,-0.218 0.027,-0.006 0.036,0.168 0.143,-0.149 0.017,-0.02 0.049,0.222 0.138,-0.126 0.014,-0.014 0.085,0.22 z"
         style="fill:#ecc028;fill-opacity:1;fill-rule:nonzero;stroke:none"
         id="path10052"
         inkscape:connector-curvature="0" />
    </g>
    <g
       id="g10054"
       transform="matrix(0.35277777,0,0,-0.35277777,61.519395,98.109501)">
      <path
         d="M 0,0 -0.178,0.146 -0.222,-0.05 -0.372,0.063 -0.402,-0.121 -0.589,0.05"
         style="fill:#ffffff;fill-opacity:1;fill-rule:nonzero;stroke:none"
         id="path10056"
         inkscape:connector-curvature="0" />
    </g>
    <g
       id="g10058"
       transform="matrix(0.35277777,0,0,-0.35277777,61.522465,98.105726)">
      <path
         d="m 0,0 -0.178,0.146 -0.017,0.015 -0.044,-0.198 -0.134,0.1 -0.018,0.014 -0.03,-0.181 -0.168,0.154 -0.017,-0.021 0.186,-0.171 0.019,-0.017 0.03,0.187 0.133,-0.1 0.016,-0.013 0.044,0.196 0.16,-0.132 z"
         style="fill:#ecc028;fill-opacity:1;fill-rule:nonzero;stroke:none"
         id="path10060"
         inkscape:connector-curvature="0" />
    </g>
    <g
       id="g10062"
       transform="matrix(0.35277777,0,0,-0.35277777,61.393284,98.13035)">
      <path
         d="m 0,0 c -0.137,-0.019 -0.289,-0.033 -0.404,-0.019 -0.071,0 -0.119,-0.115 0.014,-0.133 0.119,-0.015 0.306,0 0.406,0.018 0.085,0.015 0.271,0.049 0.389,0.082 C 0.524,0 0.439,0.101 0.372,0.085 0.269,0.051 0.134,0.019 0,0"
         style="fill:#ffffff;fill-opacity:1;fill-rule:nonzero;stroke:none"
         id="path10064"
         inkscape:connector-curvature="0" />
    </g>
    <g
       id="g10066"
       transform="matrix(0.35277777,0,0,-0.35277777,61.393284,98.13035)">
      <path
         d="M 0,0 -0.002,0.013 C -0.1,0 -0.204,-0.011 -0.298,-0.011 l -0.104,0.006 -0.085,-0.081 0.095,-0.079 0.119,-0.006 c 0.104,0 0.219,0.011 0.291,0.024 0.085,0.015 0.272,0.049 0.391,0.082 L 0.479,0.016 0.387,0.1 0.368,0.098 C 0.266,0.064 0.131,0.032 -0.002,0.013 L 0,0 0.002,-0.013 C 0.137,0.005 0.271,0.038 0.376,0.072 L 0.387,0.073 0.451,0.016 0.399,-0.04 C 0.284,-0.072 0.098,-0.105 0.013,-0.121 -0.057,-0.133 -0.171,-0.145 -0.273,-0.145 l -0.115,0.007 -0.073,0.052 0.057,0.054 0.106,-0.006 c 0.096,0 0.201,0.011 0.3,0.025 z"
         style="fill:#ecc028;fill-opacity:1;fill-rule:nonzero;stroke:none"
         id="path10068"
         inkscape:connector-curvature="0" />
    </g>
    <g
       id="g10070"
       transform="matrix(0.35277777,0,0,-0.35277777,61.393284,98.13035)">
      <path
         d="m 0,0 -0.001,0.013 c -0.001,0 -0.219,-0.019 -0.351,-0.019 l -0.051,0.001 h -0.005 l -0.079,-0.079 0.095,-0.081 0.085,-0.004 c 0.136,0 0.324,0.022 0.325,0.022 0.001,0 0.273,0.04 0.392,0.083 L 0.479,0.013 0.388,0.101 0.368,0.098 C 0.265,0.07 -0.003,0.013 -0.003,0.013 L 0,0 0.003,-0.013 c 0,0 0.268,0.056 0.373,0.085 L 0.388,0.074 0.452,0.013 0.4,-0.039 C 0.287,-0.08 0.014,-0.121 0.014,-0.121 c 0,0 -0.187,-0.022 -0.321,-0.022 l -0.081,0.005 -0.073,0.054 0.053,0.052 h 0.003 l 0.053,-0.001 c 0.134,0 0.353,0.02 0.353,0.02 z"
         style="fill:#ecc028;fill-opacity:1;fill-rule:nonzero;stroke:none"
         id="path10072"
         inkscape:connector-curvature="0" />
    </g>
    <g
       id="g10074"
       transform="matrix(0.35277777,0,0,-0.35277777,61.422246,98.170849)">
      <path
         d="m 0,0 -0.042,-0.142 -0.084,0.13 0.055,0.088 z"
         style="fill:#ffffff;fill-opacity:1;fill-rule:nonzero;stroke:none"
         id="path10076"
         inkscape:connector-curvature="0" />
    </g>
    <g
       id="g10078"
       transform="matrix(0.35277777,0,0,-0.35277777,61.422246,98.170849)">
      <path
         d="M 0,0 -0.013,0.004 -0.047,-0.11 -0.11,-0.012 -0.069,0.054 -0.01,-0.009 0,0 -0.013,0.004 0,0 l 0.01,0.009 -0.072,0.076 -0.011,0.013 -0.065,-0.103 -0.004,-0.007 0.088,-0.137 0.017,-0.025 0.05,0.17 0.002,0.007 -0.005,0.006 z"
         style="fill:#ecc028;fill-opacity:1;fill-rule:nonzero;stroke:none"
         id="path10080"
         inkscape:connector-curvature="0" />
    </g>
    <g
       id="g10082"
       transform="matrix(0.35277777,0,0,-0.35277777,61.251714,98.184114)">
      <path
         d="m 0,0 c -0.006,-0.046 -0.046,-0.021 -0.08,-0.118 l -0.044,0.136 0.073,0.073 z"
         style="fill:#ffffff;fill-opacity:1;fill-rule:nonzero;stroke:none"
         id="path10084"
         inkscape:connector-curvature="0" />
    </g>
    <g
       id="g10086"
       transform="matrix(0.35277777,0,0,-0.35277777,61.251714,98.184114)">
      <path
         d="m 0,0 -0.014,0.001 c 0.002,-0.031 -0.042,-0.013 -0.079,-0.115 l 0.013,-0.004 0.013,0.004 -0.041,0.128 0.054,0.055 0.042,-0.075 L 0,0 -0.014,0.001 0,0 0.012,0.006 -0.039,0.097 -0.048,0.113 -0.134,0.027 -0.14,0.021 l 0.047,-0.144 0.012,-0.038 0.014,0.038 c 0.031,0.092 0.067,0.06 0.081,0.122 V 0.002 L 0.012,0.006 Z"
         style="fill:#ecc028;fill-opacity:1;fill-rule:nonzero;stroke:none"
         id="path10088"
         inkscape:connector-curvature="0" />
    </g>
    <g
       id="g10090"
       transform="matrix(0.35277777,0,0,-0.35277777,61.540385,98.149294)">
      <path
         d="M 0,0 0.119,-0.078 0.108,0.064 0.012,0.104 Z"
         style="fill:#ffffff;fill-opacity:1;fill-rule:nonzero;stroke:none"
         id="path10092"
         inkscape:connector-curvature="0" />
    </g>
    <g
       id="g10094"
       transform="matrix(0.35277777,0,0,-0.35277777,61.540385,98.149294)">
      <path
         d="M 0,0 -0.008,-0.011 0.111,-0.089 0.135,-0.104 0.122,0.065 0.121,0.073 0.017,0.117 0,0.124 -0.014,0.001 -0.015,-0.006 -0.008,-0.011 0,0 0.014,-0.001 0.023,0.085 0.096,0.055 0.104,-0.052 0.008,0.011 0,0 0.014,-0.001 Z"
         style="fill:#ecc028;fill-opacity:1;fill-rule:nonzero;stroke:none"
         id="path10096"
         inkscape:connector-curvature="0" />
    </g>
    <g
       id="g10098"
       transform="matrix(0.35277777,0,0,-0.35277777,61.278236,98.167392)">
      <path
         d="M 0,0 H 0.091 V 0.03 H 0"
         style="fill:#ecc028;fill-opacity:1;fill-rule:nonzero;stroke:none"
         id="path10100"
         inkscape:connector-curvature="0" />
    </g>
    <g
       id="g10102"
       transform="matrix(0.35277777,0,0,-0.35277777,61.328864,98.165663)">
      <path
         d="M 0,0 0.086,0.004 0.084,0.032 -0.002,0.028"
         style="fill:#ecc028;fill-opacity:1;fill-rule:nonzero;stroke:none"
         id="path10104"
         inkscape:connector-curvature="0" />
    </g>
    <g
       id="g10106"
       transform="matrix(0.35277777,0,0,-0.35277777,61.435684,98.153598)">
      <path
         d="M 0,0 0.082,0.019 0.076,0.047 -0.006,0.028"
         style="fill:#ecc028;fill-opacity:1;fill-rule:nonzero;stroke:none"
         id="path10108"
         inkscape:connector-curvature="0" />
    </g>
    <g
       id="g10110"
       transform="matrix(0.35277777,0,0,-0.35277777,61.481825,98.142944)">
      <path
         d="M 0,0 0.083,0.018 0.077,0.046 -0.006,0.028"
         style="fill:#ecc028;fill-opacity:1;fill-rule:nonzero;stroke:none"
         id="path10112"
         inkscape:connector-curvature="0" />
    </g>
    <g
       id="g10114"
       transform="matrix(0.35277777,0,0,-0.35277777,60.992274,98.13035)">
      <path
         d="m 0,0 c 0.137,-0.019 0.289,-0.033 0.404,-0.019 0.071,0 0.119,-0.115 -0.014,-0.133 -0.119,-0.015 -0.306,0 -0.406,0.018 -0.086,0.015 -0.27,0.049 -0.389,0.082 C -0.524,0 -0.439,0.101 -0.372,0.085 -0.269,0.051 -0.134,0.019 0,0"
         style="fill:#ffffff;fill-opacity:1;fill-rule:nonzero;stroke:none"
         id="path10116"
         inkscape:connector-curvature="0" />
    </g>
    <g
       id="g10118"
       transform="matrix(0.35277777,0,0,-0.35277777,60.992274,98.13035)">
      <path
         d="m 0,0 -0.002,-0.013 c 0.099,-0.014 0.204,-0.025 0.3,-0.025 L 0.406,-0.032 0.46,-0.086 0.388,-0.139 0.273,-0.145 c -0.102,0 -0.216,0.012 -0.287,0.024 -0.085,0.016 -0.269,0.049 -0.387,0.082 l -0.05,0.055 0.064,0.057 0.011,-0.001 c 0.105,-0.034 0.239,-0.067 0.374,-0.085 L 0,0 0.002,0.013 c -0.133,0.019 -0.268,0.051 -0.37,0.085 L -0.387,0.1 -0.479,0.016 l 0.068,-0.08 c 0.122,-0.034 0.307,-0.068 0.392,-0.083 0.073,-0.013 0.188,-0.024 0.292,-0.024 l 0.119,0.006 0.095,0.079 -0.083,0.081 -0.106,-0.006 C 0.204,-0.011 0.1,0 0.002,0.013 Z"
         style="fill:#ecc028;fill-opacity:1;fill-rule:nonzero;stroke:none"
         id="path10120"
         inkscape:connector-curvature="0" />
    </g>
    <g
       id="g10122"
       transform="matrix(0.35277777,0,0,-0.35277777,60.992274,98.13035)">
      <path
         d="m 0,0 -0.001,-0.013 c 0,0 0.219,-0.02 0.353,-0.02 l 0.053,0.001 H 0.408 L 0.46,-0.084 0.388,-0.139 0.307,-0.143 c -0.134,0 -0.321,0.022 -0.321,0.022 0,0 -0.273,0.041 -0.386,0.082 l -0.052,0.052 0.064,0.061 0.012,-0.002 c 0.105,-0.029 0.373,-0.085 0.373,-0.085 L 0,0 0.003,0.013 c 0,0 -0.268,0.057 -0.371,0.085 l -0.02,0.003 -0.091,-0.088 0.069,-0.077 c 0.119,-0.043 0.391,-0.083 0.392,-0.083 10e-4,0 0.189,-0.022 0.325,-0.022 l 0.085,0.004 0.095,0.081 -0.079,0.079 H 0.403 L 0.352,-0.006 c -0.132,0 -0.35,0.02 -0.351,0.019 z"
         style="fill:#ecc028;fill-opacity:1;fill-rule:nonzero;stroke:none"
         id="path10124"
         inkscape:connector-curvature="0" />
    </g>
    <g
       id="g10126"
       transform="matrix(0.35277777,0,0,-0.35277777,60.963355,98.170849)">
      <path
         d="m 0,0 0.042,-0.142 0.083,0.13 -0.054,0.088 z"
         style="fill:#ffffff;fill-opacity:1;fill-rule:nonzero;stroke:none"
         id="path10128"
         inkscape:connector-curvature="0" />
    </g>
    <g
       id="g10130"
       transform="matrix(0.35277777,0,0,-0.35277777,60.963355,98.170849)">
      <path
         d="m 0,0 -0.013,-0.004 0.042,-0.142 0.008,-0.028 0.1,0.154 0.004,0.008 L 0.083,0.083 0.073,0.098 -0.01,0.009 -0.016,0.004 -0.013,-0.004 0,0 0.01,-0.009 0.069,0.054 0.109,-0.012 0.047,-0.11 0.013,0.004 0,0 0.01,-0.009 Z"
         style="fill:#ecc028;fill-opacity:1;fill-rule:nonzero;stroke:none"
         id="path10132"
         inkscape:connector-curvature="0" />
    </g>
    <g
       id="g10134"
       transform="matrix(0.35277777,0,0,-0.35277777,61.133884,98.184114)">
      <path
         d="M 0,0 C 0.006,-0.046 0.046,-0.021 0.081,-0.118 L 0.125,0.018 0.051,0.091 Z"
         style="fill:#ffffff;fill-opacity:1;fill-rule:nonzero;stroke:none"
         id="path10136"
         inkscape:connector-curvature="0" />
    </g>
    <g
       id="g10138"
       transform="matrix(0.35277777,0,0,-0.35277777,61.133884,98.184114)">
      <path
         d="M 0,0 -0.014,-0.001 C 0,-0.063 0.036,-0.031 0.068,-0.123 L 0.082,-0.16 0.138,0.013 0.141,0.021 0.061,0.101 0.048,0.113 -0.012,0.006 -0.014,0.002 V -0.001 L 0,0 0.012,-0.006 0.054,0.069 0.109,0.014 0.068,-0.114 0.081,-0.118 0.094,-0.114 C 0.055,-0.012 0.012,-0.03 0.014,0.001 L 0,0 0.012,-0.006 Z"
         style="fill:#ecc028;fill-opacity:1;fill-rule:nonzero;stroke:none"
         id="path10140"
         inkscape:connector-curvature="0" />
    </g>
    <g
       id="g10142"
       transform="matrix(0.35277777,0,0,-0.35277777,60.845166,98.149294)">
      <path
         d="m 0,0 -0.119,-0.078 0.011,0.142 0.096,0.04 z"
         style="fill:#ffffff;fill-opacity:1;fill-rule:nonzero;stroke:none"
         id="path10144"
         inkscape:connector-curvature="0" />
    </g>
    <g
       id="g10146"
       transform="matrix(0.35277777,0,0,-0.35277777,60.845166,98.149294)">
      <path
         d="m 0,0 -0.008,0.011 -0.096,-0.063 0.008,0.107 0.073,0.03 0.009,-0.086 L 0,0 -0.008,0.011 0,0 0.014,0.001 0.002,0.106 0,0.124 -0.113,0.077 -0.121,0.073 l -0.012,-0.15 -0.002,-0.027 0.143,0.093 0.007,0.004 -10e-4,0.008 z"
         style="fill:#ecc028;fill-opacity:1;fill-rule:nonzero;stroke:none"
         id="path10148"
         inkscape:connector-curvature="0" />
    </g>
    <g
       id="g10150"
       transform="matrix(0.35277777,0,0,-0.35277777,61.107355,98.156703)">
      <path
         d="M 0,0 H -0.091 V -0.03 H 0"
         style="fill:#ecc028;fill-opacity:1;fill-rule:nonzero;stroke:none"
         id="path10152"
         inkscape:connector-curvature="0" />
    </g>
    <g
       id="g10154"
       transform="matrix(0.35277777,0,0,-0.35277777,61.057404,98.15568)">
      <path
         d="m 0,0 -0.085,0.004 -0.002,-0.028 0.085,-0.004"
         style="fill:#ecc028;fill-opacity:1;fill-rule:nonzero;stroke:none"
         id="path10156"
         inkscape:connector-curvature="0" />
    </g>
    <g
       id="g10158"
       transform="matrix(0.35277777,0,0,-0.35277777,60.951994,98.143615)">
      <path
         d="M 0,0 -0.083,0.019 -0.089,-0.01 -0.006,-0.028"
         style="fill:#ecc028;fill-opacity:1;fill-rule:nonzero;stroke:none"
         id="path10160"
         inkscape:connector-curvature="0" />
    </g>
    <g
       id="g10162"
       transform="matrix(0.35277777,0,0,-0.35277777,60.905813,98.132926)">
      <path
         d="M 0,0 -0.082,0.018 -0.088,-0.01 -0.006,-0.028"
         style="fill:#ecc028;fill-opacity:1;fill-rule:nonzero;stroke:none"
         id="path10164"
         inkscape:connector-curvature="0" />
    </g>
    <g
       id="g10166"
       transform="matrix(0.35277777,0,0,-0.35277777,61.192794,97.343479)">
      <path
         d="M 0,0 C 0.171,-0.134 0.39,-0.2 0.643,-0.186 0.625,-0.776 0.457,-1.181 0,-1.485 -0.456,-1.181 -0.625,-0.776 -0.643,-0.186 -0.39,-0.2 -0.167,-0.134 0,0"
         style="fill:#ffffff;fill-opacity:1;fill-rule:nonzero;stroke:none"
         id="path10168"
         inkscape:connector-curvature="0" />
    </g>
    <g
       id="g10170"
       transform="matrix(0.35277777,0,0,-0.35277777,61.192794,97.343479)">
      <path
         d="m 0,0 -0.009,-0.011 c 0.158,-0.123 0.357,-0.19 0.583,-0.19 l 0.07,0.002 -0.001,0.013 -0.014,0.001 C 0.611,-0.774 0.445,-1.172 -0.008,-1.474 L 0,-1.485 0.008,-1.474 c -0.452,0.302 -0.619,0.7 -0.637,1.289 l -0.014,-0.001 -0.001,-0.013 0.07,-0.002 c 0.227,0 0.428,0.067 0.583,0.191 L 0,0 -0.009,-0.011 0,0 -0.009,0.011 c -0.149,-0.12 -0.344,-0.185 -0.565,-0.185 l -0.068,0.002 -0.014,10e-4 v -0.015 c 0.017,-0.593 0.188,-1.004 0.648,-1.311 L 0,-1.501 0.008,-1.497 c 0.461,0.307 0.631,0.718 0.648,1.311 v 0.015 L 0.642,-0.172 0.574,-0.174 c -0.221,0 -0.413,0.065 -0.565,0.185 L 0,0.017 -0.009,0.011 Z"
         style="fill:#ecc028;fill-opacity:1;fill-rule:nonzero;stroke:none"
         id="path10172"
         inkscape:connector-curvature="0" />
    </g>
    <g
       id="g10174"
       transform="matrix(0.35277777,0,0,-0.35277777,61.261345,97.404475)">
      <path
         d="m 0,0 -0.187,0.106 -0.202,-0.108 c -0.114,-0.041 -0.245,-0.06 -0.388,-0.06 0.026,-0.427 0.16,-0.767 0.388,-1.009 L -0.187,-1.246 0,-1.088 c 0.238,0.243 0.374,0.589 0.389,1.026 C 0.253,-0.062 0.117,-0.043 0,0"
         style="fill:#ecc028;fill-opacity:1;fill-rule:nonzero;stroke:none"
         id="path10176"
         inkscape:connector-curvature="0" />
    </g>
    <g
       id="g10178"
       transform="matrix(0.35277777,0,0,-0.35277777,61.261345,97.404475)">
      <path
         d="M 0,0 0.008,0.015 -0.179,0.121 -0.187,0.125 -0.396,0.012 c -0.11,-0.039 -0.239,-0.057 -0.381,-0.057 h -0.018 l 0.001,-0.017 c 0.026,-0.431 0.161,-0.775 0.394,-1.021 l 0.203,-0.176 0.01,-0.009 0.198,0.167 c 0.243,0.248 0.38,0.599 0.394,1.039 l 0.001,0.017 H 0.389 c -0.135,0 -0.269,0.019 -0.383,0.061 L 0,0 -0.006,-0.016 c 0.12,-0.044 0.257,-0.062 0.395,-0.062 v 0.016 L 0.372,-0.061 C 0.357,-0.496 0.223,-0.836 -0.012,-1.076 l -0.175,-0.148 -0.191,0.165 c -0.224,0.238 -0.356,0.574 -0.383,0.998 l -0.016,-0.001 v -0.016 c 0.144,0 0.277,0.018 0.394,0.06 l 0.196,0.105 0.179,-0.102 z"
         style="fill:#ecc028;fill-opacity:1;fill-rule:nonzero;stroke:none"
         id="path10180"
         inkscape:connector-curvature="0" />
    </g>
    <g
       id="g10182"
       transform="matrix(0.35277777,0,0,-0.35277777,61.195545,97.366904)">
      <path
         d="M 0,0 -0.202,-0.109 V -1.178 L 0,-1.353 0.187,-1.194 v 1.088 z"
         style="fill:#ffffff;fill-opacity:1;fill-rule:nonzero;stroke:none"
         id="path10184"
         inkscape:connector-curvature="0" />
    </g>
    <g
       id="g10186"
       transform="matrix(0.35277777,0,0,-0.35277777,60.987125,97.426171)">
      <path
         d="M 0,0 C 0.026,-0.427 0.16,-0.768 0.389,-1.01 V 0.059 C 0.274,0.018 0.144,0 0,0"
         style="fill:#ecc028;fill-opacity:1;fill-rule:nonzero;stroke:none"
         id="path10188"
         inkscape:connector-curvature="0" />
    </g>
    <g
       id="g10190"
       transform="matrix(0.35277777,0,0,-0.35277777,61.261345,97.404475)">
      <path
         d="m 0,0 v -1.088 c 0.238,0.243 0.374,0.589 0.389,1.026 C 0.253,-0.062 0.117,-0.043 0,0"
         style="fill:#ecc028;fill-opacity:1;fill-rule:nonzero;stroke:none"
         id="path10192"
         inkscape:connector-curvature="0" />
    </g>
  </g>
</svg>
