<?xml version="1.0" encoding="UTF-8" standalone="no"?>
<!-- Created with Inkscape (http://www.inkscape.org/) -->

<svg
   xmlns:dc="http://purl.org/dc/elements/1.1/"
   xmlns:cc="http://creativecommons.org/ns#"
   xmlns:rdf="http://www.w3.org/1999/02/22-rdf-syntax-ns#"
   xmlns:svg="http://www.w3.org/2000/svg"
   xmlns="http://www.w3.org/2000/svg"
   xmlns:sodipodi="http://sodipodi.sourceforge.net/DTD/sodipodi-0.dtd"
   xmlns:inkscape="http://www.inkscape.org/namespaces/inkscape"
   width="7.084836mm"
   height="4.7328668mm"
   viewBox="0 0 7.084836 4.7328668"
   version="1.1"
   id="svg8"
   inkscape:version="0.92.4 (5da689c313, 2019-01-14)"
   sodipodi:docname="eritrea.svg">
  <defs
     id="defs2">
    <radialGradient
       id="radialGradient37584"
       spreadMethod="pad"
       gradientTransform="matrix(0.975099,0,0,0.975099,159.64062,365.06934)"
       gradientUnits="userSpaceOnUse"
       r="1"
       cy="0"
       cx="0"
       fy="0"
       fx="0">
      <stop
         id="stop37578"
         offset="0"
         style="stop-opacity:1;stop-color:#852c26" />
      <stop
         id="stop37580"
         offset="0.0015476"
         style="stop-opacity:1;stop-color:#852c26" />
      <stop
         id="stop37582"
         offset="1"
         style="stop-opacity:1;stop-color:#451617" />
    </radialGradient>
    <clipPath
       id="clipPath37532"
       clipPathUnits="userSpaceOnUse">
      <path
         inkscape:connector-curvature="0"
         id="path37530"
         d="M 0,400 H 400 V 0 H 0 Z" />
    </clipPath>
    <radialGradient
       id="radialGradient37522"
       spreadMethod="pad"
       gradientTransform="matrix(-0.2637247,0,0,0.2637247,159.68652,365.88965)"
       gradientUnits="userSpaceOnUse"
       r="1"
       cy="0"
       cx="0"
       fy="0"
       fx="0">
      <stop
         id="stop37516"
         offset="0"
         style="stop-opacity:1;stop-color:#852c26" />
      <stop
         id="stop37518"
         offset="0.0015476"
         style="stop-opacity:1;stop-color:#852c26" />
      <stop
         id="stop37520"
         offset="1"
         style="stop-opacity:1;stop-color:#451617" />
    </radialGradient>
    <clipPath
       id="clipPath37354"
       clipPathUnits="userSpaceOnUse">
      <path
         inkscape:connector-curvature="0"
         id="path37352"
         d="M 0,400 H 400 V 0 H 0 Z" />
    </clipPath>
    <radialGradient
       id="radialGradient37344"
       spreadMethod="pad"
       gradientTransform="matrix(0.975099,0,0,0.975099,155.76025,365.06934)"
       gradientUnits="userSpaceOnUse"
       r="1"
       cy="0"
       cx="0"
       fy="0"
       fx="0">
      <stop
         id="stop37338"
         offset="0"
         style="stop-opacity:1;stop-color:#eee54f" />
      <stop
         id="stop37340"
         offset="0.9977451"
         style="stop-opacity:1;stop-color:#e04a20" />
      <stop
         id="stop37342"
         offset="1"
         style="stop-opacity:1;stop-color:#e04a20" />
    </radialGradient>
    <clipPath
       id="clipPath37272"
       clipPathUnits="userSpaceOnUse">
      <path
         inkscape:connector-curvature="0"
         id="path37270"
         d="M 0,400 H 400 V 0 H 0 Z" />
    </clipPath>
    <radialGradient
       id="radialGradient37262"
       spreadMethod="pad"
       gradientTransform="matrix(0.2636045,0,0,0.2636045,155.71484,365.89062)"
       gradientUnits="userSpaceOnUse"
       r="1"
       cy="0"
       cx="0"
       fy="0"
       fx="0">
      <stop
         id="stop37256"
         offset="0"
         style="stop-opacity:1;stop-color:#eee54f" />
      <stop
         id="stop37258"
         offset="0.9977451"
         style="stop-opacity:1;stop-color:#e04a20" />
      <stop
         id="stop37260"
         offset="1"
         style="stop-opacity:1;stop-color:#e04a20" />
    </radialGradient>
  </defs>
  <sodipodi:namedview
     id="base"
     pagecolor="#ffffff"
     bordercolor="#666666"
     borderopacity="1.0"
     inkscape:pageopacity="0.0"
     inkscape:pageshadow="2"
     inkscape:zoom="11.2"
     inkscape:cx="24.456332"
     inkscape:cy="4.8456248"
     inkscape:document-units="mm"
     inkscape:current-layer="layer1"
     showgrid="false"
     inkscape:window-width="954"
     inkscape:window-height="630"
     inkscape:window-x="-3"
     inkscape:window-y="6"
     inkscape:window-maximized="0" />
  <metadata
     id="metadata5">
    <rdf:RDF>
      <cc:Work
         rdf:about="">
        <dc:format>image/svg+xml</dc:format>
        <dc:type
           rdf:resource="http://purl.org/dc/dcmitype/StillImage" />
        <dc:title></dc:title>
      </cc:Work>
    </rdf:RDF>
  </metadata>
  <g
     inkscape:label="Layer 1"
     inkscape:groupmode="layer"
     id="layer1"
     transform="translate(-57.321779,-94.565841)">
    <g
       id="g33580"
       transform="matrix(0.35277777,0,0,-0.35277777,57.35106,99.269427)">
      <path
         d="M 0,0 H 19.917 V 13.251 H 0 Z M 19.958,-0.042 V 0 Z M -0.083,-0.083 V 13.333 H 20 V -0.042 -0.083 Z"
         style="fill:#221f21;fill-opacity:1;fill-rule:nonzero;stroke:none"
         id="path33582"
         inkscape:connector-curvature="0" />
    </g>
    <path
       d="m 64.391983,94.580624 h -7.055561 v 2.35197 h 7.055561 z"
       style="fill:#3fae3c;fill-opacity:1;fill-rule:nonzero;stroke:none;stroke-width:0.35277778"
       id="path33584"
       inkscape:connector-curvature="0" />
    <path
       d="m 57.336422,99.28421 h 7.055561 v -2.351969 h -7.055561 z"
       style="fill:#4f81ca;fill-opacity:1;fill-rule:nonzero;stroke:none;stroke-width:0.35277778"
       id="path33586"
       inkscape:connector-curvature="0" />
    <g
       id="g33588"
       transform="matrix(0.35277777,0,0,-0.35277777,57.33642,99.284246)">
      <path
         d="M 0,0 V 13.333 L 20,6.667 Z"
         style="fill:#de1c41;fill-opacity:1;fill-rule:nonzero;stroke:none"
         id="path33590"
         inkscape:connector-curvature="0" />
    </g>
    <g
       id="g33592"
       transform="matrix(0.35277777,0,0,-0.35277777,59.64945,95.764015)">
      <path
         d="M 0,0 0.046,-0.023 C 0.242,-0.152 0.427,-0.3 0.591,-0.469 0.743,-0.622 0.876,-0.793 0.978,-0.984 L 1.012,-1.017 C 1.117,-1.093 1.21,-1.183 1.289,-1.285 1.368,-1.387 1.426,-1.504 1.481,-1.621 L 1.47,-1.39 1.453,-1.224 C 1.429,-1.09 1.399,-0.955 1.329,-0.838 L 1.263,-0.754 C 1.366,-0.748 1.465,-0.8 1.532,-0.876 1.607,-0.962 1.656,-1.067 1.694,-1.175 1.777,-1.416 1.81,-1.669 1.835,-1.921 l 0.018,-0.234 0.041,0.05 c 0.035,0.094 0.038,0.195 0.047,0.293 0.004,0.134 0.004,0.269 -0.023,0.399 L 1.913,-1.375 C 2.058,-1.523 2.15,-1.716 2.194,-1.916 L 2.205,-1.99 2.209,-1.996 2.223,-2.134 C 2.239,-2.422 2.185,-2.709 2.107,-2.985 2.074,-3.106 2.035,-3.226 1.994,-3.343 l -0.028,-0.093 0.07,0.055 0.143,0.237 c 0.036,0.094 0.064,0.193 0.061,0.294 v 0.055 L 2.327,-2.896 C 2.404,-3.007 2.441,-3.143 2.435,-3.276 2.427,-3.453 2.36,-3.621 2.281,-3.775 2.133,-4.06 1.939,-4.315 1.765,-4.581 l -0.017,-0.021 0.213,0.147 c 0.229,0.195 0.432,0.433 0.535,0.72 l 0.008,0.003 C 2.526,-3.826 2.525,-3.924 2.513,-4.019 2.488,-4.162 2.43,-4.297 2.354,-4.42 2.284,-4.531 2.202,-4.634 2.111,-4.729 1.927,-4.921 1.715,-5.086 1.49,-5.229 1.395,-5.291 1.296,-5.348 1.193,-5.397 l 0.05,-0.006 c 0.121,0.005 0.237,0.049 0.359,0.052 L 1.759,-5.38 C 1.677,-5.488 1.561,-5.563 1.445,-5.631 1.311,-5.707 1.17,-5.77 1.027,-5.825 0.709,-5.947 0.377,-6.032 0.041,-6.087 -0.211,-6.129 -0.465,-6.152 -0.719,-6.16 l 0.233,-0.126 c 0.073,-0.06 0.13,-0.143 0.153,-0.235 l 0.006,-0.102 h -1.249 c -0.007,0.103 0.04,0.204 0.106,0.281 0.075,0.085 0.177,0.144 0.286,0.173 -0.269,0.013 -0.54,0.033 -0.805,0.079 -0.243,0.044 -0.486,0.106 -0.701,0.229 -0.111,0.064 -0.212,0.144 -0.293,0.242 l -0.077,0.056 c -0.217,0.124 -0.461,0.193 -0.703,0.249 l 0.185,0.099 c 0.112,0.013 0.224,-0.011 0.329,-0.044 0.093,-0.029 0.184,-0.067 0.272,-0.107 l 0.098,-0.042 c -0.071,0.082 -0.168,0.137 -0.261,0.19 -0.22,0.126 -0.445,0.25 -0.633,0.42 -0.192,0.168 -0.344,0.387 -0.415,0.633 -0.031,0.1 -0.043,0.204 -0.055,0.308 l 0.014,0.001 0.159,-0.212 c 0.168,-0.207 0.354,-0.401 0.575,-0.55 l 0.113,-0.062 c -0.169,0.22 -0.337,0.44 -0.475,0.68 -0.11,0.191 -0.203,0.396 -0.239,0.613 l -0.008,0.269 c 0.017,0.105 0.046,0.21 0.1,0.301 l 0.018,-0.074 c 0.043,-0.18 0.131,-0.346 0.206,-0.515 l 0.013,0.017 0.005,-0.029 -0.011,0.061 C -3.815,-3.18 -3.839,-3 -3.857,-2.819 l 0.007,0.015 -0.02,0.092 -0.009,0.149 c -0.01,0.124 -0.005,0.249 -0.005,0.374 0.009,0.165 0.022,0.334 0.07,0.494 l 0.106,0.188 0.044,-0.08 c 0.06,-0.141 0.08,-0.293 0.096,-0.443 0.014,-0.168 0.005,-0.337 0.007,-0.505 l 0.042,0.202 0.007,0.116 0.011,0.261 0.005,0.186 0.009,0.173 0.007,0.158 0.005,-0.03 c 0.013,0.133 0.041,0.264 0.084,0.391 0.054,0.146 0.141,0.288 0.274,0.375 l 0.135,0.062 c -0.03,-0.116 -0.061,-0.232 -0.08,-0.351 -0.021,-0.104 -0.037,-0.206 -0.06,-0.31 -0.02,-0.095 -0.044,-0.19 -0.069,-0.284 l 0.06,0.091 c 0.068,0.117 0.155,0.225 0.27,0.299 l 0.043,0.03 c 0.107,0.197 0.244,0.376 0.39,0.544 0.132,0.148 0.273,0.289 0.439,0.399 0.086,0.053 0.189,0.108 0.293,0.078 L -1.704,-0.17 c -0.107,-0.146 -0.229,-0.279 -0.358,-0.406 l -0.017,-0.033 c 0.167,0.107 0.345,0.197 0.53,0.27 0.194,0.075 0.397,0.134 0.605,0.14 0.108,-0.001 0.221,-0.017 0.309,-0.082 -0.088,-0.071 -0.19,-0.118 -0.296,-0.155 -0.223,-0.078 -0.458,-0.115 -0.679,-0.199 l -0.117,-0.049 0.11,-0.027 c 0.173,-0.023 0.35,-0.013 0.519,0.033 l 0.1,0.03 c -0.045,-0.114 -0.154,-0.192 -0.269,-0.226 -0.145,-0.045 -0.298,-0.031 -0.447,-0.034 -0.099,-0.004 -0.204,-0.009 -0.293,-0.06 l -0.091,-0.08 c 0.146,-0.031 0.301,-0.025 0.443,0.022 l 0.027,0.006 -0.081,-0.095 C -1.795,-1.175 -1.9,-1.2 -2.003,-1.208 -2.14,-1.209 -2.276,-1.217 -2.41,-1.248 -2.598,-1.292 -2.777,-1.387 -2.903,-1.537 -2.995,-1.644 -3.06,-1.774 -3.105,-1.908 l -0.031,-0.103 0.064,0.073 c 0.097,0.115 0.18,0.243 0.281,0.357 l 0.102,0.094 0.026,0.004 0.037,-0.142 c 0.005,-0.1 -0.033,-0.195 -0.082,-0.278 -0.056,-0.089 -0.128,-0.171 -0.222,-0.22 L -3.065,-2.221 C -3.163,-2.308 -3.25,-2.409 -3.312,-2.524 -3.358,-2.61 -3.396,-2.706 -3.388,-2.806 l 0.01,0.002 0.149,0.241 0.057,0.099 0.02,-0.215 c -0.018,-0.126 -0.073,-0.244 -0.13,-0.356 l -0.071,-0.206 -0.037,-0.269 -0.027,-0.228 0.03,0.048 c 0.063,0.139 0.096,0.289 0.13,0.436 l 0.056,0.226 0.049,-0.262 c 0.035,-0.153 0.089,-0.301 0.118,-0.455 L -3.07,-4.008 C -3.104,-4.092 -3.157,-4.169 -3.169,-4.26 l 0.037,-0.253 0.062,-0.163 0.011,-0.003 c 0.007,0.153 0.013,0.308 -0.018,0.458 l -0.017,0.061 0.104,-0.118 c 0.078,-0.114 0.135,-0.241 0.189,-0.368 l 0.083,-0.212 0.022,0.075 0.018,0.173 0.016,0.005 c 0.082,-0.257 0.214,-0.498 0.383,-0.707 0.149,-0.183 0.334,-0.344 0.557,-0.428 l 0.249,-0.052 0.192,-0.05 0.246,-0.082 -0.01,0.185 -0.011,0.16 -0.007,0.129 -0.009,0.164 -0.011,0.139 -0.004,0.117 -0.011,0.159 -0.008,0.184 -0.088,-0.038 c -0.101,-0.035 -0.207,-0.052 -0.314,-0.049 -0.135,-0.004 -0.272,0.027 -0.386,0.101 -0.088,0.057 -0.158,0.142 -0.195,0.241 -0.036,0.09 -0.051,0.187 -0.049,0.284 l 0.082,-0.07 c 0.092,-0.084 0.197,-0.159 0.319,-0.191 l 0.183,-0.026 c -0.112,0.058 -0.217,0.126 -0.315,0.207 -0.083,0.069 -0.16,0.151 -0.212,0.247 L -2.13,-3.76 c 0.111,-0.078 0.222,-0.158 0.341,-0.223 l 0.147,-0.062 c -0.084,0.102 -0.165,0.211 -0.214,0.335 l -0.025,0.189 0.028,-0.003 c 0.103,-0.049 0.194,-0.122 0.277,-0.198 0.131,-0.116 0.243,-0.252 0.346,-0.392 l -0.004,0.095 -0.007,0.165 -0.004,0.186 c -0.011,0.116 -10e-4,0.234 -0.01,0.351 0,0.103 -0.003,0.205 -0.003,0.307 l -0.077,-0.02 c -0.109,-0.032 -0.234,-0.044 -0.34,0.008 -0.095,0.046 -0.158,0.137 -0.197,0.231 -0.053,0.128 -0.075,0.267 -0.087,0.404 l 0.022,-0.018 0.102,-0.139 0.085,-0.066 0.08,0.019 -0.005,0.021 c -0.097,0.127 -0.143,0.286 -0.16,0.444 l -0.007,0.191 0.018,0.192 c 0.046,-0.165 0.131,-0.32 0.243,-0.45 l 0.138,-0.13 0.008,-0.016 -0.003,0.017 c -0.061,0.087 -0.114,0.18 -0.133,0.284 l 0.018,0.113 0.086,0.017 0.099,-0.071 0.132,-0.189 0.053,-0.2 0.003,-0.221 0.06,0.073 c 0.079,0.115 0.152,0.238 0.183,0.374 l 0.01,0.208 -0.058,0.213 -0.005,0.002 c -0.098,-0.013 -0.203,-0.01 -0.291,0.039 -0.102,0.053 -0.173,0.148 -0.227,0.246 l 0.137,-0.04 0.229,-0.001 0.103,0.134 h -0.007 c -0.1,-0.046 -0.216,-0.076 -0.326,-0.047 -0.092,0.02 -0.17,0.079 -0.236,0.145 v 0.012 l 0.237,0.087 c 0.116,0.004 0.228,-0.031 0.329,-0.085 l 0.036,-0.013 -0.03,0.154 0.006,0.246 0.11,-0.031 c 0.09,-0.04 0.165,-0.119 0.192,-0.217 0.04,-0.142 -0.004,-0.301 -0.097,-0.413 l -0.006,-0.074 c 0.017,-0.138 0.065,-0.271 0.085,-0.408 l 0.012,-0.004 c 0.04,0.135 0.098,0.268 0.201,0.365 0.106,0.106 0.267,0.138 0.41,0.104 l -0.165,-0.17 -0.091,-0.256 0.237,0.112 0.106,0.16 0.029,-0.043 L 0.024,-1.831 0.015,-1.95 C -0.016,-2.054 -0.09,-2.136 -0.171,-2.203 l -0.228,-0.154 c 0.112,-0.011 0.232,0.007 0.327,0.07 l 0.086,0.08 H 0.028 L 0.007,-2.392 -0.176,-2.578 c -0.089,-0.043 -0.188,-0.062 -0.286,-0.062 -0.1,0.002 -0.195,0.034 -0.291,0.057 L -0.891,-2.586 -0.967,-2.72 -1.026,-2.98 c -0.017,-0.091 -0.025,-0.183 -0.032,-0.275 l 0.002,-0.105 0.014,0.033 c 0.037,0.152 0.082,0.304 0.146,0.448 l 0.072,0.13 0.054,0.063 -0.021,-0.129 -0.004,-0.007 -0.005,-0.062 c -0.011,-0.127 0.004,-0.255 0.033,-0.377 l 0.035,0.006 c 0.093,0.053 0.174,0.128 0.239,0.214 0.071,0.098 0.123,0.213 0.132,0.335 l 0.021,-0.007 0.124,-0.17 c 0.029,-0.097 0,-0.2 -0.043,-0.288 -0.069,-0.134 -0.172,-0.246 -0.293,-0.333 0.136,-0.034 0.282,-0.038 0.414,0.012 l 0.199,0.142 0.01,0.002 C 0.077,-3.449 0.063,-3.558 0.002,-3.643 -0.053,-3.721 -0.142,-3.768 -0.232,-3.79 -0.373,-3.823 -0.521,-3.813 -0.661,-3.786 l -0.097,0.019 -0.212,-0.075 -0.051,-0.088 -0.003,-0.089 0.05,-0.166 c 0.069,-0.213 0.081,-0.441 0.134,-0.659 l 0.038,-0.122 c 0.025,0.143 0.052,0.285 0.093,0.426 l 0.073,0.194 0.132,0.162 0.139,0.073 0.063,-0.059 c 0.012,-0.095 -0.027,-0.186 -0.066,-0.269 l -0.003,-0.028 c 0.163,0.096 0.282,0.25 0.369,0.415 l 0.008,0.002 0.031,-0.135 -0.05,-0.257 c -0.072,-0.144 -0.194,-0.255 -0.293,-0.381 l 0.203,0.099 0.123,0.21 0.04,-0.118 -0.024,-0.239 C -0.018,-4.995 -0.127,-5.085 -0.246,-5.144 -0.343,-5.19 -0.451,-5.223 -0.559,-5.21 L -0.634,-5.231 -0.73,-5.355 c -0.048,-0.103 -0.076,-0.217 -0.087,-0.329 l -0.006,-0.226 0.035,0.008 c 0.183,0.076 0.365,0.153 0.556,0.205 0.124,0.035 0.25,0.065 0.376,0.09 l 0.234,0.101 0.149,0.203 c 0.042,0.093 0.062,0.191 0.103,0.284 l 0.157,0.211 0.22,0.236 0.045,0.066 0.014,0.001 0.007,-0.094 -0.025,-0.211 -0.009,-0.051 0.056,0.055 c 0.062,0.076 0.111,0.166 0.131,0.264 0.02,0.097 -0.003,0.199 0.018,0.295 l 0.108,0.19 0.002,0.244 -0.07,0.211 -0.037,0.174 c -0.004,0.12 0.029,0.245 0.107,0.338 L 1.47,-3.014 1.461,-3.139 c 0,-0.194 0.052,-0.39 0.15,-0.557 l 0.112,-0.14 0.012,-0.002 0.009,0.088 -0.008,0.171 c -0.013,0.135 -0.073,0.26 -0.14,0.377 -0.059,0.105 -0.104,0.217 -0.131,0.333 L 1.435,-2.706 1.42,-2.54 1.417,-2.437 1.359,-2.39 C 1.255,-2.307 1.161,-2.211 1.08,-2.105 0.987,-1.979 0.907,-1.833 0.89,-1.674 l 0.008,0.167 0.028,0.089 0.014,0.012 0.154,-0.135 0.096,-0.157 0.09,-0.159 0.19,-0.069 C 1.404,-1.823 1.345,-1.715 1.278,-1.613 1.213,-1.511 1.143,-1.414 1.066,-1.322 L 0.958,-1.307 0.7,-1.373 C 0.591,-1.385 0.479,-1.378 0.375,-1.344 l -0.211,0.132 -0.111,0.108 c 0.114,-0.008 0.23,-0.019 0.344,-0.013 l 0.188,0.027 -0.064,0.036 c -0.197,0.097 -0.42,0.141 -0.639,0.122 l -0.2,-0.028 c -0.121,-0.011 -0.242,0.024 -0.348,0.082 -0.101,0.057 -0.19,0.134 -0.263,0.224 l -0.023,0.033 c 0.087,-0.037 0.174,-0.081 0.269,-0.085 l 0.076,0.013 -0.051,0.063 -0.154,0.158 0.185,-0.03 0.253,0.056 0.248,0.034 L 0.102,-0.56 0.324,-0.765 0.5,-0.845 0.283,-0.66 C 0.187,-0.562 0.107,-0.445 0.064,-0.314 0.029,-0.212 0.015,-0.105 0,0"
         style="fill:#f0b42d;fill-opacity:1;fill-rule:nonzero;stroke:none"
         id="path33594"
         inkscape:connector-curvature="0" />
    </g>
  </g>
</svg>
