<?xml version="1.0" encoding="UTF-8" standalone="no"?>
<!-- Created with Inkscape (http://www.inkscape.org/) -->

<svg
   xmlns:dc="http://purl.org/dc/elements/1.1/"
   xmlns:cc="http://creativecommons.org/ns#"
   xmlns:rdf="http://www.w3.org/1999/02/22-rdf-syntax-ns#"
   xmlns:svg="http://www.w3.org/2000/svg"
   xmlns="http://www.w3.org/2000/svg"
   xmlns:sodipodi="http://sodipodi.sourceforge.net/DTD/sodipodi-0.dtd"
   xmlns:inkscape="http://www.inkscape.org/namespaces/inkscape"
   width="7.084836mm"
   height="4.7328668mm"
   viewBox="0 0 7.084836 4.7328668"
   version="1.1"
   id="svg8"
   inkscape:version="0.92.4 (5da689c313, 2019-01-14)"
   sodipodi:docname="ethiopia.svg">
  <defs
     id="defs2">
    <radialGradient
       id="radialGradient37584"
       spreadMethod="pad"
       gradientTransform="matrix(0.975099,0,0,0.975099,159.64062,365.06934)"
       gradientUnits="userSpaceOnUse"
       r="1"
       cy="0"
       cx="0"
       fy="0"
       fx="0">
      <stop
         id="stop37578"
         offset="0"
         style="stop-opacity:1;stop-color:#852c26" />
      <stop
         id="stop37580"
         offset="0.0015476"
         style="stop-opacity:1;stop-color:#852c26" />
      <stop
         id="stop37582"
         offset="1"
         style="stop-opacity:1;stop-color:#451617" />
    </radialGradient>
    <clipPath
       id="clipPath37532"
       clipPathUnits="userSpaceOnUse">
      <path
         inkscape:connector-curvature="0"
         id="path37530"
         d="M 0,400 H 400 V 0 H 0 Z" />
    </clipPath>
    <radialGradient
       id="radialGradient37522"
       spreadMethod="pad"
       gradientTransform="matrix(-0.2637247,0,0,0.2637247,159.68652,365.88965)"
       gradientUnits="userSpaceOnUse"
       r="1"
       cy="0"
       cx="0"
       fy="0"
       fx="0">
      <stop
         id="stop37516"
         offset="0"
         style="stop-opacity:1;stop-color:#852c26" />
      <stop
         id="stop37518"
         offset="0.0015476"
         style="stop-opacity:1;stop-color:#852c26" />
      <stop
         id="stop37520"
         offset="1"
         style="stop-opacity:1;stop-color:#451617" />
    </radialGradient>
    <clipPath
       id="clipPath37354"
       clipPathUnits="userSpaceOnUse">
      <path
         inkscape:connector-curvature="0"
         id="path37352"
         d="M 0,400 H 400 V 0 H 0 Z" />
    </clipPath>
    <radialGradient
       id="radialGradient37344"
       spreadMethod="pad"
       gradientTransform="matrix(0.975099,0,0,0.975099,155.76025,365.06934)"
       gradientUnits="userSpaceOnUse"
       r="1"
       cy="0"
       cx="0"
       fy="0"
       fx="0">
      <stop
         id="stop37338"
         offset="0"
         style="stop-opacity:1;stop-color:#eee54f" />
      <stop
         id="stop37340"
         offset="0.9977451"
         style="stop-opacity:1;stop-color:#e04a20" />
      <stop
         id="stop37342"
         offset="1"
         style="stop-opacity:1;stop-color:#e04a20" />
    </radialGradient>
    <clipPath
       id="clipPath37272"
       clipPathUnits="userSpaceOnUse">
      <path
         inkscape:connector-curvature="0"
         id="path37270"
         d="M 0,400 H 400 V 0 H 0 Z" />
    </clipPath>
    <radialGradient
       id="radialGradient37262"
       spreadMethod="pad"
       gradientTransform="matrix(0.2636045,0,0,0.2636045,155.71484,365.89062)"
       gradientUnits="userSpaceOnUse"
       r="1"
       cy="0"
       cx="0"
       fy="0"
       fx="0">
      <stop
         id="stop37256"
         offset="0"
         style="stop-opacity:1;stop-color:#eee54f" />
      <stop
         id="stop37258"
         offset="0.9977451"
         style="stop-opacity:1;stop-color:#e04a20" />
      <stop
         id="stop37260"
         offset="1"
         style="stop-opacity:1;stop-color:#e04a20" />
    </radialGradient>
  </defs>
  <sodipodi:namedview
     id="base"
     pagecolor="#ffffff"
     bordercolor="#666666"
     borderopacity="1.0"
     inkscape:pageopacity="0.0"
     inkscape:pageshadow="2"
     inkscape:zoom="11.2"
     inkscape:cx="25.519381"
     inkscape:cy="7.1978991"
     inkscape:document-units="mm"
     inkscape:current-layer="layer1"
     showgrid="false"
     inkscape:window-width="954"
     inkscape:window-height="630"
     inkscape:window-x="-3"
     inkscape:window-y="6"
     inkscape:window-maximized="0" />
  <metadata
     id="metadata5">
    <rdf:RDF>
      <cc:Work
         rdf:about="">
        <dc:format>image/svg+xml</dc:format>
        <dc:type
           rdf:resource="http://purl.org/dc/dcmitype/StillImage" />
        <dc:title></dc:title>
      </cc:Work>
    </rdf:RDF>
  </metadata>
  <g
     inkscape:label="Layer 1"
     inkscape:groupmode="layer"
     id="layer1"
     transform="translate(-57.040513,-95.188214)">
    <g
       id="g2934"
       transform="matrix(0.35277777,0,0,-0.35277777,57.069794,99.8918)">
      <path
         d="M 0,0 H 19.917 V 13.251 H 0 Z M 19.958,-0.042 V 0 Z M -0.083,-0.083 V 13.333 H 20 V -0.042 -0.083 Z"
         style="fill:#221f21;fill-opacity:1;fill-rule:nonzero;stroke:none"
         id="path2936"
         inkscape:connector-curvature="0" />
    </g>
    <path
       d="m 57.055015,99.90658 h 7.05556 v -1.567741 h -7.05556 z"
       style="fill:#d63433;fill-opacity:1;fill-rule:nonzero;stroke:none;stroke-width:0.35277778"
       id="path2938"
       inkscape:connector-curvature="0" />
    <path
       d="m 57.055015,98.338839 h 7.05556 v -1.568097 h -7.05556 z"
       style="fill:#e6cf29;fill-opacity:1;fill-rule:nonzero;stroke:none;stroke-width:0.35277778"
       id="path2940"
       inkscape:connector-curvature="0" />
    <path
       d="m 64.110575,95.202997 h -7.05556 v 1.567745 h 7.05556 z"
       style="fill:#2d6841;fill-opacity:1;fill-rule:nonzero;stroke:none;stroke-width:0.35277778"
       id="path2942"
       inkscape:connector-curvature="0" />
    <g
       id="g2944"
       transform="matrix(0.35277777,0,0,-0.35277777,61.645074,97.554825)">
      <path
         d="m 0,0 c 0,-1.663 -1.348,-3.011 -3.011,-3.011 -1.663,0 -3.01,1.348 -3.01,3.011 0,1.663 1.347,3.011 3.01,3.011 C -1.348,3.011 0,1.663 0,0"
         style="fill:#469fce;fill-opacity:1;fill-rule:nonzero;stroke:none"
         id="path2946"
         inkscape:connector-curvature="0" />
    </g>
    <g
       id="g2948"
       transform="matrix(0.35277777,0,0,-0.35277777,60.564344,98.410065)">
      <path
         d="M 0,0 H 0.104 V 1.312 H 0.001 Z M 1.121,2.126 1.089,2.027 2.338,1.626 2.369,1.721 Z m -3.385,-0.405 0.029,-0.095 1.248,0.401 -0.03,0.099 z M -0.882,1.076 -0.989,0.749 0.051,1.503 1.475,0.471 1.368,0.798 0.226,1.628 0.694,1.97 0.631,2.173 Z m -0.985,1.822 1.039,-0.756 -0.543,-1.672 0.28,0.203 0.439,1.343 0.469,-0.341 0.171,0.127 -1.51,1.096 z M 1.096,2.513 0.863,2.348 0.686,2.898 H 0.472 L 1.048,1.122 1.328,0.919 0.931,2.142 2.354,3.177 H 2.007 Z M -0.097,4.4 -0.49,3.178 -2.249,3.177 -1.974,2.974 h 1.416 L -0.737,2.419 -0.564,2.294 0.016,4.075 Z M 0.661,3.345 0.747,3.286 1.515,4.343 1.432,4.406 Z m -2.072,0.998 0.767,-1.057 0.086,0.058 -0.77,1.062 z M -0.055,4.517 0.051,4.85 0.595,3.178 1.882,3.177 1.604,2.974 h -1.87 l 0.064,0.194 0.007,0.009 h 0.577 z"
         style="fill:#e6cf2a;fill-opacity:1;fill-rule:nonzero;stroke:none"
         id="path2950"
         inkscape:connector-curvature="0" />
    </g>
  </g>
</svg>
