<?xml version="1.0" encoding="UTF-8" standalone="no"?>
<!-- Created with Inkscape (http://www.inkscape.org/) -->

<svg
   xmlns:dc="http://purl.org/dc/elements/1.1/"
   xmlns:cc="http://creativecommons.org/ns#"
   xmlns:rdf="http://www.w3.org/1999/02/22-rdf-syntax-ns#"
   xmlns:svg="http://www.w3.org/2000/svg"
   xmlns="http://www.w3.org/2000/svg"
   xmlns:sodipodi="http://sodipodi.sourceforge.net/DTD/sodipodi-0.dtd"
   xmlns:inkscape="http://www.inkscape.org/namespaces/inkscape"
   width="7.084836mm"
   height="4.7328668mm"
   viewBox="0 0 7.084836 4.7328668"
   version="1.1"
   id="svg8"
   inkscape:version="0.92.4 (5da689c313, 2019-01-14)"
   sodipodi:docname="india.svg">
  <defs
     id="defs2">
    <radialGradient
       id="radialGradient37584"
       spreadMethod="pad"
       gradientTransform="matrix(0.975099,0,0,0.975099,159.64062,365.06934)"
       gradientUnits="userSpaceOnUse"
       r="1"
       cy="0"
       cx="0"
       fy="0"
       fx="0">
      <stop
         id="stop37578"
         offset="0"
         style="stop-opacity:1;stop-color:#852c26" />
      <stop
         id="stop37580"
         offset="0.0015476"
         style="stop-opacity:1;stop-color:#852c26" />
      <stop
         id="stop37582"
         offset="1"
         style="stop-opacity:1;stop-color:#451617" />
    </radialGradient>
    <clipPath
       id="clipPath37532"
       clipPathUnits="userSpaceOnUse">
      <path
         inkscape:connector-curvature="0"
         id="path37530"
         d="M 0,400 H 400 V 0 H 0 Z" />
    </clipPath>
    <radialGradient
       id="radialGradient37522"
       spreadMethod="pad"
       gradientTransform="matrix(-0.2637247,0,0,0.2637247,159.68652,365.88965)"
       gradientUnits="userSpaceOnUse"
       r="1"
       cy="0"
       cx="0"
       fy="0"
       fx="0">
      <stop
         id="stop37516"
         offset="0"
         style="stop-opacity:1;stop-color:#852c26" />
      <stop
         id="stop37518"
         offset="0.0015476"
         style="stop-opacity:1;stop-color:#852c26" />
      <stop
         id="stop37520"
         offset="1"
         style="stop-opacity:1;stop-color:#451617" />
    </radialGradient>
    <clipPath
       id="clipPath37354"
       clipPathUnits="userSpaceOnUse">
      <path
         inkscape:connector-curvature="0"
         id="path37352"
         d="M 0,400 H 400 V 0 H 0 Z" />
    </clipPath>
    <radialGradient
       id="radialGradient37344"
       spreadMethod="pad"
       gradientTransform="matrix(0.975099,0,0,0.975099,155.76025,365.06934)"
       gradientUnits="userSpaceOnUse"
       r="1"
       cy="0"
       cx="0"
       fy="0"
       fx="0">
      <stop
         id="stop37338"
         offset="0"
         style="stop-opacity:1;stop-color:#eee54f" />
      <stop
         id="stop37340"
         offset="0.9977451"
         style="stop-opacity:1;stop-color:#e04a20" />
      <stop
         id="stop37342"
         offset="1"
         style="stop-opacity:1;stop-color:#e04a20" />
    </radialGradient>
    <clipPath
       id="clipPath37272"
       clipPathUnits="userSpaceOnUse">
      <path
         inkscape:connector-curvature="0"
         id="path37270"
         d="M 0,400 H 400 V 0 H 0 Z" />
    </clipPath>
    <radialGradient
       id="radialGradient37262"
       spreadMethod="pad"
       gradientTransform="matrix(0.2636045,0,0,0.2636045,155.71484,365.89062)"
       gradientUnits="userSpaceOnUse"
       r="1"
       cy="0"
       cx="0"
       fy="0"
       fx="0">
      <stop
         id="stop37256"
         offset="0"
         style="stop-opacity:1;stop-color:#eee54f" />
      <stop
         id="stop37258"
         offset="0.9977451"
         style="stop-opacity:1;stop-color:#e04a20" />
      <stop
         id="stop37260"
         offset="1"
         style="stop-opacity:1;stop-color:#e04a20" />
    </radialGradient>
  </defs>
  <sodipodi:namedview
     id="base"
     pagecolor="#ffffff"
     bordercolor="#666666"
     borderopacity="1.0"
     inkscape:pageopacity="0.0"
     inkscape:pageshadow="2"
     inkscape:zoom="11.2"
     inkscape:cx="24.780196"
     inkscape:cy="11.760759"
     inkscape:document-units="mm"
     inkscape:current-layer="layer1"
     showgrid="false"
     inkscape:window-width="954"
     inkscape:window-height="630"
     inkscape:window-x="-3"
     inkscape:window-y="6"
     inkscape:window-maximized="0" />
  <metadata
     id="metadata5">
    <rdf:RDF>
      <cc:Work
         rdf:about="">
        <dc:format>image/svg+xml</dc:format>
        <dc:type
           rdf:resource="http://purl.org/dc/dcmitype/StillImage" />
        <dc:title></dc:title>
      </cc:Work>
    </rdf:RDF>
  </metadata>
  <g
     inkscape:label="Layer 1"
     inkscape:groupmode="layer"
     id="layer1"
     transform="translate(-57.236083,-96.395474)">
    <g
       id="g11746"
       transform="matrix(0.35277777,0,0,-0.35277777,57.265364,101.09906)">
      <path
         d="M 0,0 H 19.917 V 13.25 H 0 Z M 19.958,-0.042 V 0 Z M -0.083,-0.083 V 13.333 H 20 V -0.042 -0.083 Z"
         style="fill:#221f21;fill-opacity:1;fill-rule:nonzero;stroke:none"
         id="path11748"
         inkscape:connector-curvature="0" />
    </g>
    <path
       d="m 57.250547,101.11373 h 7.05556 v -1.567741 h -7.05556 z"
       style="fill:#39883e;fill-opacity:1;fill-rule:nonzero;stroke:none;stroke-width:0.35277778"
       id="path11750"
       inkscape:connector-curvature="0" />
    <path
       d="m 57.250547,99.545989 h 7.05556 v -1.568097 h -7.05556 z"
       style="fill:#ffffff;fill-opacity:1;fill-rule:nonzero;stroke:none;stroke-width:0.35277778"
       id="path11752"
       inkscape:connector-curvature="0" />
    <path
       d="m 64.306107,96.410148 h -7.05556 v 1.567744 h 7.05556 z"
       style="fill:#f68135;fill-opacity:1;fill-rule:nonzero;stroke:none;stroke-width:0.35277778"
       id="path11754"
       inkscape:connector-curvature="0" />
    <g
       id="g11756"
       transform="matrix(0.35277777,0,0,-0.35277777,61.367784,98.544665)">
      <path
         d="m 0,0 -0.104,0.06 0.06,0.104 0.104,-0.06 z"
         style="fill:#2b2c51;fill-opacity:1;fill-rule:nonzero;stroke:none"
         id="path11758"
         inkscape:connector-curvature="0" />
    </g>
    <g
       id="g11760"
       transform="matrix(0.35277777,0,0,-0.35277777,61.403804,98.704544)">
      <path
         d="M 0,0 -0.084,0.085 0,0.169 0.085,0.085 Z"
         style="fill:#2b2c51;fill-opacity:1;fill-rule:nonzero;stroke:none"
         id="path11762"
         inkscape:connector-curvature="0" />
    </g>
    <g
       id="g11764"
       transform="matrix(0.35277777,0,0,-0.35277777,61.397594,98.868515)">
      <path
         d="M 0,0 -0.061,0.104 0.043,0.164 0.104,0.061 Z"
         style="fill:#2b2c51;fill-opacity:1;fill-rule:nonzero;stroke:none"
         id="path11766"
         inkscape:connector-curvature="0" />
    </g>
    <g
       id="g11768"
       transform="matrix(0.35277777,0,0,-0.35277777,61.348665,99.025077)">
      <path
         d="M 0,0 -0.031,0.117 0.085,0.147 0.116,0.031 Z"
         style="fill:#2b2c51;fill-opacity:1;fill-rule:nonzero;stroke:none"
         id="path11770"
         inkscape:connector-curvature="0" />
    </g>
    <g
       id="g11772"
       transform="matrix(0.35277777,0,0,-0.35277777,61.367784,98.544665)">
      <path
         d="m 0,0 -0.104,0.06 0.06,0.104 0.104,-0.06 z"
         style="fill:#2b2c51;fill-opacity:1;fill-rule:nonzero;stroke:none"
         id="path11774"
         inkscape:connector-curvature="0" />
    </g>
    <g
       id="g11776"
       transform="matrix(0.35277777,0,0,-0.35277777,61.403804,98.704544)">
      <path
         d="M 0,0 -0.084,0.085 0,0.169 0.085,0.085 Z"
         style="fill:#2b2c51;fill-opacity:1;fill-rule:nonzero;stroke:none"
         id="path11778"
         inkscape:connector-curvature="0" />
    </g>
    <g
       id="g11780"
       transform="matrix(0.35277777,0,0,-0.35277777,61.397594,98.868515)">
      <path
         d="M 0,0 -0.061,0.104 0.043,0.164 0.104,0.061 Z"
         style="fill:#2b2c51;fill-opacity:1;fill-rule:nonzero;stroke:none"
         id="path11782"
         inkscape:connector-curvature="0" />
    </g>
    <g
       id="g11784"
       transform="matrix(0.35277777,0,0,-0.35277777,61.348665,99.025077)">
      <path
         d="M 0,0 -0.031,0.117 0.085,0.147 0.116,0.031 Z"
         style="fill:#2b2c51;fill-opacity:1;fill-rule:nonzero;stroke:none"
         id="path11786"
         inkscape:connector-curvature="0" />
    </g>
    <g
       id="g11788"
       transform="matrix(0.35277777,0,0,-0.35277777,60.720965,98.136254)">
      <path
         d="M 0,0 -0.085,-0.085 -0.17,0 -0.085,0.084 Z"
         style="fill:#2b2c51;fill-opacity:1;fill-rule:nonzero;stroke:none"
         id="path11790"
         inkscape:connector-curvature="0" />
    </g>
    <g
       id="g11792"
       transform="matrix(0.35277777,0,0,-0.35277777,60.884975,98.142993)">
      <path
         d="m 0,0 -0.104,-0.06 -0.06,0.104 0.103,0.06 z"
         style="fill:#2b2c51;fill-opacity:1;fill-rule:nonzero;stroke:none"
         id="path11794"
         inkscape:connector-curvature="0" />
    </g>
    <g
       id="g11796"
       transform="matrix(0.35277777,0,0,-0.35277777,61.041354,98.191393)">
      <path
         d="m 0,0 -0.116,-0.031 -0.03,0.115 0.115,0.032 z"
         style="fill:#2b2c51;fill-opacity:1;fill-rule:nonzero;stroke:none"
         id="path11798"
         inkscape:connector-curvature="0" />
    </g>
    <path
       d="m 61.180137,98.278812 h -0.0423 v -0.04233 h 0.0423 z"
       style="fill:#2b2c51;fill-opacity:1;fill-rule:nonzero;stroke:none;stroke-width:0.35277778"
       id="path11800"
       inkscape:connector-curvature="0" />
    <g
       id="g11802"
       transform="matrix(0.35277777,0,0,-0.35277777,61.291475,98.399461)">
      <path
         d="M 0,0 -0.116,0.031 -0.085,0.147 0.031,0.116 Z"
         style="fill:#2b2c51;fill-opacity:1;fill-rule:nonzero;stroke:none"
         id="path11804"
         inkscape:connector-curvature="0" />
    </g>
    <g
       id="g11806"
       transform="matrix(0.35277777,0,0,-0.35277777,61.261315,99.163755)">
      <path
         d="M 0,0 V 0.12 H 0.12 V 0 Z"
         style="fill:#2b2c51;fill-opacity:1;fill-rule:nonzero;stroke:none"
         id="path11808"
         inkscape:connector-curvature="0" />
    </g>
    <g
       id="g11810"
       transform="matrix(0.35277777,0,0,-0.35277777,61.140914,99.275021)">
      <path
         d="M 0,0 0.03,0.116 0.146,0.085 0.116,-0.031 Z"
         style="fill:#2b2c51;fill-opacity:1;fill-rule:nonzero;stroke:none"
         id="path11812"
         inkscape:connector-curvature="0" />
    </g>
    <g
       id="g11814"
       transform="matrix(0.35277777,0,0,-0.35277777,60.995534,99.351186)">
      <path
         d="M 0,0 0.061,0.104 0.164,0.043 0.104,-0.06 Z"
         style="fill:#2b2c51;fill-opacity:1;fill-rule:nonzero;stroke:none"
         id="path11816"
         inkscape:connector-curvature="0" />
    </g>
    <g
       id="g11818"
       transform="matrix(0.35277777,0,0,-0.35277777,60.835686,99.387521)">
      <path
         d="M 0,0 0.085,0.084 0.17,0 0.085,-0.084 Z"
         style="fill:#2b2c51;fill-opacity:1;fill-rule:nonzero;stroke:none"
         id="path11820"
         inkscape:connector-curvature="0" />
    </g>
    <g
       id="g11822"
       transform="matrix(0.35277777,0,0,-0.35277777,60.671715,99.381137)">
      <path
         d="M 0,0 0.104,0.061 0.164,-0.043 0.061,-0.104 Z"
         style="fill:#2b2c51;fill-opacity:1;fill-rule:nonzero;stroke:none"
         id="path11824"
         inkscape:connector-curvature="0" />
    </g>
    <g
       id="g11826"
       transform="matrix(0.35277777,0,0,-0.35277777,60.515114,99.332382)">
      <path
         d="M 0,0 0.116,0.031 0.147,-0.084 0.031,-0.116 Z"
         style="fill:#2b2c51;fill-opacity:1;fill-rule:nonzero;stroke:none"
         id="path11828"
         inkscape:connector-curvature="0" />
    </g>
    <path
       d="m 60.376517,99.244717 h 0.0423 v 0.04233 h -0.0423 z"
       style="fill:#2b2c51;fill-opacity:1;fill-rule:nonzero;stroke:none;stroke-width:0.35277778"
       id="path11830"
       inkscape:connector-curvature="0" />
    <g
       id="g11832"
       transform="matrix(0.35277777,0,0,-0.35277777,60.265175,99.124314)">
      <path
         d="M 0,0 0.116,-0.031 0.085,-0.147 -0.031,-0.116 Z"
         style="fill:#2b2c51;fill-opacity:1;fill-rule:nonzero;stroke:none"
         id="path11834"
         inkscape:connector-curvature="0" />
    </g>
    <g
       id="g11836"
       transform="matrix(0.35277777,0,0,-0.35277777,60.188864,98.97911)">
      <path
         d="M 0,0 0.104,-0.06 0.043,-0.164 -0.06,-0.104 Z"
         style="fill:#2b2c51;fill-opacity:1;fill-rule:nonzero;stroke:none"
         id="path11838"
         inkscape:connector-curvature="0" />
    </g>
    <g
       id="g11840"
       transform="matrix(0.35277777,0,0,-0.35277777,60.152534,98.819268)">
      <path
         d="M 0,0 0.085,-0.085 0,-0.169 -0.084,-0.085 Z"
         style="fill:#2b2c51;fill-opacity:1;fill-rule:nonzero;stroke:none"
         id="path11842"
         inkscape:connector-curvature="0" />
    </g>
    <g
       id="g11844"
       transform="matrix(0.35277777,0,0,-0.35277777,60.159056,98.65526)">
      <path
         d="m 0,0 0.061,-0.104 -0.104,-0.06 -0.061,0.103 z"
         style="fill:#2b2c51;fill-opacity:1;fill-rule:nonzero;stroke:none"
         id="path11846"
         inkscape:connector-curvature="0" />
    </g>
    <g
       id="g11848"
       transform="matrix(0.35277777,0,0,-0.35277777,60.207816,98.498699)">
      <path
         d="m 0,0 0.031,-0.116 -0.115,-0.031 -0.032,0.116 z"
         style="fill:#2b2c51;fill-opacity:1;fill-rule:nonzero;stroke:none"
         id="path11850"
         inkscape:connector-curvature="0" />
    </g>
    <g
       id="g11852"
       transform="matrix(0.35277777,0,0,-0.35277777,60.295335,98.36002)">
      <path
         d="M 0,0 V -0.12 H -0.12 V 0 Z"
         style="fill:#2b2c51;fill-opacity:1;fill-rule:nonzero;stroke:none"
         id="path11854"
         inkscape:connector-curvature="0" />
    </g>
    <g
       id="g11856"
       transform="matrix(0.35277777,0,0,-0.35277777,60.415744,98.248755)">
      <path
         d="m 0,0 -0.03,-0.116 -0.116,0.031 0.03,0.116 z"
         style="fill:#2b2c51;fill-opacity:1;fill-rule:nonzero;stroke:none"
         id="path11858"
         inkscape:connector-curvature="0" />
    </g>
    <g
       id="g11860"
       transform="matrix(0.35277777,0,0,-0.35277777,60.561125,98.172272)">
      <path
         d="m 0,0 -0.06,-0.104 -0.104,0.06 0.06,0.104 z"
         style="fill:#2b2c51;fill-opacity:1;fill-rule:nonzero;stroke:none"
         id="path11862"
         inkscape:connector-curvature="0" />
    </g>
    <g
       id="g11864"
       transform="matrix(0.35277777,0,0,-0.35277777,60.765066,98.760001)">
      <path
         d="M 0,0 0.051,0.709 -0.004,1.776 -0.054,0.708 Z"
         style="fill:#2b2c51;fill-opacity:1;fill-rule:nonzero;stroke:none"
         id="path11866"
         inkscape:connector-curvature="0" />
    </g>
    <g
       id="g11868"
       transform="matrix(0.35277777,0,0,-0.35277777,60.765066,98.760001)">
      <path
         d="M 0,0 0.232,0.672 0.455,1.717 0.131,0.698 Z"
         style="fill:#2b2c51;fill-opacity:1;fill-rule:nonzero;stroke:none"
         id="path11870"
         inkscape:connector-curvature="0" />
    </g>
    <g
       id="g11872"
       transform="matrix(0.35277777,0,0,-0.35277777,60.765066,98.760001)">
      <path
         d="M 0,0 0.398,0.588 0.885,1.541 0.308,0.641 Z"
         style="fill:#2b2c51;fill-opacity:1;fill-rule:nonzero;stroke:none"
         id="path11874"
         inkscape:connector-curvature="0" />
    </g>
    <g
       id="g11876"
       transform="matrix(0.35277777,0,0,-0.35277777,60.765066,98.760001)">
      <path
         d="M 0,0 0.538,0.465 1.253,1.26 0.463,0.54 Z"
         style="fill:#2b2c51;fill-opacity:1;fill-rule:nonzero;stroke:none"
         id="path11878"
         inkscape:connector-curvature="0" />
    </g>
    <g
       id="g11880"
       transform="matrix(0.35277777,0,0,-0.35277777,60.765066,98.760001)">
      <path
         d="M 0,0 0.64,0.311 1.536,0.893 0.587,0.401 Z"
         style="fill:#2b2c51;fill-opacity:1;fill-rule:nonzero;stroke:none"
         id="path11882"
         inkscape:connector-curvature="0" />
    </g>
    <g
       id="g11884"
       transform="matrix(0.35277777,0,0,-0.35277777,60.765066,98.760001)">
      <path
         d="M 0,0 0.698,0.135 1.715,0.465 0.671,0.236 Z"
         style="fill:#2b2c51;fill-opacity:1;fill-rule:nonzero;stroke:none"
         id="path11886"
         inkscape:connector-curvature="0" />
    </g>
    <g
       id="g11888"
       transform="matrix(0.35277777,0,0,-0.35277777,60.765066,98.760001)">
      <path
         d="M 0,0 0.709,-0.051 1.777,0.005 0.709,0.055 Z"
         style="fill:#2b2c51;fill-opacity:1;fill-rule:nonzero;stroke:none"
         id="path11890"
         inkscape:connector-curvature="0" />
    </g>
    <g
       id="g11892"
       transform="matrix(0.35277777,0,0,-0.35277777,60.765066,98.760001)">
      <path
         d="M 0,0 0.672,-0.232 1.718,-0.455 0.699,-0.131 Z"
         style="fill:#2b2c51;fill-opacity:1;fill-rule:nonzero;stroke:none"
         id="path11894"
         inkscape:connector-curvature="0" />
    </g>
    <g
       id="g11896"
       transform="matrix(0.35277777,0,0,-0.35277777,60.765066,98.760001)">
      <path
         d="m 0,0 0.589,-0.398 0.953,-0.486 -0.9,0.576 z"
         style="fill:#2b2c51;fill-opacity:1;fill-rule:nonzero;stroke:none"
         id="path11898"
         inkscape:connector-curvature="0" />
    </g>
    <g
       id="g11900"
       transform="matrix(0.35277777,0,0,-0.35277777,60.765066,98.760001)">
      <path
         d="M 0,0 0.466,-0.537 1.26,-1.253 0.54,-0.462 Z"
         style="fill:#2b2c51;fill-opacity:1;fill-rule:nonzero;stroke:none"
         id="path11902"
         inkscape:connector-curvature="0" />
    </g>
    <g
       id="g11904"
       transform="matrix(0.35277777,0,0,-0.35277777,60.765066,98.760001)">
      <path
         d="M 0,0 0.311,-0.64 0.894,-1.536 0.402,-0.587 Z"
         style="fill:#2b2c51;fill-opacity:1;fill-rule:nonzero;stroke:none"
         id="path11906"
         inkscape:connector-curvature="0" />
    </g>
    <g
       id="g11908"
       transform="matrix(0.35277777,0,0,-0.35277777,60.765066,98.760001)">
      <path
         d="m 0,0 0.135,-0.698 0.33,-1.017 -0.229,1.044 z"
         style="fill:#2b2c51;fill-opacity:1;fill-rule:nonzero;stroke:none"
         id="path11910"
         inkscape:connector-curvature="0" />
    </g>
    <g
       id="g11912"
       transform="matrix(0.35277777,0,0,-0.35277777,60.765066,98.760001)">
      <path
         d="m 0,0 -0.05,-0.709 0.056,-1.068 0.049,1.068 z"
         style="fill:#2b2c51;fill-opacity:1;fill-rule:nonzero;stroke:none"
         id="path11914"
         inkscape:connector-curvature="0" />
    </g>
    <g
       id="g11916"
       transform="matrix(0.35277777,0,0,-0.35277777,60.765066,98.760001)">
      <path
         d="m 0,0 -0.231,-0.672 -0.223,-1.046 0.324,1.019 z"
         style="fill:#2b2c51;fill-opacity:1;fill-rule:nonzero;stroke:none"
         id="path11918"
         inkscape:connector-curvature="0" />
    </g>
    <g
       id="g11920"
       transform="matrix(0.35277777,0,0,-0.35277777,60.765066,98.760001)">
      <path
         d="m 0,0 -0.397,-0.589 -0.486,-0.952 0.576,0.9 z"
         style="fill:#2b2c51;fill-opacity:1;fill-rule:nonzero;stroke:none"
         id="path11922"
         inkscape:connector-curvature="0" />
    </g>
    <g
       id="g11924"
       transform="matrix(0.35277777,0,0,-0.35277777,60.765066,98.760001)">
      <path
         d="m 0,0 -0.536,-0.466 -0.716,-0.794 0.79,0.72 z"
         style="fill:#2b2c51;fill-opacity:1;fill-rule:nonzero;stroke:none"
         id="path11926"
         inkscape:connector-curvature="0" />
    </g>
    <g
       id="g11928"
       transform="matrix(0.35277777,0,0,-0.35277777,60.765066,98.760001)">
      <path
         d="m 0,0 -0.639,-0.311 -0.897,-0.583 0.95,0.492 z"
         style="fill:#2b2c51;fill-opacity:1;fill-rule:nonzero;stroke:none"
         id="path11930"
         inkscape:connector-curvature="0" />
    </g>
    <g
       id="g11932"
       transform="matrix(0.35277777,0,0,-0.35277777,60.765066,98.760001)">
      <path
         d="m 0,0 -0.697,-0.135 -1.017,-0.33 1.044,0.229 z"
         style="fill:#2b2c51;fill-opacity:1;fill-rule:nonzero;stroke:none"
         id="path11934"
         inkscape:connector-curvature="0" />
    </g>
    <g
       id="g11936"
       transform="matrix(0.35277777,0,0,-0.35277777,60.765066,98.760001)">
      <path
         d="m 0,0 -0.708,0.051 -1.068,-0.056 1.068,-0.05 z"
         style="fill:#2b2c51;fill-opacity:1;fill-rule:nonzero;stroke:none"
         id="path11938"
         inkscape:connector-curvature="0" />
    </g>
    <g
       id="g11940"
       transform="matrix(0.35277777,0,0,-0.35277777,60.765066,98.760001)">
      <path
         d="M 0,0 -0.671,0.232 -1.717,0.454 -0.698,0.131 Z"
         style="fill:#2b2c51;fill-opacity:1;fill-rule:nonzero;stroke:none"
         id="path11942"
         inkscape:connector-curvature="0" />
    </g>
    <g
       id="g11944"
       transform="matrix(0.35277777,0,0,-0.35277777,60.765066,98.760001)">
      <path
         d="m 0,0 -0.588,0.398 -0.953,0.485 0.9,-0.576 z"
         style="fill:#2b2c51;fill-opacity:1;fill-rule:nonzero;stroke:none"
         id="path11946"
         inkscape:connector-curvature="0" />
    </g>
    <g
       id="g11948"
       transform="matrix(0.35277777,0,0,-0.35277777,60.765066,98.760001)">
      <path
         d="M 0,0 -0.465,0.537 -1.26,1.252 -0.539,0.463 Z"
         style="fill:#2b2c51;fill-opacity:1;fill-rule:nonzero;stroke:none"
         id="path11950"
         inkscape:connector-curvature="0" />
    </g>
    <g
       id="g11952"
       transform="matrix(0.35277777,0,0,-0.35277777,60.765066,98.760001)">
      <path
         d="m 0,0 -0.31,0.639 -0.583,0.897 0.492,-0.95 z"
         style="fill:#2b2c51;fill-opacity:1;fill-rule:nonzero;stroke:none"
         id="path11954"
         inkscape:connector-curvature="0" />
    </g>
    <g
       id="g11956"
       transform="matrix(0.35277777,0,0,-0.35277777,60.765066,98.760001)">
      <path
         d="M 0,0 -0.134,0.698 -0.465,1.715 -0.236,0.67 Z"
         style="fill:#2b2c51;fill-opacity:1;fill-rule:nonzero;stroke:none"
         id="path11958"
         inkscape:connector-curvature="0" />
    </g>
    <g
       id="g11960"
       transform="matrix(0.35277777,0,0,-0.35277777,60.615206,99.370977)">
      <path
         d="M 0,0 C -0.953,0.256 -1.52,1.236 -1.264,2.189 -1.008,3.143 -0.029,3.708 0.925,3.453 1.878,3.197 2.444,2.217 2.188,1.264 1.934,0.311 0.953,-0.255 0,0 M 0.984,3.674 C -0.091,3.963 -1.198,3.324 -1.486,2.249 -1.774,1.172 -1.135,0.066 -0.06,-0.222 1.017,-0.51 2.122,0.128 2.411,1.205 2.699,2.281 2.061,3.386 0.984,3.674"
         style="fill:#2b2c51;fill-opacity:1;fill-rule:nonzero;stroke:none"
         id="path11962"
         inkscape:connector-curvature="0" />
    </g>
    <g
       id="g11964"
       transform="matrix(0.35277777,0,0,-0.35277777,60.900815,98.794783)">
      <path
         d="m 0,0 c -0.052,-0.191 -0.248,-0.305 -0.44,-0.254 -0.192,0.051 -0.305,0.248 -0.254,0.441 0.051,0.191 0.248,0.304 0.44,0.252 C -0.062,0.388 0.051,0.191 0,0"
         style="fill:#2b2c51;fill-opacity:1;fill-rule:nonzero;stroke:none"
         id="path11966"
         inkscape:connector-curvature="0" />
    </g>
    <g
       id="g11968"
       transform="matrix(0.35277777,0,0,-0.35277777,61.041354,98.191393)">
      <path
         d="m 0,0 -0.116,-0.031 -0.03,0.115 0.115,0.032 z"
         style="fill:#2b2c51;fill-opacity:1;fill-rule:nonzero;stroke:none"
         id="path11970"
         inkscape:connector-curvature="0" />
    </g>
    <path
       d="m 61.180137,98.278812 h -0.0423 v -0.04233 h 0.0423 z"
       style="fill:#2b2c51;fill-opacity:1;fill-rule:nonzero;stroke:none;stroke-width:0.35277778"
       id="path11972"
       inkscape:connector-curvature="0" />
    <g
       id="g11974"
       transform="matrix(0.35277777,0,0,-0.35277777,61.291475,98.399461)">
      <path
         d="M 0,0 -0.116,0.031 -0.085,0.147 0.031,0.116 Z"
         style="fill:#2b2c51;fill-opacity:1;fill-rule:nonzero;stroke:none"
         id="path11976"
         inkscape:connector-curvature="0" />
    </g>
    <g
       id="g11978"
       transform="matrix(0.35277777,0,0,-0.35277777,61.261315,99.163755)">
      <path
         d="M 0,0 V 0.12 H 0.12 V 0 Z"
         style="fill:#2b2c51;fill-opacity:1;fill-rule:nonzero;stroke:none"
         id="path11980"
         inkscape:connector-curvature="0" />
    </g>
    <g
       id="g11982"
       transform="matrix(0.35277777,0,0,-0.35277777,61.140914,99.275021)">
      <path
         d="M 0,0 0.03,0.116 0.146,0.085 0.116,-0.031 Z"
         style="fill:#2b2c51;fill-opacity:1;fill-rule:nonzero;stroke:none"
         id="path11984"
         inkscape:connector-curvature="0" />
    </g>
    <g
       id="g11986"
       transform="matrix(0.35277777,0,0,-0.35277777,60.995534,99.351186)">
      <path
         d="M 0,0 0.061,0.104 0.164,0.043 0.104,-0.06 Z"
         style="fill:#2b2c51;fill-opacity:1;fill-rule:nonzero;stroke:none"
         id="path11988"
         inkscape:connector-curvature="0" />
    </g>
    <g
       id="g11990"
       transform="matrix(0.35277777,0,0,-0.35277777,60.835686,99.387521)">
      <path
         d="M 0,0 0.085,0.084 0.17,0 0.085,-0.084 Z"
         style="fill:#2b2c51;fill-opacity:1;fill-rule:nonzero;stroke:none"
         id="path11992"
         inkscape:connector-curvature="0" />
    </g>
    <g
       id="g11994"
       transform="matrix(0.35277777,0,0,-0.35277777,60.671715,99.381137)">
      <path
         d="M 0,0 0.104,0.061 0.164,-0.043 0.061,-0.104 Z"
         style="fill:#2b2c51;fill-opacity:1;fill-rule:nonzero;stroke:none"
         id="path11996"
         inkscape:connector-curvature="0" />
    </g>
    <g
       id="g11998"
       transform="matrix(0.35277777,0,0,-0.35277777,60.515114,99.332382)">
      <path
         d="M 0,0 0.116,0.031 0.147,-0.084 0.031,-0.116 Z"
         style="fill:#2b2c51;fill-opacity:1;fill-rule:nonzero;stroke:none"
         id="path12000"
         inkscape:connector-curvature="0" />
    </g>
    <path
       d="m 60.376517,99.244717 h 0.0423 v 0.04233 h -0.0423 z"
       style="fill:#2b2c51;fill-opacity:1;fill-rule:nonzero;stroke:none;stroke-width:0.35277778"
       id="path12002"
       inkscape:connector-curvature="0" />
    <g
       id="g12004"
       transform="matrix(0.35277777,0,0,-0.35277777,60.265175,99.124314)">
      <path
         d="M 0,0 0.116,-0.031 0.085,-0.147 -0.031,-0.116 Z"
         style="fill:#2b2c51;fill-opacity:1;fill-rule:nonzero;stroke:none"
         id="path12006"
         inkscape:connector-curvature="0" />
    </g>
    <g
       id="g12008"
       transform="matrix(0.35277777,0,0,-0.35277777,60.188864,98.97911)">
      <path
         d="M 0,0 0.104,-0.06 0.043,-0.164 -0.06,-0.104 Z"
         style="fill:#2b2c51;fill-opacity:1;fill-rule:nonzero;stroke:none"
         id="path12010"
         inkscape:connector-curvature="0" />
    </g>
    <g
       id="g12012"
       transform="matrix(0.35277777,0,0,-0.35277777,60.152534,98.819268)">
      <path
         d="M 0,0 0.085,-0.085 0,-0.169 -0.084,-0.085 Z"
         style="fill:#2b2c51;fill-opacity:1;fill-rule:nonzero;stroke:none"
         id="path12014"
         inkscape:connector-curvature="0" />
    </g>
    <g
       id="g12016"
       transform="matrix(0.35277777,0,0,-0.35277777,60.159056,98.65526)">
      <path
         d="m 0,0 0.061,-0.104 -0.104,-0.06 -0.061,0.103 z"
         style="fill:#2b2c51;fill-opacity:1;fill-rule:nonzero;stroke:none"
         id="path12018"
         inkscape:connector-curvature="0" />
    </g>
    <g
       id="g12020"
       transform="matrix(0.35277777,0,0,-0.35277777,60.207816,98.498699)">
      <path
         d="m 0,0 0.031,-0.116 -0.115,-0.031 -0.032,0.116 z"
         style="fill:#2b2c51;fill-opacity:1;fill-rule:nonzero;stroke:none"
         id="path12022"
         inkscape:connector-curvature="0" />
    </g>
    <g
       id="g12024"
       transform="matrix(0.35277777,0,0,-0.35277777,60.295335,98.36002)">
      <path
         d="M 0,0 V -0.12 H -0.12 V 0 Z"
         style="fill:#2b2c51;fill-opacity:1;fill-rule:nonzero;stroke:none"
         id="path12026"
         inkscape:connector-curvature="0" />
    </g>
    <g
       id="g12028"
       transform="matrix(0.35277777,0,0,-0.35277777,60.415744,98.248755)">
      <path
         d="m 0,0 -0.03,-0.116 -0.116,0.031 0.03,0.116 z"
         style="fill:#2b2c51;fill-opacity:1;fill-rule:nonzero;stroke:none"
         id="path12030"
         inkscape:connector-curvature="0" />
    </g>
    <g
       id="g12032"
       transform="matrix(0.35277777,0,0,-0.35277777,60.561125,98.172272)">
      <path
         d="m 0,0 -0.06,-0.104 -0.104,0.06 0.06,0.104 z"
         style="fill:#2b2c51;fill-opacity:1;fill-rule:nonzero;stroke:none"
         id="path12034"
         inkscape:connector-curvature="0" />
    </g>
    <g
       id="g12036"
       transform="matrix(0.35277777,0,0,-0.35277777,60.720965,98.136254)">
      <path
         d="M 0,0 -0.085,-0.085 -0.17,0 -0.085,0.084 Z"
         style="fill:#2b2c51;fill-opacity:1;fill-rule:nonzero;stroke:none"
         id="path12038"
         inkscape:connector-curvature="0" />
    </g>
  </g>
</svg>
