<?xml version="1.0" encoding="UTF-8" standalone="no"?>
<!-- Created with Inkscape (http://www.inkscape.org/) -->

<svg
   xmlns:dc="http://purl.org/dc/elements/1.1/"
   xmlns:cc="http://creativecommons.org/ns#"
   xmlns:rdf="http://www.w3.org/1999/02/22-rdf-syntax-ns#"
   xmlns:svg="http://www.w3.org/2000/svg"
   xmlns="http://www.w3.org/2000/svg"
   xmlns:sodipodi="http://sodipodi.sourceforge.net/DTD/sodipodi-0.dtd"
   xmlns:inkscape="http://www.inkscape.org/namespaces/inkscape"
   width="7.084836mm"
   height="4.7328668mm"
   viewBox="0 0 7.084836 4.7328668"
   version="1.1"
   id="svg8"
   inkscape:version="0.92.4 (5da689c313, 2019-01-14)"
   sodipodi:docname="iran.svg">
  <defs
     id="defs2">
    <radialGradient
       id="radialGradient37584"
       spreadMethod="pad"
       gradientTransform="matrix(0.975099,0,0,0.975099,159.64062,365.06934)"
       gradientUnits="userSpaceOnUse"
       r="1"
       cy="0"
       cx="0"
       fy="0"
       fx="0">
      <stop
         id="stop37578"
         offset="0"
         style="stop-opacity:1;stop-color:#852c26" />
      <stop
         id="stop37580"
         offset="0.0015476"
         style="stop-opacity:1;stop-color:#852c26" />
      <stop
         id="stop37582"
         offset="1"
         style="stop-opacity:1;stop-color:#451617" />
    </radialGradient>
    <clipPath
       id="clipPath37532"
       clipPathUnits="userSpaceOnUse">
      <path
         inkscape:connector-curvature="0"
         id="path37530"
         d="M 0,400 H 400 V 0 H 0 Z" />
    </clipPath>
    <radialGradient
       id="radialGradient37522"
       spreadMethod="pad"
       gradientTransform="matrix(-0.2637247,0,0,0.2637247,159.68652,365.88965)"
       gradientUnits="userSpaceOnUse"
       r="1"
       cy="0"
       cx="0"
       fy="0"
       fx="0">
      <stop
         id="stop37516"
         offset="0"
         style="stop-opacity:1;stop-color:#852c26" />
      <stop
         id="stop37518"
         offset="0.0015476"
         style="stop-opacity:1;stop-color:#852c26" />
      <stop
         id="stop37520"
         offset="1"
         style="stop-opacity:1;stop-color:#451617" />
    </radialGradient>
    <clipPath
       id="clipPath37354"
       clipPathUnits="userSpaceOnUse">
      <path
         inkscape:connector-curvature="0"
         id="path37352"
         d="M 0,400 H 400 V 0 H 0 Z" />
    </clipPath>
    <radialGradient
       id="radialGradient37344"
       spreadMethod="pad"
       gradientTransform="matrix(0.975099,0,0,0.975099,155.76025,365.06934)"
       gradientUnits="userSpaceOnUse"
       r="1"
       cy="0"
       cx="0"
       fy="0"
       fx="0">
      <stop
         id="stop37338"
         offset="0"
         style="stop-opacity:1;stop-color:#eee54f" />
      <stop
         id="stop37340"
         offset="0.9977451"
         style="stop-opacity:1;stop-color:#e04a20" />
      <stop
         id="stop37342"
         offset="1"
         style="stop-opacity:1;stop-color:#e04a20" />
    </radialGradient>
    <clipPath
       id="clipPath37272"
       clipPathUnits="userSpaceOnUse">
      <path
         inkscape:connector-curvature="0"
         id="path37270"
         d="M 0,400 H 400 V 0 H 0 Z" />
    </clipPath>
    <radialGradient
       id="radialGradient37262"
       spreadMethod="pad"
       gradientTransform="matrix(0.2636045,0,0,0.2636045,155.71484,365.89062)"
       gradientUnits="userSpaceOnUse"
       r="1"
       cy="0"
       cx="0"
       fy="0"
       fx="0">
      <stop
         id="stop37256"
         offset="0"
         style="stop-opacity:1;stop-color:#eee54f" />
      <stop
         id="stop37258"
         offset="0.9977451"
         style="stop-opacity:1;stop-color:#e04a20" />
      <stop
         id="stop37260"
         offset="1"
         style="stop-opacity:1;stop-color:#e04a20" />
    </radialGradient>
  </defs>
  <sodipodi:namedview
     id="base"
     pagecolor="#ffffff"
     bordercolor="#666666"
     borderopacity="1.0"
     inkscape:pageopacity="0.0"
     inkscape:pageshadow="2"
     inkscape:zoom="11.2"
     inkscape:cx="24.861097"
     inkscape:cy="10.184468"
     inkscape:document-units="mm"
     inkscape:current-layer="layer1"
     showgrid="false"
     inkscape:window-width="954"
     inkscape:window-height="630"
     inkscape:window-x="-3"
     inkscape:window-y="6"
     inkscape:window-maximized="0" />
  <metadata
     id="metadata5">
    <rdf:RDF>
      <cc:Work
         rdf:about="">
        <dc:format>image/svg+xml</dc:format>
        <dc:type
           rdf:resource="http://purl.org/dc/dcmitype/StillImage" />
        <dc:title></dc:title>
      </cc:Work>
    </rdf:RDF>
  </metadata>
  <g
     inkscape:label="Layer 1"
     inkscape:groupmode="layer"
     id="layer1"
     transform="translate(-57.214677,-95.978414)">
    <g
       id="g2714"
       transform="matrix(0.35277777,0,0,-0.35277777,57.243958,100.682)">
      <path
         d="M 0,0 H 19.917 V 13.251 H 0 Z M 19.959,-0.042 V 0 Z M -0.083,-0.083 V 13.333 H 20 V -0.042 -0.083 Z"
         style="fill:#221f21;fill-opacity:1;fill-rule:nonzero;stroke:none"
         id="path2716"
         inkscape:connector-curvature="0" />
    </g>
    <path
       d="m 57.22932,100.69654 h 7.055561 V 99.12879 H 57.22932 Z"
       style="fill:#cc2128;fill-opacity:1;fill-rule:nonzero;stroke:none;stroke-width:0.35277778"
       id="path2718"
       inkscape:connector-curvature="0" />
    <path
       d="m 57.22932,99.12879 h 7.055561 V 97.560693 H 57.22932 Z"
       style="fill:#ffffff;fill-opacity:1;fill-rule:nonzero;stroke:none;stroke-width:0.35277778"
       id="path2720"
       inkscape:connector-curvature="0" />
    <path
       d="M 64.284881,95.992949 H 57.22932 v 1.567744 h 7.055561 z"
       style="fill:#409f42;fill-opacity:1;fill-rule:nonzero;stroke:none;stroke-width:0.35277778"
       id="path2722"
       inkscape:connector-curvature="0" />
    <g
       id="g2724"
       transform="matrix(0.35277777,0,0,-0.35277777,57.648389,97.463962)">
      <path
         d="M 0,0 H -0.275 V 0.274 H 0.091 V 0.457 H 0.182 V 0.091 H 0.273 V 0.457 H 0.365 V 0.091 H 0.456 V 0.457 H 0.547 V 0 H 0.091 V 0.182 H -0.183 V 0.091 H 0 Z M -1.188,0.365 H 0 V 0.456 H -1.188 Z M -1.004,0 h 0.091 v 0.091 h -0.091 z m -0.184,0 h 0.092 v 0.182 h 0.274 V 0 h 0.456 V 0.274 H -0.64 V 0.182 h 0.183 V 0.091 h -0.274 v 0.183 h -0.457 z"
         style="fill:#ffffff;fill-opacity:1;fill-rule:nonzero;stroke:none"
         id="path2726"
         inkscape:connector-curvature="0" />
    </g>
    <g
       id="g2728"
       transform="matrix(0.35277777,0,0,-0.35277777,58.292628,97.463962)">
      <path
         d="M 0,0 H -0.275 V 0.274 H 0.091 V 0.457 H 0.182 V 0.091 H 0.274 V 0.457 H 0.365 V 0.091 h 0.092 v 0.366 h 0.09 V 0 H 0.091 V 0.183 H -0.182 V 0.091 H 0 Z M -1.187,0.366 H 0 V 0.457 H -1.187 Z M -1.004,0 h 0.091 v 0.091 h -0.091 z m -0.183,0 h 0.091 v 0.183 h 0.274 V 0 h 0.456 V 0.274 H -0.639 V 0.183 h 0.182 V 0.091 H -0.73 v 0.183 h -0.457 z"
         style="fill:#ffffff;fill-opacity:1;fill-rule:nonzero;stroke:none"
         id="path2730"
         inkscape:connector-curvature="0" />
    </g>
    <g
       id="g2732"
       transform="matrix(0.35277777,0,0,-0.35277777,58.937047,97.463962)">
      <path
         d="M 0,0 H -0.274 V 0.274 H 0.091 V 0.457 H 0.183 V 0.091 h 0.09 V 0.457 H 0.365 V 0.091 H 0.456 V 0.457 H 0.548 V 0 H 0.091 V 0.183 H -0.184 V 0.091 H 0 Z M -1.188,0.366 H 0 V 0.457 H -1.188 Z M -1.004,0 h 0.091 v 0.091 h -0.091 z m -0.184,0 h 0.091 v 0.183 h 0.275 V 0 h 0.456 V 0.274 H -0.64 V 0.183 h 0.183 V 0.091 h -0.274 v 0.183 h -0.457 z"
         style="fill:#ffffff;fill-opacity:1;fill-rule:nonzero;stroke:none"
         id="path2734"
         inkscape:connector-curvature="0" />
    </g>
    <g
       id="g2736"
       transform="matrix(0.35277777,0,0,-0.35277777,59.581258,97.463962)">
      <path
         d="M 0,0 H -0.274 V 0.274 H 0.091 V 0.457 H 0.183 V 0.091 H 0.274 V 0.457 H 0.365 V 0.091 H 0.457 V 0.457 H 0.548 V 0 H 0.091 V 0.183 H -0.183 V 0.091 H 0 Z M -1.187,0.366 H 0 V 0.457 H -1.187 Z M -1.004,0 h 0.091 v 0.091 h -0.091 z m -0.183,0 h 0.091 v 0.183 h 0.275 V 0 h 0.455 V 0.274 H -0.639 V 0.183 h 0.182 V 0.091 H -0.73 v 0.183 h -0.457 z"
         style="fill:#ffffff;fill-opacity:1;fill-rule:nonzero;stroke:none"
         id="path2738"
         inkscape:connector-curvature="0" />
    </g>
    <g
       id="g2740"
       transform="matrix(0.35277777,0,0,-0.35277777,60.225849,97.463785)">
      <path
         d="M 0,0 H -0.275 V 0.274 H 0.091 V 0.457 H 0.182 V 0.091 H 0.273 V 0.457 H 0.364 V 0.091 H 0.456 V 0.457 H 0.547 V 0 H 0.091 V 0.183 H -0.184 V 0.091 H 0 Z M -1.188,0.365 H 0 V 0.456 H -1.188 Z M -1.005,0 h 0.091 v 0.091 h -0.091 z m -0.183,0 h 0.091 v 0.183 h 0.275 V 0 h 0.456 V 0.274 H -0.64 V 0.183 h 0.183 V 0.091 h -0.274 v 0.183 h -0.457 z"
         style="fill:#ffffff;fill-opacity:1;fill-rule:nonzero;stroke:none"
         id="path2742"
         inkscape:connector-curvature="0" />
    </g>
    <g
       id="g2744"
       transform="matrix(0.35277777,0,0,-0.35277777,60.870099,97.463785)">
      <path
         d="M 0,0 H -0.275 V 0.274 H 0.091 V 0.457 H 0.182 V 0.091 H 0.273 V 0.457 H 0.365 V 0.091 H 0.456 V 0.457 H 0.547 V 0 H 0.091 V 0.183 H -0.184 V 0.091 H 0 Z M -1.187,0.365 H 0 V 0.456 H -1.187 Z M -1.005,0 h 0.092 v 0.091 h -0.092 z m -0.182,0 h 0.09 v 0.183 h 0.275 V 0 h 0.456 V 0.274 H -0.64 V 0.183 h 0.183 V 0.091 H -0.73 v 0.183 h -0.457 z"
         style="fill:#ffffff;fill-opacity:1;fill-rule:nonzero;stroke:none"
         id="path2746"
         inkscape:connector-curvature="0" />
    </g>
    <g
       id="g2748"
       transform="matrix(0.35277777,0,0,-0.35277777,61.514478,97.463785)">
      <path
         d="M 0,0 H -0.275 V 0.274 H 0.091 V 0.457 H 0.182 V 0.091 H 0.273 V 0.457 H 0.365 V 0.091 H 0.456 V 0.457 H 0.547 V 0 H 0.091 V 0.183 H -0.184 V 0.091 H 0 Z M -1.188,0.365 H 0 V 0.456 H -1.188 Z M -1.006,0 h 0.092 v 0.091 h -0.092 z m -0.182,0 h 0.091 v 0.183 h 0.275 V 0 h 0.456 V 0.274 H -0.64 V 0.183 h 0.183 V 0.091 h -0.274 v 0.183 h -0.457 z"
         style="fill:#ffffff;fill-opacity:1;fill-rule:nonzero;stroke:none"
         id="path2750"
         inkscape:connector-curvature="0" />
    </g>
    <g
       id="g2752"
       transform="matrix(0.35277777,0,0,-0.35277777,62.158717,97.463607)">
      <path
         d="M 0,0 H -0.273 V 0.274 H 0.091 V 0.457 H 0.182 V 0.091 H 0.273 V 0.457 H 0.365 V 0.091 h 0.092 v 0.366 h 0.09 V 0 H 0.091 V 0.183 H -0.184 V 0.091 H 0 Z M -1.187,0.365 H 0 V 0.457 L -1.187,0.456 Z M -1.005,0 h 0.091 v 0.091 h -0.091 z m -0.182,0 h 0.091 v 0.182 l 0.274,0.001 V 0 h 0.456 V 0.274 H -0.639 V 0.183 h 0.182 V 0.091 H -0.73 v 0.183 h -0.457 z"
         style="fill:#ffffff;fill-opacity:1;fill-rule:nonzero;stroke:none"
         id="path2754"
         inkscape:connector-curvature="0" />
    </g>
    <g
       id="g2756"
       transform="matrix(0.35277777,0,0,-0.35277777,62.802787,97.463607)">
      <path
         d="M 0,0 H -0.273 V 0.274 H 0.092 V 0.457 H 0.184 V 0.091 h 0.09 V 0.457 H 0.366 V 0.091 H 0.457 V 0.457 H 0.548 V 0 H 0.092 V 0.183 H -0.182 V 0.091 H 0 Z M -1.187,0.365 H 0 V 0.456 H -1.187 Z M -1.005,0 h 0.091 v 0.091 h -0.091 z m -0.182,0 h 0.091 v 0.183 h 0.275 V 0 h 0.456 V 0.274 H -0.639 V 0.183 h 0.182 V 0.091 H -0.73 v 0.183 h -0.457 z"
         style="fill:#ffffff;fill-opacity:1;fill-rule:nonzero;stroke:none"
         id="path2758"
         inkscape:connector-curvature="0" />
    </g>
    <g
       id="g2760"
       transform="matrix(0.35277777,0,0,-0.35277777,63.447169,97.463607)">
      <path
         d="M 0,0 H -0.274 V 0.274 H 0.092 V 0.457 H 0.183 V 0.091 H 0.274 V 0.457 H 0.366 V 0.091 H 0.457 V 0.457 H 0.548 V 0 H 0.092 V 0.183 H -0.182 V 0.091 H 0 Z M -1.187,0.365 H 0 V 0.456 H -1.187 Z M -1.004,0 h 0.091 v 0.091 h -0.091 z m -0.183,0 h 0.092 v 0.183 h 0.273 V 0 h 0.457 V 0.274 H -0.639 V 0.183 h 0.182 V 0.091 H -0.73 v 0.183 h -0.457 z"
         style="fill:#ffffff;fill-opacity:1;fill-rule:nonzero;stroke:none"
         id="path2762"
         inkscape:connector-curvature="0" />
    </g>
    <g
       id="g2764"
       transform="matrix(0.35277777,0,0,-0.35277777,64.091419,97.463433)">
      <path
         d="M 0,0 H -0.273 V 0.274 H 0.091 V 0.457 H 0.184 V 0.091 H 0.275 V 0.457 H 0.366 V 0.091 H 0.457 V 0.457 H 0.548 V 0 H 0.091 V 0.183 H -0.182 V 0.091 H 0 Z M -1.187,0.365 H 0 V 0.457 L -1.187,0.456 Z M -1.004,0 h 0.09 v 0.091 h -0.09 z m -0.183,0 h 0.092 v 0.182 h 0.274 V 0 h 0.456 V 0.274 H -0.639 V 0.183 h 0.182 V 0.091 H -0.73 V 0.274 L -1.187,0.273 Z"
         style="fill:#ffffff;fill-opacity:1;fill-rule:nonzero;stroke:none"
         id="path2766"
         inkscape:connector-curvature="0" />
    </g>
    <g
       id="g2768"
       transform="matrix(0.35277777,0,0,-0.35277777,57.551409,97.560762)">
      <path
         d="M 0,0 H 0.822 V 0.183 H 0 Z m -0.913,0 h 0.822 v 0.183 h -0.822 z"
         style="fill:#ffffff;fill-opacity:1;fill-rule:nonzero;stroke:none"
         id="path2770"
         inkscape:connector-curvature="0" />
    </g>
    <path
       d="m 58.19558,97.560693 h 0.28999 v -0.06456 h -0.28999 z m -0.32173,0 h 0.28998 v -0.06456 h -0.28998 z"
       style="fill:#ffffff;fill-opacity:1;fill-rule:nonzero;stroke:none;stroke-width:0.35277778"
       id="path2772"
       inkscape:connector-curvature="0" />
    <path
       d="m 58.84011,97.560693 h 0.28998 v -0.06456 h -0.28998 z m -0.32209,0 H 58.808 v -0.06456 h -0.28998 z"
       style="fill:#ffffff;fill-opacity:1;fill-rule:nonzero;stroke:none;stroke-width:0.35277778"
       id="path2774"
       inkscape:connector-curvature="0" />
    <g
       id="g2776"
       transform="matrix(0.35277777,0,0,-0.35277777,59.484457,97.560588)">
      <path
         d="M 0,0 H 0.822 V 0.183 H 0 Z m -0.913,0 h 0.822 v 0.183 h -0.822 z"
         style="fill:#ffffff;fill-opacity:1;fill-rule:nonzero;stroke:none"
         id="path2778"
         inkscape:connector-curvature="0" />
    </g>
    <path
       d="m 60.1288,97.56034 h 0.28999 V 97.49578 H 60.1288 Z m -0.32208,0 h 0.28998 v -0.06456 h -0.28998 z"
       style="fill:#ffffff;fill-opacity:1;fill-rule:nonzero;stroke:none;stroke-width:0.35277778"
       id="path2780"
       inkscape:connector-curvature="0" />
    <path
       d="m 60.77298,97.56034 h 0.28998 v -0.06456 h -0.28998 z m -0.321739,0 h 0.289629 v -0.06456 h -0.289629 z"
       style="fill:#ffffff;fill-opacity:1;fill-rule:nonzero;stroke:none;stroke-width:0.35277778"
       id="path2782"
       inkscape:connector-curvature="0" />
    <path
       d="m 61.4175,97.56034 h 0.289981 V 97.49578 H 61.4175 Z m -0.32208,0 h 0.28998 v -0.06456 h -0.28998 z"
       style="fill:#ffffff;fill-opacity:1;fill-rule:nonzero;stroke:none;stroke-width:0.35277778"
       id="path2784"
       inkscape:connector-curvature="0" />
    <path
       d="m 62.062381,97.56034 h 0.289629 v -0.06421 h -0.289629 z m -0.322441,0 h 0.289631 V 97.49613 H 61.73994 Z"
       style="fill:#ffffff;fill-opacity:1;fill-rule:nonzero;stroke:none;stroke-width:0.35277778"
       id="path2786"
       inkscape:connector-curvature="0" />
    <path
       d="m 62.70655,97.56034 h 0.289631 V 97.49613 H 62.70655 Z m -0.32244,0 h 0.28999 v -0.06421 h -0.28999 z"
       style="fill:#ffffff;fill-opacity:1;fill-rule:nonzero;stroke:none;stroke-width:0.35277778"
       id="path2788"
       inkscape:connector-curvature="0" />
    <path
       d="m 63.35072,97.56034 h 0.289991 V 97.49613 H 63.35072 Z m -0.322439,0 h 0.28999 v -0.06421 h -0.28999 z"
       style="fill:#ffffff;fill-opacity:1;fill-rule:nonzero;stroke:none;stroke-width:0.35277778"
       id="path2790"
       inkscape:connector-curvature="0" />
    <path
       d="m 63.994901,97.56034 h 0.28998 v -0.06456 h -0.28998 z m -0.322091,0 h 0.289981 v -0.06456 l -0.289981,3.52e-4 z"
       style="fill:#ffffff;fill-opacity:1;fill-rule:nonzero;stroke:none;stroke-width:0.35277778"
       id="path2792"
       inkscape:connector-curvature="0" />
    <g
       id="g2794"
       transform="matrix(0.35277777,0,0,-0.35277777,57.647889,99.386493)">
      <path
         d="M 0,0 H -0.273 V 0.274 H 0.093 V 0.457 H 0.184 V 0.091 H 0.275 V 0.457 H 0.366 V 0.091 H 0.457 V 0.457 H 0.549 V 0 H 0.093 V 0.183 H -0.182 V 0.091 H 0 Z M -1.187,0.365 H 0 V 0.456 H -1.187 Z M -1.004,0 h 0.091 v 0.091 h -0.091 z m -0.183,0 h 0.091 v 0.183 h 0.275 V 0 h 0.457 V 0.274 H -0.639 V 0.183 h 0.183 V 0.091 h -0.273 v 0.183 h -0.458 z"
         style="fill:#ffffff;fill-opacity:1;fill-rule:nonzero;stroke:none"
         id="path2796"
         inkscape:connector-curvature="0" />
    </g>
    <g
       id="g2798"
       transform="matrix(0.35277777,0,0,-0.35277777,58.292459,99.386493)">
      <path
         d="M 0,0 H -0.274 V 0.274 H 0.092 V 0.457 H 0.183 V 0.091 H 0.274 V 0.457 H 0.366 V 0.091 H 0.457 V 0.457 H 0.548 V 0 H 0.092 V 0.183 H -0.183 V 0.091 H 0 Z M -1.187,0.365 H 0 V 0.456 H -1.187 Z M -1.005,0 h 0.091 v 0.091 h -0.091 z m -0.182,0 h 0.091 v 0.183 h 0.275 V 0 h 0.456 V 0.274 H -0.639 V 0.183 h 0.182 V 0.091 H -0.73 v 0.183 h -0.457 z"
         style="fill:#ffffff;fill-opacity:1;fill-rule:nonzero;stroke:none"
         id="path2800"
         inkscape:connector-curvature="0" />
    </g>
    <g
       id="g2802"
       transform="matrix(0.35277777,0,0,-0.35277777,58.936698,99.386493)">
      <path
         d="M 0,0 H -0.273 V 0.274 H 0.092 V 0.457 H 0.184 V 0.091 h 0.09 V 0.457 H 0.366 V 0.091 H 0.457 V 0.457 H 0.549 V 0 H 0.092 V 0.183 H -0.183 V 0.091 H 0 Z M -1.187,0.365 H 0 V 0.456 H -1.187 Z M -1.005,0 h 0.092 v 0.091 h -0.092 z m -0.182,0 h 0.091 v 0.183 h 0.275 V 0 h 0.456 V 0.274 H -0.639 V 0.183 h 0.183 V 0.091 H -0.73 v 0.183 h -0.457 z"
         style="fill:#ffffff;fill-opacity:1;fill-rule:nonzero;stroke:none"
         id="path2804"
         inkscape:connector-curvature="0" />
    </g>
    <g
       id="g2806"
       transform="matrix(0.35277777,0,0,-0.35277777,59.581117,99.386493)">
      <path
         d="M 0,0 H -0.274 V 0.274 H 0.092 V 0.457 H 0.183 V 0.091 H 0.275 V 0.457 H 0.366 V 0.091 H 0.457 V 0.457 H 0.548 V 0 H 0.092 V 0.183 H -0.182 V 0.091 H 0 Z M -1.187,0.365 H 0 V 0.456 H -1.187 Z M -1.004,0 h 0.091 v 0.091 h -0.091 z m -0.183,0 h 0.091 v 0.183 h 0.275 V 0 h 0.456 V 0.274 H -0.639 V 0.183 h 0.182 V 0.091 H -0.73 v 0.183 h -0.457 z"
         style="fill:#ffffff;fill-opacity:1;fill-rule:nonzero;stroke:none"
         id="path2808"
         inkscape:connector-curvature="0" />
    </g>
    <g
       id="g2810"
       transform="matrix(0.35277777,0,0,-0.35277777,60.22532,99.386493)">
      <path
         d="M 0,0 H -0.273 V 0.274 H 0.092 V 0.457 H 0.184 V 0.091 H 0.275 V 0.457 H 0.366 V 0.091 H 0.457 V 0.457 H 0.548 V 0 H 0.092 V 0.183 H -0.182 V 0.091 H 0 Z M -1.187,0.365 H 0 V 0.456 H -1.187 Z M -1.003,0 h 0.091 v 0.091 h -0.091 z m -0.184,0 h 0.091 v 0.183 h 0.275 V 0 h 0.456 V 0.274 H -0.639 V 0.183 h 0.183 V 0.091 H -0.73 v 0.183 h -0.457 z"
         style="fill:#ffffff;fill-opacity:1;fill-rule:nonzero;stroke:none"
         id="path2812"
         inkscape:connector-curvature="0" />
    </g>
    <g
       id="g2814"
       transform="matrix(0.35277777,0,0,-0.35277777,60.869739,99.386493)">
      <path
         d="M 0,0 H -0.274 V 0.274 H 0.092 V 0.457 H 0.183 V 0.091 H 0.274 V 0.457 H 0.366 V 0.091 H 0.457 V 0.457 H 0.548 V 0 H 0.092 V 0.183 H -0.183 V 0.091 H 0 Z M -1.187,0.365 H 0 V 0.456 H -1.187 Z M -1.004,0 h 0.091 v 0.091 h -0.091 z m -0.183,0 h 0.091 v 0.183 h 0.275 V 0 h 0.456 V 0.274 H -0.639 V 0.183 h 0.183 V 0.091 h -0.273 v 0.183 h -0.458 z"
         style="fill:#ffffff;fill-opacity:1;fill-rule:nonzero;stroke:none"
         id="path2816"
         inkscape:connector-curvature="0" />
    </g>
    <g
       id="g2818"
       transform="matrix(0.35277777,0,0,-0.35277777,61.514298,99.386493)">
      <path
         d="M 0,0 H -0.274 V 0.274 H 0.092 V 0.457 H 0.183 V 0.091 H 0.274 V 0.457 H 0.365 V 0.091 H 0.456 V 0.457 H 0.547 V 0 H 0.092 V 0.183 H -0.183 V 0.091 H 0 Z M -1.187,0.365 H 0 V 0.456 H -1.187 Z M -1.004,0 h 0.09 v 0.091 h -0.09 z m -0.183,0 h 0.09 v 0.183 h 0.275 V 0 h 0.457 V 0.274 H -0.64 V 0.183 h 0.183 V 0.091 H -0.73 v 0.183 h -0.457 z"
         style="fill:#ffffff;fill-opacity:1;fill-rule:nonzero;stroke:none"
         id="path2820"
         inkscape:connector-curvature="0" />
    </g>
    <g
       id="g2822"
       transform="matrix(0.35277777,0,0,-0.35277777,62.158717,99.386493)">
      <path
         d="M 0,0 H -0.275 V 0.274 H 0.091 V 0.457 H 0.182 V 0.091 H 0.273 V 0.457 H 0.365 V 0.091 h 0.092 v 0.366 h 0.09 V 0 H 0.091 V 0.183 H -0.184 V 0.091 H 0 Z M -1.187,0.365 H 0 V 0.456 H -1.187 Z M -1.004,0 h 0.091 v 0.091 h -0.091 z m -0.183,0 h 0.091 v 0.183 h 0.274 V 0 h 0.456 V 0.274 H -0.639 V 0.183 h 0.182 V 0.091 H -0.73 v 0.183 h -0.457 z"
         style="fill:#ffffff;fill-opacity:1;fill-rule:nonzero;stroke:none"
         id="path2824"
         inkscape:connector-curvature="0" />
    </g>
    <g
       id="g2826"
       transform="matrix(0.35277777,0,0,-0.35277777,62.802967,99.386493)">
      <path
         d="M 0,0 H -0.274 V 0.274 H 0.092 V 0.457 H 0.183 V 0.091 H 0.274 V 0.457 H 0.365 V 0.091 h 0.092 v 0.366 h 0.09 V 0 H 0.092 V 0.183 H -0.183 V 0.091 H 0 Z M -1.187,0.365 H 0 V 0.456 H -1.187 Z M -1.004,0 h 0.091 v 0.091 h -0.091 z m -0.183,0 h 0.091 v 0.183 h 0.274 V 0 h 0.457 V 0.274 H -0.639 V 0.183 h 0.182 V 0.091 H -0.73 v 0.183 h -0.457 z"
         style="fill:#ffffff;fill-opacity:1;fill-rule:nonzero;stroke:none"
         id="path2828"
         inkscape:connector-curvature="0" />
    </g>
    <g
       id="g2830"
       transform="matrix(0.35277777,0,0,-0.35277777,63.447349,99.386493)">
      <path
         d="M 0,0 H -0.274 V 0.274 H 0.091 V 0.457 H 0.183 V 0.091 h 0.09 V 0.457 H 0.365 V 0.091 H 0.457 V 0.457 H 0.548 V 0 H 0.091 V 0.183 H -0.184 V 0.091 H 0 Z M -1.188,0.365 H 0 V 0.456 H -1.188 Z M -1.004,0 h 0.091 v 0.091 h -0.091 z m -0.184,0 h 0.092 v 0.183 h 0.274 V 0 h 0.456 V 0.274 H -0.639 V 0.183 h 0.182 V 0.091 h -0.274 v 0.183 h -0.457 z"
         style="fill:#ffffff;fill-opacity:1;fill-rule:nonzero;stroke:none"
         id="path2832"
         inkscape:connector-curvature="0" />
    </g>
    <g
       id="g2834"
       transform="matrix(0.35277777,0,0,-0.35277777,64.091589,99.386493)">
      <path
         d="M 0,0 H -0.274 V 0.274 H 0.092 V 0.457 H 0.183 V 0.091 H 0.274 V 0.457 H 0.365 V 0.091 H 0.457 V 0.457 H 0.548 V 0 H 0.092 V 0.183 H -0.183 V 0.091 H 0 Z M -1.187,0.365 H 0 V 0.456 H -1.187 Z M -1.004,0 h 0.092 v 0.091 h -0.092 z m -0.183,0 h 0.091 v 0.183 h 0.275 V 0 h 0.456 V 0.274 H -0.639 V 0.183 h 0.182 V 0.091 H -0.73 v 0.183 h -0.457 z"
         style="fill:#ffffff;fill-opacity:1;fill-rule:nonzero;stroke:none"
         id="path2836"
         inkscape:connector-curvature="0" />
    </g>
    <path
       d="m 57.55141,99.193349 h 0.28998 v -0.06456 h -0.28998 z m -0.32209,0 h 0.28999 v -0.06456 h -0.28999 z"
       style="fill:#ffffff;fill-opacity:1;fill-rule:nonzero;stroke:none;stroke-width:0.35277778"
       id="path2838"
       inkscape:connector-curvature="0" />
    <path
       d="m 58.19558,99.193349 h 0.28999 v -0.06456 h -0.28999 z m -0.32173,0 h 0.28998 v -0.06456 h -0.28998 z"
       style="fill:#ffffff;fill-opacity:1;fill-rule:nonzero;stroke:none;stroke-width:0.35277778"
       id="path2840"
       inkscape:connector-curvature="0" />
    <path
       d="m 58.84011,99.193349 h 0.28998 v -0.06456 h -0.28998 z m -0.32209,0 H 58.808 v -0.06456 h -0.28998 z"
       style="fill:#ffffff;fill-opacity:1;fill-rule:nonzero;stroke:none;stroke-width:0.35277778"
       id="path2842"
       inkscape:connector-curvature="0" />
    <path
       d="m 59.48463,99.193349 h 0.28999 v -0.06456 h -0.28999 z m -0.32244,0 h 0.28999 v -0.06456 h -0.28999 z"
       style="fill:#ffffff;fill-opacity:1;fill-rule:nonzero;stroke:none;stroke-width:0.35277778"
       id="path2844"
       inkscape:connector-curvature="0" />
    <path
       d="m 60.1288,99.193349 h 0.28999 v -0.06456 H 60.1288 Z m -0.32208,0 h 0.28998 v -0.06456 h -0.28998 z"
       style="fill:#ffffff;fill-opacity:1;fill-rule:nonzero;stroke:none;stroke-width:0.35277778"
       id="path2846"
       inkscape:connector-curvature="0" />
    <path
       d="m 60.77298,99.193349 h 0.28998 v -0.06456 h -0.28998 z m -0.321739,0 h 0.289629 v -0.06456 h -0.289629 z"
       style="fill:#ffffff;fill-opacity:1;fill-rule:nonzero;stroke:none;stroke-width:0.35277778"
       id="path2848"
       inkscape:connector-curvature="0" />
    <path
       d="m 61.4175,99.193349 h 0.289981 v -0.06456 H 61.4175 Z m -0.32208,0 h 0.28998 v -0.06456 h -0.28998 z"
       style="fill:#ffffff;fill-opacity:1;fill-rule:nonzero;stroke:none;stroke-width:0.35277778"
       id="path2850"
       inkscape:connector-curvature="0" />
    <path
       d="m 62.06167,99.193349 h 0.289991 v -0.06456 H 62.06167 Z m -0.32173,0 h 0.28998 v -0.06456 h -0.28998 z"
       style="fill:#ffffff;fill-opacity:1;fill-rule:nonzero;stroke:none;stroke-width:0.35277778"
       id="path2852"
       inkscape:connector-curvature="0" />
    <path
       d="m 62.7062,99.193349 h 0.289631 v -0.06456 H 62.7062 Z m -0.32209,0 h 0.28999 v -0.06456 h -0.28999 z"
       style="fill:#ffffff;fill-opacity:1;fill-rule:nonzero;stroke:none;stroke-width:0.35277778"
       id="path2854"
       inkscape:connector-curvature="0" />
    <path
       d="m 63.35072,99.193349 h 0.289991 v -0.06456 H 63.35072 Z m -0.322439,0 h 0.28999 v -0.06456 h -0.28999 z"
       style="fill:#ffffff;fill-opacity:1;fill-rule:nonzero;stroke:none;stroke-width:0.35277778"
       id="path2856"
       inkscape:connector-curvature="0" />
    <path
       d="m 63.994901,99.193349 h 0.28998 v -0.06456 h -0.28998 z m -0.322091,0 h 0.289981 v -0.06456 H 63.67281 Z"
       style="fill:#ffffff;fill-opacity:1;fill-rule:nonzero;stroke:none;stroke-width:0.35277778"
       id="path2858"
       inkscape:connector-curvature="0" />
    <g
       id="g2860"
       transform="matrix(0.35277777,0,0,-0.35277777,60.927458,97.658095)">
      <path
         d="M 0,0 0.007,-0.038 C 0.02,-0.137 -0.024,-0.241 -0.105,-0.301 l -0.213,-0.054 -0.165,0.083 -0.165,-0.083 -0.207,0.05 C -0.95,-0.239 -0.998,-0.112 -0.966,0 l 0.049,-0.062 0.21,-0.094 0.225,0.065 0.105,-0.053 0.244,0.023 z"
         style="fill:#cc2128;fill-opacity:1;fill-rule:nonzero;stroke:none"
         id="path2862"
         inkscape:connector-curvature="0" />
    </g>
    <g
       id="g2864"
       transform="matrix(0.35277777,0,0,-0.35277777,60.671838,97.844115)">
      <path
         d="M 0,0 0.242,0.196 0.484,0 C 0.479,-0.261 0.477,-0.52 0.472,-0.78 0.472,-0.891 0.468,-1.001 0.467,-1.112 0.463,-1.411 0.458,-1.709 0.455,-2.007 0.452,-2.124 0.453,-2.241 0.449,-2.356 0.448,-2.45 0.448,-2.541 0.445,-2.634 l 0.074,0.058 c 0.139,0.115 0.262,0.25 0.363,0.398 0.166,0.243 0.277,0.523 0.321,0.814 0.054,0.354 0.009,0.721 -0.131,1.051 C 1.014,-0.17 0.936,-0.036 0.846,0.089 1.031,-0.057 1.185,-0.24 1.299,-0.445 1.452,-0.721 1.533,-1.037 1.528,-1.353 1.525,-1.806 1.342,-2.255 1.029,-2.583 0.9,-2.719 0.748,-2.834 0.583,-2.925 0.861,-3.021 1.16,-3.051 1.45,-3.019 1.338,-3.062 1.222,-3.097 1.104,-3.119 0.885,-3.16 0.659,-3.158 0.439,-3.118 L 0.432,-3.146 0.242,-3.365 H 0.241 l -0.192,0.222 -0.005,0.025 -0.068,-0.011 c -0.316,-0.048 -0.646,-0.008 -0.943,0.11 0.133,-0.013 0.266,-0.016 0.398,-0.005 0.159,0.014 0.316,0.047 0.467,0.099 l -0.115,0.07 c -0.253,0.163 -0.464,0.392 -0.608,0.657 -0.154,0.284 -0.231,0.61 -0.218,0.932 0.008,0.29 0.09,0.577 0.232,0.829 0.114,0.203 0.268,0.382 0.448,0.527 L -0.412,0.019 c -0.179,-0.269 -0.291,-0.582 -0.322,-0.904 -0.034,-0.364 0.035,-0.737 0.2,-1.063 0.133,-0.269 0.33,-0.506 0.571,-0.686 L 0.035,-2.4 C 0.031,-2.298 0.033,-2.196 0.029,-2.094 0.025,-1.793 0.021,-1.492 0.017,-1.191 0.016,-1.079 0.012,-0.967 0.012,-0.854 0.008,-0.569 0.004,-0.284 0,0"
         style="fill:#cc2128;fill-opacity:1;fill-rule:nonzero;stroke:none"
         id="path2866"
         inkscape:connector-curvature="0" />
    </g>
    <g
       id="g2868"
       transform="matrix(0.35277777,0,0,-0.35277777,60.219639,97.933015)">
      <path
         d="M 0,0 C 0.19,0.191 0.432,0.332 0.692,0.402 L 0.633,0.356 C 0.416,0.185 0.235,-0.032 0.108,-0.277 c -0.132,-0.252 -0.207,-0.535 -0.22,-0.82 -0.018,-0.364 0.07,-0.733 0.251,-1.051 0.063,-0.111 0.137,-0.216 0.22,-0.314 l -0.12,0.069 c -0.257,0.171 -0.461,0.42 -0.577,0.706 -0.071,0.174 -0.111,0.361 -0.116,0.548 v 0.085 c 0.003,0.128 0.023,0.256 0.058,0.379 C -0.324,-0.421 -0.187,-0.187 0,0"
         style="fill:#cc2128;fill-opacity:1;fill-rule:nonzero;stroke:none"
         id="path2870"
         inkscape:connector-curvature="0" />
    </g>
    <g
       id="g2872"
       transform="matrix(0.35277777,0,0,-0.35277777,61.049409,97.791233)">
      <path
         d="m 0,0 0.074,-0.021 c 0.16,-0.052 0.31,-0.129 0.444,-0.228 0.204,-0.151 0.37,-0.352 0.479,-0.582 0.095,-0.196 0.146,-0.412 0.152,-0.63 V -1.536 L 1.13,-1.737 C 1.104,-1.913 1.045,-2.084 0.96,-2.24 0.818,-2.504 0.597,-2.725 0.333,-2.866 c 0.163,0.19 0.29,0.409 0.37,0.646 0.081,0.233 0.115,0.483 0.104,0.729 C 0.792,-1.204 0.714,-0.92 0.58,-0.667 0.441,-0.404 0.241,-0.174 0,0"
         style="fill:#cc2128;fill-opacity:1;fill-rule:nonzero;stroke:none"
         id="path2874"
         inkscape:connector-curvature="0" />
    </g>
  </g>
</svg>
