<?xml version="1.0" encoding="UTF-8" standalone="no"?>
<!-- Created with Inkscape (http://www.inkscape.org/) -->

<svg
   xmlns:dc="http://purl.org/dc/elements/1.1/"
   xmlns:cc="http://creativecommons.org/ns#"
   xmlns:rdf="http://www.w3.org/1999/02/22-rdf-syntax-ns#"
   xmlns:svg="http://www.w3.org/2000/svg"
   xmlns="http://www.w3.org/2000/svg"
   xmlns:sodipodi="http://sodipodi.sourceforge.net/DTD/sodipodi-0.dtd"
   xmlns:inkscape="http://www.inkscape.org/namespaces/inkscape"
   width="7.084836mm"
   height="4.7328668mm"
   viewBox="0 0 7.084836 4.7328668"
   version="1.1"
   id="svg8"
   inkscape:version="0.92.4 (5da689c313, 2019-01-14)"
   sodipodi:docname="iraq.svg">
  <defs
     id="defs2">
    <radialGradient
       id="radialGradient37584"
       spreadMethod="pad"
       gradientTransform="matrix(0.975099,0,0,0.975099,159.64062,365.06934)"
       gradientUnits="userSpaceOnUse"
       r="1"
       cy="0"
       cx="0"
       fy="0"
       fx="0">
      <stop
         id="stop37578"
         offset="0"
         style="stop-opacity:1;stop-color:#852c26" />
      <stop
         id="stop37580"
         offset="0.0015476"
         style="stop-opacity:1;stop-color:#852c26" />
      <stop
         id="stop37582"
         offset="1"
         style="stop-opacity:1;stop-color:#451617" />
    </radialGradient>
    <clipPath
       id="clipPath37532"
       clipPathUnits="userSpaceOnUse">
      <path
         inkscape:connector-curvature="0"
         id="path37530"
         d="M 0,400 H 400 V 0 H 0 Z" />
    </clipPath>
    <radialGradient
       id="radialGradient37522"
       spreadMethod="pad"
       gradientTransform="matrix(-0.2637247,0,0,0.2637247,159.68652,365.88965)"
       gradientUnits="userSpaceOnUse"
       r="1"
       cy="0"
       cx="0"
       fy="0"
       fx="0">
      <stop
         id="stop37516"
         offset="0"
         style="stop-opacity:1;stop-color:#852c26" />
      <stop
         id="stop37518"
         offset="0.0015476"
         style="stop-opacity:1;stop-color:#852c26" />
      <stop
         id="stop37520"
         offset="1"
         style="stop-opacity:1;stop-color:#451617" />
    </radialGradient>
    <clipPath
       id="clipPath37354"
       clipPathUnits="userSpaceOnUse">
      <path
         inkscape:connector-curvature="0"
         id="path37352"
         d="M 0,400 H 400 V 0 H 0 Z" />
    </clipPath>
    <radialGradient
       id="radialGradient37344"
       spreadMethod="pad"
       gradientTransform="matrix(0.975099,0,0,0.975099,155.76025,365.06934)"
       gradientUnits="userSpaceOnUse"
       r="1"
       cy="0"
       cx="0"
       fy="0"
       fx="0">
      <stop
         id="stop37338"
         offset="0"
         style="stop-opacity:1;stop-color:#eee54f" />
      <stop
         id="stop37340"
         offset="0.9977451"
         style="stop-opacity:1;stop-color:#e04a20" />
      <stop
         id="stop37342"
         offset="1"
         style="stop-opacity:1;stop-color:#e04a20" />
    </radialGradient>
    <clipPath
       id="clipPath37272"
       clipPathUnits="userSpaceOnUse">
      <path
         inkscape:connector-curvature="0"
         id="path37270"
         d="M 0,400 H 400 V 0 H 0 Z" />
    </clipPath>
    <radialGradient
       id="radialGradient37262"
       spreadMethod="pad"
       gradientTransform="matrix(0.2636045,0,0,0.2636045,155.71484,365.89062)"
       gradientUnits="userSpaceOnUse"
       r="1"
       cy="0"
       cx="0"
       fy="0"
       fx="0">
      <stop
         id="stop37256"
         offset="0"
         style="stop-opacity:1;stop-color:#eee54f" />
      <stop
         id="stop37258"
         offset="0.9977451"
         style="stop-opacity:1;stop-color:#e04a20" />
      <stop
         id="stop37260"
         offset="1"
         style="stop-opacity:1;stop-color:#e04a20" />
    </radialGradient>
  </defs>
  <sodipodi:namedview
     id="base"
     pagecolor="#ffffff"
     bordercolor="#666666"
     borderopacity="1.0"
     inkscape:pageopacity="0.0"
     inkscape:pageshadow="2"
     inkscape:zoom="11.2"
     inkscape:cx="22.446193"
     inkscape:cy="6.3606092"
     inkscape:document-units="mm"
     inkscape:current-layer="layer1"
     showgrid="false"
     inkscape:window-width="954"
     inkscape:window-height="630"
     inkscape:window-x="-3"
     inkscape:window-y="6"
     inkscape:window-maximized="0" />
  <metadata
     id="metadata5">
    <rdf:RDF>
      <cc:Work
         rdf:about="">
        <dc:format>image/svg+xml</dc:format>
        <dc:type
           rdf:resource="http://purl.org/dc/dcmitype/StillImage" />
        <dc:title></dc:title>
      </cc:Work>
    </rdf:RDF>
  </metadata>
  <g
     inkscape:label="Layer 1"
     inkscape:groupmode="layer"
     id="layer1"
     transform="translate(-57.85362,-94.966685)">
    <g
       id="g14578"
       transform="matrix(0.35277777,0,0,-0.35277777,57.882901,99.670271)">
      <path
         d="M 0,0 H 19.917 L 19.916,13.25 H 0 Z M 19.958,-0.042 V 0 Z M -0.083,-0.083 V 13.333 H 20 V -0.042 -0.083 Z"
         style="fill:#221f21;fill-opacity:1;fill-rule:nonzero;stroke:none"
         id="path14580"
         inkscape:connector-curvature="0" />
    </g>
    <path
       d="m 57.868363,99.685301 h 7.05556 v -1.568099 h -7.05556 z"
       style="fill:#0e0f0e;fill-opacity:1;fill-rule:nonzero;stroke:none;stroke-width:0.35277778"
       id="path14582"
       inkscape:connector-curvature="0" />
    <path
       d="m 57.868363,98.117202 h 7.05556 v -1.568097 h -7.05556 z"
       style="fill:#ffffff;fill-opacity:1;fill-rule:nonzero;stroke:none;stroke-width:0.35277778"
       id="path14584"
       inkscape:connector-curvature="0" />
    <path
       d="m 64.923923,94.981361 h -7.05556 v 1.567744 h 7.05556 z"
       style="fill:#c12131;fill-opacity:1;fill-rule:nonzero;stroke:none;stroke-width:0.35277778"
       id="path14586"
       inkscape:connector-curvature="0" />
    <g
       id="g14588"
       transform="matrix(0.35277777,0,0,-0.35277777,62.023032,97.552051)">
      <path
         d="M 0,0 C 0,0.163 0.278,0.312 0.243,0.083 0.289,-0.112 0,-0.028 0,0 M 1.529,1.977 1.202,1.652 1.289,1.545 V 1.325 0.283 c 0,-0.174 0.073,-0.319 -0.122,-0.313 -0.18,0.006 -0.122,0.077 -0.122,0.256 0,0.197 0.097,1.241 -0.014,1.302 L 0.695,1.173 0.763,0.992 c 0.01,-0.32 0.003,-0.641 0.003,-0.962 0,-0.101 -0.097,-0.06 -0.182,-0.06 -0.114,0 -0.062,0.183 -0.062,0.28 0,0.113 0.006,0.836 -0.013,0.836 L 0.191,0.711 0.235,0.416 C -0.136,0.47 -0.263,0.242 -0.275,-0.086 l -0.008,-0.223 c 0.164,0 1.85,-0.063 1.85,0 0,0.23 -0.024,2.289 -0.038,2.286"
         style="fill:#3b9e4c;fill-opacity:1;fill-rule:nonzero;stroke:none"
         id="path14590"
         inkscape:connector-curvature="0" />
    </g>
    <g
       id="g14592"
       transform="matrix(0.35277777,0,0,-0.35277777,62.64367,97.341549)">
      <path
         d="M 0,0 C 0,0.095 -0.079,0.854 0.02,0.917 0.042,0.932 0.434,0.646 0.324,0.55 0.211,0.452 0.279,0.059 0.279,-0.062 V -0.61 c 0,-0.101 0.487,0.06 0.483,0.065 L 0.699,-0.8 C 0.628,-0.91 0.702,-0.896 0.517,-0.898 0.344,-0.9 0.172,-0.903 0,-0.906 V 0"
         style="fill:#3b9e4c;fill-opacity:1;fill-rule:nonzero;stroke:none"
         id="path14594"
         inkscape:connector-curvature="0" />
    </g>
    <g
       id="g14596"
       transform="matrix(0.35277777,0,0,-0.35277777,62.16015,97.007364)">
      <path
         d="M 0,0 -0.083,0.062 0.176,0.076 0.311,0.194 0.461,0.145 C 0.56,0.126 0.578,0.312 0.604,0.308 0.74,0.284 0.615,0.059 0.505,0.057 0.34,0.055 0.159,-0.058 0,0"
         style="fill:#3b9e4c;fill-opacity:1;fill-rule:nonzero;stroke:none"
         id="path14598"
         inkscape:connector-curvature="0" />
    </g>
    <g
       id="g14600"
       transform="matrix(0.35277777,0,0,-0.35277777,62.23455,96.905904)">
      <path
         d="M 0,0 C -0.037,0.025 -0.209,0.263 -0.102,0.279 0.025,0.297 0.02,-0.014 0,0"
         style="fill:#3b9e4c;fill-opacity:1;fill-rule:nonzero;stroke:none"
         id="path14602"
         inkscape:connector-curvature="0" />
    </g>
    <g
       id="g14604"
       transform="matrix(0.35277777,0,0,-0.35277777,59.953921,97.816105)">
      <path
         d="M 0,0 -0.214,0.197 C -0.13,0.009 0.254,0.209 0.281,0.369 0.308,0.529 0.042,0.734 0.205,0.809 0.407,0.897 0.381,1.136 0.498,0.786 0.543,0.65 0.733,0.703 0.859,0.705 0.817,0.807 0.711,0.891 0.818,0.967 L 1.105,1.26 c 0.109,0 -0.149,-0.555 0.151,-0.555 h 0.938 0.73 c 0.399,0 0.365,-0.03 0.365,0.375 0,0.116 0.079,0.492 -0.121,0.494 C 2.964,1.576 3.046,1.062 3.046,0.942 L 1.224,0.919 c 0,0.2 0.472,0.645 0.604,0.82 0.108,0.14 0.215,0.282 0.32,0.425 0.083,0.111 0.397,0.691 0.538,0.709 -0.017,-0.001 0.2,-0.394 0.03,-0.4 L 2.572,2.33 C 2.311,2.004 1.881,1.593 1.729,1.204 1.787,1.334 2.639,1.068 2.768,1.19 2.85,1.268 2.7,1.516 2.813,1.612 2.889,1.676 3.123,1.905 3.221,1.84 3.596,1.592 3.566,1.504 3.566,1.065 3.566,0.96 3.598,0.426 3.539,0.426 H 1.902 0.77 C 0.678,0.426 0.562,0.467 0.536,0.371 0.468,0.118 0.299,-0.11 0,0"
         style="fill:#3b9e4c;fill-opacity:1;fill-rule:nonzero;stroke:none"
         id="path14606"
         inkscape:connector-curvature="0" />
    </g>
    <g
       id="g14608"
       transform="matrix(0.35277777,0,0,-0.35277777,61.279582,97.347758)">
      <path
         d="M 0,0 C 0,0.095 -0.079,0.852 0.019,0.913 0.051,0.933 0.422,0.644 0.319,0.545 0.211,0.442 0.277,0.061 0.277,-0.061 c -0.001,-0.168 0,-0.336 0,-0.503 0,-0.166 0.376,-0.006 0.469,0.015 L 0.696,-0.797 C 0.623,-0.906 0.7,-0.893 0.514,-0.895 0.343,-0.896 0.171,-0.899 0,-0.902 V 0"
         style="fill:#3b9e4c;fill-opacity:1;fill-rule:nonzero;stroke:none"
         id="path14610"
         inkscape:connector-curvature="0" />
    </g>
    <g
       id="g14612"
       transform="matrix(0.35277777,0,0,-0.35277777,60.3177,97.798714)">
      <path
         d="m 0,0 c 0,-0.102 -0.083,-0.185 -0.186,-0.185 -0.102,0 -0.185,0.083 -0.185,0.185 0,0.103 0.083,0.186 0.185,0.186 C -0.083,0.186 0,0.103 0,0"
         style="fill:#3b9e4c;fill-opacity:1;fill-rule:nonzero;stroke:none"
         id="path14614"
         inkscape:connector-curvature="0" />
    </g>
  </g>
</svg>
