<?xml version="1.0" encoding="UTF-8" standalone="no"?>
<!-- Created with Inkscape (http://www.inkscape.org/) -->

<svg
   xmlns:dc="http://purl.org/dc/elements/1.1/"
   xmlns:cc="http://creativecommons.org/ns#"
   xmlns:rdf="http://www.w3.org/1999/02/22-rdf-syntax-ns#"
   xmlns:svg="http://www.w3.org/2000/svg"
   xmlns="http://www.w3.org/2000/svg"
   xmlns:sodipodi="http://sodipodi.sourceforge.net/DTD/sodipodi-0.dtd"
   xmlns:inkscape="http://www.inkscape.org/namespaces/inkscape"
   width="7.0851898mm"
   height="4.7329068mm"
   viewBox="0 0 7.0851898 4.7329069"
   version="1.1"
   id="svg8"
   inkscape:version="0.92.4 (5da689c313, 2019-01-14)"
   sodipodi:docname="kazakhstan.svg">
  <defs
     id="defs2">
    <radialGradient
       id="radialGradient37584"
       spreadMethod="pad"
       gradientTransform="matrix(0.975099,0,0,0.975099,159.64062,365.06934)"
       gradientUnits="userSpaceOnUse"
       r="1"
       cy="0"
       cx="0"
       fy="0"
       fx="0">
      <stop
         id="stop37578"
         offset="0"
         style="stop-opacity:1;stop-color:#852c26" />
      <stop
         id="stop37580"
         offset="0.0015476"
         style="stop-opacity:1;stop-color:#852c26" />
      <stop
         id="stop37582"
         offset="1"
         style="stop-opacity:1;stop-color:#451617" />
    </radialGradient>
    <clipPath
       id="clipPath37532"
       clipPathUnits="userSpaceOnUse">
      <path
         inkscape:connector-curvature="0"
         id="path37530"
         d="M 0,400 H 400 V 0 H 0 Z" />
    </clipPath>
    <radialGradient
       id="radialGradient37522"
       spreadMethod="pad"
       gradientTransform="matrix(-0.2637247,0,0,0.2637247,159.68652,365.88965)"
       gradientUnits="userSpaceOnUse"
       r="1"
       cy="0"
       cx="0"
       fy="0"
       fx="0">
      <stop
         id="stop37516"
         offset="0"
         style="stop-opacity:1;stop-color:#852c26" />
      <stop
         id="stop37518"
         offset="0.0015476"
         style="stop-opacity:1;stop-color:#852c26" />
      <stop
         id="stop37520"
         offset="1"
         style="stop-opacity:1;stop-color:#451617" />
    </radialGradient>
    <clipPath
       id="clipPath37354"
       clipPathUnits="userSpaceOnUse">
      <path
         inkscape:connector-curvature="0"
         id="path37352"
         d="M 0,400 H 400 V 0 H 0 Z" />
    </clipPath>
    <radialGradient
       id="radialGradient37344"
       spreadMethod="pad"
       gradientTransform="matrix(0.975099,0,0,0.975099,155.76025,365.06934)"
       gradientUnits="userSpaceOnUse"
       r="1"
       cy="0"
       cx="0"
       fy="0"
       fx="0">
      <stop
         id="stop37338"
         offset="0"
         style="stop-opacity:1;stop-color:#eee54f" />
      <stop
         id="stop37340"
         offset="0.9977451"
         style="stop-opacity:1;stop-color:#e04a20" />
      <stop
         id="stop37342"
         offset="1"
         style="stop-opacity:1;stop-color:#e04a20" />
    </radialGradient>
    <clipPath
       id="clipPath37272"
       clipPathUnits="userSpaceOnUse">
      <path
         inkscape:connector-curvature="0"
         id="path37270"
         d="M 0,400 H 400 V 0 H 0 Z" />
    </clipPath>
    <radialGradient
       id="radialGradient37262"
       spreadMethod="pad"
       gradientTransform="matrix(0.2636045,0,0,0.2636045,155.71484,365.89062)"
       gradientUnits="userSpaceOnUse"
       r="1"
       cy="0"
       cx="0"
       fy="0"
       fx="0">
      <stop
         id="stop37256"
         offset="0"
         style="stop-opacity:1;stop-color:#eee54f" />
      <stop
         id="stop37258"
         offset="0.9977451"
         style="stop-opacity:1;stop-color:#e04a20" />
      <stop
         id="stop37260"
         offset="1"
         style="stop-opacity:1;stop-color:#e04a20" />
    </radialGradient>
  </defs>
  <sodipodi:namedview
     id="base"
     pagecolor="#ffffff"
     bordercolor="#666666"
     borderopacity="1.0"
     inkscape:pageopacity="0.0"
     inkscape:pageshadow="2"
     inkscape:zoom="11.2"
     inkscape:cx="21.524679"
     inkscape:cy="6.1116078"
     inkscape:document-units="mm"
     inkscape:current-layer="layer1"
     showgrid="false"
     inkscape:window-width="954"
     inkscape:window-height="630"
     inkscape:window-x="-3"
     inkscape:window-y="6"
     inkscape:window-maximized="0" />
  <metadata
     id="metadata5">
    <rdf:RDF>
      <cc:Work
         rdf:about="">
        <dc:format>image/svg+xml</dc:format>
        <dc:type
           rdf:resource="http://purl.org/dc/dcmitype/StillImage" />
        <dc:title></dc:title>
      </cc:Work>
    </rdf:RDF>
  </metadata>
  <g
     inkscape:label="Layer 1"
     inkscape:groupmode="layer"
     id="layer1"
     transform="translate(-58.097435,-94.900764)">
    <path
       d="m 58.127065,99.603931 h 7.02593 v -4.674305 h -7.02593 z m 7.04074,0.0152 v -0.0152 z m -7.07037,0.0145 v -4.732867 h 7.08519 v 4.718407 0.0145 z"
       style="fill:#221f21;fill-opacity:1;fill-rule:nonzero;stroke:none;stroke-width:0.35277778"
       id="path29360"
       inkscape:connector-curvature="0" />
    <path
       d="m 65.167805,99.618751 h -7.05555 v -4.703589 h 7.05555 z"
       style="fill:#48b2bf;fill-opacity:1;fill-rule:nonzero;stroke:none;stroke-width:0.35277778"
       id="path29362"
       inkscape:connector-curvature="0" />
    <g
       id="g29364"
       transform="matrix(0.35277777,0,0,-0.35277777,60.502212,97.05229)">
      <path
         d="M 0,0 0.04,0.001 0.107,-0.096 C 0.209,-0.291 0.285,-0.5 0.378,-0.701 l -0.019,0.251 0.001,0.23 0.089,0.03 0.009,-0.077 c 0.033,-0.296 0.12,-0.587 0.25,-0.855 0.218,-0.449 0.557,-0.84 0.973,-1.116 0.443,-0.297 0.975,-0.457 1.51,-0.455 L 3.218,-2.764 3.131,-2.817 2.975,-2.938 2.906,-2.858 2.662,-2.764 c -0.099,0.019 -0.199,0.033 -0.298,0.039 l -0.198,0.002 -0.057,0.025 c -0.17,0.149 -0.335,0.305 -0.535,0.412 L 1.455,-2.25 1.371,-2.243 1.287,-2.177 C 1.174,-2.066 1.104,-1.921 1.018,-1.788 0.952,-1.684 0.875,-1.59 0.787,-1.503 L 0.547,-1.302 0.529,-1.335 0.412,-1.326 0.459,-1.474 0.527,-1.54 0.514,-1.603 0.398,-1.612 0.548,-1.771 0.656,-1.853 0.654,-1.896 0.549,-1.899 0.594,-1.949 0.842,-2.06 0.879,-2.084 0.875,-2.113 0.798,-2.137 0.92,-2.22 0.91,-2.258 0.823,-2.293 1.046,-2.405 1.055,-2.443 0.985,-2.483 1.078,-2.525 1.209,-2.541 1.219,-2.606 1.127,-2.671 1.346,-2.784 C 1.488,-2.848 1.635,-2.906 1.787,-2.94 1.914,-2.971 2.045,-2.974 2.175,-2.97 L 2.252,-2.976 2.219,-3.018 2.024,-3.057 c -0.175,-0.009 -0.351,0.028 -0.52,0.074 -0.227,0.062 -0.44,0.16 -0.648,0.267 l -0.066,0.049 0.005,0.035 0.08,0.026 -0.271,0.05 -0.049,0.032 0.027,0.058 0.119,0.027 -0.114,0.037 -0.128,0.048 -0.032,0.059 0.05,0.023 0.152,0.013 -0.043,0.024 -0.25,0.058 -0.073,0.067 0.001,0.037 0.045,0.019 0.201,-0.011 -0.065,0.05 -0.179,0.083 -0.251,0.198 -0.08,0.114 0.01,0.061 H 0.02 c 0.098,-0.029 0.183,-0.086 0.277,-0.127 -0.159,0.143 -0.326,0.279 -0.467,0.439 l -0.125,0.205 v 0.027 l 0.018,0.034 0.05,-0.011 0.094,-0.07 c 0.102,-0.087 0.197,-0.182 0.302,-0.267 L 0.283,-1.4 0.211,-1.287 c -0.113,0.166 -0.227,0.332 -0.326,0.507 -0.069,0.125 -0.135,0.252 -0.162,0.392 l 0.019,0.166 0.065,-0.051 C -0.057,-0.48 0.053,-0.705 0.195,-0.91 l 0.101,-0.106 -0.02,0.074 c -0.081,0.225 -0.173,0.446 -0.243,0.675 l -0.044,0.204 z"
         style="fill:#f0b728;fill-opacity:1;fill-rule:nonzero;stroke:none"
         id="path29366"
         inkscape:connector-curvature="0" />
    </g>
    <g
       id="g29368"
       transform="matrix(0.35277777,0,0,-0.35277777,61.986032,98.17384)">
      <path
         d="m 0,0 0.057,0.018 0.149,-0.02 c 0.205,-0.021 0.41,-0.025 0.617,-0.034 L 1.026,-0.051 1.051,-0.066 0.954,-0.257 C 0.861,-0.306 0.751,-0.309 0.649,-0.299 L 0.623,-0.414 0.532,-0.461 0.329,-0.438 0.226,-0.534 0.105,-0.505 -0.072,-0.601 -0.18,-0.589 -0.316,-0.662 -0.433,-0.619 -0.573,-0.695 H -0.62 l -0.073,0.071 -0.106,-0.042 -0.132,0.017 -0.048,0.007 -0.165,-0.026 -0.062,0.043 -0.134,-0.048 -0.098,0.03 -0.001,0.088 0.095,0.079 0.157,0.129 0.037,0.009 c 0.18,-0.016 0.364,-0.018 0.544,0.017 0.101,0.021 0.204,0.052 0.297,0.099 l 0.067,0.024 0.125,-0.007 0.012,0.045 0.043,0.024 0.047,0.054 z"
         style="fill:#f0b728;fill-opacity:1;fill-rule:nonzero;stroke:none"
         id="path29370"
         inkscape:connector-curvature="0" />
    </g>
    <g
       id="g29372"
       transform="matrix(0.35277777,0,0,-0.35277777,61.428612,98.23928)">
      <path
         d="M 0,0 -0.079,-0.045 -0.135,-0.042 -0.136,0.015 -0.055,0.061 0.002,0.06 Z M 3.899,2.49 C 3.982,2.62 4.063,2.753 4.107,2.9 L 4.12,3.037 4.103,3.095 4.071,3.091 4.017,3.025 C 3.849,2.778 3.709,2.515 3.532,2.275 L 3.431,2.172 3.491,2.335 C 3.593,2.582 3.702,2.826 3.787,3.079 L 3.839,3.288 3.808,3.358 3.745,3.309 3.622,3.065 C 3.556,2.921 3.495,2.777 3.425,2.634 c 0,0.158 0.017,0.313 0.01,0.471 L 3.417,3.169 3.343,3.175 3.334,3.119 C 3.298,2.68 3.124,2.258 2.866,1.903 2.647,1.599 2.369,1.338 2.059,1.13 1.712,0.9 1.319,0.728 0.904,0.67 L 0.685,0.598 C 0.592,0.551 0.507,0.487 0.419,0.431 L 0.178,0.299 C 0.063,0.259 -0.055,0.225 -0.155,0.158 l -0.222,-0.22 0.002,-0.125 0.053,-0.048 0.041,0.083 0.02,0.005 0.032,-0.025 0.099,0.032 0.085,0.006 c 0.314,0.014 0.629,0.029 0.942,0.039 L 1.101,-0.041 1.124,-0.014 1.085,0.015 0.938,0.01 C 0.708,0.021 0.478,-0.019 0.247,-0.012 L 0.216,0.015 0.357,0.18 0.227,0.178 0.113,0.143 0.194,0.2 C 0.329,0.28 0.469,0.348 0.61,0.417 l 0.179,0.077 c 0.166,0.051 0.337,0.087 0.509,0.114 0.095,0.013 0.19,0.022 0.284,0.027 l 0.091,0.028 c 0.14,0.156 0.31,0.291 0.51,0.37 0.088,0.037 0.183,0.064 0.274,0.1 l 0.13,0.134 C 2.651,1.354 2.702,1.45 2.761,1.541 2.847,1.679 2.949,1.808 3.074,1.91 L 3.214,1.993 3.243,1.939 3.336,1.985 C 3.336,1.895 3.276,1.82 3.252,1.736 L 3.263,1.672 3.38,1.679 3.21,1.476 3.203,1.42 3.299,1.427 3.25,1.369 3.015,1.238 2.994,1.2 3.044,1.161 2.871,1.063 2.849,1.03 2.884,0.983 2.722,0.93 2.679,0.902 2.69,0.827 2.651,0.784 2.577,0.775 2.56,0.724 2.605,0.654 2.524,0.633 2.352,0.547 2.226,0.504 2.017,0.459 1.79,0.417 1.753,0.392 1.8,0.368 C 1.948,0.361 2.097,0.385 2.243,0.407 2.404,0.433 2.565,0.462 2.722,0.51 L 2.936,0.578 3.002,0.628 2.974,0.665 2.866,0.7 2.979,0.726 3.177,0.759 3.185,0.829 3.059,0.868 3.237,0.906 3.377,0.958 3.374,1.018 3.25,1.042 3.29,1.072 3.509,1.157 3.562,1.241 3.526,1.271 3.384,1.267 3.478,1.318 3.642,1.425 3.807,1.566 3.886,1.677 3.875,1.744 3.807,1.736 3.63,1.64 3.493,1.576 3.536,1.64 3.791,1.88 C 3.872,1.961 3.952,2.041 4.02,2.134 L 4.079,2.265 4.036,2.326 3.925,2.274 C 3.81,2.188 3.709,2.084 3.597,1.993 L 3.501,1.933 3.599,2.071 c 0.104,0.137 0.207,0.275 0.3,0.419"
         style="fill:#f0b728;fill-opacity:1;fill-rule:nonzero;stroke:none"
         id="path29374"
         inkscape:connector-curvature="0" />
    </g>
    <g
       id="g29376"
       transform="matrix(0.35277777,0,0,-0.35277777,61.643242,96.3419)">
      <path
         d="M 0,0 -0.122,0.13 0,0.643 0.123,0.13 Z"
         style="fill:#f0b728;fill-opacity:1;fill-rule:nonzero;stroke:none"
         id="path29378"
         inkscape:connector-curvature="0" />
    </g>
    <g
       id="g29380"
       transform="matrix(0.35277777,0,0,-0.35277777,61.525062,96.353261)">
      <path
         d="M 0,0 -0.146,0.104 -0.126,0.63 0.096,0.151 Z"
         style="fill:#f0b728;fill-opacity:1;fill-rule:nonzero;stroke:none"
         id="path29382"
         inkscape:connector-curvature="0" />
    </g>
    <g
       id="g29384"
       transform="matrix(0.35277777,0,0,-0.35277777,61.411392,96.387551)">
      <path
         d="M 0,0 -0.163,0.073 -0.246,0.594 0.063,0.167 Z"
         style="fill:#f0b728;fill-opacity:1;fill-rule:nonzero;stroke:none"
         id="path29386"
         inkscape:connector-curvature="0" />
    </g>
    <g
       id="g29388"
       transform="matrix(0.35277777,0,0,-0.35277777,61.306652,96.443537)">
      <path
         d="M 0,0 -0.175,0.04 -0.357,0.535 0.029,0.177 Z"
         style="fill:#f0b728;fill-opacity:1;fill-rule:nonzero;stroke:none"
         id="path29390"
         inkscape:connector-curvature="0" />
    </g>
    <g
       id="g29392"
       transform="matrix(0.35277777,0,0,-0.35277777,61.215002,96.518641)">
      <path
         d="m 0,0 -0.18,0.005 -0.275,0.45 0.449,-0.276 z"
         style="fill:#f0b728;fill-opacity:1;fill-rule:nonzero;stroke:none"
         id="path29394"
         inkscape:connector-curvature="0" />
    </g>
    <g
       id="g29396"
       transform="matrix(0.35277777,0,0,-0.35277777,61.139582,96.610436)">
      <path
         d="M 0,0 -0.177,-0.03 -0.535,0.357 -0.041,0.174 Z"
         style="fill:#f0b728;fill-opacity:1;fill-rule:nonzero;stroke:none"
         id="path29398"
         inkscape:connector-curvature="0" />
    </g>
    <g
       id="g29400"
       transform="matrix(0.35277777,0,0,-0.35277777,61.083412,96.715174)">
      <path
         d="m 0,0 -0.168,-0.063 -0.427,0.31 0.521,-0.084 z"
         style="fill:#f0b728;fill-opacity:1;fill-rule:nonzero;stroke:none"
         id="path29402"
         inkscape:connector-curvature="0" />
    </g>
    <g
       id="g29404"
       transform="matrix(0.35277777,0,0,-0.35277777,61.048632,96.828347)">
      <path
         d="m 0,0 -0.152,-0.095 -0.479,0.22 0.527,0.021 z"
         style="fill:#f0b728;fill-opacity:1;fill-rule:nonzero;stroke:none"
         id="path29406"
         inkscape:connector-curvature="0" />
    </g>
    <g
       id="g29408"
       transform="matrix(0.35277777,0,0,-0.35277777,61.036922,96.946668)">
      <path
         d="M 0,0 -0.131,-0.123 -0.644,0 -0.131,0.122 Z"
         style="fill:#f0b728;fill-opacity:1;fill-rule:nonzero;stroke:none"
         id="path29410"
         inkscape:connector-curvature="0" />
    </g>
    <g
       id="g29412"
       transform="matrix(0.35277777,0,0,-0.35277777,61.048282,97.064672)">
      <path
         d="m 0,0 -0.104,-0.146 -0.527,0.019 0.479,0.222 z"
         style="fill:#f0b728;fill-opacity:1;fill-rule:nonzero;stroke:none"
         id="path29414"
         inkscape:connector-curvature="0" />
    </g>
    <g
       id="g29416"
       transform="matrix(0.35277777,0,0,-0.35277777,61.082392,97.178724)">
      <path
         d="m 0,0 -0.072,-0.164 -0.522,-0.081 0.428,0.309 z"
         style="fill:#f0b728;fill-opacity:1;fill-rule:nonzero;stroke:none"
         id="path29418"
         inkscape:connector-curvature="0" />
    </g>
    <g
       id="g29420"
       transform="matrix(0.35277777,0,0,-0.35277777,61.138202,97.28343)">
      <path
         d="M 0,0 -0.039,-0.174 -0.533,-0.357 -0.176,0.03 Z"
         style="fill:#f0b728;fill-opacity:1;fill-rule:nonzero;stroke:none"
         id="path29422"
         inkscape:connector-curvature="0" />
    </g>
    <g
       id="g29424"
       transform="matrix(0.35277777,0,0,-0.35277777,61.213622,97.375256)">
      <path
         d="m 0,0 -0.006,-0.179 -0.449,-0.276 0.275,0.45 z"
         style="fill:#f0b728;fill-opacity:1;fill-rule:nonzero;stroke:none"
         id="path29426"
         inkscape:connector-curvature="0" />
    </g>
    <g
       id="g29428"
       transform="matrix(0.35277777,0,0,-0.35277777,61.305632,97.450541)">
      <path
         d="m 0,0 0.028,-0.177 -0.386,-0.359 0.182,0.495 z"
         style="fill:#f0b728;fill-opacity:1;fill-rule:nonzero;stroke:none"
         id="path29430"
         inkscape:connector-curvature="0" />
    </g>
    <g
       id="g29432"
       transform="matrix(0.35277777,0,0,-0.35277777,61.410012,97.507019)">
      <path
         d="m 0,0 0.063,-0.167 -0.309,-0.427 0.083,0.521 z"
         style="fill:#f0b728;fill-opacity:1;fill-rule:nonzero;stroke:none"
         id="path29434"
         inkscape:connector-curvature="0" />
    </g>
    <g
       id="g29436"
       transform="matrix(0.35277777,0,0,-0.35277777,61.523362,97.541663)">
      <path
         d="M 0,0 0.096,-0.151 -0.125,-0.63 -0.146,-0.103 Z"
         style="fill:#f0b728;fill-opacity:1;fill-rule:nonzero;stroke:none"
         id="path29438"
         inkscape:connector-curvature="0" />
    </g>
    <g
       id="g29440"
       transform="matrix(0.35277777,0,0,-0.35277777,61.641862,97.553374)">
      <path
         d="M 0,0 0.122,-0.13 0,-0.644 -0.123,-0.13 Z"
         style="fill:#f0b728;fill-opacity:1;fill-rule:nonzero;stroke:none"
         id="path29442"
         inkscape:connector-curvature="0" />
    </g>
    <g
       id="g29444"
       transform="matrix(0.35277777,0,0,-0.35277777,61.759692,97.541838)">
      <path
         d="m 0,0 0.146,-0.104 -0.02,-0.528 -0.221,0.48 z"
         style="fill:#f0b728;fill-opacity:1;fill-rule:nonzero;stroke:none"
         id="path29446"
         inkscape:connector-curvature="0" />
    </g>
    <g
       id="g29448"
       transform="matrix(0.35277777,0,0,-0.35277777,61.873352,97.507548)">
      <path
         d="m 0,0 0.164,-0.074 0.082,-0.521 -0.309,0.428 z"
         style="fill:#f0b728;fill-opacity:1;fill-rule:nonzero;stroke:none"
         id="path29450"
         inkscape:connector-curvature="0" />
    </g>
    <g
       id="g29452"
       transform="matrix(0.35277777,0,0,-0.35277777,61.978452,97.451739)">
      <path
         d="M 0,0 0.175,-0.04 0.356,-0.535 -0.03,-0.177 Z"
         style="fill:#f0b728;fill-opacity:1;fill-rule:nonzero;stroke:none"
         id="path29454"
         inkscape:connector-curvature="0" />
    </g>
    <g
       id="g29456"
       transform="matrix(0.35277777,0,0,-0.35277777,62.070412,97.376632)">
      <path
         d="M 0,0 0.179,-0.005 0.454,-0.454 0.005,-0.179 Z"
         style="fill:#f0b728;fill-opacity:1;fill-rule:nonzero;stroke:none"
         id="path29458"
         inkscape:connector-curvature="0" />
    </g>
    <g
       id="g29460"
       transform="matrix(0.35277777,0,0,-0.35277777,62.145522,97.284806)">
      <path
         d="M 0,0 0.177,0.029 0.535,-0.358 0.04,-0.175 Z"
         style="fill:#f0b728;fill-opacity:1;fill-rule:nonzero;stroke:none"
         id="path29462"
         inkscape:connector-curvature="0" />
    </g>
    <g
       id="g29464"
       transform="matrix(0.35277777,0,0,-0.35277777,62.202042,97.1801)">
      <path
         d="m 0,0 0.167,0.063 0.427,-0.31 -0.522,0.083 z"
         style="fill:#f0b728;fill-opacity:1;fill-rule:nonzero;stroke:none"
         id="path29466"
         inkscape:connector-curvature="0" />
    </g>
    <g
       id="g29468"
       transform="matrix(0.35277777,0,0,-0.35277777,62.236472,97.066577)">
      <path
         d="M 0,0 0.152,0.094 0.631,-0.125 0.104,-0.146 Z"
         style="fill:#f0b728;fill-opacity:1;fill-rule:nonzero;stroke:none"
         id="path29470"
         inkscape:connector-curvature="0" />
    </g>
    <g
       id="g29472"
       transform="matrix(0.35277777,0,0,-0.35277777,62.248182,96.948748)">
      <path
         d="M 0,0 0.131,0.124 0.643,0 0.131,-0.123 Z"
         style="fill:#f0b728;fill-opacity:1;fill-rule:nonzero;stroke:none"
         id="path29474"
         inkscape:connector-curvature="0" />
    </g>
    <g
       id="g29476"
       transform="matrix(0.35277777,0,0,-0.35277777,62.236822,96.830252)">
      <path
         d="M 0,0 0.104,0.146 0.631,0.125 0.151,-0.096 Z"
         style="fill:#f0b728;fill-opacity:1;fill-rule:nonzero;stroke:none"
         id="path29478"
         inkscape:connector-curvature="0" />
    </g>
    <g
       id="g29480"
       transform="matrix(0.35277777,0,0,-0.35277777,62.202712,96.716727)">
      <path
         d="M 0,0 0.073,0.163 0.594,0.246 0.166,-0.063 Z"
         style="fill:#f0b728;fill-opacity:1;fill-rule:nonzero;stroke:none"
         id="path29482"
         inkscape:connector-curvature="0" />
    </g>
    <g
       id="g29484"
       transform="matrix(0.35277777,0,0,-0.35277777,62.146582,96.611812)">
      <path
         d="M 0,0 0.04,0.174 0.534,0.357 0.177,-0.03 Z"
         style="fill:#f0b728;fill-opacity:1;fill-rule:nonzero;stroke:none"
         id="path29486"
         inkscape:connector-curvature="0" />
    </g>
    <g
       id="g29488"
       transform="matrix(0.35277777,0,0,-0.35277777,62.071472,96.520017)">
      <path
         d="M 0,0 0.005,0.18 0.455,0.455 0.179,0.006 Z"
         style="fill:#f0b728;fill-opacity:1;fill-rule:nonzero;stroke:none"
         id="path29490"
         inkscape:connector-curvature="0" />
    </g>
    <g
       id="g29492"
       transform="matrix(0.35277777,0,0,-0.35277777,61.980172,96.444383)">
      <path
         d="M 0,0 -0.031,0.176 0.356,0.534 0.174,0.04 Z"
         style="fill:#f0b728;fill-opacity:1;fill-rule:nonzero;stroke:none"
         id="path29494"
         inkscape:connector-curvature="0" />
    </g>
    <g
       id="g29496"
       transform="matrix(0.35277777,0,0,-0.35277777,61.875082,96.388397)">
      <path
         d="M 0,0 -0.063,0.167 0.246,0.594 0.163,0.073 Z"
         style="fill:#f0b728;fill-opacity:1;fill-rule:nonzero;stroke:none"
         id="path29498"
         inkscape:connector-curvature="0" />
    </g>
    <g
       id="g29500"
       transform="matrix(0.35277777,0,0,-0.35277777,61.761732,96.35379)">
      <path
         d="M 0,0 -0.096,0.152 0.125,0.631 0.146,0.104 Z"
         style="fill:#f0b728;fill-opacity:1;fill-rule:nonzero;stroke:none"
         id="path29502"
         inkscape:connector-curvature="0" />
    </g>
    <g
       id="g29504"
       transform="matrix(0.35277777,0,0,-0.35277777,62.175862,96.947727)">
      <path
         d="m 0,0 c 0,-0.834 -0.677,-1.51 -1.512,-1.51 -0.834,0 -1.509,0.676 -1.509,1.51 0,0.834 0.675,1.511 1.509,1.511 C -0.677,1.511 0,0.834 0,0"
         style="fill:#f0b728;fill-opacity:1;fill-rule:nonzero;stroke:none"
         id="path29506"
         inkscape:connector-curvature="0" />
    </g>
    <g
       id="g29508"
       transform="matrix(0.35277777,0,0,-0.35277777,58.803092,96.286091)">
      <path
         d="m 0,0 -0.072,-0.134 -0.198,-0.056 -0.142,0.087 -0.027,0.113 0.046,0.064 0.079,0.001 0.05,-0.053 -0.009,-0.101 0.096,0.089 0.008,0.062 0.114,0.067 L -0.112,0.187 -0.17,0.202 -0.179,0.292 -0.273,0.358 -0.264,0.263 -0.305,0.218 -0.431,0.205 -0.554,0.14 C -0.557,0.264 -0.56,0.387 -0.562,0.511 l 0.024,0.062 0.094,0.03 0.128,-0.02 -0.096,0.147 -0.189,0.034 0.08,0.091 L -0.545,1.012 -0.656,1.151 -0.746,1.05 -0.793,0.865 -0.713,0.764 -0.895,0.733 -0.996,0.583 -0.824,0.597 -0.758,0.55 -0.75,0.488 C -0.753,0.372 -0.756,0.256 -0.76,0.14 l -0.131,0.066 -0.117,0.011 -0.041,0.044 0.01,0.097 -0.098,-0.07 -0.008,-0.086 -0.113,-0.063 0.113,-0.067 0.016,-0.075 0.09,-0.078 -0.005,0.116 0.066,0.045 0.082,-0.022 0.023,-0.096 -0.084,-0.118 -0.178,-0.03 -0.146,0.097 -0.032,0.151 0.042,0.151 c 0.162,0.346 0.325,0.69 0.488,1.035 l 0.127,0.266 c 0.205,-0.43 0.408,-0.863 0.611,-1.294 z m -1.011,-0.35 0.237,0.105 0.116,0.157 0.033,-0.061 c 0.071,-0.11 0.195,-0.182 0.324,-0.201 l -0.209,-0.082 -0.146,-0.179 -0.033,0.062 c -0.071,0.11 -0.194,0.179 -0.322,0.199 m 0.967,-0.245 0.046,-0.132 -0.044,-0.187 c -0.203,-0.434 -0.409,-0.867 -0.614,-1.301 -0.083,0.171 -0.162,0.343 -0.244,0.514 -0.121,0.258 -0.244,0.515 -0.364,0.773 l -0.049,0.224 0.083,0.146 0.187,0.048 0.125,-0.064 0.047,-0.113 -0.041,-0.083 -0.084,-0.005 -0.049,0.044 0.006,0.112 -0.092,-0.08 -0.014,-0.073 -0.113,-0.065 0.063,-0.054 0.051,-0.01 0.007,-0.086 0.097,-0.071 -0.004,0.11 0.083,0.039 0.147,0.025 0.054,0.044 c 0.004,-0.116 0.007,-0.231 0.01,-0.348 l -0.012,-0.067 -0.076,-0.044 -0.158,0.017 0.103,-0.152 0.18,-0.03 -0.073,-0.072 0.003,-0.134 0.078,-0.138 0.049,-0.043 0.107,0.131 0.029,0.16 -0.081,0.096 0.185,0.033 0.1,0.149 -0.167,-0.015 -0.07,0.042 -0.009,0.054 c 0.002,0.121 0.005,0.242 0.008,0.361 l 0.128,-0.065 0.124,-0.013 0.04,-0.058 -0.011,-0.083 0.094,0.068 0.009,0.089 0.055,0.014 0.06,0.051 -0.114,0.065 -0.016,0.078 -0.088,0.075 0.009,-0.103 -0.048,-0.051 -0.089,0.004 -0.04,0.088 0.053,0.113 0.178,0.059 z M -0.457,-2.768 -0.4,-2.782 c -0.105,-0.012 -0.201,-0.075 -0.257,-0.166 l -0.208,0.156 -0.046,0.013 c 0.104,0.011 0.198,0.075 0.255,0.163 z m 0.412,-1.874 0.043,-0.234 -0.123,-0.154 -0.159,-0.018 -0.145,0.109 -0.005,0.106 0.061,0.05 0.081,-0.016 0.031,-0.068 -0.012,-0.076 0.093,0.086 0.011,0.066 0.114,0.067 -0.114,0.063 -0.005,0.079 -0.099,0.079 0.011,-0.081 -0.03,-0.054 -0.071,-0.015 -0.142,-0.028 -0.049,-0.04 c -0.003,0.123 -0.006,0.246 -0.008,0.369 l 0.033,0.069 0.085,0.023 0.128,-0.02 -0.068,0.125 -0.097,0.051 -0.119,0.006 0.082,0.114 -0.05,0.176 -0.088,0.097 -0.069,-0.068 -0.065,-0.131 0.004,-0.116 0.073,-0.072 -0.121,-0.007 -0.104,-0.061 -0.058,-0.114 0.166,0.016 0.072,-0.047 0.008,-0.058 c -0.003,-0.118 -0.006,-0.236 -0.01,-0.353 l -0.081,0.055 -0.128,0.014 -0.075,0.042 0.004,0.107 -0.098,-0.073 -0.007,-0.084 -0.113,-0.064 0.115,-0.067 0.013,-0.071 0.091,-0.08 -0.012,0.098 -0.019,0.012 0.006,0.04 0.06,0.033 0.071,0.013 0.029,-0.018 v -0.031 l 0.021,-0.139 -0.131,-0.109 -0.217,0.041 -0.083,0.149 0.043,0.206 c 0.161,0.342 0.323,0.685 0.485,1.028 0.044,0.091 0.086,0.182 0.13,0.273 0.205,-0.431 0.408,-0.863 0.611,-1.295 m -0.966,-0.57 0.24,0.107 0.114,0.155 0.05,-0.084 c 0.072,-0.098 0.186,-0.16 0.305,-0.178 L -0.518,-5.3 -0.656,-5.476 -0.783,-5.31 Z m 0.919,-0.203 0.084,-0.111 0.002,-0.141 -0.038,-0.111 c -0.202,-0.434 -0.407,-0.866 -0.612,-1.299 -0.057,0.116 -0.111,0.232 -0.166,0.349 -0.141,0.297 -0.281,0.594 -0.42,0.89 l -0.062,0.152 v 0.168 l 0.109,0.119 0.179,0.02 0.136,-0.12 -0.009,-0.111 -0.066,-0.033 -0.086,0.041 0.002,0.121 -0.094,-0.085 -0.012,-0.068 -0.113,-0.066 0.069,-0.055 0.045,-0.01 0.009,-0.088 0.095,-0.068 -0.007,0.102 0.051,0.043 0.122,0.011 0.114,0.064 c 0.004,-0.124 0.008,-0.248 0.01,-0.371 l -0.033,-0.068 -0.106,-0.024 -0.107,0.02 0.057,-0.113 0.106,-0.063 0.112,-0.006 -0.045,-0.039 -0.027,-0.134 0.1,-0.184 0.037,-0.028 0.07,0.068 0.068,0.208 -0.082,0.11 0.129,0.009 0.097,0.057 0.058,0.115 -0.151,-0.019 -0.073,0.031 -0.022,0.065 c 0.002,0.121 0.005,0.243 0.008,0.365 l 0.109,-0.063 0.125,-0.01 0.054,-0.045 -0.007,-0.101 0.094,0.067 0.009,0.089 0.115,0.065 -0.114,0.067 -0.015,0.073 -0.089,0.078 0.007,-0.105 -0.052,-0.051 -0.094,0.014 -0.024,0.115 0.133,0.127 z m -0.325,-2.223 0.022,-0.009 -0.169,-0.067 -0.092,-0.092 -0.134,0.115 -0.133,0.045 0.09,0.023 0.177,0.145 c 0.052,-0.083 0.14,-0.146 0.239,-0.16 m -0.075,-0.902 0.021,-0.121 -0.037,-0.04 -0.098,0.034 -0.05,0.035 -0.118,-0.067 -0.056,0.01 -0.014,0.058 0.045,0.149 c 0.044,0.108 0.097,0.211 0.141,0.319 l 0.025,-0.055 c 0.047,-0.107 0.102,-0.211 0.141,-0.322 m -0.346,10.603 -0.084,0.02 0.191,0.082 0.075,0.08 0.177,-0.134 0.085,-0.026 -0.02,-0.008 c -0.1,-0.014 -0.189,-0.076 -0.242,-0.16 z m 0.039,0.857 -0.042,0.135 0.009,0.07 0.057,0.013 0.119,-0.068 0.112,0.066 0.061,-0.008 0.012,-0.065 -0.048,-0.154 C -0.557,2.817 -0.601,2.729 -0.641,2.636 L -0.657,2.599 C -0.701,2.708 -0.756,2.812 -0.799,2.92 m 0.885,-3.146 0.079,0.189 V 0.07 C 0.159,0.165 0.123,0.252 0.08,0.336 -0.119,0.749 -0.316,1.161 -0.517,1.573 L -0.543,1.738 -0.44,1.905 -0.261,1.935 -0.117,1.806 -0.106,1.668 -0.184,1.548 -0.3,1.537 -0.369,1.602 -0.364,1.671 -0.271,1.668 -0.264,1.59 -0.218,1.623 -0.209,1.688 -0.136,1.734 -0.21,1.776 -0.213,1.841 -0.27,1.878 -0.262,1.814 -0.338,1.817 -0.45,1.748 -0.471,1.608 -0.379,1.456 -0.198,1.42 -0.261,1.311 -0.191,1.326 -0.23,1.248 -0.24,1.179 l 0.068,0.032 0.041,-0.003 -0.021,-0.071 0.07,-0.2 0.184,-0.097 -0.11,0.213 -0.008,0.129 0.02,0.182 C 0.022,1.463 0.061,1.558 0.07,1.658 L 0.064,1.806 0.003,1.926 -0.064,1.993 0.056,2.081 0.016,2.127 -0.086,2.162 0.018,2.253 0.076,2.446 0.062,2.591 0.002,2.828 -0.016,3.002 0.016,3.149 0.1,3.315 H 0.09 L -0.045,3.265 -0.147,3.131 -0.146,2.961 -0.232,2.988 -0.192,2.856 -0.275,2.861 -0.188,2.733 -0.367,2.714 C -0.46,2.664 -0.499,2.54 -0.46,2.443 l 0.101,-0.09 0.095,0.019 -0.007,-0.092 0.058,0.038 0.003,0.067 0.089,0.043 -0.037,0.03 L -0.21,2.47 -0.204,2.527 -0.26,2.585 V 2.502 L -0.296,2.47 -0.359,2.491 -0.343,2.59 -0.252,2.625 -0.127,2.566 -0.092,2.419 -0.136,2.308 -0.29,2.239 l -0.119,0.007 -0.092,0.06 -0.038,0.118 0.036,0.152 c 0.04,0.107 0.091,0.209 0.134,0.314 L -0.305,3.073 -0.318,3.195 -0.467,3.288 -0.656,3.231 -0.74,3.275 -0.887,3.278 -1.008,3.163 -0.99,3.006 C -0.933,2.84 -0.844,2.688 -0.791,2.52 l 0.004,-0.174 -0.1,-0.094 -0.18,-0.004 -0.132,0.089 -0.018,0.15 0.063,0.11 0.125,0.025 L -0.954,2.565 -0.956,2.487 -1.018,2.47 -1.055,2.507 -1.052,2.585 -1.105,2.535 -1.103,2.469 -1.152,2.459 -1.191,2.428 -1.103,2.385 V 2.322 l 0.062,-0.042 -0.01,0.091 0.09,-0.019 0.102,0.079 c 0.05,0.098 0.007,0.234 -0.09,0.285 l -0.174,0.017 0.086,0.128 -0.084,-0.005 0.04,0.132 -0.086,-0.026 -0.052,0.26 -0.183,0.093 h -0.01 C -1.359,3.229 -1.314,3.135 -1.3,3.033 L -1.309,2.861 C -1.326,2.745 -1.374,2.635 -1.385,2.519 L -1.375,2.341 -1.227,2.162 -1.309,2.142 -1.371,2.081 -1.331,2.035 -1.25,1.992 -1.351,1.873 -1.387,1.72 -1.371,1.582 -1.327,1.411 -1.299,1.201 -1.306,1.049 -1.415,0.84 l 0.185,0.097 0.071,0.183 -0.023,0.088 0.038,0.004 0.072,-0.033 -0.009,0.066 -0.04,0.08 0.07,-0.014 -0.064,0.109 0.17,0.029 0.104,0.168 -0.022,0.13 -0.11,0.069 L -1.051,1.814 -1.042,1.878 -1.098,1.845 -1.103,1.775 -1.178,1.733 -1.104,1.688 -1.098,1.627 -1.05,1.59 -1.04,1.671 -0.947,1.67 -0.951,1.582 -1.027,1.535 -1.125,1.546 -1.204,1.658 -1.199,1.796 -1.044,1.936 -0.951,1.937 -0.793,1.823 -0.77,1.72 -0.797,1.572 C -0.983,1.187 -1.17,0.8 -1.355,0.415 L -1.457,0.184 -1.479,0.059 v -0.075 l 0.099,-0.23 0.23,-0.104 c -0.092,-0.011 -0.184,-0.048 -0.246,-0.12 l -0.083,-0.21 v -0.076 l 0.05,-0.202 0.098,-0.207 c 0.177,-0.367 0.353,-0.735 0.532,-1.104 l 0.029,-0.156 -0.034,-0.114 -0.21,-0.103 -0.18,0.133 -0.017,0.114 0.055,0.126 0.08,0.037 0.104,-0.025 0.026,-0.108 -0.092,-0.009 -0.011,0.084 -0.052,-0.042 -0.003,-0.057 -0.07,-0.041 0.01,-0.015 0.061,-0.029 0.005,-0.071 0.056,-0.032 -0.009,0.065 0.117,0.007 0.077,0.067 0.014,0.131 -0.107,0.161 -0.165,0.026 0.064,0.11 -0.071,-0.014 0.044,0.084 0.006,0.06 -0.067,-0.03 -0.043,0.004 0.023,0.096 -0.081,0.185 -0.175,0.086 0.106,-0.202 0.01,-0.168 -0.019,-0.16 c -0.02,-0.1 -0.059,-0.196 -0.067,-0.298 l 0.019,-0.171 0.116,-0.154 -0.121,-0.09 0.04,-0.046 0.081,-0.042 -0.127,-0.187 -0.004,-0.166 0.041,-0.178 c 0.027,-0.093 0.041,-0.19 0.043,-0.287 l -0.006,-0.111 -0.113,-0.223 0.146,0.062 0.11,0.191 -0.022,0.114 0.043,0.003 0.067,-0.031 -0.006,0.061 -0.044,0.085 0.071,-0.014 -0.064,0.11 0.096,10e-4 0.128,0.073 0.05,0.13 -0.018,0.116 -0.083,0.068 -0.109,0.004 0.009,0.064 -0.056,-0.032 -0.005,-0.07 -0.075,-0.042 0.074,-0.045 0.004,-0.058 0.051,-0.04 0.01,0.082 0.078,0.013 0.021,-0.05 -0.029,-0.076 -0.089,-0.027 -0.11,0.048 -0.044,0.141 0.029,0.11 0.169,0.111 0.145,-0.04 0.099,-0.168 -0.027,-0.163 c -0.207,-0.424 -0.412,-0.85 -0.615,-1.275 l -0.067,-0.249 v -0.062 l 0.102,-0.233 0.228,-0.102 -0.233,-0.106 -0.097,-0.227 v -0.063 l 0.055,-0.225 0.096,-0.203 c 0.178,-0.365 0.353,-0.731 0.53,-1.098 l 0.028,-0.152 -0.093,-0.174 -0.186,-0.037 -0.151,0.14 -0.005,0.135 0.08,0.114 0.097,0.012 0.075,-0.045 0.006,-0.089 -0.093,-0.003 -0.009,0.082 -0.05,-0.041 -0.005,-0.058 -0.066,-0.037 -0.004,-0.011 0.071,-0.039 0.005,-0.069 0.056,-0.033 -0.009,0.063 0.128,0.012 0.08,0.107 -0.071,0.223 -0.203,0.05 0.066,0.111 -0.07,-0.014 0.029,0.052 0.02,0.093 -0.11,-0.027 -0.022,0.238 -0.21,0.128 0.111,-0.225 0.005,-0.121 c -0.003,-0.09 -0.016,-0.18 -0.041,-0.269 l -0.046,-0.219 0.015,-0.155 0.122,-0.162 -0.123,-0.09 0.053,-0.054 0.091,-0.026 -0.15,-0.184 -0.01,-0.158 c 0.01,-0.136 0.072,-0.263 0.083,-0.398 l -0.005,-0.18 -0.103,-0.232 h 0.014 l 0.095,0.028 0.14,0.165 -0.004,0.159 0.086,-0.025 -0.038,0.131 0.082,-0.005 -0.088,0.128 0.188,0.024 0.092,0.241 -0.106,0.115 -0.1,-0.019 0.01,0.092 -0.062,-0.044 v -0.061 l -0.088,-0.042 0.037,-0.03 0.051,-0.013 -0.003,-0.064 0.054,-0.051 -0.003,0.078 0.037,0.037 0.057,-0.012 0.016,-0.057 -0.051,-0.071 -0.085,-0.013 -0.102,0.053 -0.037,0.098 0.019,0.13 0.139,0.096 0.203,-0.019 0.082,-0.118 -0.008,-0.116 -0.06,-0.165 C -0.889,-8.33 -0.939,-8.432 -0.979,-8.539 l -0.035,-0.127 0.06,-0.138 0.196,-0.039 0.102,0.05 0.148,-0.058 0.151,0.049 0.056,0.144 -0.048,0.159 c -0.046,0.112 -0.098,0.218 -0.142,0.33 l -0.048,0.172 0.052,0.145 0.159,0.054 0.158,-0.043 0.077,-0.126 -0.016,-0.13 -0.072,-0.074 -0.098,-0.014 -0.084,0.066 0.006,0.069 0.061,0.018 0.036,-0.033 v -0.082 l 0.056,0.058 -0.006,0.057 0.089,0.043 -0.089,0.042 -0.002,0.066 -0.059,0.039 0.007,-0.092 -0.086,0.021 -0.098,-0.069 -0.014,-0.178 0.128,-0.131 0.146,-0.004 -0.087,-0.128 0.083,0.005 -0.04,-0.132 0.086,0.026 0.051,-0.259 0.179,-0.093 H 0.1 l -0.037,0.063 -0.079,0.246 0.011,0.14 c 0.016,0.11 0.06,0.215 0.075,0.326 l -0.01,0.206 -0.146,0.171 0.081,0.02 0.062,0.06 -0.121,0.09 0.128,0.187 0.008,0.117 -0.04,0.207 -0.044,0.245 0.005,0.188 0.11,0.209 -0.218,-0.139 -0.016,-0.229 -0.043,-0.003 -0.066,0.03 0.008,-0.067 0.041,-0.078 -0.069,0.014 0.067,-0.112 -0.174,-0.025 -0.104,-0.156 0.019,-0.141 0.098,-0.069 h 0.09 l -0.006,-0.063 0.057,0.037 0.003,0.065 0.074,0.042 -0.073,0.045 -0.009,0.065 -0.046,0.033 -0.009,-0.081 -0.068,-0.021 -0.029,0.04 0.021,0.088 0.107,0.031 0.101,-0.052 0.039,-0.135 c 0.006,-0.108 -0.085,-0.205 -0.191,-0.221 -0.1,-0.01 -0.204,0.052 -0.238,0.147 l -0.01,0.111 0.029,0.12 c 0.203,0.419 0.406,0.838 0.608,1.257 l 0.069,0.23 v 0.11 l -0.118,0.23 -0.209,0.086 0.237,0.113 0.09,0.2 v 0.106 l -0.046,0.185 -0.105,0.219 c -0.169,0.351 -0.339,0.703 -0.508,1.055 l -0.035,0.084 -0.014,0.127 0.08,0.148 0.172,0.053 0.178,-0.144 0.007,-0.127 -0.077,-0.12 -0.13,-0.007 -0.057,0.066 0.01,0.069 0.086,-0.005 0.01,-0.082 0.047,0.034 0.008,0.064 0.073,0.045 -0.074,0.042 -0.003,0.065 -0.058,0.037 0.007,-0.064 -0.117,-0.008 -0.082,-0.083 -0.004,-0.131 0.113,-0.15 0.156,-0.02 -0.064,-0.111 0.071,0.016 -0.029,-0.049 -0.02,-0.098 0.066,0.031 0.043,-0.003 -0.019,-0.06 0.061,-0.204 0.191,-0.103 -0.11,0.214 -0.006,0.169 0.03,0.195 0.054,0.241 -0.008,0.152 -0.126,0.18 0.121,0.089 -0.121,0.091 c 0.073,0.055 0.127,0.139 0.136,0.23 l -0.008,0.153 -0.042,0.166 c -0.029,0.105 -0.04,0.214 -0.038,0.323 0.003,0.105 0.051,0.202 0.118,0.28 l -0.165,-0.079 -0.089,-0.163 0.021,-0.126 -0.045,-0.002 -0.064,0.029 0.01,-0.07 0.039,-0.075 -0.071,0.015 0.064,-0.11 -0.157,-0.023 -0.115,-0.156 0.018,-0.145 0.083,-0.065 0.105,-0.005 -0.007,-0.063 0.058,0.038 0.003,0.064 0.074,0.042 -0.073,0.045 -0.008,0.065 -0.047,0.033 -0.007,-0.078 -0.088,-0.011 -0.012,0.067 0.055,0.069 0.087,0.01 0.101,-0.072 0.024,-0.151 c -0.017,-0.115 -0.14,-0.208 -0.255,-0.181 l -0.172,0.143 -0.009,0.115 0.032,0.124 c 0.202,0.418 0.404,0.836 0.606,1.255 l 0.067,0.228 v 0.106 l -0.12,0.232 -0.207,0.084 c 0.093,0.012 0.185,0.051 0.248,0.124"
         style="fill:#f0b728;fill-opacity:1;fill-rule:nonzero;stroke:none"
         id="path29510"
         inkscape:connector-curvature="0" />
    </g>
  </g>
</svg>
