<?xml version="1.0" encoding="UTF-8" standalone="no"?>
<!-- Created with Inkscape (http://www.inkscape.org/) -->

<svg
   xmlns:dc="http://purl.org/dc/elements/1.1/"
   xmlns:cc="http://creativecommons.org/ns#"
   xmlns:rdf="http://www.w3.org/1999/02/22-rdf-syntax-ns#"
   xmlns:svg="http://www.w3.org/2000/svg"
   xmlns="http://www.w3.org/2000/svg"
   xmlns:sodipodi="http://sodipodi.sourceforge.net/DTD/sodipodi-0.dtd"
   xmlns:inkscape="http://www.inkscape.org/namespaces/inkscape"
   width="7.0851889mm"
   height="4.7328668mm"
   viewBox="0 0 7.0851887 4.7328668"
   version="1.1"
   id="svg8"
   inkscape:version="0.92.4 (5da689c313, 2019-01-14)"
   sodipodi:docname="kingdom_of_eswatini.svg">
  <defs
     id="defs2">
    <radialGradient
       id="radialGradient37584"
       spreadMethod="pad"
       gradientTransform="matrix(0.975099,0,0,0.975099,159.64062,365.06934)"
       gradientUnits="userSpaceOnUse"
       r="1"
       cy="0"
       cx="0"
       fy="0"
       fx="0">
      <stop
         id="stop37578"
         offset="0"
         style="stop-opacity:1;stop-color:#852c26" />
      <stop
         id="stop37580"
         offset="0.0015476"
         style="stop-opacity:1;stop-color:#852c26" />
      <stop
         id="stop37582"
         offset="1"
         style="stop-opacity:1;stop-color:#451617" />
    </radialGradient>
    <clipPath
       id="clipPath37532"
       clipPathUnits="userSpaceOnUse">
      <path
         inkscape:connector-curvature="0"
         id="path37530"
         d="M 0,400 H 400 V 0 H 0 Z" />
    </clipPath>
    <radialGradient
       id="radialGradient37522"
       spreadMethod="pad"
       gradientTransform="matrix(-0.2637247,0,0,0.2637247,159.68652,365.88965)"
       gradientUnits="userSpaceOnUse"
       r="1"
       cy="0"
       cx="0"
       fy="0"
       fx="0">
      <stop
         id="stop37516"
         offset="0"
         style="stop-opacity:1;stop-color:#852c26" />
      <stop
         id="stop37518"
         offset="0.0015476"
         style="stop-opacity:1;stop-color:#852c26" />
      <stop
         id="stop37520"
         offset="1"
         style="stop-opacity:1;stop-color:#451617" />
    </radialGradient>
    <clipPath
       id="clipPath37354"
       clipPathUnits="userSpaceOnUse">
      <path
         inkscape:connector-curvature="0"
         id="path37352"
         d="M 0,400 H 400 V 0 H 0 Z" />
    </clipPath>
    <radialGradient
       id="radialGradient37344"
       spreadMethod="pad"
       gradientTransform="matrix(0.975099,0,0,0.975099,155.76025,365.06934)"
       gradientUnits="userSpaceOnUse"
       r="1"
       cy="0"
       cx="0"
       fy="0"
       fx="0">
      <stop
         id="stop37338"
         offset="0"
         style="stop-opacity:1;stop-color:#eee54f" />
      <stop
         id="stop37340"
         offset="0.9977451"
         style="stop-opacity:1;stop-color:#e04a20" />
      <stop
         id="stop37342"
         offset="1"
         style="stop-opacity:1;stop-color:#e04a20" />
    </radialGradient>
    <clipPath
       id="clipPath37272"
       clipPathUnits="userSpaceOnUse">
      <path
         inkscape:connector-curvature="0"
         id="path37270"
         d="M 0,400 H 400 V 0 H 0 Z" />
    </clipPath>
    <radialGradient
       id="radialGradient37262"
       spreadMethod="pad"
       gradientTransform="matrix(0.2636045,0,0,0.2636045,155.71484,365.89062)"
       gradientUnits="userSpaceOnUse"
       r="1"
       cy="0"
       cx="0"
       fy="0"
       fx="0">
      <stop
         id="stop37256"
         offset="0"
         style="stop-opacity:1;stop-color:#eee54f" />
      <stop
         id="stop37258"
         offset="0.9977451"
         style="stop-opacity:1;stop-color:#e04a20" />
      <stop
         id="stop37260"
         offset="1"
         style="stop-opacity:1;stop-color:#e04a20" />
    </radialGradient>
    <radialGradient
       id="radialGradient5422"
       spreadMethod="pad"
       gradientTransform="matrix(0.1021146,-0.0756367,0.070541,0.1077099,271.97559,176.14746)"
       gradientUnits="userSpaceOnUse"
       r="1"
       cy="0"
       cx="0"
       fy="0"
       fx="0">
      <stop
         id="stop5416"
         offset="0"
         style="stop-opacity:1;stop-color:#ffffff" />
      <stop
         id="stop5418"
         offset="0.00091915"
         style="stop-opacity:1;stop-color:#ffffff" />
      <stop
         id="stop5420"
         offset="1"
         style="stop-opacity:1;stop-color:#e63e6e" />
    </radialGradient>
    <clipPath
       id="clipPath5374"
       clipPathUnits="userSpaceOnUse">
      <path
         inkscape:connector-curvature="0"
         id="path5372"
         d="M 0,400 H 400 V 0 H 0 Z" />
    </clipPath>
    <radialGradient
       id="radialGradient5364"
       spreadMethod="pad"
       gradientTransform="matrix(0.1318831,-9.013e-4,-1.001e-4,0.1311822,269.56445,176.4248)"
       gradientUnits="userSpaceOnUse"
       r="1"
       cy="0"
       cx="0"
       fy="0"
       fx="0">
      <stop
         id="stop5358"
         offset="0"
         style="stop-opacity:1;stop-color:#ffffff" />
      <stop
         id="stop5360"
         offset="0.00091915"
         style="stop-opacity:1;stop-color:#ffffff" />
      <stop
         id="stop5362"
         offset="1"
         style="stop-opacity:1;stop-color:#e63e6e" />
    </radialGradient>
    <clipPath
       id="clipPath5316"
       clipPathUnits="userSpaceOnUse">
      <path
         inkscape:connector-curvature="0"
         id="path5314"
         d="M 0,400 H 400 V 0 H 0 Z" />
    </clipPath>
    <radialGradient
       id="radialGradient5306"
       spreadMethod="pad"
       gradientTransform="matrix(0.1105445,0.0935377,-0.0930375,0.1086438,268.6875,176.89062)"
       gradientUnits="userSpaceOnUse"
       r="1"
       cy="0"
       cx="0"
       fy="0"
       fx="0">
      <stop
         id="stop5300"
         offset="0"
         style="stop-opacity:1;stop-color:#ffffff" />
      <stop
         id="stop5302"
         offset="0.00091915"
         style="stop-opacity:1;stop-color:#ffffff" />
      <stop
         id="stop5304"
         offset="1"
         style="stop-opacity:1;stop-color:#e63e6e" />
    </radialGradient>
  </defs>
  <sodipodi:namedview
     id="base"
     pagecolor="#ffffff"
     bordercolor="#666666"
     borderopacity="1.0"
     inkscape:pageopacity="0.0"
     inkscape:pageshadow="2"
     inkscape:zoom="11.2"
     inkscape:cx="23.415688"
     inkscape:cy="3.1233357"
     inkscape:document-units="mm"
     inkscape:current-layer="layer1"
     showgrid="false"
     inkscape:window-width="954"
     inkscape:window-height="630"
     inkscape:window-x="-3"
     inkscape:window-y="6"
     inkscape:window-maximized="0" />
  <metadata
     id="metadata5">
    <rdf:RDF>
      <cc:Work
         rdf:about="">
        <dc:format>image/svg+xml</dc:format>
        <dc:type
           rdf:resource="http://purl.org/dc/dcmitype/StillImage" />
        <dc:title></dc:title>
      </cc:Work>
    </rdf:RDF>
  </metadata>
  <g
     inkscape:label="Layer 1"
     inkscape:groupmode="layer"
     id="layer1"
     transform="translate(-43.788246,-94.940434)">
    <g
       id="g37786"
       transform="matrix(0.35277777,0,0,-0.35277777,43.817879,99.643667)">
      <path
         d="M 0,0 H 19.917 L 19.916,13.25 H 0 Z M 19.959,-0.043 V 0 Z M -0.084,-0.084 V 13.332 H 20 V -0.043 -0.084 Z"
         style="fill:#221f21;fill-opacity:1;fill-rule:nonzero;stroke:none"
         id="path37788"
         inkscape:connector-curvature="0" />
    </g>
    <path
       d="m 50.858512,98.803457 h -7.05555 v -0.28504 h 7.05555 z"
       style="fill:#efca25;fill-opacity:1;fill-rule:nonzero;stroke:none;stroke-width:0.35277778"
       id="path37790"
       inkscape:connector-curvature="0" />
    <path
       d="m 50.858512,96.095186 h -7.05555 v -0.2854 h 7.05555 z"
       style="fill:#efca25;fill-opacity:1;fill-rule:nonzero;stroke:none;stroke-width:0.35277778"
       id="path37792"
       inkscape:connector-curvature="0" />
    <path
       d="m 50.858512,95.810136 h -7.05555 v -0.85513 h 7.05555 z"
       style="fill:#445cb3;fill-opacity:1;fill-rule:nonzero;stroke:none;stroke-width:0.35277778"
       id="path37794"
       inkscape:connector-curvature="0" />
    <path
       d="m 50.858512,98.518417 h -7.05555 v -2.423231 h 7.05555 z"
       style="fill:#a1252a;fill-opacity:1;fill-rule:nonzero;stroke:none;stroke-width:0.35277778"
       id="path37796"
       inkscape:connector-curvature="0" />
    <path
       d="m 50.858512,99.658587 h -7.05555 v -0.85513 h 7.05555 z"
       style="fill:#445cb3;fill-opacity:1;fill-rule:nonzero;stroke:none;stroke-width:0.35277778"
       id="path37798"
       inkscape:connector-curvature="0" />
    <g
       id="g37800"
       transform="matrix(0.35277777,0,0,-0.35277777,49.602869,96.767016)">
      <path
         d="M 0,0 -0.822,-0.29 0,-0.58 0.822,-0.29 Z"
         style="fill:#ffffff;fill-opacity:1;fill-rule:nonzero;stroke:none"
         id="path37802"
         inkscape:connector-curvature="0" />
    </g>
    <g
       id="g37804"
       transform="matrix(0.35277777,0,0,-0.35277777,49.600829,96.772514)">
      <path
         d="m 0,0 0.006,0.016 z m -0.765,-0.274 0.771,-0.273 0.769,0.273 -0.769,0.272 z m -0.104,0 L 0,0.031 0.006,0.035 0.881,-0.274 0.006,-0.583 Z"
         style="fill:#0e0f0e;fill-opacity:1;fill-rule:nonzero;stroke:none"
         id="path37806"
         inkscape:connector-curvature="0" />
    </g>
    <g
       id="g37808"
       transform="matrix(0.35277777,0,0,-0.35277777,49.329679,96.971656)">
      <path
         d="M 0,0 -0.822,-0.29 0,-0.581 0.822,-0.29 Z"
         style="fill:#ffffff;fill-opacity:1;fill-rule:nonzero;stroke:none"
         id="path37810"
         inkscape:connector-curvature="0" />
    </g>
    <g
       id="g37812"
       transform="matrix(0.35277777,0,0,-0.35277777,49.327629,96.977164)">
      <path
         d="m 0,0 0.006,0.016 z m -0.764,-0.274 0.77,-0.273 0.769,0.273 -0.769,0.271 z m -0.104,0 L 0,0.031 0.006,0.033 0.881,-0.274 0.006,-0.584 Z"
         style="fill:#0e0f0e;fill-opacity:1;fill-rule:nonzero;stroke:none"
         id="path37814"
         inkscape:connector-curvature="0" />
    </g>
    <g
       id="g37816"
       transform="matrix(0.35277777,0,0,-0.35277777,44.480039,97.261745)">
      <path
         d="m 0,0 h 16.162 l 0.143,-0.146 -0.143,-0.145 H 0 l -0.144,0.145 z"
         style="fill:#efca25;fill-opacity:1;fill-rule:nonzero;stroke:none"
         id="path37818"
         inkscape:connector-curvature="0" />
    </g>
    <g
       id="g37820"
       transform="matrix(0.35277777,0,0,-0.35277777,44.480039,97.368885)">
      <path
         d="M 0,0 -0.156,0.158 0,0.317 V 0.304 0.29 L -0.13,0.158 0,0.026 H 16.162 L 16.291,0.158 16.162,0.29 H 0 V 0.304 0.317 H 16.162 L 16.318,0.158 16.162,0 Z"
         style="fill:#0e0f0e;fill-opacity:1;fill-rule:nonzero;stroke:none"
         id="path37822"
         inkscape:connector-curvature="0" />
    </g>
    <g
       id="g37824"
       transform="matrix(0.35277777,0,0,-0.35277777,45.219679,96.835236)">
      <path
         d="m 0,0 h 11.884 l 0.105,-0.097 -0.105,-0.096 H 0 l -0.105,0.096 z"
         style="fill:#efca25;fill-opacity:1;fill-rule:nonzero;stroke:none"
         id="path37826"
         inkscape:connector-curvature="0" />
    </g>
    <g
       id="g37828"
       transform="matrix(0.35277777,0,0,-0.35277777,45.219679,96.908264)">
      <path
         d="M 0,0 -0.119,0.11 0,0.221 V 0.207 0.193 L -0.091,0.11 0,0.027 H 11.884 L 11.976,0.11 11.884,0.193 H 0 V 0.207 0.221 H 11.884 L 12.003,0.11 11.884,0 Z"
         style="fill:#0e0f0e;fill-opacity:1;fill-rule:nonzero;stroke:none"
         id="path37830"
         inkscape:connector-curvature="0" />
    </g>
    <g
       id="g37832"
       transform="matrix(0.35277777,0,0,-0.35277777,44.946839,97.039886)">
      <path
         d="m 0,0 h 11.884 l 0.104,-0.097 -0.104,-0.096 H 0 l -0.104,0.096 z"
         style="fill:#efca25;fill-opacity:1;fill-rule:nonzero;stroke:none"
         id="path37834"
         inkscape:connector-curvature="0" />
    </g>
    <g
       id="g37836"
       transform="matrix(0.35277777,0,0,-0.35277777,44.946839,97.112906)">
      <path
         d="M 0,0 -0.119,0.11 0,0.22 V 0.207 0.193 L -0.092,0.11 0,0.026 H 11.884 L 11.976,0.11 11.884,0.193 H 0 V 0.207 0.22 H 11.884 L 12.001,0.11 11.884,0 Z"
         style="fill:#0e0f0e;fill-opacity:1;fill-rule:nonzero;stroke:none"
         id="path37838"
         inkscape:connector-curvature="0" />
    </g>
    <g
       id="g37840"
       transform="matrix(0.35277777,0,0,-0.35277777,49.061989,97.108075)">
      <path
         d="M 0,0 0.033,0.033 0.076,0.054 0.096,0.097 0.076,0.139 0.033,0.158 0,0.193 0.033,0.227 0.125,0.187 0.164,0.097 0.125,0.006 0.033,-0.035 Z"
         style="fill:#0e0f0e;fill-opacity:1;fill-rule:nonzero;stroke:none"
         id="path37842"
         inkscape:connector-curvature="0" />
    </g>
    <g
       id="g37844"
       transform="matrix(0.35277777,0,0,-0.35277777,49.017899,97.108075)">
      <path
         d="M 0,0 0.033,0.033 0.077,0.054 0.097,0.097 0.077,0.139 0.033,0.158 0,0.193 0.033,0.227 0.125,0.187 0.164,0.097 0.125,0.006 0.033,-0.035 Z"
         style="fill:#0e0f0e;fill-opacity:1;fill-rule:nonzero;stroke:none"
         id="path37846"
         inkscape:connector-curvature="0" />
    </g>
    <g
       id="g37848"
       transform="matrix(0.35277777,0,0,-0.35277777,48.974149,97.108075)">
      <path
         d="M 0,0 0.034,0.033 0.077,0.054 0.097,0.097 0.077,0.139 0.034,0.158 0,0.193 0.034,0.227 0.125,0.187 0.165,0.097 0.125,0.006 0.034,-0.035 Z"
         style="fill:#0e0f0e;fill-opacity:1;fill-rule:nonzero;stroke:none"
         id="path37850"
         inkscape:connector-curvature="0" />
    </g>
    <g
       id="g37852"
       transform="matrix(0.35277777,0,0,-0.35277777,49.334509,96.903425)">
      <path
         d="M 0,0 0.035,0.034 0.077,0.054 0.098,0.097 0.077,0.14 0.035,0.159 0,0.193 0.035,0.229 0.125,0.187 0.165,0.097 0.125,0.006 0.035,-0.033 v -0.002 z"
         style="fill:#0e0f0e;fill-opacity:1;fill-rule:nonzero;stroke:none"
         id="path37854"
         inkscape:connector-curvature="0" />
    </g>
    <g
       id="g37856"
       transform="matrix(0.35277777,0,0,-0.35277777,49.290769,96.903425)">
      <path
         d="M 0,0 0.035,0.035 0.077,0.054 0.098,0.097 0.077,0.14 0.035,0.159 0,0.193 0.035,0.229 0.125,0.187 0.166,0.097 0.125,0.006 0.035,-0.035 Z"
         style="fill:#0e0f0e;fill-opacity:1;fill-rule:nonzero;stroke:none"
         id="path37858"
         inkscape:connector-curvature="0" />
    </g>
    <g
       id="g37860"
       transform="matrix(0.35277777,0,0,-0.35277777,49.247339,96.903425)">
      <path
         d="M 0,0 0.033,0.034 0.076,0.054 0.097,0.097 0.076,0.14 0.033,0.159 0,0.193 0.033,0.229 0.124,0.187 0.165,0.097 0.124,0.006 0.033,-0.035 Z"
         style="fill:#0e0f0e;fill-opacity:1;fill-rule:nonzero;stroke:none"
         id="path37862"
         inkscape:connector-curvature="0" />
    </g>
    <g
       id="g37864"
       transform="matrix(0.35277777,0,0,-0.35277777,46.845769,96.367384)">
      <path
         d="M 0,0 C 0.501,0.178 1.036,0.264 1.565,0.236 1.979,0.225 2.394,0.153 2.79,0.028 3.208,-0.104 3.604,-0.3 3.97,-0.539 4.472,-0.867 4.915,-1.277 5.325,-1.713 5.626,-2.026 5.905,-2.357 6.212,-2.662 5.968,-2.904 5.741,-3.166 5.507,-3.418 5.229,-3.719 4.944,-4.014 4.635,-4.28 4.257,-4.607 3.844,-4.897 3.394,-5.113 2.795,-5.404 2.134,-5.555 1.47,-5.567 H 1.296 c -0.608,0.012 -1.206,0.171 -1.751,0.43 -0.788,0.375 -1.469,0.936 -2.089,1.54 -0.312,0.305 -0.611,0.625 -0.919,0.934 0.127,0.128 0.25,0.258 0.376,0.387 0.57,0.59 1.16,1.169 1.842,1.631 C -0.858,-0.381 -0.442,-0.156 0,0"
         style="fill:#0e0f0e;fill-opacity:1;fill-rule:nonzero;stroke:none"
         id="path37866"
         inkscape:connector-curvature="0" />
    </g>
    <g
       id="g37868"
       transform="matrix(0.35277777,0,0,-0.35277777,47.200279,96.467995)">
      <path
         d="M 0,0 C 0.08,0.179 0.205,0.334 0.343,0.474 0.818,0.476 1.298,0.41 1.752,0.266 2.207,0.125 2.637,-0.093 3.028,-0.363 3.503,-0.687 3.924,-1.084 4.316,-1.502 4.592,-1.791 4.851,-2.095 5.131,-2.378 4.836,-2.674 4.566,-2.994 4.277,-3.293 3.951,-3.639 3.605,-3.966 3.226,-4.251 2.796,-4.573 2.319,-4.838 1.809,-5.003 1.659,-5.051 1.51,-5.098 1.355,-5.122 1.324,-5.01 1.24,-4.92 1.149,-4.852 0.994,-4.738 0.815,-4.664 0.638,-4.595 0.516,-4.547 0.391,-4.506 0.273,-4.446 l -0.092,0.081 0.112,0.105 c 0.167,0.062 0.345,0.076 0.518,0.117 l 0.179,0.067 0.026,0.075 -0.105,0.089 c -0.16,0.082 -0.336,0.126 -0.493,0.21 l -0.111,0.111 0.106,0.171 c 0.099,0.073 0.218,0.136 0.268,0.254 l 0.032,0.211 c 0.012,0.125 0.069,0.246 0.163,0.33 l 0.249,0.182 0.025,0.131 -0.09,0.041 c -0.101,0.011 -0.182,0.089 -0.228,0.177 -0.05,0.113 -0.049,0.24 -0.05,0.363 -0.002,0.14 0.021,0.282 -0.008,0.422 L 0.736,-1.239 0.6,-1.192 0.494,-0.981 0.381,-0.924 0.221,-0.889 0.179,-0.778 C 0.165,-0.682 0.114,-0.591 0.05,-0.517 l -0.097,0.18 C -0.074,-0.223 -0.045,-0.104 0,0"
         style="fill:#ffffff;fill-opacity:1;fill-rule:nonzero;stroke:none"
         id="path37870"
         inkscape:connector-curvature="0" />
    </g>
    <path
       d="m 46.261112,96.942556 h 0.0829 v 0.27269 h -0.0829 z"
       style="fill:#ffffff;fill-opacity:1;fill-rule:nonzero;stroke:none;stroke-width:0.35277778"
       id="path37872"
       inkscape:connector-curvature="0" />
    <path
       d="m 46.261112,97.397636 h 0.0829 v 0.272701 h -0.0829 z"
       style="fill:#ffffff;fill-opacity:1;fill-rule:nonzero;stroke:none;stroke-width:0.35277778"
       id="path37874"
       inkscape:connector-curvature="0" />
    <path
       d="m 46.426922,96.942556 h 0.0826 v 0.27269 h -0.0826 z"
       style="fill:#ffffff;fill-opacity:1;fill-rule:nonzero;stroke:none;stroke-width:0.35277778"
       id="path37876"
       inkscape:connector-curvature="0" />
    <path
       d="m 46.426922,97.397636 h 0.0826 v 0.272701 h -0.0826 z"
       style="fill:#ffffff;fill-opacity:1;fill-rule:nonzero;stroke:none;stroke-width:0.35277778"
       id="path37878"
       inkscape:connector-curvature="0" />
    <path
       d="m 46.592022,96.942556 h 0.0829 v 0.27269 h -0.0829 z"
       style="fill:#ffffff;fill-opacity:1;fill-rule:nonzero;stroke:none;stroke-width:0.35277778"
       id="path37880"
       inkscape:connector-curvature="0" />
    <path
       d="m 46.592022,97.397636 h 0.0829 v 0.272701 h -0.0829 z"
       style="fill:#ffffff;fill-opacity:1;fill-rule:nonzero;stroke:none;stroke-width:0.35277778"
       id="path37882"
       inkscape:connector-curvature="0" />
    <path
       d="m 46.757822,96.942556 h 0.0825 v 0.27269 h -0.0825 z"
       style="fill:#ffffff;fill-opacity:1;fill-rule:nonzero;stroke:none;stroke-width:0.35277778"
       id="path37884"
       inkscape:connector-curvature="0" />
    <path
       d="m 46.757822,97.397636 h 0.0825 v 0.272701 h -0.0825 z"
       style="fill:#ffffff;fill-opacity:1;fill-rule:nonzero;stroke:none;stroke-width:0.35277778"
       id="path37886"
       inkscape:connector-curvature="0" />
    <path
       d="m 46.923282,96.942556 h 0.0825 v 0.27269 h -0.0825 z"
       style="fill:#ffffff;fill-opacity:1;fill-rule:nonzero;stroke:none;stroke-width:0.35277778"
       id="path37888"
       inkscape:connector-curvature="0" />
    <path
       d="m 46.923282,97.397636 h 0.0825 v 0.272701 h -0.0825 z"
       style="fill:#ffffff;fill-opacity:1;fill-rule:nonzero;stroke:none;stroke-width:0.35277778"
       id="path37890"
       inkscape:connector-curvature="0" />
    <path
       d="m 47.088732,96.942556 h 0.0825 v 0.27269 h -0.0825 z"
       style="fill:#ffffff;fill-opacity:1;fill-rule:nonzero;stroke:none;stroke-width:0.35277778"
       id="path37892"
       inkscape:connector-curvature="0" />
    <path
       d="m 47.088732,97.397636 h 0.0825 v 0.272701 h -0.0825 z"
       style="fill:#ffffff;fill-opacity:1;fill-rule:nonzero;stroke:none;stroke-width:0.35277778"
       id="path37894"
       inkscape:connector-curvature="0" />
    <path
       d="m 47.512772,96.942556 h 0.0825 v 0.27269 h -0.0825 z"
       style="fill:#0e0f0e;fill-opacity:1;fill-rule:nonzero;stroke:none;stroke-width:0.35277778"
       id="path37896"
       inkscape:connector-curvature="0" />
    <path
       d="m 47.512772,97.397636 h 0.0825 v 0.272701 h -0.0825 z"
       style="fill:#0e0f0e;fill-opacity:1;fill-rule:nonzero;stroke:none;stroke-width:0.35277778"
       id="path37898"
       inkscape:connector-curvature="0" />
    <path
       d="m 47.678222,96.942556 h 0.0829 v 0.27269 h -0.0829 z"
       style="fill:#0e0f0e;fill-opacity:1;fill-rule:nonzero;stroke:none;stroke-width:0.35277778"
       id="path37900"
       inkscape:connector-curvature="0" />
    <path
       d="m 47.678222,97.397636 h 0.0829 v 0.272701 h -0.0829 z"
       style="fill:#0e0f0e;fill-opacity:1;fill-rule:nonzero;stroke:none;stroke-width:0.35277778"
       id="path37902"
       inkscape:connector-curvature="0" />
    <path
       d="m 47.843672,96.942556 h 0.0825 v 0.27269 h -0.0825 z"
       style="fill:#0e0f0e;fill-opacity:1;fill-rule:nonzero;stroke:none;stroke-width:0.35277778"
       id="path37904"
       inkscape:connector-curvature="0" />
    <path
       d="m 47.843672,97.397636 h 0.0825 v 0.272701 h -0.0825 z"
       style="fill:#0e0f0e;fill-opacity:1;fill-rule:nonzero;stroke:none;stroke-width:0.35277778"
       id="path37906"
       inkscape:connector-curvature="0" />
    <path
       d="m 48.009132,96.942556 h 0.0825 v 0.27269 h -0.0825 z"
       style="fill:#0e0f0e;fill-opacity:1;fill-rule:nonzero;stroke:none;stroke-width:0.35277778"
       id="path37908"
       inkscape:connector-curvature="0" />
    <path
       d="m 48.009132,97.397636 h 0.0825 v 0.272701 h -0.0825 z"
       style="fill:#0e0f0e;fill-opacity:1;fill-rule:nonzero;stroke:none;stroke-width:0.35277778"
       id="path37910"
       inkscape:connector-curvature="0" />
    <path
       d="m 48.174582,96.942556 h 0.0829 v 0.27269 h -0.0829 z"
       style="fill:#0e0f0e;fill-opacity:1;fill-rule:nonzero;stroke:none;stroke-width:0.35277778"
       id="path37912"
       inkscape:connector-curvature="0" />
    <path
       d="m 48.174582,97.397636 h 0.0829 v 0.272701 h -0.0829 z"
       style="fill:#0e0f0e;fill-opacity:1;fill-rule:nonzero;stroke:none;stroke-width:0.35277778"
       id="path37914"
       inkscape:connector-curvature="0" />
    <path
       d="m 48.340392,96.942556 h 0.0825 v 0.27269 h -0.0825 z"
       style="fill:#0e0f0e;fill-opacity:1;fill-rule:nonzero;stroke:none;stroke-width:0.35277778"
       id="path37916"
       inkscape:connector-curvature="0" />
    <path
       d="m 48.340392,97.397636 h 0.0825 v 0.272701 h -0.0825 z"
       style="fill:#0e0f0e;fill-opacity:1;fill-rule:nonzero;stroke:none;stroke-width:0.35277778"
       id="path37918"
       inkscape:connector-curvature="0" />
    <g
       id="g37920"
       transform="matrix(0.35277777,0,0,-0.35277777,46.793069,96.484505)">
      <path
         d="m 0,0 c -0.13,-0.251 0.227,0.083 0.786,-0.337 0.104,-0.078 0.252,-0.386 0.252,-0.528 -0.119,0.025 -0.33,0.142 -0.33,0.142 0,0 0.247,-0.247 0.247,-0.533 l -0.16,0.114 c 0,-0.092 0.078,-0.151 0.078,-0.295 l -0.17,0.115 C 0.785,-1.465 0.553,-1.742 0.67,-1.834 0.466,-1.806 0.258,-1.676 0.175,-1.532 l -0.05,-0.125 c 0.007,-0.005 -0.309,0.234 -0.28,0.327 l -0.059,-0.16 c -0.116,0.115 -0.223,0.229 -0.261,0.377 l -0.107,-0.133 c -0.038,0.234 -0.038,0.226 0.039,0.428 L -0.698,-0.937 C -0.646,-0.596 -0.381,-0.197 0,0"
         style="fill:#445aa6;fill-opacity:1;fill-rule:nonzero;stroke:none"
         id="path37922"
         inkscape:connector-curvature="0" />
    </g>
    <g
       id="g37924"
       transform="matrix(0.35277777,0,0,-0.35277777,46.858859,97.022636)">
      <path
         d="M 0,0 C 0.075,-0.131 0.262,-0.252 0.449,-0.291 L 0.437,-0.23 c 0,0.104 0.085,0.25 0.084,0.357 L 0.505,0.196 0.481,0.237 0.523,0.214 0.673,0.117 C 0.664,0.234 0.598,0.289 0.596,0.384 L 0.621,0.389 0.674,0.334 0.755,0.294 C 0.745,0.492 0.616,0.672 0.55,0.751 L 0.513,0.794 0.528,0.814 0.647,0.753 0.837,0.677 C 0.827,0.82 0.686,1.109 0.592,1.178 0.312,1.388 0.087,1.406 -0.054,1.406 h -0.087 l -0.057,0.006 -0.028,0.039 0.011,0.043 C -0.561,1.301 -0.804,0.937 -0.865,0.621 L -0.736,0.718 -0.702,0.74 -0.717,0.701 C -0.763,0.583 -0.78,0.539 -0.78,0.478 l 0.019,-0.167 0.089,0.11 0.017,0.021 0.006,-0.026 C -0.613,0.28 -0.518,0.172 -0.409,0.063 L -0.353,0.203 -0.33,0.191 -0.331,0.182 -0.196,0 -0.073,-0.105 -0.02,0.004 -0.007,0.012 Z M 0.481,-0.322 C 0.28,-0.293 0.076,-0.169 -0.015,-0.026 L -0.048,-0.131 -0.05,-0.14 -0.065,-0.145 -0.068,-0.143 h -0.001 l -0.002,0.001 -0.006,0.005 -0.019,0.016 -0.063,0.053 L -0.31,0.083 -0.352,0.155 -0.388,0.034 -0.392,0.008 -0.409,0.026 C -0.52,0.135 -0.622,0.244 -0.667,0.385 L -0.758,0.271 -0.776,0.247 -0.781,0.276 C -0.797,0.374 -0.807,0.43 -0.807,0.478 l 0.05,0.194 -0.119,-0.094 -0.026,-0.021 0.005,0.035 c 0.052,0.344 0.32,0.745 0.706,0.945 l 0.036,0.02 -0.019,-0.037 -0.025,-0.069 0.01,-0.014 0.048,-0.005 0.087,0.002 C 0.089,1.434 0.323,1.412 0.607,1.199 0.717,1.115 0.862,0.811 0.864,0.66 V 0.645 L 0.849,0.646 0.58,0.758 C 0.651,0.669 0.782,0.48 0.782,0.27 V 0.246 L 0.763,0.259 0.661,0.311 0.631,0.33 C 0.651,0.269 0.699,0.205 0.699,0.089 V 0.062 L 0.678,0.079 0.542,0.172 0.549,0.127 C 0.548,0.01 0.462,-0.138 0.463,-0.23 l 0.028,-0.069 0.039,-0.03 z"
         style="fill:#0e0f0e;fill-opacity:1;fill-rule:nonzero;stroke:none"
         id="path37926"
         inkscape:connector-curvature="0" />
    </g>
    <g
       id="g37928"
       transform="matrix(0.35277777,0,0,-0.35277777,46.657319,96.885544)">
      <path
         d="M 0,0 C 0.021,0.172 0.065,0.236 0.08,0.349 0.104,0.544 0.075,0.687 0.145,0.684 0.214,0.68 0.232,0.607 0.199,0.412 0.165,0.217 0.137,0.17 0,0"
         style="fill:#962429;fill-opacity:1;fill-rule:nonzero;stroke:none"
         id="path37930"
         inkscape:connector-curvature="0" />
    </g>
    <g
       id="g37932"
       transform="matrix(0.35277777,0,0,-0.35277777,46.862989,96.644705)">
      <path
         d="M 0,0 C -0.192,0.044 -0.251,0.091 -0.228,0.156 -0.203,0.221 -0.083,0.14 0.106,0.085 0.214,0.054 0.291,0.07 0.459,0.022 0.249,-0.036 0.194,-0.045 0,0"
         style="fill:#962429;fill-opacity:1;fill-rule:nonzero;stroke:none"
         id="path37934"
         inkscape:connector-curvature="0" />
    </g>
    <g
       id="g37936"
       transform="matrix(0.35277777,0,0,-0.35277777,46.803399,96.983726)">
      <path
         d="M 0,0 C -0.013,0.146 0.013,0.208 0.004,0.302 -0.011,0.468 -0.062,0.58 -0.001,0.59 0.06,0.601 0.089,0.545 0.096,0.378 0.103,0.212 0.086,0.167 0,0"
         style="fill:#962429;fill-opacity:1;fill-rule:nonzero;stroke:none"
         id="path37938"
         inkscape:connector-curvature="0" />
    </g>
    <g
       id="g37940"
       transform="matrix(0.35277777,0,0,-0.35277777,46.922609,96.806275)">
      <path
         d="M 0,0 C -0.141,0.093 -0.172,0.147 -0.131,0.193 -0.092,0.24 -0.022,0.139 0.111,0.039 0.187,-0.017 0.253,-0.025 0.371,-0.113 0.185,-0.102 0.139,-0.092 0,0"
         style="fill:#962429;fill-opacity:1;fill-rule:nonzero;stroke:none"
         id="path37942"
         inkscape:connector-curvature="0" />
    </g>
    <g
       id="g37944"
       transform="matrix(0.35277777,0,0,-0.35277777,47.004949,97.116335)">
      <path
         d="M 0,0 C -0.035,0.135 -0.08,0.182 -0.103,0.27 -0.144,0.424 -0.135,0.54 -0.192,0.53 -0.249,0.521 -0.259,0.461 -0.209,0.309 -0.16,0.156 -0.131,0.122 0,0"
         style="fill:#962429;fill-opacity:1;fill-rule:nonzero;stroke:none"
         id="path37946"
         inkscape:connector-curvature="0" />
    </g>
    <g
       id="g37948"
       transform="matrix(0.35277777,0,0,-0.35277777,44.800439,97.297556)">
      <path
         d="m 0,0 c -0.131,-0.25 0.227,0.084 0.785,-0.336 0.104,-0.078 0.252,-0.386 0.252,-0.528 -0.119,0.025 -0.33,0.142 -0.33,0.142 0,0 0.247,-0.247 0.247,-0.533 l -0.159,0.114 c 0,-0.093 0.078,-0.152 0.078,-0.295 L 0.702,-1.322 C 0.785,-1.465 0.553,-1.742 0.668,-1.834 0.465,-1.805 0.257,-1.675 0.174,-1.531 L 0.125,-1.656 c 0.005,-0.006 -0.311,0.234 -0.281,0.326 l -0.059,-0.158 c -0.116,0.114 -0.222,0.228 -0.262,0.377 l -0.106,-0.134 c -0.038,0.233 -0.038,0.225 0.039,0.427 L -0.698,-0.936 C -0.647,-0.596 -0.382,-0.197 0,0"
         style="fill:#445aa6;fill-opacity:1;fill-rule:nonzero;stroke:none"
         id="path37950"
         inkscape:connector-curvature="0" />
    </g>
    <g
       id="g37952"
       transform="matrix(0.35277777,0,0,-0.35277777,44.865879,97.835687)">
      <path
         d="m 0,0 c 0.074,-0.13 0.262,-0.252 0.449,-0.29 l -0.012,0.061 c 0,0.104 0.085,0.25 0.084,0.356 L 0.506,0.197 0.481,0.238 0.523,0.215 0.673,0.117 C 0.664,0.235 0.597,0.291 0.595,0.385 L 0.621,0.39 0.673,0.334 0.756,0.293 C 0.746,0.492 0.616,0.673 0.55,0.752 l -0.038,0.042 0.015,0.02 0.12,-0.06 0.19,-0.076 C 0.828,0.82 0.687,1.109 0.591,1.179 0.312,1.388 0.087,1.407 -0.055,1.408 l -0.086,-0.002 -0.058,0.007 -0.027,0.039 0.01,0.043 C -0.561,1.302 -0.804,0.939 -0.865,0.622 L -0.736,0.719 -0.702,0.74 -0.718,0.702 C -0.763,0.584 -0.78,0.541 -0.78,0.479 l 0.02,-0.167 0.088,0.11 0.016,0.021 0.007,-0.026 C -0.613,0.281 -0.519,0.172 -0.41,0.064 L -0.353,0.203 -0.33,0.191 -0.331,0.183 -0.195,0 l 0.122,-0.105 0.053,0.11 0.013,0.007 z m 0.48,-0.322 c -0.201,0.03 -0.405,0.154 -0.495,0.296 l -0.033,-0.105 -0.002,-0.008 -0.016,-0.006 -0.001,0.001 -0.001,0.001 -0.001,0.001 v 0.001 h -0.002 l -0.005,0.004 -0.02,0.016 L -0.16,-0.068 -0.311,0.084 -0.353,0.156 -0.387,0.034 -0.391,0.008 -0.41,0.027 C -0.52,0.135 -0.622,0.245 -0.667,0.385 L -0.757,0.271 -0.776,0.247 -0.781,0.277 C -0.797,0.375 -0.807,0.43 -0.807,0.479 l 0.051,0.193 -0.119,-0.093 -0.028,-0.021 0.007,0.034 c 0.052,0.345 0.318,0.746 0.704,0.945 L -0.155,1.557 -0.175,1.52 -0.2,1.452 -0.19,1.437 -0.141,1.434 h 0.086 C 0.089,1.435 0.323,1.413 0.607,1.2 0.716,1.116 0.863,0.812 0.865,0.661 V 0.645 L 0.849,0.647 0.58,0.758 C 0.652,0.669 0.781,0.481 0.782,0.271 V 0.246 L 0.762,0.26 0.66,0.312 0.631,0.33 C 0.651,0.269 0.699,0.205 0.699,0.09 V 0.062 L 0.679,0.08 0.543,0.174 0.548,0.127 C 0.547,0.01 0.462,-0.138 0.463,-0.229 l 0.027,-0.07 0.04,-0.029 z"
         style="fill:#0e0f0e;fill-opacity:1;fill-rule:nonzero;stroke:none"
         id="path37954"
         inkscape:connector-curvature="0" />
    </g>
    <g
       id="g37956"
       transform="matrix(0.35277777,0,0,-0.35277777,44.664339,97.698557)">
      <path
         d="M 0,0 C 0.021,0.173 0.066,0.237 0.079,0.349 0.104,0.545 0.075,0.687 0.145,0.684 0.214,0.68 0.233,0.608 0.198,0.413 0.165,0.218 0.136,0.17 0,0"
         style="fill:#962429;fill-opacity:1;fill-rule:nonzero;stroke:none"
         id="path37958"
         inkscape:connector-curvature="0" />
    </g>
    <g
       id="g37960"
       transform="matrix(0.35277777,0,0,-0.35277777,44.870009,97.457396)">
      <path
         d="M 0,0 C -0.193,0.044 -0.252,0.09 -0.229,0.156 -0.204,0.221 -0.084,0.139 0.106,0.084 0.213,0.054 0.291,0.07 0.459,0.021 0.249,-0.037 0.193,-0.045 0,0"
         style="fill:#962429;fill-opacity:1;fill-rule:nonzero;stroke:none"
         id="path37962"
         inkscape:connector-curvature="0" />
    </g>
    <g
       id="g37964"
       transform="matrix(0.35277777,0,0,-0.35277777,44.810769,97.796417)">
      <path
         d="M 0,0 C -0.015,0.146 0.012,0.208 0.003,0.302 -0.012,0.467 -0.063,0.578 -0.004,0.589 0.058,0.6 0.089,0.545 0.094,0.378 0.101,0.211 0.085,0.166 0,0"
         style="fill:#962429;fill-opacity:1;fill-rule:nonzero;stroke:none"
         id="path37966"
         inkscape:connector-curvature="0" />
    </g>
    <g
       id="g37968"
       transform="matrix(0.35277777,0,0,-0.35277777,44.929269,97.619007)">
      <path
         d="M 0,0 C -0.139,0.092 -0.171,0.147 -0.131,0.193 -0.091,0.239 -0.021,0.138 0.111,0.039 0.188,-0.018 0.255,-0.026 0.372,-0.114 0.186,-0.102 0.139,-0.093 0,0"
         style="fill:#962429;fill-opacity:1;fill-rule:nonzero;stroke:none"
         id="path37970"
         inkscape:connector-curvature="0" />
    </g>
    <g
       id="g37972"
       transform="matrix(0.35277777,0,0,-0.35277777,45.011959,97.929377)">
      <path
         d="m 0,0 c -0.036,0.136 -0.08,0.184 -0.103,0.271 -0.041,0.153 -0.033,0.27 -0.09,0.26 C -0.25,0.521 -0.259,0.461 -0.209,0.309 -0.16,0.156 -0.132,0.121 0,0"
         style="fill:#962429;fill-opacity:1;fill-rule:nonzero;stroke:none"
         id="path37974"
         inkscape:connector-curvature="0" />
    </g>
    <g
       id="g37976"
       transform="matrix(0.35277777,0,0,-0.35277777,49.743449,97.297556)">
      <path
         d="m 0,0 c -0.13,-0.25 0.227,0.084 0.785,-0.336 0.104,-0.078 0.252,-0.386 0.252,-0.528 -0.119,0.025 -0.33,0.142 -0.33,0.142 0,0 0.248,-0.247 0.248,-0.533 l -0.16,0.114 c 0,-0.093 0.078,-0.152 0.078,-0.295 L 0.702,-1.322 C 0.785,-1.465 0.553,-1.742 0.669,-1.834 0.466,-1.805 0.257,-1.675 0.176,-1.531 L 0.125,-1.656 c 0.006,-0.006 -0.31,0.234 -0.281,0.326 l -0.059,-0.158 c -0.115,0.114 -0.222,0.228 -0.261,0.377 l -0.106,-0.134 c -0.039,0.233 -0.039,0.225 0.039,0.427 L -0.699,-0.936 C -0.646,-0.596 -0.382,-0.197 0,0"
         style="fill:#445aa6;fill-opacity:1;fill-rule:nonzero;stroke:none"
         id="path37978"
         inkscape:connector-curvature="0" />
    </g>
    <g
       id="g37980"
       transform="matrix(0.35277777,0,0,-0.35277777,49.809249,97.835687)">
      <path
         d="m 0,0 c 0.075,-0.13 0.262,-0.252 0.449,-0.29 l -0.012,0.061 c 0,0.104 0.085,0.25 0.084,0.356 L 0.505,0.197 0.481,0.238 0.522,0.215 0.672,0.117 C 0.663,0.235 0.597,0.291 0.596,0.385 L 0.62,0.39 0.673,0.334 0.755,0.293 C 0.745,0.492 0.616,0.673 0.55,0.752 l -0.037,0.042 0.014,0.02 0.12,-0.06 0.19,-0.076 C 0.827,0.82 0.686,1.109 0.591,1.179 0.312,1.388 0.086,1.407 -0.055,1.408 L -0.142,1.406 -0.199,1.413 -0.227,1.452 -0.216,1.495 C -0.562,1.302 -0.805,0.939 -0.866,0.622 L -0.737,0.719 -0.703,0.74 -0.718,0.702 C -0.763,0.584 -0.782,0.541 -0.782,0.479 l 0.021,-0.167 0.088,0.11 0.016,0.021 0.008,-0.026 c 0.036,-0.136 0.13,-0.245 0.24,-0.353 L -0.353,0.203 -0.329,0.191 -0.331,0.183 -0.196,0 l 0.123,-0.105 0.053,0.11 0.013,0.007 z m 0.481,-0.322 c -0.202,0.03 -0.406,0.154 -0.497,0.296 l -0.033,-0.105 -0.001,-0.008 -0.015,-0.006 -0.003,0.001 -0.001,0.001 v 0.001 0.001 h -0.002 l -0.005,0.004 -0.021,0.016 -0.062,0.053 L -0.311,0.084 -0.353,0.156 -0.388,0.034 -0.392,0.008 -0.409,0.027 C -0.52,0.135 -0.622,0.245 -0.668,0.385 L -0.758,0.271 -0.777,0.247 -0.782,0.277 C -0.798,0.375 -0.808,0.43 -0.808,0.479 l 0.051,0.193 -0.119,-0.093 -0.027,-0.021 0.006,0.034 c 0.052,0.345 0.319,0.746 0.705,0.945 L -0.156,1.557 -0.175,1.52 -0.2,1.452 -0.19,1.437 -0.142,1.434 h 0.087 C 0.089,1.435 0.323,1.413 0.606,1.2 0.716,1.116 0.862,0.812 0.864,0.661 V 0.645 L 0.849,0.647 0.579,0.758 C 0.651,0.669 0.781,0.481 0.782,0.271 V 0.246 L 0.763,0.26 0.66,0.312 0.63,0.33 C 0.65,0.269 0.698,0.205 0.698,0.09 V 0.062 L 0.678,0.08 0.542,0.174 0.548,0.127 C 0.547,0.01 0.462,-0.138 0.462,-0.229 l 0.029,-0.07 0.038,-0.029 z"
         style="fill:#0e0f0e;fill-opacity:1;fill-rule:nonzero;stroke:none"
         id="path37982"
         inkscape:connector-curvature="0" />
    </g>
    <g
       id="g37984"
       transform="matrix(0.35277777,0,0,-0.35277777,49.607699,97.698557)">
      <path
         d="M 0,0 C 0.021,0.173 0.065,0.237 0.079,0.349 0.103,0.545 0.075,0.687 0.144,0.684 0.213,0.68 0.232,0.608 0.199,0.413 0.164,0.218 0.136,0.17 0,0"
         style="fill:#962429;fill-opacity:1;fill-rule:nonzero;stroke:none"
         id="path37986"
         inkscape:connector-curvature="0" />
    </g>
    <g
       id="g37988"
       transform="matrix(0.35277777,0,0,-0.35277777,49.813369,97.457396)">
      <path
         d="M 0,0 C -0.192,0.044 -0.252,0.09 -0.228,0.156 -0.204,0.221 -0.083,0.139 0.106,0.084 0.214,0.054 0.292,0.07 0.458,0.021 0.248,-0.037 0.193,-0.045 0,0"
         style="fill:#962429;fill-opacity:1;fill-rule:nonzero;stroke:none"
         id="path37990"
         inkscape:connector-curvature="0" />
    </g>
    <g
       id="g37992"
       transform="matrix(0.35277777,0,0,-0.35277777,49.753789,97.796417)">
      <path
         d="M 0,0 C -0.015,0.146 0.014,0.208 0.004,0.302 -0.012,0.467 -0.062,0.578 -0.002,0.589 0.059,0.6 0.089,0.545 0.096,0.378 0.102,0.211 0.086,0.166 0,0"
         style="fill:#962429;fill-opacity:1;fill-rule:nonzero;stroke:none"
         id="path37994"
         inkscape:connector-curvature="0" />
    </g>
    <g
       id="g37996"
       transform="matrix(0.35277777,0,0,-0.35277777,49.872639,97.619007)">
      <path
         d="M 0,0 C -0.14,0.092 -0.171,0.147 -0.13,0.193 -0.091,0.239 -0.021,0.138 0.111,0.039 0.187,-0.018 0.255,-0.026 0.372,-0.114 0.185,-0.102 0.14,-0.093 0,0"
         style="fill:#962429;fill-opacity:1;fill-rule:nonzero;stroke:none"
         id="path37998"
         inkscape:connector-curvature="0" />
    </g>
    <g
       id="g38000"
       transform="matrix(0.35277777,0,0,-0.35277777,49.955329,97.929377)">
      <path
         d="M 0,0 C -0.036,0.136 -0.081,0.184 -0.104,0.271 -0.145,0.424 -0.136,0.541 -0.192,0.531 -0.25,0.521 -0.259,0.461 -0.21,0.309 -0.161,0.156 -0.132,0.121 0,0"
         style="fill:#962429;fill-opacity:1;fill-rule:nonzero;stroke:none"
         id="path38002"
         inkscape:connector-curvature="0" />
    </g>
  </g>
</svg>
