<?xml version="1.0" encoding="UTF-8" standalone="no"?>
<!-- Created with Inkscape (http://www.inkscape.org/) -->

<svg
   xmlns:dc="http://purl.org/dc/elements/1.1/"
   xmlns:cc="http://creativecommons.org/ns#"
   xmlns:rdf="http://www.w3.org/1999/02/22-rdf-syntax-ns#"
   xmlns:svg="http://www.w3.org/2000/svg"
   xmlns="http://www.w3.org/2000/svg"
   xmlns:sodipodi="http://sodipodi.sourceforge.net/DTD/sodipodi-0.dtd"
   xmlns:inkscape="http://www.inkscape.org/namespaces/inkscape"
   width="7.084836mm"
   height="4.7328668mm"
   viewBox="0 0 7.0848358 4.7328668"
   version="1.1"
   id="svg8"
   inkscape:version="0.92.4 (5da689c313, 2019-01-14)"
   sodipodi:docname="kiribati.svg">
  <defs
     id="defs2">
    <radialGradient
       id="radialGradient37584"
       spreadMethod="pad"
       gradientTransform="matrix(0.975099,0,0,0.975099,159.64062,365.06934)"
       gradientUnits="userSpaceOnUse"
       r="1"
       cy="0"
       cx="0"
       fy="0"
       fx="0">
      <stop
         id="stop37578"
         offset="0"
         style="stop-opacity:1;stop-color:#852c26" />
      <stop
         id="stop37580"
         offset="0.0015476"
         style="stop-opacity:1;stop-color:#852c26" />
      <stop
         id="stop37582"
         offset="1"
         style="stop-opacity:1;stop-color:#451617" />
    </radialGradient>
    <clipPath
       id="clipPath37532"
       clipPathUnits="userSpaceOnUse">
      <path
         inkscape:connector-curvature="0"
         id="path37530"
         d="M 0,400 H 400 V 0 H 0 Z" />
    </clipPath>
    <radialGradient
       id="radialGradient37522"
       spreadMethod="pad"
       gradientTransform="matrix(-0.2637247,0,0,0.2637247,159.68652,365.88965)"
       gradientUnits="userSpaceOnUse"
       r="1"
       cy="0"
       cx="0"
       fy="0"
       fx="0">
      <stop
         id="stop37516"
         offset="0"
         style="stop-opacity:1;stop-color:#852c26" />
      <stop
         id="stop37518"
         offset="0.0015476"
         style="stop-opacity:1;stop-color:#852c26" />
      <stop
         id="stop37520"
         offset="1"
         style="stop-opacity:1;stop-color:#451617" />
    </radialGradient>
    <clipPath
       id="clipPath37354"
       clipPathUnits="userSpaceOnUse">
      <path
         inkscape:connector-curvature="0"
         id="path37352"
         d="M 0,400 H 400 V 0 H 0 Z" />
    </clipPath>
    <radialGradient
       id="radialGradient37344"
       spreadMethod="pad"
       gradientTransform="matrix(0.975099,0,0,0.975099,155.76025,365.06934)"
       gradientUnits="userSpaceOnUse"
       r="1"
       cy="0"
       cx="0"
       fy="0"
       fx="0">
      <stop
         id="stop37338"
         offset="0"
         style="stop-opacity:1;stop-color:#eee54f" />
      <stop
         id="stop37340"
         offset="0.9977451"
         style="stop-opacity:1;stop-color:#e04a20" />
      <stop
         id="stop37342"
         offset="1"
         style="stop-opacity:1;stop-color:#e04a20" />
    </radialGradient>
    <clipPath
       id="clipPath37272"
       clipPathUnits="userSpaceOnUse">
      <path
         inkscape:connector-curvature="0"
         id="path37270"
         d="M 0,400 H 400 V 0 H 0 Z" />
    </clipPath>
    <radialGradient
       id="radialGradient37262"
       spreadMethod="pad"
       gradientTransform="matrix(0.2636045,0,0,0.2636045,155.71484,365.89062)"
       gradientUnits="userSpaceOnUse"
       r="1"
       cy="0"
       cx="0"
       fy="0"
       fx="0">
      <stop
         id="stop37256"
         offset="0"
         style="stop-opacity:1;stop-color:#eee54f" />
      <stop
         id="stop37258"
         offset="0.9977451"
         style="stop-opacity:1;stop-color:#e04a20" />
      <stop
         id="stop37260"
         offset="1"
         style="stop-opacity:1;stop-color:#e04a20" />
    </radialGradient>
    <radialGradient
       id="radialGradient5422"
       spreadMethod="pad"
       gradientTransform="matrix(0.1021146,-0.0756367,0.070541,0.1077099,271.97559,176.14746)"
       gradientUnits="userSpaceOnUse"
       r="1"
       cy="0"
       cx="0"
       fy="0"
       fx="0">
      <stop
         id="stop5416"
         offset="0"
         style="stop-opacity:1;stop-color:#ffffff" />
      <stop
         id="stop5418"
         offset="0.00091915"
         style="stop-opacity:1;stop-color:#ffffff" />
      <stop
         id="stop5420"
         offset="1"
         style="stop-opacity:1;stop-color:#e63e6e" />
    </radialGradient>
    <clipPath
       id="clipPath5374"
       clipPathUnits="userSpaceOnUse">
      <path
         inkscape:connector-curvature="0"
         id="path5372"
         d="M 0,400 H 400 V 0 H 0 Z" />
    </clipPath>
    <radialGradient
       id="radialGradient5364"
       spreadMethod="pad"
       gradientTransform="matrix(0.1318831,-9.013e-4,-1.001e-4,0.1311822,269.56445,176.4248)"
       gradientUnits="userSpaceOnUse"
       r="1"
       cy="0"
       cx="0"
       fy="0"
       fx="0">
      <stop
         id="stop5358"
         offset="0"
         style="stop-opacity:1;stop-color:#ffffff" />
      <stop
         id="stop5360"
         offset="0.00091915"
         style="stop-opacity:1;stop-color:#ffffff" />
      <stop
         id="stop5362"
         offset="1"
         style="stop-opacity:1;stop-color:#e63e6e" />
    </radialGradient>
    <clipPath
       id="clipPath5316"
       clipPathUnits="userSpaceOnUse">
      <path
         inkscape:connector-curvature="0"
         id="path5314"
         d="M 0,400 H 400 V 0 H 0 Z" />
    </clipPath>
    <radialGradient
       id="radialGradient5306"
       spreadMethod="pad"
       gradientTransform="matrix(0.1105445,0.0935377,-0.0930375,0.1086438,268.6875,176.89062)"
       gradientUnits="userSpaceOnUse"
       r="1"
       cy="0"
       cx="0"
       fy="0"
       fx="0">
      <stop
         id="stop5300"
         offset="0"
         style="stop-opacity:1;stop-color:#ffffff" />
      <stop
         id="stop5302"
         offset="0.00091915"
         style="stop-opacity:1;stop-color:#ffffff" />
      <stop
         id="stop5304"
         offset="1"
         style="stop-opacity:1;stop-color:#e63e6e" />
    </radialGradient>
  </defs>
  <sodipodi:namedview
     id="base"
     pagecolor="#ffffff"
     bordercolor="#666666"
     borderopacity="1.0"
     inkscape:pageopacity="0.0"
     inkscape:pageshadow="2"
     inkscape:zoom="11.2"
     inkscape:cx="30.88373"
     inkscape:cy="3.6866354"
     inkscape:document-units="mm"
     inkscape:current-layer="layer1"
     showgrid="false"
     inkscape:window-width="954"
     inkscape:window-height="630"
     inkscape:window-x="-3"
     inkscape:window-y="6"
     inkscape:window-maximized="0" />
  <metadata
     id="metadata5">
    <rdf:RDF>
      <cc:Work
         rdf:about="">
        <dc:format>image/svg+xml</dc:format>
        <dc:type
           rdf:resource="http://purl.org/dc/dcmitype/StillImage" />
        <dc:title></dc:title>
      </cc:Work>
    </rdf:RDF>
  </metadata>
  <g
     inkscape:label="Layer 1"
     inkscape:groupmode="layer"
     id="layer1"
     transform="translate(-41.812331,-97.907064)">
    <g
       id="g39066"
       transform="matrix(0.35277777,0,0,-0.35277777,41.841612,102.61065)">
      <path
         d="M 0,0 H 19.917 L 19.916,13.251 H 0 Z M 19.959,-0.042 V 0 Z M -0.083,-0.083 V 13.333 H 20 V -0.042 -0.083 Z"
         style="fill:#221f21;fill-opacity:1;fill-rule:nonzero;stroke:none"
         id="path39068"
         inkscape:connector-curvature="0" />
    </g>
    <path
       d="m 41.826864,97.921603 h 7.05555 v 4.703587 h -7.05555 z"
       style="fill:#c12131;fill-opacity:1;fill-rule:nonzero;stroke:none;stroke-width:0.35277778"
       id="path39070"
       inkscape:connector-curvature="0" />
    <path
       d="m 41.826864,100.48841 h 7.05555 v 2.13678 h -7.05555 z"
       style="fill:#294588;fill-opacity:1;fill-rule:nonzero;stroke:none;stroke-width:0.35277778"
       id="path39072"
       inkscape:connector-curvature="0" />
    <g
       id="g39074"
       transform="matrix(0.35277777,0,0,-0.35277777,44.22973,98.266584)">
      <path
         d="M 0,0 C 0.478,-0.135 0.974,-0.185 1.464,-0.254 1.667,-0.282 1.872,-0.313 2.067,-0.382 2.195,-0.429 2.322,-0.5 2.407,-0.61 l 0.08,-0.152 -0.038,0.019 c -0.254,0.161 -0.542,0.261 -0.833,0.327 -0.133,0.033 -0.265,0.055 -0.399,0.079 -0.381,0.055 -0.763,0.134 -1.12,0.282 L -0.032,0.007 Z M 0.096,0.057 C 0.56,-0.03 1.027,-0.082 1.497,-0.128 L 1.714,-0.153 C 1.847,-0.16 1.98,-0.178 2.112,-0.197 2.274,-0.225 2.436,-0.272 2.575,-0.362 2.695,-0.439 2.801,-0.548 2.857,-0.681 L 2.808,-0.736 2.71,-0.82 2.58,-0.821 C 2.554,-0.7 2.495,-0.585 2.405,-0.5 2.313,-0.41 2.197,-0.352 2.077,-0.309 1.932,-0.258 1.779,-0.229 1.627,-0.205 1.1,-0.124 0.563,-0.08 0.047,0.061 Z m 3.109,-0.494 c 0.123,0.121 0.262,0.228 0.415,0.305 0.218,0.107 0.459,0.16 0.701,0.178 0.142,0.015 0.283,0.011 0.424,0.014 L 4.962,0.069 C 5.184,0.08 5.406,0.1 5.626,0.125 5.763,0.138 5.897,0.162 6.035,0.174 5.892,0.141 5.746,0.113 5.603,0.087 5.406,0.053 5.208,0.023 5.01,0.011 4.652,0.005 4.288,0.01 3.944,-0.103 3.796,-0.15 3.657,-0.222 3.53,-0.315 3.283,-0.498 3.066,-0.72 2.806,-0.885 L 2.803,-0.95 2.854,-0.941 c 0.27,0.172 0.493,0.405 0.753,0.591 0.233,0.163 0.515,0.24 0.795,0.265 0.173,0.02 0.346,0.018 0.521,0.023 l 0.264,0.015 c 0.371,0.042 0.737,0.12 1.101,0.203 L 6.419,0.182 C 6.137,0.055 5.847,-0.051 5.553,-0.142 5.193,-0.252 4.827,-0.342 4.457,-0.397 4.324,-0.418 4.19,-0.43 4.058,-0.441 L 3.963,-0.458 3.832,-0.568 C 3.681,-0.733 3.551,-0.92 3.386,-1.073 L 3.138,-1.233 C 3.052,-1.27 2.958,-1.293 2.864,-1.275 L 2.669,-1.156 2.624,-1.13 2.599,-1.187 c 0.072,-0.099 0.191,-0.163 0.314,-0.167 0.133,-0.004 0.261,0.047 0.373,0.116 0.126,0.075 0.228,0.185 0.323,0.294 l 0.033,0.013 c 0.343,-0.007 0.687,-0.014 1.032,-0.02 L 4.756,-0.957 C 4.591,-1.008 4.426,-1.062 4.265,-1.127 3.985,-1.234 3.714,-1.36 3.428,-1.451 3.249,-1.507 3.063,-1.548 2.873,-1.54 2.627,-1.528 2.385,-1.461 2.167,-1.348 2.03,-1.274 1.901,-1.182 1.798,-1.067 l -0.053,0.06 -0.072,0.003 C 1.516,-1.002 1.357,-1.005 1.2,-1 l -0.107,0.056 c 0.182,0.005 0.365,0 0.548,0.003 l 0.032,0.052 -0.057,0.019 c -0.191,0 -0.382,0 -0.573,0 l -0.002,0.012 c 0.169,0.007 0.336,0.009 0.503,0.015 l 0.034,0.016 0.206,0.091 -0.055,-0.073 0.095,-0.143 0.128,0.119 -0.073,0.104 c 0.132,-0.001 0.257,-0.055 0.369,-0.12 l 0.083,-0.052 0.086,-0.005 c 0.094,-0.003 0.187,-0.005 0.279,-0.005 l 0.065,0.038 c 0.16,0.133 0.297,0.291 0.444,0.436 m 1.389,-0.737 0.188,-0.037 0.056,-0.047 c -0.17,-0.004 -0.339,0.001 -0.509,0 l -0.179,0.005 0.157,0.054 c 0.095,0.014 0.19,0.025 0.287,0.025 M 0.06,-0.118 C 0.384,-0.253 0.728,-0.333 1.073,-0.39 1.397,-0.438 1.725,-0.498 2.032,-0.616 2.181,-0.673 2.324,-0.744 2.455,-0.834 L 2.358,-0.831 2.3,-0.796 C 2.174,-0.718 2.03,-0.661 1.881,-0.654 1.772,-0.652 1.663,-0.68 1.572,-0.741 L 1.52,-0.771 C 1.356,-0.778 1.194,-0.781 1.032,-0.786 L 0.966,-0.864 1.034,-0.99 1.2,-1.071 c 0.17,-0.007 0.339,-0.002 0.51,-0.006 0.149,-0.179 0.35,-0.311 0.564,-0.401 0.205,-0.085 0.425,-0.132 0.647,-0.135 0.178,0 0.353,0.039 0.522,0.091 0.149,0.046 0.294,0.103 0.439,0.162 l 0.119,0.034 c 0.091,-0.003 0.183,0.001 0.272,-0.005 0.219,0 0.438,-0.001 0.656,-0.002 l -0.009,0.088 -0.17,0.126 -0.2,0.018 c 0.17,0.062 0.344,0.106 0.521,0.143 l -0.008,0.07 c -0.461,0.01 -0.921,0.02 -1.381,0.03 0.089,0.106 0.172,0.222 0.28,0.313 l 0.151,0.035 c 0.368,0.03 0.733,0.101 1.09,0.193 0.329,0.085 0.653,0.191 0.97,0.316 0.21,0.084 0.416,0.176 0.613,0.285 L 6.767,0.352 H 6.758 C 6.021,0.247 5.284,0.129 4.538,0.13 4.194,0.124 3.841,0.073 3.535,-0.094 3.317,-0.213 3.141,-0.392 2.972,-0.572 L 2.915,-0.625 2.883,-0.574 C 2.81,-0.45 2.702,-0.35 2.578,-0.279 2.406,-0.179 2.211,-0.133 2.015,-0.11 1.698,-0.073 1.381,-0.046 1.063,-0.01 0.577,0.046 0.089,0.11 -0.384,0.241 l -0.032,-0.059 0.02,-0.024 c 0.133,-0.119 0.292,-0.205 0.456,-0.276"
         style="fill:#aa8f22;fill-opacity:1;fill-rule:nonzero;stroke:none"
         id="path39076"
         inkscape:connector-curvature="0" />
    </g>
    <g
       id="g39078"
       transform="matrix(0.35277777,0,0,-0.35277777,45.186432,98.761989)">
      <path
         d="M 0,0 C 0.119,-0.002 0.237,-0.007 0.355,0.008 0.657,0.042 0.942,0.161 1.212,0.296 L 1.268,0.32 1.309,0.281 1.283,0.25 C 1,0.107 0.703,-0.022 0.385,-0.062 0.264,-0.079 0.14,-0.077 0.017,-0.074 l -0.049,0.021 z m -0.016,0.494 c -0.092,0 -0.185,0.001 -0.279,0.005 L -0.381,0.503 -0.464,0.555 C -0.576,0.62 -0.701,0.674 -0.833,0.675 L -0.76,0.572 -0.888,0.452 -0.982,0.596 -0.928,0.668 -1.134,0.577 -1.168,0.562 C -1.335,0.555 -1.502,0.553 -1.671,0.546 l 0.002,-0.011 c 0.191,0 0.382,-0.001 0.573,0 L -1.039,0.516 -1.071,0.463 C -1.254,0.46 -1.437,0.465 -1.619,0.46 L -1.512,0.405 C -1.354,0.399 -1.196,0.402 -1.039,0.4 l 0.072,-0.003 0.053,-0.06 c 0.103,-0.115 0.232,-0.207 0.369,-0.28 0.218,-0.114 0.46,-0.181 0.706,-0.192 0.19,-0.009 0.376,0.032 0.555,0.088 0.286,0.091 0.557,0.217 0.837,0.324 0.161,0.065 0.326,0.119 0.491,0.17 L 1.962,0.454 C 1.617,0.459 1.273,0.466 0.93,0.473 L 0.897,0.46 C 0.802,0.351 0.7,0.241 0.574,0.166 0.462,0.098 0.334,0.046 0.201,0.051 0.078,0.055 -0.041,0.119 -0.113,0.218 L -0.088,0.274 -0.043,0.248 0.152,0.129 C 0.246,0.111 0.34,0.135 0.426,0.171 l 0.248,0.16 c 0.165,0.153 0.295,0.34 0.446,0.505 l 0.131,0.111 0.095,0.016 c 0.133,0.011 0.266,0.023 0.399,0.044 0.37,0.055 0.736,0.145 1.096,0.256 0.294,0.091 0.584,0.196 0.866,0.323 L 3.576,1.56 C 3.212,1.477 2.846,1.399 2.475,1.357 L 2.211,1.343 C 2.036,1.337 1.863,1.339 1.69,1.319 1.41,1.294 1.128,1.218 0.896,1.055 0.635,0.869 0.412,0.636 0.142,0.463 L 0.091,0.454 0.094,0.519 C 0.354,0.684 0.571,0.907 0.818,1.089 0.945,1.182 1.084,1.254 1.232,1.302 1.576,1.415 1.94,1.41 2.298,1.416 2.496,1.427 2.694,1.458 2.891,1.492 3.034,1.518 3.18,1.545 3.323,1.578 3.186,1.566 3.051,1.542 2.914,1.53 2.694,1.504 2.472,1.484 2.25,1.474 L 2.033,1.464 C 1.893,1.461 1.751,1.465 1.609,1.451 1.367,1.432 1.126,1.379 0.908,1.272 0.755,1.195 0.616,1.088 0.493,0.968 0.346,0.823 0.209,0.664 0.049,0.531 Z"
         style="fill:#eec028;fill-opacity:1;fill-rule:nonzero;stroke:none"
         id="path39080"
         inkscape:connector-curvature="0" />
    </g>
    <g
       id="g39082"
       transform="matrix(0.35277777,0,0,-0.35277777,44.962491,98.375626)">
      <path
         d="m 0,0 c 0.12,-0.043 0.236,-0.101 0.328,-0.19 0.09,-0.086 0.149,-0.201 0.175,-0.322 l 0.13,0.001 0.097,0.084 0.05,0.055 C 0.724,-0.239 0.618,-0.13 0.498,-0.053 0.358,0.037 0.197,0.084 0.035,0.112 -0.097,0.131 -0.23,0.149 -0.363,0.156 L -0.58,0.181 C -1.05,0.228 -1.518,0.279 -1.981,0.366 L -2.03,0.37 C -1.514,0.229 -0.978,0.186 -0.45,0.104 -0.298,0.08 -0.146,0.051 0,0"
         style="fill:#eec028;fill-opacity:1;fill-rule:nonzero;stroke:none"
         id="path39084"
         inkscape:connector-curvature="0" />
    </g>
    <g
       id="g39086"
       transform="matrix(0.35277777,0,0,-0.35277777,44.65899,98.385612)">
      <path
         d="M 0,0 C 0.134,-0.024 0.267,-0.046 0.399,-0.078 0.69,-0.145 0.979,-0.245 1.232,-0.406 L 1.271,-0.425 1.19,-0.272 C 1.105,-0.162 0.979,-0.092 0.851,-0.044 0.655,0.024 0.45,0.055 0.247,0.083 -0.243,0.153 -0.739,0.202 -1.217,0.337 L -1.249,0.344 -1.12,0.283 C -0.763,0.134 -0.381,0.056 0,0"
         style="fill:#eec028;fill-opacity:1;fill-rule:nonzero;stroke:none"
         id="path39088"
         inkscape:connector-curvature="0" />
    </g>
    <g
       id="g39090"
       transform="matrix(0.35277777,0,0,-0.35277777,45.322182,98.783685)">
      <path
         d="M 0,0 C 0.318,0.04 0.615,0.169 0.898,0.311 L 0.924,0.343 0.883,0.382 0.827,0.358 C 0.558,0.223 0.272,0.103 -0.029,0.07 -0.147,0.054 -0.266,0.059 -0.385,0.062 L -0.417,0.009 -0.368,-0.012 C -0.245,-0.015 -0.121,-0.018 0,0"
         style="fill:#aa8f22;fill-opacity:1;fill-rule:nonzero;stroke:none"
         id="path39092"
         inkscape:connector-curvature="0" />
    </g>
    <g
       id="g39094"
       transform="matrix(0.35277777,0,0,-0.35277777,45.6939,98.708755)">
      <path
         d="m 0,0 0.179,-0.005 c 0.17,0.001 0.339,-0.004 0.508,0 L 0.632,0.042 0.443,0.079 c -0.096,0 -0.191,-0.01 -0.287,-0.025 z"
         style="fill:#eec028;fill-opacity:1;fill-rule:nonzero;stroke:none"
         id="path39096"
         inkscape:connector-curvature="0" />
    </g>
    <g
       id="g39098"
       transform="matrix(0.35277777,0,0,-0.35277777,44.220099,100.21875)">
      <path
         d="M 0,0 -0.103,0.046 C 0.076,0.057 0.255,0.061 0.435,0.068 0.599,0.073 0.761,0.083 0.923,0.086 L 1.106,0.096 1.307,0.1 C 1.245,-0.091 1.21,-0.291 1.203,-0.492 0.803,-0.327 0.401,-0.165 0,0 M 0.049,0.4 C -0.038,0.468 -0.123,0.543 -0.175,0.641 -0.039,0.598 0.105,0.61 0.244,0.629 0.383,0.648 0.521,0.681 0.659,0.7 L 0.688,0.688 C 0.812,0.575 0.937,0.462 1.062,0.35 L 1.252,0.174 C 1.107,0.165 0.964,0.163 0.819,0.156 0.727,0.148 0.632,0.151 0.539,0.145 L 0.444,0.156 C 0.309,0.23 0.171,0.305 0.049,0.4 M 0.362,1.083 0.304,1.143 0.384,1.119 C 0.803,0.984 1.223,0.852 1.641,0.716 1.564,0.612 1.49,0.505 1.432,0.39 L 1.341,0.197 C 1.013,0.49 0.689,0.788 0.362,1.083 M 0.557,1.429 C 0.5,1.521 0.447,1.62 0.432,1.729 L 0.579,1.646 C 0.787,1.562 1.013,1.549 1.229,1.503 L 1.259,1.482 C 1.379,1.257 1.496,1.029 1.618,0.803 L 1.521,0.832 C 1.312,0.898 1.104,0.965 0.896,1.031 L 0.851,1.059 C 0.746,1.176 0.642,1.295 0.557,1.429 M 1.067,2.003 1.052,2.039 1.281,1.864 C 1.562,1.648 1.842,1.429 2.124,1.212 L 2.161,1.176 C 2.028,1.09 1.901,0.994 1.79,0.88 L 1.704,0.793 C 1.493,1.197 1.28,1.599 1.067,2.003 M 1.38,2.308 1.378,2.542 1.471,2.43 C 1.64,2.269 1.858,2.179 2.054,2.054 L 2.072,2.011 C 2.095,1.846 2.116,1.681 2.139,1.515 L 2.17,1.268 C 1.979,1.415 1.79,1.564 1.599,1.71 L 1.552,1.751 1.52,1.832 C 1.462,1.987 1.406,2.144 1.38,2.308 M 2.214,2.392 C 2.387,2.118 2.559,1.844 2.731,1.571 L 2.816,1.434 C 2.619,1.392 2.429,1.323 2.253,1.228 2.202,1.588 2.153,1.947 2.104,2.307 2.091,2.413 2.073,2.521 2.063,2.628 Z M 2.475,2.837 2.543,2.989 C 2.57,2.858 2.646,2.743 2.727,2.639 2.816,2.526 2.913,2.42 3.004,2.308 L 3.017,2.263 C 2.963,2.017 2.91,1.77 2.855,1.523 L 2.833,1.545 C 2.703,1.753 2.571,1.96 2.44,2.169 L 2.429,2.236 C 2.422,2.437 2.42,2.642 2.475,2.837 M 3.157,2.572 3.216,2.83 C 3.26,2.648 3.296,2.464 3.337,2.281 3.396,2.005 3.458,1.729 3.517,1.452 3.417,1.461 3.319,1.473 3.22,1.472 3.117,1.473 3.017,1.463 2.916,1.451 2.994,1.825 3.077,2.198 3.157,2.572 M 3.421,2.3 C 3.478,2.462 3.535,2.625 3.618,2.775 L 3.787,2.999 C 3.777,2.873 3.803,2.747 3.843,2.627 3.891,2.479 3.956,2.337 4.003,2.189 3.877,1.988 3.749,1.787 3.623,1.585 L 3.578,1.52 C 3.522,1.76 3.473,2.002 3.419,2.243 Z M 4.344,2.593 4.366,2.622 4.346,2.452 C 4.29,2.044 4.235,1.636 4.179,1.228 4.032,1.305 3.878,1.369 3.716,1.409 L 3.615,1.434 c 0.071,0.118 0.147,0.232 0.219,0.349 0.17,0.27 0.34,0.54 0.51,0.81 M 4.658,2.382 c 0.089,0.087 0.19,0.167 0.308,0.212 L 4.915,2.46 C 4.873,2.295 4.883,2.124 4.882,1.956 V 1.75 C 4.675,1.588 4.468,1.429 4.262,1.268 4.287,1.511 4.326,1.753 4.356,1.995 l 0.022,0.068 c 0.089,0.111 0.178,0.221 0.28,0.319 M 5.269,1.957 5.382,2.043 C 5.339,1.948 5.285,1.857 5.237,1.764 5.069,1.443 4.9,1.124 4.732,0.803 L 4.708,0.809 C 4.606,0.922 4.491,1.022 4.368,1.109 L 4.269,1.179 4.47,1.338 C 4.736,1.544 5.003,1.75 5.269,1.957 M 5.683,1.76 5.93,1.806 5.79,1.62 C 5.692,1.436 5.64,1.232 5.561,1.04 5.353,0.973 5.144,0.906 4.936,0.84 L 4.813,0.803 C 4.932,1.026 5.05,1.25 5.167,1.473 l 0.069,0.06 C 5.379,1.62 5.524,1.705 5.683,1.76 M 5.921,1.079 6.129,1.142 6.052,1.069 C 5.87,0.901 5.687,0.735 5.504,0.569 5.365,0.445 5.229,0.318 5.089,0.194 5.016,0.382 4.914,0.557 4.789,0.715 5.165,0.838 5.544,0.957 5.921,1.079 M 6.229,0.775 C 6.344,0.78 6.46,0.773 6.568,0.735 L 6.36,0.593 C 6.233,0.476 6.133,0.334 6.02,0.204 L 5.965,0.146 H 5.862 C 5.636,0.157 5.408,0.161 5.181,0.174 L 5.278,0.267 C 5.423,0.399 5.568,0.53 5.714,0.662 L 5.782,0.708 C 5.93,0.738 6.079,0.766 6.229,0.775 M 6.318,0.055 6.535,0.045 6.351,-0.032 C 5.987,-0.181 5.621,-0.329 5.256,-0.48 L 5.228,-0.488 C 5.222,-0.375 5.213,-0.261 5.189,-0.149 L 5.124,0.1 5.381,0.094 5.646,0.082 C 5.87,0.073 6.095,0.065 6.318,0.055 m -6.476,-0.766 -0.216,0.12 c 0.152,0.008 0.293,0.074 0.424,0.146 0.113,0.063 0.221,0.132 0.335,0.193 L 0.427,-0.253 C 0.659,-0.348 0.893,-0.442 1.125,-0.538 L 1.057,-0.57 C 0.923,-0.625 0.79,-0.68 0.657,-0.733 h 0.196 c 0.117,0.047 0.234,0.096 0.351,0.144 L 1.216,-0.733 H 1.287 C 1.252,-0.373 1.315,-0.002 1.478,0.321 1.721,0.816 2.187,1.198 2.722,1.335 2.821,1.361 2.922,1.38 3.023,1.39 3.368,1.423 3.722,1.365 4.035,1.217 4.517,0.995 4.897,0.564 5.062,0.059 5.144,-0.196 5.165,-0.467 5.139,-0.733 h 0.075 l 0.012,0.144 c 0.119,-0.046 0.236,-0.096 0.353,-0.144 h 0.193 c -0.098,0.04 -0.196,0.079 -0.293,0.12 l -0.172,0.075 c 0.235,0.097 0.469,0.192 0.704,0.288 L 6.07,-0.248 C 6.263,-0.28 6.459,-0.31 6.639,-0.389 L 6.802,-0.49 C 6.658,-0.499 6.525,-0.557 6.401,-0.625 l -0.19,-0.108 h 0.144 l 0.032,0.018 c 0.122,0.067 0.25,0.135 0.389,0.15 l 0.239,-0.039 v 0.003 l -0.109,0.12 c -0.091,0.089 -0.206,0.15 -0.325,0.192 -0.135,0.049 -0.276,0.075 -0.418,0.1 0.152,0.066 0.309,0.126 0.461,0.19 l 0.25,0.105 C 6.603,0.118 6.331,0.127 6.061,0.138 L 6.21,0.319 C 6.29,0.417 6.371,0.516 6.473,0.593 L 6.67,0.686 6.807,0.697 C 6.723,0.747 6.639,0.797 6.544,0.82 6.319,0.876 6.087,0.839 5.863,0.798 6.052,0.972 6.245,1.142 6.433,1.318 6.172,1.239 5.913,1.15 5.651,1.069 5.699,1.2 5.743,1.333 5.796,1.462 5.841,1.566 5.895,1.672 5.98,1.75 L 6.164,1.851 5.95,1.88 C 5.806,1.881 5.665,1.837 5.534,1.779 5.436,1.734 5.342,1.68 5.248,1.626 5.365,1.854 5.487,2.08 5.605,2.308 5.387,2.142 5.171,1.972 4.953,1.804 c 10e-4,0.115 0,0.23 0,0.343 L 4.978,2.411 5.077,2.621 5.168,2.714 4.948,2.665 C 4.826,2.621 4.72,2.542 4.628,2.454 4.538,2.372 4.462,2.279 4.383,2.187 4.418,2.443 4.454,2.699 4.488,2.956 4.342,2.728 4.199,2.497 4.053,2.269 3.998,2.426 3.928,2.579 3.886,2.74 L 3.865,3.008 3.938,3.19 3.739,3.054 C 3.638,2.961 3.566,2.841 3.507,2.718 3.459,2.62 3.424,2.517 3.383,2.416 3.339,2.608 3.299,2.803 3.255,2.997 L 3.215,3.175 C 3.155,2.911 3.1,2.645 3.041,2.379 2.949,2.487 2.854,2.592 2.768,2.705 2.699,2.796 2.634,2.896 2.613,3.012 L 2.618,3.204 2.469,3.012 C 2.39,2.868 2.365,2.702 2.356,2.541 L 2.354,2.308 C 2.216,2.523 2.08,2.741 1.942,2.956 1.979,2.685 2.016,2.413 2.054,2.141 1.937,2.209 1.813,2.273 1.698,2.347 1.604,2.407 1.513,2.476 1.449,2.569 L 1.373,2.781 1.309,2.572 C 1.282,2.426 1.306,2.274 1.343,2.132 1.37,2.031 1.405,1.933 1.44,1.835 1.234,1.99 1.032,2.152 0.825,2.309 0.95,2.066 1.081,1.825 1.206,1.582 1.036,1.614 0.862,1.632 0.696,1.681 0.602,1.71 0.504,1.752 0.436,1.829 L 0.353,1.943 0.36,1.708 C 0.385,1.578 0.448,1.457 0.522,1.347 0.585,1.255 0.657,1.17 0.729,1.085 0.485,1.164 0.239,1.243 -0.006,1.32 0.195,1.133 0.402,0.952 0.603,0.765 0.437,0.739 0.272,0.697 0.104,0.686 L -0.154,0.712 -0.326,0.816 -0.235,0.595 C -0.16,0.474 -0.052,0.379 0.065,0.297 L 0.324,0.137 C 0.067,0.126 -0.19,0.117 -0.447,0.107 -0.201,0.002 0.046,-0.095 0.292,-0.197 L 0.301,-0.215 C 0.169,-0.29 0.042,-0.372 -0.095,-0.437 -0.201,-0.487 -0.317,-0.531 -0.437,-0.512 l -0.145,0.038 v -0.002 l 0.071,-0.084 0.235,-0.173 h 0.193 z"
         style="fill:#aa8f22;fill-opacity:1;fill-rule:nonzero;stroke:none"
         id="path39100"
         inkscape:connector-curvature="0" />
    </g>
    <g
       id="g39102"
       transform="matrix(0.35277777,0,0,-0.35277777,45.498219,99.659596)">
      <path
         d="M 0,0 C 0.126,0.202 0.254,0.403 0.38,0.604 0.333,0.752 0.268,0.894 0.22,1.042 0.18,1.162 0.154,1.288 0.164,1.414 L -0.005,1.19 C -0.088,1.04 -0.146,0.877 -0.202,0.715 L -0.204,0.658 c 0.054,-0.241 0.103,-0.483 0.159,-0.723 z"
         style="fill:#eec028;fill-opacity:1;fill-rule:nonzero;stroke:none"
         id="path39104"
         inkscape:connector-curvature="0" />
    </g>
    <g
       id="g39106"
       transform="matrix(0.35277777,0,0,-0.35277777,45.219521,99.673566)">
      <path
         d="M 0,0 0.022,-0.022 C 0.077,0.225 0.13,0.471 0.184,0.718 L 0.171,0.763 C 0.08,0.875 -0.017,0.98 -0.106,1.094 -0.187,1.198 -0.263,1.312 -0.29,1.443 L -0.358,1.292 C -0.413,1.097 -0.411,0.892 -0.404,0.69 L -0.393,0.624 C -0.262,0.415 -0.13,0.208 0,0"
         style="fill:#eec028;fill-opacity:1;fill-rule:nonzero;stroke:none"
         id="path39108"
         inkscape:connector-curvature="0" />
    </g>
    <g
       id="g39110"
       transform="matrix(0.35277777,0,0,-0.35277777,45.35594,99.699567)">
      <path
         d="M 0,0 C 0.1,0.001 0.197,-0.01 0.297,-0.02 0.238,0.257 0.176,0.534 0.117,0.81 0.076,0.992 0.04,1.177 -0.004,1.358 L -0.062,1.1 C -0.143,0.727 -0.226,0.354 -0.304,-0.021 -0.203,-0.009 -0.103,0.001 0,0"
         style="fill:#eec028;fill-opacity:1;fill-rule:nonzero;stroke:none"
         id="path39112"
         inkscape:connector-curvature="0" />
    </g>
    <g
       id="g39114"
       transform="matrix(0.35277777,0,0,-0.35277777,45.014881,99.785681)">
      <path
         d="M 0,0 C 0.176,0.096 0.366,0.164 0.563,0.207 L 0.479,0.343 C 0.306,0.616 0.134,0.89 -0.039,1.164 L -0.19,1.4 C -0.18,1.293 -0.162,1.186 -0.148,1.079 -0.1,0.719 -0.051,0.36 0,0"
         style="fill:#eec028;fill-opacity:1;fill-rule:nonzero;stroke:none"
         id="path39116"
         inkscape:connector-curvature="0" />
    </g>
    <g
       id="g39118"
       transform="matrix(0.35277777,0,0,-0.35277777,45.49547,99.71283)">
      <path
         d="M 0,0 0.101,-0.025 C 0.263,-0.065 0.417,-0.129 0.563,-0.207 0.62,0.202 0.675,0.61 0.73,1.018 L 0.751,1.188 0.729,1.159 C 0.559,0.889 0.389,0.619 0.219,0.349 0.146,0.232 0.07,0.118 0,0"
         style="fill:#eec028;fill-opacity:1;fill-rule:nonzero;stroke:none"
         id="path39120"
         inkscape:connector-curvature="0" />
    </g>
    <g
       id="g39122"
       transform="matrix(0.35277777,0,0,-0.35277777,45.723541,99.771393)">
      <path
         d="M 0,0 C 0.206,0.161 0.413,0.32 0.62,0.482 V 0.687 C 0.621,0.855 0.611,1.027 0.653,1.192 L 0.704,1.326 C 0.586,1.281 0.485,1.201 0.396,1.114 0.294,1.016 0.205,0.906 0.116,0.795 L 0.095,0.727 C 0.064,0.485 0.025,0.243 0,0"
         style="fill:#eec028;fill-opacity:1;fill-rule:nonzero;stroke:none"
         id="path39124"
         inkscape:connector-curvature="0" />
    </g>
    <g
       id="g39126"
       transform="matrix(0.35277777,0,0,-0.35277777,44.767512,99.601036)">
      <path
         d="M 0,0 0.047,-0.041 C 0.238,-0.187 0.428,-0.336 0.618,-0.483 L 0.587,-0.236 C 0.564,-0.07 0.543,0.095 0.521,0.26 L 0.502,0.303 C 0.307,0.428 0.088,0.518 -0.081,0.679 l -0.093,0.112 0.002,-0.234 c 0.026,-0.164 0.082,-0.321 0.14,-0.476 z"
         style="fill:#eec028;fill-opacity:1;fill-rule:nonzero;stroke:none"
         id="path39128"
         inkscape:connector-curvature="0" />
    </g>
    <g
       id="g39130"
       transform="matrix(0.35277777,0,0,-0.35277777,45.725941,99.802754)">
      <path
         d="m 0,0 0.1,-0.07 c 0.123,-0.087 0.238,-0.187 0.339,-0.3 l 0.025,-0.006 c 0.168,0.321 0.337,0.64 0.505,0.96 0.048,0.094 0.101,0.185 0.144,0.28 L 1,0.777 C 0.734,0.571 0.468,0.365 0.201,0.159 Z"
         style="fill:#eec028;fill-opacity:1;fill-rule:nonzero;stroke:none"
         id="path39132"
         inkscape:connector-curvature="0" />
    </g>
    <g
       id="g39134"
       transform="matrix(0.35277777,0,0,-0.35277777,44.85158,99.908164)">
      <path
         d="M 0,0 C 0.111,0.113 0.238,0.21 0.371,0.295 L 0.334,0.332 C 0.052,0.549 -0.229,0.768 -0.509,0.984 l -0.229,0.174 0.015,-0.035 c 0.213,-0.404 0.426,-0.806 0.637,-1.21 z"
         style="fill:#eec028;fill-opacity:1;fill-rule:nonzero;stroke:none"
         id="path39136"
         inkscape:connector-curvature="0" />
    </g>
    <g
       id="g39138"
       transform="matrix(0.35277777,0,0,-0.35277777,46.04287,99.699038)">
      <path
         d="m 0,0 c -0.117,-0.224 -0.235,-0.447 -0.354,-0.67 l 0.123,0.037 c 0.208,0.066 0.417,0.133 0.625,0.2 0.079,0.192 0.131,0.395 0.229,0.579 L 0.763,0.333 0.516,0.287 C 0.357,0.231 0.212,0.146 0.069,0.06 Z"
         style="fill:#eec028;fill-opacity:1;fill-rule:nonzero;stroke:none"
         id="path39140"
         inkscape:connector-curvature="0" />
    </g>
    <g
       id="g39142"
       transform="matrix(0.35277777,0,0,-0.35277777,44.53602,99.85493)">
      <path
         d="m 0,0 c 0.209,-0.066 0.417,-0.133 0.625,-0.2 l 0.098,-0.029 c -0.122,0.227 -0.24,0.455 -0.36,0.68 L 0.334,0.472 C 0.117,0.518 -0.108,0.53 -0.316,0.614 l -0.148,0.083 c 0.016,-0.109 0.068,-0.207 0.125,-0.3 0.085,-0.133 0.19,-0.252 0.294,-0.37 z"
         style="fill:#eec028;fill-opacity:1;fill-rule:nonzero;stroke:none"
         id="path39144"
         inkscape:connector-curvature="0" />
    </g>
    <g
       id="g39146"
       transform="matrix(0.35277777,0,0,-0.35277777,46.00569,100.19807)">
      <path
         d="M 0,0 C -0.164,0.506 -0.545,0.937 -1.026,1.159 -1.34,1.307 -1.693,1.364 -2.038,1.332 -2.14,1.321 -2.24,1.302 -2.34,1.277 -2.875,1.139 -3.341,0.758 -3.584,0.263 -3.746,-0.061 -3.81,-0.432 -3.774,-0.792 H 0.077 C 0.104,-0.526 0.082,-0.255 0,0"
         style="fill:#eec028;fill-opacity:1;fill-rule:nonzero;stroke:none"
         id="path39148"
         inkscape:connector-curvature="0" />
    </g>
    <g
       id="g39150"
       transform="matrix(0.35277777,0,0,-0.35277777,44.725141,100.08127)">
      <path
         d="m 0,0 c 0.059,0.116 0.133,0.222 0.209,0.326 -0.418,0.136 -0.838,0.268 -1.257,0.403 l -0.08,0.024 0.059,-0.06 c 0.327,-0.295 0.65,-0.592 0.978,-0.886 z"
         style="fill:#eec028;fill-opacity:1;fill-rule:nonzero;stroke:none"
         id="path39152"
         inkscape:connector-curvature="0" />
    </g>
    <g
       id="g39154"
       transform="matrix(0.35277777,0,0,-0.35277777,46.015321,100.15017)">
      <path
         d="m 0,0 c 0.141,0.124 0.276,0.251 0.415,0.375 0.183,0.166 0.366,0.332 0.548,0.5 L 1.04,0.947 0.832,0.885 C 0.455,0.762 0.076,0.644 -0.3,0.521 -0.175,0.363 -0.073,0.187 0,0"
         style="fill:#eec028;fill-opacity:1;fill-rule:nonzero;stroke:none"
         id="path39156"
         inkscape:connector-curvature="0" />
    </g>
    <g
       id="g39158"
       transform="matrix(0.35277777,0,0,-0.35277777,46.235801,99.985177)">
      <path
         d="m 0,0 c -0.146,-0.132 -0.291,-0.263 -0.436,-0.395 l -0.097,-0.093 c 0.227,-0.013 0.455,-0.017 0.681,-0.028 l 0.103,-0.001 0.055,0.059 c 0.113,0.13 0.214,0.272 0.34,0.389 L 0.854,0.073 C 0.746,0.111 0.63,0.118 0.516,0.113 0.365,0.104 0.216,0.076 0.068,0.045 Z"
         style="fill:#eec028;fill-opacity:1;fill-rule:nonzero;stroke:none"
         id="path39160"
         inkscape:connector-curvature="0" />
    </g>
    <g
       id="g39162"
       transform="matrix(0.35277777,0,0,-0.35277777,44.41025,100.16774)">
      <path
         d="M 0,0 C 0.093,0.007 0.187,0.003 0.28,0.012 0.425,0.018 0.568,0.021 0.713,0.029 L 0.522,0.205 C 0.398,0.318 0.273,0.43 0.149,0.544 L 0.12,0.555 C -0.019,0.536 -0.156,0.503 -0.295,0.484 -0.434,0.466 -0.578,0.454 -0.714,0.496 -0.662,0.398 -0.577,0.323 -0.49,0.255 -0.368,0.161 -0.23,0.085 -0.095,0.011 Z"
         style="fill:#eec028;fill-opacity:1;fill-rule:nonzero;stroke:none"
         id="path39164"
         inkscape:connector-curvature="0" />
    </g>
    <g
       id="g39166"
       transform="matrix(0.35277777,0,0,-0.35277777,44.681041,100.18343)">
      <path
         d="m 0,0 -0.2,-0.004 -0.184,-0.01 C -0.546,-0.017 -0.708,-0.027 -0.872,-0.032 -1.052,-0.04 -1.23,-0.043 -1.409,-0.054 L -1.307,-0.1 c 0.402,-0.165 0.803,-0.327 1.203,-0.492 C -0.097,-0.391 -0.062,-0.191 0,0"
         style="fill:#eec028;fill-opacity:1;fill-rule:nonzero;stroke:none"
         id="path39168"
         inkscape:connector-curvature="0" />
    </g>
    <g
       id="g39170"
       transform="matrix(0.35277777,0,0,-0.35277777,46.118331,100.18548)">
      <path
         d="m 0,0 -0.257,0.006 0.066,-0.249 c 0.023,-0.112 0.032,-0.226 0.038,-0.339 l 0.028,0.008 c 0.365,0.151 0.731,0.299 1.095,0.448 l 0.184,0.077 -0.217,0.01 c -0.223,0.01 -0.448,0.018 -0.672,0.027 z"
         style="fill:#eec028;fill-opacity:1;fill-rule:nonzero;stroke:none"
         id="path39172"
         inkscape:connector-curvature="0" />
    </g>
    <g
       id="g39174"
       transform="matrix(0.35277777,0,0,-0.35277777,44.61698,100.40858)">
      <path
         d="M 0,0 C -0.232,0.096 -0.466,0.19 -0.698,0.285 L -0.74,0.286 C -0.854,0.225 -0.962,0.156 -1.075,0.093 -1.206,0.021 -1.347,-0.045 -1.499,-0.053 l 0.216,-0.12 0.075,-0.022 h 0.74 c 0.133,0.053 0.266,0.108 0.4,0.163 z"
         style="fill:#eec028;fill-opacity:1;fill-rule:nonzero;stroke:none"
         id="path39176"
         inkscape:connector-curvature="0" />
    </g>
    <g
       id="g39178"
       transform="matrix(0.35277777,0,0,-0.35277777,46.61959,100.3915)">
      <path
         d="M 0,0 -0.163,0.101 C -0.343,0.18 -0.539,0.209 -0.731,0.242 L -0.791,0.24 C -1.025,0.144 -1.26,0.048 -1.495,-0.048 l 0.172,-0.075 c 0.097,-0.041 0.195,-0.081 0.294,-0.121 h 0.438 L -0.4,-0.135 C -0.276,-0.067 -0.144,-0.009 0,0"
         style="fill:#eec028;fill-opacity:1;fill-rule:nonzero;stroke:none"
         id="path39180"
         inkscape:connector-curvature="0" />
    </g>
    <g
       id="g39182"
       transform="matrix(0.35277777,0,0,-0.35277777,44.520851,100.47747)">
      <path
         d="M 0,0 H 0.363 L 0.352,0.144 C 0.234,0.096 0.117,0.048 0,0"
         style="fill:#eec028;fill-opacity:1;fill-rule:nonzero;stroke:none"
         id="path39184"
         inkscape:connector-curvature="0" />
    </g>
    <g
       id="g39186"
       transform="matrix(0.35277777,0,0,-0.35277777,46.059422,100.47747)">
      <path
         d="M 0,0 H 0.365 C 0.248,0.049 0.131,0.098 0.012,0.144 Z"
         style="fill:#eec028;fill-opacity:1;fill-rule:nonzero;stroke:none"
         id="path39188"
         inkscape:connector-curvature="0" />
    </g>
    <g
       id="g39190"
       transform="matrix(0.35277777,0,0,-0.35277777,41.82679,100.60941)">
      <path
         d="M 0,0 C 0.667,0 1.334,-0.571 2,-0.571 2.667,-0.571 3.334,0 4,0 4.667,0 5.334,-0.571 6,-0.571 6.667,-0.571 7.334,0 8,0 c 0.667,0 1.334,-0.571 2,-0.571 0.667,0 1.334,0.571 2,0.571 0.667,0 1.334,-0.571 2,-0.571 0.667,0 1.334,0.571 2,0.571 0.667,0 1.334,-0.571 2,-0.571 0.667,0 1.334,0.571 2,0.571 v 0.952 c -0.666,0 -1.333,-0.571 -2,-0.571 -0.666,0 -1.333,0.571 -2,0.571 -0.666,0 -1.333,-0.571 -2,-0.571 -0.666,0 -1.333,0.571 -2,0.571 -0.666,0 -1.333,-0.571 -2,-0.571 -0.666,0 -1.333,0.571 -2,0.571 -0.666,0 -1.333,-0.571 -2,-0.571 -0.666,0 -1.333,0.571 -2,0.571 -0.666,0 -1.333,-0.571 -2,-0.571 -0.666,0 -1.333,0.571 -2,0.571 z"
         style="fill:#ffffff;fill-opacity:1;fill-rule:nonzero;stroke:none"
         id="path39192"
         inkscape:connector-curvature="0" />
    </g>
    <g
       id="g39194"
       transform="matrix(0.35277777,0,0,-0.35277777,41.82679,101.28138)">
      <path
         d="M 0,0 C 0.667,0 1.334,-0.572 2,-0.572 2.667,-0.572 3.334,0 4,0 4.667,0 5.334,-0.572 6,-0.572 6.667,-0.572 7.334,0 8,0 c 0.667,0 1.334,-0.572 2,-0.572 0.667,0 1.334,0.572 2,0.572 0.667,0 1.334,-0.572 2,-0.572 0.667,0 1.334,0.572 2,0.572 0.667,0 1.334,-0.572 2,-0.572 0.667,0 1.334,0.572 2,0.572 v 0.952 c -0.666,0 -1.333,-0.571 -2,-0.571 -0.666,0 -1.333,0.571 -2,0.571 -0.666,0 -1.333,-0.571 -2,-0.571 -0.666,0 -1.333,0.571 -2,0.571 -0.666,0 -1.333,-0.571 -2,-0.571 -0.666,0 -1.333,0.571 -2,0.571 -0.666,0 -1.333,-0.571 -2,-0.571 -0.666,0 -1.333,0.571 -2,0.571 -0.666,0 -1.333,-0.571 -2,-0.571 -0.666,0 -1.333,0.571 -2,0.571 z"
         style="fill:#ffffff;fill-opacity:1;fill-rule:nonzero;stroke:none"
         id="path39196"
         inkscape:connector-curvature="0" />
    </g>
    <g
       id="g39198"
       transform="matrix(0.35277777,0,0,-0.35277777,41.82679,101.95336)">
      <path
         d="M 0,0 C 0.667,0 1.334,-0.571 2,-0.571 2.667,-0.571 3.334,0 4,0 4.667,0 5.334,-0.571 6,-0.571 6.667,-0.571 7.334,0 8,0 c 0.667,0 1.334,-0.571 2,-0.571 0.667,0 1.334,0.571 2,0.571 0.667,0 1.334,-0.571 2,-0.571 0.667,0 1.334,0.571 2,0.571 0.667,0 1.334,-0.571 2,-0.571 0.667,0 1.334,0.571 2,0.571 v 0.952 c -0.666,0 -1.333,-0.571 -2,-0.571 -0.666,0 -1.333,0.571 -2,0.571 -0.666,0 -1.333,-0.571 -2,-0.571 -0.666,0 -1.333,0.571 -2,0.571 -0.666,0 -1.333,-0.571 -2,-0.571 -0.666,0 -1.333,0.571 -2,0.571 -0.666,0 -1.333,-0.571 -2,-0.571 -0.666,0 -1.333,0.571 -2,0.571 -0.666,0 -1.333,-0.571 -2,-0.571 -0.666,0 -1.333,0.571 -2,0.571 z"
         style="fill:#ffffff;fill-opacity:1;fill-rule:nonzero;stroke:none"
         id="path39200"
         inkscape:connector-curvature="0" />
    </g>
  </g>
</svg>
