<?xml version="1.0" encoding="UTF-8" standalone="no"?>
<!-- Created with Inkscape (http://www.inkscape.org/) -->

<svg
   xmlns:dc="http://purl.org/dc/elements/1.1/"
   xmlns:cc="http://creativecommons.org/ns#"
   xmlns:rdf="http://www.w3.org/1999/02/22-rdf-syntax-ns#"
   xmlns:svg="http://www.w3.org/2000/svg"
   xmlns="http://www.w3.org/2000/svg"
   xmlns:sodipodi="http://sodipodi.sourceforge.net/DTD/sodipodi-0.dtd"
   xmlns:inkscape="http://www.inkscape.org/namespaces/inkscape"
   width="7.084836mm"
   height="4.7328668mm"
   viewBox="0 0 7.084836 4.7328668"
   version="1.1"
   id="svg8"
   inkscape:version="0.92.4 (5da689c313, 2019-01-14)"
   sodipodi:docname="kyrgyzstan.svg">
  <defs
     id="defs2">
    <radialGradient
       id="radialGradient37584"
       spreadMethod="pad"
       gradientTransform="matrix(0.975099,0,0,0.975099,159.64062,365.06934)"
       gradientUnits="userSpaceOnUse"
       r="1"
       cy="0"
       cx="0"
       fy="0"
       fx="0">
      <stop
         id="stop37578"
         offset="0"
         style="stop-opacity:1;stop-color:#852c26" />
      <stop
         id="stop37580"
         offset="0.0015476"
         style="stop-opacity:1;stop-color:#852c26" />
      <stop
         id="stop37582"
         offset="1"
         style="stop-opacity:1;stop-color:#451617" />
    </radialGradient>
    <clipPath
       id="clipPath37532"
       clipPathUnits="userSpaceOnUse">
      <path
         inkscape:connector-curvature="0"
         id="path37530"
         d="M 0,400 H 400 V 0 H 0 Z" />
    </clipPath>
    <radialGradient
       id="radialGradient37522"
       spreadMethod="pad"
       gradientTransform="matrix(-0.2637247,0,0,0.2637247,159.68652,365.88965)"
       gradientUnits="userSpaceOnUse"
       r="1"
       cy="0"
       cx="0"
       fy="0"
       fx="0">
      <stop
         id="stop37516"
         offset="0"
         style="stop-opacity:1;stop-color:#852c26" />
      <stop
         id="stop37518"
         offset="0.0015476"
         style="stop-opacity:1;stop-color:#852c26" />
      <stop
         id="stop37520"
         offset="1"
         style="stop-opacity:1;stop-color:#451617" />
    </radialGradient>
    <clipPath
       id="clipPath37354"
       clipPathUnits="userSpaceOnUse">
      <path
         inkscape:connector-curvature="0"
         id="path37352"
         d="M 0,400 H 400 V 0 H 0 Z" />
    </clipPath>
    <radialGradient
       id="radialGradient37344"
       spreadMethod="pad"
       gradientTransform="matrix(0.975099,0,0,0.975099,155.76025,365.06934)"
       gradientUnits="userSpaceOnUse"
       r="1"
       cy="0"
       cx="0"
       fy="0"
       fx="0">
      <stop
         id="stop37338"
         offset="0"
         style="stop-opacity:1;stop-color:#eee54f" />
      <stop
         id="stop37340"
         offset="0.9977451"
         style="stop-opacity:1;stop-color:#e04a20" />
      <stop
         id="stop37342"
         offset="1"
         style="stop-opacity:1;stop-color:#e04a20" />
    </radialGradient>
    <clipPath
       id="clipPath37272"
       clipPathUnits="userSpaceOnUse">
      <path
         inkscape:connector-curvature="0"
         id="path37270"
         d="M 0,400 H 400 V 0 H 0 Z" />
    </clipPath>
    <radialGradient
       id="radialGradient37262"
       spreadMethod="pad"
       gradientTransform="matrix(0.2636045,0,0,0.2636045,155.71484,365.89062)"
       gradientUnits="userSpaceOnUse"
       r="1"
       cy="0"
       cx="0"
       fy="0"
       fx="0">
      <stop
         id="stop37256"
         offset="0"
         style="stop-opacity:1;stop-color:#eee54f" />
      <stop
         id="stop37258"
         offset="0.9977451"
         style="stop-opacity:1;stop-color:#e04a20" />
      <stop
         id="stop37260"
         offset="1"
         style="stop-opacity:1;stop-color:#e04a20" />
    </radialGradient>
  </defs>
  <sodipodi:namedview
     id="base"
     pagecolor="#ffffff"
     bordercolor="#666666"
     borderopacity="1.0"
     inkscape:pageopacity="0.0"
     inkscape:pageshadow="2"
     inkscape:zoom="11.2"
     inkscape:cx="19.186487"
     inkscape:cy="6.4412019"
     inkscape:document-units="mm"
     inkscape:current-layer="layer1"
     showgrid="false"
     inkscape:window-width="954"
     inkscape:window-height="630"
     inkscape:window-x="-3"
     inkscape:window-y="6"
     inkscape:window-maximized="0" />
  <metadata
     id="metadata5">
    <rdf:RDF>
      <cc:Work
         rdf:about="">
        <dc:format>image/svg+xml</dc:format>
        <dc:type
           rdf:resource="http://purl.org/dc/dcmitype/StillImage" />
        <dc:title></dc:title>
      </cc:Work>
    </rdf:RDF>
  </metadata>
  <g
     inkscape:label="Layer 1"
     inkscape:groupmode="layer"
     id="layer1"
     transform="translate(-58.71608,-94.98801)">
    <g
       id="g14316"
       transform="matrix(0.35277777,0,0,-0.35277777,58.745361,99.691596)">
      <path
         d="M 0,0 H 19.917 V 13.25 H 0 Z M 19.958,-0.042 V 0 Z M -0.083,-0.083 V 13.333 H 20 V -0.042 -0.083 Z"
         style="fill:#221f21;fill-opacity:1;fill-rule:nonzero;stroke:none"
         id="path14318"
         inkscape:connector-curvature="0" />
    </g>
    <path
       d="m 65.786284,99.706416 h -7.055561 v -4.703587 h 7.055561 z"
       style="fill:#dc2038;fill-opacity:1;fill-rule:nonzero;stroke:none;stroke-width:0.35277778"
       id="path14320"
       inkscape:connector-curvature="0" />
    <g
       id="g14322"
       transform="matrix(0.35277777,0,0,-0.35277777,62.259882,96.101626)">
      <path
         d="M 0,0 C 0.108,-0.094 0.153,-0.24 0.159,-0.378 0.161,-0.469 0.161,-0.561 0.152,-0.65 0.138,-0.814 0.116,-0.976 0.115,-1.141 0.122,-1.232 0.123,-1.33 0.167,-1.415 l -0.026,-0.007 -0.245,0.002 -0.072,0.007 -0.013,0.147 c -0.002,0.17 0.045,0.335 0.091,0.497 0.058,0.2 0.122,0.402 0.116,0.613 z"
         style="fill:#e8c729;fill-opacity:1;fill-rule:nonzero;stroke:none"
         id="path14324"
         inkscape:connector-curvature="0" />
    </g>
    <g
       id="g14326"
       transform="matrix(0.35277777,0,0,-0.35277777,62.075203,96.153836)">
      <path
         d="M 0,0 -0.031,0.104 C 0.076,0.037 0.143,-0.079 0.174,-0.2 0.223,-0.384 0.221,-0.575 0.235,-0.762 0.244,-0.9 0.258,-1.04 0.306,-1.172 L 0.349,-1.278 C 0.13,-1.292 -0.083,-1.348 -0.287,-1.426 l -0.023,0.019 c -0.082,0.146 -0.105,0.317 -0.113,0.482 l -0.011,0.258 -0.013,0.223 c -0.016,0.147 -0.054,0.295 -0.131,0.422 0.127,-0.054 0.216,-0.17 0.266,-0.296 0.11,-0.268 0.119,-0.565 0.231,-0.833 l 0.1,-0.168 c -0.052,0.132 -0.061,0.276 -0.05,0.416 0.01,0.183 0.047,0.364 0.056,0.548 C 0.035,-0.237 0.028,-0.116 0,0"
         style="fill:#e8c729;fill-opacity:1;fill-rule:nonzero;stroke:none"
         id="path14328"
         inkscape:connector-curvature="0" />
    </g>
    <g
       id="g14330"
       transform="matrix(0.35277777,0,0,-0.35277777,62.454501,96.119721)">
      <path
         d="M 0,0 0.043,-0.049 0.104,-0.297 C 0.109,-0.46 0.062,-0.619 0.021,-0.776 -0.024,-0.951 -0.077,-1.128 -0.07,-1.311 l 0.013,-0.098 0.072,0.249 c 0.106,0.231 0.278,0.425 0.399,0.647 0.066,0.122 0.119,0.254 0.128,0.394 C 0.601,-0.214 0.615,-0.33 0.598,-0.437 0.58,-0.57 0.529,-0.695 0.478,-0.816 0.414,-0.962 0.345,-1.107 0.299,-1.259 L 0.265,-1.521 c 0.028,0.123 0.096,0.232 0.172,0.331 0.16,0.203 0.363,0.372 0.504,0.589 0.053,0.082 0.093,0.173 0.119,0.267 L 1.083,-0.565 C 1.067,-0.679 1.018,-0.783 0.962,-0.882 0.877,-1.032 0.775,-1.17 0.691,-1.32 0.643,-1.404 0.601,-1.495 0.576,-1.589 l -0.011,-0.075 0.128,0.195 c 0.174,0.194 0.402,0.327 0.591,0.506 0.104,0.094 0.192,0.208 0.25,0.337 C 1.556,-0.726 1.54,-0.83 1.499,-0.92 1.443,-1.048 1.352,-1.156 1.262,-1.261 1.135,-1.406 0.996,-1.544 0.898,-1.712 L 0.837,-1.868 c 0.069,0.109 0.168,0.193 0.272,0.264 0.211,0.139 0.45,0.235 0.648,0.394 l 0.201,0.224 C 1.968,-1.12 1.907,-1.248 1.822,-1.348 1.652,-1.552 1.419,-1.687 1.236,-1.879 L 1.068,-2.113 c -0.09,0.096 -0.181,0.194 -0.286,0.275 -0.329,0.267 -0.741,0.433 -1.164,0.463 -0.018,0.121 0.01,0.242 0.049,0.355 0.096,0.274 0.262,0.52 0.319,0.806 z"
         style="fill:#e8c729;fill-opacity:1;fill-rule:nonzero;stroke:none"
         id="path14332"
         inkscape:connector-curvature="0" />
    </g>
    <g
       id="g14334"
       transform="matrix(0.35277777,0,0,-0.35277777,61.689721,96.237551)">
      <path
         d="m 0,0 c 0.135,-0.029 0.238,-0.136 0.309,-0.249 0.142,-0.237 0.2,-0.513 0.337,-0.752 L 0.791,-1.187 0.771,-1.192 0.798,-1.19 0.763,-1.209 C 0.569,-1.292 0.39,-1.406 0.229,-1.542 c -0.118,0.099 -0.195,0.236 -0.252,0.376 -0.073,0.172 -0.124,0.354 -0.202,0.523 -0.061,0.132 -0.14,0.259 -0.252,0.352 0.14,-0.01 0.259,-0.096 0.346,-0.198 0.172,-0.204 0.271,-0.457 0.434,-0.668 l 0.188,-0.181 -0.06,0.087 C 0.373,-1.156 0.338,-1.05 0.312,-0.941 0.267,-0.763 0.244,-0.578 0.195,-0.399 0.156,-0.256 0.099,-0.113 0,0"
         style="fill:#e8c729;fill-opacity:1;fill-rule:nonzero;stroke:none"
         id="path14336"
         inkscape:connector-curvature="0" />
    </g>
    <g
       id="g14338"
       transform="matrix(0.35277777,0,0,-0.35277777,61.372393,96.468373)">
      <path
         d="m 0,0 c 0.135,0.015 0.264,-0.05 0.364,-0.135 0.21,-0.179 0.35,-0.423 0.553,-0.609 L 1.128,-0.889 C 0.959,-1.033 0.812,-1.204 0.695,-1.394 0.592,-1.357 0.505,-1.287 0.428,-1.211 0.27,-1.054 0.15,-0.864 0.001,-0.699 c -0.102,0.115 -0.221,0.219 -0.364,0.276 0.13,0.033 0.266,-0.008 0.379,-0.075 0.254,-0.153 0.438,-0.396 0.693,-0.548 L 0.882,-1.121 0.78,-1.042 C 0.692,-0.962 0.627,-0.863 0.565,-0.763 0.441,-0.556 0.344,-0.33 0.18,-0.149 Z"
         style="fill:#e8c729;fill-opacity:1;fill-rule:nonzero;stroke:none"
         id="path14340"
         inkscape:connector-curvature="0" />
    </g>
    <g
       id="g14342"
       transform="matrix(0.35277777,0,0,-0.35277777,63.210191,96.671644)">
      <path
         d="M 0,0 0.174,0.151 C 0.172,0.051 0.12,-0.041 0.056,-0.115 -0.048,-0.23 -0.183,-0.311 -0.314,-0.388 -0.478,-0.485 -0.648,-0.575 -0.787,-0.708 l -0.077,-0.098 0.228,0.123 c 0.292,0.107 0.61,0.107 0.896,0.232 l 0.209,0.128 C 0.443,-0.425 0.377,-0.512 0.296,-0.576 0.188,-0.662 0.059,-0.716 -0.068,-0.768 -0.207,-0.822 -0.348,-0.872 -0.48,-0.939 l -0.243,-0.177 c 0.115,0.068 0.246,0.099 0.379,0.114 0.16,0.017 0.321,0.016 0.481,0.024 0.148,0.01 0.299,0.029 0.437,0.086 L 0.679,-0.84 C 0.645,-0.931 0.571,-1.001 0.49,-1.051 0.375,-1.119 0.244,-1.155 0.114,-1.186 -0.053,-1.225 -0.225,-1.253 -0.389,-1.312 l -0.226,-0.121 0.176,0.044 c 0.257,0.031 0.513,-0.032 0.768,-0.05 0.133,-0.008 0.27,-0.006 0.398,0.031 L 0.811,-1.382 0.596,-1.557 C 0.482,-1.606 0.357,-1.621 0.234,-1.632 0.062,-1.646 -0.113,-1.646 -0.285,-1.673 -0.381,-1.689 -0.477,-1.717 -0.564,-1.764 l 0.206,0.014 c 0.233,-0.013 0.45,-0.101 0.674,-0.156 0.121,-0.03 0.245,-0.054 0.37,-0.049 l 0.169,0.018 C 0.791,-2.008 0.705,-2.057 0.611,-2.078 0.46,-2.113 0.305,-2.101 0.152,-2.086 c -0.17,0.018 -0.339,0.039 -0.511,0.028 l -0.211,-0.043 0.004,0.218 c -0.008,0.485 -0.192,0.964 -0.509,1.333 0.088,0.103 0.206,0.175 0.329,0.23 C -0.5,-0.208 -0.229,-0.15 0,0"
         style="fill:#e8c729;fill-opacity:1;fill-rule:nonzero;stroke:none"
         id="path14344"
         inkscape:connector-curvature="0" />
    </g>
    <g
       id="g14346"
       transform="matrix(0.35277777,0,0,-0.35277777,61.891402,96.803936)">
      <path
         d="M 0,0 C 0.332,0.241 0.748,0.36 1.155,0.332 1.487,0.312 1.812,0.195 2.082,-0.001 1.742,-0.017 1.403,-0.085 1.088,-0.214 L 1.043,-0.23 0.965,-0.203 C 0.808,-0.142 0.646,-0.093 0.48,-0.06 0.322,-0.026 0.161,-0.011 0,0"
         style="fill:#e8c729;fill-opacity:1;fill-rule:nonzero;stroke:none"
         id="path14348"
         inkscape:connector-curvature="0" />
    </g>
    <g
       id="g14350"
       transform="matrix(0.35277777,0,0,-0.35277777,61.141573,96.785132)">
      <path
         d="M 0,0 C 0.092,0.039 0.197,0.039 0.293,0.014 0.424,-0.019 0.54,-0.087 0.652,-0.157 0.788,-0.242 0.92,-0.334 1.062,-0.407 1.151,-0.45 1.245,-0.488 1.344,-0.496 L 1.323,-0.541 1.196,-0.793 1.01,-0.723 c -0.125,0.069 -0.231,0.166 -0.336,0.262 -0.115,0.107 -0.23,0.22 -0.36,0.313 C 0.22,-0.082 0.114,-0.027 0,0"
         style="fill:#e8c729;fill-opacity:1;fill-rule:nonzero;stroke:none"
         id="path14352"
         inkscape:connector-curvature="0" />
    </g>
    <g
       id="g14354"
       transform="matrix(0.35277777,0,0,-0.35277777,61.812342,96.872831)">
      <path
         d="M 0,0 0.075,0.075 C 0.27,0.067 0.464,0.04 0.652,-0.007 c 0.137,-0.033 0.269,-0.08 0.4,-0.13 L 0.943,-0.197 0.889,-0.191 C 0.605,-0.078 0.304,-0.017 0,0"
         style="fill:#e8c729;fill-opacity:1;fill-rule:nonzero;stroke:none"
         id="path14356"
         inkscape:connector-curvature="0" />
    </g>
    <g
       id="g14358"
       transform="matrix(0.35277777,0,0,-0.35277777,62.478282,96.874527)">
      <path
         d="M 0,0 C 0.186,0.046 0.375,0.07 0.565,0.08 L 0.643,0.006 C 0.336,-0.012 0.032,-0.074 -0.254,-0.188 l -0.044,-0.005 -0.112,0.06 C -0.276,-0.08 -0.139,-0.032 0,0"
         style="fill:#e8c729;fill-opacity:1;fill-rule:nonzero;stroke:none"
         id="path14360"
         inkscape:connector-curvature="0" />
    </g>
    <g
       id="g14362"
       transform="matrix(0.35277777,0,0,-0.35277777,61.773752,96.914672)">
      <path
         d="m 0,0 0.015,0.005 c 0.293,-0.02 0.582,-0.087 0.852,-0.2 L 0.765,-0.266 C 0.507,-0.155 0.23,-0.088 -0.05,-0.065 Z"
         style="fill:#e8c729;fill-opacity:1;fill-rule:nonzero;stroke:none"
         id="path14364"
         inkscape:connector-curvature="0" />
    </g>
    <g
       id="g14366"
       transform="matrix(0.35277777,0,0,-0.35277777,62.724451,96.914003)">
      <path
         d="M 0,0 H 0.049 L 0.103,-0.067 C -0.168,-0.088 -0.436,-0.152 -0.688,-0.258 L -0.722,-0.26 -0.813,-0.197 C -0.555,-0.09 -0.279,-0.022 0,0"
         style="fill:#e8c729;fill-opacity:1;fill-rule:nonzero;stroke:none"
         id="path14368"
         inkscape:connector-curvature="0" />
    </g>
    <g
       id="g14370"
       transform="matrix(0.35277777,0,0,-0.35277777,61.066151,96.966176)">
      <path
         d="M 0,0 0.202,0.058 0.46,0.023 C 0.712,-0.053 0.939,-0.198 1.195,-0.26 L 1.409,-0.282 C 1.335,-0.468 1.282,-0.663 1.26,-0.863 1.245,-0.979 1.248,-1.094 1.25,-1.211 1.261,-1.409 1.298,-1.606 1.363,-1.794 L 1.407,-1.915 C 1.323,-1.971 1.224,-2 1.126,-2.02 0.958,-2.049 0.787,-2.047 0.617,-2.054 0.453,-2.061 0.284,-2.075 0.128,-2.135 l -0.125,-0.06 c 0.04,0.093 0.116,0.169 0.204,0.218 0.125,0.072 0.269,0.106 0.409,0.138 0.147,0.033 0.295,0.059 0.438,0.109 L 1.3,-1.603 1.104,-1.648 c -0.332,-0.033 -0.659,0.083 -0.99,0.051 l -0.239,-0.056 c 0.06,0.104 0.17,0.167 0.282,0.201 0.188,0.055 0.385,0.052 0.577,0.067 0.174,0.011 0.355,0.028 0.509,0.114 L 1.039,-1.285 c -0.181,0.01 -0.353,0.066 -0.527,0.116 -0.17,0.049 -0.345,0.096 -0.524,0.09 l -0.162,-0.02 c 0.086,0.097 0.213,0.147 0.34,0.159 0.232,0.023 0.464,-0.029 0.695,-0.038 0.127,-0.003 0.26,-0.005 0.379,0.043 -0.119,-0.003 -0.237,0.019 -0.348,0.061 -0.221,0.079 -0.423,0.202 -0.646,0.276 -0.121,0.041 -0.249,0.062 -0.375,0.056 0.093,0.075 0.214,0.106 0.332,0.104 0.189,-0.006 0.371,-0.064 0.553,-0.111 0.177,-0.045 0.365,-0.088 0.548,-0.054 L 1.119,-0.561 C 0.941,-0.497 0.787,-0.384 0.632,-0.28 0.481,-0.178 0.326,-0.077 0.149,-0.028 Z"
         style="fill:#e8c729;fill-opacity:1;fill-rule:nonzero;stroke:none"
         id="path14372"
         inkscape:connector-curvature="0" />
    </g>
    <g
       id="g14374"
       transform="matrix(0.35277777,0,0,-0.35277777,62.215961,96.980641)">
      <path
         d="M 0,0 0.125,0.064 0.244,0 0.123,-0.066 Z"
         style="fill:#e8c729;fill-opacity:1;fill-rule:nonzero;stroke:none"
         id="path14376"
         inkscape:connector-curvature="0" />
    </g>
    <g
       id="g14378"
       transform="matrix(0.35277777,0,0,-0.35277777,61.681251,97.067813)">
      <path
         d="M 0,0 C 0.039,0.092 0.085,0.178 0.138,0.264 0.398,0.236 0.65,0.165 0.889,0.06 0.57,-0.208 0.305,-0.541 0.123,-0.915 0.062,-1.039 0.006,-1.166 -0.033,-1.298 -0.095,-1.14 -0.125,-0.972 -0.137,-0.804 -0.154,-0.53 -0.107,-0.253 0,0"
         style="fill:#e8c729;fill-opacity:1;fill-rule:nonzero;stroke:none"
         id="path14380"
         inkscape:connector-curvature="0" />
    </g>
    <g
       id="g14382"
       transform="matrix(0.35277777,0,0,-0.35277777,62.522031,97.046964)">
      <path
         d="M 0,0 C 0.238,0.106 0.492,0.176 0.751,0.205 0.915,-0.051 1.011,-0.349 1.028,-0.651 1.029,-0.75 1.032,-0.847 1.02,-0.945 1.005,-1.084 0.974,-1.221 0.927,-1.354 0.881,-1.233 0.837,-1.112 0.779,-0.997 0.595,-0.614 0.326,-0.272 0,0"
         style="fill:#e8c729;fill-opacity:1;fill-rule:nonzero;stroke:none"
         id="path14384"
         inkscape:connector-curvature="0" />
    </g>
    <g
       id="g14386"
       transform="matrix(0.35277777,0,0,-0.35277777,62.119301,97.044389)">
      <path
         d="M 0,0 0.094,0.071 H 0.102 L 0.221,0.003 0.118,-0.069 Z"
         style="fill:#e8c729;fill-opacity:1;fill-rule:nonzero;stroke:none"
         id="path14388"
         inkscape:connector-curvature="0" />
    </g>
    <g
       id="g14390"
       transform="matrix(0.35277777,0,0,-0.35277777,62.320842,97.042307)">
      <path
         d="M 0,0 0.122,0.067 0.222,-0.005 0.1,-0.075 Z"
         style="fill:#e8c729;fill-opacity:1;fill-rule:nonzero;stroke:none"
         id="path14392"
         inkscape:connector-curvature="0" />
    </g>
    <g
       id="g14394"
       transform="matrix(0.35277777,0,0,-0.35277777,62.019042,97.12708)">
      <path
         d="M 0,0 0.136,0.122 0.251,0.055 V 0.041 L 0.115,-0.085 c -0.201,-0.197 -0.371,-0.427 -0.503,-0.676 l -0.085,-0.176 v 0.012 L -0.497,-0.99 c -0.091,-0.216 -0.15,-0.445 -0.187,-0.675 l -0.125,0.167 -0.007,0.032 C -0.7,-0.91 -0.41,-0.392 0,0"
         style="fill:#e8c729;fill-opacity:1;fill-rule:nonzero;stroke:none"
         id="path14396"
         inkscape:connector-curvature="0" />
    </g>
    <g
       id="g14398"
       transform="matrix(0.35277777,0,0,-0.35277777,62.22266,97.109159)">
      <path
         d="M 0,0 0.105,0.071 0.204,0 0.104,-0.078 Z"
         style="fill:#e8c729;fill-opacity:1;fill-rule:nonzero;stroke:none"
         id="path14400"
         inkscape:connector-curvature="0" />
    </g>
    <g
       id="g14402"
       transform="matrix(0.35277777,0,0,-0.35277777,62.407662,97.108805)">
      <path
         d="M 0,0 0.12,0.07 C 0.553,-0.293 0.875,-0.788 1.028,-1.333 L 1.078,-1.532 0.939,-1.717 C 0.86,-1.154 0.602,-0.618 0.209,-0.206 Z"
         style="fill:#e8c729;fill-opacity:1;fill-rule:nonzero;stroke:none"
         id="path14404"
         inkscape:connector-curvature="0" />
    </g>
    <g
       id="g14406"
       transform="matrix(0.35277777,0,0,-0.35277777,62.150482,97.17167)">
      <path
         d="M 0,0 0.058,0.051 0.162,-0.03 c -0.424,-0.39 -0.709,-0.925 -0.798,-1.494 -0.022,-0.119 -0.027,-0.24 -0.034,-0.36 l -0.157,0.116 c 0.022,0.319 0.098,0.637 0.231,0.928 C -0.455,-0.525 -0.25,-0.238 0,0"
         style="fill:#e8c729;fill-opacity:1;fill-rule:nonzero;stroke:none"
         id="path14408"
         inkscape:connector-curvature="0" />
    </g>
    <g
       id="g14410"
       transform="matrix(0.35277777,0,0,-0.35277777,62.309653,97.181512)">
      <path
         d="M 0,0 0.11,0.079 0.349,-0.169 C 0.725,-0.605 0.957,-1.167 0.988,-1.743 L 0.831,-1.853 C 0.825,-1.532 0.758,-1.213 0.636,-0.917 0.494,-0.57 0.275,-0.255 0,0"
         style="fill:#e8c729;fill-opacity:1;fill-rule:nonzero;stroke:none"
         id="path14412"
         inkscape:connector-curvature="0" />
    </g>
    <g
       id="g14414"
       transform="matrix(0.35277777,0,0,-0.35277777,62.254521,97.233866)">
      <path
         d="M 0,0 0.027,-0.003 C 0.433,-0.414 0.691,-0.97 0.738,-1.546 l 0.01,-0.229 -0.005,-0.068 c -0.296,-0.133 -0.628,-0.184 -0.951,-0.143 -0.177,0.02 -0.351,0.071 -0.514,0.143 -0.011,0.342 0.048,0.687 0.175,1.006 0.096,0.243 0.231,0.472 0.399,0.673 z"
         style="fill:#e8c729;fill-opacity:1;fill-rule:nonzero;stroke:none"
         id="path14416"
         inkscape:connector-curvature="0" />
    </g>
    <g
       id="g14418"
       transform="matrix(0.35277777,0,0,-0.35277777,62.990902,97.528752)">
      <path
         d="M 0,0 C 0.025,0.107 0.041,0.219 0.052,0.329 0.151,0.331 0.25,0.321 0.345,0.292 0.583,0.22 0.797,0.085 1.032,0.002 1.161,-0.044 1.297,-0.07 1.434,-0.063 1.331,-0.146 1.192,-0.175 1.062,-0.165 0.757,-0.144 0.474,-0.003 0.167,0.011 Z"
         style="fill:#e8c729;fill-opacity:1;fill-rule:nonzero;stroke:none"
         id="path14420"
         inkscape:connector-curvature="0" />
    </g>
    <g
       id="g14422"
       transform="matrix(0.35277777,0,0,-0.35277777,62.987661,97.539441)">
      <path
         d="M 0,0 0.012,0.027 C 0.125,0.016 0.236,-0.022 0.336,-0.076 0.588,-0.209 0.805,-0.411 1.072,-0.516 L 1.311,-0.574 C 1.196,-0.645 1.053,-0.646 0.924,-0.616 0.726,-0.569 0.545,-0.472 0.358,-0.395 0.214,-0.337 0.061,-0.284 -0.096,-0.293 -0.057,-0.198 -0.023,-0.1 0,0"
         style="fill:#e8c729;fill-opacity:1;fill-rule:nonzero;stroke:none"
         id="path14424"
         inkscape:connector-curvature="0" />
    </g>
    <g
       id="g14426"
       transform="matrix(0.35277777,0,0,-0.35277777,61.48987,97.698262)">
      <path
         d="M 0,0 0.208,0.157 C 0.253,0.054 0.303,-0.046 0.361,-0.142 L 0.237,-0.223 C 0.103,-0.296 -0.051,-0.33 -0.199,-0.36 c -0.182,-0.036 -0.364,-0.065 -0.537,-0.132 -0.091,-0.035 -0.175,-0.082 -0.247,-0.144 0.018,0.094 0.079,0.173 0.149,0.236 0.093,0.08 0.207,0.133 0.319,0.181 C -0.343,-0.146 -0.163,-0.09 0,0"
         style="fill:#e8c729;fill-opacity:1;fill-rule:nonzero;stroke:none"
         id="path14428"
         inkscape:connector-curvature="0" />
    </g>
    <g
       id="g14430"
       transform="matrix(0.35277777,0,0,-0.35277777,62.953021,97.643652)">
      <path
         d="M 0,0 C 0.099,-0.016 0.19,-0.067 0.271,-0.122 0.438,-0.237 0.575,-0.387 0.726,-0.518 0.863,-0.639 1.019,-0.75 1.199,-0.793 L 0.962,-0.818 c -0.113,0.017 -0.218,0.068 -0.316,0.123 -0.177,0.1 -0.34,0.225 -0.522,0.316 -0.086,0.04 -0.176,0.074 -0.271,0.083 C -0.097,-0.199 -0.04,-0.104 0,0"
         style="fill:#e8c729;fill-opacity:1;fill-rule:nonzero;stroke:none"
         id="path14432"
         inkscape:connector-curvature="0" />
    </g>
    <g
       id="g14434"
       transform="matrix(0.35277777,0,0,-0.35277777,62.830713,97.844172)">
      <path
         d="M 0,0 C 0.07,0.087 0.138,0.177 0.197,0.272 0.304,0.231 0.394,0.158 0.474,0.08 c 0.138,-0.144 0.25,-0.31 0.38,-0.463 0.111,-0.129 0.239,-0.251 0.399,-0.316 -0.118,-0.029 -0.242,0 -0.347,0.057 -0.149,0.081 -0.273,0.2 -0.399,0.311 -0.09,0.081 -0.181,0.162 -0.282,0.228 z"
         style="fill:#e8c729;fill-opacity:1;fill-rule:nonzero;stroke:none"
         id="path14436"
         inkscape:connector-curvature="0" />
    </g>
    <g
       id="g14438"
       transform="matrix(0.35277777,0,0,-0.35277777,61.58911,97.781976)">
      <path
         d="m 0,0 0.08,0.096 c 0.287,-0.468 0.759,-0.82 1.293,-0.951 L 1.397,-0.866 C 1.39,-0.983 1.347,-1.094 1.294,-1.196 1.174,-1.42 1.005,-1.613 0.894,-1.842 0.844,-1.943 0.81,-2.053 0.8,-2.167 0.742,-2.071 0.727,-1.954 0.745,-1.844 0.77,-1.682 0.839,-1.529 0.906,-1.379 0.972,-1.23 1.04,-1.081 1.07,-0.92 l 0.004,0.146 C 1.048,-0.893 0.982,-0.998 0.908,-1.093 0.736,-1.314 0.511,-1.493 0.371,-1.74 l -0.09,-0.213 -0.027,0.141 c -0.004,0.121 0.038,0.237 0.091,0.342 0.08,0.157 0.184,0.298 0.275,0.448 0.073,0.125 0.145,0.256 0.159,0.403 L 0.707,-0.744 C 0.619,-0.869 0.499,-0.967 0.381,-1.061 0.281,-1.139 0.18,-1.215 0.086,-1.299 0.001,-1.376 -0.08,-1.459 -0.139,-1.56 l -0.053,-0.099 c -0.023,0.101 -0.002,0.209 0.04,0.303 l 0.16,0.245 c 0.108,0.132 0.229,0.251 0.334,0.385 0.07,0.093 0.137,0.192 0.165,0.306 C 0.444,-0.513 0.362,-0.592 0.271,-0.656 0.064,-0.801 -0.172,-0.896 -0.374,-1.047 -0.465,-1.112 -0.545,-1.194 -0.608,-1.288 l -0.009,0.015 0.061,0.223 c 0.061,0.11 0.151,0.199 0.245,0.281 0.133,0.116 0.277,0.22 0.404,0.345 0.068,0.07 0.136,0.148 0.175,0.24 -0.075,-0.079 -0.165,-0.143 -0.262,-0.191 -0.255,-0.127 -0.54,-0.183 -0.785,-0.333 l -0.196,-0.166 c 0.007,0.114 0.07,0.216 0.148,0.297 0.104,0.102 0.23,0.178 0.355,0.251 C -0.307,-0.229 -0.135,-0.139 0,0"
         style="fill:#e8c729;fill-opacity:1;fill-rule:nonzero;stroke:none"
         id="path14440"
         inkscape:connector-curvature="0" />
    </g>
    <g
       id="g14442"
       transform="matrix(0.35277777,0,0,-0.35277777,62.34839,98.101347)">
      <path
         d="M 0,0 C 0.524,0.06 1.021,0.326 1.362,0.728 L 1.534,0.591 C 1.671,0.436 1.759,0.247 1.862,0.068 1.962,-0.108 2.08,-0.287 2.257,-0.394 2.145,-0.404 2.033,-0.361 1.942,-0.296 1.812,-0.202 1.712,-0.076 1.611,0.047 1.535,0.142 1.458,0.237 1.371,0.324 L 1.143,0.485 1.317,0.255 C 1.425,0.05 1.482,-0.178 1.576,-0.389 1.637,-0.525 1.718,-0.658 1.834,-0.757 1.713,-0.749 1.606,-0.681 1.523,-0.596 1.396,-0.461 1.31,-0.294 1.215,-0.135 1.121,0.023 1.022,0.19 0.865,0.293 0.93,0.211 0.98,0.117 1.013,0.016 1.085,-0.207 1.105,-0.443 1.169,-0.669 1.207,-0.806 1.265,-0.939 1.358,-1.047 1.246,-1.023 1.154,-0.945 1.087,-0.854 0.994,-0.725 0.937,-0.573 0.88,-0.426 0.838,-0.318 0.798,-0.21 0.746,-0.108 0.699,-0.018 0.645,0.071 0.568,0.139 0.674,-0.048 0.687,-0.268 0.693,-0.478 l 0.01,-0.246 c 0.01,-0.185 0.042,-0.376 0.14,-0.537 -0.115,0.047 -0.199,0.149 -0.25,0.26 -0.091,0.197 -0.116,0.415 -0.168,0.623 -0.037,0.144 -0.08,0.291 -0.174,0.409 L 0.29,-0.128 C 0.322,-0.345 0.275,-0.563 0.253,-0.78 0.238,-0.892 0.236,-1.003 0.24,-1.115 0.245,-1.21 0.265,-1.304 0.301,-1.393 0.198,-1.33 0.132,-1.22 0.098,-1.105 c -0.048,0.16 -0.053,0.329 -0.061,0.494 -0.008,0.129 -0.016,0.26 -0.044,0.387 l -0.08,0.205 z"
         style="fill:#e8c729;fill-opacity:1;fill-rule:nonzero;stroke:none"
         id="path14444"
         inkscape:connector-curvature="0" />
    </g>
    <g
       id="g14446"
       transform="matrix(0.35277777,0,0,-0.35277777,62.085183,98.087906)">
      <path
         d="m 0,0 0.053,-0.008 c 0.15,-0.032 0.302,-0.047 0.456,-0.044 l 0.147,0.007 0.021,-0.168 C 0.679,-0.323 0.656,-0.434 0.63,-0.541 0.589,-0.701 0.535,-0.857 0.501,-1.019 0.468,-1.168 0.455,-1.324 0.492,-1.475 c -0.081,0.07 -0.129,0.168 -0.149,0.271 -0.029,0.154 -0.013,0.311 0,0.467 0.014,0.133 0.032,0.265 0.028,0.399 0.003,0.096 -0.015,0.191 -0.043,0.283 C 0.326,-0.147 0.318,-0.24 0.292,-0.329 0.218,-0.585 0.068,-0.812 -0.013,-1.065 c -0.04,-0.118 -0.059,-0.242 -0.051,-0.365 -0.07,0.084 -0.104,0.193 -0.104,0.301 -0.005,0.159 0.038,0.314 0.077,0.466 0.047,0.175 0.098,0.35 0.099,0.532 l -0.012,0.123 z"
         style="fill:#e8c729;fill-opacity:1;fill-rule:nonzero;stroke:none"
         id="path14448"
         inkscape:connector-curvature="0" />
    </g>
  </g>
</svg>
