<?xml version="1.0" encoding="UTF-8" standalone="no"?>
<!-- Created with Inkscape (http://www.inkscape.org/) -->

<svg
   xmlns:dc="http://purl.org/dc/elements/1.1/"
   xmlns:cc="http://creativecommons.org/ns#"
   xmlns:rdf="http://www.w3.org/1999/02/22-rdf-syntax-ns#"
   xmlns:svg="http://www.w3.org/2000/svg"
   xmlns="http://www.w3.org/2000/svg"
   xmlns:sodipodi="http://sodipodi.sourceforge.net/DTD/sodipodi-0.dtd"
   xmlns:inkscape="http://www.inkscape.org/namespaces/inkscape"
   width="7.084836mm"
   height="4.7325139mm"
   viewBox="0 0 7.084836 4.7325139"
   version="1.1"
   id="svg8"
   inkscape:version="0.92.4 (5da689c313, 2019-01-14)"
   sodipodi:docname="macau.svg">
  <defs
     id="defs2">
    <radialGradient
       id="radialGradient37584"
       spreadMethod="pad"
       gradientTransform="matrix(0.975099,0,0,0.975099,159.64062,365.06934)"
       gradientUnits="userSpaceOnUse"
       r="1"
       cy="0"
       cx="0"
       fy="0"
       fx="0">
      <stop
         id="stop37578"
         offset="0"
         style="stop-opacity:1;stop-color:#852c26" />
      <stop
         id="stop37580"
         offset="0.0015476"
         style="stop-opacity:1;stop-color:#852c26" />
      <stop
         id="stop37582"
         offset="1"
         style="stop-opacity:1;stop-color:#451617" />
    </radialGradient>
    <clipPath
       id="clipPath37532"
       clipPathUnits="userSpaceOnUse">
      <path
         inkscape:connector-curvature="0"
         id="path37530"
         d="M 0,400 H 400 V 0 H 0 Z" />
    </clipPath>
    <radialGradient
       id="radialGradient37522"
       spreadMethod="pad"
       gradientTransform="matrix(-0.2637247,0,0,0.2637247,159.68652,365.88965)"
       gradientUnits="userSpaceOnUse"
       r="1"
       cy="0"
       cx="0"
       fy="0"
       fx="0">
      <stop
         id="stop37516"
         offset="0"
         style="stop-opacity:1;stop-color:#852c26" />
      <stop
         id="stop37518"
         offset="0.0015476"
         style="stop-opacity:1;stop-color:#852c26" />
      <stop
         id="stop37520"
         offset="1"
         style="stop-opacity:1;stop-color:#451617" />
    </radialGradient>
    <clipPath
       id="clipPath37354"
       clipPathUnits="userSpaceOnUse">
      <path
         inkscape:connector-curvature="0"
         id="path37352"
         d="M 0,400 H 400 V 0 H 0 Z" />
    </clipPath>
    <radialGradient
       id="radialGradient37344"
       spreadMethod="pad"
       gradientTransform="matrix(0.975099,0,0,0.975099,155.76025,365.06934)"
       gradientUnits="userSpaceOnUse"
       r="1"
       cy="0"
       cx="0"
       fy="0"
       fx="0">
      <stop
         id="stop37338"
         offset="0"
         style="stop-opacity:1;stop-color:#eee54f" />
      <stop
         id="stop37340"
         offset="0.9977451"
         style="stop-opacity:1;stop-color:#e04a20" />
      <stop
         id="stop37342"
         offset="1"
         style="stop-opacity:1;stop-color:#e04a20" />
    </radialGradient>
    <clipPath
       id="clipPath37272"
       clipPathUnits="userSpaceOnUse">
      <path
         inkscape:connector-curvature="0"
         id="path37270"
         d="M 0,400 H 400 V 0 H 0 Z" />
    </clipPath>
    <radialGradient
       id="radialGradient37262"
       spreadMethod="pad"
       gradientTransform="matrix(0.2636045,0,0,0.2636045,155.71484,365.89062)"
       gradientUnits="userSpaceOnUse"
       r="1"
       cy="0"
       cx="0"
       fy="0"
       fx="0">
      <stop
         id="stop37256"
         offset="0"
         style="stop-opacity:1;stop-color:#eee54f" />
      <stop
         id="stop37258"
         offset="0.9977451"
         style="stop-opacity:1;stop-color:#e04a20" />
      <stop
         id="stop37260"
         offset="1"
         style="stop-opacity:1;stop-color:#e04a20" />
    </radialGradient>
  </defs>
  <sodipodi:namedview
     id="base"
     pagecolor="#ffffff"
     bordercolor="#666666"
     borderopacity="1.0"
     inkscape:pageopacity="0.0"
     inkscape:pageshadow="2"
     inkscape:zoom="11.2"
     inkscape:cx="26.288095"
     inkscape:cy="6.4142364"
     inkscape:document-units="mm"
     inkscape:current-layer="layer1"
     showgrid="false"
     inkscape:window-width="954"
     inkscape:window-height="630"
     inkscape:window-x="-3"
     inkscape:window-y="6"
     inkscape:window-maximized="0" />
  <metadata
     id="metadata5">
    <rdf:RDF>
      <cc:Work
         rdf:about="">
        <dc:format>image/svg+xml</dc:format>
        <dc:type
           rdf:resource="http://purl.org/dc/dcmitype/StillImage" />
        <dc:title></dc:title>
      </cc:Work>
    </rdf:RDF>
  </metadata>
  <g
     inkscape:label="Layer 1"
     inkscape:groupmode="layer"
     id="layer1"
     transform="translate(-56.505271,-94.788156)">
    <g
       id="g40592"
       transform="matrix(0.35277777,0,0,-0.35277777,56.534552,99.491742)">
      <path
         d="M 0,0 H 19.917 L 19.916,13.251 H 0 Z M 19.959,-0.041 V 0 Z M -0.083,-0.082 V 13.333 H 20 V -0.041 -0.082 Z"
         style="fill:#221f21;fill-opacity:1;fill-rule:nonzero;stroke:none"
         id="path40594"
         inkscape:connector-curvature="0" />
    </g>
    <path
       d="m 63.575354,94.80262 h -7.05555 v 4.703586 h 7.05555 z"
       style="fill:#337661;fill-opacity:1;fill-rule:nonzero;stroke:none;stroke-width:0.35277778"
       id="path40596"
       inkscape:connector-curvature="0" />
    <g
       id="g40598"
       transform="matrix(0.35277777,0,0,-0.35277777,60.047512,95.573969)">
      <path
         d="M 0,0 0.177,-0.537 H 0.749 L 0.286,-0.869 0.463,-1.406 0,-1.074 l -0.463,-0.332 0.177,0.537 -0.463,0.332 h 0.572 z"
         style="fill:#ebc028;fill-opacity:1;fill-rule:nonzero;stroke:none"
         id="path40600"
         inkscape:connector-curvature="0" />
    </g>
    <g
       id="g40602"
       transform="matrix(0.35277777,0,0,-0.35277777,58.834482,96.421128)">
      <path
         d="M 0,0 0.348,-0.073 0.525,0.231 0.562,-0.118 0.911,-0.191 0.586,-0.334 0.623,-0.684 0.385,-0.422 0.06,-0.565 0.237,-0.261 Z"
         style="fill:#ebc028;fill-opacity:1;fill-rule:nonzero;stroke:none"
         id="path40604"
         inkscape:connector-curvature="0" />
    </g>
    <g
       id="g40606"
       transform="matrix(0.35277777,0,0,-0.35277777,59.260641,95.869562)">
      <path
         d="m 0,0 0.264,-0.235 0.308,0.175 -0.144,-0.32 0.263,-0.235 -0.353,0.036 -0.145,-0.32 -0.074,0.343 -0.353,0.037 0.307,0.175 z"
         style="fill:#ebc028;fill-opacity:1;fill-rule:nonzero;stroke:none"
         id="path40608"
         inkscape:connector-curvature="0" />
    </g>
    <g
       id="g40610"
       transform="matrix(0.35277777,0,0,-0.35277777,61.260851,96.421128)">
      <path
         d="m 0,0 -0.348,-0.073 -0.178,0.304 -0.037,-0.349 -0.348,-0.073 0.325,-0.143 -0.037,-0.35 0.238,0.262 0.324,-0.143 -0.177,0.304 z"
         style="fill:#ebc028;fill-opacity:1;fill-rule:nonzero;stroke:none"
         id="path40612"
         inkscape:connector-curvature="0" />
    </g>
    <g
       id="g40614"
       transform="matrix(0.35277777,0,0,-0.35277777,60.83469,95.869562)">
      <path
         d="m 0,0 -0.265,-0.235 -0.307,0.175 0.144,-0.32 -0.264,-0.235 0.354,0.036 0.145,-0.32 0.074,0.343 0.353,0.037 -0.308,0.175 z"
         style="fill:#ebc028;fill-opacity:1;fill-rule:nonzero;stroke:none"
         id="path40616"
         inkscape:connector-curvature="0" />
    </g>
    <g
       id="g40618"
       transform="matrix(0.35277777,0,0,-0.35277777,60.047512,97.474805)">
      <path
         d="m 0,0 c -0.338,-0.232 -0.693,-0.736 -1.516,-0.736 -1.162,0 -1.593,0.34 -1.938,0.598 l 0.296,0.178 c 0.466,-0.326 0.984,-0.613 1.951,-0.571 -1.194,0.106 -2.003,0.757 -2.247,1.357 0.646,0.447 1.717,0.439 2.594,-0.178 -0.274,0.338 -1.19,0.714 -1.874,0.608 -0.099,0.102 -0.185,0.228 -0.284,0.33 0.789,0.173 1.884,-0.325 2.287,-0.735 C -1.155,1.523 -1.464,2.283 -0.963,3.208 -0.864,3.115 -0.753,3.022 -0.654,2.93 -1.031,2.25 -0.895,1.455 -0.59,0.902 -1.117,1.975 -0.693,3.035 0,3.551 0.693,3.035 1.117,1.975 0.591,0.902 0.895,1.455 1.032,2.25 0.655,2.93 0.754,3.022 0.865,3.115 0.964,3.208 1.464,2.283 1.156,1.523 0.732,0.851 1.135,1.261 2.23,1.759 3.018,1.586 2.92,1.484 2.834,1.358 2.735,1.256 2.051,1.362 1.135,0.986 0.86,0.648 1.738,1.265 2.809,1.273 3.455,0.826 3.211,0.226 2.401,-0.425 1.207,-0.531 2.175,-0.573 2.692,-0.286 3.159,0.04 L 3.455,-0.138 C 3.109,-0.396 2.678,-0.736 1.516,-0.736 0.693,-0.736 0.339,-0.232 0,0"
         style="fill:#ffffff;fill-opacity:1;fill-rule:nonzero;stroke:none"
         id="path40620"
         inkscape:connector-curvature="0" />
    </g>
    <g
       id="g40622"
       transform="matrix(0.35277777,0,0,-0.35277777,60.047512,97.553862)">
      <path
         d="m 0,0 c -0.483,-0.401 -0.775,-0.654 -1.417,-0.654 l -1.933,0.003 c 0.049,-0.092 0.103,-0.182 0.159,-0.27 l 1.83,-0.003 c 0.88,0 1.361,0.556 1.361,0.556 0,0 0.482,-0.556 1.361,-0.556 l 1.83,0.002 c 0.057,0.088 0.11,0.178 0.159,0.27 L 1.417,-0.654 C 0.776,-0.654 0.484,-0.401 0,0"
         style="fill:#ffffff;fill-opacity:1;fill-rule:nonzero;stroke:none"
         id="path40624"
         inkscape:connector-curvature="0" />
    </g>
    <g
       id="g40626"
       transform="matrix(0.35277777,0,0,-0.35277777,58.98159,97.964003)">
      <path
         d="M 0,0 0.072,-0.093 H 5.971 L 6.044,0 Z"
         style="fill:#ffffff;fill-opacity:1;fill-rule:nonzero;stroke:none"
         id="path40628"
         inkscape:connector-curvature="0" />
    </g>
    <g
       id="g40630"
       transform="matrix(0.35277777,0,0,-0.35277777,59.095962,98.095448)">
      <path
         d="M 0,0 0.199,-0.187 H 5.196 L 5.396,0 Z"
         style="fill:#ffffff;fill-opacity:1;fill-rule:nonzero;stroke:none"
         id="path40632"
         inkscape:connector-curvature="0" />
    </g>
    <g
       id="g40634"
       transform="matrix(0.35277777,0,0,-0.35277777,59.248221,98.227034)">
      <path
         d="M 0,0 C 0.139,-0.103 0.284,-0.196 0.437,-0.28 H 4.096 C 4.248,-0.196 4.394,-0.103 4.532,0 Z"
         style="fill:#ffffff;fill-opacity:1;fill-rule:nonzero;stroke:none"
         id="path40636"
         inkscape:connector-curvature="0" />
    </g>
    <g
       id="g40638"
       transform="matrix(0.35277777,0,0,-0.35277777,59.46595,98.358656)">
      <path
         d="M 0,0 C 0.484,-0.232 1.027,-0.366 1.6,-0.373 H 1.697 C 2.271,-0.366 2.813,-0.232 3.297,0 Z"
         style="fill:#ffffff;fill-opacity:1;fill-rule:nonzero;stroke:none"
         id="path40640"
         inkscape:connector-curvature="0" />
    </g>
  </g>
</svg>
