<?xml version="1.0" encoding="UTF-8" standalone="no"?>
<!-- Created with Inkscape (http://www.inkscape.org/) -->

<svg
   xmlns:dc="http://purl.org/dc/elements/1.1/"
   xmlns:cc="http://creativecommons.org/ns#"
   xmlns:rdf="http://www.w3.org/1999/02/22-rdf-syntax-ns#"
   xmlns:svg="http://www.w3.org/2000/svg"
   xmlns="http://www.w3.org/2000/svg"
   xmlns:sodipodi="http://sodipodi.sourceforge.net/DTD/sodipodi-0.dtd"
   xmlns:inkscape="http://www.inkscape.org/namespaces/inkscape"
   width="7.084836mm"
   height="4.7328668mm"
   viewBox="0 0 7.084836 4.7328668"
   version="1.1"
   id="svg8"
   inkscape:version="0.92.4 (5da689c313, 2019-01-14)"
   sodipodi:docname="morocco.svg">
  <defs
     id="defs2">
    <radialGradient
       id="radialGradient37584"
       spreadMethod="pad"
       gradientTransform="matrix(0.975099,0,0,0.975099,159.64062,365.06934)"
       gradientUnits="userSpaceOnUse"
       r="1"
       cy="0"
       cx="0"
       fy="0"
       fx="0">
      <stop
         id="stop37578"
         offset="0"
         style="stop-opacity:1;stop-color:#852c26" />
      <stop
         id="stop37580"
         offset="0.0015476"
         style="stop-opacity:1;stop-color:#852c26" />
      <stop
         id="stop37582"
         offset="1"
         style="stop-opacity:1;stop-color:#451617" />
    </radialGradient>
    <clipPath
       id="clipPath37532"
       clipPathUnits="userSpaceOnUse">
      <path
         inkscape:connector-curvature="0"
         id="path37530"
         d="M 0,400 H 400 V 0 H 0 Z" />
    </clipPath>
    <radialGradient
       id="radialGradient37522"
       spreadMethod="pad"
       gradientTransform="matrix(-0.2637247,0,0,0.2637247,159.68652,365.88965)"
       gradientUnits="userSpaceOnUse"
       r="1"
       cy="0"
       cx="0"
       fy="0"
       fx="0">
      <stop
         id="stop37516"
         offset="0"
         style="stop-opacity:1;stop-color:#852c26" />
      <stop
         id="stop37518"
         offset="0.0015476"
         style="stop-opacity:1;stop-color:#852c26" />
      <stop
         id="stop37520"
         offset="1"
         style="stop-opacity:1;stop-color:#451617" />
    </radialGradient>
    <clipPath
       id="clipPath37354"
       clipPathUnits="userSpaceOnUse">
      <path
         inkscape:connector-curvature="0"
         id="path37352"
         d="M 0,400 H 400 V 0 H 0 Z" />
    </clipPath>
    <radialGradient
       id="radialGradient37344"
       spreadMethod="pad"
       gradientTransform="matrix(0.975099,0,0,0.975099,155.76025,365.06934)"
       gradientUnits="userSpaceOnUse"
       r="1"
       cy="0"
       cx="0"
       fy="0"
       fx="0">
      <stop
         id="stop37338"
         offset="0"
         style="stop-opacity:1;stop-color:#eee54f" />
      <stop
         id="stop37340"
         offset="0.9977451"
         style="stop-opacity:1;stop-color:#e04a20" />
      <stop
         id="stop37342"
         offset="1"
         style="stop-opacity:1;stop-color:#e04a20" />
    </radialGradient>
    <clipPath
       id="clipPath37272"
       clipPathUnits="userSpaceOnUse">
      <path
         inkscape:connector-curvature="0"
         id="path37270"
         d="M 0,400 H 400 V 0 H 0 Z" />
    </clipPath>
    <radialGradient
       id="radialGradient37262"
       spreadMethod="pad"
       gradientTransform="matrix(0.2636045,0,0,0.2636045,155.71484,365.89062)"
       gradientUnits="userSpaceOnUse"
       r="1"
       cy="0"
       cx="0"
       fy="0"
       fx="0">
      <stop
         id="stop37256"
         offset="0"
         style="stop-opacity:1;stop-color:#eee54f" />
      <stop
         id="stop37258"
         offset="0.9977451"
         style="stop-opacity:1;stop-color:#e04a20" />
      <stop
         id="stop37260"
         offset="1"
         style="stop-opacity:1;stop-color:#e04a20" />
    </radialGradient>
    <radialGradient
       id="radialGradient5422"
       spreadMethod="pad"
       gradientTransform="matrix(0.1021146,-0.0756367,0.070541,0.1077099,271.97559,176.14746)"
       gradientUnits="userSpaceOnUse"
       r="1"
       cy="0"
       cx="0"
       fy="0"
       fx="0">
      <stop
         id="stop5416"
         offset="0"
         style="stop-opacity:1;stop-color:#ffffff" />
      <stop
         id="stop5418"
         offset="0.00091915"
         style="stop-opacity:1;stop-color:#ffffff" />
      <stop
         id="stop5420"
         offset="1"
         style="stop-opacity:1;stop-color:#e63e6e" />
    </radialGradient>
    <clipPath
       id="clipPath5374"
       clipPathUnits="userSpaceOnUse">
      <path
         inkscape:connector-curvature="0"
         id="path5372"
         d="M 0,400 H 400 V 0 H 0 Z" />
    </clipPath>
    <radialGradient
       id="radialGradient5364"
       spreadMethod="pad"
       gradientTransform="matrix(0.1318831,-9.013e-4,-1.001e-4,0.1311822,269.56445,176.4248)"
       gradientUnits="userSpaceOnUse"
       r="1"
       cy="0"
       cx="0"
       fy="0"
       fx="0">
      <stop
         id="stop5358"
         offset="0"
         style="stop-opacity:1;stop-color:#ffffff" />
      <stop
         id="stop5360"
         offset="0.00091915"
         style="stop-opacity:1;stop-color:#ffffff" />
      <stop
         id="stop5362"
         offset="1"
         style="stop-opacity:1;stop-color:#e63e6e" />
    </radialGradient>
    <clipPath
       id="clipPath5316"
       clipPathUnits="userSpaceOnUse">
      <path
         inkscape:connector-curvature="0"
         id="path5314"
         d="M 0,400 H 400 V 0 H 0 Z" />
    </clipPath>
    <radialGradient
       id="radialGradient5306"
       spreadMethod="pad"
       gradientTransform="matrix(0.1105445,0.0935377,-0.0930375,0.1086438,268.6875,176.89062)"
       gradientUnits="userSpaceOnUse"
       r="1"
       cy="0"
       cx="0"
       fy="0"
       fx="0">
      <stop
         id="stop5300"
         offset="0"
         style="stop-opacity:1;stop-color:#ffffff" />
      <stop
         id="stop5302"
         offset="0.00091915"
         style="stop-opacity:1;stop-color:#ffffff" />
      <stop
         id="stop5304"
         offset="1"
         style="stop-opacity:1;stop-color:#e63e6e" />
    </radialGradient>
  </defs>
  <sodipodi:namedview
     id="base"
     pagecolor="#ffffff"
     bordercolor="#666666"
     borderopacity="1.0"
     inkscape:pageopacity="0.0"
     inkscape:pageshadow="2"
     inkscape:zoom="11.2"
     inkscape:cx="19.975264"
     inkscape:cy="11.378186"
     inkscape:document-units="mm"
     inkscape:current-layer="layer1"
     showgrid="false"
     inkscape:window-width="954"
     inkscape:window-height="630"
     inkscape:window-x="-3"
     inkscape:window-y="6"
     inkscape:window-maximized="0" />
  <metadata
     id="metadata5">
    <rdf:RDF>
      <cc:Work
         rdf:about="">
        <dc:format>image/svg+xml</dc:format>
        <dc:type
           rdf:resource="http://purl.org/dc/dcmitype/StillImage" />
        <dc:title></dc:title>
      </cc:Work>
    </rdf:RDF>
  </metadata>
  <g
     inkscape:label="Layer 1"
     inkscape:groupmode="layer"
     id="layer1"
     transform="translate(-58.175536,-96.101184)">
    <g
       id="g11470"
       transform="matrix(0.35277777,0,0,-0.35277777,58.204817,100.80477)">
      <path
         d="M 0,0 H 19.917 V 13.251 H 0 Z M 19.958,-0.042 V 0 Z M -0.083,-0.083 V 13.333 H 20 V -0.042 -0.083 Z"
         style="fill:#221f21;fill-opacity:1;fill-rule:nonzero;stroke:none"
         id="path11472"
         inkscape:connector-curvature="0" />
    </g>
    <path
       d="m 65.245669,100.81949 h -7.05556 v -4.703943 h 7.05556 z"
       style="fill:#db2126;fill-opacity:1;fill-rule:nonzero;stroke:none;stroke-width:0.35277778"
       id="path11474"
       inkscape:connector-curvature="0" />
    <g
       id="g11476"
       transform="matrix(0.35277777,0,0,-0.35277777,61.431148,98.181308)">
      <path
         d="m 0,0 h -2.632 l 2.996,-2.281 0.449,0.342 -1.815,1.382 0.829,0.002 z"
         style="fill:#37833e;fill-opacity:1;fill-rule:nonzero;stroke:none"
         id="path11478"
         inkscape:connector-curvature="0" />
    </g>
    <g
       id="g11480"
       transform="matrix(0.35277777,0,0,-0.35277777,61.431148,98.181308)">
      <path
         d="m 0,0 v 0.007 h -2.654 l 3.018,-2.297 0.453,0.345 0.008,0.006 -1.806,1.376 0.808,10e-4 h 0.005 l 0.175,0.56 0.003,0.009 H 0 V 0 L -0.007,0.002 -0.179,-0.548 -1.002,-0.55 H -1.024 L 0.801,-1.939 0.364,-2.272 -2.611,-0.007 H 0 V 0 l -0.007,0.002 z"
         style="fill:#0e0f0e;fill-opacity:1;fill-rule:nonzero;stroke:none"
         id="path11482"
         inkscape:connector-curvature="0" />
    </g>
    <g
       id="g11484"
       transform="matrix(0.35277777,0,0,-0.35277777,62.005649,98.181308)">
      <path
         d="M 0,0 -0.816,2.621 -1.959,-1.068 -1.51,-1.41 -0.816,0.826 -0.558,0 Z"
         style="fill:#37833e;fill-opacity:1;fill-rule:nonzero;stroke:none"
         id="path11486"
         inkscape:connector-curvature="0" />
    </g>
    <g
       id="g11488"
       transform="matrix(0.35277777,0,0,-0.35277777,62.005649,98.181308)">
      <path
         d="m 0,0 0.007,0.002 -0.823,2.644 -1.152,-3.717 0.453,-0.345 0.009,-0.006 0.69,2.224 0.251,-0.804 0.002,-0.005 H 0 0.01 L 0.007,0.002 0,0 V 0.007 H -0.553 L -0.81,0.828 -0.816,0.851 -1.514,-1.397 -1.951,-1.065 -0.816,2.597 -0.007,-0.002 0,0 v 0.007 z"
         style="fill:#0e0f0e;fill-opacity:1;fill-rule:nonzero;stroke:none"
         id="path11490"
         inkscape:connector-curvature="0" />
    </g>
    <g
       id="g11492"
       transform="matrix(0.35277777,0,0,-0.35277777,62.182888,98.7539)">
      <path
         d="M 0,0 2.127,1.623 -1.576,1.622 -1.748,1.068 h 2.246 l -0.67,-0.512 z"
         style="fill:#37833e;fill-opacity:1;fill-rule:nonzero;stroke:none"
         id="path11494"
         inkscape:connector-curvature="0" />
    </g>
    <g
       id="g11496"
       transform="matrix(0.35277777,0,0,-0.35277777,62.182888,98.7539)">
      <path
         d="M 0,0 0.004,-0.006 2.149,1.631 -1.581,1.63 -1.754,1.07 -1.757,1.062 h 2.233 l -0.652,-0.5 -0.004,-0.003 0.173,-0.561 0.003,-0.01 0.008,0.006 L 0,0 0.007,0.002 -0.164,0.553 0.502,1.062 0.519,1.075 H -1.738 L -1.57,1.615 2.106,1.616 -0.004,0.006 0,0 0.007,0.002 Z"
         style="fill:#0e0f0e;fill-opacity:1;fill-rule:nonzero;stroke:none"
         id="path11498"
         inkscape:connector-curvature="0" />
    </g>
    <g
       id="g11500"
       transform="matrix(0.35277777,0,0,-0.35277777,61.717787,99.107032)">
      <path
         d="M 0,0 2.131,-1.618 0.987,2.069 H 0.43 l 0.694,-2.236 -0.673,0.51 z"
         style="fill:#37833e;fill-opacity:1;fill-rule:nonzero;stroke:none"
         id="path11502"
         inkscape:connector-curvature="0" />
    </g>
    <g
       id="g11504"
       transform="matrix(0.35277777,0,0,-0.35277777,61.717787,99.107032)">
      <path
         d="M 0,0 -0.004,-0.006 2.145,-1.638 0.992,2.076 H 0.43 0.42 L 1.11,-0.147 0.456,0.349 0.451,0.352 -0.004,0.006 -0.012,0 -0.004,-0.006 0,0 0.004,-0.006 0.451,0.334 1.12,-0.173 1.138,-0.187 0.439,2.063 H 0.981 L 2.117,-1.599 0.004,0.006 0,0 0.004,-0.006 Z"
         style="fill:#0e0f0e;fill-opacity:1;fill-rule:nonzero;stroke:none"
         id="path11506"
         inkscape:connector-curvature="0" />
    </g>
    <g
       id="g11508"
       transform="matrix(0.35277777,0,0,-0.35277777,61.253208,98.753194)">
      <path
         d="M 0,0 -0.811,-2.623 2.184,-0.342 2.013,0.211 0.197,-1.171 0.451,-0.344 Z"
         style="fill:#37833e;fill-opacity:1;fill-rule:nonzero;stroke:none"
         id="path11510"
         inkscape:connector-curvature="0" />
    </g>
    <g
       id="g11512"
       transform="matrix(0.35277777,0,0,-0.35277777,61.253208,98.753194)">
      <path
         d="M 0,0 -0.007,0.002 -0.824,-2.643 2.192,-0.345 2.02,0.213 2.017,0.224 0.21,-1.151 0.458,-0.346 0.459,-0.341 0.004,0.006 -0.004,0.012 -0.007,0.002 0,0 -0.004,-0.006 0.443,-0.347 0.19,-1.169 0.183,-1.19 2.009,0.199 2.175,-0.339 -0.797,-2.604 0.007,-0.002 0,0 -0.004,-0.006 Z"
         style="fill:#0e0f0e;fill-opacity:1;fill-rule:nonzero;stroke:none"
         id="path11514"
         inkscape:connector-curvature="0" />
    </g>
  </g>
</svg>
