<?xml version="1.0" encoding="UTF-8" standalone="no"?>
<!-- Created with Inkscape (http://www.inkscape.org/) -->

<svg
   xmlns:dc="http://purl.org/dc/elements/1.1/"
   xmlns:cc="http://creativecommons.org/ns#"
   xmlns:rdf="http://www.w3.org/1999/02/22-rdf-syntax-ns#"
   xmlns:svg="http://www.w3.org/2000/svg"
   xmlns="http://www.w3.org/2000/svg"
   xmlns:sodipodi="http://sodipodi.sourceforge.net/DTD/sodipodi-0.dtd"
   xmlns:inkscape="http://www.inkscape.org/namespaces/inkscape"
   width="7.084836mm"
   height="4.7328668mm"
   viewBox="0 0 7.0848358 4.7328668"
   version="1.1"
   id="svg8"
   inkscape:version="0.92.4 (5da689c313, 2019-01-14)"
   sodipodi:docname="papua_new_guinea.svg">
  <defs
     id="defs2">
    <radialGradient
       id="radialGradient37584"
       spreadMethod="pad"
       gradientTransform="matrix(0.975099,0,0,0.975099,159.64062,365.06934)"
       gradientUnits="userSpaceOnUse"
       r="1"
       cy="0"
       cx="0"
       fy="0"
       fx="0">
      <stop
         id="stop37578"
         offset="0"
         style="stop-opacity:1;stop-color:#852c26" />
      <stop
         id="stop37580"
         offset="0.0015476"
         style="stop-opacity:1;stop-color:#852c26" />
      <stop
         id="stop37582"
         offset="1"
         style="stop-opacity:1;stop-color:#451617" />
    </radialGradient>
    <clipPath
       id="clipPath37532"
       clipPathUnits="userSpaceOnUse">
      <path
         inkscape:connector-curvature="0"
         id="path37530"
         d="M 0,400 H 400 V 0 H 0 Z" />
    </clipPath>
    <radialGradient
       id="radialGradient37522"
       spreadMethod="pad"
       gradientTransform="matrix(-0.2637247,0,0,0.2637247,159.68652,365.88965)"
       gradientUnits="userSpaceOnUse"
       r="1"
       cy="0"
       cx="0"
       fy="0"
       fx="0">
      <stop
         id="stop37516"
         offset="0"
         style="stop-opacity:1;stop-color:#852c26" />
      <stop
         id="stop37518"
         offset="0.0015476"
         style="stop-opacity:1;stop-color:#852c26" />
      <stop
         id="stop37520"
         offset="1"
         style="stop-opacity:1;stop-color:#451617" />
    </radialGradient>
    <clipPath
       id="clipPath37354"
       clipPathUnits="userSpaceOnUse">
      <path
         inkscape:connector-curvature="0"
         id="path37352"
         d="M 0,400 H 400 V 0 H 0 Z" />
    </clipPath>
    <radialGradient
       id="radialGradient37344"
       spreadMethod="pad"
       gradientTransform="matrix(0.975099,0,0,0.975099,155.76025,365.06934)"
       gradientUnits="userSpaceOnUse"
       r="1"
       cy="0"
       cx="0"
       fy="0"
       fx="0">
      <stop
         id="stop37338"
         offset="0"
         style="stop-opacity:1;stop-color:#eee54f" />
      <stop
         id="stop37340"
         offset="0.9977451"
         style="stop-opacity:1;stop-color:#e04a20" />
      <stop
         id="stop37342"
         offset="1"
         style="stop-opacity:1;stop-color:#e04a20" />
    </radialGradient>
    <clipPath
       id="clipPath37272"
       clipPathUnits="userSpaceOnUse">
      <path
         inkscape:connector-curvature="0"
         id="path37270"
         d="M 0,400 H 400 V 0 H 0 Z" />
    </clipPath>
    <radialGradient
       id="radialGradient37262"
       spreadMethod="pad"
       gradientTransform="matrix(0.2636045,0,0,0.2636045,155.71484,365.89062)"
       gradientUnits="userSpaceOnUse"
       r="1"
       cy="0"
       cx="0"
       fy="0"
       fx="0">
      <stop
         id="stop37256"
         offset="0"
         style="stop-opacity:1;stop-color:#eee54f" />
      <stop
         id="stop37258"
         offset="0.9977451"
         style="stop-opacity:1;stop-color:#e04a20" />
      <stop
         id="stop37260"
         offset="1"
         style="stop-opacity:1;stop-color:#e04a20" />
    </radialGradient>
    <radialGradient
       id="radialGradient5422"
       spreadMethod="pad"
       gradientTransform="matrix(0.1021146,-0.0756367,0.070541,0.1077099,271.97559,176.14746)"
       gradientUnits="userSpaceOnUse"
       r="1"
       cy="0"
       cx="0"
       fy="0"
       fx="0">
      <stop
         id="stop5416"
         offset="0"
         style="stop-opacity:1;stop-color:#ffffff" />
      <stop
         id="stop5418"
         offset="0.00091915"
         style="stop-opacity:1;stop-color:#ffffff" />
      <stop
         id="stop5420"
         offset="1"
         style="stop-opacity:1;stop-color:#e63e6e" />
    </radialGradient>
    <clipPath
       id="clipPath5374"
       clipPathUnits="userSpaceOnUse">
      <path
         inkscape:connector-curvature="0"
         id="path5372"
         d="M 0,400 H 400 V 0 H 0 Z" />
    </clipPath>
    <radialGradient
       id="radialGradient5364"
       spreadMethod="pad"
       gradientTransform="matrix(0.1318831,-9.013e-4,-1.001e-4,0.1311822,269.56445,176.4248)"
       gradientUnits="userSpaceOnUse"
       r="1"
       cy="0"
       cx="0"
       fy="0"
       fx="0">
      <stop
         id="stop5358"
         offset="0"
         style="stop-opacity:1;stop-color:#ffffff" />
      <stop
         id="stop5360"
         offset="0.00091915"
         style="stop-opacity:1;stop-color:#ffffff" />
      <stop
         id="stop5362"
         offset="1"
         style="stop-opacity:1;stop-color:#e63e6e" />
    </radialGradient>
    <clipPath
       id="clipPath5316"
       clipPathUnits="userSpaceOnUse">
      <path
         inkscape:connector-curvature="0"
         id="path5314"
         d="M 0,400 H 400 V 0 H 0 Z" />
    </clipPath>
    <radialGradient
       id="radialGradient5306"
       spreadMethod="pad"
       gradientTransform="matrix(0.1105445,0.0935377,-0.0930375,0.1086438,268.6875,176.89062)"
       gradientUnits="userSpaceOnUse"
       r="1"
       cy="0"
       cx="0"
       fy="0"
       fx="0">
      <stop
         id="stop5300"
         offset="0"
         style="stop-opacity:1;stop-color:#ffffff" />
      <stop
         id="stop5302"
         offset="0.00091915"
         style="stop-opacity:1;stop-color:#ffffff" />
      <stop
         id="stop5304"
         offset="1"
         style="stop-opacity:1;stop-color:#e63e6e" />
    </radialGradient>
  </defs>
  <sodipodi:namedview
     id="base"
     pagecolor="#ffffff"
     bordercolor="#666666"
     borderopacity="1.0"
     inkscape:pageopacity="0.0"
     inkscape:pageshadow="2"
     inkscape:zoom="11.2"
     inkscape:cx="18.257405"
     inkscape:cy="4.5398951"
     inkscape:document-units="mm"
     inkscape:current-layer="layer1"
     showgrid="false"
     inkscape:window-width="954"
     inkscape:window-height="630"
     inkscape:window-x="-3"
     inkscape:window-y="6"
     inkscape:window-maximized="0" />
  <metadata
     id="metadata5">
    <rdf:RDF>
      <cc:Work
         rdf:about="">
        <dc:format>image/svg+xml</dc:format>
        <dc:type
           rdf:resource="http://purl.org/dc/dcmitype/StillImage" />
        <dc:title></dc:title>
      </cc:Work>
    </rdf:RDF>
  </metadata>
  <g
     inkscape:label="Layer 1"
     inkscape:groupmode="layer"
     id="layer1"
     transform="translate(-45.153043,-98.132824)">
    <g
       id="g31784"
       transform="matrix(0.35277777,0,0,-0.35277777,45.182324,102.83641)">
      <path
         d="M 0,0 H 19.917 V 13.251 H 0 Z M 19.958,-0.042 V 0 Z M -0.083,-0.083 V 13.333 H 20 V -0.042 -0.083 Z"
         style="fill:#221f21;fill-opacity:1;fill-rule:nonzero;stroke:none"
         id="path31786"
         inkscape:connector-curvature="0" />
    </g>
    <g
       id="g31788"
       transform="matrix(0.35277777,0,0,-0.35277777,52.223204,98.147641)">
      <path
         d="M 0,0 V -13.333 L -20,0 Z"
         style="fill:#c12131;fill-opacity:1;fill-rule:nonzero;stroke:none"
         id="path31790"
         inkscape:connector-curvature="0" />
    </g>
    <g
       id="g31792"
       transform="matrix(0.35277777,0,0,-0.35277777,52.223204,102.85123)">
      <path
         d="M 0,0 H -20 V 13.333 Z"
         style="fill:#0e0f0e;fill-opacity:1;fill-rule:nonzero;stroke:none"
         id="path31794"
         inkscape:connector-curvature="0" />
    </g>
    <g
       id="g31796"
       transform="matrix(0.35277777,0,0,-0.35277777,46.941562,99.63421)">
      <path
         d="M 0,0 0.208,-0.64 H 0.881 L 0.336,-1.035 0.544,-1.676 0,-1.279 l -0.545,-0.397 0.208,0.641 -0.544,0.395 h 0.673 z"
         style="fill:#ffffff;fill-opacity:1;fill-rule:nonzero;stroke:none"
         id="path31798"
         inkscape:connector-curvature="0" />
    </g>
    <g
       id="g31800"
       transform="matrix(0.35277777,0,0,-0.35277777,46.941562,101.94378)">
      <path
         d="M 0,0 0.208,-0.64 H 0.881 L 0.336,-1.035 0.544,-1.675 0,-1.279 l -0.545,-0.396 0.208,0.64 -0.544,0.395 h 0.673 z"
         style="fill:#ffffff;fill-opacity:1;fill-rule:nonzero;stroke:none"
         id="path31802"
         inkscape:connector-curvature="0" />
    </g>
    <g
       id="g31804"
       transform="matrix(0.35277777,0,0,-0.35277777,46.212754,100.61021)">
      <path
         d="M 0,0 0.208,-0.64 H 0.881 L 0.336,-1.036 0.544,-1.675 0,-1.28 -0.544,-1.675 -0.336,-1.036 -0.88,-0.64 h 0.672 z"
         style="fill:#ffffff;fill-opacity:1;fill-rule:nonzero;stroke:none"
         id="path31806"
         inkscape:connector-curvature="0" />
    </g>
    <g
       id="g31808"
       transform="matrix(0.35277777,0,0,-0.35277777,47.670013,100.52787)">
      <path
         d="M 0,0 0.208,-0.64 H 0.881 L 0.336,-1.035 0.544,-1.675 0,-1.279 l -0.544,-0.396 0.208,0.64 -0.545,0.395 h 0.673 z"
         style="fill:#ffffff;fill-opacity:1;fill-rule:nonzero;stroke:none"
         id="path31810"
         inkscape:connector-curvature="0" />
    </g>
    <g
       id="g31812"
       transform="matrix(0.35277777,0,0,-0.35277777,47.258144,101.37433)">
      <path
         d="m 0,0 0.111,-0.342 h 0.36 L 0.18,-0.554 0.291,-0.896 0,-0.685 l -0.291,-0.211 0.111,0.342 -0.29,0.212 h 0.359 z"
         style="fill:#ffffff;fill-opacity:1;fill-rule:nonzero;stroke:none"
         id="path31814"
         inkscape:connector-curvature="0" />
    </g>
    <g
       id="g31816"
       transform="matrix(0.35277777,0,0,-0.35277777,50.705662,100.0676)">
      <path
         d="M 0,0 C -0.142,0.144 -0.292,0.278 -0.448,0.405 -0.56,0.495 -0.675,0.582 -0.794,0.66 l 0.002,0.059 0.074,-0.011 c 0.098,-0.043 0.191,-0.099 0.29,-0.139 l 0.072,0.001 0.04,0.106 0.015,-0.004 0.159,-0.184 C -0.005,0.306 0.104,0.101 0.167,-0.119 l 0.012,-0.072 z m 0.724,-1.08 -0.016,0.045 c -0.055,0.154 -0.131,0.299 -0.22,0.437 L 0.416,-0.486 0.392,-0.266 0.35,-0.061 0.337,-0.008 0.3,0.106 C 0.261,0.207 0.21,0.305 0.144,0.39 L 0.057,0.517 0.055,0.559 0.2,0.451 0.243,0.445 0.238,0.514 0.168,0.715 0.256,0.674 0.463,0.518 0.519,0.493 V 0.537 L 0.499,0.631 0.47,0.729 C 0.423,0.868 0.375,1.006 0.308,1.138 L 0.248,1.209 0.391,1.162 0.314,1.309 C 0.241,1.428 0.162,1.544 0.08,1.657 l -0.191,0.222 -0.078,0.029 0.184,0.034 -0.146,0.142 c -0.118,0.096 -0.24,0.19 -0.368,0.275 l -0.174,0.079 0.091,0.055 0.194,0.078 -0.126,0.06 C -0.797,2.732 -1.087,2.771 -1.366,2.725 -1.496,2.702 -1.622,2.66 -1.739,2.599 l -0.075,-0.033 0.107,0.116 0.127,0.119 0.1,0.119 0.006,0.044 -0.13,0.106 0.153,0.125 0.051,0.076 -0.02,0.016 -0.163,0.033 0.012,0.047 0.124,0.169 0.018,0.059 -0.185,0.026 0.064,0.152 0.009,0.069 -0.15,-0.008 0.039,0.092 0.122,0.238 0.009,0.065 L -1.574,4.227 -1.727,4.152 C -1.927,4.035 -2.11,3.889 -2.271,3.723 -2.379,3.609 -2.477,3.48 -2.538,3.334 L -2.608,3.091 -2.614,2.858 C -2.607,2.766 -2.591,2.675 -2.576,2.584 L -2.581,2.461 -2.621,2.315 -2.68,2.209 -2.777,2.183 -2.91,2.234 -3.145,2.393 -3.27,2.526 -3.455,2.59 C -3.57,2.582 -3.681,2.545 -3.793,2.52 L -3.879,2.513 c -0.107,0.008 -0.212,0.028 -0.318,0.042 l -0.141,0.006 0.052,-0.037 c 0.11,-0.054 0.225,-0.097 0.337,-0.146 l 0.123,-0.07 0.094,-0.105 0.1,-0.047 C -3.518,2.108 -3.401,2.06 -3.304,1.98 L -3.213,1.85 -3.275,1.711 -3.415,1.694 C -3.506,1.719 -3.588,1.766 -3.674,1.804 -3.815,1.868 -3.967,1.923 -4.125,1.917 -4.303,1.908 -4.465,1.814 -4.595,1.697 -4.69,1.615 -4.77,1.518 -4.851,1.422 L -4.919,1.324 -5.075,1.058 C -5.15,0.922 -5.222,0.784 -5.283,0.643 l -0.026,-0.098 0.056,0.025 0.23,0.223 0.016,0.002 -0.07,-0.228 0.048,0.007 0.225,0.146 0.1,0.043 -0.009,-0.086 -0.017,-0.138 0.034,0.008 0.119,0.105 0.119,0.086 -0.017,-0.094 -0.015,-0.199 0.105,0.081 0.228,0.209 0.05,0.013 C -4.098,0.652 -4.146,0.562 -4.141,0.467 h 0.017 c 0.103,0.092 0.194,0.193 0.296,0.285 L -3.76,0.798 -3.745,0.789 V 0.596 l -0.005,-0.123 0.014,0.002 0.085,0.087 c 0.084,0.099 0.164,0.201 0.235,0.31 l 0.011,0.001 0.01,-0.131 0.018,-0.146 0.054,-0.211 0.135,-0.231 c 0.123,-0.134 0.256,-0.261 0.394,-0.381 l 0.237,-0.187 0.037,-0.007 0.011,0.097 -0.007,0.159 0.034,-0.023 0.074,-0.072 0.232,-0.185 0.051,-0.01 -0.006,0.098 -0.001,0.075 0.018,0.016 0.038,-0.033 c 0.122,-0.133 0.254,-0.261 0.398,-0.371 0.197,-0.152 0.417,-0.275 0.651,-0.358 l 0.125,-0.04 c -0.033,0.097 -0.093,0.178 -0.14,0.268 l -0.013,0.046 0.246,-0.079 -0.075,0.126 c -0.063,0.088 -0.126,0.176 -0.184,0.267 l -0.075,0.145 h 0.055 l 0.108,-0.013 -0.023,0.042 c -0.092,0.113 -0.186,0.226 -0.272,0.345 L -1.343,0.191 -1.35,0.256 -1.216,0.222 -1.221,0.279 -1.305,0.531 -1.316,0.614 -1.221,0.588 C -1.109,0.531 -1.005,0.46 -0.89,0.41 l 0.062,-0.009 0.032,0.097 0.087,-0.066 C -0.364,0.151 -0.036,-0.155 0.217,-0.523 0.22,-0.614 0.205,-0.704 0.184,-0.792 l -0.07,-0.171 c -0.082,-0.161 -0.194,-0.313 -0.34,-0.422 -0.146,-0.11 -0.327,-0.172 -0.51,-0.177 -0.174,-0.008 -0.346,0.031 -0.509,0.087 0.068,-0.079 0.158,-0.136 0.248,-0.185 0.17,-0.087 0.371,-0.129 0.558,-0.081 0.23,0.059 0.45,0.177 0.608,0.358 0.088,0.102 0.154,0.221 0.195,0.348 L 0.393,-0.93 0.402,-0.877 0.418,-0.88 0.468,-1.013 0.525,-1.22 0.549,-1.42 0.538,-1.69 0.523,-1.776 0.456,-1.981 0.287,-2.223 C 0.209,-2.299 0.114,-2.354 0.015,-2.396 -0.146,-2.457 -0.32,-2.48 -0.491,-2.478 l -0.167,0.008 0.117,-0.065 c 0.14,-0.055 0.294,-0.067 0.443,-0.052 0.145,0.017 0.288,0.06 0.413,0.135 0.099,0.057 0.185,0.134 0.254,0.223 0.069,0.087 0.118,0.188 0.155,0.293 l 0.051,0.219 0.016,0.172 C 0.797,-1.387 0.772,-1.23 0.724,-1.08"
         style="fill:#eec028;fill-opacity:1;fill-rule:nonzero;stroke:none"
         id="path31818"
         inkscape:connector-curvature="0" />
    </g>
  </g>
</svg>
