<?xml version="1.0" encoding="UTF-8" standalone="no"?>
<!-- Created with Inkscape (http://www.inkscape.org/) -->

<svg
   xmlns:dc="http://purl.org/dc/elements/1.1/"
   xmlns:cc="http://creativecommons.org/ns#"
   xmlns:rdf="http://www.w3.org/1999/02/22-rdf-syntax-ns#"
   xmlns:svg="http://www.w3.org/2000/svg"
   xmlns="http://www.w3.org/2000/svg"
   xmlns:sodipodi="http://sodipodi.sourceforge.net/DTD/sodipodi-0.dtd"
   xmlns:inkscape="http://www.inkscape.org/namespaces/inkscape"
   width="7.084836mm"
   height="4.7328668mm"
   viewBox="0 0 7.084836 4.7328668"
   version="1.1"
   id="svg8"
   inkscape:version="0.92.4 (5da689c313, 2019-01-14)"
   sodipodi:docname="philippines.svg">
  <defs
     id="defs2">
    <radialGradient
       id="radialGradient37584"
       spreadMethod="pad"
       gradientTransform="matrix(0.975099,0,0,0.975099,159.64062,365.06934)"
       gradientUnits="userSpaceOnUse"
       r="1"
       cy="0"
       cx="0"
       fy="0"
       fx="0">
      <stop
         id="stop37578"
         offset="0"
         style="stop-opacity:1;stop-color:#852c26" />
      <stop
         id="stop37580"
         offset="0.0015476"
         style="stop-opacity:1;stop-color:#852c26" />
      <stop
         id="stop37582"
         offset="1"
         style="stop-opacity:1;stop-color:#451617" />
    </radialGradient>
    <clipPath
       id="clipPath37532"
       clipPathUnits="userSpaceOnUse">
      <path
         inkscape:connector-curvature="0"
         id="path37530"
         d="M 0,400 H 400 V 0 H 0 Z" />
    </clipPath>
    <radialGradient
       id="radialGradient37522"
       spreadMethod="pad"
       gradientTransform="matrix(-0.2637247,0,0,0.2637247,159.68652,365.88965)"
       gradientUnits="userSpaceOnUse"
       r="1"
       cy="0"
       cx="0"
       fy="0"
       fx="0">
      <stop
         id="stop37516"
         offset="0"
         style="stop-opacity:1;stop-color:#852c26" />
      <stop
         id="stop37518"
         offset="0.0015476"
         style="stop-opacity:1;stop-color:#852c26" />
      <stop
         id="stop37520"
         offset="1"
         style="stop-opacity:1;stop-color:#451617" />
    </radialGradient>
    <clipPath
       id="clipPath37354"
       clipPathUnits="userSpaceOnUse">
      <path
         inkscape:connector-curvature="0"
         id="path37352"
         d="M 0,400 H 400 V 0 H 0 Z" />
    </clipPath>
    <radialGradient
       id="radialGradient37344"
       spreadMethod="pad"
       gradientTransform="matrix(0.975099,0,0,0.975099,155.76025,365.06934)"
       gradientUnits="userSpaceOnUse"
       r="1"
       cy="0"
       cx="0"
       fy="0"
       fx="0">
      <stop
         id="stop37338"
         offset="0"
         style="stop-opacity:1;stop-color:#eee54f" />
      <stop
         id="stop37340"
         offset="0.9977451"
         style="stop-opacity:1;stop-color:#e04a20" />
      <stop
         id="stop37342"
         offset="1"
         style="stop-opacity:1;stop-color:#e04a20" />
    </radialGradient>
    <clipPath
       id="clipPath37272"
       clipPathUnits="userSpaceOnUse">
      <path
         inkscape:connector-curvature="0"
         id="path37270"
         d="M 0,400 H 400 V 0 H 0 Z" />
    </clipPath>
    <radialGradient
       id="radialGradient37262"
       spreadMethod="pad"
       gradientTransform="matrix(0.2636045,0,0,0.2636045,155.71484,365.89062)"
       gradientUnits="userSpaceOnUse"
       r="1"
       cy="0"
       cx="0"
       fy="0"
       fx="0">
      <stop
         id="stop37256"
         offset="0"
         style="stop-opacity:1;stop-color:#eee54f" />
      <stop
         id="stop37258"
         offset="0.9977451"
         style="stop-opacity:1;stop-color:#e04a20" />
      <stop
         id="stop37260"
         offset="1"
         style="stop-opacity:1;stop-color:#e04a20" />
    </radialGradient>
    <radialGradient
       id="radialGradient5422"
       spreadMethod="pad"
       gradientTransform="matrix(0.1021146,-0.0756367,0.070541,0.1077099,271.97559,176.14746)"
       gradientUnits="userSpaceOnUse"
       r="1"
       cy="0"
       cx="0"
       fy="0"
       fx="0">
      <stop
         id="stop5416"
         offset="0"
         style="stop-opacity:1;stop-color:#ffffff" />
      <stop
         id="stop5418"
         offset="0.00091915"
         style="stop-opacity:1;stop-color:#ffffff" />
      <stop
         id="stop5420"
         offset="1"
         style="stop-opacity:1;stop-color:#e63e6e" />
    </radialGradient>
    <clipPath
       id="clipPath5374"
       clipPathUnits="userSpaceOnUse">
      <path
         inkscape:connector-curvature="0"
         id="path5372"
         d="M 0,400 H 400 V 0 H 0 Z" />
    </clipPath>
    <radialGradient
       id="radialGradient5364"
       spreadMethod="pad"
       gradientTransform="matrix(0.1318831,-9.013e-4,-1.001e-4,0.1311822,269.56445,176.4248)"
       gradientUnits="userSpaceOnUse"
       r="1"
       cy="0"
       cx="0"
       fy="0"
       fx="0">
      <stop
         id="stop5358"
         offset="0"
         style="stop-opacity:1;stop-color:#ffffff" />
      <stop
         id="stop5360"
         offset="0.00091915"
         style="stop-opacity:1;stop-color:#ffffff" />
      <stop
         id="stop5362"
         offset="1"
         style="stop-opacity:1;stop-color:#e63e6e" />
    </radialGradient>
    <clipPath
       id="clipPath5316"
       clipPathUnits="userSpaceOnUse">
      <path
         inkscape:connector-curvature="0"
         id="path5314"
         d="M 0,400 H 400 V 0 H 0 Z" />
    </clipPath>
    <radialGradient
       id="radialGradient5306"
       spreadMethod="pad"
       gradientTransform="matrix(0.1105445,0.0935377,-0.0930375,0.1086438,268.6875,176.89062)"
       gradientUnits="userSpaceOnUse"
       r="1"
       cy="0"
       cx="0"
       fy="0"
       fx="0">
      <stop
         id="stop5300"
         offset="0"
         style="stop-opacity:1;stop-color:#ffffff" />
      <stop
         id="stop5302"
         offset="0.00091915"
         style="stop-opacity:1;stop-color:#ffffff" />
      <stop
         id="stop5304"
         offset="1"
         style="stop-opacity:1;stop-color:#e63e6e" />
    </radialGradient>
  </defs>
  <sodipodi:namedview
     id="base"
     pagecolor="#ffffff"
     bordercolor="#666666"
     borderopacity="1.0"
     inkscape:pageopacity="0.0"
     inkscape:pageshadow="2"
     inkscape:zoom="11.2"
     inkscape:cx="25.270402"
     inkscape:cy="14.382819"
     inkscape:document-units="mm"
     inkscape:current-layer="layer1"
     showgrid="false"
     inkscape:window-width="954"
     inkscape:window-height="630"
     inkscape:window-x="-3"
     inkscape:window-y="6"
     inkscape:window-maximized="0" />
  <metadata
     id="metadata5">
    <rdf:RDF>
      <cc:Work
         rdf:about="">
        <dc:format>image/svg+xml</dc:format>
        <dc:type
           rdf:resource="http://purl.org/dc/dcmitype/StillImage" />
        <dc:title></dc:title>
      </cc:Work>
    </rdf:RDF>
  </metadata>
  <g
     inkscape:label="Layer 1"
     inkscape:groupmode="layer"
     id="layer1"
     transform="translate(-54.599,-97.902284)">
    <g
       id="g29548"
       transform="matrix(0.35277777,0,0,-0.35277777,54.628281,102.60587)">
      <path
         d="M 0,0 H 19.917 L 19.916,13.251 H 0 Z M 19.958,-0.042 V 0 Z M -0.083,-0.083 V 13.333 H 20 V -0.042 -0.083 Z"
         style="fill:#221f21;fill-opacity:1;fill-rule:nonzero;stroke:none"
         id="path29550"
         inkscape:connector-curvature="0" />
    </g>
    <path
       d="m 61.669093,97.916954 h -7.05556 v 2.351616 h 7.05556 z"
       style="fill:#2945a1;fill-opacity:1;fill-rule:nonzero;stroke:none;stroke-width:0.35277778"
       id="path29552"
       inkscape:connector-curvature="0" />
    <path
       d="m 54.613533,102.62054 h 7.05556 v -2.35197 h -7.05556 z"
       style="fill:#c12131;fill-opacity:1;fill-rule:nonzero;stroke:none;stroke-width:0.35277778"
       id="path29554"
       inkscape:connector-curvature="0" />
    <g
       id="g29556"
       transform="matrix(0.35277777,0,0,-0.35277777,54.613501,102.62068)">
      <path
         d="M 0,0 V 13.334 L 9.666,6.667 Z"
         style="fill:#ffffff;fill-opacity:1;fill-rule:nonzero;stroke:none"
         id="path29558"
         inkscape:connector-curvature="0" />
    </g>
    <g
       id="g29560"
       transform="matrix(0.35277777,0,0,-0.35277777,55.092,102.17283)">
      <path
         d="m 0,0 -0.474,0.205 -0.337,-0.391 0.05,0.514 -0.476,0.199 0.504,0.114 0.044,0.513 0.261,-0.445 0.503,0.118 -0.342,-0.387 z"
         style="fill:#ecc028;fill-opacity:1;fill-rule:nonzero;stroke:none"
         id="path29562"
         inkscape:connector-curvature="0" />
    </g>
    <g
       id="g29564"
       transform="matrix(0.35277777,0,0,-0.35277777,56.466601,100.3738)">
      <path
         d="M 0,0 0.22,0.231 -0.077,0.46 C -0.296,0.434 -0.516,0.406 -0.735,0.38 c -0.221,-0.026 -0.203,0.066 0.002,0.102 0.191,0.035 0.383,0.069 0.576,0.103 -0.137,0.107 -0.145,0.142 -0.307,0.099 -0.183,-0.05 -0.432,-0.21 -0.5,-0.014 -0.044,0.129 -0.147,0.184 -0.019,0.254 0.099,0.055 0.2,0.109 0.299,0.163 0.186,0.102 0.185,0.104 0.214,0.316 C -0.616,1.306 -0.763,1.208 -0.909,1.109 l -0.197,-0.13 c -0.108,-0.071 -0.005,0.115 0.017,0.132 0.184,0.143 0.367,0.285 0.551,0.427 0.127,0.099 0.08,0.224 0.078,0.382 L -0.831,1.879 C -0.971,1.707 -1.11,1.535 -1.25,1.364 -1.39,1.191 -1.442,1.271 -1.32,1.439 -1.205,1.598 -1.091,1.755 -0.977,1.913 -1.148,1.896 -1.18,1.914 -1.265,1.771 -1.324,1.674 -1.383,1.575 -1.44,1.479 -1.518,1.35 -1.476,1.346 -1.628,1.422 c -0.125,0.06 -0.268,0.024 -0.226,0.175 0.029,0.11 0.059,0.219 0.089,0.329 C -1.71,2.131 -1.712,2.131 -1.844,2.3 -1.876,2.126 -1.907,1.953 -1.938,1.778 L -1.98,1.545 c -0.023,-0.123 -0.087,0.08 -0.083,0.108 0.025,0.23 0.049,0.461 0.074,0.691 0.017,0.16 -0.106,0.213 -0.221,0.322 L -2.438,2.369 C -2.411,2.15 -2.384,1.931 -2.357,1.711 -2.33,1.49 -2.423,1.509 -2.46,1.713 -2.494,1.905 -2.528,2.097 -2.563,2.289 -2.671,2.153 -2.704,2.145 -2.661,1.982 -2.632,1.873 -2.602,1.762 -2.572,1.652 -2.533,1.51 -2.501,1.535 -2.659,1.479 -2.79,1.433 -2.855,1.312 -2.932,1.445 -2.989,1.543 -3.046,1.642 -3.104,1.74 -3.211,1.923 -3.212,1.922 -3.425,1.945 -3.323,1.801 -3.222,1.657 -3.12,1.513 L -2.983,1.319 C -2.911,1.217 -3.101,1.313 -3.118,1.336 -3.266,1.515 -3.412,1.694 -3.559,1.873 -3.66,1.998 -3.784,1.948 -3.942,1.943 L -3.891,1.571 C -3.716,1.437 -3.542,1.302 -3.366,1.168 -3.189,1.031 -3.268,0.979 -3.439,1.096 -3.601,1.205 -3.761,1.315 -3.922,1.426 -3.9,1.254 -3.918,1.223 -3.772,1.141 -3.6,1.044 -3.318,0.99 -3.409,0.795 -3.468,0.67 -3.43,0.544 -3.576,0.583 -3.687,0.612 -3.796,0.642 -3.906,0.67 -4.111,0.725 -4.111,0.723 -4.279,0.59 -4.105,0.559 -3.931,0.528 -3.757,0.498 L -3.524,0.457 C -3.399,0.436 -3.603,0.371 -3.632,0.374 -3.861,0.396 -4.093,0.42 -4.322,0.443 -4.483,0.46 -4.535,0.338 -4.644,0.222 l 0.299,-0.228 c 0.219,0.029 0.438,0.058 0.657,0.086 0.22,0.028 0.205,-0.064 0,-0.103 -0.192,-0.036 -0.383,-0.072 -0.575,-0.108 0.136,-0.105 0.146,-0.14 0.307,-0.096 0.188,0.053 0.429,0.213 0.5,0.014 0.047,-0.129 0.156,-0.186 0.027,-0.26 -0.099,-0.056 -0.198,-0.113 -0.297,-0.169 -0.184,-0.104 -0.183,-0.106 -0.21,-0.319 0.146,0.1 0.291,0.2 0.437,0.301 l 0.195,0.134 C -3.2,-0.455 -3.3,-0.643 -3.321,-0.66 -3.503,-0.805 -3.684,-0.95 -3.864,-1.096 -3.989,-1.195 -3.94,-1.32 -3.937,-1.479 l 0.372,0.048 c 0.136,0.174 0.273,0.347 0.41,0.521 0.136,0.175 0.19,0.097 0.07,-0.074 -0.111,-0.16 -0.223,-0.32 -0.334,-0.479 0.171,0.02 0.201,0.002 0.285,0.147 0.058,0.099 0.114,0.197 0.171,0.296 0.074,0.127 0.033,0.133 0.184,0.061 0.125,-0.06 0.258,-0.021 0.219,-0.171 -0.029,-0.109 -0.058,-0.22 -0.087,-0.329 -0.054,-0.205 -0.051,-0.206 0.082,-0.374 0.03,0.175 0.06,0.349 0.091,0.522 l 0.04,0.234 c 0.022,0.124 0.087,-0.079 0.083,-0.108 -0.023,-0.23 -0.045,-0.461 -0.069,-0.691 -0.017,-0.16 0.107,-0.212 0.223,-0.32 l 0.226,0.298 c -0.028,0.219 -0.057,0.438 -0.085,0.657 -0.028,0.22 0.065,0.204 0.103,0 0.036,-0.193 0.071,-0.384 0.107,-0.575 0.106,0.136 0.14,0.145 0.095,0.306 -0.03,0.111 -0.061,0.22 -0.091,0.33 -0.04,0.142 -0.071,0.117 0.085,0.174 0.13,0.047 0.194,0.165 0.271,0.034 0.057,-0.098 0.115,-0.196 0.173,-0.294 0.107,-0.183 0.109,-0.181 0.322,-0.205 -0.102,0.144 -0.204,0.288 -0.307,0.432 l -0.137,0.193 c -0.074,0.104 0.117,0.006 0.135,-0.015 0.147,-0.179 0.295,-0.358 0.443,-0.536 0.101,-0.124 0.225,-0.074 0.383,-0.069 l -0.052,0.372 c -0.176,0.134 -0.352,0.268 -0.528,0.403 -0.177,0.134 -0.097,0.187 0.074,0.072 0.161,-0.11 0.322,-0.219 0.483,-0.328 -0.022,0.17 -0.004,0.201 -0.15,0.283 -0.166,0.093 -0.455,0.15 -0.367,0.34 0.058,0.123 0.021,0.24 0.164,0.201 0.111,-0.029 0.22,-0.06 0.329,-0.09 0.206,-0.056 0.206,-0.054 0.374,0.079 l -0.452,0.082 -0.24,0.044 C -0.87,-0.002 -1.005,0.109 -0.889,0.096 -0.593,0.064 -0.296,0.031 0,0"
         style="fill:#ecc028;fill-opacity:1;fill-rule:nonzero;stroke:none"
         id="path29566"
         inkscape:connector-curvature="0" />
    </g>
    <g
       id="g29568"
       transform="matrix(0.35277777,0,0,-0.35277777,57.24035,100.41653)">
      <path
         d="M 0,0 0.305,0.418 -0.003,0.832 0.487,0.671 0.787,1.092 0.786,0.576 1.278,0.422 0.788,0.263 0.792,-0.254 0.489,0.164 Z"
         style="fill:#ecc028;fill-opacity:1;fill-rule:nonzero;stroke:none"
         id="path29570"
         inkscape:connector-curvature="0" />
    </g>
    <g
       id="g29572"
       transform="matrix(0.35277777,0,0,-0.35277777,55.09098,98.363252)">
      <path
         d="m 0,0 -0.473,-0.207 -0.338,0.389 0.052,-0.514 -0.475,-0.203 0.505,-0.11 0.045,-0.513 0.26,0.445 0.503,-0.114 -0.343,0.384 z"
         style="fill:#ecc028;fill-opacity:1;fill-rule:nonzero;stroke:none"
         id="path29574"
         inkscape:connector-curvature="0" />
    </g>
  </g>
</svg>
