<?xml version="1.0" encoding="UTF-8" standalone="no"?>
<!-- Created with Inkscape (http://www.inkscape.org/) -->

<svg
   xmlns:dc="http://purl.org/dc/elements/1.1/"
   xmlns:cc="http://creativecommons.org/ns#"
   xmlns:rdf="http://www.w3.org/1999/02/22-rdf-syntax-ns#"
   xmlns:svg="http://www.w3.org/2000/svg"
   xmlns="http://www.w3.org/2000/svg"
   xmlns:sodipodi="http://sodipodi.sourceforge.net/DTD/sodipodi-0.dtd"
   xmlns:inkscape="http://www.inkscape.org/namespaces/inkscape"
   width="7.0848398mm"
   height="4.7328959mm"
   viewBox="0 0 7.0848396 4.7328959"
   version="1.1"
   id="svg8"
   inkscape:version="0.92.4 (5da689c313, 2019-01-14)"
   sodipodi:docname="tuvalu.svg">
  <defs
     id="defs2">
    <radialGradient
       id="radialGradient37584"
       spreadMethod="pad"
       gradientTransform="matrix(0.975099,0,0,0.975099,159.64062,365.06934)"
       gradientUnits="userSpaceOnUse"
       r="1"
       cy="0"
       cx="0"
       fy="0"
       fx="0">
      <stop
         id="stop37578"
         offset="0"
         style="stop-opacity:1;stop-color:#852c26" />
      <stop
         id="stop37580"
         offset="0.0015476"
         style="stop-opacity:1;stop-color:#852c26" />
      <stop
         id="stop37582"
         offset="1"
         style="stop-opacity:1;stop-color:#451617" />
    </radialGradient>
    <clipPath
       id="clipPath37532"
       clipPathUnits="userSpaceOnUse">
      <path
         inkscape:connector-curvature="0"
         id="path37530"
         d="M 0,400 H 400 V 0 H 0 Z" />
    </clipPath>
    <radialGradient
       id="radialGradient37522"
       spreadMethod="pad"
       gradientTransform="matrix(-0.2637247,0,0,0.2637247,159.68652,365.88965)"
       gradientUnits="userSpaceOnUse"
       r="1"
       cy="0"
       cx="0"
       fy="0"
       fx="0">
      <stop
         id="stop37516"
         offset="0"
         style="stop-opacity:1;stop-color:#852c26" />
      <stop
         id="stop37518"
         offset="0.0015476"
         style="stop-opacity:1;stop-color:#852c26" />
      <stop
         id="stop37520"
         offset="1"
         style="stop-opacity:1;stop-color:#451617" />
    </radialGradient>
    <clipPath
       id="clipPath37354"
       clipPathUnits="userSpaceOnUse">
      <path
         inkscape:connector-curvature="0"
         id="path37352"
         d="M 0,400 H 400 V 0 H 0 Z" />
    </clipPath>
    <radialGradient
       id="radialGradient37344"
       spreadMethod="pad"
       gradientTransform="matrix(0.975099,0,0,0.975099,155.76025,365.06934)"
       gradientUnits="userSpaceOnUse"
       r="1"
       cy="0"
       cx="0"
       fy="0"
       fx="0">
      <stop
         id="stop37338"
         offset="0"
         style="stop-opacity:1;stop-color:#eee54f" />
      <stop
         id="stop37340"
         offset="0.9977451"
         style="stop-opacity:1;stop-color:#e04a20" />
      <stop
         id="stop37342"
         offset="1"
         style="stop-opacity:1;stop-color:#e04a20" />
    </radialGradient>
    <clipPath
       id="clipPath37272"
       clipPathUnits="userSpaceOnUse">
      <path
         inkscape:connector-curvature="0"
         id="path37270"
         d="M 0,400 H 400 V 0 H 0 Z" />
    </clipPath>
    <radialGradient
       id="radialGradient37262"
       spreadMethod="pad"
       gradientTransform="matrix(0.2636045,0,0,0.2636045,155.71484,365.89062)"
       gradientUnits="userSpaceOnUse"
       r="1"
       cy="0"
       cx="0"
       fy="0"
       fx="0">
      <stop
         id="stop37256"
         offset="0"
         style="stop-opacity:1;stop-color:#eee54f" />
      <stop
         id="stop37258"
         offset="0.9977451"
         style="stop-opacity:1;stop-color:#e04a20" />
      <stop
         id="stop37260"
         offset="1"
         style="stop-opacity:1;stop-color:#e04a20" />
    </radialGradient>
    <radialGradient
       id="radialGradient5422"
       spreadMethod="pad"
       gradientTransform="matrix(0.1021146,-0.0756367,0.070541,0.1077099,271.97559,176.14746)"
       gradientUnits="userSpaceOnUse"
       r="1"
       cy="0"
       cx="0"
       fy="0"
       fx="0">
      <stop
         id="stop5416"
         offset="0"
         style="stop-opacity:1;stop-color:#ffffff" />
      <stop
         id="stop5418"
         offset="0.00091915"
         style="stop-opacity:1;stop-color:#ffffff" />
      <stop
         id="stop5420"
         offset="1"
         style="stop-opacity:1;stop-color:#e63e6e" />
    </radialGradient>
    <clipPath
       id="clipPath5374"
       clipPathUnits="userSpaceOnUse">
      <path
         inkscape:connector-curvature="0"
         id="path5372"
         d="M 0,400 H 400 V 0 H 0 Z" />
    </clipPath>
    <radialGradient
       id="radialGradient5364"
       spreadMethod="pad"
       gradientTransform="matrix(0.1318831,-9.013e-4,-1.001e-4,0.1311822,269.56445,176.4248)"
       gradientUnits="userSpaceOnUse"
       r="1"
       cy="0"
       cx="0"
       fy="0"
       fx="0">
      <stop
         id="stop5358"
         offset="0"
         style="stop-opacity:1;stop-color:#ffffff" />
      <stop
         id="stop5360"
         offset="0.00091915"
         style="stop-opacity:1;stop-color:#ffffff" />
      <stop
         id="stop5362"
         offset="1"
         style="stop-opacity:1;stop-color:#e63e6e" />
    </radialGradient>
    <clipPath
       id="clipPath5316"
       clipPathUnits="userSpaceOnUse">
      <path
         inkscape:connector-curvature="0"
         id="path5314"
         d="M 0,400 H 400 V 0 H 0 Z" />
    </clipPath>
    <radialGradient
       id="radialGradient5306"
       spreadMethod="pad"
       gradientTransform="matrix(0.1105445,0.0935377,-0.0930375,0.1086438,268.6875,176.89062)"
       gradientUnits="userSpaceOnUse"
       r="1"
       cy="0"
       cx="0"
       fy="0"
       fx="0">
      <stop
         id="stop5300"
         offset="0"
         style="stop-opacity:1;stop-color:#ffffff" />
      <stop
         id="stop5302"
         offset="0.00091915"
         style="stop-opacity:1;stop-color:#ffffff" />
      <stop
         id="stop5304"
         offset="1"
         style="stop-opacity:1;stop-color:#e63e6e" />
    </radialGradient>
  </defs>
  <sodipodi:namedview
     id="base"
     pagecolor="#ffffff"
     bordercolor="#666666"
     borderopacity="1.0"
     inkscape:pageopacity="0.0"
     inkscape:pageshadow="2"
     inkscape:zoom="11.2"
     inkscape:cx="18.80921"
     inkscape:cy="7.0673789"
     inkscape:document-units="mm"
     inkscape:current-layer="layer1"
     showgrid="false"
     inkscape:window-width="954"
     inkscape:window-height="630"
     inkscape:window-x="-3"
     inkscape:window-y="6"
     inkscape:window-maximized="0" />
  <metadata
     id="metadata5">
    <rdf:RDF>
      <cc:Work
         rdf:about="">
        <dc:format>image/svg+xml</dc:format>
        <dc:type
           rdf:resource="http://purl.org/dc/dcmitype/StillImage" />
        <dc:title></dc:title>
      </cc:Work>
    </rdf:RDF>
  </metadata>
  <g
     inkscape:label="Layer 1"
     inkscape:groupmode="layer"
     id="layer1"
     transform="translate(-45.007046,-98.801524)">
    <path
       d="m 45.036336,103.50509 h 7.02627 v -4.674656 h -7.02627 z m 7.04109,0.0148 v -0.0148 z m -7.07038,0.0145 v -4.732866 h 7.08484 v 4.718396 0.0145 z"
       style="fill:#221f21;fill-opacity:1;fill-rule:nonzero;stroke:none;stroke-width:0.35277778"
       id="path35122"
       inkscape:connector-curvature="0" />
    <path
       d="m 52.077426,103.5199 h -7.05556 v -4.703936 h 7.05556 z"
       style="fill:#5b91aa;fill-opacity:1;fill-rule:nonzero;stroke:none;stroke-width:0.35277778"
       id="path35124"
       inkscape:connector-curvature="0" />
    <path
       d="m 48.549646,101.16793 h -3.52778 v -2.351966 h 3.52778 z"
       style="fill:#2f376f;fill-opacity:1;fill-rule:nonzero;stroke:none;stroke-width:0.35277778"
       id="path35126"
       inkscape:connector-curvature="0" />
    <g
       id="g35128"
       transform="matrix(0.35277777,0,0,-0.35277777,48.549464,99.639283)">
      <path
         d="M 0,0 H -4 V 2.334 H -6 V 0 h -4 v -2 h 4 v -2.333 h 2 V -2 h 4 z"
         style="fill:#ffffff;fill-opacity:1;fill-rule:nonzero;stroke:none"
         id="path35130"
         inkscape:connector-curvature="0" />
    </g>
    <g
       id="g35132"
       transform="matrix(0.35277777,0,0,-0.35277777,48.549464,100.89742)">
      <path
         d="M 0,0 -8.853,5.9 H -10 V 5.128 l 8.844,-5.895 H 0 Z"
         style="fill:#ffffff;fill-opacity:1;fill-rule:nonzero;stroke:none"
         id="path35134"
         inkscape:connector-curvature="0" />
    </g>
    <g
       id="g35136"
       transform="matrix(0.35277777,0,0,-0.35277777,45.021693,100.89742)">
      <path
         d="M 0,0 8.853,5.9 H 10 V 5.128 L 1.156,-0.767 H 0 Z"
         style="fill:#ffffff;fill-opacity:1;fill-rule:nonzero;stroke:none"
         id="path35138"
         inkscape:connector-curvature="0" />
    </g>
    <g
       id="g35140"
       transform="matrix(0.35277777,0,0,-0.35277777,48.549464,99.786074)">
      <path
         d="M 0,0 H -4.417 V 2.75 H -5.584 V 0 H -10 v -1.167 h 4.416 v -2.75 h 1.167 v 2.75 H 0 Z"
         style="fill:#c22135;fill-opacity:1;fill-rule:nonzero;stroke:none"
         id="path35142"
         inkscape:connector-curvature="0" />
    </g>
    <g
       id="g35144"
       transform="matrix(0.35277777,0,0,-0.35277777,48.549464,101.16134)">
      <path
         d="M 0,0 V 0.527 L -2.688,2.314 H -3.479 Z"
         style="fill:#c22135;fill-opacity:1;fill-rule:nonzero;stroke:none"
         id="path35146"
         inkscape:connector-curvature="0" />
    </g>
    <g
       id="g35148"
       transform="matrix(0.35277777,0,0,-0.35277777,48.549464,98.815934)">
      <path
         d="M 0,0 H -0.791 L -4,-2.135 v -0.199 h 0.492 L 0,-0.001 Z"
         style="fill:#c22135;fill-opacity:1;fill-rule:nonzero;stroke:none"
         id="path35150"
         inkscape:connector-curvature="0" />
    </g>
    <g
       id="g35152"
       transform="matrix(0.35277777,0,0,-0.35277777,46.249533,100.34483)">
      <path
         d="m 0,0 -3.48,-2.314 v -0.019 h 0.763 L 0.52,-0.181 V 0 Z"
         style="fill:#c22135;fill-opacity:1;fill-rule:nonzero;stroke:none"
         id="path35154"
         inkscape:connector-curvature="0" />
    </g>
    <g
       id="g35156"
       transform="matrix(0.35277777,0,0,-0.35277777,45.021693,98.817622)">
      <path
         d="M 0,0 V -0.526 L 2.71,-2.329 H 3.501 Z"
         style="fill:#c22135;fill-opacity:1;fill-rule:nonzero;stroke:none"
         id="path35158"
         inkscape:connector-curvature="0" />
    </g>
    <g
       id="g35160"
       transform="matrix(0.35277777,0,0,-0.35277777,48.889863,102.74951)">
      <path
         d="M 0,0 0.205,-0.629 H 0.866 L 0.331,-1.018 0.536,-1.646 0,-1.258 l -0.534,-0.388 0.204,0.628 -0.535,0.389 h 0.662 z"
         style="fill:#f1bc24;fill-opacity:1;fill-rule:nonzero;stroke:none"
         id="path35162"
         inkscape:connector-curvature="0" />
    </g>
    <g
       id="g35164"
       transform="matrix(0.35277777,0,0,-0.35277777,49.400753,102.54627)">
      <path
         d="M 0,0 0.593,-0.292 1.054,0.183 0.96,-0.472 1.553,-0.764 0.901,-0.877 0.808,-1.531 l -0.309,0.585 -0.651,-0.113 0.46,0.474 z"
         style="fill:#f1bc24;fill-opacity:1;fill-rule:nonzero;stroke:none"
         id="path35166"
         inkscape:connector-curvature="0" />
    </g>
    <g
       id="g35168"
       transform="matrix(0.35277777,0,0,-0.35277777,49.374223,101.62538)">
      <path
         d="M 0,0 0.61,-0.254 1.041,0.248 0.987,-0.411 1.599,-0.665 0.955,-0.818 0.902,-1.478 0.558,-0.913 -0.085,-1.066 0.345,-0.564 Z"
         style="fill:#f1bc24;fill-opacity:1;fill-rule:nonzero;stroke:none"
         id="path35170"
         inkscape:connector-curvature="0" />
    </g>
    <g
       id="g35172"
       transform="matrix(0.35277777,0,0,-0.35277777,50.156262,100.20979)">
      <path
         d="M 0,0 0.572,-0.33 1.063,0.113 0.927,-0.533 1.5,-0.863 0.843,-0.934 0.706,-1.58 l -0.27,0.603 -0.657,-0.07 0.491,0.443 z"
         style="fill:#f1bc24;fill-opacity:1;fill-rule:nonzero;stroke:none"
         id="path35174"
         inkscape:connector-curvature="0" />
    </g>
    <g
       id="g35176"
       transform="matrix(0.35277777,0,0,-0.35277777,50.759864,99.9452)">
      <path
         d="M 0,0 0.589,-0.302 1.058,0.165 0.952,-0.488 1.541,-0.789 0.888,-0.893 0.783,-1.545 0.484,-0.955 -0.169,-1.057 0.3,-0.59 Z"
         style="fill:#f1bc24;fill-opacity:1;fill-rule:nonzero;stroke:none"
         id="path35178"
         inkscape:connector-curvature="0" />
    </g>
    <g
       id="g35180"
       transform="matrix(0.35277777,0,0,-0.35277777,51.588404,99.132164)">
      <path
         d="M 0,0 0.204,-0.629 H 0.865 L 0.33,-1.018 0.535,-1.646 0,-1.258 l -0.535,-0.388 0.204,0.628 -0.535,0.389 h 0.662 z"
         style="fill:#f1bc24;fill-opacity:1;fill-rule:nonzero;stroke:none"
         id="path35182"
         inkscape:connector-curvature="0" />
    </g>
    <g
       id="g35184"
       transform="matrix(0.35277777,0,0,-0.35277777,51.589074,100.97771)">
      <path
         d="M 0,0 0.204,-0.629 H 0.865 L 0.331,-1.018 0.535,-1.646 0,-1.258 l -0.535,-0.388 0.205,0.628 -0.535,0.389 h 0.661 z"
         style="fill:#f1bc24;fill-opacity:1;fill-rule:nonzero;stroke:none"
         id="path35186"
         inkscape:connector-curvature="0" />
    </g>
    <g
       id="g35188"
       transform="matrix(0.35277777,0,0,-0.35277777,50.963802,101.50653)">
      <path
         d="M 0,0 0.203,-0.629 H 0.865 L 0.33,-1.018 0.534,-1.646 0,-1.258 l -0.536,-0.388 0.205,0.628 -0.535,0.389 h 0.661 z"
         style="fill:#f1bc24;fill-opacity:1;fill-rule:nonzero;stroke:none"
         id="path35190"
         inkscape:connector-curvature="0" />
    </g>
    <g
       id="g35192"
       transform="matrix(0.35277777,0,0,-0.35277777,50.151783,102.3127)">
      <path
         d="M 0,0 0.598,-0.283 1.051,0.197 0.967,-0.458 1.564,-0.741 0.915,-0.863 0.83,-1.52 0.513,-0.939 -0.137,-1.062 0.317,-0.58 Z"
         style="fill:#f1bc24;fill-opacity:1;fill-rule:nonzero;stroke:none"
         id="path35194"
         inkscape:connector-curvature="0" />
    </g>
  </g>
</svg>
