<?xml version="1.0" encoding="UTF-8" standalone="no"?>
<!-- Created with Inkscape (http://www.inkscape.org/) -->

<svg
   xmlns:dc="http://purl.org/dc/elements/1.1/"
   xmlns:cc="http://creativecommons.org/ns#"
   xmlns:rdf="http://www.w3.org/1999/02/22-rdf-syntax-ns#"
   xmlns:svg="http://www.w3.org/2000/svg"
   xmlns="http://www.w3.org/2000/svg"
   xmlns:sodipodi="http://sodipodi.sourceforge.net/DTD/sodipodi-0.dtd"
   xmlns:inkscape="http://www.inkscape.org/namespaces/inkscape"
   width="7.084836mm"
   height="4.7328668mm"
   viewBox="0 0 7.0848359 4.7328668"
   version="1.1"
   id="svg8"
   inkscape:version="0.92.4 (5da689c313, 2019-01-14)"
   sodipodi:docname="united_states_of_america.svg">
  <defs
     id="defs2">
    <radialGradient
       id="radialGradient37584"
       spreadMethod="pad"
       gradientTransform="matrix(0.975099,0,0,0.975099,159.64062,365.06934)"
       gradientUnits="userSpaceOnUse"
       r="1"
       cy="0"
       cx="0"
       fy="0"
       fx="0">
      <stop
         id="stop37578"
         offset="0"
         style="stop-opacity:1;stop-color:#852c26" />
      <stop
         id="stop37580"
         offset="0.0015476"
         style="stop-opacity:1;stop-color:#852c26" />
      <stop
         id="stop37582"
         offset="1"
         style="stop-opacity:1;stop-color:#451617" />
    </radialGradient>
    <clipPath
       id="clipPath37532"
       clipPathUnits="userSpaceOnUse">
      <path
         inkscape:connector-curvature="0"
         id="path37530"
         d="M 0,400 H 400 V 0 H 0 Z" />
    </clipPath>
    <radialGradient
       id="radialGradient37522"
       spreadMethod="pad"
       gradientTransform="matrix(-0.2637247,0,0,0.2637247,159.68652,365.88965)"
       gradientUnits="userSpaceOnUse"
       r="1"
       cy="0"
       cx="0"
       fy="0"
       fx="0">
      <stop
         id="stop37516"
         offset="0"
         style="stop-opacity:1;stop-color:#852c26" />
      <stop
         id="stop37518"
         offset="0.0015476"
         style="stop-opacity:1;stop-color:#852c26" />
      <stop
         id="stop37520"
         offset="1"
         style="stop-opacity:1;stop-color:#451617" />
    </radialGradient>
    <clipPath
       id="clipPath37354"
       clipPathUnits="userSpaceOnUse">
      <path
         inkscape:connector-curvature="0"
         id="path37352"
         d="M 0,400 H 400 V 0 H 0 Z" />
    </clipPath>
    <radialGradient
       id="radialGradient37344"
       spreadMethod="pad"
       gradientTransform="matrix(0.975099,0,0,0.975099,155.76025,365.06934)"
       gradientUnits="userSpaceOnUse"
       r="1"
       cy="0"
       cx="0"
       fy="0"
       fx="0">
      <stop
         id="stop37338"
         offset="0"
         style="stop-opacity:1;stop-color:#eee54f" />
      <stop
         id="stop37340"
         offset="0.9977451"
         style="stop-opacity:1;stop-color:#e04a20" />
      <stop
         id="stop37342"
         offset="1"
         style="stop-opacity:1;stop-color:#e04a20" />
    </radialGradient>
    <clipPath
       id="clipPath37272"
       clipPathUnits="userSpaceOnUse">
      <path
         inkscape:connector-curvature="0"
         id="path37270"
         d="M 0,400 H 400 V 0 H 0 Z" />
    </clipPath>
    <radialGradient
       id="radialGradient37262"
       spreadMethod="pad"
       gradientTransform="matrix(0.2636045,0,0,0.2636045,155.71484,365.89062)"
       gradientUnits="userSpaceOnUse"
       r="1"
       cy="0"
       cx="0"
       fy="0"
       fx="0">
      <stop
         id="stop37256"
         offset="0"
         style="stop-opacity:1;stop-color:#eee54f" />
      <stop
         id="stop37258"
         offset="0.9977451"
         style="stop-opacity:1;stop-color:#e04a20" />
      <stop
         id="stop37260"
         offset="1"
         style="stop-opacity:1;stop-color:#e04a20" />
    </radialGradient>
    <radialGradient
       id="radialGradient5422"
       spreadMethod="pad"
       gradientTransform="matrix(0.1021146,-0.0756367,0.070541,0.1077099,271.97559,176.14746)"
       gradientUnits="userSpaceOnUse"
       r="1"
       cy="0"
       cx="0"
       fy="0"
       fx="0">
      <stop
         id="stop5416"
         offset="0"
         style="stop-opacity:1;stop-color:#ffffff" />
      <stop
         id="stop5418"
         offset="0.00091915"
         style="stop-opacity:1;stop-color:#ffffff" />
      <stop
         id="stop5420"
         offset="1"
         style="stop-opacity:1;stop-color:#e63e6e" />
    </radialGradient>
    <clipPath
       id="clipPath5374"
       clipPathUnits="userSpaceOnUse">
      <path
         inkscape:connector-curvature="0"
         id="path5372"
         d="M 0,400 H 400 V 0 H 0 Z" />
    </clipPath>
    <radialGradient
       id="radialGradient5364"
       spreadMethod="pad"
       gradientTransform="matrix(0.1318831,-9.013e-4,-1.001e-4,0.1311822,269.56445,176.4248)"
       gradientUnits="userSpaceOnUse"
       r="1"
       cy="0"
       cx="0"
       fy="0"
       fx="0">
      <stop
         id="stop5358"
         offset="0"
         style="stop-opacity:1;stop-color:#ffffff" />
      <stop
         id="stop5360"
         offset="0.00091915"
         style="stop-opacity:1;stop-color:#ffffff" />
      <stop
         id="stop5362"
         offset="1"
         style="stop-opacity:1;stop-color:#e63e6e" />
    </radialGradient>
    <clipPath
       id="clipPath5316"
       clipPathUnits="userSpaceOnUse">
      <path
         inkscape:connector-curvature="0"
         id="path5314"
         d="M 0,400 H 400 V 0 H 0 Z" />
    </clipPath>
    <radialGradient
       id="radialGradient5306"
       spreadMethod="pad"
       gradientTransform="matrix(0.1105445,0.0935377,-0.0930375,0.1086438,268.6875,176.89062)"
       gradientUnits="userSpaceOnUse"
       r="1"
       cy="0"
       cx="0"
       fy="0"
       fx="0">
      <stop
         id="stop5300"
         offset="0"
         style="stop-opacity:1;stop-color:#ffffff" />
      <stop
         id="stop5302"
         offset="0.00091915"
         style="stop-opacity:1;stop-color:#ffffff" />
      <stop
         id="stop5304"
         offset="1"
         style="stop-opacity:1;stop-color:#e63e6e" />
    </radialGradient>
  </defs>
  <sodipodi:namedview
     id="base"
     pagecolor="#ffffff"
     bordercolor="#666666"
     borderopacity="1.0"
     inkscape:pageopacity="0.0"
     inkscape:pageshadow="2"
     inkscape:zoom="11.2"
     inkscape:cx="22.726787"
     inkscape:cy="9.8097296"
     inkscape:document-units="mm"
     inkscape:current-layer="layer1"
     showgrid="false"
     inkscape:window-width="954"
     inkscape:window-height="630"
     inkscape:window-x="-3"
     inkscape:window-y="6"
     inkscape:window-maximized="0" />
  <metadata
     id="metadata5">
    <rdf:RDF>
      <cc:Work
         rdf:about="">
        <dc:format>image/svg+xml</dc:format>
        <dc:type
           rdf:resource="http://purl.org/dc/dcmitype/StillImage" />
        <dc:title></dc:title>
      </cc:Work>
    </rdf:RDF>
  </metadata>
  <g
     inkscape:label="Layer 1"
     inkscape:groupmode="layer"
     id="layer1"
     transform="translate(-43.970526,-99.527134)">
    <g
       id="g29128"
       transform="matrix(0.35277777,0,0,-0.35277777,43.999807,104.23072)">
      <path
         d="M 0,0 H 19.917 L 19.916,13.251 H 0 Z M 19.958,-0.042 V 0 Z M -0.083,-0.083 V 13.333 H 20 V -0.042 -0.083 Z"
         style="fill:#221f21;fill-opacity:1;fill-rule:nonzero;stroke:none"
         id="path29130"
         inkscape:connector-curvature="0" />
    </g>
    <path
       d="m 43.985169,103.16004 h 7.055561 v -0.36159 h -7.055561 z"
       style="fill:#ffffff;fill-opacity:1;fill-rule:nonzero;stroke:none;stroke-width:0.35277778"
       id="path29132"
       inkscape:connector-curvature="0" />
    <path
       d="m 43.985169,102.79809 h 7.055561 v -0.36195 h -7.055561 z"
       style="fill:#b12139;fill-opacity:1;fill-rule:nonzero;stroke:none;stroke-width:0.35277778"
       id="path29134"
       inkscape:connector-curvature="0" />
    <path
       d="m 43.985169,103.88359 h 7.055561 v -0.3616 h -7.055561 z"
       style="fill:#ffffff;fill-opacity:1;fill-rule:nonzero;stroke:none;stroke-width:0.35277778"
       id="path29136"
       inkscape:connector-curvature="0" />
    <path
       d="m 43.985169,104.24554 h 7.055561 v -0.36195 h -7.055561 z"
       style="fill:#b12139;fill-opacity:1;fill-rule:nonzero;stroke:none;stroke-width:0.35277778"
       id="path29138"
       inkscape:connector-curvature="0" />
    <path
       d="m 43.985169,103.52164 h 7.055561 v -0.3616 h -7.055561 z"
       style="fill:#b12139;fill-opacity:1;fill-rule:nonzero;stroke:none;stroke-width:0.35277778"
       id="path29140"
       inkscape:connector-curvature="0" />
    <path
       d="m 43.985169,102.43614 h 7.055561 v -0.36159 h -7.055561 z"
       style="fill:#ffffff;fill-opacity:1;fill-rule:nonzero;stroke:none;stroke-width:0.35277778"
       id="path29142"
       inkscape:connector-curvature="0" />
    <path
       d="m 43.985169,101.35065 h 7.055561 v -0.3616 h -7.055561 z"
       style="fill:#b12139;fill-opacity:1;fill-rule:nonzero;stroke:none;stroke-width:0.35277778"
       id="path29144"
       inkscape:connector-curvature="0" />
    <path
       d="M 51.04073,99.903198 H 43.985169 V 100.2648 H 51.04073 Z"
       style="fill:#ffffff;fill-opacity:1;fill-rule:nonzero;stroke:none;stroke-width:0.35277778"
       id="path29146"
       inkscape:connector-curvature="0" />
    <path
       d="m 43.985169,100.6271 h 7.055561 v -0.36195 h -7.055561 z"
       style="fill:#b12139;fill-opacity:1;fill-rule:nonzero;stroke:none;stroke-width:0.35277778"
       id="path29148"
       inkscape:connector-curvature="0" />
    <path
       d="M 43.985169,102.07455 H 51.04073 V 101.7126 H 43.985169 Z"
       style="fill:#b12139;fill-opacity:1;fill-rule:nonzero;stroke:none;stroke-width:0.35277778"
       id="path29150"
       inkscape:connector-curvature="0" />
    <path
       d="m 51.04073,99.541948 h -7.055561 v 0.36125 h 7.055561 z"
       style="fill:#b12139;fill-opacity:1;fill-rule:nonzero;stroke:none;stroke-width:0.35277778"
       id="path29152"
       inkscape:connector-curvature="0" />
    <path
       d="m 43.985169,100.98905 h 7.055561 v -0.3616 h -7.055561 z"
       style="fill:#ffffff;fill-opacity:1;fill-rule:nonzero;stroke:none;stroke-width:0.35277778"
       id="path29154"
       inkscape:connector-curvature="0" />
    <path
       d="m 43.985169,101.71224 h 7.055561 v -0.36159 h -7.055561 z"
       style="fill:#ffffff;fill-opacity:1;fill-rule:nonzero;stroke:none;stroke-width:0.35277778"
       id="path29156"
       inkscape:connector-curvature="0" />
    <path
       d="m 46.807399,102.07737 h -2.82223 v -2.535422 h 2.82223 z"
       style="fill:#2d355f;fill-opacity:1;fill-rule:nonzero;stroke:none;stroke-width:0.35277778"
       id="path29158"
       inkscape:connector-curvature="0" />
    <g
       id="g29160"
       transform="matrix(0.35277777,0,0,-0.35277777,46.104908,99.677308)">
      <path
         d="M 0,0 0.055,-0.17 H 0.233 L 0.089,-0.275 0.145,-0.445 0,-0.34 l -0.146,-0.105 0.056,0.17 -0.144,0.105 h 0.178 z"
         style="fill:#ffffff;fill-opacity:1;fill-rule:nonzero;stroke:none"
         id="path29162"
         inkscape:connector-curvature="0" />
    </g>
    <g
       id="g29164"
       transform="matrix(0.35277777,0,0,-0.35277777,46.104908,100.20408)">
      <path
         d="M 0,0 0.055,-0.17 H 0.233 L 0.089,-0.275 0.145,-0.445 0,-0.341 l -0.146,-0.104 0.056,0.17 -0.144,0.105 h 0.178 z"
         style="fill:#ffffff;fill-opacity:1;fill-rule:nonzero;stroke:none"
         id="path29166"
         inkscape:connector-curvature="0" />
    </g>
    <g
       id="g29168"
       transform="matrix(0.35277777,0,0,-0.35277777,46.104908,100.7312)">
      <path
         d="M 0,0 0.055,-0.17 H 0.233 L 0.089,-0.275 0.145,-0.445 0,-0.34 l -0.146,-0.105 0.056,0.17 -0.144,0.105 h 0.178 z"
         style="fill:#ffffff;fill-opacity:1;fill-rule:nonzero;stroke:none"
         id="path29170"
         inkscape:connector-curvature="0" />
    </g>
    <g
       id="g29172"
       transform="matrix(0.35277777,0,0,-0.35277777,46.104908,101.27)">
      <path
         d="M 0,0 0.055,-0.171 H 0.233 L 0.089,-0.275 0.145,-0.446 0,-0.341 l -0.146,-0.105 0.056,0.171 -0.144,0.104 h 0.178 z"
         style="fill:#ffffff;fill-opacity:1;fill-rule:nonzero;stroke:none"
         id="path29174"
         inkscape:connector-curvature="0" />
    </g>
    <g
       id="g29176"
       transform="matrix(0.35277777,0,0,-0.35277777,46.104908,101.7847)">
      <path
         d="M 0,0 0.055,-0.17 H 0.233 L 0.089,-0.275 0.145,-0.445 0,-0.34 l -0.146,-0.105 0.056,0.17 -0.144,0.105 h 0.178 z"
         style="fill:#ffffff;fill-opacity:1;fill-rule:nonzero;stroke:none"
         id="path29178"
         inkscape:connector-curvature="0" />
    </g>
    <g
       id="g29180"
       transform="matrix(0.35277777,0,0,-0.35277777,45.632429,99.677308)">
      <path
         d="M 0,0 0.055,-0.17 H 0.234 L 0.089,-0.275 0.145,-0.445 0,-0.34 l -0.145,-0.105 0.055,0.17 -0.144,0.105 h 0.179 z"
         style="fill:#ffffff;fill-opacity:1;fill-rule:nonzero;stroke:none"
         id="path29182"
         inkscape:connector-curvature="0" />
    </g>
    <g
       id="g29184"
       transform="matrix(0.35277777,0,0,-0.35277777,45.632429,100.20408)">
      <path
         d="M 0,0 0.055,-0.17 H 0.234 L 0.089,-0.275 0.145,-0.445 0,-0.341 l -0.145,-0.104 0.055,0.17 -0.144,0.105 h 0.179 z"
         style="fill:#ffffff;fill-opacity:1;fill-rule:nonzero;stroke:none"
         id="path29186"
         inkscape:connector-curvature="0" />
    </g>
    <g
       id="g29188"
       transform="matrix(0.35277777,0,0,-0.35277777,45.632429,100.7312)">
      <path
         d="M 0,0 0.055,-0.17 H 0.234 L 0.089,-0.275 0.145,-0.445 0,-0.34 l -0.145,-0.105 0.055,0.17 -0.144,0.105 h 0.179 z"
         style="fill:#ffffff;fill-opacity:1;fill-rule:nonzero;stroke:none"
         id="path29190"
         inkscape:connector-curvature="0" />
    </g>
    <g
       id="g29192"
       transform="matrix(0.35277777,0,0,-0.35277777,45.632429,101.27)">
      <path
         d="M 0,0 0.055,-0.171 H 0.234 L 0.089,-0.275 0.145,-0.446 0,-0.341 l -0.145,-0.105 0.055,0.171 -0.144,0.104 h 0.179 z"
         style="fill:#ffffff;fill-opacity:1;fill-rule:nonzero;stroke:none"
         id="path29194"
         inkscape:connector-curvature="0" />
    </g>
    <g
       id="g29196"
       transform="matrix(0.35277777,0,0,-0.35277777,45.632429,101.7847)">
      <path
         d="M 0,0 0.055,-0.17 H 0.234 L 0.089,-0.275 0.145,-0.445 0,-0.34 l -0.145,-0.105 0.055,0.17 -0.144,0.105 h 0.179 z"
         style="fill:#ffffff;fill-opacity:1;fill-rule:nonzero;stroke:none"
         id="path29198"
         inkscape:connector-curvature="0" />
    </g>
    <g
       id="g29200"
       transform="matrix(0.35277777,0,0,-0.35277777,45.160277,99.677308)">
      <path
         d="M 0,0 0.055,-0.17 H 0.233 L 0.089,-0.275 0.145,-0.445 0,-0.34 l -0.146,-0.105 0.056,0.17 -0.144,0.105 h 0.178 z"
         style="fill:#ffffff;fill-opacity:1;fill-rule:nonzero;stroke:none"
         id="path29202"
         inkscape:connector-curvature="0" />
    </g>
    <g
       id="g29204"
       transform="matrix(0.35277777,0,0,-0.35277777,45.160277,100.20408)">
      <path
         d="M 0,0 0.055,-0.17 H 0.233 L 0.089,-0.275 0.145,-0.445 0,-0.341 l -0.146,-0.104 0.056,0.17 -0.144,0.105 h 0.178 z"
         style="fill:#ffffff;fill-opacity:1;fill-rule:nonzero;stroke:none"
         id="path29206"
         inkscape:connector-curvature="0" />
    </g>
    <g
       id="g29208"
       transform="matrix(0.35277777,0,0,-0.35277777,45.160277,100.7312)">
      <path
         d="M 0,0 0.055,-0.17 H 0.233 L 0.089,-0.275 0.145,-0.445 0,-0.34 l -0.146,-0.105 0.056,0.17 -0.144,0.105 h 0.178 z"
         style="fill:#ffffff;fill-opacity:1;fill-rule:nonzero;stroke:none"
         id="path29210"
         inkscape:connector-curvature="0" />
    </g>
    <g
       id="g29212"
       transform="matrix(0.35277777,0,0,-0.35277777,45.160277,101.27)">
      <path
         d="M 0,0 0.055,-0.171 H 0.233 L 0.089,-0.275 0.145,-0.446 0,-0.341 l -0.146,-0.105 0.056,0.171 -0.144,0.104 h 0.178 z"
         style="fill:#ffffff;fill-opacity:1;fill-rule:nonzero;stroke:none"
         id="path29214"
         inkscape:connector-curvature="0" />
    </g>
    <g
       id="g29216"
       transform="matrix(0.35277777,0,0,-0.35277777,45.160277,101.7847)">
      <path
         d="M 0,0 0.055,-0.17 H 0.233 L 0.089,-0.275 0.145,-0.445 0,-0.34 l -0.146,-0.105 0.056,0.17 -0.144,0.105 h 0.178 z"
         style="fill:#ffffff;fill-opacity:1;fill-rule:nonzero;stroke:none"
         id="path29218"
         inkscape:connector-curvature="0" />
    </g>
    <g
       id="g29220"
       transform="matrix(0.35277777,0,0,-0.35277777,44.687628,99.677308)">
      <path
         d="M 0,0 0.055,-0.17 H 0.234 L 0.09,-0.275 0.145,-0.445 0,-0.34 l -0.145,-0.105 0.056,0.17 -0.145,0.105 h 0.178 z"
         style="fill:#ffffff;fill-opacity:1;fill-rule:nonzero;stroke:none"
         id="path29222"
         inkscape:connector-curvature="0" />
    </g>
    <g
       id="g29224"
       transform="matrix(0.35277777,0,0,-0.35277777,44.687628,100.20408)">
      <path
         d="M 0,0 0.055,-0.17 H 0.234 L 0.09,-0.275 0.145,-0.445 0,-0.341 l -0.145,-0.104 0.056,0.17 -0.145,0.105 h 0.178 z"
         style="fill:#ffffff;fill-opacity:1;fill-rule:nonzero;stroke:none"
         id="path29226"
         inkscape:connector-curvature="0" />
    </g>
    <g
       id="g29228"
       transform="matrix(0.35277777,0,0,-0.35277777,44.687628,100.7312)">
      <path
         d="M 0,0 0.055,-0.17 H 0.234 L 0.09,-0.275 0.145,-0.445 0,-0.34 l -0.145,-0.105 0.056,0.17 -0.145,0.105 h 0.178 z"
         style="fill:#ffffff;fill-opacity:1;fill-rule:nonzero;stroke:none"
         id="path29230"
         inkscape:connector-curvature="0" />
    </g>
    <g
       id="g29232"
       transform="matrix(0.35277777,0,0,-0.35277777,44.687628,101.27)">
      <path
         d="M 0,0 0.055,-0.171 H 0.234 L 0.09,-0.275 0.145,-0.446 0,-0.341 l -0.145,-0.105 0.056,0.171 -0.145,0.104 h 0.178 z"
         style="fill:#ffffff;fill-opacity:1;fill-rule:nonzero;stroke:none"
         id="path29234"
         inkscape:connector-curvature="0" />
    </g>
    <g
       id="g29236"
       transform="matrix(0.35277777,0,0,-0.35277777,44.687628,101.7847)">
      <path
         d="M 0,0 0.055,-0.17 H 0.234 L 0.09,-0.275 0.145,-0.445 0,-0.34 l -0.145,-0.105 0.056,0.17 -0.145,0.105 h 0.178 z"
         style="fill:#ffffff;fill-opacity:1;fill-rule:nonzero;stroke:none"
         id="path29238"
         inkscape:connector-curvature="0" />
    </g>
    <g
       id="g29240"
       transform="matrix(0.35277777,0,0,-0.35277777,44.215289,99.677308)">
      <path
         d="M 0,0 0.056,-0.17 H 0.234 L 0.089,-0.275 0.145,-0.445 0,-0.34 l -0.145,-0.105 0.055,0.17 -0.144,0.105 h 0.179 z"
         style="fill:#ffffff;fill-opacity:1;fill-rule:nonzero;stroke:none"
         id="path29242"
         inkscape:connector-curvature="0" />
    </g>
    <g
       id="g29244"
       transform="matrix(0.35277777,0,0,-0.35277777,44.215289,100.20408)">
      <path
         d="M 0,0 0.056,-0.17 H 0.234 L 0.089,-0.275 0.145,-0.445 0,-0.341 l -0.145,-0.104 0.055,0.17 -0.144,0.105 h 0.179 z"
         style="fill:#ffffff;fill-opacity:1;fill-rule:nonzero;stroke:none"
         id="path29246"
         inkscape:connector-curvature="0" />
    </g>
    <g
       id="g29248"
       transform="matrix(0.35277777,0,0,-0.35277777,44.215289,100.7312)">
      <path
         d="M 0,0 0.056,-0.17 H 0.234 L 0.089,-0.275 0.145,-0.445 0,-0.34 l -0.145,-0.105 0.055,0.17 -0.144,0.105 h 0.179 z"
         style="fill:#ffffff;fill-opacity:1;fill-rule:nonzero;stroke:none"
         id="path29250"
         inkscape:connector-curvature="0" />
    </g>
    <g
       id="g29252"
       transform="matrix(0.35277777,0,0,-0.35277777,44.215289,101.27)">
      <path
         d="M 0,0 0.056,-0.171 H 0.234 L 0.089,-0.275 0.145,-0.446 0,-0.341 l -0.145,-0.105 0.055,0.171 -0.144,0.104 h 0.179 z"
         style="fill:#ffffff;fill-opacity:1;fill-rule:nonzero;stroke:none"
         id="path29254"
         inkscape:connector-curvature="0" />
    </g>
    <g
       id="g29256"
       transform="matrix(0.35277777,0,0,-0.35277777,44.215289,101.7847)">
      <path
         d="M 0,0 0.056,-0.17 H 0.234 L 0.089,-0.275 0.145,-0.445 0,-0.34 l -0.145,-0.105 0.055,0.17 -0.144,0.105 h 0.179 z"
         style="fill:#ffffff;fill-opacity:1;fill-rule:nonzero;stroke:none"
         id="path29258"
         inkscape:connector-curvature="0" />
    </g>
    <g
       id="g29260"
       transform="matrix(0.35277777,0,0,-0.35277777,46.345748,99.940518)">
      <path
         d="M 0,0 0.055,-0.171 H 0.234 L 0.089,-0.275 0.145,-0.446 0,-0.341 l -0.145,-0.105 0.056,0.171 -0.145,0.104 h 0.178 z"
         style="fill:#ffffff;fill-opacity:1;fill-rule:nonzero;stroke:none"
         id="path29262"
         inkscape:connector-curvature="0" />
    </g>
    <g
       id="g29264"
       transform="matrix(0.35277777,0,0,-0.35277777,46.345748,100.48451)">
      <path
         d="M 0,0 0.055,-0.17 H 0.234 L 0.089,-0.275 0.145,-0.445 0,-0.34 l -0.145,-0.105 0.056,0.17 -0.145,0.105 h 0.178 z"
         style="fill:#ffffff;fill-opacity:1;fill-rule:nonzero;stroke:none"
         id="path29266"
         inkscape:connector-curvature="0" />
    </g>
    <g
       id="g29268"
       transform="matrix(0.35277777,0,0,-0.35277777,46.340917,101.01748)">
      <path
         d="M 0,0 0.055,-0.17 H 0.234 L 0.09,-0.275 0.145,-0.445 0,-0.34 l -0.145,-0.105 0.056,0.17 -0.145,0.105 h 0.179 z"
         style="fill:#ffffff;fill-opacity:1;fill-rule:nonzero;stroke:none"
         id="path29270"
         inkscape:connector-curvature="0" />
    </g>
    <g
       id="g29272"
       transform="matrix(0.35277777,0,0,-0.35277777,46.336257,101.54421)">
      <path
         d="M 0,0 0.055,-0.17 H 0.234 L 0.089,-0.275 0.145,-0.445 0,-0.34 l -0.145,-0.105 0.056,0.17 -0.145,0.105 h 0.179 z"
         style="fill:#ffffff;fill-opacity:1;fill-rule:nonzero;stroke:none"
         id="path29274"
         inkscape:connector-curvature="0" />
    </g>
    <g
       id="g29276"
       transform="matrix(0.35277777,0,0,-0.35277777,45.873236,99.940518)">
      <path
         d="M 0,0 0.055,-0.171 H 0.234 L 0.089,-0.275 0.145,-0.446 0,-0.341 l -0.145,-0.105 0.056,0.171 -0.145,0.104 h 0.179 z"
         style="fill:#ffffff;fill-opacity:1;fill-rule:nonzero;stroke:none"
         id="path29278"
         inkscape:connector-curvature="0" />
    </g>
    <g
       id="g29280"
       transform="matrix(0.35277777,0,0,-0.35277777,45.873236,100.48451)">
      <path
         d="M 0,0 0.055,-0.17 H 0.234 L 0.089,-0.275 0.145,-0.445 0,-0.34 l -0.145,-0.105 0.056,0.17 -0.145,0.105 h 0.179 z"
         style="fill:#ffffff;fill-opacity:1;fill-rule:nonzero;stroke:none"
         id="path29282"
         inkscape:connector-curvature="0" />
    </g>
    <g
       id="g29284"
       transform="matrix(0.35277777,0,0,-0.35277777,45.868577,101.01748)">
      <path
         d="M 0,0 0.055,-0.17 H 0.234 L 0.09,-0.275 0.145,-0.445 0,-0.34 l -0.145,-0.105 0.056,0.17 -0.145,0.105 h 0.178 z"
         style="fill:#ffffff;fill-opacity:1;fill-rule:nonzero;stroke:none"
         id="path29286"
         inkscape:connector-curvature="0" />
    </g>
    <g
       id="g29288"
       transform="matrix(0.35277777,0,0,-0.35277777,45.863928,101.54421)">
      <path
         d="M 0,0 0.055,-0.17 H 0.234 L 0.089,-0.275 0.145,-0.445 0,-0.34 l -0.145,-0.105 0.055,0.17 -0.144,0.105 h 0.178 z"
         style="fill:#ffffff;fill-opacity:1;fill-rule:nonzero;stroke:none"
         id="path29290"
         inkscape:connector-curvature="0" />
    </g>
    <g
       id="g29292"
       transform="matrix(0.35277777,0,0,-0.35277777,45.400767,99.921928)">
      <path
         d="M 0,0 0.056,-0.17 H 0.234 L 0.09,-0.274 0.146,-0.445 0,-0.34 l -0.145,-0.105 0.056,0.171 -0.145,0.104 h 0.179 z"
         style="fill:#ffffff;fill-opacity:1;fill-rule:nonzero;stroke:none"
         id="path29294"
         inkscape:connector-curvature="0" />
    </g>
    <g
       id="g29296"
       transform="matrix(0.35277777,0,0,-0.35277777,45.400767,100.46556)">
      <path
         d="M 0,0 0.056,-0.17 H 0.234 L 0.09,-0.275 0.146,-0.445 0,-0.341 l -0.145,-0.104 0.056,0.17 -0.145,0.105 h 0.179 z"
         style="fill:#ffffff;fill-opacity:1;fill-rule:nonzero;stroke:none"
         id="path29298"
         inkscape:connector-curvature="0" />
    </g>
    <g
       id="g29300"
       transform="matrix(0.35277777,0,0,-0.35277777,45.396288,100.99854)">
      <path
         d="M 0,0 0.055,-0.17 H 0.234 L 0.089,-0.275 0.145,-0.445 0,-0.34 l -0.146,-0.105 0.056,0.17 -0.144,0.105 h 0.178 z"
         style="fill:#ffffff;fill-opacity:1;fill-rule:nonzero;stroke:none"
         id="path29302"
         inkscape:connector-curvature="0" />
    </g>
    <g
       id="g29304"
       transform="matrix(0.35277777,0,0,-0.35277777,45.391449,101.52562)">
      <path
         d="M 0,0 0.055,-0.17 H 0.234 L 0.09,-0.274 0.145,-0.445 0,-0.34 l -0.145,-0.105 0.056,0.171 -0.145,0.104 h 0.178 z"
         style="fill:#ffffff;fill-opacity:1;fill-rule:nonzero;stroke:none"
         id="path29306"
         inkscape:connector-curvature="0" />
    </g>
    <g
       id="g29308"
       transform="matrix(0.35277777,0,0,-0.35277777,44.928608,99.916778)">
      <path
         d="M 0,0 0.055,-0.17 H 0.234 L 0.089,-0.275 0.145,-0.445 0,-0.34 l -0.145,-0.105 0.056,0.17 -0.145,0.105 h 0.179 z"
         style="fill:#ffffff;fill-opacity:1;fill-rule:nonzero;stroke:none"
         id="path29310"
         inkscape:connector-curvature="0" />
    </g>
    <g
       id="g29312"
       transform="matrix(0.35277777,0,0,-0.35277777,44.928608,100.46041)">
      <path
         d="M 0,0 0.055,-0.17 H 0.234 L 0.089,-0.275 0.145,-0.445 0,-0.34 l -0.145,-0.105 0.056,0.17 -0.145,0.105 h 0.179 z"
         style="fill:#ffffff;fill-opacity:1;fill-rule:nonzero;stroke:none"
         id="path29314"
         inkscape:connector-curvature="0" />
    </g>
    <g
       id="g29316"
       transform="matrix(0.35277777,0,0,-0.35277777,44.923949,100.99335)">
      <path
         d="M 0,0 0.055,-0.17 H 0.234 L 0.089,-0.275 0.145,-0.445 0,-0.34 l -0.145,-0.105 0.055,0.17 -0.144,0.105 h 0.178 z"
         style="fill:#ffffff;fill-opacity:1;fill-rule:nonzero;stroke:none"
         id="path29318"
         inkscape:connector-curvature="0" />
    </g>
    <g
       id="g29320"
       transform="matrix(0.35277777,0,0,-0.35277777,44.919117,101.52012)">
      <path
         d="M 0,0 0.056,-0.17 H 0.234 L 0.089,-0.275 0.145,-0.445 0,-0.34 l -0.145,-0.105 0.056,0.17 -0.145,0.105 h 0.179 z"
         style="fill:#ffffff;fill-opacity:1;fill-rule:nonzero;stroke:none"
         id="path29322"
         inkscape:connector-curvature="0" />
    </g>
    <g
       id="g29324"
       transform="matrix(0.35277777,0,0,-0.35277777,44.456096,99.907108)">
      <path
         d="M 0,0 0.055,-0.17 H 0.234 L 0.089,-0.275 0.145,-0.445 0,-0.34 l -0.145,-0.105 0.055,0.17 -0.144,0.105 h 0.178 z"
         style="fill:#ffffff;fill-opacity:1;fill-rule:nonzero;stroke:none"
         id="path29326"
         inkscape:connector-curvature="0" />
    </g>
    <g
       id="g29328"
       transform="matrix(0.35277777,0,0,-0.35277777,44.456096,100.45074)">
      <path
         d="M 0,0 0.055,-0.17 H 0.234 L 0.089,-0.275 0.145,-0.445 0,-0.341 l -0.145,-0.104 0.055,0.17 -0.144,0.105 h 0.178 z"
         style="fill:#ffffff;fill-opacity:1;fill-rule:nonzero;stroke:none"
         id="path29330"
         inkscape:connector-curvature="0" />
    </g>
    <g
       id="g29332"
       transform="matrix(0.35277777,0,0,-0.35277777,44.451257,100.98407)">
      <path
         d="M 0,0 0.056,-0.17 H 0.234 L 0.089,-0.275 0.145,-0.445 0,-0.34 l -0.145,-0.105 0.056,0.17 -0.145,0.105 h 0.179 z"
         style="fill:#ffffff;fill-opacity:1;fill-rule:nonzero;stroke:none"
         id="path29334"
         inkscape:connector-curvature="0" />
    </g>
    <g
       id="g29336"
       transform="matrix(0.35277777,0,0,-0.35277777,44.446817,101.51081)">
      <path
         d="M 0,0 0.055,-0.17 H 0.234 L 0.089,-0.275 0.145,-0.445 0,-0.34 l -0.146,-0.105 0.056,0.17 -0.144,0.105 h 0.178 z"
         style="fill:#ffffff;fill-opacity:1;fill-rule:nonzero;stroke:none"
         id="path29338"
         inkscape:connector-curvature="0" />
    </g>
    <g
       id="g29340"
       transform="matrix(0.35277777,0,0,-0.35277777,46.577237,99.677308)">
      <path
         d="M 0,0 0.055,-0.17 H 0.234 L 0.089,-0.275 0.145,-0.445 0,-0.34 l -0.145,-0.105 0.055,0.17 -0.144,0.105 h 0.178 z"
         style="fill:#ffffff;fill-opacity:1;fill-rule:nonzero;stroke:none"
         id="path29342"
         inkscape:connector-curvature="0" />
    </g>
    <g
       id="g29344"
       transform="matrix(0.35277777,0,0,-0.35277777,46.577237,100.20408)">
      <path
         d="M 0,0 0.055,-0.17 H 0.234 L 0.089,-0.275 0.145,-0.445 0,-0.341 l -0.145,-0.104 0.055,0.17 -0.144,0.105 h 0.178 z"
         style="fill:#ffffff;fill-opacity:1;fill-rule:nonzero;stroke:none"
         id="path29346"
         inkscape:connector-curvature="0" />
    </g>
    <g
       id="g29348"
       transform="matrix(0.35277777,0,0,-0.35277777,46.577237,100.7312)">
      <path
         d="M 0,0 0.055,-0.17 H 0.234 L 0.089,-0.275 0.145,-0.445 0,-0.34 l -0.145,-0.105 0.055,0.17 -0.144,0.105 h 0.178 z"
         style="fill:#ffffff;fill-opacity:1;fill-rule:nonzero;stroke:none"
         id="path29350"
         inkscape:connector-curvature="0" />
    </g>
    <g
       id="g29352"
       transform="matrix(0.35277777,0,0,-0.35277777,46.577237,101.27)">
      <path
         d="M 0,0 0.055,-0.171 H 0.234 L 0.089,-0.275 0.145,-0.446 0,-0.341 l -0.145,-0.105 0.055,0.171 -0.144,0.104 h 0.178 z"
         style="fill:#ffffff;fill-opacity:1;fill-rule:nonzero;stroke:none"
         id="path29354"
         inkscape:connector-curvature="0" />
    </g>
    <g
       id="g29356"
       transform="matrix(0.35277777,0,0,-0.35277777,46.577237,101.7847)">
      <path
         d="M 0,0 0.055,-0.17 H 0.234 L 0.089,-0.275 0.145,-0.445 0,-0.34 l -0.145,-0.105 0.055,0.17 -0.144,0.105 h 0.178 z"
         style="fill:#ffffff;fill-opacity:1;fill-rule:nonzero;stroke:none"
         id="path29358"
         inkscape:connector-curvature="0" />
    </g>
  </g>
</svg>
