<?xml version="1.0" encoding="UTF-8" standalone="no"?>
<!-- Created with Inkscape (http://www.inkscape.org/) -->

<svg
   xmlns:dc="http://purl.org/dc/elements/1.1/"
   xmlns:cc="http://creativecommons.org/ns#"
   xmlns:rdf="http://www.w3.org/1999/02/22-rdf-syntax-ns#"
   xmlns:svg="http://www.w3.org/2000/svg"
   xmlns="http://www.w3.org/2000/svg"
   xmlns:sodipodi="http://sodipodi.sourceforge.net/DTD/sodipodi-0.dtd"
   xmlns:inkscape="http://www.inkscape.org/namespaces/inkscape"
   width="7.084836mm"
   height="4.7328668mm"
   viewBox="0 0 7.0848359 4.7328668"
   version="1.1"
   id="svg8"
   inkscape:version="0.92.4 (5da689c313, 2019-01-14)"
   sodipodi:docname="uruguay.svg">
  <defs
     id="defs2">
    <radialGradient
       id="radialGradient37584"
       spreadMethod="pad"
       gradientTransform="matrix(0.975099,0,0,0.975099,159.64062,365.06934)"
       gradientUnits="userSpaceOnUse"
       r="1"
       cy="0"
       cx="0"
       fy="0"
       fx="0">
      <stop
         id="stop37578"
         offset="0"
         style="stop-opacity:1;stop-color:#852c26" />
      <stop
         id="stop37580"
         offset="0.0015476"
         style="stop-opacity:1;stop-color:#852c26" />
      <stop
         id="stop37582"
         offset="1"
         style="stop-opacity:1;stop-color:#451617" />
    </radialGradient>
    <clipPath
       id="clipPath37532"
       clipPathUnits="userSpaceOnUse">
      <path
         inkscape:connector-curvature="0"
         id="path37530"
         d="M 0,400 H 400 V 0 H 0 Z" />
    </clipPath>
    <radialGradient
       id="radialGradient37522"
       spreadMethod="pad"
       gradientTransform="matrix(-0.2637247,0,0,0.2637247,159.68652,365.88965)"
       gradientUnits="userSpaceOnUse"
       r="1"
       cy="0"
       cx="0"
       fy="0"
       fx="0">
      <stop
         id="stop37516"
         offset="0"
         style="stop-opacity:1;stop-color:#852c26" />
      <stop
         id="stop37518"
         offset="0.0015476"
         style="stop-opacity:1;stop-color:#852c26" />
      <stop
         id="stop37520"
         offset="1"
         style="stop-opacity:1;stop-color:#451617" />
    </radialGradient>
    <clipPath
       id="clipPath37354"
       clipPathUnits="userSpaceOnUse">
      <path
         inkscape:connector-curvature="0"
         id="path37352"
         d="M 0,400 H 400 V 0 H 0 Z" />
    </clipPath>
    <radialGradient
       id="radialGradient37344"
       spreadMethod="pad"
       gradientTransform="matrix(0.975099,0,0,0.975099,155.76025,365.06934)"
       gradientUnits="userSpaceOnUse"
       r="1"
       cy="0"
       cx="0"
       fy="0"
       fx="0">
      <stop
         id="stop37338"
         offset="0"
         style="stop-opacity:1;stop-color:#eee54f" />
      <stop
         id="stop37340"
         offset="0.9977451"
         style="stop-opacity:1;stop-color:#e04a20" />
      <stop
         id="stop37342"
         offset="1"
         style="stop-opacity:1;stop-color:#e04a20" />
    </radialGradient>
    <clipPath
       id="clipPath37272"
       clipPathUnits="userSpaceOnUse">
      <path
         inkscape:connector-curvature="0"
         id="path37270"
         d="M 0,400 H 400 V 0 H 0 Z" />
    </clipPath>
    <radialGradient
       id="radialGradient37262"
       spreadMethod="pad"
       gradientTransform="matrix(0.2636045,0,0,0.2636045,155.71484,365.89062)"
       gradientUnits="userSpaceOnUse"
       r="1"
       cy="0"
       cx="0"
       fy="0"
       fx="0">
      <stop
         id="stop37256"
         offset="0"
         style="stop-opacity:1;stop-color:#eee54f" />
      <stop
         id="stop37258"
         offset="0.9977451"
         style="stop-opacity:1;stop-color:#e04a20" />
      <stop
         id="stop37260"
         offset="1"
         style="stop-opacity:1;stop-color:#e04a20" />
    </radialGradient>
    <radialGradient
       id="radialGradient5422"
       spreadMethod="pad"
       gradientTransform="matrix(0.1021146,-0.0756367,0.070541,0.1077099,271.97559,176.14746)"
       gradientUnits="userSpaceOnUse"
       r="1"
       cy="0"
       cx="0"
       fy="0"
       fx="0">
      <stop
         id="stop5416"
         offset="0"
         style="stop-opacity:1;stop-color:#ffffff" />
      <stop
         id="stop5418"
         offset="0.00091915"
         style="stop-opacity:1;stop-color:#ffffff" />
      <stop
         id="stop5420"
         offset="1"
         style="stop-opacity:1;stop-color:#e63e6e" />
    </radialGradient>
    <clipPath
       id="clipPath5374"
       clipPathUnits="userSpaceOnUse">
      <path
         inkscape:connector-curvature="0"
         id="path5372"
         d="M 0,400 H 400 V 0 H 0 Z" />
    </clipPath>
    <radialGradient
       id="radialGradient5364"
       spreadMethod="pad"
       gradientTransform="matrix(0.1318831,-9.013e-4,-1.001e-4,0.1311822,269.56445,176.4248)"
       gradientUnits="userSpaceOnUse"
       r="1"
       cy="0"
       cx="0"
       fy="0"
       fx="0">
      <stop
         id="stop5358"
         offset="0"
         style="stop-opacity:1;stop-color:#ffffff" />
      <stop
         id="stop5360"
         offset="0.00091915"
         style="stop-opacity:1;stop-color:#ffffff" />
      <stop
         id="stop5362"
         offset="1"
         style="stop-opacity:1;stop-color:#e63e6e" />
    </radialGradient>
    <clipPath
       id="clipPath5316"
       clipPathUnits="userSpaceOnUse">
      <path
         inkscape:connector-curvature="0"
         id="path5314"
         d="M 0,400 H 400 V 0 H 0 Z" />
    </clipPath>
    <radialGradient
       id="radialGradient5306"
       spreadMethod="pad"
       gradientTransform="matrix(0.1105445,0.0935377,-0.0930375,0.1086438,268.6875,176.89062)"
       gradientUnits="userSpaceOnUse"
       r="1"
       cy="0"
       cx="0"
       fy="0"
       fx="0">
      <stop
         id="stop5300"
         offset="0"
         style="stop-opacity:1;stop-color:#ffffff" />
      <stop
         id="stop5302"
         offset="0.00091915"
         style="stop-opacity:1;stop-color:#ffffff" />
      <stop
         id="stop5304"
         offset="1"
         style="stop-opacity:1;stop-color:#e63e6e" />
    </radialGradient>
  </defs>
  <sodipodi:namedview
     id="base"
     pagecolor="#ffffff"
     bordercolor="#666666"
     borderopacity="1.0"
     inkscape:pageopacity="0.0"
     inkscape:pageshadow="2"
     inkscape:zoom="11.2"
     inkscape:cx="24.776166"
     inkscape:cy="11.789445"
     inkscape:document-units="mm"
     inkscape:current-layer="layer1"
     showgrid="false"
     inkscape:window-width="954"
     inkscape:window-height="630"
     inkscape:window-x="-3"
     inkscape:window-y="6"
     inkscape:window-maximized="0" />
  <metadata
     id="metadata5">
    <rdf:RDF>
      <cc:Work
         rdf:about="">
        <dc:format>image/svg+xml</dc:format>
        <dc:type
           rdf:resource="http://purl.org/dc/dcmitype/StillImage" />
        <dc:title></dc:title>
      </cc:Work>
    </rdf:RDF>
  </metadata>
  <g
     inkscape:label="Layer 1"
     inkscape:groupmode="layer"
     id="layer1"
     transform="translate(-43.428294,-100.05093)">
    <g
       id="g33296"
       transform="matrix(0.35277777,0,0,-0.35277777,43.457575,104.75452)">
      <path
         d="M 0,0 H 19.917 L 19.916,13.251 H 0 Z M 19.958,-0.042 V 0 Z M -0.083,-0.083 V 13.333 H 20 V -0.042 -0.083 Z"
         style="fill:#221f21;fill-opacity:1;fill-rule:nonzero;stroke:none"
         id="path33298"
         inkscape:connector-curvature="0" />
    </g>
    <path
       d="m 43.443037,103.72371 h 7.05556 v -0.52211 h -7.05556 z"
       style="fill:#ffffff;fill-opacity:1;fill-rule:nonzero;stroke:none;stroke-width:0.35277778"
       id="path33300"
       inkscape:connector-curvature="0" />
    <path
       d="m 43.443037,104.76899 h 7.05556 v -0.52211 h -7.05556 z"
       style="fill:#ffffff;fill-opacity:1;fill-rule:nonzero;stroke:none;stroke-width:0.35277778"
       id="path33302"
       inkscape:connector-curvature="0" />
    <path
       d="m 43.443037,104.24688 h 7.05556 v -0.52282 h -7.05556 z"
       style="fill:#2945a1;fill-opacity:1;fill-rule:nonzero;stroke:none;stroke-width:0.35277778"
       id="path33304"
       inkscape:connector-curvature="0" />
    <path
       d="m 43.443037,103.2016 h 7.05556 v -0.52282 h -7.05556 z"
       style="fill:#2945a1;fill-opacity:1;fill-rule:nonzero;stroke:none;stroke-width:0.35277778"
       id="path33306"
       inkscape:connector-curvature="0" />
    <path
       d="m 43.443037,102.15632 h 7.05556 v -0.52282 h -7.05556 z"
       style="fill:#2945a1;fill-opacity:1;fill-rule:nonzero;stroke:none;stroke-width:0.35277778"
       id="path33308"
       inkscape:connector-curvature="0" />
    <path
       d="m 43.443037,101.63315 h 7.05556 v -0.52212 h -7.05556 z"
       style="fill:#ffffff;fill-opacity:1;fill-rule:nonzero;stroke:none;stroke-width:0.35277778"
       id="path33310"
       inkscape:connector-curvature="0" />
    <path
       d="m 50.498597,100.58787 h -7.05556 v 0.52281 h 7.05556 z"
       style="fill:#2945a1;fill-opacity:1;fill-rule:nonzero;stroke:none;stroke-width:0.35277778"
       id="path33312"
       inkscape:connector-curvature="0" />
    <path
       d="m 43.443037,102.67843 h 7.05556 v -0.52211 h -7.05556 z"
       style="fill:#ffffff;fill-opacity:1;fill-rule:nonzero;stroke:none;stroke-width:0.35277778"
       id="path33314"
       inkscape:connector-curvature="0" />
    <path
       d="m 50.498597,100.0654 h -7.05556 v 0.52247 h 7.05556 z"
       style="fill:#ffffff;fill-opacity:1;fill-rule:nonzero;stroke:none;stroke-width:0.35277778"
       id="path33316"
       inkscape:connector-curvature="0" />
    <path
       d="m 46.056067,102.67843 h -2.61303 v -2.61303 h 2.61303 z"
       style="fill:#ffffff;fill-opacity:1;fill-rule:nonzero;stroke:none;stroke-width:0.35277778"
       id="path33318"
       inkscape:connector-curvature="0" />
    <g
       id="g33320"
       transform="matrix(0.35277777,0,0,-0.35277777,44.721926,100.95183)">
      <path
         d="M 0,0 C 1.045,0.65 0.467,1.118 1.188,1.3 0.684,0.83 1.464,0.652 0.686,-0.252 L 0.312,-0.711 Z"
         style="fill:#ecc028;fill-opacity:1;fill-rule:nonzero;stroke:none"
         id="path33322"
         inkscape:connector-curvature="0" />
    </g>
    <g
       id="g33324"
       transform="matrix(0.35277777,0,0,-0.35277777,44.721926,100.95183)">
      <path
         d="M 0,0 0.009,-0.014 C 0.534,0.312 0.655,0.598 0.731,0.82 0.81,1.043 0.837,1.192 1.192,1.283 L 1.188,1.3 1.177,1.312 C 1.029,1.175 0.987,1.058 0.987,0.942 0.988,0.812 1.038,0.687 1.037,0.527 1.037,0.341 0.971,0.105 0.673,-0.241 L 0.316,-0.68 0.015,0.007 0,0 0.009,-0.014 0,0 -0.015,-0.007 0.297,-0.718 0.308,-0.742 0.698,-0.263 C 1,0.087 1.071,0.332 1.071,0.527 1.07,0.693 1.021,0.82 1.021,0.942 c 0,0.107 0.036,0.212 0.178,0.346 L 1.247,1.332 1.184,1.316 C 0.818,1.226 0.774,1.05 0.7,0.831 0.624,0.611 0.511,0.338 -0.009,0.015 l -0.012,-0.008 0.006,-0.014 z"
         style="fill:#0e0f0e;fill-opacity:1;fill-rule:nonzero;stroke:none"
         id="path33326"
         inkscape:connector-curvature="0" />
    </g>
    <g
       id="g33328"
       transform="matrix(0.35277777,0,0,-0.35277777,44.824944,101.13337)">
      <path
         d="M 0,0 C 0.684,0.531 0.44,1.59 0.903,1.8 L 0.889,1.829 C 0.394,1.586 0.65,0.537 -0.021,0.026 L 0,-0.001 Z"
         style="fill:#0e0f0e;fill-opacity:1;fill-rule:nonzero;stroke:none"
         id="path33330"
         inkscape:connector-curvature="0" />
    </g>
    <g
       id="g33332"
       transform="matrix(0.35277777,0,0,-0.35277777,45.025604,101.05448)">
      <path
         d="M 0,0 C 1.2,-0.273 1.12,0.466 1.76,0.086 1.071,0.108 1.5,-0.567 0.31,-0.661 l -0.589,-0.064 z"
         style="fill:#ecc028;fill-opacity:1;fill-rule:nonzero;stroke:none"
         id="path33334"
         inkscape:connector-curvature="0" />
    </g>
    <g
       id="g33336"
       transform="matrix(0.35277777,0,0,-0.35277777,45.025604,101.05448)">
      <path
         d="m 0,0 -0.004,-0.017 c 0.197,-0.044 0.359,-0.062 0.497,-0.062 0.528,0.001 0.685,0.263 0.937,0.26 0.086,0 0.186,-0.03 0.321,-0.11 L 1.76,0.086 V 0.103 L 1.727,0.104 C 1.398,0.104 1.327,-0.07 1.203,-0.243 1.077,-0.415 0.891,-0.598 0.308,-0.645 L -0.253,-0.705 0.016,-0.006 0,0 -0.004,-0.017 0,0 l -0.016,0.006 -0.278,-0.725 -0.01,-0.025 0.616,0.066 c 0.587,0.046 0.789,0.238 0.918,0.415 0.131,0.179 0.183,0.331 0.497,0.333 L 1.759,0.069 1.825,0.067 1.768,0.101 C 1.63,0.183 1.523,0.214 1.43,0.214 1.152,0.211 1.009,-0.046 0.493,-0.046 c -0.135,0 -0.295,0.018 -0.489,0.063 L -0.01,0.02 -0.016,0.006 Z"
         style="fill:#0e0f0e;fill-opacity:1;fill-rule:nonzero;stroke:none"
         id="path33338"
         inkscape:connector-curvature="0" />
    </g>
    <g
       id="g33340"
       transform="matrix(0.35277777,0,0,-0.35277777,44.970814,101.25603)">
      <path
         d="m 0,0 0.14,-0.009 c 0.71,0.002 1.217,0.677 1.641,0.672 L 1.909,0.642 1.921,0.673 1.781,0.697 C 1.327,0.692 0.831,0.022 0.14,0.024 L 0.004,0.033 Z"
         style="fill:#0e0f0e;fill-opacity:1;fill-rule:nonzero;stroke:none"
         id="path33342"
         inkscape:connector-curvature="0" />
    </g>
    <g
       id="g33344"
       transform="matrix(0.35277777,0,0,-0.35277777,45.169254,101.34457)">
      <path
         d="m 0,0 c 0.66,-1.039 1.123,-0.458 1.31,-1.178 -0.474,0.5 -0.644,-0.281 -1.556,0.491 l -0.462,0.369 z"
         style="fill:#ecc028;fill-opacity:1;fill-rule:nonzero;stroke:none"
         id="path33346"
         inkscape:connector-curvature="0" />
    </g>
    <g
       id="g33348"
       transform="matrix(0.35277777,0,0,-0.35277777,45.169254,101.34457)">
      <path
         d="M 0,0 -0.014,-0.009 C 0.317,-0.531 0.604,-0.649 0.827,-0.725 1.05,-0.801 1.2,-0.827 1.294,-1.182 l 0.016,0.004 0.012,0.012 c -0.136,0.145 -0.253,0.187 -0.367,0.186 -0.134,0 -0.262,-0.053 -0.425,-0.053 -0.185,0 -0.42,0.066 -0.765,0.358 L -0.676,-0.322 0.007,-0.016 0,0 -0.014,-0.009 0,0 -0.007,0.016 -0.715,-0.303 -0.74,-0.314 -0.256,-0.7 c 0.348,-0.295 0.592,-0.366 0.786,-0.366 0.171,0 0.3,0.053 0.425,0.052 0.106,0 0.21,-0.035 0.343,-0.175 L 1.343,-1.236 1.326,-1.174 C 1.233,-0.809 1.057,-0.766 0.837,-0.692 0.617,-0.618 0.343,-0.508 0.014,0.009 L 0.006,0.021 -0.007,0.016 Z"
         style="fill:#0e0f0e;fill-opacity:1;fill-rule:nonzero;stroke:none"
         id="path33350"
         inkscape:connector-curvature="0" />
    </g>
    <g
       id="g33352"
       transform="matrix(0.35277777,0,0,-0.35277777,44.988554,101.44896)">
      <path
         d="m 0,0 c 0.537,-0.68 1.594,-0.426 1.807,-0.889 l 0.03,0.014 C 1.59,-0.381 0.542,-0.646 0.026,0.021 L 0,-0.001 Z"
         style="fill:#0e0f0e;fill-opacity:1;fill-rule:nonzero;stroke:none"
         id="path33354"
         inkscape:connector-curvature="0" />
    </g>
    <g
       id="g33356"
       transform="matrix(0.35277777,0,0,-0.35277777,45.066596,101.64567)">
      <path
         d="m 0,0 c -0.264,-1.203 0.475,-1.115 0.101,-1.759 0.016,0.689 -0.656,0.255 -0.76,1.444 l -0.068,0.588 z"
         style="fill:#ecc028;fill-opacity:1;fill-rule:nonzero;stroke:none"
         id="path33358"
         inkscape:connector-curvature="0" />
    </g>
    <g
       id="g33360"
       transform="matrix(0.35277777,0,0,-0.35277777,45.066596,101.64567)">
      <path
         d="m 0,0 -0.016,0.004 c -0.042,-0.191 -0.059,-0.351 -0.059,-0.485 0.001,-0.541 0.27,-0.695 0.267,-0.951 0,-0.085 -0.028,-0.185 -0.106,-0.318 l 0.015,-0.009 h 0.017 v 0.025 c 0.001,0.334 -0.175,0.405 -0.348,0.528 -0.175,0.125 -0.36,0.308 -0.412,0.893 L -0.707,0.248 -0.006,-0.016 0,0 -0.016,0.004 0,0 l 0.006,0.016 -0.727,0.273 -0.025,0.01 0.071,-0.616 c 0.05,-0.59 0.245,-0.789 0.425,-0.916 0.18,-0.13 0.333,-0.182 0.334,-0.501 v -0.025 l -0.001,-0.064 0.032,0.055 c 0.08,0.137 0.111,0.244 0.111,0.336 -0.003,0.283 -0.268,0.422 -0.268,0.951 0,0.132 0.017,0.289 0.058,0.477 L 0.02,0.011 0.006,0.016 Z"
         style="fill:#0e0f0e;fill-opacity:1;fill-rule:nonzero;stroke:none"
         id="path33362"
         inkscape:connector-curvature="0" />
    </g>
    <g
       id="g33364"
       transform="matrix(0.35277777,0,0,-0.35277777,44.864735,101.59261)">
      <path
         d="m 0,0 -0.008,-0.13 c 0.003,-0.718 0.691,-1.222 0.686,-1.649 l -0.02,-0.124 0.031,-0.012 0.022,0.136 C 0.708,-1.321 0.023,-0.828 0.026,-0.13 l 0.007,0.126 z"
         style="fill:#0e0f0e;fill-opacity:1;fill-rule:nonzero;stroke:none"
         id="path33366"
         inkscape:connector-curvature="0" />
    </g>
    <g
       id="g33368"
       transform="matrix(0.35277777,0,0,-0.35277777,44.784084,101.78555)">
      <path
         d="m 0,0 c -1.034,-0.668 -0.448,-1.126 -1.167,-1.319 0.497,0.477 -0.287,0.641 0.477,1.559 l 0.366,0.466 z"
         style="fill:#ecc028;fill-opacity:1;fill-rule:nonzero;stroke:none"
         id="path33370"
         inkscape:connector-curvature="0" />
    </g>
    <g
       id="g33372"
       transform="matrix(0.35277777,0,0,-0.35277777,44.784084,101.78555)">
      <path
         d="m 0,0 -0.009,0.014 c -0.52,-0.335 -0.636,-0.622 -0.709,-0.846 -0.074,-0.225 -0.099,-0.374 -0.453,-0.472 l 0.004,-0.015 0.012,-0.012 c 0.142,0.136 0.183,0.251 0.183,0.364 -0.001,0.137 -0.057,0.267 -0.057,0.435 0,0.184 0.066,0.418 0.352,0.761 L -0.328,0.674 -0.015,-0.007 0,0 -0.009,0.014 0,0 0.015,0.007 -0.309,0.713 -0.32,0.738 -0.703,0.251 c -0.289,-0.347 -0.359,-0.59 -0.359,-0.783 0,-0.176 0.057,-0.308 0.057,-0.435 -0.001,-0.104 -0.036,-0.208 -0.173,-0.341 l -0.047,-0.045 0.063,0.018 c 0.364,0.096 0.406,0.272 0.476,0.492 0.073,0.221 0.181,0.496 0.695,0.829 l 0.012,0.008 -0.006,0.013 z"
         style="fill:#0e0f0e;fill-opacity:1;fill-rule:nonzero;stroke:none"
         id="path33374"
         inkscape:connector-curvature="0" />
    </g>
    <g
       id="g33376"
       transform="matrix(0.35277777,0,0,-0.35277777,44.677836,101.6057)">
      <path
         d="m 0,0 c -0.675,-0.542 -0.413,-1.598 -0.873,-1.814 l 0.015,-0.03 c 0.49,0.25 0.217,1.296 0.879,1.819 z"
         style="fill:#0e0f0e;fill-opacity:1;fill-rule:nonzero;stroke:none"
         id="path33378"
         inkscape:connector-curvature="0" />
    </g>
    <g
       id="g33380"
       transform="matrix(0.35277777,0,0,-0.35277777,44.478514,101.68839)">
      <path
         d="m 0,0 c -1.205,0.254 -1.111,-0.483 -1.758,-0.115 0.69,-0.01 0.249,0.658 1.438,0.771 l 0.587,0.073 z"
         style="fill:#ecc028;fill-opacity:1;fill-rule:nonzero;stroke:none"
         id="path33382"
         inkscape:connector-curvature="0" />
    </g>
    <g
       id="g33384"
       transform="matrix(0.35277777,0,0,-0.35277777,44.478514,101.68839)">
      <path
         d="m 0,0 0.003,0.017 c -0.185,0.039 -0.339,0.054 -0.472,0.054 -0.553,-10e-4 -0.704,-0.278 -0.964,-0.274 -0.085,0 -0.184,0.027 -0.317,0.102 l -0.008,-0.014 v -0.017 h 0.015 c 0.341,-0.002 0.411,0.175 0.533,0.351 0.124,0.176 0.304,0.364 0.891,0.421 L 0.242,0.71 -0.016,0.006 0,0 0.003,0.017 0,0 0.016,-0.006 0.282,0.724 0.292,0.749 -0.322,0.673 C -0.915,0.617 -1.112,0.42 -1.237,0.238 -1.365,0.056 -1.416,-0.097 -1.743,-0.099 h -0.015 l -0.064,0.001 0.056,-0.032 c 0.135,-0.077 0.241,-0.107 0.333,-0.107 0.287,0.004 0.423,0.276 0.964,0.275 0.13,0 0.282,-0.016 0.466,-0.055 l 0.014,-0.003 0.005,0.014 z"
         style="fill:#0e0f0e;fill-opacity:1;fill-rule:nonzero;stroke:none"
         id="path33386"
         inkscape:connector-curvature="0" />
    </g>
    <g
       id="g33388"
       transform="matrix(0.35277777,0,0,-0.35277777,44.529844,101.48583)">
      <path
         d="m 0,0 -0.121,0.007 c -0.724,-0.002 -1.226,-0.704 -1.656,-0.7 l -0.121,0.019 -0.011,-0.031 0.132,-0.022 c 0.461,0.005 0.952,0.703 1.656,0.701 l 0.117,-0.007 z"
         style="fill:#0e0f0e;fill-opacity:1;fill-rule:nonzero;stroke:none"
         id="path33390"
         inkscape:connector-curvature="0" />
    </g>
    <g
       id="g33392"
       transform="matrix(0.35277777,0,0,-0.35277777,44.330025,101.40038)">
      <path
         d="M 0,0 C -0.677,1.027 -1.13,0.438 -1.33,1.155 -0.848,0.663 -0.69,1.447 0.234,0.691 L 0.703,0.329 Z"
         style="fill:#ecc028;fill-opacity:1;fill-rule:nonzero;stroke:none"
         id="path33394"
         inkscape:connector-curvature="0" />
    </g>
    <g
       id="g33396"
       transform="matrix(0.35277777,0,0,-0.35277777,44.330025,101.40038)">
      <path
         d="M 0,0 0.014,0.009 C -0.326,0.525 -0.614,0.64 -0.839,0.71 -1.063,0.783 -1.213,0.807 -1.314,1.16 L -1.33,1.155 -1.342,1.144 c 0.136,-0.139 0.251,-0.181 0.363,-0.18 0.14,0 0.271,0.06 0.444,0.06 0.183,-0.001 0.417,-0.066 0.759,-0.345 L 0.671,0.333 -0.007,0.015 0,0 0.014,0.009 0,0 0.007,-0.015 0.709,0.314 0.734,0.325 0.245,0.704 C -0.101,0.987 -0.343,1.058 -0.535,1.058 -0.716,1.057 -0.85,0.996 -0.979,0.997 c -0.104,0 -0.207,0.035 -0.339,0.17 L -1.363,1.213 -1.346,1.15 c 0.099,-0.363 0.276,-0.403 0.497,-0.471 0.222,-0.072 0.498,-0.177 0.835,-0.688 l 0.008,-0.012 0.013,0.006 z"
         style="fill:#0e0f0e;fill-opacity:1;fill-rule:nonzero;stroke:none"
         id="path33398"
         inkscape:connector-curvature="0" />
    </g>
    <g
       id="g33400"
       transform="matrix(0.35277777,0,0,-0.35277777,44.509164,101.29254)">
      <path
         d="m 0,0 c -0.549,0.669 -1.602,0.398 -1.823,0.857 l -0.03,-0.015 c 0.256,-0.488 1.299,-0.206 1.828,-0.863 z"
         style="fill:#0e0f0e;fill-opacity:1;fill-rule:nonzero;stroke:none"
         id="path33402"
         inkscape:connector-curvature="0" />
    </g>
    <g
       id="g33404"
       transform="matrix(0.35277777,0,0,-0.35277777,44.432546,101.10408)">
      <path
         d="M 0,0 C 0.244,1.207 -0.494,1.107 -0.131,1.757 -0.135,1.068 0.529,1.514 0.654,0.326 L 0.731,-0.26 Z"
         style="fill:#ecc028;fill-opacity:1;fill-rule:nonzero;stroke:none"
         id="path33406"
         inkscape:connector-curvature="0" />
    </g>
    <g
       id="g33408"
       transform="matrix(0.35277777,0,0,-0.35277777,44.432546,101.10408)">
      <path
         d="m 0,0 0.016,-0.003 c 0.036,0.178 0.051,0.329 0.051,0.457 -0.001,0.568 -0.287,0.717 -0.284,0.981 0,0.084 0.027,0.182 0.101,0.314 L -0.131,1.757 H -0.147 V 1.751 C -0.149,1.404 0.027,1.334 0.205,1.214 0.383,1.092 0.574,0.914 0.637,0.324 L 0.711,-0.235 0.005,0.016 0,0 0.016,-0.003 0,0 -0.005,-0.016 0.726,-0.275 0.751,-0.284 0.67,0.328 C 0.608,0.923 0.407,1.117 0.224,1.241 0.041,1.368 -0.113,1.418 -0.114,1.751 V 1.757 L -0.113,1.822 -0.146,1.765 C -0.221,1.631 -0.25,1.526 -0.25,1.435 -0.247,1.143 0.035,1.011 0.034,0.454 0.034,0.328 0.019,0.18 -0.016,0.003 l -0.003,-0.014 0.014,-0.005 z"
         style="fill:#0e0f0e;fill-opacity:1;fill-rule:nonzero;stroke:none"
         id="path33410"
         inkscape:connector-curvature="0" />
    </g>
    <g
       id="g33412"
       transform="matrix(0.35277777,0,0,-0.35277777,44.635465,101.15369)">
      <path
         d="M 0,0 0.005,0.111 C 0.003,0.843 -0.713,1.342 -0.709,1.774 L -0.69,1.893 -0.722,1.902 -0.742,1.774 C -0.738,1.312 -0.026,0.823 -0.028,0.111 L -0.033,0.004 Z"
         style="fill:#0e0f0e;fill-opacity:1;fill-rule:nonzero;stroke:none"
         id="path33414"
         inkscape:connector-curvature="0" />
    </g>
    <g
       id="g33416"
       transform="matrix(0.35277777,0,0,-0.35277777,44.867134,101.08825)">
      <path
         d="M 0,0 1.54,1.062 0.472,-0.475 2.317,-0.814 0.472,-1.142 1.541,-2.686 0,-1.611 l -0.333,-1.844 -0.334,1.846 -1.54,-1.063 1.067,1.536 -1.844,0.341 1.844,0.327 -1.068,1.544 1.541,-1.074 0.333,1.844 z"
         style="fill:#ecc028;fill-opacity:1;fill-rule:nonzero;stroke:none"
         id="path33418"
         inkscape:connector-curvature="0" />
    </g>
    <g
       id="g33420"
       transform="matrix(0.35277777,0,0,-0.35277777,44.867134,101.08825)">
      <path
         d="m 0,0 0.009,-0.014 1.465,1.011 -1.031,-1.483 1.78,-0.328 -1.78,-0.316 1.032,-1.489 -1.487,1.036 -0.321,-1.778 -0.323,1.78 -1.485,-1.025 1.03,1.482 -1.78,0.329 1.78,0.316 -1.031,1.489 1.486,-1.036 0.322,1.778 0.322,-1.78 0.021,0.014 L 0,0 0.017,0.003 -0.334,1.939 -0.679,0.03 l -1.595,1.113 1.106,-1.599 -1.909,-0.339 1.909,-0.352 -1.105,-1.59 1.594,1.099 0.346,-1.911 0.345,1.909 1.595,-1.113 -1.107,1.6 1.912,0.339 L 0.5,-0.463 1.606,1.128 -0.009,0.014 0,0 0.017,0.003 Z"
         style="fill:#0e0f0e;fill-opacity:1;fill-rule:nonzero;stroke:none"
         id="path33422"
         inkscape:connector-curvature="0" />
    </g>
    <g
       id="g33424"
       transform="matrix(0.35277777,0,0,-0.35277777,44.742426,100.4409)">
      <path
         d="M 0,0 0.004,-5.273 H 0.037 L 0.033,0"
         style="fill:#0e0f0e;fill-opacity:1;fill-rule:nonzero;stroke:none"
         id="path33426"
         inkscape:connector-curvature="0" />
    </g>
    <g
       id="g33428"
       transform="matrix(0.35277777,0,0,-0.35277777,44.083894,100.71271)">
      <path
         d="m 0,0 3.75,-3.762 0.023,0.024 -3.75,3.761"
         style="fill:#0e0f0e;fill-opacity:1;fill-rule:nonzero;stroke:none"
         id="path33430"
         inkscape:connector-curvature="0" />
    </g>
    <g
       id="g33432"
       transform="matrix(0.35277777,0,0,-0.35277777,43.814304,101.37452)">
      <path
         d="M 0,0 5.301,-0.02 V 0.014 L 0,0.033"
         style="fill:#0e0f0e;fill-opacity:1;fill-rule:nonzero;stroke:none"
         id="path33434"
         inkscape:connector-curvature="0" />
    </g>
    <g
       id="g33436"
       transform="matrix(0.35277777,0,0,-0.35277777,44.092675,102.03496)">
      <path
         d="M 0,0 3.735,3.722 3.712,3.745 -0.023,0.023"
         style="fill:#0e0f0e;fill-opacity:1;fill-rule:nonzero;stroke:none"
         id="path33438"
         inkscape:connector-curvature="0" />
    </g>
    <g
       id="g33440"
       transform="matrix(0.35277777,0,0,-0.35277777,45.055235,101.38109)">
      <path
         d="m 0,0 c 0,-0.48 -0.39,-0.869 -0.869,-0.869 -0.481,0 -0.869,0.389 -0.869,0.869 0,0.48 0.388,0.869 0.869,0.869 C -0.39,0.869 0,0.48 0,0"
         style="fill:#ecc028;fill-opacity:1;fill-rule:nonzero;stroke:none"
         id="path33442"
         inkscape:connector-curvature="0" />
    </g>
    <g
       id="g33444"
       transform="matrix(0.35277777,0,0,-0.35277777,45.055235,101.38109)">
      <path
         d="m 0,0 h -0.017 c -10e-4,-0.472 -0.382,-0.852 -0.852,-0.853 -0.471,0 -0.853,0.381 -0.853,0.853 0,0.472 0.382,0.853 0.853,0.853 C -0.399,0.852 -0.018,0.472 -0.017,0 H 0 0.017 c 0,0.489 -0.397,0.886 -0.886,0.886 C -1.359,0.885 -1.754,0.489 -1.755,0 c 10e-4,-0.489 0.396,-0.885 0.886,-0.886 0.489,0 0.886,0.397 0.886,0.886 z"
         style="fill:#0e0f0e;fill-opacity:1;fill-rule:nonzero;stroke:none"
         id="path33446"
         inkscape:connector-curvature="0" />
    </g>
    <g
       id="g33448"
       transform="matrix(0.35277777,0,0,-0.35277777,44.522964,101.24879)">
      <path
         d="M 0,0 0.035,-0.012 0.304,0.043 C 0.396,0.014 0.519,-0.058 0.534,-0.046 L 0.354,0.099 0.158,0.092 0,0"
         style="fill:#0e0f0e;fill-opacity:1;fill-rule:nonzero;stroke:none"
         id="path33450"
         inkscape:connector-curvature="0" />
    </g>
    <g
       id="g33452"
       transform="matrix(0.35277777,0,0,-0.35277777,44.592566,101.49719)">
      <path
         d="M 0,0 C -0.021,-0.033 -0.061,-0.126 0.012,-0.007 0.084,0.112 0.02,0.033 0,0"
         style="fill:#0e0f0e;fill-opacity:1;fill-rule:nonzero;stroke:none"
         id="path33454"
         inkscape:connector-curvature="0" />
    </g>
    <g
       id="g33456"
       transform="matrix(0.35277777,0,0,-0.35277777,44.583424,101.26841)">
      <path
         d="M 0,0 0.004,-0.146 Z"
         style="fill:#0e0f0e;fill-opacity:1;fill-rule:nonzero;stroke:none"
         id="path33458"
         inkscape:connector-curvature="0" />
    </g>
    <g
       id="g33460"
       transform="matrix(0.35277777,0,0,-0.35277777,44.658354,101.29631)">
      <path
         d="m 0,0 -0.083,-0.082 -0.107,0.061 c 0,0.041 0.044,0.102 0.14,0.1 z"
         style="fill:#0e0f0e;fill-opacity:1;fill-rule:nonzero;stroke:none"
         id="path33462"
         inkscape:connector-curvature="0" />
    </g>
    <g
       id="g33464"
       transform="matrix(0.35277777,0,0,-0.35277777,44.540705,101.28876)">
      <path
         d="M 0,0 0.244,0.08 0.428,0.027 0.292,0.035 Z"
         style="fill:#0e0f0e;fill-opacity:1;fill-rule:nonzero;stroke:none"
         id="path33466"
         inkscape:connector-curvature="0" />
    </g>
    <g
       id="g33468"
       transform="matrix(0.35277777,0,0,-0.35277777,44.550515,101.29839)">
      <path
         d="M 0,0 0.162,-0.07 0.369,-0.05 0.207,-0.102 Z"
         style="fill:#0e0f0e;fill-opacity:1;fill-rule:nonzero;stroke:none"
         id="path33470"
         inkscape:connector-curvature="0" />
    </g>
    <g
       id="g33472"
       transform="matrix(0.35277777,0,0,-0.35277777,44.973915,101.24879)">
      <path
         d="m 0,0 -0.158,0.092 -0.196,0.007 -0.179,-0.145 c 0.014,-0.012 0.137,0.06 0.229,0.089 L -0.035,-0.012 0,0"
         style="fill:#0e0f0e;fill-opacity:1;fill-rule:nonzero;stroke:none"
         id="path33474"
         inkscape:connector-curvature="0" />
    </g>
    <g
       id="g33476"
       transform="matrix(0.35277777,0,0,-0.35277777,44.748635,101.45065)">
      <path
         d="m 0,0 -0.145,0.039 -0.185,-0.055 0.096,0.077 0.097,0.117 -0.03,-0.07 h 0.084 L 0,0.047 0.082,0.108 H 0.167 L 0.136,0.178 0.233,0.061 0.329,-0.016 0.144,0.039 Z"
         style="fill:#0e0f0e;fill-opacity:1;fill-rule:nonzero;stroke:none"
         id="path33478"
         inkscape:connector-curvature="0" />
    </g>
    <g
       id="g33480"
       transform="matrix(0.35277777,0,0,-0.35277777,44.905904,101.49719)">
      <path
         d="M 0,0 C -0.02,0.033 -0.084,0.112 -0.012,-0.007 0.061,-0.126 0.02,-0.033 0,0"
         style="fill:#0e0f0e;fill-opacity:1;fill-rule:nonzero;stroke:none"
         id="path33482"
         inkscape:connector-curvature="0" />
    </g>
    <g
       id="g33484"
       transform="matrix(0.35277777,0,0,-0.35277777,44.914865,101.26841)">
      <path
         d="M 0,0 -0.004,-0.146 Z"
         style="fill:#0e0f0e;fill-opacity:1;fill-rule:nonzero;stroke:none"
         id="path33486"
         inkscape:connector-curvature="0" />
    </g>
    <g
       id="g33488"
       transform="matrix(0.35277777,0,0,-0.35277777,44.838525,101.29631)">
      <path
         d="m 0,0 0.083,-0.082 0.107,0.061 c 0,0.041 -0.044,0.102 -0.14,0.1 z"
         style="fill:#0e0f0e;fill-opacity:1;fill-rule:nonzero;stroke:none"
         id="path33490"
         inkscape:connector-curvature="0" />
    </g>
    <g
       id="g33492"
       transform="matrix(0.35277777,0,0,-0.35277777,44.956175,101.28876)">
      <path
         d="M 0,0 -0.244,0.08 -0.428,0.027 -0.292,0.035 Z"
         style="fill:#0e0f0e;fill-opacity:1;fill-rule:nonzero;stroke:none"
         id="path33494"
         inkscape:connector-curvature="0" />
    </g>
    <g
       id="g33496"
       transform="matrix(0.35277777,0,0,-0.35277777,44.946364,101.29839)">
      <path
         d="m 0,0 -0.162,-0.07 -0.207,0.02 0.162,-0.052 z"
         style="fill:#0e0f0e;fill-opacity:1;fill-rule:nonzero;stroke:none"
         id="path33498"
         inkscape:connector-curvature="0" />
    </g>
    <g
       id="g33500"
       transform="matrix(0.35277777,0,0,-0.35277777,44.747574,101.52957)">
      <path
         d="M 0,0 C -0.114,0 -0.174,0.017 -0.243,0.036 -0.2,0.04 -0.137,0.049 0,0.049 0.138,0.049 0.201,0.04 0.244,0.036 0.175,0.017 0.114,0 0,0 M 0.125,0.126 0.003,0.102 -0.12,0.126 c -0.052,0 -0.157,-0.052 -0.294,-0.054 0.256,-0.108 0.224,-0.134 0.417,-0.134 0.193,0 0.161,0.026 0.416,0.134 C 0.281,0.074 0.177,0.126 0.125,0.126"
         style="fill:#0e0f0e;fill-opacity:1;fill-rule:nonzero;stroke:none"
         id="path33502"
         inkscape:connector-curvature="0" />
    </g>
    <g
       id="g33504"
       transform="matrix(0.35277777,0,0,-0.35277777,44.768074,101.58295)">
      <path
         d="M 0,0 -0.055,-0.014 -0.111,0 -0.055,0.014 Z"
         style="fill:#0e0f0e;fill-opacity:1;fill-rule:nonzero;stroke:none"
         id="path33506"
         inkscape:connector-curvature="0" />
    </g>
  </g>
</svg>
