<?xml version="1.0" encoding="UTF-8" standalone="no"?>
<!-- Created with Inkscape (http://www.inkscape.org/) -->

<svg
   xmlns:dc="http://purl.org/dc/elements/1.1/"
   xmlns:cc="http://creativecommons.org/ns#"
   xmlns:rdf="http://www.w3.org/1999/02/22-rdf-syntax-ns#"
   xmlns:svg="http://www.w3.org/2000/svg"
   xmlns="http://www.w3.org/2000/svg"
   xmlns:sodipodi="http://sodipodi.sourceforge.net/DTD/sodipodi-0.dtd"
   xmlns:inkscape="http://www.inkscape.org/namespaces/inkscape"
   width="7.084836mm"
   height="4.7328668mm"
   viewBox="0 0 7.0848359 4.7328668"
   version="1.1"
   id="svg8"
   inkscape:version="0.92.4 (5da689c313, 2019-01-14)"
   sodipodi:docname="zimbabwe.svg">
  <defs
     id="defs2">
    <radialGradient
       id="radialGradient37584"
       spreadMethod="pad"
       gradientTransform="matrix(0.975099,0,0,0.975099,159.64062,365.06934)"
       gradientUnits="userSpaceOnUse"
       r="1"
       cy="0"
       cx="0"
       fy="0"
       fx="0">
      <stop
         id="stop37578"
         offset="0"
         style="stop-opacity:1;stop-color:#852c26" />
      <stop
         id="stop37580"
         offset="0.0015476"
         style="stop-opacity:1;stop-color:#852c26" />
      <stop
         id="stop37582"
         offset="1"
         style="stop-opacity:1;stop-color:#451617" />
    </radialGradient>
    <clipPath
       id="clipPath37532"
       clipPathUnits="userSpaceOnUse">
      <path
         inkscape:connector-curvature="0"
         id="path37530"
         d="M 0,400 H 400 V 0 H 0 Z" />
    </clipPath>
    <radialGradient
       id="radialGradient37522"
       spreadMethod="pad"
       gradientTransform="matrix(-0.2637247,0,0,0.2637247,159.68652,365.88965)"
       gradientUnits="userSpaceOnUse"
       r="1"
       cy="0"
       cx="0"
       fy="0"
       fx="0">
      <stop
         id="stop37516"
         offset="0"
         style="stop-opacity:1;stop-color:#852c26" />
      <stop
         id="stop37518"
         offset="0.0015476"
         style="stop-opacity:1;stop-color:#852c26" />
      <stop
         id="stop37520"
         offset="1"
         style="stop-opacity:1;stop-color:#451617" />
    </radialGradient>
    <clipPath
       id="clipPath37354"
       clipPathUnits="userSpaceOnUse">
      <path
         inkscape:connector-curvature="0"
         id="path37352"
         d="M 0,400 H 400 V 0 H 0 Z" />
    </clipPath>
    <radialGradient
       id="radialGradient37344"
       spreadMethod="pad"
       gradientTransform="matrix(0.975099,0,0,0.975099,155.76025,365.06934)"
       gradientUnits="userSpaceOnUse"
       r="1"
       cy="0"
       cx="0"
       fy="0"
       fx="0">
      <stop
         id="stop37338"
         offset="0"
         style="stop-opacity:1;stop-color:#eee54f" />
      <stop
         id="stop37340"
         offset="0.9977451"
         style="stop-opacity:1;stop-color:#e04a20" />
      <stop
         id="stop37342"
         offset="1"
         style="stop-opacity:1;stop-color:#e04a20" />
    </radialGradient>
    <clipPath
       id="clipPath37272"
       clipPathUnits="userSpaceOnUse">
      <path
         inkscape:connector-curvature="0"
         id="path37270"
         d="M 0,400 H 400 V 0 H 0 Z" />
    </clipPath>
    <radialGradient
       id="radialGradient37262"
       spreadMethod="pad"
       gradientTransform="matrix(0.2636045,0,0,0.2636045,155.71484,365.89062)"
       gradientUnits="userSpaceOnUse"
       r="1"
       cy="0"
       cx="0"
       fy="0"
       fx="0">
      <stop
         id="stop37256"
         offset="0"
         style="stop-opacity:1;stop-color:#eee54f" />
      <stop
         id="stop37258"
         offset="0.9977451"
         style="stop-opacity:1;stop-color:#e04a20" />
      <stop
         id="stop37260"
         offset="1"
         style="stop-opacity:1;stop-color:#e04a20" />
    </radialGradient>
    <radialGradient
       id="radialGradient5422"
       spreadMethod="pad"
       gradientTransform="matrix(0.1021146,-0.0756367,0.070541,0.1077099,271.97559,176.14746)"
       gradientUnits="userSpaceOnUse"
       r="1"
       cy="0"
       cx="0"
       fy="0"
       fx="0">
      <stop
         id="stop5416"
         offset="0"
         style="stop-opacity:1;stop-color:#ffffff" />
      <stop
         id="stop5418"
         offset="0.00091915"
         style="stop-opacity:1;stop-color:#ffffff" />
      <stop
         id="stop5420"
         offset="1"
         style="stop-opacity:1;stop-color:#e63e6e" />
    </radialGradient>
    <clipPath
       id="clipPath5374"
       clipPathUnits="userSpaceOnUse">
      <path
         inkscape:connector-curvature="0"
         id="path5372"
         d="M 0,400 H 400 V 0 H 0 Z" />
    </clipPath>
    <radialGradient
       id="radialGradient5364"
       spreadMethod="pad"
       gradientTransform="matrix(0.1318831,-9.013e-4,-1.001e-4,0.1311822,269.56445,176.4248)"
       gradientUnits="userSpaceOnUse"
       r="1"
       cy="0"
       cx="0"
       fy="0"
       fx="0">
      <stop
         id="stop5358"
         offset="0"
         style="stop-opacity:1;stop-color:#ffffff" />
      <stop
         id="stop5360"
         offset="0.00091915"
         style="stop-opacity:1;stop-color:#ffffff" />
      <stop
         id="stop5362"
         offset="1"
         style="stop-opacity:1;stop-color:#e63e6e" />
    </radialGradient>
    <clipPath
       id="clipPath5316"
       clipPathUnits="userSpaceOnUse">
      <path
         inkscape:connector-curvature="0"
         id="path5314"
         d="M 0,400 H 400 V 0 H 0 Z" />
    </clipPath>
    <radialGradient
       id="radialGradient5306"
       spreadMethod="pad"
       gradientTransform="matrix(0.1105445,0.0935377,-0.0930375,0.1086438,268.6875,176.89062)"
       gradientUnits="userSpaceOnUse"
       r="1"
       cy="0"
       cx="0"
       fy="0"
       fx="0">
      <stop
         id="stop5300"
         offset="0"
         style="stop-opacity:1;stop-color:#ffffff" />
      <stop
         id="stop5302"
         offset="0.00091915"
         style="stop-opacity:1;stop-color:#ffffff" />
      <stop
         id="stop5304"
         offset="1"
         style="stop-opacity:1;stop-color:#e63e6e" />
    </radialGradient>
  </defs>
  <sodipodi:namedview
     id="base"
     pagecolor="#ffffff"
     bordercolor="#666666"
     borderopacity="1.0"
     inkscape:pageopacity="0.0"
     inkscape:pageshadow="2"
     inkscape:zoom="11.2"
     inkscape:cx="26.805262"
     inkscape:cy="5.0963282"
     inkscape:document-units="mm"
     inkscape:current-layer="layer1"
     showgrid="false"
     inkscape:window-width="954"
     inkscape:window-height="630"
     inkscape:window-x="-3"
     inkscape:window-y="6"
     inkscape:window-maximized="0" />
  <metadata
     id="metadata5">
    <rdf:RDF>
      <cc:Work
         rdf:about="">
        <dc:format>image/svg+xml</dc:format>
        <dc:type
           rdf:resource="http://purl.org/dc/dcmitype/StillImage" />
        <dc:title></dc:title>
      </cc:Work>
    </rdf:RDF>
  </metadata>
  <g
     inkscape:label="Layer 1"
     inkscape:groupmode="layer"
     id="layer1"
     transform="translate(-42.891427,-98.280044)">
    <g
       id="g36286"
       transform="matrix(0.35277777,0,0,-0.35277777,42.920708,102.98363)">
      <path
         d="M 0,0 H 19.917 L 19.916,13.251 H 0 Z M 19.959,-0.042 V 0 Z M -0.083,-0.083 V 13.333 H 20 V -0.042 -0.083 Z"
         style="fill:#221f21;fill-opacity:1;fill-rule:nonzero;stroke:none"
         id="path36288"
         inkscape:connector-curvature="0" />
    </g>
    <path
       d="m 42.906252,102.32641 h 7.05555 v -0.67169 h -7.05555 z"
       style="fill:#f0c124;fill-opacity:1;fill-rule:nonzero;stroke:none;stroke-width:0.35277778"
       id="path36290"
       inkscape:connector-curvature="0" />
    <path
       d="m 42.906252,101.65437 h 7.05555 v -0.67204 h -7.05555 z"
       style="fill:#d12826;fill-opacity:1;fill-rule:nonzero;stroke:none;stroke-width:0.35277778"
       id="path36292"
       inkscape:connector-curvature="0" />
    <path
       d="m 42.906252,102.9981 h 7.05555 v -0.67169 h -7.05555 z"
       style="fill:#43923c;fill-opacity:1;fill-rule:nonzero;stroke:none;stroke-width:0.35277778"
       id="path36294"
       inkscape:connector-curvature="0" />
    <path
       d="m 49.961802,98.966551 h -7.05555 v 0.67169 h 7.05555 z"
       style="fill:#f0c124;fill-opacity:1;fill-rule:nonzero;stroke:none;stroke-width:0.35277778"
       id="path36296"
       inkscape:connector-curvature="0" />
    <path
       d="m 42.906252,100.31028 h 7.05555 v -0.671689 h -7.05555 z"
       style="fill:#d12826;fill-opacity:1;fill-rule:nonzero;stroke:none;stroke-width:0.35277778"
       id="path36298"
       inkscape:connector-curvature="0" />
    <path
       d="m 49.961802,98.294511 h -7.05555 v 0.67204 h 7.05555 z"
       style="fill:#43923c;fill-opacity:1;fill-rule:nonzero;stroke:none;stroke-width:0.35277778"
       id="path36300"
       inkscape:connector-curvature="0" />
    <path
       d="m 42.906252,100.98233 h 7.05555 v -0.67205 h -7.05555 z"
       style="fill:#0e0f0e;fill-opacity:1;fill-rule:nonzero;stroke:none;stroke-width:0.35277778"
       id="path36302"
       inkscape:connector-curvature="0" />
    <g
       id="g36304"
       transform="matrix(0.35277777,0,0,-0.35277777,43.031658,98.294511)">
      <path
         d="m 0,0 h -0.355 v -0.042 l 6.638,-6.625 -6.638,-6.624 v -0.042 H 0 l 6.681,6.666 z"
         style="fill:#0e0f0e;fill-opacity:1;fill-rule:nonzero;stroke:none"
         id="path36306"
         inkscape:connector-curvature="0" />
    </g>
    <g
       id="g36308"
       transform="matrix(0.35277777,0,0,-0.35277777,42.906248,98.30933)">
      <path
         d="m 0,0 v -13.249 l 6.639,6.624 z"
         style="fill:#ffffff;fill-opacity:1;fill-rule:nonzero;stroke:none"
         id="path36310"
         inkscape:connector-curvature="0" />
    </g>
    <g
       id="g36312"
       transform="matrix(0.35277777,0,0,-0.35277777,43.836769,99.829981)">
      <path
         d="M 0,0 0.711,-1.579 2.434,-1.768 1.151,-2.933 1.504,-4.629 0,-3.77 l -1.505,-0.859 0.354,1.696 -1.283,1.165 1.723,0.189 z"
         style="fill:#d12826;fill-opacity:1;fill-rule:nonzero;stroke:none"
         id="path36314"
         inkscape:connector-curvature="0" />
    </g>
    <g
       id="g36316"
       transform="matrix(0.35277777,0,0,-0.35277777,43.434039,99.95987)">
      <path
         d="M 0,0 H 0.055 L 0.293,-0.103 C 0.387,-0.178 0.459,-0.275 0.52,-0.379 0.615,-0.538 0.706,-0.7 0.797,-0.86 L 0.822,-0.9 0.984,-1.042 c 0.114,-0.092 0.235,-0.174 0.352,-0.262 0.24,-0.175 0.478,-0.353 0.717,-0.531 0.188,-0.14 0.377,-0.28 0.562,-0.423 l 0.197,-0.15 0.041,-0.038 -0.18,0.021 C 2.546,-2.914 2.42,-3.402 2.294,-3.892 h -2.397 c -0.063,0.309 -0.126,0.616 -0.188,0.924 l -0.053,0.026 -0.031,0.102 c 0.004,0.134 0.055,0.259 0.111,0.378 0.065,0.131 0.134,0.258 0.184,0.394 0.033,0.089 0.05,0.182 0.061,0.277 0.017,0.147 0.021,0.296 0.013,0.443 -0.008,0.132 -0.023,0.265 -0.051,0.395 l -0.084,0.239 -0.16,0.133 -0.175,0.023 -0.092,-0.013 v 0.025 l 0.035,0.078 0.102,0.094 0.064,0.037 c 0.027,0.091 0.069,0.183 0.141,0.248 z"
         style="fill:#0e0f0e;fill-opacity:1;fill-rule:nonzero;stroke:none"
         id="path36318"
         inkscape:connector-curvature="0" />
    </g>
    <g
       id="g36320"
       transform="matrix(0.35277777,0,0,-0.35277777,43.362038,99.98844)">
      <path
         d="M 0,0 0.252,0.073 0.485,-0.021 0.651,-0.199 0.745,-0.346 C 0.835,-0.5 0.922,-0.654 1.01,-0.81 0.913,-0.85 0.817,-0.895 0.723,-0.937 0.548,-1.02 0.374,-1.103 0.198,-1.186 0.19,-1.073 0.175,-0.963 0.149,-0.854 l -0.081,0.225 -0.182,0.143 -0.246,0.004 0.01,0.046 0.083,0.104 0.109,0.069 0.01,0.028 z"
         style="fill:#f2b327;fill-opacity:1;fill-rule:nonzero;stroke:none"
         id="path36322"
         inkscape:connector-curvature="0" />
    </g>
    <g
       id="g36324"
       transform="matrix(0.35277777,0,0,-0.35277777,43.418198,100.03325)">
      <path
         d="m 0,0 0.056,-0.014 0.038,-0.067 -0.049,-0.078 -0.076,0.003 -0.044,0.064 z"
         style="fill:#0e0f0e;fill-opacity:1;fill-rule:nonzero;stroke:none"
         id="path36326"
         inkscape:connector-curvature="0" />
    </g>
    <g
       id="g36328"
       transform="matrix(0.35277777,0,0,-0.35277777,43.414039,100.04256)">
      <path
         d="M 0,0 0.078,-0.044 0.031,-0.115 -0.039,-0.06 Z"
         style="fill:#f2b327;fill-opacity:1;fill-rule:nonzero;stroke:none"
         id="path36330"
         inkscape:connector-curvature="0" />
    </g>
    <g
       id="g36332"
       transform="matrix(0.35277777,0,0,-0.35277777,43.681729,100.293)">
      <path
         d="M 0,0 0.108,0.046 C 0.194,-0.041 0.292,-0.117 0.39,-0.19 0.828,-0.509 1.263,-0.832 1.696,-1.158 1.79,-1.228 1.883,-1.297 1.975,-1.369 l 0.159,-0.125 c -0.363,0.043 -0.725,0.091 -1.084,0.152 -0.168,0.029 -0.336,0.06 -0.5,0.104 l -0.188,0.058 -0.227,0.088 -0.138,0.091 -0.129,0.186 -0.072,0.144 -0.002,-0.013 0.117,-0.225 0.106,-0.119 0.186,-0.101 0.215,-0.078 -0.026,-0.073 -0.118,-0.129 -0.187,-0.125 -0.15,-0.073 -0.192,-0.082 -0.184,-0.137 -0.068,-0.166 -0.075,-0.002 -0.124,-0.007 -0.103,-0.004 -0.01,0.017 -0.004,0.17 0.034,0.063 0.118,0.167 c 0.082,0.121 0.156,0.252 0.199,0.393 l 0.039,0.259 -0.006,0.002 c -0.001,-0.15 -0.042,-0.298 -0.11,-0.433 -0.057,-0.119 -0.136,-0.227 -0.211,-0.332 l -0.058,-0.092 -0.025,-0.098 0.024,-0.117 -0.167,-0.011 -0.064,0.037 -0.021,0.074 c 0,0.091 0.025,0.179 0.058,0.263 0.053,0.134 0.125,0.259 0.185,0.391 l 0.074,0.192 c 0.028,0.106 0.042,0.216 0.05,0.324 0.009,0.13 0.009,0.259 -0.001,0.387 l 0.003,0.021 C -0.47,-0.217 -0.236,-0.105 0,0"
         style="fill:#f2b327;fill-opacity:1;fill-rule:nonzero;stroke:none"
         id="path36334"
         inkscape:connector-curvature="0" />
    </g>
    <g
       id="g36336"
       transform="matrix(0.35277777,0,0,-0.35277777,43.83229,100.72021)">
      <path
         d="m 0,0 0.191,-0.053 -0.078,-0.119 -0.158,-0.117 -0.033,-0.004 -0.188,0.004 0.108,0.077 0.131,0.137 z"
         style="fill:#f2b327;fill-opacity:1;fill-rule:nonzero;stroke:none"
         id="path36338"
         inkscape:connector-curvature="0" />
    </g>
    <g
       id="g36340"
       transform="matrix(0.35277777,0,0,-0.35277777,43.875009,100.78219)">
      <path
         d="M 0,0 0.078,0.121 0.262,0.081 0.141,-0.067 -0.01,-0.115 -0.156,-0.117 Z"
         style="fill:#f2b327;fill-opacity:1;fill-rule:nonzero;stroke:none"
         id="path36342"
         inkscape:connector-curvature="0" />
    </g>
    <g
       id="g36344"
       transform="matrix(0.35277777,0,0,-0.35277777,43.965248,100.76568)">
      <path
         d="M 0,0 0.016,0.031 0.212,-0.003 C 0.486,-0.051 0.764,-0.09 1.042,-0.127 L 1.16,-0.141 C 1.131,-0.253 1.102,-0.366 1.072,-0.479 L 1.05,-0.473 1.043,-0.48 1.07,-0.485 C 1.044,-0.594 1.014,-0.702 0.986,-0.812 0.799,-0.771 0.608,-0.743 0.417,-0.723 0.121,-0.689 -0.179,-0.672 -0.477,-0.66 l -0.15,0.006 -0.16,0.002 c -0.139,0.005 -0.277,0.007 -0.416,0.006 l -0.1,-0.004 0.046,0.132 0.163,0.14 0.157,0.076 0.179,-0.003 0.088,-0.003 0.127,-0.004 0.059,-0.002 0.113,-0.006 C 0.103,-0.347 0.576,-0.391 1.043,-0.479 L 1.04,-0.47 1.018,-0.467 c -0.215,0.041 -0.432,0.071 -0.649,0.095 -0.267,0.029 -0.536,0.05 -0.806,0.063 l -0.197,0.008 -0.19,0.004 -0.097,0.002 0.067,0.024 0.198,0.103 0.048,-0.001 0.258,-0.003 0.135,0.008 z"
         style="fill:#f2b327;fill-opacity:1;fill-rule:nonzero;stroke:none"
         id="path36346"
         inkscape:connector-curvature="0" />
    </g>
    <g
       id="g36348"
       transform="matrix(0.35277777,0,0,-0.35277777,43.78957,100.90175)">
      <path
         d="M 0,0 0.096,-0.026 0.115,-0.153 0.018,-0.207 -0.08,-0.12 Z"
         style="fill:#0e0f0e;fill-opacity:1;fill-rule:nonzero;stroke:none"
         id="path36350"
         inkscape:connector-curvature="0" />
    </g>
    <g
       id="g36352"
       transform="matrix(0.35277777,0,0,-0.35277777,43.794719,100.90934)">
      <path
         d="m 0,0 0.087,-0.062 -0.058,-0.097 -0.061,0.008 -0.036,0.093 z"
         style="fill:#f2b327;fill-opacity:1;fill-rule:nonzero;stroke:none"
         id="path36354"
         inkscape:connector-curvature="0" />
    </g>
    <g
       id="g36356"
       transform="matrix(0.35277777,0,0,-0.35277777,43.923939,100.91244)">
      <path
         d="m 0,0 0.121,-0.039 v -0.118 l -0.051,-0.04 -0.105,0.02 -0.035,0.083 z"
         style="fill:#0e0f0e;fill-opacity:1;fill-rule:nonzero;stroke:none"
         id="path36358"
         inkscape:connector-curvature="0" />
    </g>
    <g
       id="g36360"
       transform="matrix(0.35277777,0,0,-0.35277777,43.929088,100.91967)">
      <path
         d="m 0,0 0.101,-0.073 -0.055,-0.08 -0.099,0.039 0.007,0.083 z"
         style="fill:#f2b327;fill-opacity:1;fill-rule:nonzero;stroke:none"
         id="path36362"
         inkscape:connector-curvature="0" />
    </g>
    <g
       id="g36364"
       transform="matrix(0.35277777,0,0,-0.35277777,43.560118,100.99651)">
      <path
         d="M 0,0 C 0.116,-0.002 0.233,0 0.35,-0.004 L 0.455,-0.006 0.295,-0.146 0.221,-0.211 Z"
         style="fill:#f2b327;fill-opacity:1;fill-rule:nonzero;stroke:none"
         id="path36366"
         inkscape:connector-curvature="0" />
    </g>
    <g
       id="g36368"
       transform="matrix(0.35277777,0,0,-0.35277777,43.497079,100.99788)">
      <path
         d="M 0,0 0.167,0.004 0.185,-0.234 0.181,-0.241 0.188,-0.275 0.204,-0.418 0.21,-0.406 0.194,-0.26 0.209,-0.27 0.401,-0.445 0.278,-0.442 0.217,-0.443 0.214,-0.424 0.207,-0.423 C 0.224,-0.591 0.245,-0.76 0.27,-0.927 v -0.016 c -0.182,0.001 -0.365,0 -0.546,0 -0.063,0.305 -0.125,0.611 -0.187,0.918 l 0.24,0.013 0.1,0.004 z"
         style="fill:#f2b327;fill-opacity:1;fill-rule:nonzero;stroke:none"
         id="path36370"
         inkscape:connector-curvature="0" />
    </g>
    <g
       id="g36372"
       transform="matrix(0.35277777,0,0,-0.35277777,43.558388,100.99855)">
      <path
         d="m 0,0 0.226,-0.215 0.029,0.026 0.215,0.187 0.136,-0.145 0.075,-0.077 0.242,0.203 0.194,-0.218 0.016,-0.016 0.239,0.203 0.184,-0.214 0.012,-0.004 0.236,0.169 c 0.092,-0.088 0.187,-0.177 0.28,-0.265 L 2.042,-0.527 1.793,-0.308 1.555,-0.487 1.358,-0.26 1.118,-0.457 0.906,-0.234 0.816,-0.312 0.675,-0.437 0.46,-0.217 0.249,-0.429 0.031,-0.231 0.017,-0.223 Z"
         style="fill:#f2b327;fill-opacity:1;fill-rule:nonzero;stroke:none"
         id="path36374"
         inkscape:connector-curvature="0" />
    </g>
    <g
       id="g36376"
       transform="matrix(0.35277777,0,0,-0.35277777,43.728258,100.99926)">
      <path
         d="M 0,0 0.178,-0.004 0.318,-0.011 0.432,-0.016 0.199,-0.213 Z"
         style="fill:#f2b327;fill-opacity:1;fill-rule:nonzero;stroke:none"
         id="path36378"
         inkscape:connector-curvature="0" />
    </g>
    <g
       id="g36380"
       transform="matrix(0.35277777,0,0,-0.35277777,43.887389,101.00578)">
      <path
         d="M 0,0 0.204,-0.011 0.43,-0.029 0.203,-0.222 0.196,-0.22 Z"
         style="fill:#f2b327;fill-opacity:1;fill-rule:nonzero;stroke:none"
         id="path36382"
         inkscape:connector-curvature="0" />
    </g>
    <g
       id="g36384"
       transform="matrix(0.35277777,0,0,-0.35277777,44.046219,101.01683)">
      <path
         d="M 0,0 C 0.138,-0.011 0.274,-0.026 0.411,-0.046 L 0.182,-0.212 Z"
         style="fill:#f2b327;fill-opacity:1;fill-rule:nonzero;stroke:none"
         id="path36386"
         inkscape:connector-curvature="0" />
    </g>
    <g
       id="g36388"
       transform="matrix(0.35277777,0,0,-0.35277777,44.198859,101.03404)">
      <path
         d="M 0,0 C 0.107,-0.016 0.215,-0.035 0.32,-0.06 L 0.271,-0.258 C 0.18,-0.173 0.09,-0.087 0,0"
         style="fill:#f2b327;fill-opacity:1;fill-rule:nonzero;stroke:none"
         id="path36390"
         inkscape:connector-curvature="0" />
    </g>
    <g
       id="g36392"
       transform="matrix(0.35277777,0,0,-0.35277777,43.680699,101.12742)">
      <path
         d="M 0,0 0.113,0.113 0.2,0.023 0.307,-0.085 0.147,-0.08 0.002,-0.078 -0.076,-0.077 Z"
         style="fill:#f2b327;fill-opacity:1;fill-rule:nonzero;stroke:none"
         id="path36394"
         inkscape:connector-curvature="0" />
    </g>
    <g
       id="g36396"
       transform="matrix(0.35277777,0,0,-0.35277777,43.80403,101.15808)">
      <path
         d="M 0,0 0.207,0.185 0.398,-0.017 0.346,-0.015 C 0.23,-0.009 0.115,-0.004 0,0"
         style="fill:#f2b327;fill-opacity:1;fill-rule:nonzero;stroke:none"
         id="path36398"
         inkscape:connector-curvature="0" />
    </g>
    <g
       id="g36400"
       transform="matrix(0.35277777,0,0,-0.35277777,43.960459,101.16531)">
      <path
         d="M 0,0 0.217,0.18 0.393,-0.026 0.377,-0.033 0.412,-0.048 0.43,-0.037 C 0.585,-0.051 0.739,-0.068 0.894,-0.09 L 0.828,-0.342 0.795,-0.469 h -1.829 c -0.024,0.164 -0.045,0.328 -0.064,0.492 l 0.059,0.001 0.128,-0.001 0.02,-0.011 0.015,0.011 0.161,-0.002 0.127,-0.003 0.104,-0.002 0.017,-0.015 0.014,0.013 0.162,-0.006 0.098,-0.004 0.156,-0.008 0.015,-0.014 0.018,0.011 c 0.125,-0.006 0.252,-0.015 0.378,-0.026 l -0.001,0.01 H 0.347 C 0.231,-0.013 0.116,-0.005 0,0"
         style="fill:#f2b327;fill-opacity:1;fill-rule:nonzero;stroke:none"
         id="path36402"
         inkscape:connector-curvature="0" />
    </g>
    <g
       id="g36404"
       transform="matrix(0.35277777,0,0,-0.35277777,44.122379,101.16979)">
      <path
         d="m 0,0 0.192,0.147 0.181,-0.16 0.064,-0.056 c -0.154,0.019 -0.306,0.039 -0.458,0.05 z"
         style="fill:#f2b327;fill-opacity:1;fill-rule:nonzero;stroke:none"
         id="path36406"
         inkscape:connector-curvature="0" />
    </g>
  </g>
</svg>
