<?xml version="1.0" encoding="UTF-8" standalone="no"?>
<!-- Created with Inkscape (http://www.inkscape.org/) -->

<svg
   xmlns:dc="http://purl.org/dc/elements/1.1/"
   xmlns:cc="http://creativecommons.org/ns#"
   xmlns:rdf="http://www.w3.org/1999/02/22-rdf-syntax-ns#"
   xmlns:svg="http://www.w3.org/2000/svg"
   xmlns="http://www.w3.org/2000/svg"
   xmlns:sodipodi="http://sodipodi.sourceforge.net/DTD/sodipodi-0.dtd"
   xmlns:inkscape="http://www.inkscape.org/namespaces/inkscape"
   width="11.445441mm"
   height="9.1131849mm"
   viewBox="0 0 11.445441 9.1131834"
   version="1.1"
   id="svg7070"
   inkscape:version="0.92.4 (5da689c313, 2019-01-14)"
   sodipodi:docname="afghanistan.svg">
  <defs
     id="defs7064" />
  <sodipodi:namedview
     id="base"
     pagecolor="#ffffff"
     bordercolor="#666666"
     borderopacity="1.0"
     inkscape:pageopacity="0.0"
     inkscape:pageshadow="2"
     inkscape:zoom="7.9195959"
     inkscape:cx="27.067777"
     inkscape:cy="0.88609905"
     inkscape:document-units="mm"
     inkscape:current-layer="layer1"
     showgrid="false"
     inkscape:window-width="958"
     inkscape:window-height="1008"
     inkscape:window-x="-7"
     inkscape:window-y="0"
     inkscape:window-maximized="0" />
  <metadata
     id="metadata7067">
    <rdf:RDF>
      <cc:Work
         rdf:about="">
        <dc:format>image/svg+xml</dc:format>
        <dc:type
           rdf:resource="http://purl.org/dc/dcmitype/StillImage" />
        <dc:title></dc:title>
      </cc:Work>
    </rdf:RDF>
  </metadata>
  <g
     inkscape:label="Layer 1"
     inkscape:groupmode="layer"
     id="layer1"
     transform="translate(-155.35376,-26.590018)">
    <path
       style="fill:#aaaaaa;stroke-width:0.26458332"
       inkscape:connector-curvature="0"
       id="af"
       d="m 155.36113,31.004326 c -0.0312,-0.108214 0.0415,-0.191029 0.12673,-0.245268 0.13229,-0.08467 0.0611,-0.142346 -0.0101,-0.242359 0.2241,-0.0254 0.21484,-0.311414 0.22992,-0.477837 0.007,-0.0852 -0.0889,-0.183886 -0.0392,-0.2667 0.0429,-0.07197 0.0439,-0.183621 0.0574,-0.264584 0.0296,-0.178064 0.27278,0.06086 0.35216,0.101865 0.11932,0.06085 0.21008,-0.01773 0.3302,0.01535 0.13123,0.03625 0.23045,0.162189 0.27199,0.286808 0.0833,-0.177271 0.30427,-0.07964 0.43392,-0.196056 0.0691,-0.06218 0.14578,-0.09393 0.18811,-0.182033 0.0394,-0.08202 -0.0439,-0.116682 0.0667,-0.176477 -0.0593,-0.04154 -0.10954,-0.09948 -0.13441,-0.168011 0.36222,0.04683 0.74904,-0.199496 1.03029,-0.398727 0.27622,-0.195792 -0.0728,-0.814123 0.26749,-0.953558 0.12383,-0.0508 0.34131,0.02196 0.44291,-0.04286 0.10795,-0.06879 -0.0198,-0.270139 0.136,-0.295275 0.11774,-0.01905 0.24897,0.102659 0.34422,0.155046 0.14288,0.07832 0.26776,0.03572 0.42201,0.01561 0.1786,-0.02328 0.33841,-0.02778 0.46911,0.109008 0.13176,0.137848 0.28575,-0.009 0.4445,0.03466 0.0635,0.0172 0.1815,0.170921 0.23812,0.22225 0.12409,0.111919 0.13759,-0.02487 0.26565,0.0029 -0.0217,-0.144992 0.22251,-0.151607 0.29421,-0.230982 0.0738,-0.08123 0.0627,0.01588 0.13388,-0.01296 0.0349,-0.01429 0.0318,-0.09366 0.0789,-0.08625 0.12647,0.01958 0.1696,0.257439 0.32596,0.221456 0.18786,-0.04313 -0.018,-0.280458 0.0587,-0.39079 0.16246,-0.233627 0.51329,0.04472 0.61569,-0.06694 0.12515,-0.13679 -0.0656,-0.186796 -0.0871,-0.282575 -0.0246,-0.111654 0.13335,-0.243417 0.1741,-0.354806 0.11271,-0.306653 0.51249,-0.333111 0.68394,-0.03043 0.04,0.07091 -0.0188,0.296334 0.0585,0.321734 0.0796,0.02593 0.19314,-0.0799 0.24262,0.03413 0.0516,0.119856 0.0212,0.377031 0.027,0.507735 0.006,0.147373 0.0304,0.297921 0.0841,0.435505 0.16643,0.425979 0.41937,0.191823 0.65987,-0.01006 0.099,-0.08281 0.29872,0.0098 0.35269,-0.117739 0.0722,-0.170921 0.1778,-0.27649 0.35084,-0.363008 0.12832,-0.06403 0.6178,-0.0508 0.40825,0.182297 0.14605,0.06112 0.38577,-0.105039 0.51779,-0.167216 0.10795,-0.0508 0.45429,0.08202 0.52441,0.175419 -0.0982,0.04445 -0.1614,-0.05609 -0.26009,-0.0082 -0.11694,0.05662 -0.1061,0.178859 0.0164,0.218546 -0.10504,0.03598 -0.19156,0.108744 -0.29157,0.155311 -0.13838,0.06429 -0.23654,-0.01852 -0.37492,-0.03043 -0.27093,-0.02302 -0.58605,0.02778 -0.85381,0.07382 -0.12647,0.0217 -0.25109,0.05768 -0.35983,0.128059 -0.10107,0.06588 -0.1778,0.230452 -0.28919,0.26961 -0.13415,0.04683 -0.11589,-0.04127 -0.2077,0.08864 -0.0508,0.07223 -0.17092,0.162983 -0.195,0.243416 -0.0273,0.09049 0.10954,0.179917 0.16616,0.222515 0.0836,0.06297 0.12885,0.236008 0.19235,0.273843 0.072,0.04313 0.0992,0.12409 0.10584,0.205846 0.002,0.02831 0.0593,0.254265 0.0751,0.231511 -0.0492,0.06932 -0.0341,0.215106 -0.11695,0.247385 -0.09,0.03466 -0.15372,0.159015 -0.19844,0.2413 -0.0259,0.04048 -0.0304,0.08334 -0.0135,0.128323 -0.0249,0.0011 -0.10372,0.0056 -0.0833,0.0553 0.028,0.06985 0.11562,0.112977 0.16589,0.164835 0.17621,0.181505 -0.12091,0.352161 -0.25188,0.380736 -0.12727,0.02778 -0.25665,0.02434 -0.38418,-0.0016 -0.0635,-0.0127 -0.26776,-0.112448 -0.32782,-0.05133 -0.13097,0.132292 0.25903,0.350044 0.31565,0.442119 0.0439,0.07144 0.16272,0.219075 0.12277,0.299244 -0.0394,0.07911 -0.23178,0.229129 -0.3257,0.1905 -0.23548,-0.09631 -0.2548,0.124883 -0.24765,0.270933 0.006,0.115623 0.007,0.22569 -0.0725,0.316442 -0.0863,0.09869 0.005,0.229658 0.032,0.336814 0.0516,0.200819 0.022,0.451379 -0.18335,0.558271 -0.12197,0.0635 -0.15531,-0.0019 -0.21537,-0.09816 -0.0497,-0.07911 -0.21828,-0.141552 -0.2249,-0.0069 -0.34475,-0.139964 -0.3929,0.220928 -0.72363,0.226748 0.027,0.104511 0.14499,0.10848 0.21008,0.176742 -0.1278,0.068 -0.27014,0.132027 -0.41805,0.126735 -0.10609,-0.0037 -0.18732,-0.100012 -0.2667,-0.102129 -0.13652,-0.0034 -0.23071,0.251619 -0.31035,0.331523 -0.10266,0.102659 -0.14499,0.08017 -0.15478,0.260879 -0.009,0.167217 0.0582,0.297657 0.0725,0.459582 -0.0148,0.0635 -0.0278,0.127529 -0.04,0.192087 0.008,0.06112 0.0542,0.07541 0.0762,0.125413 0.0794,0.180445 -0.59452,0.299508 -0.68263,0.32041 -0.14869,0.03545 -0.28363,0.07223 -0.4392,0.06615 -0.15584,-0.0064 -0.34476,-0.03969 -0.48922,0.03783 -0.14076,0.07567 -0.19658,0.137848 -0.3601,0.09234 -0.15266,-0.04233 -0.29501,-0.06138 -0.45243,-0.03995 -0.34952,0.04842 -0.67099,0.133879 -1.01997,0.03122 -0.40958,-0.120386 -0.79455,-0.311944 -1.21285,-0.405871 0.17833,-0.204788 0.30506,-0.446617 0.45799,-0.669396 0.1315,-0.191558 0.26273,-0.401638 0.18283,-0.643996 -0.14632,-0.442912 -0.82815,-0.09313 -0.9353,-0.57785 -0.0677,-0.307181 -0.0799,-0.574146 -0.21961,-0.8636 -0.12038,-0.249502 -0.28098,-0.491067 -0.10848,-0.749829 0.13917,-0.208756 0.10742,-0.185208 -0.10874,-0.244475 -0.19817,-0.05398 -0.16642,-0.342635 -0.21034,-0.495565 z" />
  </g>
</svg>
