<?xml version="1.0" encoding="UTF-8" standalone="no"?>
<!-- Created with Inkscape (http://www.inkscape.org/) -->

<svg
   xmlns:dc="http://purl.org/dc/elements/1.1/"
   xmlns:cc="http://creativecommons.org/ns#"
   xmlns:rdf="http://www.w3.org/1999/02/22-rdf-syntax-ns#"
   xmlns:svg="http://www.w3.org/2000/svg"
   xmlns="http://www.w3.org/2000/svg"
   xmlns:sodipodi="http://sodipodi.sourceforge.net/DTD/sodipodi-0.dtd"
   xmlns:inkscape="http://www.inkscape.org/namespaces/inkscape"
   width="5.9416237mm"
   height="2.5073447mm"
   viewBox="0 0 5.9416233 2.5073451"
   version="1.1"
   id="svg7070"
   inkscape:version="0.92.4 (5da689c313, 2019-01-14)"
   sodipodi:docname="austria.svg">
  <defs
     id="defs7064" />
  <sodipodi:namedview
     id="base"
     pagecolor="#ffffff"
     bordercolor="#666666"
     borderopacity="1.0"
     inkscape:pageopacity="0.0"
     inkscape:pageshadow="2"
     inkscape:zoom="7.9195959"
     inkscape:cx="-2.5210306"
     inkscape:cy="-30.781579"
     inkscape:document-units="mm"
     inkscape:current-layer="layer1"
     showgrid="false"
     inkscape:window-width="958"
     inkscape:window-height="1008"
     inkscape:window-x="-7"
     inkscape:window-y="0"
     inkscape:window-maximized="0" />
  <metadata
     id="metadata7067">
    <rdf:RDF>
      <cc:Work
         rdf:about="">
        <dc:format>image/svg+xml</dc:format>
        <dc:type
           rdf:resource="http://purl.org/dc/dcmitype/StillImage" />
        <dc:title></dc:title>
      </cc:Work>
    </rdf:RDF>
  </metadata>
  <g
     inkscape:label="Layer 1"
     inkscape:groupmode="layer"
     id="layer1"
     transform="translate(-163.69023,-38.711623)">
    <path
       inkscape:connector-curvature="0"
       style="fill:#aaaaaa;stroke-width:0.26458332"
       d="m 163.69023,40.426992 c 0.0825,-0.144463 0.0656,-0.103717 0.0254,-0.234157 -0.0138,-0.04498 0.62997,-0.02593 0.4789,0.234157 0.18229,-0.0056 0.18732,-0.176477 0.22754,-0.31115 0.0775,0.06932 0.25532,0.07646 0.35242,0.0672 -0.0839,0.04154 0.11192,0.120914 0.1606,0.107421 0.0386,0.0042 0.0773,0.0077 0.11589,0.01032 0.0439,-0.02857 0.0831,-0.06218 0.11801,-0.100806 0.15954,-0.09604 0.43285,-0.159808 0.61409,-0.100806 -0.003,-0.03149 -0.008,-0.06218 -0.0164,-0.0926 0.0905,0.01111 0.23548,0.09234 0.32411,0.04815 0.15082,-0.07541 0.16034,0.107421 0.27702,0.153987 0.12674,0.0508 0.13865,-0.164306 0.0511,-0.207962 -0.0672,-0.0336 -0.0228,-0.126206 -0.0365,-0.180181 -0.0183,-0.07223 -0.0976,-0.10213 -0.12753,-0.166688 -0.0767,-0.165364 0.34978,-0.22225 0.43497,-0.280194 0.0738,-0.04974 0.0233,-0.280723 0.16007,-0.228864 0.18495,0.07011 0.15875,-0.03016 0.20215,-0.197379 0.11932,0.05159 0.20558,0.188912 0.34475,0.19341 0.0646,0.0021 0.0955,-0.06615 0.15134,-0.0672 0.0611,-0.0013 0.12197,0.04577 0.17621,0.0672 5.3e-4,-0.08149 0.0458,-0.161131 0.12647,-0.18706 0.1061,-0.03387 0.11563,-0.107421 0.10028,-0.24183 0.0717,-0.005 0.11139,0.0471 0.17754,0.05874 0.13573,0.02408 0.24817,0.01931 0.38496,0.06509 0.16166,0.05424 0.34529,0.181769 0.51356,0.10504 0.11721,-0.05345 0.43868,0.02196 0.46223,0.157692 0.014,0.0807 -0.0659,0.0971 -0.0664,0.16801 -0.001,0.08123 0.0482,0.185738 0.095,0.249238 0.127,0.17145 0.14711,0.203993 0.0635,0.422539 -0.0786,0.205581 -0.3638,-0.09975 -0.41328,0.04763 -0.0286,0.08493 0.2921,0.159015 0.0632,0.275431 -0.16087,0.08202 -0.0968,0.296334 -0.0447,0.434182 -0.14869,-0.03307 -0.49635,0.155575 -0.35242,0.336285 -0.18283,-0.115887 -0.26829,0.01667 -0.44133,0.03254 -0.12461,0.01138 -0.28151,-0.07779 -0.39105,0.01773 -0.0968,-0.05371 -0.21643,0.07938 -0.28707,0.116152 -0.13177,0.06879 -0.38762,-0.05424 -0.51885,-0.07329 -0.34052,-0.04921 -0.71993,-0.02143 -1.06892,-0.130704 -0.1061,-0.03307 -0.51302,-0.252677 -0.31035,-0.37465 -0.11589,-0.02408 -0.21035,0.06006 -0.31988,0.07567 -0.16008,0.02302 -0.2966,0.0016 -0.45747,0.0471 -0.096,0.02699 -0.17251,0.20029 -0.27226,0.171185 -0.10027,-0.02937 -0.19155,-0.05212 -0.29262,-0.07726 -0.0833,-0.0209 -0.002,-0.11139 -0.0556,-0.120385 -0.0651,-0.01085 -0.16563,0.06165 -0.21113,0.102658 -0.0857,0.07699 -0.23892,-0.04498 -0.24607,-0.124354 -0.005,-0.05636 -0.18573,-0.05662 -0.22145,-0.05768 0.0341,-0.07646 -0.006,-0.148432 -0.05,-0.20955 z"
       id="at" />
  </g>
</svg>
