<?xml version="1.0" encoding="UTF-8" standalone="no"?>
<!-- Created with Inkscape (http://www.inkscape.org/) -->

<svg
   xmlns:dc="http://purl.org/dc/elements/1.1/"
   xmlns:cc="http://creativecommons.org/ns#"
   xmlns:rdf="http://www.w3.org/1999/02/22-rdf-syntax-ns#"
   xmlns:svg="http://www.w3.org/2000/svg"
   xmlns="http://www.w3.org/2000/svg"
   xmlns:sodipodi="http://sodipodi.sourceforge.net/DTD/sodipodi-0.dtd"
   xmlns:inkscape="http://www.inkscape.org/namespaces/inkscape"
   width="2.9416101mm"
   height="1.9294416mm"
   viewBox="0 0 2.9416099 1.9294418"
   version="1.1"
   id="svg7070"
   inkscape:version="0.92.4 (5da689c313, 2019-01-14)"
   sodipodi:docname="belgium.svg">
  <defs
     id="defs7064" />
  <sodipodi:namedview
     id="base"
     pagecolor="#ffffff"
     bordercolor="#666666"
     borderopacity="1.0"
     inkscape:pageopacity="0.0"
     inkscape:pageshadow="2"
     inkscape:zoom="7.9195959"
     inkscape:cx="32.760605"
     inkscape:cy="-21.011058"
     inkscape:document-units="mm"
     inkscape:current-layer="layer1"
     showgrid="false"
     inkscape:window-width="958"
     inkscape:window-height="1008"
     inkscape:window-x="-7"
     inkscape:window-y="0"
     inkscape:window-maximized="0" />
  <metadata
     id="metadata7067">
    <rdf:RDF>
      <cc:Work
         rdf:about="">
        <dc:format>image/svg+xml</dc:format>
        <dc:type
           rdf:resource="http://purl.org/dc/dcmitype/StillImage" />
        <dc:title></dc:title>
      </cc:Work>
    </rdf:RDF>
  </metadata>
  <g
     inkscape:label="Layer 1"
     inkscape:groupmode="layer"
     id="layer1"
     transform="translate(-154.77035,-43.210992)">
    <path
       inkscape:connector-curvature="0"
       style="fill:#aaaaaa;stroke-width:0.26458332"
       d="m 154.77035,43.589647 c 0.20823,-0.108215 0.41857,-0.217223 0.64664,-0.277548 -0.0484,0.152135 0.18018,0.103187 0.26088,0.120121 0.0746,0.01561 0.11113,0.04974 0.19341,0.02778 0.10187,-0.02752 0.21643,-0.197908 0.25215,-0.03863 -0.0132,-0.03598 -0.0246,-0.07223 -0.0339,-0.109538 0.0767,0.01693 0.17013,0.0127 0.15981,-0.09234 0.0608,0.04604 0.1606,0.07382 0.21008,-0.0085 0.0413,0.100542 0.18838,0.068 0.24262,0 0.064,0.236537 0.41064,0.235744 0.6141,0.319088 -0.10901,0.127264 -0.24527,0.35507 -0.0291,0.378354 0.1008,0.01085 0.40375,0.0844 0.28125,0.243681 0.11562,-0.01958 0.1098,0.114035 0.14367,0.184944 -0.13441,0.02434 -0.12092,0.09842 -0.20426,0.167216 -0.0339,0.02778 -0.11853,-0.04313 -0.19447,0.07646 -0.0643,0.100806 -0.11589,0.150548 -0.0992,0.238919 0.0164,0.08943 0.1569,0.148431 0.0685,0.248443 -0.15716,0.177536 -0.33073,-0.0164 -0.43207,-0.106627 -0.077,-0.068 -0.27649,-0.06879 -0.33258,-0.137318 -0.0373,-0.04551 -0.007,-0.271198 -0.0164,-0.336286 -0.0775,0.03069 -0.0998,0.09578 -0.15478,0.149754 -0.10187,0.09922 -0.26141,0.0553 -0.38312,0.03493 0.0278,-0.09948 0.0812,-0.232039 -0.008,-0.319352 -0.0691,-0.0672 -0.25903,-0.06667 -0.33629,-0.01693 0.0127,-0.158485 -0.0601,-0.147638 -0.17489,-0.196056 -0.13626,-0.05715 -0.12673,-0.127529 -0.2032,-0.245004 -0.0413,-0.06377 -0.20425,0.01243 -0.28654,-0.02805 -0.12462,-0.06059 -0.12621,-0.172509 -0.18415,-0.277548 z"
       id="be" />
  </g>
</svg>
