<?xml version="1.0" encoding="UTF-8" standalone="no"?>
<!-- Created with Inkscape (http://www.inkscape.org/) -->

<svg
   xmlns:dc="http://purl.org/dc/elements/1.1/"
   xmlns:cc="http://creativecommons.org/ns#"
   xmlns:rdf="http://www.w3.org/1999/02/22-rdf-syntax-ns#"
   xmlns:svg="http://www.w3.org/2000/svg"
   xmlns="http://www.w3.org/2000/svg"
   xmlns:sodipodi="http://sodipodi.sourceforge.net/DTD/sodipodi-0.dtd"
   xmlns:inkscape="http://www.inkscape.org/namespaces/inkscape"
   width="8.2288303mm"
   height="9.1861191mm"
   viewBox="0 0 8.2288307 9.1861181"
   version="1.1"
   id="svg7070"
   inkscape:version="0.92.4 (5da689c313, 2019-01-14)"
   sodipodi:docname="botswana.svg">
  <defs
     id="defs7064" />
  <sodipodi:namedview
     id="base"
     pagecolor="#ffffff"
     bordercolor="#666666"
     borderopacity="1.0"
     inkscape:pageopacity="0.0"
     inkscape:pageshadow="2"
     inkscape:zoom="7.9195959"
     inkscape:cx="23.822273"
     inkscape:cy="1.429849"
     inkscape:document-units="mm"
     inkscape:current-layer="layer1"
     showgrid="false"
     inkscape:window-width="958"
     inkscape:window-height="1008"
     inkscape:window-x="-7"
     inkscape:window-y="0"
     inkscape:window-maximized="0" />
  <metadata
     id="metadata7067">
    <rdf:RDF>
      <cc:Work
         rdf:about="">
        <dc:format>image/svg+xml</dc:format>
        <dc:type
           rdf:resource="http://purl.org/dc/dcmitype/StillImage" />
        <dc:title></dc:title>
      </cc:Work>
    </rdf:RDF>
  </metadata>
  <g
     inkscape:label="Layer 1"
     inkscape:groupmode="layer"
     id="layer1"
     transform="translate(-156.72023,-39.345438)">
    <path
       inkscape:connector-curvature="0"
       style="fill:#aaaaaa;stroke-width:0.26458332"
       d="m 156.72086,46.371489 c 0,-0.500327 0.0103,-1.000389 0.0222,-1.500716 0.006,-0.248973 0.0143,-0.498211 0.008,-0.747184 -0.002,-0.08255 -0.0463,-0.445029 0.0278,-0.513556 0.18679,-0.174096 0.89429,0.194204 0.87445,-0.198966 -0.0257,-0.502709 -0.004,-1.01018 0.005,-1.513682 0.008,-0.497152 0.0265,-0.994304 0.0294,-1.491456 10e-4,-0.137848 -0.0109,-0.274902 -0.01,-0.412485 0.001,-0.161132 0.0775,-0.15928 0.22622,-0.160603 0.41804,-0.0042 0.81703,-0.114829 1.2266,-0.198966 0.1315,-0.02752 0.42545,-0.151871 0.55298,-0.07858 0.17278,0.09869 0.22252,0.316706 0.30639,0.47916 0.15743,-0.07541 0.27834,-0.25109 0.41937,-0.3556 0.0717,-0.05265 0.13123,-0.131763 0.22119,-0.157163 0.0971,-0.02752 0.0847,0.05583 0.15742,0.06562 0.0937,0.01297 0.19262,-0.131762 0.25665,-0.182298 0.0341,-0.02752 0.3638,-0.08017 0.38682,-0.05106 0.0164,0.02011 0.0291,0.161131 0.04,0.188648 0.0609,0.153458 0.14843,0.298185 0.24633,0.429947 0.0971,0.130705 0.14817,0.292365 0.2503,0.415925 0.10504,0.128059 0.0595,0.194734 0.10477,0.343694 0.0947,0.313796 0.33708,0.555625 0.60775,0.727604 0.2876,0.183357 0.57097,0.157692 0.4871,0.599546 0.27119,-0.0553 0.4646,0.02937 0.37147,0.333904 -0.0386,0.126736 -0.027,0.221192 0.0455,0.33073 0.078,0.118798 0.0857,0.327025 0.18759,0.420158 0.0733,0.06667 0.23098,0.05107 0.32226,0.0635 0.18521,0.02593 0.30798,0.08414 0.48366,0.14314 0.19738,0.06614 0.0452,0.05953 0.0929,0.20611 0.0325,0.101865 0.19897,0.138377 0.27808,0.217487 -0.24554,-0.02937 -0.28708,0.08308 -0.40455,0.247121 -0.13018,0.180975 -0.44688,0.06985 -0.61225,0.223309 -0.1561,0.144198 -0.26167,0.484187 -0.47413,0.549275 -0.087,0.02646 -0.0844,0.135466 -0.16034,0.165893 -0.14049,0.05583 -0.27728,0.0971 -0.36142,0.229923 -0.10425,0.163248 -0.17171,0.192882 -0.20426,0.40984 -0.0394,0.264054 -0.18706,0.319881 -0.33602,0.525462 -0.11589,0.160602 -0.3085,0.190765 -0.49556,0.221192 -0.13494,0.02222 -0.0672,0.07858 -0.0931,0.209285 -0.0341,0.17145 -0.11747,0.327555 -0.17303,0.49239 -0.0825,0.244475 -0.2548,0.333904 -0.50483,0.312208 -0.22675,-0.01958 -0.47202,0.186532 -0.68792,-0.02064 -0.0759,-0.07276 -0.12303,-0.107421 -0.23442,-0.09922 -0.14472,0.01085 -0.18494,-0.08255 -0.28495,-0.170921 -0.17542,-0.155046 -0.47493,-0.289454 -0.64929,-0.06403 -0.15954,0.206111 -0.17674,0.462492 -0.29078,0.685271 -0.0579,0.113771 -0.16801,0.151342 -0.26617,0.219075 -0.12171,0.08308 -0.14869,0.225954 -0.25215,0.322527 -0.077,0.0717 -0.13837,0.03625 -0.22489,0.07144 -0.0283,0.02434 -0.0394,0.05741 -0.0331,0.09816 -0.0336,0.0926 -0.1323,0.08943 -0.21352,0.08414 -0.12965,-0.0082 -0.26459,0.02381 -0.38947,0.01191 -0.13282,-0.01296 -0.21616,-0.09366 -0.32623,0.0336 -0.17357,-0.420159 0.22225,-0.707496 0.0759,-1.134798 -0.0704,-0.204523 -0.14155,-0.438679 -0.24897,-0.626798 -0.0939,-0.164306 -0.2749,-0.246592 -0.38338,-0.398463 z"
       id="bw" />
  </g>
</svg>
