<?xml version="1.0" encoding="UTF-8" standalone="no"?>
<!-- Created with Inkscape (http://www.inkscape.org/) -->

<svg
   xmlns:dc="http://purl.org/dc/elements/1.1/"
   xmlns:cc="http://creativecommons.org/ns#"
   xmlns:rdf="http://www.w3.org/1999/02/22-rdf-syntax-ns#"
   xmlns:svg="http://www.w3.org/2000/svg"
   xmlns="http://www.w3.org/2000/svg"
   xmlns:sodipodi="http://sodipodi.sourceforge.net/DTD/sodipodi-0.dtd"
   xmlns:inkscape="http://www.inkscape.org/namespaces/inkscape"
   width="7.3336053mm"
   height="8.6536398mm"
   viewBox="0 0 7.3336044 8.6536396"
   version="1.1"
   id="svg7070"
   inkscape:version="0.92.4 (5da689c313, 2019-01-14)"
   sodipodi:docname="laos.svg">
  <defs
     id="defs7064" />
  <sodipodi:namedview
     id="base"
     pagecolor="#ffffff"
     bordercolor="#666666"
     borderopacity="1.0"
     inkscape:pageopacity="0.0"
     inkscape:pageshadow="2"
     inkscape:zoom="5.6"
     inkscape:cx="15.408995"
     inkscape:cy="6.5348259"
     inkscape:document-units="mm"
     inkscape:current-layer="layer1"
     showgrid="false"
     inkscape:window-width="958"
     inkscape:window-height="1008"
     inkscape:window-x="-7"
     inkscape:window-y="0"
     inkscape:window-maximized="0" />
  <metadata
     id="metadata7067">
    <rdf:RDF>
      <cc:Work
         rdf:about="">
        <dc:format>image/svg+xml</dc:format>
        <dc:type
           rdf:resource="http://purl.org/dc/dcmitype/StillImage" />
        <dc:title></dc:title>
      </cc:Work>
    </rdf:RDF>
  </metadata>
  <g
     inkscape:label="Layer 1"
     inkscape:groupmode="layer"
     id="layer1"
     transform="translate(-157.8973,-25.241808)">
    <path
       style="fill:#aaaaaa;stroke-width:0.26458332"
       inkscape:connector-curvature="0"
       id="la"
       d="m 157.89755,27.41087 c 0.0333,-0.136261 -0.01,-0.331259 0.118,-0.428625 0.073,-0.05583 0.27226,0.0069 0.28575,-0.117475 -0.17277,0.102393 -0.0349,-0.205582 -0.013,-0.261409 0.036,-0.0926 0.0349,-0.142875 0.13547,-0.187589 0.0844,-0.03757 0.24791,-0.123561 0.22198,-0.240242 0.14394,0.08123 0.0228,0.468313 0.27728,0.364067 0.1487,-0.06112 0.1524,0.0085 0.28179,0.05821 0.18282,0.07038 0.0185,-0.152135 0.0143,-0.166423 -0.0357,-0.116681 0.0323,-0.201612 0.0175,-0.309298 -0.0151,-0.107685 -0.10346,-0.210079 -0.16696,-0.293423 -0.0717,-0.09393 -0.13493,-0.184679 -0.14261,-0.307975 -0.002,-0.02752 0.0878,-0.332316 0.13785,-0.270668 0.0503,0.06191 0.0394,0.09895 0.15134,0.07011 0.17251,-0.04445 0.19077,0.07964 0.28972,0.178594 0.10478,0.104775 0.22543,0.203464 0.33602,0.302948 0.0849,0.07646 0.0749,0.247385 0.19024,0.282046 0.0484,-0.05159 0.0598,-0.110596 0.0339,-0.176477 0.027,0.10451 0.14738,0.08228 0.17251,0.200025 0.0257,0.11721 -0.0471,0.254793 -0.0119,0.390525 0.10345,0.396081 0.5199,0.413808 0.81386,0.594518 0.073,-0.09843 0.0463,-0.1905 0.17621,-0.243946 0.15584,-0.0635 0.2712,-0.004 0.3982,0.08758 0.0733,0.05292 0.18176,0.112183 0.19632,0.211402 0.0135,0.08758 -0.14261,0.08546 -0.16484,0.171714 0.0778,0.03175 0.22225,0.0085 0.25241,0.110596 0.0233,0.07832 0.082,0.07541 0.14208,0.10795 0.25427,0.136525 0.16061,0.160867 0.0339,0.352954 0.17277,0.04974 -0.16086,0.254529 -0.28416,0.236009 -0.0299,-0.0048 -0.33338,-0.0971 -0.35428,-0.03413 -0.0204,0.06059 0.10769,0.164042 0.0839,0.269082 -0.0987,0.0011 -0.19711,0.11086 -0.0577,0.153723 0.23362,0.07223 0.48498,0.2921 0.69082,0.435768 0.0812,0.05689 0.47017,0.06456 0.45958,0.205317 -0.008,0.110596 -0.0802,0.142346 0.0164,0.248179 0.0712,0.07779 0.19129,0.199231 0.27649,0.201348 0.0876,0.0019 0.14234,0.154781 0.17251,0.217223 0.069,0.142875 0.17277,0.248708 0.28125,0.36195 0.0622,0.06509 0.28813,0.373592 0.38285,0.345546 0.0923,-0.02725 0.16642,0.275696 0.2577,0.314589 0.10743,0.04604 0.0646,0.267494 0.13309,0.356923 0.0227,0.02963 0.0773,0.144463 0.118,0.150813 0.0492,0.0077 0.1024,-0.04472 0.15082,-0.01667 0.0982,0.05715 0.0651,0.151606 0.19155,0.18124 0.11907,0.02752 0.24871,0.205845 0.38048,0.256116 -0.0442,0.100277 -0.17833,0.14605 -0.21617,0.249767 -0.0413,0.112977 0.26723,0.257704 0.31194,0.339725 0.068,0.125148 0.21405,0.124619 0.14103,0.306123 -0.0217,0.05397 -0.0823,0.112712 -0.0836,0.173302 -0.002,0.05688 0.0614,0.09578 0.0606,0.162983 -0.002,0.1905 -0.0471,0.220134 -0.20108,0.256646 -0.13256,0.03149 -0.16775,0.20664 -0.34952,0.20955 -0.17542,0.0026 -0.20955,-0.229129 -0.31882,-0.24421 -0.0725,-0.01005 -0.0362,0.08916 -0.0841,0.109273 -0.0479,0.01984 -0.10292,0.02461 -0.15266,0.03783 -0.0587,0.01535 -0.22781,0.100277 -0.18786,0.173831 0.0532,0.0971 0.18362,0.206904 0.0868,0.3175 -0.11854,0.135202 -0.39503,-0.241564 -0.5895,-0.170656 -0.10927,0.03995 -0.28204,-0.154517 -0.17621,-0.243681 0.0794,-0.06668 0.22596,-0.128323 0.21299,-0.252413 -0.0124,-0.115358 0.0325,-0.285485 0.008,-0.383646 -0.0167,-0.06509 -0.12621,-0.07276 -0.12621,-0.147108 0,-0.06826 0.0582,-0.12991 0.0839,-0.189177 -0.0328,0.01587 -0.0619,0.01402 -0.0876,-0.0056 -0.0167,-0.09419 0.20187,-0.217752 0.059,-0.362479 -0.0773,-0.07858 -0.38391,-0.17145 -0.18944,-0.304271 -0.32438,-0.127 -0.6559,-0.345017 -0.70697,-0.728927 -0.04,-0.29845 0.0616,-0.716227 -0.245,-0.897996 -0.31248,-0.185208 -0.41857,-0.635265 -0.78132,-0.712523 -0.0468,-0.01005 -0.66833,-0.192617 -0.46011,0.03678 -0.14631,0.02037 -0.10319,0.2286 -0.16827,0.294217 -0.0254,0.02593 -0.17198,0.02858 -0.23045,0.08123 -0.0902,0.08176 -0.12515,-0.0063 -0.18945,-0.05397 -0.10715,-0.07964 -0.28257,-0.194204 -0.41037,-0.234421 -0.12991,-0.04075 -0.13467,0.223837 -0.28813,0.131498 -0.0111,0.230981 -0.28839,0.391848 -0.42254,0.551921 -0.0616,0.07382 -0.14949,0.03307 -0.21643,-0.03704 -0.0746,-0.07779 -0.0151,-0.221192 0.0185,-0.303212 0.0524,-0.12753 0.0685,-0.213784 0.0487,-0.352161 -0.0116,-0.08255 -0.0934,-0.224631 -0.0828,-0.296598 0.0209,-0.0418 0.0474,-0.08017 0.0796,-0.1143 0.0426,-0.0717 -0.002,-0.07382 0.003,-0.146579 0.0106,-0.159015 0.0635,-0.250825 -0.0167,-0.40296 -0.11297,-0.214577 0.004,-0.540544 -0.35903,-0.440796 -0.0434,-2.65e-4 -0.0754,0.01667 -0.0968,0.05133 -0.0355,0.08149 -0.0455,0.01085 -0.1143,0.02461 -0.12065,0.02408 -0.17595,-0.02461 -0.23522,-0.140229 -0.0841,-0.164835 0.13706,-0.36486 0.0402,-0.487363 -0.0394,-0.05027 -0.15531,-0.209814 -0.20929,-0.235214 -0.10768,-0.05001 -0.12779,0.07567 -0.21828,0.101071 -0.005,-0.02831 -0.0111,-0.05636 -0.0169,-0.0844 z" />
  </g>
</svg>
