<?xml version="1.0" encoding="UTF-8" standalone="no"?>
<!-- Created with Inkscape (http://www.inkscape.org/) -->

<svg
   xmlns:dc="http://purl.org/dc/elements/1.1/"
   xmlns:cc="http://creativecommons.org/ns#"
   xmlns:rdf="http://www.w3.org/1999/02/22-rdf-syntax-ns#"
   xmlns:svg="http://www.w3.org/2000/svg"
   xmlns="http://www.w3.org/2000/svg"
   xmlns:sodipodi="http://sodipodi.sourceforge.net/DTD/sodipodi-0.dtd"
   xmlns:inkscape="http://www.inkscape.org/namespaces/inkscape"
   width="2.1574521mm"
   height="2.1365449mm"
   viewBox="0 0 2.1574519 2.1365449"
   version="1.1"
   id="svg7070"
   inkscape:version="0.92.4 (5da689c313, 2019-01-14)"
   sodipodi:docname="lesotho.svg">
  <defs
     id="defs7064" />
  <sodipodi:namedview
     id="base"
     pagecolor="#ffffff"
     bordercolor="#666666"
     borderopacity="1.0"
     inkscape:pageopacity="0.0"
     inkscape:pageshadow="2"
     inkscape:zoom="7.9195959"
     inkscape:cx="10.134103"
     inkscape:cy="-13.697798"
     inkscape:document-units="mm"
     inkscape:current-layer="layer1"
     showgrid="false"
     inkscape:window-width="958"
     inkscape:window-height="1008"
     inkscape:window-x="-7"
     inkscape:window-y="0"
     inkscape:window-maximized="0" />
  <metadata
     id="metadata7067">
    <rdf:RDF>
      <cc:Work
         rdf:about="">
        <dc:format>image/svg+xml</dc:format>
        <dc:type
           rdf:resource="http://purl.org/dc/dcmitype/StillImage" />
        <dc:title></dc:title>
      </cc:Work>
    </rdf:RDF>
  </metadata>
  <g
     inkscape:label="Layer 1"
     inkscape:groupmode="layer"
     id="layer1"
     transform="translate(-160.34189,-42.392488)">
    <path
       inkscape:connector-curvature="0"
       style="fill:#aaaaaa;stroke:#ffffff;stroke-width:0.04116917"
       d="m 160.37356,43.481103 c 0.11139,0.110596 0.1016,0.269346 0.19182,0.382852 0.0778,0.09816 0.0513,0.228336 0.13309,0.309034 0.10292,0.101864 0.37094,0.445029 0.54848,0.300831 0.0778,-0.06297 0.1434,-0.273315 0.19817,-0.36486 0.0863,-0.144198 0.23257,-0.115359 0.37306,-0.154517 0.10213,-0.02831 0.32041,-0.1143 0.36407,-0.221721 0.0556,-0.137583 0.0616,-0.216429 0.15954,-0.337873 0.0368,-0.04551 0.15426,-0.170127 0.13468,-0.237067 -0.0611,-0.21246 -0.15002,-0.226218 -0.29078,-0.373062 -0.11007,-0.115358 -0.22728,-0.222779 -0.33629,-0.338931 -0.0939,-0.100277 -0.25532,0.05847 -0.34104,0.09499 -0.095,0.04075 -0.14023,0.08467 -0.23363,0.136525 -0.10901,0.06006 -0.22225,0.03836 -0.30903,0.149754 -0.0937,0.120386 -0.14023,0.269346 -0.22384,0.396346 -0.096,0.144992 -0.23575,0.161396 -0.3683,0.257704 z"
       id="ls" />
  </g>
</svg>
