<?xml version="1.0" encoding="UTF-8" standalone="no"?>
<!-- Created with Inkscape (http://www.inkscape.org/) -->

<svg
   xmlns:dc="http://purl.org/dc/elements/1.1/"
   xmlns:cc="http://creativecommons.org/ns#"
   xmlns:rdf="http://www.w3.org/1999/02/22-rdf-syntax-ns#"
   xmlns:svg="http://www.w3.org/2000/svg"
   xmlns="http://www.w3.org/2000/svg"
   xmlns:sodipodi="http://sodipodi.sourceforge.net/DTD/sodipodi-0.dtd"
   xmlns:inkscape="http://www.inkscape.org/namespaces/inkscape"
   width="6.5921383mm"
   height="9.7604551mm"
   viewBox="0 0 6.5921383 9.7604517"
   version="1.1"
   id="svg7070"
   inkscape:version="0.92.4 (5da689c313, 2019-01-14)"
   sodipodi:docname="oman.svg">
  <defs
     id="defs7064" />
  <sodipodi:namedview
     id="base"
     pagecolor="#ffffff"
     bordercolor="#666666"
     borderopacity="1.0"
     inkscape:pageopacity="0.0"
     inkscape:pageshadow="2"
     inkscape:zoom="7.9195959"
     inkscape:cx="25.399383"
     inkscape:cy="6.4584943"
     inkscape:document-units="mm"
     inkscape:current-layer="layer1"
     showgrid="false"
     inkscape:window-width="958"
     inkscape:window-height="1008"
     inkscape:window-x="-7"
     inkscape:window-y="0"
     inkscape:window-maximized="0" />
  <metadata
     id="metadata7067">
    <rdf:RDF>
      <cc:Work
         rdf:about="">
        <dc:format>image/svg+xml</dc:format>
        <dc:type
           rdf:resource="http://purl.org/dc/dcmitype/StillImage" />
        <dc:title></dc:title>
      </cc:Work>
    </rdf:RDF>
  </metadata>
  <g
     inkscape:label="Layer 1"
     inkscape:groupmode="layer"
     id="layer1"
     transform="translate(-155.79519,-27.417114)">
    <g
       transform="matrix(0.26458333,0,0,0.26458333,40.505119,-67.199737)"
       id="om">
      <path
         style="fill:#aaaaaa"
         inkscape:connector-curvature="0"
         id="path4692"
         d="m 457.373,381.271 c 0.296,-0.263 0.398,-0.613 0.54,-0.967 0.081,-0.105 0.175,-0.196 0.285,-0.272 0.12,-0.142 -0.187,-0.583 -0.221,-0.73 -0.164,0.688 -0.883,1.201 -0.604,1.969 z" />
      <path
         style="fill:#aaaaaa"
         inkscape:connector-curvature="0"
         id="path4696"
         d="m 447.08,358.75 c 0.092,-0.256 0.208,-0.499 0.349,-0.73 0.3,0.336 0.589,-0.121 0.446,-0.413 0.257,0.14 0.774,1.016 0.127,0.857 0.417,0.289 0.112,2.06 -0.347,1.979 -0.624,-0.111 0.221,-1.653 -0.575,-1.693 z" />
      <path
         style="fill:#aaaaaa"
         inkscape:connector-curvature="0"
         id="path4786"
         d="m 435.742,385.716 c 2.591,-1.034 5.199,-2.023 7.8,-3.033 0.975,-0.379 1.977,-0.395 2.104,-1.545 0.161,-1.471 0.604,-2.956 0.907,-4.404 0.208,-0.99 0.783,-2.222 0.214,-3.158 -0.409,-0.675 -1.24,-1.251 -1.499,-1.995 -0.325,-0.937 1.442,-4.158 0.573,-4.668 0.39,-0.466 1.156,-0.063 1.495,-0.509 0.372,-0.488 -0.226,-0.325 -0.348,-0.571 -0.325,-0.655 -0.585,-2.095 -0.147,-2.76 0.204,-0.311 0.619,0.167 0.555,0.412 -0.203,0.767 0.571,-0.064 0.694,-0.181 0.378,-0.361 0.375,-0.3 0.61,0.209 0.392,0.846 0.904,1.646 1.528,2.34 0.987,1.096 2.368,1.49 3.773,1.772 0.658,0.132 1.217,0.391 1.887,0.466 0.896,0.101 1.385,1.191 1.897,1.8 0.414,0.491 0.695,1.084 1.107,1.554 0.43,0.489 0.656,0.51 1.224,0.736 1.329,0.531 -0.175,2.417 -0.439,3.197 -0.5,1.473 -2.078,2.241 -2.506,3.818 -0.101,0.372 -0.238,1.449 -0.828,1.272 -0.468,-0.141 -0.376,-1.031 -0.974,-0.66 -0.713,0.432 -0.674,1.982 -0.857,2.619 -0.24,0.834 0.031,1.479 0.252,2.287 0.179,0.66 0.292,1.159 -0.51,1.184 -1.288,0.038 -2.705,0.418 -3.022,1.807 -0.124,0.546 -0.224,1.146 -0.566,1.606 -0.427,0.574 -1.276,0.543 -1.951,0.594 -0.817,0.061 -1.145,0.193 -1.624,0.837 -0.465,0.623 -0.163,0.742 -0.202,1.453 -0.03,0.566 -0.608,0.978 -1.064,1.199 -0.22,0.106 -0.44,0.249 -0.665,0.072 -0.388,-0.306 -0.708,-0.223 -1.189,-0.223 -1.394,0 -2.454,1.293 -3.859,1.253 -0.91,-0.025 -0.66,-2.194 -1.638,-2.301 0.415,-0.433 -0.597,-1.953 -0.802,-2.334 -0.721,-1.327 -1.459,-2.709 -1.93,-4.145 z" />
    </g>
  </g>
</svg>
