<?xml version="1.0" encoding="UTF-8" standalone="no"?>
<!-- Created with Inkscape (http://www.inkscape.org/) -->

<svg
   xmlns:dc="http://purl.org/dc/elements/1.1/"
   xmlns:cc="http://creativecommons.org/ns#"
   xmlns:rdf="http://www.w3.org/1999/02/22-rdf-syntax-ns#"
   xmlns:svg="http://www.w3.org/2000/svg"
   xmlns="http://www.w3.org/2000/svg"
   xmlns:sodipodi="http://sodipodi.sourceforge.net/DTD/sodipodi-0.dtd"
   xmlns:inkscape="http://www.inkscape.org/namespaces/inkscape"
   width="5.1219988mm"
   height="2.4215815mm"
   viewBox="0 0 5.1219988 2.4215815"
   version="1.1"
   id="svg7070"
   inkscape:version="0.92.4 (5da689c313, 2019-01-14)"
   sodipodi:docname="panama.svg">
  <defs
     id="defs7064" />
  <sodipodi:namedview
     id="base"
     pagecolor="#ffffff"
     bordercolor="#666666"
     borderopacity="1.0"
     inkscape:pageopacity="0.0"
     inkscape:pageshadow="2"
     inkscape:zoom="1.4"
     inkscape:cx="13.688123"
     inkscape:cy="-60.804944"
     inkscape:document-units="mm"
     inkscape:current-layer="layer1"
     showgrid="false"
     inkscape:window-width="958"
     inkscape:window-height="1008"
     inkscape:window-x="-7"
     inkscape:window-y="0"
     inkscape:window-maximized="0" />
  <metadata
     id="metadata7067">
    <rdf:RDF>
      <cc:Work
         rdf:about="">
        <dc:format>image/svg+xml</dc:format>
        <dc:type
           rdf:resource="http://purl.org/dc/dcmitype/StillImage" />
        <dc:title></dc:title>
      </cc:Work>
    </rdf:RDF>
  </metadata>
  <g
     inkscape:label="Layer 1"
     inkscape:groupmode="layer"
     id="layer1"
     transform="translate(-206.26195,-86.659795)">
    <g
       transform="matrix(0.26458333,0,0,0.26458333,210.56035,-24.890626)"
       id="pa">
      <path
         style="fill:#aaaaaa"
         inkscape:connector-curvature="0"
         d="m -16.175,426.662 c -0.305,-0.293 0.469,-0.66 0.524,-0.938 0.105,-0.52 -0.433,-1.088 0.289,-1.4 0.588,-0.254 -0.495,-0.619 -0.495,-0.838 0,-0.451 0.387,-1.539 0.285,-1.715 0.421,-0.301 0.791,0.57 1.08,-0.031 0.22,0.193 0.541,0.439 0.635,0.73 0,0.211 -0.011,0.424 -0.032,0.635 0.038,0.166 0.332,-0.016 0.308,0.225 -0.104,1.039 0.917,0.664 1.566,0.791 -0.125,-0.221 -0.262,-0.432 -0.413,-0.635 0.549,-0.168 1.084,1.168 1.72,1.256 1.339,0.186 2.09,-0.857 3.22,-1.279 0.774,-0.289 1.679,-0.52 2.265,-1.111 0.321,-0.324 0.5,-0.74 1.018,-0.744 0.578,-0.006 1.14,0.252 1.719,0.195 -0.104,0.131 -0.2,0.27 -0.286,0.414 1.13,-0.127 2.669,0.137 3.498,1.004 0.395,0.412 1.28,2.135 1.998,1.918 -0.533,0.82 0.052,1.221 0.331,2.07 0.3,0.914 -0.632,1.803 -1.315,2.281 -0.074,-0.234 -0.19,-0.447 -0.35,-0.635 -0.232,0.225 -0.084,0.395 -0.123,0.656 -0.052,0.35 -0.459,0.779 -0.576,1.154 -0.861,-0.621 -1.609,-2.158 -1.652,-3.209 0.722,0.27 0.473,-0.6 0.781,-0.928 0.342,-0.365 1.242,0.537 1.538,0.705 -0.198,-0.242 -0.477,-0.381 -0.717,-0.574 -0.342,-0.273 -0.28,-0.729 -0.49,-1.076 0.088,0.268 -0.058,0.502 -0.286,0.635 0.143,-0.641 -0.398,0.025 -0.635,-0.572 0.074,0.258 0.063,0.512 -0.032,0.762 -0.368,-0.676 -0.39,-1.359 -0.989,-1.705 -0.271,-0.156 -0.527,-0.34 -0.77,-0.537 -0.432,-0.35 -0.217,-0.332 -0.715,-0.303 -0.687,0.039 -1.854,0.186 -2.05,1.059 -0.149,0.666 -1.107,1.807 -1.925,1.674 -1.291,-0.209 0.098,1.701 0.388,2.018 0.223,0.244 0.698,0.744 0.427,1.105 -0.239,0.32 -0.792,0.109 -1.089,0.373 -0.389,0.346 -1.284,0.883 -1.834,0.578 -0.131,-0.072 -0.084,-0.951 -0.169,-1.164 -0.167,-0.418 -0.042,-1.061 -0.294,-1.412 -0.172,0.199 -0.352,0.209 -0.54,0.031 0.545,1.053 -0.647,1.316 -1.144,0.43 -0.421,-0.752 -0.406,-1.303 -1.298,-1.621 -0.291,-0.104 -0.59,0.152 -0.789,-0.164 -0.248,-0.395 -0.578,-0.082 -0.772,-0.393 -0.313,0.447 -0.775,-0.023 -1.175,0.191 -0.445,0.236 -0.128,0.758 -0.445,1.049 0.065,-0.334 -0.013,-0.668 -0.19,-0.955 z"
         id="path2682" />
      <path
         style="fill:#aaaaaa"
         inkscape:connector-curvature="0"
         d="m -14.269,426.755 c 0,0.232 0.075,0.223 0.223,-0.031 -0.086,-0.057 -0.161,-0.045 -0.223,0.031 z"
         id="path4792" />
      <path
         style="fill:#aaaaaa"
         inkscape:connector-curvature="0"
         d="m -12.172,429.074 c -0.2,0.205 -0.544,0.357 -0.438,0.713 0.088,0.293 0.382,0.479 0.66,0.273 -0.208,-0.295 -0.141,-0.656 -0.222,-0.986 z"
         id="path4794" />
      <path
         style="fill:#aaaaaa"
         inkscape:connector-curvature="0"
         d="m -10.553,429.71 c 0.245,-0.074 0.457,-0.201 0.636,-0.383 -0.245,0.075 -0.457,0.202 -0.636,0.383 z"
         id="path4796" />
      <path
         style="fill:#aaaaaa"
         inkscape:connector-curvature="0"
         d="m -2.357,425.962 c -0.317,0.051 -0.353,0.424 -0.286,0.668 0.445,0.065 0.366,-0.402 0.286,-0.668 z"
         id="path4802" />
    </g>
  </g>
</svg>
