<?xml version="1.0" encoding="UTF-8" standalone="no"?>
<!-- Created with Inkscape (http://www.inkscape.org/) -->

<svg
   xmlns:dc="http://purl.org/dc/elements/1.1/"
   xmlns:cc="http://creativecommons.org/ns#"
   xmlns:rdf="http://www.w3.org/1999/02/22-rdf-syntax-ns#"
   xmlns:svg="http://www.w3.org/2000/svg"
   xmlns="http://www.w3.org/2000/svg"
   xmlns:sodipodi="http://sodipodi.sourceforge.net/DTD/sodipodi-0.dtd"
   xmlns:inkscape="http://www.inkscape.org/namespaces/inkscape"
   width="1.1065956mm"
   height="1.6616632mm"
   viewBox="0 0 1.1065956 1.6616626"
   version="1.1"
   id="svg7070"
   inkscape:version="0.92.4 (5da689c313, 2019-01-14)"
   sodipodi:docname="qatar.svg">
  <defs
     id="defs7064" />
  <sodipodi:namedview
     id="base"
     pagecolor="#ffffff"
     bordercolor="#666666"
     borderopacity="1.0"
     inkscape:pageopacity="0.0"
     inkscape:pageshadow="2"
     inkscape:zoom="7.9195959"
     inkscape:cx="4.3879357"
     inkscape:cy="-10.485326"
     inkscape:document-units="mm"
     inkscape:current-layer="layer1"
     showgrid="false"
     inkscape:window-width="958"
     inkscape:window-height="1008"
     inkscape:window-x="-7"
     inkscape:window-y="0"
     inkscape:window-maximized="0" />
  <metadata
     id="metadata7067">
    <rdf:RDF>
      <cc:Work
         rdf:about="">
        <dc:format>image/svg+xml</dc:format>
        <dc:type
           rdf:resource="http://purl.org/dc/dcmitype/StillImage" />
        <dc:title></dc:title>
      </cc:Work>
    </rdf:RDF>
  </metadata>
  <g
     inkscape:label="Layer 1"
     inkscape:groupmode="layer"
     id="layer1"
     transform="translate(-161.35446,-31.032852)">
    <path
       style="fill:#aaaaaa;stroke-width:0.26458332"
       inkscape:connector-curvature="0"
       id="bh"
       d="m 161.35446,31.074514 c 0.0267,0.05609 0.0381,0.114829 0.0336,0.176477 -0.0156,0.0807 0.0825,0.138642 0.10054,0.210079 0.0347,-0.08864 0.0386,-0.570971 -0.13414,-0.386556 z" />
    <path
       style="fill:#aaaaaa;stroke-width:0.26458332"
       inkscape:connector-curvature="0"
       id="qa"
       d="m 161.69022,31.973568 c -0.005,-0.04551 -0.0709,-0.325173 0.0585,-0.193146 -0.007,-0.04524 -0.037,-0.296598 0.0431,-0.08387 0.006,-0.212195 0.082,-0.771525 0.37412,-0.46302 0.073,0.07752 0.21378,0.131762 0.21457,0.253206 5.3e-4,0.08467 -0.0413,0.138112 -0.0606,0.215635 -0.0167,0.06694 0.0243,0.153988 0.0307,0.220927 0.006,0.06694 0.0775,0.06826 0.096,0.126207 0.031,0.09419 0.008,0.180181 -0.0302,0.267493 -0.0659,0.150813 -0.0444,0.26088 -0.20982,0.310621 -0.13758,0.04127 -0.26114,0.150813 -0.35348,-0.05106 -0.0841,-0.18468 -0.11906,-0.406136 -0.16298,-0.602986 z" />
  </g>
</svg>
