<?xml version="1.0" encoding="UTF-8" standalone="no"?>
<!-- Created with Inkscape (http://www.inkscape.org/) -->

<svg
   xmlns:dc="http://purl.org/dc/elements/1.1/"
   xmlns:cc="http://creativecommons.org/ns#"
   xmlns:rdf="http://www.w3.org/1999/02/22-rdf-syntax-ns#"
   xmlns:svg="http://www.w3.org/2000/svg"
   xmlns="http://www.w3.org/2000/svg"
   xmlns:sodipodi="http://sodipodi.sourceforge.net/DTD/sodipodi-0.dtd"
   xmlns:inkscape="http://www.inkscape.org/namespaces/inkscape"
   width="2.6663878mm"
   height="0.76188391mm"
   viewBox="0 0 2.6663879 0.76188366"
   version="1.1"
   id="svg7070"
   inkscape:version="0.92.4 (5da689c313, 2019-01-14)"
   sodipodi:docname="republic_of_the_gambia.svg">
  <defs
     id="defs7064" />
  <sodipodi:namedview
     id="base"
     pagecolor="#ffffff"
     bordercolor="#666666"
     borderopacity="1.0"
     inkscape:pageopacity="0.0"
     inkscape:pageshadow="2"
     inkscape:zoom="7.9195959"
     inkscape:cx="0.70438377"
     inkscape:cy="-11.426036"
     inkscape:document-units="mm"
     inkscape:current-layer="layer1"
     showgrid="false"
     inkscape:window-width="958"
     inkscape:window-height="1008"
     inkscape:window-x="-7"
     inkscape:window-y="0"
     inkscape:window-maximized="0" />
  <metadata
     id="metadata7067">
    <rdf:RDF>
      <cc:Work
         rdf:about="">
        <dc:format>image/svg+xml</dc:format>
        <dc:type
           rdf:resource="http://purl.org/dc/dcmitype/StillImage" />
        <dc:title></dc:title>
      </cc:Work>
    </rdf:RDF>
  </metadata>
  <g
     inkscape:label="Layer 1"
     inkscape:groupmode="layer"
     id="layer1"
     transform="translate(-161.64752,-38.460293)">
    <path
       style="fill:#aaaaaa;stroke-width:0.26458332"
       inkscape:connector-curvature="0"
       id="gm"
       d="m 161.65423,38.911311 c 0.16536,-0.129381 0.14208,-0.122238 0.22489,0.06006 0.0627,0.138113 0.25771,-0.04762 0.35507,0.02408 -0.20928,-0.10795 0.4318,-0.171185 0.47043,-0.193145 -0.16536,-0.01006 -0.36406,-0.0037 -0.51805,0.06376 -0.13229,0.05821 -0.20876,0.09657 -0.2921,-0.05662 -0.0743,-0.136789 0.0749,-0.138641 0.1696,-0.131498 0.2495,0.01879 0.5027,0.0066 0.75274,0.0066 0.0645,0 0.0373,-0.202142 0.18547,-0.159808 0.11933,0.03387 0.23548,-0.112184 0.35798,-0.04789 0.0619,0.03254 0.0762,0.112713 0.13758,0.148961 0.0593,0.03519 0.11457,-0.02858 0.17622,7.93e-4 0.0653,0.03096 0.045,0.129646 0.11747,0.160073 0.077,0.03254 0.17463,-0.02858 0.2458,-0.05001 0.0847,-0.0254 0.28919,-0.0079 0.27596,0.122767 -0.0122,0.12012 -0.20743,0.150283 -0.29951,0.176477 -0.22966,0.06535 -0.8165,-0.387879 -0.90329,-0.279929 -0.10027,0.125412 -0.12382,0.144991 -0.28469,0.141022 -0.0876,-0.0021 -0.34951,0.06376 -0.29633,0.196586 0.0106,0.02593 -0.79216,-0.05874 -0.82497,0.128587 -0.0479,-0.09287 -0.0688,-0.207962 -0.0503,-0.310885 z" />
  </g>
</svg>
