<?xml version="1.0" encoding="UTF-8" standalone="no"?>
<!-- Created with Inkscape (http://www.inkscape.org/) -->

<svg
   xmlns:dc="http://purl.org/dc/elements/1.1/"
   xmlns:cc="http://creativecommons.org/ns#"
   xmlns:rdf="http://www.w3.org/1999/02/22-rdf-syntax-ns#"
   xmlns:svg="http://www.w3.org/2000/svg"
   xmlns="http://www.w3.org/2000/svg"
   xmlns:sodipodi="http://sodipodi.sourceforge.net/DTD/sodipodi-0.dtd"
   xmlns:inkscape="http://www.inkscape.org/namespaces/inkscape"
   width="6.8792319mm"
   height="4.3250079mm"
   viewBox="0 0 6.8792316 4.3250072"
   version="1.1"
   id="svg7070"
   inkscape:version="0.92.4 (5da689c313, 2019-01-14)"
   sodipodi:docname="tajikistan.svg">
  <defs
     id="defs7064" />
  <sodipodi:namedview
     id="base"
     pagecolor="#ffffff"
     bordercolor="#666666"
     borderopacity="1.0"
     inkscape:pageopacity="0.0"
     inkscape:pageshadow="2"
     inkscape:zoom="7.9195959"
     inkscape:cx="22.232396"
     inkscape:cy="-10.65356"
     inkscape:document-units="mm"
     inkscape:current-layer="layer1"
     showgrid="false"
     inkscape:window-width="958"
     inkscape:window-height="1008"
     inkscape:window-x="-7"
     inkscape:window-y="0"
     inkscape:window-maximized="0" />
  <metadata
     id="metadata7067">
    <rdf:RDF>
      <cc:Work
         rdf:about="">
        <dc:format>image/svg+xml</dc:format>
        <dc:type
           rdf:resource="http://purl.org/dc/dcmitype/StillImage" />
        <dc:title></dc:title>
      </cc:Work>
    </rdf:RDF>
  </metadata>
  <g
     inkscape:label="Layer 1"
     inkscape:groupmode="layer"
     id="layer1"
     transform="translate(-156.63312,-28.324994)">
    <path
       style="fill:#aaaaaa;stroke-width:0.26458332"
       inkscape:connector-curvature="0"
       id="tj"
       d="m 156.63338,30.081791 c 0.0701,-0.127529 0.003,-0.336285 0.24395,-0.336285 0.18759,0 0.37174,0.10504 0.56038,0.07567 0.13626,-0.02143 0.16669,-0.119856 0.13944,-0.233892 -0.0101,-0.04286 -0.0164,-0.09049 0.0384,-0.105039 0.12674,-0.03466 -0.008,-0.155046 0.1278,-0.03069 -0.0569,-0.03863 -0.0995,-0.09922 -0.10954,-0.168275 0.0394,0 0.0789,0.0026 0.118,0.0085 -0.0593,-0.126736 -0.20267,-0.01058 -0.29421,-0.08414 0.15504,-0.163248 0.39184,0.02355 0.5707,-0.05027 -0.0847,-0.06668 -0.009,-0.116946 -0.0685,-0.212725 -0.0513,-0.08255 -0.13388,-0.289719 -0.007,-0.351896 0.1225,-0.06033 0.22833,0.115359 0.34898,0.08758 0.16616,-0.03836 0.36989,-0.206639 0.44874,-0.355335 0.0934,0.07223 0.15636,0.178065 0.24738,0.252942 0.11457,0.09419 0.0661,0.1524 -0.0553,0.242358 -0.16483,0.121973 -0.11615,0.09393 0.018,0.185473 0.059,0.03995 0.0958,0.133085 0.16934,0.151342 0.0847,0.02117 0.16801,-0.03863 0.25082,-0.04207 -0.073,0.07885 -0.23627,0.303477 -0.34448,0.31115 0.12117,-0.106363 -0.31989,-0.269081 -0.42016,-0.277548 -0.24051,-0.02037 -0.3818,0.09684 -0.3945,0.302683 -0.17912,-0.190235 -0.0881,0.269082 -0.0362,0.345546 0.0709,0.104511 0.2286,-0.0077 0.31432,-0.01561 0.15319,-0.01376 0.26723,0.06085 0.42783,-0.03572 0.002,0.03069 0.005,0.06138 0.008,0.09234 0.0804,-0.03016 0.17621,-0.07117 0.26379,-0.0463 0.099,0.02778 0.11959,0.134409 0.20373,0.174361 0.12356,0.05927 0.37333,-0.123825 0.47995,-0.184679 0.12012,-0.06879 0.0878,0.06165 0.14341,0.0971 0.0505,0.01376 0.1016,0.02249 0.15345,0.02672 0.0225,0.03096 0.0394,0.06456 0.0503,0.100806 0.1606,0.118269 0.29527,-0.03148 0.46222,0.168275 0.032,-0.298715 0.52599,-0.182298 0.71729,-0.184415 0.0987,-0.0013 0.27913,-0.138641 0.3556,-0.05953 0.064,0.06694 0.0566,0.146579 0.0817,0.227277 0.0328,0.104775 0.16166,0.172773 0.22411,0.260086 -0.18733,0.0013 0.006,0.265377 0.0524,0.32332 0.0661,0.08334 0.15796,0.110067 0.23337,0.0164 0.0796,-0.09869 0.20611,-0.04789 0.30294,-0.01852 0.23151,0.06985 0.38339,0.09102 0.38365,0.361685 0,0.09446 0.16536,0.417777 0.23654,0.461434 0.0675,0.04154 0.018,0.145785 0.0476,0.206639 0.0423,0.08837 0.11324,0.09578 0.17119,0.163248 0.0471,0.05424 -0.0394,0.167217 -0.0953,0.179652 -0.0447,0.0098 -0.11668,-0.06297 -0.15902,-0.07673 -0.0672,-0.02196 -0.35507,-0.128588 -0.41222,-0.06562 -0.0929,0.102659 -0.3556,0.220663 -0.49292,0.162984 0.21934,-0.243682 -0.32332,-0.224367 -0.45402,-0.118534 -0.1188,0.09578 -0.23231,0.102394 -0.29607,0.251884 -0.0677,0.159014 -0.2966,0.08017 -0.40375,0.199231 -0.54214,0.601133 -0.81201,-0.414602 -0.73396,-0.853546 0.0548,-0.306387 -0.1442,-0.03757 -0.2712,-0.151606 -0.0503,-0.04524 0.0259,-0.227542 0.0103,-0.292894 -0.0233,-0.09631 -0.27411,-0.220398 -0.35771,-0.246592 -0.26909,-0.08361 -0.37915,0.341577 -0.53076,0.494507 -0.0807,0.08123 0.0638,0.150548 0.095,0.213254 0.0817,0.16166 -0.0913,0.250825 -0.22305,0.171714 -0.0971,-0.05847 -0.27887,-0.01164 -0.36856,0.04207 -0.12541,0.07514 -0.0511,0.167746 -0.009,0.266171 0.12753,0.297392 -0.27808,0.06376 -0.3474,0.0077 -0.13785,-0.110861 -0.22622,0.01958 -0.37042,0.100542 -0.0778,0.04339 -0.22092,0.03175 -0.20187,0.159808 -0.13177,-0.02805 -0.10055,0.15531 -0.24607,0.0217 -0.15293,-0.140229 -0.27543,-0.430742 -0.1598,-0.631032 0.14657,-0.253735 0.39819,-0.514614 0.0863,-0.735012 -0.24289,-0.171185 -0.0172,-0.655902 -0.35031,-0.663046 -0.0947,-0.0021 -0.22066,0.02937 -0.26617,-0.07514 -0.0608,-0.141287 -0.23177,-0.06853 -0.30771,-0.211402 z" />
  </g>
</svg>
