<?xml version="1.0" encoding="UTF-8" standalone="no"?>
<!-- Created with Inkscape (http://www.inkscape.org/) -->

<svg
   xmlns:dc="http://purl.org/dc/elements/1.1/"
   xmlns:cc="http://creativecommons.org/ns#"
   xmlns:rdf="http://www.w3.org/1999/02/22-rdf-syntax-ns#"
   xmlns:svg="http://www.w3.org/2000/svg"
   xmlns="http://www.w3.org/2000/svg"
   xmlns:sodipodi="http://sodipodi.sourceforge.net/DTD/sodipodi-0.dtd"
   xmlns:inkscape="http://www.inkscape.org/namespaces/inkscape"
   width="4.8529758mm"
   height="5.7170725mm"
   viewBox="0 0 4.8529759 5.7170716"
   version="1.1"
   id="svg7070"
   inkscape:version="0.92.4 (5da689c313, 2019-01-14)"
   sodipodi:docname="uganda.svg">
  <defs
     id="defs7064" />
  <sodipodi:namedview
     id="base"
     pagecolor="#ffffff"
     bordercolor="#666666"
     borderopacity="1.0"
     inkscape:pageopacity="0.0"
     inkscape:pageshadow="2"
     inkscape:zoom="7.9195959"
     inkscape:cx="21.841325"
     inkscape:cy="-0.24495895"
     inkscape:document-units="mm"
     inkscape:current-layer="layer1"
     showgrid="false"
     inkscape:window-width="958"
     inkscape:window-height="1008"
     inkscape:window-x="-7"
     inkscape:window-y="0"
     inkscape:window-maximized="0" />
  <metadata
     id="metadata7067">
    <rdf:RDF>
      <cc:Work
         rdf:about="">
        <dc:format>image/svg+xml</dc:format>
        <dc:type
           rdf:resource="http://purl.org/dc/dcmitype/StillImage" />
        <dc:title></dc:title>
      </cc:Work>
    </rdf:RDF>
  </metadata>
  <g
     inkscape:label="Layer 1"
     inkscape:groupmode="layer"
     id="layer1"
     transform="translate(-157.24435,-41.035013)">
    <path
       inkscape:connector-curvature="0"
       style="fill:#aaaaaa;stroke-width:0.26458332"
       d="m 157.24435,46.473253 c 0.0572,-0.158221 0.0389,-0.370946 0.0622,-0.538427 0.0294,-0.210873 0.0317,-0.423334 0.0767,-0.632619 0.0397,-0.183356 0.18653,-0.363273 0.20822,-0.540544 0.0101,-0.08308 -0.0164,-0.165893 -5.3e-4,-0.248443 0.0251,-0.130175 0.14817,-0.09657 0.20744,-0.191294 0.1815,-0.286809 0.46037,-0.517261 0.70591,-0.770996 0.095,-0.09869 0.23415,-0.243946 0.2741,-0.376767 0.0328,-0.109008 -0.17039,-0.223837 -0.2487,-0.265641 -0.063,-0.0336 -0.15823,0.06879 -0.20479,-0.03466 -0.037,-0.08228 -0.007,-0.194204 0.0101,-0.277548 0.0519,-0.254793 -0.0434,-0.460375 0.0852,-0.694531 0.0378,-0.06826 -0.0511,-0.09366 -0.0278,-0.165365 0.0246,-0.07593 0.0905,-0.13282 0.14922,-0.181504 0.0582,-0.04815 0.12674,-0.09155 0.20638,-0.07699 0.0648,0.01138 0.18732,0.146843 0.25135,0.117739 0.0823,-0.03731 0.20267,-0.188648 0.29025,-0.07329 0.0937,0.12356 0.11906,0.16801 0.2831,0.226747 -0.0415,-0.165364 0.16193,-0.210872 0.28099,-0.227806 0.14764,-0.02064 0.32359,-0.128058 0.46805,-0.111125 0.19791,0.02275 0.25162,0.186531 0.46778,0.03678 0.15452,-0.107421 0.2622,-0.268816 0.38047,-0.411956 0.0688,0.0926 0.14182,0.224896 0.10028,0.344223 0.13917,-0.01402 0.0442,0.08176 0.17092,0.134408 0.12435,0.05265 0.17251,0.08784 0.13811,0.233627 -0.0667,0.281517 0.136,0.50165 0.27014,0.737394 0.028,0.05001 0.15902,0.229923 0.15637,0.275431 -0.006,0.09657 0.0569,0.214577 0.0802,0.308505 0.0415,0.167481 -0.0392,0.387614 -0.11165,0.555095 -0.0619,0.142082 -0.0889,0.19685 -0.0587,0.362744 0.0159,0.08572 -0.12383,0.139965 -0.18733,0.171979 -0.12462,0.06244 -0.12964,0.230452 -0.20425,0.354542 -0.0558,0.09313 -0.16696,0.135467 -0.20532,0.23151 -0.0526,0.130175 -0.0934,0.25109 -0.15346,0.377296 -0.0487,0.101865 -0.0172,1.191154 -0.0392,1.191154 -0.83926,0 -1.69227,0.04392 -2.52941,-0.01852 -0.28761,-0.0217 -0.59902,0.03413 -0.77153,0.261937 -0.0572,0.07488 -0.16563,0.255852 -0.28099,0.175683 -0.027,-0.01852 -0.0336,-0.106362 -0.0796,-0.09366 -0.0667,0.01852 -0.12303,0.06006 -0.1942,0.06085 0.008,-0.07699 -2.7e-4,-0.152665 -0.0259,-0.225954 z"
       id="ug" />
  </g>
</svg>
