<?xml version="1.0" encoding="UTF-8" standalone="no"?>
<!-- Created with Inkscape (http://www.inkscape.org/) -->

<svg
   xmlns:dc="http://purl.org/dc/elements/1.1/"
   xmlns:cc="http://creativecommons.org/ns#"
   xmlns:rdf="http://www.w3.org/1999/02/22-rdf-syntax-ns#"
   xmlns:svg="http://www.w3.org/2000/svg"
   xmlns="http://www.w3.org/2000/svg"
   xmlns:sodipodi="http://sodipodi.sourceforge.net/DTD/sodipodi-0.dtd"
   xmlns:inkscape="http://www.inkscape.org/namespaces/inkscape"
   width="284.92502mm"
   height="50.716866mm"
   viewBox="0 0 284.92502 50.716866"
   version="1.1"
   id="svg7070"
   inkscape:version="0.92.4 (5da689c313, 2019-01-14)"
   sodipodi:docname="canada.svg">
  <defs
     id="defs7064" />
  <sodipodi:namedview
     id="base"
     pagecolor="#ffffff"
     bordercolor="#666666"
     borderopacity="1.0"
     inkscape:pageopacity="0.0"
     inkscape:pageshadow="2"
     inkscape:zoom="1.4"
     inkscape:cx="530.0165"
     inkscape:cy="69.443537"
     inkscape:document-units="mm"
     inkscape:current-layer="layer1"
     showgrid="false"
     inkscape:window-width="1920"
     inkscape:window-height="1017"
     inkscape:window-x="-8"
     inkscape:window-y="-8"
     inkscape:window-maximized="1" />
  <metadata
     id="metadata7067">
    <rdf:RDF>
      <cc:Work
         rdf:about="">
        <dc:format>image/svg+xml</dc:format>
        <dc:type
           rdf:resource="http://purl.org/dc/dcmitype/StillImage" />
        <dc:title></dc:title>
      </cc:Work>
    </rdf:RDF>
  </metadata>
  <g
     inkscape:label="Layer 1"
     inkscape:groupmode="layer"
     id="layer1"
     transform="translate(-15.531537,-72.82609)">
    <g
       id="us"
       transform="matrix(0.26458333,0,0,0.26458333,85.81783,21.458824)">
      <path
         d="m -97.874,277.812 c -0.016,-0.168 0.016,-0.327 0.096,-0.477 -0.22,0.128 -0.382,0.348 -0.413,0.604 0.106,-0.043 0.212,-0.085 0.317,-0.127 z"
         id="path3780"
         inkscape:connector-curvature="0"
         style="fill:#aaaaaa" />
      <path
         d="m -97.461,276.637 c -0.137,0.055 -0.201,0.161 -0.19,0.318 0.063,-0.106 0.127,-0.212 0.19,-0.318 z"
         id="path3782"
         inkscape:connector-curvature="0"
         style="fill:#aaaaaa" />
      <path
         d="m -95.809,274.699 c -0.392,-0.242 -0.567,0.261 -0.286,0.508 -0.134,-0.267 0.025,-0.448 0.286,-0.508 z"
         id="path3784"
         inkscape:connector-curvature="0"
         style="fill:#aaaaaa" />
      <path
         d="m -96.032,274.096 c 0.277,0.326 -0.117,0.244 -0.305,0.375 -0.312,0.218 -0.08,0.554 -0.299,0.832 0.471,-0.025 0.39,0.478 0,0.54 -0.474,-0.697 -0.046,-1.383 0.604,-1.747 z"
         id="path3818"
         inkscape:connector-curvature="0"
         style="fill:#aaaaaa" />
      <path
         d="m -118.711,328.669 c 0.011,-0.127 0.021,-0.254 0.032,-0.381 -0.215,0.036 -0.427,0.089 -0.635,0.158 0.107,0.27 0.34,0.417 0.603,0.223 z"
         id="path3764"
         inkscape:connector-curvature="0"
         style="fill:#aaaaaa" />
      <path
         d="m -118.076,328.158 c -0.396,0.614 0.772,0.296 0.985,0.064 -0.326,0.226 -0.658,-0.016 -0.985,-0.064 z"
         id="path3766"
         inkscape:connector-curvature="0"
         style="fill:#aaaaaa" />
      <path
         d="m -115.503,332.319 c -0.053,0 -0.106,0 -0.159,0 0.021,0.255 0.126,0.467 0.318,0.636 0.029,-0.232 -0.024,-0.444 -0.159,-0.636 z"
         id="path3768"
         inkscape:connector-curvature="0"
         style="fill:#aaaaaa" />
      <path
         d="m -114.931,330.384 c 0.244,0.206 0.293,0.789 0.73,0.572 -0.046,-0.402 -0.424,-0.45 -0.73,-0.572 z"
         id="path3770"
         inkscape:connector-curvature="0"
         style="fill:#aaaaaa" />
      <path
         d="m -53.371,353.095 c 0.273,-0.285 0.506,-0.608 0.699,-0.953 -0.465,0.519 -1.311,1.159 -1.271,1.938 0.16,-0.346 0.365,-0.667 0.572,-0.985 z"
         id="path3820"
         inkscape:connector-curvature="0"
         style="fill:#aaaaaa" />
      <path
         d="m -51.211,350.648 c 0,0.074 0,0.148 0,0.223 0.428,-0.317 0.934,-0.527 1.302,-0.921 -0.444,0.214 -0.855,0.491 -1.302,0.698 z"
         id="path3822"
         inkscape:connector-curvature="0"
         style="fill:#aaaaaa" />
      <path
         d="m -96.921,273.302 c -0.334,0.053 -0.436,0.321 -0.19,0.571 0.262,-0.104 0.376,-0.328 0.19,-0.571 z"
         id="path4840"
         inkscape:connector-curvature="0"
         style="fill:#aaaaaa" />
      <path
         d="m -96.032,272.92 c -0.238,0.084 -0.439,0.222 -0.604,0.413 0.273,0.07 0.823,0.018 0.604,-0.413 z"
         id="path4844"
         inkscape:connector-curvature="0"
         style="fill:#aaaaaa" />
      <path
         d="m -96.349,273.492 c -0.121,0.085 -0.194,0.201 -0.222,0.349 0.074,-0.116 0.148,-0.233 0.222,-0.349 z"
         id="path4846"
         inkscape:connector-curvature="0"
         style="fill:#aaaaaa" />
      <path
         d="m -95.396,272.825 c -0.021,0.107 -0.011,0.213 0.032,0.317 -0.011,-0.106 -0.022,-0.211 -0.032,-0.317 z"
         id="path4852"
         inkscape:connector-curvature="0"
         style="fill:#aaaaaa" />
      <path
         d="m -12.617,344.931 c -0.262,-0.134 -0.143,-0.486 -0.032,-0.667 -0.076,0.226 -0.065,0.449 0.032,0.667 z"
         id="path3836"
         inkscape:connector-curvature="0"
         style="fill:#aaaaaa" />
      <path
         d="m 1.264,340.135 c -0.093,0.234 -0.209,0.457 -0.35,0.667 0.025,-0.271 0.142,-0.492 0.35,-0.667 z"
         id="path3860"
         inkscape:connector-curvature="0"
         style="fill:#aaaaaa" />
      <path
         d="m -43.938,346.425 c -0.276,0.26 -0.624,0.426 -0.889,0.699 0.437,-0.263 0.906,-0.492 1.271,-0.858 -0.127,0.053 -0.254,0.106 -0.382,0.159 z"
         id="path3824"
         inkscape:connector-curvature="0"
         style="fill:#aaaaaa" />
      <path
         d="m -33.456,345.407 c -0.199,-0.393 -0.714,-0.231 -0.984,-0.032 0.303,0.214 0.725,0.459 0.984,0.032 z"
         id="path3826"
         inkscape:connector-curvature="0"
         style="fill:#aaaaaa" />
      <path
         d="m -31.931,346.646 c 0.416,-0.897 -0.985,0.106 0,0 z"
         id="path3828"
         inkscape:connector-curvature="0"
         style="fill:#aaaaaa" />
      <path
         d="m -24.847,343.278 c -0.106,0.063 -0.211,0.127 -0.317,0.19 0.31,0.239 0.415,0.176 0.317,-0.19 z"
         id="path3830"
         inkscape:connector-curvature="0"
         style="fill:#aaaaaa" />
      <path
         d="m -11.887,345.152 c 0.409,0.183 0.967,-0.227 1.302,-0.414 -0.271,0.236 -0.932,0.672 -1.302,0.414 z"
         id="path3838"
         inkscape:connector-curvature="0"
         style="fill:#aaaaaa" />
      <path
         d="m 1.328,350.141 c -0.011,0.106 -0.021,0.212 -0.032,0.318 -0.1,-0.423 -0.174,-0.904 0.127,-1.271 0.226,0.317 -0.012,0.645 -0.095,0.953 z"
         id="path3862"
         inkscape:connector-curvature="0"
         style="fill:#aaaaaa" />
      <path
         d="m 1.677,351.983 c 0.191,0.735 0.326,1.525 0.286,2.288 -0.135,-0.753 -0.334,-1.515 -0.286,-2.288 z"
         id="path3864"
         inkscape:connector-curvature="0"
         style="fill:#aaaaaa" />
      <path
         d="m 0.343,361.576 c -0.353,0.47 -0.749,0.899 -1.175,1.303 0.39,-0.349 0.591,-1.215 1.175,-1.303 z"
         id="path3856"
         inkscape:connector-curvature="0"
         style="fill:#aaaaaa" />
      <path
         d="m -5.121,355.952 c -0.021,0.105 -0.042,0.211 -0.064,0.317 0.013,-0.108 0.034,-0.213 0.064,-0.317 z"
         id="path3840"
         inkscape:connector-curvature="0"
         style="fill:#aaaaaa" />
      <path
         d="m -5.058,357.032 c 0.106,0.085 0.212,0.169 0.317,0.254 -0.134,0.02 -0.486,-0.249 -0.317,-0.254 z"
         id="path3842"
         inkscape:connector-curvature="0"
         style="fill:#aaaaaa" />
      <path
         d="m -4.803,357.098 c -0.012,-0.226 -0.044,-0.448 -0.095,-0.668 0.155,0.208 0.187,0.43 0.095,0.668 z"
         id="path3844"
         inkscape:connector-curvature="0"
         style="fill:#aaaaaa" />
      <path
         d="m -4.264,356.907 c 0.117,-0.293 0.368,-0.513 0.667,-0.604 -0.252,0.17 -0.417,0.432 -0.667,0.604 z"
         id="path3848"
         inkscape:connector-curvature="0"
         style="fill:#aaaaaa" />
      <path
         d="m 24.676,323.745 c -0.168,0.031 -0.338,0.042 -0.51,0.031 0.85,-0.257 1.08,-1.235 1.207,-2.001 -0.069,0.689 -0.242,1.427 -0.697,1.97 z"
         id="path3872"
         inkscape:connector-curvature="0"
         style="fill:#aaaaaa" />
      <path
         d="m 35.886,303.19 c -0.123,0.233 -0.339,0.418 -0.6,0.477 0.095,-0.25 0.312,-0.479 0.6,-0.477 z"
         id="path3874"
         inkscape:connector-curvature="0"
         style="fill:#aaaaaa" />
      <path
         d="m 37.951,303.098 c -0.108,0.021 -1.548,0.129 -0.635,0.222 -0.334,0.083 -0.688,0.036 -1.015,0.158 0.731,-0.228 -0.081,-0.125 -0.317,-0.222 0.381,-0.53 0.573,-0.588 1.177,-0.75 0.336,-0.091 0.463,-0.401 0.844,-0.41 0.293,-0.008 0.576,0.096 0.869,0.08 0.45,-0.023 0.923,-0.2 1.403,-0.229 0.731,-0.046 1.217,-0.555 1.901,-0.724 -0.467,0.248 -0.9,0.556 -1.333,0.858 0.399,0.229 0.568,-0.18 0.875,-0.333 0.393,-0.196 1,-0.053 1.442,-0.208 -1.395,1.205 -3.505,1.174 -5.211,1.558 z"
         id="path3876"
         inkscape:connector-curvature="0"
         style="fill:#aaaaaa" />
      <path
         d="m 46.02,299.443 c -0.055,0.279 -0.237,0.519 -0.477,0.667 0.035,-0.261 0.172,-0.616 0.477,-0.667 z"
         id="path4104"
         inkscape:connector-curvature="0"
         style="fill:#aaaaaa" />
      <path
         d="m 47.829,300.078 c 0.188,0.537 -0.663,0.454 -0.949,0.445 0.323,-0.131 0.567,-0.473 0.949,-0.445 z"
         id="path4106"
         inkscape:connector-curvature="0"
         style="fill:#aaaaaa" />
      <path
         d="m 49.258,300.903 c -0.234,0.022 -0.456,-0.021 -0.666,-0.126 0.289,-0.052 0.749,-0.02 0.732,-0.445 0.08,0.203 0.058,0.395 -0.066,0.571 z"
         id="path4108"
         inkscape:connector-curvature="0"
         style="fill:#aaaaaa" />
      <path
         d="m 57.045,289.12 c -0.075,0.106 -0.15,0.211 -0.225,0.318 0.006,-0.161 0.081,-0.266 0.225,-0.318 z"
         id="path4110"
         inkscape:connector-curvature="0"
         style="fill:#aaaaaa" />
      <path
         d="m 57.614,289.468 c 0.013,0.253 -0.126,0.393 -0.38,0.381 0.048,-0.207 0.175,-0.334 0.38,-0.381 z"
         id="path4112"
         inkscape:connector-curvature="0"
         style="fill:#aaaaaa" />
      <path
         d="m 58.218,289.789 c -0.116,0.042 -0.232,0.085 -0.348,0.127 0.109,-0.062 0.225,-0.105 0.348,-0.127 z"
         id="path4114"
         inkscape:connector-curvature="0"
         style="fill:#aaaaaa" />
      <path
         d="m 59.043,288.867 c 0.259,0.41 -0.354,0.564 -0.573,0.762 -0.291,-0.35 0.18,-0.887 0.573,-0.762 z"
         id="path4116"
         inkscape:connector-curvature="0"
         style="fill:#aaaaaa" />
      <path
         d="m 4.44,278.035 c -0.011,-0.074 -0.021,-0.148 -0.032,-0.223 0.293,-0.046 0.751,0.133 0.794,-0.317 -0.656,-0.085 -1.578,0.101 -2.139,0.462 -0.19,0.122 -0.626,0.374 -0.693,0.614 -0.088,0.315 0.312,0.27 0.451,0.163 -0.248,0.093 -0.415,0.298 -0.317,0.572 0.551,-0.539 1.196,-1.027 1.936,-1.271 z"
         id="path4190"
         inkscape:connector-curvature="0"
         style="fill:#aaaaaa" />
      <path
         d="m 4.536,274.953 c -0.345,-0.208 -2.765,0.729 -2.604,1.239 0.916,-0.281 1.701,-0.944 2.604,-1.239 z"
         id="path4192"
         inkscape:connector-curvature="0"
         style="fill:#aaaaaa" />
      <path
         d="m 15.24,282.608 c -0.249,0.159 -0.472,0.35 -0.667,0.572 0.425,-0.033 1.095,0.07 0.667,-0.572 z"
         id="path4194"
         inkscape:connector-curvature="0"
         style="fill:#aaaaaa" />
      <path
         d="m 8.951,284.006 c -0.032,-0.042 -0.064,-0.084 -0.096,-0.127 -0.208,0.175 -0.324,0.397 -0.349,0.667 0.242,-0.081 0.423,-0.28 0.445,-0.54 z"
         id="path4196"
         inkscape:connector-curvature="0"
         style="fill:#aaaaaa" />
      <path
         d="m 2.058,286.77 c -0.375,0.207 -0.271,0.845 0.271,0.336 0.472,-0.443 0.871,-0.954 1.286,-1.448 -0.679,0.095 -0.994,0.811 -1.557,1.112 z"
         id="path4198"
         inkscape:connector-curvature="0"
         style="fill:#aaaaaa" />
      <path
         d="m -265.623,375.108 c 0.148,-0.342 0.646,-0.469 0.635,-0.889 -0.262,0.206 -0.783,0.463 -0.635,0.889 z"
         id="path3630"
         inkscape:connector-curvature="0"
         style="fill:#aaaaaa" />
      <path
         d="m -263.051,374.757 c 0.356,-0.213 1.205,-1.426 0.267,-1.382 -1.103,0.053 -1.664,1.185 -0.267,1.382 z"
         id="path3632"
         inkscape:connector-curvature="0"
         style="fill:#aaaaaa" />
      <path
         d="m -258.254,377.11 c 0.88,0.149 -0.042,-1.588 -0.204,-1.58 -0.219,0.01 -0.996,0.363 -0.994,0.623 0.005,0.62 0.89,0.6 1.198,0.957 z"
         id="path3634"
         inkscape:connector-curvature="0"
         style="fill:#aaaaaa" />
      <path
         d="m -255.363,377.903 c 0.287,0.01 0.506,-0.176 0.477,-0.476 -0.51,0.122 -1.607,-0.497 -1.779,0.317 0.453,-0.039 0.867,0.043 1.302,0.159 z"
         id="path3636"
         inkscape:connector-curvature="0"
         style="fill:#aaaaaa" />
      <path
         d="m -255.776,379.077 c 0.632,-0.184 0.151,-0.853 -0.35,-0.635 0.103,0.219 0.219,0.431 0.35,0.635 z"
         id="path3638"
         inkscape:connector-curvature="0"
         style="fill:#aaaaaa" />
      <path
         d="m -254.188,379.681 c 0.349,-0.138 1.543,-0.124 1.326,-0.8 -0.195,-0.605 -0.703,-0.404 -1.135,-0.485 -0.244,-0.046 -0.588,-0.615 -0.79,-0.238 -0.174,0.324 -0.102,0.502 0.194,0.699 0.405,0.27 0.141,0.483 0.405,0.824 z"
         id="path3642"
         inkscape:connector-curvature="0"
         style="fill:#aaaaaa" />
      <path
         d="m -253.33,385.812 c 0.383,0.131 0.929,-0.497 1.17,-0.712 0.583,-0.518 1.338,-0.515 1.955,-0.946 0.682,-0.477 -0.06,-0.813 -0.235,-1.328 -0.098,-0.287 0.128,-0.495 -0.146,-0.741 -0.31,-0.279 -0.644,-0.423 -0.994,-0.635 -0.289,-0.176 -0.946,-0.768 -1.18,-0.212 -0.101,0.24 0.085,0.392 0.051,0.619 -0.044,0.293 -0.576,0.523 -0.768,0.703 -0.508,0.477 0.035,1.246 -0.045,1.822 -0.089,0.653 -0.508,0.972 0.192,1.43 z"
         id="path3644"
         inkscape:connector-curvature="0"
         style="fill:#aaaaaa" />
      <path
         d="m 763.492,258.055 c 0.115,-0.577 0.771,-0.197 1.143,-0.286 -0.819,-0.104 -2.271,-1.334 -2.956,-0.35 0.287,-0.037 0.687,0.017 0.953,0.127 0.096,0.07 0.151,0.163 0.168,0.279 0.085,0.132 0.546,0.136 0.692,0.23 z"
         id="path3920"
         inkscape:connector-curvature="0"
         style="fill:#aaaaaa" />
      <path
         d="m 767.019,259.516 c -0.183,-0.58 -0.587,-0.602 -0.984,-0.19 0.332,0.042 0.691,-0.025 0.984,0.19 z"
         id="path3922"
         inkscape:connector-curvature="0"
         style="fill:#aaaaaa" />
      <path
         d="m 773.461,231.055 c -0.344,-0.378 -0.971,-0.242 -1.414,-0.375 -0.482,-0.144 -1.082,-0.533 -1.604,-0.389 0.917,0.55 2.142,0.28 3.018,0.764 z"
         id="path3924"
         inkscape:connector-curvature="0"
         style="fill:#aaaaaa" />
      <path
         d="m 779.468,261.453 c -0.027,-0.279 0.123,-0.469 0.415,-0.445 -0.529,-0.197 -0.033,-0.597 -0.636,-0.476 0.055,0.105 0.108,0.211 0.159,0.318 -0.506,0.021 -0.247,0.505 0.062,0.603 z"
         id="path3926"
         inkscape:connector-curvature="0"
         style="fill:#aaaaaa" />
      <path
         d="m 782.771,261.644 c -0.192,-0.127 -0.404,-0.191 -0.636,-0.191 0.212,0.064 0.424,0.127 0.636,0.191 z"
         id="path3928"
         inkscape:connector-curvature="0"
         style="fill:#aaaaaa" />
      <path
         d="m 782.705,261.167 c 0.071,-0.278 -0.033,-0.321 -0.313,-0.127 0.104,0.043 0.209,0.085 0.313,0.127 z"
         id="path3930"
         inkscape:connector-curvature="0"
         style="fill:#aaaaaa" />
      <path
         d="m 784.74,262.184 c -0.199,0 -0.399,0 -0.6,0 0.488,0.254 1.047,0.32 1.56,0.507 0.499,0.183 1.019,0.598 1.581,0.414 -0.815,-0.383 -1.688,-0.635 -2.541,-0.921 z"
         id="path3932"
         inkscape:connector-curvature="0"
         style="fill:#aaaaaa" />
      <path
         d="m 786.044,261.263 c 0.198,-0.407 -0.393,-0.471 -0.635,-0.54 -0.22,0.426 0.352,0.515 0.635,0.54 z"
         id="path3934"
         inkscape:connector-curvature="0"
         style="fill:#aaaaaa" />
      <path
         d="m 794.109,262.279 c -0.093,-0.381 -0.63,-0.763 -0.062,-0.889 -0.454,0.015 -1.326,-0.568 -1.654,-0.032 0.326,0.072 0.704,0.129 0.988,0.317 0.052,0.084 0.067,0.175 0.047,0.273 0.027,0.142 0.563,0.237 0.681,0.331 z"
         id="path3936"
         inkscape:connector-curvature="0"
         style="fill:#aaaaaa" />
      <path
         d="m 793.253,242.331 c 0.131,-0.428 -0.42,-0.407 -0.635,-0.222 0.217,0.058 0.429,0.132 0.635,0.222 z"
         id="path3938"
         inkscape:connector-curvature="0"
         style="fill:#aaaaaa" />
      <path
         d="m 794.685,262.057 c 0.307,-0.486 0.792,0.048 1.143,-0.318 -0.251,-0.193 -0.383,-0.744 -0.795,-0.603 0.1,0.114 0.195,0.229 0.287,0.349 -0.321,0.149 -0.612,0.395 -0.983,0.413 0.115,0.053 0.23,0.106 0.348,0.159 z"
         id="path3940"
         inkscape:connector-curvature="0"
         style="fill:#aaaaaa" />
      <path
         d="m 798.557,261.612 c -0.102,-0.246 -0.006,-0.289 0.286,-0.127 -0.211,-0.177 -0.424,-0.177 -0.635,0 0.116,0.042 0.232,0.085 0.349,0.127 z"
         id="path3944"
         inkscape:connector-curvature="0"
         style="fill:#aaaaaa" />
      <path
         d="m 801.769,260.31 c -0.052,0.305 -1.37,0.299 -1.624,0.445 1.029,0 1.996,-0.413 2.987,-0.413 -0.242,-0.105 -0.465,-0.243 -0.667,-0.414 0.872,-0.084 -0.962,-1.12 -0.922,-0.19 0.46,-0.11 0.761,0.374 0.226,0.572 z"
         id="path3946"
         inkscape:connector-curvature="0"
         style="fill:#aaaaaa" />
      <path
         d="m 805.264,260.723 c 0.392,-0.166 0.855,-0.146 1.266,-0.254 -1.086,-0.111 -2.178,-0.185 -3.269,-0.127 0.294,0.062 0.552,0.24 0.855,0.27 0.382,0.038 0.787,-0.083 1.148,0.111 z"
         id="path3948"
         inkscape:connector-curvature="0"
         style="fill:#aaaaaa" />
      <path
         d="m 807.168,259.896 c 0.105,-0.118 0.156,-0.255 0.155,-0.413 -0.232,-0.087 -0.455,-0.066 -0.667,0.064 0.072,0.237 0.256,0.39 0.512,0.349 z"
         id="path3950"
         inkscape:connector-curvature="0"
         style="fill:#aaaaaa" />
      <path
         d="m 811.012,258.849 c 0.03,-0.16 0.104,-0.298 0.221,-0.414 -0.205,-0.151 -0.427,-0.183 -0.666,-0.095 0.018,0.258 0.2,0.447 0.445,0.509 z"
         id="path3952"
         inkscape:connector-curvature="0"
         style="fill:#aaaaaa" />
      <path
         d="m 762.602,220.317 c -0.663,-0.158 -1.062,0.387 -1.798,0.167 -0.85,-0.254 -1.13,-0.86 -1.823,-1.278 0.693,0.192 1.354,0.434 2.077,0.49 0.687,0.053 1.109,-0.291 1.756,-0.3 1.355,-0.019 2.503,1.147 3.534,1.875 -0.879,-0.463 -3.163,-1.367 -4.16,-1.016 0.137,0.02 0.276,0.041 0.414,0.062 z"
         id="path4038"
         inkscape:connector-curvature="0"
         style="fill:#aaaaaa" />
      <path
         d="m 796.938,262.311 c -0.397,-0.149 -0.314,-0.666 -0.732,-0.794 0.221,0.057 0.444,0.078 0.671,0.063 -0.401,-0.084 -0.906,-0.854 -0.313,-0.669 0.284,0.088 1.114,0.542 1.267,0.796 -0.333,0.127 -0.471,0.702 -0.86,0.318 -0.013,0.095 -0.023,0.19 -0.033,0.286 z"
         id="path4040"
         inkscape:connector-curvature="0"
         style="fill:#aaaaaa" />
      <path
         d="m 797.511,261.39 c 0.314,-0.184 0.688,0.052 0.666,0.414 -0.252,-0.091 -0.474,-0.228 -0.666,-0.414 z"
         id="path4042"
         inkscape:connector-curvature="0"
         style="fill:#aaaaaa" />
      <path
         d="m -98.318,249.827 c -0.477,0.125 -1.039,0.385 -1.302,0.826 0.478,-0.159 0.981,-0.424 1.302,-0.826 z"
         id="path3778"
         inkscape:connector-curvature="0"
         style="fill:#aaaaaa" />
      <path
         d="m -99.843,250.59 c -0.173,0.054 -0.279,0.17 -0.318,0.349 0.11,-0.113 0.216,-0.23 0.318,-0.349 z"
         id="path4136"
         inkscape:connector-curvature="0"
         style="fill:#aaaaaa" />
      <path
         d="m -99.716,243.475 c -0.381,-0.237 -1.231,0.679 -1.048,1.048 0.216,-0.176 0.482,-0.047 0.699,-0.19 0.372,-0.247 0.284,-0.467 0.349,-0.858 z"
         id="path4134"
         inkscape:connector-curvature="0"
         style="fill:#aaaaaa" />
      <path
         d="m -106.26,248.43 c -0.438,-0.119 -0.817,0.237 -0.984,0.604 0.298,-0.25 0.66,-0.396 0.984,-0.604 z"
         id="path4142"
         inkscape:connector-curvature="0"
         style="fill:#aaaaaa" />
      <path
         d="m -105.974,248.017 c -0.145,0.066 -0.25,0.172 -0.318,0.318 0.106,-0.106 0.212,-0.212 0.318,-0.318 z"
         id="path4152"
         inkscape:connector-curvature="0"
         style="fill:#aaaaaa" />
      <path
         d="m -104.163,246.396 c -0.112,0.006 -0.219,0.038 -0.318,0.096 0.106,-0.031 0.212,-0.063 0.318,-0.096 z"
         id="path4166"
         inkscape:connector-curvature="0"
         style="fill:#aaaaaa" />
      <path
         d="m -102.098,240.901 c 0.222,-0.039 0.445,-0.081 0.667,-0.126 -0.255,0.079 -1.299,0.487 -0.445,0.571 -0.787,0.211 -1.318,0.67 -1.906,1.207 0.511,0.123 1.18,-0.262 1.62,-0.477 0.262,-0.128 0.391,-0.436 0.667,-0.54 0.344,-0.13 0.651,0.028 0.953,-0.254 -0.103,-0.078 -0.208,-0.152 -0.317,-0.222 0.48,0.042 0.695,-0.269 0.802,-0.689 0.072,-0.283 0.065,-0.644 0.215,-0.899 0.131,-0.226 0.407,-0.246 0.508,-0.508 0.185,0.593 -0.526,1.033 -0.413,1.62 0.284,-0.54 0.645,-1.569 1.08,-1.97 -0.435,0.012 -0.867,-0.101 -1.302,-0.032 0.042,-0.211 0.084,-0.423 0.127,-0.635 -0.361,-0.042 -1.055,0.973 -0.318,0.572 -0.723,0.73 -1.478,1.448 -1.938,2.382 z"
         id="path3772"
         inkscape:connector-curvature="0"
         style="fill:#aaaaaa" />
      <path
         d="m -101.368,248.715 c 0.456,0.032 0.706,-0.389 0.985,-0.667 -0.148,0.239 -0.328,0.451 -0.54,0.636 0.477,-0.247 0.921,-0.487 1.175,-0.985 -0.102,0.625 -0.784,0.989 -1.334,1.144 0.38,0.158 0.751,-0.113 0.985,-0.381 -0.114,0.237 -0.319,0.428 -0.572,0.508 0.689,0.374 1.791,-0.802 2.157,-1.263 0.205,-0.257 0.491,-0.779 0.217,-1.087 -0.458,-0.515 -1.05,0.344 -1.547,0.253 0.877,0.039 -0.153,0.286 -0.317,0.318 0.81,0.062 -0.031,0.182 -0.228,0.253 -0.205,0.074 -0.071,0.34 -0.276,0.415 -0.321,0.117 -1.072,0.393 -0.705,0.856 z"
         id="path3774"
         inkscape:connector-curvature="0"
         style="fill:#aaaaaa" />
      <path
         d="m -210.543,255.322 c -0.493,-0.836 -2.208,0.523 -2.658,0.757 -1.175,0.611 -2.459,1.105 -3.664,1.689 2.103,-0.823 4.336,-1.342 6.322,-2.446 z"
         id="path3654"
         inkscape:connector-curvature="0"
         style="fill:#aaaaaa" />
      <path
         d="m -211.146,256.212 c 1.004,0.113 2.135,-0.54 3.118,-0.725 0.546,-0.103 2.268,-0.504 2.504,-1.085 -0.217,0.075 -0.439,0.128 -0.667,0.159 0.39,-0.245 1.793,-0.391 1.715,-1.049 -0.426,0.241 -0.883,0.416 -1.334,0.603 0.201,-0.205 0.381,-0.428 0.54,-0.667 -0.579,0.01 -2.975,0.78 -1.302,1.08 -0.272,0.134 -0.543,0.02 -0.826,0.048 -0.319,0.032 -0.484,0.335 -0.826,0.302 0.267,0.578 -2.918,1.021 -3.24,1.175 0.106,0.053 0.212,0.106 0.318,0.159 z"
         id="path3656"
         inkscape:connector-curvature="0"
         style="fill:#aaaaaa" />
      <path
         d="m -205.207,254.561 c 0.285,-0.119 0.569,-0.258 0.794,-0.476 -0.306,0.101 -0.703,0.082 -0.794,0.476 z"
         id="path3658"
         inkscape:connector-curvature="0"
         style="fill:#aaaaaa" />
      <path
         d="m -202.983,253.385 c 0.335,-0.166 0.732,-0.132 1.048,-0.35 -0.818,0.083 0.242,-0.36 -0.497,-0.308 -0.364,0.026 -0.798,0.247 -0.901,0.625 0.117,0.012 0.233,0.023 0.35,0.033 z"
         id="path3660"
         inkscape:connector-curvature="0"
         style="fill:#aaaaaa" />
      <path
         d="m -201.712,253.099 c 0.306,-0.197 0.556,-0.466 0.857,-0.667 -0.398,0.007 -0.734,0.299 -0.857,0.667 z"
         id="path3662"
         inkscape:connector-curvature="0"
         style="fill:#aaaaaa" />
      <path
         d="m -201.236,253.354 c 0.061,-0.256 -0.045,-0.288 -0.318,-0.096 0.106,0.032 0.212,0.063 0.318,0.096 z"
         id="path3664"
         inkscape:connector-curvature="0"
         style="fill:#aaaaaa" />
      <path
         d="m -199.997,253.067 c -0.232,-0.03 -0.444,0.023 -0.635,0.159 0.232,0.03 0.444,-0.023 0.635,-0.159 z"
         id="path3666"
         inkscape:connector-curvature="0"
         style="fill:#aaaaaa" />
      <path
         d="m -197.774,251.289 c -0.609,0.267 -0.553,0.753 0.131,0.741 0.727,-0.014 1.275,-0.592 1.965,-0.741 0.699,-0.151 1.492,0.123 2.152,-0.206 0.102,-0.051 0.442,-0.294 0.576,-0.221 0.257,0.14 0.652,0.391 0.735,-0.081 -0.738,0.107 -0.042,-0.698 -0.032,-0.985 -0.942,-0.22 -1.8,0.49 -2.703,0.347 -0.951,-0.152 -1.926,0.934 -2.824,1.146 z"
         id="path3668"
         inkscape:connector-curvature="0"
         style="fill:#aaaaaa" />
      <path
         d="m -192.215,251.733 c -0.223,0.034 -0.304,0.06 -0.318,0.317 0.251,0.066 0.462,0.003 0.635,-0.191 -0.105,-0.041 -0.211,-0.084 -0.317,-0.126 z"
         id="path3670"
         inkscape:connector-curvature="0"
         style="fill:#aaaaaa" />
      <path
         d="m -188.784,249.986 c -0.275,-0.027 -0.875,0.002 -0.667,0.445 0.25,-0.106 0.473,-0.254 0.667,-0.445 z"
         id="path3672"
         inkscape:connector-curvature="0"
         style="fill:#aaaaaa" />
      <path
         d="m -138.755,234.294 c -0.211,-0.064 -0.505,0.115 -0.667,0.222 0.247,0.002 0.469,-0.072 0.667,-0.222 z"
         id="path3730"
         inkscape:connector-curvature="0"
         style="fill:#aaaaaa" />
      <path
         d="m -137.643,230.451 c -0.25,-0.132 -0.785,0.34 -0.985,0.445 0.336,-0.129 0.666,-0.278 0.985,-0.445 z"
         id="path3732"
         inkscape:connector-curvature="0"
         style="fill:#aaaaaa" />
      <path
         d="m -128.368,232.103 c -0.324,0.314 -0.794,0.405 -1.112,0.73 0.731,-0.105 1.495,-0.325 2.081,-0.794 0.607,-0.486 1.542,-0.363 2.081,-0.953 -0.506,0.101 -0.294,-0.056 -0.063,-0.286 -0.924,0.556 -1.902,1.148 -2.987,1.303 z"
         id="path3742"
         inkscape:connector-curvature="0"
         style="fill:#aaaaaa" />
      <path
         d="m -126.494,230.642 c 0.021,-0.084 0.042,-0.169 0.063,-0.253 -0.414,0.062 -1.374,0.634 -1.397,1.111 0.326,-0.33 0.847,-0.818 1.334,-0.858 z"
         id="path3746"
         inkscape:connector-curvature="0"
         style="fill:#aaaaaa" />
      <path
         d="m -126.526,229.466 c -0.178,0.094 -0.262,0.11 -0.254,0.349 0.085,-0.116 0.17,-0.233 0.254,-0.349 z"
         id="path3748"
         inkscape:connector-curvature="0"
         style="fill:#aaaaaa" />
      <path
         d="m -125.509,228.895 c -0.285,0.079 -0.533,0.263 -0.731,0.476 0.305,-0.051 0.709,-0.073 0.731,-0.476 z"
         id="path3752"
         inkscape:connector-curvature="0"
         style="fill:#aaaaaa" />
      <path
         d="m -122.491,230.737 c -0.18,-0.275 -0.633,-0.263 -0.91,-0.214 -0.205,0.036 -1.199,0.373 -0.424,0.373 -0.259,0.046 -0.471,0.174 -0.635,0.381 0.626,-0.273 1.298,-0.423 1.969,-0.54 z"
         id="path3754"
         inkscape:connector-curvature="0"
         style="fill:#aaaaaa" />
      <path
         d="m -119.157,232.103 c -0.487,0.178 -1.023,0.29 -1.429,0.635 0.504,-0.273 1.064,-0.408 1.588,-0.635 -0.052,0 -0.105,0 -0.159,0 z"
         id="path3760"
         inkscape:connector-curvature="0"
         style="fill:#aaaaaa" />
      <path
         d="m -159.466,244.11 c -0.37,-0.025 -0.744,0.036 -0.984,0.349 0.369,0.096 0.734,-0.091 0.984,-0.349 z"
         id="path3700"
         inkscape:connector-curvature="0"
         style="fill:#aaaaaa" />
      <path
         d="m -154.065,242.235 c -0.524,-0.308 -1.518,-0.2 -1.652,0.508 0.548,-0.177 1.085,-0.389 1.652,-0.508 z"
         id="path3706"
         inkscape:connector-curvature="0"
         style="fill:#aaaaaa" />
      <path
         d="m -151.048,238.678 c -0.203,0.04 -0.361,0.145 -0.477,0.318 0.223,0.07 0.445,0.07 0.667,0 -0.063,-0.106 -0.127,-0.212 -0.19,-0.318 z"
         id="path3712"
         inkscape:connector-curvature="0"
         style="fill:#aaaaaa" />
      <path
         d="m -149.491,239.377 c -0.161,-0.058 -0.126,-0.117 -0.318,0.064 0.106,-0.022 0.212,-0.043 0.318,-0.064 z"
         id="path3718"
         inkscape:connector-curvature="0"
         style="fill:#aaaaaa" />
      <path
         d="m -146.696,237.058 c -0.348,-0.208 -0.824,0.105 -0.985,0.413 0.357,-0.051 0.708,-0.174 0.985,-0.413 z"
         id="path3720"
         inkscape:connector-curvature="0"
         style="fill:#aaaaaa" />
      <path
         d="m -147.205,236.995 c -0.125,0.033 -0.241,0.085 -0.349,0.158 0.116,-0.053 0.233,-0.106 0.349,-0.158 z"
         id="path3722"
         inkscape:connector-curvature="0"
         style="fill:#aaaaaa" />
      <path
         d="m -146.601,238.297 c -0.139,0.033 -0.255,0.107 -0.35,0.222 0.117,-0.074 0.233,-0.148 0.35,-0.222 z"
         id="path3724"
         inkscape:connector-curvature="0"
         style="fill:#aaaaaa" />
      <path
         d="m -186.657,249.351 c -0.182,-0.092 -0.351,-0.071 -0.508,0.064 0.362,-0.2 0.426,-0.125 0.191,0.222 0.106,-0.095 0.212,-0.191 0.317,-0.286 z"
         id="path3674"
         inkscape:connector-curvature="0"
         style="fill:#aaaaaa" />
      <path
         d="m -182.717,248.43 c -0.54,0.012 -1.011,0.424 -1.239,0.889 0.201,-0.044 0.446,0.072 0.634,-0.009 0.331,-0.145 0.626,-0.625 0.922,-0.848 -0.184,0.185 -0.407,0.27 -0.667,0.254 0.111,-0.103 0.227,-0.198 0.35,-0.286 z"
         id="path3676"
         inkscape:connector-curvature="0"
         style="fill:#aaaaaa" />
      <path
         d="m -182.114,249.637 c 0.49,-0.064 0.786,-0.437 1.112,-0.763 -0.267,0.292 -0.686,0.285 -1.019,0.449 -0.439,0.215 -1.028,0.684 -1.396,1.012 0.393,-0.31 0.897,-0.411 1.303,-0.698 z"
         id="path3678"
         inkscape:connector-curvature="0"
         style="fill:#aaaaaa" />
      <path
         d="m -181.891,248.62 c -0.215,-0.073 -0.509,0.103 -0.667,0.222 0.266,0.156 0.523,0.02 0.667,-0.222 z"
         id="path3680"
         inkscape:connector-curvature="0"
         style="fill:#aaaaaa" />
      <path
         d="m -181.066,248.302 c -0.194,-0.142 -0.502,0.009 -0.635,0.159 0.216,-0.036 0.428,-0.089 0.635,-0.159 z"
         id="path3682"
         inkscape:connector-curvature="0"
         style="fill:#aaaaaa" />
      <path
         d="m -180.049,249.033 c -0.437,0.02 -0.653,0.496 -1.017,0.667 0.429,-0.021 0.731,-0.396 1.017,-0.667 z"
         id="path3684"
         inkscape:connector-curvature="0"
         style="fill:#aaaaaa" />
      <path
         d="m -180.398,249.668 c -0.221,0.125 -0.432,0.263 -0.635,0.414 0.26,-0.038 0.488,-0.199 0.635,-0.414 z"
         id="path3686"
         inkscape:connector-curvature="0"
         style="fill:#aaaaaa" />
      <path
         d="m -180.717,232.103 c 0.104,-0.027 1.439,0.606 1.557,0.857 0.126,-0.611 1.535,-0.449 1.97,-0.492 0.549,-0.055 1.374,-1.074 1.588,-1.541 -0.165,0.044 -0.313,0.015 -0.444,-0.088 -0.322,-0.177 -0.707,0.011 -1.048,-0.022 -0.478,-0.047 -1.163,0.161 -1.563,0.417 -0.413,0.263 -2.493,-0.252 -2.06,0.869 z"
         id="path3688"
         inkscape:connector-curvature="0"
         style="fill:#aaaaaa" />
      <path
         d="m -170.361,236.835 c -0.105,0.117 -0.212,0.233 -0.318,0.35 0.744,0.095 1.454,-0.512 2.033,-0.89 -0.558,0.224 -1.179,0.254 -1.715,0.54 z"
         id="path3690"
         inkscape:connector-curvature="0"
         style="fill:#aaaaaa" />
      <path
         d="m -168.328,244.205 c -0.106,0.063 -0.212,0.127 -0.318,0.19 0.252,0.041 0.475,-0.022 0.667,-0.19 -0.116,0 -0.232,0 -0.349,0 z"
         id="path3694"
         inkscape:connector-curvature="0"
         style="fill:#aaaaaa" />
      <path
         d="m -166.295,246.587 c -0.301,0.008 -0.557,0.22 -0.635,0.508 0.23,-0.146 0.441,-0.315 0.635,-0.508 z"
         id="path3696"
         inkscape:connector-curvature="0"
         style="fill:#aaaaaa" />
      <path
         d="m -160.45,244.173 c -0.556,-0.144 -1.33,0.253 -1.652,0.699 0.54,-0.257 1.157,-0.349 1.652,-0.699 z"
         id="path3698"
         inkscape:connector-curvature="0"
         style="fill:#aaaaaa" />
      <path
         d="m -159.084,244.3 c -0.249,-0.031 -0.472,0.033 -0.667,0.191 0.24,-0.002 0.462,-0.065 0.667,-0.191 z"
         id="path3702"
         inkscape:connector-curvature="0"
         style="fill:#aaaaaa" />
      <path
         d="m -157.814,243.03 c -0.336,0.117 -0.671,0.243 -0.984,0.413 0.588,0.384 1.827,-0.351 2.319,-0.667 -0.115,-0.077 -0.231,-0.151 -0.35,-0.222 0.911,-0.159 1.984,-0.381 2.858,-0.667 -0.031,-0.117 -0.062,-0.233 -0.095,-0.35 0.344,0 1.391,0.325 1.623,-0.044 0.234,-0.373 -0.456,-0.427 -0.638,-0.369 0.643,-0.25 1.145,0.203 1.708,0.062 0.464,-0.116 0.859,-0.45 1.278,-0.666 -0.212,-0.07 -0.424,-0.07 -0.635,0 0.064,-0.27 1.249,-0.887 0.631,-1.055 -0.335,-0.092 -1.237,0.33 -1.425,0.611 0.104,-0.227 0.3,-0.405 0.54,-0.477 -0.216,-0.157 -0.439,-0.305 -0.667,-0.445 0.117,0.989 -1.49,0.398 -1.271,1.017 -0.229,-0.202 -0.494,-0.133 -0.667,0.096 0.191,-0.194 0.34,-0.416 0.444,-0.667 -0.474,-0.092 -0.91,0.127 -1.271,0.413 0.104,0.098 0.209,0.193 0.318,0.286 -0.219,0.065 -0.441,0.119 -0.667,0.158 0.049,0.118 0.102,0.235 0.159,0.35 -0.466,-0.33 -0.973,0.476 -0.985,0.858 -0.261,-0.362 0.397,-0.943 0.164,-1.16 -0.452,-0.419 -1.659,0.278 -2.072,0.476 -0.772,0.368 -0.762,0.693 -1.21,1.312 -0.787,1.088 0.745,0.341 1.182,0.04 -0.349,-0.076 -0.684,0.065 -0.985,0.222 0.297,-0.416 0.868,-0.432 1.303,-0.253 -0.227,0.109 -0.449,0.225 -0.667,0.349 0.489,-0.05 0.908,-0.325 1.366,-0.477 -0.298,0.24 -0.699,0.28 -0.985,0.54 0.842,-0.17 -0.182,0.295 -0.319,0.316 z"
         id="path3704"
         inkscape:connector-curvature="0"
         style="fill:#aaaaaa" />
      <path
         d="m -152.255,239.281 c -1.165,0.053 0.773,0.85 0,0 z"
         id="path3710"
         inkscape:connector-curvature="0"
         style="fill:#aaaaaa" />
      <path
         d="m -150.508,239.186 c 0.632,-0.073 1.131,-0.492 1.683,-0.762 -0.12,0.09 -0.237,0.186 -0.349,0.285 0.508,-0.079 0.911,-0.164 1.334,-0.476 -0.253,0.773 0.768,0.068 0.953,-0.127 -0.262,-0.044 -0.484,0.03 -0.667,0.224 0.177,-0.198 0.389,-0.347 0.635,-0.446 -0.359,0.087 -0.688,-0.21 -0.984,0.127 0.134,-0.575 -0.933,-0.457 -1.055,-0.05 -0.143,0.475 -1.192,-0.206 -1.01,0.527 -0.525,-0.053 -1.24,0.19 -0.54,0.698 z"
         id="path3714"
         inkscape:connector-curvature="0"
         style="fill:#aaaaaa" />
      <path
         d="m -146.22,234.199 c -0.244,0.027 -0.467,0.112 -0.667,0.254 0.267,0.034 0.49,-0.051 0.667,-0.254 z"
         id="path3726"
         inkscape:connector-curvature="0"
         style="fill:#aaaaaa" />
      <path
         d="m -144.758,235.819 c -0.22,-0.121 -0.496,-0.035 -0.667,0.127 0.228,-0.011 0.45,-0.054 0.667,-0.127 z"
         id="path3728"
         inkscape:connector-curvature="0"
         style="fill:#aaaaaa" />
      <path
         d="m -189.928,249.859 c -0.196,0.155 -0.418,0.239 -0.667,0.254 0.244,-0.398 -0.449,-0.815 -0.491,-0.365 -0.049,0.525 -0.884,0.725 -1.352,0.778 0.694,-0.774 1.616,-1.177 2.573,-1.525 -0.826,0.255 -0.005,0.234 0.18,0.139 0.307,-0.158 0.51,-0.316 0.864,-0.395 0.842,-0.188 1.233,-0.579 1.994,-0.918 1.604,-0.713 3.139,-1.192 4.871,-1.495 -0.824,0.178 0.793,0.059 1.017,0 -0.473,0.296 -0.674,0.416 -0.794,0.985 0.414,0.099 1.414,-1.332 1.588,-0.223 0.12,-0.042 0.225,-0.105 0.318,-0.19 -1.103,-0.896 4.638,-2.599 4.972,-2.702 0.774,-0.238 1.525,-0.544 2.297,-0.786 0.373,-0.117 0.591,0.015 0.957,0.04 0.457,0.031 0.675,-0.407 0.951,-0.678 0.559,-0.547 1.513,-0.791 2.208,-1.104 0.891,-0.401 1.807,-0.825 2.783,-0.965 -0.519,0.656 0.643,0.252 0.826,0.064 -0.22,0.15 -0.464,0.214 -0.73,0.191 0.375,-0.169 0.428,-0.622 0.699,-0.89 0.31,-0.307 0.729,-0.463 1.067,-0.733 0.506,-0.405 1.563,-1.321 2.236,-0.76 -0.161,-0.225 -0.422,-0.3 -0.667,-0.159 0.054,-0.86 1.561,-1.276 2.205,-1.487 1.327,-0.436 2.323,-1.281 3.576,-1.848 -0.695,0.195 -1.261,0.674 -1.939,0.907 -0.558,0.191 -1.144,0.29 -1.706,0.473 -0.583,0.19 -2.085,0.87 -2.645,0.367 0.232,-0.143 0.285,-0.321 0.216,-0.576 -0.049,-0.182 0.533,-0.424 0.658,-0.493 0.258,-0.141 1.162,-0.514 0.938,0.148 0.173,-0.014 0.279,-0.109 0.318,-0.286 -0.271,-0.061 -0.559,-0.29 -0.508,-0.604 -0.148,0.326 -0.498,0.532 -0.806,0.68 -0.238,0.114 -1.509,0.711 -0.75,0.051 -0.461,0.381 -1.306,0.719 -1.58,1.233 -0.192,0.359 -0.713,0.91 -1.195,0.714 -0.454,-0.184 0.655,-1.464 -0.116,-1.47 0.116,-0.075 0.232,-0.149 0.35,-0.223 -0.473,-0.201 -0.949,0.315 -1.366,0.445 0.074,-0.127 0.148,-0.254 0.222,-0.381 -0.257,0.096 -0.454,-0.046 -0.54,-0.286 0.114,-0.058 0.23,-0.11 0.35,-0.158 -0.733,-0.461 -2.63,0.63 -3.444,0.713 -0.577,0.059 -1.03,0.475 -1.595,0.613 -0.209,0.044 -0.416,0.099 -0.62,0.166 -0.275,0.1 -0.487,-0.25 -0.79,-0.158 0.492,-0.422 1.432,-0.133 1.804,-0.712 0.517,-0.804 0.719,-0.653 1.563,-1.003 -0.33,-0.044 -0.668,-0.056 -0.985,0.063 0.304,-1.008 1.537,-0.939 2.263,-1.428 0.283,-0.19 0.465,-1.019 0.684,-1.331 0.321,-0.459 0.733,-0.858 1.215,-1.147 -0.23,0 -0.442,0.063 -0.635,0.19 0.919,-1.103 2.337,-1.382 3.589,-1.938 -0.324,0.058 -0.726,0.394 -0.604,-0.095 -0.218,0.343 -3.395,1.583 -3.334,1.733 0.474,1.186 -5.265,1.542 -5.878,1.411 0.071,-0.393 0.447,-0.428 0.73,-0.603 -0.474,-0.138 -0.349,-0.972 0.032,-1.144 -0.729,0.441 -1.161,-0.269 -0.222,-0.571 -0.222,-0.07 -0.445,-0.07 -0.667,0 0.411,-0.581 1.268,-0.549 1.854,-0.845 0.188,-0.094 0.434,-0.199 0.579,-0.358 0.281,-0.309 0.558,-0.1 0.902,-0.228 -0.532,0.535 0.137,0.199 0.404,0.521 0.175,0.212 -1.063,0.599 -1.23,0.654 0.803,-0.114 1.485,-0.617 2.287,-0.73 -0.075,0.261 -0.25,0.488 -0.477,0.635 0.395,0.082 1.155,-0.099 1.445,-0.396 0.286,-0.292 -0.085,-0.509 -0.365,-0.462 0.319,-0.118 0.665,-0.104 0.984,-0.223 -0.425,-0.011 -0.425,-0.096 0,-0.254 -0.757,0.007 -1.412,0.52 -2.184,0.386 -0.529,-0.092 -1.277,-0.471 -1.787,-0.131 0.112,-0.486 1.097,-0.638 1.493,-0.667 -0.25,-0.099 -0.472,-0.056 -0.667,0.127 0.027,-0.252 0.196,-0.451 0.445,-0.508 -0.202,0.095 -0.414,0.159 -0.636,0.19 0.119,-0.408 0.686,-0.507 0.985,-0.73 -0.754,0.094 -1.228,1.134 -2.033,0.985 -0.048,-0.386 0.474,-0.47 0.193,-0.799 -0.235,-0.276 0.815,-0.55 0.949,-0.631 -0.185,-0.178 -0.396,-0.221 -0.635,-0.127 0.176,-0.721 0.962,-0.447 1.493,-0.54 -0.722,0.037 0.11,-0.532 0.546,-0.503 0.642,0.043 1.47,-0.893 2.084,-1.159 0.845,-0.367 1.694,-0.731 2.558,-1.05 0.256,-0.094 0.591,-0.244 0.874,-0.184 0.428,0.091 0.12,0.44 -0.122,0.514 0.244,-0.054 0.477,-0.139 0.699,-0.254 -0.883,-0.153 1.334,-0.913 1.62,-1.017 -0.476,0.13 -0.922,0.345 -1.398,0.477 0.529,-0.76 2.077,-1.686 3.018,-1.366 -0.526,-0.586 1.275,-0.802 1.56,-0.821 0.273,-0.019 0.588,0.061 0.82,0.208 0.441,0.28 -0.985,0.603 -1.141,0.708 1.097,-0.467 2.335,-0.18 3.426,-0.676 1.055,-0.48 2.149,-0.92 3.276,-1.198 -0.12,0.103 -0.236,0.208 -0.35,0.318 1.664,0.059 3.239,-0.156 4.704,-0.984 0.58,-0.328 0.998,-0.785 1.489,-1.222 0.305,-0.272 1.03,-1.539 0.001,-1.096 0.285,-0.133 4.195,-0.762 3.24,-1.652 0.168,-0.045 0.338,-0.088 0.508,-0.127 -0.588,0.044 -1.104,0.317 -1.651,0.508 -0.551,0.192 -1.153,-0.092 -1.684,0.191 0.896,-0.179 -0.339,0.163 -0.417,0.183 -0.398,0.097 -0.804,0.16 -1.206,0.241 -0.839,0.168 -1.524,0.688 -2.347,0.878 0.419,-0.469 0.552,-1.179 -0.318,-0.857 0.118,0.094 0.234,0.189 0.35,0.286 -0.367,0.147 -0.523,0.472 -0.783,0.153 -0.151,-0.185 -0.376,-0.286 -0.601,-0.344 -0.511,-0.13 -1.06,-0.081 -1.578,-0.023 -1.209,0.133 -2.095,0.457 -3.312,0.234 -0.189,-0.035 -1.931,-0.306 -1.519,-0.718 0.204,-0.204 0.867,-0.269 0.749,-0.634 -0.202,-0.619 0.346,-1.146 0.914,-1.24 -0.234,0.094 -0.457,0.211 -0.667,0.35 0.375,0.354 0.887,0.11 1.251,-0.109 0.396,-0.238 0.832,-0.127 1.258,-0.082 -0.53,-0.688 -1.757,-0.526 -2.514,-0.595 -0.256,-0.023 -0.605,-0.437 -0.71,-0.646 -0.188,-0.375 0.976,-0.508 1.191,-0.538 -0.331,0.129 -0.673,0.228 -1.017,0.318 0.813,0.183 1.542,-0.342 2.292,-0.547 0.667,-0.183 1.412,-0.025 2.01,-0.443 1.305,-0.916 3.046,-0.304 4.466,-0.598 -0.12,-0.069 -0.236,-0.144 -0.35,-0.222 0.646,-0.733 1.88,-0.658 2.762,-0.731 1.414,-0.117 2.751,-0.767 4.194,-0.539 -0.358,-0.049 -0.906,0.415 -1.183,0.598 -0.548,0.364 -1.091,0.529 -1.708,0.735 0.308,-0.082 0.275,0.035 0.375,0.239 0.109,0.222 0.558,0.143 0.739,0.128 0.384,-0.032 0.772,-0.025 1.156,-0.026 0.25,0 1.345,-0.164 0.525,0.295 0.845,-0.45 1.832,0.125 2.7,-0.223 0.38,0 1.42,-1.074 2.192,-0.507 -0.108,0.114 -0.225,0.22 -0.35,0.317 0.356,-0.124 0.751,-0.224 0.921,-0.604 -0.569,-0.478 -1.374,-0.307 -2.001,-0.064 0.316,-0.25 1.048,-0.421 1.003,-0.921 -0.038,-0.419 -0.553,-0.334 -0.26,-0.743 0.537,-0.746 1.455,0.057 0.741,0.448 -1.465,0.803 1.186,0.677 1.171,0.663 0.663,0.663 2.391,0.533 2.776,-0.432 -0.235,0.029 -0.468,0.072 -0.699,0.127 -0.329,-0.02 -0.585,-0.269 -0.926,-0.208 -0.528,0.096 -1.108,0.564 -1.664,0.35 -0.919,-0.355 1.231,-1.396 1.669,-1.35 -0.177,-0.7 -1.239,0.06 -1.239,-0.381 -0.198,0.181 -0.431,0.266 -0.699,0.254 0.294,-0.238 0.653,-0.368 0.985,-0.54 -0.385,-0.042 -0.727,0.278 -1.061,0.412 -0.458,0.184 -1.375,0.004 -1.837,-0.1 -1.047,-0.234 -0.161,-0.556 0.193,-1.062 0.465,-0.666 0.111,-1.797 -0.711,-2.153 -0.268,-0.116 -0.738,-0.052 -0.82,-0.412 -0.124,-0.542 -0.432,-0.525 -0.91,-0.562 1.139,-0.11 2.124,-0.655 3.108,-1.193 1.118,-0.611 2.032,-0.447 3.28,-0.537 2.729,-0.198 5.082,-0.829 7.652,-1.764 -0.219,0.113 -0.441,0.219 -0.667,0.318 1.264,-0.241 2.385,-1.269 3.648,-1.652 1.525,-0.461 2.98,-1.338 4.579,-1.525 -0.272,0.139 -0.282,0.383 -0.604,0.445 1.121,-0.198 2.271,-0.249 3.367,-0.572 1.007,-0.297 2.043,-0.762 3.113,-0.73 -0.281,0.236 -0.645,0.389 -1.016,0.381 1.075,-0.161 -0.196,0.294 -0.414,0.381 0.358,-0.123 0.4,-0.017 0.127,0.318 0.354,-0.245 0.713,-0.483 1.099,-0.676 0.475,-0.238 1.039,-0.048 1.537,-0.181 -0.329,0 -0.661,-0.017 -0.984,0.063 0.129,-0.372 -0.186,-0.471 -0.477,-0.349 1.035,-0.427 2.158,-0.54 3.24,-0.794 -0.221,0.118 -0.454,0.203 -0.699,0.254 1.454,0.358 3.515,-0.103 4.946,-0.439 1.746,-0.409 3.421,-1.076 5.156,-1.53 -0.255,0.072 -0.488,0.188 -0.699,0.35 0.18,0.066 1.623,0.209 1.289,0.584 -0.476,0.537 -1.612,0.595 -2.273,0.591 0.11,0.257 -0.091,0.441 -0.318,0.507 0.669,-0.185 1.345,-0.344 2.001,-0.571 0.399,-0.138 0.792,-0.294 1.194,-0.425 0.194,-0.063 1.346,-0.535 0.489,0.075 0.153,-0.104 0.681,-0.271 0.773,-0.001 0.146,0.426 -0.784,0.513 -1.028,0.542 0.643,0.608 1.684,0.119 2.417,-0.001 1.031,-0.168 2.286,-0.187 3.301,0.064 -0.338,0.385 -0.895,0.479 -1.334,0.699 0.199,0.103 0.411,0.156 0.635,0.159 -0.455,0.053 -0.917,-0.01 -1.366,0.096 0.676,0.087 1.355,0 2.033,0 -0.233,0.084 -0.466,0.169 -0.699,0.254 0.581,0.293 1.222,0.257 1.845,0.15 0.376,-0.064 0.751,-0.147 1.132,-0.186 0.208,-0.021 1.136,-0.225 0.517,0.163 1.005,0 2.041,-0.296 3.052,-0.171 0.315,0.039 0.788,0.134 1.041,0.341 0.394,0.322 0.945,0.063 1.346,0.3 0.991,0.584 2.042,0.249 3.133,0.387 0.332,0.042 1.1,-0.159 1.218,0.236 0.053,0.176 1.017,0.03 0.469,0.305 0.601,-0.014 1.201,0.018 1.802,-0.005 0.3,-0.009 0.597,-0.039 0.894,-0.087 0.478,-0.201 0.575,-0.17 0.291,0.093 0.622,-0.704 2.333,-0.413 3.108,-0.194 0.525,0.148 0.668,0.684 1.199,0.801 0.406,0.089 0.389,0.139 0.608,0.426 0.262,0.341 0.67,-0.112 0.993,0.11 -3.385,2.23 -6.381,4.979 -9.614,7.413 -3.382,2.546 -6.59,5.256 -9.867,7.935 -3.348,2.738 -6.609,5.564 -9.93,8.335 -1.616,1.348 -3.186,2.741 -4.748,4.15 -0.727,0.655 -1.43,1.355 -2.204,1.952 -0.529,0.408 -1.313,0.895 -1.47,1.599 0.373,0.097 0.697,0.226 1.075,0.054 0.388,-0.176 0.672,0.166 1.039,0.208 0.443,0.051 0.993,-0.293 1.422,-0.393 0.509,-0.119 1.035,-0.147 1.546,-0.027 -0.359,0.273 -0.873,0.431 -1.121,0.832 -0.255,0.412 0.382,0.505 0.335,0.959 -0.063,0.605 0.296,1.151 0.499,1.708 0.194,0.533 -0.355,1.049 -0.602,1.456 1.097,-0.383 2.261,-0.573 3.325,-1.055 0.466,-0.211 0.906,-0.481 1.285,-0.828 0.158,-0.047 0.32,-0.071 0.484,-0.072 0.227,-0.104 0.232,-0.347 0.434,-0.458 0.345,-0.193 0.764,-0.14 1.139,-0.208 0.412,-0.075 1.403,-0.565 1.78,-0.389 1.288,0.601 -0.745,1.207 -0.151,1.799 0.161,0.161 0.559,0.318 0.41,0.616 -0.135,0.271 -0.335,0.787 -0.069,1.015 0.795,0.681 0.303,1.074 0.162,1.864 -0.129,0.723 -0.355,1.431 -0.427,2.163 -0.047,0.467 0.007,1.155 -0.312,1.539 -0.206,0.249 -0.663,0.594 -0.118,0.78 -0.548,0.24 -0.553,0.967 -0.667,1.461 0.565,-0.086 1.505,0.575 1.93,0.917 0.443,0.356 0.347,0.98 1.087,0.894 -0.217,0.556 -0.73,0.74 -1.193,1.038 -0.607,0.39 -0.729,1.042 -1.095,1.612 -0.707,1.1 -2.729,1.686 -3.875,2.146 0.16,-0.229 0.33,-0.452 0.508,-0.667 -0.278,0.275 -0.595,0.536 -0.984,0.635 0.216,-1.058 2.062,-1.547 2.922,-1.97 -0.238,0.078 -2.263,1.058 -2.128,0.477 0.091,-0.397 1.418,-0.431 1.684,-0.413 -0.222,-0.027 -0.444,-0.038 -0.667,-0.032 0.382,-0.5 1.251,-1.123 1.301,-1.796 0.057,-0.771 0.4,-0.669 0.955,-1.094 -0.729,0.239 -1.433,0.677 -2.223,0.667 0.199,-0.081 0.4,-0.155 0.604,-0.223 -0.208,0.073 -1.743,0.293 -1.699,0.535 0.068,0.374 -0.166,0.29 -0.402,0.511 -0.369,0.345 -0.362,-0.018 -0.67,0.394 -0.192,0.257 -0.792,0.249 -0.57,-0.101 0.269,-0.422 0.733,-0.65 1.149,-0.895 0.446,-0.261 0.849,-0.548 1.196,-0.934 0.338,-0.375 0.945,-0.17 1.376,-0.241 -0.362,-0.102 -0.795,-0.023 -0.857,-0.508 -0.027,0.306 -0.601,0.876 -0.926,0.651 -0.467,-0.322 0.342,-1.003 0.576,-1.191 -0.043,0.226 0.037,0.399 0.286,0.414 -0.146,-0.267 -0.125,-0.521 0.064,-0.763 -0.115,-0.047 -0.231,-0.09 -0.35,-0.127 0.38,-0.14 0.554,-0.56 0.953,-0.667 -0.299,0.111 -0.59,0.209 -0.776,-0.132 -0.248,-0.455 0.378,-0.397 0.49,-0.757 -0.322,0.234 -0.752,-0.016 -0.699,-0.414 -0.404,0.449 -0.904,-0.041 -0.312,-0.363 0.419,-0.229 0.948,-0.092 1.393,-0.24 -0.33,0.023 -0.656,0.135 -0.985,0.032 0.534,-0.182 0.151,-0.816 0.857,-0.857 -0.37,0.086 -0.496,-0.303 -0.146,-0.443 0.267,-0.106 0.612,0.344 0.75,0.507 0.133,-0.37 -0.396,-0.52 -0.282,-0.836 0.213,-0.595 0.977,-0.384 1.394,-0.244 -0.587,-0.378 -1.138,-0.15 -1.652,0.222 -0.235,-0.392 0.668,-1.031 1.016,-1.175 -0.229,0.059 -0.966,0.66 -1.061,0.381 -0.096,-0.283 0.199,-0.565 0.385,-0.729 0.507,-0.446 1.222,-0.879 1.883,-1.049 -0.637,-0.057 -1.297,0.409 -1.742,0.813 -0.615,0.559 -0.82,-0.23 -1.435,-0.304 0.27,-0.23 0.263,-0.56 0.356,-0.871 0.084,-0.28 0.463,-0.402 0.628,-0.622 -0.71,0.596 0.071,-0.872 0.201,-1.045 0.34,-0.455 0.736,-0.934 1.196,-1.273 -0.262,0.14 -0.471,0.365 -0.747,0.481 -0.458,0.193 -0.128,0.312 -0.459,0.694 -0.132,-0.662 -0.577,0.274 -0.771,0.58 -0.252,0.396 -0.774,0.905 -0.906,1.345 -0.159,0.53 -0.563,1.108 -1.14,1.223 -0.522,0.104 -0.214,-0.515 -0.074,-0.702 -0.295,0.339 -0.953,0.138 -1.333,0.159 0.627,-0.768 1.066,-1.566 2.064,-1.747 -0.237,-0.163 -0.511,-0.114 -0.699,0.095 0.512,-0.848 -0.729,0.312 -0.894,0.357 -0.536,0.146 -0.211,-0.671 -0.376,-0.896 -0.099,0.479 -0.559,0.276 -0.667,-0.064 -0.184,0.454 -0.828,0.503 -1.207,0.699 0.459,-0.179 0.863,-0.054 1.334,-0.063 -0.11,0.25 -0.285,0.949 0.254,0.445 -0.186,0.19 -0.408,0.317 -0.667,0.381 0.301,-0.015 0.739,-0.282 0.826,0.191 -0.322,0.031 -0.251,0.152 -0.279,0.383 -0.044,0.358 -0.73,0.459 -0.991,0.506 0.473,-0.563 -0.292,-0.354 -0.508,-0.222 0.774,-0.075 -0.06,0.109 -0.228,0.101 -0.302,-0.016 -0.347,0.437 -0.726,0.439 0.383,-0.498 -1.717,-1.025 -0.73,-1.494 -0.479,0.141 -0.507,-0.377 -0.425,-0.701 0.129,-0.508 -0.09,-0.859 -0.655,-0.951 0.162,-0.122 0.342,-0.207 0.54,-0.254 -0.515,-0.059 -1.432,0.091 -1.398,-0.699 -0.376,0.29 -0.577,-0.268 -0.857,-0.414 0.327,-0.354 0.852,-0.391 1.197,-0.722 0.306,-0.294 0.469,-0.671 0.886,-0.841 1.037,-0.421 -0.379,1.084 -0.399,1.15 0.366,-0.459 1.03,-1.093 1.651,-0.667 -0.302,-0.184 -0.597,-0.809 -1.017,-0.689 -0.547,0.156 -1.048,0.512 -1.615,0.672 -1.316,0.373 -2.478,0.466 -3.721,-0.206 0.324,-0.232 0.845,-0.313 0.89,-0.794 -0.501,-0.042 -0.805,0.487 -1.375,0.382 -0.751,-0.138 -1.499,-0.293 -2.251,-0.43 -1.335,-0.242 -2.722,0.804 -4.029,0.269 0.831,-0.081 -0.719,-0.974 -1.048,-0.921 0.596,-0.775 1.656,-0.866 2.382,-1.461 -0.937,0.145 -1.664,0.678 -2.517,1.024 -0.225,0.091 -0.637,0.306 -0.892,0.216 -0.299,-0.106 -0.482,-0.471 -0.849,-0.35 0.385,-0.326 0.876,-0.506 1.334,-0.699 -0.172,0.03 -1.59,0.285 -0.699,-0.096 -0.34,0.06 -0.677,0.131 -1.017,0.191 0.289,-0.218 0.648,-0.277 0.985,-0.381 -0.555,-0.037 -1.098,0.249 -1.652,0.127 0.479,-0.308 1.273,-0.538 1.842,-0.445 -0.363,-0.243 -0.922,0.224 -1.261,-0.051 -0.414,-0.335 1.425,-0.866 1.801,-0.806 -0.443,-0.418 -1.243,-0.039 -1.685,0.182 -0.574,0.287 -1.325,0.23 -1.968,0.453 0.095,-0.106 0.19,-0.212 0.286,-0.317 -0.232,0.072 -0.455,0.168 -0.667,0.285 0.259,-0.363 0.685,-0.537 0.984,-0.857 -0.549,0.281 -1.01,0.974 -1.651,1.048 0.106,-0.105 0.211,-0.211 0.317,-0.317 -0.273,0.027 -0.516,0.187 -0.667,0.413 -0.585,-0.563 1.654,-1.332 1.938,-1.556 -0.558,0.167 -1.084,0.435 -1.592,0.712 -0.463,0.253 -0.991,-0.207 -1.425,0.24 0.349,-0.049 0.666,-0.213 1.017,-0.253 -0.729,0.626 -1.563,0.56 -2.351,0.921 0.869,-0.071 -0.447,0.271 -0.635,0.413 0.361,-0.026 0.656,-0.26 1.016,-0.286 -0.094,0.106 -0.189,0.212 -0.286,0.318 0.232,-0.058 0.455,-0.143 0.667,-0.254 -0.412,0.812 -1.5,0.664 -2.224,0.953 0.708,-0.117 1.294,-0.208 1.97,-0.381 0.29,0.776 -1.957,0.895 -2.287,1.302 0.224,-0.003 0.436,-0.057 0.635,-0.159 -0.139,0.129 -0.674,0.593 0,0.191 -0.384,0.31 -0.947,0.545 -1.42,0.671 -0.269,0.072 -0.493,0.108 -0.751,0.225 -0.472,0.213 -0.854,-0.078 -1.323,-0.102 0.141,-0.088 0.29,-0.162 0.445,-0.222 -0.492,0.012 -0.89,0.295 -1.271,0.572 0.229,-0.24 0.432,-0.501 0.635,-0.763 -0.418,0.037 -1.875,0.807 -1.906,1.271 -0.07,-0.264 0.066,-0.485 0.318,-0.572 -0.218,0.084 -0.495,0.004 -0.699,0.127 -0.244,0.148 -0.264,0.507 -0.508,0.667 0.056,-0.625 -0.45,-0.202 -0.709,-0.028 -0.48,0.32 -1.218,0.556 -1.768,0.727 0.38,-0.341 0.862,-0.545 1.302,-0.794 -0.609,0.171 -1.094,0.607 -1.684,0.826 0.1,-0.113 0.195,-0.23 0.286,-0.35 -0.534,-0.061 -0.941,0.528 -1.425,0.66 -0.743,0.203 -0.804,0.385 -1.561,0.198 0.298,0.54 -0.16,0.285 -0.425,0.223 -0.354,-0.082 -0.773,0.17 -1.104,0.261 -0.258,0.07 -0.556,-0.174 -0.44,-0.452 0.063,-0.151 0.423,-0.21 0.548,-0.249 1.275,-0.394 2.551,-0.946 3.835,-1.308 -0.661,-0.171 -1.494,0.75 -2.087,0.241 -0.51,-0.438 2.278,-1.604 2.705,-1.799 0.548,-0.25 1.092,-0.524 1.574,-0.888 0.308,-0.232 0.46,-0.831 0.845,-0.946 1.286,-0.385 2.617,-0.732 3.92,-1.087 -0.016,0.566 0.516,0.415 0.876,0.315 0.622,-0.171 1.513,0.083 2.11,0.289 -0.46,-0.536 -2.235,-0.708 -0.827,-1.418 0.81,-0.409 1.747,-0.579 2.637,-0.71 -0.845,-0.375 -1.717,0.307 -2.474,0.584 -0.27,0.099 -1.692,0.556 -1.369,-0.203 -0.39,0.392 -1.039,0.484 -1.561,0.532 -0.623,0.056 -1.087,0.52 -1.68,0.653 -0.635,0.143 -1.205,0.125 -1.769,0.503 -0.403,0.271 -0.746,0.469 -1.219,0.584 -0.955,0.233 -1.547,0.404 -2.284,1.021 -0.398,0.333 -0.974,0.453 -1.457,0.604 -0.505,0.159 -0.787,-0.375 -1.212,-0.183 0.654,-0.112 0.53,0.756 0.104,0.971 -0.804,0.405 -1.628,0.34 -2.455,0.617 0.69,-0.047 0.184,0.444 -0.088,0.519 -0.349,0.095 -0.766,-0.012 -1.087,0.18 0.924,-0.563 -0.203,-0.076 -0.368,0.002 -0.346,0.163 -0.896,0.172 -1.19,0.361 -0.14,0.09 -0.153,0.272 -0.307,0.353 -0.276,0.143 -0.872,0.201 -1.184,0.237 0.836,0.006 -0.248,0.223 -0.446,0.3 -0.418,0.165 -0.921,0.393 -1.143,0.812 0.476,-0.041 1.133,-0.2 1.566,0.075 0.763,0.484 -0.734,1.034 -1.008,1.127 -0.65,0.222 -1.384,0.229 -1.958,0.604 -0.301,0.196 -0.61,0.149 -0.889,0.403 -0.408,0.373 -0.947,0.25 -1.364,0.586 0.211,-0.103 0.433,-0.166 0.667,-0.19 -0.343,0.191 -1.373,1.185 -1.302,0.477 -0.316,0.439 -1.261,0.449 -1.766,0.524 -0.54,0.08 -0.883,0.314 -1.377,0.548 -0.551,0.262 -1.148,0.232 -1.682,0.441 -0.653,0.254 -1.242,0.741 -1.936,0.739 -0.386,-0.001 -0.536,0.414 -0.845,0.291 -0.414,-0.166 -1.365,0.46 -1.766,0.571 0.695,-0.098 0.024,0.382 -0.208,0.548 -0.351,0.253 -0.864,0.248 -1.235,0.506 -0.307,0.214 -0.718,0.229 -1.076,0.269 -0.547,0.062 -0.788,0.359 -1.255,0.518 -0.222,0.076 -0.232,-0.302 -0.438,-0.22 -0.234,0.094 -0.85,0.252 -0.927,0.534 -0.095,0.349 -0.486,0.371 -0.774,0.293 -0.533,-0.145 -0.809,-0.004 -1.329,0.157 0.861,0.088 -0.421,0.342 -0.667,0.346 -0.732,0.009 -1.478,0.365 -2.097,0.734 0.333,-0.039 0.635,-0.304 0.985,-0.159 -0.285,0.216 -0.415,0.304 0.032,0.35 -0.306,0.183 -0.669,0.165 -0.985,0.317 -0.267,0.128 -0.444,0.483 -0.763,0.508 0.109,-0.362 0.455,-0.563 0.794,-0.667 -0.416,-0.243 -0.882,0.36 -1.167,0.571 -0.378,0.28 -0.999,0.381 -1.457,0.417 -0.607,0.048 -1.125,0.002 -1.689,0.317 -0.523,0.292 -0.959,0.92 -1.628,0.888 0.377,-0.183 0.717,-0.438 1.017,-0.73 -0.373,-0.393 -1.251,0.037 -1.622,0.23 -0.267,0.14 -0.453,0.157 -0.752,0.173 -0.362,0.019 -0.84,0.437 -1.153,0.613 0.402,-0.654 -0.201,-0.151 -0.358,-0.035 -0.242,0.179 -0.498,0.162 -0.757,0.044 -0.127,-0.058 -0.723,0.218 -0.82,0.247 -0.41,0.121 -0.893,0.049 -1.272,0.188 0.499,-0.487 0.961,-0.641 1.652,-0.603 -0.73,-0.94 -2.037,0.311 -2.703,0.72 -0.288,0.177 -0.621,0.185 -0.918,0.328 -0.265,0.128 -0.402,0.413 -0.667,0.54 -0.267,0.127 -0.177,-0.417 -0.475,0.009 -0.171,0.245 -0.566,0.278 -0.827,0.182 0.412,-0.133 0.354,-0.526 0.477,-0.857 -0.66,-0.131 -0.667,1.121 -1.356,0.946 z"
         id="path3790"
         inkscape:connector-curvature="0"
         style="fill:#aaaaaa" />
      <path
         d="m -151.747,219.746 c -0.048,-0.437 -0.867,-0.019 -1.017,0.126 0.342,0.057 0.705,0.04 1.017,-0.126 z"
         id="path3708"
         inkscape:connector-curvature="0"
         style="fill:#aaaaaa" />
      <path
         d="m -173.697,221.207 c 0.69,-0.482 1.233,-1.125 2.097,-0.953 0.286,0.057 0.487,0.337 0.759,0.433 0.324,0.115 0.671,-0.141 1.052,0.011 -0.529,0.642 -1.257,0.383 -1.97,0.477 0.875,-0.122 -0.46,0.044 -0.687,0.147 -0.43,0.197 -0.827,0.476 -1.283,0.615 0.195,-0.18 0.29,-0.402 0.286,-0.667 -0.085,0.116 -0.17,0.232 -0.254,0.35 0.036,-0.138 0.036,-0.275 0,-0.413 z"
         id="path3796"
         inkscape:connector-curvature="0"
         style="fill:#aaaaaa" />
      <path
         d="m -159.751,211.519 c 1.501,-1.046 0.699,0.467 0,0 z"
         id="path3798"
         inkscape:connector-curvature="0"
         style="fill:#aaaaaa" />
      <path
         d="m -129.575,232.103 c 0.325,-0.188 0.661,-0.357 1.017,-0.476 -0.262,0.284 -0.658,0.382 -1.017,0.476 z"
         id="path3800"
         inkscape:connector-curvature="0"
         style="fill:#aaaaaa" />
      <path
         d="m -129.194,231.88 c -0.209,0.109 -0.431,0.162 -0.667,0.158 0.381,-0.047 0.623,-0.408 1.017,-0.413 -0.117,0.086 -0.233,0.17 -0.35,0.255 z"
         id="path3802"
         inkscape:connector-curvature="0"
         style="fill:#aaaaaa" />
      <path
         d="m -99.017,237.979 c 0.122,0.071 0.196,0.178 0.222,0.317 -0.695,0.279 -0.821,-0.457 -0.222,-0.317 z"
         id="path3814"
         inkscape:connector-curvature="0"
         style="fill:#aaaaaa" />
      <path
         d="m -106.736,244.173 c 0.312,-0.133 0.605,-0.518 0.984,-0.35 -0.797,0.419 -1.333,0.838 -1.302,1.811 0.78,-0.29 1.35,-1.105 1.872,-1.711 0.273,-0.317 0.52,-0.638 0.752,-0.986 0.324,-0.487 0.422,-1.159 0.807,-1.591 -0.283,-0.195 -0.642,-0.42 -0.985,-0.191 0.777,-0.208 -0.202,-0.196 -0.52,0.002 -0.199,0.125 -0.797,0.66 -0.211,0.697 -0.174,0.141 -0.653,0.494 0.032,0.222 -0.617,0.152 -0.618,1.076 -1.302,1.175 0.881,0.121 -0.446,0.702 0.413,0.413 -0.224,0.124 -0.405,0.293 -0.54,0.509 z"
         id="path4118"
         inkscape:connector-curvature="0"
         style="fill:#aaaaaa" />
      <path
         d="m -106.132,246.271 c 0.223,-0.094 0.351,-0.262 0.42,-0.49 0.064,-0.213 0.523,-0.253 0.66,-0.432 -0.509,0.71 0.25,0.026 0.382,-0.065 0.228,-0.157 0.475,-0.219 0.701,-0.417 0.224,-0.197 0.268,-0.51 0.484,-0.708 0.131,-0.053 0.26,-0.041 0.389,0.036 0.269,-0.022 0.441,-0.328 0.555,-0.53 -0.377,-0.02 -0.665,0.24 -1.017,0.317 0.42,-0.191 1.118,-0.647 0.445,-1.048 0.086,0.746 -0.36,-0.202 -0.604,0.476 -0.137,-0.413 -0.564,0.196 -0.699,0.413 0.796,-0.143 -0.027,0.407 -0.254,0.445 1.157,0.375 -1.37,1.042 -0.445,0.857 -0.471,0.192 -0.98,0.598 -1.017,1.146 z"
         id="path4120"
         inkscape:connector-curvature="0"
         style="fill:#aaaaaa" />
      <path
         d="m -105.751,239.567 c -0.201,0.36 0.07,0.681 0.223,0.984 -0.569,0 -0.166,0.208 -0.159,0.635 -0.29,-0.604 -0.4,0.235 0.29,0.078 0.368,-0.084 1.189,-0.973 0.377,-0.84 0.261,-0.002 0.42,-0.146 0.413,-0.413 0.484,0.211 0.793,1.052 1.324,1.094 0.463,0.037 0.839,-0.596 1.026,-0.936 -0.277,-0.186 -0.531,-0.018 -0.826,-0.047 -0.286,-0.028 -0.372,-0.515 -0.604,-0.651 0.626,-0.053 0.948,0.654 1.62,0.381 -0.071,-0.108 -0.146,-0.214 -0.223,-0.317 0.267,0.064 1.287,-0.198 0.768,-0.592 -0.677,-0.513 -1.341,0.223 -1.975,0.401 0.243,-0.497 0.956,-0.338 1.175,-0.857 -0.492,-0.233 -1.639,-0.24 -1.97,0.285 0.117,-0.586 -0.265,-0.14 -0.536,0.065 -0.268,0.204 -0.157,0.557 -0.067,0.824 -0.069,-0.251 -0.279,-0.394 -0.54,-0.349 0.138,-0.13 0.223,-0.289 0.254,-0.477 -0.336,0.119 -0.852,0.426 -0.794,0.857 0.075,-0.04 0.149,-0.082 0.224,-0.125 z"
         id="path4122"
         inkscape:connector-curvature="0"
         style="fill:#aaaaaa" />
      <path
         d="m -103.146,241.282 c -0.134,-0.09 -0.272,-0.09 -0.413,0 0.033,0.116 0.085,0.222 0.159,0.318 0.095,-0.097 0.18,-0.202 0.254,-0.318 z"
         id="path4124"
         inkscape:connector-curvature="0"
         style="fill:#aaaaaa" />
      <path
         d="m -103.083,244.745 c 0.316,-0.03 0.684,-0.113 0.985,-0.159 0.249,-0.039 1.455,-0.46 0.635,-0.54 0.24,-0.109 0.411,-0.328 0.349,-0.604 0.447,1.338 1.549,-0.46 1.048,-0.73 -0.37,-0.193 -2.756,-0.468 -1.969,0.413 -0.548,-0.053 -0.376,0.46 0.032,0.127 -0.309,0.353 -1.256,0.919 -1.08,1.493 z"
         id="path4126"
         inkscape:connector-curvature="0"
         style="fill:#aaaaaa" />
      <path
         d="m -100.574,244.65 c -0.336,0.085 -1.618,-0.027 -1.343,0.672 0.193,0.49 1.239,-0.422 1.343,-0.672 z"
         id="path4130"
         inkscape:connector-curvature="0"
         style="fill:#aaaaaa" />
      <path
         d="m -100.129,245.094 c -0.313,-0.123 -1.253,0.334 -1.36,0.655 -0.087,0.259 0.321,0.514 0.249,0.838 0.499,-0.089 0.656,-0.679 1.144,-0.763 -0.137,-0.244 -0.391,-0.379 -0.667,-0.286 0.263,-0.048 0.494,-0.216 0.634,-0.444 z"
         id="path4132"
         inkscape:connector-curvature="0"
         style="fill:#aaaaaa" />
      <path
         d="m -105.878,241.568 c -0.405,0.002 -1.315,0.854 -1.493,1.207 0.453,-0.018 1.819,-0.549 1.493,-1.207 z"
         id="path4140"
         inkscape:connector-curvature="0"
         style="fill:#aaaaaa" />
      <path
         d="m -106.418,246.651 c -0.114,-0.34 -0.712,0 -0.699,0.286 0.226,-0.112 0.459,-0.207 0.699,-0.286 z"
         id="path4144"
         inkscape:connector-curvature="0"
         style="fill:#aaaaaa" />
      <path
         d="m -106.673,248.302 c 0.138,-0.107 0.254,-0.234 0.349,-0.381 -0.226,0.099 -0.448,0.205 -0.667,0.318 0.106,0.021 0.213,0.042 0.318,0.063 z"
         id="path4146"
         inkscape:connector-curvature="0"
         style="fill:#aaaaaa" />
      <path
         d="m -105.815,249.001 c -0.603,0.057 -1.815,1.901 -0.836,2.062 0.349,0.058 0.368,-0.653 0.328,-0.855 -0.051,-0.25 0.309,-0.978 0.508,-1.207 z"
         id="path4148"
         inkscape:connector-curvature="0"
         style="fill:#aaaaaa" />
      <path
         d="m -106.069,248.684 c -0.325,0.022 -0.64,0.178 -0.794,0.477 0.347,0.049 0.758,-0.066 0.794,-0.477 z"
         id="path4150"
         inkscape:connector-curvature="0"
         style="fill:#aaaaaa" />
      <path
         d="m -105.625,250.272 c -0.338,-0.354 -0.567,0.201 -0.476,0.477 0.038,-0.254 0.228,-0.433 0.476,-0.477 z"
         id="path4154"
         inkscape:connector-curvature="0"
         style="fill:#aaaaaa" />
      <path
         d="m -104.799,249.732 c -0.106,0.063 -0.212,0.127 -0.318,0.19 0.956,-0.041 -0.663,0.787 0.254,0.604 -0.123,0.076 -0.239,0.161 -0.35,0.254 0.575,0.649 1.485,-0.538 1.779,-0.953 -0.22,0.052 -0.441,0.083 -0.667,0.095 0.477,-0.208 0.917,-0.485 1.334,-0.794 -0.225,0.043 -0.447,0.032 -0.667,-0.032 0.256,-0.031 0.476,-0.193 0.604,-0.413 -0.188,-0.181 -0.41,-0.255 -0.667,-0.222 0.229,-0.071 0.461,-0.125 0.699,-0.159 -0.305,-0.332 -0.708,-0.137 -1.048,0 0.444,-0.233 0.974,-0.627 1.334,-0.032 0.165,-0.317 0.355,-1.172 0.379,-1.531 0.027,-0.396 -0.468,-0.547 -0.761,-0.628 0.24,-0.258 0.671,-0.569 0.54,-0.984 -0.602,0.099 -1.124,-0.075 -1.62,0.381 0.195,0.167 0.417,0.22 0.667,0.159 -0.216,0.433 -1.784,0.103 -2.001,0.984 0.559,-0.296 1.413,-0.174 1.842,-0.699 -0.237,0.499 -0.884,0.736 -0.921,1.112 0.12,-0.091 0.236,-0.187 0.349,-0.286 -0.208,0.485 -1.201,0.37 -1.112,1.017 0.344,-0.003 0.649,-0.174 0.985,-0.222 -0.415,0.248 -0.891,0.494 -0.572,1.048 -0.468,0.047 -1.004,-0.288 -1.302,0.254 0.22,0.062 0.442,0.073 0.667,0.032 -0.798,0.286 0.172,0.167 0.35,0 -0.26,0.414 0.345,0.561 0.444,0.095 -0.011,0.26 -0.173,0.476 -0.413,0.572 0.395,-0.193 0.459,-0.14 0.192,0.158 z"
         id="path4156"
         inkscape:connector-curvature="0"
         style="fill:#aaaaaa" />
      <path
         d="m -106.005,246.746 c 0.185,0.06 0.322,-0.004 0.413,-0.19 -0.164,0.007 -0.301,0.071 -0.413,0.19 z"
         id="path4158"
         inkscape:connector-curvature="0"
         style="fill:#aaaaaa" />
      <path
         d="m -105.211,249.192 c -0.154,0.235 -0.347,0.474 -0.604,0.604 0.38,0.126 0.738,-0.22 0.604,-0.604 z"
         id="path4160"
         inkscape:connector-curvature="0"
         style="fill:#aaaaaa" />
      <path
         d="m -105.338,247.985 c -0.139,0.012 -0.255,0.076 -0.35,0.19 0.117,-0.063 0.233,-0.127 0.35,-0.19 z"
         id="path4162"
         inkscape:connector-curvature="0"
         style="fill:#aaaaaa" />
      <path
         d="m -104.608,247.032 c -0.266,0.038 -1.291,-0.277 -0.889,0.349 0.231,-0.321 0.571,-0.216 0.889,-0.349 z"
         id="path4164"
         inkscape:connector-curvature="0"
         style="fill:#aaaaaa" />
      <path
         d="m -101.431,249.922 c -0.296,0.061 -0.613,0.084 -0.858,0.286 0.328,0.213 0.716,0.071 0.858,-0.286 z"
         id="path4168"
         inkscape:connector-curvature="0"
         style="fill:#aaaaaa" />
      <path
         d="m -101.654,248.398 c -0.293,0.162 -0.688,0.468 -0.508,0.857 0.274,-0.167 0.802,-0.459 0.508,-0.857 z"
         id="path4170"
         inkscape:connector-curvature="0"
         style="fill:#aaaaaa" />
      <path
         d="m -101.241,249.033 c -0.34,-0.276 -0.835,0.53 -0.921,0.762 0.456,0.196 1.018,-0.283 0.921,-0.762 z"
         id="path4172"
         inkscape:connector-curvature="0"
         style="fill:#aaaaaa" />
      <path
         d="m -104.036,246.778 c -0.109,0.104 -0.225,0.2 -0.35,0.286 -0.074,-0.329 0.043,-0.424 0.35,-0.286 z"
         id="path4176"
         inkscape:connector-curvature="0"
         style="fill:#aaaaaa" />
      <path
         d="m -120.522,312.055 c 0.283,-0.863 -0.916,-1.604 -0.699,-2.573 0.247,-1.099 1.186,-2.088 1.237,-3.207 0.02,-0.435 -0.716,-1.393 -0.561,-1.703 0.436,-0.872 0.929,-1.653 1.865,-2.046 -0.43,0.213 -0.464,0.172 -0.104,-0.125 0.246,-0.248 0.54,-0.532 0.612,-0.892 0.12,-0.596 0.849,-0.993 1.11,-1.545 0.203,-0.427 0.004,-1.046 0.271,-1.369 0.445,-0.537 0.173,-0.691 0.277,-1.298 0.074,-0.43 0.404,-0.767 0.651,-1.105 0.305,-0.418 0.227,-0.8 0.416,-1.231 0.214,-0.487 0.61,-0.911 0.979,-1.286 0.152,-0.155 1,-1.044 0.775,-0.519 0.107,-0.249 0.272,-0.232 0.49,-0.292 0.146,-0.04 0.474,-0.641 -0.14,-0.122 0.333,-0.438 0.738,-1.151 1.366,-1.175 -0.696,0.172 -0.035,-0.409 0.136,-0.644 0.251,-0.345 0.525,-0.672 0.795,-1.002 0.408,-0.499 0.667,-1.118 1.155,-1.552 0.71,-0.632 1.388,-1.704 1.906,-2.524 0.191,-0.3 0.568,-1.059 1.027,-0.98 -0.167,-0.495 0.409,-1.152 0.706,-1.481 0.381,-0.423 0.505,-1.094 1.143,-1.128 0.478,-0.025 1.424,0.392 1.803,0.068 -0.253,0.11 -0.586,-0.181 -0.791,-0.285 -0.392,-0.201 -0.602,-0.084 -1,-0.021 -0.6,0.094 0.104,-1.013 0.202,-1.187 -0.086,0.227 -0.182,0.449 -0.286,0.667 0.54,-0.116 0.76,-1.342 1.398,-1.048 -0.203,-0.173 -0.436,-0.237 -0.699,-0.191 0.103,-0.729 0.725,-0.72 1.302,-0.89 -0.264,0.018 -0.504,-0.118 -0.667,-0.317 -0.095,0.098 -0.179,0.204 -0.254,0.317 0.324,-1.036 1.093,-2.091 1.02,-3.202 -0.035,-0.529 0.604,-2.202 1.137,-2.062 0.852,0.222 1.457,0.704 2.356,0.859 0.542,0.093 1.93,-0.044 1.935,0.499 0.062,-0.248 0.259,-0.427 0.508,-0.477 -0.144,0.245 -0.042,0.56 -0.119,0.822 -0.093,0.315 -0.829,0.672 -1.088,0.862 0.713,-0.732 -0.283,-0.043 -0.423,0.052 -0.444,0.301 -0.842,0.662 -1.26,0.996 0.312,0.274 0.668,0.028 0.953,-0.127 -0.217,0.059 -0.429,0.132 -0.635,0.222 0,-0.48 0.573,-0.763 0.949,-0.91 0.646,-0.251 1.074,-0.673 1.655,-1.028 0.185,0.498 -1.063,0.833 -1.239,1.366 0.623,-0.34 -0.002,0.862 -0.54,0.921 0.095,-0.106 0.19,-0.211 0.286,-0.318 -0.414,0.05 -0.639,0.453 -0.89,0.73 -0.024,-0.267 0.13,-0.498 0.35,-0.635 -0.477,0.162 -0.793,0.65 -1.303,0.731 0.43,-0.102 0.43,-0.028 0,0.222 0.332,-0.271 0.417,-0.218 0.254,0.159 0.123,-0.349 0.423,-0.523 0.767,-0.335 0.218,0.119 0.664,-0.317 0.818,-0.42 0.569,-0.382 1.363,-0.612 1.449,-1.468 0.062,-0.625 1.37,-0.996 1.229,-1.47 -0.119,-0.398 0.323,-0.724 0.185,-1.167 -0.104,-0.333 -0.526,0.089 -0.286,-0.476 0.744,0.382 0.858,-0.538 1.239,-0.922 -0.484,0.071 -0.391,-0.563 -0.185,-0.792 0.373,-0.413 1.646,-0.161 2.151,-0.161 2.057,0 4.113,0 6.17,0 4.028,0 8.055,0 12.082,0 8.143,0 16.285,0 24.428,0 8.177,0 16.354,0 24.53,0 3.929,0 7.858,0 11.787,0 0.484,0 0.596,-0.536 0.791,-0.929 0.165,-0.332 0.855,-0.681 0.956,-0.107 0.117,0.666 -1.046,1.925 -0.091,2.143 0.284,0.064 1.683,0.057 1.682,0.497 -0.002,0.481 1.437,-0.132 1.7,-0.237 0.577,-0.231 1.22,0.257 1.765,0.38 -0.162,0.258 -0.026,0.427 0.254,0.445 -0.124,0.135 -0.125,0.708 0.158,0.589 0.12,-0.051 0.105,-0.333 0.255,-0.334 0.363,-0.006 0.573,0.228 0.843,0.423 0.219,0.158 0.449,0.05 0.421,0.321 -0.018,0.176 0.13,0.245 0.281,0.259 0.876,0.083 1.647,-0.582 2.489,-0.591 -0.338,0.614 0.754,0.489 1.053,0.465 0.282,-0.022 0.628,-0.077 0.87,0.108 0.478,0.365 0.819,0.146 1.349,0.285 -1.838,0.572 -3.772,1.131 -5.477,2.042 -0.709,0.378 -1.349,0.871 -2.052,1.261 -0.784,0.436 -1.681,0.694 -2.382,1.271 0.62,0.944 3.456,-0.605 4.256,-0.667 -0.094,0.439 -0.573,0.958 -0.953,1.176 0.212,0.062 0.601,-0.216 0.736,-0.104 0.239,0.199 0.177,0.251 0.556,0.251 0.659,0 1.32,-0.415 1.905,-0.67 0.692,-0.302 1.43,-0.115 2.09,-0.436 0.87,-0.422 1.731,-0.75 2.559,-1.265 -0.136,0.317 0.101,0.534 0.159,0.826 0.062,0.307 -0.284,0.55 -0.349,0.826 0.158,-0.133 1.505,-1.008 0.699,-0.254 0.834,-0.643 1.488,-0.083 1.912,0.691 0.398,0.727 0.846,0.443 1.517,0.692 0.93,0.344 1.81,-0.516 2.675,-0.732 0.518,-0.129 1.041,-0.017 1.565,-0.056 0.66,-0.05 1.302,-0.217 1.956,-0.308 -0.206,0.343 -0.422,0.682 -0.508,1.08 0.623,0.145 1.189,0.083 1.772,0.002 0.525,-0.072 0.369,0.953 -0.056,1.046 0.41,0.028 0.458,0.492 0.699,0.73 -0.606,0.572 -1.61,-0.329 -2.309,0.076 -0.027,0.016 -0.457,0.493 -0.441,0.491 -0.413,0.025 -0.421,-0.565 -0.792,-0.71 -1.095,-0.427 -1.761,0.37 -2.832,0.314 -1.134,-0.059 -1.612,0.989 -2.615,1.258 0.169,-0.385 0.553,-0.591 0.826,-0.889 -0.68,0.111 -0.969,0.533 -1.588,0.699 0.042,-0.245 0.137,-0.468 0.286,-0.667 -1.101,0.408 -2.034,1.788 -2.941,2.512 -0.231,0.185 -0.319,0.484 -0.553,0.665 -0.26,0.201 -0.625,0.183 -0.895,0.387 -0.411,0.31 -0.987,0.821 -1.075,1.361 0.785,-0.156 1.56,-1.48 2.431,-1.132 0.316,0.126 -0.743,1.092 -0.855,1.223 -0.372,0.432 -0.562,1.016 -0.974,1.408 -0.837,0.797 -1.186,1.761 -1.977,2.604 -0.402,0.428 -0.753,0.983 -0.911,1.553 -0.147,0.53 -0.044,1.079 -0.411,1.538 -0.599,0.749 -0.926,2.441 -0.634,3.374 0.243,0.774 1.371,0.303 1.852,0.09 1.109,-0.49 1.958,-1.329 2.736,-2.241 0.42,-0.493 0.802,-1.008 1.078,-1.597 0.235,-0.501 0.237,-1.689 0.747,-1.957 -0.823,-0.493 -0.124,-1.409 0.256,-1.941 0.245,-0.343 0.187,-0.702 0.359,-1.062 0.18,-0.375 0.767,-0.661 1.047,-0.979 0.318,-0.36 0.431,-0.713 0.623,-1.142 0.172,-0.384 0.531,-0.415 0.827,-0.652 0.37,-0.297 0.397,-0.484 0.889,-0.591 0.579,-0.125 0.86,-0.731 1.398,-0.94 -0.34,0.431 -0.447,1.019 -0.858,1.398 0.246,-0.118 0.447,-0.287 0.604,-0.508 -0.042,0.266 -0.201,0.504 -0.413,0.667 0.667,-0.28 0.947,-0.94 1.249,-1.544 0.374,-0.749 1.19,-0.456 1.801,-0.807 -1.023,-0.168 0.476,-1.334 0.926,-1.417 0.273,-0.05 0.886,0.325 1.139,0.464 0.599,0.33 1.093,0.743 1.73,1.013 0.528,0.225 0.767,0.952 0.275,1.19 -0.473,0.229 -0.308,0.942 -0.396,1.355 -0.108,0.505 -0.515,1.36 -1.038,1.528 -0.574,0.185 -0.73,0.778 -1.265,1.021 -0.506,0.229 -1.163,0.495 -1.269,1.13 -0.138,0.82 0.961,0.174 1.188,0.106 0.468,-0.141 2.19,-1.984 2.728,-1.208 0.418,0.603 -0.189,2.095 -0.255,2.724 -0.086,0.82 -0.57,2.745 -1.666,2.829 0.375,-0.384 -0.151,-0.597 -0.415,-0.267 -0.224,0.281 -0.324,0.663 -0.601,0.903 -0.295,0.254 -0.659,0.401 -0.957,0.649 -0.319,0.265 -0.499,0.629 -0.829,0.891 -0.243,0.193 -1.406,0.913 -0.747,1.149 0.236,0.085 0.492,0.133 0.722,0.232 0.103,0.068 0.186,0.156 0.249,0.262 0.157,0.123 0.5,0.002 0.705,0.119 -0.33,0.07 -0.678,0.064 -0.985,0.223 0.326,0.188 0.649,-0.082 0.985,-0.031 0.223,0.033 0.44,0.146 0.667,0.153 0.735,0.022 1.421,-0.31 2.178,-0.287 0.732,0.021 1.397,-0.627 2.021,-0.929 0.724,-0.351 1.547,-0.542 2.314,-0.779 1.595,-0.495 3.212,-1.076 4.64,-1.956 0.604,-0.372 1.271,-0.719 1.845,-1.131 0.333,-0.239 0.667,-1.214 0.027,-1.233 0.594,-0.764 1.018,-0.94 2.056,-1.08 0.56,-0.075 1.184,-0.073 1.74,0.022 0.444,0.076 0.785,0.577 1.236,0.463 0.572,-0.144 1.084,-0.055 1.662,-0.123 0.635,-0.074 1.167,-0.482 1.747,-0.714 0.441,-0.176 0.968,-0.165 1.126,-0.709 0.163,-0.559 0.524,-0.943 0.977,-1.289 -0.258,0.114 -0.681,0.215 -0.349,-0.254 -0.367,0.253 -0.431,0.058 -0.256,-0.171 0.181,-0.237 0.506,-0.366 0.769,-0.481 0.783,-0.343 1.39,-0.822 2.08,-1.33 0.745,-0.546 1.683,-1.267 2.612,-1.434 1.201,-0.215 2.479,-0.034 3.693,-0.057 1.799,-0.034 3.571,-0.078 5.366,0.012 0.344,0.017 1.338,0.171 1.582,-0.18 0.201,-0.289 0.403,-0.654 0.72,-0.833 0.354,-0.199 0.796,-0.091 1.191,-0.323 0.054,0.105 0.106,0.211 0.159,0.318 0.393,-0.168 0.244,-0.557 0.696,-0.505 -0.103,-0.012 1.199,-1.229 1.332,-1.316 0.538,-0.357 0.828,-0.458 0.972,-1.086 0.113,-0.492 0.634,-0.959 1.024,-1.22 0.471,-0.315 0.499,-0.863 0.839,-1.273 0.473,-0.569 1.165,-0.975 1.734,-1.44 0.484,-0.395 2.147,-2.311 1.986,-0.763 -0.086,0.828 1.816,-0.042 2.062,-0.107 1.462,-0.396 1.206,1.425 0.891,2.213 -0.282,0.706 -0.506,1.431 -0.761,2.146 -0.133,0.373 -0.816,1.437 -0.563,1.829 0.268,0.416 0.837,0.01 0.568,0.63 -0.191,0.439 -0.5,0.89 -0.168,1.338 0.265,-0.268 0.536,-0.155 0.62,0.19 0.1,0.407 -0.315,0.523 -0.368,0.889 0.435,-0.294 0.422,0.042 0.236,0.262 -0.199,0.236 -0.565,0.311 -0.85,0.367 -0.348,0.068 -0.64,0.12 -0.946,0.32 -0.22,0.144 -1.017,0.731 -0.726,0.004 -0.291,0.096 -0.497,0.445 -0.825,0.445 -0.246,0 -0.191,0.464 -0.477,0.54 0,-0.197 0.006,-0.714 -0.339,-0.634 -0.389,0.092 -0.62,0.681 -0.68,0.062 -0.009,0.286 -0.103,0.251 -0.309,0.239 -0.243,-0.015 -0.224,0.592 -0.229,0.714 -0.508,-0.328 -0.448,-0.742 -0.349,-1.271 -0.121,0.368 -0.55,0.417 -0.794,0.667 -0.278,0.285 -0.408,0.685 -0.67,0.984 -0.613,0.703 -1.172,0.344 -1.743,1.113 -0.071,-0.207 -0.125,-0.251 -0.035,-0.477 -0.104,0.097 -0.211,0.192 -0.317,0.285 0.205,-0.814 -0.397,0.076 -0.441,0.286 0.023,-0.351 0.068,-0.703 0.349,-0.953 -0.193,0.089 -0.342,0.227 -0.446,0.413 0.329,-0.08 -0.114,0.822 -0.287,0.953 -0.016,-0.138 -0.037,-0.276 -0.062,-0.413 -0.158,0.13 -0.676,0.585 -0.097,-0.063 -0.536,0.728 -0.226,0.077 -0.128,-0.127 -0.347,0.225 -1.066,0.446 -1.1,0.933 -0.009,0.14 -0.714,0.759 -0.867,0.851 -0.604,0.364 -2.782,2.218 -1.81,2.949 -0.306,0.181 -1.527,0.64 -1.475,1.111 0.025,0.223 0.539,0.303 0.661,0.501 0.308,0.502 -0.158,1.116 0.396,1.617 0.467,0.422 1.39,0.01 1.495,-0.593 -0.388,0 -0.064,-0.385 -0.441,-0.635 0.674,-0.029 0.57,0.958 0.351,1.334 -0.258,0.444 -1.934,0.728 -2.42,0.667 0.098,-0.228 0.205,-0.449 0.322,-0.668 -0.665,0.345 -1.37,0.839 -2.1,0.891 0.139,-0.333 0.22,-0.708 0.512,-0.953 -0.314,0.157 -0.667,0.58 -0.732,0 -0.582,0.722 -0.614,1.382 -1.663,1.548 -0.207,0.033 -1.924,0.307 -1.893,-0.087 -0.017,0.417 -0.647,0.419 -0.932,0.415 -0.623,-0.008 -0.947,10e-4 -1.543,0.239 -1.189,0.476 -2.349,0.87 -3.371,1.633 0.499,-0.621 0.965,-1.219 0.856,-2.065 -0.413,0.699 -0.133,2.023 -1.203,2.345 -0.836,0.251 -0.9,0.897 -0.006,0.991 -0.16,0.827 -0.71,1.554 -1.143,2.256 0.106,-0.212 0.212,-0.424 0.317,-0.636 -0.702,-0.017 -0.884,1.926 -1.681,1.856 -0.254,-0.021 -0.896,1.023 -1.062,1.204 -0.374,0.404 -0.887,0.941 -1.479,0.974 0.078,-0.201 0.591,-0.703 0.293,-0.906 -0.497,-0.339 -0.832,-0.359 -1.183,-0.933 -0.629,-1.03 1.012,-1.365 1.525,-1.814 -0.779,0.329 -2.137,0.828 -1.747,1.934 0.226,0.64 -0.011,1.278 0.26,1.951 0.218,0.54 0.1,0.938 -0.261,1.135 0.476,0.098 0.251,0.546 0.062,0.794 0.331,-0.726 -0.076,-0.066 -0.137,0.091 -0.097,0.252 -0.474,0.431 -0.666,0.604 -0.517,0.47 -0.868,0.982 -1.294,1.529 -0.381,0.49 -0.913,0.854 -1.282,1.336 -0.218,0.285 -0.461,1.059 -0.911,1.047 -0.155,-0.713 0.497,-1.459 0.925,-1.943 0.215,-0.243 0.774,-1.052 1.047,-1.106 -0.26,-0.103 -0.504,-0.071 -0.732,0.096 0.084,-0.308 0.903,-0.923 0.093,-0.922 0.155,-0.202 0.272,-0.425 0.353,-0.667 -0.322,0.528 -0.515,-0.254 -0.604,0.477 -0.058,-0.172 -0.534,-0.479 -0.483,-0.654 0.091,-0.312 0.558,-0.473 0.294,-0.839 0.224,0.004 0.436,0.057 0.634,0.159 -0.062,-0.265 -0.375,-0.815 -0.732,-0.604 0.153,-0.447 0.399,-0.148 0.689,-0.327 0.488,-0.3 -0.28,-0.502 -0.561,-0.276 0.157,-0.521 0.871,-0.33 0.984,-0.921 -0.102,0.09 -0.208,0.175 -0.318,0.254 -0.269,-0.865 1.002,-1.103 1.588,-1.175 -0.109,-0.082 -0.215,-0.166 -0.318,-0.255 0.246,-0.117 0.447,-0.286 0.604,-0.508 -0.218,0.136 -0.439,0.263 -0.666,0.381 0.102,-0.111 0.197,-0.229 0.287,-0.349 -0.331,-0.041 -0.49,0.149 -0.65,0.401 -0.111,0.174 -0.734,0.7 -0.338,0.043 -0.178,0.13 -0.305,0.3 -0.379,0.508 -0.125,-0.604 -0.709,0.097 -0.667,0.382 -0.117,-0.051 -0.233,-0.104 -0.348,-0.159 0.045,0.241 0.149,0.453 0.313,0.636 -0.4,0.039 -0.352,0.104 -0.093,0.349 -0.906,-0.561 -0.659,2.265 -0.892,2.541 -0.472,-0.316 -0.557,-0.785 -0.379,-1.302 -0.149,0.423 -0.261,0.797 0.054,1.18 0.244,0.298 0.57,0.744 0.167,1.076 -0.124,-0.494 -1.276,-0.501 -1.081,-1.08 -0.165,-0.03 -0.207,0.075 -0.124,0.317 -0.222,-0.124 -0.399,-0.328 -0.478,-0.571 -0.518,0.463 -0.763,-0.133 -0.317,-0.553 0.341,-0.32 1.127,-0.637 0.856,-1.227 0.022,0.605 -1.757,1.72 -1.375,2.059 0.231,0.206 0.611,-0.061 0.796,0.257 0.312,0.535 0.409,0.386 0.977,0.535 0.232,0.062 0.391,0.565 0.594,0.733 0.34,0.281 0.288,0.436 -0.019,0.775 -0.81,0.896 -1.313,-0.473 -1.608,-1.119 -0.031,0.594 0.443,1.487 0.955,1.777 0.628,0.357 0.491,0.893 -0.29,0.764 0.047,0.115 0.089,0.232 0.128,0.35 -0.488,0.285 -0.732,-0.396 -0.984,-0.667 0.336,0.604 1.608,1.505 0.444,1.905 -0.394,-1.14 -1.136,-1.049 -2.16,-1.429 0.107,0.216 0.797,0.266 1.061,0.453 0.363,0.26 1.118,0.898 0.686,1.389 0.2,-0.214 0.456,-0.193 0.635,0.032 -0.051,-0.513 0.479,-0.343 0.773,-0.259 0.371,0.107 0.286,0.402 0.285,0.759 0,0.474 -0.046,0.933 -0.088,1.404 -0.053,0.604 0.298,1.255 0.11,1.844 -0.032,-0.512 -0.052,-1.043 -0.197,-1.538 -0.141,-0.48 0.241,-0.978 -0.121,-1.416 -0.024,0.17 -0.099,0.513 -0.287,0.19 -0.01,0.622 0.407,1.267 0.098,1.874 0.031,-0.249 -0.033,-0.472 -0.19,-0.667 -0.127,0.343 -0.379,0.383 -0.606,0.095 0.062,0.112 0.115,0.229 0.159,0.35 -0.249,0.158 -0.471,0.126 -0.667,-0.095 0.317,0.646 -0.325,0.148 -0.541,0.031 0.092,0.101 0.176,0.206 0.254,0.318 -0.312,0.079 -0.577,0.43 -0.921,0.222 -0.365,-0.221 -0.197,-0.719 0,-0.984 -0.169,0.146 -0.606,1.175 -0.329,1.346 0.246,0.152 0.585,-0.196 0.833,-0.105 0.202,0.073 1.191,-0.266 1.147,0.186 -0.03,0.309 -0.203,0.755 -0.412,0.988 0.286,-0.094 0.396,-0.331 0.469,-0.599 0.096,-0.352 0.484,-0.251 0.705,-0.481 0.239,0.493 -0.218,0.841 -0.286,1.303 -0.445,-0.322 -0.748,0.417 -0.981,0.663 -0.432,0.458 -1.238,0.197 -1.686,-0.092 0.066,-0.111 0.14,-0.217 0.222,-0.318 -0.25,0.06 -0.419,0.239 -0.35,0.509 -0.417,-0.205 -0.922,-0.151 -1.302,-0.444 0.231,0.243 1.796,0.854 1.136,1.111 -0.252,0.098 -0.092,0.416 -0.323,0.578 -0.511,0.358 -0.787,0.321 -1.289,-0.069 0.041,0.44 0.34,0.599 0.75,0.548 0.278,-0.034 1.164,-0.415 1.029,-0.008 0.141,-0.079 0.29,-0.143 0.444,-0.191 -0.172,0.281 -0.467,0.638 -0.762,0.794 -0.167,0.089 -1.128,0.015 -0.89,0.255 -0.502,-0.082 -1.193,-0.159 -1.568,0.174 -0.256,0.229 -0.79,0.62 -0.624,-0.047 -0.162,0.144 -0.152,0.405 -0.207,0.595 -0.06,0.203 -0.495,0.284 -0.661,0.376 -0.722,0.395 -1.13,1.082 -1.546,1.762 0.055,-0.209 0.077,-0.421 0.063,-0.636 -0.283,1.232 -1.429,0.836 -2.433,1.137 -1.14,0.342 -1.866,1.363 -2.554,2.262 -0.171,-0.229 -0.097,-0.479 0.127,-0.635 -0.376,0.211 -0.082,0.898 -0.508,0.984 -0.229,0.046 -0.134,0.203 -0.281,0.337 -0.261,0.237 -0.337,-0.007 -0.577,0.14 -0.254,0.156 -1.404,1.566 -1.556,0.698 0.141,0.717 -0.458,0.815 -0.946,1.073 -0.306,0.162 -0.552,0.319 -0.915,0.252 -0.154,-0.028 -1.113,0 -0.299,0.137 -0.965,0.192 0.69,0.073 -0.317,0.477 0.769,-0.075 -0.509,0.561 -0.381,-0.19 -0.084,0.857 -0.35,-0.128 -0.381,-0.318 0.009,0.283 0.111,0.553 0.117,0.835 0.007,0.353 -0.75,0.892 -0.307,0.245 -0.501,0.756 -0.559,1.032 -1.461,1.303 0.043,0.105 0.085,0.211 0.127,0.318 -0.202,0.124 -0.413,0.146 -0.635,0.063 -0.012,0.118 -10e-4,0.234 0.032,0.349 0.118,-0.037 0.235,-0.079 0.35,-0.127 -0.079,0.393 -0.461,0.558 -0.826,0.541 0.395,0.217 0.201,0.803 -0.095,0.508 0.104,0.521 -0.175,0.315 -0.572,0.223 0.243,0.08 0.434,0.229 0.572,0.444 -0.297,0.289 -0.663,0.254 -0.824,0.697 -0.114,0.315 -0.626,1.113 -0.367,1.429 0.113,0.11 0.105,0.21 -0.024,0.298 -0.312,0.21 -0.092,0.281 -0.037,0.629 0.107,0.678 -0.061,1.47 -0.064,2.156 -0.008,1.479 0.367,2.974 0.87,4.356 0.248,0.682 0.202,0.83 0.008,1.476 -0.191,0.638 0.024,1.222 0.088,1.855 -0.262,-0.654 -0.377,-1.354 -0.099,-2.023 0.319,-0.767 -0.442,-0.588 -0.473,-1.217 0,1.163 0.152,2.272 0.462,3.392 0.168,0.608 0.595,1.855 0.141,2.422 1.04,-0.146 -0.265,4.271 -0.479,4.752 -0.351,0.787 -0.849,2.438 -1.617,2.871 -0.256,0.145 -0.153,-0.471 -0.475,-0.019 -0.229,0.323 -0.579,0.003 -0.886,0.114 -0.514,0.188 -1.289,-0.059 -0.735,-0.667 0.104,0.227 0.3,0.403 0.54,0.476 0.134,-0.347 -0.459,-0.699 -0.599,-0.959 -0.308,-0.572 -0.082,-1.196 -0.749,-1.597 -0.394,-0.235 -0.799,-0.27 -0.845,-0.812 -0.045,-0.534 0.293,-1.284 -0.35,-1.588 0.379,-0.129 0.57,-0.518 0.89,-0.73 -0.329,0.1 -0.531,0.49 -0.858,0.612 -0.275,0.102 0.014,-1.402 0.19,-1.597 -0.22,0.149 -0.432,0.139 -0.635,-0.032 0.458,0.521 -0.268,0.633 -0.508,0 -0.221,-0.581 0.042,-1.585 -0.572,-1.969 0.496,-0.033 1.463,-1.185 1.175,-1.684 -0.107,0.071 -0.213,0.146 -0.317,0.222 0.029,-0.274 -0.145,-0.491 -0.381,-0.604 -0.153,0.227 -0.16,0.413 0.077,0.578 0.209,0.146 -0.245,0.623 -0.331,0.725 -0.147,-0.238 -0.277,-0.551 -0.222,0 -0.403,-1.298 0.877,-2.529 1.177,-3.728 0.106,-0.427 0.104,-0.811 0.019,-1.242 -0.146,-0.735 -0.436,-0.502 -0.894,-0.936 -0.665,-0.632 -0.886,-1.548 -1.264,-2.337 -0.183,-0.383 -0.598,-0.803 -1.007,-0.938 -0.598,-0.197 -0.987,0.41 -1.557,0.35 0.098,0.486 -0.346,0.371 -0.747,0.619 -0.156,0.097 -0.861,0.56 -0.778,0.143 -0.449,0.338 -1.039,0.445 -1.588,0.445 0.331,-0.43 0.059,-0.992 -0.381,-1.207 0.211,0.027 0.18,-0.089 -0.095,-0.35 0.431,0.332 0.569,-0.083 0.144,-0.126 -0.641,-0.065 -0.185,-0.514 0.174,-0.604 -0.308,0.012 -0.614,0.026 -0.921,0.031 0.086,0.105 0.17,0.211 0.254,0.318 -0.622,0.158 -1.655,-0.562 -2.192,-0.826 0.072,0.012 1.168,0.163 1.09,-0.041 -0.075,-0.197 -0.435,-0.325 -0.616,-0.363 -0.326,-0.069 -0.633,0.219 -0.917,0.327 -0.485,0.185 -1.172,0.187 -1.684,0.173 0.292,-0.03 0.567,-0.115 0.826,-0.254 -0.269,-0.088 -0.374,-0.302 -0.19,-0.54 -0.162,0.18 -0.31,0.37 -0.445,0.571 0.193,-0.879 -0.352,-0.046 -0.527,0.14 -0.264,0.278 -0.577,0.421 -0.966,0.4 0.24,-0.061 0.833,-0.349 0.477,-0.667 -0.267,0.723 -1.234,1.108 -1.938,0.826 0.706,0.265 0.375,-1.469 0.254,-1.811 -0.173,0.37 -0.385,0.792 -0.603,1.137 -0.166,0.264 -0.624,0.11 -0.883,0.254 -0.139,0.077 -0.842,0.1 -0.77,-0.01 -0.267,0.402 -0.596,-0.265 -0.89,-0.143 0.134,0.045 -0.86,0.26 -1.069,0.284 -0.528,0.061 -0.598,0.362 -1.105,0.536 -0.916,0.313 -1.207,-0.738 -2.023,-0.722 -0.289,0.006 -1.261,0.831 -0.775,1.099 0.32,0.176 0.875,0.151 1.205,0.021 0.27,-0.106 0.854,-0.047 1.035,-0.202 -0.112,0.146 -0.8,0.44 -0.715,0.668 0.216,0.575 0.459,0.25 0.727,-0.039 0.351,-0.381 0.859,0.111 0.605,0.534 -0.216,0.359 -0.939,0.065 -0.809,0.68 -0.43,-0.158 -0.479,0.149 -0.373,0.48 0.17,0.536 0.563,0.585 1.055,0.73 0.24,0.071 0.337,0.411 0.514,0.599 0.177,0.188 -0.446,0.516 -0.433,0.764 -0.334,-0.503 -0.691,-0.013 -0.985,0.223 0.179,-0.241 0.357,-0.485 0.477,-0.764 -0.3,-0.036 -0.217,-0.197 -0.338,-0.382 -0.075,-0.114 -0.827,-0.378 -0.964,-0.38 0.251,-0.408 -0.967,-1.006 -1.115,-0.875 -0.083,0.073 0.232,0.547 0.203,0.716 -0.084,0.492 -0.241,0.927 -0.771,1.049 -0.015,-0.46 0.059,-0.598 -0.445,-0.698 -0.806,-0.162 -0.453,0.447 -1.026,0.568 -0.9,0.19 -1.868,-0.852 -1.356,-1.712 -0.206,0.385 -0.703,0.208 -0.945,-0.028 -0.157,-0.155 -0.271,-0.382 -0.199,-0.606 -0.323,-0.051 -0.925,0.226 -0.508,-0.318 -0.398,0.005 -1.354,0.38 -0.953,0.921 -0.603,-0.101 -1.129,0.203 -1.774,0.036 -0.759,-0.196 -1.417,-0.661 -2.165,-0.893 0.348,-0.306 0.5,-0.593 0.317,-1.049 -0.128,0.334 -0.198,1.149 -0.62,1.247 -0.394,0.092 -1.132,0.181 -1.508,-0.009 0.193,-0.283 0.575,-0.494 0.54,-0.889 -0.441,0.221 -0.862,0.68 -0.508,1.175 -1.17,0.154 -2.375,0.537 -3.335,1.239 0.282,-0.368 0.749,-0.607 1.175,-0.763 -0.336,-0.065 -0.667,0.032 -0.985,0.127 0.217,-0.274 0.459,-0.608 0.35,-0.984 -0.285,0.062 -0.328,0.333 -0.572,0.444 -0.232,0.106 -0.251,-0.327 -0.477,-0.063 -0.195,0.228 0.039,1.085 0.349,1.176 -0.549,0.542 -1.162,0.9 -1.688,1.475 -0.72,0.787 -2.073,0.642 -2.695,1.384 0.212,-0.063 0.423,-0.127 0.635,-0.19 -0.517,0.287 -1.058,0.544 -1.62,0.73 0.254,-0.233 0.593,-0.343 0.826,-0.604 -0.217,0.059 -0.429,0.133 -0.635,0.223 0.49,-0.304 -0.586,-0.222 -0.699,-0.572 0.052,0.22 -10e-4,0.41 -0.159,0.572 0.107,-0.944 -1.166,0.554 0,0.508 -0.395,0.374 -0.996,0.537 -1.271,-0.063 0.038,0.523 -0.868,1.674 -0.73,0.984 -0.233,0.498 -0.826,-0.018 -1.017,0.571 0.261,0.074 0.484,0.011 0.667,-0.19 -0.127,0.983 -1.095,0.809 -1.811,1.017 0.127,0.017 0.254,0.027 0.381,0.031 -0.105,0.238 0.077,0.394 0.148,0.597 0.087,0.245 -0.386,0.779 -0.503,0.965 -0.316,0.497 -1.003,0.528 -1.265,-0.037 0.148,0.23 0.138,0.452 -0.032,0.668 0.316,0.074 0.651,0.146 0.953,-0.031 -0.089,0.346 -0.267,0.927 -0.616,1.102 -0.292,0.146 -0.019,0.887 -0.019,1.121 0,0.704 -0.426,2.162 0.127,2.732 0.11,-0.092 0.216,-0.187 0.317,-0.286 0.083,0.337 -0.737,0.653 -0.966,0.686 -0.453,0.063 -0.745,-0.717 -1.264,-0.717 -0.425,0 -0.999,0.112 -1.381,-0.126 -0.446,-0.279 -0.969,-0.916 -1.551,-1.001 -1.009,-0.147 -0.981,-0.829 -1.11,-1.771 -0.086,-0.633 -0.259,-1.178 -0.2,-1.829 0.026,-0.28 0.159,-0.542 0.162,-0.826 0.002,-0.41 -0.542,-0.553 -0.723,-0.887 -0.283,-0.517 -0.307,-1.126 -0.667,-1.607 -0.356,-0.475 -0.485,-0.98 -0.594,-1.558 -0.104,-0.548 -0.046,-1.106 -0.177,-1.652 -0.065,-0.271 -0.236,-0.476 -0.312,-0.736 -0.091,-0.317 -0.51,-0.52 -0.539,-0.807 -0.053,-0.534 -0.813,-0.709 -0.865,-1.275 -0.006,-0.062 -1.012,-0.195 -1.106,-0.21 -1.041,-0.153 -2.11,-0.191 -3.041,0.359 -1.013,0.6 -1.204,2.103 -2.301,2.686 -0.489,0.26 -1.1,-0.357 -1.469,-0.607 -0.334,-0.225 -0.691,-0.412 -1.021,-0.644 -0.252,-0.177 -0.483,-0.666 -0.757,-0.77 -0.583,-0.219 -0.707,-1.119 -0.681,-1.659 0.017,-0.364 0.194,-0.648 0.137,-1.023 -0.051,-0.334 -0.163,-0.646 -0.131,-0.991 0.059,-0.643 -0.486,-0.884 -0.932,-1.196 -0.624,-0.436 -1.042,-1.383 -1.425,-2.021 -0.316,-0.528 -0.756,-0.426 -0.92,-1.143 -0.186,-0.809 -1.391,-0.56 -1.981,-0.56 -0.95,0 -1.911,0.04 -2.859,-0.017 -1.053,-0.062 -1.121,0.469 -1.479,1.262 -0.455,1.005 -2.56,0.471 -3.421,0.471 -1.752,0 -3.555,0.166 -5.298,0.082 -0.815,-0.038 -1.547,-0.554 -2.279,-0.869 -1.008,-0.433 -2.057,-0.779 -3.073,-1.195 -1.913,-0.783 -3.796,-1.636 -5.674,-2.496 0.121,-0.324 0.403,-0.526 0.604,-0.795 -2.668,0.085 -5.318,0.438 -7.973,0.699 -0.029,-0.746 0.216,-1.445 0.227,-2.183 0.012,-0.9 -0.62,-1.244 -1.125,-1.885 -0.519,-0.656 -0.521,-0.277 -1.147,-0.509 -0.428,-0.157 0.496,-1.28 -0.74,-1.236 -0.758,0.026 -1.051,-0.192 -1.443,-0.815 -0.415,-0.657 -1.272,-0.547 -1.937,-0.689 -0.436,-0.095 -1.815,0.173 -1.644,-0.706 0.107,-0.553 0.702,-1.066 0.726,-1.633 0.023,-0.544 -0.68,-0.45 -0.315,-1.06 0.229,-0.381 -0.262,-0.843 -0.537,-1.14 -0.271,-0.293 -0.242,-0.672 -0.262,-1.063 -0.029,-0.569 -0.794,-1.135 -0.641,-1.647 0.24,-0.804 0.341,-0.799 0.899,-1.348 0.651,-0.643 0.075,-0.791 -0.445,-1.155 -0.772,-0.542 -0.112,-1.053 -0.251,-1.725 -0.083,-0.397 0.367,-1.291 0.821,-1.313 10e-4,0.214 -0.23,0.426 -0.19,0.635 0.049,0.264 0.379,0.474 0.54,0.668 0.267,-0.862 -0.247,-1.832 0.794,-2.287 -0.945,-1.005 -0.821,0.911 -1.409,0.786 -0.376,-0.08 -0.817,-1.113 -1.227,-0.532 0.212,-0.259 0.508,-1.046 0.73,-0.35 -0.021,-0.306 -0.044,-0.61 -0.255,-0.838 z"
         id="path3804"
         inkscape:connector-curvature="0"
         style="fill:#aaaaaa" />
      <path
         d="m -161.244,238.996 c -0.979,0.409 0.459,0.801 0.73,1.112 -0.109,0.105 -0.225,0.201 -0.349,0.286 0.203,-0.097 0.653,-0.152 0.683,-0.445 0.028,-0.287 0.669,-0.272 0.81,-0.54 -0.637,-0.296 -1.148,-0.63 -1.874,-0.413 z"
         id="path7112"
         inkscape:connector-curvature="0"
         style="fill:#aaaaaa" />
      <path
         d="m -153.24,234.453 c 0.8,0.241 1.528,-0.297 2.31,-0.327 0.606,-0.023 1.447,0.212 1.979,-0.181 -0.442,0.122 -0.427,0.077 0.045,-0.135 0.35,-0.171 0.72,-0.292 1.094,-0.395 0.63,-0.171 1.272,-0.3 1.878,-0.551 -0.736,-0.025 -1.569,-0.057 -2.296,0.065 -0.605,0.101 -1.161,0.358 -1.776,0.431 -1.164,0.138 -2.428,0.084 -3.234,1.093 z"
         id="path7114"
         inkscape:connector-curvature="0"
         style="fill:#aaaaaa" />
    </g>
  </g>
</svg>
