<?xml version="1.0" encoding="UTF-8" standalone="no"?>
<!-- Created with Inkscape (http://www.inkscape.org/) -->

<svg
   xmlns:dc="http://purl.org/dc/elements/1.1/"
   xmlns:cc="http://creativecommons.org/ns#"
   xmlns:rdf="http://www.w3.org/1999/02/22-rdf-syntax-ns#"
   xmlns:svg="http://www.w3.org/2000/svg"
   xmlns="http://www.w3.org/2000/svg"
   xmlns:sodipodi="http://sodipodi.sourceforge.net/DTD/sodipodi-0.dtd"
   xmlns:inkscape="http://www.inkscape.org/namespaces/inkscape"
   width="1144.5mm"
   height="911.29999mm"
   viewBox="0 0 1144.5 911.29983"
   version="1.1"
   id="svg7070"
   inkscape:version="0.92.4 (5da689c313, 2019-01-14)"
   sodipodi:docname="afghanistan.svg">
  <defs
     id="defs7064" />
  <sodipodi:namedview
     id="base"
     pagecolor="#ffffff"
     bordercolor="#666666"
     borderopacity="1.0"
     inkscape:pageopacity="0.0"
     inkscape:pageshadow="2"
     inkscape:zoom="7.9195959"
     inkscape:cx="10.463417"
     inkscape:cy="0.88610015"
     inkscape:document-units="mm"
     inkscape:current-layer="layer1"
     showgrid="false"
     inkscape:window-width="958"
     inkscape:window-height="1008"
     inkscape:window-x="-7"
     inkscape:window-y="0"
     inkscape:window-maximized="0" />
  <metadata
     id="metadata7067">
    <rdf:RDF>
      <cc:Work
         rdf:about="">
        <dc:format>image/svg+xml</dc:format>
        <dc:type
           rdf:resource="http://purl.org/dc/dcmitype/StillImage" />
        <dc:title />
      </cc:Work>
    </rdf:RDF>
  </metadata>
  <g
     inkscape:label="Layer 1"
     inkscape:groupmode="layer"
     id="layer1"
     transform="translate(-155.35375,875.5968)">
    <path
       style="fill:#ffffff;stroke-width:26.45755386"
       inkscape:connector-curvature="0"
       id="af"
       d="m 156.09087,-434.175 c -3.11988,-10.82118 4.14984,-19.10251 12.67252,-24.5263 13.22849,-8.46683 6.10976,-14.23431 -1.00997,-24.23541 22.40914,-2.53995 21.48318,-31.14077 22.99112,-47.78273 0.69997,-8.51983 -8.88966,-18.38823 -3.91985,-26.66946 4.28983,-7.19685 4.38983,-18.36173 5.73978,-26.45786 2.95988,-17.80604 27.27695,6.08587 35.21464,10.18629 11.93154,6.08488 21.00719,-1.77296 33.01873,1.53497 13.12249,3.62493 23.04411,16.21857 27.19795,28.68022 8.32968,-17.72674 30.42582,-7.96384 43.39032,-19.6052 6.90974,-6.21788 14.57744,-9.39281 18.81028,-18.20294 3.93985,-8.20183 -4.38983,-11.66796 6.66974,-17.64734 -5.92977,-4.15391 -10.95358,-9.9478 -13.44048,-16.80076 36.2206,4.68291 74.90111,-19.94919 103.02503,-39.87189 27.62093,-19.5788 -7.27972,-81.41064 26.74796,-95.35386 12.38253,-5.0799 34.12969,2.19595 44.2893,-4.28591 10.79458,-6.87887 -1.97993,-27.01336 13.59947,-29.52691 11.77355,-1.90496 24.89604,10.2657 34.42067,15.50429 14.28745,7.83184 26.77497,3.57193 42.19938,1.56097 17.85931,-2.32795 33.83969,-2.77795 46.90919,10.90058 13.17549,13.78452 28.57389,-0.89999 44.44828,3.46593 6.34976,1.71996 18.1493,17.09175 23.81108,22.22455 12.40852,11.19167 13.75847,-2.48695 26.56398,0.28999 -2.16992,-14.49891 22.25014,-15.16039 29.41986,-23.09773 7.37972,-8.12284 6.26976,1.58797 13.38749,-1.29598 3.48986,-1.42897 3.17987,-9.36581 7.88969,-8.62482 12.64652,1.95796 16.95935,25.74338 32.59475,22.14515 18.78527,-4.31291 -1.79993,-28.04523 5.86977,-39.07821 16.24537,-23.36222 51.32702,4.47191 61.56662,-6.69386 12.51452,-13.67872 -6.55974,-18.67922 -8.70966,-28.25693 -2.4599,-11.16517 13.33449,-24.3412 17.40933,-35.47988 11.27056,-30.66468 51.24702,-33.31042 68.39136,-3.04294 3.99985,7.09086 -1.87993,29.6328 5.84978,32.17275 7.95969,2.59295 19.31322,-7.98984 24.26102,3.41293 5.1598,11.98536 2.12,37.70234 2.6999,50.77247 0.6,14.737 3.0399,29.7915 8.4097,43.54962 16.6424,42.59703 41.9354,19.18191 65.9845,-1.00598 9.8996,-8.28083 29.8708,0.97998 35.2676,-11.77366 7.2197,-17.09176 17.7793,-27.64844 35.0827,-36.30007 12.8315,-6.40287 61.7776,-5.07989 40.8234,18.22933 14.6044,6.11188 38.5755,-10.50368 51.777,-16.72126 10.7946,-5.07989 45.4272,8.20184 52.439,17.54155 -9.8197,4.44491 -16.1394,-5.60889 -26.008,-0.81999 -11.6936,5.66189 -10.6096,17.88554 1.6399,21.85416 -10.5036,3.59793 -19.1553,10.87418 -29.1559,15.53079 -13.8374,6.42886 -23.6531,-1.85197 -37.4905,-3.04294 -27.092,-2.30196 -58.6028,2.77794 -85.3777,7.38185 -12.6466,2.16995 -25.1081,5.76788 -35.9817,12.80564 -10.1066,6.58786 -17.7793,23.04473 -28.9178,26.96045 -13.4145,4.68291 -11.5886,-4.12692 -20.7692,8.86382 -5.0798,7.22285 -17.0914,16.29797 -19.4993,24.34111 -2.7299,9.04881 10.9536,17.99133 16.6154,22.25104 8.3597,6.29688 12.8845,23.60033 19.2342,27.38375 7.1998,4.31291 9.9197,12.40875 10.5836,20.58418 0.2,2.83094 5.9298,25.42599 7.5097,23.15063 -4.9198,6.93186 -3.4098,21.51016 -11.6945,24.738 -8.9997,3.46593 -15.3714,15.90118 -19.8432,24.12951 -2.5899,4.04792 -3.0399,8.33383 -1.35,12.83204 -2.4899,0.11 -10.3716,0.55999 -8.3297,5.52989 2.7999,6.98486 11.5616,11.29747 16.5884,16.48316 17.6203,18.15013 -12.0905,35.21539 -25.187,38.07283 -12.7265,2.77794 -25.66405,2.43395 -38.41656,-0.16 -6.34975,-1.26997 -26.77497,-11.24457 -32.78073,-5.13289 -13.0965,13.22893 25.902,35.00369 31.56378,44.211 4.38983,7.14386 16.27137,21.90706 12.27652,29.92379 -3.93984,7.91084 -23.1771,22.91244 -32.56874,19.04962 -23.54709,-9.63081 -25.47902,12.48804 -24.76404,27.09275 0.59997,11.56206 0.69997,22.56854 -7.24972,31.64355 -8.62967,9.8688 0.49998,22.96534 3.19987,33.68072 5.1598,20.08149 2.19992,45.13698 -18.33429,55.82597 -12.19653,6.34987 -15.5304,-0.19 -21.53617,-9.8158 -4.96981,-7.91084 -21.82716,-14.15492 -22.48913,-0.68999 -34.47367,-13.99611 -39.28849,22.09235 -72.36021,22.67434 2.69989,10.45089 14.49844,10.84778 21.00719,17.67384 -12.77951,6.79986 -27.01296,13.20243 -41.80339,12.67325 -10.60859,-0.37 -18.73128,-10.001 -26.66897,-10.2127 -13.65147,-0.33999 -23.07011,25.16139 -31.0338,33.15163 -10.26561,10.26569 -14.49844,8.01684 -15.47741,26.08737 -0.89996,16.721361 5.81978,29.765096 7.24972,45.957268 -1.47994,6.349871 -2.77989,12.752641 -3.99984,19.20831 0.79997,6.111876 5.41979,7.540847 7.6197,12.541045 7.9397,18.044134 -59.4497,29.950192 -68.26036,32.04035 -14.86843,3.544928 -28.36191,7.222853 -43.91831,6.614866 -15.5834,-0.639987 -34.47467,-3.96892 -48.92011,3.782923 -14.07546,7.566846 -19.65724,13.78452 -36.00861,9.233813 -15.26541,-4.232914 -29.49987,-6.137876 -45.24126,-3.994919 -34.95065,4.841901 -67.09641,13.387628 -101.99306,3.121936 -40.95642,-12.038355 -79.45194,-31.19376663 -121.28033,-40.586276 17.83232,-20.478384 30.50483,-44.660794 45.79724,-66.938242 13.14949,-19.155411 26.27198,-40.162984 18.28229,-64.398294 -14.63143,-44.2903 -82.8118,-9.31281 -93.52639,-57.78383 -6.76974,-30.71747 -7.98969,-57.41343 -21.96015,-86.35824 -12.03754,-24.9497 -28.09692,-49.10571 -10.84759,-74.98138 13.91647,-20.87518 10.74159,-18.52043 -10.87358,-24.44701 -19.81623,-5.39789 -16.64135,-34.2628 -21.03318,-49.55549 z" />
  </g>
</svg>
