<?xml version="1.0" encoding="UTF-8" standalone="no"?>
<!-- Created with Inkscape (http://www.inkscape.org/) -->

<svg
   xmlns:dc="http://purl.org/dc/elements/1.1/"
   xmlns:cc="http://creativecommons.org/ns#"
   xmlns:rdf="http://www.w3.org/1999/02/22-rdf-syntax-ns#"
   xmlns:svg="http://www.w3.org/2000/svg"
   xmlns="http://www.w3.org/2000/svg"
   xmlns:sodipodi="http://sodipodi.sourceforge.net/DTD/sodipodi-0.dtd"
   xmlns:inkscape="http://www.inkscape.org/namespaces/inkscape"
   width="144mm"
   height="298mm"
   viewBox="0 0 144 298.00003"
   version="1.1"
   id="svg7070"
   inkscape:version="0.92.4 (5da689c313, 2019-01-14)"
   sodipodi:docname="albania.svg">
  <defs
     id="defs7064" />
  <sodipodi:namedview
     id="base"
     pagecolor="#ffffff"
     bordercolor="#666666"
     borderopacity="1.0"
     inkscape:pageopacity="0.0"
     inkscape:pageshadow="2"
     inkscape:zoom="7.9195959"
     inkscape:cx="0.74688124"
     inkscape:cy="-16.596815"
     inkscape:document-units="mm"
     inkscape:current-layer="layer1"
     showgrid="false"
     inkscape:window-width="958"
     inkscape:window-height="1008"
     inkscape:window-x="-7"
     inkscape:window-y="0"
     inkscape:window-maximized="0" />
  <metadata
     id="metadata7067">
    <rdf:RDF>
      <cc:Work
         rdf:about="">
        <dc:format>image/svg+xml</dc:format>
        <dc:type
           rdf:resource="http://purl.org/dc/dcmitype/StillImage" />
        <dc:title />
      </cc:Work>
    </rdf:RDF>
  </metadata>
  <g
     inkscape:label="Layer 1"
     inkscape:groupmode="layer"
     id="layer1"
     transform="translate(-158.43235,253.02798)">
    <path
       inkscape:connector-curvature="0"
       style="fill:#ffffff;stroke-width:26.45905304"
       d="m 161.84295,-55.34595 c 4.55078,-7.751099 8.47145,-16.931332 5.13088,-26.005477 12.3321,1.957772 6.03103,-26.270043 8.55146,-35.450083 1.96033,-7.06318 -9.02154,-7.38114 -5.05087,-16.40219 2.99052,-6.74622 5.42093,-13.83609 6.93119,-21.08485 2.51043,-12.32817 0.40007,-26.00558 -15.56066,-22.03724 -6.01102,-18.65093 -4.42075,-41.34959 7.49128,-57.06397 9.58164,-12.64563 13.04623,-30.84691 23.57802,-10.50278 7.86135,15.26473 21.11761,-7.19616 32.91962,5.34438 3.92067,4.15352 1.64028,11.08472 5.851,15.13234 8.07138,7.7781 17.91506,2.19575 24.45117,16.27001 5.58096,11.98421 6.14105,56.66722 -3.44058,60.21221 0.6001,5.0794 5.19088,10.44978 7.44127,14.73558 0.40006,3.73057 -0.50009,7.14317 -2.73047,10.26461 -1.64028,8.12206 8.33142,16.16422 12.57015,21.71978 5.79098,7.672103 4.52077,18.095392 16.37979,16.455182 11.53797,-1.560818 12.04106,5.185398 14.47547,13.756702 7.22123,25.423545 -11.88203,23.095415 -19.68836,43.254372 -2.65045,6.772213 -3.86066,25.5557297 -11.82902,28.5981761 -20.5085,7.8310897 -22.3078,4.3914895 -13.23126,26.8784759 -15.29561,-1.560819 -2.09035,11.111208 -17.73002,15.476301 -13.07223,3.650576 -17.14793,-6.349262 -18.86822,-17.090013 -4.39075,-27.88385952 -41.44007,-37.883997 -57.63584,-59.762454 5.66097,0.869899 9.60164,3.941542 11.77601,9.258924 8.39143,-9.708872 -7.83133,-15.873155 0.80014,-19.312356 -5.13088,-3.280618 -9.3416,-7.487129 -12.59615,-12.64563 z"
       id="al" />
  </g>
</svg>
