<?xml version="1.0" encoding="UTF-8" standalone="no"?>
<!-- Created with Inkscape (http://www.inkscape.org/) -->

<svg
   xmlns:dc="http://purl.org/dc/elements/1.1/"
   xmlns:cc="http://creativecommons.org/ns#"
   xmlns:rdf="http://www.w3.org/1999/02/22-rdf-syntax-ns#"
   xmlns:svg="http://www.w3.org/2000/svg"
   xmlns="http://www.w3.org/2000/svg"
   xmlns:sodipodi="http://sodipodi.sourceforge.net/DTD/sodipodi-0.dtd"
   xmlns:inkscape="http://www.inkscape.org/namespaces/inkscape"
   width="1782.6mm"
   height="1824.3mm"
   viewBox="0 0 1782.6 1824.2995"
   version="1.1"
   id="svg7070"
   inkscape:version="0.92.4 (5da689c313, 2019-01-14)"
   sodipodi:docname="algeria.svg">
  <defs
     id="defs7064" />
  <sodipodi:namedview
     id="base"
     pagecolor="#ffffff"
     bordercolor="#666666"
     borderopacity="1.0"
     inkscape:pageopacity="0.0"
     inkscape:pageshadow="2"
     inkscape:zoom="7.9195959"
     inkscape:cx="29.773619"
     inkscape:cy="14.715142"
     inkscape:document-units="mm"
     inkscape:current-layer="layer1"
     showgrid="false"
     inkscape:window-width="958"
     inkscape:window-height="1008"
     inkscape:window-x="-7"
     inkscape:window-y="0"
     inkscape:window-maximized="0" />
  <metadata
     id="metadata7067">
    <rdf:RDF>
      <cc:Work
         rdf:about="">
        <dc:format>image/svg+xml</dc:format>
        <dc:type
           rdf:resource="http://purl.org/dc/dcmitype/StillImage" />
        <dc:title />
      </cc:Work>
    </rdf:RDF>
  </metadata>
  <g
     inkscape:label="Layer 1"
     inkscape:groupmode="layer"
     id="layer1"
     transform="translate(-149.56304,1778.1613)">
    <path
       style="fill:#ffffff;stroke-width:26.45846748"
       inkscape:connector-curvature="0"
       id="dz"
       d="m 149.56304,-790.01398 c 4.37003,-41.46078 5.95005,-85.19699 5.95005,-126.89588 0,-29.58091 46.80436,-45.40313 65.6425,-62.54837 9.34007,-8.49312 21.67017,-24.18337 36.00928,-22.75457 13.6801,1.3761 24.44819,-17.251 34.81927,-23.4953 23.38918,-14.0231 41.24932,23.7335 57.33444,-11.7211 4.98004,-10.9805 20.93016,-6.3761 30.50723,-7.6202 17.25214,-2.302 34.63427,-7.6201 50.9064,-13.6526 32.70125,-12.0917 36.30028,-44.9799 64.18749,-59.7439 11.50909,-6.0591 24.31519,-8.9691 36.43228,-13.4675 14.92312,-5.53 24.73819,-22.2782 40.13731,-25.3738 5.64004,-1.111 38.9723,-1.349 26.53821,-17.3305 -8.02007,-10.3453 -23.73319,-16.325 -7.28006,-31.4064 -23.54818,-6.4561 -2.28002,-31.1419 15.00211,-29.6867 22.86018,1.905 43.92034,-6.2181 52.01641,-27.6229 15.53112,-40.9846 121.31093,-4.6831 151.49916,-12.4621 -27.86021,-10.5305 25.5862,-34.4228 6.48005,-49.1603 -8.89007,-6.8531 -18.81214,-12.8589 -26.0352,-21.6167 -8.36006,-10.1337 -4.00003,-24.633 -12.19709,-37.0157 -8.57007,-12.9648 -0.1,-22.1459 2.36002,-35.0314 2.33001,-12.0916 -10.71609,-13.732 -9.42008,-25.4532 1.22001,-10.9539 5.50005,-21.9343 5.66005,-32.8617 0.2,-14.6581 -14.02311,-28.6283 0.5,-40.0056 -15.08111,-6.1651 -6.01004,-13.8379 -8.20006,-25.1093 -2.91002,-15.0285 -28.23022,-19.9234 -33.94526,-35.4017 27.93921,-0.053 36.16828,-7.5941 59.92746,-19.7383 10.34608,-5.2651 16.85313,-5.2921 23.09818,-16.1927 5.53004,-9.6312 9.69007,-17.7538 19.94915,-23.2307 5.77004,-3.0961 17.01313,-12.1181 23.12518,-7.2761 7.94006,6.244 17.96514,-4.6301 23.23018,-9.4462 13.7051,-12.5415 32.51725,19.0238 46.53936,-9.8161 18.78614,-38.5768 83.50364,-55.2987 121.41794,-59.6644 26.9872,-3.096 54.2654,-10.5041 81.4646,-8.6781 20.2932,1.349 34.2633,-24.5271 51.8574,-14.5522 7.6701,4.3131 5.9301,1.8781 8.8401,-2.911 0.6,-1.058 31.0622,-0.61 35.5873,-2.4081 26.2982,-10.4511 52.8364,-6.482 80.4856,-7.2501 23.0452,-0.63 28.5212,4.1271 46.0373,17.3305 22.3832,16.907 30.1623,-8.0961 49.6094,-10.4777 6.2401,-0.74 45.0054,-2.434 42.8613,-13.8909 -3.84,-20.6641 24.3952,-7.9371 31.1153,-3.439 14.0231,9.3661 35.1113,14.1554 49.4774,2.672 7.88,-6.3231 2.75,-14.5522 17.7541,-10.7951 10.6621,2.672 19.0232,10.5041 30.6382,9.8951 -9.83,16.2192 14.5522,10.5306 22.2512,8.5461 15.3731,-3.995 31.9623,-0.26 46.7254,-5.186 1.11,20.9288 -25.4272,31.1947 -36.9893,44.5564 31.4852,6.8001 1.3,51.0917 7.65,71.3856 11.0601,35.2694 6.4301,61.9134 -1.01,96.6801 -6.11,28.6284 -37.9673,50.933 -59.2394,69.7187 -12.4091,10.9274 -6.3801,39.5293 0.9,51.6739 11.7211,19.6058 6.4,41.0109 30.5332,50.1657 32.9933,12.5149 23.2822,54.2932 49.8734,74.1901 12.3291,9.2341 26.8802,15.9017 37.3063,27.4907 14.1021,15.6899 16.1651,41.3549 19.4471,61.2518 6.7701,41.0904 26.2722,86.7317 26.2722,128.166 0,11.192 -23.5211,8.3872 -8.33,28.6283 14.6841,19.5794 25.4532,41.4343 31.6712,65.24715 10.7141,41.11688 -13.7321,86.62582 4.6601,125.07035 9.84,20.50549 4.82,32.17375 -3.1001,51.93843 -8.92,22.30471 -1.53,46.85836 3.3101,69.11007 7.3,33.65547 -5.4501,36.43371 -29.3433,54.50496 -27.2512,20.61139 18.0712,57.68001 29.8983,75.85717 22.0931,33.99937 8.81,74.37534 38.2063,106.09938 11.2971,12.17097 24.2622,-2.43403 36.3002,-1.53502 15.2652,1.16402 31.8033,12.67368 46.0904,17.85965 32.6753,11.85347 43.6563,39.23825 55.6944,70.27429 5.7201,14.711 11.4831,16.48373 -4.45,25.50615 -21.0342,11.95937 -41.0893,25.66496 -61.3575,38.81495 -86.7816,56.27769 -171.5023,115.20121 -255.4279,175.60646 -36.6173,26.40577 -73.1816,53.10254 -105.7789,84.42968 -17.2241,16.589635 -34.1842,33.443771 -51.4094,50.007003 -16.7201,16.139727 -34.3682,41.3813802 -54.7944,52.6527382 -15.4781,8.5461198 -38.2583,9.3401308 -55.3234,12.8589798 -23.1782,4.815068 -46.4344,9.366132 -69.6125,14.2612 -11.6421,2.487035 -113.5049,37.465525 -109.1409,1.42902 1.54,-12.700178 10.6111,-17.647947 9.3701,-31.6975439 -0.5,-5.424076 3.36,-30.8244321 -2.25,-33.6289711 -17.1182,-8.57212 -36.2743,-17.700948 -55.1655,-21.325799 -9.34,-1.799025 -29.9232,-28.337197 -35.6382,-23.733433 -29.5283,23.627631 -37.7303,-24.050934 -52.3604,-34.528584 -9.1501,-6.56209 -23.62921,-7.85811 -31.56527,-13.86439 -8.94007,-6.8001 3.23002,-26.61748 -2.14002,-35.7192 -6.75005,-11.45666 -22.94118,-18.44176 -33.92026,-24.95055 -18.81215,-11.13916 -36.43328,-24.34205 -53.68442,-37.75663 -42.83533,-33.25857 -84.92965,-67.49615 -127.58098,-100.99282 -164.43727,-129.30371 -328.66353,-258.10472 -500.72186,-377.22178 -41.03731,-28.60191 -82.31163,-56.6481 -123.71895,-84.53559 z" />
  </g>
</svg>
