<?xml version="1.0" encoding="UTF-8" standalone="no"?>
<!-- Created with Inkscape (http://www.inkscape.org/) -->

<svg
   xmlns:dc="http://purl.org/dc/elements/1.1/"
   xmlns:cc="http://creativecommons.org/ns#"
   xmlns:rdf="http://www.w3.org/1999/02/22-rdf-syntax-ns#"
   xmlns:svg="http://www.w3.org/2000/svg"
   xmlns="http://www.w3.org/2000/svg"
   xmlns:sodipodi="http://sodipodi.sourceforge.net/DTD/sodipodi-0.dtd"
   xmlns:inkscape="http://www.inkscape.org/namespaces/inkscape"
   width="1094.1mm"
   height="1373.9mm"
   viewBox="0 0 1094.1 1373.8998"
   version="1.1"
   id="svg7070"
   inkscape:version="0.92.4 (5da689c313, 2019-01-14)"
   sodipodi:docname="angola.svg">
  <defs
     id="defs7064" />
  <sodipodi:namedview
     id="base"
     pagecolor="#ffffff"
     bordercolor="#666666"
     borderopacity="1.0"
     inkscape:pageopacity="0.0"
     inkscape:pageshadow="2"
     inkscape:zoom="7.9195959"
     inkscape:cx="15.57742"
     inkscape:cy="1.4186588"
     inkscape:document-units="mm"
     inkscape:current-layer="layer1"
     showgrid="false"
     inkscape:window-width="958"
     inkscape:window-height="1008"
     inkscape:window-x="-7"
     inkscape:window-y="0"
     inkscape:window-maximized="0" />
  <metadata
     id="metadata7067">
    <rdf:RDF>
      <cc:Work
         rdf:about="">
        <dc:format>image/svg+xml</dc:format>
        <dc:type
           rdf:resource="http://purl.org/dc/dcmitype/StillImage" />
        <dc:title />
      </cc:Work>
    </rdf:RDF>
  </metadata>
  <g
     inkscape:label="Layer 1"
     inkscape:groupmode="layer"
     id="layer1"
     transform="translate(-154.50843,1325.3714)">
    <g
       transform="matrix(26.457878,0,0,26.4574,-7838.579,-13893.721)"
       id="ao"
       style="fill:#ffffff">
      <path
         style="fill:#ffffff"
         inkscape:connector-curvature="0"
         d="m 302.11,524.115 c -0.048,-1.549 0.371,-3.109 0.196,-4.664 -0.027,-0.238 -0.204,-0.471 -0.104,-0.717 0.143,-0.35 0.529,-0.555 0.684,-0.92 0.124,-0.293 0.139,-0.609 0.18,-0.92 0.037,-0.279 0.405,-0.623 0.313,-0.859 -0.197,-0.506 0.492,-1.865 0.603,-2.434 0.157,-0.809 -0.016,-1.689 0.438,-2.4 0.302,-0.475 0.11,-1.465 0.46,-1.771 0.358,-0.314 0.939,-0.996 1.164,-1.422 0.334,-0.625 0.129,-1.615 1.143,-1.709 0.713,-0.064 0.776,-0.611 1.129,-1.227 0.836,-1.463 1.072,-3.729 0.687,-5.35 -0.179,-0.746 -0.472,-1.279 -0.894,-1.912 -0.438,-0.658 -0.452,-1.17 -0.693,-1.857 -0.109,-0.314 -0.39,-0.551 -0.432,-0.887 -0.053,-0.412 0.009,-0.791 -0.174,-1.178 -0.27,-0.574 -0.805,-1.314 0,-1.727 -0.215,0.156 -0.369,0.396 -0.349,0.67 0.171,-0.322 0.359,-0.652 0.622,-0.91 0.21,-0.207 0.549,-0.193 0.586,-0.523 0.095,-0.861 -0.08,-1.652 -0.492,-2.404 -0.464,-0.848 -0.707,-1.734 -1.066,-2.625 -0.16,-0.396 -0.146,-0.836 -0.262,-1.242 -0.172,-0.605 -0.73,-1.014 -1.043,-1.541 -0.254,-0.43 -1.141,-1.934 -0.367,-2.172 0.356,-0.111 0.725,-0.113 1.091,-0.16 0.509,-0.066 0.761,-0.525 1.323,-0.58 2.6,-0.248 5.226,0.047 7.839,-0.012 0.991,-0.021 2.008,-0.102 2.999,-0.064 0.931,0.033 0.731,0.668 1.164,1.266 0.18,0.248 0.014,1.002 0.097,1.334 0.148,0.596 0.44,1.141 0.663,1.711 0.172,0.443 -0.095,0.83 0.277,1.227 0.398,0.422 0.5,0.729 0.738,1.244 0.146,0.316 0.832,1.805 1.281,1.68 0.271,-0.074 1.643,0.031 1.641,0.027 -0.07,-0.172 1.479,-0.621 1.76,-0.559 0.794,0.176 1.521,0.27 2.463,0.27 -0.115,-0.555 0.218,-1.1 0.031,-1.65 0.469,0.102 0.512,-0.348 0.452,-0.689 -0.083,-0.475 0.284,-1.057 0.12,-1.471 0.817,0 1.637,0.016 2.452,0.008 0.244,-0.002 0.101,-0.285 0.3,-0.354 0.283,-0.098 0.611,-0.004 0.902,-0.004 -0.182,0.91 -0.68,1.43 0.479,1.43 1.011,0 2.031,-0.053 3.041,-0.031 0.838,0.02 0.686,0.857 0.49,1.424 -0.109,0.316 -0.252,0.641 -0.281,0.979 -0.045,0.535 0.42,1.076 0.516,1.611 0.2,1.125 -0.217,2.367 -0.305,3.498 -0.091,1.178 0.325,1.641 1.002,2.523 0.477,0.623 0.716,2.236 0.572,2.998 -0.051,0.268 -0.305,0.439 -0.398,0.695 -0.174,0.475 0.305,0.93 0.156,1.422 0.41,0.01 0.775,-0.574 1.11,-0.756 0.287,-0.154 1.155,0.078 1.474,0.166 0.563,0.156 1.23,-0.479 1.833,-0.455 0.575,0.021 1.217,0.379 1.46,-0.385 0.172,0.422 0.344,1.633 0.252,2.064 -0.049,0.23 -0.167,0.439 -0.254,0.658 -0.154,0.381 0.11,0.77 -0.027,1.158 -0.251,0.709 0.279,1.387 0.091,2.094 -0.19,0.713 -0.702,1.295 -0.093,1.967 -1.286,0.426 -3.023,0.125 -4.355,0.125 -0.67,0 -1.362,-0.023 -2.025,0.082 -0.787,0.125 -0.458,2.32 -0.461,2.938 -0.009,1.525 0.079,3.055 0.038,4.582 -0.038,1.42 -0.253,2.854 -0.05,4.27 0.205,1.434 0.966,1.834 1.8,2.869 0.89,1.102 1.786,2.207 2.989,2.99 -1.967,0.381 -3.945,0.717 -5.886,1.219 -0.772,0.201 -1.071,0.006 -1.804,-0.076 -0.328,-0.037 -0.605,0.119 -0.904,0.219 -0.484,0.16 -0.946,-0.076 -1.409,-0.203 -1.646,-0.449 -3.409,-0.27 -5.084,-0.531 -0.718,-0.111 -1.076,-0.738 -1.427,-1.291 -0.332,-0.525 -1.289,-0.305 -1.788,-0.27 -4.101,0.297 -8.327,0.012 -12.438,0.012 -0.848,0 -0.938,-0.053 -1.669,-0.627 -0.735,-0.576 -1.3,-1.256 -2.304,-0.854 -0.73,0.293 -1.486,1.193 -2.32,0.807 -0.829,-0.387 -1.137,0.031 -1.943,0.156 z"
         id="path3888" />
      <path
         style="fill:#ffffff"
         inkscape:connector-curvature="0"
         d="m 303.095,477.388 c 0.57,-0.447 1.212,-1.592 1.961,-1.742 0.334,-0.066 0.305,-0.607 0.672,-0.605 0.414,0.002 0.68,0.66 0.953,0.889 -0.668,0.457 -1.271,0.863 -1.848,1.441 -0.281,0.281 -0.201,0.281 -0.072,0.607 0.181,0.457 0.079,1 0.037,1.473 -0.057,0.645 -1.265,1.166 -1.273,0.324 -0.004,-0.465 0.245,-0.574 0.103,-1.088 -0.104,-0.377 -0.68,-1.012 -0.215,-1.359 -0.107,0.019 -0.213,0.039 -0.318,0.06 z"
         id="path3890" />
    </g>
  </g>
</svg>
