<?xml version="1.0" encoding="UTF-8" standalone="no"?>
<!-- Created with Inkscape (http://www.inkscape.org/) -->

<svg
   xmlns:dc="http://purl.org/dc/elements/1.1/"
   xmlns:cc="http://creativecommons.org/ns#"
   xmlns:rdf="http://www.w3.org/1999/02/22-rdf-syntax-ns#"
   xmlns:svg="http://www.w3.org/2000/svg"
   xmlns="http://www.w3.org/2000/svg"
   xmlns:sodipodi="http://sodipodi.sourceforge.net/DTD/sodipodi-0.dtd"
   xmlns:inkscape="http://www.inkscape.org/namespaces/inkscape"
   width="594.20001mm"
   height="250.7mm"
   viewBox="0 0 594.19997 250.70003"
   version="1.1"
   id="svg7070"
   inkscape:version="0.92.4 (5da689c313, 2019-01-14)"
   sodipodi:docname="austria.svg">
  <defs
     id="defs7064" />
  <sodipodi:namedview
     id="base"
     pagecolor="#ffffff"
     bordercolor="#666666"
     borderopacity="1.0"
     inkscape:pageopacity="0.0"
     inkscape:pageshadow="2"
     inkscape:zoom="7.9195959"
     inkscape:cx="-19.125413"
     inkscape:cy="-30.781579"
     inkscape:document-units="mm"
     inkscape:current-layer="layer1"
     showgrid="false"
     inkscape:window-width="958"
     inkscape:window-height="1008"
     inkscape:window-x="-7"
     inkscape:window-y="0"
     inkscape:window-maximized="0" />
  <metadata
     id="metadata7067">
    <rdf:RDF>
      <cc:Work
         rdf:about="">
        <dc:format>image/svg+xml</dc:format>
        <dc:type
           rdf:resource="http://purl.org/dc/dcmitype/StillImage" />
        <dc:title />
      </cc:Work>
    </rdf:RDF>
  </metadata>
  <g
     inkscape:label="Layer 1"
     inkscape:groupmode="layer"
     id="layer1"
     transform="translate(-163.69023,209.48103)">
    <path
       inkscape:connector-curvature="0"
       style="fill:#ffffff;stroke-width:26.45734978"
       d="m 163.69023,-37.967712 c 8.25052,-14.444313 6.56042,-10.370274 2.54016,-23.41248 -1.38009,-4.497382 63.00099,-2.592644 47.89303,23.41248 18.23016,-0.559923 18.73319,-17.645273 22.75545,-31.110722 7.75049,6.931047 25.53361,7.644949 35.24423,6.719076 -8.39053,4.153429 11.19271,12.089738 16.06102,10.740623 3.86024,0.419943 7.73049,0.769895 11.58973,1.031859 4.39028,-2.856608 8.31053,-6.217146 11.80175,-10.079214 15.95501,-9.60268 43.28774,-15.978603 61.41289,-10.079214 -0.30002,-3.148567 -0.80005,-6.217146 -1.64011,-9.258727 9.05058,1.110847 23.54949,9.23273 32.41306,4.814338 15.08295,-7.539963 16.03501,10.740623 27.70375,15.396583 12.6748,5.079301 13.86588,-16.428341 5.11032,-20.793341 -6.72042,-3.359538 -2.28014,-12.618865 -3.65023,-18.015623 -1.83011,-7.222006 -9.76061,-10.211596 -12.7538,-16.666506 -7.67049,-16.53413 34.98021,-22.22195 43.49975,-28.01555 7.38047,-4.97332 2.33015,-28.06844 16.00801,-22.88325 18.49618,7.01003 15.87601,-3.01559 20.21629,-19.73519 11.93275,5.15829 20.5593,18.8886 34.47718,19.33834 6.46041,0.20997 9.5506,-6.61409 15.13496,-6.71907 6.11038,-0.12999 12.19777,4.57637 17.62211,6.71907 0.053,-8.14788 4.58029,-16.11088 12.6478,-18.70343 10.61068,-3.38653 11.56374,-10.74062 10.02864,-24.17967 7.17045,-0.49993 11.13971,4.70935 17.75512,5.87319 13.57386,2.40767 24.81858,1.93074 38.49844,6.50811 16.16703,5.42325 34.53119,18.1744 51.35926,10.50255 11.72174,-5.34426 43.87078,2.1957 46.22592,15.76703 1.40009,8.06889 -6.59041,9.70867 -6.64042,16.79869 -0.1,8.12189 4.82031,18.57125 9.50061,24.92038 12.7008,17.14264 14.71193,20.39649 6.3504,42.248087 -7.8605,20.555274 -36.38231,-9.973628 -41.33062,4.762345 -2.86018,8.491833 29.21185,15.899314 6.3204,27.539313 -16.08802,8.200873 -9.68061,29.629326 -4.47028,43.412231 -14.86994,-3.306546 -49.63815,15.5553607 -35.24424,33.623876 -18.28415,-11.587107 -26.83069,1.666771 -44.13579,3.253553 -12.46179,1.137843 -28.15278,-7.777931 -39.10748,1.772756 -9.68061,-5.370262 -21.64437,7.936909 -28.70882,11.613603 C 553.00089,46.026438 527.41427,33.72513 514.29044,31.820392 480.23628,26.900068 442.29288,29.677686 407.39167,18.751789 396.78099,15.445243 356.08642,-6.5124372 376.3547,-18.70806 c -11.58973,-2.407669 -21.03633,6.005174 -31.99003,7.565959 -16.00901,2.3016839 -29.66187,0.159978 -45.74989,4.7093528 -9.60061,2.698629 -17.2521,20.0262462 -27.22773,17.1161462 C 261.35942,7.746802 252.23084,5.4721148 242.1232,2.9584604 233.79267,0.86874781 241.92319,-8.179008 236.56285,-9.0783843 230.05243,-10.163235 219.9988,-2.914232 215.44851,1.1860042 c -8.57054,7.6979414 -23.89352,-4.4973816 -24.60856,-12.4336902 -0.50003,-5.635225 -18.57418,-5.661222 -22.1464,-5.767207 3.41021,-7.644949 -0.60004,-14.841159 -5.00032,-20.952119 z"
       id="at" />
  </g>
</svg>
