<?xml version="1.0" encoding="UTF-8" standalone="no"?>
<!-- Created with Inkscape (http://www.inkscape.org/) -->

<svg
   xmlns:dc="http://purl.org/dc/elements/1.1/"
   xmlns:cc="http://creativecommons.org/ns#"
   xmlns:rdf="http://www.w3.org/1999/02/22-rdf-syntax-ns#"
   xmlns:svg="http://www.w3.org/2000/svg"
   xmlns="http://www.w3.org/2000/svg"
   xmlns:sodipodi="http://sodipodi.sourceforge.net/DTD/sodipodi-0.dtd"
   xmlns:inkscape="http://www.inkscape.org/namespaces/inkscape"
   width="3540.8mm"
   height="3382.9001mm"
   viewBox="0 0 3540.7991 3382.9004"
   version="1.1"
   id="svg7070"
   inkscape:version="0.92.4 (5da689c313, 2019-01-14)"
   sodipodi:docname="australia.svg">
  <defs
     id="defs7064" />
  <sodipodi:namedview
     id="base"
     pagecolor="#ffffff"
     bordercolor="#666666"
     borderopacity="1.0"
     inkscape:pageopacity="0.0"
     inkscape:pageshadow="2"
     inkscape:zoom="5.6"
     inkscape:cx="31.024221"
     inkscape:cy="74.701915"
     inkscape:document-units="mm"
     inkscape:current-layer="layer1"
     showgrid="false"
     inkscape:window-width="958"
     inkscape:window-height="1008"
     inkscape:window-x="-7"
     inkscape:window-y="0"
     inkscape:window-maximized="0" />
  <metadata
     id="metadata7067">
    <rdf:RDF>
      <cc:Work
         rdf:about="">
        <dc:format>image/svg+xml</dc:format>
        <dc:type
           rdf:resource="http://purl.org/dc/dcmitype/StillImage" />
        <dc:title />
      </cc:Work>
    </rdf:RDF>
  </metadata>
  <g
     inkscape:label="Layer 1"
     inkscape:groupmode="layer"
     id="layer1"
     transform="translate(-167.37304,3337.5228)">
    <g
       transform="matrix(26.458493,0,0,26.458424,-16531.237,-16480.978)"
       id="au"
       style="fill:#ffffff">
      <path
         style="fill:#ffffff"
         inkscape:connector-curvature="0"
         id="path3366"
         d="m 748.846,528.845 c 0.42,-0.256 0.07,-0.664 -0.031,-0.982 -0.367,0.279 -0.192,0.679 0.031,0.982 z" />
      <path
         style="fill:#ffffff"
         inkscape:connector-curvature="0"
         id="path3368"
         d="m 756.277,535.871 c 0.301,-0.123 0.278,-0.443 0.128,-0.672 -0.044,0.224 -0.087,0.447 -0.128,0.672 z" />
      <path
         style="fill:#ffffff"
         inkscape:connector-curvature="0"
         id="path3294"
         d="m 707.264,501.566 c 0.213,-0.424 0.152,-0.879 0,-1.307 -0.346,0.467 -0.145,0.813 0,1.307 z" />
      <path
         style="fill:#ffffff"
         inkscape:connector-curvature="0"
         id="path3298"
         d="m 709.775,502.8 c 0.064,-0.062 0.13,-0.127 0.194,-0.189 -0.18,-0.129 -0.244,-0.065 -0.194,0.189 z" />
      <path
         style="fill:#ffffff"
         inkscape:connector-curvature="0"
         id="path3310"
         d="m 718.985,504.388 c 0.123,-0.141 0.251,-0.277 0.384,-0.41 -0.251,0.01 -0.392,0.158 -0.384,0.41 z" />
      <path
         style="fill:#ffffff"
         inkscape:connector-curvature="0"
         id="path3312"
         d="m 719.115,502.867 c 0.351,-0.137 0.688,-0.34 0.892,-0.668 -0.244,0.312 -0.705,0.295 -0.892,0.668 z" />
      <path
         style="fill:#ffffff"
         inkscape:connector-curvature="0"
         id="path3318"
         d="m 720.289,501.976 c 0.535,-0.309 0.953,-0.969 0.988,-1.59 -0.106,0.623 -0.673,1.076 -0.988,1.59 z" />
      <path
         style="fill:#ffffff"
         inkscape:connector-curvature="0"
         id="path3288"
         d="m 699.993,503.435 c 0.169,-0.021 0.327,-0.074 0.476,-0.158 -0.089,-0.33 -0.507,-0.373 -0.507,-0.734 -0.059,-0.145 -0.133,-0.281 -0.225,-0.408 0.023,-0.223 0.014,-0.445 -0.031,-0.666 -0.493,0.184 -0.573,0.502 -0.619,0.984 -0.035,0.357 -0.589,0.576 -0.396,0.953 0.47,-0.119 0.843,-0.162 1.302,0.029 z" />
      <path
         style="fill:#ffffff"
         inkscape:connector-curvature="0"
         id="path3290"
         d="m 702.663,501.724 c -0.101,-0.428 -0.575,-0.436 -0.671,0 -0.323,-0.432 -0.805,0.016 -1.219,-0.104 -0.175,-0.051 -0.714,-0.721 -0.843,-0.324 -0.243,0.752 0.724,2.602 1.66,2.391 0.532,-0.121 1.605,-0.818 1.774,-1.373 0.073,-0.238 0.502,-0.979 -0.134,-1.102 -0.444,-0.087 -0.861,-0.052 -0.567,0.512 z" />
      <path
         style="fill:#ffffff"
         inkscape:connector-curvature="0"
         id="path3334"
         d="m 724.385,613.119 c 0.161,-0.092 0.289,-0.219 0.384,-0.379 -0.252,-0.012 -0.394,0.127 -0.384,0.379 z" />
      <path
         style="fill:#ffffff"
         inkscape:connector-curvature="0"
         id="path3336"
         d="m 725.088,612.771 c 0.179,-0.031 0.738,-0.516 0.369,-0.664 -0.318,-0.127 -1.149,0.043 -1.039,0.506 0.261,-0.108 0.484,-0.055 0.67,0.158 z" />
      <path
         style="fill:#ffffff"
         inkscape:connector-curvature="0"
         id="path3286"
         d="m 699.579,595.935 c 0.338,-0.092 0.591,-0.344 0.87,-0.539 0.447,-0.314 0.681,-0.104 1.155,-0.137 0.386,-0.025 0.705,-0.482 0.137,-0.561 -0.075,0.023 -0.13,0.074 -0.162,0.148 -0.22,0.174 -0.623,-0.154 -0.856,-0.15 0.83,-0.783 -2.564,-0.148 -2.72,-0.105 -0.33,0.092 -1.28,0.631 -0.771,1.09 0.671,0.606 1.703,-0.471 2.347,0.254 z" />
      <path
         style="fill:#ffffff"
         inkscape:connector-curvature="0"
         id="path3300"
         d="m 716.604,621.38 c 0.022,0.346 0.258,0.738 -0.19,0.922 0.555,0.133 0.414,-0.539 0.814,-0.66 0.529,-0.162 0.817,0.588 0.267,0.787 0.136,-0.707 -0.506,-0.117 -0.469,0.23 0.045,0.41 0.39,0.342 0.565,0.053 -0.158,0.891 0.761,-0.646 0.887,-0.855 -0.575,-0.057 -0.165,-0.342 0.083,-0.637 0.306,-0.365 0.671,-0.672 0.987,-1.029 0.258,-0.289 0.414,-0.658 0.723,-0.906 0.265,-0.213 0.745,-0.453 0.814,-0.824 0.158,0.33 0.062,0.711 -0.163,0.982 0.481,-0.184 0.581,-0.764 0.764,-1.178 0.26,-0.59 0.689,-1.104 1.024,-1.65 0.451,-0.736 1.702,-1.994 0.899,-2.725 -0.405,-0.367 -0.531,0.408 -0.965,0.326 -0.582,-0.111 -0.839,0.158 -1.328,0.406 -0.227,0.115 -2.682,-0.264 -2.014,0.66 -0.352,0.115 -0.457,0.008 -0.318,-0.322 -0.825,-0.045 -1.606,0.656 -2.381,0.039 -0.274,-0.219 -1.66,-0.883 -1.492,-1.242 -0.481,0.221 -1.377,0.207 -1.557,-0.416 -0.885,0.885 -1.155,1.783 -1.544,2.922 -0.309,0.902 0.574,2.289 -0.362,2.955 0.111,-0.072 0.228,-0.135 0.349,-0.189 -0.032,0.457 0.252,1 -0.252,1.301 0.109,-0.336 0.022,-0.68 -0.193,-0.953 -1.095,1.076 -0.491,2.611 -0.569,3.879 0.334,-0.197 0.639,0.131 0.983,0.031 0.183,0.473 -0.395,0.594 -0.635,0.256 -0.123,0.217 -0.239,0.439 -0.349,0.666 0.46,-0.086 1.282,0.25 1.65,-0.129 0.051,1.248 1.288,-0.047 1.538,-0.25 0.389,-0.32 0.466,-0.477 0.557,-0.898 0.072,-0.338 0.458,-0.043 0.354,0.258 0.634,0.075 1.518,-1.263 1.523,-1.81 z" />
      <path
         style="fill:#ffffff"
         inkscape:connector-curvature="0"
         id="path3306"
         d="m 712.347,610.867 c -0.092,0.154 -0.176,0.312 -0.252,0.477 0.729,-0.045 1.579,-1.016 1.58,-1.76 0,-0.617 -0.532,0.045 -0.614,0.109 -0.323,0.256 -0.744,0.726 -0.714,1.174 z" />
      <path
         style="fill:#ffffff"
         inkscape:connector-curvature="0"
         id="path3338"
         d="m 724.833,610.867 c -0.023,0.195 -0.224,0.996 0.146,1.008 0.752,0.023 0.756,-0.754 1.156,-1.137 -0.435,-0.07 -0.45,-0.574 -0.728,-0.824 -0.358,0.211 -0.421,0.603 -0.574,0.953 z" />
      <path
         style="fill:#ffffff"
         inkscape:connector-curvature="0"
         id="path3348"
         d="m 632.554,586.726 c 0.856,-0.006 1.744,-0.943 2.096,-1.654 0.4,-0.811 -0.078,-2.002 0.764,-2.604 -0.202,0.16 -0.306,0.412 -0.251,0.668 0.008,-0.26 0.155,-0.381 0.41,-0.318 -0.215,-0.703 0.34,-1.332 0.565,-1.912 0.489,-1.262 0.27,-2.314 0.057,-3.602 -0.197,-1.195 -0.645,-2.51 -0.311,-3.725 0.317,-1.152 0.869,-2.758 0.679,-3.947 -0.078,-0.492 -0.351,-0.936 -0.366,-1.439 -0.017,-0.525 -10e-4,-0.986 -0.201,-1.486 -0.192,-0.477 -0.636,-0.904 -0.661,-1.432 -0.03,-0.605 0.259,-1.182 0.284,-1.785 0.049,-1.168 -0.323,-2.396 -0.956,-3.373 -0.267,-0.412 -0.586,-0.848 -0.684,-1.34 -0.091,-0.449 0.297,-0.67 0.261,-1.084 0.103,0.318 10e-4,0.639 -0.065,0.951 0.249,-0.266 0.343,-0.627 0.353,-0.982 -0.062,0.445 0.206,0.854 0.124,1.301 0.155,-0.865 0.1,0.494 0.065,0.666 0.442,-0.719 0.205,0.023 0.251,0.318 0.841,-0.453 1.233,-0.857 0.532,-1.672 -0.479,-0.557 -0.828,-1.912 -0.214,-2.488 0.288,0.256 0.487,0.686 0.575,1.055 0.119,0.5 -0.322,0.842 -0.288,1.328 0.402,0.023 0.608,-0.355 0.666,-0.697 0.067,0.504 -0.102,1.072 0.176,1.537 0.154,0.258 0.592,-0.164 0.647,-0.293 0.369,-0.842 0.671,-1.6 0.222,-2.447 -0.383,-0.725 -0.349,-1.561 -0.832,-2.219 -0.185,-0.252 -0.084,-0.461 -0.084,-0.742 0,-0.615 -0.309,-1.166 -0.389,-1.766 -0.125,-0.943 0.435,-2.029 0.959,-2.779 0.612,-0.875 1.046,-1.518 1.273,-2.604 0.104,-0.5 -0.256,-0.879 -0.256,-1.361 0,-0.506 0.439,-0.918 0.648,-1.348 0.309,-0.635 0.593,-1.717 1.354,-1.957 0.088,0.389 -0.09,0.746 -0.226,1.096 -0.192,0.492 -0.065,1.037 -0.189,1.541 1.038,-0.357 1.056,-0.898 1.557,-1.746 0.517,-0.875 1.376,-1.258 2.301,-1.553 1.307,-0.416 2.238,-1.314 3.286,-2.164 0.272,-0.223 0.594,-0.799 0.938,-0.844 0.771,-0.1 1.374,-0.4 1.893,-1.004 -0.14,0.873 0.8,0.104 1.153,0.15 0.335,0.047 0.473,0.393 0.852,0.393 0.484,0 0.942,-0.168 1.354,-0.41 0.893,-0.525 1.321,-1.123 2.423,-1.121 0.45,0.002 0.938,-0.008 1.304,-0.312 0.413,-0.346 0.567,-0.973 1.206,-0.973 0.972,0 1.568,0.162 2.535,-0.094 1.118,-0.297 2.135,-0.561 3.159,-1.111 0.825,-0.445 3.874,-2.281 3.263,-3.664 0.347,0.035 0.441,-0.141 0.529,-0.432 0.137,-0.451 0.554,-0.605 0.924,-0.838 0.539,-0.338 1.742,-0.869 1.184,-1.545 -0.476,-0.574 -0.176,-2.191 0.136,-2.785 0.178,-0.338 1.029,-1.609 1.513,-1.039 -0.3,-0.592 0.146,-0.525 0.527,-0.729 0.468,-0.246 0.484,-1.162 1.127,-1.465 0.266,0.355 -0.576,1.172 0.286,1.143 -0.604,0.838 1.055,2.496 0.953,3.402 0.492,-0.639 0.07,-1.666 0.477,-2.291 0.361,0.182 0.509,0.574 0.763,0.861 -0.048,-0.559 -0.133,-0.961 0.41,-1.307 -0.428,0.146 -1.321,-0.707 -0.952,-1.111 -0.251,-0.01 -0.392,-0.158 -0.38,-0.41 0.467,0.367 0.166,-0.086 0.583,-0.164 0.501,-0.096 -0.038,-0.654 -0.138,-0.855 0.438,-0.275 1.246,0.053 0.569,0.193 0.252,0.092 0.415,0.299 0.287,0.57 0.292,-0.08 0.341,-0.496 0.635,-0.523 0.385,-0.037 0.397,0.225 0.637,0.422 0.301,0.244 0.482,-0.197 0.802,-0.008 0.358,0.211 0.771,-0.057 1.133,0.17 -0.306,-0.379 -0.592,-0.182 -0.983,-0.316 -0.545,-0.189 -0.142,-0.59 -0.098,-0.984 0.071,0.109 0.146,0.215 0.226,0.318 0.454,-0.311 0.252,-0.996 0.794,-1.236 -0.272,-0.104 -0.466,0.066 -0.542,0.318 -0.392,-0.412 -0.667,-1.283 -0.007,-1.592 0.303,-0.143 1.228,-0.426 0.738,-0.887 0.348,0.016 0.604,0.262 0.871,0.449 0.083,0.123 0.162,0.248 0.241,0.375 0.169,0.047 0.338,0.09 0.508,0.129 -0.492,-0.293 -0.126,-0.854 -0.856,-0.861 0.133,-0.229 0.322,-0.387 0.569,-0.477 -0.24,0.049 -0.452,0.154 -0.635,0.318 -0.027,-0.428 1.012,-1.252 0.952,-0.539 0.035,-0.725 0.533,0.191 0.984,0.098 -0.169,-0.299 -0.545,-0.613 -0.283,-0.984 -0.957,-0.051 0.169,-0.9 0.221,-1.24 0.365,0.389 0.496,-0.277 0.892,-0.029 0.103,-0.365 0.075,-0.744 0.124,-1.117 0.475,0.1 0.281,0.973 0,1.369 0.593,-0.678 0.336,-0.727 0.859,0.066 0.014,-0.344 0.387,-0.334 0.445,-0.637 0.036,-0.186 0.177,-0.67 0.252,-0.828 0.121,-0.256 0.58,-0.238 0.32,-0.619 -0.089,-0.078 -0.189,-0.098 -0.303,-0.059 -0.113,0.006 -0.433,-0.617 0.172,-0.146 -0.137,-0.387 0.559,-0.678 0.129,-0.062 0.702,-0.643 -0.165,0.842 0.666,0.635 -0.17,-0.389 0.207,-0.727 0.573,-0.732 -0.211,0.285 0.017,0.547 0.189,0.764 0.304,-0.342 0.932,-0.479 1.112,-0.924 0.143,-0.35 -0.42,-0.508 0.222,-0.773 0.364,-0.15 0.535,0.768 1.109,0.783 0.49,0.014 0.545,0.262 0.885,0.617 0.431,0.453 0.665,1.047 1.089,1.504 0.254,0.275 0.64,0.611 0.604,1.027 -0.039,0.461 -0.317,0.877 -0.396,1.336 -0.072,0.428 -0.076,1.066 -0.429,1.383 0.401,-0.199 0.126,-0.686 0.41,-0.893 0.381,-0.277 0.497,0.33 0.542,0.574 0.181,-0.441 -0.365,-0.869 -0.158,-1.301 0.253,-0.529 0.529,0.037 0.922,-0.129 -0.377,-1.527 2.643,-0.986 2.316,0.508 0.512,-0.195 0.306,-0.799 0.317,-1.203 0.71,0.061 0.936,1.471 1.526,1.332 -0.135,-0.334 -0.49,-0.953 -0.075,-1.25 0.291,-0.209 0.681,-0.037 0.962,-0.307 -0.555,0.074 -0.891,-0.094 -1.076,-0.637 0.248,-0.012 0.471,-0.098 0.666,-0.25 -0.492,0.15 -1.593,-0.238 -1.19,-0.912 0.164,-0.275 0.241,-0.688 0.489,-0.902 0.219,-0.188 0.71,-0.059 0.827,-0.377 0.189,-0.516 0.28,-1.16 0.54,-1.639 0.239,-0.443 0.433,0.055 0.746,-0.197 0.203,-0.164 0.715,-0.748 1.001,-0.578 -0.263,-0.275 -0.588,-0.775 -0.511,-1.178 0.129,-0.68 0.403,-0.137 0.705,-0.625 0.201,-0.328 0.119,-0.654 0.507,-0.881 0.279,-0.162 0.464,0.309 0.791,0.234 -0.347,-0.139 -0.456,-1.098 -0.062,-1.234 0.417,-0.146 0.702,0.826 1.081,0.916 -0.402,-0.301 -0.468,-1.398 0.282,-1.045 0.093,-0.27 -0.104,-0.594 0.235,-0.73 0.347,-0.139 0.472,0.369 0.688,-0.16 0.526,1.221 3.717,-0.045 3.78,0.697 -0.002,-0.525 0.547,-0.906 1.015,-0.602 -0.493,-0.521 0.074,-1.311 -0.062,-1.904 -0.207,-0.908 -1.08,-0.779 -1.747,-0.477 0.02,-0.432 -0.522,-0.627 -0.766,-0.826 -0.156,-0.129 0.53,-0.553 0.576,-0.67 0.313,0.246 0.379,0.629 0.477,0.988 0.199,-0.301 0.238,-0.666 0.062,-0.988 0.186,0.369 0.426,0.398 0.636,0.031 0.11,0.479 0.844,1.025 1.111,1.465 0.2,-0.26 0.814,-0.287 0.636,-0.732 0.403,0.281 0.571,1.508 1.05,1.504 0.423,-0.004 1.001,-0.057 0.953,0.432 0.475,0.018 0.817,-0.574 1.301,-0.41 -0.823,0.615 1.027,0.479 0.763,1.332 0.312,-0.574 0.386,-0.162 0.819,-0.08 0.492,0.092 0.762,-0.295 1.215,-0.365 0.114,1.01 1.087,0.869 1.747,1.08 -0.505,-0.799 1.694,-0.408 0.983,-1.08 0.41,-0.104 1.051,-0.209 1.05,-0.758 0.292,0.406 -0.272,0.68 -0.542,0.855 0.604,0 0.137,0.199 -0.085,0.451 -0.212,0.242 -0.287,0.494 -0.104,0.787 0.22,-0.309 0.503,-0.666 0.922,-0.67 -0.422,0.447 0.102,0.193 0.085,0.705 -0.005,0.16 0.02,0.4 0.21,0.453 0.4,0.111 0.802,-0.453 0.94,-0.744 -1.142,-0.02 0.683,-1.154 0.892,-1.363 -0.551,0.289 -0.112,1.311 0.349,1.461 -0.288,-0.521 0.339,-0.434 0.499,-0.213 0.136,0.186 0.013,0.477 -0.071,0.654 -0.296,0.625 -0.888,1.492 -1.539,1.75 0.204,0.189 0.363,0.412 0.477,0.668 -0.112,-0.082 -0.229,-0.158 -0.349,-0.227 -0.113,0.494 -0.147,0.943 -0.667,1.178 -0.007,-0.211 0.004,-0.424 0.031,-0.635 -0.24,0.146 -0.451,0.326 -0.635,0.539 -0.04,-0.764 -0.508,-0.021 -0.508,0.256 -0.095,-0.688 -0.808,0.139 -0.38,0.537 -0.951,-0.18 -0.27,1.637 0.252,0.764 -0.471,0.984 -0.931,1.865 -1.562,2.754 -0.269,0.379 -0.539,0.773 -0.881,1.092 -0.392,0.363 -0.607,0.225 -0.281,0.865 0.441,0.869 1.458,1.172 2.03,1.924 0.335,0.438 0.552,0.846 1.031,1.146 0.336,0.213 0.662,0.48 0.519,0.924 0.363,-0.141 0.734,0.156 0.988,-0.256 0.348,0.545 0.95,0.811 1.495,1.111 0.697,0.383 1.016,0.922 1.493,1.527 0.825,1.045 2.028,0.674 3.042,1.404 0.541,0.389 0.132,1.186 0.623,1.58 0.269,0.217 0.629,0.199 0.882,0.457 0.266,0.271 0.586,0.449 0.894,0.668 0.939,0.668 2.985,0.025 3.541,-0.982 0.797,-1.445 1.825,-2.879 2.411,-4.436 0.338,-0.893 0.591,-1.816 0.923,-2.711 0.354,-0.953 0.765,-1.676 0.696,-2.725 -0.054,-0.818 -0.003,-1.312 0.292,-2.057 0.298,-0.752 -0.388,-1.416 0.007,-2.242 0.32,-0.668 0.974,-1.203 0.77,-1.996 -0.233,-0.908 0.542,-0.951 0.72,-1.701 0.192,0.182 0.288,0.404 0.287,0.668 -0.009,-0.256 0.151,-0.447 0.379,-0.539 -0.127,-0.018 -0.795,-0.74 -0.86,-0.891 -0.106,0.092 -0.211,0.188 -0.313,0.285 -0.072,-0.361 0.176,-0.85 0.417,-1.102 0.09,-0.109 0.204,-0.166 0.342,-0.168 -0.177,-0.35 0.038,-0.693 0.256,-0.953 0.071,0.246 0.25,0.373 0.507,0.318 -0.046,-1.336 0.763,-2.338 0.923,-3.623 0.051,-0.416 0.051,-0.691 0.505,-0.875 0.428,-0.174 0.633,-0.93 1.176,-0.555 -0.158,0.209 -0.295,0.432 -0.411,0.666 0.112,-0.07 0.229,-0.135 0.349,-0.189 0.133,0.404 0.534,0.598 0.459,1.053 -0.033,0.186 -0.014,0.367 0.059,0.545 0.127,0.414 -0.071,0.412 -0.071,0.783 0,0.393 -0.081,0.797 -0.014,1.186 0.087,0.508 0.874,0.451 1.223,0.629 -0.635,0.469 -0.839,0.959 -0.341,1.512 0.531,0.588 0.442,1.082 0.274,1.824 0.707,-0.139 0.355,2.848 0.205,3.203 -0.184,0.434 0.077,0.764 0.212,1.168 0.157,0.471 -0.087,0.975 0.126,1.439 0.378,0.824 1.414,0.307 1.521,-0.414 0.644,0.801 0.948,-1.035 1.242,0.695 0.067,0.398 0.882,0.879 1.148,1.256 0.033,0.047 0.958,0.646 1.042,0.656 -0.205,0.328 -0.813,0.971 -0.158,1.203 -0.874,1.059 0.183,2.217 -0.227,3.365 -0.252,0.709 -0.396,1.072 -0.025,1.723 0.188,0.326 0.745,0.951 0.503,1.363 0.194,-0.166 0.417,-0.26 0.671,-0.287 -0.169,0.67 -0.277,0.941 -0.1,1.641 0.133,0.521 0.126,1.068 0.047,1.6 -0.087,0.588 -0.395,0.967 -0.626,1.492 -0.281,0.633 0.437,0.773 0.389,1.281 -0.037,0.398 0.524,0.096 0.349,0.604 -0.154,0.443 -0.63,0.795 -0.354,1.301 0.162,0.297 0.695,0.93 1.084,0.895 0.36,-0.033 0.676,0.861 1.051,0.146 -0.042,0.834 1.317,0.967 1.179,0.41 0.217,0.471 0.085,1.758 0.696,1.941 0.012,-0.248 0.162,-0.398 0.411,-0.414 -0.189,0.658 0.541,0.707 1,0.877 0.377,0.139 -0.069,0.959 0.668,0.736 0.161,-0.049 0.035,-0.326 0.188,-0.389 0.321,-0.133 0.282,0.373 0.316,0.508 0.072,0.291 0.403,0.129 0.536,0.393 0.151,0.299 0.132,0.654 0.278,0.955 -0.166,-0.332 -0.608,-0.389 -0.77,-0.02 -0.205,0.471 0.417,0.977 0.103,1.418 1.721,-0.617 0.469,2.467 1.65,2.443 -0.406,0.473 -0.389,1.232 -0.334,1.814 0.048,0.486 0.522,1.334 0.144,1.777 0.624,-0.256 0.706,-0.068 0.988,0.477 0.284,-0.564 -0.057,-1.189 0.38,-1.717 0.52,0.465 0.776,1.168 1.398,1.527 0.091,-0.178 0.013,-0.529 0.159,-0.668 0.274,-0.262 0.486,-0.061 0.515,0.25 0.073,0.824 -0.013,1.338 -0.282,2.111 -0.159,0.457 -0.033,0.926 -0.183,1.4 -0.301,0.955 0.356,0.344 0.646,0.938 -0.086,-0.23 -0.054,-0.441 0.098,-0.635 0.704,0.227 0.656,1.916 -0.035,0.764 0.076,0.506 1.526,2.188 1.526,1.301 0.723,0.582 0.546,1.436 0.922,2.193 0.177,0.357 0.562,0.434 0.794,0.732 0.271,0.35 0.088,0.775 0.15,1.18 0.135,0.875 1.007,0.541 0.899,1.393 -0.041,0.32 -0.352,0.543 -0.415,0.857 -0.087,0.428 0.326,0.676 0.129,1.176 0.099,-0.113 0.204,-0.219 0.317,-0.318 0.481,0.396 -0.281,0.936 -0.414,1.303 -0.239,0.656 -0.447,1.451 -0.561,2.141 -0.085,0.523 0.052,0.99 -0.396,1.344 -0.483,0.381 -0.444,0.746 -0.106,1.221 0.229,0.32 0.179,1.215 0.099,1.598 -0.055,0.258 -0.161,0.525 -0.15,0.793 0.011,0.291 0.232,0.467 0.161,0.781 -0.346,1.523 -1.059,2.496 -1.934,3.752 -0.941,1.352 -1.46,2.902 -2.499,4.219 -0.875,1.107 -0.938,2.434 -1.794,3.533 -0.415,0.535 -0.766,1.133 -1.208,1.645 -0.437,0.508 -1.125,0.777 -1.471,1.361 -0.221,0.377 -0.326,1.07 -0.625,1.373 -0.178,0.182 -0.483,0.168 -0.687,0.311 -0.374,0.266 -0.743,0.662 -1.219,0.736 0.82,0.078 -0.509,0.395 -0.722,0.463 -0.563,0.176 -1.075,0.691 -1.436,1.139 -0.257,0.318 -0.69,0.447 -0.957,0.76 -0.37,0.434 -0.282,0.9 -1.047,0.816 -0.054,0.283 0.02,0.379 0.221,0.285 -0.237,0.342 -0.42,0.732 -0.658,1.066 -0.188,0.266 -0.468,0.178 -0.659,0.492 -0.392,0.648 -1.15,0.859 -1.495,1.551 -0.175,0.35 -0.115,0.238 -0.397,0.295 -0.01,0.002 -0.19,0.617 -0.284,0.719 -0.161,0.178 -1.098,1.004 -0.569,1.211 -0.155,0.252 -0.361,0.539 -0.414,0 -0.223,0.201 -0.129,0.625 -0.471,0.676 -0.424,0.062 -0.638,0.188 -0.932,0.52 -0.738,0.836 -1.543,1.639 -2.219,2.523 -0.579,0.758 -0.985,1.668 -1.57,2.434 -0.333,0.434 -0.994,1.613 -1.479,1.824 0.458,0.102 0.037,0.799 -0.089,0.996 -0.117,0.182 -0.251,0.363 -0.41,0.512 -0.248,0.229 -0.51,0.031 -0.75,0.156 -0.74,0.385 -1.107,0.859 -2.041,0.971 -0.992,0.119 -1.995,0.021 -2.988,0.117 -2.008,0.193 -3.687,1.414 -5.296,2.527 -0.734,0.508 -1.503,0.76 -2.396,0.834 -0.874,0.072 -0.644,-0.096 -0.8,0.748 0.196,-0.166 0.418,-0.281 0.666,-0.35 -0.111,0.43 -0.505,1.016 -0.917,1.205 -0.021,-0.283 0.086,-0.738 -0.108,-0.979 -0.303,-0.373 -0.488,0.041 -0.85,0.061 0.089,-0.322 0.056,-0.66 0.098,-0.988 -0.41,0.09 -0.697,0.314 -0.771,-0.225 -0.079,-0.582 0.43,-0.596 0.619,-1.072 0.272,-0.686 -1.292,0.311 -1.372,0.379 -0.642,0.545 -0.896,0.33 -1.237,-0.287 0.429,0.477 0.964,-0.061 1.301,-0.348 0.553,-0.471 0.289,-0.777 0.318,-1.398 -0.834,0.141 -1.573,0.725 -2.286,1.143 0.324,0.104 0.659,-0.068 0.953,0.158 -0.29,0.412 -0.89,0.295 -1.306,0.445 -0.598,0.217 -1.278,0.57 -1.777,0.967 -0.501,0.396 -1.028,0.6 -1.59,0.885 -0.466,0.234 -0.56,-0.158 -1.048,-0.404 -0.845,-0.428 -1.377,-1.346 -2.376,-1.209 -0.557,0.078 -0.803,-0.559 -1.372,-0.449 -0.319,0.062 -0.393,0.291 -0.658,0.416 -0.195,0.092 -0.464,-0.025 -0.673,0.016 0.855,-0.982 -1.671,-1.23 -1.972,-1.658 -0.302,-0.43 -0.456,-1 -0.458,-1.521 -0.002,-0.33 -0.499,-0.537 -0.417,-1.125 0.144,-1.037 1.1,-1.521 1.32,-2.459 0.354,-1.498 -0.187,-2.773 -1.111,-3.939 0.794,0.537 1.206,1.514 1.27,2.445 0.141,-0.631 -0.063,-1.168 -0.426,-1.682 -0.239,-0.34 -0.713,-1.012 0.077,-0.953 -0.018,0.223 -0.039,0.445 -0.065,0.666 0.389,-0.068 0.326,-0.287 0.356,-0.594 0.036,-0.367 0.648,-0.275 0.469,-0.646 -0.202,-0.418 -1.558,0.074 -1.235,0.574 -0.16,-0.047 -1.227,-0.168 -0.317,0.123 -0.761,-0.076 -2.178,0.941 -2.828,0.256 0.326,-0.451 0.92,-0.693 1.384,-0.971 0.417,-0.248 0.672,-0.783 0.881,-1.201 0.556,-1.105 0.478,-2.311 0.211,-3.514 -0.287,0.174 -0.301,0.494 -0.523,0.717 -0.249,0.248 -0.533,0.463 -0.743,0.748 -0.43,0.586 -0.81,1.236 -1.188,1.855 -0.415,0.68 -0.511,0.555 -1.231,0.484 -0.684,-0.066 -1.401,0.639 -2.155,0.611 0.116,-0.42 0.567,-0.895 0.887,-1.174 0.538,-0.471 1.235,0.143 1.759,-0.352 0.913,-0.859 0.857,-2.385 1.708,-3.34 0.472,-0.529 0.753,-0.891 1.376,-1.248 0.73,-0.42 0.46,-0.926 0.689,-1.594 0.13,-0.375 0.544,-0.438 0.827,-0.645 0.091,-0.066 0.01,-0.568 0.008,-0.652 -0.007,-0.221 0.353,-1.248 0.015,-1.4 -0.139,-0.062 -0.336,0.977 -0.387,1.08 -0.274,0.539 -1.104,0.887 -1.522,1.346 -0.408,0.449 -0.772,0.938 -1.199,1.369 -0.185,0.188 -0.369,0.49 -0.635,0.574 -0.23,0.07 -0.445,-0.131 -0.667,-0.062 -0.411,0.129 -0.867,0.65 -1.339,0.822 -0.685,0.252 -1.204,0.797 -1.698,1.312 -0.181,0.188 -0.855,1.09 -1.093,1.041 -0.673,-0.141 -0.794,0.846 -1.178,1.145 0.221,-0.094 0.444,-0.178 0.671,-0.256 -0.275,0.285 -0.313,0.709 -0.604,0.982 -0.213,-0.65 -0.81,-0.223 -1.07,-0.742 -0.185,-0.369 -0.383,-1.182 -0.964,-0.846 0.147,-0.246 0.345,-0.463 0.574,-0.635 -0.079,0.42 0.447,0.768 0.531,0.201 0.095,-0.652 0.263,-1.303 0.263,-1.965 0,-0.621 -0.848,-1.016 -0.578,-1.662 0.105,-0.254 0.279,-0.523 0.136,-0.803 -0.113,-0.223 -0.252,-0.35 -0.069,-0.598 -0.306,0.254 -0.528,-0.057 -0.866,0.033 -0.482,0.127 -0.277,-0.213 -0.369,-0.418 -0.047,-0.105 -0.293,-0.658 -0.222,-0.748 0.099,-0.125 0.73,-1.057 0.539,-0.266 0.302,-0.219 0.607,-0.701 0.354,-1.066 -0.297,-0.428 -0.781,-0.062 -1.147,0.016 0.069,-0.215 0.402,-0.508 0.381,-0.738 -0.028,-0.305 -0.355,-0.463 -0.385,-0.783 -0.015,-0.16 -1.053,0.293 -1.089,0.289 -0.653,-0.078 -1.159,-0.643 -1.74,-0.9 -0.647,-0.289 -0.693,0.414 -1.191,0.324 -1.266,-0.225 -1.783,-1.969 -3.12,-2.115 -0.449,-0.049 -0.794,0.213 -1.191,0.355 -0.484,0.172 -1.031,-0.039 -1.529,-0.043 -1.25,-0.012 -2.721,0.049 -3.943,0.314 -2.264,0.494 -4.269,1.795 -6.57,2.256 -1.107,0.223 -2.103,0.184 -3.217,0.08 -1.357,-0.125 -2.075,0.445 -3.229,1.031 -0.943,0.479 -2.038,1.115 -3.06,1.389 -1.095,0.293 -1.823,0.359 -2.528,1.34 -0.539,0.75 -1.073,1.465 -1.816,2.033 -0.133,0.1 -0.726,0.621 -0.904,0.533 -0.487,-0.234 -0.744,0.236 -1.241,0.322 0.305,-0.783 -2.083,-0.49 -2.427,-0.354 -0.574,0.229 -0.673,0.586 -0.913,-0.199 -0.007,-0.021 -1.6,-0.123 -1.799,-0.146 -0.872,-0.105 -1.905,0.146 -2.762,0.311 -0.646,0.123 -1.205,0.064 -1.841,0.166 -0.812,0.129 -2.641,0.518 -2.421,1.688 -0.188,-0.096 -0.761,0.252 -0.966,0.375 -0.298,0.18 -0.592,-0.221 -0.919,-0.172 -0.326,0.047 -0.563,0.336 -0.793,0.543 -0.248,0.225 -0.476,0.299 -0.793,0.42 -0.462,0.174 -0.549,0.438 -0.906,0.715 -0.479,0.369 -1.178,0.553 -1.787,0.531 0.781,0.34 -0.878,0.188 -1.181,0.156 -1.062,-0.105 -2.104,-0.041 -3.169,-0.254 0.04,-0.105 0.081,-0.211 0.123,-0.316 -0.925,0.154 -1.35,-0.633 -1.732,-1.254 -0.313,-0.512 -1.15,-1.553 -1.792,-0.873 -0.564,-0.591 0.147,-3.362 1.231,-2.698 z" />
      <path
         style="fill:#ffffff"
         inkscape:connector-curvature="0"
         id="path3350"
         d="m 706.98,502.992 c -0.043,-0.105 -0.085,-0.209 -0.128,-0.314 0.372,0.036 0.388,0.075 0.128,0.314 z" />
      <path
         style="fill:#ffffff"
         inkscape:connector-curvature="0"
         id="path3956"
         d="m 739.633,499.371 c 0.285,-0.152 0.369,-0.41 0.098,-0.635 -0.261,0.156 -0.334,0.412 -0.098,0.635 z" />
      <path
         style="fill:#ffffff"
         inkscape:connector-curvature="0"
         id="path3958"
         d="m 739.732,497.148 c 0.126,-0.096 0.199,-0.225 0.22,-0.383 -0.351,-0.037 -0.426,0.092 -0.22,0.383 z" />
      <path
         style="fill:#ffffff"
         inkscape:connector-curvature="0"
         id="path3960"
         d="m 740.177,497.435 c 0.092,-0.146 0.134,-0.305 0.124,-0.477 -0.332,0.065 -0.363,0.247 -0.124,0.477 z" />
    </g>
  </g>
</svg>
