<?xml version="1.0" encoding="UTF-8" standalone="no"?>
<!-- Created with Inkscape (http://www.inkscape.org/) -->

<svg
   xmlns:dc="http://purl.org/dc/elements/1.1/"
   xmlns:cc="http://creativecommons.org/ns#"
   xmlns:rdf="http://www.w3.org/1999/02/22-rdf-syntax-ns#"
   xmlns:svg="http://www.w3.org/2000/svg"
   xmlns="http://www.w3.org/2000/svg"
   xmlns:sodipodi="http://sodipodi.sourceforge.net/DTD/sodipodi-0.dtd"
   xmlns:inkscape="http://www.inkscape.org/namespaces/inkscape"
   width="4.617732mm"
   height="5.8658123mm"
   viewBox="0 0 4.6177315 5.8658121"
   version="1.1"
   id="svg7070"
   inkscape:version="0.92.4 (5da689c313, 2019-01-14)"
   sodipodi:docname="bangladesh.svg">
  <defs
     id="defs7064" />
  <sodipodi:namedview
     id="base"
     pagecolor="#ffffff"
     bordercolor="#666666"
     borderopacity="1.0"
     inkscape:pageopacity="0.0"
     inkscape:pageshadow="2"
     inkscape:zoom="5.6"
     inkscape:cx="0.021895166"
     inkscape:cy="-1.873252"
     inkscape:document-units="mm"
     inkscape:current-layer="layer1"
     showgrid="false"
     inkscape:window-width="958"
     inkscape:window-height="1008"
     inkscape:window-x="-7"
     inkscape:window-y="0"
     inkscape:window-maximized="0" />
  <metadata
     id="metadata7067">
    <rdf:RDF>
      <cc:Work
         rdf:about="">
        <dc:format>image/svg+xml</dc:format>
        <dc:type
           rdf:resource="http://purl.org/dc/dcmitype/StillImage" />
        <dc:title></dc:title>
      </cc:Work>
    </rdf:RDF>
  </metadata>
  <g
     inkscape:label="Layer 1"
     inkscape:groupmode="layer"
     id="layer1"
     transform="translate(-161.96847,-25.804998)">
    <g
       transform="matrix(0.26458333,0,0,0.26458333,15.921343,-68.576109)"
       id="bd">
      <path
         style="fill:#aaaaaa"
         inkscape:connector-curvature="0"
         id="path3240"
         d="m 561.274,369.071 c -0.095,-0.011 -0.188,-0.021 -0.283,-0.032 0.17,0.13 0.359,0.215 0.569,0.254 -0.095,-0.074 -0.191,-0.147 -0.286,-0.222 z" />
      <path
         style="fill:#aaaaaa"
         inkscape:connector-curvature="0"
         id="path3242"
         d="m 561.401,371.169 c 0.012,0.197 0.098,0.356 0.256,0.476 -0.044,-0.244 0.406,-0.445 0.411,-0.413 -0.053,-0.428 -0.469,-0.278 -0.667,-0.063 z" />
      <path
         style="fill:#aaaaaa"
         inkscape:connector-curvature="0"
         id="path3244"
         d="m 561.75,370.596 c 0.085,0.063 0.171,0.127 0.256,0.19 -0.065,-0.091 -0.151,-0.154 -0.256,-0.19 z" />
      <path
         style="fill:#aaaaaa"
         inkscape:connector-curvature="0"
         id="path3246"
         d="m 561.787,371.804 c 0.131,0.335 0.441,0.548 0.545,0.902 0.058,0.239 0.063,0.481 0.019,0.724 -0.026,0.188 -0.325,1.146 0.133,0.471 -0.092,0.121 -0.1,0.237 -0.024,0.348 0.503,0.224 0.557,-1.418 0.501,-1.619 -0.111,-0.405 -0.774,-0.767 -0.784,-1.136 -0.009,-0.347 -0.465,-0.047 -0.39,0.31 z" />
      <path
         style="fill:#aaaaaa"
         inkscape:connector-curvature="0"
         id="path3248"
         d="m 561.909,374.091 c 0.084,0.127 0.229,-0.176 0.098,0.223 0.143,-0.173 0.174,-0.363 0.092,-0.571 -0.064,0.115 -0.126,0.232 -0.19,0.348 z" />
      <path
         style="fill:#aaaaaa"
         inkscape:connector-curvature="0"
         id="path3250"
         d="m 562.195,372.693 c -0.017,0.144 0.006,0.281 0.065,0.413 0.03,-0.145 0.009,-0.283 -0.065,-0.413 z" />
      <path
         style="fill:#aaaaaa"
         inkscape:connector-curvature="0"
         id="path3252"
         d="m 563.627,373.964 c 0.742,-0.382 0.257,-1.158 -0.062,-1.652 0.137,0.534 0.126,1.108 0.062,1.652 z" />
      <path
         style="fill:#aaaaaa"
         inkscape:connector-curvature="0"
         id="path3254"
         d="m 565.118,372.948 c 0.317,-0.322 -0.185,-0.799 -0.411,-0.984 -0.102,0.388 0.105,0.759 0.411,0.984 z" />
      <path
         style="fill:#aaaaaa"
         inkscape:connector-curvature="0"
         id="path3256"
         d="m 566.516,374.599 c -0.079,0.218 -0.089,0.44 -0.031,0.667 0.061,-0.22 0.072,-0.443 0.031,-0.667 z" />
      <path
         style="fill:#aaaaaa"
         inkscape:connector-curvature="0"
         id="path3258"
         d="m 566.771,376.282 c 0.529,-0.196 0.138,-0.854 -0.226,-0.984 0.072,0.329 0.111,0.666 0.226,0.984 z" />
      <path
         style="fill:#aaaaaa"
         inkscape:connector-curvature="0"
         id="path3340"
         d="m 552.382,357.129 c 0.012,-0.143 0.044,-0.28 0.097,-0.413 0.36,0.26 0.965,0.427 1.146,0.876 0.162,0.405 0.836,0.391 1.175,0.521 -0.092,-0.26 -0.24,-0.482 -0.445,-0.667 0.532,-0.098 0.641,0.387 0.83,0.758 0.283,0.557 1.018,0.678 1.521,0.957 0.106,-0.267 0.184,-0.523 0.031,-0.794 0.981,-0.083 1.203,1.846 1.237,2.444 0.022,0.396 -0.087,0.751 0.37,0.907 0.686,0.233 1.509,0.428 2.234,0.428 1.537,0 3.101,-0.139 4.646,0.01 0.714,0.068 2.701,1.294 0.976,1.134 0.515,0.979 -0.669,1.866 -0.764,2.669 -0.304,-0.27 -0.61,0.238 -0.824,-0.096 0.061,0.528 -0.527,0.425 -0.856,0.381 0.137,0.435 -0.385,1.165 -0.42,1.639 -0.049,0.664 0.607,1.636 0.866,2.237 0.061,-0.21 0.071,-0.422 0.03,-0.636 0.318,0.142 0.855,1.783 1.439,0.819 0.218,-0.36 -0.213,-0.966 -0.01,-1.423 0.2,-0.45 0.311,-0.538 0.159,-1.048 0.432,0.381 0.885,-0.58 1.167,0.1 0.334,0.806 0.505,1.741 0.746,2.579 0.312,1.08 0.689,2.111 0.963,3.208 0.263,1.056 0.327,2.223 0.746,3.23 -0.375,0.112 -0.827,-0.551 -1.263,-0.479 -0.654,0.107 0.239,2.036 0.243,2.416 -0.302,-0.477 -0.843,-1.058 -1.003,-1.594 -0.171,-0.566 -0.193,-0.902 -0.267,-1.456 -0.139,-1.024 -1.544,-2.12 -0.759,-3.177 -0.203,0.162 -0.327,0.477 -0.322,0.73 -0.29,-0.873 -1.407,-1.59 -1.332,-2.572 -0.029,0.408 -0.487,0.562 -0.717,0.833 -0.092,0.099 -0.118,0.213 -0.078,0.342 -0.276,0.093 -0.529,-0.042 -0.666,-0.285 0.069,0.115 0.074,0.226 0.014,0.332 -0.45,0.261 -1.153,-1.392 -1.286,-1.571 -0.124,-0.209 -0.17,-0.434 -0.137,-0.674 0.011,-0.401 -0.17,-0.51 -0.281,-0.852 -0.085,-0.264 0.375,-0.367 0.199,-0.603 -0.062,0.245 0.319,0.129 -0.287,0.19 0.015,-0.117 0.035,-0.234 0.062,-0.35 -0.157,0.127 -0.326,0.148 -0.508,0.063 0.139,0.101 0.695,0.814 0.178,0.747 -0.259,-0.033 -0.721,-0.197 -0.879,-0.238 0.414,0.25 1.032,0.453 1.28,0.9 0.169,0.304 -0.149,0.515 -0.39,0.624 0.328,0.396 0.147,0.756 -0.128,1.112 0.597,0.013 0.406,0.596 0.384,1.017 0.078,-0.111 0.162,-0.217 0.252,-0.318 0.495,0.441 0.59,1.592 -0.221,1.747 0.053,-0.225 0.021,-0.437 -0.098,-0.635 0.073,0.524 -0.074,0.957 -0.171,1.462 -0.113,0.597 -0.82,0.354 -0.526,-0.128 -0.092,0.099 -0.188,0.194 -0.286,0.286 -0.162,-0.564 0.478,-0.769 0.542,-1.271 -0.178,0.291 -0.447,0.511 -0.701,0.729 0.025,-0.212 0.089,-0.413 0.189,-0.603 -0.134,0.203 -0.271,0.404 -0.41,0.603 -0.204,-0.646 -0.29,-1.195 -0.031,-1.842 -0.698,0.284 -0.086,0.933 -0.332,1.405 -0.178,0.343 0.245,0.364 0.097,0.78 -0.133,0.373 -0.5,0.169 -0.655,-0.058 -0.027,0.2 -0.038,0.401 -0.03,0.604 -0.497,0.006 -0.256,-1.856 -0.256,-2.159 -0.166,0.422 0.04,0.843 -0.062,1.271 -0.163,-0.354 -0.335,-0.722 -0.384,-1.112 0.005,0.634 0.636,1.58 0,2.224 -0.187,-0.314 -0.021,-0.687 -0.252,-0.984 0.127,0.316 -0.083,1.007 -0.317,1.238 0.033,-0.605 -0.611,-1.074 -0.688,-1.74 -0.084,-0.736 -0.495,-1.3 -0.65,-2.008 -0.074,-0.341 -0.145,-0.683 -0.251,-1.017 -0.144,-0.45 -0.017,-0.665 -0.054,-1.094 -0.021,-0.243 -0.364,-0.227 -0.531,-0.267 -0.348,-0.085 -0.138,-0.489 -0.111,-0.727 0.056,-0.52 -0.92,-0.555 -0.882,-1.248 0.021,-0.356 0.414,-0.481 0.458,-0.808 0.044,-0.33 -0.083,-0.708 -0.208,-1.007 -0.206,-0.49 -1.198,-0.541 -1.658,-0.854 -0.271,-0.185 -0.737,-0.453 -0.764,-0.826 -0.027,-0.392 0.327,-0.67 0.349,-1.049 0.537,0.944 0.749,-0.829 0.892,-0.857 0.356,-0.071 1.098,-0.142 1.43,0.032 0.408,-0.659 -0.456,-0.422 -0.525,-1.049 -0.048,-0.43 -0.619,-0.075 -0.925,-0.278 -0.417,-0.274 -0.593,-0.801 -1.078,-0.993 -1.216,-0.481 -0.568,-1.906 0.433,-2.286 -0.091,-0.298 -0.412,-0.432 -0.702,-0.438 z" />
    </g>
  </g>
</svg>
