<?xml version="1.0" encoding="UTF-8" standalone="no"?>
<!-- Created with Inkscape (http://www.inkscape.org/) -->

<svg
   xmlns:dc="http://purl.org/dc/elements/1.1/"
   xmlns:cc="http://creativecommons.org/ns#"
   xmlns:rdf="http://www.w3.org/1999/02/22-rdf-syntax-ns#"
   xmlns:svg="http://www.w3.org/2000/svg"
   xmlns="http://www.w3.org/2000/svg"
   xmlns:sodipodi="http://sodipodi.sourceforge.net/DTD/sodipodi-0.dtd"
   xmlns:inkscape="http://www.inkscape.org/namespaces/inkscape"
   width="716.09998mm"
   height="467mm"
   viewBox="0 0 716.09995 467.00005"
   version="1.1"
   id="svg7070"
   inkscape:version="0.92.4 (5da689c313, 2019-01-14)"
   sodipodi:docname="belarus.svg">
  <defs
     id="defs7064" />
  <sodipodi:namedview
     id="base"
     pagecolor="#ffffff"
     bordercolor="#666666"
     borderopacity="1.0"
     inkscape:pageopacity="0.0"
     inkscape:pageshadow="2"
     inkscape:zoom="1.4"
     inkscape:cx="-22.48294"
     inkscape:cy="-118.37223"
     inkscape:document-units="mm"
     inkscape:current-layer="layer1"
     showgrid="false"
     inkscape:window-width="958"
     inkscape:window-height="1008"
     inkscape:window-x="-7"
     inkscape:window-y="0"
     inkscape:window-maximized="0" />
  <metadata
     id="metadata7067">
    <rdf:RDF>
      <cc:Work
         rdf:about="">
        <dc:format>image/svg+xml</dc:format>
        <dc:type
           rdf:resource="http://purl.org/dc/dcmitype/StillImage" />
        <dc:title />
      </cc:Work>
    </rdf:RDF>
  </metadata>
  <g
     inkscape:label="Layer 1"
     inkscape:groupmode="layer"
     id="layer1"
     transform="translate(-163.32671,429.70698)">
    <path
       inkscape:connector-curvature="0"
       style="fill:#ffffff;stroke-width:26.4579258"
       d="m 163.40771,-62.062933 c 9.70976,-12.303025 17.35657,-27.595932 34.36815,-30.691513 16.69559,-3.042981 21.66947,-15.795504 19.84352,-31.300014 -4.2899,-36.40647 -35.82312,-61.80632 -41.61798,-97.6836 19.07653,4.86797 43.62893,1.37599 63.55144,3.65098 6.02985,0.68999 15.05463,-3.94198 20.90148,-5.39797 11.77371,-2.96298 8.77979,-8.33395 17.22458,-15.478 5.23987,-4.41898 11.72071,-0.19 17.27658,-2.85699 4.33989,-2.08998 6.45984,-6.95895 11.05872,-9.07494 8.78979,-4.07498 26.90834,-5.26497 21.24548,9.84194 4.91988,1.58799 12.75269,1.08499 15.87461,-3.83598 6.79984,-10.50393 -12.0647,-14.10221 -17.51457,-16.3512 19.18153,-20.82257 4.2299,-43.02094 31.06124,-57.14965 12.46169,-6.56196 13.78466,-19.94938 30.29426,-18.46779 17.99155,1.58799 9.20977,-7.69895 22.70044,-14.34031 -18.78454,-4.97397 -34.20916,-12.11783 -14.81664,-34.52789 12.3827,-14.31391 35.90312,-19.57908 53.1807,-14.39331 20.76949,6.24396 21.40447,-21.82797 40.454,-28.83933 10.13275,-3.73097 24.81639,7.91096 29.94927,3.83598 10.26574,-8.20195 20.3465,0.19 24.79139,8.65195 2.93993,5.60896 39.31603,-6.87896 51.72473,4.44497 4.38989,4.02198 -2.16995,12.40892 2.79993,17.2772 6.74983,6.58795 21.77546,1.95798 28.86529,-1.455 24.97639,-11.98552 40.42801,-7.35495 62.81146,8.51995 6.05985,4.31298 24.07641,7.16996 24.3144,16.4834 0.29999,15.45161 -0.69998,18.78529 6.84983,32.7288 4.99988,9.18095 0.1,15.05471 -4.62989,22.59526 -8.16979,13.01742 11.27173,17.99149 18.15056,25.77025 16.00661,18.09739 21.19248,40.77205 46.45986,48.8947 7.29982,2.35498 18.22855,4.81497 21.32447,13.04392 3.85991,10.26574 -8.85978,18.41489 5.23987,22.43646 4.3399,-0.60999 8.56979,-1.71999 12.67269,-3.35998 5.79986,-1.16399 13.14968,3.54498 18.97054,4.20698 18.22955,2.14298 7.9598,8.36095 16.2446,18.81178 4.41989,5.60897 13.81166,6.05897 19.34052,10.60974 14.86964,12.14422 -7.29982,11.66803 -12.51369,15.10761 -9.28977,6.13796 -10.34574,15.7161 -24.68539,19.20858 -17.91156,4.36597 -26.14036,-11.58863 -42.14697,-11.35053 -34.26316,0.53 -13.91666,25.63794 -0.59998,36.43288 8.46979,6.85295 5.31987,20.187573 7.64981,29.659615 3.80991,15.504506 11.79971,28.627726 20.1605,42.015544 -38.86604,1.216993 -75.51014,-3.20098 -89.85079,42.6770401 -3.40991,10.8479339 7.64981,20.2669769 10.58374,30.2682159 5.20987,18.070889 -17.77956,3.412979 -22.48945,-2.301986 -13.62566,-16.6950986 -30.40025,-6.031964 -48.91979,-10.609736 -7.53982,-1.851988 -20.5315,4.312974 -25.82337,9.736941 C 640.57799,30.727001 632.29719,5.5383549 628.03829,3.3158684 617.32256,-2.2930974 597.13505,10.485825 598.72301,22.868449 592.32317,19.984467 592.03318,10.195027 586.10232,7.7344415 579.96248,5.1674571 572.15967,12.364413 566.8678,8.5044368 559.42798,3.0804699 551.89317,3.5304671 543.29438,4.4824613 531.62666,5.8054533 526.2028,-2.0794987 524.66783,11.943416 517.41801,10.091427 512.02114,4.2174629 504.69232,2.7094721 495.80254,0.85748342 488.63272,8.0804394 481.4359,-0.30650948 467.57224,-16.472411 444.39481,-14.620322 424.1283,-18.721397 c -20.50449,-4.179975 -44.4489,-8.519948 -65.37639,-8.122951 -13.28167,0.259999 -26.93434,-4.074975 -40.00402,-2.777983 -11.50972,1.110993 -22.40945,5.476967 -34.05116,5.476967 -25.26738,0 -25.92836,9.81594 -43.20594,23.73295516 C 232.36101,6.9695462 225.61618,1.9955765 215.85342,0.16758763 203.18073,-2.187398 208.5736,4.9825583 202.51875,10.697923 c -9.01978,8.572948 0.49998,-39.793057 0.59998,-40.87785 3.61991,-22.463063 -30.61125,-17.938691 -39.79202,-31.882106 z"
       id="by" />
  </g>
</svg>
