<?xml version="1.0" encoding="UTF-8" standalone="no"?>
<!-- Created with Inkscape (http://www.inkscape.org/) -->

<svg
   xmlns:dc="http://purl.org/dc/elements/1.1/"
   xmlns:cc="http://creativecommons.org/ns#"
   xmlns:rdf="http://www.w3.org/1999/02/22-rdf-syntax-ns#"
   xmlns:svg="http://www.w3.org/2000/svg"
   xmlns="http://www.w3.org/2000/svg"
   xmlns:sodipodi="http://sodipodi.sourceforge.net/DTD/sodipodi-0.dtd"
   xmlns:inkscape="http://www.inkscape.org/namespaces/inkscape"
   width="294.20001mm"
   height="192.90001mm"
   viewBox="0 0 294.19999 192.90003"
   version="1.1"
   id="svg7070"
   inkscape:version="0.92.4 (5da689c313, 2019-01-14)"
   sodipodi:docname="belgium.svg">
  <defs
     id="defs7064" />
  <sodipodi:namedview
     id="base"
     pagecolor="#ffffff"
     bordercolor="#666666"
     borderopacity="1.0"
     inkscape:pageopacity="0.0"
     inkscape:pageshadow="2"
     inkscape:zoom="7.9195959"
     inkscape:cx="16.156222"
     inkscape:cy="-21.011058"
     inkscape:document-units="mm"
     inkscape:current-layer="layer1"
     showgrid="false"
     inkscape:window-width="958"
     inkscape:window-height="1008"
     inkscape:window-x="-7"
     inkscape:window-y="0"
     inkscape:window-maximized="0" />
  <metadata
     id="metadata7067">
    <rdf:RDF>
      <cc:Work
         rdf:about="">
        <dc:format>image/svg+xml</dc:format>
        <dc:type
           rdf:resource="http://purl.org/dc/dcmitype/StillImage" />
        <dc:title />
      </cc:Work>
    </rdf:RDF>
  </metadata>
  <g
     inkscape:label="Layer 1"
     inkscape:groupmode="layer"
     id="layer1"
     transform="translate(-154.77035,147.75957)">
    <path
       inkscape:connector-curvature="0"
       style="fill:#ffffff;stroke-width:26.45705605"
       d="m 154.77035,-109.90273 c 20.82576,-10.81903 41.86255,-21.71733 64.67257,-27.74845 -4.84064,15.21002 18.02039,10.31634 26.09146,12.00935 7.46099,1.56064 11.11448,4.97286 19.34357,2.77736 10.18835,-2.75137 21.64587,-19.78627 25.21834,-3.86211 -1.32018,-3.59718 -2.46033,-7.22135 -3.39045,-10.95129 7.67102,1.69261 17.01526,1.26971 15.98312,-9.23189 6.0808,4.60295 16.06213,7.38031 21.01078,-0.84981 4.13055,10.0519 18.8405,6.79845 24.26522,0 6.40085,23.64829 41.06944,23.56901 61.41814,31.9015 -10.90244,12.72349 -24.53025,35.498874 -2.91038,37.826741 10.08133,1.084752 40.38035,8.438069 28.12873,24.362523 11.56353,-1.957552 10.98145,11.40089 14.3689,18.490168 -13.44278,2.433443 -12.0936,9.839747 -20.42871,16.717773 -3.39045,2.777364 -11.85457,-4.312013 -19.44958,7.64425 -6.43085,10.07829251 -11.59053,15.0513541 -9.92131,23.886432 1.64022,8.940953 15.69208,14.839702 6.85091,24.838614 -15.71809,17.749536 -33.07739,-1.639625 -43.21273,-10.66026 -7.70102,-6.798444 -27.65267,-6.877426 -33.26241,-13.728657 -3.7305,-4.5499588 -0.70009,-27.113594 -1.64022,-33.620904 -7.75103,3.068298 -9.98132,9.575808 -15.48005,14.9719727 -10.18835,9.9197292 -26.14447,5.52873439 -38.31708,3.4922006 2.78037,-9.9457233 8.12108,-23.1985893 -0.80011,-31.9278913 -6.91091,-6.718462 -25.90643,-6.665474 -33.63345,-1.692612 1.27016,-15.844873 -6.0108,-14.760421 -17.49132,-19.601113 -13.62781,-5.713692 -12.67468,-12.749982 -20.3227,-24.494793 -4.13055,-6.37554 -20.42771,1.242716 -28.6578,-2.804358 -12.46365,-6.057613 -12.62267,-17.246952 -18.41744,-27.748446 z"
       id="be" />
  </g>
</svg>
