<?xml version="1.0" encoding="UTF-8" standalone="no"?>
<!-- Created with Inkscape (http://www.inkscape.org/) -->

<svg
   xmlns:dc="http://purl.org/dc/elements/1.1/"
   xmlns:cc="http://creativecommons.org/ns#"
   xmlns:rdf="http://www.w3.org/1999/02/22-rdf-syntax-ns#"
   xmlns:svg="http://www.w3.org/2000/svg"
   xmlns="http://www.w3.org/2000/svg"
   xmlns:sodipodi="http://sodipodi.sourceforge.net/DTD/sodipodi-0.dtd"
   xmlns:inkscape="http://www.inkscape.org/namespaces/inkscape"
   width="144.5mm"
   height="262.60001mm"
   viewBox="0 0 144.49999 262.60001"
   version="1.1"
   id="svg7070"
   inkscape:version="0.92.4 (5da689c313, 2019-01-14)"
   sodipodi:docname="belize.svg">
  <defs
     id="defs7064" />
  <sodipodi:namedview
     id="base"
     pagecolor="#ffffff"
     bordercolor="#666666"
     borderopacity="1.0"
     inkscape:pageopacity="0.0"
     inkscape:pageshadow="2"
     inkscape:zoom="1.4"
     inkscape:cx="-143.76044"
     inkscape:cy="1.2919881"
     inkscape:document-units="mm"
     inkscape:current-layer="layer1"
     showgrid="false"
     inkscape:window-width="958"
     inkscape:window-height="1008"
     inkscape:window-x="-7"
     inkscape:window-y="0"
     inkscape:window-maximized="0" />
  <metadata
     id="metadata7067">
    <rdf:RDF>
      <cc:Work
         rdf:about="">
        <dc:format>image/svg+xml</dc:format>
        <dc:type
           rdf:resource="http://purl.org/dc/dcmitype/StillImage" />
        <dc:title />
      </cc:Work>
    </rdf:RDF>
  </metadata>
  <g
     inkscape:label="Layer 1"
     inkscape:groupmode="layer"
     id="layer1"
     transform="translate(-168.94974,157.08881)">
    <g
       transform="matrix(26.460161,0,0,26.460512,1082.7514,-10415.109)"
       id="bz"
       style="fill:#ffffff">
      <path
         style="fill:#ffffff"
         inkscape:connector-curvature="0"
         d="m -29.421,391.879 c 0.251,-0.076 0.417,-0.27 0.318,-0.541 -0.109,0.179 -0.215,0.358 -0.318,0.541 z"
         id="path2808" />
      <path
         style="fill:#ffffff"
         inkscape:connector-curvature="0"
         d="m -34.535,397.596 c 0.253,-1.646 0.687,-3.199 0.845,-4.862 0.064,-0.671 0.199,-4.052 1.41,-2.729 0.335,-0.63 1.196,-2.514 2.128,-2.318 -0.195,0.18 -0.29,0.401 -0.286,0.667 1.405,-0.712 0.178,2.03 0.042,2.495 -0.165,0.563 -0.265,1.268 -0.363,1.861 -0.071,0.427 0.093,0.745 -0.053,1.181 -0.144,0.432 -0.366,0.832 -0.516,1.26 0.245,-0.879 -0.22,0.242 -0.32,0.368 -0.282,0.353 -0.647,0.483 -0.986,0.761 -0.288,0.233 -0.548,0.534 -0.721,0.863 -0.082,0.141 -0.126,0.292 -0.132,0.454 -0.346,-0.087 -0.7,-0.036 -1.048,-10e-4 z"
         id="path2810" />
    </g>
  </g>
</svg>
