<?xml version="1.0" encoding="UTF-8" standalone="no"?>
<!-- Created with Inkscape (http://www.inkscape.org/) -->

<svg
   xmlns:dc="http://purl.org/dc/elements/1.1/"
   xmlns:cc="http://creativecommons.org/ns#"
   xmlns:rdf="http://www.w3.org/1999/02/22-rdf-syntax-ns#"
   xmlns:svg="http://www.w3.org/2000/svg"
   xmlns="http://www.w3.org/2000/svg"
   xmlns:sodipodi="http://sodipodi.sourceforge.net/DTD/sodipodi-0.dtd"
   xmlns:inkscape="http://www.inkscape.org/namespaces/inkscape"
   width="270.29999mm"
   height="621mm"
   viewBox="0 0 270.30001 620.99982"
   version="1.1"
   id="svg7070"
   inkscape:version="0.92.4 (5da689c313, 2019-01-14)"
   sodipodi:docname="benin.svg">
  <defs
     id="defs7064" />
  <sodipodi:namedview
     id="base"
     pagecolor="#ffffff"
     bordercolor="#666666"
     borderopacity="1.0"
     inkscape:pageopacity="0.0"
     inkscape:pageshadow="2"
     inkscape:zoom="7.9195959"
     inkscape:cx="-4.7732336"
     inkscape:cy="5.3732313"
     inkscape:document-units="mm"
     inkscape:current-layer="layer1"
     showgrid="false"
     inkscape:window-width="958"
     inkscape:window-height="1008"
     inkscape:window-x="-7"
     inkscape:window-y="0"
     inkscape:window-maximized="0" />
  <metadata
     id="metadata7067">
    <rdf:RDF>
      <cc:Work
         rdf:about="">
        <dc:format>image/svg+xml</dc:format>
        <dc:type
           rdf:resource="http://purl.org/dc/dcmitype/StillImage" />
        <dc:title />
      </cc:Work>
    </rdf:RDF>
  </metadata>
  <g
     inkscape:label="Layer 1"
     inkscape:groupmode="layer"
     id="layer1"
     transform="translate(-158.70355,577.33302)">
    <path
       style="fill:#ffffff;stroke-width:26.45786858"
       inkscape:connector-curvature="0"
       id="bj"
       d="m 158.70355,-410.20841 c 6.95921,-6.95955 5.12942,-18.23122 10.84677,-25.79892 5.3694,-7.11755 10.87278,-5.98046 16.13818,-12.03943 10.47582,-12.09245 19.4438,-43.23628 39.97348,-31.77898 19.4708,10.87525 51.29721,-9.68476 62.59293,-24.3964 7.29918,-9.44674 16.03219,-24.3171 15.79422,-36.70057 -0.19998,-7.48858 -8.56904,-23.36462 3.56959,-25.53429 7.34917,-1.2971 14.52436,-0.90007 20.50269,-6.27149 14.60335,-13.15082 25.71509,5.0544 34.60409,14.89726 6.47926,7.17056 10.68779,16.27317 16.98408,23.70845 7.42916,8.70568 19.12684,11.43089 26.508,21.7505 4.09954,5.76845 -4.99943,20.10987 -6.31928,25.82531 -3.01966,13.12443 9.38893,23.94667 15.8732,33.81644 7.50915,11.5103 1.47983,23.49683 6.37928,34.13386 5.84934,12.7275 10.68779,18.65466 2.50972,32.36113 -4.33951,7.27656 -11.58769,3.41326 -15.23828,11.43089 -6.1593,13.54765 7.0392,26.51327 -1.08988,40.21973 -5.36939,9.04971 -18.83687,9.63176 -23.96829,18.76047 -4.78946,8.46766 -4.94944,15.4793 -11.93165,24.13188 -13.38649,16.59069 6.00932,40.16683 -22.59345,47.17888 -9.57892,2.38118 -15.34326,-1.56112 -17.06307,9.49974 -1.60982,10.2931 -1.63981,20.93023 -1.7998,31.32914 -0.39995,25.48139 -4.75946,50.75106 -3.85956,76.28535 0.49994,15.13528 9.22896,35.086438 7.13919,49.242742 -1.87978,12.806898 -3.27963,25.587195 -5.12942,38.34119 -2.03977,14.050395 11.32272,60.462015 -6.1893,69.51142 -10.34383,5.371419 -27.61888,2.43419 -39.07458,4.710368 -17.80399,3.572278 -35.68797,6.773528 -53.67794,9.260722 4.25952,-3.863301 9.25896,-5.847456 15.0533,-5.90046 -0.79991,-9.10271 -5.55937,-17.252146 -9.99987,-24.952146 -6.92922,-11.93363065 -7.61914,-23.682047 -9.57892,-37.044589 -1.7498,-12.092343 8.22907,-20.400991 7.50916,-37.044489 -1.90979,-44.850398 -0.59994,-89.859508 -0.49995,-134.789308 0.053,-25.42849 -0.49994,-48.84591 -14.60335,-70.4376 -13.41248,-20.45389 -4.3895,-41.0665 -10.6088,-63.00221 -5.41939,-19.05149 -27.67187,-26.03703 -40.55542,-38.73802 -11.69367,-11.61611 -5.20941,-27.49234 -8.17907,-41.96617 z" />
  </g>
</svg>
