<?xml version="1.0" encoding="UTF-8" standalone="no"?>
<!-- Created with Inkscape (http://www.inkscape.org/) -->

<svg
   xmlns:dc="http://purl.org/dc/elements/1.1/"
   xmlns:cc="http://creativecommons.org/ns#"
   xmlns:rdf="http://www.w3.org/1999/02/22-rdf-syntax-ns#"
   xmlns:svg="http://www.w3.org/2000/svg"
   xmlns="http://www.w3.org/2000/svg"
   xmlns:sodipodi="http://sodipodi.sourceforge.net/DTD/sodipodi-0.dtd"
   xmlns:inkscape="http://www.inkscape.org/namespaces/inkscape"
   width="1122.7mm"
   height="1335.2999mm"
   viewBox="0 0 1122.6999 1335.3"
   version="1.1"
   id="svg7070"
   inkscape:version="0.92.4 (5da689c313, 2019-01-14)"
   sodipodi:docname="bolivia.svg">
  <defs
     id="defs7064" />
  <sodipodi:namedview
     id="base"
     pagecolor="#ffffff"
     bordercolor="#666666"
     borderopacity="1.0"
     inkscape:pageopacity="0.0"
     inkscape:pageshadow="2"
     inkscape:zoom="1.4"
     inkscape:cx="-91.814046"
     inkscape:cy="-49.395029"
     inkscape:document-units="mm"
     inkscape:current-layer="layer1"
     showgrid="false"
     inkscape:window-width="958"
     inkscape:window-height="1008"
     inkscape:window-x="-7"
     inkscape:window-y="0"
     inkscape:window-maximized="0" />
  <metadata
     id="metadata7067">
    <rdf:RDF>
      <cc:Work
         rdf:about="">
        <dc:format>image/svg+xml</dc:format>
        <dc:type
           rdf:resource="http://purl.org/dc/dcmitype/StillImage" />
        <dc:title />
      </cc:Work>
    </rdf:RDF>
  </metadata>
  <g
     inkscape:label="Layer 1"
     inkscape:groupmode="layer"
     id="layer1"
     transform="translate(-181.67056,1243.1997)">
    <path
       inkscape:connector-curvature="0"
       style="fill:#ffffff;stroke-width:26.45796776"
       d="m 181.67056,-1115.5114 c 22.25016,1.455 44.63331,3.413 66.83147,5.054 10.18561,0.77 4.96981,2.4341 6.47975,8.5191 2.7499,10.9539 18.5733,-0.26 23.01813,-2.222 5.1298,-2.223 15.37141,-4.339 18.65229,-9.5511 5.07981,-8.0171 6.68975,-19.3148 14.31346,-25.5855 16.85336,-13.8908 30.26685,8.4671 39.4475,-13.8908 7.9597,-19.4735 32.72776,-20.3731 48.04718,-31.1682 14.26046,-10.0807 21.48319,-30.8508 39.15652,-36.0102 21.11319,-6.1381 44.6863,-16.1662 67.12245,-13.0705 24.79006,3.466 19.28727,5.741 35.76964,-9.7631 35.66465,24.6594 -2.5899,71.6234 7.77971,103.2943 2.5899,7.9641 9.14965,12.515 11.90555,19.4736 3.09988,7.8581 -4.46983,15.981 -6.31976,23.0984 -5.4498,21.3521 15.37141,32.8086 20.08124,48.7367 3.38987,11.4301 2.32991,10.0808 12.17053,18.4946 6.08977,5.159 4.57983,18.1506 10.21162,21.4579 7.58971,4.392 13.28249,-1.032 19.89624,7.0911 7.72971,9.55108 15.18643,10.34528 24.15609,17.25096 1.21995,0.98001 4.96981,12.35613 6.98973,14.57865 6.00977,6.56207 13.38749,7.75208 21.74718,9.7101 11.37657,2.69903 17.64733,7.32908 28.8119,1.13801 9.15966,-5.10605 18.38831,-2.69903 26.72199,3.09603 6.74974,4.71005 12.38253,10.84802 19.36727,15.29306 9.62963,6.05907 11.48256,-6.56206 19.20827,-4.33904 14.52445,4.23304 14.94843,31.51223 33.81172,33.60245 16.48337,1.85202 27.91294,14.92266 44.23732,15.82227 22.64714,1.24401 25.95401,34.76656 44.8713,39.63501 15.55741,4.02204 30.50484,1.40201 45.82426,-0.98001 21.77417,-3.30703 43.78634,13.99665 61.83066,24.23605 29.57883,16.74838 10.66263,32.64994 21.35123,56.939 11.7465,26.72318 16.2183,50.27132 22.0121,78.71432 -7.2997,-0.21 -14.5774,0.0529 -21.8272,0.77001 0.9,20.71712 27.304,32.70284 30.7969,54.98097 2.5899,16.64248 0.8,36.11608 8.0697,51.62074 9.2296,19.63231 45.1633,12.91184 62.8366,14.68456 33.2567,3.30703 67.7834,8.17608 100.8022,0.56 0.5,14.84336 -8.1697,23.86575 -9.3097,37.25379 -0.8999,11.00672 3.5699,24.95046 6.4298,35.66617 4.5298,16.80118 24.1821,43.04815 42.4904,46.40839 9.3396,1.74602 14.2344,-4.44505 18.4413,7.27608 3.1998,8.94309 7.4397,17.14517 11.0056,25.98227 9.3696,23.20424 21.5101,36.06317 16.1393,61.22524 -2.6999,12.67373 -13.2815,34.36976 -8.9196,47.33449 6.1397,18.20349 -6.8498,33.73475 -13.9175,51.27674 -9.5196,23.68054 -10.0006,34.47556 9.2297,50.69473 14.2874,12.09162 -8.6497,19.5265 -18.6253,26.88198 6.9097,-22.78084 -8.0997,-38.4444 -25.9811,-49.87452 -18.7852,-11.98573 -43.3643,-33.60245 -64.9265,-38.49731 -59.8197,-13.44094 -130.2761,17.99189 -188.24385,28.2049 -27.64796,4.92105 -42.70238,4.39204 -47.17321,34.52846 -3.75986,25.00346 -25.16105,41.64593 -29.2089,65.93489 -3.83985,22.83384 8.48968,44.291761 3.80986,67.892808 -6.60975,33.49655 -9.12966,67.8399089 -17.22435,101.018956 C 885.06889,11.474263 888.11177,-1.120069 864.69666,-0.24695984 846.65335,0.41304706 825.96313,-1.5429734 809.08377,5.1770968 789.34652,12.982178 790.14049,-7.0732312 779.42489,20.152653 770.24524,43.515597 765.72041,64.285615 763.18051,88.892072 737.64848,53.384701 741.85532,18.90914 692.75118,11.130259 672.74894,7.9282256 643.51405,17.427325 625.70772,8.8022347 610.12431,1.2081554 601.10266,-17.709342 583.29633,-21.28128 c -2.45991,25.320965 -1.02996,33.284948 -26.457,42.519045 -12.72551,4.604048 -26.14,29.395507 -33.70672,41.19603 -11.56156,17.991888 -15.6364,26.670279 -38.97152,29.157405 -7.9897,0.870009 -17.27634,0.98001 -24.71106,-2.593027 -13.3345,-6.456068 -4.62983,-21.246322 -8.91966,-31.776832 -5.23981,-12.753034 -5.52979,-28.204895 -12.56753,-40.217021 -6.31976,-10.7422118 -13.28149,-17.93898703 -16.80036,-30.321616 -6.16977,-21.696027 -11.37657,-50.535929 -23.99709,-69.400926 -7.11973,-10.58341 -18.20231,-15.34596 -25.61103,-25.003358 -8.22969,-10.68931 1.45994,-21.45793 -3.90985,-32.35894 -4.57983,-9.3131 -17.11835,-9.9221 -21.82817,-19.2883 -5.2598,-10.53051 7.13973,-17.67439 -7.03974,-30.79782 24.97506,-15.08136 22.91213,-12.75304 5.3398,-36.48639 -2.5699,-3.46603 7.16973,-18.22999 8.91966,-21.24632 8.75967,-15.18726 -0.59998,-19.94981 -12.35553,-29.50131 -23.17712,-18.70629 -33.09874,-35.56037 -40.69146,-64.13567 -3.43987,-12.91183 -23.33611,-45.98508 -10.79459,-57.9179 -38.36354,-7.69908 -28.67991,-68.89822 -59.63474,-75.64519 1.39995,-7.75208 7.16973,-11.93283 13.09551,-16.16617 9.12965,-6.50907 12.01254,-17.09228 18.3353,-25.98237 5.4498,-7.75208 9.41965,-14.79036 16.80037,-20.71712 1.10995,-0.87001 0.39998,-14.84325 0.99996,-17.14518 1.87993,-7.48808 22.54214,-27.54339 -0.59998,-28.15199 -17.09235,-0.48001 -21.88017,-4.55105 -29.52688,-21.40493 -5.04981,-11.16561 -14.97443,-29.0516 -12.56752,-41.64593 2.29991,-12.03863 19.20827,-28.8398 13.1765,-41.32833 -9.46964,-19.68521 -24.28808,-23.31005 -12.01255,-47.7578 7.9097,-15.76927 16.11339,-27.59629 21.43119,-43.20685 6.29976,-18.4946 10.02662,-17.78019 -0.79997,-37.35959 -9.97962,-17.99189 -2.6199,-32.46474 -4.41983,-51.77955 -1.45995,-15.61056 -10.92759,-47.54609 0.79997,-60.77533 11.66755,-13.12354 22.43615,-22.06653 12.35553,-39.21171 -28.49392,-48.65743 -58.81477,-97.92333 -84.92778,-147.77133 z"
       id="bo" />
  </g>
</svg>
