<?xml version="1.0" encoding="UTF-8" standalone="no"?>
<!-- Created with Inkscape (http://www.inkscape.org/) -->

<svg
   xmlns:dc="http://purl.org/dc/elements/1.1/"
   xmlns:cc="http://creativecommons.org/ns#"
   xmlns:rdf="http://www.w3.org/1999/02/22-rdf-syntax-ns#"
   xmlns:svg="http://www.w3.org/2000/svg"
   xmlns="http://www.w3.org/2000/svg"
   xmlns:sodipodi="http://sodipodi.sourceforge.net/DTD/sodipodi-0.dtd"
   xmlns:inkscape="http://www.inkscape.org/namespaces/inkscape"
   width="822.90002mm"
   height="918.59998mm"
   viewBox="0 0 822.90006 918.59988"
   version="1.1"
   id="svg7070"
   inkscape:version="0.92.4 (5da689c313, 2019-01-14)"
   sodipodi:docname="botswana.svg">
  <defs
     id="defs7064" />
  <sodipodi:namedview
     id="base"
     pagecolor="#ffffff"
     bordercolor="#666666"
     borderopacity="1.0"
     inkscape:pageopacity="0.0"
     inkscape:pageshadow="2"
     inkscape:zoom="7.9195959"
     inkscape:cx="7.2178904"
     inkscape:cy="1.4298487"
     inkscape:document-units="mm"
     inkscape:current-layer="layer1"
     showgrid="false"
     inkscape:window-width="958"
     inkscape:window-height="1008"
     inkscape:window-x="-7"
     inkscape:window-y="0"
     inkscape:window-maximized="0" />
  <metadata
     id="metadata7067">
    <rdf:RDF>
      <cc:Work
         rdf:about="">
        <dc:format>image/svg+xml</dc:format>
        <dc:type
           rdf:resource="http://purl.org/dc/dcmitype/StillImage" />
        <dc:title />
      </cc:Work>
    </rdf:RDF>
  </metadata>
  <g
     inkscape:label="Layer 1"
     inkscape:groupmode="layer"
     id="layer1"
     transform="translate(-156.72023,870.06844)">
    <path
       inkscape:connector-curvature="0"
       style="fill:#ffffff;stroke-width:26.45843315"
       d="m 156.78323,-167.47245 c 0,-50.03206 1.03002,-100.03761 2.22005,-150.06966 0.60001,-24.89698 1.43003,-49.82046 0.80001,-74.71744 -0.2,-8.25489 -4.63009,-44.50232 2.78006,-51.35493 18.67939,-17.40938 89.43085,19.42015 87.44681,-19.89635 -2.57006,-50.27025 -0.40001,-101.01669 0.50001,-151.36624 0.80001,-49.71456 2.65005,-99.42911 2.94006,-149.14367 0.1,-13.78462 -1.09002,-27.48985 -1.00002,-41.24797 0.1,-16.11299 7.75016,-15.92779 22.62247,-16.06009 41.80486,-0.42 81.70468,-11.48275 122.66253,-19.89634 13.15027,-2.75197 42.54588,-15.18691 55.29914,-7.8579 17.27836,9.86887 22.25246,31.67019 30.63963,47.91538 15.74333,-7.5409 27.83458,-25.10868 41.93787,-35.55954 7.17015,-5.26493 13.12327,-13.17613 22.11946,-15.7161 9.7102,-2.75196 8.47017,5.58293 15.74232,6.56192 9.3702,1.29698 19.2624,-13.17603 25.66553,-18.22957 3.41007,-2.75196 36.38076,-8.0169 38.6828,-5.10593 1.64004,2.01097 2.91006,16.11289 4.00009,18.86455 6.09012,15.3456 14.8433,29.81812 24.6335,42.99415 9.7102,13.07033 14.81731,29.23612 25.03052,41.59196 10.50422,12.80573 5.95012,19.47315 10.47722,34.36896 9.47019,31.37919 33.70869,55.56178 60.77625,72.75946 28.7606,18.33546 57.09818,15.76899 48.71101,59.95382 27.11956,-5.52993 46.46096,2.93696 37.14777,33.38997 -3.86008,12.67344 -2.70006,22.11891 4.55009,33.07257 7.80016,11.87965 8.57018,32.70208 18.75939,42.01526 7.33015,6.66691 23.09848,5.10693 32.22666,6.34992 18.52139,2.59296 30.79864,8.41389 48.367,14.31381 19.73841,6.61392 4.5201,5.95293 9.2902,20.61074 3.25006,10.18636 19.89741,13.83752 27.80857,21.74841 -24.55451,-2.93696 -28.70859,8.3079 -40.45584,24.71179 -13.01826,18.09726 -44.68892,6.98491 -61.22626,22.33061 -15.61032,14.41961 -26.16754,48.41807 -47.41398,54.92679 -8.70018,2.64596 -8.44017,13.54642 -16.03433,16.58908 -14.04929,5.58293 -27.72857,9.70988 -36.14275,22.99201 -10.42521,16.32458 -17.17135,19.28795 -20.42642,40.98347 -3.94008,26.40505 -18.70639,31.98768 -33.60269,52.54552 -11.58924,16.05999 -30.85064,19.07625 -49.55703,22.11891 -13.49428,2.22197 -6.72014,7.8579 -9.31019,20.92823 -3.41007,17.14478 -11.74724,32.75508 -17.30336,49.238364 -8.25017,24.447184 -25.48052,33.389969 -50.48404,31.220397 -22.67547,-1.957975 -47.20298,18.652959 -68.79342,-2.063974 -7.59016,-7.275906 -12.30326,-10.741961 -23.44249,-9.921871 -14.4723,1.084986 -18.49438,-8.254894 -28.49558,-17.09188 -17.54237,-15.504396 -47.49399,-28.945026 -64.93035,-6.402916 -15.95433,20.610833 -17.67436,46.248602 -29.0786,68.526214 -5.79012,11.376953 -16.80134,15.134004 -26.61755,21.907217 -12.17125,8.3078921 -14.8693,22.5951075 -25.21552,32.252283 -7.70016,7.169907 -13.83728,3.624953 -22.48946,7.143907 -2.83006,2.433969 -3.94008,5.740926 -3.31007,9.815874 -3.36007,9.25988 -13.23027,8.942884 -21.35244,8.413891 -12.96527,-0.81999 -26.45955,2.380969 -38.94781,1.190984 -13.28227,-1.295983 -21.61644,-9.365879 -32.62367,3.359957 -17.35736,-42.015357 22.22546,-70.748686 7.59016,-113.478334 -7.04015,-20.452035 -14.1553,-43.867333 -24.89752,-62.678993 -9.39019,-16.43038 -27.49057,-24.65888 -38.33879,-39.84578 z"
       id="bw" />
  </g>
</svg>
