<?xml version="1.0" encoding="UTF-8" standalone="no"?>
<!-- Created with Inkscape (http://www.inkscape.org/) -->

<svg
   xmlns:dc="http://purl.org/dc/elements/1.1/"
   xmlns:cc="http://creativecommons.org/ns#"
   xmlns:rdf="http://www.w3.org/1999/02/22-rdf-syntax-ns#"
   xmlns:svg="http://www.w3.org/2000/svg"
   xmlns="http://www.w3.org/2000/svg"
   xmlns:sodipodi="http://sodipodi.sourceforge.net/DTD/sodipodi-0.dtd"
   xmlns:inkscape="http://www.inkscape.org/namespaces/inkscape"
   width="501.60001mm"
   height="296.39999mm"
   viewBox="0 0 501.59996 296.40003"
   version="1.1"
   id="svg7070"
   inkscape:version="0.92.4 (5da689c313, 2019-01-14)"
   sodipodi:docname="bulgaria.svg">
  <defs
     id="defs7064" />
  <sodipodi:namedview
     id="base"
     pagecolor="#ffffff"
     bordercolor="#666666"
     borderopacity="1.0"
     inkscape:pageopacity="0.0"
     inkscape:pageshadow="2"
     inkscape:zoom="7.9195959"
     inkscape:cx="2.9035612"
     inkscape:cy="-15.295616"
     inkscape:document-units="mm"
     inkscape:current-layer="layer1"
     showgrid="false"
     inkscape:window-width="958"
     inkscape:window-height="1008"
     inkscape:window-x="-7"
     inkscape:window-y="0"
     inkscape:window-maximized="0" />
  <metadata
     id="metadata7067">
    <rdf:RDF>
      <cc:Work
         rdf:about="">
        <dc:format>image/svg+xml</dc:format>
        <dc:type
           rdf:resource="http://purl.org/dc/dcmitype/StillImage" />
        <dc:title />
      </cc:Work>
    </rdf:RDF>
  </metadata>
  <g
     inkscape:label="Layer 1"
     inkscape:groupmode="layer"
     id="layer1"
     transform="translate(-157.86173,251.08369)">
    <path
       inkscape:connector-curvature="0"
       style="fill:#ffffff;stroke-width:26.46152878"
       d="m 157.88365,-207.66994 c -0.60005,-13.73406 11.24596,-32.5224 19.76668,-42.81632 2.75023,-3.28151 25.87819,7.88624 27.28031,10.90251 3.78032,8.20329 -12.33004,16.35387 -7.49063,24.68958 7.0906,12.17271 46.0679,0.56008 58.18693,3.09648 19.68667,4.10165 41.33051,18.02093 61.3082,10.7967 16.08836,-5.79491 36.49009,-1.29721 53.60954,0.0794 25.27015,2.01131 38.8173,13.3635 62.23528,-4.41969 18.04653,-13.78697 30.58859,-24.87471 53.79456,-28.89704 21.14179,-3.65157 43.81872,-15.42762 64.48447,-4.63073 13.12411,6.88008 32.09672,12.41095 46.86197,9.71153 5.05043,-0.93015 24.15805,19.60868 31.43467,22.54604 9.84083,3.91661 27.1753,-3.96963 28.92145,10.2145 1.85016,15.34831 4.02034,27.12406 -14.58024,25.66863 -18.54857,-1.42923 -27.06829,12.1463 -34.58393,27.49451 -6.43054,13.17837 0.50004,27.94439 -7.43063,42.39296 -2.46021,4.41869 -5.32045,8.653354 -7.96067,12.966631 -4.23036,6.986097 -12.86009,2.249353 -17.25247,10.558457 22.88794,5.212818 27.22731,21.699306 41.96656,36.994606 18.09854,18.867761 -21.77684,18.629624 -33.63185,15.295301 -12.83309,-3.651573 -14.34122,-17.676974 -30.58859,-13.019544 -12.06603,3.466545 -20.98278,10.981924 -34.02789,10.796695 -17.59649,-0.260041 -4.55038,6.323992 -10.13486,11.273069 -5.32045,4.709739 -23.70801,3.704582 -15.98135,15.13647574 -45.22184,-9.94956174 4.58039,23.36636726 -23.89403,37.60320126 -14.92426,7.462171 -37.99722,0.790124 -55.4087,7.753217 -12.06602,4.84276 -21.61883,-13.866376 -32.91679,-14.898338 -15.98235,-1.482233 -16.5384,6.323992 -28.89545,-8.9184 -8.36071,-10.293915 -17.93952,-7.304146 -29.82052,-5.398847 -16.37939,2.672419 -28.41941,13.178268 -45.82989,13.681147 -20.37473,0.580091 -38.36825,5.821914 -58.66297,4.048635 6.75057,-22.890092 0.20001,-39.6408208 -10.90193,-59.408323 -3.65031,-6.457014 -11.98701,-7.886238 -17.88752,-11.431794 -10.29287,-6.11296 -17.06744,-15.956805 -25.21713,-24.39843 24.8201,-17.703378 -3.89033,-26.224315 7.0706,-50.543329 4.07034,-9.05042 12.67407,-2.67242 18.9456,-6.61604 7.59065,-4.86877 17.41048,-21.22283 21.06279,-29.39982 -22.49191,-7.17112 -47.92006,-36.49172 -53.82156,-58.90544 z"
       id="bg" />
  </g>
</svg>
