<?xml version="1.0" encoding="UTF-8" standalone="no"?>
<!-- Created with Inkscape (http://www.inkscape.org/) -->

<svg
   xmlns:dc="http://purl.org/dc/elements/1.1/"
   xmlns:cc="http://creativecommons.org/ns#"
   xmlns:rdf="http://www.w3.org/1999/02/22-rdf-syntax-ns#"
   xmlns:svg="http://www.w3.org/2000/svg"
   xmlns="http://www.w3.org/2000/svg"
   xmlns:sodipodi="http://sodipodi.sourceforge.net/DTD/sodipodi-0.dtd"
   xmlns:inkscape="http://www.inkscape.org/namespaces/inkscape"
   width="701.79999mm"
   height="574.5mm"
   viewBox="0 0 701.80002 574.49984"
   version="1.1"
   id="svg7070"
   inkscape:version="0.92.4 (5da689c313, 2019-01-14)"
   sodipodi:docname="burkina_faso.svg">
  <defs
     id="defs7064" />
  <sodipodi:namedview
     id="base"
     pagecolor="#ffffff"
     bordercolor="#666666"
     borderopacity="1.0"
     inkscape:pageopacity="0.0"
     inkscape:pageshadow="2"
     inkscape:zoom="7.9195959"
     inkscape:cx="-4.3026856"
     inkscape:cy="-14.7967"
     inkscape:document-units="mm"
     inkscape:current-layer="layer1"
     showgrid="false"
     inkscape:window-width="958"
     inkscape:window-height="1008"
     inkscape:window-x="-7"
     inkscape:window-y="0"
     inkscape:window-maximized="0" />
  <metadata
     id="metadata7067">
    <rdf:RDF>
      <cc:Work
         rdf:about="">
        <dc:format>image/svg+xml</dc:format>
        <dc:type
           rdf:resource="http://purl.org/dc/dcmitype/StillImage" />
        <dc:title />
      </cc:Work>
    </rdf:RDF>
  </metadata>
  <g
     inkscape:label="Layer 1"
     inkscape:groupmode="layer"
     id="layer1"
     transform="translate(-158.57906,536.16964)">
    <path
       style="fill:#ffffff;stroke-width:26.45916176"
       inkscape:connector-curvature="0"
       id="bf"
       d="m 158.62006,-66.796673 c 6.23985,-16.140886 11.32374,-33.260957 7.58982,-50.513237 -4.0999,-18.89292 5.44988,-8.38772 12.64671,-22.57094 4.44989,-8.73175 16.85361,-34.71628 6.05986,-42.07231 -8.8398,-6.03252 2.90993,-21.03621 -13.65269,-25.21697 9.70978,0.53005 14.49867,-7.11761 21.8805,-11.61619 12.06471,-7.35564 28.28334,-1.32312 40.74505,-8.94377 15.23964,-9.3138 37.38513,-44.87726 22.56847,-61.28287 -5.97986,-6.61556 5.41987,-13.04502 11.29774,-11.6426 12.48771,2.91025 11.72072,-10.05506 9.81977,-20.08362 -1.23997,-6.56256 -14.23467,-16.2997 -2.93993,-20.24234 8.6798,-3.04326 20.63652,-27.59847 26.06039,-35.11321 -0.69998,14.79147 34.15721,32.44068 46.22192,33.63138 -2.82993,-14.0241 6.26986,-12.17184 17.64759,-11.77491 -1.52996,-12.807 4.86989,-30.24449 -1.74996,-42.04591 9.46978,1.79916 19.28856,2.48722 27.78136,7.56765 12.7257,-19.13094 11.19174,-61.09744 44.26297,-64.51094 16.32462,-1.66714 37.83512,23.65583 41.06304,-5.23945 1.68996,-15.50593 17.51459,-12.96571 28.09835,-18.49598 13.75768,-7.14462 23.52045,-19.50148 38.6281,-24.3438 21.88049,-7.0116 48.62886,-50.53973 72.65231,-28.86847 4.54989,4.10135 15.71663,-5.45047 23.07146,-3.22828 10.05376,3.04326 20.13453,6.69457 29.68531,11.11345 14.92265,6.9066 -1.95996,40.61699 10.08076,56.20233 9.59978,12.40996 2.93993,30.85305 13.28169,41.25204 5.84987,5.90051 10.52976,19.58088 14.12867,27.30735 3.91991,8.46772 20.58352,8.94376 28.25635,12.46297 7.11983,3.25428 7.74982,6.35054 11.35073,12.35706 4.3899,7.30362 14.15467,6.66757 20.21353,11.77501 -8.3298,4.04835 -15.82163,3.86333 -23.46845,-1.69315 -12.8577,29.0537 26.37838,62.73809 49.97883,73.71923 18.62657,8.65275 28.17735,-13.78598 41.38004,-9.97585 10.84775,3.14827 13.73168,20.85099 17.91158,29.55654 -28.33634,11.35157 -4.3099,27.09562 6.53985,47.36446 11.56173,21.64476 -16.9336,53.05346 -38.12611,54.42948 -5.23988,0.34003 -25.6114,6.24453 -29.42132,3.20127 -10.45075,-8.30871 -12.7527,-4.07535 -21.4565,3.75732 -17.1446,15.42653 -26.80237,36.25102 -48.86786,38.84414 -22.17148,2.61922 -37.88712,-7.19762 -59.37062,-10.66362 -9.62977,-1.53513 -20.39952,-5.34546 -30.18829,-3.5193 -7.66982,1.45513 -32.80824,22.27981 -37.25314,19.28976 -23.91744,-16.06158 -70.43036,-7.59465 -98.4757,-5.58348 -32.06626,2.3282 -64.4245,1.1381 -96.38476,-1.69315 3.88991,12.70109 -9.22978,22.20041 -9.22978,34.451662 0,15.982172 9.89977,31.646917 12.17071,47.602587 2.05995,14.130014 5.36988,29.900568 3.03993,44.1892948 -2.13995,13.0450202 8.8398,28.9478862 -0.19999,35.9863902 -14.71066,-10.954741 -28.68034,-37.33590607 -38.6291,-52.921244 -8.40981,12.5158744 -42.33202,-2.487214 -55.45471,2.514216 -14.34067,5.4774699 -44.36997,9.869847 -44.58196,30.270899 -9.04979,-1.561134 -34.97619,-9.1817886 -40.34807,-16.2467952 -3.9699,-5.1864454 -18.01758,-15.0825948 -17.67358,-20.4011518 0.49998,-8.361718 -11.19174,-29.212509 -18.41457,-33.128645 -12.24972,-6.720577 -25.8224,2.990257 -30.2673,-15.214906 z" />
  </g>
</svg>
