<?xml version="1.0" encoding="UTF-8" standalone="no"?>
<!-- Created with Inkscape (http://www.inkscape.org/) -->

<svg
   xmlns:dc="http://purl.org/dc/elements/1.1/"
   xmlns:cc="http://creativecommons.org/ns#"
   xmlns:rdf="http://www.w3.org/1999/02/22-rdf-syntax-ns#"
   xmlns:svg="http://www.w3.org/2000/svg"
   xmlns="http://www.w3.org/2000/svg"
   xmlns:sodipodi="http://sodipodi.sourceforge.net/DTD/sodipodi-0.dtd"
   xmlns:inkscape="http://www.inkscape.org/namespaces/inkscape"
   width="162.3mm"
   height="217.3mm"
   viewBox="0 0 162.30001 217.29997"
   version="1.1"
   id="svg7070"
   inkscape:version="0.92.4 (5da689c313, 2019-01-14)"
   sodipodi:docname="burundi.svg">
  <defs
     id="defs7064" />
  <sodipodi:namedview
     id="base"
     pagecolor="#ffffff"
     bordercolor="#666666"
     borderopacity="1.0"
     inkscape:pageopacity="0.0"
     inkscape:pageshadow="2"
     inkscape:zoom="7.9195959"
     inkscape:cx="3.8052914"
     inkscape:cy="-5.9276162"
     inkscape:document-units="mm"
     inkscape:current-layer="layer1"
     showgrid="false"
     inkscape:window-width="958"
     inkscape:window-height="1008"
     inkscape:window-x="-7"
     inkscape:window-y="0"
     inkscape:window-maximized="0" />
  <metadata
     id="metadata7067">
    <rdf:RDF>
      <cc:Work
         rdf:about="">
        <dc:format>image/svg+xml</dc:format>
        <dc:type
           rdf:resource="http://purl.org/dc/dcmitype/StillImage" />
        <dc:title />
      </cc:Work>
    </rdf:RDF>
  </metadata>
  <g
     inkscape:label="Layer 1"
     inkscape:groupmode="layer"
     id="layer1"
     transform="translate(-157.62314,172.05145)">
    <path
       inkscape:connector-curvature="0"
       style="fill:#ffffff;stroke-width:26.46055412"
       d="m 157.62614,-128.28951 c 3.41055,-38.603 33.34234,10.34528 41.86371,9.20807 7.09113,-0.93001 26.8863,-6.45605 32.70824,-10.58338 12.67503,-9.04907 6.99112,-29.44843 8.68139,-42.38663 2.5104,2.22202 14.87138,15.08142 18.07389,9.39307 7.12114,-12.8059 27.36239,-6.29705 37.39199,-0.0529 -5.93095,8.57307 -20.87934,26.72311 -5.0308,25.1621 -0.80013,1.40201 -15.5595,34.21086 -1.32021,29.39542 11.29881,-3.83603 17.72984,6.72006 29.92879,3.30703 -11.77589,12.356095 4.07065,14.684413 -12.70203,32.543951 l -14.42232,15.451819 c -2.78044,2.937023 -15.93055,1.402011 -18.28592,6.40305 -2.70044,5.530043 7.94127,26.035201 9.60153,32.30585 -6.61106,-0.480004 -16.14258,3.836029 -18.86802,8.3080641 C 254.87272,7.1789357 248.75974,23.23926 232.32711,35.172052 223.96577,41.231099 200.88907,51.602779 192.57974,39.987089 185.90867,30.621017 187.76897,11.094366 181.59798,-0.41512305 171.38334,-19.491671 173.07662,-49.971906 175.27697,-71.006469 c 1.16018,-10.795084 4.58073,-19.579352 -1.30021,-29.660031 -5.45087,-9.26007 -13.46916,-16.90703 -16.35362,-27.62271 z"
       id="bi" />
  </g>
</svg>
