<?xml version="1.0" encoding="UTF-8" standalone="no"?>
<!-- Created with Inkscape (http://www.inkscape.org/) -->

<svg
   xmlns:dc="http://purl.org/dc/elements/1.1/"
   xmlns:cc="http://creativecommons.org/ns#"
   xmlns:rdf="http://www.w3.org/1999/02/22-rdf-syntax-ns#"
   xmlns:svg="http://www.w3.org/2000/svg"
   xmlns="http://www.w3.org/2000/svg"
   xmlns:sodipodi="http://sodipodi.sourceforge.net/DTD/sodipodi-0.dtd"
   xmlns:inkscape="http://www.inkscape.org/namespaces/inkscape"
   width="684.70001mm"
   height="1155.6mm"
   viewBox="0 0 684.70006 1155.5996"
   version="1.1"
   id="svg7070"
   inkscape:version="0.92.4 (5da689c313, 2019-01-14)"
   sodipodi:docname="cameroon.svg">
  <defs
     id="defs7064" />
  <sodipodi:namedview
     id="base"
     pagecolor="#ffffff"
     bordercolor="#666666"
     borderopacity="1.0"
     inkscape:pageopacity="0.0"
     inkscape:pageshadow="2"
     inkscape:zoom="7.9195959"
     inkscape:cx="-0.67180409"
     inkscape:cy="18.784496"
     inkscape:document-units="mm"
     inkscape:current-layer="layer1"
     showgrid="false"
     inkscape:window-width="958"
     inkscape:window-height="1008"
     inkscape:window-x="-7"
     inkscape:window-y="0"
     inkscape:window-maximized="0" />
  <metadata
     id="metadata7067">
    <rdf:RDF>
      <cc:Work
         rdf:about="">
        <dc:format>image/svg+xml</dc:format>
        <dc:type
           rdf:resource="http://purl.org/dc/dcmitype/StillImage" />
        <dc:title />
      </cc:Work>
    </rdf:RDF>
  </metadata>
  <g
     inkscape:label="Layer 1"
     inkscape:groupmode="layer"
     id="layer1"
     transform="translate(-157.61838,1108.3846)">
    <path
       style="fill:#ffffff;stroke-width:26.45789337"
       inkscape:connector-curvature="0"
       id="cm"
       d="m 163.41812,-272.08757 c 11.0065,-9.39312 15.4513,-23.57469 18.30817,-37.20085 2.2199,-10.68933 12.96441,-36.27484 10.08055,-46.19686 -4.91978,-16.9071 -4.28981,-16.8012 9.25958,-29.05155 14.97532,-13.54686 25.05486,-31.51228 39.89719,-45.27074 8.48961,-7.9641 20.55807,-14.97569 24.97587,-25.98242 3.83982,-9.44611 19.63111,-29.28975 30.18763,-32.30609 11.58848,-3.25404 17.54121,11.58894 31.74856,8.4671 11.27049,-2.48703 11.90546,-18.15061 14.47235,-26.98782 2.1199,8.99611 26.85378,32.09439 34.84342,35.85153 11.40348,5.31807 3.69983,48.52509 27.35676,34.92542 13.2814,-7.59409 24.81688,-22.78097 23.28295,-36.93634 -0.99996,-9.15511 13.86337,-19.63234 19.97509,-24.5007 10.13254,-8.1231 -1.23994,-16.11329 3.35985,-27.43763 9.81956,-24.13029 26.5098,-46.24976 34.26145,-71.67646 3.43984,-11.27144 0.053,-23.31009 3.27985,-34.05232 2.50989,-8.3081 13.04341,-10.45112 15.05432,-18.97082 3.16986,-13.65267 33.65348,-9.44612 36.56334,-35.34873 0.79997,-7.48809 13.75838,-43.81553 1.26995,-46.24976 14.34035,-7.27609 34.18345,-16.5896 36.59034,-32.9675 1.55993,-10.68932 0.39998,-19.79103 0.39998,-30.48036 0,-11.13914 11.66747,-10.47763 16.77324,-18.07122 12.30245,-18.36232 9.33958,-44.66224 19.57812,-64.79728 6.6397,-13.04416 12.77942,-40.8522 27.72774,-46.99057 15.87428,-6.53508 53.33759,-4.73606 57.78238,-30.93017 1.29995,-7.54109 -7.53965,-12.80596 -3.61983,-20.66425 5.44975,-10.92733 2.42989,-23.60109 5.47975,-35.05764 3.06986,-11.6683 -21.19204,-23.1514 -29.42067,-22.4106 -20.18708,1.7731 -20.29208,-57.0183 -22.80597,-74.1371 10.13355,0 26.08682,-3.942 33.78547,5.0011 11.1655,13.0177 5.79974,25.5855 22.59498,35.1371 21.72102,12.3827 7.82965,44.0537 25.29286,59.9554 22.91196,20.84931 3.72983,83.92677 4.54979,110.57059 1.13995,38.81487 22.59398,82.6304 57.4114,101.97173 -25.00187,7.27609 -51.08869,0 -76.40754,4.63006 -19.04914,3.49204 -45.16295,-16.6425 -59.34331,5.05306 -16.69525,25.53261 -15.5833,32.35899 5.68974,56.70088 21.29804,24.3949 46.03592,45.58825 69.47685,67.84002 7.11968,6.72008 16.56225,14.04957 21.11305,22.93968 8.98959,17.35681 11.87846,57.62689 26.66879,69.71854 12.85742,10.53053 -9.75956,31.93558 -17.01223,40.16418 -12.24944,13.75857 -18.75815,38.33867 -24.15591,56.01298 -1.81991,6.08507 -10.10654,6.82608 -12.51343,12.75305 -4.4198,11.00684 -7.29967,22.93968 -12.38244,33.68191 -5.52975,11.82704 -41.69611,18.04482 -25.21386,35.40163 11.42949,11.93294 12.69943,22.83387 10.63652,43.20702 -0.99995,9.26011 -1.45993,16.7483 -6.6097,24.65949 0.59997,-0.93001 9.59957,15.50479 9.75956,16.5366 2.58988,17.14521 3.30985,43.41873 13.59938,58.0768 6.6097,9.39312 17.46121,13.28226 21.53603,24.7124 3.46984,9.55112 3.96982,21.53726 13.1224,27.96674 -29.04968,0.77001 34.39445,74.8251 40.45317,81.59848 6.07973,6.72009 13.73138,13.388066 23.36194,13.388066 4.06982,0 10.00055,11.721241 11.98446,14.525875 4.59979,6.456078 2.82987,13.388062 3.19986,20.769951 0.79996,18.706325 7.48966,36.539441 11.64047,54.6106586 C 822.76727,-10.755319 838.05857,36.684853 830.67791,47.21538 818.13647,34.912132 804.3261,23.852398 787.36687,18.428433 780.0372,16.100405 757.73521,8.4006118 750.82952,10.411336 c -9.20958,2.593031 -23.44094,3.413041 -27.75274,-7.2230871 0.29999,0.5600067 -23.01796,-8.5721034 -25.50485,-9.5511152 -7.93964,-3.0960374 -31.64256,3.2020386 -41.98809,2.5930312 -18.81015,-1.0850131 -37.7013,3.62504377 -56.48545,0.9800119 -3.16985,-0.4800058 -12.69942,-1.9580237 -16.37726,-3.7840457 -7.05968,-3.4660421 3.17986,-10.5835281 -9.97954,-9.2601121 -17.32922,1.693021 -32.51553,4.498055 -50.16273,0.710009 -20.71506,-4.445054 -37.72729,-0.930011 -58.54935,-1.61402 -13.59839,-0.420005 -37.93928,-8.176098 -50.8237,-1.032012 -3.69983,2.011024 -2.2999,12.8588552 -6.21972,12.8588552 -12.88441,0 -25.74283,0 -38.60125,0 -17.93819,0 -35.74338,0.6600079 -53.62857,1.0850131 -38.44226,0.8200098 -46.66989,-20.2673443 -38.57426,-55.9070743 4.5998,-20.320245 11.58848,-42.33391 0.59998,-62.01915 -5.15977,-9.26011 -22.93796,-24.9505 -4.20981,-31.06247 -10.55652,6.05907 -31.0346,-3.91605 -18.75815,-16.1662 6.4597,-6.45608 20.84805,-17.62141 1.95991,-18.28292 3.67983,-4.07505 5.60974,-8.83711 5.81974,-14.31417 -5.92974,14.41997 -12.17045,2.93703 -21.82702,3.36004 3.54984,4.76206 6.05973,8.1761 0,5.05406 0.39999,4.60406 -0.19999,9.10211 -1.63992,13.44096 -7.72965,-0.26 -11.48248,-6.24407 -9.22958,-13.44096 -6.6697,12.14455 -25.74284,-3.09604 -28.20273,-12.03875 -3.88982,-14.10237 -4.70978,-38.28566 -14.76333,-49.29239 -11.56148,14.20827 -9.30958,-2.54003 -16.80024,-2.54003 1.34994,5.53007 2.1999,11.11263 2.56989,16.8012 -23.78493,3.06904 -10.79452,-19.31483 -8.32963,-31.85618 z" />
  </g>
</svg>
