<?xml version="1.0" encoding="UTF-8" standalone="no"?>
<!-- Created with Inkscape (http://www.inkscape.org/) -->

<svg
   xmlns:dc="http://purl.org/dc/elements/1.1/"
   xmlns:cc="http://creativecommons.org/ns#"
   xmlns:rdf="http://www.w3.org/1999/02/22-rdf-syntax-ns#"
   xmlns:svg="http://www.w3.org/2000/svg"
   xmlns="http://www.w3.org/2000/svg"
   xmlns:sodipodi="http://sodipodi.sourceforge.net/DTD/sodipodi-0.dtd"
   xmlns:inkscape="http://www.inkscape.org/namespaces/inkscape"
   width="1162.5mm"
   height="885.79999mm"
   viewBox="0 0 1162.5001 885.79983"
   version="1.1"
   id="svg7070"
   inkscape:version="0.92.4 (5da689c313, 2019-01-14)"
   sodipodi:docname="central_african_republic.svg">
  <defs
     id="defs7064" />
  <sodipodi:namedview
     id="base"
     pagecolor="#ffffff"
     bordercolor="#666666"
     borderopacity="1.0"
     inkscape:pageopacity="0.0"
     inkscape:pageshadow="2"
     inkscape:zoom="7.9195959"
     inkscape:cx="4.5711484"
     inkscape:cy="13.487899"
     inkscape:document-units="mm"
     inkscape:current-layer="layer1"
     showgrid="false"
     inkscape:window-width="958"
     inkscape:window-height="1008"
     inkscape:window-x="-7"
     inkscape:window-y="0"
     inkscape:window-maximized="0" />
  <metadata
     id="metadata7067">
    <rdf:RDF>
      <cc:Work
         rdf:about="">
        <dc:format>image/svg+xml</dc:format>
        <dc:type
           rdf:resource="http://purl.org/dc/dcmitype/StillImage" />
        <dc:title />
      </cc:Work>
    </rdf:RDF>
  </metadata>
  <g
     inkscape:label="Layer 1"
     inkscape:groupmode="layer"
     id="layer1"
     transform="translate(-156.23118,839.98602)">
    <path
       style="fill:#ffffff;stroke-width:26.45808792"
       inkscape:connector-curvature="0"
       id="cf"
       d="m 156.25318,-340.69813 c 5.74015,-9.31259 14.31436,-15.50392 22.59557,-22.27692 12.78032,-10.58284 14.02335,-22.67381 22.27856,-35.95533 14.05036,-22.54152 19.23649,-48.89287 35.03189,-70.32313 19.55349,-26.61594 27.12068,-9.1546 52.30932,-16.48288 13.12433,-3.83583 23.46959,-13.28152 36.16991,-17.35584 12.56832,-3.96883 9.18023,-17.72633 22.48957,-22.48862 3.65009,14.10168 14.71137,22.17113 22.62257,33.62703 4.53011,-11.4824 28.73473,-18.2819 38.39197,-26.40425 20.10951,-16.74736 46.67418,-18.49359 71.57181,-18.54649 21.77555,-0.0529 41.64705,-0.81996 57.57445,-17.14425 8.79022,-9.1016 38.10096,-39.42117 36.48792,-53.02018 -1.01003,-8.41363 -23.6816,-8.12265 -19.47449,-18.09671 9.50024,-22.8855 44.68913,-15.60972 63.3696,-16.27119 42.51907,-1.56093 85.93917,-14.47207 112.76785,-48.73407 13.99735,-17.91152 23.07258,-36.7226 41.48804,-50.4274 9.34024,-6.93169 31.4598,-29.36751 32.80883,-41.32609 1.96005,-17.64693 -0.60001,-23.81146 18.04546,-31.27244 19.02348,-7.61966 33.99985,-26.19255 55.6694,-26.77463 24.13061,-0.57997 29.68675,16.35049 43.28709,31.45763 17.78045,19.73704 33.84086,37.09288 46.09117,61.06313 11.27228,22.03884 12.1453,41.93457 9.82025,66.09002 -1.69005,18.0967 -20.45352,26.72173 -16.96043,44.79204 3.10008,-1.08495 6.14015,-2.2219 9.23023,-3.35985 2.49006,9.36559 -2.67007,17.77922 -5.85015,26.03386 18.65447,3.41285 40.61503,-1.40194 57.89243,8.12264 18.6535,10.23886 -11.8273,36.90769 23.1516,42.83413 11.7483,2.01091 27.8877,0.70997 37.916,8.25464 11.6683,8.83662 16.6424,20.05453 30.2157,28.01818 18.9715,11.05911 0.7001,18.75808 1.1901,29.6056 0.5,12.35546 20.2675,27.5419 29.8197,33.23015 10.2923,6.08474 21.6436,9.92157 32.1738,15.66272 15.7964,8.62462 12.7264,15.66261 22.0666,28.41496 5.9801,8.17564 28.4437,12.85823 22.0935,25.53118 -8.4102,16.90616 -4.1801,21.03348 9.3903,31.61632 10.3982,8.06965 -5.0501,20.92769 14.5784,24.84331 12.1453,2.4339 20.7175,10.29186 32.1478,16.1124 18.3364,9.39259 21.2995,20.00163 22.2785,39.95036 0.9,18.33479 20.2145,28.30916 19.7385,45.10953 -13.6263,-18.09671 -32.5978,-24.84332 -47.3622,-7.80466 -5.2401,6.00573 -16.9864,3.25385 -23.7596,2.59288 -3.2801,-1.13795 -6.4801,-0.86996 -9.5302,0.65997 -7.5902,3.83584 -7.7002,-4.92078 -13.5204,-7.16968 -11.6682,-4.5508 -23.4955,-10.63574 -36.2759,-8.88961 -19.2355,2.64588 -24.3686,-12.09088 -40.905,-13.9429 -10.1343,-1.13795 -19.7385,9.1546 -17.7804,19.12847 3.2,16.37708 -14.5524,15.76851 -25.9827,19.31376 -11.3773,3.57184 -23.8136,7.69866 -34.4239,0 -5.6901,-4.17982 -21.2465,-20.39841 -24.6066,-9.2596 -4.6301,15.29223 -34.7139,21.13928 -47.5472,25.2137 -13.99635,4.39181 -37.46594,27.3832 -51.06528,19.07566 -19.5795,-12.03807 -26.45867,-27.75358 -40.58803,-5.26477 -4.82012,7.59367 -12.62132,13.44022 -17.09243,20.92759 -6.14016,10.18606 -3.20008,24.55223 -14.15536,32.0396 -15.26738,10.45064 -53.23634,-14.41917 -72.20682,-14.31327 -22.54357,0.20999 -37.78395,1.69292 -58.55448,-10.47705 -12.70032,-7.48767 -22.86058,-0.70997 -35.8519,-3.04286 -16.27141,-2.93687 -11.48329,-20.00163 -20.39952,-28.94414 -15.50539,-15.50392 -40.11201,-35.24096 -61.17354,-42.11986 -23.8126,-7.75166 -49.24025,17.56753 -60.08852,36.21982 -6.16016,10.63583 -15.00138,21.24517 -19.26149,32.75407 -3.31008,8.99561 -16.1664,3.78383 -19.57949,8.88961 -5.42014,8.22864 7.04018,28.73244 7.25018,38.28353 0.50002,17.01195 -3.9201,33.785821 -2.12005,50.797778 -11.64229,-19.287358 -42.12306,-4.179817 -61.96756,-7.143688 -8.92023,-1.348941 -23.15159,-6.931697 -31.4068,-10.74163 -15.8224,-7.27568 -16.80142,4.444805 -32.91483,7.645666 -23.7606,4.709794 -54.79638,-0.369984 -60.06151,29.04993 -2.80008,15.927305 -1.17003,33.177351 -4.08011,48.575378 -3.8901,20.6102 -17.83345,40.506031 -24.84463,60.348864 C 311.5461,22.716897 307.31599,2.1596951 305.64695,-21.360777 303.97691,-44.987045 279.02928,-43.7436 266.64697,-57.4748 c -6.06016,-6.772704 -69.50776,-80.82667 -40.48302,-81.54104 -15.00138,-10.58284 -11.93231,-33.89162 -27.30569,-45.87679 -19.97651,-15.60972 -17.06543,-37.99244 -17.93846,-61.38062 -0.3,-8.78362 -11.64229,-14.78956 -11.35128,-20.6101 0.50001,-8.67762 5.48014,-17.51474 6.06015,-26.66884 0.60001,-9.97456 0.60001,-20.71599 -2.12005,-30.42577 -2.70007,-9.0746 -13.83735,-4.81479 -17.27744,-16.72097 z" />
  </g>
</svg>
