<?xml version="1.0" encoding="UTF-8" standalone="no"?>
<!-- Created with Inkscape (http://www.inkscape.org/) -->

<svg
   xmlns:dc="http://purl.org/dc/elements/1.1/"
   xmlns:cc="http://creativecommons.org/ns#"
   xmlns:rdf="http://www.w3.org/1999/02/22-rdf-syntax-ns#"
   xmlns:svg="http://www.w3.org/2000/svg"
   xmlns="http://www.w3.org/2000/svg"
   xmlns:sodipodi="http://sodipodi.sourceforge.net/DTD/sodipodi-0.dtd"
   xmlns:inkscape="http://www.inkscape.org/namespaces/inkscape"
   width="928.70001mm"
   height="1607.1mm"
   viewBox="0 0 928.70007 1607.0995"
   version="1.1"
   id="svg7070"
   inkscape:version="0.92.4 (5da689c313, 2019-01-14)"
   sodipodi:docname="chad.svg">
  <defs
     id="defs7064" />
  <sodipodi:namedview
     id="base"
     pagecolor="#ffffff"
     bordercolor="#666666"
     borderopacity="1.0"
     inkscape:pageopacity="0.0"
     inkscape:pageshadow="2"
     inkscape:zoom="7.9195959"
     inkscape:cx="5.5136874"
     inkscape:cy="29.583657"
     inkscape:document-units="mm"
     inkscape:current-layer="layer1"
     showgrid="false"
     inkscape:window-width="958"
     inkscape:window-height="1008"
     inkscape:window-x="-7"
     inkscape:window-y="0"
     inkscape:window-maximized="0" />
  <metadata
     id="metadata7067">
    <rdf:RDF>
      <cc:Work
         rdf:about="">
        <dc:format>image/svg+xml</dc:format>
        <dc:type
           rdf:resource="http://purl.org/dc/dcmitype/StillImage" />
        <dc:title />
      </cc:Work>
    </rdf:RDF>
  </metadata>
  <g
     inkscape:label="Layer 1"
     inkscape:groupmode="layer"
     id="layer1"
     transform="translate(-155.9818,1557.0273)">
    <path
       style="fill:#ffffff;stroke-width:26.45852661"
       inkscape:connector-curvature="0"
       id="td"
       d="m 155.9818,-645.69191 c 3.12009,-7.85788 10.92733,-6.08491 14.94945,-12.46171 3.55011,-5.66191 4.60014,-13.57289 10.26631,-17.77973 7.14022,-5.29192 8.33025,-25.39961 11.40334,-33.38988 16.4315,-43.17934 53.34161,-82.62803 82.7385,-117.36729 26.93481,-31.82891 57.52173,-58.7631 59.5858,-101.75723 2.59007,-53.86837 3.6201,-107.86895 7.44022,-161.68445 2.91009,-41.5918 0.80002,-96.3068 21.48465,-133.1362 11.87936,-21.2193 4.05012,-31.141 -10.31931,-47.7301 -4.08013,-4.7099 -9.26028,-8.3868 -13.38841,-13.0438 -7.17021,-8.0698 2.22007,-15.2661 -1.03003,-23.6004 -7.43022,-19.182 -21.53765,-34.0249 -30.37491,-52.3073 -7.54023,-15.4515 -4.29013,-34.2102 -5.95018,-50.7728 -2.78009,-27.3839 -10.95433,-53.8154 -15.29346,-80.9877 -0.50002,-3.1489 -4.66015,-20.1081 -0.30001,-22.2775 21.03563,-10.4774 41.70025,-21.6691 62.41788,-32.702 14.15542,-7.5139 20.90263,-14.2609 35.77208,-7.6459 14.92345,6.6409 28.84087,15.6367 42.62628,24.3413 79.80041,50.2965 166.08401,91.7031 248.6095,137.4224 93.47982,51.8047 186.19261,104.9322 278.16538,159.4354 37.70414,22.357 81.78442,42.3328 115.99652,69.7961 10.4513,8.3868 7.1202,26.5638 7.3002,38.0465 0.5,28.1776 0.4,56.3554 0.8,84.5066 1.3501,88.60761 5.8002,176.84475 5.8002,265.58468 -22.9937,-7.14389 -56.4647,-6.79989 -79.1134,2.14297 -31.82994,12.62041 2.2201,34.81866 -14.94944,54.90015 -7.17021,8.38687 -11.90635,17.96503 -18.91857,26.1934 -8.76026,10.29214 4.08013,17.43573 -13.62641,22.59505 -20.66462,6.00591 -10.58332,37.41152 2.20007,49.66154 -29.07788,23.30944 -43.1813,28.36286 -28.60186,67.25606 9.39028,25.02921 -17.70154,32.80779 -27.49083,51.30191 -6.7202,12.6733 -6.7202,22.85964 3.4901,33.07239 8.71027,8.67786 19.39459,-3.80994 28.76087,-3.70395 9.61029,0.11 18.20455,5.52992 14.05042,14.73708 -7.49022,16.66854 10.18631,32.5433 4.79015,51.6724 3.02009,-1.53498 6.06018,-2.93695 9.23028,-4.20693 6.7502,10.84773 -0.90003,23.12424 -0.80003,34.47466 0.10001,12.9644 6.4002,18.36182 14.57844,27.38398 8.18025,9.04886 18.01855,7.14389 21.74961,20.63718 3.0901,11.13873 -5.11011,23.83854 -7.73019,34.31587 -9.58028,-3.96893 -28.12584,-11.58852 -38.36615,-6.4559 -6.35019,3.17495 -15.10746,6.05891 -19.28858,12.25001 -5.13016,7.61989 -11.98536,3.30695 -17.78054,9.68386 -9.23028,10.26564 -25.63877,7.16988 -28.81387,23.20354 -1.30004,6.5879 3.81012,12.14421 1.80006,18.9968 -3.65011,12.46171 -15.98049,11.13883 -21.06064,20.92818 -7.75023,14.94877 -15.55847,15.05457 -26.82981,26.2992 -12.62138,12.594 -14.89645,30.16203 -28.07384,42.04165 -9.15028,8.22887 -27.30583,13.65229 -32.70299,24.60592 -9.66029,19.5788 -28.39086,6.87889 -45.58937,14.92227 -16.2725,7.593881 -45.69438,8.99586 -63.39592,7.275886 -6.06018,-0.559991 -43.2343,8.175874 -29.9779,18.15012 5.79017,4.338933 21.14064,7.275888 17.67453,17.621028 -3.97012,11.826618 -17.83353,28.57456 -27.01481,37.094028 -7.20022,6.667898 -13.54741,23.3623402 -22.67569,25.58480591 C 592.95397,3.7181718 572.02534,0.4122228 554.19181,2.0251979 530.6691,4.0891661 513.15357,9.9360759 493.01796,22.397784 481.93163,29.223679 461.214,35.256285 456.02885,48.432382 448.03861,37.002559 437.03027,28.959383 433.37916,14.8308 c -7.33022,2.64596 -10.82132,12.302911 -14.34043,18.494115 -2.51007,4.338933 -16.88151,5.529915 -21.72365,7.645882 -24.13073,10.583237 -32.43798,8.730866 -58.10376,9.10186 13.52041,-16.959538 -1.64005,-23.203542 -6.51019,-39.131297 -6.6402,-21.642566 -12.35637,-45.930891 -26.64381,-64.081011 -12.17136,-15.451462 -28.94687,-26.246296 -44.08132,-38.496307 -14.97546,-12.197112 -23.36371,-27.013582 -35.48207,-41.486062 -8.25025,-9.86885 -29.21088,-28.46876 -19.26158,-42.80894 10.0803,-14.49887 14.92245,-24.81752 33.73501,-23.91793 21.03564,0.97999 41.67326,9.52485 62.52289,2.43396 9.21028,-3.09595 17.30452,1.50798 25.53377,4.78893 7.59023,3.04295 18.22955,-3.96894 25.32076,-6.03191 -41.75226,-23.20354 -61.22585,-79.13568 -59.02978,-124.80197 0.50002,-10.45094 5.77017,-18.78521 6.85021,-28.70686 1.09003,-10.31864 -1.56005,-20.66368 -1.80006,-30.92932 -0.2,-7.77888 1.38004,-20.50489 -3.17009,-27.35748 -3.60011,-5.39792 -13.46741,-1.40198 -12.83239,-10.47734 0.80002,-12.01191 -4.02012,-28.15127 -6.48019,-39.95148 -1.77006,-8.49287 -13.81242,-9.78985 -19.92461,-13.57289 -19.36758,-11.98552 1.14004,-40.32188 -33.04699,-35.87695 -25.90378,3.38695 -40.00621,-40.42778 -50.88054,-58.6308 -13.70641,-22.67445 -12.99139,-51.4342 -18.04554,-76.72801 z" />
  </g>
</svg>
