<?xml version="1.0" encoding="UTF-8" standalone="no"?>
<!-- Created with Inkscape (http://www.inkscape.org/) -->

<svg
   xmlns:dc="http://purl.org/dc/elements/1.1/"
   xmlns:cc="http://creativecommons.org/ns#"
   xmlns:rdf="http://www.w3.org/1999/02/22-rdf-syntax-ns#"
   xmlns:svg="http://www.w3.org/2000/svg"
   xmlns="http://www.w3.org/2000/svg"
   xmlns:sodipodi="http://sodipodi.sourceforge.net/DTD/sodipodi-0.dtd"
   xmlns:inkscape="http://www.inkscape.org/namespaces/inkscape"
   width="45.855671mm"
   height="35.289017mm"
   viewBox="0 0 45.855671 35.289014"
   version="1.1"
   id="svg7070"
   inkscape:version="0.92.4 (5da689c313, 2019-01-14)"
   sodipodi:docname="china.svg">
  <defs
     id="defs7064" />
  <sodipodi:namedview
     id="base"
     pagecolor="#ffffff"
     bordercolor="#666666"
     borderopacity="1.0"
     inkscape:pageopacity="0.0"
     inkscape:pageshadow="2"
     inkscape:zoom="7.9195959"
     inkscape:cx="90.521532"
     inkscape:cy="52.355606"
     inkscape:document-units="mm"
     inkscape:current-layer="layer1"
     showgrid="false"
     inkscape:window-width="958"
     inkscape:window-height="1008"
     inkscape:window-x="-7"
     inkscape:window-y="0"
     inkscape:window-maximized="0" />
  <metadata
     id="metadata7067">
    <rdf:RDF>
      <cc:Work
         rdf:about="">
        <dc:format>image/svg+xml</dc:format>
        <dc:type
           rdf:resource="http://purl.org/dc/dcmitype/StillImage" />
        <dc:title></dc:title>
      </cc:Work>
    </rdf:RDF>
  </metadata>
  <g
     inkscape:label="Layer 1"
     inkscape:groupmode="layer"
     id="layer1"
     transform="translate(-138.56495,-14.03216)">
    <g
       transform="matrix(0.26458333,0,0,0.26458333,7.692773,-53.515882)"
       id="cn">
      <path
         style="fill:#aaaaaa"
         inkscape:connector-curvature="0"
         id="path2726"
         d="m 643.581,308.053 c 0.059,-0.26 -0.082,-0.349 -0.321,-0.286 0.099,0.103 0.207,0.198 0.321,0.286 z" />
      <path
         style="fill:#aaaaaa"
         inkscape:connector-curvature="0"
         id="path2730"
         d="m 647.453,308.466 c -0.08,-0.1 -0.186,-0.142 -0.318,-0.127 0.106,0.043 0.213,0.085 0.318,0.127 z" />
      <path
         style="fill:#aaaaaa"
         inkscape:connector-curvature="0"
         id="path2740"
         d="m 653.995,336.895 c 0.614,0.272 1.96,1.795 2.669,1.049 -0.427,-0.356 -2.115,-1.592 -2.669,-1.049 z" />
      <path
         style="fill:#aaaaaa"
         inkscape:connector-curvature="0"
         id="path2744"
         d="m 658.034,350.997 c 0.021,0.053 0.042,0.105 0.062,0.158 0.551,-0.155 0.06,-0.842 -0.062,-0.158 z" />
      <path
         style="fill:#aaaaaa"
         inkscape:connector-curvature="0"
         id="path2748"
         d="m 658.856,343.724 c 0.346,-0.047 0.679,0.171 1.015,0 -0.209,-0.345 -0.865,-0.653 -1.208,-0.317 0.065,0.106 0.129,0.211 0.193,0.317 z" />
      <path
         style="fill:#aaaaaa"
         inkscape:connector-curvature="0"
         id="path2750"
         d="m 658.76,342.581 c 0.109,0.155 0.258,0.219 0.446,0.19 -0.031,-0.287 -0.217,-0.367 -0.446,-0.19 z" />
      <path
         style="fill:#aaaaaa"
         inkscape:connector-curvature="0"
         id="path2752"
         d="m 659.585,344.931 c 0.062,-0.256 -0.045,-0.288 -0.317,-0.095 0.105,0.031 0.211,0.063 0.317,0.095 z" />
      <path
         style="fill:#aaaaaa"
         inkscape:connector-curvature="0"
         id="path2734"
         d="m 649.36,367.801 c 0.086,0.074 0.171,0.148 0.256,0.223 0.422,-0.446 -0.228,-0.636 -0.256,-0.223 z" />
      <path
         style="fill:#aaaaaa"
         inkscape:connector-curvature="0"
         id="path2742"
         d="m 655.682,360.973 c 0.321,0.579 0.43,-0.225 0.349,-0.477 -0.122,0.011 -0.238,0.043 -0.349,0.096 0.116,0.095 0.232,0.19 0.349,0.285 -0.117,0.032 -0.233,0.063 -0.349,0.096 z" />
      <path
         style="fill:#aaaaaa"
         inkscape:connector-curvature="0"
         id="path2766"
         d="m 653.678,358.716 c 0.215,0.113 0.437,0.208 0.666,0.285 -0.279,0.154 -0.546,-0.031 -0.666,-0.285 z" />
      <path
         style="fill:#aaaaaa"
         inkscape:connector-curvature="0"
         id="path2736"
         d="m 651.297,364.592 c -0.093,0.261 -0.003,0.418 0.286,0.382 0.057,-0.218 -0.04,-0.412 -0.286,-0.382 z" />
      <path
         style="fill:#aaaaaa"
         inkscape:connector-curvature="0"
         id="path2758"
         d="m 637.826,373.519 c 0.059,-0.035 0.108,0.186 0.066,-0.063 0.054,0.122 0.064,0.249 0.03,0.381 -0.03,-0.107 -0.064,-0.213 -0.096,-0.318 z" />
      <path
         style="fill:#aaaaaa"
         inkscape:connector-curvature="0"
         id="path2760"
         d="m 639.893,373.201 c 10e-4,0.165 0.086,0.271 0.256,0.317 -0.041,-0.143 -0.126,-0.249 -0.256,-0.317 z" />
      <path
         style="fill:#aaaaaa"
         inkscape:connector-curvature="0"
         id="path2762"
         d="m 638.811,373.519 c -0.015,-0.332 0.396,-0.407 0.604,-0.54 0.043,0.347 -0.299,0.553 -0.604,0.54 z" />
      <path
         style="fill:#aaaaaa"
         inkscape:connector-curvature="0"
         id="path2764"
         d="m 639.258,372.345 c 0.334,-0.114 0.651,-0.275 0.922,0.063 -0.098,0.095 -0.203,0.18 -0.317,0.255 0.133,-0.116 0.382,-0.198 0.54,-0.075 0.492,0.382 -0.554,0.035 -0.125,0.615 -0.376,-0.079 -1.773,-0.368 -1.02,-0.858 z" />
      <path
         style="fill:#aaaaaa"
         inkscape:connector-curvature="0"
         id="path2710"
         d="m 623.44,384.511 c -0.16,0.259 0.159,1.3 0.213,1.59 0.088,0.476 0.063,1.182 0.422,1.556 0.438,0.456 1.178,0.369 1.696,0.681 0.492,0.296 1.269,0.351 1.829,0.335 -0.217,-0.623 0.604,-0.992 0.85,-0.572 -0.169,-0.288 0.894,-1.152 1.065,-1.314 0.246,-0.231 0.56,-1.519 0.181,-1.671 0.41,-0.217 0.823,-1.307 0.732,-1.747 0.824,0.613 0.337,-0.978 0.21,-1.286 -0.211,-0.515 -1.691,-1.06 -1.07,0.11 -0.192,-0.239 -1.162,-0.629 -0.667,0.031 -0.285,-0.837 -1.168,-0.313 -1.429,0.064 -0.24,-0.541 -1.171,-0.471 -1.558,-0.159 0.072,0.118 0.147,0.234 0.226,0.35 -0.378,0.129 -0.615,-0.355 -0.953,-0.254 -0.439,0.131 -0.226,0.716 0.128,0.794 -0.787,0.216 -1.296,0.972 -1.875,1.492 z" />
      <path
         style="fill:#aaaaaa"
         inkscape:connector-curvature="0"
         id="path2712"
         d="m 627.661,378.221 c 0.355,-0.07 0.711,-0.217 0.953,0.159 0.238,-0.661 -0.744,-0.666 -0.953,-0.159 z" />
      <path
         style="fill:#aaaaaa"
         inkscape:connector-curvature="0"
         id="path2714"
         d="m 628.523,377.331 c -0.257,0.156 -0.204,0.262 0.158,0.318 -0.052,-0.106 -0.105,-0.211 -0.158,-0.318 z" />
      <path
         style="fill:#aaaaaa"
         inkscape:connector-curvature="0"
         id="path2716"
         d="m 632.554,375.965 c 0.174,-0.083 0.269,-0.221 0.287,-0.413 -0.264,0.037 -0.263,0.191 -0.287,0.413 z" />
      <path
         style="fill:#aaaaaa"
         inkscape:connector-curvature="0"
         id="path2718"
         d="m 635.193,375.393 c -0.188,0.061 -0.307,0.188 -0.354,0.381 0.259,0.014 0.391,-0.126 0.354,-0.381 z" />
      <path
         style="fill:#aaaaaa"
         inkscape:connector-curvature="0"
         id="path2720"
         d="m 635.763,375.902 c 0.03,-0.247 -0.033,-0.47 -0.189,-0.667 0.027,0.233 0.09,0.455 0.189,0.667 z" />
      <path
         style="fill:#aaaaaa"
         inkscape:connector-curvature="0"
         id="path2722"
         d="m 637.002,370.82 c 0.038,0.102 0.507,0.727 0.701,0.539 -0.183,-0.229 -0.38,-0.504 -0.701,-0.539 z" />
      <path
         style="fill:#aaaaaa"
         inkscape:connector-curvature="0"
         id="path2724"
         d="m 637.478,371.455 c 0.031,0.191 0.033,0.261 0.256,0.317 -0.086,-0.106 -0.172,-0.211 -0.256,-0.317 z" />
      <path
         style="fill:#aaaaaa"
         inkscape:connector-curvature="0"
         id="path2708"
         d="m 494.635,307.703 c 0.447,0.003 0.763,-0.223 0.666,-0.698 -0.133,-0.653 -0.449,-0.53 -0.249,-1.22 0.162,-0.558 0.631,-0.361 1.043,-0.527 0.48,-0.193 0.673,-0.874 1.24,-0.89 -0.092,-0.204 -0.114,-0.416 -0.065,-0.635 0.326,0.067 0.988,0.389 1.291,0.117 0.227,-0.204 0.479,-0.544 0.802,-0.589 0.338,-0.047 0.498,0.83 0.727,1.031 0.39,0.341 1.145,-0.122 1.64,-0.079 0.91,0.079 0.978,-1.213 1.08,-1.846 0.085,-0.522 0.324,-0.718 0.892,-0.634 0.721,0.107 1.389,0.121 2.084,-0.033 0.362,-0.081 0.865,0.054 1.163,-0.229 0.328,-0.312 0.272,-0.931 0.584,-1.296 0.781,-0.919 2.312,-1.01 3.223,-1.754 0.366,-0.299 0.553,-0.461 1.019,-0.472 0.598,-0.016 0.435,-0.231 0.253,-0.666 -0.232,-0.553 -0.435,-1.037 -0.707,-1.568 -0.356,-0.695 0.4,-0.85 0.88,-0.972 -0.187,-0.176 -0.398,-0.314 -0.635,-0.413 0.195,-0.29 0.525,-0.726 0.922,-0.445 0.257,-0.581 -0.447,-0.638 -0.477,-1.122 -0.039,-0.633 -0.665,-1.076 -1.015,-1.547 -0.479,-0.646 -0.986,-1.297 -1.261,-2.063 -0.182,-0.505 0.119,-1.328 -0.359,-1.546 -0.404,-0.185 -2.051,0.007 -1.59,-0.679 0.262,-0.389 1.239,-0.499 1.673,-0.634 0.791,-0.248 1.573,-0.311 2.368,-0.598 0.793,-0.285 0.914,0.115 1.567,0.376 0.524,0.209 0.968,-0.329 1.49,0.037 0.602,0.421 0.612,-0.275 0.487,-0.686 -0.188,-0.615 -0.954,-0.258 -1.265,-0.718 -0.266,-0.393 0.014,-1.144 0.048,-1.572 0.051,-0.646 -0.105,-1.325 -0.103,-1.976 10e-4,-0.616 0.265,-1.293 0.141,-1.893 -0.149,-0.723 0.225,-0.927 0.865,-0.62 0.542,0.26 1.011,0.506 1.604,0.646 0.773,0.182 1.512,-0.108 2.286,-0.031 0.593,0.059 0.8,0.84 1.347,0.379 0.421,-0.354 0.999,-0.402 1.397,-0.758 0.727,-0.648 -1.088,-2.433 -1.294,-3.132 -0.112,-0.379 -0.194,-1.416 0.186,-1.682 0.364,-0.255 0.898,0.006 1.302,-0.174 1.022,-0.458 0.944,-0.933 0.621,-1.882 -0.212,-0.62 0.499,-0.665 0.904,-0.623 0.647,0.065 0.941,0.077 1.564,-0.119 0.275,-0.086 0.98,0.452 0.761,0.67 -0.353,0.35 0.173,0.714 0.567,0.798 0.776,0.163 0.116,0.542 0.563,0.753 0.621,0.292 1.465,0.261 1.937,0.835 0.528,0.644 2.059,1.42 2.862,1.167 0.532,-0.168 1.882,1.112 2.043,0.448 0.291,0.093 0.308,0.354 0.538,0.508 0.313,0.209 0.651,0.227 0.955,0.48 0.571,0.475 0.781,1.201 1.334,1.689 0.483,0.428 1.067,0.717 1.561,1.131 0.819,0.687 0.534,1.271 0.846,2.123 0.211,0.577 0.809,0.696 0.528,1.421 -0.235,0.61 -0.436,1.173 0.068,1.719 0.362,0.393 0.871,1.06 1.445,1.014 0.729,-0.059 1.469,0.395 2.187,0.43 0.725,0.036 1.47,0.257 2.187,0.228 0.687,-0.028 1.346,-0.079 2.033,-0.027 1.642,0.122 2.772,1.07 4.26,1.667 0.679,0.272 1.293,0.684 1.975,0.943 0.496,0.188 1.001,0.153 1.518,0.224 0.65,0.09 0.119,0.548 0.596,0.829 0.646,0.381 1.013,0.524 1.455,1.198 0.35,0.532 0.737,1.076 1.156,1.556 0.488,0.56 1.19,0.854 1.754,1.324 0.395,0.329 0.56,0.811 1.081,0.89 0.716,0.109 1.382,-0.143 2.081,-0.213 1.5,-0.151 3.147,0.556 4.668,0.645 0.801,0.047 1.621,0.169 2.423,0.148 0.769,-0.019 1.448,-0.38 2.229,-0.325 0.836,0.059 1.656,0.23 2.484,0.344 0.718,0.099 1.538,-0.019 2.223,0.234 0.647,0.239 1.055,0.823 1.658,1.128 0.885,0.448 2.04,0.441 2.997,0.641 1.451,0.304 2.784,1.182 4.308,0.812 0.695,-0.168 0.774,-0.055 1.196,0.426 0.414,0.472 1.226,-0.03 1.573,0.348 -0.094,-0.103 3.369,-2.017 3.699,-2.186 0.664,-0.339 1.526,-0.498 2.261,-0.591 0.874,-0.111 1.86,-0.352 2.73,-0.369 1.297,-0.024 2.836,0.441 4.019,-0.268 0.554,-0.332 1.584,-0.441 1.996,-0.93 0.396,-0.468 0.422,-1.17 0.717,-1.698 0.273,-0.49 0.776,-0.699 1.243,-0.96 0.264,-0.147 0.463,-0.343 0.589,-0.621 0.075,-0.162 0.452,-0.004 0.487,-0.154 0.212,-0.91 -2.199,-1.783 -2.619,-2.476 -0.404,-0.668 -0.672,-2.501 0.391,-2.724 1.307,-0.274 2.84,0.857 4.132,1.068 0.279,0.046 1.086,0.288 1.323,0.047 0.37,-0.376 0.93,-0.632 1.147,-1.098 0.193,-0.416 0.309,-0.908 0.602,-1.269 0.281,-0.346 1.223,-0.045 1.594,-0.008 0.988,0.096 1.947,-0.405 2.503,-1.248 0.268,-0.408 -0.438,-0.999 -0.099,-1.626 0.317,-0.584 0.667,-0.72 1.314,-0.735 0.467,-0.011 0.891,0.223 0.806,-0.482 -0.064,-0.545 0.66,-0.196 0.896,-0.12 0.247,0.081 0.984,-0.534 1.328,-0.629 0.284,-0.079 0.553,-0.006 0.836,0.027 0.183,0.026 0.366,0.035 0.551,0.028 0.073,-0.107 0.148,-0.213 0.226,-0.318 0.218,-0.001 0.702,0.267 0.96,0.317 0.468,0.089 0.939,0.172 1.415,0.21 1.743,0.139 0.168,-1.38 -0.516,-1.879 -1.602,-1.169 -3.411,-2.192 -5.214,-3.003 -0.822,-0.37 -2.031,-0.663 -2.56,0.277 -0.678,1.206 -1.56,-0.053 -2.668,-0.002 -0.374,0.018 -1.159,-0.133 -1.482,0.024 -0.409,0.198 -0.419,0.726 -1.019,0.389 -0.381,-0.215 -1.76,-0.914 -1.408,-1.508 0.198,-0.335 0.464,-0.323 0.201,-0.741 -0.261,-0.414 -0.267,-0.761 -0.257,-1.229 0.027,-1.411 -0.116,-2.821 -0.226,-4.225 1.048,0.501 2.199,0.488 3.209,0.937 1.15,0.51 1.315,-0.494 2.025,-1.129 0.493,-0.441 1.863,-0.048 1.74,-0.991 -0.064,-0.502 -0.358,-0.613 -0.792,-0.71 -0.287,-0.063 -0.24,-0.503 -0.263,-0.75 -0.036,-0.392 0.231,-0.569 0.051,-0.972 -0.109,-0.183 -0.126,-0.375 -0.049,-0.578 0.162,-0.414 -0.076,-0.646 -0.076,-1.053 0,-0.863 -0.308,-1.527 0.513,-2.138 0.916,-0.682 -0.454,-1.49 -0.786,-2.091 -0.294,-0.533 -0.993,-0.97 -1.618,-0.72 -0.56,0.223 -0.827,-0.208 -1.157,-0.573 0.902,-0.304 0.709,-1.676 1.773,-1.882 1.268,-0.246 2.421,-0.709 3.725,-0.637 1.296,0.071 2.384,-0.391 3.707,-0.051 0.564,0.145 1.122,0.415 1.646,0.663 0.718,0.34 1.538,0.345 2.233,0.7 0.01,-0.778 2.341,0.121 2.521,0.437 0.162,0.284 1.216,0.642 1.541,0.82 0.251,0.138 0.152,0.407 0.375,0.54 0.348,0.208 0.699,0.265 1.026,0.527 0.357,0.287 0.963,0.521 1.167,0.929 0.121,0.243 0.729,0.097 0.744,0.507 0.022,0.608 0.717,0.907 1.166,1.203 0.414,0.271 0.812,1.018 1.297,1.16 0.652,0.195 0.847,1.001 1.362,1.387 0.578,0.433 1.237,0.742 1.8,1.202 0.477,0.389 0.623,0.998 1.072,1.403 0.501,0.452 0.905,0.292 1.142,0.985 0.387,1.135 2.291,2.119 3.442,1.903 0.487,-0.091 1.08,-0.25 1.522,-0.005 0.721,0.4 1.407,0.481 2.154,0.788 -0.417,-0.745 0.886,0.286 1.112,0.286 0.545,0 1.208,0.817 1.675,1.086 0.755,0.435 1.428,0.085 2.155,0.375 0.217,0.086 0.132,0.72 0.298,0.919 0.188,0.225 0.573,0.388 0.821,0.531 0.736,0.423 0.569,0.792 0.858,1.443 0.205,0.463 1.604,1.562 2.126,1.498 0.292,-0.037 0.555,-0.167 0.854,-0.167 0.449,0 0.821,0.278 1.28,0.222 0.516,-0.063 2.011,0.032 2.074,-0.594 0.064,-0.638 0.799,-1.115 1.422,-1.048 0.038,0.005 0.587,0.241 0.622,0.084 0.083,-0.365 0.054,-0.468 0.463,-0.575 0.376,-0.099 1.082,-0.759 1.472,-0.504 0.214,0.14 0.976,0.41 1.222,0.444 -0.042,0.431 0.081,0.782 0.381,1.089 0.438,0.449 1.412,1.142 0.987,1.897 -0.091,0.16 -0.449,0.193 -0.585,0.331 -0.339,0.343 0.165,0.597 0.296,0.875 0.107,0.226 0.049,0.493 0.099,0.731 0.092,0.438 0.504,0.809 0.462,1.271 -0.049,0.537 1.003,1.332 0.235,1.715 0.568,0.416 0.067,0.529 0.093,1.017 0.019,0.361 0.441,0.652 0.387,1.031 -0.075,0.522 -0.686,0.33 -0.344,1.061 0.121,0.26 0.29,0.513 0.336,0.801 0.072,0.465 -2.465,-0.282 -2.86,-0.372 -0.174,-0.04 -1.194,-0.488 -1.271,-0.338 -0.168,0.332 -0.137,0.928 -0.482,1.128 -0.276,0.161 -0.851,0.183 -1.041,0.403 -0.184,0.211 0.679,0.759 0.775,0.858 0.924,0.957 1.614,2.074 2.205,3.255 0.496,0.991 1.43,1.65 1.343,2.822 -0.037,0.511 0.31,0.44 -0.282,0.66 -0.474,0.175 -0.954,0.052 -1.24,0.572 0.789,0.218 0.649,0.647 1.209,1.08 -0.608,-0.492 -1.448,-0.667 -1.902,-1.348 -0.376,-0.563 -0.872,-0.722 -1.53,-0.685 0.118,0.405 0.766,1.563 0.505,1.959 -0.203,0.308 -0.798,-0.011 -1.076,0.226 -0.407,0.345 0.334,1.057 -0.557,1.284 -0.798,0.203 -1.635,0.014 -2.428,0.217 0.417,0.565 1.789,1.245 1.61,2.023 -0.095,0.417 -1.764,0.114 -2.188,0.049 -0.396,-0.061 -0.809,-0.146 -1.157,-0.351 -0.41,-0.239 -0.804,-0.938 -1.345,-0.878 -0.282,0.032 -0.331,0.355 -0.671,0.362 0.026,0.722 0.086,1.111 -0.153,1.808 -0.105,0.307 -0.155,0.827 -0.436,1.035 -0.144,0.107 -0.818,0.134 -0.776,0.374 0.056,0.312 -0.225,0.27 -0.368,0.5 -0.16,0.149 -0.35,0.242 -0.566,0.276 -0.195,0.099 -0.386,0.559 -0.497,0.593 -0.689,0.209 -1.226,0.967 -1.218,1.741 0.011,0.913 -1.384,0.943 -1.893,0.408 0.072,0.482 -0.601,0.428 -0.892,0.412 0.123,0.354 -0.197,0.419 -0.462,0.464 -0.549,0.092 -0.948,0.513 -1.378,0.839 -0.425,0.322 -0.718,0.458 -0.771,1.042 -0.037,0.425 -0.528,0.385 -0.407,0.8 -0.21,-0.146 -0.442,-0.209 -0.697,-0.19 0.342,0.459 -1.14,1.58 -1.471,0.495 -0.172,-0.566 0.922,-0.555 1.072,-0.72 0.219,-0.238 -0.064,-0.437 -0.088,-0.675 -0.03,-0.297 0.437,-0.453 0.58,-0.657 -0.988,0.438 -1.5,-0.235 -2.383,-0.381 0.159,-0.225 0.399,-0.391 0.671,-0.445 -0.553,-0.833 -0.161,-0.698 0.456,-1.314 0.282,-0.283 0.396,-1.127 0.431,-1.513 0.121,-1.388 -2.025,-1.094 -2.192,-2.318 0.101,0.807 -0.726,0.454 -1.153,0.302 -0.54,-0.194 -1.699,0.416 -0.876,0.747 -0.626,0.122 -0.997,1.088 -0.945,1.679 0.044,0.487 -1.394,1.021 -1.724,1.243 -0.319,0.214 -0.615,0.371 -0.795,0.73 -0.294,0.587 0.279,0.877 0.139,1.327 -0.335,1.067 -1.235,0.709 -2.032,1.196 -0.546,0.333 -1.113,-0.541 -1.713,-0.428 -0.87,0.164 -0.435,1.587 -0.235,2.126 0.351,0.943 1.413,1.288 2.172,1.819 0.239,0.168 0.808,0.229 1.079,0.122 0.451,-0.178 0.556,0.475 0.939,0.539 0.105,-0.223 0.105,-0.444 0,-0.667 0.645,0 1.527,0.646 1.83,1.215 0.416,0.784 -0.176,1.542 0.682,2.2 0.575,0.442 1.277,0.562 1.978,0.45 0.492,-0.08 1.087,-0.352 0.526,-0.848 0.271,-0.159 1.536,-1.207 0.604,-1.207 0.535,0.1 1.025,-0.37 1.507,-0.516 0.454,-0.137 1.186,0.338 1.458,0.67 0.237,0.289 0.437,0.255 0.766,0.156 0.189,-0.057 0.418,0.322 0.515,0.42 0.44,0.447 1.185,-0.211 1.632,0.254 0.052,-0.135 0.094,-0.272 0.128,-0.413 0.672,0.474 1.605,0.121 2.254,0.604 -0.117,0.062 -0.233,0.125 -0.349,0.19 0.702,0.569 -0.36,0.729 0.304,1.203 0.267,0.19 0.232,0.479 -0.119,0.618 -0.58,0.23 -0.64,-0.3 -0.881,-0.646 -0.073,0.165 -0.159,0.324 -0.256,0.477 -0.071,-0.478 -0.369,-0.339 -0.638,-0.097 -0.155,0.14 -1.264,0.932 -0.633,0.256 -0.36,0.233 -1.012,0.85 -1.419,0.923 -0.287,0.052 -0.975,-0.331 -0.805,0.252 0.467,-0.41 0.886,0.203 0.604,0.636 -0.137,-0.335 -0.528,-0.357 -0.604,0.031 -0.064,0.33 0.302,0.522 0.237,0.862 -0.029,0.156 -0.506,0.378 -0.648,0.345 -0.45,-0.106 -0.261,-0.633 -0.64,-0.826 0.431,0.615 -0.17,0.104 -0.507,0.159 0.009,0.414 0.521,0.995 0.953,0.984 -0.901,0.136 -0.378,1.723 -1.461,1.461 0.014,0.429 -0.084,1.332 -0.305,1.703 -0.367,0.615 -0.06,1.021 0.115,1.633 0.455,-0.435 1.189,0.186 1.554,0.454 0.718,0.531 1.556,0.728 2.357,1.093 0.628,0.286 0.861,1.232 1.233,1.756 0.563,0.795 1.1,1.714 1.827,2.366 0.501,0.45 0.987,1.125 1.032,1.802 0.053,0.804 1.271,0.918 1.852,1.176 0.51,0.227 0.282,0.527 0.53,0.914 0.191,0.297 0.504,0.298 0.798,0.445 0.484,0.243 1.564,0.779 1.236,1.492 -0.688,-0.189 -1.448,-0.876 -2.199,-0.661 -1.008,0.288 -0.972,-0.432 -1.833,-0.752 -0.865,-0.322 -1.237,0.778 -1.966,0.379 -0.36,-0.197 -0.562,-0.533 -0.793,-0.858 -0.285,-0.402 -0.696,-0.38 -1.084,-0.616 0.196,0.151 0.27,0.411 0.154,0.635 0.179,-0.206 0.369,-0.217 0.574,-0.031 -0.12,-0.091 -0.236,-0.187 -0.349,-0.286 0.385,-0.144 1.163,0.871 0.414,0.54 0.517,0.346 1.116,1.113 1.838,0.785 0.289,-0.132 0.256,-0.413 0.625,-0.394 0.318,0.017 0.727,0.157 0.931,0.416 0.127,0.161 -0.022,0.356 0.193,0.463 0.352,0.175 0.765,0.228 1.13,0.37 0.789,0.308 1.47,1.02 2.23,1.419 0.42,0.221 1.334,1.097 1.307,1.627 -0.012,0.247 -0.528,0.152 -0.667,0.165 -0.54,0.05 -0.832,0.492 -1.231,0.788 -0.266,0.198 -0.593,0.301 -0.651,0.649 -0.025,0.154 -0.057,0.53 -0.281,0.544 -0.383,0.023 -0.603,-0.349 -1.038,-0.181 -0.366,0.141 -0.635,0.471 -0.926,0.717 0.205,-0.1 0.972,-0.733 1.193,-0.577 0.423,0.296 0.431,1.1 1.065,1.086 -0.134,-0.084 -0.271,-0.158 -0.415,-0.223 0.753,0.114 1.222,-0.781 1.948,-0.573 0.5,0.143 0.748,0.551 1.09,0.897 0.406,0.411 1.308,0.5 1.854,0.629 -0.374,0.176 -0.539,0.459 -0.794,0.762 -0.087,0.161 -0.193,0.31 -0.317,0.445 -0.192,0.15 -0.451,0.07 -0.636,0.254 0.062,0.123 0.146,0.229 0.252,0.317 0.196,-0.277 0.569,-0.666 0.922,-0.35 -0.184,-0.186 -0.147,-0.689 0.219,-0.49 0.405,0.222 0.05,0.565 0.245,0.891 0.004,0.007 0.388,1.078 -0.023,0.812 -0.229,-0.148 -0.204,-0.53 -0.409,-0.703 0.051,0.209 0.083,0.421 0.097,0.635 -0.27,0.071 -0.449,-0.1 -0.507,-0.35 0.114,0.589 -0.055,0.215 -0.194,0 -0.056,0.256 -0.161,0.489 -0.318,0.699 0.41,-0.083 1.021,0.306 1.081,0.73 -0.188,-0.199 -0.335,-0.179 -0.441,0.063 0.334,-0.023 0.717,0.442 0.335,0.674 -0.473,0.288 -1.139,-0.277 -1.543,-0.451 0.214,0.17 0.343,0.529 0.604,0.635 0.368,0.149 0.619,-0.152 0.845,0.299 0.108,0.216 0.705,0.762 0.409,1.026 -0.27,0.24 -0.609,0.224 -0.46,0.708 -0.414,-0.19 -0.437,-0.745 -0.86,-0.921 -0.119,0.21 -0.133,0.253 -0.349,0.349 0.63,0.085 -0.303,1.959 -1.332,0.699 0.137,0.463 1.162,0.373 1.027,0.909 -0.116,0.46 -0.588,1.296 -0.013,1.601 -0.323,0.151 -0.316,0.358 -0.271,0.663 0.098,0.657 -0.454,-0.033 -0.268,0.417 -0.215,-0.188 -0.427,-0.379 -0.635,-0.572 -0.01,0.229 1.11,1.021 0.189,0.826 0.164,0.376 -0.127,0.721 -0.477,0.825 0.384,0.536 0.67,1.489 -0.445,1.207 0.336,-0.139 0.494,-0.485 0.349,-0.825 -0.152,0.12 -0.268,0.269 -0.349,0.444 -0.213,-0.154 -0.38,-0.379 -0.446,-0.635 -0.132,0.234 -0.369,0.376 -0.635,0.254 0.164,0.182 0.229,0.394 0.193,0.635 0.521,-0.235 1.125,0.677 0.38,0.604 0.029,0.393 0.517,0.603 0.636,0.127 0.393,0.407 -0.044,0.388 -0.312,0.651 -0.275,0.271 -0.416,0.646 -0.545,1.001 -0.343,-0.32 -0.866,-0.501 -1.306,-0.635 0.345,0.216 0.557,0.821 1.046,0.74 0.484,-0.081 0.653,-0.587 1.054,0.021 -0.325,0.135 -0.209,0.667 -0.312,1.004 -0.17,0.556 0.69,0.573 0.502,1.156 -0.101,-0.423 -0.218,-0.423 -0.354,0 -0.198,-0.306 -0.481,-0.565 -0.824,-0.698 -0.023,0.267 -0.179,0.502 -0.411,0.635 0.23,0.125 0.812,0.205 0.717,0.604 -0.137,0.573 -0.589,-0.253 -0.589,0.477 -0.072,-0.329 -0.386,-0.896 -0.731,-0.413 0.438,0.154 0.056,0.803 0.568,0.825 -0.113,0.352 -0.855,0.892 -0.855,0.286 -0.351,0.279 -0.27,0.354 0.022,0.541 0.363,0.23 0.051,0.782 -0.119,1.016 -0.187,-0.185 -0.366,-0.375 -0.539,-0.572 -0.11,0.419 -0.659,0.684 -0.887,0.191 -0.242,0.349 -0.835,0.129 -0.477,0.635 -0.241,-0.071 -0.485,-0.082 -0.731,-0.031 0.222,0.241 0.543,0.333 0.855,0.222 -0.063,0.255 0.06,0.404 0.317,0.413 -0.089,0.235 -0.304,0.234 -0.468,0.376 -0.257,0.223 -0.087,0.646 -0.485,0.895 0.142,-0.308 0.046,-0.425 -0.286,-0.349 0.128,0.342 -0.089,0.646 -0.093,0.984 -0.034,-0.642 -0.678,0.031 -1.015,0.031 -0.07,0.08 -0.323,1.188 -0.668,0.851 -0.303,-0.296 -0.506,-0.449 -0.563,0.105 -0.064,0.61 -0.352,0.754 -0.962,0.664 0.365,0.141 0.821,0.132 0.922,0.604 -0.408,-0.5 -0.381,0.279 -0.67,-0.031 -0.128,0.388 0.1,0.882 -0.411,1.037 -0.334,0.102 -0.913,0.231 -1.239,0.043 0.477,0.505 -1.361,0.761 -0.953,-0.032 -0.276,0.311 -0.64,0.181 -0.953,0.032 0.062,0.271 0.788,0.631 0.597,0.962 -0.118,0.202 -0.388,0.031 -0.506,-0.05 -0.368,-0.25 -0.708,-0.211 -0.664,-0.658 -0.196,0.271 -0.927,0.713 -1.173,0.54 0.56,0.196 0.196,0.625 -0.142,0.532 -0.397,-0.109 -0.383,-0.586 -0.114,-0.817 -0.377,-0.002 -0.713,0.194 -0.918,0.508 0.426,0.077 -0.029,0.512 0.441,0.635 -0.094,0.084 -0.199,0.147 -0.318,0.191 -0.2,-0.683 -1.77,-0.621 -2.126,-0.063 -0.046,-0.931 -1.208,-1.173 -1.081,-2.16 -0.126,0.633 -0.108,0.255 -0.379,0.031 0.21,-0.355 0.575,-0.415 0.953,-0.349 -0.491,-0.343 -0.904,0.349 -1.398,0.127 0.705,0.283 -0.034,0.831 -0.508,0.667 0.178,0.071 0.844,0.318 0.879,0.533 -0.07,0.056 -0.151,0.059 -0.243,0.007 0.396,0.263 1.351,1.533 0.953,2.096 -0.426,0.597 -1.32,-1.128 -1.527,-1.365 -0.028,0.568 0.657,1.078 0.923,1.524 -0.236,0.055 -0.409,0.236 -0.446,0.477 -0.234,-0.116 -0.41,-0.333 -0.41,-0.604 -0.578,0.266 0.024,0.921 -0.354,1.303 -0.435,-0.562 -0.752,-0.11 -1.045,0.29 -0.199,0.271 -0.896,-0.307 -0.508,-0.672 -0.273,0.107 -0.445,-0.025 -0.414,-0.317 -0.053,0.369 0.218,0.75 0.103,1.118 -0.146,0.465 -1.351,-0.378 -1.598,-0.451 0.572,0.725 -0.188,0.392 -0.601,0.413 0.718,0.283 -0.325,1.366 -0.794,0.699 -0.076,0.239 -0.233,0.477 -0.477,0.571 0.236,-0.484 -0.354,-0.189 -0.679,-0.113 -0.401,0.095 -0.974,0.226 -1.228,0.59 0.072,-0.182 0.166,-0.351 0.282,-0.508 -0.264,0.185 -0.471,0.504 -0.282,0.826 -0.688,0.207 -0.447,-0.283 -0.86,-0.604 -0.163,0.362 0.327,0.599 0.006,0.926 -0.227,0.229 -0.719,0.465 -0.518,0.882 0.115,0.238 0.453,0.251 0.671,0.325 0.303,0.104 0.211,0.783 -0.03,0.059 0.046,0.558 0.822,0.848 0.782,1.402 -0.067,0.935 -1.337,0.477 -1.864,0.727 0.028,-0.321 -0.345,-0.834 0.226,-0.54 -0.116,-0.54 -1.087,-0.431 -0.701,-1.176 -0.447,0.06 -0.167,-0.578 -0.541,-0.618 -0.237,-0.026 -0.304,-0.915 -0.146,-1.079 0.312,-0.324 -0.076,-0.549 0.354,-0.81 0.658,-0.402 -0.271,-0.633 -0.522,-0.859 0.058,0.114 0.111,0.23 0.159,0.35 -0.49,0.105 -0.735,-0.623 -0.953,-0.922 -0.156,0.264 -0.042,0.512 0.221,0.636 -0.185,0.207 -0.809,0.75 -1.046,0.317 -0.389,0.892 -0.474,-0.455 -0.67,-0.604 -0.231,-0.175 -1.056,0.193 -0.57,-0.477 -0.113,-0.04 -0.229,-0.072 -0.348,-0.096 -0.029,0.232 0.023,0.444 0.158,0.636 -0.386,-0.059 -0.566,-0.793 -0.953,-0.699 0.175,-0.223 0.099,-0.44 -0.158,-0.54 -0.102,0.227 -0.201,0.548 -0.256,0.096 -0.083,0.468 0.631,0.759 0.366,1.236 -0.128,0.229 -0.566,-0.305 -0.746,-0.283 0.122,0.273 -0.006,0.53 -0.255,0.667 -0.012,-0.285 -0.758,-0.382 -1.117,-0.534 -0.503,-0.213 -1.193,0.454 -1.394,-0.069 -0.105,0.063 -0.211,0.127 -0.317,0.19 -0.148,-0.534 -0.846,-0.485 -1.204,-0.794 -0.13,-0.112 0.145,-0.274 -0.083,-0.342 -0.326,-0.099 -0.748,-0.56 -1.095,-0.262 -0.271,-0.845 -0.731,-1.482 -0.729,-2.351 0.797,0.275 0.483,-1.689 -0.635,-1.141 -0.454,0.224 -0.68,-0.168 -1.029,-0.343 -0.424,-0.211 -0.65,0.406 -1.118,0.05 -0.699,-0.534 -1.346,-0.833 -1.889,-1.583 -0.232,0.534 -0.874,0.595 -1.281,0.933 -0.259,0.216 0.224,0.648 -0.102,0.978 -0.268,0.271 -1.923,1.075 -1.759,0.186 -0.573,0.023 -0.714,1.364 -0.919,1.235 -0.291,-0.184 -0.529,-0.477 -0.765,-0.723 -0.502,-0.526 -0.465,0.043 -0.636,0.44 -0.617,-0.71 -0.698,-0.863 -1.179,0.024 -0.443,0.817 -1.067,-0.053 -1.489,-0.402 -0.915,-0.759 -1.066,0.331 -1.454,0.923 -0.209,0.319 -0.485,-0.051 -0.733,-0.028 -0.168,0.014 -0.332,0.045 -0.493,0.094 -0.217,0.065 -0.164,-0.293 -0.354,-0.293 -0.83,0 -0.427,1.604 -0.221,1.911 0.232,0.348 0.531,0.681 0.655,1.088 0.09,0.129 0.172,0.263 0.247,0.4 0.03,0.231 -0.168,0.434 -0.159,0.667 0.008,0.246 0.521,0.766 0.286,0.984 -0.315,0.296 -0.68,-0.375 -1.073,-0.256 -0.6,0.182 -0.669,0.225 -0.915,-0.395 -0.212,-0.533 -0.543,-1.051 -0.583,-1.637 -0.538,0.399 -1.461,1.517 -2.17,1.06 -0.34,-0.218 -0.415,0.287 -0.698,0.229 -0.291,-0.062 -0.382,-0.7 -0.247,-0.907 -1.109,-0.015 -0.294,-1.104 -0.885,-1.396 -0.646,-0.32 -1.442,-0.279 -2.12,-0.184 -0.873,0.123 -0.182,-1.138 -0.127,-1.445 0.08,-0.453 -0.443,-1.742 0.4,-1.709 -0.226,-0.669 -0.652,-0.73 -1.301,-0.73 -0.855,0 -0.779,-0.694 -1.132,-1.239 -0.032,-0.05 -0.329,-0.379 -0.271,-0.463 0.296,-0.427 -0.307,-0.721 -0.488,-1.037 -0.305,-0.533 0.466,-0.763 0.333,-1.295 -0.771,0.569 -1.729,-0.153 -2.528,0.296 -0.185,0.104 -1.27,0.963 -1.459,0.813 -0.387,-0.305 0.021,-0.624 0.147,-0.938 0.125,-0.311 -0.089,-0.805 -0.259,-1.062 -0.263,-0.397 -0.422,-0.345 -0.522,-0.915 -0.075,-0.425 0.106,-0.733 0.559,-0.768 -0.344,-0.561 -0.034,-1.001 -0.066,-1.588 0.745,0.673 0.795,-1.069 0.86,-1.303 1.094,0.078 0.305,-0.388 1.015,-0.922 0.112,-0.083 0.507,0.139 0.532,-0.055 0.05,-0.387 -0.437,-0.671 -0.562,-0.993 0.653,0.255 0.317,-0.922 0.317,-1.243 0,-0.701 -0.202,-1.516 -0.438,-2.173 -0.188,-0.523 -0.32,-1.07 -0.438,-1.612 -0.139,-0.639 -0.512,-0.735 -1.096,-1.007 0.13,0.254 -0.005,0.452 -0.251,0.54 -0.228,-0.458 -0.656,-0.919 -0.803,-1.401 -0.13,-0.426 -0.115,-0.792 -0.47,-1.11 -0.586,-0.527 -1.494,-0.735 -2.002,-1.3 -0.014,0.433 -0.038,1.686 -0.744,0.993 -0.385,-0.376 -0.612,-0.035 -0.995,-0.209 -0.351,-0.159 -0.782,-0.471 -1.181,-0.467 -0.369,0.004 -0.512,0.477 -0.906,0.318 -0.282,-0.113 -0.052,-0.52 0.037,-0.677 0.14,-0.247 0.407,-0.503 0.478,-0.775 0.112,-0.437 -0.69,-0.637 -0.531,-1.186 -0.282,0.081 -0.579,0.469 -0.899,0.396 -0.717,-0.164 0.08,-0.827 0.326,-0.935 -0.287,-0.261 -0.673,-0.611 -0.989,-0.838 -0.313,-0.225 -1.242,0.473 -1.5,0.652 -0.266,0.187 -0.136,0.598 -0.389,0.771 -0.227,0.155 -0.641,-0.042 -0.839,-0.125 -0.076,-0.032 -1.021,-0.609 -0.633,-0.143 -0.291,-0.171 -0.739,-0.521 -1.05,-0.604 -0.358,-0.096 -0.639,0.205 -0.989,0.411 -0.504,0.298 -0.775,0.855 -1.146,1.286 -0.469,0.545 -0.923,0.532 -1.579,0.647 -0.725,0.126 -0.442,0.616 -0.758,1.064 -0.29,0.411 -1.002,0.596 -1.129,1.084 -0.166,0.637 -0.174,1.103 -1.034,1.134 -0.554,0.02 -0.961,0.362 -1.505,0.289 -0.4,-0.053 -0.698,-0.094 -0.713,-0.533 -0.012,-0.392 -1.028,-0.706 -1.368,-0.748 -0.517,-0.064 -0.517,0.533 -1.101,0.257 -0.518,-0.244 -1.008,-0.239 -1.57,-0.247 -0.556,-0.008 -0.191,-0.627 -0.686,-0.775 -0.632,-0.188 -1.187,-0.149 -1.747,0.223 -0.589,0.392 -1.041,1.013 -1.345,1.643 -0.23,0.479 -0.696,1.237 -0.736,1.763 -0.937,-0.46 -0.285,-1.466 -0.574,-2.224 -0.451,-1.181 -1.553,-0.248 -2.382,-0.19 0.021,0.117 0.042,0.233 0.065,0.35 -0.718,-0.208 -1.73,0.06 -2.49,0.044 -0.687,-0.015 -1.126,-0.278 -1.762,-0.6 -0.222,-0.112 -0.599,-0.352 -0.863,-0.237 -0.236,0.103 -0.083,0.482 -0.336,0.528 -0.384,0.069 -1.139,-0.479 -1.157,-0.879 -0.092,0.075 -0.11,1.381 -0.435,0.839 -0.331,-0.552 -1.043,-0.877 -1.251,-1.506 -0.111,0.514 -1.835,0.299 -1.961,-0.154 -0.067,-0.242 0.182,-0.669 -0.014,-0.869 -0.202,-0.207 -0.812,0.259 -1.163,0.049 -0.559,-0.335 -1.814,-0.756 -2.036,-1.411 -0.272,-0.807 -1.104,-1.689 -1.952,-0.841 -0.306,0.306 -1.289,-1.007 -1.446,-1.195 -0.435,-0.52 -1.293,-0.629 -1.938,-1.021 -1.004,-0.611 -1.899,-1.29 -2.761,-2.062 -0.329,-0.295 -0.781,-0.252 -1.178,-0.379 -0.428,-0.138 -0.432,0.405 -0.892,0.229 0.175,1.156 -0.477,1.303 -1.15,0.563 -0.603,-0.661 -1.361,-0.97 -2.198,-1.199 -0.178,-0.048 -0.593,-0.101 -0.719,-0.253 -0.194,-0.236 0.166,-0.616 -0.256,-0.784 -0.319,-0.127 -0.479,-0.164 -0.756,-0.419 -0.477,-0.438 -0.791,-0.122 -1.3,-0.272 -0.768,-0.226 -1.077,-1.053 -1.59,-1.558 -0.518,-0.509 -1.077,0.936 -1.402,-0.081 -0.114,-0.358 0.024,-0.721 -0.189,-1.055 -0.217,-0.339 -0.301,-0.616 -0.366,-1.007 -0.07,-0.42 -0.491,-0.676 -0.781,-0.935 -0.43,-0.383 -0.331,-0.971 -0.695,-1.387 0.866,-0.645 1.035,-0.175 1.534,0.422 0.246,0.293 0.616,0.346 0.813,0.016 0.246,-0.412 0.673,-0.379 0.936,-0.736 0.324,-0.441 -0.112,-0.873 -0.371,-1.178 -0.205,-0.243 -0.101,-0.909 -0.354,-0.984 -1.033,-0.312 -0.97,-0.24 -1.706,-0.987 -0.832,-0.844 -0.935,-2.36 -0.905,-2.568 0.016,-0.104 1.118,-0.429 0.186,-0.729 -0.807,-0.259 -1.435,-0.885 -2.19,-1.342 -1.043,-0.629 -0.71,-2.086 -2.441,-3.1 -1.023,0.045 -4.11,-0.167 -4.175,-1.646 -0.304,0.078 -0.74,0.567 -1.065,0.275 -0.253,-0.228 -0.929,-0.628 -1.062,-0.922 -0.122,-0.271 -0.091,-0.81 -0.174,-1.125 -0.114,-0.433 -0.328,-0.781 -0.656,-1.088 -0.462,-0.431 -1.258,-0.189 -1.545,-0.632 -0.312,-0.479 -1.33,-1.057 -1.723,-0.353 -0.316,-0.767 -1.197,-0.202 -1.499,-0.761 -0.397,-0.737 0.987,-0.426 1.188,-0.462 0.829,-0.15 0.501,-0.919 0.03,-1.209 -0.398,-0.245 -0.21,-0.374 -0.224,-0.76 -0.006,-0.173 -0.303,-0.691 -0.382,-0.876 -0.113,-0.261 -0.431,-0.289 -0.533,-0.58 -0.121,-0.342 -0.008,-0.708 -0.079,-1.057 -0.132,-0.644 -1.209,-0.819 -1.739,-0.936 -0.704,-0.154 -1.201,0.786 -1.738,0.11 -0.174,-0.219 -0.906,-1.217 -0.198,-1.222 -0.227,-0.319 -0.534,-0.564 -0.809,-0.839 -0.263,-0.263 -0.152,-0.737 -0.268,-1.064 z" />
    </g>
  </g>
</svg>
