<?xml version="1.0" encoding="UTF-8" standalone="no"?>
<!-- Created with Inkscape (http://www.inkscape.org/) -->

<svg
   xmlns:dc="http://purl.org/dc/elements/1.1/"
   xmlns:cc="http://creativecommons.org/ns#"
   xmlns:rdf="http://www.w3.org/1999/02/22-rdf-syntax-ns#"
   xmlns:svg="http://www.w3.org/2000/svg"
   xmlns="http://www.w3.org/2000/svg"
   xmlns:sodipodi="http://sodipodi.sourceforge.net/DTD/sodipodi-0.dtd"
   xmlns:inkscape="http://www.inkscape.org/namespaces/inkscape"
   width="1084.1mm"
   height="1682.5mm"
   viewBox="0 0 1084.1 1682.5"
   version="1.1"
   id="svg7070"
   inkscape:version="0.92.4 (5da689c313, 2019-01-14)"
   sodipodi:docname="colombia.svg">
  <defs
     id="defs7064" />
  <sodipodi:namedview
     id="base"
     pagecolor="#ffffff"
     bordercolor="#666666"
     borderopacity="1.0"
     inkscape:pageopacity="0.0"
     inkscape:pageshadow="2"
     inkscape:zoom="1.4"
     inkscape:cx="-96.896486"
     inkscape:cy="-59.724197"
     inkscape:document-units="mm"
     inkscape:current-layer="layer1"
     showgrid="false"
     inkscape:window-width="958"
     inkscape:window-height="1008"
     inkscape:window-x="-7"
     inkscape:window-y="0"
     inkscape:window-maximized="0" />
  <metadata
     id="metadata7067">
    <rdf:RDF>
      <cc:Work
         rdf:about="">
        <dc:format>image/svg+xml</dc:format>
        <dc:type
           rdf:resource="http://purl.org/dc/dcmitype/StillImage" />
        <dc:title />
      </cc:Work>
    </rdf:RDF>
  </metadata>
  <g
     inkscape:label="Layer 1"
     inkscape:groupmode="layer"
     id="layer1"
     transform="translate(-210.66886,1593.1326)">
    <path
       inkscape:connector-curvature="0"
       style="fill:#ffffff;stroke-width:26.45849419"
       d="m 219.8989,-499.09454 c -3.07001,-0.82 -6.16003,-1.64101 -9.23004,-2.48702 3.28002,-20.10855 24.81812,-26.4056 41.1692,-16.85412 8.86004,-17.09223 -13.17607,-33.28486 -4.45003,-50.74749 11.19206,-22.43677 36.32718,-21.29906 57.38828,-24.84449 4.00001,-0.66 2.59001,-10.39828 8.04003,-7.09105 4.00002,2.38102 13.09607,4.49803 13.17607,-2.59302 0.1,-14.04951 18.54708,-31.56504 7.36003,-40.77261 20.0291,-0.53 23.73311,-26.3527 29.66014,-40.0053 4.66002,-10.79508 13.78507,-18.28284 23.28311,-24.71229 -11.82605,-9.65707 2.20001,-11.11258 5.87003,-21.03446 -8.25004,0.37 -18.78509,7.14406 -21.8541,-5.00104 6.48003,-1.69301 11.21805,-6.45605 10.92705,-13.4938 -6.38003,-2.22202 -19.28809,14.84321 -20.5851,1.69301 -1.38001,-13.7584 6.46003,-16.48362 17.22508,-21.85476 -16.88108,0.16 -9.18004,-22.33097 -6.85003,-31.56504 4.52002,-18.15054 0.6,-42.46592 -1.19001,-60.98686 -1.32,-13.94371 -7.54003,-27.33171 -8.49004,-41.30182 -0.5,-7.64605 23.89212,-10.63628 19.7381,-28.46931 -2.49001,-10.63638 -27.01413,-35.13697 -10.71505,-41.32832 14.65707,-5.53004 2.09001,-36.64497 -4.29002,-43.70947 -12.83206,-14.3141 -14.39307,-35.719 -28.25714,-47.8105 -9.13004,-7.9641 0,-17.939 5.29003,-25.215 6.40003,-8.7311 0.2,-20.1086 7.91003,-27.5433 4.21002,4.974 7.28004,10.5834 9.23005,16.8011 17.93908,-12.5678 43.4452,-37.042 35.16417,-61.3838 -8.49005,-24.9503 -24.34212,-30.2421 -9.10005,-53.7373 8.68004,11.2184 18.12409,26.5114 25.58512,38.9734 7.73004,12.8589 26.64413,16.8013 9.71005,32.4647 22.75411,26.141 11.58905,-48.7896 8.36004,-56.7801 -4.63002,-11.5887 48.63123,-38.1796 55.45726,-47.5459 8.55004,-11.7212 14.68407,-31.4593 28.97214,-37.677 8.10004,-3.519 27.30513,-1.508 31.85615,-10.5834 6.48003,-12.9118 -6.06003,-17.6214 -3.41002,-25.559 4.68003,-14.1553 6.61003,-31.9354 14.94907,-44.5296 -12.35605,-1.27 -9.00004,-5.3711 -0.6,-9.6571 7.67004,-3.916 4.71002,-14.4728 4.47002,-21.061 -0.5,-15.4518 25.53312,-19.791 25.53312,-25.1885 0,-8.0961 31.69715,-39.3438 39.10519,-39.1322 14.63107,0.37 27.01413,13.3616 41.5922,13.5468 -12.32906,-1.64 -10.55605,11.7211 -21.85411,11.7476 8.57004,31.7502 27.30513,-10.5041 31.61815,-21.9606 10.68905,-28.5752 23.33611,-26.5379 53.44526,-21.4844 41.09019,6.8531 54.13425,-19.8703 86.54641,-39.2644 17.80608,-10.6892 69.61233,-23.4158 53.63125,-54.2665 6.80003,-2.011 26.06112,-8.176 15.13407,5.9001 12.62006,-1.905 4.68002,-14.4463 18.49409,-20.7171 16.64208,-7.541 31.27415,-7.567 45.50921,4.313 48.49823,40.5344 -55.90726,56.9652 -71.57033,76.9149 -8.36004,10.6628 -11.53606,26.2204 -21.43111,35.481 -6.88003,6.429 -18.07208,5.186 -24.18311,12.1709 -11.56306,13.1234 -23.65411,33.1525 -31.06215,48.8954 -11.08705,23.4422 -11.56305,47.5195 -17.83308,72.2053 -6.19003,24.2625 -23.81312,53.4727 -39.95219,72.4964 13.38706,0.37 23.73311,-4.8681 33.62816,-13.4409 2.14001,5.689 2.96001,11.5887 2.51001,17.6213 25.42612,-6.5621 16.90608,38.603 29.81814,54.9808 18.44209,23.4688 23.49511,37.2007 12.70006,65.9876 -5.42002,14.5257 -14.12907,45.4822 5.48003,52.8112 22.1991,8.3081 10.45105,34.7666 33.31115,40.1641 9.23005,2.17 18.09809,-3.678 27.12013,-4.657 14.73707,-1.614 28.17814,8.255 42.96821,6.932 13.20306,-1.191 24.23611,-10.5305 37.67718,-10.2924 11.95905,0.21 20.84909,11.7741 32.14714,14.42 8.31,1.958 16.0331,-5.0011 23.6271,1.64 9.9801,8.731 16.7221,24.7123 24.0771,35.5073 6.8301,10.02781 13.0711,20.21439 19.2351,30.63907 7.9401,13.4938 11.1921,9.71007 23.2041,13.1763 17.4361,5.05404 33.4972,-8.73107 56.2513,0.37 6.96,2.77802 22.2781,-4.86803 29.7921,-5.00104 16.4831,-0.37 30.4802,0.93001 44.9263,-7.80505 16.378,-9.92208 43.3922,9.55107 34.7931,26.8289 -4.92,9.81607 -16.8811,17.35683 -19.0241,28.36361 -2.65,13.54671 2.81,20.66406 -10.054,29.44833 -17.1451,11.66819 -10.3721,58.65854 -12.0651,77.68229 -2.01,22.62197 7.3601,46.72575 11.5891,70.59133 3.2,18.04474 37.7032,41.80452 32.1201,60.14026 -6.88,22.59557 -49.4502,31.43274 -48.5242,58.49984 15.4251,-11.61529 53.1283,30.79773 58.0233,43.70943 -1.09,3.46603 -1.98,6.98505 -2.73,10.53058 2.01,6.56205 8.23,13.0176 8.25,20.05555 0.027,14.57861 8.49,30.03043 12.1181,44.45034 2.83,11.43009 14.976,40.21691 0.3,42.01612 -13.8901,1.64001 -10.6621,-13.2293 -9.5201,-22.06637 1.75,-13.7585 -14.2341,-77.97339 -34.3691,-70.80303 -10.8481,3.86302 -42.6772,59.90205 -51.4353,27.1199 -3.28,-12.25029 -18.9441,-17.78013 -17.2241,-0.0529 1.96,19.89685 -23.3371,12.6208 -36.8831,12.6208 -20.2941,0 -40.5872,0 -60.8813,0 -13.4141,0 -27.9132,-7.91106 -41.1162,-2.06402 -19.7381,8.67807 -4.02,52.97 -6.0601,69.29493 15.9811,-10.79509 53.4723,-1.45502 60.6423,16.16612 2.67,6.56205 4.15,28.52231 -8.28,27.38461 -7.7,-0.71001 -12.3561,-10.95389 -20.6381,-9.44608 -18.2821,3.25403 -50.2702,8.30807 -51.6203,29.66003 -1.64,25.9822 -3.92,62.36277 18.5471,79.4285 11.3251,8.57207 24.5802,15.98092 23.9721,32.20005 -0.6,15.55821 7.3601,21.53726 13.4411,34.68736 13.8111,29.81922 -4.08,70.64453 -8.28,101.12477 -10.1331,73.422552 -8.4901,153.327158 -31.1682,224.182695 -5.45,-13.493102 -16.1661,-25.744195 -25.8231,-36.433276 -11.00705,-12.197093 -24.07711,-0.053 -36.80417,-7.280055 -11.80006,-6.720051 18.75909,-53.0754028 22.86011,-60.060456 8.02004,-13.653103 34.55516,-41.302313 22.33106,-54.372412 -5.29,-5.640043 -14.94903,-20.823158 -23.38907,-17.516133 -14.31407,5.530042 -26.51112,-16.218123 -36.30117,-22.119163 -16.48308,-9.92008 -18.52109,-1.69002 -34.02516,5.95004 -14.65807,7.170055 -29.76614,-5.26004 -41.1962,-12.7521 -13.41406,-8.73006 -36.85617,19.685153 -52.28224,25.743199 -9.34005,3.620028 -27.80713,-2.010015 -39.68719,-0.500004 -16.40408,2.120016 -24.26212,-1.190009 -37.14818,-11.271085 -10.08004,-7.81006 -0.3,-26.9882 -3.92002,-38.86729 -4.95002,-16.27213 -30.69214,-7.43006 -33.57615,-23.76018 -2.06001,-11.61509 -4.50003,-25.6912 -9.18005,-36.53928 -4.92002,-11.37709 -22.1991,-9.00007 -29.21014,-19.02315 -7.59003,-10.84808 -13.30906,-10.58408 -23.46911,-13.9971 -12.93806,-4.34004 -17.19808,-24.34219 -18.20308,-36.01028 -1.85001,-22.22516 -45.87922,-55.35131 -66.62232,-61.38386 -3.99002,-1.19101 -8.18004,-8.30806 -11.69506,-2.69902 -3.84001,6.08504 -3.73001,8.67806 -11.90605,4.97404 -12.14406,-5.53005 -30.85015,-12.0915 -41.0632,-20.10846 -7.96003,-6.19104 -48.12822,-54.37231 -52.46724,-21.29916 -2.28002,17.19813 -63.79131,-3.04302 -77.23237,-5.42404 -21.8281,-3.91603 -5.77003,-22.38397 -21.8551,-29.23672 -14.10207,-6.05905 -7.86004,-18.09764 -26.03513,-18.28284 -14.28707,-0.16 -40.03119,-19.31475 -50.58824,-28.07251 -17.78008,-14.68441 -34.71316,-29.34252 -48.39223,-47.99577 v -0.16 z"
       id="co" />
  </g>
</svg>
