<?xml version="1.0" encoding="UTF-8" standalone="no"?>
<!-- Created with Inkscape (http://www.inkscape.org/) -->

<svg
   xmlns:dc="http://purl.org/dc/elements/1.1/"
   xmlns:cc="http://creativecommons.org/ns#"
   xmlns:rdf="http://www.w3.org/1999/02/22-rdf-syntax-ns#"
   xmlns:svg="http://www.w3.org/2000/svg"
   xmlns="http://www.w3.org/2000/svg"
   xmlns:sodipodi="http://sodipodi.sourceforge.net/DTD/sodipodi-0.dtd"
   xmlns:inkscape="http://www.inkscape.org/namespaces/inkscape"
   width="287.10001mm"
   height="319.89999mm"
   viewBox="0 0 287.10001 319.89999"
   version="1.1"
   id="svg7070"
   inkscape:version="0.92.4 (5da689c313, 2019-01-14)"
   sodipodi:docname="costa_rica.svg">
  <defs
     id="defs7064" />
  <sodipodi:namedview
     id="base"
     pagecolor="#ffffff"
     bordercolor="#666666"
     borderopacity="1.0"
     inkscape:pageopacity="0.0"
     inkscape:pageshadow="2"
     inkscape:zoom="1.4"
     inkscape:cx="-184.91979"
     inkscape:cy="-138.2383"
     inkscape:document-units="mm"
     inkscape:current-layer="layer1"
     showgrid="false"
     inkscape:window-width="958"
     inkscape:window-height="1008"
     inkscape:window-x="-7"
     inkscape:window-y="0"
     inkscape:window-maximized="0" />
  <metadata
     id="metadata7067">
    <rdf:RDF>
      <cc:Work
         rdf:about="">
        <dc:format>image/svg+xml</dc:format>
        <dc:type
           rdf:resource="http://purl.org/dc/dcmitype/StillImage" />
        <dc:title />
      </cc:Work>
    </rdf:RDF>
  </metadata>
  <g
     inkscape:label="Layer 1"
     inkscape:groupmode="layer"
     id="layer1"
     transform="translate(-233.95836,251.3062)">
    <path
       inkscape:connector-curvature="0"
       style="fill:#ffffff;stroke-width:26.4578743"
       d="m 234.63504,-167.57631 c 4.9692,-4.04851 18.43903,-22.86289 19.33789,-29.16078 1.50975,-10.10838 -21.1896,-22.46594 -12.59198,-27.54658 10.21136,-6.03276 12.85693,-14.68625 19.78782,-26.22351 2.72956,-4.55157 36.24217,11.72248 41.05639,14.10408 23.51822,11.66957 21.61353,4.81561 43.43801,-1.13814 9.62846,-2.64634 18.28006,16.30036 26.7717,6.05976 7.16884,9.34118 11.48115,19.60818 23.5972,23.07462 14.78762,4.18052 37.74993,4.97462 39.41566,-15.50656 6.8489,11.64317 -1.95969,16.14164 4.73924,26.32942 5.5791,8.52008 9.01855,18.52314 12.74995,27.96993 7.87873,19.92562 15.76746,26.9115 29.02033,40.14237 12.01006,11.96071 18.22706,31.171834 33.5706,39.057429 8.40864,4.392554 7.16884,13.601317 -3.30947,10.452319 -7.98872,-2.3813 -8.78859,-13.177863 -18.75598,-6.059765 4.49927,7.858992 -9.57846,26.250014 -9.49848,39.21615 0.1,16.009321 28.38544,17.835252 12.51299,30.854395 -17.77714,14.5803406 4.73924,30.483848 -9.3085,42.523868 -17.14224,14.686254 -1.05983,23.709693 -4.62926,42.021104 1.02984,-9.261169 -2.98952,-16.379768 -8.96855,-22.995103 -3.80939,-2.593327 -7.24884,-5.583704 -10.37034,-8.944129 1.05983,-3.466437 1.95969,-7.038888 2.72957,-10.531729 C 462.60036,14.956029 449.84641,-9.6003702 434.66186,-0.28589447 437.54139,13.262516 455.05757,18.263747 449.79342,34.140751 437.28043,30.277263 417.70458,25.884709 414.63608,10.325245 412.6564,0.19036564 426.19622,-7.562913 427.12207,-17.935822 c 2.27963,-25.58843 -25.65987,-35.352863 -42.16722,-48.213186 -10.05338,-7.805985 -12.53998,-13.336684 -26.45474,-13.70713 -13.72979,-0.370047 -21.7715,-7.091896 -21.18959,-21.381102 1.37978,-34.02969 -39.09871,-33.92378 -52.1936,-57.89811 2.58958,6.50983 3.14949,13.469 5.5591,20.00503 3.80939,10.37301 13.0679,9.10315 20.23774,15.29483 9.9684,8.65309 -1.87969,26.22351 -11.1642,29.875271 -11.26919,4.392555 -20.87164,-19.396451 -33.06768,-22.095491 -20.60768,-4.63058 -36.24217,-30.24572 -32.03585,-51.5209 z"
       id="cr" />
  </g>
</svg>
