<?xml version="1.0" encoding="UTF-8" standalone="no"?>
<!-- Created with Inkscape (http://www.inkscape.org/) -->

<svg
   xmlns:dc="http://purl.org/dc/elements/1.1/"
   xmlns:cc="http://creativecommons.org/ns#"
   xmlns:rdf="http://www.w3.org/1999/02/22-rdf-syntax-ns#"
   xmlns:svg="http://www.w3.org/2000/svg"
   xmlns="http://www.w3.org/2000/svg"
   xmlns:sodipodi="http://sodipodi.sourceforge.net/DTD/sodipodi-0.dtd"
   xmlns:inkscape="http://www.inkscape.org/namespaces/inkscape"
   width="473.5mm"
   height="401.69998mm"
   viewBox="0 0 473.49996 401.70003"
   version="1.1"
   id="svg7070"
   inkscape:version="0.92.4 (5da689c313, 2019-01-14)"
   sodipodi:docname="croatia.svg">
  <defs
     id="defs7064" />
  <sodipodi:namedview
     id="base"
     pagecolor="#ffffff"
     bordercolor="#666666"
     borderopacity="1.0"
     inkscape:pageopacity="0.0"
     inkscape:pageshadow="2"
     inkscape:zoom="7.9195959"
     inkscape:cx="-0.69567589"
     inkscape:cy="-15.066845"
     inkscape:document-units="mm"
     inkscape:current-layer="layer1"
     showgrid="false"
     inkscape:window-width="958"
     inkscape:window-height="1008"
     inkscape:window-x="-7"
     inkscape:window-y="0"
     inkscape:window-maximized="0" />
  <metadata
     id="metadata7067">
    <rdf:RDF>
      <cc:Work
         rdf:about="">
        <dc:format>image/svg+xml</dc:format>
        <dc:type
           rdf:resource="http://purl.org/dc/dcmitype/StillImage" />
        <dc:title />
      </cc:Work>
    </rdf:RDF>
  </metadata>
  <g
     inkscape:label="Layer 1"
     inkscape:groupmode="layer"
     id="layer1"
     transform="translate(-158.81403,356.32317)">
    <g
       transform="matrix(26.459475,0,0,26.458533,-7959.0852,-7795.0538)"
       id="hr"
       style="fill:#ffffff">
      <path
         style="fill:#ffffff"
         inkscape:connector-curvature="0"
         d="m 307.095,284.958 c 0.217,0.051 0.43,0.124 0.652,0.155 0.283,0.04 0.524,-0.316 0.677,-0.29 0.648,0.113 1.302,0.213 1.622,-0.563 0.578,0.558 1.031,0.373 1.675,0.699 0.819,0.415 0.342,-0.547 0.773,-0.635 -0.157,-0.036 -0.29,-0.171 -0.446,-0.222 0.359,-0.315 0.901,-0.49 1.368,-0.54 -0.028,-0.078 -0.261,-1.117 -0.259,-1.122 0.087,-0.251 0.781,-0.441 0.99,-0.494 0.373,-0.093 0.312,-0.259 0.602,-0.448 0.002,-0.002 0.341,0.093 0.415,0.095 -0.841,-0.984 1.432,-0.045 1.586,0.032 0.232,0.116 0.806,0.675 0.983,0.876 0.469,0.529 0.727,0.506 1.334,0.744 0.491,0.191 0.658,0.514 1.302,0.572 0.739,0.067 1.397,0.242 1.988,-0.329 0.272,-0.265 0.676,0.097 0.774,0.394 0.141,0.422 -0.152,0.864 0.511,0.889 -1.011,0.703 1.21,1.109 1.05,1.305 -0.1,0.121 -0.859,0.111 -1.05,0.188 0.321,0.525 -0.05,1.421 -0.719,0.903 -0.132,-0.104 -0.167,-0.235 -0.106,-0.395 -0.191,-0.082 -0.386,-0.159 -0.581,-0.234 -0.413,-0.151 -0.748,-0.164 -1.179,-0.136 -0.453,0.029 -0.494,-0.217 -0.937,0.03 -0.325,0.182 -0.519,-0.03 -0.828,-0.104 -0.374,-0.089 -0.777,-0.06 -1.144,-0.165 -0.318,-0.091 -0.639,-0.324 -0.978,-0.331 -0.498,-0.01 0.183,0.274 -0.642,0.125 -0.598,-0.108 -0.418,-0.028 -0.731,0.244 -0.759,0.655 -0.765,0.331 -1.501,-0.22 -1.028,-0.769 -1.014,0.918 -0.592,1.325 0.219,0.21 0.039,0.402 0.371,0.466 0.363,0.07 0.742,0.937 0.76,1.272 0.026,0.525 -0.094,0.881 0.787,1.152 0.928,0.284 1.069,1.5 1.845,2.079 0.625,0.466 1.116,1.195 1.778,1.527 0.703,0.352 0.418,1.031 -0.316,0.283 -0.822,-0.836 -2.664,-2.194 -3.895,-1.736 -0.322,0.12 -0.491,-0.004 -0.697,-0.272 -0.258,-0.333 -0.098,-0.422 -0.584,-0.664 -0.709,-0.353 -1.683,-1.151 -1.962,-1.91 0.44,-0.076 0.84,-0.012 1.274,0.064 -0.571,-0.42 -1.276,-0.734 -1.676,-1.351 -0.332,-0.515 -0.112,-1.174 -0.436,-1.685 -0.285,-0.449 -0.922,-0.878 -1.434,-1.018 -0.377,-0.103 -0.722,0.981 -0.65,1.258 -0.161,-0.067 -0.222,-0.019 -0.348,-0.159 -0.049,0.363 -0.137,0.752 -0.415,1.016 -0.226,-0.174 -0.954,-1.076 -0.604,-1.366 -0.402,0.093 -0.597,-1.009 -0.697,-1.334 0.098,0.01 0.194,0.019 0.29,0.03 z"
         id="path4066" />
      <path
         style="fill:#ffffff"
         inkscape:connector-curvature="0"
         d="m 319.702,294.709 c 0.471,-0.375 2.566,1.087 2.607,1.62 -0.509,-0.071 -1.395,-0.792 -1.799,-1.114 -0.352,-0.283 -0.812,-0.24 -1.219,-0.379 -0.439,-0.151 -0.805,-0.542 -1.306,-0.476 0.521,-0.4 1.526,0.22 1.941,0.54 -0.073,-0.063 -0.148,-0.127 -0.224,-0.191 z"
         id="path4068" />
      <path
         style="fill:#ffffff"
         inkscape:connector-curvature="0"
         d="m 309.446,286.77 c -0.18,-0.192 -0.231,-0.415 -0.158,-0.667 0.367,0.605 0.432,1.306 0.635,1.97 -0.42,-0.065 -0.83,-0.992 -0.477,-1.303 z"
         id="path4070" />
      <path
         style="fill:#ffffff"
         inkscape:connector-curvature="0"
         d="m 309.985,288.74 c -0.17,-0.22 -0.35,-0.431 -0.538,-0.635 0.228,0.162 0.419,0.381 0.538,0.635 z"
         id="path4072" />
      <path
         style="fill:#ffffff"
         inkscape:connector-curvature="0"
         d="m 310.272,286.77 c -0.285,-0.03 -0.795,-0.615 -0.318,-0.763 0.331,-0.103 0.586,0.637 0.825,0.763 -0.173,0.175 -0.341,0.175 -0.507,0 z"
         id="path4074" />
      <path
         style="fill:#ffffff"
         inkscape:connector-curvature="0"
         d="m 310.493,287.405 c 0.105,0.063 0.211,0.127 0.317,0.19 -0.286,0.135 -0.391,0.072 -0.317,-0.19 z"
         id="path4076" />
      <path
         style="fill:#ffffff"
         inkscape:connector-curvature="0"
         d="m 311.128,289.789 c -0.105,-0.084 -0.212,-0.169 -0.318,-0.254 0.14,0.044 0.246,0.129 0.318,0.254 z"
         id="path4078" />
      <path
         style="fill:#ffffff"
         inkscape:connector-curvature="0"
         d="m 311.445,288.867 c -0.31,-0.296 -0.618,-0.604 -0.825,-0.984 0.389,0.538 1.072,0.733 1.461,1.271 -0.31,0.236 -0.492,-0.052 -0.636,-0.287 z"
         id="path4080" />
      <path
         style="fill:#ffffff"
         inkscape:connector-curvature="0"
         d="m 311.477,290.358 c -0.104,-0.095 -0.209,-0.191 -0.313,-0.286 0.412,0.031 0.51,0.514 0.825,0.699 -0.243,-0.049 -0.414,-0.187 -0.512,-0.413 z"
         id="path4082" />
      <path
         style="fill:#ffffff"
         inkscape:connector-curvature="0"
         d="m 312.208,290.993 c 0.246,0.138 0.469,0.307 0.666,0.508 -0.25,-0.115 -0.513,-0.271 -0.666,-0.508 z"
         id="path4086" />
      <path
         style="fill:#ffffff"
         inkscape:connector-curvature="0"
         d="m 312.208,290.455 c -0.105,-0.074 -0.212,-0.148 -0.317,-0.222 0.159,0.005 0.264,0.079 0.317,0.222 z"
         id="path4088" />
      <path
         style="fill:#ffffff"
         inkscape:connector-curvature="0"
         d="m 313.415,291.756 c 0.116,0.053 0.232,0.106 0.35,0.159 -0.123,-0.039 -0.239,-0.093 -0.35,-0.159 z"
         id="path4090" />
      <path
         style="fill:#ffffff"
         inkscape:connector-curvature="0"
         d="m 315.227,292.391 c 0.106,-0.01 0.212,-0.021 0.317,-0.032 -0.104,0.042 -0.209,0.053 -0.317,0.032 z"
         id="path4092" />
      <path
         style="fill:#ffffff"
         inkscape:connector-curvature="0"
         d="m 315.734,293.06 c -0.106,-0.053 -0.212,-0.106 -0.317,-0.159 0.135,-0.001 0.241,0.053 0.317,0.159 z"
         id="path4094" />
      <path
         style="fill:#ffffff"
         inkscape:connector-curvature="0"
         d="m 316.687,293.312 c -0.327,-0.003 -0.739,-0.082 -0.794,-0.477 0.44,-0.014 0.886,0.044 1.302,0.19 -0.133,0.162 -0.302,0.258 -0.508,0.287 z"
         id="path4096" />
      <path
         style="fill:#ffffff"
         inkscape:connector-curvature="0"
         d="m 317.29,294.678 c -0.219,-0.051 -0.441,-0.083 -0.666,-0.095 0.393,-0.342 1.229,-0.286 1.65,-0.032 -0.33,0.104 -0.674,-0.072 -0.984,0.127 z"
         id="path4098" />
      <path
         style="fill:#ffffff"
         inkscape:connector-curvature="0"
         d="m 317.862,293.854 c -0.652,0.023 -1.312,-0.037 -1.94,-0.223 0.746,-0.245 1.505,0.153 2.259,0.127 -0.106,0.032 -0.212,0.064 -0.319,0.096 z"
         id="path4100" />
      <path
         style="fill:#ffffff"
         inkscape:connector-curvature="0"
         d="m 319.991,295.441 c -0.318,-0.111 -0.654,-0.154 -0.983,-0.223 0.336,-0.073 0.7,0.049 0.983,0.223 z"
         id="path4102" />
    </g>
  </g>
</svg>
