<?xml version="1.0" encoding="UTF-8" standalone="no"?>
<!-- Created with Inkscape (http://www.inkscape.org/) -->

<svg
   xmlns:dc="http://purl.org/dc/elements/1.1/"
   xmlns:cc="http://creativecommons.org/ns#"
   xmlns:rdf="http://www.w3.org/1999/02/22-rdf-syntax-ns#"
   xmlns:svg="http://www.w3.org/2000/svg"
   xmlns="http://www.w3.org/2000/svg"
   xmlns:sodipodi="http://sodipodi.sourceforge.net/DTD/sodipodi-0.dtd"
   xmlns:inkscape="http://www.inkscape.org/namespaces/inkscape"
   width="530.59998mm"
   height="245.00006mm"
   viewBox="0 0 530.59994 245.00009"
   version="1.1"
   id="svg7070"
   inkscape:version="0.92.4 (5da689c313, 2019-01-14)"
   sodipodi:docname="czech_republic.svg">
  <defs
     id="defs7064" />
  <sodipodi:namedview
     id="base"
     pagecolor="#ffffff"
     bordercolor="#666666"
     borderopacity="1.0"
     inkscape:pageopacity="0.0"
     inkscape:pageshadow="2"
     inkscape:zoom="7.9195959"
     inkscape:cx="-0.50999128"
     inkscape:cy="-8.2048346"
     inkscape:document-units="mm"
     inkscape:current-layer="layer1"
     showgrid="false"
     inkscape:window-width="958"
     inkscape:window-height="1008"
     inkscape:window-x="-7"
     inkscape:window-y="0"
     inkscape:window-maximized="0" />
  <metadata
     id="metadata7067">
    <rdf:RDF>
      <cc:Work
         rdf:about="">
        <dc:format>image/svg+xml</dc:format>
        <dc:type
           rdf:resource="http://purl.org/dc/dcmitype/StillImage" />
        <dc:title />
      </cc:Work>
    </rdf:RDF>
  </metadata>
  <g
     inkscape:label="Layer 1"
     inkscape:groupmode="layer"
     id="layer1"
     transform="translate(-158.7649,197.80766)">
    <path
       inkscape:connector-curvature="0"
       style="fill:#ffffff;stroke:#ffffff;stroke-width:4.11731195"
       d="m 161.04653,-126.52251 c 8.68342,0.0264 15.50518,7.22422 17.62217,15.13666 2.87653,-30.11462 39.39645,-15.79828 54.37265,-27.78592 27.65012,-22.12295 70.06314,-34.37524 102.87268,-46.99798 -2.72571,-2.59344 -5.55912,-5.10688 -8.39254,-7.5683 7.32596,-1.69328 15.87579,-4.36673 21.59004,2.11738 5.05276,5.76897 9.55606,16.56571 18.75984,13.44307 6.30248,-2.17037 16.0611,0.90016 15.50517,-8.30941 -0.53866,-8.97051 7.41216,-1.1382 13.25678,0.37006 9.79308,2.48742 10.32098,-1.95833 13.09622,7.25124 3.10276,10.16171 4.43867,2.77846 10.74116,5.3459 9.81464,3.96967 42.62417,4.26073 43.15315,19.29138 4.37402,-4.65779 15.55905,-7.40925 21.53832,-5.00185 16.27226,6.51011 -0.53867,16.88327 -7.19668,22.65215 14.60561,5.08086 19.55278,12.83449 27.96687,24.47817 10.26711,14.263417 26.80224,-2.43443 35.87782,-8.49444 -5.50524,-4.60479 -8.57568,-10.4793 -9.21132,-17.65071 21.69669,5.68997 41.93682,22.22878 65.48549,15.13678 -1.96078,10.42637 -3.30746,27.653694 11.98656,27.230222 13.33541,-0.370062 11.77434,-2.752466 25.84988,3.863659 15.02899,7.092203 22.27846,1.95833 30.03105,18.338815 1.79916,3.810647 31.1946,21.699487 17.94,26.621525 -15.24125,5.662961 -27.46482,8.415429 -41.03832,18.576955 -9.70691,7.304244 -8.97431,27.3625522 -20.37372,28.50044566 C 605.25517,1.7435841 599.51398,23.575194 577.31524,19.235357 556.99431,15.265682 550.32661,20.005487 542.62681,39.955679 534.9561,11.931616 496.05955,31.990325 478.54403,25.956899 464.12374,20.982054 450.02125,15.239478 435.44152,10.529078 423.6144,6.7184296 401.04505,0.44676363 388.7676,1.2935075 389.62947,9.2848658 386.33279,16.853652 387.13003,24.84541 375.25012,23.205131 366.20149,32.625733 366.12176,44.163294 348.47266,37.124098 348.10313,44.72339 330.79877,43.105114 319.26254,42.01993 309.65798,29.662029 300.58349,23.575495 288.94059,15.742164 276.55865,9.1797478 264.44064,2.1406515 253.14249,-4.4484684 242.05552,-23.237261 228.61453,-26.571528 207.68599,-31.784414 203.47895,-61.184911 185.40752,-71.002581 210.01412,-90.611612 163.31435,-106.27757 161.039,-126.52161 Z"
       id="cz" />
  </g>
</svg>
