<?xml version="1.0" encoding="UTF-8" standalone="no"?>
<!-- Created with Inkscape (http://www.inkscape.org/) -->

<svg
   xmlns:dc="http://purl.org/dc/elements/1.1/"
   xmlns:cc="http://creativecommons.org/ns#"
   xmlns:rdf="http://www.w3.org/1999/02/22-rdf-syntax-ns#"
   xmlns:svg="http://www.w3.org/2000/svg"
   xmlns="http://www.w3.org/2000/svg"
   xmlns:sodipodi="http://sodipodi.sourceforge.net/DTD/sodipodi-0.dtd"
   xmlns:inkscape="http://www.inkscape.org/namespaces/inkscape"
   width="404.20001mm"
   height="530.40002mm"
   viewBox="0 0 404.20001 530.39999"
   version="1.1"
   id="svg7070"
   inkscape:version="0.92.4 (5da689c313, 2019-01-14)"
   sodipodi:docname="democratic_peoples_republic_of_korea.svg">
  <defs
     id="defs7064" />
  <sodipodi:namedview
     id="base"
     pagecolor="#ffffff"
     bordercolor="#666666"
     borderopacity="1.0"
     inkscape:pageopacity="0.0"
     inkscape:pageshadow="2"
     inkscape:zoom="5.6"
     inkscape:cx="-10.403141"
     inkscape:cy="3.6102934"
     inkscape:document-units="mm"
     inkscape:current-layer="layer1"
     showgrid="false"
     inkscape:window-width="958"
     inkscape:window-height="1008"
     inkscape:window-x="-7"
     inkscape:window-y="0"
     inkscape:window-maximized="0" />
  <metadata
     id="metadata7067">
    <rdf:RDF>
      <cc:Work
         rdf:about="">
        <dc:format>image/svg+xml</dc:format>
        <dc:type
           rdf:resource="http://purl.org/dc/dcmitype/StillImage" />
        <dc:title />
      </cc:Work>
    </rdf:RDF>
  </metadata>
  <g
     inkscape:label="Layer 1"
     inkscape:groupmode="layer"
     id="layer1"
     transform="translate(-158.51379,497.27833)">
    <path
       style="fill:#ffffff;stroke-width:26.45791054"
       inkscape:connector-curvature="0"
       id="kp"
       d="m 158.51379,-210.503 c 5.07994,-10.68889 12.46185,-19.44652 18.67977,-29.36812 4.51994,-7.19686 15.47781,-3.28094 17.09179,-10.82129 3.35996,-15.5836 34.71257,-14.81642 34.71257,-30.40001 0,-9.41882 10.13387,-5.02691 15.7428,-6.64087 10.07988,-2.90995 9.57988,-20.9546 16.2448,-27.80716 15.00182,-15.4513 -4.86994,-45.66611 9.41989,-53.70936 5.65993,-3.17494 8.27989,-11.85307 16.1928,-7.91084 11.21786,5.63589 19.31376,15.53069 30.24162,21.64247 19.34076,10.82129 40.4535,11.95897 61.96423,13.78454 11.90586,1.00498 36.30056,2.64595 27.62266,-16.69488 -3.75995,-8.38684 -14.57882,-9.70981 -21.00774,-15.1339 -8.70989,-7.32886 -15.10781,-16.95947 -21.82773,-26.008 18.81077,-4.8149 40.26851,-3.04294 59.60927,-4.8419 25.47968,-2.35496 11.72085,-18.49404 16.85379,-31.35249 4.43994,-11.11229 20.13475,-3.73093 28.38965,-7.40786 11.90585,-5.3179 -8.3099,-45.61321 -10.74187,-53.94745 17.91178,-1.03198 33.04559,2.75195 41.59148,18.25584 12.27685,22.25107 47.22742,28.23055 63.42022,48.94705 -7.53991,5.63589 -13.94383,-2.72495 -21.98673,-1.26997 -4.78994,0.86998 -7.8299,14.18132 -9.25988,17.77965 -5.36994,13.81093 -19.04977,37.41127 -15.18682,52.83627 2.69997,10.84769 59.21227,65.58893 34.18358,77.99759 -8.3099,4.07492 -18.62677,7.51385 -22.99271,16.53617 -2.77997,5.76789 2.45997,13.65224 -2.37997,18.33525 -7.03992,6.90586 -14.68382,7.22286 -20.08176,16.74777 -4.20994,7.46086 -7.03991,16.32448 -13.51983,22.27747 -7.45991,6.82587 -18.09678,4.8949 -26.88167,8.62583 -7.5699,3.25394 -12.85784,9.70981 -18.78476,15.16031 -8.0199,7.38185 -15.98081,10.95348 -5.49994,19.47292 8.6499,7.09086 10.26588,21.06049 12.30285,31.32609 -3.91995,-13.57284 -8.75989,-6.13788 -7.8599,3.54493 1.74998,18.52044 21.82773,11.19168 34.44757,18.99673 18.86477,11.694372 82.01999,36.882182 78.89803,63.710461 -4.54995,39.3427344 -79.00303,-2.195958 -97.84179,28.309849 -6.71992,10.900588 -4.22995,41.512293 -17.22379,39.289836 -6.76992,-1.163977 -44.02646,-13.5199372 -30.00363,6.66787 -7.6999,-4.709908 -22.22472,-7.513854 -28.17765,-12.884949 -9.36988,-8.4138366 -19.23476,-15.1603054 -32.2786,-15.6894951 5.15994,4.0749208 10.76787,7.4348554 16.80079,10.080404 -8.54989,0.8699831 -10.00087,16.0863871 -21.00774,25.1879101 -7.24991,-11.271081 7.05991,-6.508873 5.84993,-13.414139 -1.63998,-9.445816 -13.99583,-13.8110315 -13.41384,-0.849984 -6.58991,-14.2343227 -25.69068,-0.289994 -33.62858,-14.2872217 19.42076,0 -5.10994,-14.445919 15.18681,-7.5668528 -10.55587,-11.0593845 -32.0136,-4.9739033 -45.42744,-7.5668525 1.79998,-6.958865 7.42991,-10.186202 14.26083,-7.540854 -16.4838,-11.085784 -1.16999,-28.521545 -12.62085,-41.194798 12.30285,8.968825 6.53992,-7.566853 21.98673,-8.439836 9.46989,-0.559989 21.85373,0.899982 30.18863,5.952884 -10.29287,-21.351485 -51.85836,0.289994 -52.36035,-30.241312 -0.2,-12.01177 6.21992,-29.60622 2.93996,-40.85081 -3.32996,-11.45627 -15.21381,-10.1863 -10.23987,-24.73811 -21.11374,13.59933 -47.09542,-11.80017 -65.58919,-19.34063 4.12995,6.08488 3.53995,11.69437 -1.71998,16.82717 -2.53997,-11.35037 -12.69984,-16.03348 -22.38372,-20.2402 -5.39994,-2.35496 -31.48461,-21.08689 -12.06485,-21.77478 -3.59996,-2.77794 -7.21991,-5.58289 -10.82087,-8.36084 z" />
  </g>
</svg>
