<?xml version="1.0" encoding="UTF-8" standalone="no"?>
<!-- Created with Inkscape (http://www.inkscape.org/) -->

<svg
   xmlns:dc="http://purl.org/dc/elements/1.1/"
   xmlns:cc="http://creativecommons.org/ns#"
   xmlns:rdf="http://www.w3.org/1999/02/22-rdf-syntax-ns#"
   xmlns:svg="http://www.w3.org/2000/svg"
   xmlns="http://www.w3.org/2000/svg"
   xmlns:sodipodi="http://sodipodi.sourceforge.net/DTD/sodipodi-0.dtd"
   xmlns:inkscape="http://www.inkscape.org/namespaces/inkscape"
   width="1701.1mm"
   height="1897.9mm"
   viewBox="0 0 1701.1 1897.8998"
   version="1.1"
   id="svg7070"
   inkscape:version="0.92.4 (5da689c313, 2019-01-14)"
   sodipodi:docname="democratic_republic_of_the_congo.svg">
  <defs
     id="defs7064" />
  <sodipodi:namedview
     id="base"
     pagecolor="#ffffff"
     bordercolor="#666666"
     borderopacity="1.0"
     inkscape:pageopacity="0.0"
     inkscape:pageshadow="2"
     inkscape:zoom="7.9195959"
     inkscape:cx="26.039694"
     inkscape:cy="16.921132"
     inkscape:document-units="mm"
     inkscape:current-layer="layer1"
     showgrid="false"
     inkscape:window-width="958"
     inkscape:window-height="1008"
     inkscape:window-x="-7"
     inkscape:window-y="0"
     inkscape:window-maximized="0" />
  <metadata
     id="metadata7067">
    <rdf:RDF>
      <cc:Work
         rdf:about="">
        <dc:format>image/svg+xml</dc:format>
        <dc:type
           rdf:resource="http://purl.org/dc/dcmitype/StillImage" />
        <dc:title />
      </cc:Work>
    </rdf:RDF>
  </metadata>
  <g
     inkscape:label="Layer 1"
     inkscape:groupmode="layer"
     id="layer1"
     transform="translate(-151.74029,1845.2697)">
    <path
       inkscape:connector-curvature="0"
       style="fill:#ffffff;stroke-width:26.45861816"
       d="m 151.74629,-721.88218 c 8.02001,-6.08512 23.70702,-2.54005 26.85503,-13.38817 2.57,-8.83719 6.64,-41.85797 0.5,-48.94892 -16.19202,-18.54768 44.00104,-46.56767 55.77506,-57.09828 3.2,13.38817 22.80702,15.34611 23.60002,29.39581 6.27001,-6.50914 14.60501,-10.39832 21.56402,-15.98114 9.50001,-7.69916 5.53001,-21.53754 13.78502,-30.24252 13.99601,18.54768 34.97803,-16.96015 51.51405,-8.67818 15.76901,7.85816 1.22,11.43023 -1.22,21.29934 -2.73001,11.11273 4.31,23.25738 4.31,34.42301 7.01001,-8.99618 22.43602,2.38105 31.88203,-4.18008 13.89102,-9.6572 22.56903,-28.07289 33.17904,-41.03776 5.48,-6.77314 27.83403,-17.51576 28.99803,-23.62779 3.15,-16.16633 16.59001,-20.00291 29.92503,-25.69153 31.00903,-13.28237 36.56504,-71.67709 35.82404,-99.59131 -0.60001,-21.2464 1.38,-40.4026 -1.30001,-61.5962 -2.57,-20.3734 18.81202,-28.6814 31.61704,-41.6463 30.08403,-30.4806 24.44802,-57.5745 59.79606,-89.775 15.45201,-14.1026 27.86103,-25.5857 39.31704,-41.7521 11.45701,-16.1664 3.17,-39.6883 7.81001,-58.183 4.07,-16.2723 16.90601,-31.1687 19.57902,-46.8323 3.04,-17.5687 -7.54001,-39.212 -6.83001,-57.5216 0.8,-20.6644 12.75301,-38.8152 16.14002,-58.9239 3.28,-19.5267 -2.41001,-40.1647 1.98,-59.4796 8.25001,-36.328 33.62903,-65.7768 46.06404,-100.3585 7.22001,-20.1088 0.08,-41.4876 -0.5,-62.0196 -0.3,-9.3932 4.13001,-19.315 2.65001,-28.5756 -1.35,-8.2292 -6.24001,-15.0816 -8.49001,-22.9928 -3.60001,-12.568 18.36202,-12.2504 23.41602,-23.7072 6.96001,-15.8224 14.28702,-29.7662 26.27303,-42.5194 11.50901,-12.3034 25.90303,-22.7811 43.47104,-22.6752 14.87002,0.11 20.84902,12.9648 30.34803,15.0815 22.09303,4.9211 42.59805,28.7873 50.87906,49.0812 6.72,16.5897 30.53303,4.1811 44.00004,8.2552 7.30001,2.17 10.90101,12.0388 19.28902,11.6154 7.43001,-0.37 8.94001,-1.64 16.64202,2.2751 11.58901,5.9001 13.86401,-0.053 25.21502,-0.7701 7.59005,-0.48 15.98005,3.5191 22.88605,6.0852 12.568,4.6571 29.713,13.7057 43.418,8.8902 24.448,-8.6252 16.96,-67.1262 49.5571,-68.6344 18.547,-0.93 23.521,36.6456 47.757,13.7586 10.239,-9.7102 80.9891,-19.0769 76.6761,-42.3342 14.658,-0.66 19.579,19.4737 33.629,18.045 16.9071,-1.693 45.8261,-4.2331 52.8631,-22.2785 2.65,-6.7201 -4.13,-13.441 4.76,-17.8861 10.874,-5.4241 19.817,-2.1701 28.31,6.1381 13.6,13.3883 26.194,-2.381 41.2751,4.7631 7.43,3.5721 13.626,9.1552 20.902,12.912 8.49,4.3921 14.579,0.66 23.575,2.011 21.352,3.2021 29.66,-20.5056 52.2021,-7.7521 8.55,4.8681 38.285,23.6277 38.285,34.6876 0,5.4241 7.04,18.8123 12.303,20.9819 22.12,9.0492 43.2331,41.6463 66.8611,19.3679 13.388,-12.6739 23.257,-15.1345 41.037,-6.5091 18.229,8.9432 30.1891,7.1441 36.3001,-15.9283 6.22,-23.416 49.821,42.5195 52.335,46.7264 11.404,19.1298 60.3511,25.3741 46.7251,55.1404 10.743,-2.5401 23.734,-3.2011 26.406,10.4777 1.38,3.678 3.23,7.0381 5.61,10.1337 1.54,7.0381 -9.1,19.024 -10.186,26.4589 -1.48,9.9222 5.24,17.066 6.4,26.6706 1.61,13.5469 -12.647,24.1834 -11.456,37.8362 1.64,19.0239 56.383,16.4838 47.916,42.2283 -10.107,30.6923 -46.593,60.5644 -68.501,83.2926 -14.4991,15.0286 -37.2791,27.4378 -47.3601,46.7263 -6.3,12.0389 3.52,25.7446 -4.13,38.0744 -8.47,13.7057 -16.906,34.37 -18.706,50.4836 -1.61,14.473 -1.43,29.0518 -2.43,43.5513 -1.19,16.9601 -9.26,31.777 -10.953,47.8641 -1.3,11.7742 7.51,28.311 2.12,39.1327 -6.14,12.2504 -19.791,19.4737 -28.7861,29.3958 -13.891,15.399 -8.52,26.1413 -9.02,44.1863 -0.3,11.8801 -12.541,18.389 -18.97,26.8823 -14.182,18.7593 3.73,38.0743 13.361,56.6484 7.22,13.94384 12.753,17.066 10.795,33.49694 -1.69,14.3143 0.5,28.7344 -0.6,43.2074 -2.33,32.51797 21.1141,57.68029 15.2661,92.18271 -6.11,36.22225 0.3,60.29985 13.759,94.88157 7.99,20.55852 -3.31,28.36389 -5.26,47.59949 -1.64,16.06053 1.77,36.91016 10.927,50.37774 18.759,27.59657 50.377,38.3918 60.695,72.55031 10.1871,33.7879 28.1251,64.50673 37.3591,98.34764 -54.9271,12.51506 -111.2301,17.62156 -166.3172,29.39581 22.755,37.67748 -36.327,53.2882 -47.043,81.49339 31.724,9.7632 21.194,58.76511 19.05,82.68391 -1.59,17.46286 5.03,33.8939 4.02,51.17156 -0.6,9.04919 -5.66,13.44108 -9.29,21.24644 -5.21,11.32444 -5.72,24.0247 -8.6,35.95765 -5.72,23.41608 -13.679,38.92101 1.22,61.54338 10.346,15.769423 27.808,34.528812 41.487,47.44078 6.08,5.847121 36.751,23.416086 42.6511,12.567961 9.52,-17.409961 11.747,-16.113535 31.194,-23.469087 0,33.788001 -1.11,67.7612055 -2.01,101.549206 -0.2,5.212108 3.73,27.490771 -5,28.363889 -10.266,1.032021 -12.568,-10.795224 -5.48,-16.483842 -15.134,-18.600586 -49.0801,36.804263 -65.1141,1.95804 -5.32,-11.58894 -7.7,-23.680691 -15.531,-34.2113093 -4.45,-5.9531235 -20.558,-13.6527832 -21.934,-20.7173297 -2.7,-13.785086 -3.86,-29.819119 -21.2461,-30.321829 -14.579,-0.420009 -20.796,-15.610824 -34.793,-17.304159 -11.694,-1.402029 -18.865,5.31811 -26.961,-7.541156 -6.24,-9.975207 -5.37,-22.384265 -14.525,-30.533534 -13.018,-11.66844 -23.8661,-52.812 -35.1901,-16.37804 -11.721,37.518679 -29.554,17.25116 -58.87,18.28308 -19.738,0.710014 -25.4791,-6.08513 -42.1211,-13.65278 -1.14,-0.53001 -18.627,-4.7101 -19.13,-4.6041 -26.564,4.7101 -35.56,-34.15841 -26.167,-52.60019 -16.325,0.93002 -32.5441,4.9211 -47.9691,10.18661 -18.865,6.45614 -23.76,11.93295 -43.63,7.59416 9.37,-8.78418 12.065,-23.9189 1.56,-33.23239 -7.09,-6.24413 -16.298,0.98002 -15.531,-9.6042 1.03,-13.54698 -15.981,-6.29713 -19.791,-2.06404 -9.2601,10.18661 -18.7061,5.95312 -30.4001,2.88406 -14.076,-3.62508 -22.649,4.65709 -35.322,8.52017 -12.039,3.67808 -22.225,-3.67807 -33.946,-1.19102 -3.7001,0.77002 -21.1931,-0.98002 -21.6431,-0.77002 -10.028,5.42412 -15.134,20.55853 -28.946,20.21462 3.1,-10.34551 -3.12,-18.49478 -4.95,-28.25808 -2.51,-13.38828 8.86,-14.73761 11.774,-25.00372 6.83,-23.8659 -4.63,-66.35888 -19.13,-85.56798 -17.647,-23.41608 -25.241,-38.07439 -23.019,-68.36982 2.3,-31.38015 14.817,-64.24213 6.67,-95.43718 -3.12,-11.88004 -11.58904,-22.27836 -11.43,-34.87272 0.2,-14.3143 6.51,-27.70247 7.59,-41.85797 1.77,-23.36318 -13.33505,-22.88697 -32.30607,-23.04568 -18.01801,-0.16 -35.90403,1.61404 -53.89605,2.38105 -35.82404,1.61404 -27.14603,-6.50913 -20.87502,-37.73038 -8.25001,0 -17.99202,-3.14806 -26.00903,0 -5.45001,2.11705 0.1,5.53012 -2.91,8.17617 -9.76001,8.36117 -54.63706,1.03202 -67.70707,1.03202 4.34,11.05983 -6.35001,23.9718 -4.50001,35.77244 1.56,9.5512 4.52001,24.71262 -10.68901,21.45815 4.97001,14.5259 -3.84,28.9989 -0.8,43.65721 -6.16,0 -52.59905,5.74111 -52.86405,-2.43406 -0.5,-13.49407 -27.83403,1.24403 -34.39604,1.79904 -6.03,0.53001 -20.82202,-1.79904 -24.89702,4.7631 -2.83001,4.6041 -0.7,5.42411 -8.07001,6.82614 -5.95001,1.13803 -4.71001,-10.13371 -12.54101,-5.1591 -5.85001,3.62507 -19.44702,4.8681 -26.11403,3.51907 -21.24602,-4.44509 -27.80803,-51.78008 -38.44404,-67.3379 -3.78,-5.47711 -9.31001,-9.44619 -13.17701,-14.86991 -7.14001,-10.08081 -1.75001,-17.30406 -3.25001,-28.07278 -2.67,-19.1827 -17.09201,-33.23239 -19.28802,-53.57931 -1.59,-14.84341 -3.78,-28.41679 -8.10001,-42.62518 -5.56,-18.28318 -14.87001,-18.9711 -33.49603,-19.47381 -51.19705,-1.40203 -101.9711,2.01104 -153.06216,3.67808 -41.32804,1.29602 -89.64109,2.32805 -130.14913,-5.47712 -32.41103,-6.32413 -59.29306,41.99018 -78.42208,-6.77314 z"
       id="cd" />
  </g>
</svg>
