<?xml version="1.0" encoding="UTF-8" standalone="no"?>
<!-- Created with Inkscape (http://www.inkscape.org/) -->

<svg
   xmlns:dc="http://purl.org/dc/elements/1.1/"
   xmlns:cc="http://creativecommons.org/ns#"
   xmlns:rdf="http://www.w3.org/1999/02/22-rdf-syntax-ns#"
   xmlns:svg="http://www.w3.org/2000/svg"
   xmlns="http://www.w3.org/2000/svg"
   xmlns:sodipodi="http://sodipodi.sourceforge.net/DTD/sodipodi-0.dtd"
   xmlns:inkscape="http://www.inkscape.org/namespaces/inkscape"
   width="306.20001mm"
   height="118.9mm"
   viewBox="0 0 306.19997 118.90001"
   version="1.1"
   id="svg7070"
   inkscape:version="0.92.4 (5da689c313, 2019-01-14)"
   sodipodi:docname="east_timor.svg">
  <defs
     id="defs7064" />
  <sodipodi:namedview
     id="base"
     pagecolor="#ffffff"
     bordercolor="#666666"
     borderopacity="1.0"
     inkscape:pageopacity="0.0"
     inkscape:pageshadow="2"
     inkscape:zoom="5.6"
     inkscape:cx="-15.702602"
     inkscape:cy="19.036657"
     inkscape:document-units="mm"
     inkscape:current-layer="layer1"
     showgrid="false"
     inkscape:window-width="958"
     inkscape:window-height="1008"
     inkscape:window-x="-7"
     inkscape:window-y="0"
     inkscape:window-maximized="0" />
  <metadata
     id="metadata7067">
    <rdf:RDF>
      <cc:Work
         rdf:about="">
        <dc:format>image/svg+xml</dc:format>
        <dc:type
           rdf:resource="http://purl.org/dc/dcmitype/StillImage" />
        <dc:title />
      </cc:Work>
    </rdf:RDF>
  </metadata>
  <g
     inkscape:label="Layer 1"
     inkscape:groupmode="layer"
     id="layer1"
     transform="translate(-179.73618,88.250844)">
    <g
       transform="matrix(26.459811,0,0,26.465444,-17782.189,-13058.736)"
       id="tl"
       style="fill:#ffffff">
      <path
         style="fill:#ffffff"
         inkscape:connector-curvature="0"
         id="path2786"
         d="m 682.764,493.478 c 0.024,1.191 0.328,0.619 1.059,0.176 0.699,-0.424 1.78,-0.68 2.557,-0.98 1.249,-0.486 3.045,-0.951 3.919,-2.08 0.504,-0.648 -0.851,-0.516 -1.14,-0.43 -0.785,0.23 -1.479,0.334 -2.283,0.471 -0.862,0.148 -1.66,0.131 -2.545,0.32 -0.334,0.07 -0.785,0.027 -1.066,0.256 -0.298,0.238 -0.34,0.654 -0.65,0.887 0.739,0.357 0.566,0.637 0.203,1.23 m -0.054,0.15 z" />
      <path
         style="fill:#ffffff"
         inkscape:connector-curvature="0"
         id="path2788"
         d="m 678.838,494.162 c 0.588,-0.438 1.281,-0.725 1.999,-0.861 -0.116,0.51 -0.606,0.811 -0.648,1.283 -0.072,-0.129 -0.15,-0.256 -0.234,-0.379 -0.319,0.435 -0.749,0.087 -1.117,-0.043 z" />
    </g>
  </g>
</svg>
