<?xml version="1.0" encoding="UTF-8" standalone="no"?>
<!-- Created with Inkscape (http://www.inkscape.org/) -->

<svg
   xmlns:dc="http://purl.org/dc/elements/1.1/"
   xmlns:cc="http://creativecommons.org/ns#"
   xmlns:rdf="http://www.w3.org/1999/02/22-rdf-syntax-ns#"
   xmlns:svg="http://www.w3.org/2000/svg"
   xmlns="http://www.w3.org/2000/svg"
   xmlns:sodipodi="http://sodipodi.sourceforge.net/DTD/sodipodi-0.dtd"
   xmlns:inkscape="http://www.inkscape.org/namespaces/inkscape"
   width="983.80005mm"
   height="1001.7mm"
   viewBox="0 0 983.80007 1001.6997"
   version="1.1"
   id="svg7070"
   inkscape:version="0.92.4 (5da689c313, 2019-01-14)"
   sodipodi:docname="egypt.svg">
  <defs
     id="defs7064" />
  <sodipodi:namedview
     id="base"
     pagecolor="#ffffff"
     bordercolor="#666666"
     borderopacity="1.0"
     inkscape:pageopacity="0.0"
     inkscape:pageshadow="2"
     inkscape:zoom="7.9195959"
     inkscape:cx="20.577963"
     inkscape:cy="-9.0521082"
     inkscape:document-units="mm"
     inkscape:current-layer="layer1"
     showgrid="false"
     inkscape:window-width="958"
     inkscape:window-height="1008"
     inkscape:window-x="-7"
     inkscape:window-y="0"
     inkscape:window-maximized="0" />
  <metadata
     id="metadata7067">
    <rdf:RDF>
      <cc:Work
         rdf:about="">
        <dc:format>image/svg+xml</dc:format>
        <dc:type
           rdf:resource="http://purl.org/dc/dcmitype/StillImage" />
        <dc:title />
      </cc:Work>
    </rdf:RDF>
  </metadata>
  <g
     inkscape:label="Layer 1"
     inkscape:groupmode="layer"
     id="layer1"
     transform="translate(-151.99606,961.84972)">
    <path
       style="fill:#ffffff;stroke-width:26.45743752"
       inkscape:connector-curvature="0"
       id="eg"
       d="m 156.76326,-795.46104 c -16.64166,-26.64235 15.82167,-54.31645 13.41472,-81.83186 -2.80994,-32.30408 -25.47948,-59.84588 10.97977,-84.55682 0.89998,21.3509 25.79647,13.70475 38.6812,9.86853 23.60052,-7.03766 42.91412,0.78997 66.38263,3.14786 25.63748,2.56688 50.21697,8.25461 75.08746,14.8953 10.47678,2.77787 12.14374,14.20753 22.77953,17.48818 9.4498,2.90986 16.69565,1.71991 26.06146,0.73996 6.29987,-0.65997 9.22981,9.18057 16.29766,10.6358 7.79984,1.61392 15.76868,1.63992 23.62651,2.43389 25.24148,2.51388 42.12114,18.33483 65.77465,22.30335 22.88553,3.83582 44.79307,-11.58816 61.22273,-25.6104 8.51983,-7.24966 16.43067,-15.13349 24.2355,-23.17641 6.71987,5.21176 11.74776,10.5828 20.21359,9.25957 -4.8199,-2.43389 -3.77992,-3.80983 -10.15979,-3.35985 8.27983,-4.39179 16.56265,-12.35552 18.57361,-21.85357 14.28771,8.5456 27.75443,-6.79968 42.01514,-6.69368 -9.59981,4.41879 -18.81162,9.89453 -26.14046,17.64687 2.53994,-1.50793 60.45675,-19.02261 32.80832,-21.00692 20.45158,-6.79968 33.7333,16.64152 53.3909,13.83705 9.3898,-1.32294 18.22962,-10.5828 28.20442,-7.14366 9.2598,3.22785 13.62571,16.64152 21.80155,21.85357 -8.27983,-5.82073 -16.80066,-18.59942 -27.78143,-19.31369 3.24993,8.70459 -8.75982,25.16062 5.41989,28.54716 15.39868,3.70382 8.19983,7.48765 18.17662,16.82671 0,-3.43984 27.49044,-15.0276 7.58985,-24.36696 21.16656,4.92077 28.20341,24.44635 53.0479,22.30335 8.03984,-0.70996 31.80235,-15.58326 27.59543,2.06391 15.39868,-9.78954 32.67533,-4.07481 49.21099,-9.07458 14.5787,-4.36579 22.64853,-4.65678 34.36929,-14.7895 15.76867,35.71702 33.8923,67.06875 48.84099,102.70637 7.27981,17.27649 36.72321,64.81996 23.33551,81.83186 -17.9646,22.80602 -8.6498,62.38576 -20.0816,89.42489 -6.68984,15.82136 -6.39985,25.6634 -6.23985,42.35781 0.2,14.28683 -17.99163,28.09748 -13.51972,42.04033 -8.67982,-8.01663 -20.29358,-11.61466 -29.84438,-18.33474 -12.17075,-8.4926 -20.66358,-20.90112 -28.99841,-32.88616 -10.52978,-15.18638 -41.35314,-25.10782 -36.90823,-47.94024 4.4999,-22.99122 -17.67364,-38.94487 -28.99741,-55.13661 -15.68967,-22.38265 -26.88144,-48.44293 -33.23131,-75.13807 -10.50378,11.32357 -21.72155,35.98161 -10.74178,48.9191 18.78461,22.11816 16.85365,49.26309 32.56933,72.12201 13.62572,19.78997 27.46343,44.02463 44.50208,60.93074 7.53985,7.46065 16.13967,13.88994 23.01853,22.03876 3.62992,4.2598 18.38762,28.67945 0.59998,15.34508 14.41871,11.29717 2.48995,25.6369 11.61476,34.92336 12.32875,12.48771 18.86462,25.68979 25.31948,41.37885 3.14994,7.72564 8.35983,14.33973 12.85874,21.298 3.40993,5.31775 -3.40993,12.09084 -3.72993,17.27649 -0.39999,6.95868 10.95378,17.22359 14.04971,23.22931 7.08986,13.70476 14.8427,27.06563 22.01255,40.77038 23.57456,44.92409 47.36006,89.05452 69.66356,134.69307 8.7298,17.85847 21.5366,30.63726 32.5163,46.69671 10.2128,14.8954 28.0985,19.52538 37.5443,34.71177 -8.9399,0.49998 -17.9917,-1.05795 -26.0085,-5.02677 -5.8999,24.39346 2.5699,52.51734 9.3698,75.98473 4.3699,14.921803 -15.5307,41.749342 -32.1723,41.987431 -8.6799,0.109995 -18.9436,-7.328656 -23.9445,4.179803 -3.86,9.021576 -5.7899,19.340092 -8.7799,28.73235 -3.4399,10.84749 -8.5198,20.398442 -20.5045,23.20291 -9.6798,2.2748928 -30.2944,-1.296939 -35.42731,9.8155384 -9.3898,20.3455436 -2.21995,38.1776056 -30.77036,41.8022356 -27.01344,3.439838 -36.72324,-23.652589 -59.58277,-28.467762 -46.08905,-9.7895402 -96.46501,9.206567 -143.58604,1.084949 1.29997,-4.5507863 6.58986,-14.2074325 3.32993,-18.8903125 -8.22983,-11.8792415 -14.5247,9.6305475 -17.22364,13.5195647 -10.87378,15.5832678 -65.29766,6.2177078 -82.7603,6.2177078 -62.7837,0 -125.56841,0 -188.37911,0 -62.73171,0 -125.43641,0 -188.16812,0 -27.80642,0 -61.09074,5.079761 -88.39517,-0.289986 -7.16986,-1.401935 -5.92988,-62.888545 -6.18988,-71.063761 -4.4699,-125.856388 -6.05987,-252.083158 -9.4698,-378.018938 -1.68997,-61.38041 -0.29999,-122.78733 -3.96992,-184.14134 -1.74996,-29.55251 -1.02998,-60.56026 -5.10989,-89.84828 -3.43993,-25.16072 -9.9198,-62.43877 -21.24557,-85.1124 z" />
  </g>
</svg>
