<?xml version="1.0" encoding="UTF-8" standalone="no"?>
<!-- Created with Inkscape (http://www.inkscape.org/) -->

<svg
   xmlns:dc="http://purl.org/dc/elements/1.1/"
   xmlns:cc="http://creativecommons.org/ns#"
   xmlns:rdf="http://www.w3.org/1999/02/22-rdf-syntax-ns#"
   xmlns:svg="http://www.w3.org/2000/svg"
   xmlns="http://www.w3.org/2000/svg"
   xmlns:sodipodi="http://sodipodi.sourceforge.net/DTD/sodipodi-0.dtd"
   xmlns:inkscape="http://www.inkscape.org/namespaces/inkscape"
   width="210.7mm"
   height="128.7mm"
   viewBox="0 0 210.7 128.7"
   version="1.1"
   id="svg7070"
   inkscape:version="0.92.4 (5da689c313, 2019-01-14)"
   sodipodi:docname="el_salvador.svg">
  <defs
     id="defs7064" />
  <sodipodi:namedview
     id="base"
     pagecolor="#ffffff"
     bordercolor="#666666"
     borderopacity="1.0"
     inkscape:pageopacity="0.0"
     inkscape:pageshadow="2"
     inkscape:zoom="1.4"
     inkscape:cx="-181.57669"
     inkscape:cy="-86.867118"
     inkscape:document-units="mm"
     inkscape:current-layer="layer1"
     showgrid="false"
     inkscape:window-width="958"
     inkscape:window-height="1008"
     inkscape:window-x="-7"
     inkscape:window-y="0"
     inkscape:window-maximized="0" />
  <metadata
     id="metadata7067">
    <rdf:RDF>
      <cc:Work
         rdf:about="">
        <dc:format>image/svg+xml</dc:format>
        <dc:type
           rdf:resource="http://purl.org/dc/dcmitype/StillImage" />
        <dc:title />
      </cc:Work>
    </rdf:RDF>
  </metadata>
  <g
     inkscape:label="Layer 1"
     inkscape:groupmode="layer"
     id="layer1"
     transform="translate(-178.95529,46.51424)">
    <path
       inkscape:connector-curvature="0"
       style="fill:#ffffff;stroke-width:26.45763016"
       d="m 179.42892,22.246423 c -2.49008,-10.159155 5.34016,-15.9266754 11.77435,-21.82638464 9.68029,-8.94225616 13.86442,-4.92059066 22.88669,-8.99525176 2.20007,-1.0049164 12.14437,-16.2969446 18.52156,-19.7362586 3.49011,-1.878843 0.60002,-7.487377 1.53005,-12.011101 2.12006,-10.000368 17.56953,-5.317557 24.13073,-3.491709 10.95433,3.015749 70.06412,40.0016724 64.05794,53.4678523 12.03936,-0.1099908 38.89517,-22.2760473 42.86429,0 10.39832,-6.85243 28.49586,-2.4077997 23.65372,11.9582057 -1.06004,3.095742 -9.55029,44.419805 -12.72639,31.747359 -8.71026,11.693527 8.76027,21.191337 -15.13446,27.725994 -22.64968,6.190485 -39.10718,-15.979471 -58.84577,-10.926392 21.93466,6.032499 -11.35035,3.148739 -16.93352,0.579952 C 271.5287,64.468211 260.04535,53.330537 245.46691,48.9653 231.8135,44.864641 215.99102,50.65816 202.94663,44.097705 195.24639,40.235027 187.91817,27.430392 179.42492,22.245023 Z"
       id="sv" />
  </g>
</svg>
