<?xml version="1.0" encoding="UTF-8" standalone="no"?>
<!-- Created with Inkscape (http://www.inkscape.org/) -->

<svg
   xmlns:dc="http://purl.org/dc/elements/1.1/"
   xmlns:cc="http://creativecommons.org/ns#"
   xmlns:rdf="http://www.w3.org/1999/02/22-rdf-syntax-ns#"
   xmlns:svg="http://www.w3.org/2000/svg"
   xmlns="http://www.w3.org/2000/svg"
   xmlns:sodipodi="http://sodipodi.sourceforge.net/DTD/sodipodi-0.dtd"
   xmlns:inkscape="http://www.inkscape.org/namespaces/inkscape"
   width="263.30002mm"
   height="281.10001mm"
   viewBox="0 0 263.30003 281.09997"
   version="1.1"
   id="svg7070"
   inkscape:version="0.92.4 (5da689c313, 2019-01-14)"
   sodipodi:docname="equatorial_guinea.svg">
  <defs
     id="defs7064" />
  <sodipodi:namedview
     id="base"
     pagecolor="#ffffff"
     bordercolor="#666666"
     borderopacity="1.0"
     inkscape:pageopacity="0.0"
     inkscape:pageshadow="2"
     inkscape:zoom="7.9195959"
     inkscape:cx="-5.1000138"
     inkscape:cy="-13.696438"
     inkscape:document-units="mm"
     inkscape:current-layer="layer1"
     showgrid="false"
     inkscape:window-width="958"
     inkscape:window-height="1008"
     inkscape:window-x="-7"
     inkscape:window-y="0"
     inkscape:window-maximized="0" />
  <metadata
     id="metadata7067">
    <rdf:RDF>
      <cc:Work
         rdf:about="">
        <dc:format>image/svg+xml</dc:format>
        <dc:type
           rdf:resource="http://purl.org/dc/dcmitype/StillImage" />
        <dc:title />
      </cc:Work>
    </rdf:RDF>
  </metadata>
  <g
     inkscape:label="Layer 1"
     inkscape:groupmode="layer"
     id="layer1"
     transform="translate(-159.97934,237.90696)">
    <g
       transform="matrix(26.456806,0,0,26.457145,-7535.9608,-11981.988)"
       id="gq"
       style="fill:#ffffff">
      <path
         style="fill:#ffffff"
         inkscape:connector-curvature="0"
         d="m 291.878,446.037 c 0.233,-0.275 1.32,-2.33 0.358,-2.133 -0.37,0.076 -0.537,0.303 -0.659,0.641 -0.145,0.4 -0.4,0.451 -0.643,0.748 -0.279,0.343 0.767,0.65 0.944,0.744 z"
         id="path5778" />
      <path
         style="fill:#ffffff"
         inkscape:connector-curvature="0"
         d="m 295.024,452.199 c 0.124,0.029 0.24,0.01 0.349,-0.062 -0.696,0.338 -0.063,-0.686 0.06,-0.883 0.354,-0.564 -0.03,-1.266 0.227,-1.945 0.141,1.078 2.165,0.779 2.869,0.719 0.399,-0.033 0.795,-0.055 1.195,-0.061 0.949,-0.014 1.066,-0.16 1.093,0.846 0.024,0.979 0.022,1.957 0.022,2.936 0,0.893 -0.557,0.676 -1.275,0.676 -0.967,0 -2.026,-0.121 -2.982,0.012 -0.257,0.037 -1.288,0.27 -0.825,-0.299 -0.41,-0.211 -1.373,0.236 -1.624,-0.285 -0.23,-0.48 0.686,-1.275 0.891,-1.654 z"
         id="path5784" />
    </g>
  </g>
</svg>
