<?xml version="1.0" encoding="UTF-8" standalone="no"?>
<!-- Created with Inkscape (http://www.inkscape.org/) -->

<svg
   xmlns:dc="http://purl.org/dc/elements/1.1/"
   xmlns:cc="http://creativecommons.org/ns#"
   xmlns:rdf="http://www.w3.org/1999/02/22-rdf-syntax-ns#"
   xmlns:svg="http://www.w3.org/2000/svg"
   xmlns="http://www.w3.org/2000/svg"
   xmlns:sodipodi="http://sodipodi.sourceforge.net/DTD/sodipodi-0.dtd"
   xmlns:inkscape="http://www.inkscape.org/namespaces/inkscape"
   width="1333.1mm"
   height="1158.9mm"
   viewBox="0 0 1333.1 1158.8998"
   version="1.1"
   id="svg7070"
   inkscape:version="0.92.4 (5da689c313, 2019-01-14)"
   sodipodi:docname="ethiopia.svg">
  <defs
     id="defs7064" />
  <sodipodi:namedview
     id="base"
     pagecolor="#ffffff"
     bordercolor="#666666"
     borderopacity="1.0"
     inkscape:pageopacity="0.0"
     inkscape:pageshadow="2"
     inkscape:zoom="7.9195959"
     inkscape:cx="9.4479484"
     inkscape:cy="7.1221424"
     inkscape:document-units="mm"
     inkscape:current-layer="layer1"
     showgrid="false"
     inkscape:window-width="958"
     inkscape:window-height="1008"
     inkscape:window-x="-7"
     inkscape:window-y="0"
     inkscape:window-maximized="0" />
  <metadata
     id="metadata7067">
    <rdf:RDF>
      <cc:Work
         rdf:about="">
        <dc:format>image/svg+xml</dc:format>
        <dc:type
           rdf:resource="http://purl.org/dc/dcmitype/StillImage" />
        <dc:title />
      </cc:Work>
    </rdf:RDF>
  </metadata>
  <g
     inkscape:label="Layer 1"
     inkscape:groupmode="layer"
     id="layer1"
     transform="translate(-156.13019,1110.1987)">
    <path
       inkscape:connector-curvature="0"
       style="fill:#ffffff;stroke-width:26.4575367"
       d="m 156.13019,-403.3306 c 1.63995,-13.65212 14.63053,-20.82212 14.68353,-34.68594 0.1,-23.67954 16.74746,-25.90197 36.69681,-22.48897 17.67343,2.98992 33.01894,8.62476 46.14151,-10.95339 9.09971,-13.49343 3.1199,-36.93488 1.34996,-51.83046 -2.9899,-24.76431 -6.61979,-51.40707 2.64992,-75.2719 3.64988,-9.36574 8.46972,-18.1763 11.87861,-27.62173 4.99984,-13.86372 -0.49998,-23.15036 -0.69998,-36.88187 -0.29999,-13.75792 7.16977,-27.54234 16.05949,-37.86075 10.21267,-11.85307 25.45218,2.30194 25.10819,15.13368 5.92981,-6.48182 29.39405,-42.46442 17.70043,-53.7883 -6.63979,-6.40282 4.04987,-21.5629 6.0598,-28.07152 3.85988,-12.72604 -4.70985,-28.8387 6.60979,-39.18371 18.17641,-16.64173 25.42618,-38.54862 36.64382,-60.9583 4.75984,-9.47173 7.66975,-19.34046 19.26137,-19.92254 4.80985,-0.24 27.51512,2.24893 29.60605,-3.49291 6.3198,-17.43551 4.86984,-39.1308 7.56975,-57.43939 1.58995,-10.39781 5.81982,-18.49389 10.13268,-28.09802 7.74975,-17.17092 5.84981,-33.23068 9.3097,-51.11608 6.55979,-33.7599 20.74233,-21.4042 46.3265,-21.6423 9.89968,-0.11 11.90562,-20.24 25.82317,-12.197 10.79465,6.2439 16.80046,20.6899 23.70524,30.4792 10.42466,-25.8755 20.69033,-51.9363 27.6751,-78.9759 3.96988,6.1378 8.46973,13.9431 15.15951,17.6472 7.27977,3.9949 15.5305,0.77 19.92236,9.5777 8.64972,17.2769 19.26138,19.3141 37.3318,16.0334 6.68978,-1.217 13.73155,-3.0159 18.99638,-7.5668 3.1499,-2.7519 5.86982,-13.07 9.17971,-14.0225 6.0898,-1.693 15.98048,19.1553 17.17144,23.7059 17.22345,-21.6158 46.27351,3.4929 63.97394,-1.2169 24.23522,-6.4559 49.13142,19.3933 69.82075,28.1508 27.70111,11.7208 35.77085,47.54426 58.28612,65.58835 13.57256,10.8212 31.40499,19.49926 39.79172,35.45322 7.66975,14.60459 11.27163,26.82795 24.92319,37.27876 22.91226,17.56781 32.83394,31.06123 17.67343,57.70399 -17.91142,31.45812 -42.43763,49.39632 -36.74881,87.83925 2.79991,19.10237 -4.67985,42.35862 22.64727,40.48007 16.00648,-1.11097 31.88097,-8.75775 47.33246,-12.67314 12.5676,-3.17492 20.0024,11.53547 31.723,7.64578 -1.3,19.97555 -28.3361,29.28859 -15.3195,51.56587 9.4697,16.27144 16.4834,39.2102 29.077,53.12691 8.9998,10.00093 12.8586,11.48258 18.9704,24.07643 4.4399,9.10175 10.2387,23.15036 16.7475,30.77015 6.5598,7.54079 16.9584,9.92172 24.5522,16.11265 11.6676,9.49873 19.7374,24.02353 34.5799,29.34148 59.5821,21.4836 118.4502,44.89855 177.8732,66.80544 28.1511,10.39781 57.2812,25.37279 86.4633,32.3047 27.0131,6.34982 55.3762,-0.70998 82.6803,-0.70998 -72.8647,77.86463 -144.3524,157.29041 -209.0943,242.13985 -13.6255,17.8324 -25.9011,37.04067 -40.4797,54.10579 -15.2925,17.8853 -28.838,15.92746 -50.5863,13.99611 -41.8027,-3.6779 -103.9777,-2.64593 -131.2028,36.326288 -9.4997,13.705018 -15.4245,27.383536 -33.2839,30.955337 -16.4825,3.306908 -35.95586,-1.507958 -51.22137,6.878808 -16.48347,8.995749 -15.92749,26.5633598 -37.54279,21.5893985 -18.15041,-4.1798835 -38.83975,13.8902128 -54.84723,-3.8358935 -6.82978,-7.487791 -14.89552,-26.034274 -26.24515,-27.383536 -10.95365,-1.296964 -25.0552,12.514351 -34.57989,16.85343 -14.86952,6.82581 -37.2528,15.8745574 -47.06848,29.8176688 -4.12987,5.8998352 -4.99984,13.2817302 -9.4197,19.0759682 -5.9298,7.751784 -15.2655,13.070036 -17.35544,23.362049 C 735.03152,37.906599 709.55334,36.186847 694.89581,37.536209 683.57218,38.56818 678.22735,29.016447 668.09468,26.847307 657.56402,24.625369 646.84936,29.440235 636.2657,28.54026 587.00229,24.465373 555.8883,-36.836518 511.65172,-52.234789 c -21.43131,-7.434793 -49.5814,-4.126885 -72.09667,-4.126885 -11.64163,0 -25.45218,-24.341021 -30.34702,-34.262645 -6.84978,-13.837311 4.86984,-32.145901 0.39998,-47.332581 -3.99987,-13.70502 -32.11996,-21.95979 -41.45866,-9.97472 -5.73981,-5.58285 -13.70556,-21.95979 -18.38841,-29.23569 -10.87364,-16.90643 -14.73652,-39.5276 -22.06528,-58.23317 -5.52983,-13.99601 -8.25974,-29.87057 -15.84849,-42.99361 -3.48989,-6.08483 -7.64976,-8.22777 -13.57256,-11.21798 -6.52979,-3.25391 -4.62986,-10.29202 -9.4397,-14.63109 -2.9899,-1.90495 -6.2998,-3.04292 -9.83968,-3.51891 -9.2597,-2.59292 -10.15968,-12.51445 -15.08052,-19.23466 -10.97964,-14.86919 -18.4144,-33.12498 -33.07193,-45.05735 -10.71565,-8.78375 -23.54724,-14.78978 -37.2788,-16.43014 -12.93758,-1.40196 -30.61101,-1.50796 -37.41079,-14.84268 z"
       id="et" />
  </g>
</svg>
