<?xml version="1.0" encoding="UTF-8" standalone="no"?>
<!-- Created with Inkscape (http://www.inkscape.org/) -->

<svg
   xmlns:dc="http://purl.org/dc/elements/1.1/"
   xmlns:cc="http://creativecommons.org/ns#"
   xmlns:rdf="http://www.w3.org/1999/02/22-rdf-syntax-ns#"
   xmlns:svg="http://www.w3.org/2000/svg"
   xmlns="http://www.w3.org/2000/svg"
   xmlns:sodipodi="http://sodipodi.sourceforge.net/DTD/sodipodi-0.dtd"
   xmlns:inkscape="http://www.inkscape.org/namespaces/inkscape"
   width="813mm"
   height="909.5mm"
   viewBox="0 0 812.99996 909.50007"
   version="1.1"
   id="svg7070"
   inkscape:version="0.92.4 (5da689c313, 2019-01-14)"
   sodipodi:docname="finland.svg">
  <defs
     id="defs7064" />
  <sodipodi:namedview
     id="base"
     pagecolor="#ffffff"
     bordercolor="#666666"
     borderopacity="1.0"
     inkscape:pageopacity="0.0"
     inkscape:pageshadow="2"
     inkscape:zoom="1.4"
     inkscape:cx="-103.88027"
     inkscape:cy="-86.082727"
     inkscape:document-units="mm"
     inkscape:current-layer="layer1"
     showgrid="false"
     inkscape:window-width="958"
     inkscape:window-height="1008"
     inkscape:window-x="-7"
     inkscape:window-y="0"
     inkscape:window-maximized="0" />
  <metadata
     id="metadata7067">
    <rdf:RDF>
      <cc:Work
         rdf:about="">
        <dc:format>image/svg+xml</dc:format>
        <dc:type
           rdf:resource="http://purl.org/dc/dcmitype/StillImage" />
        <dc:title />
      </cc:Work>
    </rdf:RDF>
  </metadata>
  <g
     inkscape:label="Layer 1"
     inkscape:groupmode="layer"
     id="layer1"
     transform="translate(-184.86308,863.66371)">
    <g
       transform="matrix(26.457308,0,0,26.45884,-8332.8878,-6112.9879)"
       id="fi"
       style="fill:#ffffff">
      <path
         style="fill:#ffffff"
         inkscape:connector-curvature="0"
         d="m 322.118,231.055 c -0.252,0.279 -0.25,0.337 0.128,0.413 -0.005,-0.15 -0.048,-0.288 -0.128,-0.413 z"
         id="path4630" />
      <path
         style="fill:#ffffff"
         inkscape:connector-curvature="0"
         d="m 322.88,231.722 c 0.428,0.07 0.453,-0.341 0.256,-0.604 0.207,-0.058 0.452,0.373 0.676,0.264 0.455,-0.219 -0.922,-0.687 -1.152,-0.646 0.231,0.189 0.24,0.457 0.031,0.667 -0.021,-0.261 -0.176,-0.423 -0.445,-0.318 0.106,0.292 0.207,0.759 0.634,0.637 z"
         id="path4632" />
      <path
         style="fill:#ffffff"
         inkscape:connector-curvature="0"
         d="m 323.198,231.88 c 1.18,0.452 0.405,-0.358 0,0 z"
         id="path4634" />
      <path
         style="fill:#ffffff"
         inkscape:connector-curvature="0"
         d="m 324.088,232.103 c 0.117,0.056 0.233,0.056 0.349,0 -0.118,0 -0.233,0 -0.349,0 z"
         id="path4636" />
      <path
         style="fill:#ffffff"
         inkscape:connector-curvature="0"
         d="m 325.71,221.175 c 0.652,-0.076 0.18,-0.703 -0.318,-0.285 0.094,0.107 0.201,0.202 0.318,0.285 z"
         id="path4638" />
      <path
         style="fill:#ffffff"
         inkscape:connector-curvature="0"
         d="m 326.759,230.229 c 0.115,-0.011 0.232,-0.021 0.348,-0.032 -0.241,-0.217 -0.357,-0.206 -0.348,0.032 z"
         id="path4642" />
      <path
         style="fill:#ffffff"
         inkscape:connector-curvature="0"
         d="m 327.804,220.445 c -0.115,0.042 -0.232,0.084 -0.348,0.127 0.137,0.011 0.253,-0.031 0.348,-0.127 z"
         id="path4644" />
      <path
         style="fill:#ffffff"
         inkscape:connector-curvature="0"
         d="m 328.218,220.572 c -0.105,0.011 -0.211,0.021 -0.317,0.032 0.315,0.293 0.42,0.283 0.317,-0.032 z"
         id="path4646" />
      <path
         style="fill:#ffffff"
         inkscape:connector-curvature="0"
         d="m 328.474,230.705 c -0.107,-0.108 -0.225,-0.204 -0.354,-0.286 -0.262,0.431 0.26,0.568 0.573,0.477 -0.065,-0.021 -0.226,-0.196 -0.219,-0.191 z"
         id="path4648" />
      <path
         style="fill:#ffffff"
         inkscape:connector-curvature="0"
         d="m 328.376,231.499 c -0.088,-0.05 -0.182,-0.113 -0.285,-0.127 0.095,0.043 0.19,0.085 0.285,0.127 z"
         id="path4650" />
      <path
         style="fill:#ffffff"
         inkscape:connector-curvature="0"
         d="m 328.505,231.467 c 0.211,0.093 0.317,0.05 0.316,-0.127 -0.105,0.042 -0.211,0.085 -0.316,0.127 z"
         id="path4652" />
      <path
         style="fill:#ffffff"
         inkscape:connector-curvature="0"
         d="m 329.808,218.889 c -0.115,0.01 -0.232,0.021 -0.348,0.031 0.105,0.083 0.222,0.146 0.348,0.191 0.034,-0.139 0.148,-0.28 0,-0.222 z"
         id="path4660" />
      <path
         style="fill:#ffffff"
         inkscape:connector-curvature="0"
         d="m 329.519,230.991 c 0.106,0.011 0.213,0.021 0.318,0.032 -0.147,-0.264 -0.15,-0.151 -0.318,-0.032 z"
         id="path4662" />
      <path
         style="fill:#ffffff"
         inkscape:connector-curvature="0"
         d="m 329.709,232.103 c 0.252,-0.026 0.509,-0.001 0.763,-0.018 0.496,-0.032 0.32,-0.755 0.698,-0.968 -0.366,0.229 -0.938,0.349 -1.363,0.254 0.731,0.279 -0.261,0.168 -0.098,0.732 z"
         id="path4664" />
      <path
         style="fill:#ffffff"
         inkscape:connector-curvature="0"
         d="m 330.823,232.103 c 0.171,0.295 0.74,0.535 0.763,0 -0.255,0.069 -0.509,0.069 -0.763,0 z"
         id="path4666" />
      <path
         style="fill:#ffffff"
         inkscape:connector-curvature="0"
         d="m 333.681,214.981 c 0.614,0.314 0.577,-0.261 1.02,-0.095 -0.196,-0.291 -0.912,-0.276 -1.02,0.095 z"
         id="path4670" />
      <path
         style="fill:#ffffff"
         inkscape:connector-curvature="0"
         d="m 322.342,201.672 c 0.366,-0.402 0.874,0.048 1.302,-0.19 -0.108,-0.093 -0.215,-0.188 -0.318,-0.286 1.174,-0.703 2.285,0.158 3.151,1.011 0.608,0.599 1.794,0.993 2.665,0.737 0.471,-0.138 0.775,-0.206 1.158,-0.488 0.352,-0.26 1.321,0.144 1.697,0.251 0.535,0.153 0.752,0.383 1.297,0.284 0.471,-0.085 0.34,-0.723 0.98,-0.767 0.323,-0.022 0.668,-0.158 0.596,-0.555 -0.125,-0.681 0.141,-1.313 0.306,-1.966 0.585,-0.341 1.271,-1.026 1.981,-0.897 0.71,0.129 1.135,-0.057 1.773,-0.327 0.701,-0.296 1.144,0.276 1.762,0.504 0.646,0.238 1.306,0.325 1.949,0.537 1.839,0.607 -1.168,1.765 0.25,2.248 -0.449,0.156 -0.916,0.252 -1.363,0.413 0.242,0.032 1.215,0.097 0.735,0.575 -0.475,0.473 -0.559,0.849 0.038,1.342 0.566,0.467 1.281,0.454 1.906,0.791 0.55,0.296 1.118,0.727 1.638,1.081 1.064,0.727 -2.179,1.971 -1.513,2.898 0.963,1.343 2.561,2.081 3.133,3.764 -0.336,0.018 -0.654,0.132 -0.983,0.191 0.431,0.122 0.216,0.765 0.019,1.093 -0.186,0.31 0.484,0.397 0.586,0.622 -0.602,0.129 -0.58,0.613 -0.18,0.974 0.393,0.353 1.016,-0.036 1.292,0.519 -1.22,0.55 0.507,1.176 0.994,1.42 1.079,0.541 -0.528,1.535 -1.03,1.789 0.958,0.533 1.971,0.961 2.917,1.513 0.466,0.271 0.915,0.575 1.322,0.93 0.438,0.385 0.259,0.55 0.05,1.049 -0.337,0.8 -0.896,1.198 -1.543,1.745 -0.91,0.769 -1.654,1.709 -2.577,2.461 -0.864,0.704 -1.813,1.29 -2.721,1.935 -0.409,0.291 -0.802,0.6 -1.181,0.929 -0.185,0.131 -0.338,0.293 -0.457,0.486 -0.218,0.316 -0.695,0.065 -0.992,0.092 -0.426,0.04 -0.453,-0.339 -0.925,-0.116 -0.361,0.171 -0.7,0.311 -1.108,0.312 -0.172,0.011 -0.328,-0.031 -0.471,-0.125 -0.038,0.147 -0.129,0.245 -0.273,0.291 -0.35,0.109 -0.801,-0.074 -1.094,-0.259 0.275,0.312 0.121,0.419 -0.19,0.445 0.04,0.107 0.083,0.212 0.128,0.318 -0.329,0.084 -0.704,-0.052 -0.697,-0.445 -0.315,0.529 -1.225,0.531 -1.758,0.641 -0.3,0.062 -0.563,0.179 -0.853,0.273 -0.215,0.07 -0.238,0.337 -0.46,0.397 -0.406,0.109 -0.522,-0.251 -0.951,-0.141 -0.648,0.167 -1.369,0.513 -2.049,0.386 0.133,-0.077 0.262,-0.161 0.384,-0.254 -0.526,0.198 -0.907,0.616 -1.495,0.667 0.204,-0.117 0.471,-0.238 0.592,-0.458 0.268,-0.487 -0.541,-0.043 0.206,-0.369 -0.298,0.044 -0.532,-0.091 -0.763,-0.256 -0.395,-0.285 -0.006,-0.556 0.286,-0.824 -0.271,0.084 -2.116,0.69 -1.495,-0.095 -0.59,-0.124 -1.195,-0.118 -1.703,-0.474 -0.215,-0.15 -0.833,-0.619 -0.711,-0.002 -0.183,-0.141 -0.679,-0.307 -0.609,-0.488 0.127,-0.327 -0.269,-1.156 -0.441,-1.449 1.079,0.014 -0.21,-2.153 0.861,-1.588 -0.465,-0.314 -1.039,-1.14 -1.194,-1.677 -0.126,-0.435 0.197,-0.721 -0.093,-1.195 -0.211,-0.347 -0.432,-0.833 -0.654,-0.876 0.244,-0.299 0.834,-1.645 1.367,-1.397 -0.25,-0.193 -0.465,-0.539 -0.287,-0.858 0.475,0.54 1.615,0.205 2.131,-0.095 -0.141,-0.117 -0.68,-0.868 0,-0.381 -0.104,-0.106 -0.211,-0.212 -0.316,-0.317 0.391,0.416 0.635,-0.733 1.398,-0.381 -0.152,-0.661 0.895,-0.868 1.332,-0.984 -0.031,-0.117 -0.063,-0.233 -0.098,-0.35 0.428,-0.017 0.63,-0.25 0.877,-0.561 0.398,-0.502 1.01,-0.7 1.444,-1.154 0.282,-0.295 0.405,-0.688 0.739,-0.975 0.512,-0.439 1.121,-0.123 1.674,-0.01 -0.08,-0.102 -0.152,-0.208 -0.221,-0.318 0.172,-0.059 0.32,-0.154 0.445,-0.286 -0.174,-0.208 -0.683,-0.362 -0.623,-0.572 0.097,-0.341 0.277,-0.759 -0.035,-1.028 -0.479,-0.415 -1.877,-0.329 -1.979,-1.037 -0.47,0.293 -0.902,0.03 -1.204,-0.355 -0.361,-0.462 -0.707,-0.712 -1.115,-1.112 -0.658,-0.644 0.947,-1.611 0.002,-2.417 -0.17,-0.145 -0.756,-0.566 -0.638,-0.812 0.077,-0.162 0.571,-0.598 0.22,-0.733 -0.48,-0.183 -0.664,0.008 -0.709,-0.654 -0.013,-0.206 0.002,-0.42 -0.033,-0.624 -0.036,-0.204 0.381,-0.17 0.363,-0.281 -0.065,-0.406 -0.939,-0.61 -1.223,-0.776 -0.275,-0.16 -0.302,-0.487 -0.652,-0.625 -0.352,-0.137 -0.737,-0.145 -1.104,-0.219 -0.648,-0.131 -1.344,-0.45 -1.959,-0.695 -0.935,-0.375 -1.898,-1.223 -2.905,-1.34 z"
         id="path4682" />
      <path
         style="fill:#ffffff"
         inkscape:connector-curvature="0"
         d="m 329.202,231.182 c -0.113,-0.083 -0.24,-0.114 -0.381,-0.096 0.206,-0.091 0.516,-0.155 0.697,0.031 -0.105,0.022 -0.21,0.043 -0.316,0.065 z"
         id="path4688" />
      <path
         style="fill:#ffffff"
         inkscape:connector-curvature="0"
         d="m 329.581,230.832 c 0.033,-0.07 0.088,-0.101 0.164,-0.095 -0.055,0.032 -0.109,0.063 -0.164,0.095 z"
         id="path4690" />
    </g>
  </g>
</svg>
