<?xml version="1.0" encoding="UTF-8" standalone="no"?>
<!-- Created with Inkscape (http://www.inkscape.org/) -->

<svg
   xmlns:dc="http://purl.org/dc/elements/1.1/"
   xmlns:cc="http://creativecommons.org/ns#"
   xmlns:rdf="http://www.w3.org/1999/02/22-rdf-syntax-ns#"
   xmlns:svg="http://www.w3.org/2000/svg"
   xmlns="http://www.w3.org/2000/svg"
   xmlns:sodipodi="http://sodipodi.sourceforge.net/DTD/sodipodi-0.dtd"
   xmlns:inkscape="http://www.inkscape.org/namespaces/inkscape"
   width="513.59998mm"
   height="630.20001mm"
   viewBox="0 0 513.59999 630.19994"
   version="1.1"
   id="svg7070"
   inkscape:version="0.92.4 (5da689c313, 2019-01-14)"
   sodipodi:docname="gabon.svg">
  <defs
     id="defs7064" />
  <sodipodi:namedview
     id="base"
     pagecolor="#ffffff"
     bordercolor="#666666"
     borderopacity="1.0"
     inkscape:pageopacity="0.0"
     inkscape:pageshadow="2"
     inkscape:zoom="7.9195959"
     inkscape:cx="-0.98465581"
     inkscape:cy="-6.0025599"
     inkscape:document-units="mm"
     inkscape:current-layer="layer1"
     showgrid="false"
     inkscape:window-width="958"
     inkscape:window-height="1008"
     inkscape:window-x="-7"
     inkscape:window-y="0"
     inkscape:window-maximized="0" />
  <metadata
     id="metadata7067">
    <rdf:RDF>
      <cc:Work
         rdf:about="">
        <dc:format>image/svg+xml</dc:format>
        <dc:type
           rdf:resource="http://purl.org/dc/dcmitype/StillImage" />
        <dc:title />
      </cc:Work>
    </rdf:RDF>
  </metadata>
  <g
     inkscape:label="Layer 1"
     inkscape:groupmode="layer"
     id="layer1"
     transform="translate(-158.89048,584.97129)">
    <g
       transform="matrix(26.457002,0,0,26.458121,-7568.9109,-12476.421)"
       id="ga"
       style="fill:#ffffff">
      <path
         style="fill:#ffffff"
         inkscape:connector-curvature="0"
         d="m 292.802,460.935 c 0.043,0.084 0.085,0.168 0.128,0.252 0.122,-0.215 0.09,-0.404 -0.097,-0.568 -0.011,0.105 -0.021,0.211 -0.031,0.316 z"
         id="path5980" />
      <path
         style="fill:#ffffff"
         inkscape:connector-curvature="0"
         d="m 292.354,461.634 c -0.207,-0.281 -0.365,-0.643 -0.189,-0.984 0.011,0.258 0.106,0.48 0.287,0.666 0.071,-0.721 0.5,-0.125 0.477,0.287 0.071,-0.881 0.967,-1.381 1.064,-2.242 0.067,-0.594 -0.313,-1.75 0.207,-2.205 0.022,0.289 0.237,0.498 0.379,0.732 0.098,-0.477 0.798,-0.213 1.015,0.189 -0.057,-0.406 0.38,-0.555 0.701,-0.543 -0.804,0 -1.422,-0.166 -1.882,-0.877 -0.183,-0.283 -0.775,-0.643 -0.121,-0.773 0.279,-0.057 0.655,0.086 0.666,0.416 0.236,-0.527 -0.161,-1.229 -0.01,-1.791 0.083,-0.309 0.36,-0.258 0.59,-0.133 0.412,0.223 0.9,0.049 1.352,0.049 0.584,0 3.729,0.344 3.938,-0.215 0.311,-0.824 -0.121,-2.201 -0.144,-3.064 -0.032,-1.219 0.146,-1.797 1.422,-1.689 0.673,0.057 1.331,0.09 2.007,0.053 0.648,-0.037 1.27,0.23 1.898,0.174 0.997,-0.09 1.776,-0.219 1.094,1.016 -0.536,0.969 0.271,1.986 -0.077,2.9 0.761,-0.131 1.446,-0.537 2.2,-0.699 1.131,-0.244 1.277,0.389 1.646,1.266 0.373,0.881 0.585,1.594 -0.589,1.922 -0.729,0.205 -0.776,1.43 -0.708,2.014 0.033,0.277 -0.641,1.123 0.02,1.104 0.184,-0.006 0.799,0.33 0.771,0.553 -0.03,0.248 0.665,0.285 0.892,0.471 0.681,0.551 -0.32,1.408 -0.066,2.062 0.179,0.459 0.553,1.834 -0.128,2.074 0.479,0.32 0.145,1.154 -0.299,1.334 -0.123,0.051 -0.371,1.15 -0.336,1.193 0.276,0.324 -0.365,1.016 -0.73,0.979 -0.385,-0.041 -0.559,-1.314 -0.731,-1.631 -0.118,0.41 -0.657,1.227 -1.129,1.283 -0.476,0.057 -0.976,-0.502 -1.442,-0.232 0.596,-1.033 -2.001,-3.104 -1.814,-1.209 0.113,1.146 -0.179,1.1 -1.218,1.354 -0.355,0.086 -0.29,-0.389 -0.619,-0.244 -0.47,0.205 -0.681,0.049 -1.149,-0.061 0.173,0.629 0.291,1.307 -0.123,1.875 0.402,-0.111 0.541,0.32 0.75,0.553 0.268,0.295 -0.314,0.439 -0.197,0.795 0.08,0.24 0.475,0.303 0.639,0.475 0.346,0.359 -0.112,0.586 -0.077,0.943 0.028,0.291 0.354,0.568 -0.165,0.596 -0.549,0.029 -0.597,-0.521 -1.026,-0.693 -0.593,-0.242 -1.2,1.309 -1.292,1.586 -0.732,-0.574 -1.367,-1.77 -1.873,-2.541 -0.744,-1.135 -1.865,-2.045 -2.83,-2.982 0.535,-0.332 0.713,0.893 1.208,0.281 -0.357,0.035 -0.869,-0.408 -1.257,-0.504 -0.623,-0.154 -1.076,-1.59 -1.474,-2.098 0.402,0.035 0.547,0.477 0.922,0.572 -0.341,-0.551 -0.405,-0.42 -0.893,-0.705 -0.222,-0.131 -0.154,-0.523 -0.208,-0.719 -0.132,-0.479 -0.475,-0.855 -0.713,-1.281 0.308,0.258 0.92,0.816 0.825,1.275 0.317,-0.109 0.65,-0.18 0.988,-0.158 -0.184,-0.139 -0.332,-0.311 -0.446,-0.512 -0.071,0.252 -0.259,0.383 -0.512,0.256 0.042,-0.332 0.306,-0.635 0.164,-0.984 -0.501,1.45 -1.416,-1.353 -1.655,-1.529 z"
         id="path6014" />
    </g>
  </g>
</svg>
