<?xml version="1.0" encoding="UTF-8" standalone="no"?>
<!-- Created with Inkscape (http://www.inkscape.org/) -->

<svg
   xmlns:dc="http://purl.org/dc/elements/1.1/"
   xmlns:cc="http://creativecommons.org/ns#"
   xmlns:rdf="http://www.w3.org/1999/02/22-rdf-syntax-ns#"
   xmlns:svg="http://www.w3.org/2000/svg"
   xmlns="http://www.w3.org/2000/svg"
   xmlns:sodipodi="http://sodipodi.sourceforge.net/DTD/sodipodi-0.dtd"
   xmlns:inkscape="http://www.inkscape.org/namespaces/inkscape"
   width="576.90002mm"
   height="246.2mm"
   viewBox="0 0 576.89998 246.20002"
   version="1.1"
   id="svg7070"
   inkscape:version="0.92.4 (5da689c313, 2019-01-14)"
   sodipodi:docname="georgia.svg">
  <defs
     id="defs7064" />
  <sodipodi:namedview
     id="base"
     pagecolor="#ffffff"
     bordercolor="#666666"
     borderopacity="1.0"
     inkscape:pageopacity="0.0"
     inkscape:pageshadow="2"
     inkscape:zoom="7.9195959"
     inkscape:cx="4.8861453"
     inkscape:cy="-13.796185"
     inkscape:document-units="mm"
     inkscape:current-layer="layer1"
     showgrid="false"
     inkscape:window-width="958"
     inkscape:window-height="1008"
     inkscape:window-x="-7"
     inkscape:window-y="0"
     inkscape:window-maximized="0" />
  <metadata
     id="metadata7067">
    <rdf:RDF>
      <cc:Work
         rdf:about="">
        <dc:format>image/svg+xml</dc:format>
        <dc:type
           rdf:resource="http://purl.org/dc/dcmitype/StillImage" />
        <dc:title />
      </cc:Work>
    </rdf:RDF>
  </metadata>
  <g
     inkscape:label="Layer 1"
     inkscape:groupmode="layer"
     id="layer1"
     transform="translate(-157.33718,200.48698)">
    <path
       inkscape:connector-curvature="0"
       style="fill:#ffffff;stroke-width:26.45870209"
       d="m 157.36258,-182.38038 c -1.80005,-39.87266 92.6339,-2.40799 110.83747,4.10099 21.64368,7.69897 40.48327,17.51534 64.90503,13.67895 11.56237,-1.79899 20.63765,-5.82098 31.37999,1.693 9.5803,6.69397 21.40567,-0.4 31.72499,3.38698 7.88025,2.88399 12.8584,11.50926 19.94963,15.84845 8.57026,5.23898 18.65358,7.35497 28.15288,10.21286 8.02025,2.38099 16.69552,5.02699 23.41673,10.13357 9.26029,7.01097 -2.28007,12.17076 7.59024,16.16594 25.03078,10.080567 64.19001,-33.23158 80.46252,0.4 0.80002,-11.98566 9.34029,-12.30316 18.49458,-8.81097 4.84015,0.19 9.45029,1.244 13.89143,3.22799 4.37014,3.94199 7.99025,11.98556 13.78543,13.996351 9.4503,3.280988 28.5759,-6.190981 33.36505,7.751973 3.49011,10.159965 -8.20026,19.790731 1.93006,28.6278 15.66349,13.599553 34.92609,11.350661 52.25664,18.944134 27.91487,12.197258 -13.49343,20.637428 -0.20001,36.9356717 8.15025,9.9749653 45.40442,25.8233103 44.92741,38.7613653 -1.08004,29.395097 -38.49721,-0.559998 -47.22948,2.645991 -23.46874,8.51997 -38.44521,-19.737832 -60.40589,-24.050517 -8.78028,-1.6929938 -15.58449,2.116993 -22.1197,7.540974 -6.14019,5.079982 -23.09872,10.900862 -20.16263,14.816648 -14.34045,1.004997 -28.6809,-1.851993 -43.02235,-0.949996 -15.00247,0.949996 -27.67586,7.698973 -43.23435,7.645973 -15.02847,-0.0529 -22.4367,2.592991 -34.26407,-2.380992 C 458.82402,35.878764 439.34541,34.423769 447.25666,25.216301 434.08025,20.903316 424.92496,1.298084 409.42047,4.2084739 416.86071,-12.433768 391.85192,-3.5964989 387.9358,6.2724667 385.15571,13.230442 349.19959,5.9324679 340.54732,4.2084739 332.68707,5.2934701 336.7672,13.733441 326.49688,10.637452 315.75454,7.3834628 304.58919,6.6154655 310.17237,-5.4755924 c 8.31026,-18.1239366 15.02847,-29.5802966 2.01006,-47.9423326 -12.40939,-17.48894 -14.05044,-40.190061 -26.14182,-57.890695 -10.00231,-14.65785 -28.28488,-13.09676 -38.92222,-27.04031 -9.97031,-13.07035 -30.95697,-14.89595 -45.50942,-17.01264 -20.16163,-2.93699 -25.05679,-24.28862 -44.26639,-27.01381 z"
       id="ge" />
  </g>
</svg>
