<?xml version="1.0" encoding="UTF-8" standalone="no"?>
<!-- Created with Inkscape (http://www.inkscape.org/) -->

<svg
   xmlns:dc="http://purl.org/dc/elements/1.1/"
   xmlns:cc="http://creativecommons.org/ns#"
   xmlns:rdf="http://www.w3.org/1999/02/22-rdf-syntax-ns#"
   xmlns:svg="http://www.w3.org/2000/svg"
   xmlns="http://www.w3.org/2000/svg"
   xmlns:sodipodi="http://sodipodi.sourceforge.net/DTD/sodipodi-0.dtd"
   xmlns:inkscape="http://www.inkscape.org/namespaces/inkscape"
   width="392.60001mm"
   height="644.5mm"
   viewBox="0 0 392.60003 644.49982"
   version="1.1"
   id="svg7070"
   inkscape:version="0.92.4 (5da689c313, 2019-01-14)"
   sodipodi:docname="ghana.svg">
  <defs
     id="defs7064" />
  <sodipodi:namedview
     id="base"
     pagecolor="#ffffff"
     bordercolor="#666666"
     borderopacity="1.0"
     inkscape:pageopacity="0.0"
     inkscape:pageshadow="2"
     inkscape:zoom="7.9195959"
     inkscape:cx="-1.7733705"
     inkscape:cy="-0.75335671"
     inkscape:document-units="mm"
     inkscape:current-layer="layer1"
     showgrid="false"
     inkscape:window-width="958"
     inkscape:window-height="1008"
     inkscape:window-x="-7"
     inkscape:window-y="0"
     inkscape:window-maximized="0" />
  <metadata
     id="metadata7067">
    <rdf:RDF>
      <cc:Work
         rdf:about="">
        <dc:format>image/svg+xml</dc:format>
        <dc:type
           rdf:resource="http://purl.org/dc/dcmitype/StillImage" />
        <dc:title />
      </cc:Work>
    </rdf:RDF>
  </metadata>
  <g
     inkscape:label="Layer 1"
     inkscape:groupmode="layer"
     id="layer1"
     transform="translate(-157.90984,602.45401)">
    <path
       style="fill:#ffffff;stroke-width:26.45809555"
       inkscape:connector-curvature="0"
       id="gh"
       d="m 162.05569,-110.51774 c -5.36959,-28.62959 -7.27944,-51.57034 5.25959,-78.55943 10.79417,-23.25828 5.68957,-31.72538 14.3389,-55.03655 6.39951,-17.19892 28.46781,-39.31942 35.34628,-54.26931 9.36928,-20.3741 3.43974,-51.30573 -2.74979,-72.23546 -2.45981,-8.30849 -7.87939,-14.42065 -11.27013,-22.22631 -3.61972,-8.3085 3.24975,-16.74909 3.8597,-25.3221 1.44989,-19.63326 -9.57926,-33.8423 -5.52957,-52.76112 4.30967,-20.24179 -4.04969,-41.93887 -7.7794,-61.62503 -1.74987,-9.36656 -11.61411,-19.84498 -5.86955,-29.71446 4.49965,-7.72645 10.84716,-18.76011 7.98938,-28.12686 48.97024,4.36626 98.15245,-3.17519 146.11776,1.87911 10.08023,1.05806 36.90716,-4.73628 44.10261,2.48715 10.53019,10.53102 23.14922,-6.64139 32.4885,-13.62691 7.45943,-5.55632 34.68433,-3.12218 30.76863,9.84259 -6.60949,21.82948 -15.00084,29.52924 4.73964,45.53748 15.6358,12.70075 26.32397,22.88786 24.15514,42.97094 -0.89993,8.28149 3.9197,7.96447 -0.1,16.9078 -5.15961,11.53658 -2.16984,26.69808 0.1,38.55208 -12.40805,-1.90512 -7.16945,6.98541 -12.62003,14.31484 7.53942,1.29708 12.93701,-7.27643 19.94847,-5.31831 10.23821,2.88417 9.17929,17.41063 7.6994,25.16328 -2.37981,12.40974 1.13992,46.78116 -14.2339,48.20995 4.88962,12.46264 18.06961,20.16249 25.66302,30.79932 9.04931,12.75365 0.79994,19.23633 -4.41966,31.06393 -6.3795,14.36775 5.2696,31.67247 -2.61979,45.37878 -9.36928,16.16696 -5.44958,19.36864 3.77971,33.18066 5.02961,7.54145 -3.30975,24.39604 -6.26952,31.88418 -7.16945,18.09857 -7.48943,28.41788 2.82978,46.46355 6.5295,11.43067 20.39743,21.45896 30.79563,29.50284 2.82978,2.22213 21.34936,12.70075 21.66733,13.94432 2.48981,9.604569 -13.25498,14.261944 -15.71479,22.385123 -3.35974,11.00725 -10.98015,20.374103 -24.18114,18.865914 -7.35943,-0.820048 -9.70925,-17.304822 -13.70494,-22.279315 -8.64934,-10.531022 -23.22822,-6.509385 -34.65734,-11.377672 9.1793,7.382436 24.26014,2.831167 34.07538,10.028292 19.39251,14.261842 -10.29121,23.311176 -19.92146,25.004576 -36.64219,6.403378 -59.8174,27.227208 -90.21606,45.37868 -17.46066,10.3988135 -36.82717,10.1341979 -55.39974,17.7281463 -11.24314,4.6042718 -24.04815,7.1444217 -33.67841,14.8704777 -7.98939,6.456381 -14.62988,14.976285 -23.86317,19.844872 -9.52926,5.001295 -17.11768,3.307195 -24.23413,-4.128244 C 239.08876,24.982865 228.56157,23.686388 215.80955,19.876164 202.47558,15.853926 175.33167,18.262068 167.0503,4.6352636 177.97746,4.3152447 188.90362,3.4971964 199.85678,3.8152152 194.98716,-10.340921 209.56603,-55.7196 179.67033,-47.464112 c 4.86963,-17.886857 -8.01938,-48.26285 -17.61964,-63.053928 z" />
  </g>
</svg>
