<?xml version="1.0" encoding="UTF-8" standalone="no"?>
<!-- Created with Inkscape (http://www.inkscape.org/) -->

<svg
   xmlns:dc="http://purl.org/dc/elements/1.1/"
   xmlns:cc="http://creativecommons.org/ns#"
   xmlns:rdf="http://www.w3.org/1999/02/22-rdf-syntax-ns#"
   xmlns:svg="http://www.w3.org/2000/svg"
   xmlns="http://www.w3.org/2000/svg"
   xmlns:sodipodi="http://sodipodi.sourceforge.net/DTD/sodipodi-0.dtd"
   xmlns:inkscape="http://www.inkscape.org/namespaces/inkscape"
   width="3.926302mm"
   height="6.4446197mm"
   viewBox="0 0 3.9263022 6.4446179"
   version="1.1"
   id="svg7070"
   inkscape:version="0.92.4 (5da689c313, 2019-01-14)"
   sodipodi:docname="ghana.svg">
  <defs
     id="defs7064" />
  <sodipodi:namedview
     id="base"
     pagecolor="#ffffff"
     bordercolor="#666666"
     borderopacity="1.0"
     inkscape:pageopacity="0.0"
     inkscape:pageshadow="2"
     inkscape:zoom="7.9195959"
     inkscape:cx="14.831004"
     inkscape:cy="-0.75335407"
     inkscape:document-units="mm"
     inkscape:current-layer="layer1"
     showgrid="false"
     inkscape:window-width="958"
     inkscape:window-height="1008"
     inkscape:window-x="-7"
     inkscape:window-y="0"
     inkscape:window-maximized="0" />
  <metadata
     id="metadata7067">
    <rdf:RDF>
      <cc:Work
         rdf:about="">
        <dc:format>image/svg+xml</dc:format>
        <dc:type
           rdf:resource="http://purl.org/dc/dcmitype/StillImage" />
        <dc:title></dc:title>
      </cc:Work>
    </rdf:RDF>
  </metadata>
  <g
     inkscape:label="Layer 1"
     inkscape:groupmode="layer"
     id="layer1"
     transform="translate(-157.90984,-35.60137)">
    <path
       style="fill:#aaaaaa;stroke-width:0.26458332"
       inkscape:connector-curvature="0"
       id="gh"
       d="m 157.9513,40.520442 c -0.0537,-0.286279 -0.0728,-0.515673 0.0526,-0.785548 0.10795,-0.232569 0.0569,-0.317235 0.1434,-0.550333 0.064,-0.171979 0.2847,-0.393171 0.35349,-0.542661 0.0937,-0.203729 0.0344,-0.513027 -0.0275,-0.722312 -0.0246,-0.08308 -0.0788,-0.144198 -0.11271,-0.22225 -0.0362,-0.08308 0.0325,-0.167481 0.0386,-0.253206 0.0145,-0.196321 -0.0958,-0.338403 -0.0553,-0.52758 0.0431,-0.202406 -0.0405,-0.419364 -0.0778,-0.616214 -0.0175,-0.09366 -0.11615,-0.198438 -0.0587,-0.297127 0.045,-0.07726 0.10848,-0.18759 0.0799,-0.281252 0.48974,0.04366 0.9816,-0.03175 1.46129,0.01879 0.10081,0.01058 0.3691,-0.04736 0.44106,0.02487 0.10531,0.105304 0.23151,-0.06641 0.32491,-0.136261 0.0746,-0.05556 0.34687,-0.03122 0.30771,0.09842 -0.0661,0.218282 -0.15002,0.295275 0.0474,0.455348 0.15637,0.127 0.26326,0.228865 0.24157,0.429684 -0.009,0.08281 0.0392,0.07964 -0.001,0.169068 -0.0516,0.115359 -0.0217,0.266965 0.001,0.385498 -0.12409,-0.01905 -0.0717,0.06985 -0.12621,0.14314 0.0754,0.01297 0.12938,-0.07276 0.1995,-0.05318 0.10239,0.02884 0.0918,0.174096 0.077,0.251618 -0.0238,0.12409 0.0114,0.467784 -0.14235,0.482071 0.0489,0.124619 0.18071,0.201613 0.25665,0.307975 0.0905,0.127529 0.008,0.192352 -0.0442,0.310621 -0.0638,0.143669 0.0527,0.316706 -0.0262,0.453761 -0.0937,0.16166 -0.0545,0.193675 0.0378,0.331787 0.0503,0.07541 -0.0331,0.243946 -0.0627,0.318823 -0.0717,0.180975 -0.0749,0.284162 0.0283,0.464608 0.0653,0.1143 0.20399,0.214577 0.30798,0.295011 0.0283,0.02222 0.21351,0.127 0.21669,0.139435 0.0249,0.09604 -0.13256,0.142611 -0.15716,0.223838 -0.0336,0.110066 -0.10981,0.203729 -0.24183,0.188648 -0.0736,-0.0082 -0.0971,-0.173038 -0.13706,-0.22278 -0.0865,-0.105304 -0.2323,-0.06509 -0.3466,-0.11377 0.0918,0.07382 0.24262,0.02831 0.34078,0.100277 0.19394,0.14261 -0.10292,0.233098 -0.19923,0.250031 -0.36645,0.06403 -0.59822,0.272256 -0.90223,0.45376 -0.17462,0.103982 -0.3683,0.101336 -0.55404,0.177271 -0.11244,0.04604 -0.2405,0.07144 -0.33681,0.148696 -0.0799,0.06456 -0.14631,0.149754 -0.23865,0.198437 -0.0953,0.05001 -0.17119,0.03307 -0.24236,-0.04128 -0.0966,-0.100806 -0.20188,-0.11377 -0.32941,-0.15187 -0.13335,-0.04022 -0.40481,-0.01614 -0.48763,-0.1524 0.10928,-0.0032 0.21855,-0.01138 0.32809,-0.0082 -0.0487,-0.141553 0.0971,-0.595313 -0.20188,-0.512763 0.0487,-0.178858 -0.0802,-0.4826 -0.17621,-0.630502 z" />
  </g>
</svg>
