<?xml version="1.0" encoding="UTF-8" standalone="no"?>
<!-- Created with Inkscape (http://www.inkscape.org/) -->

<svg
   xmlns:dc="http://purl.org/dc/elements/1.1/"
   xmlns:cc="http://creativecommons.org/ns#"
   xmlns:rdf="http://www.w3.org/1999/02/22-rdf-syntax-ns#"
   xmlns:svg="http://www.w3.org/2000/svg"
   xmlns="http://www.w3.org/2000/svg"
   xmlns:sodipodi="http://sodipodi.sourceforge.net/DTD/sodipodi-0.dtd"
   xmlns:inkscape="http://www.inkscape.org/namespaces/inkscape"
   width="35.894962mm"
   height="19.116037mm"
   viewBox="0 0 35.894961 19.116038"
   version="1.1"
   id="svg7070"
   inkscape:version="0.92.4 (5da689c313, 2019-01-14)"
   sodipodi:docname="greenland.svg">
  <defs
     id="defs7064" />
  <sodipodi:namedview
     id="base"
     pagecolor="#ffffff"
     bordercolor="#666666"
     borderopacity="1.0"
     inkscape:pageopacity="0.0"
     inkscape:pageshadow="2"
     inkscape:zoom="1.4"
     inkscape:cx="93.637948"
     inkscape:cy="-49.227444"
     inkscape:document-units="mm"
     inkscape:current-layer="layer1"
     showgrid="false"
     inkscape:window-width="958"
     inkscape:window-height="1008"
     inkscape:window-x="-7"
     inkscape:window-y="0"
     inkscape:window-maximized="0" />
  <metadata
     id="metadata7067">
    <rdf:RDF>
      <cc:Work
         rdf:about="">
        <dc:format>image/svg+xml</dc:format>
        <dc:type
           rdf:resource="http://purl.org/dc/dcmitype/StillImage" />
        <dc:title></dc:title>
      </cc:Work>
    </rdf:RDF>
  </metadata>
  <g
     inkscape:label="Layer 1"
     inkscape:groupmode="layer"
     id="layer1"
     transform="translate(-157.45498,-36.471543)">
    <g
       transform="matrix(0.26458333,0,0,0.26458333,126.80565,-6.0246161)"
       id="gl">
      <path
         style="fill:#aaaaaa"
         inkscape:connector-curvature="0"
         d="m 126.441,178.705 c 0.266,0.062 0.519,0.157 0.759,0.286 -0.53,-0.093 -1.361,-0.388 -1.46,0.413 0.266,0 0.51,0.138 0.667,0.35 -0.402,-0.157 -0.963,-0.434 -1.302,0 0.623,0.527 1.564,0.439 2.321,0.413 -0.841,0.319 0.208,0.132 0.348,0.096 -0.854,0.412 0.763,-0.222 0.984,-0.191 -0.292,0.008 -0.979,0.313 -0.318,0.445 -0.678,0 -1.358,-0.045 -2.034,0.032 -0.035,1.125 3.037,0.287 3.519,0.217 0.548,-0.08 2.646,-0.349 2.626,-1.165 -0.014,-0.529 -0.95,-0.564 -1.303,-0.674 -0.749,-0.232 -1.11,-0.93 -1.955,-1.006 -0.79,-0.071 -1.5,-0.319 -2.28,-0.039 -0.298,0.106 -1.292,0.525 -0.572,0.823 z"
         id="path4242" />
      <path
         style="fill:#aaaaaa"
         inkscape:connector-curvature="0"
         d="m 126.565,177.18 c -0.129,0.107 -0.117,0.224 0.035,0.35 0.122,-0.065 0.228,-0.149 0.318,-0.254 -0.118,-0.032 -0.236,-0.064 -0.353,-0.096 z"
         id="path4252" />
      <path
         style="fill:#aaaaaa"
         inkscape:connector-curvature="0"
         d="m 127.358,172.765 c 0.18,0.391 0.62,0.189 0.732,-0.127 -0.246,0.028 -0.49,0.07 -0.732,0.127 z"
         id="path4262" />
      <path
         style="fill:#aaaaaa"
         inkscape:connector-curvature="0"
         d="m 131.457,174.607 c -0.459,0.017 -0.997,0.256 -1.271,0.635 0.491,0.215 1.832,0.224 1.271,-0.635 z"
         id="path4322" />
      <path
         style="fill:#aaaaaa"
         inkscape:connector-curvature="0"
         d="m 132.759,173.909 c 0.451,-0.064 0.913,-0.213 1.306,-0.445 -0.453,0.074 -1.029,-0.144 -1.452,0.014 -0.361,0.133 -0.172,0.445 0.146,0.431 z"
         id="path4330" />
      <path
         style="fill:#aaaaaa"
         inkscape:connector-curvature="0"
         d="m 132.569,174.48 c -0.587,0.722 1.37,0.357 1.685,-0.032 -0.566,0.04 -1.129,-0.173 -1.685,0.032 z"
         id="path4332" />
      <path
         style="fill:#aaaaaa"
         inkscape:connector-curvature="0"
         d="m 133.553,173.94 c -0.24,-0.03 -0.462,0.022 -0.666,0.158 0.225,-0.039 0.447,-0.092 0.666,-0.158 z"
         id="path4336" />
      <path
         style="fill:#aaaaaa"
         inkscape:connector-curvature="0"
         d="m 134.7,175.624 c -0.257,-0.038 -0.389,0.092 -0.353,0.35 0.351,0.044 0.724,0.076 1.05,-0.096 -0.232,-0.085 -0.465,-0.17 -0.697,-0.254 z"
         id="path4342" />
      <path
         style="fill:#aaaaaa"
         inkscape:connector-curvature="0"
         d="m 135.177,176.641 c -0.092,-0.268 -0.451,-0.283 -0.671,-0.223 0.216,0.097 0.439,0.171 0.671,0.223 z"
         id="path4344" />
      <path
         style="fill:#aaaaaa"
         inkscape:connector-curvature="0"
         d="m 134.634,176.99 c 0.096,0.062 0.202,0.093 0.318,0.095 -0.106,-0.032 -0.213,-0.064 -0.318,-0.095 z"
         id="path4346" />
      <path
         style="fill:#aaaaaa"
         inkscape:connector-curvature="0"
         d="m 135.587,177.148 c -0.205,-0.174 -0.438,-0.227 -0.697,-0.159 0.228,0.072 0.461,0.124 0.697,0.159 z"
         id="path4348" />
      <path
         style="fill:#aaaaaa"
         inkscape:connector-curvature="0"
         d="m 136.933,209.168 c 0.243,0.01 0.465,-0.053 0.667,-0.19 -0.234,0.024 -0.456,0.087 -0.667,0.19 z"
         id="path4228" />
      <path
         style="fill:#aaaaaa"
         inkscape:connector-curvature="0"
         d="m 138.455,208.66 c -0.563,0.006 -1.104,0.205 -1.65,0.318 0.441,-0.385 1.109,-0.335 1.65,-0.318 z"
         id="path4528" />
      <path
         style="fill:#aaaaaa"
         inkscape:connector-curvature="0"
         d="m 139.029,204.817 c 0.17,0.292 0.286,0.249 0.349,-0.127 -0.117,0.041 -0.233,0.084 -0.349,0.127 z"
         id="path4248" />
      <path
         style="fill:#aaaaaa"
         inkscape:connector-curvature="0"
         d="m 140.965,203.451 c -0.22,0.083 -0.422,0.2 -0.604,0.35 0.27,0.145 0.82,0.08 0.604,-0.35 z"
         id="path4260" />
      <path
         style="fill:#aaaaaa"
         inkscape:connector-curvature="0"
         d="m 141.252,203.229 c -0.111,0.043 -0.217,0.096 -0.318,0.159 0.107,-0.054 0.212,-0.107 0.318,-0.159 z"
         id="path4268" />
      <path
         style="fill:#aaaaaa"
         inkscape:connector-curvature="0"
         d="m 141.601,202.815 c -0.12,0.02 -0.236,0.051 -0.349,0.095 0.116,-0.031 0.232,-0.063 0.349,-0.095 z"
         id="path4272" />
      <path
         style="fill:#aaaaaa"
         inkscape:connector-curvature="0"
         d="m 142.011,202.72 c -0.103,0.028 -0.214,0.052 -0.313,0.095 0.105,-0.032 0.209,-0.063 0.313,-0.095 z"
         id="path4282" />
      <path
         style="fill:#aaaaaa"
         inkscape:connector-curvature="0"
         d="m 142.139,204.467 c 0.252,0.137 1.204,-0.147 0.353,0.223 0.537,-0.041 1.229,-0.1 1.65,-0.477 -0.66,0.14 -1.333,0.196 -2.003,0.254 z"
         id="path4294" />
      <path
         style="fill:#aaaaaa"
         inkscape:connector-curvature="0"
         d="m 142.841,204.753 c 0.195,0.293 1.429,0.025 1.65,-0.159 -0.53,-0.126 -1.136,0.038 -1.65,0.159 z"
         id="path4304" />
      <path
         style="fill:#aaaaaa"
         inkscape:connector-curvature="0"
         d="m 139.757,200.084 c 0.085,0.089 0.191,0.101 0.317,0.031 -0.105,-0.01 -0.212,-0.02 -0.317,-0.031 z"
         id="path4256" />
      <path
         style="fill:#aaaaaa"
         inkscape:connector-curvature="0"
         d="m 143.317,202.784 c -0.797,-0.126 -1.574,0.116 -2.352,0.254 0.604,0.191 1.833,0.147 2.352,-0.254 z"
         id="path4270" />
      <path
         style="fill:#aaaaaa"
         inkscape:connector-curvature="0"
         d="m 148.333,198.844 c -0.247,-0.034 -0.479,0.008 -0.697,0.128 0.912,-0.051 -1.097,0.508 -0.465,1.066 0.313,0.276 0.564,0.026 0.71,-0.243 0.227,-0.415 0.678,-0.363 1.025,-0.602 -0.161,-0.164 -0.352,-0.28 -0.573,-0.349 z"
         id="path4338" />
      <path
         style="fill:#aaaaaa"
         inkscape:connector-curvature="0"
         d="m 142.651,189.919 c -0.436,-0.07 -0.995,0.069 -1.337,0.35 0.423,-0.021 1.017,-0.021 1.337,-0.35 z"
         id="path4274" />
      <path
         style="fill:#aaaaaa"
         inkscape:connector-curvature="0"
         d="m 141.76,190.618 c 0.126,-0.053 0.253,-0.106 0.379,-0.159 -0.255,-0.026 -0.497,0.017 -0.728,0.127 0.116,0.011 0.232,0.021 0.349,0.032 z"
         id="path4276" />
      <path
         style="fill:#aaaaaa"
         inkscape:connector-curvature="0"
         d="m 142.584,187.124 c -0.337,0.044 -0.704,-0.03 -0.984,0.223 0.439,-0.058 0.886,-0.045 1.302,-0.223 -0.106,0 -0.212,0 -0.318,0 z"
         id="path4278" />
      <path
         style="fill:#aaaaaa"
         inkscape:connector-curvature="0"
         d="m 143.348,191.125 c -0.536,0.006 -1.248,0.151 -1.686,0.477 0.466,0.484 1.315,-0.174 1.686,-0.477 z"
         id="path4280" />
      <path
         style="fill:#aaaaaa"
         inkscape:connector-curvature="0"
         d="m 141.918,190.713 c 0.094,0.068 0.199,0.058 0.318,-0.032 -0.106,0.011 -0.212,0.021 -0.318,0.032 z"
         id="path4284" />
      <path
         style="fill:#aaaaaa"
         inkscape:connector-curvature="0"
         d="m 142.011,187.6 c 0.117,0.033 0.234,0.033 0.353,0 -0.118,0 -0.235,0 -0.353,0 z"
         id="path4286" />
      <path
         style="fill:#aaaaaa"
         inkscape:connector-curvature="0"
         d="m 142.364,186.774 c -0.073,-0.006 -0.213,-0.066 -0.353,0 0.117,0 0.236,0.005 0.353,0 z"
         id="path4288" />
      <path
         style="fill:#aaaaaa"
         inkscape:connector-curvature="0"
         d="m 142.364,184.614 c -0.118,0.042 -0.235,0.085 -0.353,0.127 0.666,-0.107 1.508,0.248 2.1,-0.191 -0.584,-0.094 -1.163,0.082 -1.747,0.064 z"
         id="path4290" />
      <path
         style="fill:#aaaaaa"
         inkscape:connector-curvature="0"
         d="m 143.855,189.697 c -0.399,0.178 -1.322,0.557 -1.747,0.572 0.77,-0.036 1.402,0.167 2.064,-0.413 -0.105,-0.053 -0.212,-0.106 -0.317,-0.159 z"
         id="path4292" />
      <path
         style="fill:#aaaaaa"
         inkscape:connector-curvature="0"
         d="m 143.189,188.458 c -0.401,-0.021 -0.721,0.283 -1.015,0.508 0.371,-0.06 0.722,-0.284 1.015,-0.508 z"
         id="path4296" />
      <path
         style="fill:#aaaaaa"
         inkscape:connector-curvature="0"
         d="m 142.457,187.568 c 0.212,-0.118 0.434,-0.213 0.666,-0.285 -0.258,0.012 -0.48,0.107 -0.666,0.285 z"
         id="path4298" />
      <path
         style="fill:#aaaaaa"
         inkscape:connector-curvature="0"
         d="m 143.158,186.838 c 0.257,-0.044 0.5,-0.129 0.728,-0.253 -0.433,-0.039 -1.049,-0.291 -1.363,0.158 0.225,-0.055 0.436,-0.023 0.635,0.095 z"
         id="path4300" />
      <path
         style="fill:#aaaaaa"
         inkscape:connector-curvature="0"
         d="m 143.22,187.981 c -0.178,0.08 -0.347,0.175 -0.507,0.286 0.253,0.099 0.438,-0.041 0.507,-0.286 z"
         id="path4302" />
      <path
         style="fill:#aaaaaa"
         inkscape:connector-curvature="0"
         d="m 142.964,186.87 c 0.101,0.086 0.219,0.107 0.353,0.063 -0.118,-0.021 -0.235,-0.042 -0.353,-0.063 z"
         id="path4306" />
      <path
         style="fill:#aaaaaa"
         inkscape:connector-curvature="0"
         d="m 143.696,190.522 c -0.229,-0.046 -0.451,-0.025 -0.667,0.064 0.233,0.083 0.455,0.062 0.667,-0.064 z"
         id="path4308" />
      <path
         style="fill:#aaaaaa"
         inkscape:connector-curvature="0"
         d="m 143.092,189.57 c -0.06,0.265 0.046,0.285 0.317,0.063 -0.105,-0.021 -0.211,-0.042 -0.317,-0.063 z"
         id="path4310" />
      <path
         style="fill:#aaaaaa"
         inkscape:connector-curvature="0"
         d="m 143.44,184.329 c -0.116,0.042 -0.232,0.084 -0.348,0.127 0.285,0.142 0.401,0.1 0.348,-0.127 z"
         id="path4312" />
      <path
         style="fill:#aaaaaa"
         inkscape:connector-curvature="0"
         d="m 143.763,189.475 c 0.106,-0.085 0.212,-0.169 0.317,-0.254 -0.331,-0.123 -0.69,-0.184 -0.988,0.063 0.222,0.069 0.445,0.133 0.671,0.191 z"
         id="path4314" />
      <path
         style="fill:#aaaaaa"
         inkscape:connector-curvature="0"
         d="m 143.604,187.473 c -0.106,0 -0.212,0 -0.318,0 0.354,0.124 0.67,0.331 1.015,0.477 -0.179,-0.233 -0.46,-0.325 -0.697,-0.477 z"
         id="path4316" />
      <path
         style="fill:#aaaaaa"
         inkscape:connector-curvature="0"
         d="m 143.379,187.76 c 0.142,0.094 0.087,0.143 0.317,0 -0.105,0 -0.212,0 -0.317,0 z"
         id="path4318" />
      <path
         style="fill:#aaaaaa"
         inkscape:connector-curvature="0"
         d="m 144.014,190.173 c -0.265,-0.005 -0.487,0.09 -0.666,0.285 0.264,0.005 0.486,-0.09 0.666,-0.285 z"
         id="path4320" />
      <path
         style="fill:#aaaaaa"
         inkscape:connector-curvature="0"
         d="m 143.983,188.267 c 0.247,-0.075 0.479,-0.181 0.697,-0.317 -0.246,0.074 -0.479,0.18 -0.697,0.317 z"
         id="path4324" />
      <path
         style="fill:#aaaaaa"
         inkscape:connector-curvature="0"
         d="m 128.957,175.975 c 0.217,0.03 0.429,0.009 0.635,-0.064 -0.181,-0.014 -1.181,0.224 -0.251,0.096 -0.129,-0.012 -0.257,-0.022 -0.384,-0.032 z"
         id="path4216" />
      <path
         style="fill:#aaaaaa"
         inkscape:connector-curvature="0"
         d="m 116.44,176.07 c -0.242,-0.016 -0.442,0.069 -0.6,0.253 0.786,0.092 1.542,0.14 2.316,-0.063 -0.579,0.039 -1.143,-0.139 -1.716,-0.19 z"
         id="path4204" />
      <path
         style="fill:#aaaaaa"
         inkscape:connector-curvature="0"
         d="m 118.413,179.12 c 0.116,-0.043 0.232,-0.085 0.349,-0.127 -0.165,-0.061 -0.333,-0.081 -0.507,-0.063 0.051,0.062 0.105,0.126 0.158,0.19 z"
         id="path4208" />
      <path
         style="fill:#aaaaaa"
         inkscape:connector-curvature="0"
         d="m 118.633,176.07 c 0.12,0.584 2.002,0.2 2.382,0.126 -0.797,0.029 -1.584,-0.253 -2.382,-0.126 z"
         id="path4210" />
      <path
         style="fill:#aaaaaa"
         inkscape:connector-curvature="0"
         d="m 118.827,178.643 c 0.365,0.086 0.747,0.085 1.112,0 -0.328,-0.186 -0.787,-0.198 -1.112,0 z"
         id="path4212" />
      <path
         style="fill:#aaaaaa"
         inkscape:connector-curvature="0"
         d="m 128.48,175.688 c 0.239,-0.014 0.473,-0.056 0.701,-0.127 -0.239,0.014 -0.472,0.056 -0.701,0.127 z"
         id="path4214" />
      <path
         style="fill:#aaaaaa"
         inkscape:connector-curvature="0"
         d="m 128.957,175.975 c 0.208,-0.06 0.419,-0.081 0.635,-0.064 -0.206,0.072 -0.418,0.094 -0.635,0.064 z"
         id="path4522" />
      <path
         style="fill:#aaaaaa"
         inkscape:connector-curvature="0"
         d="m 128.957,175.975 c 0.127,0.01 0.255,0.021 0.384,0.032 -0.132,0.021 -0.26,0.01 -0.384,-0.032 z"
         id="path4524" />
      <path
         style="fill:#aaaaaa"
         inkscape:connector-curvature="0"
         d="m 136.867,167.461 c 0.216,0.094 0.438,0.115 0.667,0.064 -0.21,-0.165 -0.431,-0.186 -0.667,-0.064 z"
         id="path4226" />
      <path
         style="fill:#aaaaaa"
         inkscape:connector-curvature="0"
         d="m 172.064,164.253 c -0.5,-0.5 -1.333,-0.09 -1.86,-0.511 -0.52,-0.415 -1.422,-0.418 -1.921,0.035 0.801,0.793 2.766,0.598 3.781,0.476 z"
         id="path4380" />
      <path
         style="fill:#aaaaaa"
         inkscape:connector-curvature="0"
         d="m 170.635,163.713 c 0.244,0.057 0.477,0.025 0.697,-0.095 -0.249,-0.092 -0.482,-0.059 -0.697,0.095 z"
         id="path4384" />
      <path
         style="fill:#aaaaaa"
         inkscape:connector-curvature="0"
         d="m 176.035,162.442 c 0.232,0.037 0.464,0.037 0.697,0 -0.233,-0.037 -0.465,-0.037 -0.697,0 z"
         id="path4388" />
      <path
         style="fill:#aaaaaa"
         inkscape:connector-curvature="0"
         d="m 178.857,163.269 c 0.172,-0.01 0.31,-0.084 0.415,-0.222 -0.353,-0.078 -0.733,-0.144 -1.081,0 0.242,0.016 0.464,0.091 0.666,0.222 z"
         id="path4396" />
      <path
         style="fill:#aaaaaa"
         inkscape:connector-curvature="0"
         d="m 179.591,162.442 c 0.49,0 1.039,0.12 1.496,-0.127 -0.482,-0.09 -1.095,-0.268 -1.496,0.127 z"
         id="path4398" />
      <path
         style="fill:#aaaaaa"
         inkscape:connector-curvature="0"
         d="m 181.209,163.046 c 0.319,0.502 1.164,0.533 1.687,0.576 0.812,0.065 1.667,0.512 2.474,0.408 -0.119,-0.092 -0.235,-0.188 -0.349,-0.285 0.414,-0.197 0.882,-0.268 1.336,-0.286 -1.183,-1.229 -4.267,-0.862 -5.748,-0.699 0.19,0.117 0.39,0.213 0.6,0.286 z"
         id="path4400" />
      <path
         style="fill:#aaaaaa"
         inkscape:connector-curvature="0"
         d="m 182.706,162.315 c 0.254,0 0.508,0 0.763,0 -0.497,-0.001 -0.965,-0.209 -1.464,-0.19 0.233,0.063 0.467,0.126 0.701,0.19 z"
         id="path4402" />
      <path
         style="fill:#aaaaaa"
         inkscape:connector-curvature="0"
         d="m 193.726,161.49 c 0.338,0 0.676,0 1.014,0 -0.33,-0.073 -0.686,-0.11 -1.014,0 z"
         id="path4406" />
      <path
         style="fill:#aaaaaa"
         inkscape:connector-curvature="0"
         d="m 196.774,161.998 c -0.81,-0.459 -1.958,-0.485 -2.859,-0.381 0.95,0.154 1.892,0.381 2.859,0.381 z"
         id="path4408" />
      <path
         style="fill:#aaaaaa"
         inkscape:connector-curvature="0"
         d="m 197.316,161.966 c 0.259,0.009 0.491,-0.065 0.697,-0.223 -0.704,-0.088 -1.498,-0.323 -2.193,-0.063 0.474,0.165 0.993,0.282 1.496,0.286 z"
         id="path4410" />
      <path
         style="fill:#aaaaaa"
         inkscape:connector-curvature="0"
         d="m 198.839,161.712 c 0.202,0 0.404,-0.01 0.604,-0.032 -0.772,-0.27 -2.806,-0.751 -3.525,-0.286 0.983,0.001 1.944,0.243 2.921,0.318 z"
         id="path4412" />
      <path
         style="fill:#aaaaaa"
         inkscape:connector-curvature="0"
         d="m 197.952,161.204 c 0.345,0.099 0.759,0.2 1.045,-0.095 -0.35,-0.057 -0.71,-0.022 -1.045,0.095 z"
         id="path4416" />
      <path
         style="fill:#aaaaaa"
         inkscape:connector-curvature="0"
         d="m 233.211,165.143 c 0.444,-0.063 0.901,-0.008 1.333,-0.159 -0.222,-0.029 -0.444,-0.061 -0.666,-0.095 -0.227,0.073 -0.449,0.158 -0.667,0.254 z"
         id="path4470" />
      <path
         style="fill:#aaaaaa"
         inkscape:connector-curvature="0"
         d="m 234.958,164.476 c 0.275,0.062 0.507,-0.013 0.697,-0.222 -0.475,-0.155 -0.863,-0.531 -1.398,-0.414 -0.05,0.419 0.415,0.509 0.701,0.636 z"
         id="path4478" />
      <path
         style="fill:#aaaaaa"
         inkscape:connector-curvature="0"
         d="m 238.068,165.047 c 0.118,-0.042 0.236,-0.085 0.353,-0.127 -0.433,-0.229 -0.946,-0.365 -1.398,-0.095 0.355,0.045 0.694,0.159 1.045,0.222 z"
         id="path4488" />
      <path
         style="fill:#aaaaaa"
         inkscape:connector-curvature="0"
         d="m 237.561,164.222 c 0.107,0 0.213,-0.011 0.318,-0.032 -0.192,-0.168 -0.415,-0.231 -0.667,-0.191 0.117,0.074 0.233,0.148 0.349,0.223 z"
         id="path4490" />
      <path
         style="fill:#aaaaaa"
         inkscape:connector-curvature="0"
         d="m 228.826,174.544 c -0.256,-0.053 -0.522,0.122 -0.666,0.318 0.233,-0.081 0.455,-0.188 0.666,-0.318 z"
         id="path4450" />
      <path
         style="fill:#aaaaaa"
         inkscape:connector-curvature="0"
         d="m 230.701,173.973 c -0.252,-0.086 -0.497,-0.065 -0.732,0.063 0.253,0.089 0.497,0.068 0.732,-0.063 z"
         id="path4456" />
      <path
         style="fill:#aaaaaa"
         inkscape:connector-curvature="0"
         d="m 230.034,174.418 c 0.114,0.046 0.23,0.036 0.349,-0.032 -0.116,0.01 -0.232,0.021 -0.349,0.032 z"
         id="path4458" />
      <path
         style="fill:#aaaaaa"
         inkscape:connector-curvature="0"
         d="m 231.115,174.958 c 0.469,0.103 0.949,0.121 1.425,0.159 -0.414,-0.56 -1.704,-0.573 -2.316,-0.477 0.281,0.147 0.585,0.242 0.891,0.318 z"
         id="path4460" />
      <path
         style="fill:#aaaaaa"
         inkscape:connector-curvature="0"
         d="m 233.498,172.385 c 0.103,0.015 0.507,-0.099 0.281,-0.287 -0.277,-0.229 -0.742,0.135 -1.013,0.192 0.298,0.277 0.716,0.302 1.081,0.158 -0.117,-0.021 -0.233,-0.042 -0.349,-0.063 z"
         id="path4466" />
      <path
         style="fill:#aaaaaa"
         inkscape:connector-curvature="0"
         d="m 233.462,173.401 c -0.116,0 -0.232,0 -0.348,0 0.105,0.092 0.221,0.166 0.348,0.222 0,-0.073 0,-0.147 0,-0.222 z"
         id="path4468" />
      <path
         style="fill:#aaaaaa"
         inkscape:connector-curvature="0"
         d="m 233.975,174.1 c -0.218,-0.062 -0.521,0.094 -0.702,0.191 0.252,0.004 0.486,-0.06 0.702,-0.191 z"
         id="path4472" />
      <path
         style="fill:#aaaaaa"
         inkscape:connector-curvature="0"
         d="m 233.339,173.878 c 0.228,-0.031 0.45,-0.083 0.667,-0.158 -0.242,-0.109 -0.503,-0.054 -0.667,0.158 z"
         id="path4474" />
      <path
         style="fill:#aaaaaa"
         inkscape:connector-curvature="0"
         d="m 235.594,168.7 c -0.329,-0.578 -1.661,-0.214 -2.034,0.127 0.665,0.194 1.37,-0.066 2.034,-0.127 z"
         id="path4476" />
      <path
         style="fill:#aaaaaa"
         inkscape:connector-curvature="0"
         d="m 236.321,174.831 c -0.494,-0.123 -1.111,0.339 -1.46,0.636 0.477,0.074 1.472,0.061 1.46,-0.636 z"
         id="path4480" />
      <path
         style="fill:#aaaaaa"
         inkscape:connector-curvature="0"
         d="m 235.686,172.703 c -0.271,-0.107 -0.543,0.025 -0.697,0.254 0.232,-0.085 0.465,-0.17 0.697,-0.254 z"
         id="path4482" />
      <path
         style="fill:#aaaaaa"
         inkscape:connector-curvature="0"
         d="m 236.229,172.163 c -0.229,0.055 -0.348,0.023 -0.353,0.318 0.124,-0.1 0.242,-0.206 0.353,-0.318 z"
         id="path4484" />
      <path
         style="fill:#aaaaaa"
         inkscape:connector-curvature="0"
         d="m 237.53,171.178 c -0.347,-0.019 -0.891,0.228 -0.891,0.635 0.317,-0.206 0.701,-0.208 1.05,-0.318 -0.053,-0.105 -0.106,-0.211 -0.159,-0.317 z"
         id="path4486" />
      <path
         style="fill:#aaaaaa"
         inkscape:connector-curvature="0"
         d="m 229.112,179.278 c -0.226,-0.146 -0.708,-0.129 -1.019,0 0.351,0.175 0.654,-0.042 1.019,0 z"
         id="path4448" />
      <path
         style="fill:#aaaaaa"
         inkscape:connector-curvature="0"
         d="m 215.039,189.538 c -0.434,-0.087 -0.892,0.063 -1.301,0.19 0.48,0.066 0.943,0.275 1.301,-0.19 z"
         id="path4424" />
      <path
         style="fill:#aaaaaa"
         inkscape:connector-curvature="0"
         d="m 214.977,188.267 c 1.318,-0.229 2.639,0.614 3.94,0.159 -1.208,-0.173 -3.377,-1.286 -4.416,-0.191 0.158,0.023 0.317,0.033 0.476,0.032 z"
         id="path4426" />
      <path
         style="fill:#aaaaaa"
         inkscape:connector-curvature="0"
         d="m 221.776,189.506 c -1.044,-0.503 -5.06,-1.097 -5.974,0.032 0.873,-0.081 2.451,-0.184 3.266,0.153 0.212,0.087 0.624,0.509 0.862,0.466 0.523,-0.096 1.069,-0.021 1.59,0.047 -0.031,-0.254 -0.223,-0.414 -0.477,-0.413 0.261,-0.053 0.505,-0.148 0.733,-0.285 z"
         id="path4432" />
      <path
         style="fill:#aaaaaa"
         inkscape:connector-curvature="0"
         d="m 225.459,184.837 c -0.261,-0.034 -2.808,0.257 -2.195,0.702 0.915,0.663 2.808,0.313 3.814,0.092 -0.342,-0.103 -0.483,-0.443 -0.773,-0.618 -0.257,-0.155 -0.569,-0.096 -0.846,-0.176 z"
         id="path4434" />
      <path
         style="fill:#aaaaaa"
         inkscape:connector-curvature="0"
         d="m 227.145,178.643 c 0.104,-0.084 0.208,-0.169 0.313,-0.254 -0.346,0 -0.708,-0.049 -1.015,0.158 0.232,0.051 0.466,0.083 0.702,0.096 z"
         id="path4436" />
      <path
         style="fill:#aaaaaa"
         inkscape:connector-curvature="0"
         d="m 227.935,183.979 c 0.235,-0.081 0.459,-0.187 0.671,-0.318 -0.213,-0.214 -0.538,-0.315 -0.825,-0.19 0.166,-0.069 0.303,-0.175 0.41,-0.318 -0.295,-0.103 -0.707,-0.227 -1.015,-0.095 -0.324,0.138 -0.357,0.525 -0.702,0.635 0.359,0.329 1.005,0.511 1.461,0.286 z"
         id="path4438" />
      <path
         style="fill:#aaaaaa"
         inkscape:connector-curvature="0"
         d="m 228.093,178.77 c -0.351,-0.043 -0.63,0.218 -0.984,0.159 0.308,0.203 0.841,0.29 0.984,-0.159 z"
         id="path4442" />
      <path
         style="fill:#aaaaaa"
         inkscape:connector-curvature="0"
         d="m 228.318,178.579 c -0.243,-0.065 -0.464,-0.023 -0.666,0.127 0.222,-0.045 0.444,-0.088 0.666,-0.127 z"
         id="path4446" />
      <path
         style="fill:#aaaaaa"
         inkscape:connector-curvature="0"
         d="m 229.205,179.024 c -0.291,-0.119 -0.737,0.033 -1.015,0.127 0.339,-0.044 0.689,-0.001 1.015,-0.127 z"
         id="path4452" />
      <path
         style="fill:#aaaaaa"
         inkscape:connector-curvature="0"
         d="m 230.793,184.36 c -0.32,-0.277 -0.666,-0.148 -1.015,0 0.305,0.242 0.772,0.28 1.015,0 z"
         id="path4454" />
      <path
         style="fill:#aaaaaa"
         inkscape:connector-curvature="0"
         d="m 233.273,182.01 c -0.315,-0.058 -0.386,0.238 -0.666,0.254 -0.268,0.015 -0.495,-0.222 -0.758,-0.175 -0.563,0.102 -1.013,0.504 -1.056,1.095 0.722,-0.112 1.592,-0.18 2.318,-0.077 0.545,0.078 1.032,0.284 1.37,-0.304 -0.298,-0.125 -0.473,0.078 -0.757,0.103 -0.36,0.033 -0.648,-0.163 -0.928,-0.358 0.233,-0.085 0.467,-0.17 0.702,-0.254 -0.075,-0.094 -0.15,-0.189 -0.225,-0.284 z"
         id="path4462" />
      <path
         style="fill:#aaaaaa"
         inkscape:connector-curvature="0"
         d="m 232.448,179.786 c 0.103,-0.188 0.405,-1.241 0.31,-1.432 -0.287,-0.569 -1.045,0.155 -0.31,0.098 -0.19,0.063 -0.657,0.074 -0.686,0.353 -0.034,0.347 0.33,1.177 0.526,1.458 0.122,-0.137 0.175,-0.296 0.16,-0.477 z"
         id="path4464" />
      <path
         style="fill:#aaaaaa"
         inkscape:connector-curvature="0"
         d="m 197.282,204.499 c 0.224,0.108 0.447,0.108 0.67,0 -0.19,-0.219 -0.504,-0.301 -0.67,0 z"
         id="path4414" />
      <path
         style="fill:#aaaaaa"
         inkscape:connector-curvature="0"
         d="m 210.94,195.224 c -0.44,-0.009 -0.885,0.135 -1.296,0.276 -0.694,0.237 -1.335,0.14 -2.039,0.264 -0.668,0.118 -1.219,0.525 -1.862,0.704 -0.203,0.048 -0.407,0.089 -0.613,0.122 -0.304,0.061 -0.363,0.424 -0.666,0.508 0.905,0.517 2.224,-0.054 3.175,-0.145 1.3,-0.125 2.583,-0.024 3.844,-0.491 -0.107,-0.095 -0.212,-0.19 -0.318,-0.286 0.669,-0.064 0.078,-0.727 -0.348,-0.667 0.041,-0.094 0.082,-0.19 0.123,-0.285 z"
         id="path4418" />
      <path
         style="fill:#aaaaaa"
         inkscape:connector-curvature="0"
         d="m 206.908,195.827 c -0.367,-0.096 -0.829,-0.124 -1.174,0.064 0.173,0.532 0.902,0.146 1.174,-0.064 z"
         id="path4420" />
      <path
         style="fill:#aaaaaa"
         inkscape:connector-curvature="0"
         d="m 209.388,196.971 c -0.208,-0.14 -0.52,-0.025 -0.702,0.096 0.255,0.125 0.489,0.094 0.702,-0.096 z"
         id="path4422" />
      <path
         style="fill:#aaaaaa"
         inkscape:connector-curvature="0"
         d="m 215.422,199.48 c -0.242,-0.098 -0.526,0.021 -0.701,0.191 0.259,0.112 0.529,0.023 0.701,-0.191 z"
         id="path4428" />
      <path
         style="fill:#aaaaaa"
         inkscape:connector-curvature="0"
         d="m 219.87,191.285 c -0.284,0.031 -0.434,-0.135 -0.353,-0.413 0.535,0.122 1.101,0.264 1.654,0.223 -0.015,-0.366 -0.785,-0.621 -1.05,-0.731 -0.136,0.024 -0.272,0.025 -0.408,0.006 -0.278,-0.177 -0.542,-0.334 -0.81,-0.524 -0.435,-0.31 -1.417,-0.198 -1.93,-0.203 -0.693,-0.007 -1.307,-0.215 -1.281,0.597 0.021,0.652 2.136,0.886 2.603,1.09 0.577,0.252 1.977,1.171 2.368,0.21 -0.269,-0.07 -0.534,-0.155 -0.793,-0.255 z"
         id="path4430" />
      <path
         style="fill:#aaaaaa"
         inkscape:connector-curvature="0"
         d="m 164.123,217.459 c -0.078,-0.043 -0.063,-0.183 -0.318,0 0.106,0 0.212,0 0.318,0 z"
         id="path4374" />
      <path
         style="fill:#aaaaaa"
         inkscape:connector-curvature="0"
         d="m 164.472,217.682 c 0.348,-0.043 0.7,-0.032 1.05,-0.032 -0.032,-0.599 -0.865,-0.305 -1.05,0.032 z"
         id="path4376" />
      <path
         style="fill:#aaaaaa"
         inkscape:connector-curvature="0"
         d="m 166.946,216.887 c 0.027,-0.286 -0.198,-0.469 -0.472,-0.445 0.268,-0.26 0.313,-0.8 -0.012,-1.046 -0.08,-0.06 -0.672,-0.224 -0.521,0.081 0.347,0.692 0.209,1.172 1.005,1.41 z"
         id="path4378" />
      <path
         style="fill:#aaaaaa"
         inkscape:connector-curvature="0"
         d="m 169.584,214.06 c 0.106,-0.063 0.212,-0.127 0.318,-0.19 -0.216,-0.077 -0.428,-0.066 -0.635,0.032 0.106,0.053 0.212,0.105 0.317,0.158 z"
         id="path4382" />
      <path
         style="fill:#aaaaaa"
         inkscape:connector-curvature="0"
         d="m 174.698,213.075 c 0.142,-0.238 0.603,-0.215 0.835,-0.249 0.673,-0.099 -0.032,-0.479 0.563,-0.417 -0.512,-0.327 -0.978,-0.588 -1.482,-0.054 -0.234,0.246 -0.522,0.801 0.084,0.72 z"
         id="path4386" />
      <path
         style="fill:#aaaaaa"
         inkscape:connector-curvature="0"
         d="m 176.573,213.012 c 0.118,-0.094 0.224,-0.2 0.318,-0.317 -0.23,-0.15 -0.452,-0.139 -0.667,0.032 0.106,0.107 0.222,0.203 0.349,0.285 z"
         id="path4390" />
      <path
         style="fill:#aaaaaa"
         inkscape:connector-curvature="0"
         d="m 177.208,212.504 c 0.189,-0.088 0.295,-0.236 0.318,-0.445 -0.255,0.031 -0.379,0.191 -0.318,0.445 z"
         id="path4392" />
      <path
         style="fill:#aaaaaa"
         inkscape:connector-curvature="0"
         d="m 177.654,212.313 c 0.198,-0.206 0.431,-0.397 0.697,-0.508 -0.332,-0.047 -0.717,0.118 -0.697,0.508 z"
         id="path4394" />
      <path
         style="fill:#aaaaaa"
         inkscape:connector-curvature="0"
         d="m 119.427,178.039 c 1.331,0.322 2.712,0.326 4.068,0.19 -0.066,0.629 -1.219,0.345 -1.604,0.337 -0.731,-0.014 -1.997,0.233 -2.653,0.553 0.45,0.439 1.358,0.677 1.972,0.699 -0.709,0.14 0.034,0.242 0.27,0.28 0.343,0.055 0.691,0.042 1.037,0.051 0.746,0.019 1.615,0.443 2.342,0.145 -0.365,-0.138 -0.573,-0.532 -0.984,-0.572 0.782,-0.092 0.841,-0.304 1.487,0.174 0.407,0.301 1.505,-0.706 2.231,-0.301 -0.253,0.087 -0.475,0.226 -0.666,0.414 0.427,0.315 0.914,0.166 1.186,-0.193 0.076,-0.102 0.707,0.088 0.933,-0.037 0.153,-0.045 0.307,-0.044 0.461,0.002 0.231,0.026 0.231,-0.215 0.425,-0.257 0.438,-0.097 1.016,-0.225 0.965,0.295 0.218,0.007 3.45,-1.112 3.08,-0.127 0.487,-0.401 1.241,-0.184 1.791,-0.079 0.783,0.15 1.59,0.067 2.369,0.237 -0.062,0.107 -0.125,0.212 -0.19,0.317 0.333,0.069 1.77,-0.231 1.588,0.286 0.235,-0.013 0.467,-0.045 0.697,-0.095 -0.108,0.092 -0.215,0.187 -0.317,0.286 0.452,0.143 0.913,-0.101 1.368,0.032 -0.683,0.025 -0.083,0.417 0.181,0.43 0.334,0.015 0.66,-0.092 0.992,-0.081 -0.879,0.251 0.274,0.048 0.004,0.583 -0.238,0.471 -0.859,0.357 -1.275,0.497 0.364,0.152 0.661,-0.145 1.019,-0.127 -0.304,0.143 -0.547,0.679 0,0.635 -0.108,0.082 -0.213,0.167 -0.317,0.253 0.648,0.389 1.826,0.168 2.316,0.794 -0.253,0.174 -0.747,0.073 -0.728,0.508 0.625,-0.416 1.04,0.499 1.46,0.349 -0.316,0.326 -0.914,0.362 -1.333,0.286 0.307,0.204 0.671,0.171 1.015,0.127 -0.308,0.205 -0.671,0.146 -1.015,0.19 0.213,0.147 0.445,0.189 0.697,0.127 -0.877,0.292 -1.83,0.25 -2.7,0.572 0.933,0.152 1.874,-0.17 2.762,-0.413 -0.176,0.22 -0.407,0.399 -0.667,0.507 0.233,0.103 0.478,0.155 0.732,0.159 -0.778,0.081 0.126,0.414 0.318,0.444 -0.391,0.035 -0.599,0.423 -0.066,0.477 -0.08,0.032 -1.62,0.033 -0.697,0.127 -0.766,0.143 1.049,0.689 1.143,1.017 -0.25,-0.14 -1.495,0.19 -0.697,0.35 -0.379,0.091 -0.65,0.534 -1.081,0.35 0.497,0.262 0.921,0.028 1.363,0.19 0.669,0.244 0.292,0.814 -0.251,0.858 0.228,0.113 0.45,0.103 0.666,-0.032 -0.479,0.167 -0.846,0.545 -1.332,0.699 0.446,0.124 0.908,0.148 1.363,0.223 -1.021,0.241 -2.128,-0.347 -3.11,0.126 0.481,0.476 1.531,-0.12 2.034,0.254 -0.507,0.036 -0.854,0.437 -1.319,0.588 -0.439,0.143 -1.055,0.266 -1.381,0.62 1.135,0.536 1.959,-0.322 2.982,-0.667 -0.81,0.542 -1.405,0.855 -2.379,0.965 -0.624,0.07 -1.51,0.235 -2.003,0.655 0.331,0.069 0.365,0.39 0.487,0.645 0.14,0.291 0.965,0.508 0.559,-0.073 0.542,0.429 1.34,0.504 2.003,0.436 0.305,-0.031 0.611,-0.099 0.894,-0.219 0.775,-0.328 0.055,-0.347 0.31,-0.916 0.178,0.212 0.402,0.286 0.671,0.222 -0.405,-0.575 1.364,-0.053 1.188,-1.043 -0.062,-0.352 -0.375,-0.443 -0.235,-0.831 0.151,-0.42 0.462,-0.317 0.825,-0.317 -1.207,0.042 -0.211,0.98 -0.477,1.778 0.478,-0.23 1.194,-0.563 1.716,-0.635 -0.448,0.199 -1.294,0.562 -1.654,0.89 0.649,0.082 1.336,0.188 1.975,0.246 0.591,0.054 1.195,-0.458 1.775,-0.278 -1.008,0.873 -2.561,0.296 -3.684,0.921 1.296,0.087 2.765,-0.54 4.001,-0.222 -0.499,0.288 -1.145,0.087 -1.685,0.191 -0.587,0.112 -1.029,0.562 -1.619,0.667 0.688,0.444 1.666,-0.375 2.352,-0.476 0.141,0.355 0.003,0.466 -0.413,0.331 -0.43,0.042 -0.839,0.177 -1.237,0.336 0.488,0.407 1.497,0.063 2.06,0.032 -0.893,0.231 0.457,0.376 0.671,0.349 -0.789,0.533 -1.644,-0.468 -2.414,0 0.458,0.138 0.824,0.411 1.317,0.438 0.328,0.018 0.695,0.022 1.019,0.101 0.351,0.084 -0.088,0.45 -0.332,0.341 -0.423,-0.19 -0.776,-0.028 -1.209,-0.022 0.24,0.254 1.243,0.223 1.619,0.35 -0.233,-0.038 -0.467,-0.038 -0.701,0 0.102,0.109 0.208,0.215 0.318,0.317 -0.357,-0.18 -0.914,-0.17 -1.301,-0.127 0.18,0.135 1.15,0.42 0.317,0.35 0.457,0.304 0.973,0.107 1.368,-0.191 -0.22,0.149 -0.257,0.362 -0.431,0.537 -0.249,0.252 -0.881,-0.034 -1.156,-0.095 -0.981,-0.218 -1.58,-0.428 -2.48,-0.889 -0.885,-0.453 -1.846,-0.077 -2.768,-0.309 -0.854,-0.214 -1.864,-0.247 -2.602,0.311 0.477,0.335 0.876,0.776 1.464,0.913 0.807,0.188 1.795,0.01 2.454,0.629 0.604,0.568 1.063,0.436 1.833,0.576 0.125,0.023 0.442,0.151 0.569,0.104 0.342,-0.125 0.763,-0.484 1.114,-0.158 -0.225,0.041 -0.448,0.094 -0.667,0.159 0.859,0.113 1.685,-0.253 2.541,-0.222 -0.143,0.252 -0.521,0.274 -0.732,0.444 0.267,0.026 0.393,0.221 0.317,0.477 -0.515,-0.028 -0.95,-0.093 -1.363,0.286 0.261,-0.074 0.483,-0.01 0.666,0.19 -0.366,-0.076 -1.093,-0.29 -1.111,0.318 0.386,0 0.95,-0.251 1.301,0 -0.9,-0.154 -1.889,0.403 -2.51,0.984 0.602,0.182 0.94,-0.291 1.484,-0.291 0.243,0 0.312,0.393 0.58,0.449 -0.317,0.14 -0.675,0.001 -0.953,0.254 0.228,0.027 0.44,0.101 0.635,0.222 -0.24,-0.005 -0.451,0.068 -0.635,0.223 -0.036,-0.587 -0.668,-0.375 -1.046,-0.35 0.108,-0.083 0.214,-0.167 0.318,-0.254 -0.41,-0.11 -0.722,0.199 -0.861,0.575 -0.126,0.341 -0.568,0.299 -0.758,0.633 0.458,0.11 0.883,-0.167 1.333,-0.191 -0.29,0.097 -0.875,0.193 -0.604,0.635 -0.486,-0.202 -0.964,0.257 -1.455,0.214 -0.49,-0.044 -1.042,-0.2 -1.532,-0.087 0.209,-0.054 0.411,-0.127 0.604,-0.223 -0.432,0.215 -0.905,-0.076 -1.333,0.191 0.233,-0.009 0.465,0.001 0.697,0.032 -0.452,-0.024 -0.955,0.024 -1.368,0.222 0.838,0 -0.497,0.321 -0.671,0.357 -0.466,0.096 -0.951,0.147 -1.389,0.342 0.561,0.018 1.121,-0.258 1.681,-0.127 -0.276,-0.006 -0.534,0.129 -0.697,0.35 0.39,-0.382 1.46,0.035 1.984,-0.039 0.574,-0.081 1.579,0.125 1.987,-0.406 -0.263,0.045 -0.487,-0.029 -0.67,-0.222 0.688,0.192 1.35,-0.176 2.033,-0.191 -0.295,0.138 -0.627,0.141 -0.924,0.276 -0.274,0.125 -0.295,0.445 -0.633,0.486 0.219,0.058 0.432,0.132 0.64,0.222 -0.329,-0.026 -0.668,-0.156 -0.988,0 0.897,0.224 1.703,0.745 2.638,0.826 -0.997,0.195 -1.87,-0.527 -2.859,-0.429 -0.504,0.05 -1.026,0.079 -1.526,-0.016 -0.538,-0.101 -1.048,-0.538 -1.619,-0.349 0.241,0.081 0.463,0.196 0.666,0.349 -0.728,-0.217 -1.514,-0.53 -2.285,-0.349 0.453,0 0.561,0.127 0.881,0.386 0.527,0.425 1.25,0.331 1.881,0.313 -0.915,0.263 -1.759,-0.413 -2.669,-0.222 0.216,0.081 0.44,0.112 0.67,0.095 -0.333,0.068 -0.678,0.102 -0.988,0.254 0.804,-0.023 -0.053,0.243 -0.313,0.063 0.673,0.845 -1.108,-0.171 -0.732,0.445 -0.362,-0.146 -0.458,-0.05 -0.287,0.286 0.093,-0.098 0.188,-0.193 0.287,-0.286 0.229,0.451 -0.719,0.228 -0.604,0.826 0.93,0.018 1.638,-0.723 2.522,-0.889 1.16,-0.218 2.346,-0.43 3.513,-0.636 -0.614,0.37 -1.354,0.166 -2.003,0.414 0.369,0.367 0.878,0.346 1.337,0.191 -0.802,0.215 0.61,0.279 0.984,-0.032 -0.081,-0.119 -0.165,-0.235 -0.251,-0.35 0.453,-0.004 0.899,-0.375 1.333,-0.064 -0.326,0.069 -0.66,0.083 -0.984,0.159 0.08,0.601 1.119,0.319 1.46,0.19 -0.798,-0.087 -0.027,-0.267 0.17,-0.268 0.289,-0.003 0.584,0.083 0.845,0.205 -0.854,0.228 -1.748,0.381 -2.634,0.381 0.831,0.517 1.671,0.053 2.541,-0.032 -0.537,0.234 -1.128,0.277 -1.685,0.445 0.462,0.343 1.072,0.335 1.619,0.318 -0.954,0.271 -1.758,-0.351 -2.669,-0.484 -1.074,-0.158 -2.25,-0.286 -3.335,-0.342 0.921,0.005 -0.794,0.167 -0.984,0.254 0.807,-0.119 0.021,0.074 -0.141,0.118 -0.394,0.106 -0.789,0.208 -1.176,0.34 -0.42,0.142 -1.405,0.452 -1.286,1.067 0.464,-0.083 0.899,-0.274 1.36,-0.369 0.543,-0.112 1.057,0.089 1.616,-0.038 1.334,-0.305 2.693,0.016 4.013,-0.292 -0.318,0.106 -0.649,0.172 -0.984,0.191 0.37,1.192 1.516,0.299 2.352,0.54 -0.424,0.053 -1.806,0.486 -2.136,0.135 -0.484,-0.514 -0.373,-0.671 -1.196,-0.594 -0.77,0.072 -1.548,0.081 -2.324,0.157 -0.435,0.043 -0.873,0.059 -1.308,0.102 -0.093,0.009 -1.491,0.139 -0.505,0.168 -0.431,0.106 -0.91,-0.006 -1.302,0.254 0.412,0.211 0.87,0.155 1.302,0.063 -0.317,0.108 -0.651,0.138 -0.984,0.127 0.282,0.245 0.646,0.181 0.984,0.223 -0.443,0.039 -0.888,0.063 -1.333,0.063 0.712,0.295 1.482,0.161 2.223,0.286 -0.541,-0.018 -1.209,-0.067 -1.65,0.318 0.665,-0.137 2.525,-0.93 3.11,-0.414 -0.436,0.086 -0.424,0.182 0.035,0.286 -0.316,0.167 -0.613,-0.026 -0.929,-0.056 -0.363,-0.033 -0.71,0.142 -1.074,0.056 0.22,0.046 0.442,0.078 0.667,0.095 -0.281,0.252 -0.651,0.167 -0.984,0.254 0.328,0.16 0.675,0.008 1.015,0.032 -0.663,0.206 -1.375,0.027 -2.034,0.253 0.384,0.556 1.788,0.42 2.351,0.318 -0.424,0.17 -1.855,0.261 -2.316,0.127 0.806,0 -0.126,-0.08 -0.276,-0.042 -0.34,0.084 -0.587,0.374 -0.873,0.556 -0.606,0.388 1.234,0.256 1.308,0.249 -0.537,0.098 -1.142,0.098 -1.557,0.508 0.737,0.317 1.666,-0.193 2.316,-0.508 0.776,-0.376 1.728,-0.434 2.411,-0.995 0.618,-0.507 1.473,-0.666 2.215,-0.902 1.014,-0.323 1.997,-0.614 3.064,-0.708 -0.215,0.081 -0.438,0.112 -0.667,0.095 0.312,0.167 0.672,0.171 1.015,0.159 -0.248,0.125 -0.586,0.086 -0.848,0.055 -0.56,-0.068 -0.963,0.028 -1.504,0.167 0.297,0.364 0.962,0.276 1.368,0.254 -0.744,0.233 -1.515,-0.133 -2.261,0.07 -0.796,0.218 -1.645,0.469 -2.325,0.952 -0.647,0.459 -1.541,0.29 -2.167,0.791 -0.654,0.524 -1.548,0.522 -2.3,0.823 0.219,0.052 0.441,0.083 0.666,0.096 -0.215,0.081 -0.437,0.112 -0.666,0.095 0.373,0.351 0.882,0.021 1.271,-0.095 -0.321,0.132 -0.647,0.256 -0.983,0.349 0.558,0.478 1.36,-0.316 1.967,-0.254 0.44,0.045 0.067,0.389 0.635,0.116 0.41,-0.197 0.904,-0.243 1.337,-0.37 0.005,0.542 -0.367,0.217 -0.731,0.267 -0.407,0.056 -0.578,0.252 -0.899,0.451 -0.083,0.051 -0.693,-0.094 -0.772,-0.095 -0.579,-0.005 -1.109,0.121 -1.634,0.361 0.24,0.051 0.474,0.03 0.701,-0.063 -0.208,0.156 -0.441,0.23 -0.701,0.223 0.418,0.349 0.991,0.117 1.301,-0.254 0.008,0.251 -0.132,0.41 -0.379,0.445 0.843,-0.085 -0.147,0.261 -0.318,0.38 0.384,0.223 0.743,-0.172 1.015,-0.38 -0.205,0.22 -0.427,0.421 -0.667,0.603 0.427,-0.163 0.469,-0.078 0.128,0.254 0.229,-0.042 0.458,-0.078 0.689,-0.11 0.473,-0.078 0.802,-0.255 1.186,-0.533 0.427,-0.311 0.98,-0.449 1.489,-0.56 0.649,-0.141 1.229,0.216 1.848,0.092 -0.22,0.177 -0.156,0.25 0.189,0.223 -1.1,0.185 -2.165,-0.703 -3.237,0.181 -0.39,0.321 -0.781,0.334 -1.207,0.567 -0.265,0.106 -0.535,0.195 -0.811,0.267 -0.271,0.108 -0.301,0.495 -0.559,0.637 0.32,-0.126 0.593,-0.61 0.988,-0.381 -0.069,0.11 -0.144,0.216 -0.225,0.317 0.219,-0.08 0.431,-0.175 0.635,-0.286 -0.406,0.27 -0.867,0.592 -0.604,1.144 -0.165,-0.022 -0.279,0.039 -0.343,0.181 -0.113,0.496 0.871,0.029 -0.005,0.359 0.502,-0.024 1.157,-1.005 1.654,-0.635 -0.1,0.103 -0.206,0.198 -0.318,0.286 0.334,-0.117 0.658,-0.281 1.015,-0.318 -0.722,0.205 -1.891,0.473 -2.496,0.914 -0.197,0.144 -0.523,1.497 -0.491,1.723 1.246,0.082 1.982,-2.341 3.238,-1.843 -0.256,0.064 -0.479,0.23 -0.631,0.445 0.588,0.089 1.664,-0.368 1.823,-0.986 0.063,-0.244 0.071,-0.403 -0.159,-0.358 -0.241,0.047 -0.086,-0.58 -0.075,-0.689 0.2,0.187 0.422,0.219 0.666,0.096 -0.473,0.064 -0.492,0.681 -0.363,1.023 0.313,0.833 1.108,0.236 1.634,0.056 -0.2,0.095 -1.071,0.833 -0.256,0.572 -1.042,0.604 0.447,0.628 0.384,1.271 -0.373,-0.15 -0.885,-0.235 -1.147,-0.572 -0.3,-0.386 -0.185,-0.916 -0.856,-0.667 0.879,0.175 -0.521,0.165 -0.666,0.191 0.218,0.124 0.44,0.24 0.666,0.349 -0.784,0.156 0.367,0.345 0.697,0.19 -0.309,0.399 -0.832,0.298 -1.267,0.274 -0.283,-0.016 -1.564,0.214 -0.768,0.457 -0.675,0.509 -1.54,0.027 -2.285,0.223 0.232,0.021 0.464,0.043 0.697,0.064 -0.239,0.002 -0.461,0.065 -0.666,0.19 1.002,0.543 2.773,-0.177 3.622,-0.762 -0.203,0.171 -0.415,0.33 -0.635,0.477 0.318,0.062 1.057,-0.322 1.111,0.222 -0.213,-0.208 -1.473,-0.106 -1.772,0.001 -0.661,0.238 -1.525,0.48 -2.229,0.316 0.342,0.103 0.409,0.305 0.127,0.54 0.385,0.258 0.913,-0.049 1.302,-0.127 -0.334,0.102 -0.621,0.309 -0.953,0.414 -0.125,0.04 -1.62,0.434 -0.666,0.254 -0.688,0.123 0.085,0.445 0.287,0.699 0.154,-0.667 1.333,-0.444 1.809,-0.477 -0.43,0.159 -1.366,-0.131 -1.557,0.444 0.319,0 0.637,-0.021 0.953,-0.063 -0.427,0.144 -0.893,0.147 -1.301,0.35 0.336,-0.023 0.562,0.254 0.893,0.254 0.375,0 0.739,-0.092 1.105,-0.159 -0.545,0.329 -1.494,-0.054 -1.927,0.334 -0.317,0.285 0.356,0.414 0.564,0.269 -0.829,0.42 0.277,0.089 0.466,0.073 0.394,-0.033 0.789,-0.036 1.185,-0.041 -0.286,0.099 -1.064,0.263 -1.243,0.516 -0.235,0.333 0.44,0.46 0.643,0.247 -0.208,0.2 -0.389,0.422 -0.542,0.667 0.322,-0.187 0.6,-0.549 1.015,-0.508 -0.374,0.201 -0.735,0.439 -1.015,0.763 0.472,-0.008 0.918,-0.255 1.301,-0.508 -0.498,0.427 -1.276,0.662 -1.631,1.241 -0.419,0.684 1.695,0.942 1.984,1.014 -0.265,-0.051 -0.511,0.08 -0.671,0.286 0.227,-0.012 0.451,0.009 0.671,0.064 -0.335,0.209 -0.689,-0.064 -1.019,0.159 0.45,0.089 0.306,0.164 0,0.349 0.315,-0.163 0.656,10e-4 0.983,-0.095 0.356,-0.104 0.502,-0.475 0.86,-0.572 -0.063,0.255 0.057,0.396 0.318,0.381 -0.351,-0.004 -0.721,0.108 -1.041,0.243 -0.266,0.113 -1.148,0.958 -0.389,0.519 -0.075,0.116 -0.15,0.232 -0.225,0.35 0.595,-0.052 0.882,-1.028 1.557,-0.73 -0.367,0.086 -1.053,0.37 -1.143,0.794 0.251,0.005 0.483,-0.059 0.697,-0.191 -0.247,0.116 -0.458,0.307 -0.6,0.541 0.327,0.051 0.656,-0.01 0.984,0 -0.491,0.098 -1.22,-0.081 -1.624,0.286 0.7,0.562 1.557,-0.104 2.32,-0.064 -0.423,0.083 -0.423,0.125 0,0.127 -0.627,0.062 -1.534,0.014 -1.968,0.572 0.443,-0.329 1.123,-0.125 1.589,0.032 -0.187,0.18 -0.409,0.254 -0.666,0.223 -0.065,0.475 0.447,0.322 0.697,0.222 -0.097,0.104 -0.193,0.211 -0.287,0.318 0.523,0.041 0.634,-0.818 1.43,-0.667 -0.394,0.005 -0.644,0.337 -0.984,0.476 0.179,0.423 0.562,0.267 0.891,0.159 -0.037,0.603 -1.101,0.345 -1.465,0.54 0.54,-0.014 1.079,-0.064 1.619,-0.064 -0.542,0.225 -1.13,0.323 -1.65,0.604 0.531,0.048 1.911,0.2 2.32,-0.222 -0.327,0.034 -0.672,0.114 -0.988,-0.032 0.772,-0.08 1.545,-0.195 2.321,-0.095 -0.119,0.092 -0.235,0.188 -0.349,0.286 0.278,0.227 0.817,0.142 0.635,-0.317 0.417,0.055 1.518,-0.869 1.65,-0.127 0.291,-0.097 0.505,-0.211 0,-0.381 0.466,0.19 1.433,-0.449 0.732,-0.572 0.363,0.166 0.625,-0.222 0.983,-0.191 -0.122,0.1 -0.238,0.206 -0.348,0.318 0.105,0.074 0.211,0.148 0.317,0.223 -0.296,0.384 -1.049,0.229 -1.143,0.794 0.634,-0.296 1.531,-0.259 1.839,-1.017 0.051,0.519 0.315,0.274 0.671,0.063 -0.71,0.987 -2.116,0.557 -2.987,1.271 0.21,-0.106 0.432,-0.149 0.667,-0.127 -0.331,0.13 -0.692,0.195 -0.984,0.414 0.455,0.271 0.794,-0.487 1.301,-0.286 -0.113,0.088 -0.23,0.173 -0.349,0.254 0.625,0.021 1.174,-0.493 1.65,-0.826 0.292,0.5 -0.275,0.343 -0.6,0.495 -0.235,0.11 -1.392,0.585 -0.64,0.585 -0.34,0.092 -0.667,0.229 -0.984,0.381 0.381,0.125 0.61,-0.291 0.984,-0.253 -0.646,0.34 0.022,-0.01 -0.031,0.54 0.36,-0.34 0.737,-0.682 1.271,-0.635 -0.38,0.078 -0.71,0.307 -0.953,0.604 0.35,-0.11 0.665,-0.304 1.015,-0.414 -0.247,0.116 -0.458,0.307 -0.6,0.54 0.792,0.025 1.169,-0.767 1.906,-0.857 -0.394,0.218 -0.563,0.647 -0.884,0.939 -0.326,0.297 -0.96,0.473 -1.052,0.966 0.699,-0.357 1.517,-1.041 2.254,-1.239 -0.719,0.596 -1.582,0.877 -2.29,1.429 0.178,0.256 0.436,0.28 0.635,0.032 0.076,0.434 0.409,0.325 0.543,0 -0.382,0.819 0.588,-0.135 0.728,-0.223 0.341,-0.215 0.749,-0.082 0.732,-0.635 0.221,0.271 0.425,0.233 0.539,-0.096 -0.044,0.251 -0.16,0.463 -0.349,0.635 0.191,0.034 0.382,0.066 0.574,0.095 -0.25,-0.066 -0.462,-0.003 -0.635,0.191 0.193,0.161 0.416,0.235 0.667,0.223 -0.689,0.164 -0.084,0.27 0.197,0.336 0.367,0.087 0.636,-0.046 0.566,-0.463 0.299,0.109 0.594,0.261 0.922,0.254 -0.035,-0.468 -1.335,-0.476 -1.655,-0.541 0.659,-0.135 1.334,0.505 1.968,0.127 -0.05,-0.251 -0.218,-0.376 -0.472,-0.318 0.208,-0.116 0.43,-0.158 0.667,-0.127 -0.149,-0.366 -0.861,-0.379 -0.225,-0.54 -0.342,0.048 -0.649,0.21 -0.984,0.286 0.247,-0.118 0.459,-0.308 0.604,-0.54 -0.546,-0.185 -1.155,-0.152 -1.654,-0.477 0.375,0.137 0.973,0.334 1.271,-0.064 0.141,0.63 1.602,0.581 0.794,0.286 0.436,0.124 0.916,0.047 1.337,-0.095 -0.225,-0.012 -0.447,-0.044 -0.667,-0.095 0.363,0.058 0.751,0.047 0.984,-0.286 -0.44,0.192 -0.846,0.222 -1.301,0.064 0.377,0.037 1.019,0.237 1.112,-0.318 -0.415,-0.175 -0.879,-0.11 -1.302,-0.254 0.522,0.07 1.135,0.276 1.65,0.064 -0.538,-0.199 -1.14,-0.161 -1.65,-0.445 0.394,0.133 0.826,0.205 1.242,0.167 0.437,-0.04 0.533,-0.444 0.915,-0.58 -0.69,0.135 -1.57,-0.014 -2.223,-0.253 0.738,-0.04 1.595,0.364 2.29,-0.032 -0.334,-0.1 -0.677,-0.162 -1.019,-0.223 0.392,0 1.049,0.244 1.333,-0.159 -0.209,0.028 -0.42,0.039 -0.631,0.032 0.815,-0.208 -0.458,-0.279 -0.67,-0.349 0.57,0.059 2.108,0.393 1.972,-0.635 -0.417,0 -0.946,0.133 -1.271,-0.223 0.4,0.083 1.053,0.248 1.454,0.121 0.308,-0.098 0.427,-0.449 0.734,-0.566 -0.427,0.253 -0.906,0.025 -1.271,-0.222 0.304,-0.002 2.123,0.339 1.526,-0.445 0.292,0.055 0.423,-0.104 0.318,-0.381 -0.257,0.054 -0.511,0.118 -0.763,0.191 0.297,-0.2 1.141,-0.645 0.901,-1.125 -0.189,-0.377 -1.046,-0.503 -1.378,-0.75 0.646,0.065 1.264,0.662 1.937,0.445 -0.217,-0.103 -0.428,-0.219 -0.631,-0.349 0.642,0.127 0.166,-0.339 -0.231,-0.306 -0.385,0.032 -0.92,-0.347 -1.167,-0.616 0.336,0.16 0.766,0.242 1.135,0.244 0.14,0 0.356,-0.008 0.442,-0.147 0.048,-0.107 0.041,-0.214 -0.02,-0.319 0.454,0.012 0.464,-0.041 0.031,-0.159 0.395,0.077 0.762,0.01 1.112,0.255 -0.34,-0.065 -0.736,-0.043 -0.86,0.349 0.274,-0.003 0.54,-0.051 0.797,-0.146 0.892,-0.298 -0.212,-0.183 0.523,-0.329 0.227,-0.045 0.763,-0.342 0.938,-0.256 0.129,-0.692 -1.347,-0.143 -0.958,-0.953 0.164,0.361 0.873,0.625 1.24,0.508 -0.045,-0.257 -0.234,-0.456 -0.477,-0.541 0.215,0 0.964,0.583 1.075,0.193 0.209,-0.733 -0.892,-0.336 -0.661,-0.987 0.295,0.135 1.238,1.013 1.597,0.738 0.134,-0.102 -0.793,-0.768 -0.9,-0.834 0.345,0.114 0.645,0.323 0.953,0.508 -0.185,-0.195 -0.396,-0.354 -0.635,-0.476 0.312,0.204 0.419,0.13 0.317,-0.223 0.131,0.104 1.053,0.795 0.415,0.064 0.228,0.224 0.355,0.181 0.515,-0.068 0.101,-0.156 0.546,0.041 0.693,0.005 -0.121,-0.634 -1.346,-0.938 -1.875,-0.826 0.335,-0.386 0.889,-0.006 1.25,0.102 0.465,0.139 0.962,-0.05 1.419,0.12 -0.083,-0.319 0.248,-0.705 -0.225,-0.826 0.452,-0.07 0.915,-0.688 0.188,-0.754 -0.58,-0.053 -1.278,0.202 -1.714,-0.326 0.425,-0.471 1.11,-0.096 1.637,-0.299 0.516,-0.198 0.875,0.146 1.35,0.013 -0.012,-0.249 -0.162,-0.399 -0.411,-0.413 0.644,-0.719 -0.286,-0.996 -0.604,-1.557 0.335,-0.042 0.214,-0.184 0.34,-0.393 0.187,-0.31 0.875,-0.13 1.166,-0.217 0.211,-0.063 0.424,0.241 0.59,0.313 0.208,0.09 1.375,-0.133 0.697,-0.434 0.44,0.074 0.607,-0.495 1.081,-0.349 -0.088,-0.103 -0.172,-0.209 -0.251,-0.318 0.114,-0.067 0.23,-0.131 0.349,-0.19 -0.25,-0.088 -0.505,-0.163 -0.763,-0.222 0.164,-0.567 0.47,-0.144 0.828,-0.199 0.285,-0.043 0.361,-0.533 0.673,-0.51 0.245,0.019 0.202,0.416 0.405,0.454 0.311,0.059 0.782,-0.217 0.508,-0.572 0.557,0.206 1.042,0.451 1.654,0.413 -0.096,-0.106 -0.191,-0.211 -0.287,-0.317 0.418,0.014 0.678,-0.25 0.574,0.286 0.395,-0.385 0.833,-0.004 1.173,-0.73 -0.286,-0.133 -0.837,-0.304 -0.445,-0.699 0.019,0.643 0.792,0.37 1.081,0.095 0.171,-0.162 -0.271,-0.35 0.142,-0.415 0.332,-0.052 0.361,-0.477 0.684,-0.602 -0.244,-0.028 -0.466,-0.112 -0.666,-0.254 0.782,-0.021 1.541,0.214 2.32,0.222 -0.644,0.044 -1.96,0.656 -2.1,1.366 0.338,-0.243 0.989,0.206 1.378,0.25 0.528,0.061 0.109,-0.745 0.722,-0.695 -0.226,0.155 -0.3,0.406 -0.128,0.635 0.321,-0.479 1.326,-0.095 1.398,-0.794 0.263,0.09 0.376,0.315 0.251,0.572 0.37,-0.237 0.829,-0.053 1.18,-0.357 0.464,-0.401 0.556,-0.267 1.11,-0.373 -0.176,-0.346 0.137,-0.727 -0.353,-0.89 0.423,-0.304 0.369,0.2 0.745,0.363 0.301,0.13 0.646,0.172 0.971,0.177 -0.266,-0.219 -0.196,-0.465 0.097,-0.604 -0.183,0.916 1.721,-0.368 1.999,-0.414 -0.218,-0.246 -0.104,-0.497 0.159,-0.635 -0.071,0.727 0.608,-0.167 0.128,0.508 0.258,-0.136 0.806,-0.833 1.143,-0.572 -0.081,-0.305 0.001,-0.812 0.445,-0.635 -0.536,-0.449 0.989,-0.255 1.064,-0.687 0.059,-0.34 0.531,-0.336 0.303,-0.711 0.382,0.182 0.672,-0.223 0.6,-0.571 0.439,0.136 0.516,-0.248 0.818,-0.429 0.369,-0.221 1.124,-0.361 1.559,-0.525 0.293,-0.11 1,0.112 1.155,-0.175 0.123,-0.228 0.046,-0.615 0.438,-0.522 -0.027,-0.451 -0.505,-0.386 -0.79,-0.572 0.235,0.06 0.457,0.028 0.666,-0.096 -0.139,-0.193 -0.606,-0.29 -0.653,-0.535 -0.069,-0.367 0.348,-0.293 0.396,-0.64 0.09,0.326 0.085,0.836 0.538,0.508 0.072,0.779 0.529,0.558 1.112,0.763 -0.674,0.057 -0.15,0.504 0.282,0.503 0.798,-0.004 1.565,0.073 2.356,-0.09 -0.117,-0.236 -0.296,-0.405 -0.538,-0.508 0.331,0.014 0.478,0.287 0.749,0.422 0.298,0.149 0.593,0.046 0.901,0.022 -0.043,-0.262 -0.239,-0.441 -0.507,-0.445 0.317,-0.06 0.643,0.145 0.769,-0.267 0.108,-0.354 0.593,0.158 0.747,0.216 0.306,0.114 1.553,0.247 1.405,-0.394 0.512,0.317 1.161,0.124 1.679,-0.064 0.28,-0.102 0.5,-0.322 0.814,-0.167 0.279,0.138 0.534,-0.031 0.524,-0.34 0.244,0.363 1.083,0.145 1.399,0.032 0.513,-0.183 0.991,-0.066 1.527,-0.239 0.389,-0.125 0.782,0.003 1.17,-0.103 0.292,-0.08 0.423,-0.389 0.746,-0.389 0.681,0 1.131,-0.559 1.767,-0.699 -0.787,0.026 0.291,-0.223 0.635,-0.095 -0.119,-0.573 0.055,-0.188 0.444,-0.263 0.258,-0.05 0.596,-0.461 -0.029,-0.372 0.376,-0.419 0.886,0.056 1.332,-0.096 -0.809,-0.142 0.382,0.074 -0.127,-0.508 0.307,0.081 0.645,0.099 0.959,0.07 0.248,-0.023 1.209,-0.387 0.408,-0.546 0.355,0.023 0.987,0.245 1.289,0.078 0.456,-0.253 0.333,-0.654 -0.208,-0.649 0.275,0.024 1.474,0.229 1.333,-0.35 0.307,0.117 0.639,0.384 0.984,0.191 -0.183,-0.16 -0.395,-0.224 -0.635,-0.191 0.7,-0.053 2.12,-0.226 2.7,-0.635 -0.321,-0.375 -1.013,-0.165 -1.419,-0.114 -0.697,0.086 -1.539,0.056 -2.213,-0.146 -0.588,-0.177 -1.258,-0.039 -1.819,-0.32 -0.67,-0.336 -1.208,-0.292 -1.916,-0.118 0.099,-0.113 0.195,-0.229 0.287,-0.35 -0.743,-0.145 -1.453,0.272 -2.162,0.413 -0.927,0.185 -1.91,-0.219 -2.689,0.475 -0.604,0.539 -0.792,0.095 -1.399,0.204 -0.531,0.096 -1.562,0.09 -2.044,-0.171 0.698,0.102 2.088,0.029 2.728,-0.264 0.394,-0.179 0.806,-0.39 1.243,-0.435 0.588,-0.061 1.143,0.111 1.654,-0.285 -0.737,-0.76 -2.631,-0.107 -3.527,-0.016 -0.328,0.034 -0.654,0.097 -0.986,0.063 -0.312,-0.031 -0.157,-0.438 -0.48,-0.327 -0.38,0.132 -1.471,0.375 -1.805,0.089 0.636,0.048 1.765,0.018 2.27,-0.434 0.502,-0.452 1.677,-0.771 0.399,-1.218 0.487,0.154 1.191,0.19 1.681,0.032 -0.231,-0.076 -0.402,-0.266 -0.441,-0.508 0.351,-0.093 0.52,0.231 0.726,0.439 0.326,0.328 0.921,0.207 1.334,0.197 0.781,-0.019 2.958,-0.156 3.311,-0.916 0.104,-0.224 0.737,0.248 0.677,-0.292 -0.033,-0.3 -0.449,-0.457 -0.69,-0.519 -0.412,-0.107 -0.842,0.031 -1.262,0.025 -0.702,-0.01 -1.396,-0.14 -2.098,-0.14 0.887,-0.234 -0.463,-0.226 -0.683,-0.234 -0.663,-0.025 -1.327,0.292 -1.986,0.106 0.705,-0.087 2.179,0.177 2.669,-0.477 -0.241,-0.054 -1.872,-0.686 -0.983,-0.572 -0.444,-0.114 -0.914,-0.111 -1.368,-0.095 0.241,-0.241 0.168,-0.498 -0.128,-0.635 0.694,0.358 1.369,0.458 2.032,0.818 0.496,0.269 1.165,1.101 1.763,1.011 0.248,-0.037 0.434,-0.219 0.687,-0.241 0.342,-0.029 0.678,0.163 1.015,0.191 0.929,0.077 1.515,0.8 2.487,0.716 0.559,-0.048 1.22,0.728 1.131,1.262 -0.165,0.99 0.64,1.158 1.428,1.405 0.44,0.138 1.536,0.415 1.945,0.035 0.259,-0.241 0.067,-1.369 0.693,-0.972 -0.823,1.333 0.678,0.644 0.827,1.047 0.264,0.71 1.589,-0.609 0.669,-0.476 0.061,-0.261 0.265,-0.432 0.539,-0.413 -0.212,-0.111 -0.434,-0.196 -0.667,-0.254 0.396,0.194 0.552,-0.352 0.856,-0.477 -0.23,-0.066 -0.462,-0.077 -0.697,-0.031 0.105,-0.106 0.211,-0.212 0.317,-0.318 -0.327,0.028 -0.654,0.074 -0.984,0.063 0.336,-0.079 0.955,-0.524 1.302,-0.317 0.011,-0.276 -0.151,-0.396 -0.415,-0.35 0.232,-0.034 0.456,-0.097 0.671,-0.191 -0.465,-0.084 -0.465,-0.169 0,-0.254 -0.857,-0.238 -1.315,-0.048 -2.003,0.477 0.119,-0.925 0.781,-1.226 1.685,-1.398 -0.607,-0.011 -1.16,0.018 -1.685,0.413 -0.044,-0.27 0.132,-0.436 0.384,-0.477 -0.465,-0.17 -0.947,0.133 -1.368,0.286 0.15,-0.493 1.055,-0.71 1.491,-0.763 -0.422,-0.389 -1.071,-0.13 -1.423,-0.428 -0.422,-0.357 -1.198,-0.191 -1.149,-0.684 -0.571,0.237 -1.41,-0.33 -1.934,-0.508 -0.884,-0.302 -1.412,0.502 -2.227,0.603 0.232,-0.127 0.408,-0.347 0.477,-0.604 -0.34,-0.013 -0.693,0.084 -1.02,-0.063 0.309,0.011 2.988,0.128 2.782,-0.587 -0.38,-1.317 -3.144,-0.288 -3.858,-0.016 0.109,-0.113 0.215,-0.23 0.317,-0.35 -0.349,0.044 -0.699,0.032 -1.05,0.032 0.242,-0.028 0.474,-0.093 0.697,-0.191 -0.66,-0.222 -1.394,0.103 -2.029,-0.222 0.531,0.037 1.06,-0.032 1.59,-0.032 0.476,0 0.886,0.306 1.369,0.262 0.483,-0.044 0.909,-0.308 1.391,-0.357 0.493,-0.051 1.028,-0.007 1.368,-0.445 -0.409,-0.235 -0.899,-0.109 -1.337,-0.223 -0.704,-0.183 -1.277,-0.327 -2,-0.136 -0.501,0.132 -1.157,-0.055 -1.6,0.16 -0.322,0.156 -0.539,0.527 -0.939,0.484 0.42,-0.117 0.406,-0.647 -0.066,-0.635 0.474,0.017 0.956,-0.199 1.427,-0.071 0.551,0.151 0.869,0.061 1.273,-0.342 -0.705,0.022 -1.309,-0.321 -1.968,-0.508 0.515,-0.283 0.944,0.35 1.432,0.39 0.642,0.052 1.277,0.318 1.924,0.282 0.596,-0.034 0.927,-0.308 1.433,-0.553 0.514,-0.25 1.11,-0.191 1.662,-0.245 -0.551,-0.36 -1.415,-0.703 -1.844,-1.207 0.543,-0.246 1.172,0.57 1.533,0.855 0.567,0.446 1.004,-0.083 1.468,-0.377 0.597,-0.378 1.39,-0.097 2.009,0.083 0.924,0.269 1.629,0.285 2.582,0.266 -0.874,0.262 -1.564,0.115 -2.412,-0.141 -0.464,-0.14 -1.362,-0.399 -1.625,0.205 1.83,0.784 3.216,1.446 5.169,0.65 0.801,-0.327 1.494,-0.077 2.343,-0.141 0.697,-0.052 0.367,-0.104 0.607,-0.553 0.165,-0.308 0.594,-0.438 0.647,-0.814 -1.012,-0.027 -2.014,-0.526 -2.994,-0.516 -1.093,0.01 0.114,1.062 -0.69,1.215 0.131,-1.003 -0.143,-0.985 -1.112,-1.271 0.36,-0.091 0.785,0.023 0.988,-0.381 -0.185,-0.187 -0.409,-0.292 -0.67,-0.317 0.542,0.097 1.18,-0.002 1.654,-0.286 -0.097,-0.246 -0.299,-0.44 -0.542,-0.54 0.409,-0.048 0.643,0.399 1.102,0.389 0.865,-0.019 1.723,0.023 2.589,0.023 0.261,0 0.439,0.411 0.664,0.508 0.255,0.111 0.55,0.08 0.819,0.104 0.774,0.07 1.327,-0.409 1.973,-0.739 -0.33,0.028 -0.77,-0.165 -0.666,-0.572 -0.663,0.026 -1.237,0.366 -1.885,0.042 -0.646,-0.323 -1.411,0.159 -2.085,0.054 0.35,-0.02 0.715,-0.06 1.019,-0.254 -0.411,-0.352 0.031,-0.727 0.282,-0.985 -0.773,-0.099 -1.429,0.11 -2.173,0.27 -0.755,0.162 -0.957,-0.458 -1.603,-0.524 0.669,0.035 0.94,0.594 1.687,0.361 0.791,-0.247 1.632,-0.077 2.408,-0.33 -0.884,-0.875 -2.188,-0.722 -3.3,-1.017 0.454,0.056 0.915,-0.021 1.363,0.095 -0.332,-0.404 -0.859,-0.442 -1.332,-0.541 0.848,-0.309 1.692,0.439 2.413,0.763 0.359,0.161 2.54,-0.047 2.096,0.572 0.431,0.145 0.998,0.192 1.368,-0.127 0.355,-0.307 0.555,-1.016 0.062,-1.302 0.105,-0.064 0.211,-0.127 0.317,-0.191 -1.255,-1.222 -3.557,-0.667 -5.113,-0.667 0.77,-0.083 1.547,10e-4 2.318,0.007 0.754,0.005 1.468,-0.292 2.194,-0.282 0.772,0.01 0.439,-0.61 -0.193,-0.566 -0.75,0.052 -1.515,-0.294 -2.254,-0.144 0.469,0.09 0.869,0.373 1.333,0.477 -0.481,0.054 -0.85,-0.301 -1.301,-0.381 -0.476,-0.084 -0.924,0.199 -1.399,0.096 0.1,-0.114 0.195,-0.23 0.287,-0.35 -0.449,-0.367 -1.19,-0.205 -1.716,-0.19 0.501,-0.322 1.128,0.113 1.654,-0.159 -0.237,-0.016 -0.47,0.006 -0.701,0.063 0.221,-0.066 0.444,-0.119 0.67,-0.159 -0.213,-0.13 -0.437,-0.151 -0.67,-0.063 0.644,-0.107 -0.363,-0.399 -0.667,0.063 -0.08,-0.242 -0.278,-0.423 -0.538,-0.445 0.135,-0.132 0.886,-0.54 1.069,-0.557 0.423,-0.04 0.592,0.443 0.938,0.541 0.619,0.174 1.443,-0.249 2.025,-0.428 -0.52,-0.275 -1.131,-0.088 -1.685,-0.159 0.734,-0.211 1.639,0.327 2.32,-0.095 -0.209,-0.117 -0.432,-0.149 -0.666,-0.095 1.087,-0.347 2.359,-0.064 3.444,0.164 0.682,0.143 2.057,0.567 2.661,0.04 1.184,-1.031 -0.794,-1.606 -1.6,-1.111 -0.397,0.245 -0.736,-0.006 -0.985,-0.244 -0.435,-0.415 -1.732,-0.16 -2.28,-0.184 0.446,-0.14 0.913,0.052 1.363,-0.063 -0.678,-0.164 -1.379,-0.168 -2.064,-0.285 0.449,-0.024 0.886,0.133 1.336,0.063 -0.858,-0.164 0.256,-0.151 0.379,-0.127 -0.364,-0.25 -0.932,-0.335 -1.363,-0.286 1.357,-0.421 2.696,0.231 4.063,0.127 -0.179,-0.772 -1.992,-0.691 -2.571,-0.781 -0.551,-0.084 -0.994,-0.337 -1.558,-0.137 -0.653,0.232 -0.997,0.953 -1.65,1.109 0.909,-0.316 -0.508,-0.381 -0.702,-0.381 0.523,-0.519 1.183,-0.868 1.844,-1.176 -0.222,-0.02 -0.444,-0.041 -0.667,-0.063 0.369,-0.034 1.02,0.042 1.072,-0.481 0.034,-0.333 0.692,-0.651 0.958,-0.757 -0.195,-0.184 -0.417,-0.227 -0.667,-0.127 0.175,-0.083 1.463,-0.421 0.574,-0.508 0.451,-0.099 0.963,-0.315 1.432,-0.238 0.422,0.069 1.037,0.234 1.314,-0.22 0.257,-0.422 0.546,-0.274 0.968,-0.4 0.267,-0.08 0.433,-0.331 0.701,-0.413 0.324,-0.099 0.366,0.247 0.666,-0.096 -0.704,-0.204 -1.109,0.283 -1.685,0.223 0.245,-0.127 0.457,-0.297 0.635,-0.508 0.119,-0.133 -0.161,-0.253 0.052,-0.359 0.612,-0.305 0.755,-0.693 1.535,-0.673 1.413,0.037 2.44,-0.127 3.751,-0.684 -0.904,-0.694 -2.359,-0.082 -3.385,-0.097 -0.544,-0.009 -1.098,-0.021 -1.634,0.086 -0.275,0.055 -1.487,0.708 -0.699,0.551 -0.667,0.244 -0.807,-0.09 -1.398,-0.064 0.301,-0.244 1.278,-0.507 0.635,-0.635 0.714,-0.072 1.374,-0.405 2.093,-0.443 1.046,-0.057 2.119,0.193 3.174,0.182 1.583,-0.016 3.023,-0.143 4.452,-0.756 -1.869,-0.436 -3.797,0.04 -5.687,-0.163 -0.788,-0.085 -1.584,-0.227 -2.378,-0.155 -0.894,0.08 -1.767,0.31 -2.669,0.191 1.458,-0.177 2.851,-0.304 4.318,-0.17 0.573,0.052 1.161,0.09 1.731,-0.008 0.458,-0.079 0.83,-0.413 1.291,-0.405 1.17,0.017 2.333,0.308 3.512,0.139 0.564,-0.081 1.093,-0.271 1.67,-0.258 0.473,0.01 1.142,0.105 1.485,-0.314 -0.249,0.007 -0.46,-0.078 -0.635,-0.254 0.671,-0.249 1.382,-0.019 2.07,-0.123 0.542,-0.083 1.046,-0.315 1.589,-0.398 0.945,-0.145 2.239,-0.097 3.012,-0.749 -1.66,-0.132 -3.31,-0.515 -4.979,-0.663 -2.027,-0.18 -4.054,-0.02 -6.076,0.155 0.074,0.107 0.148,0.212 0.225,0.318 -0.338,-0.019 -1.519,0.285 -0.635,0.222 -0.655,0.339 -1.695,0.43 -2.425,0.317 -0.417,-0.064 -0.795,-0.228 -1.225,-0.212 -0.672,0.024 -1.306,0.29 -1.975,0.34 0.134,-0.366 0.511,-0.505 0.86,-0.572 -1.896,0.248 -3.693,0.705 -5.526,1.24 -0.82,0.24 -1.846,0.333 -2.616,0.639 -0.825,0.328 -1.493,0.606 -2.371,0.82 0.188,-0.085 1.243,-0.377 0.313,-0.35 0.96,-0.208 1.842,-0.661 2.744,-1.035 0.728,-0.302 1.508,-0.426 2.223,-0.75 0.417,-0.189 1.015,-0.45 1.238,-0.881 0.353,-0.682 -1.058,-0.717 -1.387,-0.697 -0.693,0.043 -1.451,0.021 -2.132,0.14 -0.785,0.136 -1.084,0.799 -1.955,0.811 -1.05,0.014 -2.056,0.249 -3.104,0.339 -1.034,0.088 -2.251,0.528 -3.278,0.359 0.223,0.006 0.445,-0.005 0.667,-0.032 -0.222,-0.098 -0.455,-0.15 -0.697,-0.159 0.811,-0.424 1.967,-0.304 2.86,-0.397 0.708,-0.074 2.014,0.081 2.443,-0.651 -0.687,-0.561 -2.438,-0.227 -3.252,-0.243 -1.473,-0.028 -2.975,-0.09 -4.443,0.058 -2.814,0.284 -5.63,0.403 -8.439,0.788 0.251,-0.768 1.938,-0.687 2.547,-0.696 1.365,-0.021 2.749,0.027 4.088,-0.288 -0.751,-0.579 -1.993,-0.254 -2.859,-0.254 1.649,-0.197 3.294,0.232 4.945,0.104 1.932,-0.15 3.86,0.003 5.794,-0.005 1.871,-0.008 3.726,-0.325 5.595,-0.332 0.91,-0.003 1.794,0.034 2.679,-0.221 0.641,-0.185 1.459,-0.155 2.048,-0.468 -1.557,-0.75 -3.519,-0.539 -5.179,-0.349 0.131,-0.091 0.259,-0.187 0.384,-0.286 -1.342,-0.42 -2.743,0.297 -4.099,0.254 0.826,-0.047 1.627,-0.264 2.414,-0.508 -1.615,-0.782 -3.582,-0.158 -5.285,-0.158 -2.116,0 -4.193,-0.214 -6.309,-0.014 -1.838,0.174 -3.553,0.222 -5.41,0.263 -0.454,0.009 -0.773,-0.001 -1.162,0.257 -0.105,0.07 -0.842,-0.158 -0.979,-0.16 -0.93,-0.012 -1.809,0.328 -2.708,0.321 0.179,-0.037 1.171,-0.206 0.38,-0.286 1.979,-0.249 3.98,-0.285 5.974,-0.285 -0.444,-0.245 -0.946,-0.193 -1.43,-0.254 1.208,0 2.409,0.246 3.618,0.127 1.22,-0.12 2.446,-0.19 3.672,-0.19 2.706,0 5.426,0.142 8.116,-0.222 -1.574,-0.747 -3.443,-0.357 -5.118,-0.414 0.954,0.116 -0.819,0.045 -1.015,0 0.231,-0.03 0.464,-0.041 0.697,-0.032 -0.396,-0.162 -0.772,0.024 -1.174,0 -0.443,-0.026 -0.854,-0.222 -1.301,-0.222 -0.91,0 -1.82,0.059 -2.731,0.031 -1.821,-0.054 -3.647,-0.201 -5.466,-0.031 0.128,0.063 0.256,0.126 0.384,0.191 -0.441,0.164 -0.655,-0.155 -1.019,-0.222 -0.313,-0.058 -1.005,0.094 -1.372,0.109 -1.195,0.051 -2.526,-0.286 -3.68,0.113 0.244,0.027 0.466,0.112 0.666,0.253 -0.779,0.104 -1.51,-0.342 -2.288,-0.277 -0.817,0.068 -1.619,0.246 -2.442,0.15 -0.201,0.767 2.813,0.653 3.238,0.604 -1.172,0.287 -2.397,0.083 -3.586,0.191 0.852,0.233 1.739,-0.006 2.603,0.095 -1.187,0 -2.423,-0.204 -3.591,0.095 0.359,0.046 0.602,0.426 0.988,0.349 -0.328,0.28 -0.838,-0.008 -1.155,-0.145 -0.489,-0.211 -0.994,-0.195 -1.516,-0.177 -1.195,0.04 -2.403,-0.539 -3.589,-0.281 0.966,-0.149 -0.553,-0.4 -0.792,-0.42 -0.571,-0.047 -1.267,-0.083 -1.811,0.134 0.266,-0.007 0.53,0.003 0.794,0.032 -0.632,0.097 -1.271,0 -1.905,0 0.577,0.22 1.213,0.129 1.809,0.254 -0.855,-0.047 -1.712,-0.06 -2.566,-0.136 -0.883,-0.079 -1.762,0.178 -2.643,0.04 0.781,0.269 1.613,0.29 2.413,0.477 -0.727,-0.08 -1.458,-0.101 -2.186,-0.167 -0.864,-0.08 -1.808,-0.381 -2.641,0.008 0.358,-0.019 0.727,0.03 1.05,0.191 -0.487,-0.028 -0.974,-0.194 -1.46,-0.064 0.548,0.256 1.189,0.227 1.778,0.222 0.367,-0.002 0.734,0.002 1.101,-0.009 0.128,-0.004 1.277,0.036 0.421,-0.149 1.947,0.1 3.895,0.059 5.84,0.137 0.784,0.031 1.562,0.141 2.345,0.164 0.266,0.008 2.286,0.219 1.375,0.526 0.674,0.091 -0.002,0.449 -0.149,0.296 -0.25,-0.257 -0.641,-0.385 -0.974,-0.485 -0.663,-0.201 -1.693,-0.473 -2.371,-0.193 0.11,0.059 0.217,0.122 0.322,0.19 -0.262,0.795 -0.592,-0.191 -0.82,-0.257 -0.665,-0.194 -1.454,-0.138 -2.135,-0.113 -0.839,0.029 -1.68,0.038 -2.52,0.049 -0.758,0.011 -1.655,-0.216 -2.374,0.099 0.527,0.168 1.065,0.299 1.606,0.415 0.274,0.058 0.549,0.113 0.824,0.165 0.193,0.037 1.367,0.065 0.46,0.278 0.934,0.182 1.895,0.095 2.828,0.286 -0.958,0.061 -1.956,-0.037 -2.906,-0.172 -0.395,-0.055 -0.807,-0.116 -1.204,-0.045 -0.241,0.043 -1.149,0.44 -0.337,0.502 -0.351,0.07 -0.736,0.039 -1.046,0.254 0.222,0.023 0.444,0.044 0.667,0.063 -0.785,0.251 0.147,0.275 0.349,0.286 -1.171,0.273 -2.244,0.056 -3.353,-0.346 -0.917,-0.333 -1.911,-0.217 -2.817,-0.542 -0.849,-0.304 -1.96,-0.43 -2.853,-0.605 -1.194,-0.235 -2.452,-0.175 -3.653,-0.031 0.303,0.21 0.163,0.601 0.451,0.782 0.47,0.294 1.235,0.386 1.773,0.488 -1,0.31 -2.14,0.179 -3.146,-0.032 0.635,0.363 1.397,0.372 2.034,0.73 -0.735,0.188 -1.347,-0.248 -2.034,-0.413 -0.855,-0.206 -1.789,-0.259 -2.661,-0.385 -0.277,-0.04 -0.683,-0.164 -0.961,-0.099 -0.354,0.083 -0.555,0.451 -0.932,0.542 -0.531,0.129 -1.361,0.669 -1.892,0.577 0.306,-0.535 1.224,-0.605 1.436,-1.235 0.331,-0.982 -2.999,-0.513 -3.376,-0.48 0.976,-0.053 -1.072,0.161 -1.342,0.188 -0.662,0.067 -1.279,-0.02 -1.941,0.024 -1.778,0.12 -3.57,0.09 -5.324,0.454 0.34,0.125 0.707,0.055 1.05,0.159 0.316,0.096 0.524,0.395 0.804,0.552 0.307,0.172 0.74,0.111 1.076,0.206 0.515,0.146 0.998,0.384 1.517,0.513 -0.961,0.033 -1.884,-0.464 -2.855,-0.516 -0.429,-0.022 -0.556,-0.095 -0.778,-0.423 -0.24,-0.352 -0.852,-0.231 -1.217,-0.255 -0.903,-0.059 -1.813,-0.182 -2.718,-0.078 -0.561,0.064 -2.197,0.819 -0.784,1.018 -0.429,0.211 -0.974,0.123 -1.337,0.477 0.083,0.107 0.168,0.213 0.256,0.317 -1.018,0.364 -2.232,-0.04 -3.277,-0.109 -0.54,-0.036 -1.187,-0.14 -1.674,0.169 -0.357,0.227 0.069,0.682 0.187,0.925 -0.285,-0.217 -0.442,-0.553 -0.701,-0.796 -0.366,-0.343 -1.236,0.07 -1.678,0.125 -1.266,0.154 -2.445,0.602 -3.703,0.779 -1.056,0.148 -2.089,0.333 -3.135,0.531 -0.564,0.107 -1.719,0.208 -1.998,0.822 0.478,-0.04 0.915,0.299 1.471,0.247 0.583,-0.055 1.09,0.102 1.665,0.118 1.367,0.036 2.812,-0.487 4.17,-0.269 -0.969,-0.035 -2.322,-0.026 -3.106,0.632 -0.331,0.277 -0.306,0.725 -0.643,0.995 -0.46,0.368 -1.11,0.486 -1.671,0.606 -1.355,0.289 -2.4,0.576 -3.814,0.45 -0.789,-0.071 -1.455,0.125 -2.228,0.214 -1.018,0.117 -2.061,0.048 -3.053,0.344 0.938,0.143 -0.312,0.249 -0.462,0.264 -0.545,0.059 -1.095,0.042 -1.636,0.133 -0.442,0.074 -0.894,0.073 -1.337,0.14 -0.39,0.06 -0.75,0.348 -1.12,0.379 -0.754,0.063 -1.416,-0.06 -2.196,0.077 -0.511,0.089 -1.022,0.079 -1.537,0.126 -0.474,0.044 -0.797,0.464 -1.273,0.5 0.865,0.184 -0.708,0.553 -0.988,0.477 0.542,0.104 0.902,0.502 1.398,0.699 0.478,0.188 1.151,0.188 1.655,0.127 -0.226,0.079 -0.449,0.164 -0.671,0.254 1.093,0.276 2.175,-0.25 3.273,-0.159 -0.566,0.18 -1.159,0.3 -1.747,0.381 0.661,0.312 1.691,0.193 2.352,-0.064 -0.547,0.395 -1.305,0.33 -1.937,0.444 0.866,0.293 1.847,0.367 2.756,0.299 0.434,-0.033 0.547,-0.07 0.765,-0.401 0.207,-0.315 0.694,0.251 0.972,0.289 0.92,0.125 1.744,-0.127 2.611,-0.378 0.571,-0.166 1.693,-0.408 1.883,0.414 -0.304,0.19 -0.861,0.18 -1.21,0.167 -0.378,-0.014 -0.272,0.487 0.134,0.436 -0.76,0.156 -1.766,-0.341 -2.582,-0.316 -1.098,0.033 -2.25,0.072 -3.33,0.285 0.636,0.484 1.647,0.288 2.383,0.261 1.177,-0.043 2.319,0.269 3.493,-0.007 -1.172,0.548 -11.814,-0.708 -11.625,0.699 0.347,-0.071 0.673,0.099 1.019,0.063 -0.231,0.05 -0.465,0.082 -0.702,0.095 1.011,1.049 2.227,-0.677 3.335,-0.254 -0.492,0.007 -1.244,0.23 -1.557,0.638 z"
         id="path4206" />
      <path
         style="fill:#aaaaaa"
         inkscape:connector-curvature="0"
         d="m 137.82,221.493 c -0.104,-0.066 -0.209,-0.056 -0.317,0.032 0.105,-0.011 0.211,-0.021 0.317,-0.032 z"
         id="path4232" />
      <path
         style="fill:#aaaaaa"
         inkscape:connector-curvature="0"
         d="m 137.692,221.144 c -0.107,0.136 -0.206,0.083 -0.159,0.318 0.053,-0.107 0.106,-0.212 0.159,-0.318 z"
         id="path4234" />
      <path
         style="fill:#aaaaaa"
         inkscape:connector-curvature="0"
         d="m 139.091,224.416 c -0.116,0.033 -0.221,0.085 -0.318,0.158 0.106,-0.053 0.212,-0.105 0.318,-0.158 z"
         id="path4244" />
      <path
         style="fill:#aaaaaa"
         inkscape:connector-curvature="0"
         d="m 139.219,225.463 c -0.11,0.032 -0.216,0.074 -0.318,0.127 0.106,-0.042 0.211,-0.084 0.318,-0.127 z"
         id="path4246" />
      <path
         style="fill:#aaaaaa"
         inkscape:connector-curvature="0"
         d="m 139.695,226.321 c -0.108,0.009 -0.214,0.03 -0.317,0.064 0.105,-0.021 0.211,-0.043 0.317,-0.064 z"
         id="path4250" />
      <path
         style="fill:#aaaaaa"
         inkscape:connector-curvature="0"
         d="m 140.043,227.655 c -0.121,-0.008 -0.236,0.014 -0.349,0.063 0.117,-0.02 0.233,-0.041 0.349,-0.063 z"
         id="path4254" />
      <path
         style="fill:#aaaaaa"
         inkscape:connector-curvature="0"
         d="m 148.938,230.642 c -0.105,-0.095 -0.565,0.368 -0.635,0.413 0.253,-0.074 0.465,-0.211 0.635,-0.413 z"
         id="path4350" />
      <path
         style="fill:#aaaaaa"
         inkscape:connector-curvature="0"
         d="m 150.557,231.562 c -0.006,0.12 0.037,0.226 0.128,0.318 -0.043,-0.106 -0.086,-0.212 -0.128,-0.318 z"
         id="path4360" />
      <path
         style="fill:#aaaaaa"
         inkscape:connector-curvature="0"
         d="m 152.273,232.103 c 0,0.084 0,0.169 0,0.254 0.128,-0.068 0.244,-0.153 0.349,-0.254 -0.115,-0.061 -0.231,-0.061 -0.349,0 z"
         id="path4362" />
      <path
         style="fill:#aaaaaa"
         inkscape:connector-curvature="0"
         d="m 154.942,229.053 c 0.235,0.124 0.458,0.103 0.667,-0.064 -0.226,-0.011 -0.448,0.01 -0.667,0.064 z"
         id="path4366" />
      <path
         style="fill:#aaaaaa"
         inkscape:connector-curvature="0"
         d="m 135.407,213.044 c 0.277,0.127 0.629,0.073 0.666,-0.286 -0.258,0.012 -0.48,0.107 -0.666,0.286 z"
         id="path4218" />
      <path
         style="fill:#aaaaaa"
         inkscape:connector-curvature="0"
         d="m 135.821,213.552 c 0.111,-0.286 0.025,-0.444 -0.322,-0.159 0.107,0.053 0.215,0.106 0.322,0.159 z"
         id="path4220" />
      <path
         style="fill:#aaaaaa"
         inkscape:connector-curvature="0"
         d="m 137.026,214.41 c -0.144,-0.028 -0.26,0.025 -0.349,0.159 0.116,-0.053 0.232,-0.107 0.349,-0.159 z"
         id="path4224" />
      <path
         style="fill:#aaaaaa"
         inkscape:connector-curvature="0"
         d="m 138.041,217.269 c -0.207,-0.189 -0.515,0.006 -0.631,0.19 0.229,0.001 0.44,-0.063 0.631,-0.19 z"
         id="path4230" />
      <path
         style="fill:#aaaaaa"
         inkscape:connector-curvature="0"
         d="m 138.994,216.475 c -0.417,-0.178 -0.986,0.375 -1.302,0.571 0.53,0.016 0.962,-0.158 1.302,-0.571 z"
         id="path4236" />
      <path
         style="fill:#aaaaaa"
         inkscape:connector-curvature="0"
         d="m 139.726,216.57 c -0.633,-0.512 -1.235,0.772 -1.65,1.048 0.623,-0.189 1.143,-0.66 1.65,-1.048 z"
         id="path4240" />
      <path
         style="fill:#aaaaaa"
         inkscape:connector-curvature="0"
         d="m 140.709,227.401 c -0.224,-0.056 -0.436,-0.023 -0.635,0.095 0.225,0.055 0.437,0.023 0.635,-0.095 z"
         id="path4258" />
      <path
         style="fill:#aaaaaa"
         inkscape:connector-curvature="0"
         d="m 141.918,229.339 c -0.383,-0.191 -0.795,-0.084 -1.178,0.032 0.212,0.556 0.946,0.438 1.178,-0.032 z"
         id="path4264" />
      <path
         style="fill:#aaaaaa"
         inkscape:connector-curvature="0"
         d="m 141.186,228.322 c -0.116,0.043 -0.232,0.085 -0.348,0.127 0.222,-0.023 0.444,-0.044 0.666,-0.063 -0.106,-0.021 -0.212,-0.042 -0.318,-0.064 z"
         id="path4266" />
      <path
         style="fill:#aaaaaa"
         inkscape:connector-curvature="0"
         d="m 146.207,229.021 c 0.01,-0.063 0.021,-0.127 0.031,-0.191 -0.545,0.056 -1.309,0.233 -1.686,0.667 0.494,-0.322 1.126,-0.241 1.655,-0.476 z"
         id="path4326" />
      <path
         style="fill:#aaaaaa"
         inkscape:connector-curvature="0"
         d="m 145.858,229.434 c -0.244,0.028 -0.465,0.112 -0.666,0.254 0.244,-0.029 0.465,-0.113 0.666,-0.254 z"
         id="path4328" />
      <path
         style="fill:#aaaaaa"
         inkscape:connector-curvature="0"
         d="m 146.683,229.657 c -0.26,-0.008 -0.494,0.066 -0.702,0.222 0.25,-0.024 0.484,-0.098 0.702,-0.222 z"
         id="path4334" />
      <path
         style="fill:#aaaaaa"
         inkscape:connector-curvature="0"
         d="m 148.302,230.8 c -0.566,-0.123 -0.667,0.25 -0.891,0.667 0.348,-0.138 0.719,-0.309 0.891,-0.667 z"
         id="path4340" />
      <path
         style="fill:#aaaaaa"
         inkscape:connector-curvature="0"
         d="m 148.748,230.61 c -0.109,0.054 -0.232,0.099 -0.318,0.19 0.106,-0.063 0.212,-0.127 0.318,-0.19 z"
         id="path4352" />
      <path
         style="fill:#aaaaaa"
         inkscape:connector-curvature="0"
         d="m 149.542,232.103 c 0.292,0.035 0.604,0.01 0.856,-0.159 -0.244,-0.458 -0.717,-0.241 -0.856,0.159 z"
         id="path4354" />
      <path
         style="fill:#aaaaaa"
         inkscape:connector-curvature="0"
         d="m 150.146,232.103 c -0.106,0.084 -0.211,0.169 -0.318,0.254 0.272,0.23 0.71,-0.153 1.046,-0.254 -0.242,-0.075 -0.485,-0.075 -0.728,0 z"
         id="path4356" />
      <path
         style="fill:#aaaaaa"
         inkscape:connector-curvature="0"
         d="m 150.843,232.865 c 0.276,-0.033 0.509,-0.149 0.701,-0.35 -0.527,-0.365 -0.863,-0.218 -1.24,0.254 0.26,0.016 0.482,-0.069 0.666,-0.254 -0.041,0.117 -0.084,0.234 -0.127,0.35 z"
         id="path4358" />
      <path
         style="fill:#aaaaaa"
         inkscape:connector-curvature="0"
         d="m 152.688,232.103 c -0.064,0.106 -0.129,0.211 -0.194,0.318 0.112,-0.083 0.177,-0.189 0.194,-0.318 z"
         id="path4364" />
      <path
         style="fill:#aaaaaa"
         inkscape:connector-curvature="0"
         d="m 159.103,223.526 c 0.271,-0.307 0.219,-0.413 -0.159,-0.318 0.053,0.106 0.105,0.212 0.159,0.318 z"
         id="path4368" />
      <path
         style="fill:#aaaaaa"
         inkscape:connector-curvature="0"
         d="m 161.232,222.192 c 0.2,-0.125 0.347,-0.293 0.441,-0.508 -0.244,0.061 -0.425,0.25 -0.441,0.508 z"
         id="path4370" />
      <path
         style="fill:#aaaaaa"
         inkscape:connector-curvature="0"
         d="m 162.504,221.334 c 0.057,-0.275 -0.05,-0.285 -0.322,-0.032 0.107,0.011 0.214,0.022 0.322,0.032 z"
         id="path4372" />
      <path
         style="fill:#aaaaaa"
         inkscape:connector-curvature="0"
         d="m 151.1,232.103 c 0.116,-0.042 0.232,-0.084 0.349,-0.127 -0.251,0.012 -0.473,-0.062 -0.667,-0.222 0.313,-0.341 2.31,-0.212 2.352,0.349 -0.328,0.008 -0.624,-0.145 -0.922,-0.254 0.125,0.755 -0.742,0.442 -1.112,0.254 z"
         id="path4534" />
      <path
         style="fill:#aaaaaa"
         inkscape:connector-curvature="0"
         d="m 158.815,222.796 c 0.165,-0.521 0.785,-0.382 1.178,-0.286 -0.373,0.147 -0.768,0.295 -1.178,0.286 z"
         id="path4536" />
      <path
         style="fill:#aaaaaa"
         inkscape:connector-curvature="0"
         d="m 161.295,220.254 c 0.144,-0.355 0.511,-0.451 0.697,-0.063 -0.225,-0.149 -0.509,-0.146 -0.697,0.063 z"
         id="path4538" />
      <path
         style="fill:#aaaaaa"
         inkscape:connector-curvature="0"
         d="m 227.524,179.214 c 0.322,0.02 0.613,0.17 0.891,0.318 -0.304,-0.082 -0.603,-0.189 -0.891,-0.318 z"
         id="path4544" />
    </g>
  </g>
</svg>
