<?xml version="1.0" encoding="UTF-8" standalone="no"?>
<!-- Created with Inkscape (http://www.inkscape.org/) -->

<svg
   xmlns:dc="http://purl.org/dc/elements/1.1/"
   xmlns:cc="http://creativecommons.org/ns#"
   xmlns:rdf="http://www.w3.org/1999/02/22-rdf-syntax-ns#"
   xmlns:svg="http://www.w3.org/2000/svg"
   xmlns="http://www.w3.org/2000/svg"
   xmlns:sodipodi="http://sodipodi.sourceforge.net/DTD/sodipodi-0.dtd"
   xmlns:inkscape="http://www.inkscape.org/namespaces/inkscape"
   width="369.79999mm"
   height="414.60001mm"
   viewBox="0 0 369.79998 414.60001"
   version="1.1"
   id="svg7070"
   inkscape:version="0.92.4 (5da689c313, 2019-01-14)"
   sodipodi:docname="guatemala.svg">
  <defs
     id="defs7064" />
  <sodipodi:namedview
     id="base"
     pagecolor="#ffffff"
     bordercolor="#666666"
     borderopacity="1.0"
     inkscape:pageopacity="0.0"
     inkscape:pageshadow="2"
     inkscape:zoom="1.4"
     inkscape:cx="-155.34297"
     inkscape:cy="-93.016804"
     inkscape:document-units="mm"
     inkscape:current-layer="layer1"
     showgrid="false"
     inkscape:window-width="958"
     inkscape:window-height="1008"
     inkscape:window-x="-7"
     inkscape:window-y="0"
     inkscape:window-maximized="0" />
  <metadata
     id="metadata7067">
    <rdf:RDF>
      <cc:Work
         rdf:about="">
        <dc:format>image/svg+xml</dc:format>
        <dc:type
           rdf:resource="http://purl.org/dc/dcmitype/StillImage" />
        <dc:title />
      </cc:Work>
    </rdf:RDF>
  </metadata>
  <g
     inkscape:label="Layer 1"
     inkscape:groupmode="layer"
     id="layer1"
     transform="translate(-172.01429,334.04134)">
    <path
       inkscape:connector-curvature="0"
       style="fill:#ffffff;stroke-width:26.45851517"
       d="m 172.02629,-0.94484717 c 9.49902,-11.32532083 7.87919,-23.25971183 11.29684,-36.83429483 1.63983,-6.610771 10.92588,-11.193305 8.93908,-18.470154 -3.67962,-13.574582 -3.53964,-15.823845 4.38955,-29.028384 11.90477,-19.81931 21.98474,-45.32829 30.21289,-62.15725 8.35914,-17.12099 40.44985,-7.36086 57.4081,-7.36086 9.759,0 60.92774,6.11072 65.95423,-2.09024 1.66983,-2.72032 6.05937,-34.294 4.67952,-35.48514 -5.8694,-5.08059 -13.86258,-2.78032 -15.68839,-12.25143 -2.08979,-10.79625 -4.51954,-16.66994 -14.6035,-22.75665 -19.28602,-11.66936 -31.32378,-30.8536 -46.6942,-46.78345 11.6668,0 32.51366,5.48064 39.52494,-7.51088 7.21925,-13.38956 -1.60984,-33.81794 8.35914,-45.4873 10.6879,-12.51646 58.59898,-4.13049 73.9164,-4.13049 29.41898,0 58.86395,0 88.28293,0 -7.45923,31.78071 -8.19916,64.61854 -14.28653,96.63727 -6.23936,32.75882 -13.38663,65.38663 -18.4921,98.35747 15.60839,-1.61019 48.78398,-2.33027 51.27073,19.31625 2.53974,-5.63065 5.12947,-12.35744 11.77279,-14.28866 -2.08979,-2.94035 -4.33955,-5.74067 -6.71931,-8.41098 11.6928,4.23049 19.65598,14.15665 30.26489,20.19035 -28.36009,11.85438 -45.92728,40.406712 -72.0386,55.833511 -12.16975,7.170836 -27.99012,15.744836 -24.49748,32.520792 2.45975,11.881385 5.12947,20.005332 -4.62952,29.0013812 -9.22906,8.4709877 -35.39737,13.6805948 -32.85763,27.1761688 1.50985,7.990932 -4.41954,6.320737 -10.07896,11.32532 -1.10989,1.000117 -10.89988,13.971629 -9.44903,13.336555 -11.50782,5.190606 -40.50384,7.010818 -34.65744,30.854598 -13.70359,-6.010701 -26.03232,-15.982864 -41.08478,-18.550163 -15.37142,-2.650309 -31.66774,2.280266 -47.38213,0.400047 -38.83701,-4.600537 -67.1441,-37.416363 -93.12443,-63.37538973 z"
       id="gt" />
  </g>
</svg>
