<?xml version="1.0" encoding="UTF-8" standalone="no"?>
<!-- Created with Inkscape (http://www.inkscape.org/) -->

<svg
   xmlns:dc="http://purl.org/dc/elements/1.1/"
   xmlns:cc="http://creativecommons.org/ns#"
   xmlns:rdf="http://www.w3.org/1999/02/22-rdf-syntax-ns#"
   xmlns:svg="http://www.w3.org/2000/svg"
   xmlns="http://www.w3.org/2000/svg"
   xmlns:sodipodi="http://sodipodi.sourceforge.net/DTD/sodipodi-0.dtd"
   xmlns:inkscape="http://www.inkscape.org/namespaces/inkscape"
   width="270.5mm"
   height="176.2mm"
   viewBox="0 0 270.50001 176.19994"
   version="1.1"
   id="svg7070"
   inkscape:version="0.92.4 (5da689c313, 2019-01-14)"
   sodipodi:docname="guinea_bissau.svg">
  <defs
     id="defs7064" />
  <sodipodi:namedview
     id="base"
     pagecolor="#ffffff"
     bordercolor="#666666"
     borderopacity="1.0"
     inkscape:pageopacity="0.0"
     inkscape:pageshadow="2"
     inkscape:zoom="7.9195959"
     inkscape:cx="-18.363824"
     inkscape:cy="-11.885447"
     inkscape:document-units="mm"
     inkscape:current-layer="layer1"
     showgrid="false"
     inkscape:window-width="958"
     inkscape:window-height="1008"
     inkscape:window-x="-7"
     inkscape:window-y="0"
     inkscape:window-maximized="0" />
  <metadata
     id="metadata7067">
    <rdf:RDF>
      <cc:Work
         rdf:about="">
        <dc:format>image/svg+xml</dc:format>
        <dc:type
           rdf:resource="http://purl.org/dc/dcmitype/StillImage" />
        <dc:title />
      </cc:Work>
    </rdf:RDF>
  </metadata>
  <g
     inkscape:label="Layer 1"
     inkscape:groupmode="layer"
     id="layer1"
     transform="translate(-162.29941,137.09937)">
    <g
       transform="matrix(26.456802,0,0,26.451047,-5309.3641,-10977.734)"
       id="gw"
       style="fill:#ffffff">
      <path
         style="fill:#ffffff"
         inkscape:connector-curvature="0"
         id="path3430"
         d="m 208.082,414.431 c -0.01,-0.084 -0.021,-0.169 -0.031,-0.254 -0.119,0.068 -0.225,0.153 -0.317,0.254 0.115,0 0.232,0 0.348,0 z" />
      <path
         style="fill:#ffffff"
         inkscape:connector-curvature="0"
         id="path3432"
         d="m 208.276,413.067 c 0.291,-0.145 0.249,-0.251 -0.128,-0.317 0.042,0.105 0.085,0.211 0.128,0.317 z" />
      <path
         style="fill:#ffffff"
         inkscape:connector-curvature="0"
         id="path3434"
         d="m 208.562,416.18 c 0.116,-0.091 0.243,-0.165 0.379,-0.223 -0.253,-0.536 -0.899,-0.179 -0.379,0.223 z" />
      <path
         style="fill:#ffffff"
         inkscape:connector-curvature="0"
         id="path3436"
         d="m 209.101,412.875 c -0.16,0.01 -0.319,0.031 -0.477,0.063 0.029,0.465 0.609,0.391 0.477,-0.063 z" />
      <path
         style="fill:#ffffff"
         inkscape:connector-curvature="0"
         id="path3438"
         d="m 209.069,414.272 c -0.042,0.105 -0.085,0.211 -0.127,0.317 0.266,0.134 0.434,-0.021 0.476,-0.286 -0.116,-0.005 -0.232,-0.016 -0.349,-0.031 z" />
      <path
         style="fill:#ffffff"
         inkscape:connector-curvature="0"
         id="path3440"
         d="m 209.895,415.639 c 0.176,-0.142 0.292,-0.321 0.348,-0.54 -0.23,0.089 -0.385,0.283 -0.348,0.54 z" />
      <path
         style="fill:#ffffff"
         inkscape:connector-curvature="0"
         id="path3442"
         d="m 211.452,415.703 c 0.095,-0.306 -0.011,-0.391 -0.317,-0.254 0.105,0.086 0.211,0.17 0.317,0.254 z" />
      <path
         style="fill:#ffffff"
         inkscape:connector-curvature="0"
         id="path3444"
         d="m 206.815,411.225 c 0.308,-0.213 0.709,-0.052 1.04,-0.2 0.354,-0.159 0.684,-0.36 1.086,-0.371 0.851,-0.023 1.623,0.202 2.334,-0.413 0.625,-0.542 1.413,-0.381 2.168,-0.381 1.146,0 2.292,0 3.439,0 -0.097,0.445 0.398,0.962 0,1.354 -0.216,0.212 -0.807,0.163 -0.892,0.488 -0.122,0.46 1.52,0.818 0.705,1.736 -0.42,0.473 -1.037,0.22 -1.565,0.309 -0.497,0.084 -1.088,0.478 -1.599,0.631 -0.877,0.263 -0.457,1.798 -1.353,2.121 -0.215,-0.827 -0.331,-0.936 -1.076,-1.303 0.066,-0.121 0.14,-0.237 0.22,-0.35 -0.639,0.478 -0.03,-1.479 0.887,-0.763 -0.221,-0.622 -0.783,-0.207 -1.107,0.064 -0.312,-0.558 -0.368,-0.933 0.317,-1.176 0.584,-0.207 0.791,0.419 1.333,0.382 -0.291,-0.117 -0.462,-0.488 -0.19,-0.731 -0.212,-0.072 -0.413,-0.045 -0.602,0.081 -0.312,0.17 -0.572,-0.039 -0.894,0.015 -0.312,0.052 -0.513,0.291 -0.746,0.477 -0.302,0.241 -0.71,0.203 -1.063,0.286 0.022,-0.577 0.505,-0.763 0.891,-1.08 -0.548,-0.055 -0.983,0.517 -1.526,0.398 -1.06,-0.23 -0.379,-1.169 0.128,-1.511 -0.203,0.021 -0.405,0.054 -0.604,0.095 -0.105,0.128 -0.222,0.244 -0.349,0.351 -0.39,0.015 -0.609,-0.449 -0.982,-0.509 z" />
    </g>
  </g>
</svg>
