<?xml version="1.0" encoding="UTF-8" standalone="no"?>
<!-- Created with Inkscape (http://www.inkscape.org/) -->

<svg
   xmlns:dc="http://purl.org/dc/elements/1.1/"
   xmlns:cc="http://creativecommons.org/ns#"
   xmlns:rdf="http://www.w3.org/1999/02/22-rdf-syntax-ns#"
   xmlns:svg="http://www.w3.org/2000/svg"
   xmlns="http://www.w3.org/2000/svg"
   xmlns:sodipodi="http://sodipodi.sourceforge.net/DTD/sodipodi-0.dtd"
   xmlns:inkscape="http://www.inkscape.org/namespaces/inkscape"
   width="427.89999mm"
   height="738.09998mm"
   viewBox="0 0 427.89997 738.09998"
   version="1.1"
   id="svg7070"
   inkscape:version="0.92.4 (5da689c313, 2019-01-14)"
   sodipodi:docname="guyana.svg">
  <defs
     id="defs7064" />
  <sodipodi:namedview
     id="base"
     pagecolor="#ffffff"
     bordercolor="#666666"
     borderopacity="1.0"
     inkscape:pageopacity="0.0"
     inkscape:pageshadow="2"
     inkscape:zoom="1.4"
     inkscape:cx="-204.70634"
     inkscape:cy="-86.563716"
     inkscape:document-units="mm"
     inkscape:current-layer="layer1"
     showgrid="false"
     inkscape:window-width="958"
     inkscape:window-height="1008"
     inkscape:window-x="-7"
     inkscape:window-y="0"
     inkscape:window-maximized="0" />
  <metadata
     id="metadata7067">
    <rdf:RDF>
      <cc:Work
         rdf:about="">
        <dc:format>image/svg+xml</dc:format>
        <dc:type
           rdf:resource="http://purl.org/dc/dcmitype/StillImage" />
        <dc:title />
      </cc:Work>
    </rdf:RDF>
  </metadata>
  <g
     inkscape:label="Layer 1"
     inkscape:groupmode="layer"
     id="layer1"
     transform="translate(-239.19355,655.83396)">
    <path
       inkscape:connector-curvature="0"
       style="fill:#ffffff;stroke-width:26.45966339"
       d="m 239.19355,-394.44757 c 16.93439,-18.60054 26.24915,-25.42697 20.34766,-50.64224 -4.15034,-17.72744 3.04025,-26.03549 20.08365,-27.33192 7.65062,-0.56001 -0.20002,-10.954 10.90189,-7.64614 11.74896,3.51907 15.18824,-3.91607 25.53409,-7.03813 8.36068,-2.48705 18.3905,-8.25516 22.30682,-16.48381 3.17026,-6.77313 -3.78031,-19.18266 -12.225,-16.1664 -21.06272,7.54114 -8.10066,-11.32442 -16.98739,-22.93983 -8.07066,-10.5835 2.33019,-21.53751 9.10075,-29.92486 8.52069,-10.4777 8.81072,-6.35012 21.00872,-12.62094 16.35333,-8.36116 23.47092,-28.62844 37.81209,-36.85709 19.71361,-11.32441 5.53045,-17.93914 -3.36028,-33.73503 13.73313,16.0605 32.04362,26.6705 47.86692,40.34975 -7.65063,-11.72132 -23.44392,-14.52597 -29.42341,-27.75532 19.44859,8.78417 39.77025,21.53751 54.13743,37.4657 11.58995,12.85894 26.30215,37.78321 40.69633,46.14417 16.03531,9.36617 20.18965,39.42364 14.52719,55.24603 -4.26035,11.82713 -10.39885,19.94998 -11.88097,32.96772 -1.30011,11.27141 -1.59013,23.52184 -8.25068,33.28523 22.22682,-4.07508 5.45045,-58.4476 39.69125,-46.30297 25.7191,9.15517 57.33969,27.49071 63.5842,57.20397 16.74937,-15.08148 28.63034,16.0605 30.95853,28.07283 4.10034,20.82309 -3.86032,52.36198 -17.41042,68.58128 22.51784,6.35012 -2.51021,17.62153 3.28026,29.39575 -13.81313,2.69905 -63.21417,-1.61403 -65.56936,25.21528 -2.06017,23.46894 1.75014,38.76222 -1.90015,61.80785 -2.46021,15.50479 11.48393,46.24997 22.80886,56.75417 11.58995,10.6893 3.86032,23.57484 21.19473,26.03549 3.6203,0.53001 13.04507,-4.02208 15.26725,-0.53001 7.14059,11.1656 8.07066,25.05657 10.02882,37.783204 3.6803,23.760045 28.39233,43.154409 28.39233,66.517547 0,23.7600449 26.8842,23.0456315 35.37789,37.4127008 -28.73635,18.3889442 -56.67864,-18.6534496 -84.19789,3.9160732 -4.60037,3.836072 -7.3506,8.943168 -11.48394,13.123546 -7.57062,7.699144 -17.1464,4.392082 -26.32815,7.541142 -16.82838,5.90011 -17.59544,14.261367 -37.44106,14.525972 -6.17051,0.0529 -9.68079,4.868091 -13.68012,8.784164 -3.04025,0.53001 -5.85048,1.640031 -8.39069,3.360063 0.70006,3.519066 1.1901,7.038132 1.35011,10.583599 -4.37035,8.731163 -28.68334,12.620836 -37.54707,9.60418 -6.1405,-2.11704 -2.17018,-9.260174 -10.92889,-9.366176 -6.96057,-0.0529 -20.92971,-5.212097 -23.57593,-12.409232 -4.23035,-11.588918 -20.7977,-29.501553 -33.57875,-31.221386 1.1401,-2.778052 2.28019,-5.583104 3.39028,-8.414157 -11.80097,0.770014 -10.45185,-9.816184 -9.00074,-17.8862355 2.49021,-13.9966625 -1.19009,-19.4207635 -9.66079,-29.6603555 -14.02414,-16.907117 -13.36309,-49.134021 -9.02073,-69.242698 3.33027,-15.451991 14.81721,-29.660361 14.87021,-45.985461 0.053,-14.10257 4.00033,-13.07065 12.145,-25.00357 5.13042,-7.43514 16.06231,-20.55859 11.21991,-29.50165 -3.86031,-7.14414 -13.99814,-17.06592 -13.99814,-25.58568 0,-8.17616 4.31035,-16.0076 -5.13042,-20.16158 -6.53054,-2.83105 -23.1529,-3.04306 -27.14822,-9.81618 -3.78031,-6.29712 9.39077,-25.32108 10.68987,-32.70312 2.17018,-12.25043 0.60005,-26.40589 -9.21075,-35.19026 -14.55319,-13.17644 -37.28305,7.48814 -54.90549,-1.19102 -21.00972,-10.34539 -46.83483,-51.77987 -56.33461,-72.36486 z"
       id="gy" />
  </g>
</svg>
