<?xml version="1.0" encoding="UTF-8" standalone="no"?>
<!-- Created with Inkscape (http://www.inkscape.org/) -->

<svg
   xmlns:dc="http://purl.org/dc/elements/1.1/"
   xmlns:cc="http://creativecommons.org/ns#"
   xmlns:rdf="http://www.w3.org/1999/02/22-rdf-syntax-ns#"
   xmlns:svg="http://www.w3.org/2000/svg"
   xmlns="http://www.w3.org/2000/svg"
   xmlns:sodipodi="http://sodipodi.sourceforge.net/DTD/sodipodi-0.dtd"
   xmlns:inkscape="http://www.inkscape.org/namespaces/inkscape"
   width="555.59998mm"
   height="347.89999mm"
   viewBox="0 0 555.59996 347.89999"
   version="1.1"
   id="svg7070"
   inkscape:version="0.92.4 (5da689c313, 2019-01-14)"
   sodipodi:docname="honduras.svg">
  <defs
     id="defs7064" />
  <sodipodi:namedview
     id="base"
     pagecolor="#ffffff"
     bordercolor="#666666"
     borderopacity="1.0"
     inkscape:pageopacity="0.0"
     inkscape:pageshadow="2"
     inkscape:zoom="1.4"
     inkscape:cx="-91.272487"
     inkscape:cy="-145.01507"
     inkscape:document-units="mm"
     inkscape:current-layer="layer1"
     showgrid="false"
     inkscape:window-width="958"
     inkscape:window-height="1008"
     inkscape:window-x="-7"
     inkscape:window-y="0"
     inkscape:window-maximized="0" />
  <metadata
     id="metadata7067">
    <rdf:RDF>
      <cc:Work
         rdf:about="">
        <dc:format>image/svg+xml</dc:format>
        <dc:type
           rdf:resource="http://purl.org/dc/dcmitype/StillImage" />
        <dc:title />
      </cc:Work>
    </rdf:RDF>
  </metadata>
  <g
     inkscape:label="Layer 1"
     inkscape:groupmode="layer"
     id="layer1"
     transform="translate(-155.0623,281.09922)">
    <g
       transform="matrix(26.459663,0,0,26.458286,1097.4232,-10746.198)"
       id="hn"
       style="fill:#ffffff">
      <path
         style="fill:#ffffff"
         inkscape:connector-curvature="0"
         d="m -35.615,403.154 c 0.239,-0.595 1.016,-0.729 0.645,-1.474 -0.208,-0.417 0.372,-1.056 0.696,-1.202 0.747,-0.338 1.453,-0.904 2.059,-1.453 0.238,-0.216 0.438,-0.485 0.717,-0.652 0.323,-0.194 0.505,0.072 0.767,-0.235 0.36,-0.425 1.182,-0.804 1.609,-0.368 0.311,0.317 1.85,0.354 2.312,0.311 0.645,-0.059 1.627,0.098 2.181,-0.257 0.199,-0.127 1.673,-0.453 0.863,-0.704 0.724,-0.022 1.347,0.433 2.065,0.445 0.741,0.013 1.604,-0.53 2.267,0.057 0.564,0.5 0.885,0.005 1.45,0.293 0.657,0.334 0.998,1.108 1.493,1.62 -0.229,-0.117 -0.444,-0.477 -0.726,-0.477 -0.274,0 -0.514,0.047 -0.735,-0.159 0.212,0.119 0.223,0.363 0.277,0.568 0.04,0.15 0.458,0.469 0.58,0.606 0.087,-0.255 -0.029,-0.423 -0.285,-0.476 0.308,-0.333 0.795,0.622 1.397,0.317 0.04,0.209 0.108,0.289 -0.032,0.477 0.641,-0.161 0.056,-0.591 -0.254,-0.699 1.03,0.146 0.836,1.017 1.652,1.334 -0.581,0.1 -1.12,-0.003 -1.633,0.355 -0.448,0.314 -1.367,0.614 -1.912,0.6 -0.433,-0.012 -0.829,0.452 -1.201,0.341 -0.263,-0.079 -0.51,-0.177 -0.75,-0.311 -0.111,-0.063 -0.122,-0.287 -0.232,-0.31 -0.604,-0.122 -0.666,0.646 -0.88,0.976 -0.138,0.214 -0.382,0.315 -0.508,0.54 -0.069,0.124 0.092,0.34 -0.027,0.426 -0.444,0.319 -2.116,1.1 -2.038,1.83 -0.965,-0.614 -0.929,-0.892 -1.774,-0.105 -0.393,0.366 -1.745,0.043 -1.672,0.693 0.07,0.63 0.344,1.364 -0.398,1.488 -0.391,0.065 -0.329,0.487 -0.432,0.769 -0.18,0.487 -0.861,0.312 -1.251,0.363 0.288,-0.468 -1.145,-1.114 -0.127,-1.493 -0.314,0.104 -0.736,0.1 -0.794,-0.317 -0.093,0.353 -0.382,0.452 -0.667,0.222 0.377,-0.122 0.309,-0.517 0.329,-0.826 0.032,-0.502 0.49,-1.063 -0.395,-1.071 -0.29,0.229 -0.447,0.187 -0.471,-0.128 -0.09,-0.112 -0.207,-0.155 -0.349,-0.132 -0.413,0.047 -0.761,0.375 -1.179,0.379 0.314,-0.707 -2.316,-1.834 -2.637,-2.161 z"
         id="path5978" />
      <path
         style="fill:#ffffff"
         inkscape:connector-curvature="0"
         d="m -25.704,396.136 c 0.384,-0.254 0.809,-0.44 1.239,-0.604 -0.446,0.005 -1.017,0.181 -1.239,0.604 z"
         id="path6082" />
    </g>
  </g>
</svg>
