<?xml version="1.0" encoding="UTF-8" standalone="no"?>
<!-- Created with Inkscape (http://www.inkscape.org/) -->

<svg
   xmlns:dc="http://purl.org/dc/elements/1.1/"
   xmlns:cc="http://creativecommons.org/ns#"
   xmlns:rdf="http://www.w3.org/1999/02/22-rdf-syntax-ns#"
   xmlns:svg="http://www.w3.org/2000/svg"
   xmlns="http://www.w3.org/2000/svg"
   xmlns:sodipodi="http://sodipodi.sourceforge.net/DTD/sodipodi-0.dtd"
   xmlns:inkscape="http://www.inkscape.org/namespaces/inkscape"
   width="526.90002mm"
   height="278.79999mm"
   viewBox="0 0 526.89999 278.80003"
   version="1.1"
   id="svg7070"
   inkscape:version="0.92.4 (5da689c313, 2019-01-14)"
   sodipodi:docname="hungary.svg">
  <defs
     id="defs7064" />
  <sodipodi:namedview
     id="base"
     pagecolor="#ffffff"
     bordercolor="#666666"
     borderopacity="1.0"
     inkscape:pageopacity="0.0"
     inkscape:pageshadow="2"
     inkscape:zoom="7.9195959"
     inkscape:cx="-16.211549"
     inkscape:cy="-14.5592"
     inkscape:document-units="mm"
     inkscape:current-layer="layer1"
     showgrid="false"
     inkscape:window-width="958"
     inkscape:window-height="1008"
     inkscape:window-x="-7"
     inkscape:window-y="0"
     inkscape:window-maximized="0" />
  <metadata
     id="metadata7067">
    <rdf:RDF>
      <cc:Work
         rdf:about="">
        <dc:format>image/svg+xml</dc:format>
        <dc:type
           rdf:resource="http://purl.org/dc/dcmitype/StillImage" />
        <dc:title />
      </cc:Work>
    </rdf:RDF>
  </metadata>
  <g
     inkscape:label="Layer 1"
     inkscape:groupmode="layer"
     id="layer1"
     transform="translate(-162.91927,233.28886)">
    <path
       inkscape:connector-curvature="0"
       style="fill:#ffffff;stroke-width:26.45806122"
       d="m 162.91927,-65.474013 c 7.8801,-8.439718 18.12423,-15.292388 30.24239,-12.620177 -3.86005,-10.186059 -6.53008,-23.8646 -3.23004,-34.55344 2.75004,-9.0487 14.15518,-12.0117 17.09222,-21.13949 2.41003,-7.54075 -24.81832,-10.31836 -9.84013,-15.95387 11.35015,-4.28586 23.44231,14.8162 31.85542,0.73998 11.90715,-19.86954 12.01215,-39.0248 39.34451,-17.8853 33.70843,26.11352 67.89288,12.88486 107.10438,8.09572 -21.72228,-17.30322 9.31012,-17.99109 22.5963,-19.26105 6.51008,-0.62998 24.79132,-3.41289 26.45834,-11.53541 2.86004,-13.89014 12.83216,-1.40196 22.9663,2.59291 13.59917,5.37082 40.26952,-3.20089 50.16565,-12.62018 7.22009,-6.85277 -0.70001,-27.75387 8.2301,-31.29915 17.46323,-6.87877 38.6565,3.20089 56.22473,4.89484 7.5401,-12.1175 20.82327,-2.16993 27.70236,4.89483 10.26613,10.55645 17.33022,11.42962 31.59141,7.14376 25.10932,-7.56674 34.47644,29.23552 58.28875,26.69561 17.70123,-1.87894 8.15011,22.80633 1.38002,28.25655 -10.53014,8.46672 -26.85535,1.37596 -35.29546,12.1175 -5.42007,6.93176 -23.4693,17.8588 -28.57537,24.55247 -8.0701,10.68884 -11.88015,24.155693 -17.35722,32.251622 -5.85008,8.65171 -5.00007,22.462447 -5.85008,31.93413 -1.00001,11.509014 -16.40521,17.567811 -20.85027,28.441747 -4.58006,11.191525 -4.45005,20.0283284 -18.36223,23.4678131 -9.66013,2.3809202 -17.09223,-1.6139459 -23.91831,6.95876682 C 523.92295,9.4268763 515.48384,2.7331007 506.75272,5.854996 494.07856,10.352845 479.18237,6.4149773 466.2972,5.1150208 457.22708,4.185052 442.77589,-1.0497726 435.1288,6.1999845 426.44868,14.454708 423.75165,21.465873 410.73448,22.074452 c -11.95916,0.559982 -24.84532,1.772941 -36.01047,6.455784 -10.47813,4.365854 -13.38817,14.710307 -25.85033,16.297754 -20.77027,2.645911 -47.67862,-2.512916 -64.74384,-13.413851 -9.82013,-6.24379 -19.07725,-4.867836 -26.90935,-15.50408 -9.68012,-13.2022575 -23.3363,-20.8750003 -36.83048,-29.738203 -12.35616,-8.148727 -21.96028,-15.292388 -29.50138,-28.071359 -5.95007,-10.106762 -13.54617,-26.139924 -27.96636,-23.57361 z"
       id="hu" />
  </g>
</svg>
