<?xml version="1.0" encoding="UTF-8" standalone="no"?>
<!-- Created with Inkscape (http://www.inkscape.org/) -->

<svg
   xmlns:dc="http://purl.org/dc/elements/1.1/"
   xmlns:cc="http://creativecommons.org/ns#"
   xmlns:rdf="http://www.w3.org/1999/02/22-rdf-syntax-ns#"
   xmlns:svg="http://www.w3.org/2000/svg"
   xmlns="http://www.w3.org/2000/svg"
   xmlns:sodipodi="http://sodipodi.sourceforge.net/DTD/sodipodi-0.dtd"
   xmlns:inkscape="http://www.inkscape.org/namespaces/inkscape"
   width="730.70001mm"
   height="276.70001mm"
   viewBox="0 0 730.69998 276.70002"
   version="1.1"
   id="svg7070"
   inkscape:version="0.92.4 (5da689c313, 2019-01-14)"
   sodipodi:docname="iceland.svg">
  <defs
     id="defs7064" />
  <sodipodi:namedview
     id="base"
     pagecolor="#ffffff"
     bordercolor="#666666"
     borderopacity="1.0"
     inkscape:pageopacity="0.0"
     inkscape:pageshadow="2"
     inkscape:zoom="1.4"
     inkscape:cx="-56.481237"
     inkscape:cy="31.001577"
     inkscape:document-units="mm"
     inkscape:current-layer="layer1"
     showgrid="false"
     inkscape:window-width="958"
     inkscape:window-height="1008"
     inkscape:window-x="-7"
     inkscape:window-y="0"
     inkscape:window-maximized="0" />
  <metadata
     id="metadata7067">
    <rdf:RDF>
      <cc:Work
         rdf:about="">
        <dc:format>image/svg+xml</dc:format>
        <dc:type
           rdf:resource="http://purl.org/dc/dcmitype/StillImage" />
        <dc:title />
      </cc:Work>
    </rdf:RDF>
  </metadata>
  <g
     inkscape:label="Layer 1"
     inkscape:groupmode="layer"
     id="layer1"
     transform="translate(-172.32208,199.88516)">
    <path
       inkscape:connector-curvature="0"
       style="fill:#ffffff;stroke-width:26.45736504"
       d="m 207.51279,-102.29378 c 12.24921,-0.44999 29.84307,-4.12696 42.01228,-6.71994 6.68956,-1.42899 4.36971,-11.93261 13.04315,-6.69395 11.66724,7.09094 21.16562,-14.18148 23.0435,5.02696 6.2196,-2.51298 12.11722,-5.58295 17.72685,-9.25992 1.23992,12.72639 17.16989,9.36592 26.03331,1.69298 -5.33965,4.33897 -11.27127,7.69894 -17.72685,10.08062 7.95948,6.56195 10.50332,-0.81999 17.03889,-3.59797 4.41972,-1.87899 17.91084,7.83193 26.74727,5.26496 -21.90558,5.31795 -46.51098,10.58331 -63.83986,26.061284 8.88943,-0.659995 17.30288,2.48698 26.03331,3.359972 8.77943,0.869993 17.35588,-4.285965 26.03331,-0.849993 -18.25481,29.156863 -76.01006,-11.03301 -95.82577,18.49425 -2.00987,-15.425075 -8.54945,-3.492972 -17.30288,-1.428988 -10.52932,2.486979 -21.42961,1.428988 -32.11791,1.428988 -21.6686,0 -9.46939,21.245827 6.39958,15.504474 16.9319,-6.13795 27.22323,-7.43494 45.98101,-5.476956 8.96942,0.929993 17.62086,0.579996 26.61528,0.579996 9.07941,0 19.8957,11.588605 28.44115,6.190949 -6.63957,1.957984 -12.69918,6.720946 -15.05402,13.414291 6.45958,1.031992 10.37132,5.264957 10.87429,11.773904 12.11721,-10.133517 31.16598,-17.568257 47.03994,-17.647556 -3.96974,6.772945 -13.70511,7.35494 -20.42467,8.889928 -8.06948,1.825985 -27.56821,19.8171384 -7.21953,14.631281 -6.61957,0.369997 -12.46119,2.6189782 -17.64685,6.7199449 15.265,3.3599727 27.5942,-12.6204969 42.83321,-5.8739519 -7.72949,0.9799917 -45.02907,9.5779218 -22.75252,18.4942492 -6.58957,1.4289884 -13.65211,-1.9049845 -20.08069,0.8499931 1.34991,13.7846877 -9.73937,10.3451157 -21.00664,12.6205977 -5.25966,3.359972 -10.39732,3.809969 -15.424,1.269989 -1.66989,-2.46098 -3.85975,-4.285965 -6.52957,-5.476955 -10.63631,3.597971 -9.14941,14.68428 -10.05435,23.547708 19.47273,-1.031991 43.1252,-1.24399 62.22596,-5.053959 9.2594,-1.825985 18.54679,1.930985 27.85919,1.057992 10.37132,-0.949992 14.28707,-11.03301 25.95431,-8.62493 -1.68989,2.962976 -3.14979,6.032951 -4.30972,9.233925 5.15967,0.899993 14.84204,6.561946 19.92171,2.46098 9.41939,-7.513939 13.8631,5.661954 -0.49997,4.259965 9.2094,6.587947 19.31375,-0.689994 26.03331,-6.720945 2.24985,3.095975 3.96974,6.455947 5.12967,10.080618 -3.99974,0.559995 -7.90949,1.401988 -11.77324,2.512979 9.2294,18.335451 28.67914,12.303 45.10807,15.213377 19.63073,3.491971 37.25158,10.662613 57.43727,11.562206 15.29201,0.659994 30.92799,0.189998 45.92902,-3.200974 6.79956,-1.560988 13.59912,-3.73097 19.60473,-7.302941 14.86803,-8.863928 -2.42985,-8.942927 12.59318,-12.885095 -21.16563,-4.206966 20.58266,-7.778937 27.17123,-8.122934 11.56125,-0.609995 32.3829,-0.559996 36.66862,-14.578481 1.10993,21.457525 37.14459,-1.137991 48.20387,-6.852945 21.08563,-10.874311 42.99221,-18.7852469 63.46888,-30.5061516 11.95922,-6.8259444 23.86445,8.8639279 36.64262,4.0219673 7.06954,-2.698978 48.81283,-25.8230897 27.35622,-27.1988787 7.08954,-8.175933 24.6314,-3.73097 13.41413,-16.774464 10.95229,16.986062 25.45035,-3.57197 39.44644,-1.692986 -15.87397,-7.989935 14.76304,-10.530314 -7.58951,-10.927211 6.02961,0.419997 11.93223,-0.129999 17.75285,-1.666986 -8.22947,-3.280974 -16.37694,-7.037943 -25.21336,-8.386932 14.94803,-10.080518 28.46715,14.155085 42.46324,-3.465972 8.80943,-11.112409 -20.95364,-10.821312 -25.66333,-10.821312 8.80942,-0.869993 17.93783,-0.709994 25.21336,-6.719945 -9.07941,-2.248982 -18.5728,-2.063983 -27.7792,-0.849993 9.14941,-1.851985 29.2341,-8.968923 26.03331,-21.827923 -10.05335,3.17497 -20.84764,-6.53495 -30.24003,-8.41393 -12.91117,-2.61898 -21.08563,3.94197 -31.03399,10.92721 6.84956,-7.30294 23.0705,-12.3559 20.18669,-25.2146 -11.93222,0.79 -23.41448,4.41897 -35.3727,5.02696 2.42984,-9.04892 15.58299,-11.2711 18.94277,-19.81713 3.14979,-7.96394 -26.61527,-9.52493 -30.74201,-16.32467 10.37033,0.52999 8.99942,-2.85698 11.16428,-10.26572 2.53983,-8.70493 21.64159,-7.80493 28.41415,-10.74201 -15.97896,3.12197 -50.84969,0.37 -56.37834,21.00773 -5.63963,-5.39796 -21.64159,-10.47742 -18.73178,-19.34084 4.6297,-14.12869 -26.29729,-15.29278 -32.80587,-11.98551 -6.50958,3.30698 -19.9487,-4.78896 -17.48786,8.06994 3.16979,16.40406 -10.8743,15.71617 -12.43519,27.49007 -2.82982,-3.09597 -29.94806,-11.377 -34.41977,-10.95371 -14.73604,1.40199 -22.75252,19.02335 -33.62582,26.90788 -3.85974,-9.97491 -36.00766,-35.50681 -46.51097,-21.06062 -3.1698,4.39196 -0.1,13.91698 3.30978,17.35655 7.85949,7.88494 5.36965,17.72686 2.82982,27.25178 -12.01122,-15.31917 -19.60373,-53.81576 -46.219,-47.91561 -7.6995,1.69299 -8.62944,9.07493 -14.31307,10.34512 -6.71957,1.48199 -12.85817,-3.09598 -19.68372,0.19 -9.51939,4.55096 -1.74989,20.16113 -9.17941,27.46357 -12.35519,12.1707 -30.02805,-25.63799 -37.70055,-31.19414 -13.49212,-9.78992 -24.02244,8.94292 -20.0277,20.24043 3.24979,9.23393 -7.48951,37.597 -15.02702,25.90249 -2.58983,20.875532 -10.66231,-4.12797 -17.85784,-5.52995 -19.57773,-3.78397 -17.64686,37.967387 -27.54121,17.30366 0.49996,9.445919 -7.7795,16.456962 -5.94962,26.061184 -4.65969,-11.879604 0.027,-34.025124 -20.18569,-26.061184 26.90626,-4.33897 -10.10634,-19.20865 -10.87429,-28.57477 20.66266,25.50559 42.19826,-21.61633 17.64685,-16.80097 15.97997,-5.39795 4.99968,-7.38194 -1.97987,-9.55092 -9.62937,-2.98997 -6.92955,-8.75793 -14.28707,-14.23448 -7.6495,-5.66196 -19.02176,-1.37599 -23.83745,-11.00661 -2.29985,-4.60396 -13.22814,-8.09594 -17.88484,-8.88993 -3.51977,-0.60999 -41.82728,5.97995 -34.55176,10.68911 10.05335,6.56195 30.47802,7.83194 42.14527,6.95795 -11.16428,2.98997 -27.46222,-4.41797 -34.44677,8.41393 6.84956,3.25397 24.23443,5.82095 25.66334,15.55737 1.02993,6.79995 -14.44506,9.36593 -17.24988,14.68428 14.92103,-20.39923 -2.98981,-17.22426 -15.97996,-10.92721 5.33965,-10.05412 3.11979,-11.45641 -6.63957,-4.20696 1.84988,-2.69898 3.51977,-5.47696 4.99967,-8.38694 -7.03954,-3.83597 -14.57805,-7.96393 -22.70052,-8.91592 -6.44958,-0.77 -22.93751,3.33397 -5.07967,8.06993 -11.21728,2.53998 -11.21728,5.87395 0,10.05412 -7.66951,-4.76196 -16.58793,-5.82095 -25.21237,-7.54094 -4.17972,15.10758 16.37594,15.13408 25.21237,19.31444 -10.58232,-1.05799 -26.69427,-9.12792 -34.44577,2.51298 10.7673,6.32395 22.91152,4.20697 34.44577,7.56694 -5.94962,0.32 -11.82524,1.13799 -17.61986,2.51298 4.43971,2.30198 9.2094,3.41297 14.23408,3.35997 -16.21795,11.13891 -34.47277,-14.34028 -52.04062,-8.41393 2.16985,6.13795 7.13953,10.90071 13.41412,12.6205 -11.21827,1.90498 -11.21827,4.70996 0,8.41393 -13.94309,-4.17997 -32.01292,-14.23448 -41.19332,3.33397 12.2492,0 24.78939,-0.28999 35.24071,7.56694 z"
       id="is" />
  </g>
</svg>
