<?xml version="1.0" encoding="UTF-8" standalone="no"?>
<!-- Created with Inkscape (http://www.inkscape.org/) -->

<svg
   xmlns:dc="http://purl.org/dc/elements/1.1/"
   xmlns:cc="http://creativecommons.org/ns#"
   xmlns:rdf="http://www.w3.org/1999/02/22-rdf-syntax-ns#"
   xmlns:svg="http://www.w3.org/2000/svg"
   xmlns="http://www.w3.org/2000/svg"
   xmlns:sodipodi="http://sodipodi.sourceforge.net/DTD/sodipodi-0.dtd"
   xmlns:inkscape="http://www.inkscape.org/namespaces/inkscape"
   width="2463.2mm"
   height="2899.5mm"
   viewBox="0 0 2463.1996 2899.4999"
   version="1.1"
   id="svg7070"
   inkscape:version="0.92.4 (5da689c313, 2019-01-14)"
   sodipodi:docname="india.svg">
  <defs
     id="defs7064" />
  <sodipodi:namedview
     id="base"
     pagecolor="#ffffff"
     bordercolor="#666666"
     borderopacity="1.0"
     inkscape:pageopacity="0.0"
     inkscape:pageshadow="2"
     inkscape:zoom="5.6"
     inkscape:cx="9.6478653"
     inkscape:cy="44.321501"
     inkscape:document-units="mm"
     inkscape:current-layer="layer1"
     showgrid="false"
     inkscape:window-width="958"
     inkscape:window-height="1008"
     inkscape:window-x="-7"
     inkscape:window-y="0"
     inkscape:window-maximized="0" />
  <metadata
     id="metadata7067">
    <rdf:RDF>
      <cc:Work
         rdf:about="">
        <dc:format>image/svg+xml</dc:format>
        <dc:type
           rdf:resource="http://purl.org/dc/dcmitype/StillImage" />
        <dc:title />
      </cc:Work>
    </rdf:RDF>
  </metadata>
  <g
     inkscape:label="Layer 1"
     inkscape:groupmode="layer"
     id="layer1"
     transform="translate(-153.20862,2855.6069)">
    <g
       transform="matrix(26.457828,0,0,26.458699,-12748.766,-11397.986)"
       id="in"
       style="fill:#ffffff">
      <path
         style="fill:#ffffff"
         inkscape:connector-curvature="0"
         id="path5460"
         d="m 574.617,411.764 c -0.086,0.15 -0.154,0.104 0,0.317 0,-0.106 0,-0.212 0,-0.317 z" />
      <path
         style="fill:#ffffff"
         inkscape:connector-curvature="0"
         id="path5466"
         d="m 577.222,425.644 c 0.005,0.107 0.015,0.213 0.031,0.318 -0.011,-0.105 -0.022,-0.212 -0.031,-0.318 z" />
      <path
         style="fill:#ffffff"
         inkscape:connector-curvature="0"
         id="path5450"
         d="m 573.188,417.102 c -0.075,-0.154 -0.158,-0.303 -0.251,-0.445 -0.281,0.231 -0.446,0.687 -0.369,1.044 0.196,0.903 0.923,-0.054 0.62,-0.599 z" />
      <path
         style="fill:#ffffff"
         inkscape:connector-curvature="0"
         id="path5452"
         d="m 573.443,409.031 c -0.629,0.525 0.006,2.101 0.062,2.731 -0.788,-0.146 -0.943,2.478 0.097,2.382 -0.461,-0.324 0.031,-0.358 0.031,-0.727 0,-0.438 -0.259,-0.851 -0.111,-1.291 0.113,-0.335 0.405,-0.623 0.336,-1.004 -0.107,-0.594 0.161,-0.196 0.271,-0.738 0.11,-0.547 -0.508,-1.103 -0.376,-1.524 0.129,-0.412 0.908,-1.269 0.102,-1.45 0.331,-0.257 0.276,-0.656 0.035,-0.953 -0.809,0.621 -0.267,1.745 -0.447,2.574 z" />
      <path
         style="fill:#ffffff"
         inkscape:connector-curvature="0"
         id="path5454"
         d="m 573.154,408.778 c -0.053,0 -0.106,0 -0.159,0 0.036,0.124 0.089,0.241 0.159,0.35 0,-0.116 0,-0.233 0,-0.35 z" />
      <path
         style="fill:#ffffff"
         inkscape:connector-curvature="0"
         id="path5456"
         d="m 574.299,422.978 c -0.147,0.066 -0.221,0.184 -0.22,0.35 0.36,0.101 0.434,-0.016 0.22,-0.35 z" />
      <path
         style="fill:#ffffff"
         inkscape:connector-curvature="0"
         id="path5458"
         d="m 574.175,412.43 c 0.072,0.111 0.177,0.175 0.312,0.19 -0.104,-0.063 -0.209,-0.127 -0.312,-0.19 z" />
      <path
         style="fill:#ffffff"
         inkscape:connector-curvature="0"
         id="path5462"
         d="m 576.587,427.677 c -0.906,0.332 0.827,0.684 0,0 z" />
      <path
         style="fill:#ffffff"
         inkscape:connector-curvature="0"
         id="path5464"
         d="m 577.029,426.916 c -0.452,0.023 -0.152,0.531 0.034,0.666 -0.096,-0.217 -0.108,-0.44 -0.034,-0.666 z" />
      <path
         style="fill:#ffffff"
         inkscape:connector-curvature="0"
         id="path5468"
         d="m 577.729,429.964 c -0.266,0.102 -0.324,0.406 -0.19,0.635 0.254,-0.133 0.379,-0.381 0.19,-0.635 z" />
      <path
         style="fill:#ffffff"
         inkscape:connector-curvature="0"
         id="path5470"
         d="m 578.336,430.824 c -1.175,-0.584 -0.225,1.24 0,1.619 0.355,-0.785 0.013,-0.93 0,-1.619 z" />
      <path
         style="fill:#ffffff"
         inkscape:connector-curvature="0"
         id="path5490"
         d="m 487.678,367.515 c -0.04,-0.749 0.783,-0.763 1.323,-0.763 0.637,0 0.323,-0.982 0.296,-1.334 0.432,0.215 1.366,0.259 1.824,0.12 0.837,-0.253 1.515,0.837 2.337,0.451 0.189,-0.089 1.377,-1.447 1.703,-0.902 0.534,0.892 1.099,0.531 1.826,-0.019 -0.708,-0.144 -0.086,-1.063 -0.338,-1.511 -0.446,-0.793 -0.932,-1.536 -1.449,-2.282 -0.284,-0.41 0.081,-1.337 -0.738,-1.092 -0.686,0.205 -1.482,-0.699 -1.414,-1.36 0.049,-0.468 0.208,-1.507 -0.212,-1.869 -0.681,-0.588 -1.898,-0.136 -2.232,-1.246 -0.242,-0.804 0.494,-1.616 0.93,-2.205 0.314,-0.423 0.482,-0.913 0.725,-1.378 0.17,-0.328 0.526,-1.065 1.009,-0.946 0.627,0.154 0.571,1.211 1.256,1.273 0.391,0.036 0.781,-0.257 1.119,-0.406 0.416,-0.185 0.836,-0.163 1.276,-0.225 1.02,-0.142 0.827,-0.968 1.408,-1.569 0.704,-0.727 0.285,-1.685 1.317,-2.271 0.943,-0.535 1.33,-1.202 1.621,-2.253 0.214,-0.769 0.007,-1.787 0.938,-2.104 0.318,-0.107 0.705,-0.179 0.881,-0.505 0.246,-0.46 -0.351,-0.562 -0.349,-0.794 0.002,-0.279 0.735,-1.261 0.901,-1.517 0.312,-0.475 1.07,-0.731 1.291,-1.247 -0.678,-0.014 -0.507,-0.65 -0.512,-1.112 -0.007,-0.561 -0.521,-0.982 -0.507,-1.464 0.024,-0.843 1.647,-1.002 2.114,-1.545 0.801,-0.933 -1.494,-1.022 -1.892,-1.168 -0.408,-0.15 -0.231,-0.756 -0.664,-0.99 -0.296,-0.16 -0.651,-0.157 -0.957,-0.296 0.13,-0.338 -0.014,-0.53 -0.304,-0.686 -0.309,-0.164 -1.194,-0.68 -0.956,-1.083 0.226,-0.382 0.389,-0.789 -0.054,-1.097 -0.271,-0.188 -0.721,-0.588 -0.331,-0.922 0.155,-0.133 1.067,-0.748 0.296,-0.816 -0.126,-0.012 -1.322,-0.021 -0.978,-0.456 0.432,-0.545 -0.142,-0.505 -0.481,-0.77 -0.424,-0.329 0.283,-1.19 0.56,-1.361 0.712,-0.438 1.454,-0.103 2.191,0.062 0.835,0.186 1.661,0.395 2.493,0.588 0.709,0.164 1.13,-0.277 1.759,-0.496 0.548,-0.191 1.126,-0.167 1.669,-0.341 0.169,-0.054 1.136,-1.038 1.062,-1.165 -0.201,-0.346 0.816,-0.874 1.09,-1.096 0.22,-0.178 0.458,-0.375 0.729,-0.47 0.228,-0.08 0.336,0.111 0.525,0.054 0.635,-0.191 0.425,0.627 0.73,1.005 0.46,0.569 0.554,1.368 1.092,1.867 0.578,0.536 1.741,0.374 2.345,1.221 0.169,0.236 0.558,0.495 0.233,0.754 -0.62,0.497 -0.456,0.575 -0.208,1.314 0.221,0.66 0.38,1.298 0.909,1.792 0.402,0.377 1.129,0.417 1.464,0.776 0.164,0.176 0.096,0.474 0.196,0.683 0.113,0.235 0.318,0.405 0.479,0.605 0.543,0.676 -0.056,0.811 -0.472,1.181 -0.369,0.327 -0.96,1.001 -1.338,0.151 -0.288,-0.647 -0.771,-0.733 -1.424,-0.247 0.229,0.262 0.314,0.559 0.404,0.885 0.101,0.365 0.458,0.549 0.694,0.812 0.51,0.565 0.364,1.202 0.827,1.692 0.274,0.291 -0.188,1.482 0.584,1.375 0.336,-0.046 0.221,-0.361 0.468,-0.446 0.389,-0.135 0.532,0.309 0.681,0.546 0.212,0.34 0.965,1.064 1.358,1.144 0.472,0.094 0.779,-0.21 1.174,0.239 0.239,0.273 0.637,0.172 0.89,0.393 0.172,0.148 0.192,0.417 0.241,0.621 0.081,0.341 0.471,0.345 0.756,0.47 0.781,0.346 1.592,0.504 2.185,1.196 -0.88,0.052 -1.093,1.296 -1.7,1.721 -0.059,0.04 0.05,0.665 -0.02,0.812 -0.248,0.524 0.112,0.747 0.015,1.241 -0.09,0.452 -0.855,0.929 -0.343,1.463 0.307,0.32 1.505,1.219 1.505,0.576 0.534,0.333 1.18,0.809 1.766,1.025 0.694,0.259 1.002,0.818 1.642,1.2 0.188,0.112 1.205,0.929 1.472,0.822 0.623,-0.249 1.231,0.262 1.762,0.533 0.226,0.116 0.995,0.128 1.118,0.278 0.427,0.524 0.485,0.666 1.232,0.817 0.393,0.08 0.903,0.487 1.294,0.199 0.52,-0.385 0.826,-0.081 1.406,0.175 -0.376,-0.998 2.12,0.016 2.291,0.068 0.688,0.209 0.242,1.118 0.875,1.265 0.542,0.125 1.365,0.398 1.699,0.871 0.268,0.379 0.821,-0.165 1.141,-0.191 0.783,-0.066 0.399,1.114 1.433,0.691 0.305,-0.125 1.639,0.335 1.932,0.512 0.755,0.452 0.927,0.002 1.62,-0.23 0.065,0.499 0.876,0.997 1.249,0.623 0.143,-0.143 1.279,0.002 1.526,0.007 0.53,0.013 0.637,-0.024 0.715,-0.595 0.134,-0.97 -0.323,-1.348 -0.695,-2.179 -0.203,-0.456 -0.145,-1.027 -0.102,-1.512 0.052,-0.589 -0.089,-1.044 -0.121,-1.617 0.589,-0.041 1.262,-0.54 1.851,-0.368 1.155,0.335 0.144,1.767 0.638,2.369 0.089,0.107 0.523,0.362 0.388,0.551 -0.208,0.29 -0.403,0.254 -0.172,0.67 0.51,0.914 1.189,0.886 2.076,1.002 0.597,0.077 0.966,0.605 1.558,0.543 0.248,-0.026 0.646,-0.034 0.861,-0.181 0.224,-0.151 0.661,-0.719 0.982,-0.493 0.805,0.562 1.808,0.377 2.729,0.342 0.281,-0.011 0.75,-0.367 0.907,-0.178 0.243,0.29 1.058,0 1.411,-0.042 0.885,-0.105 -0.139,-0.896 -0.022,-1.279 0.387,-1.265 -0.949,-0.74 -1.489,-1.333 -0.295,-0.323 -0.416,-0.986 0.221,-0.832 0.51,0.124 0.667,-0.124 1.115,-0.229 0.675,-0.159 1.912,0.191 1.635,-0.973 -0.116,-0.49 1.296,-0.983 1.354,-1.652 0.092,-1.056 1.456,-0.536 2.068,-1.137 0.492,-0.481 0.777,-1.053 1.327,-1.49 0.203,-0.162 0.409,-0.339 0.634,-0.468 0.194,-0.111 1.139,0.584 1.338,0.7 -0.234,-0.234 -0.148,-0.241 0.257,-0.02 0.315,0.133 0.684,0.354 1.04,0.34 0.364,-0.015 0.307,-0.45 0.438,-0.682 0.235,-0.415 1.039,-0.677 1.456,-0.844 0.092,-0.036 1.048,0.788 1.159,0.888 -0.635,0.278 -0.582,0.362 -0.426,0.842 0.11,0.34 0.836,-0.256 0.999,-0.302 -0.136,0.466 0.689,0.761 0.54,1.131 -0.228,0.562 -0.456,0.753 -0.573,1.315 -0.083,0.4 0.734,0.053 0.874,0.014 0.594,-0.165 1.032,0.44 1.636,0.256 0.519,-0.157 0.956,0.54 0.956,0.98 0,0.164 0.242,0.299 0.215,0.422 -0.064,0.295 -0.538,0.651 -0.737,0.851 -1.076,1.075 0.524,1.51 0.711,2.528 -0.706,0.29 -0.934,-0.68 -1.506,-0.836 -0.549,-0.149 -1.895,0.325 -2.249,0.778 -0.271,0.348 -0.499,0.641 -0.829,0.938 -0.124,0.197 -0.302,0.273 -0.533,0.23 -0.2,0.162 -0.003,0.28 -0.321,0.466 -0.342,0.197 -0.641,-0.031 -0.772,0.467 -0.097,0.365 -0.042,0.781 0.058,1.141 0.076,0.273 0.287,0.461 0.369,0.717 0.108,0.342 -0.358,0.538 -0.245,0.907 0.276,0.899 -1.329,1.487 -0.981,2.239 0.125,0.271 0.419,0.364 0.53,0.671 0.17,0.47 -0.124,1.036 -0.325,1.445 -0.497,1.013 -0.955,2.138 -0.945,3.287 -0.319,-0.253 -1.143,-0.498 -1.542,-0.602 -0.201,0.015 -0.399,0.043 -0.596,0.085 -0.255,-0.052 -0.322,-0.275 -0.625,-0.214 0.328,0.898 0.512,1.698 0.563,2.651 0.021,0.401 0.068,1.669 -0.66,1.129 0.112,0.869 0.043,1.506 0.387,2.326 0.122,0.292 0.407,1.271 -0.259,0.882 -0.333,1.315 -0.221,0.51 -1.112,0.191 0.055,0.257 -0.052,0.509 -0.256,0.667 -0.285,-0.668 -0.34,-1.423 -0.477,-2.129 -0.164,-0.85 -0.692,-1.584 -0.92,-2.418 -0.176,-0.646 -0.42,-1.297 -0.543,-1.951 -0.106,-0.572 -0.754,0.299 -1.108,-0.014 0.112,0.377 0.267,0.665 -0.077,0.974 -0.369,0.332 -0.137,0.723 -0.066,1.117 0.067,0.379 -0.377,0.835 -0.745,0.561 -0.359,-0.267 -0.245,-0.798 -0.7,-1 0.041,0.214 0.03,0.426 -0.03,0.636 -0.279,-0.651 -0.562,-1.3 -0.827,-1.957 -0.268,-0.662 0.568,-1.322 0.381,-1.919 0.329,0.043 0.917,0.147 0.856,-0.382 0.214,0.335 0.521,-0.174 0.825,0.096 0.098,-0.834 1.286,-1.674 0.763,-2.668 0.199,0.019 1.028,-0.018 0.638,-0.416 -0.456,-0.468 -1.3,-0.736 -1.939,-0.728 -0.565,0.008 -1.127,0.113 -1.691,0.022 -0.742,-0.119 -1.391,0.094 -2.131,0.002 -0.933,-0.114 -3.291,0.136 -3.154,-1.275 0.058,-0.599 -0.232,-2.61 -1.185,-2.529 0.152,0.271 0.075,0.526 -0.031,0.794 -0.442,-0.244 -1.031,-0.317 -1.347,-0.752 -0.264,-0.362 -0.413,-1.071 -1.005,-0.963 0.205,0.185 0.354,0.407 0.446,0.667 -0.331,-0.127 -0.702,-0.135 -1.023,-0.295 -0.203,-0.102 -0.291,-0.416 -0.481,-0.568 -0.255,-0.204 -0.552,-0.344 -0.816,-0.534 -0.351,0.624 0.448,0.327 0.604,0.857 -1.001,0.38 -1.647,1.804 -0.432,2.286 0.485,0.192 0.66,0.718 1.077,0.993 0.306,0.202 0.877,-0.151 0.925,0.278 0.07,0.627 0.935,0.39 0.525,1.049 -0.276,-0.145 -0.722,-0.1 -1.019,-0.071 -0.401,0.038 -0.494,0.064 -0.534,0.435 -0.042,0.387 -0.426,1.063 -0.768,0.462 -0.037,0.655 -0.563,1.174 0.097,1.716 0.484,0.396 1.08,0.646 1.695,0.692 1.242,0.093 -0.749,3.001 0.683,3.106 0.42,0.032 0.171,0.554 0.266,0.879 0.036,0.123 0.391,0.171 0.451,0.189 0.338,0.101 -0.004,0.585 0.02,0.787 0.049,0.408 0.402,0.667 0.412,1.081 0.014,0.557 0.011,0.864 0.291,1.365 0.286,0.511 0.583,1.215 0.312,1.746 -0.123,-0.079 -0.25,-0.153 -0.379,-0.222 0.097,0.212 0.843,1.049 0.586,1.263 -0.274,0.229 -0.646,-0.18 -0.653,-0.438 -0.059,0.345 -0.319,0.647 -0.538,0.19 -0.23,-0.48 0.047,-1.086 0.031,-1.588 -0.3,0.148 0.025,0.451 -0.318,0.73 0.08,-0.337 -0.135,-0.658 0.031,-0.984 -0.601,0.457 -0.055,1.938 -0.158,2.573 -0.138,-0.421 0.025,-1.098 -0.38,-1.398 0.005,0.046 0.105,1.18 -0.084,1.055 -0.061,-0.08 -0.114,-0.164 -0.161,-0.252 -0.363,-0.513 -0.044,0.762 -0.358,-0.199 0.144,0.228 0.153,0.461 0.03,0.699 -0.436,-0.395 -0.425,-1.243 -0.477,-1.779 -0.08,-0.824 -0.73,-0.666 -0.983,-1.334 0.105,0.669 1.194,0.54 0.683,1.396 -0.578,0.965 -1.116,1.357 -2.209,1.686 -0.579,0.174 -1.373,0.478 -1.502,1.154 -0.088,0.46 0.346,1.965 0.708,2.308 -0.224,0.172 -0.569,0.35 -0.677,0.629 -0.163,0.426 0.252,0.458 -0.257,0.863 -0.606,0.482 -0.837,1.411 -1.576,0.445 0.104,0.363 0.529,0.538 0.829,0.699 -0.927,0.464 -1.92,0.934 -2.955,1.08 0.326,-0.179 0.417,-0.971 -0.101,-0.793 -0.531,0.184 -1.002,0.949 -0.822,1.491 0.066,-0.205 0.554,-0.884 0.732,-0.54 -0.323,0.093 -0.821,0.938 -1.131,1.241 -0.695,0.678 -1.048,1.505 -1.532,2.339 -0.489,0.843 -1.064,1.681 -1.98,2.097 -0.786,0.357 -0.875,1.403 -1.647,1.756 0.512,0.309 -1.975,1.469 -2.252,1.718 -0.27,0.243 -0.557,0.599 -0.698,0.934 -0.229,0.541 0.494,0.679 0.252,1.297 -0.479,1.224 -1.928,1.118 -2.987,1.171 -0.432,0.021 -0.48,0.332 -0.578,0.699 -0.105,0.4 -0.53,1.112 -0.501,1.487 -0.341,-0.169 -0.349,-0.514 -0.477,-0.825 0.141,0.358 -0.08,0.69 -0.189,1.017 0.236,-1.075 -1.319,-0.466 -1.596,0.056 -0.406,0.764 -0.931,1.932 -0.629,2.783 0.248,0.701 0.535,1.461 0.545,2.179 0.018,1.229 0.258,2.205 0.599,3.4 -0.104,-0.206 -0.594,-1.195 -0.542,-0.382 -0.284,-0.583 -0.275,0.174 -0.06,0.306 0.277,0.17 0.546,0.189 0.735,0.492 0.348,0.554 0.048,1.996 -0.041,2.596 -0.157,1.071 -0.789,1.886 -1.106,2.894 -0.247,0.784 0.123,1.922 -0.451,2.576 0.099,-0.096 0.204,-0.18 0.318,-0.254 0.356,0.417 0.359,1.013 0.355,1.529 -0.008,0.85 0.185,1.688 0.156,2.536 -0.225,-0.017 -0.446,-0.048 -0.666,-0.095 0.858,0.277 -0.02,0.14 -0.172,0.099 -0.319,-0.086 -0.785,-0.25 -0.981,0.142 -0.103,0.204 -0.263,0.451 -0.142,0.683 0.181,0.347 -0.327,0.685 -0.488,0.95 -0.312,0.517 -0.922,1.647 -0.034,2.024 0.23,0.098 0.52,0.07 0.746,-0.021 0.159,-0.062 0.492,0.514 0.595,0.604 -0.874,-0.904 -2.329,-0.34 -3.273,0.127 -1.229,0.605 -0.668,1.758 -1.259,2.689 -0.3,0.471 -0.888,0.795 -1.382,1.016 -0.779,0.348 -1.223,-0.002 -1.807,-0.529 -0.269,-0.242 -2.349,-2.436 -1.686,-2.604 -0.585,0.209 -0.811,-0.961 -1.019,-1.453 -0.294,-0.701 -0.609,-1.527 -0.411,-2.295 0.171,0.275 0.24,0.601 0.256,0.921 0.074,-0.766 -0.044,0.738 0.414,0.794 -0.157,-0.418 -0.037,-0.893 -0.225,-1.302 -0.16,-0.35 -0.51,-0.538 -0.538,-0.953 0.015,0.812 -0.256,0.025 -0.238,-0.149 0.041,-0.411 -0.195,-0.539 -0.386,-0.982 -0.339,-0.789 -0.609,-1.612 -0.912,-2.417 -0.113,-0.302 -1.97,-3.322 -1.865,-3.471 -1.17,-1.439 -1.979,-3.17 -2.381,-4.974 -0.144,-0.642 -0.225,-1.227 -0.455,-1.829 -0.153,-0.399 -0.318,-0.771 -0.481,-1.164 -0.122,-0.296 -0.58,-1.053 -0.049,-0.864 -0.588,-0.196 -0.452,-1.011 -0.764,-1.429 -0.197,-0.266 -1.179,-0.795 -0.349,-0.953 -0.491,0.225 -0.737,-0.361 -0.879,-0.721 -0.11,-0.282 -0.201,-0.575 -0.342,-0.844 -0.144,-0.276 -0.584,-0.403 -0.019,-0.469 -0.278,-0.07 -0.515,-0.469 -0.506,-0.742 0.009,-0.284 -0.304,-0.372 -0.522,-0.68 -0.528,-0.744 -0.876,-1.63 -1.155,-2.494 -0.193,-0.6 -0.357,-1.23 -0.357,-1.865 0,-0.662 -0.358,-1.28 -0.463,-1.931 -0.099,-0.608 -0.442,-1.131 -0.627,-1.717 -0.121,-0.384 -0.815,-1.651 -0.181,-1.403 -0.115,-0.147 -0.993,-1.28 -0.221,-0.857 -0.126,-0.465 -0.687,-0.763 -0.477,-1.303 0.107,0.083 0.213,0.168 0.317,0.254 0.02,-0.271 -0.077,-0.493 -0.286,-0.667 0.459,-0.181 0.216,-0.622 0.128,-0.953 -0.027,0.268 -0.122,0.51 -0.318,0.699 -0.343,-0.554 -0.238,-1.8 0.539,-0.921 -0.128,-0.312 -1.281,-0.508 -0.918,-0.946 0.126,-0.152 -0.406,-0.781 -0.465,-0.976 -0.158,-0.521 -0.176,-1.035 -0.068,-1.569 0.169,-0.835 0.667,-1.708 0.334,-2.562 -0.044,-0.111 -0.268,-1.572 -0.691,-1.031 0.146,-0.383 0.061,-0.394 -0.256,-0.031 0.393,-0.467 -0.285,-0.608 -0.17,-0.953 0.073,-0.223 0.135,-0.462 0.168,-0.694 0.05,-0.339 1.189,-0.553 1.4,-0.957 -0.834,0.624 -2.752,0.14 -1.46,-0.795 -0.439,0.196 -0.954,-0.112 -0.636,-0.603 0.272,-0.42 0.706,0.007 0.983,-0.413 -0.435,0.111 -1.344,-0.048 -1.588,-0.477 -0.028,0.217 -0.454,0.3 -0.446,0.254 -0.038,0.208 0.274,0.242 0.282,0.562 0.011,0.431 -0.296,0.562 -0.661,0.676 0.082,0.108 0.167,0.215 0.256,0.318 -0.255,-0.068 -0.44,0.079 -0.512,0.317 0.896,0.277 1.283,0.864 0.693,1.696 -0.21,0.296 -0.095,0.708 -0.502,0.861 -0.493,0.186 -0.938,0.514 -1.388,0.784 -0.795,0.479 -1.699,1.066 -2.661,0.753 -0.969,-0.316 -2.12,-1.226 -2.694,-2.062 -0.856,-1.243 -2.132,-2.023 -3.132,-3.114 -0.264,-0.288 -1.012,-1.265 -0.147,-1.385 0.235,-0.033 0.247,0.418 0.424,0.515 0.339,0.183 0.964,0.038 1.024,-0.398 0.334,0.47 1.877,-0.414 2.189,-0.731 0.271,-0.275 0.22,-0.701 0.414,-1.017 0.205,-0.33 0.735,-0.552 0.286,-0.952 -0.226,0.224 0.013,0.754 -0.426,0.73 -0.475,-0.027 -0.86,0.065 -1.318,0.221 -0.391,0.132 -0.543,0.495 -0.987,0.475 -0.542,-0.026 -1.08,-0.286 -1.552,-0.531 -0.471,-0.245 -1.004,-0.458 -1.432,-0.771 -0.341,-0.248 -0.365,-0.867 -0.771,-1.013 -1.372,-0.496 0.234,-1.559 0.642,-1.875 -0.732,-0.083 -1.212,1.317 -1.938,0.984 0.142,-0.214 0.152,-0.437 0.035,-0.664 z" />
    </g>
  </g>
</svg>
