<?xml version="1.0" encoding="UTF-8" standalone="no"?>
<!-- Created with Inkscape (http://www.inkscape.org/) -->

<svg
   xmlns:dc="http://purl.org/dc/elements/1.1/"
   xmlns:cc="http://creativecommons.org/ns#"
   xmlns:rdf="http://www.w3.org/1999/02/22-rdf-syntax-ns#"
   xmlns:svg="http://www.w3.org/2000/svg"
   xmlns="http://www.w3.org/2000/svg"
   xmlns:sodipodi="http://sodipodi.sourceforge.net/DTD/sodipodi-0.dtd"
   xmlns:inkscape="http://www.inkscape.org/namespaces/inkscape"
   width="1796.4mm"
   height="1477.2mm"
   viewBox="0 0 1796.4 1477.1995"
   version="1.1"
   id="svg7070"
   inkscape:version="0.92.4 (5da689c313, 2019-01-14)"
   sodipodi:docname="iran.svg">
  <defs
     id="defs7064" />
  <sodipodi:namedview
     id="base"
     pagecolor="#ffffff"
     bordercolor="#666666"
     borderopacity="1.0"
     inkscape:pageopacity="0.0"
     inkscape:pageshadow="2"
     inkscape:zoom="7.9195959"
     inkscape:cx="18.812038"
     inkscape:cy="15.616495"
     inkscape:document-units="mm"
     inkscape:current-layer="layer1"
     showgrid="false"
     inkscape:window-width="958"
     inkscape:window-height="1008"
     inkscape:window-x="-7"
     inkscape:window-y="0"
     inkscape:window-maximized="0" />
  <metadata
     id="metadata7067">
    <rdf:RDF>
      <cc:Work
         rdf:about="">
        <dc:format>image/svg+xml</dc:format>
        <dc:type
           rdf:resource="http://purl.org/dc/dcmitype/StillImage" />
        <dc:title />
      </cc:Work>
    </rdf:RDF>
  </metadata>
  <g
     inkscape:label="Layer 1"
     inkscape:groupmode="layer"
     id="layer1"
     transform="translate(-147.58229,1437.5994)">
    <g
       transform="matrix(26.457884,0,0,26.458913,-10497.959,-9549.3307)"
       id="ir"
       style="fill:#ffffff">
      <path
         style="fill:#ffffff"
         inkscape:connector-curvature="0"
         id="path4560"
         d="m 437.678,356.018 c 0.1,-0.051 0.205,-0.072 0.317,-0.064 -0.211,-0.13 -0.434,-0.15 -0.666,-0.063 0.116,0.042 0.233,0.085 0.349,0.127 z" />
      <path
         style="fill:#ffffff"
         inkscape:connector-curvature="0"
         id="path4562"
         d="m 440.221,357.16 c 0.059,-0.266 -0.047,-0.286 -0.317,-0.064 0.105,0.021 0.211,0.043 0.317,0.064 z" />
      <path
         style="fill:#ffffff"
         inkscape:connector-curvature="0"
         id="path4564"
         d="m 445.938,355.476 c -0.521,0.436 -0.88,1.188 -1.716,1.049 -0.074,0.781 1.109,-0.016 1.379,-0.135 0.281,-0.124 0.605,-0.027 0.889,-0.16 0.397,-0.188 0.467,-0.806 0.939,-0.849 -0.531,-0.52 -0.946,0.341 -1.491,0.095 z" />
      <path
         style="fill:#ffffff"
         inkscape:connector-curvature="0"
         id="path4606"
         d="m 402.358,307.99 c 0.855,-0.324 1.244,0.119 1.234,-1.039 -0.004,-0.576 0.436,-0.382 0.841,-0.099 0.38,0.266 0.579,0.713 0.92,1.022 0.33,0.3 0.706,0.542 1.034,0.842 0.674,0.614 0.967,0.956 1.936,1.105 0.6,0.093 1.451,0.157 2.038,-0.017 0.323,-0.096 1.413,-1.041 1.524,-1.344 0.129,-0.35 0.61,-0.425 0.875,-0.652 0.307,-0.264 0.572,-0.577 0.908,-0.808 0.873,-0.603 1.656,0.315 2.189,0.956 -1.166,0.438 0.414,1.42 -0.236,1.567 -1.209,0.274 0.044,0.984 0.561,1.306 0.363,0.227 0.688,0.576 1.078,0.755 0.158,0.072 0.633,-0.021 0.682,0.078 0.484,0.985 0.413,2.608 1.504,3.181 0.928,0.487 2.03,0.258 2.968,0.659 0.609,0.261 0.814,0.94 1.307,1.335 0.538,0.431 1.354,0.735 1.984,1.017 1.186,0.527 2.776,0.895 4.048,0.514 1.528,-0.459 3.448,-1.198 5.067,-0.946 -0.326,0.122 -0.676,0.085 -1.015,0.127 0.233,0.174 1.146,0.516 1.275,0.041 0.113,-0.416 -0.515,-1.459 -0.64,-1.884 0.755,0.033 1.327,-0.138 2.04,-0.344 0.849,-0.245 0.295,-0.523 0.662,-1.088 0.365,-0.562 1.181,-1.117 1.794,-1.349 0.893,-0.337 1.756,0.181 2.651,-0.015 -0.309,-0.505 0.339,-0.736 0.734,-0.628 0.286,0.078 0.369,-0.234 0.677,-0.049 0.236,0.143 0.406,0.248 0.695,0.178 0.677,-0.165 0.77,-0.002 1.104,0.618 0.318,0.589 1.347,0.615 1.939,0.723 0.66,0.119 1.059,0.723 1.754,0.777 0.775,0.062 1.391,-0.067 2.146,0.215 0.745,0.278 0.906,0.579 1.312,1.207 0.414,0.639 1.371,0.588 1.955,0.982 0.519,0.35 0.799,1.107 1.356,1.376 0.612,0.295 1.789,0.064 2.46,0.064 0.247,0 0.229,1.02 0.262,1.183 0.052,0.272 0.263,0.468 0.308,0.75 0.083,0.514 -0.304,0.424 0.099,0.771 0.249,0.216 0.48,1.129 0.52,1.451 0.061,0.509 -0.4,0.858 -0.309,1.401 0.126,0.738 0.382,2.323 -0.72,2.448 0.099,0.139 0.478,0.45 0.445,0.635 -0.052,0.296 -0.727,0.386 -0.854,0.771 -0.229,0.689 0.172,2.312 1.012,2.368 1.079,0.073 0.081,0.937 -0.118,1.467 -0.362,0.965 0.929,2.425 1.2,3.336 0.282,0.944 -0.09,2.26 0.681,3.031 0.585,0.584 1.914,0.138 2.634,0.498 0.752,0.377 0.634,1.538 0.443,2.178 -0.196,0.657 -0.71,1.246 -1.091,1.806 -0.304,0.447 -1.069,1.199 -1.106,1.756 -0.024,0.353 0.378,0.617 0.604,0.817 0.463,0.409 0.844,0.92 1.188,1.429 0.694,1.026 1.121,2.218 2.321,2.749 0.408,0.181 0.837,0.315 1.239,0.512 0.377,0.185 0.779,0.725 1.207,0.752 0.596,0.038 0.729,2.11 0.766,2.638 0.105,1.498 0.468,0.931 1.511,1.227 0.485,0.138 0.231,1.154 0.196,1.676 -0.072,1.054 -3.451,0.186 -2.908,1.612 -0.319,-0.071 -0.833,0.178 -1.104,0.323 -0.543,0.292 -0.202,0.989 -0.326,1.456 -0.171,0.645 -0.312,1.088 -0.235,1.798 0.031,0.298 0.127,0.997 -0.4,0.806 0.246,0.832 -1.567,0.089 -1.854,0 -0.321,-0.101 -1.061,-0.032 -1.146,-0.48 -0.118,-0.62 -0.838,-0.25 -0.524,0.036 -0.143,0.027 -1.757,-0.021 -1.891,-0.129 -0.518,-0.414 -1.519,-0.353 -2.097,-0.175 -0.487,0.15 -0.84,-0.12 -1.217,-0.388 -0.502,-0.357 -0.917,-0.14 -1.461,-0.286 -0.433,-0.117 -0.81,0.237 -1.245,0.057 -0.4,-0.166 -0.499,-0.735 -0.953,-0.223 0.119,-0.62 -1.209,-0.443 -1.579,-0.789 -0.776,-0.727 -1.006,-2.338 -1.183,-3.336 -0.223,-1.256 -1.355,-1.948 -2.589,-1.854 -0.562,0.043 -0.963,0.514 -1.488,0.665 -0.438,0.128 -0.997,0.214 -0.744,0.723 0.162,0.326 -0.978,0.181 -1.055,0.199 -0.567,0.138 -0.786,0.728 -1.271,0.969 -0.817,0.408 -1.563,-0.707 -2.354,-0.707 -0.972,0 -1.517,0.19 -2.118,-0.703 -0.301,-0.445 -0.971,-0.59 -1.426,-0.842 -0.592,-0.327 -1.169,-0.685 -1.788,-0.964 0.597,-0.566 -0.861,-1.094 -1.2,-1.248 -0.307,-0.141 -0.582,-0.414 -0.908,-0.493 -0.458,-0.11 -1.072,0.071 -1.455,-0.217 -0.846,-0.637 -1.052,-1.218 -1.611,-2.104 -0.265,-0.419 -0.085,-0.992 -0.505,-1.331 -0.287,-0.23 -0.739,-0.357 -0.739,-0.802 0.521,0.051 0.446,-0.408 0.058,-0.495 -0.259,-0.058 -0.908,-0.007 -0.645,-0.469 0.341,-0.599 -0.659,-1.252 -0.971,-1.565 -0.525,-0.528 -0.907,-1.092 -1.173,-1.781 -0.457,-1.181 -1.379,0.887 -1.88,0.18 -0.337,-0.474 -0.843,-0.137 -1.066,-0.584 -0.107,-0.214 -0.761,-0.328 -0.963,-0.653 0.329,-0.022 0.657,0.106 0.982,0 -0.107,-0.44 -0.623,-0.56 -0.982,-0.35 0.082,0.098 0.168,0.193 0.255,0.285 -0.944,-0.123 0.596,2.041 -1.05,1.366 0.113,0.331 -0.172,0.417 -0.426,0.306 -0.355,-0.156 -0.371,-0.567 -0.497,-0.884 -0.26,-0.654 -1.181,-0.708 -1.289,-1.517 -0.069,-0.515 0.166,-1.539 -0.562,-1.517 -1.147,0.036 -0.79,-1.535 -0.634,-2.314 0.207,-1.035 -0.305,-1.225 -0.91,-1.953 -0.616,-0.739 -0.498,-1.165 -1.498,-1.354 -0.762,-0.145 -1.265,-0.96 -1.869,-1.377 -0.329,-0.227 -0.715,-0.513 -1.137,-0.478 -0.706,0.058 -0.283,-0.34 -0.799,-0.539 1.13,-0.345 -1.096,-2.104 -1.455,-2.411 -0.264,-0.225 -0.494,-0.492 -0.752,-0.725 -0.382,-0.345 -0.031,-0.425 0.126,-0.855 0.144,-0.393 0.065,-0.584 -0.256,-0.836 -0.32,-0.25 -0.067,-0.62 -0.016,-0.923 0.204,0.126 0.427,0.189 0.667,0.191 -0.053,-0.281 -0.191,-0.543 -0.221,-0.829 -0.054,-0.496 0.495,-0.415 0.533,-0.782 0.057,-0.536 0.078,-0.384 0.527,-0.382 0.424,0.003 0.375,-0.382 0.232,-0.625 -0.237,-0.408 -0.812,-0.8 -0.666,-1.342 0.125,-0.469 0.84,-0.349 0.961,-0.868 -0.307,0.09 -0.527,-0.142 -0.827,-0.111 -0.364,0.037 -0.759,0.213 -1.113,0.017 -0.537,-0.298 -0.624,-0.732 -1.333,-0.572 0.485,-1.119 -1.328,-1.442 -1.256,-2.191 0.043,-0.437 0.01,-0.591 -0.404,-0.765 -0.105,-0.045 -0.646,-1.448 -0.646,-1.642 0.001,-0.676 -0.388,-0.405 -0.682,-0.866 -0.3,-0.47 0.071,-1.073 -0.538,-1.376 -0.189,-0.095 -0.904,-0.259 -0.876,-0.561 0.044,-0.453 0.216,-1.138 0.559,-1.462 -0.762,-0.258 -0.63,-1.305 -0.84,-1.912 -0.093,-0.268 -0.604,-0.426 -0.47,-0.767 0.157,-0.378 -0.38,-1.031 -0.623,-1.318 z" />
    </g>
  </g>
</svg>
