<?xml version="1.0" encoding="UTF-8" standalone="no"?>
<!-- Created with Inkscape (http://www.inkscape.org/) -->

<svg
   xmlns:dc="http://purl.org/dc/elements/1.1/"
   xmlns:cc="http://creativecommons.org/ns#"
   xmlns:rdf="http://www.w3.org/1999/02/22-rdf-syntax-ns#"
   xmlns:svg="http://www.w3.org/2000/svg"
   xmlns="http://www.w3.org/2000/svg"
   xmlns:sodipodi="http://sodipodi.sourceforge.net/DTD/sodipodi-0.dtd"
   xmlns:inkscape="http://www.inkscape.org/namespaces/inkscape"
   width="865mm"
   height="838mm"
   viewBox="0 0 864.99998 837.99976"
   version="1.1"
   id="svg7070"
   inkscape:version="0.92.4 (5da689c313, 2019-01-14)"
   sodipodi:docname="iraq.svg">
  <defs
     id="defs7064" />
  <sodipodi:namedview
     id="base"
     pagecolor="#ffffff"
     bordercolor="#666666"
     borderopacity="1.0"
     inkscape:pageopacity="0.0"
     inkscape:pageshadow="2"
     inkscape:zoom="7.9195959"
     inkscape:cx="0.89938945"
     inkscape:cy="7.5256593"
     inkscape:document-units="mm"
     inkscape:current-layer="layer1"
     showgrid="false"
     inkscape:window-width="958"
     inkscape:window-height="1008"
     inkscape:window-x="-7"
     inkscape:window-y="0"
     inkscape:window-maximized="0" />
  <metadata
     id="metadata7067">
    <rdf:RDF>
      <cc:Work
         rdf:about="">
        <dc:format>image/svg+xml</dc:format>
        <dc:type
           rdf:resource="http://purl.org/dc/dcmitype/StillImage" />
        <dc:title />
      </cc:Work>
    </rdf:RDF>
  </metadata>
  <g
     inkscape:label="Layer 1"
     inkscape:groupmode="layer"
     id="layer1"
     transform="translate(-152.32168,800.54008)">
    <path
       style="fill:#ffffff;stroke-width:26.45960808"
       inkscape:connector-curvature="0"
       id="iq"
       d="m 152.32868,-397.86714 c 51.27831,-24.55456 96.63036,-49.05622 138.30424,-82.31603 13.57361,-10.84856 30.48137,-18.60115 40.87984,-32.88939 14.97567,-20.61216 8.02036,-40.64208 7.44033,-63.97958 -0.50002,-19.79182 14.15564,-52.68121 4.60021,-70.25051 -8.73039,-16.08742 -22.279,-48.23597 -6.27028,-64.85263 11.1395,-11.58939 30.82539,-7.17036 43.44596,-19.28919 9.87044,-9.44648 29.71434,-25.05728 31.0634,-39.82184 0.50002,-5.98031 6.38029,-3.70419 12.40956,-5.53028 9.98045,-3.01616 9.76044,-12.80656 14.34164,-20.61216 4.3602,-7.54139 49.21422,0.58003 58.36964,3.14916 7.96036,2.22211 15.5047,5.74129 23.62806,7.40838 13.3356,2.75214 17.30478,-5.95331 28.92031,-8.04341 26.96221,-4.84225 8.71039,33.07459 25.90416,31.43411 12.06555,-1.16406 17.46279,-18.20433 30.77239,-17.72801 16.90776,0.64003 13.94363,28.15305 21.35296,38.07545 3.52016,4.73625 9.87045,3.8892 12.80658,9.79051 3.57016,7.22337 1.90009,15.6377 7.25033,22.25264 10.39847,12.91226 35.98462,27.2799 26.80321,48.50059 18.75984,-4.23322 21.06195,7.25037 35.24459,15.10847 7.44033,4.10121 43.07594,4.94826 51.35831,2.54013 -3.04014,13.12398 -18.86585,9.47249 -24.3431,19.63311 -9.29042,17.11938 17.78081,30.45507 19.28887,46.03987 1.96009,20.53265 -23.15204,-2.03711 -22.43801,18.78636 0.30002,9.36648 -12.77957,8.38743 -15.37269,17.22528 -2.94013,10.00172 4.95022,16.85477 6.6703,26.03634 -6.35029,-0.0265 -12.25155,-1.69309 -17.6488,-5.02726 -1.48006,8.38743 -7.94035,13.91782 -0.90004,21.85572 7.12032,8.04342 11.90654,11.6422 8.41038,23.07279 -3.65016,11.98621 -13.91863,14.92326 -3.65016,24.21064 8.78039,7.93841 16.48474,17.41049 26.38019,24.05184 9.84044,6.64134 58.97866,50.6968 31.96344,58.92572 8.8904,3.44018 6.6103,15.32019 16.48374,14.18243 12.67457,-1.42908 23.10004,5.02726 33.1545,11.88041 19.20986,13.09757 37.65169,39.13391 62.86783,36.62018 11.0065,-1.11106 38.70975,46.8601 46.09208,55.85646 14.76466,18.07193 7.04032,31.1166 2.65012,52.33719 -2.06009,10.16052 -4.81022,41.59464 10.23946,42.67949 5.27024,0.40002 15.5847,-5.13326 19.71289,0.13001 5.34024,6.74734 2.96013,22.17324 4.3902,30.40226 3.47015,20.40035 16.27273,27.174094 28.8673,39.107406 9.42038,8.94346 16.16668,27.438709 23.54908,37.043502 -7.5704,0.560029 -53.60744,-9.366481 -54.63948,-17.648606 6.24028,14.685154 -24.2891,1.720088 -34.42356,1.270065 -14.57865,-0.610031 -28.78829,3.995205 -35.37659,18.072028 -14.34065,30.455063 -16.82776,84.35343 -60.40672,85.544191 -33.31251,0.930047 -70.72619,-5.345275 -104.2237,-7.858404 -43.18195,-3.254167 -67.60405,-30.42856151 -98.74746,-57.28524 -33.57751,-28.920384 -70.25016,-54.030673 -104.11769,-82.607142 -32.41346,-27.3328 -64.85292,-56.5179 -104.2247,-73.47857 -39.53078,-17.03997 -71.99624,-41.0125 -108.48389,-63.39735 -34.66156,-21.3001 -78.95556,-17.04008 -117.40129,-25.322 26.51319,-22.70237 -7.54034,-16.21974 -14.65866,-27.1476 -1.96009,-2.56713 -2.2001,-5.18626 -0.70004,-7.9374 5.95027,-6.82635 0.053,-13.97072 -3.65016,-23.89313 -8.28037,-22.01443 -16.90776,-43.87015 -23.94608,-66.308 z" />
  </g>
</svg>
