<?xml version="1.0" encoding="UTF-8" standalone="no"?>
<!-- Created with Inkscape (http://www.inkscape.org/) -->

<svg
   xmlns:dc="http://purl.org/dc/elements/1.1/"
   xmlns:cc="http://creativecommons.org/ns#"
   xmlns:rdf="http://www.w3.org/1999/02/22-rdf-syntax-ns#"
   xmlns:svg="http://www.w3.org/2000/svg"
   xmlns="http://www.w3.org/2000/svg"
   xmlns:sodipodi="http://sodipodi.sourceforge.net/DTD/sodipodi-0.dtd"
   xmlns:inkscape="http://www.inkscape.org/namespaces/inkscape"
   width="347mm"
   height="369.60001mm"
   viewBox="0 0 346.99998 369.60003"
   version="1.1"
   id="svg7070"
   inkscape:version="0.92.4 (5da689c313, 2019-01-14)"
   sodipodi:docname="ireland.svg">
  <defs
     id="defs7064" />
  <sodipodi:namedview
     id="base"
     pagecolor="#ffffff"
     bordercolor="#666666"
     borderopacity="1.0"
     inkscape:pageopacity="0.0"
     inkscape:pageshadow="2"
     inkscape:zoom="1.4"
     inkscape:cx="-148.49977"
     inkscape:cy="-122.41499"
     inkscape:document-units="mm"
     inkscape:current-layer="layer1"
     showgrid="false"
     inkscape:window-width="958"
     inkscape:window-height="1008"
     inkscape:window-x="-7"
     inkscape:window-y="0"
     inkscape:window-maximized="0" />
  <metadata
     id="metadata7067">
    <rdf:RDF>
      <cc:Work
         rdf:about="">
        <dc:format>image/svg+xml</dc:format>
        <dc:type
           rdf:resource="http://purl.org/dc/dcmitype/StillImage" />
        <dc:title />
      </cc:Work>
    </rdf:RDF>
  </metadata>
  <g
     inkscape:label="Layer 1"
     inkscape:groupmode="layer"
     id="layer1"
     transform="translate(-196.66865,333.37663)">
    <g
       transform="matrix(26.460646,0,0,26.458534,-6083.5589,-6915.9681)"
       id="ie"
       style="fill:#ffffff">
      <path
         style="fill:#ffffff"
         inkscape:connector-curvature="0"
         d="m 244.073,249.891 c 0.061,0.049 -0.033,0.21 0.08,0.063 0.113,-0.147 -0.018,-0.014 -0.08,-0.063 z"
         id="path5352" />
      <path
         style="fill:#ffffff"
         inkscape:connector-curvature="0"
         d="m 239.467,253.862 c 0.511,-0.22 -0.423,-0.384 -0.667,-0.254 0.257,-0.004 0.479,0.08 0.667,0.254 z"
         id="path5348" />
      <path
         style="fill:#ffffff"
         inkscape:connector-curvature="0"
         d="m 238.421,262.247 c -0.106,0.01 -0.211,0.021 -0.318,0.032 0.421,-0.379 0.866,-0.847 1.46,-0.921 -0.557,-0.094 -1.475,0.692 -1.98,0.262 -0.568,-0.483 1.288,-1.403 1.663,-1.278 -0.557,-0.248 -1.314,-0.035 -1.875,0.095 -0.151,-0.448 0.325,-0.517 0.649,-0.56 0.17,-0.022 0.366,-0.035 0.521,-0.118 0.146,-0.079 0.458,0.203 0.798,0.138 -0.077,-0.243 -0.193,-0.465 -0.349,-0.667 0.606,0.002 0.784,-0.552 1.415,-0.543 0.733,0.01 1.39,-0.279 2.111,-0.346 -0.244,-0.007 -0.453,-0.152 -0.538,-0.381 -0.922,0.592 -1.629,0.57 -2.7,0.763 0.292,-0.205 1.741,-0.921 1.562,-1.403 -0.254,-0.687 1.156,-0.67 1.455,-0.979 -0.552,-0.035 -1.073,-0.055 -1.625,-0.05 -0.27,0.002 -0.729,-0.289 -1.075,-0.332 0.062,-0.106 0.125,-0.212 0.189,-0.318 -0.319,-0.096 -0.574,0.212 -0.887,0.032 0.108,-0.072 0.213,-0.146 0.317,-0.223 -0.105,-0.075 -0.211,-0.149 -0.317,-0.222 0.375,-0.061 0.231,-0.105 0.496,-0.274 0.213,-0.136 0.544,0.015 0.775,-0.012 -0.331,0.042 -0.7,-0.249 -0.338,-0.538 0.148,-0.119 0.465,-0.096 0.644,-0.153 0.891,-0.288 -0.853,-0.402 -0.775,-0.287 -0.121,-0.179 0.271,-0.188 0.341,-0.134 -0.2,-0.326 0.135,-0.868 -0.415,-0.572 0.15,-0.19 0.14,-0.37 -0.031,-0.54 -0.093,0.1 -0.178,0.206 -0.255,0.318 0.05,-0.232 0.146,-0.444 0.287,-0.635 0.049,0.5 0.748,-0.023 1.251,-0.055 0.471,-0.03 1.077,0.089 1.131,0.659 0.239,-1.038 1.33,0.022 1.875,-0.508 -0.118,-0.061 -0.234,-0.124 -0.349,-0.19 0.348,-0.458 1.312,-0.412 1.394,-0.953 -0.536,-0.104 -1.121,0.064 -1.619,-0.222 0.115,-0.377 0.524,-0.476 0.86,-0.35 -0.128,-0.275 -0.135,-0.463 0.282,-0.317 -0.253,-0.334 0.01,-0.88 0.338,-1.057 0.584,-0.314 1.107,-0.048 1.665,-0.119 -0.255,-0.443 0.167,-0.479 0.311,-0.227 0.255,0.45 -0.003,0.448 -0.121,0.831 0.48,0.008 0.674,-0.509 0.318,-0.826 0.691,-0.48 0.948,-0.219 1.623,-0.095 -0.363,0.409 -1.17,0.499 -1.352,1.064 -0.16,0.498 -0.863,1.077 -1.414,0.905 0.13,0.126 0.269,0.243 0.415,0.35 -0.583,0.366 -1.564,0.316 -0.828,1.047 0.322,0.32 0.723,0.66 1.213,0.683 0.422,0.019 0.795,0.165 0.931,-0.4 0.077,-0.322 0.171,-0.546 0.579,-0.51 0.46,0.042 0.365,0.767 0.929,0.736 -0.188,0.568 0.389,0.443 0.732,0.413 0.28,-0.025 0.271,-0.247 0.666,0.127 -0.22,0.113 -0.499,0.123 -0.69,0.295 -0.062,0.057 0.285,0.501 0.254,0.746 -0.043,0.344 0.832,1.236 -0.041,1.405 0.582,0.895 0.331,1.428 -0.028,2.324 -0.187,0.464 -0.45,1.405 -1.114,1.329 0.725,0.098 0.25,0.716 -0.279,0.619 -0.422,-0.078 -1.069,0.259 -1.181,-0.365 0.273,0.815 -1.23,0.51 -1.649,0.658 -0.39,0.138 -0.134,0.511 -0.74,0.511 -0.474,0 -0.712,0.651 -1.325,0.61 0.365,-0.539 -0.298,-0.39 -0.573,-0.286 0.49,0.14 0.321,0.374 0,0.56 -0.144,0.058 -0.26,0.148 -0.352,0.272 -0.111,0.217 -0.296,0.028 -0.494,0.109 -0.467,0.191 -0.967,0.183 -1.453,0.34 -0.542,0.175 -1.165,0.004 -1.672,0.244 0.137,-0.23 0.328,-0.4 0.573,-0.508 -0.232,0.033 -0.456,0.097 -0.67,0.19 0.278,-0.25 0.629,-0.378 0.984,-0.477 -0.416,-0.222 -1.233,0.023 -1.585,0.284 z"
         id="path5402" />
    </g>
  </g>
</svg>
