<?xml version="1.0" encoding="UTF-8" standalone="no"?>
<!-- Created with Inkscape (http://www.inkscape.org/) -->

<svg
   xmlns:dc="http://purl.org/dc/elements/1.1/"
   xmlns:cc="http://creativecommons.org/ns#"
   xmlns:rdf="http://www.w3.org/1999/02/22-rdf-syntax-ns#"
   xmlns:svg="http://www.w3.org/2000/svg"
   xmlns="http://www.w3.org/2000/svg"
   xmlns:sodipodi="http://sodipodi.sourceforge.net/DTD/sodipodi-0.dtd"
   xmlns:inkscape="http://www.inkscape.org/namespaces/inkscape"
   width="105.2mm"
   height="384.10001mm"
   viewBox="0 0 105.20001 384.09989"
   version="1.1"
   id="svg7070"
   inkscape:version="0.92.4 (5da689c313, 2019-01-14)"
   sodipodi:docname="israel.svg">
  <defs
     id="defs7064" />
  <sodipodi:namedview
     id="base"
     pagecolor="#ffffff"
     bordercolor="#666666"
     borderopacity="1.0"
     inkscape:pageopacity="0.0"
     inkscape:pageshadow="2"
     inkscape:zoom="7.9195959"
     inkscape:cx="-17.607363"
     inkscape:cy="-3.2522843"
     inkscape:document-units="mm"
     inkscape:current-layer="layer1"
     showgrid="false"
     inkscape:window-width="958"
     inkscape:window-height="1008"
     inkscape:window-x="-7"
     inkscape:window-y="0"
     inkscape:window-maximized="0" />
  <metadata
     id="metadata7067">
    <rdf:RDF>
      <cc:Work
         rdf:about="">
        <dc:format>image/svg+xml</dc:format>
        <dc:type
           rdf:resource="http://purl.org/dc/dcmitype/StillImage" />
        <dc:title />
      </cc:Work>
    </rdf:RDF>
  </metadata>
  <g
     inkscape:label="Layer 1"
     inkscape:groupmode="layer"
     id="layer1"
     transform="translate(-157.21826,349.49174)">
    <path
       style="fill:#ffffff;stroke-width:26.4606514"
       inkscape:connector-curvature="0"
       id="il"
       d="m 157.21826,-139.34549 c 4.05039,-5.58345 26.16949,-32.25529 15.98252,-38.6587 17.35765,-28.92132 21.48605,-62.49961 27.78365,-94.99312 1.93018,-9.92279 2.22021,-26.27521 10.26698,-33.41948 6.03057,-5.37143 -3.1503,-16.98766 2.36022,-22.88833 5.03048,-5.45044 17.33165,0.0529 23.17921,0.77006 13.81231,1.69313 11.98714,-12.59521 16.27355,-20.95668 16.06153,6.56252 7.22068,73.53359 4.1804,90.78578 -8.41081,-0.66006 -15.77051,-10.18722 -23.97329,-13.49479 -12.35717,-4.92139 -18.76078,12.4364 -20.40094,21.53883 -2.04019,11.1927 -10.08196,50.51295 7.20069,49.63978 31.40899,-1.64013 -13.91933,22.57081 -10.18797,42.89244 2.57024,13.81231 40.90889,-10.58425 48.18558,-10.63715 1.61016,14.47386 -5.48052,23.81441 -1.32012,38.76461 4.68044,16.85525 -10.82303,37.362093 -15.47948,52.815032 -9.39089,31.329213 7.04067,85.8112814 -18.44375,111.795465 -13.49529,-27.2013812 -12.46319,-59.959408 -30.13887,-85.387947 -7.38071,-10.663555 -8.78084,-24.184839 -13.73331,-35.959784 -7.28069,-17.490306 -15.45247,-33.075556 -21.72407,-52.603316 z" />
  </g>
</svg>
