<?xml version="1.0" encoding="UTF-8" standalone="no"?>
<!-- Created with Inkscape (http://www.inkscape.org/) -->

<svg
   xmlns:dc="http://purl.org/dc/elements/1.1/"
   xmlns:cc="http://creativecommons.org/ns#"
   xmlns:rdf="http://www.w3.org/1999/02/22-rdf-syntax-ns#"
   xmlns:svg="http://www.w3.org/2000/svg"
   xmlns="http://www.w3.org/2000/svg"
   xmlns:sodipodi="http://sodipodi.sourceforge.net/DTD/sodipodi-0.dtd"
   xmlns:inkscape="http://www.inkscape.org/namespaces/inkscape"
   width="965.20001mm"
   height="1038.6mm"
   viewBox="0 0 965.19996 1038.6001"
   version="1.1"
   id="svg7070"
   inkscape:version="0.92.4 (5da689c313, 2019-01-14)"
   sodipodi:docname="italy.svg">
  <defs
     id="defs7064" />
  <sodipodi:namedview
     id="base"
     pagecolor="#ffffff"
     bordercolor="#666666"
     borderopacity="1.0"
     inkscape:pageopacity="0.0"
     inkscape:pageshadow="2"
     inkscape:zoom="7.9195959"
     inkscape:cx="8.4141019"
     inkscape:cy="3.5511177"
     inkscape:document-units="mm"
     inkscape:current-layer="layer1"
     showgrid="false"
     inkscape:window-width="958"
     inkscape:window-height="1008"
     inkscape:window-x="-7"
     inkscape:window-y="0"
     inkscape:window-maximized="0" />
  <metadata
     id="metadata7067">
    <rdf:RDF>
      <cc:Work
         rdf:about="">
        <dc:format>image/svg+xml</dc:format>
        <dc:type
           rdf:resource="http://purl.org/dc/dcmitype/StillImage" />
        <dc:title />
      </cc:Work>
    </rdf:RDF>
  </metadata>
  <g
     inkscape:label="Layer 1"
     inkscape:groupmode="layer"
     id="layer1"
     transform="translate(-156.40373,988.29719)">
    <g
       transform="matrix(26.457402,0,0,26.459401,-7412.2388,-8369.5303)"
       id="it"
       style="fill:#ffffff">
      <path
         style="fill:#ffffff"
         inkscape:connector-curvature="0"
         d="m 302.587,318.027 c -0.075,-0.105 -0.15,-0.211 -0.225,-0.317 0.337,-0.042 0.412,0.064 0.225,0.317 z"
         id="path2916" />
      <path
         style="fill:#ffffff"
         inkscape:connector-curvature="0"
         d="m 286.069,286.356 c 0.446,-0.474 1.62,-0.074 1.565,-1.061 -0.022,-0.397 -0.359,-0.729 -0.612,-1.002 -0.137,-0.141 -0.265,-0.29 -0.384,-0.446 0.135,-0.111 0.553,-0.591 0.764,-0.535 0.398,0.106 0.561,0.076 0.988,-0.073 0.537,-0.187 0.791,-0.042 1.303,-0.004 0.337,0.025 0.772,-0.422 0.924,-0.684 0.124,-0.201 0.11,-0.394 -0.04,-0.579 0.364,-0.098 0.63,-0.384 0.856,-0.667 0.367,0.255 0.067,0.616 0.391,0.915 0.286,0.263 0.594,0.438 0.848,0.737 0.121,0.142 0.394,0.859 0.667,0.73 0.294,-0.138 -0.005,-0.914 0.284,-1.194 0.329,-0.319 0.567,-0.486 0.508,-0.975 -0.089,-0.732 0.338,-0.251 0.544,-0.054 0.36,0.345 0.379,0.29 0.825,0.223 0.595,-0.089 0.629,0.283 1.112,0.477 0.047,-0.291 0.271,-0.585 -0.099,-0.753 -0.332,-0.15 0.108,-0.697 0.32,-0.74 0.209,-0.042 0.448,0.275 0.643,0.329 0.428,0.117 0.102,-0.789 0.113,-0.937 0.045,-0.629 0.927,-0.128 1.248,0.036 0.42,0.216 0.715,-0.386 0.961,-0.608 0.329,-0.295 0.846,-0.211 1.245,-0.188 0.646,0.038 1.267,-0.447 1.893,-0.316 -0.694,0.416 0.652,1.5 1.042,1.624 1.175,0.372 1.685,0.083 2.857,0.424 -0.049,0.444 -0.174,0.57 -0.375,0.938 0.264,0.149 0.526,0.315 0.826,0.381 -0.255,0.298 -0.797,0.729 -0.094,0.89 -0.327,0.425 0.098,0.509 0.406,0.674 0.404,0.217 0.495,0.745 -0.123,0.597 0.443,-0.917 -0.757,-0.402 -0.984,-0.318 -0.096,-0.632 -0.863,-0.057 -1.087,0.084 -0.245,0.154 -0.501,0.296 -0.759,0.426 -0.172,0.086 -1.624,0.555 -0.727,0.092 -0.24,0.05 -0.562,0.018 -0.764,0.191 -0.141,0.124 -0.074,0.631 -0.348,0.572 -0.003,0.147 0.539,0.902 0.592,0.917 0.806,0.222 0.296,1.392 -0.178,0.863 -0.92,1.626 1.146,3.171 2.261,3.882 0.545,0.348 1.429,0.593 1.811,1.139 0.558,0.794 0.853,1.839 1.179,2.747 0.42,1.164 1.949,2.354 3.038,2.855 0.806,0.37 1.235,0.484 2.132,0.364 0.334,-0.044 1.812,-0.262 1.629,0.505 -0.087,0.366 -1.135,0.707 -0.75,1.155 0.413,0.482 1.509,0.758 2.07,0.958 0.896,0.319 1.701,0.636 2.451,1.233 0.765,0.609 1.703,0.79 2.449,1.463 0.502,0.452 1.17,0.926 1.045,1.68 -0.029,0.171 -0.064,0.941 -0.322,0.967 -0.35,0.035 -0.783,-0.173 -0.969,-0.478 -0.405,-0.664 -0.379,-1.434 -1.383,-1.333 -0.806,0.081 -0.968,-0.445 -1.08,-0.746 -0.852,0.144 -1.037,0.135 -1.574,0.926 -0.331,0.489 -0.572,1.104 -0.693,1.685 -0.139,0.665 0.708,0.827 1.167,1.038 0.737,0.338 0.87,0.864 0.942,1.609 0.121,1.257 -2.053,0.354 -1.85,1.871 0.1,0.743 -0.102,0.801 -0.574,1.306 -0.401,0.427 -0.711,0.954 -1.189,1.304 -0.449,0.33 -0.83,0.145 -1.055,-0.336 -0.344,-0.731 0.719,-1.071 0.772,-1.736 0.019,-0.226 -0.092,-0.498 0.064,-0.699 0.261,-0.337 0.771,-0.086 0.91,-0.52 0.12,-0.377 -0.354,-0.806 -0.446,-1.15 -0.146,-0.536 -0.191,-1.008 -0.48,-1.497 -0.348,-0.587 -0.399,-1.466 -0.86,-1.962 -0.274,-0.295 -0.466,-0.226 -0.726,-0.01 -0.311,0.259 -0.629,-0.266 -0.833,-0.429 -0.229,-0.185 -0.604,-0.136 -0.676,-0.507 -0.059,-0.306 0.142,-0.397 -0.021,-0.773 -0.351,-0.811 -1.264,-0.83 -1.932,-0.405 0.344,-0.521 0.234,-1.009 -0.472,-0.938 -0.526,0.053 -0.823,-0.724 -1.014,-1.086 -0.337,-0.645 -0.737,-0.27 -1.288,-0.432 -0.295,-0.087 -0.568,-0.226 -0.885,-0.15 -0.662,0.158 -0.238,0.07 -0.694,-0.303 -0.453,-0.369 -1.026,-0.47 -1.476,-0.878 -0.5,-0.452 -0.794,-1.121 -1.341,-1.503 -0.476,-0.331 -0.659,-0.247 -0.976,-0.765 -0.331,-0.541 -1.179,-1.176 -1.825,-0.776 0.37,-0.621 -1.142,-2.223 -1.701,-2.144 0.066,-0.009 -0.827,-2.54 -0.861,-2.704 -0.307,-1.49 -1.321,-1.324 -2.393,-2.045 -1.108,-0.746 -2.517,-1.151 -3.447,0.053 -0.331,0.427 -0.604,0.92 -1.097,1.186 -0.174,0.094 -1.511,0.673 -1.566,0.254 -0.088,-0.678 1.407,-1.458 -0.241,-1.276 -0.889,0.098 -2.313,-0.959 -1.332,-1.828 0.367,-0.324 0.316,-0.583 -0.138,-0.794 -0.522,-0.246 -0.492,-0.609 -0.911,-0.963 z"
         id="path2906" />
      <path
         style="fill:#ffffff"
         inkscape:connector-curvature="0"
         d="m 291.274,304.019 c -0.11,-0.254 -0.324,-0.415 -0.476,-0.638 -0.28,-0.41 -0.06,-0.795 -0.124,-1.236 0.837,0.946 1.913,-0.186 2.572,-0.752 0.239,-0.205 0.573,-0.559 0.917,-0.34 0.225,0.143 0.38,0.522 0.703,0.36 -0.114,0.247 -0.019,0.399 0.251,0.414 -0.104,0.085 -0.208,0.17 -0.313,0.254 0.649,-0.026 0.929,1.484 0.79,1.938 -0.121,0.395 -0.711,0.605 -0.345,1.067 0.363,0.458 0.022,1.622 -0.006,2.175 -0.021,0.414 0.014,1.271 -0.398,1.531 -0.38,0.241 -1.015,-0.237 -1.438,-0.199 -0.222,0.337 -0.146,1.271 -0.802,1.16 -0.625,-0.104 -0.635,0.062 -0.945,-0.557 -0.084,0.106 -0.169,0.212 -0.255,0.317 -0.105,-0.09 -0.191,-0.195 -0.256,-0.317 0.554,-0.11 0.205,-0.456 0.186,-0.93 -0.023,-0.581 0.06,-1.16 0.101,-1.739 0.106,0.084 0.212,0.169 0.317,0.255 -0.007,-0.2 0.083,-0.411 0.021,-0.61 -0.067,-0.216 -0.39,-0.138 -0.437,-0.396 -0.042,-0.231 0.243,-0.543 0.24,-0.809 -0.007,-0.346 -0.383,-0.622 -0.303,-0.948 z"
         id="path2910" />
      <path
         style="fill:#ffffff"
         inkscape:connector-curvature="0"
         d="m 297.567,295.378 c -0.312,-0.191 -0.685,-0.023 -0.984,-0.254 0.321,-0.15 0.698,-0.115 0.984,-0.35 0.034,0.202 0.034,0.403 0,0.604 z"
         id="path2912" />
      <path
         style="fill:#ffffff"
         inkscape:connector-curvature="0"
         d="m 305.221,314.85 c -0.389,-0.013 -0.948,-0.134 -1.187,-0.473 -0.518,-0.735 0.533,-1.286 0.771,-1.751 0.475,0.689 0.783,0.296 1.329,-0.008 0.837,-0.465 1.433,0.818 2.396,0.614 0.552,-0.116 1.099,-0.023 1.651,-0.123 0.512,-0.092 0.99,-0.614 1.488,-0.61 0.441,0.004 0.524,0.329 0.945,0.033 0.273,-0.192 1.019,-0.537 1.34,-0.351 -0.406,0.505 -0.808,1.106 -1.064,1.702 -0.18,0.416 -0.713,1.249 -0.592,1.699 0.105,0.395 0.812,0.983 0.595,1.429 -0.184,0.376 -0.682,0.659 -0.429,1.142 -0.502,0.117 -1.107,0.065 -1.598,-0.085 -0.689,-0.212 -0.652,-1.021 -1.32,-1.294 -0.703,-0.288 -1.453,-0.327 -2.137,-0.707 -0.699,-0.387 -1.33,-1.198 -2.188,-1.217 z"
         id="path2920" />
    </g>
  </g>
</svg>
