<?xml version="1.0" encoding="UTF-8" standalone="no"?>
<!-- Created with Inkscape (http://www.inkscape.org/) -->

<svg
   xmlns:dc="http://purl.org/dc/elements/1.1/"
   xmlns:cc="http://creativecommons.org/ns#"
   xmlns:rdf="http://www.w3.org/1999/02/22-rdf-syntax-ns#"
   xmlns:svg="http://www.w3.org/2000/svg"
   xmlns="http://www.w3.org/2000/svg"
   xmlns:sodipodi="http://sodipodi.sourceforge.net/DTD/sodipodi-0.dtd"
   xmlns:inkscape="http://www.inkscape.org/namespaces/inkscape"
   width="187.39999mm"
   height="79.800003mm"
   viewBox="0 0 187.39999 79.800001"
   version="1.1"
   id="svg7070"
   inkscape:version="0.92.4 (5da689c313, 2019-01-14)"
   sodipodi:docname="jamaica.svg">
  <defs
     id="defs7064" />
  <sodipodi:namedview
     id="base"
     pagecolor="#ffffff"
     bordercolor="#666666"
     borderopacity="1.0"
     inkscape:pageopacity="0.0"
     inkscape:pageshadow="2"
     inkscape:zoom="1.4"
     inkscape:cx="31.070269"
     inkscape:cy="-136.53195"
     inkscape:document-units="mm"
     inkscape:current-layer="layer1"
     showgrid="false"
     inkscape:window-width="958"
     inkscape:window-height="1008"
     inkscape:window-x="-7"
     inkscape:window-y="0"
     inkscape:window-maximized="0" />
  <metadata
     id="metadata7067">
    <rdf:RDF>
      <cc:Work
         rdf:about="">
        <dc:format>image/svg+xml</dc:format>
        <dc:type
           rdf:resource="http://purl.org/dc/dcmitype/StillImage" />
        <dc:title />
      </cc:Work>
    </rdf:RDF>
  </metadata>
  <g
     inkscape:label="Layer 1"
     inkscape:groupmode="layer"
     id="layer1"
     transform="translate(-176.81098,10.754725)">
    <path
       inkscape:connector-curvature="0"
       style="fill:#ffffff;stroke-width:26.46424484"
       d="m 176.81098,13.50921 c 23.3625,-30.838338 66.62058,-25.941245 100.00987,-19.323547 20.53156,4.0498961 36.43322,16.438296 55.9058,22.367672 20.18757,6.114863 21.37755,15.114877 31.48433,32.320832 -8.93981,4.234983 -18.49361,5.029355 -28.2564,5.029355 -8.9998,0 -13.41471,-9.317362 -23.01851,-7.544532 12.40874,-2.117992 -3.01993,-4.579144 -6.47986,-1.508707 -3.64992,3.255525 -6.84985,9.688536 -12.38273,9.926648 -10.82077,0.480225 -24.92247,-1.535719 -15.58367,14.26768 -11.16476,0.110051 -12.64673,-13.500021 -23.20351,-12.520662 -10.21278,0.930435 -27.9394,-0.130061 -33.49528,-10.350046 -3.43993,-6.273937 -9.2098,-12.229426 -13.9427,-17.550117 -8.14983,-9.132275 -24.60648,-3.705735 -31.03534,-15.114776 z"
       id="jm" />
  </g>
</svg>
