<?xml version="1.0" encoding="UTF-8" standalone="no"?>
<!-- Created with Inkscape (http://www.inkscape.org/) -->

<svg
   xmlns:dc="http://purl.org/dc/elements/1.1/"
   xmlns:cc="http://creativecommons.org/ns#"
   xmlns:rdf="http://www.w3.org/1999/02/22-rdf-syntax-ns#"
   xmlns:svg="http://www.w3.org/2000/svg"
   xmlns="http://www.w3.org/2000/svg"
   xmlns:sodipodi="http://sodipodi.sourceforge.net/DTD/sodipodi-0.dtd"
   xmlns:inkscape="http://www.inkscape.org/namespaces/inkscape"
   width="1088.4mm"
   height="2135.1001mm"
   viewBox="0 0 1088.3999 2135.1"
   version="1.1"
   id="svg7070"
   inkscape:version="0.92.4 (5da689c313, 2019-01-14)"
   sodipodi:docname="japan.svg">
  <defs
     id="defs7064" />
  <sodipodi:namedview
     id="base"
     pagecolor="#ffffff"
     bordercolor="#666666"
     borderopacity="1.0"
     inkscape:pageopacity="0.0"
     inkscape:pageshadow="2"
     inkscape:zoom="5.6"
     inkscape:cx="-1.3798531"
     inkscape:cy="36.79147"
     inkscape:document-units="mm"
     inkscape:current-layer="layer1"
     showgrid="false"
     inkscape:window-width="958"
     inkscape:window-height="1008"
     inkscape:window-x="-7"
     inkscape:window-y="0"
     inkscape:window-maximized="0" />
  <metadata
     id="metadata7067">
    <rdf:RDF>
      <cc:Work
         rdf:about="">
        <dc:format>image/svg+xml</dc:format>
        <dc:type
           rdf:resource="http://purl.org/dc/dcmitype/StillImage" />
        <dc:title />
      </cc:Work>
    </rdf:RDF>
  </metadata>
  <g
     inkscape:label="Layer 1"
     inkscape:groupmode="layer"
     id="layer1"
     transform="translate(-156.12638,2093.1992)">
    <g
       transform="matrix(26.45922,0,0,26.458697,-17568.323,-9631.8664)"
       id="jp"
       style="fill:#ffffff">
      <path
         style="fill:#ffffff"
         inkscape:connector-curvature="0"
         id="path3482"
         d="m 670.067,365.103 c -0.101,0.155 -0.164,0.325 -0.189,0.509 0.22,0.02 0.432,-0.013 0.635,-0.097 -0.037,-0.245 -0.197,-0.395 -0.446,-0.412 z" />
      <path
         style="fill:#ffffff"
         inkscape:connector-curvature="0"
         id="path3484"
         d="m 671.023,364.975 c 0.018,0.237 0.145,0.354 0.383,0.35 0.298,-0.061 0.158,-0.485 0.158,-0.667 -0.067,0.258 -0.281,0.389 -0.541,0.317 z" />
      <path
         style="fill:#ffffff"
         inkscape:connector-curvature="0"
         id="path3486"
         d="m 674.643,363.322 c -0.25,0.387 0.267,0.674 0.574,0.444 -0.264,-0.026 -0.473,-0.206 -0.574,-0.444 z" />
      <path
         style="fill:#ffffff"
         inkscape:connector-curvature="0"
         id="path3496"
         d="m 678.041,357.542 c -0.179,0.157 -0.104,0.264 0.226,0.317 -0.076,-0.105 -0.151,-0.211 -0.226,-0.317 z" />
      <path
         style="fill:#ffffff"
         inkscape:connector-curvature="0"
         id="path3504"
         d="m 681.381,358.716 c 0.431,-0.146 0.274,-1.113 0.535,-1.443 0.315,-0.398 1.13,-0.79 0.828,-1.416 -0.412,0.077 -0.728,1.062 -1.173,0.509 0.06,0.469 0.211,0.591 -0.112,0.979 -0.277,0.336 -0.388,1.015 -0.078,1.371 z" />
      <path
         style="fill:#ffffff"
         inkscape:connector-curvature="0"
         id="path3514"
         d="m 682.935,353.603 c 0.042,0.074 0.085,0.148 0.127,0.223 0.093,-0.094 0.168,-0.2 0.226,-0.318 -0.119,0.031 -0.236,0.062 -0.353,0.095 z" />
      <path
         style="fill:#ffffff"
         inkscape:connector-curvature="0"
         id="path3516"
         d="m 683.635,351.76 c -0.24,0.28 0.103,0.766 0.445,0.667 -0.117,-0.244 -0.266,-0.467 -0.445,-0.667 z" />
      <path
         style="fill:#ffffff"
         inkscape:connector-curvature="0"
         id="path3518"
         d="m 684.204,350.648 c 0.053,0.146 0.158,0.23 0.317,0.254 -0.105,-0.084 -0.211,-0.169 -0.317,-0.254 z" />
      <path
         style="fill:#ffffff"
         inkscape:connector-curvature="0"
         id="path3520"
         d="m 685.474,349.41 c -0.321,0.257 -1.96,0.991 -0.922,1.397 0.642,0.25 0.237,-0.228 0.415,-0.54 0.189,-0.334 0.929,-0.349 0.507,-0.857 z" />
      <path
         style="fill:#ffffff"
         inkscape:connector-curvature="0"
         id="path3488"
         d="m 676.551,325.84 c -0.706,0.147 -0.219,1.201 0.256,1.334 -0.245,-0.378 -0.158,-0.913 -0.256,-1.334 z" />
      <path
         style="fill:#ffffff"
         inkscape:connector-curvature="0"
         id="path3490"
         d="m 676.771,327.589 c -0.097,-0.188 -0.243,-0.241 -0.441,-0.159 0.099,0.737 0.705,0.672 0.441,0.159 z" />
      <path
         style="fill:#ffffff"
         inkscape:connector-curvature="0"
         id="path3492"
         d="m 676.837,333.431 c 0.04,0.143 0.093,0.281 0.158,0.414 0.205,-0.137 0.427,-0.232 0.667,-0.286 -0.201,-0.38 -0.6,-0.267 -0.923,-0.445 0.032,0.105 0.066,0.211 0.098,0.317 z" />
      <path
         style="fill:#ffffff"
         inkscape:connector-curvature="0"
         id="path3494"
         d="m 677.82,332.033 c -0.043,-0.053 -0.085,-0.105 -0.128,-0.159 0.01,0.298 -0.159,0.74 0.286,0.795 -0.102,-0.2 -0.156,-0.411 -0.158,-0.636 z" />
      <path
         style="fill:#ffffff"
         inkscape:connector-curvature="0"
         id="path3498"
         d="m 678.804,331.112 c -0.073,-0.043 -0.146,-0.085 -0.22,-0.127 -0.089,0.214 -0.121,0.436 -0.098,0.667 0.235,-0.088 0.384,-0.283 0.318,-0.54 z" />
      <path
         style="fill:#ffffff"
         inkscape:connector-curvature="0"
         id="path3500"
         d="m 678.804,329.145 c -0.096,0.011 -0.19,0.021 -0.286,0.032 0.071,0.243 0.257,0.384 0.512,0.285 -0.076,-0.106 -0.151,-0.211 -0.226,-0.317 z" />
      <path
         style="fill:#ffffff"
         inkscape:connector-curvature="0"
         id="path3502"
         d="m 679.663,331.05 c -0.141,-0.111 -0.535,-0.112 -0.672,0.004 -0.182,0.155 0.306,0.632 0.392,0.721 0.283,0.291 0.696,0.307 1.055,0.45 0.277,0.11 0.318,0.559 0.559,0.731 -0.201,-0.103 -0.482,0 -0.666,-0.127 -0.208,-0.144 -0.244,-0.458 -0.415,-0.635 -0.614,0.478 0.706,0.967 0.732,1.461 0.097,-0.178 0.874,-0.835 1.021,-0.422 0.079,0.224 -0.028,0.61 0.383,0.521 0.456,-0.102 0.056,-1.297 -0.672,-0.829 0.235,-0.436 -0.138,-0.822 -0.446,-1.08 0.497,-0.711 1.522,0.718 1.817,1.134 0.44,0.622 0.854,1.465 0.417,2.245 -0.26,0.465 -0.616,0.347 -0.406,0.97 0.109,0.325 0.271,0.57 0.456,0.854 0.141,0.216 1.046,1.615 0.191,1.311 0.332,0.352 0.543,0.6 1.05,0.65 0.254,0.025 0.361,0.325 0.636,0.271 0.396,-0.08 0.104,-0.396 -0.068,-0.491 -0.39,-0.212 -0.711,-0.992 -0.417,-1.393 0.339,-0.462 1.009,0.396 0.265,0.168 0.133,0.377 0.453,0.634 0.631,0.984 0.217,0.429 0.126,0.848 0.098,1.303 0.49,-0.198 0.717,-0.671 1.143,-0.953 -0.877,-0.581 -0.274,-0.805 0.445,-0.444 0.506,-0.985 -0.369,-2.419 -0.297,-3.496 0.013,-0.193 -0.156,-1.005 -0.064,-1.16 0.289,-0.485 0.84,-1.014 0.074,-1.379 0.071,-0.108 0.146,-0.214 0.226,-0.317 -0.468,0.021 -0.503,-0.303 -0.785,-0.562 -0.346,-0.315 -0.903,-0.081 -1.249,-0.424 0.5,-0.24 0.633,-1.075 0.072,-1.332 -0.78,-0.359 -1.446,0.864 -2.194,-0.211 -0.43,-0.618 -0.13,-0.91 -0.958,-0.809 -0.584,0.071 -1.376,0.532 -0.957,1.271 -0.779,-0.028 -0.438,0.021 -0.948,0.572 -0.334,-0.763 -0.555,0.013 -0.449,0.443 z" />
      <path
         style="fill:#ffffff"
         inkscape:connector-curvature="0"
         id="path3506"
         d="m 681.534,334.448 c 0.044,0.331 0.248,0.61 0.353,0.922 1.278,-0.701 -0.67,-1.61 -0.353,-0.922 z" />
      <path
         style="fill:#ffffff"
         inkscape:connector-curvature="0"
         id="path3508"
         d="m 681.534,337.371 c 0.272,0.073 0.325,-0.032 0.158,-0.317 -0.052,0.105 -0.105,0.211 -0.158,0.317 z" />
      <path
         style="fill:#ffffff"
         inkscape:connector-curvature="0"
         id="path3510"
         d="m 682.333,328.762 c 0.05,-0.619 0.9,0.047 1.406,-0.131 1.036,-0.363 1.719,-0.112 2.657,0.449 -0.341,-0.266 -0.57,-1.924 0.062,-1.97 0.353,-0.024 0.521,0.433 0.837,0.525 0.227,0.066 1.262,-0.461 1.421,-0.62 0.003,0.162 0.072,0.26 0.21,0.292 0.091,-0.113 0.104,-0.242 0.042,-0.387 0.261,0.185 0.571,0.121 0.543,-0.255 0.359,0.216 0.661,-0.201 1.043,-0.062 0.554,0.201 0.936,-0.559 0.32,-0.351 0.594,-0.154 1.118,-0.533 1.725,-0.636 0.672,-0.114 1.186,0.516 1.792,0.397 0.451,-0.088 0.955,-0.516 1.289,0.072 0.276,0.486 -0.273,1.077 -0.677,1.277 0.346,0.26 0.634,0.621 0.59,1.08 -0.05,0.518 0.566,0.753 0.935,0.937 0.397,0.199 0.524,0.684 0.957,0.842 0.328,0.119 0.628,0.316 0.968,0.404 0.4,0.103 0.63,-1.67 0.702,-1.929 0.07,-0.246 0.025,-0.828 0.237,-1.01 0.416,-0.355 1.01,-0.062 1.457,-0.293 -0.401,-0.513 -0.701,-0.822 -1.302,-1.102 -0.733,-0.34 -0.466,-0.672 -0.477,-1.324 -0.004,-0.292 0.271,-0.849 0.533,-0.292 0.153,0.325 0.069,1.086 0.642,0.971 -0.201,-0.175 -0.255,-0.387 -0.159,-0.635 0.188,0.849 1.219,0.101 1.398,0.763 -0.244,0.064 -0.423,0.243 -0.415,0.508 1.078,-0.635 2.352,-0.234 3.495,-0.063 -0.747,-0.71 0.489,-2.768 1.434,-1.62 -0.118,0.04 -0.236,0.082 -0.354,0.127 0.261,0.378 0.19,1.183 0.695,1.367 0.548,0.2 0.65,-0.651 0.616,-0.994 -0.042,-0.436 -0.469,-0.708 -0.512,-1.145 -0.091,-0.91 1.452,-0.199 1.711,0.072 0.252,-0.404 -1.052,-1.151 -0.189,-1.334 -0.478,-0.574 1.304,-0.812 0.811,0.271 -0.126,0.277 -0.177,1.946 0.313,2.072 0.19,0.049 1.28,-0.997 1.285,-1.235 0.008,-0.372 -0.271,-0.622 -0.284,-0.969 -0.021,-0.549 0.54,-0.747 0.923,-0.966 -1.032,-0.669 -1.759,-1.661 -2.103,-2.84 -0.125,-0.431 -0.18,-0.913 -0.17,-1.36 0.006,-0.274 0.052,-0.257 0.275,-0.36 0.202,-0.093 0.002,-0.28 -0.007,-0.427 -0.069,-1.283 -1.155,-2.295 -1.781,-3.318 -0.734,-1.199 -0.16,-2.276 1.183,-1.414 -0.494,-0.531 -1.448,-2.747 -0.446,-2.954 -0.352,-0.283 -0.075,-0.834 -0.325,-1.188 -0.203,-0.286 -0.185,-0.628 -0.433,-0.934 -0.28,-0.347 -0.406,-0.802 -0.698,-1.16 -0.261,-0.322 -0.528,-0.462 -0.737,-0.819 -0.448,-0.766 -1.463,-1.138 -2.115,-1.699 -0.853,-0.732 -1.474,-1.957 -1.757,-3.029 -0.48,0.438 -1.622,-0.704 -1.918,-0.214 -0.437,0.723 1.069,1.708 1.282,0.69 0.492,0.232 1.017,0.987 0.666,1.524 -0.312,-0.2 -0.646,-0.36 -0.983,-0.508 0.139,0.223 0.139,0.445 0,0.667 -0.53,-0.131 -0.703,-0.707 -1.02,-1.08 -0.332,-0.392 -0.802,-0.24 -1.174,-0.54 -0.01,0.461 0.939,1.429 0.524,1.788 -0.214,0.185 -0.981,0.379 -0.54,0.822 0.338,0.338 0.987,0.79 1.132,1.232 0.13,0.395 0.147,1.342 -0.512,0.89 0.128,0.447 0.358,0.382 0.729,0.381 0.493,-0.002 0.858,0.556 1.08,0.922 0.573,0.943 0.747,2.583 0.595,3.655 -0.117,0.831 0.702,2.283 -0.186,2.773 -1.018,0.561 -0.506,1.537 -1.019,2.486 -0.423,0.782 -1.357,0.822 -2.037,1.274 -0.424,0.282 -0.957,1.591 -1.584,0.491 -0.171,-0.298 -0.108,-0.707 -0.536,-0.786 -0.256,-0.047 -0.555,-0.551 -0.212,-0.489 0.718,0.127 0.441,-1.028 0.562,-1.241 -0.5,-0.14 -1.351,0.306 -1.511,0.8 -0.221,0.682 0.983,1.49 0.828,2.371 -0.124,0.706 -0.438,1.14 -0.856,1.689 -0.7,0.915 0.764,1.448 0.714,2.223 -0.585,-0.484 -0.119,0.332 -0.696,0.127 0.22,1.033 -1.807,-0.149 -1.143,0.571 -0.192,-0.123 -0.637,-0.136 -0.687,-0.413 -0.056,-0.309 0.164,-0.782 -0.369,-0.633 -0.229,0.064 -0.426,0.209 -0.651,0.276 -0.556,0.167 -1.151,-0.006 -1.679,0.263 -0.371,0.188 -0.71,0.311 -1.124,0.367 -0.392,0.054 -1.207,-0.188 -1.506,0.014 -0.422,0.283 -0.59,0.081 -0.977,-0.138 -0.435,-0.246 -1.189,0.233 -1.59,0.391 0.707,0.792 -2.104,2.957 -2.312,3.56 -0.219,0.633 -1.523,0.076 -1.506,0.698 0.019,0.501 0.418,1.071 0.65,1.496 z" />
      <path
         style="fill:#ffffff"
         inkscape:connector-curvature="0"
         id="path3512"
         d="m 682.268,334.353 c 0.081,0.4 0.653,0.068 0.667,-0.223 -0.255,-0.084 -0.509,0.013 -0.667,0.223 z" />
      <path
         style="fill:#ffffff"
         inkscape:connector-curvature="0"
         id="path3522"
         d="m 685.729,320.377 c -0.282,-0.035 -0.324,0.081 -0.128,0.35 0.044,-0.117 0.086,-0.233 0.128,-0.35 z" />
      <path
         style="fill:#ffffff"
         inkscape:connector-curvature="0"
         id="path3524"
         d="m 685.859,342.04 c -0.563,0.1 -0.104,0.745 0.233,0.811 0.662,0.128 0.196,-0.741 -0.233,-0.811 z" />
      <path
         style="fill:#ffffff"
         inkscape:connector-curvature="0"
         id="path3526"
         d="m 686.05,319.615 c -0.259,0.129 -0.293,0.498 0.03,0.571 0.526,0.12 0.24,-0.467 -0.03,-0.571 z" />
      <path
         style="fill:#ffffff"
         inkscape:connector-curvature="0"
         id="path3528"
         d="m 687.16,328.858 c -0.104,-0.202 -0.541,0.088 -0.635,0.127 0.218,-0.008 0.431,-0.05 0.635,-0.127 z" />
      <path
         style="fill:#ffffff"
         inkscape:connector-curvature="0"
         id="path3530"
         d="m 686.843,327.492 c -0.37,0.132 -0.339,0.238 0.094,0.317 -0.032,-0.105 -0.063,-0.21 -0.094,-0.317 z" />
      <path
         style="fill:#ffffff"
         inkscape:connector-curvature="0"
         id="path3532"
         d="m 687.857,329.907 c -0.228,0.524 -0.836,0.656 -1.173,1.08 0.398,0.027 0.646,-0.339 0.983,-0.477 0.073,0.184 0.221,0.741 0.494,0.72 0.358,-0.027 0.498,0.232 0.013,0.329 0.361,0.119 0.36,1.102 0.846,1.037 0.428,-0.058 0.495,0.451 0.84,0.582 0.341,0.13 0.696,-0.073 0.983,0.223 -0.663,-0.46 -0.264,-1.722 0.006,-2.292 0.69,-1.463 1.898,-0.402 2.791,0.164 0.093,-0.336 -0.009,-0.683 0.093,-1.017 0.12,-0.398 0.497,-0.652 0.708,-1.001 0.199,-0.332 -0.648,-1.212 -0.672,-1.668 -0.74,0.154 -1.228,-0.354 -1.915,-0.478 -0.573,-0.103 -1.07,0.662 -1.487,0.414 0.584,0.52 0.294,0.873 -0.349,1.049 -0.92,0.251 -0.807,-0.367 -1.649,-0.509 -0.074,0.423 -0.056,1.702 -0.512,1.844 z" />
      <path
         style="fill:#ffffff"
         inkscape:connector-curvature="0"
         id="path3534"
         d="m 687.16,327.841 c -0.303,0.177 -0.093,0.391 0.19,0.317 -0.063,-0.105 -0.126,-0.212 -0.19,-0.317 z" />
      <path
         style="fill:#ffffff"
         inkscape:connector-curvature="0"
         id="path3536"
         d="m 687.16,340.58 c -0.357,0.185 -0.316,1.812 0.221,1.62 -0.224,-0.522 0.056,-1.108 -0.221,-1.62 z" />
      <path
         style="fill:#ffffff"
         inkscape:connector-curvature="0"
         id="path3538"
         d="m 688.524,327.396 c -0.243,-0.046 -0.243,0.06 0,0.318 0,-0.107 0,-0.212 0,-0.318 z" />
      <path
         style="fill:#ffffff"
         inkscape:connector-curvature="0"
         id="path3540"
         d="m 691.069,285.086 c -0.2,-0.036 0.396,0.4 0.508,0.444 -0.079,-0.229 -0.267,-0.401 -0.508,-0.444 z" />
      <path
         style="fill:#ffffff"
         inkscape:connector-curvature="0"
         id="path3542"
         d="m 692.402,326.509 c -0.238,-0.131 -0.442,-0.024 -0.574,0.19 0.215,0.202 0.791,0.282 0.574,-0.19 z" />
      <path
         style="fill:#ffffff"
         inkscape:connector-curvature="0"
         id="path3544"
         d="m 692.112,285.849 c -0.027,0.389 0.382,0.574 0.667,0.317 -0.19,-0.172 -0.413,-0.278 -0.667,-0.317 z" />
      <path
         style="fill:#ffffff"
         inkscape:connector-curvature="0"
         id="path3546"
         d="m 693.1,285.086 c 0.276,0.45 0.343,0.976 0.752,1.345 0.611,0.55 1.329,1.123 1.698,1.875 0.323,0.659 0.701,1.398 0.951,2.086 0.239,0.655 -0.442,0.92 0.027,1.486 0.481,0.582 1.605,1.957 0.047,1.775 -0.702,-0.082 -1.496,-0.671 -2.168,-0.652 -0.416,0.012 0.057,0.65 0.191,0.741 0.382,0.26 0.763,0.393 0.681,0.951 -0.149,1.002 -1.266,0.431 -0.803,1.753 0.352,1.004 1.394,0.954 2.016,1.678 0.395,0.457 0.186,1.136 0.532,1.648 0.552,0.816 0.741,0.273 1.383,0.022 -0.437,-0.343 10e-4,-0.763 0.391,-0.837 0.104,-0.02 1.447,0.346 1.112,-0.215 -0.239,-0.399 -1.134,-0.623 -1.518,-0.892 -0.562,-0.393 -1.315,-0.33 -1.896,-0.732 -0.325,-0.226 -0.549,-0.712 -0.334,-1.095 0.211,-0.376 0.833,-0.03 1.087,0.101 0.332,0.171 0.616,0.486 0.954,0.622 0.357,0.143 0.803,-0.687 1.133,-0.876 1.092,-0.624 2.564,0.778 3.543,1.131 0.708,0.255 2.175,1.201 2.927,1.111 0.459,-0.055 0.217,-0.532 0.088,-0.777 -0.309,-0.589 -0.378,-1.03 -0.121,-1.677 0.542,-1.362 1.384,-1.404 2.702,-1.072 -0.588,-0.743 1.379,0.097 0.732,-0.763 0.31,-0.132 0.646,-0.224 0.984,-0.159 -0.042,-0.279 0.123,-0.506 0.379,-0.603 -0.421,-0.484 -0.399,0.152 -0.7,0.298 -0.184,0.088 -0.511,-0.303 -0.573,-0.359 -0.145,-0.128 -1.311,-1.222 -0.443,-0.828 -0.615,-0.278 -1.322,-0.414 -1.451,-1.195 -0.083,-0.51 0.058,-1.479 -0.547,-1.728 -0.09,0.501 -0.227,1.372 -0.802,1.556 -0.691,0.22 -1.763,-0.854 -2.154,-0.412 -0.121,-0.385 -0.404,-0.358 -0.731,-0.301 -0.455,0.079 -0.542,-0.26 -0.92,-0.405 -1.176,-0.453 -2.248,-0.845 -3.343,-1.513 -1.263,-0.77 -2.438,-1.668 -3.697,-2.445 -0.411,-0.254 -0.922,-0.703 -1.407,-0.8 -0.35,-0.072 -0.322,0.449 -0.702,0.157 z" />
      <path
         style="fill:#ffffff"
         inkscape:connector-curvature="0"
         id="path3548"
         d="m 694.369,326.412 c -0.479,-0.025 -0.785,0.948 -0.436,1.237 0.648,0.537 0.411,-1.065 0.436,-1.237 z" />
      <path
         style="fill:#ffffff"
         inkscape:connector-curvature="0"
         id="path3550"
         d="m 693.893,297.252 c -0.011,0.255 0.13,0.386 0.384,0.349 0.02,-0.268 -0.11,-0.413 -0.384,-0.349 z" />
      <path
         style="fill:#ffffff"
         inkscape:connector-curvature="0"
         id="path3552"
         d="m 698.976,312.148 c -0.341,0.118 -0.742,0.848 -0.271,1.061 0.419,0.189 0.339,0.315 0.271,0.782 0.521,-0.015 0.756,-0.498 0.495,-0.935 -0.09,-0.087 -0.195,-0.144 -0.317,-0.172 -0.166,-0.089 -0.114,-0.572 -0.178,-0.736 z" />
      <path
         style="fill:#ffffff"
         inkscape:connector-curvature="0"
         id="path3556"
         d="m 708.026,325.491 c -0.128,0.287 -0.031,0.393 0.287,0.317 -0.087,-0.112 -0.183,-0.218 -0.287,-0.317 z" />
    </g>
  </g>
</svg>
