<?xml version="1.0" encoding="UTF-8" standalone="no"?>
<!-- Created with Inkscape (http://www.inkscape.org/) -->

<svg
   xmlns:dc="http://purl.org/dc/elements/1.1/"
   xmlns:cc="http://creativecommons.org/ns#"
   xmlns:rdf="http://www.w3.org/1999/02/22-rdf-syntax-ns#"
   xmlns:svg="http://www.w3.org/2000/svg"
   xmlns="http://www.w3.org/2000/svg"
   xmlns:sodipodi="http://sodipodi.sourceforge.net/DTD/sodipodi-0.dtd"
   xmlns:inkscape="http://www.inkscape.org/namespaces/inkscape"
   width="3164.8999mm"
   height="1455.7mm"
   viewBox="0 0 3164.8999 1455.6998"
   version="1.1"
   id="svg7070"
   inkscape:version="0.92.4 (5da689c313, 2019-01-14)"
   sodipodi:docname="kazakhstan.svg">
  <defs
     id="defs7064" />
  <sodipodi:namedview
     id="base"
     pagecolor="#ffffff"
     bordercolor="#666666"
     borderopacity="1.0"
     inkscape:pageopacity="0.0"
     inkscape:pageshadow="2"
     inkscape:zoom="7.9195959"
     inkscape:cx="55.594718"
     inkscape:cy="4.2314556"
     inkscape:document-units="mm"
     inkscape:current-layer="layer1"
     showgrid="false"
     inkscape:window-width="958"
     inkscape:window-height="1008"
     inkscape:window-x="-7"
     inkscape:window-y="0"
     inkscape:window-maximized="0" />
  <metadata
     id="metadata7067">
    <rdf:RDF>
      <cc:Work
         rdf:about="">
        <dc:format>image/svg+xml</dc:format>
        <dc:type
           rdf:resource="http://purl.org/dc/dcmitype/StillImage" />
        <dc:title />
      </cc:Work>
    </rdf:RDF>
  </metadata>
  <g
     inkscape:label="Layer 1"
     inkscape:groupmode="layer"
     id="layer1"
     transform="translate(-143.41276,1419.1116)">
    <g
       transform="matrix(26.458282,0,0,26.459094,-10557.097,-7989.0899)"
       id="kz"
       style="fill:#ffffff">
      <path
         style="fill:#ffffff"
         inkscape:connector-curvature="0"
         id="path3898"
         d="m 404.453,273.079 c 0.146,-0.486 0.115,-0.87 0.569,-1.165 0.229,-0.15 0.416,-0.527 0.256,-0.786 -0.368,-0.594 -0.812,-0.445 -0.83,-1.284 -0.021,-0.941 0.314,-0.961 0.763,-1.669 0.292,-0.461 -0.089,-1.181 0.312,-1.584 0.901,-0.907 2.475,1.975 3.271,2.08 0.478,0.063 1.752,-0.402 1.078,-0.985 -0.514,-0.446 -0.468,-1.725 -1.162,-1.944 0.93,0.243 1.062,-0.374 1.838,-0.635 0.761,-0.256 -0.305,-0.882 0.491,-1.034 0.737,-0.141 1.429,-0.387 2.128,-0.737 0.609,-0.304 0.178,-1.522 1.164,-1.058 -0.086,-0.211 -0.171,-0.423 -0.256,-0.634 0.299,0.063 1.695,0.277 1.778,0.515 0.328,0.943 0.798,-0.036 1.177,0.596 0.229,-0.281 0.241,-0.597 0.574,-0.794 0.146,0.019 0.293,0.018 0.439,-0.002 0.184,-0.138 0.376,-0.265 0.575,-0.379 0.605,1.943 2.491,0.5 3.719,1.328 0.588,0.396 1.149,0.632 1.745,0.976 0.244,0.141 0.438,0.367 0.603,0.592 0.251,0.343 0.691,0.35 1.05,0.503 -0.157,0.269 0.018,1.476 0.51,1.199 0.746,-0.421 -0.398,-1.317 -0.541,-1.738 0.414,-0.285 1.217,0.169 1.512,0.464 0.518,0.516 1.277,0.486 1.74,0.898 0.512,0.456 0.875,0.201 1.364,-0.24 0.165,-0.148 0.066,-0.439 0.246,-0.564 0.273,-0.192 0.658,-0.342 0.631,-0.748 0.249,0.015 0.471,0.1 0.666,0.254 0.025,-0.469 1.336,-0.547 1.542,-0.209 0.13,0.211 0.442,0.39 0.646,0.52 0.366,0.232 0.658,-0.192 1.024,-0.024 -0.027,-0.951 -0.089,-0.645 0.815,-0.591 0.469,0.028 0.654,-0.369 1.164,-0.066 0.366,0.217 0.499,0.498 0.662,0.86 0.226,0.502 3.23,0.753 2.918,1.258 0.389,-0.026 0.785,-0.094 0.983,-0.476 0.111,-0.215 -0.119,-0.673 0.174,-0.794 0.387,-0.16 0.602,0.395 0.876,0.541 0.356,0.188 0.977,0.184 1.374,0.175 0.463,-0.01 1.741,-0.191 1.844,-0.774 0.063,-0.371 -0.329,-1.362 0.276,-1.433 -0.444,-0.147 -0.572,-0.629 -1.077,-0.69 -0.427,-0.051 -0.879,0.053 -1.231,-0.261 -0.339,-0.302 -0.491,-0.382 -0.977,-0.385 -0.6,-0.003 -0.613,-0.25 -1.062,-0.591 -0.327,-0.249 -0.597,-0.311 -0.982,-0.351 -0.374,-0.039 -0.417,-0.439 0.021,-0.397 0.34,0.032 0.604,-0.441 0.917,-0.547 0.581,-0.195 0.841,-0.436 1.374,-0.716 -0.193,-0.125 -1.352,-1.149 -1.379,-1.317 -0.062,-0.384 0.888,-0.569 0.487,-1.034 0.861,-0.097 1.588,0.105 2.418,0.063 0.233,-0.012 0.621,0.228 0.674,-0.163 0.058,-0.42 -0.458,-0.494 -0.741,-0.567 -0.699,-0.181 -1.472,-0.274 -2.147,-0.519 -0.898,-0.324 0.787,-0.717 0.812,-0.753 -0.203,-0.303 -0.397,-0.262 -0.701,-0.188 -0.453,0.11 -0.885,-0.143 -1.267,-0.351 1.08,-0.089 0.213,-0.793 -0.098,-1.048 0.214,-0.042 0.427,-0.031 0.636,0.032 -0.174,-0.629 1.408,-0.23 1.644,-0.137 0.509,0.201 0.61,-0.064 1.087,-0.149 0.532,-0.095 0.616,0.413 1.081,0.445 -0.135,-0.842 0.7,-0.731 1.337,-0.731 0.042,-0.105 0.084,-0.211 0.128,-0.318 0.209,-0.033 0.418,-0.042 0.63,-0.025 0.437,-0.019 0.759,-0.069 1.201,-0.034 0.445,0.035 0.347,-0.445 0.795,-0.451 0.456,-0.007 0.88,-0.191 1.338,-0.108 0.334,0.061 0.623,-0.28 0.945,-0.054 0.436,0.306 0.4,0.031 0.398,-0.311 -0.009,-1.036 2.838,-0.741 3.436,-0.884 0.837,-0.2 1.799,-0.579 2.657,-0.579 0.346,0 0.638,-0.417 0.85,-0.4 0.393,0.032 0.771,0.013 1.056,-0.33 -0.286,-0.052 -0.442,-0.483 -0.096,-0.438 0.371,0.048 0.945,-0.211 0.798,-0.642 0.261,0.074 0.524,0.095 0.794,0.063 -0.094,-0.108 -0.189,-0.213 -0.286,-0.318 0.334,0.017 0.641,0.212 0.972,0.253 0.343,0.043 0.698,-0.044 1.064,0.024 0.257,0.047 2.34,1.111 2.425,0.458 0.099,-0.749 1.257,0.013 1.551,0.292 0.275,0.261 0.331,0.483 0.483,0.821 0.197,0.44 0.732,0.644 1.129,0.852 -0.422,0.438 0.72,1.392 -0.19,1.461 0.597,0.735 1.038,0.203 1.604,0.542 0.326,0.195 0.671,-0.02 0.744,-0.338 0.079,-0.341 0.861,0.114 1.079,0.083 -0.242,-0.122 -0.382,-0.363 -0.317,-0.635 0.464,0.206 0.799,0.825 1.337,0.857 -0.446,0.331 -0.004,0.434 0.189,0.858 0.18,-0.195 0.401,-0.291 0.667,-0.286 -0.144,-0.22 -0.381,-0.34 -0.636,-0.222 0.466,-1.315 2.634,1.423 3.208,-0.127 0.235,0.185 0.415,0.451 0.414,0.762 -0.6,-0.084 -0.756,0.215 -0.978,0.704 -0.154,0.337 0.727,0.6 0.818,0.885 0.427,-0.395 0.693,-0.772 1.333,-0.731 0.495,0.031 0.976,0.538 1.429,0.541 -0.061,-0.931 0.441,-0.968 1.112,-1.207 0.323,-0.115 1.276,-0.502 0.86,-0.985 0.378,-0.032 0.742,-0.135 1.097,-0.27 0.237,-0.094 0.475,-0.192 0.709,-0.292 0.095,-0.114 0.181,-0.233 0.259,-0.358 0.211,-0.076 0.488,0.151 0.67,-0.044 0.301,-0.322 0.474,-0.249 0.883,-0.401 -0.091,0.111 -0.175,0.228 -0.251,0.349 0.297,0.077 0.42,0.375 0.221,0.623 -0.242,0.299 -0.561,0.076 -0.855,0.266 1.341,1.018 2.913,1.601 4.368,2.42 1.459,0.821 2.703,1.974 3.961,3.066 1.436,1.247 2.788,2.568 4.167,3.875 0.829,0.785 1.998,2.645 3.161,2.899 -0.566,-0.602 1.209,-0.391 0.67,-1.124 -0.464,-0.63 0.304,-0.349 0.287,-0.846 0.355,0.143 1.486,0.136 1.609,0.538 0.139,0.457 -0.166,0.881 0.578,0.733 0.607,-0.121 0.722,0.725 1.24,0.826 0.272,0.053 0.531,-0.116 0.795,-0.143 0.372,-0.038 0.697,0.22 1.079,0.202 0.702,-0.033 0.956,-0.219 1.456,-0.618 0.121,-0.097 0.375,-0.017 0.513,-0.044 0.246,-0.049 0.217,-0.283 0.434,-0.35 1.518,-0.468 3.164,1.341 4.028,2.292 0.48,0.529 1.096,0.582 1.745,0.782 0.758,0.233 1.051,0.739 1.591,1.254 0.233,0.222 0.422,0.353 0.612,0.615 0.288,0.4 0.463,0.065 0.839,0.202 0.503,0.183 1.177,-0.04 1.685,0.169 0.64,0.264 0.647,-0.101 1.057,-0.424 0.096,-0.075 0.941,-0.712 0.748,-0.234 -0.379,0.942 2.327,1.773 2.764,2.363 -0.5,-0.124 -2.055,-0.292 -1.457,0.698 0.419,0.693 0.188,1.315 -0.536,1.627 -0.545,0.235 -1.612,-0.095 -1.683,0.698 -0.11,1.247 0.664,2.432 1.339,3.405 0.724,1.045 -0.72,1.116 -1.233,1.558 -0.417,0.359 -0.554,0.47 -0.962,0.021 -0.402,-0.442 -1.254,-0.227 -1.767,-0.165 -1.155,0.139 -1.923,-0.416 -2.938,-0.795 -0.994,-0.372 -0.689,1.943 -0.671,2.503 0.035,1.092 -0.1,2.155 -0.117,3.236 -0.017,1.04 1.64,0.506 1.442,1.72 -0.083,0.517 -0.575,0.12 -0.83,-0.005 -0.427,-0.207 -0.783,0.141 -1.23,0.06 -0.36,-0.065 -0.636,-0.689 -0.976,-0.53 -0.472,0.22 -1.325,0.555 -1.836,0.616 -0.689,0.083 -2.575,0.155 -2.905,0.951 -0.231,0.559 2.439,0.187 1.893,0.915 -0.497,0.66 1.018,2.727 1.388,3.196 0.348,0.441 0.888,0.939 1.048,1.491 0.115,0.396 0.671,0.737 0.47,1.194 -0.396,-0.281 -0.727,0.155 -0.923,0.445 0.237,0.099 0.449,0.236 0.636,0.413 -0.287,0.073 -0.55,0.237 -0.856,0.223 0.064,0.314 -0.025,0.658 0.114,0.956 0.201,0.429 0.71,0.857 0.553,1.394 -0.73,-0.432 -1.087,-0.966 -2.006,-0.979 -0.887,-0.011 -1.211,-0.696 -1.889,-1.104 -0.579,-0.347 -1.771,-0.34 -2.436,-0.411 -1.093,-0.117 -2.204,-0.075 -3.301,-0.166 -0.365,-0.031 -0.589,-0.092 -0.921,-0.231 -0.448,-0.187 -0.831,0.076 -1.262,0.179 -0.391,0.094 -2.611,-0.276 -2.686,0.011 -0.317,1.232 -4.383,-1.067 -5.195,-1.333 0.157,0.278 -1.192,0.602 -1.36,0.694 -0.698,0.383 -0.275,1.983 0.187,2.418 -0.364,0.122 -0.785,-0.224 -1.101,-0.35 -0.489,-0.196 -1.076,-0.186 -1.588,-0.352 -0.899,-0.293 -2.034,-0.75 -2.987,-0.715 -0.267,0.009 -0.559,0.266 -0.774,0.116 -0.147,-0.102 -0.633,0.037 -0.763,0.126 -0.307,0.214 -1.046,1.79 -0.41,1.874 -0.229,0.156 -0.665,0.647 -0.877,0.732 -0.437,0.175 -0.501,-0.354 -0.905,0.178 -0.617,0.812 -1.281,1.169 -2.164,1.646 -0.298,0.162 -0.578,0.399 -0.831,0.623 -0.285,0.253 0.076,0.422 -0.228,0.732 -0.321,0.329 -0.668,0.599 -0.896,1.019 -0.281,0.52 0.248,0.816 0.311,1.297 -0.572,-0.171 -1.954,-0.251 -1.91,-1.072 0.031,-0.563 -0.423,-1.121 -1.046,-1.146 -1.021,-0.04 -3.119,0.867 -3.762,-0.246 -0.391,-0.676 -0.576,-1.446 -0.855,-2.169 -0.364,-0.943 -0.946,-0.313 -1.543,-0.729 -0.91,-0.634 -0.753,-2.597 -0.891,-3.563 -0.902,0.082 -0.968,0.151 -1.588,-0.622 -0.605,-0.753 -1.488,-1.045 -2.171,-1.707 -0.865,-0.839 -1.077,-0.047 -2.028,0.124 -0.955,0.171 -1.927,-0.117 -2.876,-0.203 -0.072,-0.006 -0.145,-0.012 -0.218,-0.017 -0.072,-0.004 -0.146,-0.008 -0.22,-0.01 -0.074,-0.002 -0.146,-0.004 -0.221,-0.004 -0.073,0 -0.147,0 -0.222,0.001 -0.075,10e-4 -0.148,0.003 -0.223,0.007 -0.074,0.003 -0.149,0.007 -0.224,0.012 -0.075,0.005 -0.149,0.01 -0.224,0.017 -0.074,0.007 -0.148,0.014 -0.224,0.021 -0.074,0.008 -0.148,0.017 -0.223,0.026 -0.074,0.009 -0.148,0.02 -0.223,0.03 -0.074,0.011 -0.147,0.022 -0.222,0.034 -0.073,0.012 -0.146,0.024 -0.22,0.038 -0.074,0.014 -0.146,0.027 -0.219,0.041 -0.073,0.014 -0.145,0.029 -0.217,0.044 -0.072,0.015 -0.144,0.031 -0.215,0.047 -0.071,0.016 -0.142,0.032 -0.212,0.049 -1.088,0.262 -1.654,-0.64 -2.464,-1.23 -0.83,-0.605 -1.41,-1.372 -2.164,-2.033 -0.855,-0.749 -0.457,-0.512 -1.468,-1.024 -0.005,-0.002 0.317,-0.094 0.033,-0.399 -0.284,-0.305 -0.662,-0.58 -1.043,-0.992 -0.963,-1.192 -0.153,-0.727 -0.246,-1.876 -0.052,-0.315 -1.865,-0.314 -1.854,-0.106 -0.731,-0.269 -0.555,-0.393 -0.167,-0.521 -0.175,-0.241 1.691,0.257 1.476,-0.043 -0.215,-0.3 -0.488,-0.219 -0.718,-0.539 -0.23,-0.32 0.606,0.227 0.389,-0.075 -0.219,-0.302 -0.618,-0.133 -0.8,-0.378 0.204,0.018 1.142,-0.083 0.345,-0.446 -0.174,-0.079 -1.146,0.186 -1.28,0.112 0.08,-0.099 0.465,-0.846 -0.979,-0.884 -0.153,-0.087 0.733,0.402 0.711,1.006 -0.016,0.391 0.046,1.089 -0.055,1.031 -0.1,-0.059 -0.009,0.265 -0.37,0.056 -0.362,-0.208 -0.314,0.05 -0.662,-0.15 -0.348,-0.2 0.355,-0.481 0.05,-0.656 -0.306,-0.174 -1.37,0.485 -1.607,0.352 -0.236,-0.132 0.009,0.672 -0.131,0.599 -1.008,-0.529 0.817,0.251 -0.359,0.567 -2.007,0.54 -5.163,1.113 -7.026,2.042 -0.337,0.168 1.117,5.416 1.239,5.978 0.571,2.622 1.137,5.245 1.667,7.875 -0.42,-0.012 -0.782,0.274 -1.201,0.274 -0.526,10e-4 -1.022,-0.618 -1.334,-0.974 -0.771,-0.881 -1.443,-1.826 -2.499,-2.395 -1.169,-0.63 -1.901,-0.85 -3.21,-0.517 -1.256,0.319 -2.289,0.979 -3.032,2.055 0.076,-0.589 -0.468,-1.076 -0.239,-1.664 0.239,-0.612 0.67,-1.379 0.015,-1.894 0.099,0.084 0.204,0.158 0.317,0.222 0.487,-0.64 -1.418,-0.804 -1.789,-0.952 -0.386,-0.154 -0.636,0.242 -0.988,-0.109 -0.273,-0.273 -0.567,-0.588 -0.715,-0.953 -0.212,-0.526 -1.146,0.561 -1.26,-0.679 -0.038,-0.424 -0.166,-0.677 -0.508,-0.942 -0.471,-0.364 -0.69,-0.959 -1.002,-1.45 -0.45,-0.708 -0.865,-1.058 -1.693,-1.21 -0.443,-0.081 -1.412,-0.488 -0.811,-1.092 0.408,-0.409 1.32,-0.212 1.801,-0.072 0.293,0.085 0.498,0.35 0.783,0.421 0.408,0.103 0.886,-0.121 1.323,-0.046 -0.336,-0.582 -1.296,-0.63 -1.772,-1.078 -0.445,-0.419 0.396,-1.756 0.871,-1.959 0.139,-0.059 0.706,-0.406 0.779,-0.409 0.164,0.04 0.319,0.101 0.467,0.184 0.271,0.105 0.64,-0.056 0.914,-0.08 0.957,-0.082 2.346,0.727 3.189,0.229 -0.475,-0.238 -1.369,-0.331 -1.598,-0.888 -0.317,-0.774 0.872,-1.73 0.614,-2.67 -0.239,-0.873 -0.716,-1.57 -1.229,-2.204 -0.246,-0.306 -1.216,-0.457 -1.515,-0.17 -1.354,1.301 -3.854,-2.068 -4.875,-0.027 -0.042,0.083 -0.72,0.12 -0.783,0.112 -0.446,-0.054 -0.459,0.458 -0.764,0.684 -0.273,0.203 -0.589,0.352 -0.893,0.503 -0.197,0.095 -0.405,0.15 -0.625,0.164 -0.35,0.019 -0.832,-0.47 -0.439,0.176 -0.21,-0.139 -0.432,-0.255 -0.666,-0.35 0.127,0.128 0.256,0.255 0.383,0.381 -0.151,-0.047 -0.258,-0.004 -0.318,0.128 -0.083,0.443 -0.508,-0.066 -0.127,0.38 -0.417,-0.183 -2.417,-0.682 -2.443,-1.207 -0.038,-0.735 2.507,0.458 0.896,-1.105 -1.025,-0.997 -1.714,-2.522 -3.152,-2.957 -0.483,-0.146 -1.112,-0.311 -1.611,-0.145 -0.022,0.008 -0.043,0.016 -0.062,0.025 -0.018,0.009 -0.035,0.02 -0.049,0.03 -0.016,0.011 -0.029,0.021 -0.041,0.033 -0.012,0.011 -0.023,0.023 -0.033,0.034 -0.01,0.012 -0.019,0.023 -0.026,0.035 -0.009,0.011 -0.015,0.022 -0.022,0.033 -0.007,0.011 -0.014,0.021 -0.02,0.03 -0.006,0.01 -0.013,0.019 -0.02,0.026 -0.006,0.008 -0.013,0.015 -0.02,0.021 -0.008,0.005 -0.016,0.01 -0.023,0.014 -0.008,0.003 -0.018,0.005 -0.028,0.005 -0.01,0 -0.021,-10e-4 -0.034,-0.005 -0.013,-0.004 -0.027,-0.009 -0.043,-0.016 -0.016,-0.008 -0.034,-0.017 -0.054,-0.029 -0.02,-0.012 -0.042,-0.026 -0.065,-0.043 -0.023,-0.017 -0.051,-0.037 -0.08,-0.059 -0.018,-0.015 -0.036,-0.03 -0.053,-0.046 -0.017,-0.016 -0.033,-0.032 -0.047,-0.049 -0.016,-0.017 -0.029,-0.035 -0.043,-0.053 -0.014,-0.019 -0.026,-0.037 -0.039,-0.056 -0.012,-0.019 -0.023,-0.039 -0.035,-0.058 -0.011,-0.02 -0.021,-0.04 -0.031,-0.06 -0.012,-0.021 -0.021,-0.041 -0.031,-0.062 -0.01,-0.021 -0.02,-0.042 -0.029,-0.062 -0.01,-0.021 -0.02,-0.042 -0.029,-0.062 -0.01,-0.021 -0.02,-0.042 -0.029,-0.063 -0.01,-0.021 -0.021,-0.041 -0.031,-0.062 -0.01,-0.02 -0.021,-0.041 -0.033,-0.061 -0.011,-0.02 -0.022,-0.04 -0.035,-0.059 -0.012,-0.02 -0.025,-0.039 -0.039,-0.057 -0.014,-0.018 -0.028,-0.037 -0.043,-0.054 -0.016,-0.018 -0.032,-0.035 -0.049,-0.051 0.006,-0.005 0.013,-0.01 0.02,-0.014 0.006,-0.005 0.013,-0.009 0.02,-0.014 0.007,-0.004 0.014,-0.009 0.02,-0.014 0.007,-0.005 0.014,-0.009 0.02,-0.014 0.007,-0.005 0.014,-0.009 0.021,-0.014 0.007,-0.004 0.013,-0.009 0.02,-0.014 0.007,-0.005 0.013,-0.009 0.021,-0.014 0.006,-0.004 0.013,-0.009 0.02,-0.014 0.006,-0.005 0.014,-0.009 0.02,-0.014 0.007,-0.005 0.014,-0.01 0.02,-0.014 0.008,-0.005 0.014,-0.009 0.021,-0.014 0.007,-0.005 0.013,-0.009 0.021,-0.014 0.006,-0.004 0.013,-0.009 0.02,-0.014 0.006,-0.005 0.014,-0.009 0.02,-0.014 0.007,-0.004 0.014,-0.009 0.02,-0.014 0.008,-0.005 0.014,-0.009 0.021,-0.014 -0.014,-0.013 -0.026,-0.025 -0.039,-0.039 -0.013,-0.013 -0.024,-0.026 -0.036,-0.04 -0.01,-0.013 -0.021,-0.027 -0.031,-0.041 -0.01,-0.014 -0.02,-0.028 -0.029,-0.043 -0.009,-0.014 -0.018,-0.029 -0.025,-0.043 -0.009,-0.015 -0.017,-0.03 -0.025,-0.045 -0.007,-0.015 -0.015,-0.03 -0.021,-0.046 -0.008,-0.015 -0.016,-0.03 -0.021,-0.046 -0.008,-0.016 -0.014,-0.031 -0.021,-0.047 -0.006,-0.016 -0.014,-0.031 -0.02,-0.047 -0.008,-0.016 -0.014,-0.031 -0.021,-0.047 -0.006,-0.016 -0.014,-0.032 -0.021,-0.047 -0.007,-0.015 -0.015,-0.031 -0.021,-0.046 -0.008,-0.016 -0.016,-0.031 -0.024,-0.047 -0.008,-0.016 -0.016,-0.031 -0.024,-0.046 -0.008,-0.015 -0.019,-0.03 -0.027,-0.045 -0.009,-0.013 -0.019,-0.026 -0.03,-0.038 -0.011,-0.012 -0.023,-0.023 -0.037,-0.034 -0.014,-0.01 -0.028,-0.02 -0.044,-0.03 -0.016,-0.009 -0.032,-0.018 -0.05,-0.026 -0.017,-0.008 -0.035,-0.016 -0.054,-0.023 -0.019,-0.007 -0.038,-0.014 -0.058,-0.02 -0.02,-0.006 -0.04,-0.012 -0.061,-0.018 -0.021,-0.006 -0.042,-0.011 -0.062,-0.016 -0.021,-0.005 -0.043,-0.01 -0.064,-0.015 -0.021,-0.004 -0.043,-0.008 -0.063,-0.012 -0.02,-0.004 -0.042,-0.008 -0.063,-0.012 -0.02,-0.003 -0.041,-0.007 -0.061,-0.01 -0.02,-0.004 -0.039,-0.007 -0.059,-0.011 -0.018,-0.003 -0.036,-0.006 -0.054,-0.01 -0.018,-0.004 -0.034,-0.007 -0.05,-0.011 -0.016,-0.003 -0.031,-0.007 -0.045,-0.011 -0.047,-0.013 -0.092,-0.025 -0.135,-0.039 -0.043,-0.013 -0.084,-0.026 -0.123,-0.039 -0.039,-0.014 -0.077,-0.027 -0.113,-0.042 -0.035,-0.014 -0.07,-0.028 -0.102,-0.043 -0.033,-0.015 -0.063,-0.031 -0.092,-0.047 -0.029,-0.017 -0.057,-0.034 -0.082,-0.051 -0.025,-0.018 -0.049,-0.037 -0.071,-0.057 -0.021,-0.02 -0.042,-0.041 -0.06,-0.063 -0.02,-0.022 -0.035,-0.045 -0.051,-0.07 -0.016,-0.025 -0.028,-0.05 -0.04,-0.078 -0.012,-0.027 -0.021,-0.056 -0.029,-0.087 -0.009,-0.031 -0.015,-0.063 -0.02,-0.097 -0.005,-0.034 -0.009,-0.07 -0.009,-0.108 -0.002,-0.038 -0.002,-0.077 0,-0.119 0.002,-0.042 0.006,-0.086 0.012,-0.132 -0.005,-0.04 0.001,-0.089 0.01,-0.14 z" />
      <path
         style="fill:#ffffff"
         inkscape:connector-curvature="0"
         id="path7142"
         d="m 443.613,283.921 c 0.075,0.225 0.214,0.467 0.38,0.635 0.32,-1.1 1.084,1.028 1.178,1.112 -0.024,-0.27 -0.089,-0.767 -0.317,-0.953 1.197,0.706 0.669,1.288 0.644,1.356 l -2.204,-1.2 c 0.048,-0.161 -0.104,-0.604 0.559,-0.301 -0.29,-0.192 -0.338,-0.314 -0.208,-0.649 m -0.032,0 z" />
    </g>
  </g>
</svg>
