<?xml version="1.0" encoding="UTF-8" standalone="no"?>
<!-- Created with Inkscape (http://www.inkscape.org/) -->

<svg
   xmlns:dc="http://purl.org/dc/elements/1.1/"
   xmlns:cc="http://creativecommons.org/ns#"
   xmlns:rdf="http://www.w3.org/1999/02/22-rdf-syntax-ns#"
   xmlns:svg="http://www.w3.org/2000/svg"
   xmlns="http://www.w3.org/2000/svg"
   xmlns:sodipodi="http://sodipodi.sourceforge.net/DTD/sodipodi-0.dtd"
   xmlns:inkscape="http://www.inkscape.org/namespaces/inkscape"
   width="709.40002mm"
   height="939.79999mm"
   viewBox="0 0 709.40003 939.79985"
   version="1.1"
   id="svg7070"
   inkscape:version="0.92.4 (5da689c313, 2019-01-14)"
   sodipodi:docname="kenya.svg">
  <defs
     id="defs7064" />
  <sodipodi:namedview
     id="base"
     pagecolor="#ffffff"
     bordercolor="#666666"
     borderopacity="1.0"
     inkscape:pageopacity="0.0"
     inkscape:pageshadow="2"
     inkscape:zoom="7.9195959"
     inkscape:cx="8.1627339"
     inkscape:cy="-0.2883281"
     inkscape:document-units="mm"
     inkscape:current-layer="layer1"
     showgrid="false"
     inkscape:window-width="958"
     inkscape:window-height="1008"
     inkscape:window-x="-7"
     inkscape:window-y="0"
     inkscape:window-maximized="0" />
  <metadata
     id="metadata7067">
    <rdf:RDF>
      <cc:Work
         rdf:about="">
        <dc:format>image/svg+xml</dc:format>
        <dc:type
           rdf:resource="http://purl.org/dc/dcmitype/StillImage" />
        <dc:title />
      </cc:Work>
    </rdf:RDF>
  </metadata>
  <g
     inkscape:label="Layer 1"
     inkscape:groupmode="layer"
     id="layer1"
     transform="translate(-156.47024,893.05939)">
    <path
       inkscape:connector-curvature="0"
       style="fill:#ffffff;stroke-width:26.45777321"
       d="m 156.66555,-324.06149 c 0,-15.8745 -0.5,-31.82838 0.1,-47.75577 0.49999,-13.38758 6.66993,-30.42613 3.64996,-43.52261 -5.15995,-22.43598 6.00994,-51.77734 20.55779,-70.80023 13.20286,-17.30315 23.01876,-51.51275 44.18454,-59.84679 10.1599,-4.02187 8.46991,-6.0058 7.93992,-14.84272 -0.79999,-13.59917 14.97485,-20.10766 18.44081,-32.19877 4.12996,-14.36634 5.31994,-28.46819 6.71993,-42.88753 1.29999,-12.96418 -11.74788,-22.11849 -14.47285,-36.69652 -6.07994,-32.59566 -26.19373,-39.68623 -29.2097,-54.05267 -2.35998,-11.42963 -8.67991,-21.08663 -12.54087,-31.93418 -2.56997,-4.81484 -3.99996,-9.86868 -4.30996,-15.23951 0,-7.27577 8.17992,-11.42963 5.94994,-19.23458 -1.92998,-6.87878 -9.4699,-8.67773 -15.29284,-10.84756 -13.17586,-4.92084 -3.53996,-14.92202 -17.48882,-13.54626 4.52995,-13.06998 -11.66788,-25.63728 -8.48991,-34.76519 3.09997,-8.78372 12.22387,-16.37718 18.44181,-22.88567 21.74877,-22.83287 48.3915,-16.27138 76.94021,-16.27138 16.35083,0 32.75466,-1.34895 49.10549,-1.56095 8.03992,-0.0529 16.35183,-0.47998 24.31475,0.81998 6.90993,1.08496 8.99991,13.12288 17.25082,16.32428 25.47974,9.86868 53.89544,-2.16994 79.87718,9.86868 27.14572,12.6203 56.22342,35.84995 77.4162,56.64549 10.79489,10.53006 19.3678,17.99112 34.95164,19.68436 10.13289,1.08497 33.17766,-5.15883 41.11557,-0.10999 22.25078,14.20764 56.32942,1.61395 75.67022,20.16055 2.69998,-13.17578 20.87479,-32.46326 29.07671,-43.81359 14.55185,-20.31935 45.71952,-28.3624 67.2563,-38.44267 22.93977,-10.68886 26.98772,14.52513 44.13255,24.55251 11.77388,6.87878 24.55274,2.38092 36.80262,0.16 9.9199,-1.79895 21.74877,4.76284 31.11468,-0.41999 -14.31286,24.55261 -27.48972,51.30106 -44.89854,73.78994 -18.38881,23.70594 -34.87164,36.93471 -34.81864,68.78949 0.2,75.29799 0.79999,150.56958 0.69999,225.86757 -0.053,56.38089 -11.29788,109.85148 26.59073,155.96691 12.83187,15.66279 32.17267,35.82335 18.38781,56.32789 -8.11992,12.09111 -32.27867,34.15671 -47.46551,20.21355 -1.18999,2.98991 -2.32998,6.08481 -3.35997,9.20671 -2.42997,-2.88391 -4.65995,-6.00581 -6.66993,-9.20671 3.96996,9.15471 14.10186,26.08707 4.99995,35.34717 -1.55999,-22.83277 -11.00689,3.3069 -13.30886,8.57273 -4.70996,10.79465 -13.78486,12.85839 -24.07676,14.36644 -22.91276,3.2019 -32.14666,23.41485 -24.81774,42.72883 3.32997,8.83672 -12.80587,34.421197 -19.4728,39.792125 -11.35088,9.206705 -20.87578,71.19702 -33.49565,65.87909 5.47994,23.9705327 -18.49481,41.035586 -22.64877,63.048181 -9.7599,-7.143771 -8.64991,5.31783 -16.82683,3.359893 -10.29289,-2.433922 -23.70675,-20.00186 -31.37967,-26.404555 -25.74374,-21.6422067 -53.20746,-41.247179 -78.63319,-63.259874 -9.28991,-7.963745 -11.03289,-16.324277 -18.49381,-24.605412 -6.37994,-7.090773 -19.8968,-5.740816 -7.93992,-18.917094 16.93282,-18.705504 -8.61991,-40.770994 -24.23575,-49.660714 -55.79943,-31.93417 -108.90088,-68.6307 -164.22531,-101.64964 -27.64871,-16.48307 -56.35542,-33.12484 -82.07215,-52.49172 -15.10785,-11.35024 -40.08459,-37.06691 -61.09237,-33.60092 z"
       id="ke" />
  </g>
</svg>
