<?xml version="1.0" encoding="UTF-8" standalone="no"?>
<!-- Created with Inkscape (http://www.inkscape.org/) -->

<svg
   xmlns:dc="http://purl.org/dc/elements/1.1/"
   xmlns:cc="http://creativecommons.org/ns#"
   xmlns:rdf="http://www.w3.org/1999/02/22-rdf-syntax-ns#"
   xmlns:svg="http://www.w3.org/2000/svg"
   xmlns="http://www.w3.org/2000/svg"
   xmlns:sodipodi="http://sodipodi.sourceforge.net/DTD/sodipodi-0.dtd"
   xmlns:inkscape="http://www.inkscape.org/namespaces/inkscape"
   width="118.2mm"
   height="141.10001mm"
   viewBox="0 0 118.19999 141.1"
   version="1.1"
   id="svg7070"
   inkscape:version="0.92.4 (5da689c313, 2019-01-14)"
   sodipodi:docname="kingdom_of_eswatini.svg">
  <defs
     id="defs7064" />
  <sodipodi:namedview
     id="base"
     pagecolor="#ffffff"
     bordercolor="#666666"
     borderopacity="1.0"
     inkscape:pageopacity="0.0"
     inkscape:pageshadow="2"
     inkscape:zoom="7.9195959"
     inkscape:cx="-20.765299"
     inkscape:cy="-14.405242"
     inkscape:document-units="mm"
     inkscape:current-layer="layer1"
     showgrid="false"
     inkscape:window-width="958"
     inkscape:window-height="1008"
     inkscape:window-x="-7"
     inkscape:window-y="0"
     inkscape:window-maximized="0" />
  <metadata
     id="metadata7067">
    <rdf:RDF>
      <cc:Work
         rdf:about="">
        <dc:format>image/svg+xml</dc:format>
        <dc:type
           rdf:resource="http://purl.org/dc/dcmitype/StillImage" />
        <dc:title />
      </cc:Work>
    </rdf:RDF>
  </metadata>
  <g
     inkscape:label="Layer 1"
     inkscape:groupmode="layer"
     id="layer1"
     transform="translate(-164.12411,96.758145)">
    <path
       inkscape:connector-curvature="0"
       style="fill:#ffffff;stroke-width:26.46113205"
       d="m 164.12511,-8.3914202 c 13.33377,-21.7023898 26.95852,-79.1873458 58.04466,-87.5242768 9.51912,-2.540772 19.15324,0.980297 27.22249,6.351928 7.82928,5.160568 6.63939,6.351929 12.88382,11.618729 13.43976,11.327639 21.79999,63.8898 19.73618,79.6108737 -3.32969,-1.24437785 -11.13797,1.455442 -14.52366,0.4201276 -2.2198,13.4978987 -11.32296,17.5737367 -9.97908,31.0715347 1.0599,10.639531 -24.18078,11.989241 -30.74217,10.851195 C 214.09551,41.786016 204.04244,29.161083 196.95209,17.33059 190.10272,5.8971186 185.28516,-2.0957085 172.98329,-8.4211292 m -8.85918,0.026408 z"
       id="sz" />
  </g>
</svg>
