<?xml version="1.0" encoding="UTF-8" standalone="no"?>
<!-- Created with Inkscape (http://www.inkscape.org/) -->

<svg
   xmlns:dc="http://purl.org/dc/elements/1.1/"
   xmlns:cc="http://creativecommons.org/ns#"
   xmlns:rdf="http://www.w3.org/1999/02/22-rdf-syntax-ns#"
   xmlns:svg="http://www.w3.org/2000/svg"
   xmlns="http://www.w3.org/2000/svg"
   xmlns:sodipodi="http://sodipodi.sourceforge.net/DTD/sodipodi-0.dtd"
   xmlns:inkscape="http://www.inkscape.org/namespaces/inkscape"
   width="830.70001mm"
   height="407.60001mm"
   viewBox="0 0 830.69997 407.59994"
   version="1.1"
   id="svg7070"
   inkscape:version="0.92.4 (5da689c313, 2019-01-14)"
   sodipodi:docname="kyrgyzstan.svg">
  <defs
     id="defs7064" />
  <sodipodi:namedview
     id="base"
     pagecolor="#ffffff"
     bordercolor="#666666"
     borderopacity="1.0"
     inkscape:pageopacity="0.0"
     inkscape:pageshadow="2"
     inkscape:zoom="7.9195959"
     inkscape:cx="9.9267375"
     inkscape:cy="-11.503197"
     inkscape:document-units="mm"
     inkscape:current-layer="layer1"
     showgrid="false"
     inkscape:window-width="958"
     inkscape:window-height="1008"
     inkscape:window-x="-7"
     inkscape:window-y="0"
     inkscape:window-maximized="0" />
  <metadata
     id="metadata7067">
    <rdf:RDF>
      <cc:Work
         rdf:about="">
        <dc:format>image/svg+xml</dc:format>
        <dc:type
           rdf:resource="http://purl.org/dc/dcmitype/StillImage" />
        <dc:title />
      </cc:Work>
    </rdf:RDF>
  </metadata>
  <g
     inkscape:label="Layer 1"
     inkscape:groupmode="layer"
     id="layer1"
     transform="translate(-155.49575,375.1748)">
    <path
       style="fill:#ffffff;stroke-width:26.45819473"
       inkscape:connector-curvature="0"
       id="kg"
       d="m 165.4571,-56.622074 c 17.25143,-11.4031 38.12794,-14.419294 57.65442,-8.492702 5.98015,1.825936 37.72993,11.98518 25.47963,22.779801 14.05035,-0.979966 13.54734,-16.059637 23.91959,-22.22422 15.47838,-9.154679 26.19365,-21.536345 44.74211,-13.519726 4.81011,2.089927 9.18022,7.169748 13.75834,8.83669 7.30018,2.645907 6.24015,-10.635827 13.07032,0.259991 4.0001,6.402775 17.46343,-4.735834 25.53363,-4.471843 -25.21562,-13.41383 23.62758,-16.297729 28.6017,-15.98024 -3.28008,-6.349777 -6.72016,-11.826487 -5.95014,-19.313927 13.91734,6.00579 24.28959,9.524671 31.69778,-6.85275 1.83004,-3.99486 25.21562,-11.4825 16.4044,-16.82691 -4.58011,-2.77791 -20.3735,-4.17986 -26.11464,-4.07486 -19.13047,0.39998 -30.63976,-24.94933 -51.27727,-12.59366 -0.80002,-21.08656 -13.25632,-11.80009 -25.10962,-22.30362 -12.2773,-10.82112 -28.02069,-21.11306 -34.66185,-33.17763 1.27003,6.98475 5.00012,16.21843 1.40003,23.09739 -2.46006,3.73087 -6.01014,5.5558 -10.60926,5.4768 2.20006,4.76284 2.20006,9.52467 0,14.287 -14.79136,-13.89011 -46.11813,3.46588 -55.51137,-19.8166 -4.97012,-12.32907 -10.50426,-13.70492 -22.64855,-10.02735 -9.87025,2.9899 -21.03552,-9.41867 -31.08977,-9.65666 4.1801,-28.521 52.30929,-50.79822 70.61974,-68.07491 -24.76561,-12.80535 -40.694,0.73997 -26.56566,-30.87572 3.7601,-8.36071 0.10001,-14.71038 9.68024,-20.18699 9.95025,-5.6888 23.20458,-2.48691 31.69779,-8.12272 17.83343,-11.82648 62.70754,4.94783 80.69999,10.55643 6.32015,1.40195 12.06529,4.02186 17.25142,7.88473 10.55726,7.80472 15.58439,4.17985 27.54368,5.44981 11.85329,1.24395 22.93957,15.90094 35.34887,11.77358 -12.2233,-11.50899 -23.41558,-53.86731 -4.97012,-63.97405 4.47011,-2.46092 40.19099,-11.00622 36.01089,-18.38786 24.4746,8.04272 48.7902,21.00716 71.80977,32.51616 8.92022,4.44485 50.08723,19.04933 61.0405,13.70492 8.36021,-4.12785 1.09003,-14.287 12.62131,-14.287 16.74842,0 33.78784,6.34978 50.48325,4.17985 12.1983,-1.58794 23.57558,-7.54073 35.98489,-7.54073 13.04432,0 24.10359,9.68366 37.38592,5.6888 11.85429,-3.54488 25.55963,0.15999 37.33392,2.22192 15.31938,2.69891 30.08374,-0.31999 45.45712,0.65998 25.55863,1.63994 63.31556,11.08561 83.26605,27.56863 8.60022,7.06375 12.0653,16.56232 24.95062,16.08604 11.00727,-0.41999 17.83344,-0.19 27.30567,5.26481 11.85329,6.79976 30.82476,17.35599 36.4339,30.66413 1.64004,3.88886 -31.16877,15.00127 -37.51892,20.29278 -20.47851,17.01211 -52.3623,24.52604 -75.30186,39.71261 -10.63626,7.03775 -15.39938,12.17037 -17.93944,24.44664 -2.22006,10.76813 -6.80017,20.29279 -19.34148,19.04934 -12.43531,-1.24396 -22.59556,7.54073 -35.16387,6.32277 -13.75834,-1.29695 -26.67066,-4.57684 -40.615,-4.36584 -18.38845,0.28999 -23.07157,23.15018 -24.5536,38.99823 -3.25008,35.267661 -23.75959,20.663174 -48.84321,31.828182 -23.70758,10.583029 -21.48453,-16.324227 -34.07884,-26.166382 -7.04017,-5.47681 -16.2994,4.33885 -21.61753,7.48774 -12.48831,7.407738 -24.50061,4.973823 -38.04794,2.169921 -1.24003,5.820796 -0.70002,11.4032 1.75004,16.82691 -10.92727,0.28999 -17.59443,10.768222 -24.63261,17.514885 -10.50425,10.00085 -26.37965,3.862865 -35.13786,16.086036 -12.46231,17.356091 21.53753,41.3529493 -1.09003,52.6767521 C 523.89694,9.5131058 512.44066,1.0734019 502.65042,7.8991625 491.37914,15.783886 477.83181,16.576858 464.60248,15.227905 447.58906,13.507966 416.7913,7.7141689 414.17124,32.425202 409.22111,26.525409 402.00094,20.969104 395.04176,17.767816 386.42155,13.772956 380.2244,25.969528 374.06025,22.582647 367.42008,18.957774 370.88017,8.1897523 365.41003,6.3907154 360.87992,6.7907013 356.40981,6.5507098 351.9947,5.7007396 346.88458,2.4198547 345.61455,-3.5859346 340.90843,-6.8930186 327.97011,-15.9677 307.75561,11.441938 295.2933,11.600733 285.31306,11.710729 279.52392,9.6698003 274.33779,0.99130481 266.07758,-12.793012 249.65218,-5.4374696 238.4599,-1.1786191 c -0.3,-3.0958913 -0.60001,-6.1377846 -0.80002,-9.2596749 -7.54018,4.5508401 -27.51768,11.03271273 -35.79888,6.0587872 -11.80129,-7.0907512 -23.07257,8.0427179 -35.40187,1.7989369 -13.81234,-6.9847549 -15.61139,-54.4492901 0.60001,-37.2519931 0.50001,-5.661801 -0.1,-11.270905 -1.56004,-16.800511 z" />
  </g>
</svg>
