<?xml version="1.0" encoding="UTF-8" standalone="no"?>
<!-- Created with Inkscape (http://www.inkscape.org/) -->

<svg
   xmlns:dc="http://purl.org/dc/elements/1.1/"
   xmlns:cc="http://creativecommons.org/ns#"
   xmlns:rdf="http://www.w3.org/1999/02/22-rdf-syntax-ns#"
   xmlns:svg="http://www.w3.org/2000/svg"
   xmlns="http://www.w3.org/2000/svg"
   xmlns:sodipodi="http://sodipodi.sourceforge.net/DTD/sodipodi-0.dtd"
   xmlns:inkscape="http://www.inkscape.org/namespaces/inkscape"
   width="733.40002mm"
   height="865.40002mm"
   viewBox="0 0 733.39994 865.40001"
   version="1.1"
   id="svg7070"
   inkscape:version="0.92.4 (5da689c313, 2019-01-14)"
   sodipodi:docname="laos.svg">
  <defs
     id="defs7064" />
  <sodipodi:namedview
     id="base"
     pagecolor="#ffffff"
     bordercolor="#666666"
     borderopacity="1.0"
     inkscape:pageopacity="0.0"
     inkscape:pageshadow="2"
     inkscape:zoom="5.6"
     inkscape:cx="-8.0731479"
     inkscape:cy="6.5348252"
     inkscape:document-units="mm"
     inkscape:current-layer="layer1"
     showgrid="false"
     inkscape:window-width="958"
     inkscape:window-height="1008"
     inkscape:window-x="-7"
     inkscape:window-y="0"
     inkscape:window-maximized="0" />
  <metadata
     id="metadata7067">
    <rdf:RDF>
      <cc:Work
         rdf:about="">
        <dc:format>image/svg+xml</dc:format>
        <dc:type
           rdf:resource="http://purl.org/dc/dcmitype/StillImage" />
        <dc:title />
      </cc:Work>
    </rdf:RDF>
  </metadata>
  <g
     inkscape:label="Layer 1"
     inkscape:groupmode="layer"
     id="layer1"
     transform="translate(-157.8973,831.50455)">
    <path
       style="fill:#ffffff;stroke-width:26.45959473"
       inkscape:connector-curvature="0"
       id="la"
       d="m 157.9223,-614.58935 c 3.33018,-13.62667 -1.00005,-33.12728 11.80064,-42.86429 7.30039,-5.58323 27.22746,0.69003 28.57653,-11.74799 -17.27793,10.23973 -3.49018,-20.55905 -1.30007,-26.14199 3.6002,-9.26038 3.49019,-14.28809 13.54773,-18.75968 8.44046,-3.75716 24.79234,-12.35661 22.1992,-24.0252 14.39477,8.12334 2.28012,46.83325 27.72949,36.40822 14.8708,-6.11226 15.24082,0.85003 28.18052,5.82124 18.28298,7.03829 1.8501,-15.21413 1.43008,-16.64299 -3.5702,-11.66859 3.23017,-20.16204 1.75009,-30.93109 -1.51008,-10.76895 -10.34656,-21.00878 -16.6969,-29.34352 -7.17038,-9.3934 -13.49373,-18.46867 -14.26177,-30.79879 -0.20001,-2.75211 8.78048,-33.23298 13.78575,-27.06793 5.03027,6.19126 3.94021,9.89542 15.13481,7.0113 17.25193,-4.44519 19.07803,7.96433 28.97356,17.86014 10.47856,10.47794 22.54421,20.34725 33.60381,30.29606 8.49046,7.64632 7.4904,24.73953 19.02502,28.20578 4.84026,-5.15922 5.98032,-11.06006 3.39019,-17.64844 2.70014,10.45144 14.73879,8.22835 17.25192,20.00334 2.57014,11.72148 -4.71025,25.48036 -1.19006,39.05412 10.34556,39.60975 51.9928,41.38253 81.39038,59.45428 7.30039,-9.84341 4.63025,-19.05079 17.62195,-24.39562 15.58484,-6.35026 27.12146,-0.40001 39.82214,8.75837 7.3304,5.29222 18.17698,11.21877 19.63306,21.14108 1.35007,8.75836 -14.26177,8.54636 -16.48489,17.17211 7.78042,3.17514 22.2262,0.85004 25.24236,11.06007 2.33013,7.83232 8.20044,7.54131 14.20877,10.79545 25.42837,13.65306 16.06186,16.08737 3.39018,35.29687 17.27793,4.9742 -16.08687,25.45396 -28.41753,23.60188 -2.99016,-0.48002 -33.3398,-9.71041 -35.42991,-3.41314 -2.04011,6.05925 10.76958,16.40488 8.39045,26.90932 -9.87053,0.11 -19.71206,11.08646 -5.77031,15.37294 23.36326,7.2233 48.50061,29.21122 69.08572,43.57861 8.12044,5.68924 47.01953,6.45627 45.96048,20.53256 -0.80005,11.06006 -8.02044,14.23519 1.64008,24.81893 7.12039,7.77933 19.13003,19.92393 27.65049,20.13564 8.76047,0.19001 14.23477,15.47875 17.25193,21.72321 6.90037,14.28809 17.27793,24.87183 28.12652,36.1965 6.22033,6.50928 28.81455,37.36076 38.28706,34.55604 9.23049,-2.72511 16.64289,27.57075 25.77138,31.46022 10.74358,4.60419 6.46035,26.75051 13.30972,35.69378 2.27012,2.96313 7.73042,14.4469 11.80064,15.08193 4.92026,0.77003 10.24055,-4.47219 15.08281,-1.66707 9.82053,5.71524 6.51035,15.16123 19.15603,18.12476 11.90764,2.75211 24.87234,20.58535 38.05005,25.61266 -4.42024,10.02812 -17.83396,14.60561 -21.61817,24.97774 -4.13022,11.29817 26.72444,25.77148 31.19568,33.97392 6.80037,12.51532 21.40615,12.46242 14.10376,30.613574 -2.17012,5.397225 -8.23044,11.27167 -8.36045,17.330922 -0.20001,5.688237 6.14033,9.578399 6.06033,16.298979 -0.20001,19.050794 -4.71026,22.014318 -20.10909,25.66567 -13.25671,3.149131 -16.7759,20.6648606 -34.95388,20.9558727 -17.54294,0.2600109 -20.95612,-22.9138547 -31.88371,-24.4220177 -7.25039,-1.005042 -3.6202,8.916372 -8.41046,10.927756 -4.79025,1.984082 -10.29255,2.461102 -15.26682,3.783157 -5.87031,1.535064 -22.78222,10.0281179 -18.78701,17.38382437 5.32029,9.71040453 18.36299,20.69126163 8.68047,31.75132263 -11.85464,13.520763 -39.50513,-24.1574063 -58.95318,-17.066311 -10.92758,3.995167 -28.20551,-15.4523436 -17.62194,-24.369115 7.94042,-6.668278 22.59721,-12.832835 21.30014,-25.242352 -1.24006,-11.53628 3.25018,-28.549689 0.80005,-38.366198 -1.67009,-6.509271 -12.62168,-7.276303 -12.62168,-14.711413 0,-6.826284 5.82031,-12.991541 8.39045,-18.918491 -3.28018,1.58707 -6.19033,1.40206 -8.76047,-0.56002 -1.67009,-9.41939 20.18808,-21.77611 5.90031,-36.24941 -7.73041,-7.85833 -38.39306,-17.14571 -18.94502,-30.42837 -32.43974,-12.70053 -65.59353,-34.50314 -70.7008,-72.89574 -4.00022,-29.84624 6.16033,-71.62568 -24.50132,-89.80334 -31.24968,-18.52157 -41.85925,-63.52914 -78.13621,-71.25526 -4.68025,-1.00505 -66.83659,-19.26251 -46.01347,3.67815 -14.63179,2.03708 -10.31956,22.86095 -16.82791,29.42292 -2.54014,2.59311 -17.19892,2.85812 -23.04624,8.12334 -9.02048,8.17634 -12.51567,-0.63002 -18.94602,-5.39722 -10.71558,-7.96433 -28.25852,-19.42121 -41.03921,-23.44308 -12.9917,-4.07517 -13.46772,22.38463 -28.81455,13.15035 -1.11006,23.09906 -28.84055,39.18643 -42.25627,55.1944 -6.16034,7.38231 -14.94981,3.30714 -21.64417,-3.70416 -7.4604,-7.77932 -1.51008,-22.12012 1.8501,-30.32246 5.24028,-12.75353 6.85037,-21.37929 4.87026,-35.21757 -1.16006,-8.25534 -9.3405,-22.46403 -8.28044,-29.66103 2.09011,-4.18018 4.74025,-8.01734 7.96043,-11.43048 4.26022,-7.1703 -0.20002,-7.38231 0.30001,-14.65851 1.06006,-15.90216 6.35034,-25.08354 -1.67009,-40.29768 -11.29761,-21.45859 0.40002,-54.05665 -35.90493,-44.08143 -4.34023,-0.0265 -7.54041,1.66707 -9.68052,5.13321 -3.55019,8.14934 -4.55025,1.08504 -11.43062,2.4611 -12.06565,2.4081 -17.59594,-2.4611 -23.52326,-14.02348 -8.41046,-16.48419 13.70673,-36.48752 4.02021,-48.73833 -3.94021,-5.02721 -15.53183,-20.98228 -20.93012,-23.52238 -10.76858,-5.00121 -12.77969,7.56731 -21.82918,10.10752 -0.50003,-2.83112 -1.11006,-5.63624 -1.69009,-8.44035 z" />
  </g>
</svg>
