<?xml version="1.0" encoding="UTF-8" standalone="no"?>
<!-- Created with Inkscape (http://www.inkscape.org/) -->

<svg
   xmlns:dc="http://purl.org/dc/elements/1.1/"
   xmlns:cc="http://creativecommons.org/ns#"
   xmlns:rdf="http://www.w3.org/1999/02/22-rdf-syntax-ns#"
   xmlns:svg="http://www.w3.org/2000/svg"
   xmlns="http://www.w3.org/2000/svg"
   xmlns:sodipodi="http://sodipodi.sourceforge.net/DTD/sodipodi-0.dtd"
   xmlns:inkscape="http://www.inkscape.org/namespaces/inkscape"
   width="532.79999mm"
   height="224.5mm"
   viewBox="0 0 532.79997 224.50002"
   version="1.1"
   id="svg7070"
   inkscape:version="0.92.4 (5da689c313, 2019-01-14)"
   sodipodi:docname="latvia.svg">
  <defs
     id="defs7064" />
  <sodipodi:namedview
     id="base"
     pagecolor="#ffffff"
     bordercolor="#666666"
     borderopacity="1.0"
     inkscape:pageopacity="0.0"
     inkscape:pageshadow="2"
     inkscape:zoom="1.4"
     inkscape:cx="-3.4810898"
     inkscape:cy="-117.43736"
     inkscape:document-units="mm"
     inkscape:current-layer="layer1"
     showgrid="false"
     inkscape:window-width="958"
     inkscape:window-height="1008"
     inkscape:window-x="-7"
     inkscape:window-y="0"
     inkscape:window-maximized="0" />
  <metadata
     id="metadata7067">
    <rdf:RDF>
      <cc:Work
         rdf:about="">
        <dc:format>image/svg+xml</dc:format>
        <dc:type
           rdf:resource="http://purl.org/dc/dcmitype/StillImage" />
        <dc:title />
      </cc:Work>
    </rdf:RDF>
  </metadata>
  <g
     inkscape:label="Layer 1"
     inkscape:groupmode="layer"
     id="layer1"
     transform="translate(-158.29914,186.95963)">
    <path
       inkscape:connector-curvature="0"
       style="fill:#ffffff;stroke-width:26.45768356"
       d="m 159.17858,-40.73221 c 1.14009,2.804619 2.25019,5.582243 3.39029,8.412859 -1.1401,-14.60302 -4.6004,-29.946739 5.66049,-42.354056 4.37038,-5.291282 12.17105,-9.047773 14.02321,-16.243197 2.3302,-9.020777 -0.20001,-16.798726 4.5504,-25.687516 9.16079,-17.16917 20.40176,-25.0791 38.97637,-29.62938 8.89077,-2.1957 32.86485,-16.48127 39.90345,-7.93593 11.11297,13.54487 23.25802,19.41787 35.82711,31.0315 14.31524,13.17441 20.24275,30.661038 40.32649,37.089466 15.84937,5.079311 31.2757,-1.560789 44.24183,-10.714147 18.76062,-13.280299 16.06139,-29.206039 8.1207,-48.279849 -3.15027,-7.53998 -6.40055,-15.84645 -4.71041,-24.23262 7.09062,2.03673 14.36825,-3.14757 20.00473,-6.45512 11.24498,-6.56111 33.18088,-15.97863 45.0089,-8.43886 7.86068,5.00033 23.04699,3.57152 33.34089,9.25875 15.39933,8.51884 28.36545,10.87292 41.93963,23.20085 11.08696,10.07923 21.51286,16.08442 35.69509,8.8618 15.82437,-8.04191 33.5529,3.09558 50.16934,4.60337 9.95086,0.92988 27.51938,14.8146 35.7751,21.19023 4.50039,3.46553 -4.84042,38.57097 -7.9907,42.69791 25.00517,-3.015591 13.28315,11.005207 24.2381,15.18504 12.91212,4.894337 20.7708,26.745773 23.1,38.914923 2.41021,12.6453846 -8.89077,12.7776666 -17.91455,17.3278495 -6.85059,3.46552999 -12.43608,10.7671397 -16.82846,16.7988215 -2.49021,3.412537 0,11.13739 -4.18036,13.438977 -13.46816,7.354003 -28.78849,-9.946651 -43.76579,-2.407673 -17.3315,8.729816 -26.88332,18.888638 -47.02007,7.724952 C 544.46993,23.446985 529.46663,11.568796 513.90728,0.85464943 498.93099,-9.4627513 479.90534,-4.2506582 465.14006,-13.536799 c -12.91212,-8.121898 -15.53234,-25.58173 -33.10186,-15.237933 -15.26733,8.967784 -20.58579,8.62483 -37.38824,10.264508 -15.0563,1.481799 -33.02286,-8.359866 -49.45528,-8.121899 -17.09348,0.239968 -28.44546,3.121577 -44.08382,-2.645641 -9.95086,-3.650505 -29.05351,-1.428806 -39.92845,-1.428806 -17.01448,0 -32.01778,2.72463 -48.4232,6.693092 -10.4519,2.513659 -29.63556,5.661232 -34.18696,17.3278501 -2.96025,7.67195947 -7.89068,9.629694 -13.15113,3.148573 -9.2308,-11.2432751 -7.20063,-23.7828741 -6.24054,-37.1953551 z"
       id="lv" />
  </g>
</svg>
