<?xml version="1.0" encoding="UTF-8" standalone="no"?>
<!-- Created with Inkscape (http://www.inkscape.org/) -->

<svg
   xmlns:dc="http://purl.org/dc/elements/1.1/"
   xmlns:cc="http://creativecommons.org/ns#"
   xmlns:rdf="http://www.w3.org/1999/02/22-rdf-syntax-ns#"
   xmlns:svg="http://www.w3.org/2000/svg"
   xmlns="http://www.w3.org/2000/svg"
   xmlns:sodipodi="http://sodipodi.sourceforge.net/DTD/sodipodi-0.dtd"
   xmlns:inkscape="http://www.inkscape.org/namespaces/inkscape"
   width="363mm"
   height="422.79999mm"
   viewBox="0 0 363.00002 422.79987"
   version="1.1"
   id="svg7070"
   inkscape:version="0.92.4 (5da689c313, 2019-01-14)"
   sodipodi:docname="liberia.svg">
  <defs
     id="defs7064" />
  <sodipodi:namedview
     id="base"
     pagecolor="#ffffff"
     bordercolor="#666666"
     borderopacity="1.0"
     inkscape:pageopacity="0.0"
     inkscape:pageshadow="2"
     inkscape:zoom="7.9195959"
     inkscape:cx="-9.1081562"
     inkscape:cy="-11.163943"
     inkscape:document-units="mm"
     inkscape:current-layer="layer1"
     showgrid="false"
     inkscape:window-width="958"
     inkscape:window-height="1008"
     inkscape:window-x="-7"
     inkscape:window-y="0"
     inkscape:window-maximized="0" />
  <metadata
     id="metadata7067">
    <rdf:RDF>
      <cc:Work
         rdf:about="">
        <dc:format>image/svg+xml</dc:format>
        <dc:type
           rdf:resource="http://purl.org/dc/dcmitype/StillImage" />
        <dc:title />
      </cc:Work>
    </rdf:RDF>
  </metadata>
  <g
     inkscape:label="Layer 1"
     inkscape:groupmode="layer"
     id="layer1"
     transform="translate(-159.8505,383.50848)">
    <path
       style="fill:#ffffff;stroke-width:26.4585228"
       inkscape:connector-curvature="0"
       id="lr"
       d="m 159.8645,-220.86756 c 12.11905,-4.49768 12.83311,-24.60442 21.48586,-33.38799 15.82337,-16.05904 34.69001,-28.9433 49.71931,-45.87538 9.87086,-11.0588 2.94025,-25.84793 10.66392,-35.66332 11.43099,-14.52455 22.59796,-5.26462 26.27528,-27.75269 2.86025,-17.30255 11.19297,-18.09619 26.14327,-13.99549 8.02069,2.16984 12.41007,-6.34954 19.95172,-5.95257 10.3989,0.60996 18.20458,12.96366 25.50721,18.86344 -4.92042,6.29654 -2.3502,12.4609 0.20002,18.86343 1.90017,4.76166 -1.1901,15.82086 4.10036,10.58254 5.64049,24.65741 2.96025,46.82781 -5.13045,70.58569 15.82337,-5.89957 31.85876,-2.7778 32.81184,16.79989 19.02465,-7.59345 26.96334,-13.28114 33.10187,-32.96472 1.80016,-5.84658 3.4403,-17.14376 11.19297,-18.33427 8.55074,-1.24391 11.21897,16.5352 14.26224,23.14932 10.92794,23.86368 13.97121,38.12374 10.50491,63.81289 -1.27011,9.49731 -40.24649,47.93903 -5.24046,40.0021 -9.21079,17.14376 42.6277,9.49732 48.02616,28.78462 1.85017,6.56153 2.46022,20.31853 11.66902,21.24446 12.7541,1.24291 21.53886,13.33404 25.24318,24.551528 6.80059,20.662506 -2.20019,36.21888 -4.42038,52.965769 -4.10036,30.901165 -16.51143,51.2725913 -5.69049,83.390668 C 496.35065,41.448164 486.29478,32.79679 475.07581,26.394253 460.28453,17.980861 442.29097,16.790947 428.8228,5.7318472 404.32068,-14.375098 372.43492,-23.502538 349.73195,-46.043408 c -25.3492,-25.212976 -45.53894,-55.241002 -71.36418,-79.924822 -8.12071,-7.75144 -67.97789,-28.46714 -53.90067,-41.95986 -10.90195,1.08492 -24.31711,-15.71516 -33.63092,-20.15984 -18.5756,-8.99535 -16.93546,-19.3925 -30.98568,-32.77953 z" />
  </g>
</svg>
