<?xml version="1.0" encoding="UTF-8" standalone="no"?>
<!-- Created with Inkscape (http://www.inkscape.org/) -->

<svg
   xmlns:dc="http://purl.org/dc/elements/1.1/"
   xmlns:cc="http://creativecommons.org/ns#"
   xmlns:rdf="http://www.w3.org/1999/02/22-rdf-syntax-ns#"
   xmlns:svg="http://www.w3.org/2000/svg"
   xmlns="http://www.w3.org/2000/svg"
   xmlns:sodipodi="http://sodipodi.sourceforge.net/DTD/sodipodi-0.dtd"
   xmlns:inkscape="http://www.inkscape.org/namespaces/inkscape"
   width="1369.6mm"
   height="1380.7999mm"
   viewBox="0 0 1369.6 1380.7995"
   version="1.1"
   id="svg7070"
   inkscape:version="0.92.4 (5da689c313, 2019-01-14)"
   sodipodi:docname="libya.svg">
  <defs
     id="defs7064" />
  <sodipodi:namedview
     id="base"
     pagecolor="#ffffff"
     bordercolor="#666666"
     borderopacity="1.0"
     inkscape:pageopacity="0.0"
     inkscape:pageshadow="2"
     inkscape:zoom="7.9195959"
     inkscape:cx="28.376326"
     inkscape:cy="-1.3399903"
     inkscape:document-units="mm"
     inkscape:current-layer="layer1"
     showgrid="false"
     inkscape:window-width="958"
     inkscape:window-height="1008"
     inkscape:window-x="-7"
     inkscape:window-y="0"
     inkscape:window-maximized="0" />
  <metadata
     id="metadata7067">
    <rdf:RDF>
      <cc:Work
         rdf:about="">
        <dc:format>image/svg+xml</dc:format>
        <dc:type
           rdf:resource="http://purl.org/dc/dcmitype/StillImage" />
        <dc:title />
      </cc:Work>
    </rdf:RDF>
  </metadata>
  <g
     inkscape:label="Layer 1"
     inkscape:groupmode="layer"
     id="layer1"
     transform="translate(-149.93274,1338.9092)">
    <path
       style="fill:#ffffff;stroke-width:26.45851517"
       inkscape:connector-curvature="0"
       id="ly"
       d="m 152.88381,-1022.1253 c -11.24522,-9.6569 12.83224,-21.0606 19.05036,-23.9446 18.73235,-8.678 28.81355,-13.6789 40.16476,-32.0674 9.13017,-14.8165 20.9024,-22.5423 17.33033,-41.5658 -3.07006,-16.4305 -13.46726,-32.4642 -11.80122,-49.6091 2.30004,-23.4949 24.55446,-16.9597 35.37567,-30.6121 9.66018,-12.2237 19.92338,-30.9297 34.87266,-38.4173 11.53622,-5.768 49.42494,-15.875 49.74294,-31.9351 0.20001,-8.0699 -7.73014,-13.0438 -6.91013,-21.5899 1.51003,-15.6632 2.12004,-31.4058 3.68007,-47.0426 15.08129,10.4774 35.34867,15.822 51.56798,25.7702 17.01332,10.4775 36.32869,14.0229 56.11906,11.8534 20.05639,-2.196 34.76766,-14.8695 55.40506,-7.435 18.33634,6.641 37.78371,7.329 55.64305,14.9224 15.9023,6.8 28.73455,19.0499 44.76885,25.3205 13.99627,5.503 32.96763,-0.26 45.48186,8.387 14.73828,10.1863 17.51634,27.6752 20.34739,44.0263 3.65007,20.9549 11.85323,37.6502 28.15253,51.6994 29.47456,25.3998 65.88225,19.4468 101.33693,25.9025 35.58667,6.456 86.25563,22.6218 114.75218,45.7198 22.78043,18.4679 43.86883,49.6621 76.46545,46.7253 37.65171,-3.387 77.89551,-36.5917 86.33561,-74.4005 3.8601,-17.436 -7.9101,-31.009 -13.2822,-46.7517 -5.9001,-17.3301 -10.2132,-37.2531 -4.2901,-55.1917 10.9002,-32.9141 65.1152,-73.739 99.4849,-74.9032 17.7803,-0.58 28.1785,-13.4937 44.6628,-14.7373 16.7743,-1.296 34.6867,-1.614 51.065,2.434 19.1824,4.683 35.8787,13.9435 54.082,21.0607 21.5374,8.44 15.8493,11.3771 16.9073,30.2418 0.8001,15.2928 25.5065,18.5207 36.5127,19.3145 21.3794,1.64 35.1907,11.2976 54.9291,17.0126 19.5793,5.6889 40.1647,-0.87 60.0611,2.752 11.2982,2.064 28.2586,24.5531 24.2635,36.3535 -4.2101,12.4618 -19.4214,15.6368 -21.5374,29.6596 -2.9101,19.3674 9.4201,33.7342 12.8322,51.7788 3.8401,20.2669 -11.4832,35.2687 -18.3363,52.8899 -7.3302,18.6795 8.1201,46.1165 11.3242,65.48395 5.3701,32.96693 13.5212,62.67947 15.5843,96.4931 2.51,40.93079 4.6801,81.62348 5.2701,122.66017 1.22,84.66626 5.6601,169.27953 8.2801,253.94579 5.2401,167.05705 8.2502,334.24639 10.9542,501.3828263 -29.1045,0 -58.1831,0 -87.3146,0 0.8,16.8010136 0.2,33.6548267 1.64,50.4293407 C 1252.5357,-67.725559 1068.4082,-172.60582 882.34965,-273.9936 c -44.66285,-24.31517 -89.4047,-48.47145 -134.27855,-72.38963 -35.32267,-18.8383 -80.77853,20.558 -111.70912,38.04681 -17.64833,9.97495 -37.0427,26.45826 -56.72808,31.80283 -13.38825,3.67799 -27.67552,-18.1768 -35.48067,-25.92906 -32.57062,-32.49064 -70.06333,-39.1317 -113.45615,-49.00055 -15.5043,-3.51898 -35.79868,-5.31797 -49.58394,-13.86413 -10.95321,-6.79996 -13.99627,-24.89717 -18.54735,-35.98311 -13.28226,-32.57004 -28.97255,-45.66687 -60.85516,-57.65251 -10.5572,-3.96898 -23.33644,-9.81595 -34.92566,-9.52495 -11.35122,0.32 -23.60145,12.88514 -34.23765,1.40199 -8.65017,-9.36595 -23.60145,-33.33732 -23.81345,-46.27536 -0.50001,-27.01376 -3.07006,-36.90921 -17.96534,-59.92779 -11.45622,-17.75341 -49.53094,-49.23875 -33.12663,-72.86593 18.89236,-27.25185 47.83791,-16.82741 35.42867,-61.51528 -6.19012,-22.35718 -10.6632,-39.5021 -2.99006,-62.20318 6.56013,-19.4203 10.4512,-35.48042 3.28007,-55.56221 -7.54015,-21.14009 -1.67004,-42.30669 0.2,-63.76428 2.25004,-25.45276 -1.56003,-51.11723 -10.00119,-75.14131 -7.38014,-20.66379 -17.91334,-40.05765 -30.69258,-57.78475 z" />
  </g>
</svg>
