<?xml version="1.0" encoding="UTF-8" standalone="no"?>
<!-- Created with Inkscape (http://www.inkscape.org/) -->

<svg
   xmlns:dc="http://purl.org/dc/elements/1.1/"
   xmlns:cc="http://creativecommons.org/ns#"
   xmlns:rdf="http://www.w3.org/1999/02/22-rdf-syntax-ns#"
   xmlns:svg="http://www.w3.org/2000/svg"
   xmlns="http://www.w3.org/2000/svg"
   xmlns:sodipodi="http://sodipodi.sourceforge.net/DTD/sodipodi-0.dtd"
   xmlns:inkscape="http://www.inkscape.org/namespaces/inkscape"
   width="432.79999mm"
   height="239.5mm"
   viewBox="0 0 432.79998 239.50003"
   version="1.1"
   id="svg7070"
   inkscape:version="0.92.4 (5da689c313, 2019-01-14)"
   sodipodi:docname="lithuania.svg">
  <defs
     id="defs7064" />
  <sodipodi:namedview
     id="base"
     pagecolor="#ffffff"
     bordercolor="#666666"
     borderopacity="1.0"
     inkscape:pageopacity="0.0"
     inkscape:pageshadow="2"
     inkscape:zoom="1.4"
     inkscape:cx="-2.4444524"
     inkscape:cy="-96.483198"
     inkscape:document-units="mm"
     inkscape:current-layer="layer1"
     showgrid="false"
     inkscape:window-width="958"
     inkscape:window-height="1008"
     inkscape:window-x="-7"
     inkscape:window-y="0"
     inkscape:window-maximized="0" />
  <metadata
     id="metadata7067">
    <rdf:RDF>
      <cc:Work
         rdf:about="">
        <dc:format>image/svg+xml</dc:format>
        <dc:type
           rdf:resource="http://purl.org/dc/dcmitype/StillImage" />
        <dc:title />
      </cc:Work>
    </rdf:RDF>
  </metadata>
  <g
     inkscape:label="Layer 1"
     inkscape:groupmode="layer"
     id="layer1"
     transform="translate(-158.02486,196.4155)">
    <path
       inkscape:connector-curvature="0"
       style="fill:#ffffff;stroke-width:26.45849419"
       d="m 158.02486,-164.51204 c 11.85212,1.90516 14.68291,-10.4784 22.62033,-15.95577 8.72935,-6.00652 24.18121,-7.96469 34.23447,-10.31959 26.05907,-6.08553 56.7488,-6.40355 83.41683,-4.81542 9.20932,0.56005 3.09977,11.13986 13.83698,4.68341 7.95941,-4.78942 26.82701,-0.29003 35.66336,0.45003 17.35472,1.48213 55.18792,16.11449 69.57985,2.38121 18.78362,-17.88734 23.89024,-1.03209 39.2881,8.78476 9.20932,5.8745 19.73654,5.53047 30.18677,7.09161 13.94197,2.09018 23.12229,10.79593 33.99648,18.99873 6.98949,5.23945 53.49405,26.93692 52.11815,33.07575 -5.70958,25.190571 -4.94963,23.550029 17.85868,29.609451 -13.99597,6.85359 -3.75972,18.390184 -23.25528,14.553354 -14.9209,-2.963256 -15.50385,13.944701 -27.54096,17.569813 -35.2134,10.531407 -11.19118,33.843114 -33.22955,57.81647889 5.55959,2.27519591 16.93275,3.20227581 18.44064,10.90173911 1.76987,9.2878 -10.60922,11.245768 -16.82676,9.260797 6.42953,-17.2257832 -23.70424,-13.1508323 -25.16014,-9.6578314 -6.63951,16.0879854 -23.22828,5.7154924 -31.1127,21.9886934 -2.72979,5.662488 -16.77276,5.741495 -22.80531,9.04978 -10.10625,5.556478 -28.83687,-1.640142 -40.21303,-0.58005 -5.60958,0.530045 -28.96985,4.392378 -30.90171,-5.080438 -2.32983,-11.272271 -6.39953,-19.289761 -17.38172,-24.26439 -10.92619,-4.9484257 -21.16543,-11.53679309 -32.3556,-15.8498645 -4.62966,-1.7731527 -12.32909,3.3872917 -14.9479,-2.8312439 -7.16947,-17.1728786 15.52985,-36.6743586 -2.50981,-49.6136726 1.58988,1.111096 -12.72506,-12.515778 -10.71521,-11.748512 -9.22932,-3.519303 -31.00671,-0.370032 -41.74791,-1.058091 -14.65692,-0.950082 -47.01253,-24.687726 -58.70666,-16.299704 0.59995,-12.462973 -4.1797,-26.063749 -10.50323,-36.647959 -7.74942,-12.91281 -6.60951,-27.59847 -11.32316,-41.49027 z"
       id="lt" />
  </g>
</svg>
