<?xml version="1.0" encoding="UTF-8" standalone="no"?>
<!-- Created with Inkscape (http://www.inkscape.org/) -->

<svg
   xmlns:dc="http://purl.org/dc/elements/1.1/"
   xmlns:cc="http://creativecommons.org/ns#"
   xmlns:rdf="http://www.w3.org/1999/02/22-rdf-syntax-ns#"
   xmlns:svg="http://www.w3.org/2000/svg"
   xmlns="http://www.w3.org/2000/svg"
   xmlns:sodipodi="http://sodipodi.sourceforge.net/DTD/sodipodi-0.dtd"
   xmlns:inkscape="http://www.inkscape.org/namespaces/inkscape"
   width="673.59998mm"
   height="1374.2mm"
   viewBox="0 0 673.6 1374.1998"
   version="1.1"
   id="svg7070"
   inkscape:version="0.92.4 (5da689c313, 2019-01-14)"
   sodipodi:docname="madagascar.svg">
  <defs
     id="defs7064" />
  <sodipodi:namedview
     id="base"
     pagecolor="#ffffff"
     bordercolor="#666666"
     borderopacity="1.0"
     inkscape:pageopacity="0.0"
     inkscape:pageshadow="2"
     inkscape:zoom="7.9195959"
     inkscape:cx="9.0201327"
     inkscape:cy="24.269679"
     inkscape:document-units="mm"
     inkscape:current-layer="layer1"
     showgrid="false"
     inkscape:window-width="958"
     inkscape:window-height="1008"
     inkscape:window-x="-7"
     inkscape:window-y="0"
     inkscape:window-maximized="0" />
  <metadata
     id="metadata7067">
    <rdf:RDF>
      <cc:Work
         rdf:about="">
        <dc:format>image/svg+xml</dc:format>
        <dc:type
           rdf:resource="http://purl.org/dc/dcmitype/StillImage" />
        <dc:title />
      </cc:Work>
    </rdf:RDF>
  </metadata>
  <g
     inkscape:label="Layer 1"
     inkscape:groupmode="layer"
     id="layer1"
     transform="translate(-156.24338,1320.9618)">
    <g
       transform="matrix(26.45851,0,0,26.457633,-10584.43,-14656.717)"
       id="mg"
       style="fill:#ffffff">
      <path
         style="fill:#ffffff"
         inkscape:connector-curvature="0"
         d="m 405.944,542.505 c 0.251,1.061 -0.285,2.354 0.469,3.279 0.367,0.453 0.36,0.961 0.55,1.486 0.174,0.482 0.657,0.559 0.179,1.105 -0.469,0.537 -0.395,2.283 -0.089,2.918 0.278,0.58 0.559,1.008 0.713,1.648 0.2,0.834 0.741,1.066 1.354,1.572 -0.773,-0.449 -0.104,0.15 0.088,0.211 0.283,0.088 0.584,0.059 0.871,0.131 0.693,0.176 1.07,0.943 1.76,1.096 1.196,0.264 2.441,-1.262 3.543,-1.586 0.404,-0.119 0.83,0.123 1.201,-0.014 0.295,-0.109 0.551,-0.305 0.864,-0.365 0.44,-0.084 0.704,-0.605 0.872,-0.969 0.228,-0.488 0.383,-1.01 0.523,-1.529 0.193,-0.719 0.637,-1.303 0.859,-1.992 0.41,-1.275 0.852,-2.508 1.203,-3.816 0.498,-1.861 1.249,-3.523 1.893,-5.328 0.522,-1.463 0.82,-2.959 1.467,-4.375 0.188,-0.412 0.547,-1.066 0.358,-1.537 0.223,0 0.475,-0.895 0.53,-1.043 0.372,-0.99 0.573,-2.037 0.978,-3.014 0.592,-1.426 1.127,-2.639 1.435,-4.168 0.229,-1.141 -0.55,-2.805 0.837,-3.553 0.271,-0.148 0.571,-1.01 0.604,-1.348 0.031,-0.318 -0.039,-0.631 0.017,-0.947 0.077,-0.428 -0.45,-0.379 -0.443,-0.789 0.005,-0.312 -0.316,-2.727 0.458,-2.398 0.664,0.283 0.436,1.658 1.077,1.883 0.718,0.254 1.188,-1.686 1.268,-2.111 0.114,-0.613 -0.296,-0.92 -0.464,-1.465 -0.306,-1 -0.277,-1.971 -0.314,-3.002 -0.068,-1.891 -0.521,-3.896 -1.283,-5.588 -0.108,0.07 -0.212,0.145 -0.313,0.225 0.084,-0.258 -0.024,-0.309 -0.182,-0.467 -0.256,-0.256 0.143,-0.418 -0.086,-0.697 -0.219,-0.268 -0.359,-1.271 -0.91,-0.936 -0.033,-0.115 -0.044,-0.23 -0.031,-0.35 0.958,0.092 -0.437,-1.357 -0.278,-0.143 0.062,0.479 -0.923,1.361 -1.376,1.352 0.852,0.428 0.3,1.686 0.128,2.254 -0.252,0.838 -0.239,1.371 -1.271,1.398 0.125,0.605 -0.066,0.127 -0.354,0.477 -0.21,0.254 -0.219,0.617 -0.312,0.918 -0.258,-0.008 -1.206,-1.941 -1.342,-0.574 -0.049,0.488 0.121,0.807 0.296,1.246 0.157,0.393 -0.123,1.473 -0.193,0.695 -0.071,0.379 -1.246,0.424 -0.783,1.297 0.247,0.463 1.186,0.281 0.813,1.023 0.128,-0.576 -0.47,-0.631 -0.827,-0.354 -0.499,0.385 -0.456,1.254 -1.14,1.465 -0.091,-0.488 0.382,-0.863 0.286,-1.367 -0.491,0.107 -0.377,0.445 -0.574,0.795 -0.19,0.338 -0.744,0.521 -0.824,0.922 -0.056,0.277 0.235,0.588 0.352,0.814 0.225,0.441 -0.572,0.535 -0.828,0.742 0.052,-0.305 0.609,-1.191 -0.174,-1.172 -0.451,0.012 -0.812,0.572 -1.156,0.809 -0.229,0.154 -0.844,0.479 -0.781,0.834 0.032,0.18 -0.115,0.406 -0.05,0.576 0.091,0.236 0.409,0.193 0.48,0.477 -0.351,-0.023 -0.718,0.049 -0.781,-0.447 -0.08,-0.625 -0.691,-0.613 -0.715,0.037 -0.147,-0.244 -0.851,-0.314 -1.097,-0.193 -0.311,0.152 -0.191,0.674 -0.425,0.891 0,-0.66 -0.755,-0.141 -0.799,0.256 -0.106,-0.205 -0.233,-0.396 -0.38,-0.574 -0.379,0.264 -0.672,0.717 -1.113,0.883 -0.414,0.154 -1.148,-0.182 -1.486,0.133 -0.164,0.154 -0.024,1.41 -0.162,1.273 0.121,0.508 -0.242,1.094 -0.488,1.508 -0.412,0.691 -1.732,1.979 -1.226,2.811 0.35,0.576 0.044,1.613 0.101,2.283 0.064,0.76 0.61,1.395 0.607,2.143 -0.003,0.697 -0.047,1.139 0.33,1.756 0.404,0.664 0.174,0.963 -0.025,1.609 -0.143,0.465 0.442,0.607 0.166,1.107 -0.293,0.531 -0.677,1.037 -0.996,1.559 -0.343,0.559 -0.767,1.117 -1.012,1.727 -0.189,0.473 -0.034,1.262 -0.634,1.471 -0.72,0.252 -0.891,0.266 -0.96,1.094 -0.06,0.686 -0.683,1.317 -0.853,2.022 z"
         id="path2622" />
      <path
         style="fill:#ffffff"
         inkscape:connector-curvature="0"
         d="m 424.497,509.47 c 0.156,-0.275 -0.032,-0.568 -0.221,-0.762 -0.312,0.256 -0.24,0.77 0.221,0.762 z"
         id="path2624" />
      <path
         style="fill:#ffffff"
         inkscape:connector-curvature="0"
         d="m 429.485,522.207 c 0,-0.062 0,-0.127 0,-0.189 -0.192,0.354 -0.678,0.752 -0.477,1.209 0.203,-0.321 0.292,-0.692 0.477,-1.02 z"
         id="path2628" />
    </g>
  </g>
</svg>
