<?xml version="1.0" encoding="UTF-8" standalone="no"?>
<!-- Created with Inkscape (http://www.inkscape.org/) -->

<svg
   xmlns:dc="http://purl.org/dc/elements/1.1/"
   xmlns:cc="http://creativecommons.org/ns#"
   xmlns:rdf="http://www.w3.org/1999/02/22-rdf-syntax-ns#"
   xmlns:svg="http://www.w3.org/2000/svg"
   xmlns="http://www.w3.org/2000/svg"
   xmlns:sodipodi="http://sodipodi.sourceforge.net/DTD/sodipodi-0.dtd"
   xmlns:inkscape="http://www.inkscape.org/namespaces/inkscape"
   width="1772mm"
   height="652.10004mm"
   viewBox="0 0 1771.9998 652.10005"
   version="1.1"
   id="svg7070"
   inkscape:version="0.92.4 (5da689c313, 2019-01-14)"
   sodipodi:docname="malaysia.svg">
  <defs
     id="defs7064" />
  <sodipodi:namedview
     id="base"
     pagecolor="#ffffff"
     bordercolor="#666666"
     borderopacity="1.0"
     inkscape:pageopacity="0.0"
     inkscape:pageshadow="2"
     inkscape:zoom="5.6"
     inkscape:cx="37.631171"
     inkscape:cy="16.764112"
     inkscape:document-units="mm"
     inkscape:current-layer="layer1"
     showgrid="false"
     inkscape:window-width="958"
     inkscape:window-height="1008"
     inkscape:window-x="-7"
     inkscape:window-y="0"
     inkscape:window-maximized="0" />
  <metadata
     id="metadata7067">
    <rdf:RDF>
      <cc:Work
         rdf:about="">
        <dc:format>image/svg+xml</dc:format>
        <dc:type
           rdf:resource="http://purl.org/dc/dcmitype/StillImage" />
        <dc:title />
      </cc:Work>
    </rdf:RDF>
  </metadata>
  <g
     inkscape:label="Layer 1"
     inkscape:groupmode="layer"
     id="layer1"
     transform="translate(-165.62496,622.05213)">
    <g
       transform="matrix(26.457805,0,0,26.459433,-15657.042,-12007.859)"
       id="my"
       style="fill:#ffffff">
      <path
         style="fill:#ffffff"
         inkscape:connector-curvature="0"
         id="path4722"
         d="m 599.519,433.712 c 0.175,-0.238 0.145,-0.676 0.261,-0.951 0.203,-0.48 0.672,0.535 0.916,0.678 0.304,0.178 0.578,0.059 0.891,0.146 0.293,0.082 0.312,0.424 0.467,0.635 0.303,0.416 1.082,0.33 0.857,1.145 -0.108,0.393 -0.613,1.506 0.391,1.27 0.45,-0.105 0.547,-0.857 1.069,-0.939 0.436,-0.07 0.618,0.781 1.021,0.625 0.327,-0.129 0.812,-1.531 0.799,-1.877 0.406,0.129 0.78,0.168 1.05,0.539 0.268,0.367 0.375,0.816 0.743,1.111 0.918,0.734 1.726,1.408 2.271,2.471 0.552,1.07 0.937,2.156 0.876,3.383 -0.023,0.471 -0.085,0.994 -0.175,1.457 -0.127,0.656 -0.009,0.707 0.189,1.297 0.295,0.885 -0.244,1.955 0.281,2.846 0.406,0.686 1.334,1.053 1.557,1.885 0.261,0.984 0.91,1.811 1.158,2.807 0.335,1.338 -1.18,0.604 -0.485,0.119 -0.267,0.01 -0.493,-0.143 -0.604,-0.381 0.047,0.092 0.296,0.986 -0.073,0.721 -0.37,-0.268 -1.238,0.324 -1.577,0.486 -0.357,-1.164 -1.773,-1.486 -2.619,-2.201 -0.219,-0.186 -0.385,-0.408 -0.594,-0.6 -0.334,-0.309 -0.865,-0.301 -1.234,-0.566 -0.371,-0.266 -0.962,-0.836 -1.167,-1.221 -0.142,-0.266 -0.361,-0.291 -0.625,-0.363 -0.41,-0.109 -0.594,-0.479 -0.923,-0.707 -0.313,-0.221 -0.248,-0.279 -0.078,-0.52 0.189,-0.266 -0.061,-0.811 -0.171,-1.061 -0.348,-0.783 -1.229,-1.324 -1.548,-2.119 -0.154,-0.383 -0.988,-0.594 -0.033,-0.902 -0.562,0.08 -1.128,-1.092 -0.978,-1.506 0.289,-0.801 -0.136,-1.664 -0.619,-2.262 -0.426,-0.523 -0.338,-2.174 -0.34,-2.84 -0.004,-0.974 -0.595,-1.743 -0.954,-2.605 z" />
      <path
         style="fill:#ffffff"
         inkscape:connector-curvature="0"
         id="path2560"
         d="m 659.021,442.388 c -0.021,-0.115 -0.041,-0.232 -0.062,-0.35 0.308,-0.025 0.557,0.156 0.794,0.32 -0.244,-0.011 -0.488,-10e-4 -0.732,0.03 z" />
      <path
         style="fill:#ffffff"
         inkscape:connector-curvature="0"
         id="path4708"
         d="m 637.738,448.742 c 0.03,0.219 0.07,0.326 0.318,0.35 -0.172,-0.439 0.056,-1.006 -0.379,-1.334 -0.022,0.329 0.082,0.652 0.061,0.984 z" />
      <path
         style="fill:#ffffff"
         inkscape:connector-curvature="0"
         id="path4710"
         d="m 650.316,438.134 c 0.323,0.117 0.365,0.01 0.127,-0.318 -0.042,0.107 -0.085,0.213 -0.127,0.318 z" />
      <path
         style="fill:#ffffff"
         inkscape:connector-curvature="0"
         id="path4712"
         d="m 655.656,430.861 c 0.19,-0.109 0.316,-0.268 0.379,-0.477 -0.25,0.041 -0.423,0.209 -0.379,0.477 z" />
      <path
         style="fill:#ffffff"
         inkscape:connector-curvature="0"
         id="path4714"
         d="m 656.413,430.447 c -0.108,0.209 -0.097,0.408 0.035,0.602 0.681,-0.237 0.402,-1.057 -0.035,-0.602 z" />
      <path
         style="fill:#ffffff"
         inkscape:connector-curvature="0"
         id="path4716"
         d="m 657.365,432.828 c 0.128,0.023 0.246,-0.008 0.354,-0.096 -0.117,0.033 -0.236,0.064 -0.354,0.096 z" />
      <path
         style="fill:#ffffff"
         inkscape:connector-curvature="0"
         id="path4718"
         d="m 661.306,440.453 c 0.185,0.195 0.396,0.227 0.635,0.096 -0.21,-0.049 -0.421,-0.081 -0.635,-0.096 z" />
      <path
         style="fill:#ffffff"
         inkscape:connector-curvature="0"
         id="path2284"
         d="m 618.809,447.441 c 0.312,-0.18 0.332,-0.586 -0.065,-0.668 0.059,0.219 0.081,0.441 0.065,0.668 z" />
      <path
         style="fill:#ffffff"
         inkscape:connector-curvature="0"
         id="path2300"
         d="m 629.192,447.216 c 0.109,0.088 0.226,0.088 0.349,0 -0.033,-0.115 -0.086,-0.223 -0.159,-0.318 -0.064,0.107 -0.126,0.213 -0.19,0.318 z" />
      <path
         style="fill:#ffffff"
         inkscape:connector-curvature="0"
         id="path4700"
         d="m 598.572,433.625 c -0.155,0.17 -0.335,0.307 -0.538,0.412 0.341,0.656 1.06,0.007 0.538,-0.412 z" />
      <path
         style="fill:#ffffff"
         inkscape:connector-curvature="0"
         id="path4704"
         d="m 600.287,437.496 c -0.387,-0.17 -0.427,0.197 -0.403,0.477 0.048,0.593 0.474,-0.089 0.403,-0.477 z" />
      <path
         style="fill:#ffffff"
         inkscape:connector-curvature="0"
         id="path4706"
         d="m 613.689,447.343 c -0.129,0.078 -0.192,0.193 -0.189,0.35 0.365,0.066 0.429,-0.051 0.189,-0.35 z" />
      <path
         style="fill:#ffffff"
         inkscape:connector-curvature="0"
         id="path4724"
         d="m 632.18,450.363 c -0.107,1.131 2.36,2.096 2.321,1.049 0.011,0.295 0.448,0.328 0.419,0.449 -0.089,0.375 0.625,0.535 0.889,0.633 0.406,0.15 0.648,-0.18 0.996,0.219 0.317,0.363 0.799,0.402 1.252,0.445 -0.315,-0.434 -0.992,-0.055 -1.159,-0.703 -0.107,-0.42 0.22,-0.773 0.586,-0.408 -0.351,-0.221 -0.374,-0.562 -0.256,-0.926 0.073,-0.174 0.129,-0.354 0.167,-0.539 0.095,-0.443 0.327,-0.27 0.598,-0.537 -0.223,0.023 -0.444,0.045 -0.667,0.062 0.306,-0.293 0.007,-0.639 0.098,-0.982 0.331,0.002 0.624,0.172 0.952,0.189 -1.149,-0.863 0.58,-1.889 1.291,-2.002 1.126,-0.178 2.748,-0.414 3.698,-1.084 0.82,-0.578 0.847,-1.766 1.574,-2.42 0.933,-0.838 1.468,-1.807 1.537,-3.07 0.665,0.02 0.797,0.357 1.038,0.891 0.143,0.314 0.944,1.182 1.288,1.197 0.609,0.025 0.781,-1.229 0.523,-1.592 -0.58,-0.82 0.137,-1.152 0.577,-1.639 0.154,0.805 -0.013,1.928 1.021,2.16 0.047,-0.623 -0.101,-1.326 -0.422,-1.861 -0.411,-0.686 0.367,-0.281 0.614,-0.479 0.229,-0.182 1.02,-0.793 0.391,-1.037 -0.951,-0.371 -0.021,-1.076 0.272,-1.484 -0.079,0.803 0.914,-0.068 1.09,-0.412 0.268,-0.525 0.353,-1.119 0.599,-1.652 0.14,-0.303 0.314,-0.156 0.473,-0.35 0.193,-0.234 0.355,-0.633 0.561,-0.906 0.445,-0.598 0.395,-1.467 0.966,-2.016 0.445,0.523 -0.089,1.062 0.124,1.619 0.363,-0.23 0.699,-1.623 1.148,-1.541 0.03,0.006 1.11,2.471 1.269,1.352 0.057,0.459 0.91,0.662 0.848,1.215 -0.041,0.363 -0.549,0.23 -0.418,0.729 0.154,0.582 0.079,0.732 -0.495,0.947 0.358,-0.205 0.742,0.023 1.07,-0.164 0.269,-0.154 0.413,-0.539 0.792,-0.379 0.716,0.301 0.046,0.797 -0.305,0.924 0.072,0.688 0.737,0.029 0.999,-0.137 0.563,-0.359 1.23,0.475 1.287,0.963 0.389,-0.412 1.05,0.318 1.208,0.635 0.312,-0.428 1.196,-0.096 1.209,0.412 0.018,0.732 -1.59,1.312 -2.169,1.268 -0.401,-0.031 -1.943,-0.57 -1.468,0.553 0.188,0.443 1.211,0.631 1.127,1.168 0.312,-0.197 0.564,0.096 0.382,0.393 -0.194,0.318 -0.638,0.248 -0.949,0.275 -0.997,0.08 -1.412,0.334 -2.261,-0.381 -0.074,0.229 0.085,0.705 -0.144,0.863 -0.347,0.24 -0.837,-0.254 -1.094,-0.422 -0.763,-0.498 -1.801,0.279 -2.482,-0.379 -0.048,0.764 -0.555,0.064 -0.925,0.166 -0.274,0.076 -0.358,-0.184 -0.554,0.129 -0.217,0.35 -0.553,-0.137 -0.808,-0.23 -0.074,0.34 -0.357,0.443 -0.507,0.729 -0.193,0.371 -0.291,0.885 -0.342,1.297 -0.04,0.326 -0.086,0.711 0.012,1.033 0.153,0.498 -0.031,0.561 -0.138,1.027 -0.171,0.748 0.055,1.098 -0.799,1.115 -0.927,0.02 -0.358,1.627 -0.101,1.945 -0.514,0.178 -1.894,1.047 -1.278,1.729 0.357,0.395 -0.94,1.727 -0.817,2.338 -0.529,0.027 -0.534,-0.344 -1.082,0.004 -0.377,0.238 -0.763,-0.137 -1.133,0.062 -0.507,0.273 -0.635,0.721 -1.312,0.611 -0.446,-0.072 -1.366,-0.385 -1.607,-0.799 -0.328,-0.561 -2.427,-0.486 -2.801,0.184 -0.176,0.316 -0.279,0.713 -0.395,1.053 0.023,-0.068 -1.025,0.555 -0.98,0.551 -0.308,0.023 -0.616,0.066 -0.922,0.109 -0.364,0.051 -0.671,-0.229 -1.05,-0.252 -0.658,-0.043 -1.086,0.307 -1.646,0.572 -0.765,0.365 -0.792,-0.256 -1.415,-0.42 -0.192,-0.049 -0.623,-0.559 -0.808,-0.723 -0.231,-0.207 -0.325,-0.512 -0.552,-0.719 -0.223,-0.205 -0.509,-0.186 -0.661,-0.482 -0.139,-0.271 -0.063,-0.947 -0.35,-1.105 -0.585,-0.329 -0.066,-0.56 0.006,-1.032 z" />
      <path
         style="fill:#ffffff"
         inkscape:connector-curvature="0"
         id="path5822"
         d="m 664.897,440.58 c 0.168,-0.33 0.137,-0.693 -0.031,-1.016 0.038,0.338 0.031,0.678 0.031,1.016 z" />
    </g>
  </g>
</svg>
