<?xml version="1.0" encoding="UTF-8" standalone="no"?>
<!-- Created with Inkscape (http://www.inkscape.org/) -->

<svg
   xmlns:dc="http://purl.org/dc/elements/1.1/"
   xmlns:cc="http://creativecommons.org/ns#"
   xmlns:rdf="http://www.w3.org/1999/02/22-rdf-syntax-ns#"
   xmlns:svg="http://www.w3.org/2000/svg"
   xmlns="http://www.w3.org/2000/svg"
   xmlns:sodipodi="http://sodipodi.sourceforge.net/DTD/sodipodi-0.dtd"
   xmlns:inkscape="http://www.inkscape.org/namespaces/inkscape"
   width="269.89999mm"
   height="780.59998mm"
   viewBox="0 0 269.89999 780.59988"
   version="1.1"
   id="svg7070"
   inkscape:version="0.92.4 (5da689c313, 2019-01-14)"
   sodipodi:docname="malawi.svg">
  <defs
     id="defs7064" />
  <sodipodi:namedview
     id="base"
     pagecolor="#ffffff"
     bordercolor="#666666"
     borderopacity="1.0"
     inkscape:pageopacity="0.0"
     inkscape:pageshadow="2"
     inkscape:zoom="7.9195959"
     inkscape:cx="5.2571684"
     inkscape:cy="-1.0137405"
     inkscape:document-units="mm"
     inkscape:current-layer="layer1"
     showgrid="false"
     inkscape:window-width="958"
     inkscape:window-height="1008"
     inkscape:window-x="-7"
     inkscape:window-y="0"
     inkscape:window-maximized="0" />
  <metadata
     id="metadata7067">
    <rdf:RDF>
      <cc:Work
         rdf:about="">
        <dc:format>image/svg+xml</dc:format>
        <dc:type
           rdf:resource="http://purl.org/dc/dcmitype/StillImage" />
        <dc:title />
      </cc:Work>
    </rdf:RDF>
  </metadata>
  <g
     inkscape:label="Layer 1"
     inkscape:groupmode="layer"
     id="layer1"
     transform="translate(-157.239,732.71497)">
    <path
       inkscape:connector-curvature="0"
       style="fill:#ffffff;stroke-width:26.45812035"
       d="m 157.263,-295.74966 c 2.43008,-7.16964 11.19237,-11.58823 3.99013,-11.61462 18.68063,-16.11231 30.27001,-55.03068 14.9495,-79.31818 -10.84836,-17.19705 40.61536,-36.16671 49.92867,-46.08812 -32.65109,-9.81552 -16.43155,-62.27982 -19.23564,-87.83736 -2.14007,-19.73692 12.75342,-28.2561 1.96006,-48.31051 -12.56842,-23.36155 7.33025,-14.57788 18.23061,-25.74273 16.51055,-16.90596 20.37268,-50.13602 -4.39014,-63.49686 -17.06557,-9.25954 -0.50002,-28.01791 -12.93844,-42.93968 -12.93843,-15.55673 -32.33308,-5.63572 -29.89899,-31.61623 8.31027,-0.11 29.34397,8.67757 36.85823,13.17565 15.79652,9.39253 37.17524,3.46582 49.76966,17.06475 9.55032,-16.32399 5.53018,-31.66903 24.84483,-9.70952 14.36748,16.2711 31.67205,40.92908 32.83609,63.04708 0.70003,13.94291 -5.19017,26.66869 3.70013,39.47395 8.63029,12.40829 -4.13014,23.41444 -4.31015,35.82273 -0.40001,25.16066 32.8881,34.97627 31.98907,59.63415 -7.57025,0 -18.73362,-2.98985 -25.50685,1.79891 -7.70026,5.47673 -9.92033,25.98082 -15.50552,34.5264 -17.46258,26.72158 -12.0384,44.07742 -3.78012,73.52406 3.39011,12.03801 4.55015,24.55219 5.64018,36.93407 1.03004,11.48234 -6.35021,31.82773 4.92017,39.79134 21.80173,15.39794 37.75726,21.85352 53.52679,45.74424 12.51541,19.02256 26.90889,36.53709 39.55632,55.45385 15.0025,22.3827 14.87049,40.5586 9.2103,66.804 -5.03016,23.25575 3.07011,48.31051 -0.70002,72.227729 -1.64005,10.344689 -4.71016,22.594283 -13.57345,29.234955 -9.90033,7.328638 -23.8928,2.116895 -33.33812,10.080102 -9.39031,7.910608 -7.12023,20.160303 -13.07143,29.658333 -8.36028,4.232791 -8.7803,9.2075448 -1.24004,14.9217623 4.81016,8.0166036 8.39028,16.8002697 9.1003,26.2454027 0.40001,4.550775 1.19004,19.789821 -4.13014,23.308647 -3.68012,2.43388 -18.70662,3.412831 -18.1516,-3.306836 1.90006,-21.694728 13.17744,-16.906065 -5.9502,-33.4945443 -12.35642,-10.6886715 -49.98167,-43.4160537 -48.89664,-61.1422767 0.70003,-10.344689 -5.29017,-12.461184 -7.96026,-21.192052 -5.42018,-17.779121 5.21017,-15.292144 10.58435,-29.975822 3.0701,-8.46658 -1.56005,-14.78946 4.74016,-23.09695 9.97033,-13.17555 9.84033,-16.74728 9.84033,-33.38875 0,-19.47234 5.9502,-51.77644 -13.17644,-65.26948 -10.82236,-7.64562 -23.49579,-0.52997 -33.94713,3.91581 -10.63636,4.55078 -28.02094,-0.76996 -28.46995,9.97451 -6.69023,-7.22265 -47.33559,-66.08964 -49.24065,-63.92014 -11.43038,13.25494 -15.0025,-11.64113 -28.78796,-20.90107 z"
       id="mw" />
  </g>
</svg>
