<?xml version="1.0" encoding="UTF-8" standalone="no"?>
<!-- Created with Inkscape (http://www.inkscape.org/) -->

<svg
   xmlns:dc="http://purl.org/dc/elements/1.1/"
   xmlns:cc="http://creativecommons.org/ns#"
   xmlns:rdf="http://www.w3.org/1999/02/22-rdf-syntax-ns#"
   xmlns:svg="http://www.w3.org/2000/svg"
   xmlns="http://www.w3.org/2000/svg"
   xmlns:sodipodi="http://sodipodi.sourceforge.net/DTD/sodipodi-0.dtd"
   xmlns:inkscape="http://www.inkscape.org/namespaces/inkscape"
   width="1463.6mm"
   height="1500.2mm"
   viewBox="0 0 1463.6001 1500.1995"
   version="1.1"
   id="svg7070"
   inkscape:version="0.92.4 (5da689c313, 2019-01-14)"
   sodipodi:docname="mali.svg">
  <defs
     id="defs7064" />
  <sodipodi:namedview
     id="base"
     pagecolor="#ffffff"
     bordercolor="#666666"
     borderopacity="1.0"
     inkscape:pageopacity="0.0"
     inkscape:pageshadow="2"
     inkscape:zoom="7.9195959"
     inkscape:cx="9.4670774"
     inkscape:cy="2.6942018"
     inkscape:document-units="mm"
     inkscape:current-layer="layer1"
     showgrid="false"
     inkscape:window-width="958"
     inkscape:window-height="1008"
     inkscape:window-x="-7"
     inkscape:window-y="0"
     inkscape:window-maximized="0" />
  <metadata
     id="metadata7067">
    <rdf:RDF>
      <cc:Work
         rdf:about="">
        <dc:format>image/svg+xml</dc:format>
        <dc:type
           rdf:resource="http://purl.org/dc/dcmitype/StillImage" />
        <dc:title />
      </cc:Work>
    </rdf:RDF>
  </metadata>
  <g
     inkscape:label="Layer 1"
     inkscape:groupmode="layer"
     id="layer1"
     transform="translate(-154.93581,1457.2418)">
    <path
       style="fill:#ffffff;stroke-width:26.4580555"
       inkscape:connector-curvature="0"
       id="ml"
       d="m 154.93581,-421.78076 c 15.76856,-3.81002 22.80637,4.73603 35.63802,-11.69458 10.8217,-13.86429 5.97983,-43.76239 11.24469,-61.06631 12.01166,-39.52896 66.88515,25.92938 72.51999,38.28546 10.47771,-28.73389 27.93923,-44.4767 60.98532,-31.06221 21.7214,8.81106 67.78413,7.22305 72.547,-22.72795 12.38165,29.9775 73.36697,16.58951 97.23131,14.7639 58.39239,-4.44503 118.29173,-1.29701 176.84312,-1.29701 20.61043,0 41.72285,3.67802 62.20128,2.83102 17.22353,-0.71001 15.10758,-26.80248 16.29755,-39.31737 1.37996,-14.52569 14.4726,-40.64027 0.59998,-52.04384 -17.64751,-14.4993 -17.27652,-30.87711 -18.99647,-52.41436 -21.53641,-272.39032 -33.15109,-546.20949 -61.03832,-817.99129 31.88212,0 63.73724,0 95.61836,0 22.59438,0 48.97265,-6.985 67.91613,7.1441 50.4816,37.5711 99.79824,76.4916 149.75086,114.6976 107.65607,82.3125 212.66617,168.9376 322.14707,248.7894 18.1235,13.2028 31.6702,19.9761 32.6751,42.8628 0.4,8.572 -3.7599,17.7272 7.7498,17.5155 8.0198,-0.16 19.4455,8.4141 25.7953,12.6472 10.5567,7.064 8.8098,19.73802 17.2505,28.15187 8.0398,8.04306 16.2716,6.64105 26.0343,10.55687 10.7947,4.31303 4.3099,-15.1342 18.4145,-0.98 7.6198,7.64605 10.8747,18.33572 21.9334,21.82824 17.1975,5.42404 36.909,3.54503 52.8365,12.93819 11.6147,6.87905 13.0957,42.91569 8.1498,54.16056 -6.8798,15.66351 -16.9335,30.87711 7.9898,34.44903 26.3523,3.78403 54.3175,-9.86906 80.3518,-13.09698 -9.8398,71.70258 13.5726,148.82909 -3.5699,219.26167 -4.0699,16.72181 -3.1999,34.02563 -3.1999,51.11784 0,12.83239 -13.5197,21.90765 -16.8006,33.84043 -3.3599,12.25028 -3.6799,25.34727 -8.6497,37.17425 -4.8199,11.43007 -15.9276,14.8697 -25.0023,21.90764 -11.1917,8.62506 -3.5699,20.00264 -18.8915,17.38322 -3.4899,-0.58 -34.1031,-8.75806 -35.506,-3.46602 -3.6799,13.86419 -76.9909,7.30304 -91.4905,8.46705 -35.506,2.80502 -57.0954,0.32 -82.2037,27.78149 -7.8798,8.62506 -23.3884,11.69468 -34.4211,9.26006 -6.3998,-1.16401 -12.8586,-1.66701 -19.3405,-1.50801 -11.5616,-0.24 -18.9964,-8.73106 -18.9964,5.71504 -8.3898,-3.14902 -16.2446,-7.48805 -24.6584,-10.60987 -12.5676,-4.68303 -19.2874,0.79 -30.7171,-0.32 -15.4776,-1.53501 -21.8014,-9.97507 -37.888,2.56601 -30.4791,23.70686 -63.6832,40.13757 -97.4433,58.685 -12.5406,6.90604 -2.5899,32.86152 -23.1503,23.86556 -12.6467,-5.53004 -25.6633,-13.9436 -39.051,-4.68303 -11.37664,7.91105 -16.05951,23.15125 -20.21339,35.63963 -2.37994,7.14405 -4.49988,14.4993 -7.82979,21.27265 -2.90992,5.84704 -22.62137,-2.27502 -30.00317,-3.67803 6.60982,11.77398 0.2,29.2102 1.74995,42.04258 -11.37668,-0.42 -20.47743,-2.27501 -17.64651,11.74758 -12.06467,-1.21701 -46.90971,-18.86492 -46.22172,-33.62882 -7.5698,10.42467 -37.91396,34.02573 -27.35725,46.88451 5.25986,6.37704 8.64976,20.87574 2.80992,28.09899 -4.78986,5.95304 -21.6424,-3.96903 -20.39943,6.42904 3.06991,25.42667 3.06991,43.683 -19.18147,62.97132 -10.60971,9.18107 -20.34544,7.46105 -33.28408,9.84207 -12.11667,2.19602 -18.91648,15.3459 -32.04012,14.6844 15.71657,3.94203 3.30991,15.1078 11.37769,23.17765 10.37071,10.371774 2.45993,31.221114 -3.8099,41.539883 -2.19994,3.625025 -12.46165,11.430077 -12.88564,14.975501 -2.13994,17.674318 4.01989,39.5025644 -6.08983,55.430571 -4.30989,6.800046 -19.15548,6.138041 -26.03429,8.070054 -14.4456,4.022027 -6.9598,23.204156 -25.2143,21.510844 -20.21344,-1.852012 -6.95981,-42.1748822 -13.81062,-54.610366 -7.85978,3.228022 -9.33974,17.2774162 -16.80053,19.3146299 -7.77979,2.1170142 -13.67863,-8.5990577 -19.36747,-11.7475788 -0.49999,9.5250639 4.65987,33.4965249 -9.78973,33.2848229 -10.8217,-0.190001 -25.98128,0.660005 -17.06553,15.451804 -13.22863,5.874039 -46.37972,-10.47757 -44.60777,-26.908281 -6.79981,3.016021 -17.8055,-0.480003 -22.99136,5.768039 -8.11978,9.790066 -7.05981,21.457844 -23.22936,22.807253 11.93167,-22.198749 -27.46324,-25.479571 -27.56924,-44.3973976 -0.053,-12.0650804 3.03992,-26.1674754 0.2,-37.9415544 -4.04989,-16.774612 -26.29928,2.831019 -34.05106,2.487017 2.95991,-10.768572 11.50868,-39.185063 27.78023,-33.628726 5.86984,-16.219108 -27.48924,-22.225149 -29.42119,-37.835655 -10.60871,6.03204 -9.65973,-5.90004 -8.67976,-12.67368 2.19994,-15.31951 -3.96989,-21.21975 -10.45071,-34.02563 -5.10986,-10.10717 1.31996,-24.44767 -10.55671,-30.3479 -4.62987,-2.30202 -20.74243,-11.24488 -25.53129,-6.74705 -5.25986,4.97403 11.69467,17.40972 0.29999,22.78075 -12.91165,6.08504 -23.09736,16.43081 -36.141,22.93956 -9.04975,4.52403 -19.18147,-8.46706 -26.56327,-11.53588 -15.98056,-6.50904 -28.31022,-5.34504 -39.65991,8.17605 -28.49521,33.94633 -12.85864,-6.50904 -37.59696,-14.8697 -16.05955,-5.42403 -33.07208,45.95851 -48.81365,6.29705 -5.02986,-12.67359 15.90056,-24.28887 5.76984,-38.60296 -5.81984,-8.25506 -1.23997,-27.88729 1.90995,-36.51275 3.72989,-10.18657 -27.27825,-68.15715 -33.68107,-42.96859 -7.2798,-2.09001 -18.86448,-24.65936 -22.06539,-31.48561 -2.87992,-6.16504 6.42982,-18.49452 6.05983,-30.7184 -0.49999,-18.30922 1.58996,-26.11448 -11.37669,-40.53437 -4.49987,-4.97404 -9.22974,-10.95388 -6.21982,-18.20353 5.07986,-12.25028 1.52995,-12.25028 -3.40991,-24.39476 z" />
  </g>
</svg>
