<?xml version="1.0" encoding="UTF-8" standalone="no"?>
<!-- Created with Inkscape (http://www.inkscape.org/) -->

<svg
   xmlns:dc="http://purl.org/dc/elements/1.1/"
   xmlns:cc="http://creativecommons.org/ns#"
   xmlns:rdf="http://www.w3.org/1999/02/22-rdf-syntax-ns#"
   xmlns:svg="http://www.w3.org/2000/svg"
   xmlns="http://www.w3.org/2000/svg"
   xmlns:sodipodi="http://sodipodi.sourceforge.net/DTD/sodipodi-0.dtd"
   xmlns:inkscape="http://www.inkscape.org/namespaces/inkscape"
   width="14.636404mm"
   height="15.0019mm"
   viewBox="0 0 14.636405 15.001895"
   version="1.1"
   id="svg7070"
   inkscape:version="0.92.4 (5da689c313, 2019-01-14)"
   sodipodi:docname="mali.svg">
  <defs
     id="defs7064" />
  <sodipodi:namedview
     id="base"
     pagecolor="#ffffff"
     bordercolor="#666666"
     borderopacity="1.0"
     inkscape:pageopacity="0.0"
     inkscape:pageshadow="2"
     inkscape:zoom="7.9195959"
     inkscape:cx="26.07146"
     inkscape:cy="2.6942045"
     inkscape:document-units="mm"
     inkscape:current-layer="layer1"
     showgrid="false"
     inkscape:window-width="958"
     inkscape:window-height="1008"
     inkscape:window-x="-7"
     inkscape:window-y="0"
     inkscape:window-maximized="0" />
  <metadata
     id="metadata7067">
    <rdf:RDF>
      <cc:Work
         rdf:about="">
        <dc:format>image/svg+xml</dc:format>
        <dc:type
           rdf:resource="http://purl.org/dc/dcmitype/StillImage" />
        <dc:title></dc:title>
      </cc:Work>
    </rdf:RDF>
  </metadata>
  <g
     inkscape:label="Layer 1"
     inkscape:groupmode="layer"
     id="layer1"
     transform="translate(-154.93581,-27.956257)">
    <path
       style="fill:#aaaaaa;stroke-width:0.26458332"
       inkscape:connector-curvature="0"
       id="ml"
       d="m 154.93581,38.310798 c 0.15769,-0.0381 0.22807,0.04736 0.35639,-0.116945 0.10822,-0.138642 0.0598,-0.437621 0.11245,-0.610659 0.12012,-0.395287 0.66887,0.259292 0.72522,0.382852 0.10478,-0.287337 0.2794,-0.444764 0.60987,-0.31062 0.21722,0.08811 0.67786,0.07223 0.72549,-0.227278 0.12382,0.299773 0.73369,0.165894 0.97234,0.147638 0.58394,-0.04445 1.18295,-0.01297 1.76848,-0.01297 0.20611,0 0.41724,0.03678 0.62203,0.02831 0.17224,-0.0071 0.15108,-0.268023 0.16298,-0.393171 0.0138,-0.145256 0.14473,-0.4064 0.006,-0.520435 -0.17648,-0.144992 -0.17277,-0.308769 -0.18997,-0.52414 -0.21537,-2.723885 -0.33152,-5.462058 -0.6104,-8.179858 0.31883,0 0.63739,0 0.95621,0 0.22595,0 0.48974,-0.06985 0.67918,0.07144 0.50483,0.375709 0.99801,0.764911 1.49755,1.146969 1.07659,0.823119 2.12672,1.689364 3.22156,2.487877 0.18124,0.132027 0.31671,0.19976 0.32676,0.428625 0.004,0.08572 -0.0376,0.177271 0.0775,0.175154 0.0802,-0.0016 0.19446,0.08414 0.25796,0.126471 0.10557,0.07064 0.0881,0.197379 0.17251,0.281517 0.0804,0.08043 0.16272,0.06641 0.26035,0.105568 0.10795,0.04313 0.0431,-0.151341 0.18415,-0.0098 0.0762,0.07646 0.10875,0.183356 0.21934,0.218281 0.17198,0.05424 0.3691,0.03545 0.52838,0.129381 0.11615,0.06879 0.13096,0.429154 0.0815,0.541602 -0.0688,0.156634 -0.16934,0.308769 0.0799,0.344488 0.26353,0.03784 0.54319,-0.09869 0.80354,-0.130969 -0.0984,0.717021 0.13573,1.488281 -0.0357,2.192602 -0.0407,0.167217 -0.032,0.340254 -0.032,0.511175 0,0.128323 -0.1352,0.219075 -0.16801,0.338402 -0.0336,0.122502 -0.0368,0.253471 -0.0865,0.37174 -0.0482,0.1143 -0.15928,0.148696 -0.25003,0.219075 -0.11192,0.08625 -0.0357,0.200025 -0.18892,0.173831 -0.0349,-0.0058 -0.34104,-0.08758 -0.35507,-0.03466 -0.0368,0.138641 -0.76993,0.07303 -0.91493,0.08467 -0.35507,0.02805 -0.57097,0.0032 -0.82206,0.277813 -0.0788,0.08625 -0.23389,0.116946 -0.34422,0.0926 -0.064,-0.01164 -0.12859,-0.01667 -0.19341,-0.01508 -0.11562,-0.0024 -0.18997,-0.08731 -0.18997,0.05715 -0.0839,-0.03149 -0.16245,-0.07488 -0.24659,-0.106098 -0.12568,-0.04683 -0.19288,0.0079 -0.30718,-0.0032 -0.15478,-0.01535 -0.21802,-0.09975 -0.37889,0.02566 -0.3048,0.237067 -0.63685,0.401373 -0.97446,0.586846 -0.12541,0.06906 -0.0259,0.328613 -0.23151,0.238654 -0.12647,-0.0553 -0.25664,-0.139435 -0.39052,-0.04683 -0.11377,0.07911 -0.1606,0.231511 -0.20214,0.356394 -0.0238,0.07144 -0.045,0.144992 -0.0783,0.212725 -0.0291,0.05847 -0.22622,-0.02275 -0.30004,-0.03678 0.0661,0.117739 0.002,0.2921 0.0175,0.420423 -0.11377,-0.0042 -0.20478,-0.02275 -0.17647,0.117475 -0.12065,-0.01217 -0.46911,-0.188648 -0.46223,-0.336286 -0.0757,0.104246 -0.37915,0.340255 -0.27358,0.468842 0.0526,0.06377 0.0865,0.208756 0.0281,0.280988 -0.0479,0.05953 -0.21643,-0.03969 -0.204,0.06429 0.0307,0.254265 0.0307,0.436827 -0.19182,0.629709 -0.1061,0.09181 -0.20346,0.07461 -0.33285,0.09842 -0.12117,0.02196 -0.18917,0.153458 -0.32041,0.146843 0.15717,0.03942 0.0331,0.151077 0.11378,0.231775 0.10371,0.103717 0.0246,0.312209 -0.0381,0.415396 -0.022,0.03625 -0.12462,0.1143 -0.12886,0.149754 -0.0214,0.176742 0.0402,0.395023 -0.0609,0.554302 -0.0431,0.068 -0.19156,0.06138 -0.26035,0.0807 -0.14446,0.04022 -0.0696,0.23204 -0.25215,0.215107 -0.20214,-0.01852 -0.0696,-0.421746 -0.13811,-0.5461 -0.0786,0.03228 -0.0934,0.172773 -0.16801,0.193145 -0.0778,0.02117 -0.13679,-0.08599 -0.19368,-0.117475 -0.005,0.09525 0.0466,0.334963 -0.0979,0.332846 -0.10822,-0.0019 -0.25982,0.0066 -0.17066,0.154517 -0.13229,0.05874 -0.46381,-0.104775 -0.44609,-0.269081 -0.068,0.03016 -0.17806,-0.0048 -0.22992,0.05768 -0.0812,0.0979 -0.0706,0.214577 -0.2323,0.228071 0.11932,-0.221986 -0.27464,-0.254794 -0.2757,-0.443971 -5.3e-4,-0.12065 0.0304,-0.261673 0.002,-0.379413 -0.0405,-0.167745 -0.263,0.02831 -0.34052,0.02487 0.0296,-0.107685 0.11509,-0.391848 0.27781,-0.336285 0.0587,-0.16219 -0.2749,-0.22225 -0.29422,-0.378354 -0.10609,0.06032 -0.0966,-0.059 -0.0868,-0.126736 0.022,-0.153194 -0.0397,-0.212196 -0.10451,-0.340254 -0.0511,-0.101071 0.0132,-0.244475 -0.10557,-0.303477 -0.0463,-0.02302 -0.20743,-0.112448 -0.25532,-0.06747 -0.0526,0.04974 0.11695,0.174096 0.003,0.227806 -0.12912,0.06085 -0.23098,0.164307 -0.36142,0.229394 -0.0905,0.04524 -0.19182,-0.08467 -0.26564,-0.115358 -0.15981,-0.06509 -0.28311,-0.05345 -0.39661,0.08176 -0.28496,0.339461 -0.12859,-0.06509 -0.37598,-0.148696 -0.1606,-0.05424 -0.33073,0.459582 -0.48815,0.06297 -0.0503,-0.126735 0.15901,-0.242887 0.0577,-0.386027 -0.0582,-0.08255 -0.0124,-0.278871 0.0191,-0.365125 0.0373,-0.101865 -0.27279,-0.681567 -0.33682,-0.429683 -0.0728,-0.0209 -0.18865,-0.246592 -0.22066,-0.314854 -0.0288,-0.06165 0.0643,-0.184944 0.0606,-0.307182 -0.005,-0.183091 0.0159,-0.261143 -0.11377,-0.405341 -0.045,-0.04974 -0.0923,-0.109538 -0.0622,-0.182034 0.0508,-0.122502 0.0153,-0.122502 -0.0341,-0.243946 z" />
  </g>
</svg>
