<?xml version="1.0" encoding="UTF-8" standalone="no"?>
<!-- Created with Inkscape (http://www.inkscape.org/) -->

<svg
   xmlns:dc="http://purl.org/dc/elements/1.1/"
   xmlns:cc="http://creativecommons.org/ns#"
   xmlns:rdf="http://www.w3.org/1999/02/22-rdf-syntax-ns#"
   xmlns:svg="http://www.w3.org/2000/svg"
   xmlns="http://www.w3.org/2000/svg"
   xmlns:sodipodi="http://sodipodi.sourceforge.net/DTD/sodipodi-0.dtd"
   xmlns:inkscape="http://www.inkscape.org/namespaces/inkscape"
   width="1082.4mm"
   height="1267.4mm"
   viewBox="0 0 1082.4001 1267.3996"
   version="1.1"
   id="svg7070"
   inkscape:version="0.92.4 (5da689c313, 2019-01-14)"
   sodipodi:docname="mauritania.svg">
  <defs
     id="defs7064" />
  <sodipodi:namedview
     id="base"
     pagecolor="#ffffff"
     bordercolor="#666666"
     borderopacity="1.0"
     inkscape:pageopacity="0.0"
     inkscape:pageshadow="2"
     inkscape:zoom="7.9195959"
     inkscape:cx="-6.4433875"
     inkscape:cy="5.1784886"
     inkscape:document-units="mm"
     inkscape:current-layer="layer1"
     showgrid="false"
     inkscape:window-width="958"
     inkscape:window-height="1008"
     inkscape:window-x="-7"
     inkscape:window-y="0"
     inkscape:window-maximized="0" />
  <metadata
     id="metadata7067">
    <rdf:RDF>
      <cc:Work
         rdf:about="">
        <dc:format>image/svg+xml</dc:format>
        <dc:type
           rdf:resource="http://purl.org/dc/dcmitype/StillImage" />
        <dc:title />
      </cc:Work>
    </rdf:RDF>
  </metadata>
  <g
     inkscape:label="Layer 1"
     inkscape:groupmode="layer"
     id="layer1"
     transform="translate(-159.14545,1223.7845)">
    <g
       transform="matrix(26.45763,0,0,26.458912,-5311.8772,-10592.409)"
       id="mr"
       style="fill:#ffffff">
      <path
         style="fill:#ffffff"
         inkscape:connector-curvature="0"
         id="path3878"
         d="m 208.686,383.432 c 0.224,-0.283 0.269,-0.639 0.287,-0.985 -0.256,0.243 -0.475,0.626 -0.287,0.985 z" />
      <path
         style="fill:#ffffff"
         inkscape:connector-curvature="0"
         id="path3882"
         d="m 206.815,378.983 c -0.09,-0.607 0.009,-1.421 0.416,-1.906 0.545,-0.647 2.258,-0.285 3.012,-0.285 2.737,0 5.474,0 8.211,0 0.456,0 1.851,0.327 1.831,-0.36 -0.036,-1.25 0.002,-2.499 -0.088,-3.748 -0.076,-1.052 -0.282,-1.744 0.582,-2.52 0.73,-0.656 1.702,-1.051 2.651,-1.273 0.779,-0.184 0.475,-1.072 0.511,-1.721 0.077,-1.425 0.076,-2.852 0.133,-4.275 0.049,-1.203 0.121,-2.403 0.195,-3.604 0.038,-0.617 1.651,-0.286 2.029,-0.286 2.624,0 5.247,0 7.87,0 1.052,0 1.069,-0.017 1.117,-1.118 0.054,-1.25 0.123,-2.556 0.084,-3.805 4.179,2.812 8.295,5.715 12.326,8.735 -1.938,0 -3.876,0 -5.814,0 0.969,9.447 1.459,18.936 2.127,28.407 0.115,1.631 -0.078,3.344 0.966,4.659 0.403,0.509 -0.107,1.649 -0.192,2.21 -0.187,1.236 -0.507,0.968 -1.711,0.968 -2.321,0 -4.644,-0.026 -6.965,0.008 -0.896,0.014 -4.079,0.62 -4.549,-0.517 -0.169,1.065 -1.72,1.155 -2.527,0.931 -1.275,-0.353 -2.024,-0.255 -2.519,1.103 -0.25,-0.547 -0.782,-0.823 -1.13,-1.288 -0.44,-0.586 -0.498,-0.625 -1.173,-0.444 -1.336,0.357 0.016,2.734 -1.514,3.119 -0.272,0.069 -0.89,-0.248 -1.105,-0.404 -0.224,-0.163 -0.188,-0.482 -0.414,-0.627 -0.292,-0.187 -0.618,-0.319 -0.895,-0.529 -0.483,-0.369 -0.471,-0.95 -0.967,-1.351 -0.495,-0.398 -0.55,-0.848 -0.776,-1.411 -0.171,-0.424 -0.234,-0.947 -0.758,-0.967 -0.861,-0.032 -0.977,-0.253 -1.433,-0.831 -0.292,-0.368 -0.679,-0.727 -1.078,-0.975 -0.463,-0.289 -1.19,-0.05 -1.723,-0.149 -1.019,-0.191 -1.992,0.795 -3.045,0.585 -0.495,-0.1 -1.445,-0.373 -1.845,0.095 -0.213,0.25 -0.691,1.232 -0.666,1.557 -0.042,-0.021 -0.084,-0.021 -0.128,0 0,-2.295 1.611,-4.167 1.829,-6.416 0.131,-1.354 -0.056,-2.5 -0.226,-3.826 -0.062,-0.479 -0.046,-1.003 -0.35,-1.408 -0.265,-0.354 -0.727,-0.605 -0.776,-1.087 0.354,0.11 0.743,-0.152 0.702,-0.54 -0.239,0.063 -0.43,0.243 -0.512,0.477 0.087,-0.461 0.458,-0.784 0.66,-1.188 0.131,-0.262 -0.059,-0.681 0.095,-0.855 0.69,-0.79 -0.367,-2.192 -0.627,-2.976 -0.108,0.189 -0.182,0.391 -0.221,0.604 -0.701,-0.531 -0.533,-1.628 -1.24,-2.16 -0.112,0.465 -0.281,0.92 -0.38,1.392 z" />
    </g>
  </g>
</svg>
