<?xml version="1.0" encoding="UTF-8" standalone="no"?>
<!-- Created with Inkscape (http://www.inkscape.org/) -->

<svg
   xmlns:dc="http://purl.org/dc/elements/1.1/"
   xmlns:cc="http://creativecommons.org/ns#"
   xmlns:rdf="http://www.w3.org/1999/02/22-rdf-syntax-ns#"
   xmlns:svg="http://www.w3.org/2000/svg"
   xmlns="http://www.w3.org/2000/svg"
   xmlns:sodipodi="http://sodipodi.sourceforge.net/DTD/sodipodi-0.dtd"
   xmlns:inkscape="http://www.inkscape.org/namespaces/inkscape"
   width="2559.6001mm"
   height="1834.6mm"
   viewBox="0 0 2559.6001 1834.6"
   version="1.1"
   id="svg7070"
   inkscape:version="0.92.4 (5da689c313, 2019-01-14)"
   sodipodi:docname="mexico.svg">
  <defs
     id="defs7064" />
  <sodipodi:namedview
     id="base"
     pagecolor="#ffffff"
     bordercolor="#666666"
     borderopacity="1.0"
     inkscape:pageopacity="0.0"
     inkscape:pageshadow="2"
     inkscape:zoom="1.4"
     inkscape:cx="-90.062489"
     inkscape:cy="-38.669641"
     inkscape:document-units="mm"
     inkscape:current-layer="layer1"
     showgrid="false"
     inkscape:window-width="958"
     inkscape:window-height="1008"
     inkscape:window-x="-7"
     inkscape:window-y="0"
     inkscape:window-maximized="0" />
  <metadata
     id="metadata7067">
    <rdf:RDF>
      <cc:Work
         rdf:about="">
        <dc:format>image/svg+xml</dc:format>
        <dc:type
           rdf:resource="http://purl.org/dc/dcmitype/StillImage" />
        <dc:title />
      </cc:Work>
    </rdf:RDF>
  </metadata>
  <g
     inkscape:label="Layer 1"
     inkscape:groupmode="layer"
     id="layer1"
     transform="translate(-154.74217,1739.662)">
    <g
       id="mx"
       transform="matrix(26.458386,0,0,26.458033,3337.6197,-10559.95)"
       style="fill:#ffffff">
      <path
         d="m -91.553,362.814 c 0.046,0.237 0.131,0.46 0.254,0.668 0.005,-0.399 -0.212,-0.764 -0.508,-1.018 0.085,0.117 0.17,0.234 0.254,0.35 z"
         id="path2614"
         inkscape:connector-curvature="0"
         style="fill:#ffffff" />
      <path
         d="m -119.982,346.805 c -0.403,0.202 -0.378,0.655 -0.159,0.984 0.217,-0.321 -0.058,-0.662 0.159,-0.984 z"
         id="path2594"
         inkscape:connector-curvature="0"
         style="fill:#ffffff" />
      <path
         d="m -110.993,349.917 c -0.218,0.256 -0.89,1.096 -0.317,1.334 0.19,-0.397 0.487,-0.875 0.317,-1.334 z"
         id="path2596"
         inkscape:connector-curvature="0"
         style="fill:#ffffff" />
      <path
         d="m -105.053,363.45 c -0.058,0.25 0.077,0.355 0.318,0.317 -0.142,0.253 -0.062,0.524 0.158,0.698 -0.619,-0.786 0.356,-1.867 0.318,-2.668 -0.029,0.607 -0.446,1.184 -0.794,1.653 z"
         id="path2600"
         inkscape:connector-curvature="0"
         style="fill:#ffffff" />
      <path
         d="m -103.528,347.471 c 0.082,-0.382 -0.172,-2.005 -0.67,-2.03 -0.76,-0.037 0.543,1.92 0.67,2.03 z"
         id="path2602"
         inkscape:connector-curvature="0"
         style="fill:#ffffff" />
      <path
         d="m -104.417,364.561 c 0.252,0.252 0.47,0.568 0.858,0.604 -0.12,-0.367 -0.458,-0.651 -0.858,-0.604 z"
         id="path2604"
         inkscape:connector-curvature="0"
         style="fill:#ffffff" />
      <path
         d="m -101.082,348.488 c 0.51,-0.539 0.417,-1.237 0.699,-1.874 -0.892,0.127 -0.855,0.938 -1.366,1.493 0.217,0.135 0.44,0.262 0.667,0.381 z"
         id="path2606"
         inkscape:connector-curvature="0"
         style="fill:#ffffff" />
      <path
         d="m -99.938,358.716 c -0.44,0.059 -0.603,0.462 -0.604,0.857 0.138,-0.332 0.621,-0.451 0.604,-0.857 z"
         id="path2608"
         inkscape:connector-curvature="0"
         style="fill:#ffffff" />
      <path
         d="m -99.684,362.37 c -0.064,0.333 0.013,0.667 0.19,0.952 0.419,-0.293 0.152,-0.751 -0.19,-0.952 z"
         id="path2610"
         inkscape:connector-curvature="0"
         style="fill:#ffffff" />
      <path
         d="m -97.429,366.151 c 0.055,-0.257 -0.051,-0.508 -0.254,-0.667 -0.004,0.256 0.081,0.478 0.254,0.667 z"
         id="path2612"
         inkscape:connector-curvature="0"
         style="fill:#ffffff" />
      <path
         d="m -91.267,362.625 c -0.122,0.254 -0.069,0.466 0.159,0.635 0.064,-0.24 0.011,-0.452 -0.159,-0.635 z"
         id="path2616"
         inkscape:connector-curvature="0"
         style="fill:#ffffff" />
      <path
         d="m -88.948,375.457 c -0.031,0.273 0.139,0.452 0.413,0.445 0.004,-0.255 -0.153,-0.438 -0.413,-0.445 z"
         id="path2618"
         inkscape:connector-curvature="0"
         style="fill:#ffffff" />
      <path
         d="m -111.692,334.068 c 2.655,-0.262 5.304,-0.614 7.973,-0.699 -0.201,0.268 -0.483,0.47 -0.604,0.795 3.062,1.402 6.348,2.43 9.318,4.013 1.552,0.827 3.601,0.466 5.311,0.466 0.896,0 1.793,0 2.689,0 0.518,0 1.563,0.228 2.033,-0.039 0.626,-0.358 0.383,-1.217 1.007,-1.577 0.548,-0.317 1.579,-0.099 2.18,-0.099 0.851,0 1.706,-0.034 2.556,-0.023 0.781,0.01 0.874,0.35 1.055,0.971 0.152,0.521 0.807,0.637 1.063,1.157 0.222,0.452 0.631,1.22 1.046,1.511 0.393,0.275 0.966,0.488 1.072,1.017 0.154,0.765 0.142,1.422 0.044,2.176 -0.218,1.671 1.257,2.41 2.422,3.198 0.407,0.274 1.038,0.858 1.548,0.545 0.368,-0.227 0.806,-0.615 1.003,-1.009 0.253,-0.507 0.762,-1.312 1.216,-1.663 0.286,-0.221 0.896,-0.303 1.232,-0.459 0.367,-0.172 1.055,0.144 1.461,0.149 0.426,0.005 0.866,0.07 1.283,0.154 0.26,0.052 0.584,0.735 0.835,0.969 0.412,0.383 0.901,1.24 1.009,1.778 0.146,0.729 0.374,1.493 0.415,2.238 0.044,0.782 0.545,1.253 0.799,1.965 0.117,0.326 0.229,0.653 0.395,0.958 0.13,0.239 0.364,0.23 0.484,0.435 0.296,0.498 -0.122,1.302 -0.125,1.832 -0.003,0.667 0.514,1.142 0.431,1.867 -0.013,0.117 0.086,0.723 0.085,0.722 0.181,0.174 0.524,0.156 0.75,0.192 0.333,0.054 0.486,0.303 0.775,0.442 0.209,0.102 0.471,0.09 0.667,0.223 0.292,0.199 0.071,0.439 0.549,0.456 0.768,0.026 1.362,0.049 1.946,0.578 0.533,0.483 0.785,-0.17 1.349,-0.176 -0.679,1.738 -1.923,3.181 -2.597,4.922 -0.141,0.364 -0.847,3.468 -1.31,3.4 0.466,0.722 -0.163,1.758 -0.238,2.509 -0.093,0.936 -0.688,1.691 -0.735,2.651 -0.049,0.984 0.06,1.874 0.644,2.691 0.628,0.879 0.341,0.842 -0.02,1.741 -0.04,-0.354 0.402,-0.854 0.184,-1.148 -0.413,-0.556 -0.504,-1.204 -0.819,-1.806 0.143,0.554 -0.085,1.142 0.127,1.684 0.192,0.487 0.437,0.538 0.474,1.131 0.078,1.236 0.574,2.52 1.195,3.557 0.715,1.193 0.965,2.154 1.28,3.481 0.131,0.556 0.541,0.969 0.725,1.499 0.159,0.459 0.214,0.879 0.71,1.1 -0.266,-0.021 -0.453,-0.341 -0.635,-0.158 0.571,0.152 -0.005,0.88 -0.19,1.111 0.536,-0.024 0.057,-0.597 0.52,-0.685 0.167,0.01 0.269,-0.068 0.306,-0.236 0.297,0.167 0.646,0.188 0.978,0.202 1.076,0.044 1.973,0.601 2.468,1.521 0.421,0.783 0.862,0.72 1.745,0.499 0.554,-0.14 1.508,-0.327 1.925,-0.762 -0.338,0.082 -0.675,0.188 -0.985,0.351 0.443,-0.266 3.895,-1.06 4.002,-0.572 -0.2,-0.89 2.419,-1.37 2.764,-0.667 -0.698,-0.126 0.003,0.48 -0.096,0.794 0.236,-0.201 0.425,-0.104 0.699,-0.127 0.168,0.035 0.337,0.057 0.508,0.063 0.043,-0.125 0.102,-0.241 0.178,-0.351 0.388,-0.155 1.278,-1.011 0.299,-1.079 0.215,-0.179 0.438,-0.348 0.667,-0.508 -0.312,0.188 -0.621,0.387 -0.953,0.54 0.388,-0.653 1.26,-0.9 1.88,-1.264 0.864,-0.506 0.853,-1.242 1.246,-2.052 0.204,-0.422 0.575,-0.619 0.852,-0.975 0.279,-0.357 0.208,-0.847 0.254,-1.268 0.111,-1.007 0.642,-1.736 0.882,-2.669 -0.071,0.127 -0.155,0.244 -0.254,0.35 0.51,-1.423 2.531,-1.694 3.813,-1.841 0.925,-0.106 1.665,-0.354 2.537,-0.676 1.139,-0.419 2.11,0.059 3.244,0.166 -0.193,-0.079 -0.395,-0.121 -0.604,-0.127 0.515,-0.132 1.017,0.186 1.493,0.318 -0.806,-0.166 0.584,-0.685 1.138,-0.433 0.826,0.377 0.57,1.438 0.307,2.107 -0.349,0.889 -1.085,1.377 -1.724,2.037 -0.335,0.348 -0.733,0.782 -0.896,1.243 -0.092,0.259 0.082,1.308 -0.19,0.73 0.128,0.516 -0.764,0.973 -0.826,1.493 1.581,-0.195 -0.45,0.799 -0.095,1.302 0.098,-0.237 0.304,-0.415 0.572,-0.413 -0.437,0.619 -0.564,1.383 -0.899,2.052 -0.273,0.547 -0.887,1.623 -0.912,2.236 -0.742,-0.824 -0.179,-1.45 -0.35,-2.351 -0.492,0.343 -0.462,0.355 -0.716,0.821 -0.205,0.375 -0.525,0.361 -0.857,0.547 -0.705,0.392 -1.208,1.507 -1.571,2.189 -0.218,-0.238 -0.903,-0.692 -1.087,-0.118 -0.142,0.442 -0.169,0.341 -0.791,0.341 -1.366,0 -2.732,0 -4.099,0 -0.31,0 -1.183,-0.209 -1.248,0.266 -0.053,0.386 -0.034,0.791 -0.069,1.181 -0.095,1.036 -0.851,0.714 -1.665,0.714 0.565,0.585 0.934,1.313 1.691,1.684 0.663,0.323 0.545,1.133 1.175,1.47 0.213,0.114 -0.031,1.214 -0.23,1.356 -0.312,0.226 -1.514,0 -1.864,0 -0.653,0 -1.593,-0.175 -2.209,0.11 -0.6,0.278 -1.194,1.018 -1.424,1.594 -0.203,0.511 -0.825,1.243 -0.433,1.881 0.155,0.251 -0.472,1.948 -0.708,2.229 -0.308,-0.385 -0.654,-0.736 -0.963,-1.12 -0.179,-0.223 -0.996,-1.786 -0.435,-0.945 -0.118,-0.463 -0.685,-0.646 -0.993,-0.951 -0.452,-0.449 -0.769,-1.003 -1.252,-1.444 -0.97,-0.885 -1.491,-1.711 -2.805,-2.146 -0.086,0.502 1.156,0.729 1.397,1.08 -0.766,-0.398 -1.559,-0.79 -2.446,-0.762 0.232,-0.09 0.419,-0.276 0.508,-0.509 -0.26,-0.038 -0.472,0.047 -0.635,0.254 0.062,-0.774 -0.661,-0.53 -0.763,0.032 0.235,-0.024 0.458,0.018 0.667,0.127 -1.182,0.08 -1.754,0.793 -2.828,1.115 -0.969,0.291 -1.774,0.73 -2.76,0.924 -0.744,0.146 -1.061,0.055 -1.792,-0.34 -0.812,-0.438 -1.323,-0.498 -2.226,-0.641 -0.471,-0.074 -0.757,-0.318 -1.104,-0.624 -0.441,-0.391 -0.873,-0.474 -1.405,-0.668 -0.432,-0.158 -0.527,-0.524 -0.852,-0.801 -0.396,-0.337 -1.09,-0.403 -1.576,-0.527 -0.48,-0.122 -1.031,-0.171 -1.48,-0.39 -0.47,-0.229 -0.819,-0.616 -1.309,-0.833 -1.131,-0.5 -2.271,-0.783 -3.27,-1.552 -0.824,-0.634 -1.272,-1.523 -2.003,-2.193 -0.287,-0.263 -0.658,-0.157 -0.995,-0.092 -0.508,0.1 -1.367,-0.261 -1.844,-0.431 -0.793,-0.281 -1.883,-0.664 -2.396,-1.371 -0.254,-0.351 -0.429,-0.741 -0.644,-1.113 -0.365,-0.635 -0.889,-0.658 -1.438,-1.041 -0.118,-0.589 -1.593,-0.891 -2.11,-1.355 -0.271,-0.243 -0.19,-0.633 -0.456,-0.896 -0.299,-0.296 -0.576,-0.98 -0.748,-1.37 -0.202,-0.456 -0.593,-1.711 -0.022,-2.063 0.396,-0.244 0.857,-0.112 1.196,-0.489 0.317,-0.353 -0.395,-0.646 -0.656,-0.591 0.147,-0.475 1.836,-2.068 1.363,-2.655 -0.436,-0.544 -0.598,-0.861 -0.827,-1.528 -0.247,-0.717 0.058,-1.269 -0.02,-1.985 -0.167,-1.539 -1.636,-2.825 -2.322,-4.169 -0.793,-1.552 -1.647,-2.697 -3.022,-3.797 0.374,0.162 0.68,0.625 0.857,0.031 -0.599,0.068 -1.627,-0.498 -1.387,-1.157 0.172,-0.474 0.218,-1.842 -0.646,-1.479 0,-0.562 -0.084,-0.137 -0.479,-0.346 -0.269,-0.143 -0.497,-0.383 -0.791,-0.479 0.388,0.077 0.421,0.051 0.099,-0.081 -0.173,-0.197 -0.129,-0.483 -0.321,-0.682 -0.195,0.175 -0.417,0.303 -0.667,0.381 -0.092,-0.402 0.391,-0.437 0.444,-0.795 -0.481,0.443 -0.727,0.175 -1.334,0.032 0.119,-0.071 0.235,-0.146 0.35,-0.223 -0.282,-0.234 -0.419,-0.172 -0.413,0.19 -0.016,-0.459 0.052,-0.914 0.269,-1.324 0.081,-0.152 0.672,-1.196 0.589,-0.612 0.124,-0.245 0.409,-0.707 0.603,-0.318 0.064,-0.332 0.017,-0.614 -0.381,-0.349 0.167,-0.41 0.107,-0.936 -0.305,-1.185 -0.326,-0.197 -0.672,0.156 -1.024,-0.161 -0.382,-0.345 0.072,-1.399 -0.398,-1.526 -0.326,-0.088 -1.38,-0.202 -1.407,-0.666 -0.029,-0.492 -0.067,-2.156 0.562,-2.148 -0.301,-0.035 -1.022,-0.144 -0.921,-0.413 -0.137,0.121 -0.232,0.27 -0.286,0.445 -0.018,-0.47 -0.664,-0.497 -0.905,-0.804 -0.207,-0.264 -0.273,-0.713 -0.396,-1.021 -0.126,-0.315 -0.488,-0.331 -0.668,-0.591 -0.277,-0.4 -0.195,-1.131 -0.498,-1.467 -0.524,-0.584 -0.122,-1.137 -0.296,-1.805 -0.56,0.433 -0.375,-0.776 -0.445,-1.048 -0.229,-0.903 -0.231,-1.421 -0.17,-2.326 0.05,-0.739 -0.472,-1.41 -0.297,-2.148 0.082,-0.343 0.668,-1.204 0.557,-1.466 -0.183,-0.429 -0.889,-0.424 -1.26,-0.555 -0.603,-0.212 0.18,-1.019 -0.771,-1.086 -0.324,-0.023 -0.455,0.354 -0.818,0.326 -0.348,-0.027 -0.632,-0.303 -0.845,-0.55 -0.449,-0.521 -1.043,-0.68 -1.508,-1.217 0.038,0.402 0.495,0.775 0.329,1.191 -0.206,0.514 -0.575,1.078 -0.828,1.586 -0.256,0.513 0.128,1.019 0.022,1.543 -0.115,0.577 -0.16,1.178 -0.38,1.729 -0.537,1.343 0.058,1.87 0.9,2.859 0.765,0.898 0.969,1.532 0.91,2.687 0.543,-0.413 0.799,0.565 0.875,0.917 0.041,0.185 0.02,0.558 0.171,0.698 0.122,0.113 0.615,0.225 0.5,0.477 -0.263,0.579 -0.422,2.167 0.093,2.652 0.696,0.655 0.612,1.828 1.441,2.307 -0.478,0.356 -0.068,1.5 -0.032,2.002 0.322,-0.28 0.13,-0.957 0.063,-1.303 1.615,0.273 0.379,5.459 1.461,5.21 -0.083,0.525 -0.126,1.135 0.032,1.651 0.167,0.546 0.599,0.841 0.196,1.416 -0.523,0.749 -0.164,2.158 0.915,2.047 -0.718,0.072 -0.084,0.096 0.015,-0.046 0.12,-0.173 0.133,-0.394 0.271,-0.559 0.167,0.413 0.834,0.993 1.172,1.269 0.186,0.152 0.14,1.104 0.257,1.368 0.266,0.602 1.13,1.025 0.347,1.754 -0.311,0.289 -1.442,1.195 -1.863,1.007 -0.553,-0.247 -0.267,-1.479 -0.495,-1.948 -0.166,-0.345 -0.467,-0.6 -0.752,-0.844 -0.46,-0.394 -0.706,-0.967 -1.103,-1.414 -0.58,-0.652 -1.49,-0.937 -1.973,-1.694 -0.405,-0.635 -1.388,-1.005 -1.149,-1.91 -0.058,0.217 -0.132,0.429 -0.222,0.635 0.094,-1.833 1.605,-3.002 0.699,-4.9 -0.349,-0.733 -1.142,-0.827 -1.608,-1.507 -0.213,-0.31 -0.539,-0.794 -0.552,-1.185 -0.009,-0.281 0.321,-0.347 0.222,-0.667 -0.197,0.243 -0.222,0.721 -0.54,0.857 -0.324,0.139 -0.592,-0.149 -0.926,0.093 -0.27,0.196 -0.436,-0.226 -0.51,-0.403 -0.179,-0.427 -0.518,-0.502 -0.851,-0.77 -0.064,-0.131 -0.145,-0.25 -0.241,-0.359 -0.186,-0.044 -0.37,-0.094 -0.553,-0.149 -0.336,-0.247 -0.177,-0.383 -0.24,-0.712 -0.151,-0.783 -1.358,-0.917 -1.412,-1.798 0.759,0.076 1.718,0.484 2.382,-0.095 -0.026,0.825 1.437,0.607 1.017,1.461 0.386,-0.302 0.582,-1.341 0.159,-1.683 0.004,0.195 -0.167,0.987 -0.55,0.799 -0.226,-0.111 0.086,-0.759 0.105,-0.926 -0.119,0.07 -0.234,0.145 -0.349,0.222 0.375,-0.813 1.55,-1.593 1.08,-2.604 -0.488,-1.052 -1.046,-2.418 -2.002,-3.125 -0.787,-0.581 -1.42,-1.047 -1.608,-2.062 -0.071,-0.381 0.192,-0.654 0.273,-1.016 0.107,-0.475 -0.345,-0.68 -0.125,-0.944 -0.1,0.092 -0.206,0.177 -0.318,0.254 -0.206,-0.854 0.67,-1.229 -0.042,-2.02 -0.327,-0.362 0.074,-0.641 0.074,-1.029 0,-0.522 -0.418,-0.866 -0.496,-1.347 -0.058,-0.358 0.141,-0.651 0.381,-0.876 0.211,-0.197 -0.074,-0.511 -0.161,-0.705 -0.101,-0.128 -0.189,-0.264 -0.264,-0.408 0.046,-0.211 0.089,-0.423 0.127,-0.635 -0.079,-0.456 -0.479,-0.712 -0.226,-1.206 z"
         id="path2630"
         inkscape:connector-curvature="0"
         style="fill:#ffffff" />
      <path
         d="m -41.841,387.082 c 0.448,0.1 0.75,-0.368 1.144,-0.477 -0.416,-0.06 -0.808,0.294 -1.144,0.477 z"
         id="path2634"
         inkscape:connector-curvature="0"
         style="fill:#ffffff" />
      <path
         d="m -24.815,380.92 c 0.424,-0.335 0.83,-0.771 1.048,-1.271 -0.4,0.364 -1.356,0.394 -1.048,1.271 z"
         id="path2772"
         inkscape:connector-curvature="0"
         style="fill:#ffffff" />
    </g>
  </g>
</svg>
