<?xml version="1.0" encoding="UTF-8" standalone="no"?>
<!-- Created with Inkscape (http://www.inkscape.org/) -->

<svg
   xmlns:dc="http://purl.org/dc/elements/1.1/"
   xmlns:cc="http://creativecommons.org/ns#"
   xmlns:rdf="http://www.w3.org/1999/02/22-rdf-syntax-ns#"
   xmlns:svg="http://www.w3.org/2000/svg"
   xmlns="http://www.w3.org/2000/svg"
   xmlns:sodipodi="http://sodipodi.sourceforge.net/DTD/sodipodi-0.dtd"
   xmlns:inkscape="http://www.inkscape.org/namespaces/inkscape"
   width="2638mm"
   height="1042.2001mm"
   viewBox="0 0 2638 1042.2"
   version="1.1"
   id="svg7070"
   inkscape:version="0.92.4 (5da689c313, 2019-01-14)"
   sodipodi:docname="mongolia.svg">
  <defs
     id="defs7064" />
  <sodipodi:namedview
     id="base"
     pagecolor="#ffffff"
     bordercolor="#666666"
     borderopacity="1.0"
     inkscape:pageopacity="0.0"
     inkscape:pageshadow="2"
     inkscape:zoom="7.9195959"
     inkscape:cx="43.433349"
     inkscape:cy="-1.4704788"
     inkscape:document-units="mm"
     inkscape:current-layer="layer1"
     showgrid="false"
     inkscape:window-width="958"
     inkscape:window-height="1008"
     inkscape:window-x="-7"
     inkscape:window-y="0"
     inkscape:window-maximized="0" />
  <metadata
     id="metadata7067">
    <rdf:RDF>
      <cc:Work
         rdf:about="">
        <dc:format>image/svg+xml</dc:format>
        <dc:type
           rdf:resource="http://purl.org/dc/dcmitype/StillImage" />
        <dc:title />
      </cc:Work>
    </rdf:RDF>
  </metadata>
  <g
     inkscape:label="Layer 1"
     inkscape:groupmode="layer"
     id="layer1"
     transform="translate(-146.63045,1007.1204)">
    <path
       style="fill:#ffffff;stroke:#ffffff;stroke-width:4.11657381"
       inkscape:connector-curvature="0"
       id="mn"
       d="m 149.10008,-715.00575 c 19.84073,1.69299 11.98274,-11.40348 16.18963,-23.15086 7.69775,-21.61618 52.19463,7.93791 50.20985,-12.17068 8.24541,3.54496 17.8306,7.19692 26.00502,0.85 -1.643,-2.83098 -3.27585,-5.60896 -4.99999,-8.38693 14.84075,-2.32797 21.87724,-5.60894 36.16321,-10.92717 -6.69369,-4.07497 -11.05879,-11.2712 -13.51823,-18.49424 3.70183,-2.61896 28.30625,-5.00095 25.71295,-11.69447 -3.30629,-8.62491 8.10343,-8.59892 14.10037,-12.19717 8.14401,-4.89496 21.11052,-2.75198 27.67135,-8.28094 9.47261,-7.96391 14.41784,-16.77442 26.92998,-20.79608 9.25962,-2.96298 18.01519,0.52999 23.54458,-8.96891 4.22921,-7.22293 7.08924,-12.19707 15.74033,-13.44066 9.91886,-1.42898 39.7332,1.32298 31.11049,-17.03902 11.21602,-0.21001 23.30626,19.39379 34.0466,15.08114 2.91075,-1.16399 13.14806,-11.66799 16.79817,-7.64593 7.96143,8.75792 10.18455,16.74803 23.96749,17.06553 18.1734,0.4 36.26769,3.70396 54.36298,3.04298 20.02635,-0.74001 33.67642,-1.50801 46.24233,15.74253 23.75655,32.67567 54.73316,37.83502 91.6905,46.19574 20.05169,4.52397 29.36303,-5.47695 47.43298,-5.55594 1.69371,0 17.82856,-0.60999 19.78698,-0.0794 7.69775,2.08998 19.47055,11.19179 27.30015,10.0276 9.39146,-1.376 30.74031,-2.90999 39.68249,0.48 14.23121,5.42394 32.77682,23.97094 46.58511,8.01691 9.787,-11.29759 10.37118,-9.84191 23.70381,-12.91147 12.77685,-2.93697 14.44318,-25.55854 13.80829,-35.71845 -0.91278,-13.91695 -9.89856,-21.13997 -21.7454,-26.21993 -18.2525,-7.77892 -23.70279,-24.20916 -39.02021,-34.92466 -10.95231,-7.69892 -25.13078,-59.66289 -0.40568,-51.40798 -5.63893,-11.90618 -7.77889,-24.68545 7.61662,-29.3156 15.29106,-4.60395 12.19673,-24.60595 9.17848,-36.22099 18.80929,5.87402 35.29102,15.71599 54.86704,19.39366 20.07908,3.78396 37.51211,16.13943 57.77576,18.41481 20.63385,2.32798 37.43189,2.30199 57.35279,9.36591 16.719,5.92694 46.7971,21.93368 64.865,16.50984 32.8306,-9.84292 58.7292,19.94938 73.5171,42.72978 8.2455,12.69986 22.5913,22.72747 29.0203,35.98293 7.1703,14.84306 34.1531,20.3463 48.8874,27.41064 16.1632,7.7519 31.7453,6.37593 47.3802,15.45143 10.8985,6.32394 29.3365,8.5199 40.8448,4.17996 16.5344,-6.21795 24.365,8.57291 41.083,-6.50895 14.0476,-12.67335 34.9999,-12.88505 52.6176,-17.25061 34.9726,-8.65191 80.3153,5.87393 116.0281,9.28691 17.856,1.71998 31.428,12.62056 46.1358,21.66917 23.4128,14.41965 45.1846,9.25991 70.5547,14.52545 13.0679,2.69898 17.4594,16.35114 25.5548,25.34687 10.2636,11.42987 26.6388,16.00714 39.0719,24.81763 17.3285,12.30307 31.7717,11.95908 52.4593,10.58329 25.8721,-1.71997 41.3742,9.57791 65.3416,13.65237 19.0214,3.22797 38.1734,-1.08499 57.2738,0.0529 13.8093,0.81999 26.2951,7.64591 39.4959,0.48 16.7982,-9.12793 30.6601,-17.88563 50.157,-20.45211 19.5761,-2.56597 42.857,-10.53029 62.142,-8.59891 17.2473,1.69298 27.5111,-3.86295 31.93,-20.71669 4.7869,-18.20312 17.1155,-27.30473 32.3528,-37.72923 14.3916,-9.8689 20.9259,-20.0287 39.1003,-15.42505 21.0832,5.37096 35.9513,0.70999 56.0304,13.86407 14.5496,9.4979 30.4746,19.3937 47.934,22.25117 15.3164,2.48698 25.7403,-6.50893 39.8924,-9.73689 39.0202,-8.86392 59.2058,8.25491 57.3002,46.67203 -1.6735,33.49586 -6.2374,83.81915 11.085,112.28798 7.0386,11.50928 -8.2453,17.5682 -2.8295,32.04077 4.8174,12.85857 25.6337,25.13516 38.147,29.6595 14.8143,5.31795 19.2849,-13.46716 35.1318,-12.17078 20.1043,1.63998 39.4421,-5.84693 58.4359,4.39196 16.1105,8.67792 27.0364,18.89111 38.7829,-1.79898 8.9959,-15.84844 19.7607,-19.97591 39.0457,-18.65302 33.227,2.24898 71.5058,28.01913 99.2036,45.66665 31.9573,20.37269 67.3792,35.29505 93.8589,63.31417 31.0852,32.91387 -20.3165,30.90298 -41.003,27.43702 -13.783,-2.30198 -27.4859,-15.66314 -37.9624,-5.82094 -3.3874,3.17495 -21.4016,-2.43398 -26.2951,-2.11699 -14.9737,0.97999 -24.9472,8.51994 -37.7494,15.02816 -8.9352,4.55095 -28.069,-7.75191 -30.6876,2.98997 -2.8804,11.74739 -2.1704,17.51522 -16.7981,16.58922 -17.0112,-1.05798 -33.8885,-3.28095 -41.6663,15.23985 -2.8803,6.87894 -4.4219,14.49907 -4.7058,21.93379 -0.3043,8.04293 9.787,15.87485 8.1439,22.27768 -1.7646,6.85292 -24.6825,23.49475 -30.8468,28.65411 -11.507,9.60389 -31.718,9.84189 -45.9238,9.49891 -10.4503,-0.24001 -28.2536,-9.55191 -34.5761,2.93697 -5.9026,11.66799 -7.363,25.69074 -17.2747,35.37444 -6.5416,6.37593 -14.4179,4.78895 -19.497,13.14968 -3.854,6.32293 -6.9067,12.19706 -15.2372,11.50917 -17.7779,-1.53498 -36.7191,-4.92095 -54.1247,-8.5989 -29.4442,-6.21794 -63.2799,-41.6715 -94.1245,-18.09733 -11.8509,9.04891 -11.1116,24.39435 -6.0548,37.01483 3.1642,7.91091 -2.2516,15.21335 0.078,23.04496 2.4645,8.22792 9.6247,8.94292 15.0273,14.28737 10.6074,10.4774 80.2352,49.18549 51.1084,61.85898 -7.4341,3.22796 -18.1997,15.34564 -24.0983,21.21938 -8.1238,8.01692 -23.3864,9.36591 -27.7515,21.27229 -6.3184,17.33002 -12.3803,37.173529 -26.9037,49.688204 -11.7464,10.159899 -32.4856,14.710652 -46.4278,23.177267 -15.8458,9.603905 -44.6541,6.852932 -62.7747,7.698924 -23.3337,1.110988 -43.3063,-4.04796 -66.5588,-0.339998 -48.3863,7.725923 -89.6277,12.832173 -134.3618,35.586145 -18.148,9.259907 -36.6916,18.2031174 -52.5648,31.114688 -14.3904,11.694483 -11.7718,13.599464 -28.7819,12.03838 -10.3702,-0.929991 -21.5344,-0.05289 -30.0253,-6.905931 -16.6399,-13.493665 -18.0425,-13.943361 -41.4005,-11.482786 -42.5132,4.497956 -84.6277,-17.5152238 -126.0293,-24.976448 -19.3102,-3.492967 -40.2899,-7.143929 -58.1986,-15.689643 -19.5233,-9.312908 -31.4543,-28.336616 -53.9136,-32.411077 -19.7354,-3.597964 -39.8144,-0.499995 -59.7079,-4.576953 -17.2474,-3.518967 -34.6804,-6.323937 -52.0882,-9.048909 -20.3954,-3.174968 -34.8133,8.175918 -54.6804,10.292195 -25.7403,2.724974 -53.5171,-4.497954 -79.3893,-5.344946 -43.7291,-1.401985 -86.6104,-18.99691 -130.3669,-14.260856 -12.2738,1.322986 -33.9138,7.778922 -46.004,2.486975 -5.6896,-2.513975 -9.0162,-9.180909 -11.5861,-14.340256 -4.2292,-8.492915 -16.005,-13.678855 -23.7292,-18.097315 -33.8092,-19.20861 -49.3641,-55.90594 -77.30007,-81.0147 -10.71297,-9.65689 -27.82957,-11.45629 -29.62875,-28.38951 -1.79514,-16.66854 -37.32651,-9.20691 -52.72405,-16.37755 -17.72411,-8.25491 -36.53239,-17.01252 -53.03946,-27.5428 -14.8945,-9.49791 -32.06283,-8.65191 -46.61249,-20.161 -33.17439,-26.21995 -78.0668,-15.05466 -116.66308,-18.91751 -32.01009,-3.22798 -64.78691,-8.81092 -96.37306,-13.17617 -27.90967,-3.83695 -64.4948,-22.93918 -68.19967,-54.60947 -1.75457,-15.05464 17.67238,-29.50069 6.92696,-42.38576 -13.65008,-16.29825 -6.59227,-37.14714 -18.65007,-52.12247 -15.42288,-19.15562 -28.04051,-33.76048 -48.70174,-47.49223 -18.94114,-12.62047 -24.44417,-29.87111 -38.83462,-46.01053 -9.50303,-10.6891 -27.40664,-17.01254 -39.12568,-26.37875 -10.95233,-8.75792 -3.70183,3.04297 -13.14806,3.22797 -7.56591,0.16 -14.84075,-6.03294 -20.7667,-9.9219 -15.73932,-10.2922 -17.40666,-7.01193 -34.44314,-5.87395 -21.4817,1.40198 -43.12061,-13.75816 -59.28489,-26.11413 -12.48578,-9.52491 -25.18353,-20.53139 -40.87112,-24.31495 -14.97259,-3.62497 -22.27481,-2.77799 -21.58719,-17.11833 0.50711,-10.45091 -25.44822,-12.17069 -29.97154,-22.09249 -1.56186,-3.41297 3.56997,-3.51896 4.73629,-5.60894 3.20487,-6.03293 -9.62472,-16.29814 -11.95636,-20.79599 z" />
  </g>
</svg>
