<?xml version="1.0" encoding="UTF-8" standalone="no"?>
<!-- Created with Inkscape (http://www.inkscape.org/) -->

<svg
   xmlns:dc="http://purl.org/dc/elements/1.1/"
   xmlns:cc="http://creativecommons.org/ns#"
   xmlns:rdf="http://www.w3.org/1999/02/22-rdf-syntax-ns#"
   xmlns:svg="http://www.w3.org/2000/svg"
   xmlns="http://www.w3.org/2000/svg"
   xmlns:sodipodi="http://sodipodi.sourceforge.net/DTD/sodipodi-0.dtd"
   xmlns:inkscape="http://www.inkscape.org/namespaces/inkscape"
   width="1430.9mm"
   height="1526.9mm"
   viewBox="0 0 1430.9001 1526.8996"
   version="1.1"
   id="svg7070"
   inkscape:version="0.92.4 (5da689c313, 2019-01-14)"
   sodipodi:docname="morocco.svg">
  <defs
     id="defs7064" />
  <sodipodi:namedview
     id="base"
     pagecolor="#ffffff"
     bordercolor="#666666"
     borderopacity="1.0"
     inkscape:pageopacity="0.0"
     inkscape:pageshadow="2"
     inkscape:zoom="0.04375"
     inkscape:cx="1010.793"
     inkscape:cy="2760.5553"
     inkscape:document-units="mm"
     inkscape:current-layer="layer1"
     showgrid="false"
     inkscape:window-width="958"
     inkscape:window-height="991"
     inkscape:window-x="-8"
     inkscape:window-y="0"
     inkscape:window-maximized="0" />
  <metadata
     id="metadata7067">
    <rdf:RDF>
      <cc:Work
         rdf:about="">
        <dc:format>image/svg+xml</dc:format>
        <dc:type
           rdf:resource="http://purl.org/dc/dcmitype/StillImage" />
        <dc:title />
      </cc:Work>
    </rdf:RDF>
  </metadata>
  <g
     inkscape:label="Layer 1"
     inkscape:groupmode="layer"
     id="layer1"
     transform="translate(-148.14793,1482.983)">
    <path
       d="m 152.86771,43.916744 c -13.81131,-24.341032 6.67015,-65.641398 10.87524,-90.908404 2.88007,-17.250326 7.33017,-33.468881 16.56237,-48.523267 11.19226,-18.229303 31.69872,-18.282203 38.57787,-41.115073 3.52008,-11.66778 3.31008,-29.68548 14.92234,-36.69669 6.61015,-3.91589 2.70006,-17.17103 7.83018,-24.73792 8.23018,-12.09107 41.38193,-53.36494 32.14772,-69.00141 -6.19014,3.96889 -11.43026,9.55074 -15.05534,15.98036 14.47333,-31.88142 51.17115,-55.32278 75.2757,-79.9284 32.06772,-32.7545 25.90358,-66.62027 41.48793,-106.80937 12.77929,-32.8603 22.70151,-69.1072 54.63723,-87.3365 35.2168,-20.05495 55.03424,-36.14111 68.92555,-75.16614 8.7602,-24.57912 13.97032,-56.19595 43.78999,-56.19595 38.57687,0 77.17974,3.7039 115.94261,3.7039 49.95413,0 99.90925,0 149.88938,0 24.23655,0 48.44709,0 72.65664,0 20.00245,0 29.23665,-5.92684 28.36363,15.84806 -1.48003,37.17298 -5.53012,74.42526 -4.6301,111.67763 0.1,5.87384 2.83006,39.71281 -6.88015,40.85048 -24.05155,2.75193 -50.35114,-0.28999 -74.61469,-0.28999 -49.90112,0 -99.82924,0 -149.75737,0 -9.79022,0 -52.91719,-6.21783 -58.71232,2.51293 -8.44019,12.80555 -3.39008,50.11073 -3.39008,65.03282 0,48.25867 -2.06004,96.96713 -3.44008,145.19941 -0.2,8.28077 1.30003,38.97203 -6.53014,44.60747 -17.25139,12.48796 -41.80494,13.81092 -59.82435,25.05532 -27.14661,16.85353 -38.10086,34.89764 -35.95681,66.93776 1.24003,18.62619 15.55735,115.699121 -4.2301,121.308166 -18.67942,5.2648559 -39.10588,0 -58.0773,0 -47.25507,0 -94.53713,0 -141.7932,0 -40.95792,0 -81.91684,0 -122.87477,0 -24.73955,0.0264 -28.70864,40.480089 -26.11558,57.995108 z"
       id="eh"
       inkscape:connector-curvature="0"
       style="fill:#ffffff;stroke-width:26.45826721" />
    <path
       d="m 521.75802,-652.81792 c 4.02009,-4.44488 17.14538,-25.24051 21.74949,-26.93386 16.51037,-6.03184 34.58177,-6.77282 51.67416,-10.53012 31.69771,-6.9848 63.84544,-17.01223 87.73798,-39.9245 23.44252,-22.48898 47.86407,-40.1362 72.41763,-60.98482 23.52253,-19.94906 41.46193,-46.56533 60.30036,-70.77406 12.75328,-16.45665 42.09594,-63.76285 17.35739,-81.70116 -9.58022,-6.93181 -16.32537,-7.1698 -10.18723,-20.02835 6.06013,-12.72615 5.42012,-25.5051 6.11014,-39.42181 1.93004,-38.7339 15.92835,-56.0108 39.63589,-84.9025 13.5463,-16.4831 9.82022,-33.2837 15.53135,-52.2802 4.13009,-13.758 15.42535,-24.394 25.69158,-33.7335 21.96049,-19.9755 39.34388,-44.6075 66.8875,-57.0425 29.95164,-13.5464 61.83444,-24.1294 90.49004,-40.4272 56.6753,-32.2783 83.9279,-110.8839 105.4124,-168.7467 2.06,-5.6088 9.6002,-34.1303 18.2304,-33.2572 10.6092,1.085 21.2995,-3.2009 30.3217,-8.0698 11.4032,-6.0848 13.5993,9.0488 16.9074,17.171 6.4001,15.7423 14.9493,26.4311 28.8136,36.2734 28.9457,20.5575 52.9702,14.8163 86.0969,10.8476 27.4387,-3.2809 62.3644,13.414 79.0598,-18.8643 -0.2,10.5037 2.6201,13.123 4.0701,21.1132 1.56,8.5458 17.0924,12.8584 3.4901,-0.93 7.3302,10.1862 20.4795,15.3718 32.2797,9.4978 12.0123,-6.0059 19.1564,6.3498 26.5646,13.1758 7.9402,7.3548 22.0935,11.5091 26.8556,21.854 5.4201,11.8266 -6.3201,22.6742 10.1603,29.4209 -8.9203,6.9848 -6.0302,19.8168 -4.3401,29.2092 2.7,14.8956 -2.2701,28.0186 -0.6001,42.385 1.3801,11.5356 8.8402,18.9173 5.9802,31.2995 -4.3401,18.6526 -2.2001,25.2669 6.6701,41.6706 4.5301,8.3338 0.4,15.7688 4.9501,23.415 6.7202,11.3768 17.2244,15.9011 27.1466,23.706 18.2565,14.4459 -36.3808,38.4165 -7.1701,49.5022 -30.1627,7.7518 -135.9721,-28.5477 -151.5034,12.4351 -8.1002,21.4042 -29.2107,29.5267 -52.0182,27.6218 -17.2784,-1.455 -38.5509,23.2297 -15.0023,29.7119 -19.9235,18.2028 16.6423,31.72259 7.9401,40.37425 -9.9802,9.86873 -27.4376,6.29683 -38.2328,14.15481 -11.2713,8.25478 -23.6546,20.58404 -36.9899,25.18761 -10.1072,3.49291 -21.5114,3.17492 -30.9837,8.46677 -18.3624,10.26552 -25.7705,31.77563 -39.2378,46.85641 -15.4264,17.25033 -43.975,23.99704 -66.3855,24.87012 -16.8814,0.65998 -35.0058,-6.37582 -41.805,13.70512 -7.2501,21.45712 -28.3376,5.37086 -45.192,6.64082 -11.8803,0.86998 -18.8124,6.79982 -26.4596,15.05439 -7.7502,8.41377 -16.9334,6.64082 -26.6176,10.50361 -11.19224,4.47088 -18.09739,15.53067 -27.01459,22.96527 -9.47022,7.93678 -21.24648,12.83195 -30.9297,20.68983 -18.91843,15.31898 -35.5088,17.56782 -33.62976,44.07839 1.88004,26.37818 -0.90002,55.64037 -3.86009,81.85985 -1.27002,11.218 -352.51194,2.83093 -388.39074,2.83093 z"
       id="ma"
       inkscape:connector-curvature="0"
       style="fill:#ffffff;stroke-width:26.45826721" />
  </g>
</svg>
