<?xml version="1.0" encoding="UTF-8" standalone="no"?>
<!-- Created with Inkscape (http://www.inkscape.org/) -->

<svg
   xmlns:dc="http://purl.org/dc/elements/1.1/"
   xmlns:cc="http://creativecommons.org/ns#"
   xmlns:rdf="http://www.w3.org/1999/02/22-rdf-syntax-ns#"
   xmlns:svg="http://www.w3.org/2000/svg"
   xmlns="http://www.w3.org/2000/svg"
   xmlns:sodipodi="http://sodipodi.sourceforge.net/DTD/sodipodi-0.dtd"
   xmlns:inkscape="http://www.inkscape.org/namespaces/inkscape"
   width="938.60004mm"
   height="1651.9mm"
   viewBox="0 0 938.59999 1651.8999"
   version="1.1"
   id="svg7070"
   inkscape:version="0.92.4 (5da689c313, 2019-01-14)"
   sodipodi:docname="mozambique.svg">
  <defs
     id="defs7064" />
  <sodipodi:namedview
     id="base"
     pagecolor="#ffffff"
     bordercolor="#666666"
     borderopacity="1.0"
     inkscape:pageopacity="0.0"
     inkscape:pageshadow="2"
     inkscape:zoom="7.9195959"
     inkscape:cx="-0.24951919"
     inkscape:cy="10.74792"
     inkscape:document-units="mm"
     inkscape:current-layer="layer1"
     showgrid="false"
     inkscape:window-width="958"
     inkscape:window-height="1008"
     inkscape:window-x="-7"
     inkscape:window-y="0"
     inkscape:window-maximized="0" />
  <metadata
     id="metadata7067">
    <rdf:RDF>
      <cc:Work
         rdf:about="">
        <dc:format>image/svg+xml</dc:format>
        <dc:type
           rdf:resource="http://purl.org/dc/dcmitype/StillImage" />
        <dc:title />
      </cc:Work>
    </rdf:RDF>
  </metadata>
  <g
     inkscape:label="Layer 1"
     inkscape:groupmode="layer"
     id="layer1"
     transform="translate(-158.69598,1600.903)">
    <g
       transform="matrix(26.456969,0,0,26.459102,-9465.2826,-14788.725)"
       id="mz"
       style="fill:#ffffff">
      <path
         style="fill:#ffffff"
         inkscape:connector-curvature="0"
         d="m 380.313,541.429 c 0.112,-0.316 0.176,-0.652 0.158,-0.988 -0.136,0.303 -0.287,0.65 -0.158,0.988 z"
         id="path3382" />
      <path
         style="fill:#ffffff"
         inkscape:connector-curvature="0"
         d="m 383.649,530.343 c 0.267,-0.254 0.203,-0.359 -0.189,-0.318 0.062,0.105 0.127,0.211 0.189,0.318 z"
         id="path3384" />
      <path
         style="fill:#ffffff"
         inkscape:connector-curvature="0"
         d="m 363.765,515.505 c 2.443,-0.918 4.895,-1.814 7.352,-2.693 0.549,-0.195 1.098,-0.395 1.643,-0.605 0.184,-0.07 0.934,-0.547 1.14,-0.482 0.377,0.121 0.164,0.439 0.341,0.688 0.364,0.516 0.752,1.012 1.181,1.475 0.019,-0.41 0.901,-0.268 1.317,-0.385 0.357,-0.1 0.896,-0.436 1.189,-0.055 0.542,0.703 0.545,2.406 0.264,3.188 -0.358,0.986 -1.19,1.875 -0.662,2.891 0.125,0.242 0.053,0.529 0.199,0.76 0.165,0.26 0.458,0.4 0.622,0.658 0.321,0.508 0.817,0.982 1.272,1.371 0.436,0.371 0.412,0.439 0.114,0.928 -0.318,0.521 0.714,0.717 0.782,0.016 0.064,-0.682 -0.133,-1.285 -0.523,-1.84 0.62,-0.451 0.297,-1.387 1.209,-1.576 1.235,-0.258 1.345,-0.797 1.349,-2.041 0.001,-0.453 -0.079,-0.916 -0.052,-1.369 0.045,-0.736 0.432,-1.549 0.115,-2.271 -0.317,-0.725 -0.979,-1.406 -1.404,-2.08 -0.395,-0.627 -0.781,-1.303 -1.281,-1.854 -0.369,-0.406 -0.975,-0.426 -1.306,-0.795 -0.524,-0.588 -0.133,-1.939 -0.296,-2.67 -0.152,-0.682 -0.462,-1.459 -0.32,-2.17 0.089,-0.453 0.418,-0.924 0.605,-1.35 0.238,-0.543 0.186,-0.809 0.819,-0.82 0.79,-0.014 1.745,0.217 2.516,-0.004 0.438,-0.127 0.851,-0.666 1.329,-0.355 0.332,0.213 0.492,0.623 0.844,0.811 0.27,0.145 1.165,0.193 1.462,0.117 0.493,-0.127 0.85,-0.957 1.407,-0.352 1.033,1.123 2.275,-0.207 2.776,-1.031 0.276,-0.455 0.769,-0.467 1.199,-0.195 0.702,0.445 0.872,0.441 1.538,-0.025 0.557,-0.391 0.994,-0.666 1.72,-0.523 0.417,0.082 1.224,-0.719 1.612,-0.895 0.77,-0.35 1.41,-0.842 2.074,-1.354 0.809,-0.625 1.336,0.422 0.634,0.758 0.106,0.049 0.212,0.104 0.317,0.158 -0.32,0.414 -0.139,0.879 -0.317,1.332 -0.096,0.244 -0.71,0.559 -0.348,0.816 0.3,0.213 0.229,1.35 0.272,1.791 0.032,0.33 0.058,0.666 0.028,0.998 -0.044,0.502 -0.2,0.375 -0.061,0.82 0.032,0.166 0.021,0.33 -0.034,0.488 -0.065,0.309 0.128,0.402 0.207,0.668 0.117,0.389 -0.029,0.943 -0.291,1.248 0.885,0.125 -0.266,2.066 0.08,2.178 0.605,0.193 0.015,2.213 0.207,2.684 0.666,-0.395 -0.097,0.893 0.098,1.205 0.053,-0.562 0.619,-0.465 0.522,0.092 -0.104,0.604 0.04,1.031 -0.589,1.373 0.115,0.088 0.232,0.172 0.354,0.25 -0.727,-0.172 -0.1,0.092 -0.309,0.342 -0.133,0.158 -0.337,0.219 -0.424,0.422 0.702,-0.25 0.096,0.863 -0.009,1.084 -0.352,0.744 -1.101,1.156 -1.462,1.895 -0.358,0.732 -0.944,1.158 -1.343,1.854 -0.306,0.533 -2.376,1.254 -2.301,1.832 0.034,0.27 -1.563,0.543 -1.874,0.734 -0.275,0.17 -0.588,0.305 -0.896,0.396 -0.5,0.145 -0.414,-0.047 -0.777,0.289 -0.522,0.484 -1.254,0.713 -1.875,1.035 -0.619,0.322 -1.604,1.826 -2.297,1.236 1.295,1.42 -1.851,1.967 -1.558,3.4 -0.267,0.037 -0.446,-0.139 -0.507,-0.383 0.062,0.504 -0.417,1.143 -0.349,0.445 -0.604,0.523 -1.337,0.885 -1.829,1.531 -0.436,0.574 -0.832,1.117 -1.355,1.617 -0.213,0.203 -1.057,1.094 -1.359,0.725 -0.195,-0.238 -0.445,-1.051 -0.887,-0.793 0.762,-0.047 0.496,0.914 0.646,1.146 0.141,0.219 0.133,0.576 0.027,0.805 -0.048,0.121 -0.136,0.191 -0.264,0.209 0.098,0.184 0.131,0.377 0.098,0.584 -0.083,1.002 0.246,0.725 0.763,1.385 0.29,0.371 0.373,0.809 0.366,1.268 -0.002,0.178 -0.144,1.561 0.11,0.705 -0.193,0.746 0.304,1.555 0.379,2.316 0.046,0.457 0.209,0.934 0.134,1.395 -0.064,0.389 -0.232,0.82 0.185,1.084 0.074,-0.488 0.054,-0.93 0.384,-1.336 -0.009,0.15 0.001,1.221 0.158,0.322 -0.088,0.516 -0.218,1.027 -0.264,1.551 -0.042,0.469 0.291,0.887 0.231,1.344 -0.164,1.248 -1.062,2.451 -0.858,3.775 -0.116,-0.725 0.415,0.021 0.445,-0.604 0.478,0.805 -0.449,2.01 -0.945,2.578 -0.82,0.938 -2.063,1.367 -3.208,1.771 -1.296,0.457 -2.602,0.934 -3.757,1.686 -0.522,0.34 -1.067,0.637 -1.357,1.219 -0.25,0.498 -0.376,1.076 -1.025,1.162 0.434,-0.004 1.126,1.539 1.491,0.605 -0.077,0.791 0.557,2.721 -0.263,2.746 -0.759,0.023 -1.498,-0.328 -2.078,-0.191 0.082,-0.605 -0.227,-1.129 -0.244,-1.732 -0.012,-0.432 -0.168,-1.117 -0.479,-1.477 -0.326,-0.379 -0.264,-0.812 0.079,-1.238 0.205,-0.256 0.02,-1.363 0.033,-1.674 0.032,-0.76 0.07,-1.521 0.128,-2.279 0.051,-0.686 -0.15,-1.141 -0.261,-1.795 -0.165,-0.98 -0.833,-1.781 -1.036,-2.734 -0.098,-0.459 0.064,-0.945 -0.017,-1.42 -0.112,-0.66 -0.334,-1.293 -0.513,-1.936 -0.233,-0.834 0.543,-1.373 1.095,-1.92 0.418,-0.412 2.323,-3.107 2.826,-2.742 -0.507,-0.654 10e-4,-1.033 0.159,-1.686 0.098,-0.4 -0.291,-0.961 0.149,-1.225 0.613,-0.365 0.773,-0.863 1.112,-1.494 0.145,-0.27 0.356,-0.541 0.461,-0.832 0.166,-0.459 -0.095,-0.768 -0.072,-1.215 -0.105,0.043 -0.211,0.086 -0.318,0.129 -0.219,-0.803 -0.221,-1.355 0.096,-2.143 0.142,-0.352 -0.665,-0.262 -0.52,-0.836 0.107,-0.43 0.99,-0.488 0.775,-0.967 -0.297,-0.662 0.451,-0.557 0.4,-1.148 -0.041,-0.486 -0.318,-1.027 -0.227,-1.518 0.064,-0.344 0.257,-0.635 0.25,-0.992 -0.004,-0.242 -0.252,-0.543 -0.232,-0.721 0.025,-0.23 0.29,-0.342 0.317,-0.57 0.024,-0.211 -0.151,-0.537 -0.216,-0.736 -0.075,-0.23 -0.234,-0.434 -0.301,-0.666 -0.096,-0.336 0.332,-0.742 0.389,-1.076 -0.484,0.145 -0.766,0.168 -0.949,-0.332 -0.17,-0.463 -1.499,-0.721 -1.919,-0.67 -0.554,0.066 -0.938,-0.523 -1.312,-0.861 -0.158,-0.145 -0.443,-0.094 -0.631,-0.168 -0.266,-0.107 -0.41,-0.342 -0.656,-0.475 -0.404,-0.219 -0.971,0.102 -1.162,-0.082 -0.311,-0.297 -1.045,-0.004 -1.448,-0.102 -0.653,-0.154 -0.356,-1.281 -0.418,-1.768 -0.081,-0.707 -0.614,-1.336 -0.55,-2.057 z"
         id="path3462" />
      <path
         style="fill:#ffffff"
         inkscape:connector-curvature="0"
         d="m 395.623,520.587 c 0.105,-0.072 0.211,-0.146 0.317,-0.219 0.002,0.184 -0.029,0.363 -0.093,0.537 -0.075,-0.105 -0.149,-0.21 -0.224,-0.318 z"
         id="path3466" />
    </g>
  </g>
</svg>
