<?xml version="1.0" encoding="UTF-8" standalone="no"?>
<!-- Created with Inkscape (http://www.inkscape.org/) -->

<svg
   xmlns:dc="http://purl.org/dc/elements/1.1/"
   xmlns:cc="http://creativecommons.org/ns#"
   xmlns:rdf="http://www.w3.org/1999/02/22-rdf-syntax-ns#"
   xmlns:svg="http://www.w3.org/2000/svg"
   xmlns="http://www.w3.org/2000/svg"
   xmlns:sodipodi="http://sodipodi.sourceforge.net/DTD/sodipodi-0.dtd"
   xmlns:inkscape="http://www.inkscape.org/namespaces/inkscape"
   width="1189.2001mm"
   height="1207.4mm"
   viewBox="0 0 1189.2001 1207.3999"
   version="1.1"
   id="svg7070"
   inkscape:version="0.92.4 (5da689c313, 2019-01-14)"
   sodipodi:docname="namibia.svg">
  <defs
     id="defs7064" />
  <sodipodi:namedview
     id="base"
     pagecolor="#ffffff"
     bordercolor="#666666"
     borderopacity="1.0"
     inkscape:pageopacity="0.0"
     inkscape:pageshadow="2"
     inkscape:zoom="7.9195959"
     inkscape:cx="3.7888702"
     inkscape:cy="12.607856"
     inkscape:document-units="mm"
     inkscape:current-layer="layer1"
     showgrid="false"
     inkscape:window-width="958"
     inkscape:window-height="1008"
     inkscape:window-x="-7"
     inkscape:window-y="0"
     inkscape:window-maximized="0" />
  <metadata
     id="metadata7067">
    <rdf:RDF>
      <cc:Work
         rdf:about="">
        <dc:format>image/svg+xml</dc:format>
        <dc:type
           rdf:resource="http://purl.org/dc/dcmitype/StillImage" />
        <dc:title />
      </cc:Work>
    </rdf:RDF>
  </metadata>
  <g
     inkscape:label="Layer 1"
     inkscape:groupmode="layer"
     id="layer1"
     transform="translate(-157.62749,1155.9109)">
    <g
       transform="matrix(26.457705,0,0,26.457428,-7834.5782,-14993.199)"
       id="na"
       style="fill:#ffffff">
      <path
         style="fill:#ffffff"
         inkscape:connector-curvature="0"
         d="m 302.11,524.115 c 0.467,-0.072 0.836,-0.484 1.335,-0.395 0.425,0.074 0.81,0.396 1.259,0.311 0.938,-0.178 1.58,-1.271 2.648,-0.98 0.85,0.232 1.34,1.207 2.171,1.549 0.724,0.299 1.979,0.027 2.751,0.027 2.605,0 5.211,0 7.816,0 1.019,0 2.041,0.033 3.059,-0.043 0.943,-0.068 1.17,-0.043 1.688,0.738 0.672,1.018 1.496,0.738 2.518,0.951 0.943,0.195 1.932,0.314 2.883,0.201 0.476,-0.059 0.778,0.23 1.201,0.379 0.488,0.17 0.997,0.1 1.484,-0.029 0.534,-0.139 0.602,-0.074 1.076,0.129 0.389,0.166 1.011,-0.121 1.398,-0.199 2.393,-0.48 4.757,-1.088 7.154,-1.541 0.465,-0.088 0.936,-0.301 1.418,-0.227 0.285,0.043 0.717,0.316 0.999,0.176 0.901,-0.449 1.46,0.645 2.054,1.053 -0.434,-0.113 -1.079,-0.002 -1.49,0.158 -0.512,0.199 -0.662,0.963 -1.153,0.512 -0.79,-0.727 -2.333,1.652 -2.915,1.934 -0.283,-0.547 -0.588,-1.76 -1.395,-1.836 -1.041,-0.1 -2.336,0.426 -3.35,0.641 -1.191,0.254 -2.397,0.35 -3.585,0.57 -0.687,0.129 -0.349,2.027 -0.36,2.494 -0.073,2.893 0.064,5.795 -0.101,8.684 -0.036,0.641 0.241,2.111 -0.104,2.66 -0.341,0.541 -1.873,0.18 -2.418,0.145 -1.224,-0.078 -0.897,0.898 -0.913,1.863 -0.025,1.428 -0.012,2.854 -0.027,4.279 -0.035,3.07 -0.105,6.141 -0.186,9.209 -0.074,2.881 -0.201,5.76 -0.201,8.641 0,1.021 -0.951,0.645 -1.491,1.121 -0.303,0.266 -0.236,0.512 -0.654,0.65 -0.353,0.117 -0.493,0.291 -0.206,0.615 -0.791,0.234 -0.787,-0.092 -1.523,-0.205 -0.779,-0.119 -1.502,0.404 -2.316,0.141 -0.312,-0.102 -0.545,-0.344 -0.863,-0.439 -0.221,-0.078 -0.432,-0.059 -0.635,0.059 -0.035,-0.141 -0.114,-0.248 -0.236,-0.322 -0.659,-0.438 -0.572,-0.594 -0.703,-1.355 -0.055,-0.318 -0.777,-1.201 -1.116,-1.082 -0.731,0.254 -0.458,1.328 -0.9,1.551 -0.442,0.221 -0.938,0.615 -1.373,0.205 -0.67,-0.635 -1.341,-1.301 -1.854,-2.07 -0.456,-0.688 -0.818,-1.426 -1.186,-2.162 -0.195,-0.391 -0.213,-0.811 -0.28,-1.232 -0.07,-0.434 -0.367,-0.662 -0.452,-1.057 -0.157,-0.727 0.167,-0.994 -0.37,-1.664 -0.215,-0.268 -0.143,-0.439 -0.135,-0.781 0.012,-0.553 -0.18,-1.029 -0.238,-1.568 -0.043,-0.383 -0.01,-0.771 -0.119,-1.146 -0.155,-0.529 0.109,-1.043 0.006,-1.574 -0.178,-0.914 -0.611,-1.748 -0.943,-2.609 -0.375,-0.975 -0.094,-1.797 -0.192,-2.781 -0.066,-0.67 0.092,-1.223 -0.104,-1.852 0.284,0.123 0.593,0.16 0.892,0.225 -0.145,-0.711 -0.219,-1.439 -0.128,-2.162 -0.16,0.088 -0.329,0.15 -0.507,0.189 -0.043,-0.875 -0.484,-1.73 -0.98,-2.434 -0.279,-0.395 -0.598,-0.762 -0.833,-1.188 -0.216,-0.391 -0.26,-0.869 -0.542,-1.225 -1.299,-1.641 -1.578,-3.633 -2.537,-5.412 -0.881,-1.629 -1.176,-3.867 -2.606,-5.15 -1.543,-1.381 -1.722,-3.395 -1.59,-5.34 z"
         id="path2914" />
      <path
         style="fill:#ffffff"
         inkscape:connector-curvature="0"
         d="m 310.938,546.605 c -0.13,-0.314 -0.169,-0.664 -0.031,-0.984 0.154,0.852 0.294,-0.139 0.303,-0.348 0.015,-0.342 0.135,-0.537 0.492,-0.605 -0.091,0.723 -0.018,1.453 0.127,2.162 -0.299,-0.063 -0.607,-0.102 -0.891,-0.225 z"
         id="path5418" />
    </g>
  </g>
</svg>
