<?xml version="1.0" encoding="UTF-8" standalone="no"?>
<!-- Created with Inkscape (http://www.inkscape.org/) -->

<svg
   xmlns:dc="http://purl.org/dc/elements/1.1/"
   xmlns:cc="http://creativecommons.org/ns#"
   xmlns:rdf="http://www.w3.org/1999/02/22-rdf-syntax-ns#"
   xmlns:svg="http://www.w3.org/2000/svg"
   xmlns="http://www.w3.org/2000/svg"
   xmlns:sodipodi="http://sodipodi.sourceforge.net/DTD/sodipodi-0.dtd"
   xmlns:inkscape="http://www.inkscape.org/namespaces/inkscape"
   width="735.70001mm"
   height="405.70001mm"
   viewBox="0 0 735.69992 405.7"
   version="1.1"
   id="svg7070"
   inkscape:version="0.92.4 (5da689c313, 2019-01-14)"
   sodipodi:docname="nepal.svg">
  <defs
     id="defs7064" />
  <sodipodi:namedview
     id="base"
     pagecolor="#ffffff"
     bordercolor="#666666"
     borderopacity="1.0"
     inkscape:pageopacity="0.0"
     inkscape:pageshadow="2"
     inkscape:zoom="5.6"
     inkscape:cx="-5.018506"
     inkscape:cy="-6.5831867"
     inkscape:document-units="mm"
     inkscape:current-layer="layer1"
     showgrid="false"
     inkscape:window-width="958"
     inkscape:window-height="1008"
     inkscape:window-x="-7"
     inkscape:window-y="0"
     inkscape:window-maximized="0" />
  <metadata
     id="metadata7067">
    <rdf:RDF>
      <cc:Work
         rdf:about="">
        <dc:format>image/svg+xml</dc:format>
        <dc:type
           rdf:resource="http://purl.org/dc/dcmitype/StillImage" />
        <dc:title />
      </cc:Work>
    </rdf:RDF>
  </metadata>
  <g
     inkscape:label="Layer 1"
     inkscape:groupmode="layer"
     id="layer1"
     transform="translate(-157.08909,375.27536)">
    <path
       style="fill:#ffffff;stroke-width:26.45726776"
       inkscape:connector-curvature="0"
       id="np"
       d="m 158.90271,-230.30704 c 4.5501,-13.78339 15.13533,-20.74128 8.20018,-35.31829 -4.3901,-9.23306 -2.12005,-13.28074 2.88006,-22.14334 6.17013,-10.89979 -2.28005,-18.88937 6.62014,-29.44519 12.40927,-14.6828 23.94552,-43.88982 44.52997,-29.07473 3.70008,2.69872 8.63019,13.91568 14.63231,9.31205 9.37021,-7.19627 11.40325,-21.21744 9.76022,-31.98494 10.63623,4.07459 12.43527,-8.30715 19.55342,-6.03238 12.48827,4.02159 28.41662,-0.78992 37.51881,11.90508 16.08635,22.48731 52.73214,42.99041 77.07467,55.71551 20.02943,10.47643 33.81373,11.48173 48.10204,27.96365 14.60532,16.79928 22.9395,32.17001 43.18094,21.42901 10.71623,-5.68742 22.17248,-1.82581 30.74566,5.71442 9.68021,8.49213 8.8902,26.21752 17.91239,30.95314 16.77436,8.7831 40.19087,31.45568 59.69129,29.70966 9.84022,-0.86991 16.11335,-4.94749 22.25149,3.22767 5.05011,6.69332 -8.49019,12.16956 1.91004,20.52961 7.96017,6.37535 44.18695,18.46601 47.94404,1.40185 5.40011,16.40243 24.05052,23.73068 31.67068,38.38708 9.82021,18.80998 9.1002,-17.64589 12.88628,-20.74118 0.50001,10.31765 25.98256,33.54568 33.62873,18.96867 2.81006,-5.39745 1.01002,-15.7411 10.47823,-11.03198 8.31018,4.15358 14.1023,6.56133 23.0985,9.41804 10.13321,3.25367 14.0233,9.57702 22.59548,14.10086 7.54017,3.9416 16.72237,-1.56084 24.84554,2.22177 17.33038,8.04218 38.62984,-10.39703 55.66921,-3.94159 17.22437,6.53433 2.33005,51.932394 4.05009,65.662892 3.33007,26.296915 27.62359,37.196602 21.45846,66.774082 -5.00011,23.915859 -24.21052,12.460528 -46.198,15.106158 -17.22437,2.116784 -41.4339,7.196265 -44.60897,-16.799385 -15.71734,5.264463 -20.92945,19.233237 -38.68283,8.572125 -8.47019,-5.052484 -46.91202,-18.5983011 -55.93421,-15.0267657 -18.2044,7.1432707 -14.94933,-1.8788082 -24.68654,-12.037371 -14.81732,-15.4500223 -24.47453,3.9415976 -41.19689,0 -12.35627,-2.8837056 -21.93348,-19.1538443 -34.50175,-22.2756253 -17.62138,-4.365555 -15.79634,-10.926185 -22.9925,-25.291518 -7.17015,-14.365433 -81.44076,-35.873837 -72.78857,-12.910382 -9.68021,-4.285562 -23.36351,-15.555912 -34.63475,-9.973982 -15.63734,7.778206 -19.31542,9.524028 -37.51881,1.454852 -9.95022,-4.391552 -23.83952,-5.026487 -28.44362,-16.402525 -6.64014,-16.376025 -19.36742,-4.338557 -32.67671,-12.381235 -12.40927,-7.48724 -21.85547,-14.52412 -36.8838,-16.05856 -20.16143,-2.03679 -33.36472,-13.78329 -51.27711,-22.03745 -15.58433,-7.16927 -24.65953,-23.20163 -39.55585,-32.27591 -15.63734,-9.52402 -32.83571,-16.24374 -48.39405,-25.92655 0,15.45012 -17.01237,1.13788 -26.29957,-4.78851 -6.38014,-4.15358 -22.8875,-14.86808 -15.61134,-24.63019 z" />
  </g>
</svg>
