<?xml version="1.0" encoding="UTF-8" standalone="no"?>
<!-- Created with Inkscape (http://www.inkscape.org/) -->

<svg
   xmlns:dc="http://purl.org/dc/elements/1.1/"
   xmlns:cc="http://creativecommons.org/ns#"
   xmlns:rdf="http://www.w3.org/1999/02/22-rdf-syntax-ns#"
   xmlns:svg="http://www.w3.org/2000/svg"
   xmlns="http://www.w3.org/2000/svg"
   xmlns:sodipodi="http://sodipodi.sourceforge.net/DTD/sodipodi-0.dtd"
   xmlns:inkscape="http://www.inkscape.org/namespaces/inkscape"
   width="2.9798813mm"
   height="2.6413913mm"
   viewBox="0 0 2.9798811 2.6413916"
   version="1.1"
   id="svg7070"
   inkscape:version="0.92.4 (5da689c313, 2019-01-14)"
   sodipodi:docname="netherlands.svg">
  <defs
     id="defs7064" />
  <sodipodi:namedview
     id="base"
     pagecolor="#ffffff"
     bordercolor="#666666"
     borderopacity="1.0"
     inkscape:pageopacity="0.0"
     inkscape:pageshadow="2"
     inkscape:zoom="1.4"
     inkscape:cx="76.074499"
     inkscape:cy="-125.47006"
     inkscape:document-units="mm"
     inkscape:current-layer="layer1"
     showgrid="false"
     inkscape:window-width="958"
     inkscape:window-height="1008"
     inkscape:window-x="-7"
     inkscape:window-y="0"
     inkscape:window-maximized="0" />
  <metadata
     id="metadata7067">
    <rdf:RDF>
      <cc:Work
         rdf:about="">
        <dc:format>image/svg+xml</dc:format>
        <dc:type
           rdf:resource="http://purl.org/dc/dcmitype/StillImage" />
        <dc:title></dc:title>
      </cc:Work>
    </rdf:RDF>
  </metadata>
  <g
     inkscape:label="Layer 1"
     inkscape:groupmode="layer"
     id="layer1"
     transform="translate(-151.51645,-43.802179)">
    <g
       transform="matrix(0.26458333,0,0,0.26458333,78.214699,-23.777134)"
       id="nl">
      <path
         style="fill:#aaaaaa"
         inkscape:connector-curvature="0"
         d="m 278.44,261.739 c -0.104,0.011 -0.208,0.021 -0.313,0.032 0.336,0.14 0.736,0.614 1.108,0.254 -0.217,-0.192 -0.498,-0.321 -0.795,-0.286 z"
         id="path6448" />
      <path
         style="fill:#aaaaaa"
         inkscape:connector-curvature="0"
         d="m 278.568,261.58 c 0.528,-0.201 0.857,0.698 1.368,0.318 -0.394,-0.189 -0.938,-0.798 -1.368,-0.318 z"
         id="path6450" />
      <path
         style="fill:#aaaaaa"
         inkscape:connector-curvature="0"
         d="m 281.268,257.165 c 0.274,-0.106 0.466,-0.357 0.256,-0.635 -0.234,0.131 -0.376,0.369 -0.256,0.635 z"
         id="path6452" />
      <path
         style="fill:#aaaaaa"
         inkscape:connector-curvature="0"
         d="m 282.001,256.148 c -0.108,0.064 -0.234,0.125 -0.318,0.222 0.106,-0.073 0.212,-0.147 0.318,-0.222 z"
         id="path6454" />
      <path
         style="fill:#aaaaaa"
         inkscape:connector-curvature="0"
         d="m 282.574,255.862 c 0.333,-0.103 0.682,-0.168 0.984,-0.349 -0.345,0.059 -0.688,0.154 -0.984,0.349 z"
         id="path6456" />
      <path
         style="fill:#aaaaaa"
         inkscape:connector-curvature="0"
         d="m 283.969,255.577 c 0.233,-0.005 0.456,-0.059 0.666,-0.159 -0.235,-0.003 -0.457,0.05 -0.666,0.159 z"
         id="path6458" />
      <path
         style="fill:#aaaaaa"
         inkscape:connector-curvature="0"
         d="m 277.046,263.295 c 0.054,-0.589 2.135,-0.125 2.541,-0.127 -0.359,0.365 -0.945,0.638 -1.44,0.405 -0.324,-0.152 -0.98,0.021 -1.101,-0.278 z"
         id="path6482" />
      <path
         style="fill:#aaaaaa"
         inkscape:connector-curvature="0"
         d="m 278.568,262.247 c 0.336,0.248 0.623,0.726 1.112,0.572 -0.039,-0.402 -0.51,-0.302 -0.759,-0.477 0.259,-0.167 0.945,0.094 0.349,-0.286 0.668,0.292 1.375,-0.354 2.064,-0.222 -0.176,-0.394 -0.832,0.042 -1.368,-0.127 -0.225,-0.071 -1.18,-0.384 -0.794,-0.762 0.997,-0.978 1.382,-1.76 1.843,-3.045 0.135,-0.376 0.488,-0.473 0.843,-0.529 0.542,-0.087 1.082,-0.49 1.454,-0.876 0.809,-0.842 2.137,-0.912 3.245,-1.053 0.707,-0.09 1.911,0.779 1.734,1.507 -0.115,0.473 -0.413,0.833 -0.46,1.329 -0.036,0.371 -0.819,-0.048 -1.053,0.343 -0.313,0.524 1.678,0.508 0.546,1.639 -0.105,0.071 -0.218,0.126 -0.338,0.167 -0.274,0.149 0.064,0.388 0.019,0.577 -0.1,0.419 -1.632,0.265 -1.891,0.133 0.222,0.61 -0.576,-0.208 -0.542,0.571 0.37,0.128 0.578,0.566 0.685,0.91 0.208,0.673 -0.367,1.158 -0.671,1.676 -0.099,0.167 0.533,0.894 -0.025,1.047 -1.226,0.338 -0.827,-0.833 -0.306,-1.441 -0.77,-0.316 -2.079,-0.312 -2.321,-1.207 -0.206,0.258 -0.761,0.381 -0.917,0 -0.186,0.312 -0.563,0.207 -0.794,0.032 0.074,0.753 -1.116,0.105 -1.492,0.127 -0.456,0.027 -1.044,0.139 -1.366,-0.286 0.253,-0.448 0.783,-0.319 1.203,-0.319 z"
         id="path6484" />
    </g>
  </g>
</svg>
