<?xml version="1.0" encoding="UTF-8" standalone="no"?>
<!-- Created with Inkscape (http://www.inkscape.org/) -->

<svg
   xmlns:dc="http://purl.org/dc/elements/1.1/"
   xmlns:cc="http://creativecommons.org/ns#"
   xmlns:rdf="http://www.w3.org/1999/02/22-rdf-syntax-ns#"
   xmlns:svg="http://www.w3.org/2000/svg"
   xmlns="http://www.w3.org/2000/svg"
   xmlns:sodipodi="http://sodipodi.sourceforge.net/DTD/sodipodi-0.dtd"
   xmlns:inkscape="http://www.inkscape.org/namespaces/inkscape"
   width="417.89999mm"
   height="429.89999mm"
   viewBox="0 0 417.89999 429.89999"
   version="1.1"
   id="svg7070"
   inkscape:version="0.92.4 (5da689c313, 2019-01-14)"
   sodipodi:docname="nicaragua.svg">
  <defs
     id="defs7064" />
  <sodipodi:namedview
     id="base"
     pagecolor="#ffffff"
     bordercolor="#666666"
     borderopacity="1.0"
     inkscape:pageopacity="0.0"
     inkscape:pageshadow="2"
     inkscape:zoom="1.4"
     inkscape:cx="-159.39407"
     inkscape:cy="-76.60041"
     inkscape:document-units="mm"
     inkscape:current-layer="layer1"
     showgrid="false"
     inkscape:window-width="958"
     inkscape:window-height="1008"
     inkscape:window-x="-7"
     inkscape:window-y="0"
     inkscape:window-maximized="0" />
  <metadata
     id="metadata7067">
    <rdf:RDF>
      <cc:Work
         rdf:about="">
        <dc:format>image/svg+xml</dc:format>
        <dc:type
           rdf:resource="http://purl.org/dc/dcmitype/StillImage" />
        <dc:title />
      </cc:Work>
    </rdf:RDF>
  </metadata>
  <g
     inkscape:label="Layer 1"
     inkscape:groupmode="layer"
     id="layer1"
     transform="translate(-173.08614,344.99784)">
    <path
       inkscape:connector-curvature="0"
       style="fill:#ffffff;stroke-width:26.45950508"
       d="m 177.49168,-149.33892 c 10.58463,4.47113 10.92865,15.61086 24.36944,14.31432 0,-11.93305 17.04101,-7.19721 27.22761,-10.29261 11.08666,-3.33409 4.08024,-18.52134 11.93371,-24.0248 5.87034,-4.10112 15.00289,-0.90003 16.45797,-9.28728 1.80011,-10.58361 -7.59045,-32.06844 -1.00006,-40.45599 6.09036,-7.80523 20.13619,-1.53504 27.78265,-0.53001 9.68057,1.24403 13.5738,-7.27622 19.05112,-13.78521 20.50621,-24.31592 23.25838,-7.01121 44.77065,6.7202 -1.35008,-12.67398 13.99683,-19.65918 22.51733,-25.45375 8.70052,-5.90018 14.79088,-21.14083 25.61252,-22.91358 13.20378,-2.17006 3.10018,-12.03885 12.64774,-20.21469 9.95059,-8.49325 10.18761,-20.00309 20.95624,-28.09963 12.22473,-9.20727 15.50592,7.93723 26.40757,11.21863 13.83881,4.15412 29.87276,-4.76214 44.0026,-6.6412 15.55892,-2.06406 31.56687,-7.09121 45.35268,-14.60543 6.27037,-3.4401 11.29767,-9.31327 18.4951,-10.95412 8.97053,-2.06406 17.86005,1.56105 26.90959,0 -7.67046,3.65111 -11.8537,19.92379 -21.8553,10.95412 -9.45055,16.43109 14.86988,43.63109 6.7204,64.69251 -7.86046,20.4 -24.21043,32.06844 -30.90483,54.2941 -8.31049,27.67621 -4.95029,55.35253 -9.52056,83.29335 -2.22013,13.5735 3.62022,49.425559 -12.51574,51.48942 0.50003,-15.875468 9.52056,-27.46461 6.7204,-44.53071 -10.68963,2.67208 -0.30002,22.11985 -20.16219,28.549339 13.46779,17.357212 3.60021,35.481746 4.21024,54.63811 -3.10018,-5.265155 -3.94023,-10.87472 -2.51014,-16.827996 -1.93012,11.509739 -9.29055,21.72294 -9.23055,33.629491 21.67128,-7.779229 4.60027,21.2202254 0.30002,28.2583328 -10.21361,16.8544962 -17.59604,36.5400772 -4.47027,55.2466282 5.85035,8.308245 16.855,15.981371 -0.90005,23.019478 -10.37261,4.127122 -28.17967,3.440101 -37.1232,-3.651108 -2.70016,-2.328068 -4.97029,-4.974146 -6.8304,-8.017236 -7.57045,-11.139328 -4.97029,-7.14421 -15.13589,-8.890262 -7.80047,-1.37604 -12.67375,-10.768917 -21.19426,-8.996265 -6.91041,1.429042 -12.14472,6.641196 -18.15107,9.922292 -15.05589,8.229243 -45.88172,-19.923687 -60.16956,-24.10421 -10.2136,-2.990088 -13.30979,23.363389 -22.0413,1.561046 C 309.34148,22.961453 292.11646,11.716321 279.2307,-0.6665435 253.67019,-25.194066 243.03356,-58.664852 215.70094,-82.425153 198.0779,-97.586199 160.26666,-127.64378 177.46568,-149.34022 Z"
       id="ni" />
  </g>
</svg>
