<?xml version="1.0" encoding="UTF-8" standalone="no"?>
<!-- Created with Inkscape (http://www.inkscape.org/) -->

<svg
   xmlns:dc="http://purl.org/dc/elements/1.1/"
   xmlns:cc="http://creativecommons.org/ns#"
   xmlns:rdf="http://www.w3.org/1999/02/22-rdf-syntax-ns#"
   xmlns:svg="http://www.w3.org/2000/svg"
   xmlns="http://www.w3.org/2000/svg"
   xmlns:sodipodi="http://sodipodi.sourceforge.net/DTD/sodipodi-0.dtd"
   xmlns:inkscape="http://www.inkscape.org/namespaces/inkscape"
   width="1062.7mm"
   height="970.59998mm"
   viewBox="0 0 1062.7 970.5997"
   version="1.1"
   id="svg7070"
   inkscape:version="0.92.4 (5da689c313, 2019-01-14)"
   sodipodi:docname="nigeria.svg">
  <defs
     id="defs7064" />
  <sodipodi:namedview
     id="base"
     pagecolor="#ffffff"
     bordercolor="#666666"
     borderopacity="1.0"
     inkscape:pageopacity="0.0"
     inkscape:pageshadow="2"
     inkscape:zoom="7.9195959"
     inkscape:cx="6.5337161"
     inkscape:cy="12.073133"
     inkscape:document-units="mm"
     inkscape:current-layer="layer1"
     showgrid="false"
     inkscape:window-width="958"
     inkscape:window-height="1008"
     inkscape:window-x="-7"
     inkscape:window-y="0"
     inkscape:window-maximized="0" />
  <metadata
     id="metadata7067">
    <rdf:RDF>
      <cc:Work
         rdf:about="">
        <dc:format>image/svg+xml</dc:format>
        <dc:type
           rdf:resource="http://purl.org/dc/dcmitype/StillImage" />
        <dc:title />
      </cc:Work>
    </rdf:RDF>
  </metadata>
  <g
     inkscape:label="Layer 1"
     inkscape:groupmode="layer"
     id="layer1"
     transform="translate(-155.71192,925.16034)">
    <g
       transform="matrix(26.458503,0,0,26.458187,-7032.4548,-11646.993)"
       id="ng"
       style="fill:#ffffff">
      <path
         style="fill:#ffffff"
         inkscape:connector-curvature="0"
         id="path5382"
         d="m 286.767,441.527 c 0.403,-0.027 0.547,-0.275 0.22,-0.539 -0.137,0.154 -0.211,0.334 -0.22,0.539 z" />
      <path
         style="fill:#ffffff"
         inkscape:connector-curvature="0"
         id="path5386"
         d="m 287.623,441.337 c 0.105,-0.064 0.212,-0.127 0.317,-0.191 -0.224,0.004 -0.436,0.057 -0.635,0.158 0.106,0.012 0.212,0.022 0.318,0.033 z" />
      <path
         style="fill:#ffffff"
         inkscape:connector-curvature="0"
         id="path5406"
         d="m 271.677,428.123 c 0.396,-1.377 -0.175,-3.016 0.431,-4.314 0.148,-0.318 0.707,-0.037 0.973,-0.344 0.454,-0.523 0.041,-1.158 0.507,-1.682 0.305,-0.343 0.288,-0.886 0.66,-1.103 0.39,-0.228 0.972,-0.713 0.782,-1.267 -0.147,-0.431 -0.344,-0.787 0.23,-0.905 0.806,-0.165 0.155,-1.316 0.072,-1.662 -0.086,-0.352 0.036,-0.662 -0.148,-1.002 -0.158,-0.293 -0.404,-0.525 -0.556,-0.821 -0.312,-0.608 0.141,-1.123 0.321,-1.688 0.217,-0.681 0.064,-1.406 0.113,-2.112 0.059,-0.854 0.288,-1.029 0.885,-1.616 0.514,-0.506 0.737,-1.269 0.719,-1.972 -0.015,-0.594 0.395,-0.947 0.82,-1.301 0.501,-0.416 1.117,-0.531 1.751,-0.557 0.829,-0.033 1.275,-0.332 2.035,-0.524 0.445,-0.113 1.026,0.398 1.394,0.582 0.634,0.318 1.293,0.133 1.844,0.665 0.485,0.471 0.716,1.031 1.045,1.601 0.125,0.216 0.294,0.444 0.544,0.525 0.523,0.171 0.598,-0.417 1.016,-0.463 1.393,-0.154 1.85,-1.402 3.306,-0.369 0.201,0.143 0.425,0.311 0.556,0.524 0.063,0.104 0.445,0.052 0.556,0.111 0.607,0.325 0.849,0.778 1.634,0.808 0.459,0.018 1.417,0.27 1.816,0.092 0.564,-0.251 0.757,-0.982 1.241,-1.348 1.164,-0.877 2.922,-0.953 4.315,-0.821 0.729,0.069 1.382,0.266 2.028,0.606 0.542,0.286 1.224,0.707 1.86,0.473 0.611,-0.225 0.928,-0.924 1.432,-1.303 0.275,-0.207 0.544,-0.401 0.9,-0.421 0.543,-0.029 0.172,-0.135 0.467,-0.342 1.053,-0.736 1.396,0.085 1.948,0.939 0.563,0.872 1.106,1.881 1.187,2.936 0.017,0.204 -0.179,0.851 0.002,0.996 0.224,0.18 0.607,-0.056 0.865,0.084 1.176,0.642 0.127,1.8 0.562,2.602 0.369,0.681 -1.339,1.541 -1.808,1.561 -0.974,0.041 -1.54,1.898 -1.792,2.663 -0.144,0.434 -0.141,0.893 -0.272,1.326 -0.147,0.483 -0.774,0.466 -0.787,1.013 -0.011,0.489 0.276,0.942 -0.1,1.375 -0.319,0.367 -0.776,0.645 -1.204,0.863 0.477,0.094 0.003,1.314 -0.031,1.59 -0.099,0.789 -0.608,1.24 -1.398,1.27 0.073,0.414 -0.245,0.506 -0.465,0.768 -0.275,0.328 -0.191,0.812 -0.268,1.203 -0.177,0.904 -0.451,1.885 -1.055,2.602 -0.559,0.664 0.072,1.148 -0.713,1.77 -0.445,0.352 -0.191,0.646 -0.359,1.092 -0.109,0.293 -0.467,0.459 -0.617,0.736 -0.145,0.266 -0.625,0.107 -0.826,0.027 -0.248,-0.1 -0.22,-0.723 -0.236,-0.941 -0.02,-0.256 -0.499,-0.402 -0.619,-0.697 -0.191,-0.467 -0.816,-0.395 -0.943,-0.936 -0.098,0.334 -0.122,0.924 -0.548,1.018 -0.537,0.117 -0.762,-0.443 -1.2,-0.318 -0.791,0.223 -1.27,1.449 -1.819,2 -0.384,0.385 -2.872,2.48 -2.23,2.955 0.28,0.207 -0.142,1.359 -0.249,1.68 -0.238,0.719 -0.819,1.252 -1.036,1.941 -0.271,-0.07 -0.381,-0.285 -0.256,-0.541 -0.289,0.188 -0.512,-0.098 -0.635,-0.316 0.281,1.043 0.542,1.279 -0.67,1.455 -0.479,0.07 -2.058,0.387 -1.616,-0.598 -0.207,0.398 -0.216,0.506 -0.697,0.477 -0.532,-0.033 -0.44,-0.172 -0.957,-0.51 0.242,0.178 0.535,1.09 -0.041,0.859 -0.386,-0.154 0.185,-1.08 -0.498,-0.732 0.191,0.385 0.355,0.748 0.19,1.176 -0.316,-0.133 -0.679,-1.271 -0.569,-1.619 -0.364,0.314 0.239,1.232 0.051,1.662 -0.263,0.6 -0.261,-0.807 -0.245,-0.932 -0.06,0.174 -0.155,1.137 -0.189,0.285 -0.009,0.252 -0.043,0.533 -0.221,0.73 -0.009,-0.229 -0.073,-0.439 -0.19,-0.635 0.136,0.273 0.125,0.713 -0.293,0.674 -0.754,-0.066 -0.547,0.105 -0.756,-0.611 0.008,0.678 -0.521,1.268 -0.635,0.287 0.008,0.637 -0.158,0.219 -0.622,-0.008 -0.458,-0.225 -0.766,-0.67 -0.998,-1.105 -0.218,-0.408 -0.492,-0.852 -0.376,-1.328 0.077,-0.316 0.119,-0.607 -0.326,-0.482 -0.082,-0.344 -0.045,-0.539 0.308,-0.609 0.684,-0.139 0.044,-0.385 0.552,-0.691 -0.362,0.027 -0.683,0.52 -1.039,0.438 -1.138,-0.256 0.418,-0.654 0.69,-0.693 -0.184,-0.223 -0.396,-0.254 -0.635,-0.094 0.01,-0.139 0.02,-0.275 0.031,-0.414 -0.069,0.396 -0.57,0.684 -0.763,0.189 -0.175,-0.445 0.361,-0.641 0.604,-0.889 -0.289,0.117 -0.548,0.318 -0.763,0.541 -0.436,-0.992 -1.399,-2.088 -2.482,-2.363 -0.526,-0.135 -1.157,-0.203 -1.7,-0.17 -0.424,0.025 -1.042,0.209 -1.407,-0.104 0.461,0.09 1.139,-0.217 1.398,-0.604 -0.472,-0.021 -0.807,0.533 -1.271,0.158 -0.166,0.199 -0.208,0.422 -0.127,0.668 -0.761,0.1 -1.537,-0.047 -2.29,0.127 -0.025,-0.477 0.243,-0.896 0.256,-1.365 0.013,-0.486 -0.204,-0.844 -0.083,-1.346 0.195,-0.821 0.212,-2.395 -0.268,-3.135 z" />
    </g>
  </g>
</svg>
