<?xml version="1.0" encoding="UTF-8" standalone="no"?>
<!-- Created with Inkscape (http://www.inkscape.org/) -->

<svg
   xmlns:dc="http://purl.org/dc/elements/1.1/"
   xmlns:cc="http://creativecommons.org/ns#"
   xmlns:rdf="http://www.w3.org/1999/02/22-rdf-syntax-ns#"
   xmlns:svg="http://www.w3.org/2000/svg"
   xmlns="http://www.w3.org/2000/svg"
   xmlns:sodipodi="http://sodipodi.sourceforge.net/DTD/sodipodi-0.dtd"
   xmlns:inkscape="http://www.inkscape.org/namespaces/inkscape"
   width="1390mm"
   height="1189.8mm"
   viewBox="0 0 1390.0001 1189.7997"
   version="1.1"
   id="svg7070"
   inkscape:version="0.92.4 (5da689c313, 2019-01-14)"
   sodipodi:docname="niger.svg">
  <defs
     id="defs7064" />
  <sodipodi:namedview
     id="base"
     pagecolor="#ffffff"
     bordercolor="#666666"
     borderopacity="1.0"
     inkscape:pageopacity="0.0"
     inkscape:pageshadow="2"
     inkscape:zoom="7.9195959"
     inkscape:cx="18.018027"
     inkscape:cy="13.682357"
     inkscape:document-units="mm"
     inkscape:current-layer="layer1"
     showgrid="false"
     inkscape:window-width="958"
     inkscape:window-height="1008"
     inkscape:window-x="-7"
     inkscape:window-y="0"
     inkscape:window-maximized="0" />
  <metadata
     id="metadata7067">
    <rdf:RDF>
      <cc:Work
         rdf:about="">
        <dc:format>image/svg+xml</dc:format>
        <dc:type
           rdf:resource="http://purl.org/dc/dcmitype/StillImage" />
        <dc:title />
      </cc:Work>
    </rdf:RDF>
  </metadata>
  <g
     inkscape:label="Layer 1"
     inkscape:groupmode="layer"
     id="layer1"
     transform="translate(-152.67336,1143.9346)">
    <path
       style="fill:#ffffff;stroke-width:26.45830536"
       inkscape:connector-curvature="0"
       id="ne"
       d="m 157.70633,-229.66707 c -12.35603,-14.60493 2.09,-41.24832 0.8,-57.96995 14.86903,5.21198 33.23107,3.73098 48.84211,3.88898 18.41504,0.21 23.09805,-9.23396 33.99907,-21.85451 13.14903,-15.21343 28.41606,-11.42995 47.1751,-12.88514 23.91805,-1.85199 47.7571,-4.04799 71.75516,-4.52398 11.32402,-0.21 22.41004,-0.21 33.65507,1.11099 22.17205,2.59299 1.3,-6.79997 11.69402,-9.44596 16.61604,-4.25998 38.39109,18.17683 45.6411,-0.81999 6.38002,-16.66863 25.90306,-18.99702 32.49107,-34.05166 6.72002,-15.47814 6.51002,-32.06737 15.05504,-47.1221 17.83303,-31.45887 13.83703,-66.30432 15.63703,-102.23457 2.57001,-51.24959 1.75,-102.57857 1.45,-153.85456 -0.2,-31.88216 2.62001,-40.19013 34.29008,-47.5455 28.04606,-6.50897 57.04412,-8.06996 84.98418,-14.92243 32.99307,-8.12297 54.71612,-40.53393 78.07817,-63.28804 33.97307,-33.01986 66.49014,-68.97661 103.92922,-98.10708 76.27917,-59.37225 160.91935,-113.13533 242.41155,-165.12583 38.3911,-24.5003 75.2481,-51.3025 113.6122,-75.8028 35.9311,-22.9393 84.1382,0.58 122.3963,11.0331 33.4171,9.155 60.3521,30.9033 83.1852,56.3296 9.84,10.9801 12.886,11.5093 24.924,3.2019 17.0921,-11.6945 35.4281,-21.1137 53.2611,-31.5911 8.4701,44.5821 15.4251,88.1853 18.9171,133.29651 1.4,17.96513 11.907,30.32118 21.194,44.92612 5.26,8.33396 10.107,17.09202 13.7051,26.32589 3.36,8.65196 -6.1401,15.66323 1.35,24.20929 9.58,11.00666 25.718,20.39932 29.766,35.26875 4.97,18.20333 -15.743,37.01515 -17.41,55.24477 -5.05,54.34527 -13.705,108.50525 -13.705,163.22082 0,23.5743 -2.3801,47.0427 -3.0701,70.5905 -0.6,18.94412 2.0401,42.12152 -4.29,60.27185 -5.45,15.66333 -21.061,28.99827 -31.195,41.77752 -16.3781,20.71681 -34.2101,40.24303 -50.8001,60.80104 -27.3051,33.76066 -50.4821,72.4426 -65.6162,113.00303 -3.68,9.78996 -8.07,19.31452 -14.738,27.46368 -3.2,3.86299 -9.87,2.77799 -12.303,7.54097 -7.5701,14.81664 10.716,56.83226 13.097,73.15699 -8.04,0 -18.3621,-2.03699 -25.6121,2.69899 -7.67,5.00098 -6.38,10.39816 -15.107,14.23454 -19.447,8.57297 -33.5231,16.48353 -48.2871,32.01447 -22.6751,23.918196 -36.2211,13.52014 -63.8171,2.30199 -32.2801,-13.09685 -61.2782,-14.86954 -95.7532,-15.76914 -29.4481,-0.76999 -54.8752,4.62998 -77.3112,24.870699 -7.65,6.905971 -13.229,14.816638 -19.05006,23.177403 -10.02802,14.446239 -16.08703,5.264977 -30.61306,6.614972 -33.97208,3.095987 -48.55111,-14.049241 -76.91417,-25.399893 -20.74304,-8.280961 -44.4761,-37.517741 -69.45315,-24.315101 -9.45002,5.00098 -16.58904,13.28205 -25.82306,18.653024 -7.12001,4.100983 -18.28304,-2.089994 -21.48504,4.76298 -13.12303,28.257382 -35.93008,-6.746974 -41.27509,-18.494224 -12.59403,-27.75468 -31.90807,-38.36444 -60.08613,-43.47091 -16.00804,-2.85699 -28.12606,-16.43054 -44.5031,-17.93863 -14.50003,-1.32299 -20.24104,13.73184 -35.69307,13.41434 -27.86006,-0.55999 -53.28712,-2.88398 -73.66016,20.26692 -6.67002,7.59397 -13.70503,11.32415 -14.63104,21.74871 -1.54,17.27722 -2.06,31.829263 -12.40902,46.407702 -13.97003,19.658417 -31.00907,32.649463 -30.05707,58.816653 0.2,5.4769766 -2.8,61.277242 -6.19001,59.37225 -16.56304,-9.365961 -52.28211,-72.363296 -69.63815,-70.273104 -5.48001,0.659997 -7.73002,7.328969 -12.56803,9.180961 -6.43001,2.46099 -20.74304,0.639997 -25.05605,7.2229695 -2.20001,3.3599859 7.44001,31.3000685 0.8,31.0884695 -5.90001,-0.19 -19.47404,-25.029495 -22.25205,-29.6067757 -9.07002,-14.9224373 -2.06,-18.0180243 10.39802,-22.9922033 -3.97,-8.281965 -4.76001,-19.870116 -12.59402,-25.876191 -14.12903,-10.794955 -22.86005,11.721051 -37.51808,9.127961 -27.27806,-4.841979 -71.83416,-47.942298 -59.16113,-76.543682 7.65001,5.55598 15.13403,5.76798 23.46905,1.693 -4.08001,-3.43999 -57.01813,-40.61333 -58.79113,-37.01505 3.86001,-7.91096 -15.74203,-22.7276 -18.30904,-31.56466 -4.36001,-15.23994 -0.8,-29.36858 -15.29303,-39.92544 z" />
  </g>
</svg>
