<?xml version="1.0" encoding="UTF-8" standalone="no"?>
<!-- Created with Inkscape (http://www.inkscape.org/) -->

<svg
   xmlns:dc="http://purl.org/dc/elements/1.1/"
   xmlns:cc="http://creativecommons.org/ns#"
   xmlns:rdf="http://www.w3.org/1999/02/22-rdf-syntax-ns#"
   xmlns:svg="http://www.w3.org/2000/svg"
   xmlns="http://www.w3.org/2000/svg"
   xmlns:sodipodi="http://sodipodi.sourceforge.net/DTD/sodipodi-0.dtd"
   xmlns:inkscape="http://www.inkscape.org/namespaces/inkscape"
   width="1334.7999mm"
   height="1340.6mm"
   viewBox="0 0 1334.7999 1340.5997"
   version="1.1"
   id="svg7070"
   inkscape:version="0.92.4 (5da689c313, 2019-01-14)"
   sodipodi:docname="pakistan.svg">
  <defs
     id="defs7064" />
  <sodipodi:namedview
     id="base"
     pagecolor="#ffffff"
     bordercolor="#666666"
     borderopacity="1.0"
     inkscape:pageopacity="0.0"
     inkscape:pageshadow="2"
     inkscape:zoom="7.9195959"
     inkscape:cx="15.610846"
     inkscape:cy="10.184711"
     inkscape:document-units="mm"
     inkscape:current-layer="layer1"
     showgrid="false"
     inkscape:window-width="958"
     inkscape:window-height="1008"
     inkscape:window-x="-7"
     inkscape:window-y="0"
     inkscape:window-maximized="0" />
  <metadata
     id="metadata7067">
    <rdf:RDF>
      <cc:Work
         rdf:about="">
        <dc:format>image/svg+xml</dc:format>
        <dc:type
           rdf:resource="http://purl.org/dc/dcmitype/StillImage" />
        <dc:title />
      </cc:Work>
    </rdf:RDF>
  </metadata>
  <g
     inkscape:label="Layer 1"
     inkscape:groupmode="layer"
     id="layer1"
     transform="translate(-153.99183,1302.4365)">
    <path
       style="fill:#ffffff;stroke-width:26.45819092"
       inkscape:connector-curvature="0"
       id="pk"
       d="m 153.99183,-578.01294 c 37.0955,8.3338 71.06796,26.56346 107.39545,37.4376 43.26058,12.96428 78.00105,-0.41999 121.12863,-1.26997 15.31921,-0.32 28.23138,5.89985 43.10058,8.0698 15.26721,2.22195 25.87735,-8.57279 39.23853,-13.46697 17.64824,-6.40285 34.18446,0.84998 51.7797,-0.0794 14.8692,-0.73998 28.89239,-8.3338 43.31258,-11.66782 16.74823,-3.86291 49.29267,-6.64084 59.92881,-22.35676 6.35009,-9.36577 -8.76012,-14.47235 -7.01009,-23.57383 4.31006,-22.03927 -5.90008,-39.84523 -3.81005,-61.32892 2.14003,-21.77467 6.40008,-16.87999 19.26226,-29.76488 7.9101,-7.9108 9.87013,-21.11328 20.37227,-26.58995 10.92815,-5.74086 14.6582,5.87386 25.24234,7.11683 18.07125,2.08995 34.02546,-3.65092 49.84767,-12.09121 -6.51008,-6.79984 -18.28224,-7.22283 -21.00828,-17.64728 15.53121,-0.28999 31.56543,-10.02745 39.87354,-22.72715 9.82013,-15.00153 34.18446,10.50365 34.92547,-8.36079 11.58916,5.44986 16.40422,2.88393 23.49532,14.94853 5.98008,10.18626 15.3192,6.69384 23.52131,0.55999 21.9873,-16.5096 16.48423,-46.98886 7.70011,-68.81643 -5.61008,-13.96967 5.34007,-16.16561 8.33011,-28.20392 2.33003,-9.39278 2.62003,-23.70603 -0.70001,-32.91331 -4.00005,-10.92703 7.5401,-12.83199 15.29321,-14.57824 12.80617,-2.85793 19.55326,1.45496 31.27442,-7.93781 14.26119,-11.42973 13.86418,-11.98531 8.04011,-26.08727 -4.89007,-11.80012 -11.77416,-24.7644 -22.88631,-31.77573 -21.7493,-13.75797 -25.10934,-33.49537 5.32007,-25.18769 20.71728,5.66186 70.90896,12.3558 76.57103,-17.14458 1.67002,-8.7048 1.64002,-15.2396 -5.16007,-21.1397 -2.91004,-2.5129 -15.98121,-10.9534 -13.46718,-16.1656 2.22003,-2.302 5.05007,-3.2539 8.44011,-2.8579 -3.94005,-8.3338 2.91004,-14.7899 7.51011,-20.6106 4.26005,-5.3979 19.31526,-17.7266 19.31526,-24.3411 0.079,-6.2708 2.09002,-11.8531 6.06008,-16.7477 3.04004,-4.2859 -7.5401,-8.6518 -8.97012,-11.4298 -1.24002,-3.0429 -0.40001,-5.3178 2.41003,-6.7728 4.71006,-4.9739 -3.33005,-14.975 -4.68006,-19.6316 -1.80003,-6.1649 -12.48817,-20.8751 -16.72223,-26.1931 -6.08008,-7.6728 -16.03322,-12.8056 -23.44232,-19.2083 -10.02813,-8.6248 20.13528,-45.5866 29.87241,-42.544 13.38818,4.1799 14.39319,-10.4773 22.3303,-18.4675 8.39011,-8.4668 19.31526,-13.9167 30.61337,-17.4884 24.2364,-7.6469 50.1657,-7.7258 75.3541,-8.7048 12.7271,-0.5 30.5074,-7.1439 42.2815,-1.244 11.5882,5.7939 12.4612,8.9958 23.1243,1.085 14.6052,-10.8477 50.9857,-28.9447 61.3049,-3.8629 10.3981,-18.6263 37.3335,-3.3339 45.5886,9.3397 7.5901,11.6679 28.6284,5.2919 40.8785,16.7213 8.6801,8.1228 14.3402,17.3033 17.3303,28.7859 2.2,8.3078 1.4,22.5949 4.63,29.7385 3.5201,7.8048 21.4053,18.3881 28.0734,24.4204 8.6001,7.7259 20.2143,-5.2118 28.2044,-7.2758 1.61,36.2735 88.5312,51.6455 114.3815,40.3215 -8.1801,7.1699 -58.2888,31.8816 -53.8437,45.3485 1.72,5.2919 -3.49,16.8535 -10.2921,12.3028 -8.1201,-5.3968 -9.6602,8.5728 -11.8542,14.5782 -2.3,6.3238 -52.4677,14.2607 -62.2568,19.1554 -27.4644,13.7845 -46.9377,2.461 -76.9691,-3.7839 -24.2883,-5.0269 -56.9647,-20.8486 -80.5131,-6.3498 -16.0082,9.8687 -25.1093,32.9398 -4.84,41.4328 18.5472,7.8048 -7.1701,20.4782 8.1701,25.37286 5.0501,1.61396 39.1065,1.79895 25.7973,14.92214 -12.0911,11.93241 -27.1723,16.69479 -5.66,31.88153 17.9922,12.69969 -2.9901,29.81777 8.9201,42.57047 6.8001,7.30282 14.3672,10.95343 22.1983,16.85349 3.55,2.32794 5.6101,5.58286 6.2201,9.76276 0.9,11.80022 3.28,9.15478 15.8492,11.87952 21.4843,4.68288 13.5992,27.86002 37.0685,32.43711 12.7261,2.51394 33.9994,3.54492 43.0746,14.23426 11.1921,13.17598 -24.3154,26.00797 -31.4595,29.34159 -18.2562,8.43979 -37.2275,23.25633 -20.6642,43.65524 10.9271,13.44048 -6.6101,49.31711 18.7852,49.8198 -3.97,9.33977 -27.0404,15.29253 -29.4484,26.90745 -3.39,16.05981 -35.1105,37.64929 -21.0343,51.27506 20.2933,19.63162 -24.1573,28.52141 -33.6294,34.81835 -9.3702,6.21785 -7.1701,21.66878 -8.7301,31.29945 -2.6701,16.2714 -7.0901,33.0456 -14.4462,47.88834 -10.9272,22.09227 -33.8145,26.72235 -49.3457,43.65524 -6.2401,6.82584 -8.3901,15.61003 -9.2101,24.60561 -1.43,15.90111 -15.0822,25.10839 -20.7173,39.13095 -12.0122,29.76488 -29.4754,22.27736 -57.8388,29.84428 -9.6601,2.59294 -20.5583,12.5145 -30.9574,11.50912 -12.5142,-1.21697 -18.2033,-16.2979 -24.3683,-25.00249 -14.5782,-20.39891 -36.24852,10.55654 -41.9106,23.33563 -10.02714,22.59486 -26.43236,42.01489 -35.56048,64.26575 -11.21815,27.35724 4.23006,42.67627 30.37541,49.23781 24.39433,6.11185 36.40647,7.38182 34.07847,37.2524 -1.3,17.06518 -4.53007,55.24366 24.7913,55.56115 8.4401,0.11 18.2043,-6.05885 25.6654,0.73999 7.4101,6.74683 1.45,25.13489 8.0201,34.58026 13.5202,19.39343 28.4694,33.918779 34.8194,57.8894 2.4301,9.180778 7.7002,6.428844 -1.24,12.80549 -7.1401,5.106877 4.5801,22.092266 10.5842,23.335736 -15.8752,11.958911 -32.4655,26.98684721 -45.8796,4.55089 -6.2401,-10.450748 -15.7693,-2.645936 -23.6544,0.529987 -3.97,1.110973 -7.8601,2.433941 -11.6941,3.915905 -6.3501,3.280921 -2.3301,11.1916296 -9.1801,14.1019592 -22.62235,9.5777684 -48.02269,-12.2499042 -71.75601,-10.9534352 -12.67417,0.689983 -29.5284,2.936929 -41.32856,-2.90993 0.70001,9.3127753 9.02012,35.294547 -7.86011,35.294547 -14.28819,0 -36.03748,0.369991 -34.97847,20.187212 -1.00001,-11.482623 -2.36003,-11.218129 -4.18005,0.81998 -5.61008,-4.867882 -9.34013,-11.58852 -13.41419,-17.647273 2.99004,5.291872 3.84006,10.900536 2.43004,16.827093 -6.17009,-3.835907 -11.50916,-8.571793 -15.98122,-14.287155 3.86005,15.371929 -8.33011,6.693838 -17.62124,11.747216 0,-4.471892 0,-8.968783 0,-13.440575 -10.23913,7.328823 -23.31031,-6.534842 -11.64215,-13.4404747 -13.73219,2.5659377 -33.04645,-17.409179 -18.57325,-28.5743093 -15.98122,-9.207777 -7.3801,-35.664937 -20.61228,-42.305877 -7.4101,-3.677911 -44.92661,-5.291872 -43.84159,-17.250383 2.12003,-24.235213 -3.39005,-31.405243 -15.37221,-50.560673 -8.94012,-14.20776 -35.69348,-28.83891 -40.27054,-3.35992 14.44619,-0.70999 24.07732,-13.57277 31.88243,5.89985 -15.42521,-9.94775 -32.72944,-3.8099 -48.60466,1.19098 -16.56222,5.21187 -32.41144,-0.55999 -48.10165,4.17989 -8.55011,2.56594 -68.07791,1.74596 -52.83771,18.17637 -6.96009,2.06395 -11.48315,-1.21698 -11.77416,-8.3868 -23.01931,11.87941 -41.32856,-22.54196 -53.79072,-16.8271 1.91002,2.80394 3.86005,5.63587 5.85008,8.4138 -11.61516,2.38094 -59.1348,-12.88489 -47.04264,15.10734 -12.09216,-6.13786 -103.00439,-12.85839 -95.01328,10.080352 -6.11008,-0.259993 -10.84815,-9.154782 -15.82221,-11.958812 -8.60012,-4.89488 -8.63012,6.64084 -13.86519,9.709767 -21.14029,12.302802 -36.56549,-1.666957 -35.82448,-20.346007 0.90001,-25.16129 -5.00007,-116.09629 43.68359,-105.14286 -14.2882,-37.54349 72.12597,-17.19748 76.33302,-37.80808 1.82003,-8.99579 5.13007,-43.23186 1.32002,-46.24799 -9.21012,-7.30282 -21.37929,-2.01095 -31.80343,-2.69893 -14.8962,-0.92998 -12.67417,-25.53168 -13.04417,-35.61204 -0.70001,-19.41993 -6.83009,-44.36953 -12.91218,-62.94288 -2.83003,-8.57279 -17.96524,-9.12778 -25.53234,-13.81086 -12.59417,-7.75182 -25.50634,-12.4616 -38.84152,-18.62625 -29.5274,-13.67857 -41.67257,-33.68059 -56.67477,-60.98493 -16.08622,-29.0506 -41.56656,-52.09524 -64.55887,-75.24568 z" />
  </g>
</svg>
