<?xml version="1.0" encoding="UTF-8" standalone="no"?>
<!-- Created with Inkscape (http://www.inkscape.org/) -->

<svg
   xmlns:dc="http://purl.org/dc/elements/1.1/"
   xmlns:cc="http://creativecommons.org/ns#"
   xmlns:rdf="http://www.w3.org/1999/02/22-rdf-syntax-ns#"
   xmlns:svg="http://www.w3.org/2000/svg"
   xmlns="http://www.w3.org/2000/svg"
   xmlns:sodipodi="http://sodipodi.sourceforge.net/DTD/sodipodi-0.dtd"
   xmlns:inkscape="http://www.inkscape.org/namespaces/inkscape"
   width="752.20001mm"
   height="839.70001mm"
   viewBox="0 0 752.19997 839.70005"
   version="1.1"
   id="svg7070"
   inkscape:version="0.92.4 (5da689c313, 2019-01-14)"
   sodipodi:docname="paraguay.svg">
  <defs
     id="defs7064" />
  <sodipodi:namedview
     id="base"
     pagecolor="#ffffff"
     bordercolor="#666666"
     borderopacity="1.0"
     inkscape:pageopacity="0.0"
     inkscape:pageshadow="2"
     inkscape:zoom="1.4"
     inkscape:cx="-196.17084"
     inkscape:cy="-11.383344"
     inkscape:document-units="mm"
     inkscape:current-layer="layer1"
     showgrid="false"
     inkscape:window-width="958"
     inkscape:window-height="1008"
     inkscape:window-x="-7"
     inkscape:window-y="0"
     inkscape:window-maximized="0" />
  <metadata
     id="metadata7067">
    <rdf:RDF>
      <cc:Work
         rdf:about="">
        <dc:format>image/svg+xml</dc:format>
        <dc:type
           rdf:resource="http://purl.org/dc/dcmitype/StillImage" />
        <dc:title />
      </cc:Work>
    </rdf:RDF>
  </metadata>
  <g
     inkscape:label="Layer 1"
     inkscape:groupmode="layer"
     id="layer1"
     transform="translate(-209.28163,737.54249)">
    <path
       inkscape:connector-curvature="0"
       style="fill:#ffffff;stroke-width:26.45815849"
       d="m 209.28163,-438.24475 c 8.1801,-33.38957 12.77915,-68.2079 16.7482,-102.31184 2.20003,-18.91723 -0.50001,-36.43219 -1.77002,-55.19072 -1.22002,-18.14994 8.2501,-34.05095 16.03419,-49.76685 11.08613,-22.38314 10.05412,-54.47634 38.57646,-58.70953 35.29642,-5.21187 71.27986,-12.56739 105.38526,-23.09762 55.48367,-17.14457 95.41015,-13.07008 145.57575,14.86922 19.94923,11.11223 47.14856,25.74336 48.70958,51.61891 1.00001,15.50421 12.91215,63.04862 29.15835,68.0492 -10.42513,12.35569 6.38007,16.80058 9.21011,25.98135 2.14002,6.98482 -0.026,29.05057 -1.16002,36.93497 -1.85002,5.58286 -2.88003,11.32382 -3.18003,17.19747 1.00001,7.75181 6.56007,15.45131 3.92004,23.57381 -3.12004,9.65676 -8.5501,22.11855 -7.49009,32.14599 0.60001,5.95286 62.60075,24.0765 71.64986,24.2353 13.30916,0.25999 29.21035,5.74085 42.1755,5.10587 12.56715,-0.65998 11.48314,-29.28857 24.02429,-20.37239 12.30315,8.73078 32.62339,19.07602 47.83757,21.19257 11.35014,1.56096 12.64716,4.76188 14.81618,17.19757 2.20003,12.67318 11.21914,23.52081 13.01816,38.44294 2.33003,19.23471 19.31423,29.28866 21.53726,48.36468 2.51003,21.74816 7.78009,65.93245 37.57144,63.04862 16.5892,-1.61395 27.80734,-14.04904 43.65653,-17.14457 14.63117,-2.83092 25.77031,14.73694 36.19543,21.85396 -6.46008,4.65688 -7.09008,11.00642 -3.68004,17.72665 6.69008,13.12307 -11.58914,20.2666 -8.1501,32.80758 3.62004,13.22877 -1.67002,26.72223 -4.08005,39.63351 -2.30003,12.40869 2.06002,23.9707 -4.52005,35.29461 -11.43014,19.63131 9.42011,62.46624 11.58913,84.637684 0.70001,7.329817 1.00002,49.2907656 -9.15011,51.2227172 -4.95005,0.8999774 -22.93927,22.4354378 -20.87525,27.1713198 2.09003,4.869878 -16.48419,4.229894 -19.18322,5.639858 -5.34007,2.699933 -8.2801,11.324717 -10.58313,16.271593 -2.09003,4.599885 -13.07016,36.750079 -22.04026,28.574284 -22.35727,-20.37249 -35.26943,-3.099922 -45.45555,18.203544 -6.64008,-2.539936 -11.72114,-13.440663 -19.20923,-13.440663 -9.66011,0 -14.87018,5.049873 -24.18329,-0.499988 -9.13011,-5.479863 -14.86918,3.569911 -23.83928,3.859904 -8.62011,0.199995 -17.09221,-4.599885 -25.2153,-6.829829 -27.22533,-7.279818 -54.58366,-19.129521 -83.397,-16.165595 -13.65317,1.399964 -21.90826,11.005724 -26.67032,-5.479863 -0.90001,-3.099923 10.18612,-26.77533 13.22916,-28.786279 29.07834,-19.128521 -2.38003,-70.906224 25.0293,-84.346887 12.67415,-6.239844 15.84919,-32.35819 22.72827,-45.215868 12.46215,-23.203722 -5.87007,-40.718682 -25.1623,-53.577062 -15.71619,-10.45083 -36.69744,-9.44576 -50.0066,-20.61058 -7.8801,-6.66783 -17.93922,-9.04877 -27.80833,-10.95343 -12.11815,-2.32794 -20.47825,-12.03829 -30.77137,-17.93835 -22.99228,-13.17587 -42.78351,-24.60558 -63.84477,-41.48556 -23.07127,-18.44103 -44.42353,-14.15494 -70.29984,-24.49988 -16.03419,-6.40284 -50.6686,-10.39784 -56.03967,-30.69083 -5.32006,-19.89621 -50.6416,-35.13582 -65.82979,-48.84088 -16.06019,-14.41944 -25.87631,-31.51111 -36.90944,-49.60816 -12.35615,-20.37239 -34.0254,-26.45764 -47.86357,-45.32196 z"
       id="py" />
  </g>
</svg>
