<?xml version="1.0" encoding="UTF-8" standalone="no"?>
<!-- Created with Inkscape (http://www.inkscape.org/) -->

<svg
   xmlns:dc="http://purl.org/dc/elements/1.1/"
   xmlns:cc="http://creativecommons.org/ns#"
   xmlns:rdf="http://www.w3.org/1999/02/22-rdf-syntax-ns#"
   xmlns:svg="http://www.w3.org/2000/svg"
   xmlns="http://www.w3.org/2000/svg"
   xmlns:sodipodi="http://sodipodi.sourceforge.net/DTD/sodipodi-0.dtd"
   xmlns:inkscape="http://www.inkscape.org/namespaces/inkscape"
   width="1187.4mm"
   height="1844.7001mm"
   viewBox="0 0 1187.4 1844.7002"
   version="1.1"
   id="svg7070"
   inkscape:version="0.92.4 (5da689c313, 2019-01-14)"
   sodipodi:docname="peru.svg">
  <defs
     id="defs7064" />
  <sodipodi:namedview
     id="base"
     pagecolor="#ffffff"
     bordercolor="#666666"
     borderopacity="1.0"
     inkscape:pageopacity="0.0"
     inkscape:pageshadow="2"
     inkscape:zoom="1.4"
     inkscape:cx="-31.370978"
     inkscape:cy="-28.914497"
     inkscape:document-units="mm"
     inkscape:current-layer="layer1"
     showgrid="false"
     inkscape:window-width="958"
     inkscape:window-height="1008"
     inkscape:window-x="-7"
     inkscape:window-y="0"
     inkscape:window-maximized="0" />
  <metadata
     id="metadata7067">
    <rdf:RDF>
      <cc:Work
         rdf:about="">
        <dc:format>image/svg+xml</dc:format>
        <dc:type
           rdf:resource="http://purl.org/dc/dcmitype/StillImage" />
        <dc:title />
      </cc:Work>
    </rdf:RDF>
  </metadata>
  <g
     inkscape:label="Layer 1"
     inkscape:groupmode="layer"
     id="layer1"
     transform="translate(-193.33189,1747.181)">
    <path
       inkscape:connector-curvature="0"
       style="fill:#ffffff;stroke-width:26.45905685"
       d="m 193.33189,-1299.1622 c 11.6424,-24.0246 18.04562,-40.5086 36.35524,-60.9877 8.17028,-9.1552 14.4725,-20.1088 24.34183,-27.5967 7.17025,-5.4771 22.70278,-12.7531 23.3638,-23.2572 11.5894,3.307 23.83981,50.748 13.75847,56.7013 -7.33025,4.2861 -15.71654,0.42 -21.00772,7.9642 -6.0302,8.5732 -4.68016,20.2675 7.28025,21.9609 -9.87034,13.1236 -5.45018,33.1265 10.10735,16.3251 13.65246,-14.7376 18.86464,-7.7522 31.85608,3.2541 11.11338,9.4462 23.83982,-4.8681 32.59812,9.3662 8.9703,14.5788 9.29032,38.7622 30.13703,42.678 17.6216,3.3071 19.50066,5.4772 25.42787,-13.7585 4.74016,-15.3462 21.64374,-19.1827 22.41076,-34.82 1.06004,-21.1935 4.36015,-40.4026 13.07045,-60.0616 4.47015,-10.1337 10.50436,-17.41 10.68936,-29.0518 0.10001,-7.3822 8.6803,-27.8083 12.83344,-7.9642 2.8001,-4.5511 3.36012,-9.3662 1.64006,-14.3672 -0.70003,-6.4561 8.7603,-13.4411 12.19741,-17.992 8.97031,-11.9329 20.18869,-20.7702 33.70915,-26.988 29.42301,-13.4941 63.89919,-18.4419 90.7551,-37.0954 56.51693,-39.2121 95.67727,-97.9772 107.95369,-164.9447 4.60016,4.8681 10.18735,6.8261 16.80157,5.8471 -8.31028,-19.3679 0.40002,-36.5396 -11.16538,-53.0765 -4.55015,-6.5091 -27.19993,-26.3001 -25.79788,-34.3701 9.52033,1.64 20.66471,4.9211 29.71402,-0.48 8.9403,-5.3181 6.11021,-7.0382 16.19255,-3.3071 17.4366,6.4562 30.32304,13.3882 42.33545,27.8612 15.63753,18.8652 24.47483,25.8503 31.96209,49.9279 3.1201,10.0808 -0.80003,18.2831 13.09744,19.4737 13.41546,1.1911 9.92034,6.5622 19.20966,14.8435 18.01862,16.1135 31.30107,7.5412 37.57228,35.0316 4.87017,21.3523 3.94014,26.4588 26.69692,33.2853 24.47483,7.3291 1.38004,35.9046 13.86447,50.1395 6.77023,7.7522 17.35759,10.3454 27.25393,9.9222 6.16021,-0.82 12.38242,-1.349 18.62664,-1.64 8.25028,0.053 17.91361,4.9211 25.24186,4.6571 16.85455,-0.61 36.80525,-12.7532 44.10855,-27.4908 7.7202,-15.5048 29.0519,14.1555 38.2593,14.8699 13.8914,1.085 35.3762,-19.0768 45.2455,-11.7741 7.9103,5.7941 14.8705,14.5788 22.4908,19.7912 7.3002,5.0011 24.4748,3.6251 28.972,8.4142 18.3636,19.4738 18.6546,26.5118 4.3101,49.24 -11.5094,18.2037 -33.8411,49.3458 -37.0163,70.5393 -3.8401,25.3212 25.3749,5.4772 36.3283,15.0817 8.8403,7.6991 15.7435,18.0449 22.0147,27.914 7.2003,11.2716 2.3301,29.29 -7.9902,12.3564 -2.2501,2.778 -4.5002,5.5831 -6.7503,8.3612 -13.0974,-17.7804 -42.1224,-29.3429 -58.66,-8.4672 -18.8126,23.7601 -59.824,17.4628 -86.8919,24.6597 -14.1825,3.7841 -21.0088,19.4737 -35.0582,23.8659 -14.76454,4.6041 -9.95037,10.5306 -19.79171,19.3679 -23.5488,21.2464 -39.87436,15.1345 -40.21837,51.5155 -0.1,12.6208 0.60002,23.2043 -6.75023,34.2113 -7.04024,10.4512 -15.45153,20.876 -12.64743,34.2642 2.9101,13.891 14.8705,33.6293 -0.60002,44.398 -13.04445,8.9962 -25.40087,13.5999 -36.11624,26.1414 -7.81026,9.1552 -11.8804,19.5267 -9.37032,31.5655 1.35005,5.8471 3.39012,11.4831 6.09021,16.8543 -6.53022,2.831 -13.30945,6.3501 -18.20462,11.6683 -18.94465,20.39982 36.96426,38.07439 14.02348,52.15048 11.6954,7.64616 19.81867,21.59045 22.27876,35.19033 1.46005,7.96416 6.93023,10.68942 12.67443,15.34612 7.20025,5.79412 6.51022,14.6318 11.27139,21.85505 8.33028,12.62086 24.42183,18.54768 30.29603,33.23239 6.99024,17.40996 -6.43022,28.09928 -16.00755,40.61434 20.74371,10.90113 51.22475,1.13803 71.83649,14.84341 13.3884,8.89018 25.7178,31.93596 20.6117,48.2081 27.8619,3.51907 63.5811,9.5522 88.347,-7.38215 15.6375,-10.74233 36.0382,-49.39883 57.0989,-49.66333 -2.46,10.13371 -10.3453,10.58352 -4.1501,21.08773 6.5602,11.11274 -4.4202,22.17246 -3.7101,34.81983 1.8,32.96778 2.9401,66.75578 6.9102,99.53836 10.8214,-9.44619 18.1506,9.92221 29.423,8.83719 15.5575,-1.50804 26.4589,-13.99679 42.4405,-13.65279 14.6845,0.37001 23.2578,-0.42001 30.719,13.49398 11.2984,20.98194 22.9138,41.75187 34.5032,62.6273 11.6944,21.03544 23.0988,42.22888 35.3492,62.94631 8.9703,15.13431 16.5636,30.69263 0.079,44.84793 -14.3405,12.30325 -10.5044,28.41659 -8.9203,45.53594 1.7201,18.60039 -4.4202,46.35597 2.0601,63.20932 3.9101,10.24021 13.6794,19.84441 14.1284,31.22164 0.027,0.70002 -9.7103,27.59658 -10.5043,28.31159 -10.2134,9.26019 -17.9656,24.34151 -22.7018,37.25377 -8.6803,23.57449 16.2196,27.22657 16.2726,45.53595 0.026,13.01727 -11.8534,23.75949 -14.2615,36.38075 -2.1401,11.11323 5.6102,24.89752 9.6803,34.92573 3.7801,9.37019 9.9804,27.17356 21.6968,29.28961 5.6401,1.03002 35.4552,3.31006 17.3565,14.923305 -12.1444,7.810162 -1.09,26.617553 -8.7603,30.903642 -14.5004,8.070167 -17.1455,29.819618 -28.2589,40.878848 -4.8402,4.8201 -11.4564,7.440154 -15.3995,13.230274 -7.4303,11.0062287 4.0001,7.5401568 9.4503,14.79030719 14.1555,18.91739281 -14.6585,23.20448181 -20.2147,34.92572481 -6.2702,13.176273 7.9603,28.839598 -0.8,43.974912 -7.5903,13.01727 -23.6548,17.621366 -37.8363,17.621366 -15.9286,0 -28.179,-11.880247 -38.9744,-22.066458 -12.7274,-11.986249 -26.6709,-17.569364 -40.4563,-27.332567 -24.4489,-17.304359 -22.5968,-48.7900124 -51.9138,-60.829262 -34.6872,-14.261296 -58.051,-48.101998 -94.7763,-57.151186 -17.1725,-4.230088 -34.8201,-16.113334 -49.76965,-25.373527 -17.86061,-11.113229 -37.20228,-14.870309 -55.4059,-24.712509 -17.80761,-9.6002 -32.94212,-24.28951 -50.82873,-34.47572 -20.08169,-11.48324 -40.11137,-22.67547 -60.40607,-33.7887 -17.14558,-9.39019 -27.49093,-30.95664 -40.9854,-44.79493 -17.88661,-18.38838 -43.07547,-28.09858 -55.59089,-50.90706 -7.06025,-12.91126 -16.03455,-28.36358 -28.41697,-36.11575 -10.82237,-6.83014 3.54012,-32.75667 -15.39953,-29.50161 0.20001,-3.31007 1.06004,-6.40013 2.51009,-9.37019 2.80009,1.69003 5.61019,3.41007 8.39028,5.16011 7.46026,-37.35978 -8.68029,-56.70118 -27.38493,-87.28782 -17.01358,-27.80857 -28.54998,-57.15118 -52.36279,-79.74765 -7.14025,-6.83014 -14.42049,-10.39822 -12.48943,-19.63241 2.22008,-10.68922 -4.02014,-22.67447 -9.13031,-31.56465 -5.00017,-8.73018 -11.06038,-18.15138 -18.81264,-24.71352 -7.17025,-6.09012 -19.34166,-9.00018 -23.89282,-17.83237 -0.60002,-4.60409 -0.1,-9.26019 1.24004,-13.75868 -1.40004,-10.08081 -7.81026,-21.64335 -12.38342,-30.53353 -8.7803,-17.09246 -20.79671,-32.25337 -30.53404,-48.79022 -9.18032,-15.55782 -14.34049,-34.21131 -20.84971,-51.01266 -15.18752,-39.15921 -39.66236,-69.34873 -50.64273,-107.23782 -15.02852,-51.67427 -58.92502,-83.16033 -78.8487,-134.19947 -22.80777,-58.4477 -69.93138,-100.0411 -127.08334,-124.1187 -5.03017,-2.117 -23.89281,-6.6681 -24.52783,-13.6528 -0.90003,-9.7102 -2.9401,-25.9032 11.03337,-24.1834 24.81885,3.0961 15.39953,-20.3733 7.36025,-32.5973 -11.32438,-17.2512 -22.59577,-24.448 -23.20379,-45.8797 2.30008,-2.7521 4.52016,-5.5301 6.72023,-8.3612 -0.40001,-3.307 -10.31935,-12.3563 -12.54143,-14.8434 -11.61639,-12.9914 -4.53015,-20.6909 -9.39032,-35.4814 z"
       id="pe" />
  </g>
</svg>
