<?xml version="1.0" encoding="UTF-8" standalone="no"?>
<!-- Created with Inkscape (http://www.inkscape.org/) -->

<svg
   xmlns:dc="http://purl.org/dc/elements/1.1/"
   xmlns:cc="http://creativecommons.org/ns#"
   xmlns:rdf="http://www.w3.org/1999/02/22-rdf-syntax-ns#"
   xmlns:svg="http://www.w3.org/2000/svg"
   xmlns="http://www.w3.org/2000/svg"
   xmlns:sodipodi="http://sodipodi.sourceforge.net/DTD/sodipodi-0.dtd"
   xmlns:inkscape="http://www.inkscape.org/namespaces/inkscape"
   width="11.873594mm"
   height="18.446617mm"
   viewBox="0 0 11.873594 18.446618"
   version="1.1"
   id="svg7070"
   inkscape:version="0.92.4 (5da689c313, 2019-01-14)"
   sodipodi:docname="peru.svg">
  <defs
     id="defs7064" />
  <sodipodi:namedview
     id="base"
     pagecolor="#ffffff"
     bordercolor="#666666"
     borderopacity="1.0"
     inkscape:pageopacity="0.0"
     inkscape:pageshadow="2"
     inkscape:zoom="1.4"
     inkscape:cx="62.557593"
     inkscape:cy="-28.914497"
     inkscape:document-units="mm"
     inkscape:current-layer="layer1"
     showgrid="false"
     inkscape:window-width="958"
     inkscape:window-height="1008"
     inkscape:window-x="-7"
     inkscape:window-y="0"
     inkscape:window-maximized="0" />
  <metadata
     id="metadata7067">
    <rdf:RDF>
      <cc:Work
         rdf:about="">
        <dc:format>image/svg+xml</dc:format>
        <dc:type
           rdf:resource="http://purl.org/dc/dcmitype/StillImage" />
        <dc:title></dc:title>
      </cc:Work>
    </rdf:RDF>
  </metadata>
  <g
     inkscape:label="Layer 1"
     inkscape:groupmode="layer"
     id="layer1"
     transform="translate(-193.33189,-79.072442)">
    <path
       inkscape:connector-curvature="0"
       style="fill:#aaaaaa;stroke-width:0.26458332"
       d="m 193.33189,83.552536 c 0.11642,-0.240241 0.18045,-0.405077 0.36354,-0.609864 0.0817,-0.09155 0.14472,-0.201084 0.24341,-0.275961 0.0717,-0.05477 0.22702,-0.127529 0.23363,-0.232568 0.11589,0.03307 0.23839,0.50747 0.13758,0.567002 -0.0733,0.04286 -0.15716,0.0042 -0.21007,0.07964 -0.0603,0.08573 -0.0468,0.202671 0.0728,0.219604 -0.0987,0.131234 -0.0545,0.331259 0.10107,0.163248 0.13652,-0.147373 0.18864,-0.07752 0.31855,0.03254 0.11113,0.09446 0.23839,-0.04868 0.32597,0.09366 0.0897,0.145785 0.0929,0.387614 0.30136,0.426772 0.17621,0.03307 0.195,0.05477 0.25427,-0.137583 0.0474,-0.153458 0.21643,-0.191823 0.2241,-0.348192 0.0106,-0.211931 0.0436,-0.404018 0.1307,-0.600604 0.0447,-0.101335 0.10504,-0.174096 0.10689,-0.290512 0.001,-0.07382 0.0868,-0.278077 0.12833,-0.07964 0.028,-0.04551 0.0336,-0.09366 0.0164,-0.143669 -0.007,-0.06456 0.0876,-0.134408 0.12197,-0.179916 0.0897,-0.119327 0.20188,-0.207698 0.33708,-0.269875 0.29422,-0.134938 0.63897,-0.184415 0.90752,-0.370946 0.56515,-0.392113 0.95674,-0.979752 1.0795,-1.649413 0.046,0.04868 0.10187,0.06826 0.16801,0.05847 -0.0831,-0.193675 0.004,-0.365389 -0.11165,-0.530754 -0.0455,-0.06509 -0.27199,-0.262996 -0.25797,-0.343694 0.0952,0.0164 0.20664,0.04921 0.29713,-0.0048 0.0894,-0.05318 0.0611,-0.07038 0.16192,-0.03307 0.17436,0.06456 0.30322,0.133879 0.42334,0.278606 0.15637,0.188648 0.24474,0.258498 0.31961,0.499269 0.0312,0.100806 -0.008,0.182827 0.13097,0.194733 0.13415,0.01191 0.0992,0.06562 0.19209,0.148432 0.18018,0.161131 0.313,0.07541 0.37571,0.350308 0.0487,0.213519 0.0394,0.264583 0.26696,0.332846 0.24474,0.07329 0.0138,0.359039 0.13864,0.501385 0.0677,0.07752 0.17357,0.103452 0.27253,0.09922 0.0616,-0.0082 0.12382,-0.01349 0.18626,-0.0164 0.0825,5.29e-4 0.17913,0.04921 0.25241,0.04657 0.16854,-0.0061 0.36804,-0.127529 0.44107,-0.274902 0.0772,-0.155045 0.29051,0.141552 0.38258,0.148696 0.13891,0.01085 0.35375,-0.190764 0.45244,-0.117739 0.0791,0.05794 0.1487,0.145785 0.2249,0.197908 0.073,0.05001 0.24474,0.03625 0.28971,0.08414 0.18363,0.194734 0.18654,0.265113 0.0431,0.49239 -0.11509,0.182033 -0.3384,0.493448 -0.37015,0.705379 -0.0384,0.253206 0.25374,0.05477 0.36327,0.150813 0.0884,0.07699 0.15743,0.180446 0.22014,0.279135 0.072,0.112713 0.0233,0.292894 -0.0799,0.123561 -0.0225,0.02778 -0.045,0.05583 -0.0675,0.08361 -0.13097,-0.1778 -0.42121,-0.293423 -0.58658,-0.08467 -0.18812,0.237596 -0.59822,0.174625 -0.86889,0.246592 -0.14182,0.03784 -0.21008,0.194733 -0.35057,0.238654 -0.14764,0.04604 -0.0995,0.105304 -0.19791,0.193675 -0.23548,0.21246 -0.39873,0.151342 -0.40217,0.515144 -0.001,0.126206 0.006,0.232039 -0.0675,0.342106 -0.0704,0.10451 -0.15451,0.208756 -0.12647,0.342635 0.0291,0.138907 0.1487,0.336286 -0.006,0.443971 -0.13044,0.08996 -0.254,0.135996 -0.36115,0.261409 -0.0781,0.09155 -0.1188,0.195262 -0.0937,0.315648 0.0135,0.05847 0.0339,0.114829 0.0609,0.168539 -0.0653,0.02831 -0.13309,0.0635 -0.18204,0.116681 -0.18944,0.203994 0.36963,0.380736 0.14023,0.521494 0.11695,0.07646 0.19818,0.2159 0.22278,0.351896 0.0146,0.07964 0.0693,0.106892 0.12674,0.153458 0.072,0.05794 0.0651,0.146315 0.11271,0.218546 0.0833,0.126206 0.24421,0.185473 0.30295,0.332317 0.0699,0.174096 -0.0643,0.280987 -0.16007,0.406135 0.20743,0.109009 0.51223,0.01138 0.71834,0.148431 0.13388,0.0889 0.25717,0.319353 0.20611,0.482071 0.27861,0.03519 0.63579,0.09552 0.88344,-0.07382 0.15637,-0.107421 0.36037,-0.493978 0.57097,-0.496623 -0.0246,0.101335 -0.10345,0.105833 -0.0415,0.210873 0.0656,0.111125 -0.0442,0.22172 -0.0371,0.348191 0.018,0.329671 0.0294,0.667544 0.0691,0.995363 0.10821,-0.09446 0.1815,0.09922 0.29422,0.08837 0.15557,-0.01508 0.26458,-0.139965 0.42439,-0.136525 0.14684,0.0037 0.23257,-0.0042 0.30718,0.134937 0.11298,0.209815 0.22913,0.41751 0.34502,0.62626 0.11694,0.21035 0.23098,0.42228 0.35348,0.62945 0.0897,0.15134 0.16563,0.30692 7.9e-4,0.44847 -0.1434,0.12303 -0.10504,0.28416 -0.0892,0.45535 0.0172,0.186 -0.0442,0.46355 0.0206,0.63208 0.0391,0.1024 0.13679,0.19844 0.14128,0.31221 2.7e-4,0.007 -0.0971,0.27596 -0.10504,0.28311 -0.10213,0.0926 -0.17965,0.24341 -0.22701,0.37253 -0.0868,0.23574 0.16219,0.27226 0.16272,0.45535 2.6e-4,0.13017 -0.11853,0.23759 -0.14261,0.3638 -0.0214,0.11113 0.0561,0.24897 0.0968,0.34925 0.0378,0.0937 0.0998,0.27173 0.21696,0.29289 0.0564,0.0103 0.35454,0.0331 0.17356,0.14923 -0.12144,0.0781 -0.0109,0.26617 -0.0876,0.30903 -0.145,0.0807 -0.17145,0.29819 -0.28258,0.40878 -0.0484,0.0482 -0.11456,0.0744 -0.15399,0.1323 -0.0743,0.11006 0.04,0.0754 0.0945,0.1479 0.14155,0.18917 -0.14658,0.23204 -0.20214,0.34925 -0.0627,0.13176 0.0796,0.28839 -0.008,0.43974 -0.0759,0.13017 -0.23654,0.17621 -0.37835,0.17621 -0.15928,0 -0.28178,-0.1188 -0.38973,-0.22066 -0.12727,-0.11986 -0.2667,-0.17569 -0.40455,-0.27332 -0.24448,-0.17304 -0.22596,-0.48789 -0.51912,-0.60828 -0.34686,-0.14261 -0.58049,-0.48101 -0.94773,-0.5715 -0.17172,-0.0423 -0.34819,-0.16113 -0.49768,-0.25373 -0.1786,-0.11113 -0.37201,-0.1487 -0.55404,-0.24712 -0.17807,-0.096 -0.32941,-0.24289 -0.50827,-0.34475 -0.20081,-0.11483 -0.4011,-0.22675 -0.60404,-0.33788 -0.17145,-0.0939 -0.2749,-0.30956 -0.40984,-0.44794 -0.17886,-0.18388 -0.43074,-0.28098 -0.55589,-0.50906 -0.0706,-0.12911 -0.16034,-0.28363 -0.28416,-0.36115 -0.10822,-0.0683 0.0354,-0.32756 -0.15399,-0.29501 0.002,-0.0331 0.0106,-0.064 0.0251,-0.0937 0.028,0.0169 0.0561,0.0341 0.0839,0.0516 0.0746,-0.37359 -0.0868,-0.567 -0.27384,-0.87286 -0.17013,-0.27808 -0.28549,-0.5715 -0.52361,-0.79746 -0.0714,-0.0683 -0.1442,-0.10398 -0.12489,-0.19632 0.0222,-0.10689 -0.0402,-0.22674 -0.0913,-0.31564 -0.05,-0.0873 -0.1106,-0.18151 -0.18812,-0.24713 -0.0717,-0.0609 -0.19341,-0.09 -0.23892,-0.17832 -0.006,-0.04604 -0.001,-0.0926 0.0124,-0.137584 -0.014,-0.100806 -0.0781,-0.216429 -0.12383,-0.305329 -0.0878,-0.170921 -0.20796,-0.322527 -0.30533,-0.487892 -0.0918,-0.155575 -0.1434,-0.342106 -0.20849,-0.510116 -0.15187,-0.391584 -0.39661,-0.693473 -0.50641,-1.072356 -0.15028,-0.516732 -0.58923,-0.831586 -0.78846,-1.341967 -0.22807,-0.584465 -0.69929,-1.00039 -1.27079,-1.241161 -0.0503,-0.02117 -0.23892,-0.06668 -0.24527,-0.136525 -0.009,-0.0971 -0.0294,-0.259027 0.11033,-0.241829 0.24818,0.03096 0.15399,-0.203729 0.0736,-0.325966 -0.11324,-0.172509 -0.22595,-0.244475 -0.23203,-0.458788 0.023,-0.02752 0.0452,-0.0553 0.0672,-0.08361 -0.004,-0.03307 -0.10319,-0.123561 -0.12541,-0.148431 -0.11616,-0.129911 -0.0453,-0.206905 -0.0939,-0.354807 z"
       id="pe" />
  </g>
</svg>
