<?xml version="1.0" encoding="UTF-8" standalone="no"?>
<!-- Created with Inkscape (http://www.inkscape.org/) -->

<svg
   xmlns:dc="http://purl.org/dc/elements/1.1/"
   xmlns:cc="http://creativecommons.org/ns#"
   xmlns:rdf="http://www.w3.org/1999/02/22-rdf-syntax-ns#"
   xmlns:svg="http://www.w3.org/2000/svg"
   xmlns="http://www.w3.org/2000/svg"
   xmlns:sodipodi="http://sodipodi.sourceforge.net/DTD/sodipodi-0.dtd"
   xmlns:inkscape="http://www.inkscape.org/namespaces/inkscape"
   width="7.7404499mm"
   height="5.6364837mm"
   viewBox="0 0 7.7404495 5.6364843"
   version="1.1"
   id="svg7070"
   inkscape:version="0.92.4 (5da689c313, 2019-01-14)"
   sodipodi:docname="poland.svg">
  <defs
     id="defs7064" />
  <sodipodi:namedview
     id="base"
     pagecolor="#ffffff"
     bordercolor="#666666"
     borderopacity="1.0"
     inkscape:pageopacity="0.0"
     inkscape:pageshadow="2"
     inkscape:zoom="1.4"
     inkscape:cx="131.79724"
     inkscape:cy="-71.489727"
     inkscape:document-units="mm"
     inkscape:current-layer="layer1"
     showgrid="false"
     inkscape:window-width="958"
     inkscape:window-height="1008"
     inkscape:window-x="-7"
     inkscape:window-y="0"
     inkscape:window-maximized="0" />
  <metadata
     id="metadata7067">
    <rdf:RDF>
      <cc:Work
         rdf:about="">
        <dc:format>image/svg+xml</dc:format>
        <dc:type
           rdf:resource="http://purl.org/dc/dcmitype/StillImage" />
        <dc:title></dc:title>
      </cc:Work>
    </rdf:RDF>
  </metadata>
  <g
     inkscape:label="Layer 1"
     inkscape:groupmode="layer"
     id="layer1"
     transform="translate(-147.35868,-44.060867)">
    <path
       inkscape:connector-curvature="0"
       style="fill:#aaaaaa;stroke-width:0.26458332"
       d="m 147.35903,45.948727 c -0.006,-0.200554 0.29289,-0.252942 0.18309,-0.486569 -0.0381,-0.0807 -0.12674,-0.201348 -0.0937,-0.299243 0.0156,-0.04524 0.17171,0.0127 0.20425,0.01244 -0.0164,-0.06615 -0.003,-0.124883 0.0421,-0.176477 -0.008,0.01402 -0.0172,0.02778 -0.0257,0.04207 -0.0505,-0.04392 -0.10954,-0.06906 -0.17621,-0.07567 0.0354,0.08916 -0.10293,0.03863 -0.10981,-0.04207 0.19341,0.07276 0.50351,-0.09499 0.67919,-0.165364 0.21087,-0.08493 0.72363,-0.06165 0.85593,-0.237332 0.16192,-0.214577 0.54292,-0.313531 0.79798,-0.380735 0.31856,-0.0844 0.7575,-0.151871 1.0287,0.07779 -0.073,-0.05027 -0.15981,-0.101864 -0.25215,-0.0672 0.11086,0.104246 0.13891,0.304536 0.30057,0.351367 0.19394,0.05609 0.45508,-0.02805 0.64161,-0.08229 -0.0823,0.04948 -0.18229,0.06244 -0.26273,0.116682 -0.11536,0.07832 0.1315,0.03625 0.1741,0.01085 0.32411,-0.192882 0.56674,-0.03519 0.92128,-0.03519 0.47122,0 0.96811,0.06906 1.43642,0 0.34925,-0.05133 0.6006,0.153458 0.68792,0.473604 0.0897,0.329142 0.49397,0.715963 0.37835,1.077913 -0.059,0.183091 -0.29713,0.102658 -0.39423,0.243152 -0.0974,0.140494 -0.186,0.265377 0.0511,0.309298 0.37994,0.07038 0.0561,0.374914 0.1688,0.579702 0.11853,0.2159 0.22622,0.631825 0.50324,0.694796 -0.0468,0.02381 -0.0942,0.0463 -0.14235,0.0672 0.14341,0.127 0.18151,0.270933 -0.0238,0.347133 -0.20611,0.0762 -0.38127,0.273579 -0.53181,0.426244 -0.13785,0.139435 -0.38444,0.332052 -0.30136,0.547687 0.0347,0.08996 0.023,0.186003 0.0572,0.275696 0.0273,0.07117 0.10689,0.04657 0.0934,0.14314 -0.13943,-0.09869 -0.34977,-0.09684 -0.50905,-0.153458 -0.15637,-0.0553 -0.23257,-0.175155 -0.39265,-0.218017 -0.15822,-0.04233 -0.33416,-0.0672 -0.48921,-0.0026 -0.20029,0.08334 -0.22384,0.0074 -0.41725,-0.0164 -0.14869,-0.01826 -0.20373,0.01111 -0.313,0.103452 -0.0474,0.03995 -0.10769,0.09102 -0.17304,0.09631 -0.11192,0.0095 -0.0746,-0.108743 -0.11853,-0.162454 -0.0466,-0.05794 -0.15372,-0.105833 -0.21352,-0.177271 -0.0955,-0.115093 -0.32861,0.137584 -0.43312,0.152136 0.027,-0.09022 -0.35904,-0.496094 -0.48869,-0.531548 -0.14552,-0.03969 -0.21616,-0.09948 -0.35798,-0.0545 -0.14817,0.04683 -0.16219,-0.200555 -0.14578,-0.288132 -0.23548,0.07091 -0.43763,-0.09446 -0.65511,-0.151341 0.006,0.0717 0.037,0.130439 0.0923,0.176477 -0.091,0.06085 -0.25638,0.227541 -0.35878,0.08493 -0.0839,-0.116152 -0.13388,-0.19394 -0.27966,-0.24474 0.0386,-0.03334 0.18309,-0.110595 0.1516,-0.179387 -0.041,-0.08996 -0.24394,-0.05159 -0.29501,0.0029 -0.008,-0.230187 -0.42809,-0.06668 -0.51937,-0.198173 -0.0881,-0.126735 -0.0304,-0.136525 -0.1905,-0.182297 -0.11483,-0.03307 -0.0389,0.181239 -0.21485,0.128322 0.13097,-0.325966 0.2167,-0.430741 -0.0331,-0.600604 -0.10768,-0.07329 -0.0228,-0.155575 -0.10742,-0.230716 -0.11007,-0.09816 0.0119,-0.143669 0.0304,-0.24818 0.0111,-0.06403 -0.0135,-0.179916 -0.022,-0.245268 -0.008,-0.06562 -0.14341,-0.04921 -0.11748,-0.159015 0.0169,-0.0717 0.10689,-0.14314 0.009,-0.201877 -0.11721,-0.07038 -0.22966,-0.152665 -0.32993,-0.247121 z"
       id="pl" />
  </g>
</svg>
