<?xml version="1.0" encoding="UTF-8" standalone="no"?>
<!-- Created with Inkscape (http://www.inkscape.org/) -->

<svg
   xmlns:dc="http://purl.org/dc/elements/1.1/"
   xmlns:cc="http://creativecommons.org/ns#"
   xmlns:rdf="http://www.w3.org/1999/02/22-rdf-syntax-ns#"
   xmlns:svg="http://www.w3.org/2000/svg"
   xmlns="http://www.w3.org/2000/svg"
   xmlns:sodipodi="http://sodipodi.sourceforge.net/DTD/sodipodi-0.dtd"
   xmlns:inkscape="http://www.inkscape.org/namespaces/inkscape"
   width="774mm"
   height="563.59998mm"
   viewBox="0 0 773.99996 563.60004"
   version="1.1"
   id="svg7070"
   inkscape:version="0.92.4 (5da689c313, 2019-01-14)"
   sodipodi:docname="poland.svg">
  <defs
     id="defs7064" />
  <sodipodi:namedview
     id="base"
     pagecolor="#ffffff"
     bordercolor="#666666"
     borderopacity="1.0"
     inkscape:pageopacity="0.0"
     inkscape:pageshadow="2"
     inkscape:zoom="1.4"
     inkscape:cx="37.868669"
     inkscape:cy="-71.489726"
     inkscape:document-units="mm"
     inkscape:current-layer="layer1"
     showgrid="false"
     inkscape:window-width="958"
     inkscape:window-height="1008"
     inkscape:window-x="-7"
     inkscape:window-y="0"
     inkscape:window-maximized="0" />
  <metadata
     id="metadata7067">
    <rdf:RDF>
      <cc:Work
         rdf:about="">
        <dc:format>image/svg+xml</dc:format>
        <dc:type
           rdf:resource="http://purl.org/dc/dcmitype/StillImage" />
        <dc:title />
      </cc:Work>
    </rdf:RDF>
  </metadata>
  <g
     inkscape:label="Layer 1"
     inkscape:groupmode="layer"
     id="layer1"
     transform="translate(-147.35868,513.90265)">
    <path
       inkscape:connector-curvature="0"
       style="fill:#ffffff;stroke-width:26.45642662"
       d="m 147.39368,-325.13287 c -0.59997,-20.05368 29.2873,-25.29203 18.30793,-48.65273 -3.80977,-8.0693 -12.67326,-20.13307 -9.36945,-29.92173 1.55991,-4.52361 17.17,1.26989 20.42381,1.2439 -1.6399,-6.61444 -0.29998,-12.48723 4.20976,-17.64619 -0.79996,1.40188 -1.7199,2.77776 -2.56985,4.20664 -5.04971,-4.39162 -10.95337,-6.90541 -17.61998,-7.56635 3.53979,8.91523 -10.2924,3.86267 -10.98036,-4.20664 19.33987,7.27538 50.34807,-9.49818 67.91505,-16.53498 21.08577,-8.49227 72.35879,-6.16447 85.58802,-23.73116 16.19106,-21.45586 54.28885,-31.35041 79.79336,-38.07023 31.85415,-8.43928 75.7456,-15.1858 102.86402,7.77833 -7.29957,-5.02657 -15.98007,-10.18553 -25.21353,-6.71943 11.08536,10.42371 13.89019,30.45099 30.05525,35.13369 19.39288,5.60852 45.50536,-2.80476 64.15727,-8.2283 -8.22952,4.94758 -18.22794,6.24347 -26.27147,11.6672 -11.53533,7.83133 13.14924,3.62469 17.40899,1.08491 32.40911,-19.28654 56.6707,-3.5187 92.12264,-3.5187 47.11926,0 96.80537,6.90541 143.63365,0 34.92297,-5.13256 60.05651,15.34449 68.788,47.35634 8.96948,32.91137 49.39413,71.59015 37.8328,107.78204 -5.89965,18.30753 -29.71127,10.26492 -39.42071,24.31312 -9.73943,14.04819 -18.59891,26.53542 5.10971,30.92714 37.99179,7.0374 5.60967,37.48818 16.87902,57.96523 11.85231,21.58814 22.62068,63.17707 50.32107,69.47363 -4.67973,2.3808 -9.41945,4.62961 -14.23417,6.71943 14.34016,12.69891 18.14994,27.09097 -2.37986,34.710316 -20.60981,7.619346 -38.12479,27.355552 -53.17791,42.620741 -13.7842,13.942303 -38.44177,33.20235 -30.13425,54.7639992 3.4698,8.9952278 2.29987,18.5987038 5.71967,27.5672338 2.72984,7.116389 10.68838,4.6566 9.33945,14.312771 C 822.54942,39.829198 801.51665,40.014182 785.58957,34.352868 769.95348,28.823343 762.33393,16.838872 746.32686,12.55304 730.50578,8.320403 712.9128,5.8336164 697.4087,12.293062 c -20.02784,8.333285 -22.3827,0.739936 -41.72257,-1.639859 -14.86814,-1.8258435 -20.37182,1.110904 -31.29818,10.344312 -4.73973,3.994657 -10.76838,9.101218 -17.303,9.630173 C 595.8936,31.577606 599.62539,19.754321 595.23264,14.383682 590.57291,8.5901798 579.86153,3.8012909 573.88188,-3.3418959 564.33244,-14.850208 541.02279,10.415323 530.5724,11.870398 c 2.69984,-9.0212254 -35.90191,-49.605141 -48.86616,-53.150237 -14.55115,-3.968659 -21.61474,-9.947146 -35.79592,-5.449532 -14.81614,4.682598 -16.21805,-20.053779 -14.57715,-28.810727 -23.54663,7.090391 -43.76046,-9.445189 -65.50719,-15.132801 0.59996,7.169385 3.69978,13.04278 9.22946,17.646185 -9.09947,6.084478 -25.63651,22.752147 -35.87591,8.492271 -8.38951,-11.614203 -13.38722,-19.392335 -27.96438,-24.471899 3.85978,-3.333714 18.30794,-11.058548 15.15912,-17.937158 -4.09976,-8.99523 -24.39258,-5.15856 -29.49928,0.28997 -0.79996,-23.01672 -42.80651,-6.66742 -51.93398,-19.8156 -8.80949,-12.67241 -3.03983,-13.65132 -19.0489,-18.22813 -11.48233,-3.30672 -3.88977,18.12234 -21.48375,12.8311 13.09624,-32.5938 21.66874,-43.07041 -3.3098,-60.05525 -10.76738,-7.32837 -2.27987,-15.55616 -10.74138,-23.06962 -11.00636,-9.81515 1.18993,-14.36566 3.03982,-24.81587 1.10994,-6.40245 -1.34992,-17.99005 -2.19987,-24.52469 -0.79995,-6.56144 -14.34017,-4.92058 -11.74732,-15.90014 1.68991,-7.16938 10.68838,-14.31277 0.89995,-20.18596 -11.72032,-7.0374 -22.96466,-15.26519 -32.99108,-24.70998 z"
       id="pl" />
  </g>
</svg>
