<?xml version="1.0" encoding="UTF-8" standalone="no"?>
<!-- Created with Inkscape (http://www.inkscape.org/) -->

<svg
   xmlns:dc="http://purl.org/dc/elements/1.1/"
   xmlns:cc="http://creativecommons.org/ns#"
   xmlns:rdf="http://www.w3.org/1999/02/22-rdf-syntax-ns#"
   xmlns:svg="http://www.w3.org/2000/svg"
   xmlns="http://www.w3.org/2000/svg"
   xmlns:sodipodi="http://sodipodi.sourceforge.net/DTD/sodipodi-0.dtd"
   xmlns:inkscape="http://www.inkscape.org/namespaces/inkscape"
   width="1891.7mm"
   height="957.60004mm"
   viewBox="0 0 1891.6998 957.60014"
   version="1.1"
   id="svg7070"
   inkscape:version="0.92.4 (5da689c313, 2019-01-14)"
   sodipodi:docname="portugal.svg">
  <defs
     id="defs7064" />
  <sodipodi:namedview
     id="base"
     pagecolor="#ffffff"
     bordercolor="#666666"
     borderopacity="1.0"
     inkscape:pageopacity="0.0"
     inkscape:pageshadow="2"
     inkscape:zoom="7.9195959"
     inkscape:cx="20.671503"
     inkscape:cy="-8.4265104"
     inkscape:document-units="mm"
     inkscape:current-layer="layer1"
     showgrid="false"
     inkscape:window-width="958"
     inkscape:window-height="1008"
     inkscape:window-x="-7"
     inkscape:window-y="0"
     inkscape:window-maximized="0" />
  <metadata
     id="metadata7067">
    <rdf:RDF>
      <cc:Work
         rdf:about="">
        <dc:format>image/svg+xml</dc:format>
        <dc:type
           rdf:resource="http://purl.org/dc/dcmitype/StillImage" />
        <dc:title />
      </cc:Work>
    </rdf:RDF>
  </metadata>
  <g
     inkscape:label="Layer 1"
     inkscape:groupmode="layer"
     id="layer1"
     transform="translate(-153.16063,910.46626)">
    <g
       transform="matrix(26.457995,0,0,26.457671,-4471.6768,-8780.9884)"
       id="pt"
       style="fill:#ffffff">
      <path
         style="fill:#ffffff"
         inkscape:connector-curvature="0"
         d="m 235.972,308.308 c -0.032,-0.106 -0.064,-0.212 -0.097,-0.318 1.024,-0.077 1.376,-1.738 1.67,-2.494 0.259,-0.662 0.403,-1.396 0.594,-2.085 0.052,-0.186 0.229,-0.217 0.342,-0.347 0.094,-0.108 0.103,-0.812 -0.158,-0.061 0.115,-0.813 0.318,-1.299 0.143,-2.12 -0.057,-0.269 -0.469,-1.68 0.078,-1.692 -0.794,0.241 -0.158,-0.931 0.267,-1.112 0.48,-0.204 1.156,-0.23 1.547,-0.603 -0.046,0.265 0.072,0.418 0.348,0.381 -0.174,0.125 -0.776,0.929 -0.209,0.914 0.464,-0.013 0.941,-0.374 1.401,-0.298 0.605,0.1 0.833,0.34 1.442,0.019 0.198,-0.649 1.112,-0.151 1.654,-0.206 0.633,-0.063 0.276,0.394 0.319,0.734 0.027,0.22 0.777,0.354 0.945,0.507 0.367,0.334 -1.938,2.157 -2.237,2.23 0.257,-0.063 0.144,1.635 0.148,1.76 0.008,0.234 0.113,0.666 0,0.883 -0.149,0.289 -0.583,0.173 -0.677,0.545 -0.056,0.221 0.733,1.114 0.024,1.345 -0.269,0.088 -0.111,0.435 -0.334,0.565 -0.325,0.191 -1.148,0.119 -1.492,0.022 0.118,0.257 0.36,0.408 0.558,0.593 0.255,0.236 0.02,0.496 0.191,0.801 0.177,0.313 0.868,0.809 0.75,1.179 -0.204,0.637 -0.902,0.956 -1.082,1.6 -0.157,0.566 0.378,1.618 1.078,1.388 -0.304,0.729 -0.8,0.549 -1.167,1.283 -0.182,0.362 -0.528,0.604 -0.697,0.977 -0.228,0.502 0.277,0.997 0.017,1.5 -0.392,0.756 -1.525,0.846 -2.189,0.575 -0.799,-0.325 -1.862,-0.359 -2.572,0.239 -0.101,-0.326 0.137,-0.764 0.27,-1.046 0.211,-0.452 0.181,-1.031 0.387,-1.428 0.245,-0.47 -0.082,-0.802 -0.055,-1.27 0.04,-0.689 0.461,-1.158 0.033,-1.849 0.23,0.728 0.505,-0.069 0.445,-0.349 -0.139,0.337 -1.193,0.444 -1.557,0.572 0.182,-0.308 0.069,-0.658 0.159,-0.985 0.128,0.05 0.254,0.103 0.379,0.159 0.026,-0.245 0.215,-0.291 0.388,-0.402 0.25,-0.161 -0.035,-0.588 -0.039,-0.805 -0.226,0.298 -0.981,1.376 -1.45,1.022 -0.6,-0.452 0.433,-1.752 0.435,-2.323 z"
         id="path3446" />
      <path
         style="fill:#ffffff"
         inkscape:connector-curvature="0"
         d="m 175.333,311.292 c -0.27,0.054 -0.835,-0.33 -0.333,-0.453 0.314,-0.077 0.558,0.164 0.333,0.453 z"
         id="path3614" />
      <path
         style="fill:#ffffff"
         inkscape:connector-curvature="0"
         d="m 176.476,311.8 c -0.273,-0.159 -0.607,-0.137 -0.856,-0.35 0.259,-0.702 1.199,-0.012 1.526,0.254 -0.23,-0.016 -0.454,0.015 -0.67,0.096 z"
         id="path3616" />
      <path
         style="fill:#ffffff"
         inkscape:connector-curvature="0"
         d="m 177.94,311.165 c -0.439,-0.11 -1.101,-0.223 -1.301,-0.699 0.478,0.128 0.96,0.327 1.301,0.699 z"
         id="path3620" />
      <path
         style="fill:#ffffff"
         inkscape:connector-curvature="0"
         d="m 180.098,310.848 c -0.324,-0.056 -1.06,-0.432 -0.379,-0.667 0.47,-0.163 1.013,0.437 0.379,0.667 z"
         id="path3622" />
      <path
         style="fill:#ffffff"
         inkscape:connector-curvature="0"
         d="m 184.898,314.343 c -0.318,-0.047 -1.521,-0.228 -0.958,-0.764 0.518,0.602 1.354,0.095 2.003,0.255 0.025,0.482 -0.729,0.49 -1.045,0.509 z"
         id="path3624" />
      <path
         style="fill:#ffffff"
         inkscape:connector-curvature="0"
         d="m 185.881,317.296 c -0.162,-0.074 -0.3,-0.18 -0.415,-0.317 0.263,-0.07 0.425,0.04 0.415,0.317 z"
         id="path3626" />
      <path
         style="fill:#ffffff"
         inkscape:connector-curvature="0"
         d="m 209.829,333.654 c -0.32,-0.064 -0.576,-0.229 -0.804,-0.457 -0.181,-0.181 0.157,-0.455 0.346,-0.257 0.247,0.261 0.601,-0.157 0.885,0.161 0.311,0.352 -0.066,0.64 -0.427,0.553 z"
         id="path3628" />
    </g>
  </g>
</svg>
