<?xml version="1.0" encoding="UTF-8" standalone="no"?>
<!-- Created with Inkscape (http://www.inkscape.org/) -->

<svg
   xmlns:dc="http://purl.org/dc/elements/1.1/"
   xmlns:cc="http://creativecommons.org/ns#"
   xmlns:rdf="http://www.w3.org/1999/02/22-rdf-syntax-ns#"
   xmlns:svg="http://www.w3.org/2000/svg"
   xmlns="http://www.w3.org/2000/svg"
   xmlns:sodipodi="http://sodipodi.sourceforge.net/DTD/sodipodi-0.dtd"
   xmlns:inkscape="http://www.inkscape.org/namespaces/inkscape"
   width="353.10001mm"
   height="546.79999mm"
   viewBox="0 0 353.1 546.79995"
   version="1.1"
   id="svg7070"
   inkscape:version="0.92.4 (5da689c313, 2019-01-14)"
   sodipodi:docname="republic_of_korea.svg">
  <defs
     id="defs7064" />
  <sodipodi:namedview
     id="base"
     pagecolor="#ffffff"
     bordercolor="#666666"
     borderopacity="1.0"
     inkscape:pageopacity="0.0"
     inkscape:pageshadow="2"
     inkscape:zoom="5.6"
     inkscape:cx="-13.374518"
     inkscape:cy="6.6222367"
     inkscape:document-units="mm"
     inkscape:current-layer="layer1"
     showgrid="false"
     inkscape:window-width="958"
     inkscape:window-height="1008"
     inkscape:window-x="-7"
     inkscape:window-y="0"
     inkscape:window-maximized="0" />
  <metadata
     id="metadata7067">
    <rdf:RDF>
      <cc:Work
         rdf:about="">
        <dc:format>image/svg+xml</dc:format>
        <dc:type
           rdf:resource="http://purl.org/dc/dcmitype/StillImage" />
        <dc:title />
      </cc:Work>
    </rdf:RDF>
  </metadata>
  <g
     inkscape:label="Layer 1"
     inkscape:groupmode="layer"
     id="layer1"
     transform="translate(-159.29996,512.88143)">
    <g
       transform="matrix(26.459895,0,0,26.4593,-17353.26,-8738.4957)"
       id="kr"
       style="fill:#ffffff">
      <path
         style="fill:#ffffff"
         inkscape:connector-curvature="0"
         id="path6028"
         d="m 661.969,313.96 c -0.349,0.211 0.165,0.98 0.543,0.635 -0.102,-0.267 -0.288,-0.5 -0.543,-0.635 z" />
      <path
         style="fill:#ffffff"
         inkscape:connector-curvature="0"
         id="path6030"
         d="m 664.16,319.328 c -0.104,-0.199 -0.252,-0.358 -0.446,-0.477 0.038,0.241 0.211,0.422 0.446,0.477 z" />
      <path
         style="fill:#ffffff"
         inkscape:connector-curvature="0"
         id="path6032"
         d="m 666.227,325.015 c -0.267,0.245 -0.203,0.362 0.189,0.35 -0.063,-0.118 -0.126,-0.234 -0.189,-0.35 z" />
      <path
         style="fill:#ffffff"
         inkscape:connector-curvature="0"
         id="path6034"
         d="m 666.989,326.603 c -0.17,-0.139 -0.361,-0.233 -0.573,-0.286 -0.24,0.94 0.731,0.699 0.573,0.286 z" />
      <path
         style="fill:#ffffff"
         inkscape:connector-curvature="0"
         id="path6036"
         d="m 669.85,330.225 c -0.435,-0.042 -2.444,0.5 -1.591,1.149 0.887,0.673 2.771,-0.853 1.591,-1.149 z" />
      <path
         style="fill:#ffffff"
         inkscape:connector-curvature="0"
         id="path6038"
         d="m 668.041,327.078 c 0.094,0.179 0.241,0.252 0.441,0.223 -0.082,-0.224 -0.229,-0.297 -0.441,-0.223 z" />
      <path
         style="fill:#ffffff"
         inkscape:connector-curvature="0"
         id="path6040"
         d="m 671.088,324.983 c -0.036,0.628 0.36,0.699 0.888,0.699 -0.062,-0.324 -0.605,-0.615 -0.888,-0.699 z" />
      <path
         style="fill:#ffffff"
         inkscape:connector-curvature="0"
         id="path6042"
         d="m 673.118,325.174 c 0.519,0.846 1.18,-0.134 0.445,-0.445 -0.007,0.259 -0.192,0.427 -0.445,0.445 z" />
      <path
         style="fill:#ffffff"
         inkscape:connector-curvature="0"
         id="path6046"
         d="m 662.383,314.277 c 0.285,-0.347 0.538,0.306 0.825,0.349 -1.077,-0.461 -0.571,-2.022 0.234,-2.486 0.665,-0.382 1.528,0.029 2.247,-0.102 0.223,-0.041 0.497,0.003 0.693,-0.137 0.473,-0.333 0.015,-0.636 0.191,-1.023 1.163,0.881 2.043,2.148 3.146,3.116 1.002,0.88 2.089,1.744 2.887,2.823 0.597,0.806 0.651,1.646 0.99,2.551 0.096,0.254 0.841,2.04 1.046,1.199 0.383,0.442 0.674,1.724 0.508,2.287 -0.11,-0.091 -0.216,-0.187 -0.318,-0.286 0.222,0.725 0.39,1.514 -0.44,1.906 -0.042,-0.403 -0.985,-0.26 -1.465,-0.509 0.323,0.587 -0.273,0.161 -0.379,0.667 0.432,-0.244 0.49,0.354 0.379,0.668 -0.301,-0.739 -1.285,-0.056 -1.491,-0.921 -0.051,0.712 -0.908,0.203 -1.143,0.762 0.148,0.147 0.373,0.208 0.546,0.319 0.317,0.205 -0.327,0.172 -0.102,0.635 -0.344,-0.249 -0.419,-0.705 -0.763,-0.953 -0.069,0.156 -0.155,0.305 -0.256,0.444 0.231,0.23 0.57,0.378 0.702,0.699 -0.159,0.009 -0.317,0.009 -0.477,0 0.111,0.066 0.217,0.141 0.318,0.222 -0.241,0.484 -0.677,-0.107 -0.893,-0.285 0.434,0.101 0.491,-0.701 -0.03,-0.636 -0.462,0.059 -0.579,0.952 -0.604,1.303 -0.257,-0.101 -0.469,-0.258 -0.636,-0.477 -0.004,0.317 -0.147,0.601 -0.256,0.89 -0.369,-0.094 -0.571,-0.481 -0.38,-0.825 -0.32,0.016 -1.227,-0.245 -0.922,-0.73 0.07,0.232 0.263,0.396 0.508,0.413 -0.233,-0.335 -0.169,-0.42 0.193,-0.254 -0.197,-0.138 -0.411,-0.243 -0.64,-0.318 0.244,0.041 0.445,-0.033 0.604,-0.223 -0.087,-0.116 -0.192,-0.212 -0.317,-0.285 -0.08,0.848 -1.041,-0.742 -1.271,-0.921 0.204,0.083 0.416,0.115 0.635,0.095 -0.519,-0.308 -0.608,-1.574 0,-1.811 -0.225,-0.017 -0.446,-0.049 -0.667,-0.095 0.064,-0.212 0.195,-0.364 0.395,-0.459 0.198,-0.119 0.155,-0.507 0.272,-0.685 -0.223,0.069 -0.444,0.069 -0.667,0 0.112,-0.25 0.307,-0.461 0.539,-0.604 -0.644,0.725 -1.898,-0.917 -1.491,-1.557 -0.42,0.215 -0.396,-0.144 -0.455,-0.437 -0.062,-0.308 -0.72,-0.777 -0.688,-0.167 -0.216,-0.373 -0.725,-0.347 -0.86,-0.794 0.32,0.001 0.471,-0.101 0.226,-0.445 0.221,0.469 0.285,0.469 0.189,0 0.258,-0.047 0.458,0.093 0.507,0.35 0.189,-0.231 0.168,-0.442 -0.062,-0.635 0.521,0.389 1.152,0.304 1.398,1.017 -0.132,-0.265 0.053,-0.487 0.251,-0.635 -0.323,0.062 -0.752,-0.148 -0.6,-0.54 -0.445,0.3 -1.206,-0.811 -0.353,-0.731 -0.408,-0.11 -0.771,-0.453 -1.061,-0.743 -0.078,-0.162 -0.148,-0.327 -0.211,-0.495 -0.17,-0.219 -0.421,-0.223 -0.531,-0.511 z" />
    </g>
  </g>
</svg>
