<?xml version="1.0" encoding="UTF-8" standalone="no"?>
<!-- Created with Inkscape (http://www.inkscape.org/) -->

<svg
   xmlns:dc="http://purl.org/dc/elements/1.1/"
   xmlns:cc="http://creativecommons.org/ns#"
   xmlns:rdf="http://www.w3.org/1999/02/22-rdf-syntax-ns#"
   xmlns:svg="http://www.w3.org/2000/svg"
   xmlns="http://www.w3.org/2000/svg"
   xmlns:sodipodi="http://sodipodi.sourceforge.net/DTD/sodipodi-0.dtd"
   xmlns:inkscape="http://www.inkscape.org/namespaces/inkscape"
   width="1053.4mm"
   height="863.5mm"
   viewBox="0 0 1053.3999 863.49999"
   version="1.1"
   id="svg2687"
   inkscape:version="0.92.4 (5da689c313, 2019-01-14)"
   sodipodi:docname="republic_of_south_sudan.svg">
  <defs
     id="defs2681" />
  <sodipodi:namedview
     id="base"
     pagecolor="#ffffff"
     bordercolor="#666666"
     borderopacity="1.0"
     inkscape:pageopacity="0.0"
     inkscape:pageshadow="2"
     inkscape:zoom="11.2"
     inkscape:cx="6.3276419"
     inkscape:cy="17.170492"
     inkscape:document-units="mm"
     inkscape:current-layer="layer1"
     showgrid="false"
     inkscape:window-width="958"
     inkscape:window-height="991"
     inkscape:window-x="-8"
     inkscape:window-y="0"
     inkscape:window-maximized="0" />
  <metadata
     id="metadata2684">
    <rdf:RDF>
      <cc:Work
         rdf:about="">
        <dc:format>image/svg+xml</dc:format>
        <dc:type
           rdf:resource="http://purl.org/dc/dcmitype/StillImage" />
        <dc:title />
      </cc:Work>
    </rdf:RDF>
  </metadata>
  <g
     inkscape:label="Layer 1"
     inkscape:groupmode="layer"
     id="layer1"
     transform="translate(-72.048468,793.2998)">
    <path
       style="fill:#ffffff;stroke-width:26.4580555"
       inkscape:connector-curvature="0"
       id="sd"
       d="m 497.84539,-584.70965 2.36799,29.41649 11.84712,13.37151 42.64761,-5.34893 2.36798,-24.06796 30.8013,-32.09064 75.81789,53.48454 37.90924,2.67396 49.75567,-56.1586 14.216,-32.09085 49.75557,-45.46196 -9.47694,-18.71973 v -37.43877 l -23.69324,-26.74243 49.75586,-5.34892 v -24.06786 h 47.38629 l -7.10796,66.85586 9.47694,82.90122 26.06262,13.37142 18.95458,42.78779 h 9.47693 l -4.73897,32.09055 4.73897,29.41678 15.314,2.55597 3.73597,17.71645 c 2.08999,26.56382 14.20811,75.69623 -26.24642,80.03536 -12.32952,1.34899 -26.51112,-3.62494 -39.58143,-3.04295 -19.97587,0.86999 -11.48283,10.45085 -14.34031,26.88122 -2.30198,13.38781 -27.64881,25.10864 -5.71496,37.88786 14.39321,8.30789 31.45869,4.39194 46.22239,12.80562 15.1076,8.67788 26.96082,14.73709 34.23687,31.16746 6.71996,15.13399 17.14489,27.70151 30.321,37.72907 12.06492,9.15487 17.01258,22.01309 29.87125,29.71228 15.0018,9.04887 11.1125,30.32087 18.2032,44.13187 8.414,16.32457 10.0277,34.87161 18.653,51.35488 3.202,6.13791 6.509,15.34568 12.9116,18.97043 7.594,4.23294 4.71,13.75811 11.0595,19.89632 9.895,-12.67332 18.5207,-2.48696 30.1358,-1.19098 13.1497,1.45498 8.493,4.60393 11.9327,13.49361 3.9159,10.027555 -2.593,22.224682 -2.593,32.463838 0,12.911517 7.7259,19.843519 15.1605,29.209587 -41.2748,0 -92.63,-7.381896 -132.79344,1.957972 -25.42633,5.952916 -46.91038,46.5659423 -63.63187,66.303563 -3.06898,3.677948 -15.1076,21.192901 -21.29886,19.578924 -8.65194,-2.222969 -20.18756,1.639977 -27.96621,-3.306953 -7.06395,-4.550936 -10.10703,-7.80489 -19.20867,-6.058915 -14.208,2.698962 -73.6595,10.583151 -67.91804,33.337029 -15.6368,-5.63592 -17.25079,-10.794847 -25.95553,-22.780378 -6.56195,-9.048872 -20.26686,2.380966 -26.88142,5.370924 -11.53582,5.158927 -18.60007,-8.51988 -28.6277,-10.741948 C 694.63037,35.777986 678.41148,57.553379 673.22571,70.2002 671.42672,55.35731 658.11811,54.854617 646.34429,57.632678 659.41461,29.16398 615.547,20.6445 600.9156,4.6639259 594.35364,-2.5059728 588.08339,-10.073166 582.20962,-17.825356 c -6.24395,-8.307883 -4.44497,-18.044345 -13.17611,-25.584839 -26.56402,-22.886177 -24.95003,25.584839 -47.12198,23.679866 -22.17195,-1.904973 -25.84963,-26.722523 -46.48699,-6.667906 -14.3403,13.943303 -22.85984,20.5049101 -40.85142,9.20787 -4.70897,-2.936959 -12.85861,-9.762862 -15.4251,-14.789991 -4.81496,-9.656864 -16.64209,-6.243912 -22.03965,-19.737721 -5.10596,-12.75272 -10.79483,-20.160916 -22.27775,-26.93412 -8.25494,-4.92093 -12.51471,-18.917433 -18.75877,-26.458023 -8.62494,-10.39796 -5.05397,-23.62697 -6.08496,-35.8241 -1.61399,-18.49404 -21.53696,-22.06589 -34.15757,-31.22036 -14.4196,-10.45085 -33.62828,-13.6523 -33.54888,-31.77595 0.0264,-7.69889 -9.81593,-11.93263 -13.7318,-17.51525 -7.03796,-9.92186 5.87396,-17.40925 2.19598,-26.98712 -3.25398,-8.46688 -16.64209,-11.05934 -21.98665,-18.38824 -7.40795,-10.18635 -3.94197,-17.06536 -16.08659,-24.07676 -23.57424,-13.54651 -46.61929,-22.99197 -64.90187,-43.47038 -6.42895,-7.1699 5.34497,-15.55728 5.34497,-23.25658 0.0265,-11.82673 -7.59395,-14.63129 -16.95969,-18.49413 -10.34513,-4.23294 -9.68393,-13.44061 -16.80088,-20.45202 -6.64096,-6.5619 -16.58929,-8.57187 -25.45283,-9.97485 -12.91152,-2.01098 -44.714802,-1.22799 -41.645122,-20.10802 l 11.283824,-23.50437 35.213958,-19.55872 v -45.46246 l 14.21591,-5.34792 v -34.76501 l 14.216,-5.34793 11.84662,-37.43957 68.71004,-16.04547 11.84662,24.06836 21.32396,21.3939 14.2159,40.11343 35.53966,8.02289 16.58529,-16.04518 82.92594,8.02189 -4.73697,-53.48514 z"
       sodipodi:nodetypes="ccccccccccccccccccccccccccccccccccccccccscccccccccccccccsccccccccccccccccccscccccccccccccccc" />
    <path
       inkscape:connector-curvature="0"
       id="path5266-3-3"
       d="m 410.17958,-528.55054 9.47694,18.71973 71.07962,2.67397 21.32396,-34.76501 -11.84672,-13.37131 -2.36799,-29.41649 -92.40328,2.67397 z"
       style="opacity:1;vector-effect:none;fill:#ffffff;fill-opacity:1;stroke:#ffffff;stroke-width:4.12745667;stroke-linecap:round;stroke-linejoin:round;stroke-miterlimit:4;stroke-dasharray:16.50982777, 16.50982777000000112;stroke-dashoffset:0;stroke-opacity:1" />
  </g>
</svg>
