<?xml version="1.0" encoding="UTF-8" standalone="no"?>
<!-- Created with Inkscape (http://www.inkscape.org/) -->

<svg
   xmlns:dc="http://purl.org/dc/elements/1.1/"
   xmlns:cc="http://creativecommons.org/ns#"
   xmlns:rdf="http://www.w3.org/1999/02/22-rdf-syntax-ns#"
   xmlns:svg="http://www.w3.org/2000/svg"
   xmlns="http://www.w3.org/2000/svg"
   xmlns:sodipodi="http://sodipodi.sourceforge.net/DTD/sodipodi-0.dtd"
   xmlns:inkscape="http://www.inkscape.org/namespaces/inkscape"
   width="266.60001mm"
   height="76.199997mm"
   viewBox="0 0 266.60002 76.199971"
   version="1.1"
   id="svg7070"
   inkscape:version="0.92.4 (5da689c313, 2019-01-14)"
   sodipodi:docname="republic_of_the_gambia.svg">
  <defs
     id="defs7064" />
  <sodipodi:namedview
     id="base"
     pagecolor="#ffffff"
     bordercolor="#666666"
     borderopacity="1.0"
     inkscape:pageopacity="0.0"
     inkscape:pageshadow="2"
     inkscape:zoom="7.9195959"
     inkscape:cx="-15.899979"
     inkscape:cy="-11.426036"
     inkscape:document-units="mm"
     inkscape:current-layer="layer1"
     showgrid="false"
     inkscape:window-width="958"
     inkscape:window-height="1008"
     inkscape:window-x="-7"
     inkscape:window-y="0"
     inkscape:window-maximized="0" />
  <metadata
     id="metadata7067">
    <rdf:RDF>
      <cc:Work
         rdf:about="">
        <dc:format>image/svg+xml</dc:format>
        <dc:type
           rdf:resource="http://purl.org/dc/dcmitype/StillImage" />
        <dc:title />
      </cc:Work>
    </rdf:RDF>
  </metadata>
  <g
     inkscape:label="Layer 1"
     inkscape:groupmode="layer"
     id="layer1"
     transform="translate(-161.64751,36.977823)">
    <path
       style="fill:#ffffff;stroke-width:26.45842361"
       inkscape:connector-curvature="0"
       id="gm"
       d="m 162.31892,8.1308405 c 16.53359,-12.9400713 14.20593,-12.2256624 22.48572,6.0069155 6.26909,13.813404 25.76726,-4.7627259 35.50184,2.408367 -20.92496,-10.7966453 43.17372,-17.12110873 47.03616,-19.3174433 -16.53359,-1.0061533 -36.40071,-0.3700564 -51.79747,6.3769715 -13.22707,5.8218869 -20.87296,9.6584718 -29.20575,-5.6628627 -7.42892,-13.6809845 7.48891,-13.8662125 16.95754,-13.1518035 24.94637,1.879286 50.26269,0.6601 75.26305,0.6601 6.44906,0 3.72946,-20.217279 18.5443,-15.983234 11.93127,3.387516 23.54458,-11.22011 35.7928,-4.78973 6.1891,3.254496 7.61889,11.273017 13.756,14.89837 5.92913,3.519536 11.45533,-2.858436 17.61943,0.07931 6.52905,3.096471 4.49935,12.966575 11.74529,16.0097386 7.69888,3.2544957 17.46047,-2.8584355 24.57643,-5.001762 8.46877,-2.5403866 28.91479,-0.7901206 27.59199,12.2785705 C 426.96642,14.95618 407.44626,17.97294 398.2396,20.592739 375.27694,27.128735 316.60148,-18.201071 307.92374,-7.4044261 297.8982,5.1386847 295.54354,7.096883 279.45888,6.6999225 c -8.75873,-0.210032 -34.94592,6.3769715 -29.62869,19.6615955 1.05984,2.593395 -79.20448,-5.874895 -82.48501,12.860659 -4.7893,-9.288415 -6.879,-20.799369 -5.02926,-31.0932368 z" />
  </g>
</svg>
