<?xml version="1.0" encoding="UTF-8" standalone="no"?>
<!-- Created with Inkscape (http://www.inkscape.org/) -->

<svg
   xmlns:dc="http://purl.org/dc/elements/1.1/"
   xmlns:cc="http://creativecommons.org/ns#"
   xmlns:rdf="http://www.w3.org/1999/02/22-rdf-syntax-ns#"
   xmlns:svg="http://www.w3.org/2000/svg"
   xmlns="http://www.w3.org/2000/svg"
   xmlns:sodipodi="http://sodipodi.sourceforge.net/DTD/sodipodi-0.dtd"
   xmlns:inkscape="http://www.inkscape.org/namespaces/inkscape"
   width="1415.6001mm"
   height="1276.8mm"
   viewBox="0 0 1415.6 1276.8"
   version="1.1"
   id="svg7070"
   inkscape:version="0.92.4 (5da689c313, 2019-01-14)"
   sodipodi:docname="republic_of_south_africa.svg">
  <defs
     id="defs7064" />
  <sodipodi:namedview
     id="base"
     pagecolor="#ffffff"
     bordercolor="#666666"
     borderopacity="1.0"
     inkscape:pageopacity="0.0"
     inkscape:pageshadow="2"
     inkscape:zoom="7.9195959"
     inkscape:cx="16.474219"
     inkscape:cy="12.56921"
     inkscape:document-units="mm"
     inkscape:current-layer="layer1"
     showgrid="false"
     inkscape:window-width="958"
     inkscape:window-height="1008"
     inkscape:window-x="-7"
     inkscape:window-y="0"
     inkscape:window-maximized="0" />
  <metadata
     id="metadata7067">
    <rdf:RDF>
      <cc:Work
         rdf:about="">
        <dc:format>image/svg+xml</dc:format>
        <dc:type
           rdf:resource="http://purl.org/dc/dcmitype/StillImage" />
        <dc:title />
      </cc:Work>
    </rdf:RDF>
  </metadata>
  <g
     inkscape:label="Layer 1"
     inkscape:groupmode="layer"
     id="layer1"
     transform="translate(-154.27116,1225.3212)">
    <path
       inkscape:connector-curvature="0"
       style="fill:#ffffff;stroke-width:26.45880508"
       d="m 154.27116,-575.2594 c 8.76012,-8.25518 22.0933,-6.56214 23.76032,-19.57963 1.43002,-11.00695 9.15012,-30.08378 20.79628,-33.78806 15.3462,-4.92111 13.44118,16.53687 23.91832,19.57964 18.12424,5.15911 -0.40001,23.25732 8.44011,34.26426 15.42621,19.36794 39.23853,21.14068 61.96683,28.36394 20.69028,6.56215 37.33251,-2.69906 57.57378,-2.17005 18.17724,0.48001 25.18833,10.74224 43.86859,5.21212 -11.24516,-12.75329 2.72003,-14.79063 10.23913,-17.7275 10.39914,-4.07509 11.16615,-17.51579 24.31633,-21.35238 8.47011,-2.48705 26.00835,-3.67808 27.06736,-15.39914 2.04003,-23.15152 2.70004,-46.46184 2.94004,-69.71926 1.00002,-97.65988 7.83011,-195.79597 5.11007,-293.53526 9.92013,13.99672 27.06736,20.66436 36.32749,35.24329 10.53114,16.64267 16.45722,39.13277 23.33631,57.57459 6.96009,18.60061 13.67919,38.55066 4.63006,57.78629 -11.58915,24.55395 -20.05627,37.99505 -8.73011,65.38006 20.02927,-23.09872 69.61293,12.03877 91.36222,-9.1022 3.62005,-3.51908 0.80001,-12.51508 6.14009,-13.99682 5.95008,-1.69304 11.11314,-0.53001 16.90722,-3.83608 15.0812,-8.57319 18.23025,-28.36404 33.89346,-37.73045 17.25123,-10.23963 28.25838,-21.48468 32.25343,-42.06974 3.41005,-17.9391 2.83004,-32.80903 17.59524,-46.19723 12.83217,-11.61546 29.47439,-13.94381 45.1916,-6.93215 12.91118,5.84713 31.53843,33.33824 43.86859,32.96783 27.59637,-0.71001 60.06081,32.54443 86.25516,11.88007 11.69416,-9.26021 29.21039,3.62508 43.81559,-7.22316 15.61021,-11.61546 21.27228,-31.0628 27.96637,-48.57859 3.57005,-9.26021 6.72009,-18.81232 8.25011,-28.68154 2.51004,-16.00766 -5.16007,-14.84343 11.08615,-19.42083 9.42013,-2.69906 36.9895,-7.38217 42.2016,-16.21937 9.2601,-15.82235 27.5963,-22.88695 35.3224,-39.63535 8.3902,-18.2302 4.8201,-37.0426 17.2513,-54.2144 10.6361,-14.7377 22.6223,-16.0077 36.4335,-25.6387 14.1292,-9.8692 32.1734,-25.0566 42.9425,-38.6565 9.2102,-11.589 15.2932,-29.3429 29.1314,-36.381 13.8372,-7.0381 30.1624,-7.6992 44.6356,-12.9649 13.8902,-5.0541 13.4942,-11.1656 20.2933,-21.908 5.7401,-9.1022 21.4053,-12.0387 30.9834,-14.0497 38.9735,-8.1762 62.7869,17.5158 100.7284,17.7804 33.7614,0.26 64.5058,-12.7532 75.566,28.6815 6.1601,23.0987 11.5091,46.7265 12.1181,70.7511 0.6001,21.8551 13.9432,40.6145 21.8543,60.3 16.9603,42.0696 14.6322,82.02261 12.3832,126.39421 -0.9,17.09248 0.6,41.14371 -7.8301,56.06655 -7.5901,13.5469 4.5501,31.16859 -18.8123,20.32045 -9.9501,-4.6041 -11.5351,-5.63612 -23.0983,-6.35014 -14.6842,-0.93002 -39.0795,10.39833 -28.4163,16.27216 56.1977,31.1157 -65.1679,66.7559 -26.8824,68.21113 47.2816,1.74604 49.0547,84.19228 56.4898,53.12949 18.5472,-77.20713 19.5002,6.35014 26.2473,0.61001 8.5201,-7.22316 23.6003,-31.3274 25.3203,-41.85804 23.3104,11.27156 35.9315,7.17016 60.5909,8.01718 -10.0022,44.23929 -22.3843,82.41954 -34.1845,126.23552 -6.1101,22.67531 -18.0982,68.74024 -49.3197,66.51769 4.9501,11.11275 -9.5501,10.68944 -16.2452,12.03887 -8.3601,1.69304 -15.4522,12.19757 -20.7703,18.1508 -18.7852,20.92897 -37.9945,45.77393 -46.6206,72.39162 -4.87,14.97574 -18.0972,24.44805 -25.6383,37.83625 -11.5882,20.61156 -23.7063,41.09072 -37.2535,60.45865 -24.4484,34.92578 -50.5887,58.50071 -83.1071,85.33001 -27.1724,22.3843 -43.1806,54.87582 -70.274,77.15422 -34.5284,28.36403 -68.2899,57.68049 -103.8764,84.69509 -27.9404,21.246476 -60.0088,46.673545 -95.96627,51.515453 -17.30323,2.328052 -34.47546,-7.17016 -51.54169,-1.958044 -12.38217,3.784085 -29.6334,18.759419 -12.62017,29.395857 -20.26727,9.049202 -42.70457,-16.801376 -61.70183,-3.784085 -22.14629,15.18744 -26.85536,24.1305395 -57.22977,12.567981 -22.8083,-8.678194 -52.04469,-17.939201 -76.12202,-8.784196 -10.79514,4.127092 -5.37007,11.112748 -21.69629,5.212116 -9.60013,-3.413076 -26.40535,2.540057 -31.30042,-8.572191 -0.3,1.402031 -0.3,2.778062 0,4.180093 -24.68633,-3.969089 -64.21486,7.382165 -76.83603,30.3219777 -11.03315,20.0558483 -66.17289,-0.6100136 -83.74212,6.9321553 -10.50415,4.551101 -21.59029,1.508033 -31.48543,6.191138 -11.95916,5.636126 -25.24134,17.092482 -35.74548,25.268265 -13.28217,10.345431 -8.0401,8.308185 -23.39031,4.339097 -6.67009,-1.693038 -14.18119,2.117047 -20.13427,-2.778063 C 396.26941,39.88385 389.86632,33.269402 381.16121,30.623443 396.45441,9.6944751 349.54378,8.8742568 339.14464,7.048616 c 6.38009,-16.3251648 -0.3,-30.904091 -19.68526,-27.332111 -13.22918,2.434055 -8.39012,18.0979047 -8.10011,27.332111 -23.97132,-9.3132081 -5.00007,-37.836345 -2.70004,-52.36227 2.01003,-12.673783 -4.89006,-25.744475 -11.24415,-36.116407 -3.65005,-6.006134 -33.52345,-47.387959 -13.75918,-28.258129 -8.41012,-8.46719 -4.76007,-17.8333 -17.35624,-17.7275 -10.63714,0.0529 1.06002,-26.51179 2.20003,-30.24257 27.17237,15.98125 34.18446,-15.29325 34.66047,-36.22221 0.90001,-35.8254 -9.02012,-66.04148 -27.54337,-96.73387 -27.59637,-45.69452 -52.0177,-90.96573 -67.83991,-142.32258 -7.3801,-23.97173 -12.11816,-48.68438 -21.00828,-72.20641 -8.86012,-23.49552 -30.24241,-44.47739 -32.49144,-70.11607 z"
       id="za" />
  </g>
</svg>
