<?xml version="1.0" encoding="UTF-8" standalone="no"?>
<!-- Created with Inkscape (http://www.inkscape.org/) -->

<svg
   xmlns:dc="http://purl.org/dc/elements/1.1/"
   xmlns:cc="http://creativecommons.org/ns#"
   xmlns:rdf="http://www.w3.org/1999/02/22-rdf-syntax-ns#"
   xmlns:svg="http://www.w3.org/2000/svg"
   xmlns="http://www.w3.org/2000/svg"
   xmlns:sodipodi="http://sodipodi.sourceforge.net/DTD/sodipodi-0.dtd"
   xmlns:inkscape="http://www.inkscape.org/namespaces/inkscape"
   width="777.70001mm"
   height="1881.7mm"
   viewBox="0 0 777.69992 1881.6999"
   version="1.1"
   id="svg7070"
   inkscape:version="0.92.4 (5da689c313, 2019-01-14)"
   sodipodi:docname="republic_of_the_union_of_myanmar.svg">
  <defs
     id="defs7064" />
  <sodipodi:namedview
     id="base"
     pagecolor="#ffffff"
     bordercolor="#666666"
     borderopacity="1.0"
     inkscape:pageopacity="0.0"
     inkscape:pageshadow="2"
     inkscape:zoom="5.6"
     inkscape:cx="-18.047045"
     inkscape:cy="24.402001"
     inkscape:document-units="mm"
     inkscape:current-layer="layer1"
     showgrid="false"
     inkscape:window-width="958"
     inkscape:window-height="1008"
     inkscape:window-x="-7"
     inkscape:window-y="0"
     inkscape:window-maximized="0" />
  <metadata
     id="metadata7067">
    <rdf:RDF>
      <cc:Work
         rdf:about="">
        <dc:format>image/svg+xml</dc:format>
        <dc:type
           rdf:resource="http://purl.org/dc/dcmitype/StillImage" />
        <dc:title />
      </cc:Work>
    </rdf:RDF>
  </metadata>
  <g
     inkscape:label="Layer 1"
     inkscape:groupmode="layer"
     id="layer1"
     transform="translate(-160.53622,1843.0772)">
    <g
       transform="matrix(26.457436,0,0,26.457727,-14865.065,-11084.285)"
       id="mm"
       style="fill:#ffffff">
      <path
         style="fill:#ffffff"
         inkscape:connector-curvature="0"
         id="path4568"
         d="m 570.266,380.223 c -0.022,0.163 0.051,0.28 0.221,0.349 -0.075,-0.117 -0.148,-0.234 -0.221,-0.349 z" />
      <path
         style="fill:#ffffff"
         inkscape:connector-curvature="0"
         id="path4570"
         d="m 570.963,381.906 c 0.147,0.211 0.275,0.434 0.384,0.667 -0.093,-0.361 -0.247,-0.715 -0.512,-0.984 0.043,0.105 0.086,0.211 0.128,0.317 z" />
      <path
         style="fill:#ffffff"
         inkscape:connector-curvature="0"
         id="path4572"
         d="m 572.587,382.096 c -0.111,0.256 0.217,0.543 0.38,0.668 -0.011,-0.272 -0.168,-0.509 -0.38,-0.668 z" />
      <path
         style="fill:#ffffff"
         inkscape:connector-curvature="0"
         id="path4574"
         d="m 573.823,386.161 c -0.175,0.009 -0.333,0.062 -0.477,0.158 1.032,1.188 1.044,-0.18 0.477,-0.158 z" />
      <path
         style="fill:#ffffff"
         inkscape:connector-curvature="0"
         id="path4576"
         d="m 574.682,384.318 c -0.186,-0.374 -0.646,-0.387 -0.892,-0.699 -0.461,0.471 0.464,1.346 0.892,0.699 z" />
      <path
         style="fill:#ffffff"
         inkscape:connector-curvature="0"
         id="path4578"
         d="m 578.367,396.229 c -0.214,0.234 -0.996,0.97 -0.543,1.303 0.326,-0.344 0.8,-0.777 0.543,-1.303 z" />
      <path
         style="fill:#ffffff"
         inkscape:connector-curvature="0"
         id="path4580"
         d="m 579.099,397.471 c -0.086,0.151 -0.154,0.105 0,0.318 0,-0.106 0,-0.212 0,-0.318 z" />
      <path
         style="fill:#ffffff"
         inkscape:connector-curvature="0"
         id="path4582"
         d="m 587.835,395.246 c -0.172,0.075 -0.227,0.762 -0.007,0.762 0.43,0 0.416,-0.709 0.007,-0.762 z" />
      <path
         style="fill:#ffffff"
         inkscape:connector-curvature="0"
         id="path4584"
         d="m 590.944,411.318 c 0.091,-0.099 0.145,-0.215 0.158,-0.35 -0.376,-0.061 -0.43,0.055 -0.158,0.35 z" />
      <path
         style="fill:#ffffff"
         inkscape:connector-curvature="0"
         id="path4586"
         d="m 591.358,413.733 c 0.01,-0.239 -0.064,-0.451 -0.226,-0.635 0.092,0.206 0.167,0.418 0.226,0.635 z" />
      <path
         style="fill:#ffffff"
         inkscape:connector-curvature="0"
         id="path4588"
         d="m 591.262,411.795 c 0.063,0 0.126,0 0.189,0 -0.08,-0.129 -0.176,-0.246 -0.286,-0.35 0.032,0.117 0.064,0.233 0.097,0.35 z" />
      <path
         style="fill:#ffffff"
         inkscape:connector-curvature="0"
         id="path4590"
         d="m 591.707,408.713 c 0.201,-0.253 0.089,-0.515 -0.189,-0.635 0.06,0.213 0.124,0.424 0.189,0.635 z" />
      <path
         style="fill:#ffffff"
         inkscape:connector-curvature="0"
         id="path4592"
         d="m 592.404,417.322 c -0.042,-0.372 -0.223,-0.712 -0.538,-0.921 -0.083,0.094 -0.146,0.2 -0.19,0.317 0.435,-0.209 0.596,0.316 0.728,0.604 z" />
      <path
         style="fill:#ffffff"
         inkscape:connector-curvature="0"
         id="path4594"
         d="m 591.803,414.527 c 0.535,-0.037 0.483,-1.005 0.252,-1.303 -0.11,0.429 -0.194,0.866 -0.252,1.303 z" />
      <path
         style="fill:#ffffff"
         inkscape:connector-curvature="0"
         id="path4596"
         d="m 592.024,411.032 c 0.162,0.231 0.881,-1.187 -0.128,-0.985 0.063,0.325 0.196,0.647 0.128,0.985 z" />
      <path
         style="fill:#ffffff"
         inkscape:connector-curvature="0"
         id="path4598"
         d="m 592.183,420.086 c 0.021,0.105 0.041,0.211 0.062,0.317 0.197,-0.126 0.293,-0.306 0.286,-0.54 -0.123,0.063 -0.239,0.137 -0.348,0.223 z" />
      <path
         style="fill:#ffffff"
         inkscape:connector-curvature="0"
         id="path4600"
         d="m 592.597,413.924 c 0.074,0.184 0.212,0.278 0.41,0.285 0.158,-1.032 -0.99,-1.229 -0.41,-0.285 z" />
      <path
         style="fill:#ffffff"
         inkscape:connector-curvature="0"
         id="path4602"
         d="m 592.562,412.43 c 0.087,0.147 0.173,0.296 0.256,0.444 0.125,-0.073 0.23,-0.17 0.318,-0.285 -0.256,-0.1 -0.469,-0.259 -0.636,-0.477 0.022,0.106 0.043,0.212 0.062,0.318 z" />
      <path
         style="fill:#ffffff"
         inkscape:connector-curvature="0"
         id="path4604"
         d="m 592.531,410.842 c 0.064,-0.17 0.172,-0.106 0.031,-0.349 -0.009,0.116 -0.02,0.233 -0.031,0.349 z" />
      <path
         style="fill:#ffffff"
         inkscape:connector-curvature="0"
         id="path4608"
         d="m 567.916,377.362 c 0.031,-0.244 -0.02,-0.862 0.342,-0.903 0.448,-0.05 0.736,0.625 1.185,0.49 -0.236,-0.567 -0.401,-1.166 -0.462,-1.779 0.015,-0.252 -0.013,-0.5 -0.079,-0.743 -0.095,-0.236 0.28,-0.478 0.223,-0.749 0.323,0.115 0.502,0.801 0.902,0.675 0.287,-0.09 0.155,-0.653 0.21,-0.866 0.666,0.389 0.381,-0.59 0.259,-0.882 -0.344,-0.82 -0.274,-1.458 -0.387,-2.326 0.655,0.486 0.681,-0.515 0.669,-0.928 -0.03,-1.018 -0.222,-1.894 -0.572,-2.853 0.152,-0.011 0.287,0.033 0.404,0.132 0.302,0.202 0.283,0.055 0.644,-0.01 0.358,-0.063 1.435,0.387 1.715,0.609 -0.013,-1.458 1.994,-4.056 0.863,-5.191 -0.6,-0.602 0.672,-1.441 0.809,-2.043 0.159,-0.701 0.37,-1.106 0.021,-1.728 -0.287,-0.511 -0.375,-1.492 0.183,-1.87 0.172,-0.118 0.696,0.038 0.728,-0.268 0.029,-0.285 0.599,-0.475 0.818,-0.684 0.277,-0.265 0.429,-0.533 0.614,-0.865 0.315,-0.563 1.133,-0.481 1.682,-0.565 0.265,-0.041 0.586,-0.226 0.819,-0.003 0.314,0.301 0.639,1.002 1.215,0.765 -0.09,-0.488 -0.569,-0.725 -0.864,-1.071 -0.54,-0.636 -0.179,-1.126 0.305,-1.61 0.695,-0.694 0.369,-0.554 0.369,-1.305 0,-0.266 0.334,-0.368 0.309,-0.614 -0.03,-0.306 0.092,-0.592 0.102,-0.895 0.594,0.66 1.786,0.767 2.267,1.61 0.175,0.306 0.12,0.683 0.275,0.994 0.21,0.423 0.521,0.785 0.731,1.207 0.247,-0.087 0.381,-0.286 0.252,-0.54 1.317,0.612 1.349,1.972 1.708,3.275 0.177,0.643 0.299,1.185 0.196,1.848 -0.043,0.272 0.451,1.186 -0.25,0.912 0.107,0.275 1.014,1.343 0.113,1.073 -0.161,-0.048 -0.448,0.639 -0.421,0.769 0.088,0.415 -0.459,0.144 -0.676,0.128 -0.066,0.233 -0.117,1.977 -0.86,1.303 0.031,0.588 -0.277,1.027 0.065,1.588 -0.592,0.047 -0.589,0.474 -0.564,0.938 0.025,0.48 0.418,0.486 0.585,0.858 0.073,0.163 0.338,0.612 0.265,0.795 -0.128,0.318 -0.614,0.771 -0.21,1.091 0.189,0.149 1.274,-0.71 1.459,-0.813 0.801,-0.45 1.758,0.273 2.529,-0.296 0.123,0.497 -0.524,0.692 -0.359,1.186 0.093,0.279 0.281,0.419 0.471,0.625 0.241,0.261 -0.058,0.552 0.11,0.696 0.452,0.39 0.28,1.11 0.867,1.409 0.8,0.407 1.447,-0.107 1.771,0.849 -0.821,-0.033 -0.372,0.954 -0.315,1.4 0.061,0.468 -0.938,1.389 -0.091,1.66 0.577,0.186 1.798,-0.199 2.281,0.243 0.528,0.484 -0.211,1.416 0.855,1.43 -0.145,0.222 -0.03,0.629 0.122,0.817 0.246,0.306 0.479,-0.359 0.822,-0.138 0.709,0.457 1.633,-0.661 2.17,-1.061 0.039,0.554 0.462,0.863 -0.053,1.324 -0.236,0.213 -0.781,0.335 -0.921,0.579 -0.108,0.193 -0.788,1.85 -0.138,1.464 -0.051,0.472 -0.804,0.234 -1.08,0.445 -0.484,0.367 -0.32,1.104 -0.446,1.619 -0.644,-0.632 -1.152,0.089 -1.937,0.127 0.206,0.268 0.204,0.711 -0.143,0.867 -0.344,0.154 -0.553,-0.206 -0.872,-0.18 -0.397,0.033 -0.304,0.897 -0.376,1.157 -0.081,0.292 -0.25,0.257 -0.46,0.115 -0.207,-0.14 -0.735,0.469 -1.039,0.439 -0.153,-0.016 -1.65,-0.235 -1.65,-0.275 0,0.517 -0.414,0.861 -0.55,1.375 -0.066,0.252 0.124,0.555 0.182,0.79 0.077,0.316 -0.238,0.65 -0.279,0.966 -0.054,0.412 0.576,0.89 0.292,1.316 -0.257,0.385 -1.06,0.498 -1.299,0.037 0.134,0.47 0.422,1.337 1.08,1.144 -0.057,0.299 0.144,0.539 0.284,0.775 0.209,0.353 0.094,0.704 0.225,1.066 0.225,0.628 1.124,1.376 1.572,1.869 0.274,0.302 0.556,0.598 0.778,0.942 0.204,0.314 0.587,0.246 0.732,0.746 0.229,0.785 0.382,1.561 0.918,2.224 0.176,-0.194 0.304,-0.417 0.384,-0.668 0.4,0.331 0.257,1 -0.098,1.303 -0.471,0.402 -0.736,-0.016 -0.568,0.815 0.095,0.472 0.197,1.222 0.147,1.696 -0.04,0.376 -0.615,0.348 -0.501,0.792 -0.308,-0.277 -0.553,-0.061 -0.62,0.277 -0.098,0.485 0.165,1.099 0.396,1.512 0.617,1.108 1.742,1.894 2.591,2.797 0.799,0.851 0.945,2.003 1.051,3.102 0.049,0.507 -0.263,0.447 -0.021,1.019 0.229,0.542 0.262,0.853 0.696,1.279 0.408,0.401 0.338,0.853 0.505,1.354 0.172,0.511 0.489,0.941 0.639,1.464 0.212,0.747 -0.492,1.75 -0.831,2.431 -0.354,0.71 -0.806,1.531 -1.382,2.01 -0.4,0.333 0.04,0.707 -0.155,1.098 -0.287,0.572 -0.339,1.226 -0.677,1.797 -0.38,-0.597 -0.186,-1.475 -0.344,-2.145 -0.064,-0.274 -0.211,-0.511 0.061,-0.679 0.331,-0.205 0.078,-0.328 0.237,-0.584 0.343,-0.549 0.418,-1.207 0.287,-1.852 -0.062,-0.305 -0.25,-1.318 0.302,-1.316 -0.088,-0.147 -0.131,-0.306 -0.128,-0.477 -0.154,0.213 -0.378,0.379 -0.635,0.445 -0.079,-0.454 0.546,-0.701 -0.098,-0.636 0.735,-0.35 -0.342,-0.904 0.256,-1.239 -0.264,0.07 -0.485,-0.066 -0.573,-0.317 0.174,-0.025 0.333,-0.089 0.477,-0.19 -0.288,-0.155 -0.487,-0.5 -0.03,-0.604 -0.393,-0.13 -0.155,-0.512 -0.215,-0.864 -0.099,-0.587 -0.321,-1.204 -0.547,-1.753 -0.237,-0.577 -0.588,-1.13 -0.868,-1.69 -0.267,-0.533 -0.292,-1.177 -0.655,-1.664 0.168,0.454 0.377,1.492 0.03,1.905 0.122,-0.376 -0.201,-0.713 -0.232,-1.075 -0.03,-0.342 -0.041,-0.9 -0.12,-1.212 -0.074,-0.295 -1.287,-2.381 -0.538,-1.97 -0.031,-0.126 -0.084,-0.242 -0.159,-0.35 -0.105,0.064 -0.211,0.128 -0.317,0.191 -0.547,-1.365 -0.425,-2.894 -0.925,-4.255 -0.098,-0.263 -0.333,-0.406 -0.449,-0.649 -0.103,-0.217 0.016,-0.473 0.003,-0.7 -0.022,-0.416 -0.317,-1.229 0.229,-1.447 -0.352,0.057 -0.969,0.299 -1.23,-0.044 -0.478,-0.625 -0.855,-1.312 -0.9,-2.116 -0.313,0.21 -0.253,-0.249 -0.52,-0.494 -0.23,-0.211 -0.527,-0.395 -0.623,-0.713 -0.064,0.081 0.049,0.767 0.047,0.923 -0.008,0.537 0.318,1.088 0.031,1.65 -0.207,0.407 -0.47,0.973 -0.996,1.016 -0.541,0.046 -1.16,-0.686 -0.764,-1.175 -0.627,0.157 -0.084,0.619 0.083,1.006 0.232,0.534 -0.331,1.145 -0.815,0.646 0.518,0.365 -0.511,1.012 -0.892,0.636 0.129,0.486 -0.257,2.14 -1.057,1.837 -0.412,-0.156 -0.029,-1.255 -0.117,-1.583 -0.02,0.029 -0.434,1.542 -0.221,0.54 -0.13,0.271 -0.183,0.558 -0.158,0.857 -0.396,-0.195 -0.506,-1.061 -0.193,-1.303 -0.47,-0.307 -0.285,1.908 -0.916,1.356 -0.302,-0.263 -0.039,-1.697 0.219,-1.833 -0.464,0.183 -0.591,1.131 -0.825,1.557 -0.139,-0.082 -0.254,-0.188 -0.349,-0.317 0.389,-0.163 0.441,-0.564 0.538,-0.921 -0.182,0.312 -0.256,0.778 -0.697,0.825 0.479,-0.645 0.261,-1.455 0.349,-2.191 -0.063,0.006 -0.126,0.006 -0.189,0 0.247,0.53 -0.473,1.717 -0.967,1.915 -0.714,0.287 -0.136,-2.733 -0.044,-3.068 0.093,-0.336 -0.01,-1.329 0.177,-1.505 0.473,-0.447 -0.043,-1.706 -0.266,-2.199 -0.287,-0.634 -0.19,-1.599 -0.661,-2.118 -0.199,-0.221 -0.314,-0.508 -0.443,-0.771 -0.193,-0.395 -0.716,-0.628 -0.179,-0.734 -0.375,-0.259 -0.825,-0.347 -0.825,-0.895 0,-0.408 0.023,-1.064 -0.193,-1.425 0.052,0.297 0.184,0.981 -0.349,0.604 0.245,0.301 0.443,0.899 0.256,1.271 -0.769,-0.312 -1.238,-1.107 -1.69,-1.76 -0.124,-0.178 0.267,-0.359 0.399,-0.117 0.099,0.183 0.358,0.246 0.542,0.299 0.413,0.119 0.942,-0.101 0.561,-0.604 -0.215,-0.285 -1.178,-0.652 -0.606,-1.058 -0.258,-0.006 -0.512,-0.038 -0.763,-0.096 0.078,-0.216 0.109,-0.438 0.093,-0.667 -0.292,0.143 -0.693,-0.201 -0.854,-0.404 -0.303,-0.38 -0.562,-0.112 -0.985,-0.294 0.147,0.339 0.334,0.661 0.446,1.016 -0.136,-0.218 -0.264,-0.44 -0.385,-0.667 -0.057,0.231 -0.015,0.444 0.128,0.636 -0.379,-0.521 -0.584,-0.848 -0.251,-1.462 -0.147,0.027 -0.296,0.038 -0.445,0.032 0.087,-0.226 0.181,-0.448 0.282,-0.667 -0.062,0.013 -0.113,0.046 -0.155,0.095 -0.063,-0.243 -0.063,-0.487 0,-0.73 -0.22,0.533 -0.186,1.13 -0.445,1.651 -0.425,-0.186 -0.229,-0.418 -0.182,-0.752 0.056,-0.389 -0.391,-0.71 -0.581,-0.994 0.056,0.323 0.245,0.668 0.03,0.983 -0.159,-0.588 -0.767,-0.873 -1.104,-1.339 -0.415,-0.562 -0.658,-1.362 -0.965,-1.993 z" />
    </g>
  </g>
</svg>
