<?xml version="1.0" encoding="UTF-8" standalone="no"?>
<!-- Created with Inkscape (http://www.inkscape.org/) -->

<svg
   xmlns:dc="http://purl.org/dc/elements/1.1/"
   xmlns:cc="http://creativecommons.org/ns#"
   xmlns:rdf="http://www.w3.org/1999/02/22-rdf-syntax-ns#"
   xmlns:svg="http://www.w3.org/2000/svg"
   xmlns="http://www.w3.org/2000/svg"
   xmlns:sodipodi="http://sodipodi.sourceforge.net/DTD/sodipodi-0.dtd"
   xmlns:inkscape="http://www.inkscape.org/namespaces/inkscape"
   width="545.20001mm"
   height="643.29999mm"
   viewBox="0 0 545.20005 643.29981"
   version="1.1"
   id="svg7070"
   inkscape:version="0.92.4 (5da689c313, 2019-01-14)"
   sodipodi:docname="republic_of_cote_divoire.svg">
  <defs
     id="defs7064" />
  <sodipodi:namedview
     id="base"
     pagecolor="#ffffff"
     bordercolor="#666666"
     borderopacity="1.0"
     inkscape:pageopacity="0.0"
     inkscape:pageshadow="2"
     inkscape:zoom="7.9195959"
     inkscape:cx="-8.5175294"
     inkscape:cy="-4.0021552"
     inkscape:document-units="mm"
     inkscape:current-layer="layer1"
     showgrid="false"
     inkscape:window-width="958"
     inkscape:window-height="1008"
     inkscape:window-x="-7"
     inkscape:window-y="0"
     inkscape:window-maximized="0" />
  <metadata
     id="metadata7067">
    <rdf:RDF>
      <cc:Work
         rdf:about="">
        <dc:format>image/svg+xml</dc:format>
        <dc:type
           rdf:resource="http://purl.org/dc/dcmitype/StillImage" />
        <dc:title />
      </cc:Work>
    </rdf:RDF>
  </metadata>
  <g
     inkscape:label="Layer 1"
     inkscape:groupmode="layer"
     id="layer1"
     transform="translate(-159.69423,602.11359)">
    <path
       style="fill:#ffffff;stroke-width:26.46026421"
       inkscape:connector-curvature="0"
       id="ci"
       d="m 159.69423,-175.15265 c 5.00039,-10.79573 17.99341,-13.12429 22.51776,-24.76668 2.99024,-7.69952 5.34042,-19.95095 5.85046,-28.15361 1.00008,-14.8706 -4.97039,-41.91284 -15.77023,-52.97319 6.91054,-7.27649 16.43228,-3.51924 23.47083,0.82006 1.53012,-8.7846 15.66423,-18.38975 10.08079,-28.10061 -4.50035,-7.91153 2.88023,-24.60796 13.49506,-18.91898 -8.04063,-11.93351 -22.04173,-19.31591 -25.66701,-34.05421 -6.83053,-27.70377 44.93052,-5.9534 53.34418,-2.11714 -6.06048,-18.38975 -3.7803,-38.92284 -27.67717,-42.8389 4.37034,-12.30394 4.42035,-25.37532 20.21558,-27.75668 -13.12403,-15.50566 -15.61122,-12.14523 -10.98086,-35.2978 -28.52423,18.33685 -28.41822,-45.16746 -23.57584,-58.82088 4.39034,-12.43625 20.24158,-12.78027 28.60324,-21.00933 4.79037,-4.71032 3.36026,-13.38881 8.39065,-17.64889 7.41058,-6.27143 16.14127,-2.22216 24.39691,-5.9004 -1.77014,16.37881 31.38246,32.75762 44.61249,26.90992 -8.92069,-14.81771 6.24049,-15.63796 17.06634,-15.45275 14.44813,0.21002 9.34073,-23.73471 9.79077,-33.31326 5.69044,3.17522 11.5899,13.86504 19.36851,11.7747 7.46059,-2.06414 8.9407,-16.08769 16.80232,-19.34231 6.4305,11.64249 -5.72045,51.06806 11.13987,55.03703 8.65068,2.03714 42.28431,-43.76497 51.86306,-22.01479 5.21041,11.8806 19.1305,7.30349 28.81526,12.67436 13.33604,7.3825 13.65307,24.84608 21.45968,35.13908 14.26211,18.76027 34.18667,30.37626 57.28648,34.34523 0.20002,-20.42719 30.24437,-24.81958 44.58549,-30.27035 13.12503,-5.00134 47.02068,10.00187 55.46134,-2.54018 4.02032,6.32343 16.24627,16.72284 18.49545,22.35882 4.68037,11.58949 9.82077,22.91445 20.13658,30.61437 2.14016,-2.69918 4.13032,-5.53037 5.95046,-8.41457 3.7603,13.75934 -10.2928,27.86259 -5.00039,41.03969 5.42043,13.54761 12.27696,20.82411 14.18211,36.9912 1.56012,13.44181 9.87077,36.06525 4.95039,48.73961 -5.56044,14.20906 -18.04641,21.85608 -25.00496,34.76865 -9.26072,17.19907 -21.59169,26.93633 -25.08496,45.6966 -3.8103,20.37428 -10.1338,42.62729 -13.70607,62.52524 -3.57028,19.89805 3.33026,47.12549 9.15071,66.09738 4.74037,15.55865 17.27935,36.54148 12.754,53.290711 29.90034,-8.255559 15.3212,37.097115 20.18958,51.279776 -6.01047,-0.110007 -11.88093,0.770052 -17.62238,2.540172 1.72014,-3.202217 3.68029,-6.297426 5.85046,-9.260627 -14.0501,21.141633 -25.66601,-5.424368 -28.60324,-15.981984 -7.59059,8.414571 -10.47882,20.05686 -23.47084,21.035826 -8.41066,0.610042 -19.1835,-3.360228 -25.21697,-9.260627 -4.63036,8.520577 -15.2942,0.480032 -19.36852,-3.360228 7.33058,-1.61411 15.47921,5.530375 21.00965,-2.540172 -2.41019,-2.752187 -5.21041,-4.974338 -8.41066,-6.720456 3.47027,16.802139 -3.39027,1.138077 -15.05618,4.180283 2.41019,5.001339 -27.65116,2.170148 -34.95374,2.9372 -3.73029,0.420028 -41.06721,7.09148 -38.04998,8.731591 18.73347,10.081284 55.43434,-22.27941 70.46352,-3.25422 -23.28482,1.297088 -45.53856,5.107346 -68.34735,9.15562 -5.1304,0.930063 -15.79624,3.09621 -19.07749,-2.937199 -4.66037,-8.519577 -27.17513,-4.657315 -35.24576,3.043207 13.23103,-5.318361 20.55961,-3.863262 33.63163,0.820055 -28.63024,3.254221 -59.13863,1.693115 -86.10174,13.388808 C 369.79768,-12.210105 348.86804,6.7088778 322.831,9.3284553 309.57396,10.677547 281.26175,25.654362 271.49698,35.0741 249.58827,56.16283 245.75097,17.187088 249.16523,1.1787029 c 4.05032,-19.1306969 10.66284,-40.2194259 15.95525,-55.9631929 7.04055,-20.982823 1.03008,-43.81797 -15.53221,-57.73601 -10.08179,-8.46758 -24.68794,-12.25103 -23.04681,-29.92633 1.88015,-20.32138 -60.01269,-2.64618 -47.46971,-25.98386 -7.52059,1.69311 -14.23612,-1.61411 -19.36952,-6.72046 z" />
  </g>
</svg>
