<?xml version="1.0" encoding="UTF-8" standalone="no"?>
<!-- Created with Inkscape (http://www.inkscape.org/) -->

<svg
   xmlns:dc="http://purl.org/dc/elements/1.1/"
   xmlns:cc="http://creativecommons.org/ns#"
   xmlns:rdf="http://www.w3.org/1999/02/22-rdf-syntax-ns#"
   xmlns:svg="http://www.w3.org/2000/svg"
   xmlns="http://www.w3.org/2000/svg"
   xmlns:sodipodi="http://sodipodi.sourceforge.net/DTD/sodipodi-0.dtd"
   xmlns:inkscape="http://www.inkscape.org/namespaces/inkscape"
   width="6.6891608mm"
   height="8.7616739mm"
   viewBox="0 0 6.689161 8.7616729"
   version="1.1"
   id="svg7070"
   inkscape:version="0.92.4 (5da689c313, 2019-01-14)"
   sodipodi:docname="republic_of_the_congo.svg">
  <defs
     id="defs7064" />
  <sodipodi:namedview
     id="base"
     pagecolor="#ffffff"
     bordercolor="#666666"
     borderopacity="1.0"
     inkscape:pageopacity="0.0"
     inkscape:pageshadow="2"
     inkscape:zoom="7.9195959"
     inkscape:cx="23.212656"
     inkscape:cy="0.901209"
     inkscape:document-units="mm"
     inkscape:current-layer="layer1"
     showgrid="false"
     inkscape:window-width="958"
     inkscape:window-height="1008"
     inkscape:window-x="-7"
     inkscape:window-y="0"
     inkscape:window-maximized="0" />
  <metadata
     id="metadata7067">
    <rdf:RDF>
      <cc:Work
         rdf:about="">
        <dc:format>image/svg+xml</dc:format>
        <dc:type
           rdf:resource="http://purl.org/dc/dcmitype/StillImage" />
        <dc:title></dc:title>
      </cc:Work>
    </rdf:RDF>
  </metadata>
  <g
     inkscape:label="Layer 1"
     inkscape:groupmode="layer"
     id="layer1"
     transform="translate(-156.88152,-38.293667)">
    <path
       inkscape:connector-curvature="0"
       style="fill:#aaaaaa;stroke-width:0.26458332"
       d="m 156.88152,45.981016 c 0.0683,-0.205581 0.10901,-0.2667 0.27914,-0.395288 0.15028,-0.114829 0.2032,0.265113 0.40031,0.144198 0.0281,-0.01693 -0.008,-0.18706 0.0225,-0.25056 0.0659,-0.135996 -0.0751,-0.166423 -0.1561,-0.218017 -0.0714,-0.04551 0.1307,-0.492389 -0.18363,-0.405077 0.10954,-0.150283 0.0783,-0.329671 0.0326,-0.496094 0.127,0.0299 0.17991,0.0164 0.30268,0.01852 0.0542,5.29e-4 0.0802,0.08255 0.13071,0.07038 0.15134,-0.03678 0.41857,0.0021 0.38444,-0.225425 -0.0238,-0.155575 -0.0765,-0.486304 0.22119,-0.325966 0.10848,0.05847 0.30189,0.382852 0.23124,0.504825 0.13838,-0.07964 0.26961,0.09208 0.4109,0.05794 0.12118,-0.02884 0.23786,-0.225425 0.26961,-0.33602 0.0376,0.06826 0.10398,0.448468 0.18918,0.441854 0.0635,-0.0056 0.22913,-0.170657 0.21854,-0.242359 -0.0111,-0.07276 0.006,-0.324643 0.0802,-0.368035 0.0987,-0.05689 0.19183,-0.244475 0.0667,-0.327554 0.17012,-0.06006 0.0863,-0.384969 0.05,-0.503238 -0.0561,-0.180975 0.13124,-0.381264 0.0444,-0.541073 -0.0513,-0.09499 -0.18282,-0.123031 -0.27887,-0.123031 -0.0524,-0.03916 -0.006,-0.170656 -0.118,-0.181504 -0.29104,-0.02831 -0.0646,-0.181504 -0.10001,-0.361156 -0.0246,-0.123561 0.0183,-0.366977 0.13282,-0.449527 0.12012,-0.08678 0.22516,-0.04286 0.30215,-0.20664 0.0601,-0.126735 -0.0362,-0.22225 -0.0825,-0.332846 -0.0836,-0.197908 -0.10583,-0.379412 -0.372,-0.34581 -0.22543,0.02831 -0.42334,0.157691 -0.64532,0.195791 0.063,-0.165893 -0.008,-0.346339 -0.0217,-0.513556 -0.0143,-0.167481 0.12859,-0.269346 0.12753,-0.40296 -5.3e-4,-0.07488 0.87604,-0.02434 0.95382,-0.03254 0.15029,-0.0164 0.2032,0.02328 0.34634,0.03413 0.12039,0.0093 0.13838,0.170656 0.29978,0.126736 0.31723,-0.08678 0.64955,0.138377 0.86651,0.351895 0.10292,-0.146314 5.3e-4,-0.254793 0.007,-0.408781 0.005,-0.127 0.13176,-0.2032 0.1778,-0.314325 0.0648,-0.156633 0.14394,-0.309033 0.18204,-0.474927 0.0307,-0.132821 -0.018,-0.255852 0.0111,-0.384439 0.0222,-0.09763 0.0487,-0.242888 0.14631,-0.296598 0.12489,-0.06826 0.28178,-5.3e-4 0.4154,-0.05741 0.14473,-0.06191 0.25691,-0.161131 0.41857,-0.08573 0.15848,0.07382 0.2667,0.139965 0.44609,0.111125 0.22013,-0.03572 0.4482,-0.104775 0.47757,0.196321 0.0259,0.264054 -0.19156,0.640821 -0.3175,0.86651 -0.14817,0.265642 -0.18865,0.424657 -0.19103,0.732896 -0.002,0.170656 -0.01,0.344223 -0.0616,0.508 -0.0569,0.179388 -0.14605,0.277548 -0.10213,0.472811 0.0275,0.12356 -0.009,0.250031 -0.0177,0.378354 -0.009,0.127 -0.0246,0.237066 -0.0611,0.359039 -0.0939,0.31459 0.0212,0.61648 -0.22781,0.88318 -0.21854,0.234156 -0.4609,0.297656 -0.61992,0.595841 -0.0735,0.138906 -0.13176,0.302948 -0.20902,0.439209 -0.0831,0.146314 -0.29845,0.272785 -0.32808,0.441854 -0.0524,0.296068 -0.007,0.60616 -0.023,0.912018 -0.0138,0.259821 -0.17806,0.727075 -0.42915,0.83873 -0.0974,0.04339 -0.21643,0.105304 -0.24951,0.2159 -0.0175,0.059 -0.21563,0.136525 -0.27358,0.202141 -0.10556,0.119327 -0.18071,0.250032 -0.27596,0.37465 -0.12885,0.168011 -0.28654,-0.01296 -0.37279,0.09869 0,-0.10795 -0.0794,-0.298186 -0.005,-0.387086 0.0601,-0.07144 0.0651,-0.155045 -0.0513,-0.180975 -0.15557,-0.03413 -0.3593,0.271198 -0.49027,0.09763 -0.0653,0.06879 -0.054,0.154516 -0.0878,0.235214 -0.0455,0.107421 -0.18891,0.147373 -0.26564,0.226748 -0.008,-0.140494 -0.204,-0.160073 -0.23627,-0.293952 -0.13335,0.144727 -0.20876,-0.367506 -0.38709,-0.08678 -0.0614,0.09657 -0.16457,0.08123 -0.24553,0.140494 -0.0857,0.0635 -0.2249,0.192352 -0.28549,0.284162 -0.15213,0.229923 -0.24103,-0.156104 -0.2704,-0.266171 -0.0783,-0.287602 -0.39,-0.538427 -0.60193,-0.736335 z"
       id="cg" />
  </g>
</svg>
