<?xml version="1.0" encoding="UTF-8" standalone="no"?>
<!-- Created with Inkscape (http://www.inkscape.org/) -->

<svg
   xmlns:dc="http://purl.org/dc/elements/1.1/"
   xmlns:cc="http://creativecommons.org/ns#"
   xmlns:rdf="http://www.w3.org/1999/02/22-rdf-syntax-ns#"
   xmlns:svg="http://www.w3.org/2000/svg"
   xmlns="http://www.w3.org/2000/svg"
   xmlns:sodipodi="http://sodipodi.sourceforge.net/DTD/sodipodi-0.dtd"
   xmlns:inkscape="http://www.inkscape.org/namespaces/inkscape"
   width="351.30002mm"
   height="418.70001mm"
   viewBox="0 0 351.3 418.70001"
   version="1.1"
   id="svg7070"
   inkscape:version="0.92.4 (5da689c313, 2019-01-14)"
   sodipodi:docname="republic_of_suriname.svg">
  <defs
     id="defs7064" />
  <sodipodi:namedview
     id="base"
     pagecolor="#ffffff"
     bordercolor="#666666"
     borderopacity="1.0"
     inkscape:pageopacity="0.0"
     inkscape:pageshadow="2"
     inkscape:zoom="1.4"
     inkscape:cx="-197.35386"
     inkscape:cy="-130.79386"
     inkscape:document-units="mm"
     inkscape:current-layer="layer1"
     showgrid="false"
     inkscape:window-width="958"
     inkscape:window-height="1008"
     inkscape:window-x="-7"
     inkscape:window-y="0"
     inkscape:window-maximized="0" />
  <metadata
     id="metadata7067">
    <rdf:RDF>
      <cc:Work
         rdf:about="">
        <dc:format>image/svg+xml</dc:format>
        <dc:type
           rdf:resource="http://purl.org/dc/dcmitype/StillImage" />
        <dc:title />
      </cc:Work>
    </rdf:RDF>
  </metadata>
  <g
     inkscape:label="Layer 1"
     inkscape:groupmode="layer"
     id="layer1"
     transform="translate(-237.2482,348.13653)">
    <path
       inkscape:connector-curvature="0"
       style="fill:#ffffff;stroke-width:26.45890999"
       d="m 254.66021,-101.31159 c -9.60075,-5.74081 -17.54337,-40.40041 -17.41036,-51.83002 0.20002,-16.74762 -0.10001,-43.4167 1.2201,-58.55028 2.78021,-31.27272 29.90033,-33.73323 48.5808,-35.40007 10.68983,-0.97997 24.95195,-25.47852 6.35049,-30.74354 18.97249,-22.67402 11.4579,-72.4404 52.65612,-66.752 12.96602,1.79894 82.42445,7.85773 75.88894,30.63764 9.08071,-17.93808 -5.03039,-30.37315 23.81386,-30.29375 10.68984,0.0529 44.37447,-1.40195 45.06253,15.13368 5.56043,-7.03776 16.37928,-3.0429 23.57584,-3.35989 -1.77014,-1.24395 -25.00495,-9.81566 -21.56468,-12.14398 15.3732,-10.53004 55.54034,5.63581 72.13064,8.41371 29.00027,4.86783 27.70417,25.10803 15.05618,46.61789 -13.81208,23.41489 -32.81057,36.74943 -31.69948,66.46111 1.00007,25.9812 -1.85015,56.98923 10.76884,80.66862 10.00278,18.81125 34.79572,34.6857 21.45968,58.920662 -4.58036,8.307713 -11.72192,14.736791 -14.0501,24.235063 -2.28018,9.312679 2.38019,19.12864 0.053,28.891503 -4.31033,18.229171 -17.06733,39.8977236 -30.11235,53.126467 -4.66037,4.709838 -33.12859,-13.5462324 -36.38285,-17.5676936 -11.29888,-14.2077097 -35.53678,2.9898968 -51.78305,6.0057926 -13.09803,2.380918 -15.3732,5.264818 -27.09512,-1.137961 -12.33096,-6.7197677 -10.05579,-0.2599906 -16.88232,7.169753 -17.25235,18.705454 4.31034,17.779386 7.96062,38.389775 4.66037,26.034102 -38.02397,11.5883 -48.18477,5.105824 -7.41058,-4.709837 -19.1565,-5.635806 -24.87194,-12.038085 -6.4005,-7.143753 -8.31065,-17.09151 -12.30497,-25.584317 -7.7206,-16.3771345 -29.5033,-42.437735 -29.52931,-60.296519 0,-6.719768 -2.70021,-43.707592 -11.37789,-44.845352 -6.19048,-0.769974 -16.93432,7.910727 -22.01472,1.296955 -4.87038,-6.481776 -1.56012,-15.107179 -9.31073,-20.530987 z"
       id="sr" />
  </g>
</svg>
