<?xml version="1.0" encoding="UTF-8" standalone="no"?>
<!-- Created with Inkscape (http://www.inkscape.org/) -->

<svg
   xmlns:dc="http://purl.org/dc/elements/1.1/"
   xmlns:cc="http://creativecommons.org/ns#"
   xmlns:rdf="http://www.w3.org/1999/02/22-rdf-syntax-ns#"
   xmlns:svg="http://www.w3.org/2000/svg"
   xmlns="http://www.w3.org/2000/svg"
   xmlns:sodipodi="http://sodipodi.sourceforge.net/DTD/sodipodi-0.dtd"
   xmlns:inkscape="http://www.inkscape.org/namespaces/inkscape"
   width="668.90002mm"
   height="876.20001mm"
   viewBox="0 0 668.90004 876.19991"
   version="1.1"
   id="svg7070"
   inkscape:version="0.92.4 (5da689c313, 2019-01-14)"
   sodipodi:docname="republic_of_the_congo.svg">
  <defs
     id="defs7064" />
  <sodipodi:namedview
     id="base"
     pagecolor="#ffffff"
     bordercolor="#666666"
     borderopacity="1.0"
     inkscape:pageopacity="0.0"
     inkscape:pageshadow="2"
     inkscape:zoom="7.9195959"
     inkscape:cx="6.6082734"
     inkscape:cy="0.90120973"
     inkscape:document-units="mm"
     inkscape:current-layer="layer1"
     showgrid="false"
     inkscape:window-width="958"
     inkscape:window-height="1008"
     inkscape:window-x="-7"
     inkscape:window-y="0"
     inkscape:window-maximized="0" />
  <metadata
     id="metadata7067">
    <rdf:RDF>
      <cc:Work
         rdf:about="">
        <dc:format>image/svg+xml</dc:format>
        <dc:type
           rdf:resource="http://purl.org/dc/dcmitype/StillImage" />
        <dc:title />
      </cc:Work>
    </rdf:RDF>
  </metadata>
  <g
     inkscape:label="Layer 1"
     inkscape:groupmode="layer"
     id="layer1"
     transform="translate(-156.88152,829.14466)">
    <path
       inkscape:connector-curvature="0"
       style="fill:#ffffff;stroke-width:26.45850563"
       d="m 156.88152,-60.38116 c 6.82984,-20.558866 10.90074,-26.670994 27.91333,-39.530273 15.02764,-11.483327 20.31951,26.512288 40.03004,14.420337 2.80993,-1.693063 -0.79998,-18.706694 2.24994,-25.056934 6.58984,-13.60011 -7.50982,-16.64292 -15.60962,-21.80251 -7.13983,-4.55117 13.06968,-49.24074 -18.36256,-40.50921 10.95374,-15.02886 7.82981,-32.96833 3.25992,-49.61125 12.6997,2.99011 17.99057,1.64006 30.26727,1.85207 5.41987,0.0529 8.01981,8.25531 13.07069,7.03826 15.13364,-3.67813 41.85599,0.21001 38.44308,-22.54334 -2.37995,-15.55808 -7.64982,-48.63221 22.11846,-32.59781 10.84774,5.84722 30.18828,38.28662 23.12345,50.48438 13.83766,-7.9643 26.96035,9.20834 41.08901,5.79422 12.11771,-2.88411 23.78543,-22.54334 26.96035,-33.60326 3.75991,6.82626 10.39775,44.84847 18.91755,44.18705 6.34984,-0.56002 22.91245,-17.06634 21.85347,-24.2368 -1.10997,-7.27627 0.59999,-32.46551 8.01981,-36.80487 9.86976,-5.68922 19.18254,-24.44842 6.66984,-32.75662 17.01159,-6.00623 8.62979,-38.49834 4.99988,-50.32568 -5.60987,-18.09817 13.12368,-38.12782 4.43989,-54.10931 -5.12988,-9.49936 -18.28156,-12.30356 -27.88633,-12.30356 -5.23987,-3.91615 -0.59998,-17.06624 -11.79971,-18.15108 -29.1033,-2.8311 -6.45985,-18.15108 -10.00076,-36.11694 -2.45994,-12.35657 1.82995,-36.69907 13.28168,-44.95438 12.01171,-8.67832 22.51546,-4.28616 30.21427,-20.66477 6.00986,-12.67397 -3.61991,-22.22583 -8.2498,-33.28584 -8.3598,-19.79154 -10.58275,-37.94261 -37.19911,-34.58229 -22.54246,2.83111 -42.33298,15.76969 -64.53045,19.57983 6.29985,-16.58992 -0.79998,-34.63519 -2.16994,-51.35751 -1.42997,-16.74872 12.85869,-26.9356 12.75269,-40.2975 -0.053,-7.48828 87.60189,-2.43409 95.37971,-3.25412 15.02864,-1.64006 20.31951,2.32808 34.63316,3.41312 12.03872,0.93004 13.83767,17.06624 29.97728,12.67408 31.72224,-8.67833 64.95344,13.83821 86.64892,35.19081 10.29175,-14.63195 0.053,-25.48025 0.69998,-40.87963 0.49999,-12.70047 13.17569,-20.32075 17.77958,-31.43367 6.47984,-15.66388 14.39365,-30.90445 18.20356,-47.49447 3.06993,-13.28259 -1.79996,-25.58615 1.10997,-38.44533 2.21995,-9.76336 4.86989,-24.2897 14.63065,-29.6609 12.4887,-6.82626 28.17732,-0.053 41.539,-5.74122 14.47265,-6.19123 25.69038,-16.1137 41.856,-8.57332 15.84762,7.38228 26.66936,13.99703 44.60792,11.11292 22.01247,-3.57214 44.81893,-10.47789 47.75586,19.63283 2.58993,26.40638 -19.15554,64.08449 -31.74924,86.65423 -14.81664,26.56519 -18.86455,42.46728 -19.10254,73.29233 -0.2,17.06623 -0.99998,34.42358 -6.15985,50.80189 -5.68987,17.93947 -14.60465,27.75583 -10.21276,47.28286 2.74994,12.35646 -0.89998,25.00403 -1.76996,37.83681 -0.89997,12.70047 -2.45994,23.70748 -6.10985,35.90524 -9.38977,31.46017 2.11995,61.65029 -22.78045,88.32129 -21.85348,23.41647 -46.08889,29.76671 -61.99051,59.58632 -7.34982,13.89111 -13.17568,30.29593 -20.9015,43.92253 -8.3098,14.63195 -29.84428,27.27952 -32.80721,44.18705 -5.23987,29.6079 -0.69998,60.61826 -2.29994,91.2052 -1.37997,25.98306 -17.80558,72.710206 -42.91397,83.876121 -9.73977,4.339162 -21.64248,10.530793 -24.9504,21.590805 -1.74996,5.90022 -21.56248,13.653008 -27.35735,20.214853 C 503.90818,0.92502328 496.39336,13.99601 486.86859,26.458274 473.9839,43.26 458.21528,25.162226 449.59048,36.327642 c 0,-10.795402 -7.93981,-29.8197107 -0.49998,-38.7100419 6.00985,-7.1442661 6.50984,-15.5050771 -5.12988,-18.0981741 -15.55663,-3.413127 -35.92914,27.1208102 -49.02582,9.763364 -6.52985,6.8792559 -5.39987,15.4521752 -8.77979,23.522276 -4.54989,10.7425 -18.89055,14.737849 -26.56336,22.675645 C 358.79167,21.430787 339.19214,19.472814 335.96522,6.0844155 322.63054,20.557655 315.08972,-30.667554 297.25715,-2.5939078 291.11729,7.0634519 280.80054,5.5293948 272.70474,11.456016 264.13494,17.806252 250.21528,30.691932 244.15642,39.873274 228.94379,62.866431 220.054,24.262293 217.11707,13.255183 209.28726,-15.506089 178.11801,-40.589523 156.92552,-60.38106 Z"
       id="cg" />
  </g>
</svg>
