<?xml version="1.0" encoding="UTF-8" standalone="no"?>
<!-- Created with Inkscape (http://www.inkscape.org/) -->

<svg
   xmlns:dc="http://purl.org/dc/elements/1.1/"
   xmlns:cc="http://creativecommons.org/ns#"
   xmlns:rdf="http://www.w3.org/1999/02/22-rdf-syntax-ns#"
   xmlns:svg="http://www.w3.org/2000/svg"
   xmlns="http://www.w3.org/2000/svg"
   xmlns:sodipodi="http://sodipodi.sourceforge.net/DTD/sodipodi-0.dtd"
   xmlns:inkscape="http://www.inkscape.org/namespaces/inkscape"
   width="757.70001mm"
   height="455.39999mm"
   viewBox="0 0 757.69995 455.40005"
   version="1.1"
   id="svg7070"
   inkscape:version="0.92.4 (5da689c313, 2019-01-14)"
   sodipodi:docname="romania.svg">
  <defs
     id="defs7064" />
  <sodipodi:namedview
     id="base"
     pagecolor="#ffffff"
     bordercolor="#666666"
     borderopacity="1.0"
     inkscape:pageopacity="0.0"
     inkscape:pageshadow="2"
     inkscape:zoom="7.9195959"
     inkscape:cx="6.1784744"
     inkscape:cy="-11.552046"
     inkscape:document-units="mm"
     inkscape:current-layer="layer1"
     showgrid="false"
     inkscape:window-width="958"
     inkscape:window-height="1008"
     inkscape:window-x="-7"
     inkscape:window-y="0"
     inkscape:window-maximized="0" />
  <metadata
     id="metadata7067">
    <rdf:RDF>
      <cc:Work
         rdf:about="">
        <dc:format>image/svg+xml</dc:format>
        <dc:type
           rdf:resource="http://purl.org/dc/dcmitype/StillImage" />
        <dc:title />
      </cc:Work>
    </rdf:RDF>
  </metadata>
  <g
     inkscape:label="Layer 1"
     inkscape:groupmode="layer"
     id="layer1"
     transform="translate(-156.99524,409.09322)">
    <path
       inkscape:connector-curvature="0"
       style="fill:#ffffff;stroke-width:26.45945358"
       d="m 157.05324,-199.29459 c 9.15013,-6.24444 16.11323,-5.7154 25.32136,-3.33423 8.94013,2.30216 9.50013,-9.26066 16.72124,-11.77483 7.94011,-2.7522 16.51023,-0.74006 24.47434,-3.25423 11.53617,-3.62526 9.31014,-17.56965 14.73821,-26.19566 5.13007,-8.22858 12.11717,-15.10876 17.93826,-22.86161 7.4401,-9.94871 6.51009,-18.86614 13.17718,-27.86257 5.90009,-7.93756 12.75218,-17.25202 15.98023,-26.7513 3.76005,-11.03388 -0.60001,-16.16714 7.2201,-20.37434 7.75011,-4.12729 10.02814,-6.90648 15.39922,-13.75927 8.41012,-10.71646 23.76034,-3.09622 33.84048,-11.53671 8.28012,-6.9855 14.0502,-16.74929 23.20433,-22.75571 12.67418,-8.30859 26.98838,2.19615 39.95256,3.88927 12.35718,1.61412 24.55435,4.2073 36.93653,5.47739 14.76421,1.5081 33.44447,-5.00136 46.77966,3.57225 25.21436,16.27305 27.54339,26.08975 51.01172,3.70426 14.68521,-14.02399 45.27164,-6.87948 63.81891,-10.002 12.25017,-2.06415 11.37716,-9.71069 18.36226,-17.46374 7.5401,-8.33459 22.04031,-9.28766 32.41146,-8.09657 23.17832,2.64619 35.00549,26.16905 44.71563,44.55895 10.79515,20.40084 25.95637,38.1821 42.4396,54.00522 24.02434,23.09983 35.1905,40.11373 44.84764,71.86598 3.54005,11.58952 -3.41005,23.39075 -6.01009,34.37183 -2.99004,12.62149 2.59004,26.01034 3.54005,38.73774 1.59002,21.1681 6.7501,29.76771 23.44233,41.54244 6.40009,4.52432 34.44949,24.264014 33.78848,4.18029 20.7703,8.20258 58.71183,-34.42473 70.221,1.24409 12.70018,39.42569 -11.98517,55.354716 -49.1867,55.063695 4.55007,-3.67826 8.47012,-25.798724 -1.22002,-25.4547 -11.56216,0.400029 -5.35007,27.068815 -13.86419,33.868995 5.53008,-1.296091 11.13915,-2.143151 16.80124,-2.513177 -8.47013,3.704262 -23.57434,4.842342 -13.38819,15.955528 2.99004,-2.593183 5.79008,-5.398382 8.36011,-8.387593 -3.60005,13.283039 -17.83325,20.586056 -20.18828,34.451136 -2.51004,14.79124613 9.23013,35.483209 -0.50001,49.295386 -5.61008,8.043569 -29.13041,-0.930066 -35.2165,-3.598254 -8.60012,-3.784268 -13.73219,-9.47267 -18.49426,-17.463735 -2.99004,-5.001354 -5.98009,2.328164 -9.68014,1.164082 C 745.67058,5.2440787 722.20225,-6.2664353 691.74782,-0.12770114 673.65056,3.4975552 653.25027,4.97966 637.87805,16.251157 622.82284,27.285137 612.6897,42.896641 592.79241,45.70144 c -19.36727,2.752194 -38.39154,-4.683331 -57.57381,-6.244442 -7.96011,-0.660047 -15.79623,-4.313305 -23.86634,-3.387239 -10.92715,1.217086 -16.80124,7.250512 -28.70741,4.52432 -20.74329,-4.763337 -40.85257,-14.182703 -62.36288,-15.002961 -10.92715,-0.42003 -35.6405,11.563117 -43.10161,-0.42003 C 366.0152,7.3369267 403.82474,7.8660641 369.75025,-7.5866286 359.22011,-12.375967 348.08095,-20.605049 344.11189,-32.062359 c -3.65005,-10.478241 15.66422,-9.790693 21.2733,-12.515686 -6.30009,-7.752548 -20.82329,-15.399789 -31.03644,-11.774732 -7.0101,2.487176 -11.74716,19.818701 -20.13528,17.992872 -8.39012,-1.799127 -17.48925,-15.664408 -28.2044,-18.733825 -11.61517,-3.360237 -25.21536,-5.23937 -34.05248,-14.367816 9.71013,-2.8312 11.98617,-15.320483 0,-16.802288 11.16515,-10.504643 8.07011,-17.834156 -5.16008,-22.491186 -17.83325,-6.24445 -34.26448,-16.72279 -49.6637,-27.09522 13.73219,-27.35984 -24.42135,-43.8975 -40.13757,-61.44065 z"
       id="ro" />
  </g>
</svg>
