<?xml version="1.0" encoding="UTF-8" standalone="no"?>
<!-- Created with Inkscape (http://www.inkscape.org/) -->

<svg
   xmlns:dc="http://purl.org/dc/elements/1.1/"
   xmlns:cc="http://creativecommons.org/ns#"
   xmlns:rdf="http://www.w3.org/1999/02/22-rdf-syntax-ns#"
   xmlns:svg="http://www.w3.org/2000/svg"
   xmlns="http://www.w3.org/2000/svg"
   xmlns:sodipodi="http://sodipodi.sourceforge.net/DTD/sodipodi-0.dtd"
   xmlns:inkscape="http://www.inkscape.org/namespaces/inkscape"
   width="11378.8mm"
   height="3326.8999mm"
   viewBox="0 0 11378.797 3326.9003"
   version="1.1"
   id="svg7070"
   inkscape:version="0.92.4 (5da689c313, 2019-01-14)"
   sodipodi:docname="russia.svg">
  <defs
     id="defs7064" />
  <sodipodi:namedview
     id="base"
     pagecolor="#ffffff"
     bordercolor="#666666"
     borderopacity="1.0"
     inkscape:pageopacity="0.0"
     inkscape:pageshadow="2"
     inkscape:zoom="1.28"
     inkscape:cx="33.845435"
     inkscape:cy="5.8615416"
     inkscape:document-units="mm"
     inkscape:current-layer="layer1"
     showgrid="false"
     inkscape:window-width="1920"
     inkscape:window-height="1001"
     inkscape:window-x="-9"
     inkscape:window-y="-9"
     inkscape:window-maximized="1" />
  <metadata
     id="metadata7067">
    <rdf:RDF>
      <cc:Work
         rdf:about="">
        <dc:format>image/svg+xml</dc:format>
        <dc:type
           rdf:resource="http://purl.org/dc/dcmitype/StillImage" />
        <dc:title />
      </cc:Work>
    </rdf:RDF>
  </metadata>
  <g
     inkscape:label="Layer 1"
     inkscape:groupmode="layer"
     id="layer1"
     transform="translate(2416.2079,6285.2667)">
    <path
       d="m 6814.5183,-4219.8576 c 7.5,2.0999 15.1801,7.8999 17.4601,15.6099 2.7,9.2999 14.68,3.9999 19.55,12.9299 -6,2.1 -12.22,3 -18.57,2.5 3.1,10.9499 15.5,9.6999 23.6,14.3099 -1.5,5.7999 -6.6,15.2199 -13.41,15.9599 -10.35,1.1 -7.6,-9.2 -15.1901,-11.75 -34.24,-11.6699 -15,21.9099 -3.7,33.0198 16.3801,16.1099 34.4701,32.5698 43.1801,54.3997 8.8,21.8799 15.9,36.2698 30.2401,55.6096 24.92,33.5798 74.3501,46.0397 102.9502,76.3896 13.62,14.4399 18.92,34.0497 27.7,51.3796 11.22,22.1499 34.0301,36.4298 48.5501,56.6697 25.53,35.5897 47.6501,66.9995 62.2101,107.8493 15.29,42.9697 60.2701,55.6896 82.7601,92.6794 9.9001,16.2699 4.9,35.1098 15.9801,51.9097 11.27,17.0999 31.01,29.1598 39.42,47.8897 8.2001,18.2099 7.6001,39.9297 19.6901,56.4596 16.24,22.1799 36.11,42.4197 58.9401,57.8696 -6.3,-8.5999 -3.1,-21.9898 -7.6,-31.8298 -4.1,-9.1999 -5.5,-18.1498 -7.6001,-27.8598 -2.9,-14.0499 5.9001,-33.1498 20.6401,-14.2599 9,11.5599 40.8201,3.3 54.1001,11.8799 13.42,8.6 25.64,27.9899 32.92,41.8798 -1.9,-16.9099 -8.2,-30.7198 -18.58,-44.0498 -5.4,-6.8999 -10.61,-14.5799 -16.67,-20.8998 -9.9,-10.32 -20.0801,-1.3 -30.3401,-8.2 5,4.6 10.9,7.4 17.6201,8.4 -17.8101,14.9699 -44.6601,-29.7698 -52.7301,-40.2998 -20.6401,-26.8798 -56.1001,-35.3197 -78.7402,-60.2196 -28.68,-31.5598 -29.13,-75.3795 -46.9701,-112.1493 -4.8,-9.7999 -18.15,-24.9498 -4.3,-33.3198 9,-5.3999 21.2801,-6.4999 31.4901,-6.0999 -10.82,-2 -22.6801,1.3 -32.8101,-4.2 13.4901,-12.1699 72.8402,11.3499 85.0402,18.0099 15.21,8.2999 32.14,15.8499 45.7401,26.6998 10.69,8.6 20.35,21.1399 34.06,25.0299 -10.3,-5.2 -16.54,-15.2399 -24.98,-22.6199 -10.4,-9.0999 -24.0001,-14.7099 -35.3001,-22.6799 -27.62,-19.4998 -49.5801,-45.4997 -73.6801,-68.8895 -50.8301,-49.2697 -104.2002,-95.2794 -154.3603,-145.4691 18.2,21.0599 -7.5,-1.3 -9.1,-3.8 -7.6,-12.2499 -16.4,-19.5198 -28.6801,-28.1498 2.4001,2.7 4.7001,5.5 6.8001,8.4 -9.2001,3.3999 -13.5701,-5.8 -16.6401,-12.57 -5,-10.8799 -10.87,-14.4499 -21.46,-19.7898 -18.23,-9.2 -40.7901,-42.5198 -46.0601,-61.7796 3.3,5.9999 7.2,11.6099 11.77,16.7998 0,-54.2096 -77.8101,-51.3296 -87.3101,-98.3493 19,1.3 43.3701,35.8297 56.2501,47.9197 -14.31,-16.3799 -27.7801,-35.1098 -46.6701,-46.5697 -22.12,-13.41 -40.9601,-32.6198 -63.3901,-45.0298 6.7,2.4 12.54,6 17.62,10.93 -5.9,-5.6 -11.65,-11.6999 -18.97,-15.3999 -9.5,-4.8 -5.7,-13.0999 -10.48,-20.7399 -10.0001,-16.0599 -31.8801,-20.9599 -46.2201,-31.9698 0,10.8299 -10.91,15.3199 -20.1901,12.6199 15.1901,7.9 31.7001,15.2699 44.5301,26.8899 z"
       id="path3282"
       inkscape:connector-curvature="0"
       style="fill:#ffffff;stroke-width:26.45827293" />
    <path
       d="m -2416.1779,-4261.1874 c 12.94,-9.0999 22.67,-20.1399 24.26,-36.3797 1,-9.2 0,-12.91 10.4301,-14.18 13.89,-1.6999 28.89,0 41.09,-8.4999 9.9001,-6.7 16.0001,-26.1998 29.4701,-26.7798 -11.59,10.8799 -26.0601,21.0398 -34.1001,35.0797 29.5501,0 51.5901,16.2199 50.0301,-19.0498 -1.4,-31.2198 40.2701,-3.6 51.2801,1.3 24.6,11.0299 58.8101,-4.8 78.6601,16.7998 8.1001,8.8 15.4501,10.61 5.2001,21.9599 -8.5001,9.4999 -5.9001,32.4098 4,39.8698 -82.0702,8.4999 -164.8403,2.0999 -246.4905,-7.4 7.4,-3.1 9.7,-11.2999 16.6701,-14.7599 10.11,-5.1 20.83,-2 28.58,-11.9899 -10,-1 -20.53,-2.2 -30.56,-1.1 -10.4801,1.1 -14.7701,23.0998 -28.5501,25.1098 z"
       id="path2922"
       inkscape:connector-curvature="0"
       style="fill:#ffffff;stroke-width:26.45827293" />
    <path
       d="m -1951.2771,-5578.009 c 15.53,-5.6 38.0501,-6.8 50.7201,-18.2099 9.4,-8.5 -3.3,-16.8799 13.26,-20.2099 14.2801,-2.9 50.8201,-3 40.1601,-27.1198 12.14,5.2999 25.13,11.8499 38.8401,8.2999 13.36,-3.4 8.5,-13.9499 -0.08,-20.0798 12.04,2.1999 27.97,4.3999 38.68,10.4999 3.2,1.9 15.8801,-5.8 16.7801,-10.4999 1.4,-7.5 14.34,-4.4 19.26,-5.1 -2.8,-2.5 -5.6,-5 -8.4,-7.6 11.43,-4.3999 27.12,3.7 36.98,8.8 14.6401,7.4999 30.0901,3.5 44.6101,9.6999 -3.1,22.9399 -56.7801,9.9 -66.4101,-1.7 -2.2,2.5 -3.9,5.3 -5,8.4 11.13,4.4999 22.96,6.9999 33.6201,12.6199 -6,1.6 -11.8501,3.6 -17.6401,5.9 8.5,-1 15.7101,-6.1 24.4401,-5.3 9.8,1 19.4,3.4 29.24,3.6 -1.8,3.1999 -3.7,6.2999 -5.8,9.1999 10.27,-6.7999 26.4801,-13.1499 36.1901,-1.7 -8.1,4.4 -11.88,6.1 0,8.4 -15.82,2.3 -4.7,5.5999 1.6,7.5999 -6.9,4.8 -31.3001,4.6 -24.4201,18.4899 7.9001,-16.4599 31.9701,-9.8999 32.8101,-31.9598 11.59,4.1 24.4,0 36.2501,0 13.1,0 26.01,6.2 38.95,8.3 30.0301,4.8999 56.7001,-4.4 87.0702,7.5999 34,13.4699 69.6101,24.3399 104.6402,34.8698 30.11,8.9999 54.7201,31.5898 86.0701,37.1797 -3,-2.5999 -6.1,-5.0999 -9.2,-7.5999 24.47,13.7099 56.6201,31.2498 85.6702,27.7298 -2.1001,-3.2 -4.3001,-6.2999 -6.6001,-9.2999 13.1201,4.4 26.6101,13.0699 36.8001,22.3498 11.54,10.48 25.9,8.6 39.1101,15.2199 11.9,6 17.01,2 22.09,16.6899 2,5.9 9.1,25.5399 14.97,27.0199 28.9501,7.3999 11.5701,35.3697 -4.3,49.8196 -23.92,21.7699 -43.82,34.0798 -75.6201,41.6198 -34.8201,8.1999 -65.8601,12.8599 -101.9202,9.1999 -40.1101,-4.0999 -76.6201,-17.5199 -117.2902,-19.2899 -34.37,-1.4999 -65.0101,-7.4999 -96.1702,-21.9598 -6.7,-3.1 -34.61,1.3 -35.48,0 -7.8,-13.6299 -29.1401,-4.3 -26.0101,-19.3699 -6.2,9.6999 -15.85,8.2 -23.82,1.7 -5.4,-4.3 -20.24,2.3 -27.9901,0 -6.5,-2.2 -57.3901,-28.1198 -32.23,-29.0698 -12.56,1 -26.5101,0 -38.2801,-5 -11.11,-4.4 -23.47,1.8 -34.87,0 15.98,6.7 34,3.9 48.79,14.2899 -2.7,3.2 -5.5,6.3 -8.4,9.3 8.7,-1.5 48.0201,14.9199 26.0401,12.6199 11.67,3.9 26.03,1 36.17,9.1999 -9.9,-4.0999 -17.84,5.1 -27.76,3.4 12.97,3.2 29.56,-6 40.3501,5.1 -10.4801,-2.9 -22.8301,-3.5 -32.8101,1.7 10.74,2.3999 35.6201,5.3999 46.2501,3.2999 3.8,14 -10.87,11.38 -19.37,14.32 29,1.4999 63.9501,5.8999 89.2001,21.6898 5.9,3.7 42.3301,36.9698 18.44,31.2498 12.0401,16.7499 -21.96,25.9599 -15.03,33.1798 6.8,7.2 36.4301,18.0399 24.2301,31.5398 12.39,1.7 12.47,18.4899 24.4,19.3099 -3.4,1.8 -6.8,3.8 -10.03,5.8999 3.1,1.9 6.2,3.9 9.2,5.9 -2.5,2.8 -5,5.6 -7.5,8.4 11.37,3.6999 22.22,10.5299 32.96,15.7699 13.3401,6.4999 21.9701,-5.2 35.8601,1.5999 4.9,1.3 8.8,4 11.8,7.9 7.1,9.6999 6.2,-2 12.64,1.7 12.0901,6.8999 19.9001,19.1799 33.6101,23.5498 16.69,5.3 34.3601,6.8 51.2701,11.93 16.06,4.8999 19.1,-7.6 30.3201,-6.5 41.15,4.1 4.9,-22.7299 14.26,-34.8698 -11.58,-3.5 -19.2801,-12.0899 -32.2801,-8.1999 -10.05,3 -22.41,4.2999 -31.19,-2.8 -18.8101,-15.0299 -42.1701,-25.5598 -56.7801,-45.3297 19.42,1 20.4,-3.6 27.23,-17.2999 6.4,-12.6999 25.4501,-3.1 34.9701,-1.2 25.14,5 42.71,32.5398 70.6501,24.3398 -4.7,5.1 -11.48,8.1 -18.44,7.6 3.7,16.2499 17.78,1 29.66,-0.05 18.7801,-1.7 37.8601,4.4 54.9801,11.5399 16.3,6.8 23.9701,6 40.5001,2.1 10.85,-2.5 35.25,5 46.2001,8.3 -7.4,-17.5499 -19.0201,-32.7098 -33.2801,-45.2498 -9.6,-8.3999 -40.1701,-21.7198 -41.7501,-35.0297 -1.7,-13.8399 23.2001,-20.3199 31.6901,-25.7399 15.51,-9.8999 26.33,-21.5698 44.9301,-25.7998 18.31,-4.1 33.55,-8.5 46.6201,-22.8299 10.63,-11.6399 20.9,-23.9498 38.47002,-18.7898 17.88003,5.1999 26.32005,5.8999 44.82008,6.6999 11.77002,1 36.88006,4.3 39.95007,18.7799 -6.80001,1.4 -12.67002,4.4 -17.62003,9.2999 2.7,2.6 5.80001,4.5 9.20001,5.9 -1,-11.7699 14.21003,-12.9399 22.38004,-11.5299 15.35003,2.6 20.40004,17.9099 31.46006,26.6698 -13.34003,-16.8099 -25.14005,-60.2496 5.00001,-69.7696 -13.57003,-3.5999 -9.00002,-20.1898 -16.80003,-28.5798 -13.86003,-14.8699 -28.58005,-11.9299 -45.11008,-18.7299 -11.54002,-4.6999 -5.20001,-18.9198 -2.00001,-27.0998 2.50001,-6.2999 5.50001,-12.8799 6.20002,-19.7599 1,-8.4999 -9.50002,-13.5699 4.9,-14.2599 -6.90001,-4.5999 -11.80002,-9.6999 1.00001,-11.7799 -14.31003,-1.7 -2.80001,-17.5399 -13.73003,-24.1498 -18.15003,-11.01 -43.55007,-18.3899 -63.66011,-24.5799 11.11002,-12.4599 36.38006,1.1 48.84009,4.3 25.64004,6.6999 55.56009,-3.2 82.16014,-1 25.47004,2.3 38.44007,10.1299 58.8601,23.1498 18.66004,11.91 42.79008,18.3399 52.2601,40.5098 -28.79006,8.3999 -59.74011,-1 -88.26016,9.2999 1.1,3.1 2.2,6.1 3.40001,9.2 -10.79002,2.7 -28.89005,9.6999 -16.91003,23.2598 9.80001,11.09 27.31004,7 39.56007,12.8899 11.48002,5.5 16.75003,18.4599 27.12004,25.3699 14.68003,9.7999 35.61007,3 51.88009,4 -2.4,2.8999 -4.9,5.6999 -7.60001,8.3999 10.13002,-8.2999 28.10005,-6.9 40.40007,-8.8999 7.80002,-1.3 25.64005,1 31.99006,-2.8 16.25003,-9 -2.30001,-17.2999 1,-28.4398 3.20001,-12.01 12.41002,-22.7799 -3.20001,-30.3798 7.90002,-7.6 17.51004,1.4999 27.59005,-5.9 10.59002,-7.8 43.98008,-4.6 54.7201,1.7 -9.80002,-8.6 -21.17004,-18.1499 -33.55006,-22.6799 29.48005,6.2 47.60008,-7.6999 74.32013,-14.8099 18.89003,-5 38.21007,-26.4398 60.72011,-28.0198 11.94002,-1 26.41004,1.9 37.10006,-4.9 10.19002,-6.4999 25.93005,-11.9499 37.99007,-7.8999 11.35002,3.8999 1,8.7999 4.70001,16.9099 4.10001,8.7999 26.46004,-7.2 32.20005,-8.3 -7.40001,-7.0999 -16.75002,-13.9899 -27.65004,-13.4399 24.85004,-30.4498 89.67015,-36.5598 125.20022,-35.2898 -15.90003,10.42 -35.74007,2.5 -52.9701,7.6 9.00002,3.2 18.71004,2.8 27.76005,5.8999 -24.37004,2.2 4.20001,29.8799 7.50002,35.2998 -9.10002,10.16 -39.27007,-3.9 -39.43007,15.9799 15.35002,2.8 50.70008,8.3 62.18011,-5.8999 -1.00001,14.9799 12.04002,5.2999 18.87003,1.8999 8.00001,-3.9999 17.33003,13.55 28.20005,9 -8.60002,-45.2497 87.76015,-42.4897 113.880198,-35.6998 8.500015,2.2 17.22003,5.2 25.980046,2.4 9.000015,-2.9 14.340025,-12.2799 24.050042,-12.4099 6.100011,-0.06 15.400027,-1 14.080025,-8.1 -1.900004,-10.7599 25.7100448,3.6 27.0900472,4.2 -2.5000044,-2.6 -4.8000084,-5.4 -6.8000122,-8.3999 14.8400264,-13.66 35.710063,-8.8 53.790095,-11.78 -22.63004,2 18.750033,17.5999 25.210044,21.8599 -27.380048,6.9999 -10.580018,28.3598 8.500015,31.5098 7.600013,1.3 30.74005,7.6999 35.45006,-2.9 3.30001,-7.3999 -11.880018,-16.6199 -17.090028,-18.5499 8.200018,-12.1999 81.700148,-1 57.890098,-38.7897 -7.20001,-11.43 -19.18003,0.03 -28.52005,-13.0699 -9.90001,-13.86 -26.860043,-20.4299 -41.070068,-28.8399 5.300009,-9.5999 10.160018,-3.1999 17.650028,-7.4999 3.00001,0 6.10001,-1 9.20002,-1 1,-3.6 1.7,-7 3.2,-10.3999 9.90002,-8.1 22.39004,-4.5 33.44006,-1.6 18.39004,4.6999 37.87007,5.0999 56.7801,5.5999 33.61006,1 67.58012,2.1 100.63018,8.7 34.52006,6.7999 67.25012,20.8498 101.75018,27.9698 -17.91003,4.1 -1.9,21.9099 2.9,10.1099 4.60001,-11.1199 45.75008,3.8 56.7601,5 -23.76004,0 20.45004,11.0399 26.38005,12.1699 15.42003,3.1 30.87005,6.6 46.46008,8.7 35.11006,4.6999 66.70012,30.1898 101.94018,38.9697 2.2,1 55.9901,36.5398 43.55008,7.2 -3.30001,-7.7 3.4,-17.6699 5.90001,-24.6599 5.30001,-14.6299 -13.34003,-21.6398 1.1,-23.0698 -8.70002,-7.1 -16.80003,0 -26.03005,0 -10.96002,0 -19.56003,-7.4 -28.61005,-12.6199 -8.00001,-4.6 -16.19002,-9.1 -23.84004,-14.4199 -10.29002,-7.2 -7.90001,-17.5399 -14.79002,-26.7499 -9.80002,7.9 -27.56005,1.7 -37.99007,-1.4 -12.28002,-3.5999 -40.24007,-19.4498 -41.86007,-2.8 -15.90003,-3.4999 -15.63003,-21.8498 -18.54004,-34.4497 4.30001,0 29.47005,1.9 22.70004,-8.6 -3.7,-5.6999 -9.00001,-7.1999 -14.32002,-10.3499 -4.60001,-2.7 -4.90001,-16.1899 -6.90001,-20.3399 -7.20002,-15.1899 -5.00001,-35.2398 -29.39006,-28.5798 -10.40001,2.8 -38.44006,-4.1 -19.21003,-16.1399 -21.51004,4.9 -6.10001,-23.6199 8.10001,-27.0098 18.13004,-4.4 40.14007,-12.6699 51.9701,-27.8899 15.63002,-20.1098 -3.80001,-53.9996 -1.90001,-76.4395 1,-9.4999 5.50001,-19.5998 13.31003,-25.3398 6.60001,-4.9 30.48005,-2.3 10.92001,2 31.44006,5.0999 60.83011,0 92.00017,-2 16.59003,-1 33.15005,-1 48.79008,5.3 12.96003,4.7999 26.59005,1 40.14007,3.3999 19.81004,3.8 52.4601,25.5299 53.3901,48.0797 0,9 -1,24.1499 -7.10002,31.2998 -4.3,4.9 4.00001,11.19 0,17.6399 -3.8,5.5 -12.78002,5.6 -18.29003,8.1 22.97004,35.1397 81.55015,20.9598 98.35018,62.6796 4,9.8999 2,13.7899 9.50001,21.7298 8.80002,9.3 -7.90001,9.1 -4.90001,19.2099 4.30001,14.2299 33.02006,27.2198 33.79006,42.8297 1,13.36 6.00001,14.05 12.75002,24.1299 -1.3,13.6299 10.66002,10.2899 5.20001,22.4398 -9.80001,21.9899 55.0601,39.8398 66.20012,43.9698 8.80002,3.2999 20.19004,4.0999 27.78005,10.0799 13.12001,10.3499 2.3,14.0499 -2.60001,25.2198 -3.9,8.9 -4.1,11.22 1.80001,17.8799 9.30001,10.32 5.50001,24.0799 13.34001,31.6998 -29.64004,4.3 -21.73003,32.7298 -42.05006,41.1698 2.9,3 6.00001,5.7999 9.20001,8.3999 -6.10001,-1.2 -11.91002,-1 -17.62003,1.7 25.32005,5.3 -15.40002,17.8599 -21.83004,18.6499 -18.39003,2.2 -35.69006,14.2899 -53.90009,18.7599 -18.44003,4.4999 -29.18005,-8.9 -46.59008,-9.5 -18.71004,-1 -40.40007,-7.0999 -58.37011,1 19.85004,6.4 26.59005,24.0499 50.19009,26.7999 22.65004,2.5999 44.48008,9.7999 67.26012,11.7399 24.08004,2.1 47.65009,-2.2 71.70013,2.2 12.12002,2.2 23.89004,10.4499 36.51006,9.9999 7.7,0 19.21,-10.2599 16.78,-18.0199 -6.7,-21.1099 12.3601,-13.5699 25.3701,-23.3898 13.73,-10.37 39.48,-8 43.9201,-28.6499 4.4,-20.5798 -10.5801,-34.6097 14.29,-46.6197 40.01,-19.2898 -10.29,-52.3096 -30.2701,-63.3896 -15.21,-8.3999 -10,-13.2099 -16.19,-26.8598 -8.5,-18.6499 22.94,-17.9099 34.6101,-20.6099 23.41,-5.4999 55.1901,-17.0698 79.2701,-10.4799 14.6,4 27.78,20.4799 43.2601,26.5398 18.78,7.4 30.61,7.7 41.38,26.4599 5.0001,8.7999 8.9001,18.1499 12.8601,27.4098 3.3,7.6 15.58,20.8499 -1,16.0099 30.27,37.7298 95.9701,17.2499 135.2902,25.2098 -5.9,-3.5999 -15.19,-11.4299 -22.2,-6.3999 -7.4,5.2999 -7.1,-2.4 -13.8701,-2.8 -20.5,-1.3 -39.95,-5.2 -60.1901,-7.7 -11.56,-1.4999 -23.6,-20.9898 -21.83,-32.1198 1.5,-9.6999 27.7,-7.2999 22.07,-14.6099 -6.6,-8.4999 -17.6,-12.0399 -25.72,-18.6298 -15.48,-12.62 -18.18,-29.5199 -39.2401,-35.0298 -20.42,-5.3 -38.68,-9.7 -58.5001,-16.9799 -17.43,-6.5 -40.4801,-4.7 -59.3701,-9.5 -22.14,-5.5999 -35.14,2.5 -56.1701,7.2 -20.56,4.6 -46.3001,5.6 -67.2601,4 -15.29003,-1.2 -16.69003,-23.7899 -26.88005,-32.6498 -15.45003,-13.4399 -29.13005,-15.8999 -31.48006,-38.4998 -1,-8.1999 -3.1,-16.2399 -1,-24.5198 1.90001,-7.1 13.36003,-18.1499 12.67002,-24.6899 -1.2,-10.4799 -21.14003,-19.7598 -28.78005,-24.3098 -31.70005,-18.9699 -61.9401,-39.8498 -98.06017,-49.5597 5.80001,-5.2 13.12002,-10.9299 15.98003,-18.4999 2,-5.1999 0,-13.1399 4.20001,-17.1099 14.87002,-13.2299 38.58007,-9.3999 55.7501,-17.8599 34.37006,-16.9898 -24.63005,-53.2396 -38.13007,-62.5196 31.20005,-15.7999 89.20016,27.9399 84.35015,60.3697 -3.30001,22.1798 -1.40001,25.0898 14.79002,37.2797 7.60002,5.7 22.49004,18.7399 2.70001,16.6499 14.40002,15.8699 44.27006,15.5299 63.85006,17.6399 18.1701,2 50.7401,-7.9999 62.2302,11.7799 1.5,-35.7197 122.6802,47.5997 136.9202,5 -11.46,6.9 -22.99,2.5 -35.2401,5 -0.03,-3.1 -0.03,-6.1 0,-9.2 -14.27,5.7 -18.42,-7.6999 -28.08,-14.4499 -8.2,-5.7999 -22.4901,3.9 -24.9201,-9.8999 -14.31,17.6699 -54.8801,-1.8 -71.6001,-6.4 -12.17,-3.3 -24.84,-4.1999 -36.93,-7.8999 -17.4101,-5.4 -28.9701,-20.9799 -42.76012,-31.9298 22.04002,-4.1 42.18012,-12.3899 64.77012,-5.9 23.31,6.7 48.6301,23.6799 71.4401,5.9 -7.9,-11.8599 -24.24,-17.9899 -38.1,-15.4799 -8.3001,1.5 -28.6001,7.0999 -22.4901,-8.9 13.81,7.7 33.5701,-12.2799 47.4101,-13.8099 14.53,-1.6 38.9501,-1.7 59.1601,1.3 20.64,3.1 39.8501,10.6399 60.6501,13.2299 10.95,1.4 22.04,2.5 32.6401,5.7 5,1.4 31.6,13.4899 7.8,8.7999 21.65,4.8 41.25,15.7199 62.4701,21.8299 26.54,7.5999 54.5601,5.9 81.2001,0.03 -5.1,-9.0999 -14.47,-14.0799 -23.62,-18.2599 -10.72,-4.9 -15.4,-9.2999 -24.3501,-15.3699 -23.47,-15.9799 -52.41,-11.7499 -78.9001,-15.2099 -20.5,-2.7 -48.1001,-10.4799 -54.6801,-32.9498 -6,-20.3399 -28.76,-34.6298 -51.2001,-33.3598 21.8801,0 -3.3,-10.8499 -9.4,-10.9499 5.7,-3.2 26.8801,-17.2799 7.6,-13.4399 16.8,-20.7199 75.6901,-14.2899 98.9202,-14.2899 41.9901,0 88.1101,1.3 129.4102,-6.2 16.86,-3.1 31.3001,3.9 47.7601,2.8 13.12,-1 22.06,-12.2299 36.6201,-13.3099 16.82,-1.3 54.8201,7.3999 68.0701,-2.5 -5.6,-2.9 -10.42,-6.8 -14.36,-11.7499 5.9,0 11.74,0 17.62,0 -19.71,-1.8 -36.1401,-11.56 -55.1701,-14.7099 -15.08,-2.5 -34.9801,2.4999 -46.4801,-10.5 6.6,0 13.04,1.4 19.34,3.4 -5.2,-4.7 -11.41,-7.5999 -18.42,-8.3999 11.72,1.3999 22.9901,-2.5 34.4801,1.5999 4.4,1.3 8.4,3.4 11.8,6.5 4.8,4 14.81,-4.1 20.03,-3.9 -5.1,-5.1999 -13.55,-6.0999 -20.27,-7.0999 -4.4,-1 -38.2301,-6.2 -14.16,-7.2 -12.6701,-1 -25.3201,-1 -37.9101,-2.8 -6.1,-1 -12.46,-2.0999 -18.02,-4.8999 -18.3301,-9.2 17.94,-6.1 -5.4,-13.3299 21.56,-4 41.62,24.3398 63.0201,13.4399 -5,-5 -11.77,-12.04 3.3,-6.7 -12.99,-9.9999 7.9,-18.6599 -9.2,-21.0099 10,-2.6999 18.23,4.2 27.81,5.1 1,-15.5799 -41.7001,-8.6999 -50.4301,-16.7999 21.2001,-6.0999 42.9401,8.9 63.5301,2 16.1101,-5.3 24.5501,-23.6298 43.1501,-23.0698 -23.39,-2.3 16.51,-1.2 20.22,-1.7 7.8001,-1 33.3901,-2.7 24.3901,-10.93 38.6301,-3.8999 78.0301,-9.1999 116.6002,-11.4299 33.2901,-1.9 70.5101,-2.3 101.0702,-17.1699 -12.14,2.4 -23.9701,2 -36.1901,1 -6,-1 -44.8701,0 -21.01,3.4 -6.7,1 -25.7201,-7.2 -12.17,-13.2299 14.63,-6.5 33.81,6.5999 50.8,0 -6.5,0 -12.62,-1.4 -18.42,-4.2 49.5301,6.2 99.9402,-11.0299 148.7003,4.2 -6.6,4.1999 -12.4301,9.2999 -17.6201,15.1399 9.5001,-1.1 19.3401,-3.5 28.4201,-6.7 11.64,-4.2 18.6,4.3 29.58,5.1 11.2401,1 19.5801,-8.2 31.0601,-5.9 9.9,2 21.85,0 31.17,-3.4 -5.8,-1.9999 -11.7,-3.3999 -17.76,-4.1999 3.4,-1.2 46.2301,-1 17.76,-5.9 43.9401,-11.5799 72.3902,4.6 115.9103,7.5 -24.0801,-23.8299 -63.7402,-12.56 -88.2402,-35.2898 35.1101,3.5 72.2101,8.4999 106.8702,-1 9.5,-2.6 26.3,5.6 37.4601,5 19.45,-1.1 38.68,5.2999 58.1801,5.2999 -10.5001,-2.3 -90.8502,-11.0799 -89.8802,-15.9799 2.2,-11.2999 -9.3,-12.7499 -17.7,-14.5999 -15.0501,-3.3 -19.5501,-20.5599 -2.5,-15.6399 -2.9,-2.7 -5.7001,-5.4999 -8.4001,-8.3999 7.7001,-5.8 15.8301,-11.04 23.6001,-16.7999 -5,-1.4 -10.05,-2.5 -15.18,-3.3 18.94,3.2 33.76,-14.6299 51.5601,-17.5699 21.59,-3.5 40.88,-7.8999 62.4701,-4.8 21.46,3.2 42.2,4.8 63.9301,9 24.81,4.9 50.0301,1.9 72.5401,15.7999 -14.79,-1.9 -25.79,6.3999 -39.2101,10.3399 -19.28,5.6 -39.98,1.8 -59.1601,9 33.9201,-1 68.0801,1.9999 101.7902,-3.3 0,7.1999 -5.9,11.7999 -12.7,12.6199 33.84,-2.9 74.9001,-12.1999 108.3202,-2 23.7,7.2 1.6,37.1198 -12.49,35.6698 18.97,6.3999 41.3,0 60.9301,0 9.5,0 37.63,-2.6 18.92,-15.7499 25.85,-2.6 51.2501,1.5 77.3701,-1.6 23.6801,-2.7 48.3601,1 72.2302,0 17.75,-1 116.7602,3.8 117.6802,28.7898 9.9,-11.5899 31.75,-1.9 42.18,3.7 6.8,3.7 27.7801,13.8599 30.0801,21.4799 6,-10.4 16.3,-7.9 26.04,-5.9 -8.5,-3.9 -17.97,-5.2 -26.04,-10.0799 21.96,-6 36.5101,15.6299 53.8201,24.3698 11.35,5.7 15.45,0 26.85,4.2 10.8001,3.8 12.4401,15.0599 19.3701,22.6998 -32.3901,0.03 -65.8802,-24.5998 -99.2202,-18.4899 14.08,5.4 30.06,3.9 41.7301,14.66 11.24,10.3399 21.59,-1 34.79,2.4999 10.11,2.5 56.2201,16.5099 38.9501,33.7598 -8.3,8.3 -14,16.2999 -25.8801,19.8399 -4.8,1.4 -18.02,0 -20.43,5.4 -1.9,4.2999 -1,11.6899 -5.2,14.5499 -6.4,3.8999 -16.14,-4.8 -23.76,-1 -18.1501,10.2099 -27.8101,12.2199 -48.5801,15.6099 3.1,1.9 6.2,3.9 9.2,5.8999 -11.8,6.5 -25.0801,4.2 -37.7001,7.6 8.9,2.6 18.5201,-1 26.8501,4.2 -4.5,20.8198 -37.4401,16.1399 -49.6101,30.2598 -5.9,6.8999 -1,13.0499 -13.36,15.3999 -13.0701,2.5 -28.9701,2.1 -41.3301,6.3999 -7.5,2.6 -19.2,9.2 -19.2,18.5199 0,10 -18.5301,4.6 -24.0301,5.3 -14.47,1.9 -8.5,14.2399 -7.5,22.5998 1.5,12.99 -21.3,20.6099 -30.6401,20.8499 21.4901,3.9 39.9801,-2.4 55.4601,-17.6499 -6.6,-2.3 -12.67,-15.1399 -1.3,-15.4799 11.0801,0 21.6701,1.7 33.1001,1 15.03,-1.3 29.9801,1.4 45.1101,0 5.7,-1 47.6201,-4.9 25.56,-9.2999 9.8,-1 19.5001,-2.7 29.3401,-3.6 10.72,-1 22.68,-11.8299 33.68,-8.1999 -6.1,-1.6 -12.01,-3.8 -17.65,-6.7 31.7501,7.5999 58.7701,-4.1 88.2702,-14.2799 -25.0801,-23.2899 -72.6602,24.8698 -91.6502,-10.9299 9.8,-2.4 5.6,-6.8 11.43,-11.86 8.3,-7.0999 31.3201,-2.5 40.7701,-1 4.6,1 31.86,12.12 32.62,1.2 1,-10.0499 12.0901,-6.6999 18.6001,-2.9 -27.4101,2.9 34.16,24.2899 43.1301,25.6699 16.51,2.5 50.43,7.5999 62.7601,-8 -6.8,-3.7999 -13.0701,-8.5999 -18.4401,-14.3099 19.4701,6.8 46.1901,13.4399 61.8001,27.4898 8.1001,7.2 -3.3,14.44 15.1701,19.1299 18.07,4.5 22.56,9 40.69,3 -13.87,3.1 -31.86,-3.7 -42.97,-11.7499 67.8901,-15.7199 137.6602,-15.5599 206.6403,-8.7 31.3801,3.1 106.3902,-14.5499 128.7203,12.91 -9.2001,1 -18.6801,-4 -26.0101,4.1999 18.92,20.3699 52.5201,24.7899 78.7401,26.3999 37.9201,2.3999 75.7802,7.5999 113.6402,9.6999 31.6401,1.7 65.2502,0 96.8402,-2.1 13.68,-1 28.1201,4.3 41.5601,1.9 25.32,-4.5 -10.92,-15.7199 8,-20.7699 -16.57,-3.1999 -51.0901,-18.7598 -47.9701,-40.3497 7.6,5.3 17.5401,11.6399 26.0301,3.4 -3.2,-3 -6.5,-5.8 -10.0501,-8.4 14.6801,6.3 30.2901,0 45.4301,3.4 19.9201,3.8 38.3901,4.1 57.3901,11.8299 5.9,2 11.98,3.3 18.2501,3.7 5.5,1 6.1,8.4999 10.85,8.7999 15.82,1.1 28.39,-13.8899 44.5801,-6.6999 -20.9801,5.3 1,9.6999 7.4,10.1799 10.85,1 21.4,-3.3 32.22,-3.5 -3.1,-2.1999 -6.3,-4.3999 -9.3,-6.6999 16.17,-7.3 44.0001,3.2 61.7101,3.6 9.9,0 23.4601,4.9999 37.9901,11.5599 17.14,7.7999 35.69,4 53.3401,10.8799 4.1,1.6 1.4,7.3 4.6,9.3 5.6,3.4999 11.4,-6.8 19.74,-1 -4.1,9.7999 -14.69,12.7499 -24.29,13.4399 18.36,6.0999 38.28,3.6 57.0701,7.5999 -7.3,4.4 -15.77,2.1 -23.4701,5 12.3801,1 24.5801,3 36.9101,4.2 -4,5.2999 -12.04,4.4 -17.62,3.4 3.2,2.2999 6.6,4.1999 10.16,5.8999 -9.8,8 -21.62,3.6 -32.8101,3.4 16.7501,10.5499 37.1201,3.7 55.4601,6.7 18.2001,2.9999 31.6201,16.9598 49.6101,20.1598 -6.1,3.4 -15.38,8.6 1,7.6 -27.44,17.1399 -58.7101,-4.6 -86.6001,-8.4 11.46,15.0299 86.3101,53.4197 101.8101,34.4498 -9.4,-5.3 -19.23,-9.7999 -28.6,-15.1399 18.47,4.1 36.0901,12.6799 52.0701,22.6799 -9.8,-4.8 -18.78,1.8 -28.6001,1.7 1,9.2999 11.2201,9.7999 18.3601,10.2599 14.32,1 24.87,7.4999 36.89,14.8399 28.0201,17.2799 60.4801,19.2899 90.0602,32.2798 23.84,10.4799 49.3501,11.5899 73.9301,21.4099 36.9801,14.7899 7.4,-33.4198 26.2401,-38.4198 -16.5101,-1.8 -34.0801,-27.5198 -37.4601,-42.1497 -6.7,-28.9998 32.0101,-2.5 42.1501,1 29.52,10.0799 54.1001,22.3798 85.9601,25.0498 17.2501,1.5 54.9501,-6.4 65.6101,11.9899 -4,-6.1999 -12.88,-19.6298 1.2,-18.4899 11.2201,1 24.0801,-10.1899 35.8201,-11.3499 13.1,-1.3 26.4601,1 39.3501,3 51.9601,9.3999 101.2002,30.2898 153.1402,38.6298 -8,-6.3 -18.05,-4.2 -26.99,-7.5 6.2,-1 12.38,-1 18.57,0 -3.5,-1.9 -6.8,-3.8 -10.16,-5.9 6,-2.2999 12.18,-3.0999 18.55,-2.4999 -24.87,-6.4 -29.92,2.1999 -42.83,-21.8599 9.8,-1 20.21,-5.1 27.67,4.2 1,-18.0499 31.3801,-1.5 38.6001,2 22.39,10.7699 41.8101,-3.8 63.8701,2.9999 -27.12,-17.0999 -59.0501,-32.7298 -89.8502,-39.5097 5.9001,0 11.7801,0 17.6201,-1 -5.9,-3.9 -9.8,-10.3899 -7.6,-17.6399 6.6,2.9 13.04,2.6 19.36,-1 -9.9,-3.2 -19.71,-2.7 -29.7901,-1 -7.6,1.4 -41.83,-1 -19.82,5.9 -8.2,-1.7 -43.1001,-21.1699 -20.53,-28.8098 11.43,-3.9 25.01,0 36.75,0 16.3301,0 30.8301,-8.1 46.8301,-7.9 -11.69,1 -21.64,-10.4799 -32.28,-13.6599 -10.3101,-3.1 -21.4801,-5 -29.8401,-12.3999 33.6301,3.7 69.6401,14.3099 103.1602,14.3099 38.7601,0 77.5501,1.8 116.1802,5 70.5401,5.8999 158.1403,-1.5 224.3404,26.8998 -26.8001,1 -56.6501,1.3 -83.1102,-3.2 -15.24,-2.6 -57.8301,-16.4599 -52.9901,10.7399 -6.1,-3.1999 -12.65,-3.9999 -19.37,-2.4999 12.36,8.4999 23.9201,8.1999 36.9901,3.6999 18.89,-6.4999 46.4101,-4.7999 66.4601,-6.0999 30.8801,-2 73.1601,-6 53.7401,35.9897 -11.51,-5.1999 -9.3,-26.4298 -23.57,-26.0598 -1.0001,3.1 -1.2001,6.1 -1.7001,9.1999 -7.6,-7.9999 -25,-15.7999 -36.16,-13.4399 9.7,1.1 8.2,10.24 15.82,13.6999 8.4,3.9 18.68,2.9 23.6301,12.36 -18.2101,-1.8 -36.5701,-1 -54.6101,-4.2 5.9,4.4 37.06,13.8899 16.8,15.9799 13.73,10.1599 74.2101,9.0999 76.2801,-14.5699 1.6,-18.0799 -1.4,-30.7798 21.3201,-31.6198 22.86,-1 46.14,0 68.9001,2.3 41.4101,3.6999 80.3501,10.3699 120.1502,22.4698 4.5,1.4 34.5501,18.5199 15.02,20.0499 -12.25,1 -23.25,-6.9 -35.21,-7 0,13.73 -5.6001,7.2 -16.8001,7.5 14.1501,28.0998 65.7501,-3.6 86.6702,15.4799 15.14,13.7799 21.2,4.4 42.6601,7.2 23.83,3.0999 21.03,11.4099 3.4,22.6998 9.6,-1 21.41,-4.4 29.95,-8.6999 15.32,-7.6 34.6901,-2.3 50.5701,0 24.81,4.2999 56.6701,10.9299 75.8801,28.3898 -8.9,2.6 -18.02,1 -26.99,0 48.1001,13.5199 102.1802,18.4999 151.2903,7.5999 54.05,-12.0099 110.0701,-21.9098 165.6002,-16.3999 57.0201,5.6 114.3302,9 170.7603,19.3099 25.7701,4.7 50.6201,13.2299 75.4102,21.4299 26.86,8.8999 42.6501,26.5698 65.6401,40.3497 -6.1,-1 -12.33,-1.1 -18.54,-1 5.9,1.4 14.84,0 19.6,4.5 4.2,4.2 2.8,14.1899 8,16.9899 16.99,9.1999 33.2901,10.4999 51.8601,12.8599 19.87,2.5 39.1601,5.2 58.1601,11.6099 23.28,7.9 42.4401,-6.3999 66.0101,-6.5999 22.8901,0 45.6401,-1 68.5601,-1 23.2001,0 47.3601,-7.9 69.9002,-1 44.16,13.6599 89.8201,4.6 134.6202,13.3099 20.48,4 63.9001,11.4599 74.2901,-13.8299 8.6,-21.0099 70.1202,17.2499 80.1502,24.8698 32.01,24.3899 75.5601,13.99 111.6202,26.9599 16.67,5.9999 28.92,20.6598 46.36,24.9498 24.2601,5.9 49.3701,-5 74.0302,2.7 -7.2,-1.7 -13.79,-6.5 -16.8001,-13.4399 5.8001,2.7 11.4301,5.7999 16.8001,9.2999 -5.3,-4.4 -10.88,-8.2999 -16.8001,-11.7799 2.7001,-3.1 5.5001,-6.2 8.4001,-9.2999 -24.0001,-18.1699 -52.6301,-26.7399 -79.4602,-39.4698 -13.6,-6.4 -24.42,-5.9 -38.76,-6.7 -13.7101,-0.9999 -12.4101,-15.2399 1,-16.0099 -15.9001,-11.3199 -31.9601,-24.4698 -51.2401,-29.4198 46.32,-3.0999 94.8201,9.8 141.5202,11.22 16.01,1 30.2201,2.1 45.1901,7.6999 9.4,3.5 34.9301,16.3499 43.4701,5.4 -8.9,-2.7 -17.8601,-5.1 -26.8501,-7.5 18.4101,-2.4 35.6101,6.2 53.7901,6.7 18.2,1 36.4301,0 54.6301,0 39.6101,1 72.2301,-3.8 111.3402,5.8999 38.2301,9.5 77.9501,12.96 116.3902,21.8299 36.4601,8.4 76.9401,-1.4 110.8902,17.6399 -9.3,-1.5 -18.23,-4.6 -27.68,-5 15.4,15.9499 40.8,4.2 59.5101,10.95 22.46,8.0999 46.8,10.8199 68.1801,21.8298 -11.83,-2.7 -23.2301,-7.1999 -35.2401,-9.2999 62.8101,15.4499 128.8002,20.6099 189.9204,43.7097 -8.0001,-2.5 -16.1201,-4.5 -24.4001,-5.9 19.71,10.8 40.8001,9.8 61.4101,16.7499 12.2,4.1 35.8301,19.8999 48.6801,11.01 -18.97,-5.3 -38.1001,-10 -57.0901,-15.1399 26.0101,4.0999 51.1101,12.3899 76.4601,19.3198 -20.27,-4.0999 1,6.1 6.0001,4.5 11.77,-3.5 21.49,4.1 32.25,7.7 9.7,3.1999 21.49,1 31.8101,2.9999 15.29,3.6 30.03,9.2 45.4,12.54 30.2901,6.5999 61.3602,10.1899 90.9102,19.8998 9.3,3.1 58.7401,37.1198 66.8301,29.7698 -2.7,-2.3999 -5.4,-4.6999 -8.4,-6.6999 20.77,2.5 35.5001,17.0299 51.6201,28.7598 19.71,14.3099 43.5501,21.1399 63.4401,35.1098 -21.64,-5.3 11.8,10.6599 20.3,11.7199 18.8101,2.4 33.1201,20.8999 52.0901,20.2099 -7.4,-20.1099 37.5501,12.7299 42.8401,14.2899 -5.9,-9.2999 -10.66,-18.0499 -21.06,-22.9099 -14.0001,-6.5999 -31.7001,-2.9999 -44.5601,-11.5699 22.15,-18.1499 -78.8701,-42.0397 -84.8502,-42.8597 16.8301,-2.2 40.3001,-2.9 57.0501,-2.3 6.6001,0 12.0301,4.8 18.6001,5.6 8.8,1.1 17.22,-2.1 26,0 -21.22,0 8.3,18.0398 17.6301,15.1299 -2.1,-3.2 -4.3001,-6.3 -6.6001,-9.3 14.3701,9 32.1801,5.9 47.8701,3.4 -15.32,-4.9 -31.83,-3 -47.0201,-8.3999 4.2001,0 46.6501,3.3999 23.4701,3.3999 28.76,2.6 62.3401,-1 89.1601,10.79 17.8901,7.6999 33.8401,16.1399 52.7901,20.7998 12.0101,2.9 97.9502,17.2499 94.2702,35.6698 6.1,-6.2 15.35,-6 22.94,-3.4 4.4001,1.5 26.5601,11.22 4.7001,8.5 14.13,4 27.79,3.1 40.38,11.7499 -27.68,13.2499 9.1,23.1999 10.85,38.6798 -28.84,-1 -54.8501,-15.1899 -83.1101,-19.3199 19.98,10.6399 58.7901,7.4999 70.5101,30.2698 -9.5,0 -18.2,-4.6 -27.67,-5.1 -11.9901,-1 -23.2601,5 -35.2701,4.2 22.22,-5.7 -16.8,-5.9 -26.59,-8.8999 -17.6501,-5.3 -35.4301,-11.78 -54.1901,-8.8 18.55,4.6 38.05,7 53.9801,18.4399 5.8,4.2 17.51,-1.8 21.4,2.5 7,7.5999 14.9,14.2599 23.84,19.4499 -8.8,-3.3 -18.39,-3.5 -26.96,0.9999 19.42,2.4 37.8101,0 50.9601,17.7199 3.4,4.4 4.1,9.2 -2.8,10.45 -11.88,2.1 -25.3801,0 -25.3801,11.3599 8.1,-8.1 33.1801,-2.3 21.8301,10.9199 17.04,-7.0999 60.2501,10.61 73.0801,21.0099 -15.58,6.5999 -30.9001,-12.1699 -45.3001,-4.2 10.4,0 18.7101,7.7 22.6501,16.7999 -28.1001,13.0499 -45.3701,-25.0498 -69.8202,-30.2598 44.5501,27.4898 0,22.2999 -25.85,12.0899 -36.0901,-14.4999 -80.0601,-14.3199 -113.6402,-33.0998 23.42,13.8899 -22.01,2.7 -28.5001,1 -18.46,-5.5999 -34.58,-11.4599 -51.06,-21.6998 -35.1901,-21.8499 -79.3502,-38.4398 -120.7003,-42.1998 -9.4,-1 -18.74,-3.1999 -28.26,-3.1999 -9.2,0 -14.26,8.5999 -22.68,10.9299 -16.5801,4.5 -44.6601,3.7 -61.1702,-1.2 -15.53,-4.6 -24.47,-20.6899 -40.8,-23.6799 -18.9101,-3.4999 -35.0501,-14.3899 -52.7001,-21.3498 18.33,1.9 -8.2,-32.7598 -24.4001,-31.9398 4.1,4.8999 6,10.4799 5.9,16.8099 -18.04,2.8 -29.84,-13.9999 -45.43,-19.3199 3.3,2.4 6.4,4.9 9.4,7.5999 -6,0 -11.93,0 -17.75,-1.6999 8.9,3.9999 17.78,8.2999 26.98,11.7499 -7.7,7.1999 -19.84,9.4999 -26.98,0 5.5,18.9999 27.57,29.5498 44.45,36.0598 11.03,4.2999 58.3101,10.2399 61.3001,23.9198 3.7,16.9899 -60.2701,1 -14.13,19.0199 -21.38,-9.5 10.35,-10.08 16.85,-8 6.1001,1.9 23.1601,18.7299 14.7401,25.3199 -5,3.9 -12.4301,1.7 -14.8901,8.9999 -2,5.8 -1.4,11.5799 -5.7,16.5599 -4.3,5 -27.47,19.9699 -33.63,19.3099 2,-2.8 3.9,-5.6 5.9,-8.4 -33.2901,1.8 -71.2301,6.6 -101.2902,-11.4099 -27.27,-16.3799 -73.7901,-30.3998 -105.4302,-19.7099 7.3,-1.1 12.83,4.6 20.0301,4 8.3,-1 16.08,-4 24.58,-3.2 14.18,1.5 36.4601,8.2 43.6301,21.8599 -16.1701,5.8 -30.8001,-12.8899 -46.8901,-5.6 -15.48,7 -32.8101,-7.9999 -48.9501,-5.2999 19.4,3.6999 37.8101,10.6099 55.4601,19.3398 -2.6,2.9 -5.3,5.7 -8.2,8.4 9,-1 15.76,-8.3 25.24,-5.7 5.7,1.6 16.8001,8.5 21.3801,1 11.8,-19.3599 32.83,-6.3999 42.54,7.6 16.2701,23.4398 66.6002,33.4398 93.1602,31.5898 -7.2,-1.3 -9.9,-6.3 -5.8,-12.6199 18.42,9.5999 38.0501,17.0698 55.4601,28.5798 -18.07,-7.8 -3.6,3.6999 1,5.2999 6.4,2.6 13.55,3.1 20.24,5 9.0001,2.5 17.1401,8.5 24.7101,13.6999 6,4.2 11.83,8.5 17.57,12.9699 -12.33,-2.1999 -12.33,-1 0,3.4 -6.8,-3.2 -19.76,-8.4999 -20.19,4.2 16.91,-10.3699 28.29,13.5499 42.84,6.6999 -6.6,-3.1999 -12.73,-7.0999 -18.44,-11.7399 15.42,10.42 33.2001,16.3999 49.4701,25.2099 -5.5,-3.1 -11.37,-4.2 -17.62,-3.4 15.45,2 30.4,6.8999 45.4301,10.9299 17.36,4.6 18.2,15.9799 31.43,23.8899 15.96,9.4999 37.9401,9.4999 52.3901,21.4798 7.1,5.9 7.9,23.6799 -3.2,24.3699 6.6,1.6 11.3,6.7999 12.62,13.4399 -30.88,-13.6799 -68.5801,-16.7999 -101.8102,-21.2399 -14.71,-2 -36.33,2.3 -49.03,-6.4999 -3.7001,-2.5 -36.8601,-27.2299 -19.7101,-7.6 -13.63,0 -24.1,-11.2199 -36.99,-14.3099 7.5,3.3 11.93,9.3999 17.65,14.8999 10.03,9.5999 22.65,9.2999 35.35,12.0099 -25.43,1.3 -26.86,10.47 -44,24.5199 -8.3,6.7999 -31.4101,19.2699 -42.6001,15.7999 2.1,3 4,6.0999 5.9,9.2999 -11.43,6.2 -21.91,5.7 -34.4501,5 7.0001,1.4 12.8801,4.7 17.6201,10.0799 -12.54,8.4 -27.5201,1 -41.0901,3.4 13.73,4.1 6.8,12.6999 -2.3,12.3299 -7.5,0 -14.44,-4.6 -22.12,-3.9 4.2,6.3 9.7,11.77 15.99,15.9799 -13.26,-0.9999 -9.5,4.6 -3.4,10.05 -11.01,9.3999 -23.6001,-5.9 -35.3801,1.7 10.14,2.9 21.2501,4.0999 28.6101,12.6199 -6.1,-1.1 -12.3301,-2.2 -18.4501,-3.4 5,0 14.0501,5.4 8.4001,11.7799 -2.8001,3.2 -13.8901,0 -17.6501,0 12.09,4.1 12.38,6.3 1,6.7 7.2,0 13.41,4.5 17.6201,10.0799 -9.4001,-0.08 -17.7501,-4.7999 -26.9901,-5.8999 5.3,2.6 11.25,3.3999 16.28,6.4999 8.2,5.1 4.1,16.9899 -6.9,7.8 0,4.1 -9.4,20.3198 -18.57,16.7999 20.88,12.4299 -12.33,22.8598 -23.4701,20.1598 5.7001,7.2 8.4001,9.9 -3.4,7.6 10.0301,4.2 41.7301,35.5898 32.8101,47.8897 -44.9001,-19.8399 -89.9802,-51.7997 -138.4302,-61.4096 -19.8101,-3.9 -47.4401,-3.7 -67.4902,-1 -18.76,2.5 -40.59,21.9598 -59.6401,11.1599 2.6,2.7 5.1,5.5 7.5,8.4 -5.8,1.7 -11.67,1.9999 -17.65,1 2.8,12.5399 9.4,37.0897 -1,47.7297 -15.37,15.7999 -34.95,-31.1098 -42.6801,-38.1298 -6.2,-5.7 -23.65,-26.8798 -33.68,-20.0199 -7.9,5.4 -7.6,19.9399 -17.6201,27.2198 -8.9,6.5 -13.84,5.1 -24.39,5.9 7.7,2.7 21.72,3.7 26.8501,10.9299 8.1,11.45 -3.0001,21.3799 -14.5201,16.2999 -9.8,-4.2999 -17.7,-12.6799 -26.59,-18.5798 -10.03,-6.6 -37.7601,-4.4 -18.5301,2.2999 -14.1,10.21 -33.94,-12.8599 -51.25,0 4.2,1 8.4,1.2 12.63,1.7 0,7.1 -4.9,10.48 -11.8,8.4 -1.4,14.8999 23.62,17.3099 14.55,29.5598 -4.1,5.5 28.92,19.8099 32.51,25.9498 -25.53,-3.9999 10.4001,16.7799 12.6301,19.2899 -6.1,-2.9 -12.3101,-2.9 -18.4501,0 7.3,2.2 13.9501,6.3 19.2701,11.7699 -26.9701,-10.7399 0,61.4696 2.4,65.9396 10.34,17.4099 22.12,26.7498 40.53,34.9198 10.7201,4.8 36.9401,4 40.2501,18.4999 -0.03,-12.4399 -24.82,-33.1798 6.2,-23.4999 17.3001,5.4 40.7401,7.2 54.1801,20.2999 11.7,11.5099 5.2,17.8299 2.7,30.9298 -1.7,8.8999 9.6,14.8699 15.16,19.3099 11.0301,8.8999 20.7101,19.2399 31.3501,28.5998 16.01,14.0999 21.8,10.5899 39.9501,13.8699 16.09,2.9 71.8901,42.5397 61.6201,58.6496 -10.42,16.2999 -41.7201,-1.5 -49.3701,-13.6699 -7.1,-11.3799 5.5,-11.3799 4.1,-21.1698 -1,-7.1 -11.41,-4.3 -9.5,3.4999 -8.6,-5.3999 -20.29,-2.8999 -23.4701,7.6 30.8501,5.6999 -1.9,19.8399 5.7001,33.8398 10,18.2299 15.26,36.1897 29.89,51.8296 16.91,18.0999 36.7501,28.9499 58.0301,41.0098 11.08,6.2999 26.7201,12.2799 34.8701,22.4098 6.4,7.9 -3.7,19.4999 -1.6,28.2299 -8.2,-2.6 -16.3501,0 -24.5601,1 -10.95,0.9999 -19.57,-7.9 -30.45,-8.5 -22.8601,-1.4 -23.9701,17.0899 -34.7101,31.1698 -12.01,15.7399 3.5,32.1198 13.15,45.2397 3.7,5.1 44.4701,37.0698 24.5001,27.2799 16.32,12.4899 39.08,18.7098 49.4801,37.8097 -7.1,-1.1 -20.0301,-3.7 -23.9001,-10.6899 -4.6,-8.5 -10.02,-1.9 -17.25,-1.9 -16.24,0 -32.3301,20.4499 -41.1401,31.0798 -6.8,-5.9 -15.88,-15.3699 -26.01,-10.9199 1,9.3999 8.5,8.1999 15.45,9.3999 6.7,1.1 12.52,15.8499 17.52,21.0299 5,5.1999 3.5,10.6099 8.9,16.1699 7.5001,7.5999 18.6501,13.1199 23.1001,23.0498 10.42,23.2299 21.43,54.6797 2.7,75.4295 -7.7,8.5 1.7,10.69 -3.9,19.2899 -8,12.5099 -10.29,27.0099 -21.0301,38.1998 -5.6,-17.2799 -23.79,-23.2799 -37.81,-31.9298 -16.22,-10.03 -27.5701,-25.9299 -39.5801,-40.3498 -13.55,-16.2699 -29.56,-30.1898 -45.5401,-43.9997 -8,-6.8999 -15.93,-13.7299 -23.6,-20.9298 -6.7,-6.3 -23.6001,-14 -6.5,-15.7399 -42.6501,0 -86.8602,-65.4596 -115.5102,-91.2595 -45.4901,-40.9797 -92.3402,-80.5595 -138.8303,-120.4392 -39.77,-34.1298 -70.6501,-70.6896 -103.1101,-111.4893 -12.3301,-15.4299 -24.3401,-31.1998 -36.0401,-47.1197 -5.6,-7.7 -11.29,-15.6899 -14.84,-24.5798 -2,-5 -2.6,-25.6999 2.5,-6 -1,-10.9199 1.3,-38.8598 13.41,-34.4498 -9,-10.8999 -7.4,-27.5398 -18.17,-37.2498 -12.3901,-11.1399 -31.2001,-16.6098 -39.8501,-31.6398 12.86,-3.0999 27.6,8.4 39.4801,3.4 7.3,-3.1 -1,-16.9599 2.5,-22.7198 14.52,7.2999 30.26,-4.4 44.6,2.5 -12.78,-3.4 -7.5,-14.13 -2.2,-21.9899 3.2,-4.8 6.8,-9.4999 9.7001,-14.5299 4.6,-8.1 -1.6001,-16.8999 11.75,-8.9 -14.4501,-11.3799 3.2,-28.9198 -10.72,-41.2997 -18.9701,-16.7999 4.2,-32.8398 -1.4,-51.5697 -4.8001,-16.2399 5.2,-5.2999 11.8,-16.0099 6.8,-11.0799 1.1,-21.5598 3.7,-33.1198 1.3,-5.7999 12.52,-12.6799 10.11,-19.2098 -3.3,-9.1 -13.39,-11.75 -18.5,-19.4499 9.8,-6.4 19.98,-12.0099 29.11,-19.3899 4.1,-3.3 3.8,-10.5799 7.9,-13.3599 6.8,-4.6 17.6701,-3.8 24.6601,0 3.1,1.6 13.28,-11.8499 16.56,-13.1999 -9.8,-2.4 -24.21,-4.5 -26.51,-16.6699 -2.5,-13.0399 10.95,-13.0199 -3.3001,-24.4499 -11.27,-8.9999 -26.4,-2.1999 -33.12,-18.4398 -5.2,-12.64 -5.4,-20.1299 -17.31,-29.1499 -13.8601,-10.5099 -47.7501,-33.4997 -22.7801,-50.9396 14.5,-10.16 49.4501,5.7999 63.4501,11.9099 -8.6,-4.7 -18.12,-7.5 -26.01,-13.4399 11.96,0 24.26,4.4999 36.2001,1.7 -29.8001,-4.7 -61.3602,-3.6 -89.3502,-16.3799 -27.5501,-12.57 -59.5901,1 -86.3402,8.7999 3.8,10.2599 14.3401,14.2099 24.4001,15.1299 -13.87,11.2999 16.77,28.8898 23.57,37.4898 13.68,17.3099 33.4501,13.3399 47.0501,27.2598 -2.8,1.3 -5.6,2.7 -8.4,4.2 1.5,2.9 3.2,5.6999 5,8.3999 -9.2,-3.2 -16.46,-10.3999 -25.19,-14.4699 -7.2001,-3.4 -29.7401,0 -8.4001,6.1 -17.17,-4.7 -34.43,1.4 -34.43,23.5198 0,18.1999 -24.5501,40.2698 -8.4,57.1697 -12.7501,-5.6 -25.9001,1 -31.1701,13.4399 -8.6,-4.4 -7.5,-15.2399 -16.11,-18.4399 -8,-3 -1.6,-17.8599 -15.06,-22.5899 -15.7101,-5.4999 -20.8701,16.3999 -31.3501,0 -7.6,-11.6699 -19,-18.7598 -30.7701,-25.7198 26.0601,6.4 -6,-7.6 4.2001,-7.6 -12.8901,-5.1999 -1.2,-9.2999 -5.6001,-17.3098 -4.9,-9 -12.33,-20.6899 -20.24,-27.0599 -12.38,-10.0299 -19.71,-1.2 -25.9,9.4 -10.1601,17.4899 -15.3701,2.4 -27.2301,-1 -11.32,-3.1 -20.85,-12.7599 -33.31,-11.3 -12.3801,1.5 -22.9101,9.7 -35.6401,9.5 -9.1,-0.08 -22.59,6.6999 -30.2901,4.9 -13.73,-3.1 -28.89,-3.5 -42.86,-5.1 1,3.1 1.2,6.2 1.7,9.2999 -17.7601,-5.8999 -13.5301,16.9899 -26.9701,20.1899 4.9,5.8 26.4601,18.6799 13.87,25.4798 -15.4,8.4 -1.9,30.9298 1.4001,40.4198 2.2,6.2999 -4.1001,17.0699 -8.5001,22.3598 -8,9.5 -17.44,9.4 -18.12,24.2899 -1,11.9099 4.4,23.9998 12.17,32.8598 -25.19,-4.2 13.7,24.7898 20.1901,27.7298 -15.4301,-8.4999 -9.0001,10.8199 0,13.2299 8.6,2.2 18.36,0.03 26.59,3.6 -3.2,-1.7 -6.3,-3.7 -9.2,-5.9 19.87,-22.4898 61.3601,17.9899 78.0801,22.6699 -21.3,16.8299 -34.19,-1 -54.6101,4.2 16.9601,20.8698 -43,2.3 -49.6401,1 -17.67,-3.8 -13.23,-4.2 -23.47,4.1999 -8.4,6.9 -16.3,14.5699 -3.4,22.6699 -13.39,-7.4 -50.4101,-13.7599 -64.6701,-8.4 1.9,2.8 3.9,5.6 5.9,8.4 -32.8101,2.9 -61.9901,1.6 -89.9902,-17.6499 12.0701,-1 23.1601,-6.2 35.3801,-5.9 11.77,0 26.14,3.3 36.1901,-4.9999 -14.3101,-11.41 -35.5001,-4.6 -52.0101,-14.0799 -21.9101,-12.62 -45.3301,-25.2099 -71.6302,-20.3999 9.7001,21.3799 -62.9101,-6.9 -68.7601,-8.2 -19.26,-4.2999 -50.6901,-16.6599 -68.5301,-3.9999 -18.73,13.3299 12.86,16.2699 19.63,23.0998 -10.47,-7.2999 -24.1,0 -35.26,-5.8999 -2.5,18.3098 27.41,11.3199 32.8,26.0598 -11.21,-6.2 -25.77,3.8 -35.24,-3.5 -16.6101,-12.7999 -34.0801,-14.0999 -53.9501,-7.3999 1.8,3.1999 3.8,6.2999 6,9.1999 -9.4,-6.3 -17.12,2.9 -27.5401,-2 -12.14,-5.6999 -28.1,-8.6999 -41.51,-7.4999 -20.7701,1.9 -59.3501,-18.1499 -27.6001,17.0399 -11.69,-4.9 -23.2,4.6999 -34.55,-3.4 -10.5301,-7.5 -13.4201,-16.4099 -27.6801,-17.6499 -36.0601,-3.2 -71.4601,5.2 -107.7402,1 -16.01,-1.9 -27.3,3.4 -42.7001,5.1 -13.95,1.4999 -21.96,-1.9 -35.8,2.2999 -15.16,4.6 -33.1801,9.4 -39.1801,26.2799 -4.7,13.0899 5.3,26.3998 -2.8,39.3397 -7,10.98 -24.95,14.0199 -28.68,27.0898 -3.3,11.57 6.6,26.5099 12.3,36.0098 5.6,9.3 7,17.1999 -6.6,18.3399 -14.0201,1.2 -9.1,14.3899 -12.2201,23.7099 -3.9,11.8199 -9.6,14.5699 -18.2,22.0098 -8.8,7.6 -8.3,20.1899 -16.88,27.9698 -5.9,5.3 -2.4,22.8299 -4.1,30.8698 -2.3,10.43 4.7,14.4699 13.52,18.3399 -20.01,1 -13.23,36.9098 -24.82,47.3597 -6.2001,5.6 -14.0801,13.3299 -17.2501,21.2199 -3.3,8.0999 -13.31,7.2999 -18.34,13.4099 -5.3,6.3 -1,16.0899 -4.8,23.1799 -5.7,9.8999 -16.16,13.4699 -24.8101,20.1298 -27.34,21.1399 6.4001,35.4298 23.1701,40.4598 23.97,7.1999 43.6901,9.7999 68.6401,7.6999 17.22,-1.5 53.4201,-4.6999 55.8001,20.6599 1,4.9 12.19,12.6699 15.13,16.6699 6.6,8.9999 11.3,17.2499 14.3701,27.9598 6.2,21.7299 27.46,11.1999 42.36,8.3 -1.3,-5.4 -1.7,-13.45 -5.8,-17.6499 -5.7,-5.8 -15.56,1 -19.42,-8.9 -7.9,-19.5798 20.58,-15.7399 31.11,-18.8399 -1.7,8.7 -4.3,21.1699 -15.98,20.1899 12.33,14.4199 35.4001,12.6699 52.2101,16.7999 -5.1,3.9 -17.78,35.9298 -13.92,37.8898 13.7,6.9999 41.9901,0 54.1601,-8.5 12.83,-8.7999 0,-33.1698 14.39,-31.0298 14.4,2.2 10.32,34.3198 8.4,43.7097 25.5101,-5.3999 16.48,-16.5698 5.9,-36.9597 -5.7,-10.93 -8.8,-10.01 -16.8,-18.4999 -7.4,-7.9 -5.4,-18.8099 -18.42,-21.0099 12.65,-3.2999 27.15,3.8 39.08,7.2 16.7201,4.7 26.2501,-4.3 41.9601,-5.9 28.0801,-2.9 58.5601,29.6598 79.4801,43.2297 12.3101,8 26.6201,12.25 40.3301,17.0699 16.77,5.9 28.8601,16.2999 44.3701,23.6299 8.2,3.9 59.5001,11.0599 54.1801,31.7498 -2.8,11.0799 -10,-13.0499 -7.8,9.0999 -12.91,-5.2999 -28.9701,-16.1999 -43.6301,-13.4399 26.35,18.8599 82.0201,23.6999 84.9801,62.6796 1.1,14.2799 24.3401,19.6799 35.5901,22.1199 19.53,4.3 3.5,23.8298 24.7601,29.4698 -11.3201,7.4999 1,20.5799 -8.0001,27.8098 -8.3,6.6 -1.3,24.8399 8.0001,26.8298 -15.3901,9.6 4.6,24.3899 10.98,32.2798 8.6,10.71 5.3,28.0099 13,39.8898 8.2,12.6499 36.6101,59.3796 55.8501,53.0497 -12.57,24.7698 11.06,29.8798 22.59,48.6296 5.5,8.9 10.0301,20.7999 6,31.2198 8.1001,2.1 19.4701,22.6499 10.9501,26.0399 13.74,-5 16.22,27.0698 22.81,36.5898 16.78,24.2398 -2.1,42.7797 -13.1,65.3295 -12.91,26.5399 8.7,55.1397 -6.8,80.9595 -7.2,11.9599 -1.7,31.9898 1.3,44.6397 1.9,4.6 3.9,9.3 6,13.78 0,8.6999 -3.7,10.9499 -1,21.0598 6.4,22.9899 -4.3,56.8097 -14.76,77.4195 -4.4001,8.8 -7.0001,16.7699 -12.4401,25.1299 -7.2,11.0399 -4.4,18.5199 -8.3,30.3498 -1.4,4.1 -1.5,22.8898 -6.4,23.3598 -14.05,1.4 3.2,21.7499 -5,28.4998 -10.08,8.2 -9.7,7.4 -12.04,20.1599 -1.8,10 3.1,27.1698 -7.6,33.6298 17.07,8.5 -6.3,48.7397 -15.7901,58.2896 -26.54,26.7499 -51.6201,42.6498 -84.5601,59.2097 -10.11,5.0999 -19.18,12.2999 -27.2501,1 -1.5,-2.1 -29.56,-9.7 -32.42,-9.6 -10.34,0 -24.4201,-10.4799 -32.7201,-5.2999 -4.1,2.5999 -22.55,-36.2998 -26.6,-41.0398 1.2,5.5 -7.6,25.1399 -14.23,25.1899 -16.3501,0 -1.0001,-23.2599 -17.5701,-24.5499 -22.28,-1.7 2.4,40.9797 -20.27,37.1698 7.8,4.2999 5.5,25.5098 3.4,34.4498 -10,-4.7 -33.5001,-14.08 -42.9701,-4.2 16.19,8.3999 21.6201,15.8299 19.37,34.4498 -13.15,-16.7999 -25.27,-36.2498 -46.23,-42.0098 8.5,-15.4599 21.65,-14.1899 36.28,-15.2399 9.6,-1 4,-13.5499 4,-19.2099 0.03,-32.4697 -21.38,-43.5497 -34.48,-70.6195 -15.45,-31.8798 -34.0501,-59.3196 -57.6501,-85.7995 -2.8,-3.0999 -29.6301,-24.5598 -21.3801,-27.4898 10.7201,-3.8 20.8301,-1 28.1801,-12.9999 2.9,-4.7 7.4,-24.7098 12.99,-25.8498 11.46,-2.3 37.2301,11.6699 48.7701,14.8699 7.5,2.1 70.2401,20.8798 57.3001,-3.8 -5.2,-9.8999 -20.71,-27.6498 -4.6,-35.6898 12.78,-6.3999 1.1,-16.8099 -2.6,-24.8498 -6.7,-14.6299 13.34,-22.0399 -3.8,-34.5498 18.31,-9.2 1.3,-22.5999 -4.1,-31.0398 -3.3,-5.2 0,-12.0399 -1.7,-17.6999 -2.6,-9.8999 -9.3,-17.9399 -11.9801,-27.8598 -1.8,-7 0,-14.6799 -3.1,-21.3499 -3.2,-7.1999 -13.5,-12.5999 -9,-21.9099 7.3,-15.0299 22.0901,-6.5999 17.0901,-27.8298 -3.6001,-15.3199 -17.3001,-19.4999 -26.9401,-30.8298 -5.3,-6.1999 -9,-13.5699 -9.9,-21.7998 -1.5,-13.41 -3.9,-8.8 -15.38,-14.8699 -15.9201,-8.4 -33.7601,-5 -48.6001,4.3999 -2.6,1.6 -25.1901,19.1299 -23.0501,19.9799 -19.18,-7.7 -50.8201,0 -50.8201,25.2398 0,17.7799 -43.61,13.18 -57.3401,14.8699 -10.66,1.3 -13.81,1.6 -22.04,-4.6999 -7,-5.4 -21.08,1.6 -28.47,2.9 -12.1901,2.0999 -63.6002,-32.1198 -63.2102,-44.7098 1.0001,-22.6498 -16.14,-32.7098 -35.26,-43.0497 -21.0901,-11.3999 1.8,-32.6198 -31.9401,-29.8198 -24.08,2 -46.1401,-11.0599 -63.8201,-26.8798 -10.08,-9 -16.14,-9.1 -28.04,-12.6999 -1.9,-1 -32.8901,-27.9199 -20.3201,-5.5 -15.06,-6.2 -31.38,-4.3 -45.43,-13.5799 -12.4601,-8.2 -19.7701,-11 -33.9201,-10 -19.58,1.4 -29.7901,3.4 -49.7401,-1.3 -18.6,-4.3999 -34.1101,-16.2199 -47.5801,-29.5298 -8.5,-8.3999 -11.21,-26.7998 -20.82,-32.3598 -17.17,-9.9999 -25.0301,-13.4099 -35.7701,-31.3498 -18.6,-31.1698 -58.8201,-41.1197 -80.1201,-70.8295 -5,-6.9 -21.5601,-22.3799 -29.6301,-25.3199 -10.93,-3.9999 -25.29,-21.4898 -35.66,-28.4198 -14.8501,-9.8999 -17.2301,-24.3898 -30.7001,-34.5298 -13.83,-10.4499 -28.94,-19.5998 -42.4401,-30.4198 -6.6,-5.1999 -18.2,-3.3999 -22.11,-12.0899 -4.2,-9.2999 -4.4,-8.7999 -14.53,-14.2099 -11.93,-6.4 -30.6901,-10.4799 -37.6501,-21.9099 -4.4,-7.2999 -30,-10.7899 -39.2401,-14.4699 -8.3,-3.2999 -25.35,-9.3999 -25.56,5.6 -14.36,-7.3 -31.4301,-4.8 -45.8201,-12.0099 -7.4,-3.7 -13.5,-9.3 -20.85,-12.9399 -8.2,-4.1 -17.6801,-2.9 -25.8301,-7.3 -34.71,-18.9699 -73.4701,0 -110.3502,-4 -32.52,-3.3 -62.5501,14.3399 -94.8601,17.1699 -33.1701,2.9 -20.4001,41.5898 -48.4901,51.0597 11.19,12.3799 16.19,15.3499 32.78,14.3199 11.3701,-1 30.4201,0 36.3501,12.2499 7,13.9399 25.0301,23.6999 29.6301,36.9098 7.9,22.7198 -10.0501,22.1099 -17.4601,40.9297 -5.5,13.8599 1.3,32.4598 2.5,46.7497 1,7.8 1.6,17.5699 -2.1,24.8699 -4.1,8.0999 6.1,14.7899 4.1,23.1498 -2.7,11.88 -3.7,19.7099 -1,31.9598 1.6,7.1 21.2401,10.14 26.0601,19.4499 9.6,18.5499 -32.1701,22.0699 -41.9901,25.6898 -14.37,5.3 -19.29,22.8599 -28.92,33.4998 -11.6701,12.93 -40.2701,-4.3999 -54.1901,-6.7999 -18.2501,-3.2 -37.5401,-4.8 -53.9401,-14.2599 -18.1801,-10.43 -31.5401,-22.9099 -54.1601,-20.1399 -17.9401,2.2 -28.7601,13.9199 -47.3701,10.2699 -21.6101,-4.2999 -36.6901,-16.6199 -55.6901,-26.6998 -39.0801,-20.7099 -72.2001,-5.6 -103.8002,19.7399 -12.11,9.6999 -12.85,19.2899 -18.38,32.7598 -7.9,19.2898 -28.1001,8.4999 -43.7401,12.3499 -14.1,3.5 -37.1501,3.9 -49.6901,10.2399 -9.1,4.6 -18.6,1 -27.25,5.2 -7.8001,3.9 -13.6501,10.6899 -21.6401,14.5499 -13.6,6.6 -29.43,-1 -43.6601,-1.2 -24.9,-1 -47.47,1 -71.6001,-7 -37.46,-12.4299 -69.5601,2.6 -104.2702,-21.0598 -12.8,-8.7 -26.64,-12.6199 -36.7,-25.0599 -13.25,-16.5099 -17.3001,-21.8798 -39.7601,-22.4598 -19.5,0 -35.9101,-2.1 -52.5201,-13.2299 -13.05,-8.7 -25.83,-20.2899 -42.0201,-22.3799 -17.81,-2.3 -29.47,2.7 -47.49,-3.4 -21.8301,-7.2999 -51.1201,-9.8999 -73.5602,-4.6999 -43.3301,9.9999 -86.0901,37.5997 -131.5502,21.5098 -12.67,-4.4999 -17.78,-9.6999 -32.3601,-11.0899 -10.53,-1 -28.36,-7 -36.56,-13.9699 -8.4,-7.1 -19.9801,-6.9 -26.1401,-16.5899 -6.1,-9.5 -14.61,-14.8699 -21.56,-23.4899 -13.58,-16.7799 -22.07,-46.9397 -45.7001,-51.2496 -27.28,-5 -54.2401,-5.5 -80.2501,-15.4499 -33.0701,-12.76 -67.1501,-11.72 -100.3302,-22.0699 -31.5901,-9.8999 -61.8601,-23.6799 -93.3202,-33.4898 2.2,8.4 7.2,31.2998 -5,34.9698 -16.93,5.1 -18.94,15.4299 -11.8,30.5598 -25.37,-8.4999 -7.3,47.3897 6.8,54.5297 13.07,6.5999 14.71,24.3398 29.4201,30.5898 15.03,6.3999 22.28,9.3999 25.05,27.7298 1.8,11.9599 -2.2,31.6398 -17.25,33.5498 -14.23,1.8 -15.2901,16.5299 -28.7001,19.3598 -15.03,3.2 -33.84,-10.7899 -49.1901,-12.5399 -21.4,-2.4 -41.59,-8.5999 -62.6301,-11.1899 -13.7,-1.6 -22.64,1.5 -34.02,9.3999 -4.8,3.4 -44.4301,-8.7999 -51.3001,-9.8999 -19.5301,-3 -37.7301,-8.7999 -52.3101,-22.6999 -11.06,-10.5299 -19.56,-25.0798 -34.3201,-30.9798 -28.44,-11.3499 -63.8401,4.3 -91.4901,-5.8999 -12.2801,-4.5 -6,-23.3599 -22.2301,-11.9899 -18.49,12.9399 -24.52,-11.53 -42.12,-11.16 7.8,16.5899 -15.9801,15.6599 -25.9001,16.4599 -7.3,1 -13.12,1.2 -17.38,7.9 -9,14.0999 -12.2,10.2899 -27.0701,15.0799 -9.9,3.2 -15.56,8.7999 -22.33,16.2199 -7.6,8.2999 -14.61,5.6999 -24.6901,9.2999 -2.4,1 -23.55,9.3 -23.18,11.9799 1.9,14.7699 -14.23,8.4 -24.26,15.5099 2.5,7.2 6.9,14.4199 13.55,18.4899 -12.65,4.7 -22.7001,8.8 -36.2001,10.96 1.7,2.7999 3.4,5.4999 5,8.3999 -8.2,6.4 -17.78,2.7 -26.01,-1 1.6,16.0799 -13.52,5.3 -24.5801,3.5 -13.04,-2.1 -22.94,2.6 -23.81,16.0299 -1.1,17.0899 -37.5201,28.8698 -52.4701,23.2798 -11.11,-4.1999 -8.6,-13.0899 -23.17,-14.8399 -14.3201,-1.7 -21.2001,-17.5699 -31.7801,-25.4498 -8.4,-6.2 -24.32,-2.5 -19.74,-17.2499 3.5,-11.4599 -5.5,-13.9199 -13.12,-6.9 -4.1001,3.8 -11.1401,9.8 -12.8301,15.3999 -5.1,16.7799 -19.27,3.1 -27.12,2 -16.38,-2.1 -49.0301,2.1 -62.2101,-8.6999 -13.57,-11.0899 -22.2801,-26.7998 -33.4101,-40.0298 -16.3,-19.3398 -56.4901,-7.6999 -72.0501,-31.0598 -20.19,-30.3298 -57.2801,-54.5596 -94.3802,-60.7796 -3.8,-1 -10.61,-1.9 -13.78,1.4 -9.4,9.8 -4.6,6.5 -17.78,8.8 -9.7,1.6999 -11.5401,13.5499 -25.0001,13.9399 -5,0 -9.6,1 -13.95,2.8 -9.4,4.4999 -14.42,-2.3 -23.33,-3.6 -10.7501,-1.6 -27.0201,8.5999 -36.3601,1.3 -6.8,-5.4 -11.75,-19.1599 -21.48,-19.6899 -5.3001,0 -18.1301,3.7 -20.3001,-4 -2.6,-9.2999 6.5,-20.4199 -9.6,-18.8099 -7.7,1 -12.88,-8.7999 -22.06,-8.9999 -1.9,-0.08 -18.6801,3.5 -19.9801,6.9999 -3.8,10.08 7.5,12.99 2.2,23.0199 -7.5,14.2599 -27.55,8.9999 -16.54,20.6899 -29.42,-6.4 -60.7001,-54.6397 -81.8101,-74.7196 -33.6501,-32.0098 -68.4702,-62.5996 -102.4702,-94.2394 -32.7801,-30.5598 -63.7901,-61.7796 -102.6102,-84.9594 -41.8301,-24.9799 -88.2402,-40.7998 -127.3702,-70.4896 5.1,-3.3 15.69,1.6 19.37,-3 5.6,-6.9999 9.3,-17.4598 -2.6,-20.5298 2,-3.2 4.2,-6.3 6.6,-9.3 -12.81,4.8 -24.61,14.1499 -38.16,12.19 -1.0001,0 -15.4701,11.9399 -16.9301,12.5999 -12.88,5.6999 -26.48,10.1299 -40.61,11.3699 11,12.7599 -14.2101,23.0199 -22.7601,26.0398 -18.09,6.5 -30.87,8.9 -29.39,31.9398 -6.8001,-0.03 -9.1001,-3.8999 -13.6001,-7.9999 -7.2,-6.5 -12.04,2.5 -19.58,-3.7 -14.55,-11.9399 -30.6901,8.2 -39.9001,16.6899 -3.7,-11.1899 -19.42,-9.8999 -22.75,-21.0099 -4.5,-14.8699 15.4,-22.6198 26.96,-21.0298 0.02,-8.2 -4.7,-15.2699 -10.96,-20.1599 -15.18,41.0097 -72.5401,-31.4298 -84.8701,3.4 6.7,-3.1 13.01,0.05 16.82,5.8999 -7,0 -12.88,2.4 -17.62,7.6 -5.1,-11.2199 -16.8301,-13.9399 -5,-22.6799 -14.2301,-1 -23.0701,-17.2499 -35.3701,-22.6998 -1.7,7.1999 2,13.5999 8.4,16.8299 -7.4,1.1 -21.64,-8.4 -27.01,-3.1 -5.3,5.2 -13.2301,14.6299 -21.9301,10.2099 -14.53,-7.3999 -26.91,3.6 -41.73,-14.7299 24.08,-1.8 -6.1001,-27.0698 5,-38.6597 -8.8001,-4.6 -17.4901,-7.6 -24.3901,-15.1299 -8.8,-9.7 -9,-22.8399 -19.64,-31.5398 -18.67,-15.2099 -28.6001,-15.8999 -43.3101,-1.1 -11.06,11.1899 -39.1801,-7.5 -49.5801,-12.6699 -10.27,-5.1 -21.8,-5.3 -32.91,-6.9 -7.7001,6.5 -20.8501,-3.7 -31.8601,-4.2 2.6,2.8 5.1,5.5 7.6,8.4 -7.1,1 -14.11,0 -21.01,-1.7 5,14.3899 -8.6,11.5099 -16.8,15.9799 -4.2001,2.3 -19.7701,9.3999 -1.7,12.6199 -10.1101,12.1699 -40.3201,18.5699 -55.8501,21.6199 -20.4801,3.9999 -40.6201,7.7999 -60.9902,12.4299 -18.25,4.1 -93.87012,1 -93.40012,23.2598 0,5.6 0,19.8199 -10.05002,10.48 -7.50001,-7.2 -14.00002,2.2 -22.44004,1 -12.70002,-2.3 -20.58003,-0.05 -33.02005,1.6 -4.60001,1.4999 -9.40002,1.9999 -14.21003,1.2999 -1,2.8 -2.1,5.6 -3.30001,8.4 -10.13001,2.9 -58.5501,-4.7 -59.7401,9.5999 -1.2,14.8199 -42.97008,-9.4999 -37.84007,22.3299 -10.45002,-1 -13.23002,-11.7699 -24.37004,-11.7699 -10.79002,0 -19.73003,8.4999 -30.61005,6.3999 -7.20002,-1.4 -51.22009,-18.0199 -45.88008,1.2 -5.50001,-1.7 -11.14002,-2 -16.80003,-1 8.20001,6.8 31.14005,25.3799 2.6,27.7298 8.20002,4.5 20.24004,11.03 30.00005,9.8 9.10002,-1.1 15.69003,-5 22.07004,4.5 -3.5,4.9999 -47.89008,12.7299 -15.29002,21.8298 22.48004,6.3 45.19008,5.2 66.43011,17.5099 21.43004,12.4399 -21.64004,14.5299 -25.90004,14.5299 -7.60002,0 -13.39003,-5.2 -20.72004,-5.6 -9.30002,-0.9999 -21.98004,1.9 -31.38005,3 8.60001,9.9 -8.50002,17.2799 -12.30003,24.4999 -1.6,3 30.77006,34.3998 35.85007,37.6797 -5.40001,2.8 -9.50002,8.4 -14.02003,12.41 -7.50001,6.6999 -14.50002,3.8999 -23.26004,7.2999 -2.3,1 -31.72005,17.5699 -31.72005,17.5199 0.08,12.7799 33.39005,10.4999 39.71007,19.4699 10.45001,14.7599 18.95003,9.2999 34.50006,13.0199 13.05002,3.2 18.97003,14.8099 34.56006,16.3199 20.03003,2 23.44004,12.6799 40.14007,18.2099 -17.86003,2.1 -4.80001,26.0798 -4.90001,36.3197 0,17.2799 -47.81009,23.1499 -60.30011,22.5199 -9.00001,0 -21.12003,-1 -28.52005,-6.8 -5.10001,-3.8999 -12.20002,-15.2399 -19.90003,-13.4099 -8.30002,2 -5.90001,13.5199 -6.40001,19.4699 -1.10001,12.5199 -16.56003,14.3399 -26.25005,14.9799 8.50002,-13.7899 -25.87005,-15.1599 -32.30006,-15.7699 -15.40002,-1.5 -37.39006,-5.7 -46.46008,-19.7399 -6.50001,-9.8999 -20.14003,-35.6697 -37.10006,-23.2598 -21.51004,15.6899 -32.33006,-18.4899 -31.24006,20.1099 -8.40001,-3.8 -12.18002,5.8999 -19.90003,3.4999 -6.90002,-2.1 -22.57004,-10.8299 -25.30005,-17.8099 -2.8,-7.1999 -39.15007,-4.6999 -39.76007,6.7 -5.20001,-4.1 -11.04002,-6.3 -17.62003,-6.7 1,13.71 -17.02003,17.0999 -20.46003,29.7399 -4.90001,17.6798 -27.38005,21.5698 -38.84007,11.3499 -9.60002,-8.5 -27.43005,-9.4 -39.18007,-17.9899 -10.72002,-7.7999 -31.83006,-28.3598 -46.86008,-18.0699 3.2,9.5 12.78002,16.7699 17.52003,25.6599 3.7,6.8999 1,29.1098 -10.69002,19.3498 -6.70001,-5.6999 -9.00002,-17.9999 -7.50002,-26.2498 1.00001,-5.9 -27.26004,-17.3799 -34.69006,-26.1398 -10.21001,-12.09 -20.77003,-8.4 -33.71006,-13.9699 -14.39002,-6.2 -16.85003,-23.7599 -35.51006,-26.0399 -32.04005,-3.9 -69.85012,13.4199 -82.840144,-28.2498 -10.950019,6.1 -20.550036,6.4 -30.900054,10.9999 -7.300013,3.3 -6.600011,14.4799 -11.140019,20.1099 -9.200017,-15.2399 -24.820044,9.5999 -29.820053,-10.6899 -3.300006,-13.5399 -35.320062,-15.9299 -48.390085,-18.6999 2.300004,5.5999 4.500008,11.2099 6.800012,16.7999 -21.690038,-10.24 -16.510029,6.7999 -24.600043,21.8498 -5.200009,9.7 -15.900028,8.6 -25.010044,11.25 -10.000018,2.7999 -14.280025,13.9699 -25.530045,13.9699 -6.200015,0 -18.970035,-2.3 -20.690035,6.6999 -1.1,5.8 8.70001,14.9999 2.8,19.7299 -16.19002,13.1299 -35.27006,23.4699 -55.67009,18.0999 14.58002,4.6 19.50003,32.1498 25.96004,43.8397 3.50001,6.4 15.26003,14.3199 7.70001,21.8599 -8.90001,8.7999 -26.03004,15.6299 -38.04006,9.9999 -22.89004,-10.7699 -41.54008,-54.4296 -68.53012,-54.7196 -31.12006,0 -6.10001,34.7397 -18.60004,43.7897 -20.56003,14.8199 -27.07004,24.8998 -21.64003,53.3396 2.5,13.1 39.13007,25.7199 19.42003,40.2698 -14.19002,10.5099 -29.03005,37.4398 -18.39003,55.5396 5.70001,9.7 18.92003,12.3 28.89005,14.8699 18.10003,4.6 15.50003,13.12 27.65005,24.1499 -2.80001,1.9 -5.60001,3.9 -8.40002,5.9 5.30001,4.9999 17.23003,36.7497 25.88005,25.1898 7.30001,-9.8999 28.41005,-5.6 38.23007,-3.8 40.06007,7.5 57.3101,41.4098 83.050142,69.7996 7.600013,8.3999 22.230039,18.2599 25.480045,29.7398 4.500008,16.0599 -30.350054,-3.8 -36.380064,7.9999 -4.700013,9.2 62.87011,25.2899 65.590115,42.5398 -3.100005,-1.7 -6.200011,-3.4 -9.400017,-5 1.000002,5.9 1.400003,11.7999 2.600005,17.6499 -6.800012,-4.4 -20.670036,-4.7 -20.190035,6.6999 -5.70001,-3.5999 -11.590021,-3.8999 -17.650031,-0.9999 7.800013,1.5999 8.400014,6.6999 4.200007,12.6199 7.000012,0.03 10.980019,3.7999 10.060018,10.9599 -3.800007,-2 -42.150075,-16.3299 -27.680049,1.7 -7.200013,-1 -9.400016,4.8 -14.870026,7.6999 -11.06002,5.9 -28.31005,-6.9999 -24.68004,11.67 -8.90002,-4.7 -17.09003,-10.69 -26.86005,-13.4399 6.40001,5.1999 6.90001,13.8099 9.20002,21.0298 -5.00001,-7.8999 -11.09002,-18.3899 -21.83004,-18.4899 26.56004,29.9998 -1,59.4997 -10.03002,91.5995 -2.50001,-2.6 -4.70001,-5.5 -6.80001,-8.4 9.30001,12.1499 -15.80003,21.2699 -16.80003,32.7798 -1.5,16.4899 17.83003,19.8199 28.97005,25.6898 14.87002,7.9 22.33004,14.6099 32.07006,28.3399 5.80001,8.2999 14.02002,17.6499 14.60002,28.2898 1,10.1299 -11.09002,17.9599 4.20001,20.2399 -1.4,-8.6 -3.20001,-42.6298 12.62002,-32.7898 -6.60001,11.2499 -19.85003,52.4696 1.6,56.3096 -7.90001,6.3 -10.90002,26.4298 -1.1,32.4098 13.760025,8.3999 17.490032,21.2199 25.610046,34.1298 7.600014,11.9899 21.510038,20.5099 32.070057,29.6598 12.110021,10.4999 19.180033,23.7898 30.030052,34.9998 9.400017,9.6999 21.4500382,13.3899 13.7000245,26.6498 -7.3000125,12.5099 -18.8600335,19.8399 -28.3400495,30.2898 -4.700009,5.1 -9.700017,19.3199 -15.580028,22.0199 -10.480018,4.7999 -30.690054,-3 -40.320071,-7.4 -11.700021,-5.2999 -11.190021,-20.8198 -21.860041,-26.5098 -10.02001,-5.3 -16.85003,-9.3 -25.50004,-17.9099 -20.11004,-20.1899 -51.68009,-21.5899 -78.24014,-32.2298 -7.00001,-2.8 -27.65005,-10.3899 -28.63005,-19.3399 -1,-8.9999 6.70001,-22.1198 -3.60001,-27.5898 -16.06002,-8.5999 -24.40004,3.7 -37.71006,-12.6799 -7.80002,-9.6 -34.29006,-16.2199 -35.63006,2.5 -17.41004,-36.0098 -59.83011,15.8499 -85.68016,-3.4 9.70002,-10.5499 -59.3201,-39.1798 -69.13012,-45.8997 -8.10001,-5.5 -17.15003,-4.3 -26.33004,-4.6 -10.05002,0 -17.54003,-7.0999 -27.20005,-7.4999 -13.49002,-1 -24.55004,5.1999 -38.86007,2.9999 -15.35003,-2.2999 -30.91005,-6.7999 -45.09008,-13.1299 -17.75003,-7.8999 -107.92019,-44.5297 -106.07019,-4.2 -39.48006,-19.7598 -64.53011,-59.3196 -103.24018,-80.7694 -16.91003,-9.4 -36.73006,-12.23 -53.29009,-21.3799 -15.24003,-8.4 -23.63004,-27.4398 -40.98007,-32.3098 12.14002,15.3499 -26.46005,5.1 -33.95006,-7.1 -15.05003,-24.7698 -39.79007,-21.8798 -63.50007,-32.3597 3.8,-9.4 14.21,-9.8 21.79999,-14.31 -7.09999,0 -12.03999,-4.6999 -12.61999,-11.7799 -2.9,1.7 -5.7,3.7 -8.4,5.9 6.3,-22.5699 36.09002,-1 45.41004,7.5999 -19.58004,-12.0899 30.13005,-7.0999 36.99006,-4.9999 4.60001,-9 -2.2,-16.5899 -3.4,-25.2099 -5.50001,20.4999 -10.03002,-2.8 -9.20002,-8.3999 17.17003,10.7699 18.13003,-33.7598 28.58005,-40.3498 1.1,5.6 2.2,11.22 3.40001,16.8099 4.4,-5.5999 3.1,-22.1998 10.06001,-25.2198 8.10002,-3.5 17.49004,10.6399 26.01005,10.0799 2.80001,-10.6099 -23.53004,-25.4998 -30.43005,-29.6798 -17.57003,-10.5899 -30.85006,-6.5999 -38.42007,-30.8298 10.32002,4.2 18.31003,1 28.18005,-2.3 10.93002,-3.3 18.97003,3.1 29.71005,2.3 4.10001,-16.5599 -22.62004,-16.9299 12.62002,-21.6699 17.60003,-2.2999 38.66007,-14.2099 50.41009,-24.5498 -15.30003,4.7 -6.30001,-16.8599 -25.56004,-13.4899 -15.27003,2.7 -29.93006,13.6199 -45.88008,11.7999 3.9,-8.4999 13.12002,-12.2299 21.96003,-11.7499 -10.90001,-1 -16.80002,6.1999 -25.90004,10.3199 -12.49002,5.6 -23.29004,-3.9 -11.12002,-14.5299 -18.75003,-3.7 -1,-30.7398 13.87002,-35.0298 7.50002,-2.2 10.74002,-6.7999 14.44003,-13.3599 7.40001,-13.0699 20.32004,-4 31.36005,-6.1999 12.57003,-2.5 26.40005,2.5999 39.18007,1.4999 12.15002,-1.0999 20.96004,-35.4197 18.79004,-46.0297 -4.30001,1.2 -8.30002,0 -11.78002,-2.4999 16.49002,-12.01 -15.53003,-22.8799 -17.46003,-27.1699 -5.60001,-12.5999 11.67002,-22.0398 21.67003,-19.0499 -1.7,-17.8598 -13.76002,0 -21.43003,-13.0199 -6.00002,-10.2399 1.2,-10.6099 8.80001,-13.7299 29.71005,-12.0399 -2,-39.9297 10.95002,-52.2597 -8.50001,-4.0999 -9.40002,2.9 -16.80003,3.4 -10.80002,1 -22.44004,-3.8 -29.45005,-12.1699 -10.00002,-11.8799 -23.97004,-1.4 -32.75006,-18.9099 -10.22002,11.9599 -43.24007,-1.9 -55.5701,-8.2999 -23.76004,-12.4299 -14.84002,-4.6 -34.47006,6.5999 -5.30001,-12.6199 -19.58003,-13.0099 -27.99003,-22.3498 -7.6,-8.5 -14.35,-27.9998 -27.4701,-29.3498 -22.78,-2.3 -41.11,19.6398 -61.2801,20.5898 -1,0.02 -22.33,-9.7999 -24.02,-10.6599 -11.88,-6.3 -20.6601,-15.9099 -34.9301,-8 -15.66,8.7 -27.06,0 -33.23,-15.6899 -3.7,-9.5999 -18.6001,-37.0697 -13.6801,-46.2997 -16.51,1 -23.41,-22.3598 -40.79,-13.7099 -11.01,5.5 -38.9001,-3.5999 -50.0401,-7.2999 13.07,-7.7 -14.66,-32.8598 -12.33,-37.2498 4.7,-8.9999 15.75,-6 23.18,-10.6399 -5.4,-12.1699 -23.71,-14.0199 -29.2901,-26.2499 -5.2,-11.3999 -17.41,-36.4297 -34.53,-29.2098 -16.24,6.8 -29.4701,-6.6999 -48.2601,1 -20.58,8.3 -32.0901,1 -53.4401,-1 1.4,19.8999 -14.11,30.4798 -32.55,24.2399 -22.8301,-7.7 -28.9401,-31.4298 -32.9101,-52.8097 -2.6,-14.2599 1.1,-14.2599 -11.09,-24.2098 -6.2,-5 -22.0901,-16.6399 -11.96,-25.0299 21.25,-17.5199 38.18,4.7 59.7701,2.8 7.7,-1 44.51,-21.2999 42.65,-27.8598 -2.7,-9.6 -17.3,-14.9499 -24.65,-20.2199 -11.49,-8.1999 7.1,-10.2899 -14.45,-15.6299 -12.5401,-3.1 -16.3001,-4.6 -29.0501,-1.9 -17.99,3.8 -5.2,-11.5899 -7,-19.0999 -3,-12.6199 -18.47,-11.5099 -27.81,-15.9799 -12.7001,-6.0999 -20.8501,-18.5198 -27.7801,-30.2398 -6.7,-11.3499 -44.0801,-37.3097 -29.1,-47.3097 8.6,-5.7999 2.7,-17.4899 -1.6,-23.7898 -8.5001,-12.6999 -2.8001,-18.7599 -3.8001,-31.7998 -1,-6.3 -47.71,-27.0098 -55.3001,-29.3398 -12.3,-3.7 -59.0001,24.4198 -62.1801,5.6999 -1.3,-7.5999 3.8,-13.5699 -5.3,-17.7499 -8.5,-3.9999 -19.81,-3.4999 -28.81,-1.5999 -19.1801,4.1999 -28.0201,-13.99 -46.5901,-6 -10.77,4.6 -14.56,-32.5198 -17.76,-38.0998 -8.4,-14.6799 -23.4701,-40.0597 -42.0101,-37.8097 9.4,-12.2999 14.65,-40.2698 -1.5,-47.4097 -37.1501,-16.4599 -23.5201,-28.6598 1.5,-48.3897 -9.6,-1.3 -16.12,-19.7399 -24.1601,-26.5698 -6.6,-5.6 -4.1,-12.83 -2.7,-20.0299 2.4,-12.5099 -8.6,-23.1999 -9,-35.6598 0,-12.4699 15.2701,-17.1799 20.3801,-27.3398 7.1,-14.1999 5.4,-27.6698 25.47,-27.4098 -2.2,-6.4 -8.4,-9.5 -14.23,-11.77 5.9,-7.8999 -1,-11.5399 -2.2,-19.2099 -2.9,-16.2398 12.65,0.08 20.9,0.03 4.9,-0.03 5.8,-5.4999 7.6,-8.9999 5.9,-11.8299 17.1701,1 26.0101,0 15.48,-1.1 18.68,-21.3499 36.06,-20.8499 20.0001,1 38.6601,13.05 58.1801,13.05 17.9401,0 -22.46,-21.4899 -23.36,-22.1199 -19.74,-13.5199 -36.9101,0 -56.9401,-6.8 -14.05,-4.9999 -38.5701,-23.7598 -48.6601,-34.9497 5.8,3.2999 11.65,6.3999 17.63,9.2999 -2.2,-6.4 -7.6,-16.9399 1,-21.8599 -6.2,-6.5999 -19.29,1.9 -24.61,5.4 -14.1,9.2999 -22.7,8.9999 -39.2101,8.8999 29.1101,-30.9598 69.4602,-48.4196 101.9202,-75.4295 33.5801,-27.9698 61.2801,-61.8396 96.0702,-88.1294 16.11,-12.2299 20.98,-24.5599 28.89,-42.4697 6.8,-15.3699 1,-17.9899 -13.23,-26.4099 -33.65,-20.1799 -68.1001,-39.0697 -102.7302,-58.3396 13.2801,-6.7 55.7401,-33.0398 27.2201,-47.3297 -12.88,-6.5 -58.6001,-23.0199 -26.3001,-37.5698 -6.1,-12.3299 -17.96,-6.9999 -28.41,-10.4299 -15.88,-5.1 -19.2401,-25.1598 -1,-29.0698 -2.7,-6 -20.4301,-8.3 -15.53,-16.4899 5.2,-8.7 10.9,-25.6899 0,-28.9198 8.7,-1.6 17.12,-4.6 26.01,-5.1 -14.5,-42.4897 -53.5001,-63.4696 -79.8201,-96.3894 -27.2301,-34.0498 60.5601,-52.9097 39.95,-77.1795 -9.3,-10.9499 -31.35,-20.2599 -43.47,-28.5398 -15.4501,-10.56 -34.7401,-10.96 -50.3801,-21.1999 -16.1401,-10.5799 -18.3901,-23.1798 -4.9,-35.9298 15.51,-14.2299 -9.5001,-15.5799 -18.6501,-16.7699 z"
       id="path2924"
       inkscape:connector-curvature="0"
       style="fill:#ffffff;stroke-width:26.45827293" />
  </g>
</svg>
