<?xml version="1.0" encoding="UTF-8" standalone="no"?>
<!-- Created with Inkscape (http://www.inkscape.org/) -->

<svg
   xmlns:dc="http://purl.org/dc/elements/1.1/"
   xmlns:cc="http://creativecommons.org/ns#"
   xmlns:rdf="http://www.w3.org/1999/02/22-rdf-syntax-ns#"
   xmlns:svg="http://www.w3.org/2000/svg"
   xmlns="http://www.w3.org/2000/svg"
   xmlns:sodipodi="http://sodipodi.sourceforge.net/DTD/sodipodi-0.dtd"
   xmlns:inkscape="http://www.inkscape.org/namespaces/inkscape"
   width="535.90002mm"
   height="441.60001mm"
   viewBox="0 0 535.90005 441.59986"
   version="1.1"
   id="svg7070"
   inkscape:version="0.92.4 (5da689c313, 2019-01-14)"
   sodipodi:docname="senegal.svg">
  <defs
     id="defs7064" />
  <sodipodi:namedview
     id="base"
     pagecolor="#ffffff"
     bordercolor="#666666"
     borderopacity="1.0"
     inkscape:pageopacity="0.0"
     inkscape:pageshadow="2"
     inkscape:zoom="7.9195959"
     inkscape:cx="-15.383022"
     inkscape:cy="-4.153254"
     inkscape:document-units="mm"
     inkscape:current-layer="layer1"
     showgrid="false"
     inkscape:window-width="958"
     inkscape:window-height="1008"
     inkscape:window-x="-7"
     inkscape:window-y="0"
     inkscape:window-maximized="0" />
  <metadata
     id="metadata7067">
    <rdf:RDF>
      <cc:Work
         rdf:about="">
        <dc:format>image/svg+xml</dc:format>
        <dc:type
           rdf:resource="http://purl.org/dc/dcmitype/StillImage" />
        <dc:title />
      </cc:Work>
    </rdf:RDF>
  </metadata>
  <g
     inkscape:label="Layer 1"
     inkscape:groupmode="layer"
     id="layer1"
     transform="translate(-161.51073,400.45356)">
    <path
       style="fill:#ffffff;stroke-width:26.45840836"
       inkscape:connector-curvature="0"
       id="sn"
       d="m 174.98444,-202.77391 c -5.13029,-0.12999 -9.60054,1.56093 -13.41475,5.02675 -1.48008,-14.33968 25.32241,-18.81096 33.60387,-27.06554 18.046,-18.0172 32.54581,-42.22539 43.1294,-65.21654 5.05028,-11.00605 29.47664,-116.0404 55.14207,-91.93811 11.53664,10.84736 72.92406,-0.0529 82.7406,-11.53522 15.16085,-17.67332 74.77516,2.16989 87.34386,17.19704 16.98695,20.29258 19.10307,28.49417 46.93962,31.35153 15.13484,1.56092 31.96277,31.16644 28.7616,45.79711 -1.48009,6.77266 20.55914,18.73157 24.44836,25.90141 4.87027,8.96855 7.2204,19.36653 14.28879,27.01265 6.91039,7.48762 20.92917,8.41358 25.48042,17.64681 6.67037,13.49303 26.9365,20.98036 28.7886,36.72237 0.80005,7.06365 -10.8226,15.31853 -2.73015,22.56777 6.69037,6.0057 11.48364,9.89451 12.48869,20.21319 1.11007,10.90026 10.61059,37.30434 1.7501,45.53253 -9.23051,2.0109 -10.05456,6.50867 -2.46014,13.466622 1.85011,5.132744 4.81027,9.471527 8.8605,12.937454 8.02044,4.497775 0.20001,13.228539 11.51064,16.429779 6.08034,-23.864208 25.2684,17.567422 28.57659,24.102395 4.97028,9.789511 7.67043,17.144143 4.89027,28.4676772 -3.15017,12.8316586 5.4003,29.3144348 1.00006,39.8443088 -14.52681,-6.243688 -30.32269,3.544823 -45.69655,0.849957 -16.00789,-2.777861 -25.11039,8.995551 -40.35124,8.59857 -15.45186,-0.369981 -40.27124,-25.927904 -53.26297,-16.747262 -9.90055,7.063646 -6.80037,-11.482327 -8.60047,-12.858158 -10.7696,-8.4135793 -29.47664,-7.0106494 -42.23035,-6.9056547 -41.43531,0.339983 -83.32164,1.8259088 -124.70494,-0.239988 -19.28908,-0.979951 -27.51754,3.121844 -43.20841,13.0168497 -15.95589,10.080096 -31.24974,9.127544 -49.24174,8.466577 -16.43191,-0.60997 -26.64548,7.540623 -42.01834,10.027198 -7.67042,1.21694 -17.06695,0.319984 -23.84032,5.00075 -1.56009,-3.809809 -9.60054,-12.064397 -5.4003,-16.694365 10.58458,-11.588221 16.61692,-17.3558327 30.6147,-8.466577 10.55759,6.693665 23.70732,-3.730814 34.92694,-3.915804 8.23046,-0.189991 12.30369,6.137693 20.69115,3.492825 6.51037,-2.063897 9.55054,-0.659967 15.58487,1.269937 10.7166,3.518824 9.95056,-23.5468234 22.06723,-27.753413 -18.019,1.2959351 -7.57042,16.562072 -18.57403,24.366882 -9.45053,6.719664 -34.71594,-2.248888 -37.81111,-13.4401283 -6.56036,28.2030903 -62.8425,7.6726165 -50.4328,-6.7466628 -5.2603,7.59362047 -4.89028,20.2660871 -15.87589,22.7000651 -1.8801,-6.9316532 0.053,-12.5405729 5.85033,-16.80016 -15.00184,3.280836 -6.67037,-19.260737 -3.36019,-29.287936 4.95028,-15.027549 17.01395,-14.868857 30.42869,-13.889906 10.95461,0.769962 22.12023,1.084946 33.10185,1.110945 23.28429,0.129993 12.19767,-4.021799 25.40141,-16.800161 11.77465,-11.376531 27.80855,-2.830858 41.25029,-6.640668 14.92384,-4.232788 7.43042,-25.795611 26.77749,-12.752362 28.7356,19.340133 55.88311,28.679466 88.71994,20.848158 13.17674,-3.147843 22.99328,-7.725614 10.23957,-20.266088 -14.65881,-14.445478 -24.76638,3.597821 -40.21924,2.936854 -15.61087,-0.629969 -11.56264,-24.023 -29.47564,-16.879557 -6.77037,2.698865 -12.5687,-6.931653 -15.21484,-11.244233 -5.16029,-8.43958 -18.99806,-6.0847 -26.53848,-3.65082 -12.01267,3.9158 -20.82416,-2.53988 -28.39158,11.138441 -5.98033,10.741563 -10.98061,10.450478 -23.73432,10.926754 -24.68737,0.949952 -49.18874,-2.116894 -73.82311,-2.116894 3.5402,-7.196641 2.83016,-12.514171 -5.95033,-13.440131 1.43008,-6.98465 5.93033,-9.78951 12.5947,-6.71966 -1.56009,-7.16964 -1.01006,-14.18099 1.64009,-21.03335 -5.08028,9.63052 -11.32463,16.82666 -22.64926,18.49348 -3.04017,-9.36554 24.18435,-33.36234 33.63087,-34.47348 -10.29357,-4.33878 -37.89111,20.53057 -37.8111,30.26679 0.053,-27.51533 -16.88194,-77.54553 -46.19957,-88.2077 z" />
  </g>
</svg>
