<?xml version="1.0" encoding="UTF-8" standalone="no"?>
<!-- Created with Inkscape (http://www.inkscape.org/) -->

<svg
   xmlns:dc="http://purl.org/dc/elements/1.1/"
   xmlns:cc="http://creativecommons.org/ns#"
   xmlns:rdf="http://www.w3.org/1999/02/22-rdf-syntax-ns#"
   xmlns:svg="http://www.w3.org/2000/svg"
   xmlns="http://www.w3.org/2000/svg"
   xmlns:sodipodi="http://sodipodi.sourceforge.net/DTD/sodipodi-0.dtd"
   xmlns:inkscape="http://www.inkscape.org/namespaces/inkscape"
   width="431.89999mm"
   height="180.7mm"
   viewBox="0 0 431.89997 180.70002"
   version="1.1"
   id="svg7070"
   inkscape:version="0.92.4 (5da689c313, 2019-01-14)"
   sodipodi:docname="slovakia.svg">
  <defs
     id="defs7064" />
  <sodipodi:namedview
     id="base"
     pagecolor="#ffffff"
     bordercolor="#666666"
     borderopacity="1.0"
     inkscape:pageopacity="0.0"
     inkscape:pageshadow="2"
     inkscape:zoom="7.9195959"
     inkscape:cx="-28.567694"
     inkscape:cy="-7.5799384"
     inkscape:document-units="mm"
     inkscape:current-layer="layer1"
     showgrid="false"
     inkscape:window-width="958"
     inkscape:window-height="1008"
     inkscape:window-x="-7"
     inkscape:window-y="0"
     inkscape:window-maximized="0" />
  <metadata
     id="metadata7067">
    <rdf:RDF>
      <cc:Work
         rdf:about="">
        <dc:format>image/svg+xml</dc:format>
        <dc:type
           rdf:resource="http://purl.org/dc/dcmitype/StillImage" />
        <dc:title />
      </cc:Work>
    </rdf:RDF>
  </metadata>
  <g
     inkscape:label="Layer 1"
     inkscape:groupmode="layer"
     id="layer1"
     transform="translate(-166.1885,133.34226)">
    <path
       inkscape:connector-curvature="0"
       style="fill:#ffffff;stroke-width:26.45737839"
       d="m 166.1885,-39.950887 c 9.18025,-23.704231 20.61157,-19.497851 42.38718,-19.735927 8.39023,-0.109989 43.76321,-17.566545 44.74224,-25.31807 3.6001,-29.709736 74.13905,-52.488056 67.54987,-30.609246 9.21026,-1.26987 31.43387,-23.43975 39.4771,-16.32316 5.00013,4.41855 7.3802,11.0056 13.62637,14.39186 4.10012,0.39996 7.83022,1.69283 11.27232,3.88861 -0.90003,3.30667 -0.20001,6.29637 2.04005,8.9681 13.89039,10.158988 19.23554,5.502453 34.42296,-5.66143 5.21014,-3.83562 28.9988,-11.21718 35.03197,-5.82042 18.0455,16.243777 30.34884,-5.31747 51.46243,-3.0427 23.81366,2.56575 38.89508,10.79393 58.97763,22.937012 18.65352,11.243677 40.72013,4.523548 26.22073,29.445258 -8.04022,13.836317 -17.38348,26.958306 -20.02955,42.461356 -5.26015,31.1383885 -51.67444,-11.031997 -60.67069,-9.815019 -7.1702,0.949905 -4.66013,6.746326 -12.75335,5.158485 -9.71027,-1.878813 -19.28854,-4.497551 -29.10481,-5.846416 -23.17764,-3.148685 -32.91491,0.689931 -35.24298,22.91071 -1.56004,14.8416171 -33.39192,20.8735143 -46.27728,15.1590854 -22.04061,-9.7360271 -24.42168,1.5078493 -37.01603,11.7198286 -9.68027,7.884212 -61.04069,2.513749 -33.97394,24.074694 -18.41551,2.248776 -37.06903,12.751626 -55.85455,6.296371 -9.63027,-3.30667 -19.28853,2.512749 -29.0258,0 -8.68024,-2.221778 -18.23051,-9.841017 -26.43274,-13.915709 -12.54135,-6.190382 -28.54879,-16.799321 -35.40198,-29.4451577 -2.91008,-5.3704633 -0.1,-12.1166893 -1.98005,-17.9105103 -3.4401,-10.793921 -1.43004,-14.153785 -3.4401,-23.968905 z"
       id="sk" />
  </g>
</svg>
