<?xml version="1.0" encoding="UTF-8" standalone="no"?>
<!-- Created with Inkscape (http://www.inkscape.org/) -->

<svg
   xmlns:dc="http://purl.org/dc/elements/1.1/"
   xmlns:cc="http://creativecommons.org/ns#"
   xmlns:rdf="http://www.w3.org/1999/02/22-rdf-syntax-ns#"
   xmlns:svg="http://www.w3.org/2000/svg"
   xmlns="http://www.w3.org/2000/svg"
   xmlns:sodipodi="http://sodipodi.sourceforge.net/DTD/sodipodi-0.dtd"
   xmlns:inkscape="http://www.inkscape.org/namespaces/inkscape"
   width="253.8mm"
   height="143.3mm"
   viewBox="0 0 253.79999 143.30002"
   version="1.1"
   id="svg7070"
   inkscape:version="0.92.4 (5da689c313, 2019-01-14)"
   sodipodi:docname="slovenia.svg">
  <defs
     id="defs7064" />
  <sodipodi:namedview
     id="base"
     pagecolor="#ffffff"
     bordercolor="#666666"
     borderopacity="1.0"
     inkscape:pageopacity="0.0"
     inkscape:pageshadow="2"
     inkscape:zoom="7.9195959"
     inkscape:cx="-2.6989466"
     inkscape:cy="-19.374535"
     inkscape:document-units="mm"
     inkscape:current-layer="layer1"
     showgrid="false"
     inkscape:window-width="958"
     inkscape:window-height="1008"
     inkscape:window-x="-7"
     inkscape:window-y="0"
     inkscape:window-maximized="0" />
  <metadata
     id="metadata7067">
    <rdf:RDF>
      <cc:Work
         rdf:about="">
        <dc:format>image/svg+xml</dc:format>
        <dc:type
           rdf:resource="http://purl.org/dc/dcmitype/StillImage" />
        <dc:title />
      </cc:Work>
    </rdf:RDF>
  </metadata>
  <g
     inkscape:label="Layer 1"
     inkscape:groupmode="layer"
     id="layer1"
     transform="translate(-159.34406,99.062919)">
    <path
       inkscape:connector-curvature="0"
       style="fill:#ffffff;stroke-width:26.46088791"
       d="m 167.73056,-17.29269 c 5.04971,-3.254821 9.52944,-7.171809 13.44021,-11.750464 -7.90953,-1.746441 -14.86812,-6.166555 -21.82671,-10.083243 17.64696,-19.213547 9.28945,-30.911097 31.13916,-25.671076 8.19952,1.984501 57.09463,19.213647 64.10521,12.994378 13.94318,-12.385624 26.37744,-26.015162 46.53725,-24.771248 10.63537,0.660166 23.54661,5.928495 33.57402,-0.190048 10.29139,-6.272582 22.64666,-6.801716 33.15004,-0.190048 -8.99947,-11.300551 4.9997,-29.058631 17.24998,-19.26656 9.44944,7.595916 20.97976,27.497136 28.04434,37.765526 -9.41944,-1.429361 -40.05563,-10.162563 -23.46761,9.23633 -9.33945,-0.340086 -14.55114,-6.536649 -18.43991,4.287081 -2.16987,6.033522 -25.3985,11.512204 -32.30409,15.667252 -5.33969,3.228815 4.46973,19.18714 4.01976,26.0679755 -0.59997,10.7448103 -25.71648,11.5652172 -35.68989,20.3781405 4.06976,1.34934 7.58955,4.949248 11.7723,5.875482 -7.48956,1.535387 -2.05988,28.476383 -16.48202,19.26656 -16.58802,-10.612477 -32.54208,-5.742449 -48.31015,-20.933881 -5.31968,12.888451 -23.86359,23.924435 -38.07175,17.572833 -5.84965,-2.619661 -5.68966,-2.778701 -10.34439,1.773447 -7.00958,6.960756 -21.66772,1.005254 -29.65824,-0.850214 8.83947,-7.780963 26.9864,-10.718304 20.2138,-22.680521 -5.36968,-9.4743902 -29.71124,-6.986763 -17.62096,-22.6805213 -6.10964,-1.4553671 -10.00041,-5.7164417 -11.03235,-11.8297837 z"
       id="si" />
  </g>
</svg>
