<?xml version="1.0" encoding="UTF-8" standalone="no"?>
<!-- Created with Inkscape (http://www.inkscape.org/) -->

<svg
   xmlns:dc="http://purl.org/dc/elements/1.1/"
   xmlns:cc="http://creativecommons.org/ns#"
   xmlns:rdf="http://www.w3.org/1999/02/22-rdf-syntax-ns#"
   xmlns:svg="http://www.w3.org/2000/svg"
   xmlns="http://www.w3.org/2000/svg"
   xmlns:sodipodi="http://sodipodi.sourceforge.net/DTD/sodipodi-0.dtd"
   xmlns:inkscape="http://www.inkscape.org/namespaces/inkscape"
   width="880.90002mm"
   height="527.70001mm"
   viewBox="0 0 880.89981 527.70007"
   version="1.1"
   id="svg7070"
   inkscape:version="0.92.4 (5da689c313, 2019-01-14)"
   sodipodi:docname="solomon_island.svg">
  <defs
     id="defs7064" />
  <sodipodi:namedview
     id="base"
     pagecolor="#ffffff"
     bordercolor="#666666"
     borderopacity="1.0"
     inkscape:pageopacity="0.0"
     inkscape:pageshadow="2"
     inkscape:zoom="5.6"
     inkscape:cx="-14.083981"
     inkscape:cy="18.65606"
     inkscape:document-units="mm"
     inkscape:current-layer="layer1"
     showgrid="false"
     inkscape:window-width="958"
     inkscape:window-height="1008"
     inkscape:window-x="-7"
     inkscape:window-y="0"
     inkscape:window-maximized="0" />
  <metadata
     id="metadata7067">
    <rdf:RDF>
      <cc:Work
         rdf:about="">
        <dc:format>image/svg+xml</dc:format>
        <dc:type
           rdf:resource="http://purl.org/dc/dcmitype/StillImage" />
        <dc:title />
      </cc:Work>
    </rdf:RDF>
  </metadata>
  <g
     inkscape:label="Layer 1"
     inkscape:groupmode="layer"
     id="layer1"
     transform="translate(-179.30792,497.15153)">
    <g
       transform="matrix(26.458666,0,0,26.459085,-20692.996,-13289.881)"
       id="sb"
       style="fill:#ffffff">
      <path
         style="fill:#ffffff"
         inkscape:connector-curvature="0"
         id="path4726"
         d="m 789.443,488.603 c 0.014,-0.238 0.473,-0.607 0.309,-0.822 -0.077,-0.1 -0.405,-0.613 -0.534,-0.607 -0.733,0.025 -0.094,1.228 0.225,1.429 z" />
      <path
         style="fill:#ffffff"
         inkscape:connector-curvature="0"
         id="path4728"
         d="m 788.995,489.585 c 0.091,-0.332 0.128,-0.707 -0.128,-0.984 0,0.334 -0.031,0.676 0.128,0.984 z" />
      <path
         style="fill:#ffffff"
         inkscape:connector-curvature="0"
         id="path4730"
         d="m 790.172,485.427 c 0.39,0.631 1.384,1.389 2.161,1.016 -0.24,-0.283 -0.611,-0.383 -0.848,-0.67 -0.304,-0.367 -0.291,-0.875 -0.64,-1.221 -0.47,-0.467 -1.131,-0.834 -1.751,-1.061 -0.369,0.665 0.827,1.425 1.078,1.936 z" />
      <path
         style="fill:#ffffff"
         inkscape:connector-curvature="0"
         id="path4732"
         d="m 790.872,489.367 c 0.243,-0.229 0.331,-1.082 -0.142,-1.119 -0.77,-0.061 -0.467,1.085 0.142,1.119 z" />
      <path
         style="fill:#ffffff"
         inkscape:connector-curvature="0"
         id="path4734"
         d="m 791.441,491.589 c -0.332,-0.443 0.323,-0.768 0.065,-1.209 -0.617,0.442 -0.47,0.67 -0.065,1.209 z" />
      <path
         style="fill:#ffffff"
         inkscape:connector-curvature="0"
         id="path4736"
         d="m 792.87,490.986 c 0.382,0.135 0.438,-0.229 0.382,-0.508 -0.107,-0.533 -0.551,-0.697 -0.822,-1.111 -0.149,-0.227 -0.099,-0.979 -0.611,-0.545 -0.27,0.229 -0.827,0.756 -0.757,1.15 0.418,0.109 0.853,-0.34 1.173,0.1 0.051,0.111 0.048,0.221 -0.008,0.328 -0.034,0.236 0.494,0.502 0.643,0.586 z" />
      <path
         style="fill:#ffffff"
         inkscape:connector-curvature="0"
         id="path4738"
         d="m 792.204,491.841 c 0.077,-0.312 -0.028,-0.354 -0.317,-0.123 0.105,0.041 0.211,0.082 0.317,0.123 z" />
      <path
         style="fill:#ffffff"
         inkscape:connector-curvature="0"
         id="path4740"
         d="m 792.556,486.728 c 0.081,-0.307 -0.025,-0.359 -0.322,-0.158 0.107,0.053 0.214,0.105 0.322,0.158 z" />
      <path
         style="fill:#ffffff"
         inkscape:connector-curvature="0"
         id="path4742"
         d="m 792.998,486.794 c 0.323,0.061 0.323,-0.047 0,-0.322 0,0.108 0,0.213 0,0.322 z" />
      <path
         style="fill:#ffffff"
         inkscape:connector-curvature="0"
         id="path4744"
         d="m 793.474,491.75 c 0.559,-0.166 0.215,-0.551 0.318,-0.953 -0.62,-0.131 -0.814,0.654 -0.318,0.953 z" />
      <path
         style="fill:#ffffff"
         inkscape:connector-curvature="0"
         id="path4748"
         d="m 795.319,487.109 c -0.146,-0.127 -0.036,-0.24 -0.318,-0.156 0.106,0.052 0.212,0.103 0.318,0.156 z" />
      <path
         style="fill:#ffffff"
         inkscape:connector-curvature="0"
         id="path4750"
         d="m 795.668,487.492 c -0.13,-0.266 -0.402,-0.377 -0.667,-0.221 0.227,0.059 0.449,0.133 0.667,0.221 z" />
      <path
         style="fill:#ffffff"
         inkscape:connector-curvature="0"
         id="path4752"
         d="m 797.445,489.238 c 0.621,0.639 1.561,0.924 2.224,1.557 0.334,-0.803 -0.776,-1.967 -1.521,-2.109 -0.496,-0.094 -1.019,-0.668 -1.382,-0.992 -0.196,-0.176 -0.302,-0.391 -0.562,-0.488 -0.254,-0.092 -0.506,-0.031 -0.727,-0.223 0.347,0.876 1.025,1.942 1.968,2.255 z" />
      <path
         style="fill:#ffffff"
         inkscape:connector-curvature="0"
         id="path4754"
         d="m 797.065,493.05 c 0.193,-0.092 0.283,-0.137 0.256,-0.379 -0.338,-0.045 -0.423,0.08 -0.256,0.379 z" />
      <path
         style="fill:#ffffff"
         inkscape:connector-curvature="0"
         id="path4756"
         d="m 799.826,495.751 c 0.578,0.08 0.958,-0.072 1.507,0.209 0.313,0.158 0.98,0.385 1.13,-0.119 0.178,-0.604 -0.848,-1.551 -1.398,-1.607 -0.549,-0.055 -1.257,0.26 -1.628,-0.283 -0.242,-0.352 -0.553,-0.486 -0.834,-0.039 -0.431,0.687 0.599,1.699 1.223,1.839 z" />
      <path
         style="fill:#ffffff"
         inkscape:connector-curvature="0"
         id="path4758"
         d="m 799.229,490.886 c -0.084,-0.203 -0.117,-0.414 -0.098,-0.635 -0.585,0 -0.236,0.5 0.098,0.635 z" />
      <path
         style="fill:#ffffff"
         inkscape:connector-curvature="0"
         id="path4760"
         d="m 799.002,502.421 c 0.217,0.105 0.697,0.141 0.824,0.221 0.33,0.205 0.313,0.697 0.732,0.793 0.447,-0.602 -1.686,-1.721 -1.556,-1.014 z" />
      <path
         style="fill:#ffffff"
         inkscape:connector-curvature="0"
         id="path4764"
         d="m 800.975,493.113 c 0.153,-0.287 -0.029,-0.551 -0.354,-0.508 -0.048,0.26 0.095,0.461 0.354,0.508 z" />
      <path
         style="fill:#ffffff"
         inkscape:connector-curvature="0"
         id="path4766"
         d="m 800.878,493.367 c 0.184,-0.111 0.375,-0.207 0.574,-0.287 -0.264,-0.098 -0.487,0.027 -0.574,0.287 z" />
      <path
         style="fill:#ffffff"
         inkscape:connector-curvature="0"
         id="path4768"
         d="m 802.973,493.177 c 0.647,0.475 0.968,1.227 1.496,1.809 0.193,-0.383 -0.164,-1.82 -0.349,-2.227 -0.11,-0.242 -0.375,-0.734 -0.618,-0.863 -0.376,-0.197 0.257,-0.549 0.08,-0.805 -0.197,-0.283 -0.267,-0.752 -0.563,-0.957 -0.14,-0.098 -0.761,-0.338 -0.624,0.135 0.262,0.916 0.132,2.02 0.578,2.908 z" />
      <path
         style="fill:#ffffff"
         inkscape:connector-curvature="0"
         id="path4770"
         d="m 805.544,499.306 c 0.545,0.186 1.129,0.184 1.686,0.318 -0.336,-1.057 -0.619,-1.166 -1.491,-1.627 -0.285,-0.152 -1.628,-1.127 -1.813,-0.469 0.235,0.127 0.48,0.201 0.58,0.469 0.229,0.628 0.534,0.893 1.038,1.309 z" />
      <path
         style="fill:#ffffff"
         inkscape:connector-curvature="0"
         id="path4772"
         d="m 805.036,495.652 c 0.208,-0.533 -0.069,-1.113 -0.445,-1.492 0.029,0.299 0.022,0.598 -0.022,0.895 -0.02,0.218 0.409,0.382 0.467,0.597 z" />
      <path
         style="fill:#ffffff"
         inkscape:connector-curvature="0"
         id="path4774"
         d="m 819.079,499.751 c 0.249,-0.332 0.95,-0.211 0.948,-0.732 -0.503,-0.139 -1.024,0.031 -1.271,0.512 0.109,0.072 0.217,0.146 0.323,0.22 z" />
      <path
         style="fill:#ffffff"
         inkscape:connector-curvature="0"
         id="path4778"
         d="m 821.871,502.898 c 0.096,-0.043 0.191,-0.086 0.287,-0.129 -0.105,-0.264 -0.33,-0.375 -0.573,-0.189 0.083,0.117 0.179,0.222 0.286,0.318 z" />
    </g>
  </g>
</svg>
