<?xml version="1.0" encoding="UTF-8" standalone="no"?>
<!-- Created with Inkscape (http://www.inkscape.org/) -->

<svg
   xmlns:dc="http://purl.org/dc/elements/1.1/"
   xmlns:cc="http://creativecommons.org/ns#"
   xmlns:rdf="http://www.w3.org/1999/02/22-rdf-syntax-ns#"
   xmlns:svg="http://www.w3.org/2000/svg"
   xmlns="http://www.w3.org/2000/svg"
   xmlns:sodipodi="http://sodipodi.sourceforge.net/DTD/sodipodi-0.dtd"
   xmlns:inkscape="http://www.inkscape.org/namespaces/inkscape"
   width="913.10004mm"
   height="1378mm"
   viewBox="0 0 913.10005 1377.9998"
   version="1.1"
   id="svg7070"
   inkscape:version="0.92.4 (5da689c313, 2019-01-14)"
   sodipodi:docname="somalia.svg">
  <defs
     id="defs7064" />
  <sodipodi:namedview
     id="base"
     pagecolor="#ffffff"
     bordercolor="#666666"
     borderopacity="1.0"
     inkscape:pageopacity="0.0"
     inkscape:pageshadow="2"
     inkscape:zoom="7.9195959"
     inkscape:cx="8.2458295"
     inkscape:cy="11.863832"
     inkscape:document-units="mm"
     inkscape:current-layer="layer1"
     showgrid="false"
     inkscape:window-width="958"
     inkscape:window-height="1008"
     inkscape:window-x="-7"
     inkscape:window-y="0"
     inkscape:window-maximized="0" />
  <metadata
     id="metadata7067">
    <rdf:RDF>
      <cc:Work
         rdf:about="">
        <dc:format>image/svg+xml</dc:format>
        <dc:type
           rdf:resource="http://purl.org/dc/dcmitype/StillImage" />
        <dc:title />
      </cc:Work>
    </rdf:RDF>
  </metadata>
  <g
     inkscape:label="Layer 1"
     inkscape:groupmode="layer"
     id="layer1"
     transform="translate(-156.44825,1328.0441)">
    <path
       inkscape:connector-curvature="0"
       style="fill:#ffffff;stroke-width:26.45770454"
       d="m 157.70512,-353.49897 c 0,-16.37719 -4.22993,-39.13068 2.82996,-54.47601 6.76989,-14.68394 22.62163,-24.89652 31.88148,-38.07241 18.54769,-26.35168 32.51747,-74.61018 60.61501,-91.56935 25.63858,-15.50412 55.66809,-5.47683 78.07772,-29.55308 25.50559,-27.38355 49.63519,-45.26879 88.21057,-50.85132 28.83952,-4.17987 79.5857,16.37719 99.50837,-10.08028 25.39959,-33.60106 51.48716,-66.80522 78.18273,-99.42741 55.87909,-68.15448 114.77413,-135.59468 174.99314,-199.93937 -30.6125,0 -62.33498,5.15883 -92.44449,-2.53993 -34.10444,-8.73072 -66.67391,-25.21401 -99.64037,-37.46383 -33.97145,-12.6731 -67.7849,-25.7961 -101.70435,-38.65444 -31.40548,-11.8794 -58.94803,-20.1606 -83.05064,-44.3428 -8.03987,-8.0697 -10.63683,-12.3027 -21.80165,-15.2924 -11.37681,-2.9899 -15.82174,-20.6104 -21.13965,-29.9499 -8.99985,-15.8481 -14.97576,-28.6271 -27.75455,-42.5701 -15.23975,-16.6682 -33.12546,-38.046 -26.19357,-62.8102 7.58988,-27.1982 33.54845,-50.0311 44.13228,-76.8326 28.07154,15.6629 41.38032,51.9626 60.56201,76.1712 23.97061,30.2145 60.45602,38.575 97.52341,26.3781 14.15477,-4.6828 32.51747,-17.3296 44.66127,-26.2723 21.40465,-15.7951 27.43656,-13.1229 53.76213,-8.8107 27.19855,4.4979 39.44935,10.1861 64.87494,-5.6618 12.80579,-8.0168 42.25331,-37.8871 58.78904,-31.9871 18.2037,6.4558 30.7715,7.2488 50.35018,0.56 11.77381,-4.0479 22.96562,-10.0539 35.21542,-12.7525 14.04878,-3.1219 23.44162,2.9629 36.8024,4.2858 21.93365,2.196 38.70837,-10.7946 57.67806,-18.4938 19.76468,-8.0698 42.25331,-4.4979 62.17699,-14.6045 16.58873,-8.4398 18.2557,-30.1086 32.38447,-37.0141 13.67777,-6.7468 57.83607,4.9739 52.38617,24.6849 -7.0599,25.5579 -11.7738,41.1679 -7.0899,68.2339 3.2599,18.8907 8.1999,45.9303 -8.3099,60.4025 10.9798,4.1009 20.0557,1.561 17.6217,-10.0803 5.45,3.6249 11.3769,6.1379 17.7528,7.5408 -3.65,18.1233 -44.6873,-6.6938 -44.8463,25.0817 -0.1,25.9548 2.0599,52.5182 -5.1299,77.9967 -6.1599,21.6952 -19.2607,38.337 -31.53752,56.5926 -14.28777,21.29838 -12.64679,52.8622 -30.16251,73.31386 -6.82989,8.01675 -16.19173,10.02739 -20.92766,20.50456 -4.67992,10.45068 -0.59999,22.22431 -4.51992,33.28356 -8.93986,25.21402 -26.98756,45.2688 -39.52836,68.47197 -16.74772,30.90244 -18.0977,64.95318 -31.16749,96.88739 -13.25578,32.51629 -33.94545,61.16979 -52.99514,90.43178 -18.46769,28.36252 -30.71749,61.2227 -51.88415,87.73317 -23.49462,29.44718 -47.01523,58.76207 -70.95984,87.83887 -48.12722,58.39178 -97.07442,105.883 -160.86438,146.91862 -26.72256,17.19737 -53.28613,35.02971 -75.58977,57.889 -25.13559,25.7431 -53.86912,51.06301 -76.59575,78.81695 -22.48963,27.48934 -46.11624,54.26431 -68.34088,81.806552 -10.82183,13.49338 -20.29367,27.912731 -30.8235,41.538307 -6.50989,8.466736 -25.98158,38.971887 -29.44752,21.19244 0,28.89160085 -17.83271,57.20122 -35.26842,79.002141 1.39997,-22.938686 -22.75363,-47.385425 -35.93042,-63.762615 -19.47268,-24.287944 -13.86377,-41.591206 -14.15477,-71.197084 -0.79998,-89.558711 -1.15998,-178.985131 -1.15998,-268.490841 z"
       id="so" />
  </g>
</svg>
