<?xml version="1.0" encoding="UTF-8" standalone="no"?>
<!-- Created with Inkscape (http://www.inkscape.org/) -->

<svg
   xmlns:dc="http://purl.org/dc/elements/1.1/"
   xmlns:cc="http://creativecommons.org/ns#"
   xmlns:rdf="http://www.w3.org/1999/02/22-rdf-syntax-ns#"
   xmlns:svg="http://www.w3.org/2000/svg"
   xmlns="http://www.w3.org/2000/svg"
   xmlns:sodipodi="http://sodipodi.sourceforge.net/DTD/sodipodi-0.dtd"
   xmlns:inkscape="http://www.inkscape.org/namespaces/inkscape"
   width="1465.9mm"
   height="1462.7999mm"
   viewBox="0 0 1465.8999 1462.7999"
   version="1.1"
   id="svg2687"
   inkscape:version="0.92.4 (5da689c313, 2019-01-14)"
   sodipodi:docname="sudan.svg">
  <defs
     id="defs2681" />
  <sodipodi:namedview
     id="base"
     pagecolor="#ffffff"
     bordercolor="#666666"
     borderopacity="1.0"
     inkscape:pageopacity="0.0"
     inkscape:pageshadow="2"
     inkscape:zoom="7.9195959"
     inkscape:cx="37.710056"
     inkscape:cy="30.833891"
     inkscape:document-units="mm"
     inkscape:current-layer="layer1"
     showgrid="false"
     inkscape:window-width="958"
     inkscape:window-height="991"
     inkscape:window-x="-8"
     inkscape:window-y="0"
     inkscape:window-maximized="0" />
  <metadata
     id="metadata2684">
    <rdf:RDF>
      <cc:Work
         rdf:about="">
        <dc:format>image/svg+xml</dc:format>
        <dc:type
           rdf:resource="http://purl.org/dc/dcmitype/StillImage" />
        <dc:title />
      </cc:Work>
    </rdf:RDF>
  </metadata>
  <g
     inkscape:label="Layer 1"
     inkscape:groupmode="layer"
     id="layer1"
     transform="translate(-77.371004,1388.2863)">
    <path
       style="fill:#ffffff;stroke-width:26.45847511"
       inkscape:connector-curvature="0"
       id="sd"
       d="m 77.377104,-345.25536 c 5.926962,-14.28775 8.228947,-26.27366 21.404663,-35.58712 12.355923,-8.70515 22.383553,-15.05506 14.340313,-30.21592 -21.08717,-39.74108 -2.08999,-47.73162 27.30482,-71.22713 -7.93695,-7.59413 -21.14006,-39.63518 -8.22795,-46.4616 20.50507,-10.90098 23.01856,-30.50692 37.17367,-48.52543 17.64758,-22.51639 -12.11783,-43.68345 16.13949,-57.6801 12.14432,-6.0061 23.52135,0.93002 35.40108,-5.29209 14.4196,-7.51413 29.50081,-1.98403 43.92052,2.48705 0,-144.8619 -1.455,-289.7767 -8.41395,-434.5063 h 87.33844 c -1.08499,-67.2581 -1.93099,-134.5164 -4.17997,-201.7218 H 677.73997 843.7121 c 21.64277,0 40.24285,4.8421 51.11718,-16.7749 10.23923,-20.3997 10.79493,8.8112 8.75794,15.9547 26.59043,4.5771 53.76296,3.8891 80.61799,2.7781 20.53159,-0.85 53.49849,-8.6522 72.31009,1.588 21.6958,11.8271 66.4894,46.8056 75.9615,0.98 4.3129,-20.9553 9.7099,-25.321 30.5856,-28.9195 21.0342,-3.625 26.8286,-14.6316 33.6283,-33.9202 3.545,-10.0278 8.784,-31.8298 25.2676,-23.2043 12.5941,6.5881 33.3902,-24.8183 41.2747,-32.7824 5.953,25.9031 23.5743,34.8198 45.4022,46.2235 19.5261,10.213 31.4588,34.9256 50.1647,47.9962 24.8178,17.2776 13.282,27.6495 21.2989,54.558 6.6139,22.2519 34.1575,37.3599 35.2422,61.3315 -3.9949,-18.2565 -20.4257,-9.8952 -12.3031,8.6251 5.847,13.3883 10.795,30.2161 8.864,44.9536 -4.419,33.3381 5.7679,63.8979 7.5139,97.7917 1.244,23.7864 9.657,78.74125 38.0469,83.53033 16.3776,2.77805 47.0162,53.92303 57.9169,44.10686 0.77,14.39355 25.8496,9.47217 27.8075,25.21514 1.244,10.02787 -11.668,30.21602 -17.6476,37.80965 -8.1759,10.47768 -35.7714,18.46822 -48.3919,23.2837 -22.9128,8.65215 -22.0132,12.46211 -27.9134,33.23227 -3.0429,10.68939 -23.4154,1.85203 -31.3265,6.53512 -10.9007,6.42911 -13.8641,33.41747 -16.0601,45.24457 -2.143,11.64181 6.8,20.37326 4.18,32.17386 -2.381,10.84809 -7.2759,22.43709 -11.5886,32.59726 -10.8478,25.74434 -14.3403,52.2032 -24.9501,77.84174 -8.3079,20.02925 1.191,48.57834 3.545,69.18969 2.99,25.85025 0.29,56.06617 -4.207,81.81061 -3.7309,21.11407 -19.9758,37.12164 -20.505,59.16182 -0.21,7.80514 4.4449,39.00027 -6.641,40.5349 -16.6952,2.32804 -30.6651,-3.46606 -41.46,13.67914 -10.5567,16.82779 -17.0655,54.21413 -34.0781,64.82411 -18.2826,11.4037 -12.8851,39.71459 -18.2297,59.55873 -2.858,10.63638 -6.1119,29.0782 -3.149,39.89979 3.334,12.25041 -8.8109,17.7539 -15.9014,25.55924 0.32,-14.18195 -16.8803,-24.81833 -26.9873,-12.09171 -13.2555,16.77489 -13.4407,26.48525 -12.6734,46.990807 0.66,18.230115 -7.461,34.660998 -12.938,51.568189 -6.826,20.875959 -1.434,26.267152 -6.773,47.3347153 l -17.2789,-3.73506435 -4.7389,-29.41770695 4.7389,-32.091553 h -9.4769 l -18.9546,-42.789137 -26.0626,-13.37183 -9.477,-82.90383 7.108,-66.85795 h -47.3863 v 24.06861 l -49.75588,5.3481 23.69328,26.74326 v 37.44024 l 9.4769,18.72032 -49.75558,45.46339 -14.21601,32.091851 -49.75568,56.160367 -37.90956,-2.673046 -75.81791,-53.486221 -30.8013,32.091653 -2.36799,24.068714 -42.64763,5.349093 -21.32436,34.765898 -71.07965,-2.674046 -9.47694,-18.7189221 -82.92596,-8.0231379 -16.5853,16.0456761 -35.53967,-8.0231382 -14.21591,-40.1146909 -21.32396,-21.394569 -11.84663,-24.069114 -68.71006,16.045976 -11.84662,37.440745 -14.21601,5.348092 V 4.3977591 L 334.79836,9.7458512 V 55.209434 l -42.63773,19.304233 c -11.42993,-12.303312 -46.4605,-7.752134 -61.7798,-10.530581 3.17498,-8.308144 8.30794,-16.695488 5.82096,-26.035449 -3.04298,1.13802 -6.11196,2.223038 -9.20694,3.360058 -2.69899,-13.890839 4.55097,-16.748389 11.66802,-26.511657 8.22795,-11.218593 6.93196,-29.342805 6.85296,-42.466431 -0.19,-31.115536 -18.20318,-63.501094 -39.97825,-85.250167 -12.14432,-12.17101 -24.84424,-24.13042 -32.09379,-40.08509 -7.01196,-15.39897 12.85872,-29.92492 3.43998,-45.74719 -6.42896,-10.74229 -25.45274,-12.72672 -32.83459,-27.57008 -7.48795,-14.89635 9.68394,-31.19493 0.52999,-45.87959 -3.09598,1.27003 -6.16496,2.69905 -9.20694,4.20708 3.51898,-12.48852 0.0793,-26.96157 -6.29696,-37.86256 -5.18596,-8.94315 12.01203,-19.84404 0.63,-26.45875 -19.20868,-11.13919 -40.877839,17.93901 -52.334266,-12.93832 z"
       sodipodi:nodetypes="cccccccccccccscccccccccccccccccccccccccccccccccccccccsccccccccccccccccccccccccccccccccccccccccccccccccccccc" />
    <path
       inkscape:connector-curvature="0"
       id="path5266-3-3"
       d="m 626.22469,-3.6263791 9.47694,18.7203221 71.07965,2.674046 21.32396,-34.766098 -11.84672,-13.371731 -2.36799,-29.417407 -92.4033,2.674046 z"
       style="opacity:1;vector-effect:none;fill:#ffffff;fill-opacity:1;stroke:#ffffff;stroke-width:4.12752199;stroke-linecap:round;stroke-linejoin:round;stroke-miterlimit:4;stroke-dasharray:16.51008941, 16.51008940999999908;stroke-dashoffset:0;stroke-opacity:1" />
  </g>
</svg>
