<?xml version="1.0" encoding="UTF-8" standalone="no"?>
<!-- Created with Inkscape (http://www.inkscape.org/) -->

<svg
   xmlns:dc="http://purl.org/dc/elements/1.1/"
   xmlns:cc="http://creativecommons.org/ns#"
   xmlns:rdf="http://www.w3.org/1999/02/22-rdf-syntax-ns#"
   xmlns:svg="http://www.w3.org/2000/svg"
   xmlns="http://www.w3.org/2000/svg"
   xmlns:sodipodi="http://sodipodi.sourceforge.net/DTD/sodipodi-0.dtd"
   xmlns:inkscape="http://www.inkscape.org/namespaces/inkscape"
   width="358.39999mm"
   height="190.2mm"
   viewBox="0 0 358.39997 190.20002"
   version="1.1"
   id="svg7070"
   inkscape:version="0.92.4 (5da689c313, 2019-01-14)"
   sodipodi:docname="switzerland.svg">
  <defs
     id="defs7064" />
  <sodipodi:namedview
     id="base"
     pagecolor="#ffffff"
     bordercolor="#666666"
     borderopacity="1.0"
     inkscape:pageopacity="0.0"
     inkscape:pageshadow="2"
     inkscape:zoom="7.9195959"
     inkscape:cx="-6.0381186"
     inkscape:cy="-13.802714"
     inkscape:document-units="mm"
     inkscape:current-layer="layer1"
     showgrid="false"
     inkscape:window-width="958"
     inkscape:window-height="1008"
     inkscape:window-x="-7"
     inkscape:window-y="0"
     inkscape:window-maximized="0" />
  <metadata
     id="metadata7067">
    <rdf:RDF>
      <cc:Work
         rdf:about="">
        <dc:format>image/svg+xml</dc:format>
        <dc:type
           rdf:resource="http://purl.org/dc/dcmitype/StillImage" />
        <dc:title />
      </cc:Work>
    </rdf:RDF>
  </metadata>
  <g
     inkscape:label="Layer 1"
     inkscape:groupmode="layer"
     id="layer1"
     transform="translate(-160.22755,144.48871)">
    <path
       inkscape:connector-curvature="0"
       style="fill:#ffffff;stroke-width:26.45646095"
       d="m 160.24455,16.487558 c 2.61964,-5.079982 5.44925,-10.0012647 8.51882,-14.8166475 3.91946,-7.5669731 -1.31981,-13.8376505 1.42981,-20.9285255 4.04944,-10.424463 16.29675,-14.07575 22.85685,-22.251321 17.59257,-21.854522 35.84605,-40.745655 55.44935,-61.356684 -17.56558,2.80499 -5.33926,-23.83881 7.61895,-13.22915 17.3806,14.20815 24.12667,-9.70997 40.23745,-11.98556 -8.38884,9.81597 34.1263,2.27499 41.90423,2.69899 15.15891,0.79 28.80903,1.085 32.08957,-8.57197 -11.6134,4.33899 -14.36502,-6.77297 -3.6195,-9.68396 4.86933,-1.323 12.85723,-1.773 13.0952,3.75698 0.39994,9.52497 23.80971,4.89499 27.5392,5.02699 13.86209,0.55999 29.62992,5.87398 40.15846,15.10764 13.86209,12.14436 -6.74907,31.961589 -9.12874,45.455241 26.8253,-3.359988 29.021,16.033743 50.89899,20.293527 9.43869,1.825994 13.20018,-16.033743 23.51775,-13.096853 12.09034,3.412988 1.74976,16.95974 0.69991,23.177418 -0.79989,4.841982 9.78865,19.923029 -1.00986,20.240528 -7.72894,0.209999 -13.7831,-13.731852 -21.13709,-7.222975 -2.64963,2.327992 -11.74638,16.060143 -5.39926,18.997033 11.21746,5.1329815 4.57937,9.0489675 2.82961,19.9759287 -10.95149,-4.3919844 -11.40142,-16.1924424 -25.21052,-13.4407522 -13.49214,2.6989904 -14.97394,5.55598023 -26.03141,-5.0269825 -1.08985,-1.031996 -13.0952,-21.484123 -14.70897,-4.761983 -1.4798,15.34574573 -1.18984,19.0763325 -12.30131,30.665091 -14.12705,14.790148 -1.4298,49.424025 -24.02069,16.351142 C 381.49205,24.505729 375.51587,20.880542 368.55783,15.694761 357.9233,7.7577888 362.15871,-7.3238576 351.75915,-14.573432 345.80997,-7.0854584 338.74394,0.48131469 329.11427,3.0742055 339.64282,15.297862 316.548,36.781986 303.55879,35.59139 279.03517,33.342398 258.79796,48.846943 240.06754,29.135413 233.47845,22.176438 224.32771,14.874464 226.6024,3.9207025 c 3.16956,-15.3192455 -7.85892,-19.3674315 -20.95211,-18.0709355 -22.00997,2.169992 -23.88871,27.9399 -45.42274,30.638691 z"
       id="ch" />
  </g>
</svg>
