<?xml version="1.0" encoding="UTF-8" standalone="no"?>
<!-- Created with Inkscape (http://www.inkscape.org/) -->

<svg
   xmlns:dc="http://purl.org/dc/elements/1.1/"
   xmlns:cc="http://creativecommons.org/ns#"
   xmlns:rdf="http://www.w3.org/1999/02/22-rdf-syntax-ns#"
   xmlns:svg="http://www.w3.org/2000/svg"
   xmlns="http://www.w3.org/2000/svg"
   xmlns:sodipodi="http://sodipodi.sourceforge.net/DTD/sodipodi-0.dtd"
   xmlns:inkscape="http://www.inkscape.org/namespaces/inkscape"
   width="535.40002mm"
   height="499.20001mm"
   viewBox="0 0 535.40002 499.19987"
   version="1.1"
   id="svg7070"
   inkscape:version="0.92.4 (5da689c313, 2019-01-14)"
   sodipodi:docname="syria.svg">
  <defs
     id="defs7064" />
  <sodipodi:namedview
     id="base"
     pagecolor="#ffffff"
     bordercolor="#666666"
     borderopacity="1.0"
     inkscape:pageopacity="0.0"
     inkscape:pageshadow="2"
     inkscape:zoom="7.9195959"
     inkscape:cx="-5.5973659"
     inkscape:cy="2.9281974"
     inkscape:document-units="mm"
     inkscape:current-layer="layer1"
     showgrid="false"
     inkscape:window-width="958"
     inkscape:window-height="1008"
     inkscape:window-x="-7"
     inkscape:window-y="0"
     inkscape:window-maximized="0" />
  <metadata
     id="metadata7067">
    <rdf:RDF>
      <cc:Work
         rdf:about="">
        <dc:format>image/svg+xml</dc:format>
        <dc:type
           rdf:resource="http://purl.org/dc/dcmitype/StillImage" />
        <dc:title />
      </cc:Work>
    </rdf:RDF>
  </metadata>
  <g
     inkscape:label="Layer 1"
     inkscape:groupmode="layer"
     id="layer1"
     transform="translate(-154.04061,462.95649)">
    <path
       style="fill:#ffffff;stroke-width:26.45779037"
       inkscape:connector-curvature="0"
       id="sy"
       d="m 161.08149,-58.967742 c 12.25018,-6.799618 22.06633,-28.203017 34.42252,-31.086855 -19.8703,-18.546263 8.52013,-30.213703 25.21539,-25.213383 -14.68523,-17.8054 11.98518,-18.28168 14.86922,-35.82249 1.67003,-10.00074 -6.5901,-29.57884 -17.09226,-31.43074 -12.35619,-2.14288 2.09004,-24.55202 -14.12921,-15.50373 -22.35734,12.4611 -31.43248,-9.81545 -34.76653,-27.22407 -2.80005,-14.78947 8.33012,-42.33102 -5.08008,-53.33701 -10.79517,-8.8365 -10.05415,-28.81158 -10.47716,-41.72246 -0.30001,-9.70945 23.89136,1.13794 27.35842,2.83085 2.59004,1.26992 12.01218,-9.20749 15.92724,-12.35531 8.57013,-6.98461 0.70001,-18.57276 2.38004,-27.51516 8.23012,1.98389 16.95926,-0.36998 25.18838,-0.81995 -6.7201,-13.49304 -14.23522,-17.01175 -12.75319,-33.25623 0.60001,-5.92667 -1.64003,-23.2027 6.6701,-25.26629 6.22009,-1.58791 16.29825,5.74068 21.27232,8.33354 13.38821,7.0376 11.58918,10.47691 25.37439,8.30753 16.85426,-2.64585 25.63839,-3.43981 41.69864,-10.39752 16.43125,-7.1166 34.39652,-15.50373 52.8648,-12.85798 13.65221,1.9579 20.21431,10.7679 31.72349,16.1651 13.1502,6.16465 39.3976,6.32364 53.44682,3.5448 35.66654,-7.0906 63.76597,-21.77398 96.38947,-36.74854 32.14749,-14.76287 68.39604,4.23276 103.18857,-7.67257 17.83328,-6.13765 43.20766,-33.49442 44.66269,6.00566 0.4,9.70946 -23.04536,29.34066 -29.87146,36.08718 -12.38319,12.24951 -26.1414,11.40286 -40.08561,19.5516 -29.89846,17.54092 1.43002,55.53289 3.76005,76.51321 1.40003,12.3818 -6.08009,27.59445 -6.9901,40.39963 -1.35002,19.10183 4.34006,38.52114 1.69002,57.22619 -5.48008,38.60053 -39.7946,47.88681 -70.27507,66.16849 -38.68259,23.20269 -72.55011,38.67993 -109.24767,72.042053 -30.29546,27.568053 -69.19005,43.918335 -103.13657,66.8564477 C 309.45575,10.269272 267.94212,52.785486 234.49761,29.3711 222.30042,20.878577 211.00225,17.174585 200.9751,5.6658306 186.79288,-10.525761 181.8188,4.7158839 168.13959,0.21613643 159.82947,-2.4297151 172.71966,-53.464851 161.07949,-58.967842 Z" />
  </g>
</svg>
