<?xml version="1.0" encoding="UTF-8" standalone="no"?>
<!-- Created with Inkscape (http://www.inkscape.org/) -->

<svg
   xmlns:dc="http://purl.org/dc/elements/1.1/"
   xmlns:cc="http://creativecommons.org/ns#"
   xmlns:rdf="http://www.w3.org/1999/02/22-rdf-syntax-ns#"
   xmlns:svg="http://www.w3.org/2000/svg"
   xmlns="http://www.w3.org/2000/svg"
   xmlns:sodipodi="http://sodipodi.sourceforge.net/DTD/sodipodi-0.dtd"
   xmlns:inkscape="http://www.inkscape.org/namespaces/inkscape"
   width="687.90002mm"
   height="432.5mm"
   viewBox="0 0 687.89999 432.49993"
   version="1.1"
   id="svg7070"
   inkscape:version="0.92.4 (5da689c313, 2019-01-14)"
   sodipodi:docname="tajikistan.svg">
  <defs
     id="defs7064" />
  <sodipodi:namedview
     id="base"
     pagecolor="#ffffff"
     bordercolor="#666666"
     borderopacity="1.0"
     inkscape:pageopacity="0.0"
     inkscape:pageshadow="2"
     inkscape:zoom="7.9195959"
     inkscape:cx="5.6280134"
     inkscape:cy="-10.65356"
     inkscape:document-units="mm"
     inkscape:current-layer="layer1"
     showgrid="false"
     inkscape:window-width="958"
     inkscape:window-height="1008"
     inkscape:window-x="-7"
     inkscape:window-y="0"
     inkscape:window-maximized="0" />
  <metadata
     id="metadata7067">
    <rdf:RDF>
      <cc:Work
         rdf:about="">
        <dc:format>image/svg+xml</dc:format>
        <dc:type
           rdf:resource="http://purl.org/dc/dcmitype/StillImage" />
        <dc:title />
      </cc:Work>
    </rdf:RDF>
  </metadata>
  <g
     inkscape:label="Layer 1"
     inkscape:groupmode="layer"
     id="layer1"
     transform="translate(-156.63312,399.85)">
    <path
       style="fill:#ffffff;stroke-width:26.45786285"
       inkscape:connector-curvature="0"
       id="tj"
       d="m 156.65912,-224.17062 c 7.00976,-12.75287 0.29999,-33.62843 24.39418,-33.62843 18.75836,0 37.17274,10.50398 56.03611,7.56698 13.62554,-2.14299 16.66843,-11.98558 13.94353,-23.38916 -1.00997,-4.28599 -1.63995,-9.04898 3.83987,-10.50388 12.67357,-3.46599 -0.79998,-15.50457 12.77957,-3.06899 -5.68981,-3.86299 -9.94967,-9.92198 -10.95363,-16.82747 3.93986,0 7.88973,0.26 11.7996,0.85 -5.9298,-12.67358 -20.26632,-1.058 -29.42001,-8.41399 15.50348,-16.32477 39.18268,2.355 57.06808,-5.02699 -8.46972,-6.66799 -0.89997,-11.69458 -6.84977,-21.27246 -5.12983,-8.25499 -13.38755,-28.97185 -0.69998,-35.18954 12.24959,-6.03299 22.83223,11.53588 34.89682,8.75799 16.61544,-3.836 36.98776,-20.66387 44.87249,-35.53344 9.33968,7.22299 15.63547,17.80647 24.73717,25.29416 11.45661,9.41898 6.60977,15.23997 -5.52982,24.23575 -16.48244,12.19728 -11.61461,9.39299 1.79994,18.54727 5.8998,3.99499 9.57968,13.30847 16.93343,15.13417 8.46971,2.117 16.80043,-3.86299 25.08115,-4.20699 -7.29975,7.88498 -23.6262,30.34764 -34.44683,31.11494 12.11659,-10.63628 -31.98793,-26.90805 -42.01459,-27.75475 -24.05019,-2.03699 -38.17871,9.68399 -39.44867,30.26825 -17.91139,-19.02347 -8.8097,26.90815 -3.61987,34.55454 7.08976,10.45108 22.85922,-0.77 31.43094,-1.561 15.31848,-1.376 26.72209,6.08499 42.78155,-3.57199 0.2,3.06899 0.49999,6.13798 0.79998,9.23398 8.03972,-3.016 17.6204,-7.11699 26.37811,-4.62999 9.89966,2.77799 11.95859,13.44087 20.37231,17.43607 12.35558,5.92698 37.33174,-12.38248 47.99338,-18.46787 12.0116,-6.87899 8.7797,6.16499 14.34052,9.70998 5.04983,1.376 10.15965,2.249 15.34448,2.672 2.24992,3.09599 3.93987,6.45598 5.02983,10.08058 16.05946,11.82688 29.526,-3.148 46.22044,16.82747 3.19989,-29.87145 52.59723,-18.22977 71.72658,-18.44147 9.86967,-0.13 27.91206,-13.86407 35.5588,-5.95299 6.39979,6.69399 5.65981,14.65788 8.16973,22.72766 3.27989,10.47748 16.16545,17.27727 22.41024,26.00855 -18.73237,0.13 0.59998,26.53766 5.23982,32.33195 6.60978,8.33398 15.79547,11.00668 23.33622,1.63999 7.95973,-9.86898 20.6103,-4.78899 30.29298,-1.85199 23.15022,6.98498 38.3377,9.10198 38.3637,36.16843 0,9.44598 16.53544,41.777625 23.6532,46.143317 6.74978,4.153992 1.79994,14.578474 4.75984,20.663863 4.22986,8.836984 11.32362,9.577982 17.11843,16.32477 4.70984,5.42399 -3.93987,16.72167 -9.52968,17.965168 -4.46985,0.979998 -11.66761,-6.296989 -15.90147,-7.672987 -6.71977,-2.195996 -35.5058,-12.858776 -41.22061,-6.561988 -9.28968,10.265882 -35.5588,22.06626 -49.29033,16.298371 21.93326,-24.368156 -32.33091,-22.43666 -45.40047,-11.853379 -11.8796,9.577983 -23.23022,10.239382 -29.606,25.1883548 -6.76978,15.9013712 -29.659,8.0169855 -40.37364,19.9230642 -54.21217,60.113191 -81.19826,-41.460125 -73.39353,-85.354446 5.47982,-30.638648 -14.41951,-3.756993 -27.11908,-15.160573 -5.02983,-4.523991 2.58991,-22.754155 1.02996,-29.289345 -2.32992,-9.63098 -27.41007,-22.03976 -35.76979,-24.65916 -26.90809,-8.36098 -37.91372,34.15764 -53.07421,49.450614 -8.06973,8.122985 6.37978,15.054772 9.49968,21.325361 8.16972,16.165971 -9.12969,25.082455 -22.30425,17.171369 -9.70967,-5.846989 -27.88606,-1.163998 -36.85476,4.206992 -12.54057,7.513987 -5.10982,16.77457 -0.89997,26.617052 12.75257,29.7391465 -27.80706,6.375989 -34.73882,0.769999 -13.78454,-11.08608 -22.62124,1.957996 -37.04076,10.054182 -7.77973,4.3389919 -22.09125,3.174994 -20.18631,15.9807708 C 267.82837,2.4230749 270.95026,20.759042 256.39876,7.3980659 241.10627,-6.6248088 228.85668,-35.676056 240.41929,-55.70502 c 14.65651,-25.373454 39.81766,-51.46131 8.62971,-73.50107 -24.28818,-17.11847 -1.71994,-65.59008 -35.02982,-66.30448 -9.46968,-0.21 -22.06525,2.937 -26.6161,-7.51398 -6.07979,-14.12868 -23.17622,-6.85299 -30.76996,-21.14017 z" />
  </g>
</svg>
