<?xml version="1.0" encoding="UTF-8" standalone="no"?>
<!-- Created with Inkscape (http://www.inkscape.org/) -->

<svg
   xmlns:dc="http://purl.org/dc/elements/1.1/"
   xmlns:cc="http://creativecommons.org/ns#"
   xmlns:rdf="http://www.w3.org/1999/02/22-rdf-syntax-ns#"
   xmlns:svg="http://www.w3.org/2000/svg"
   xmlns="http://www.w3.org/2000/svg"
   xmlns:sodipodi="http://sodipodi.sourceforge.net/DTD/sodipodi-0.dtd"
   xmlns:inkscape="http://www.inkscape.org/namespaces/inkscape"
   width="767.79999mm"
   height="1490.1mm"
   viewBox="0 0 767.7999 1490.1"
   version="1.1"
   id="svg7070"
   inkscape:version="0.92.4 (5da689c313, 2019-01-14)"
   sodipodi:docname="thailand.svg">
  <defs
     id="defs7064" />
  <sodipodi:namedview
     id="base"
     pagecolor="#ffffff"
     bordercolor="#666666"
     borderopacity="1.0"
     inkscape:pageopacity="0.0"
     inkscape:pageshadow="2"
     inkscape:zoom="5.6"
     inkscape:cx="-3.2034921"
     inkscape:cy="20.231342"
     inkscape:document-units="mm"
     inkscape:current-layer="layer1"
     showgrid="false"
     inkscape:window-width="958"
     inkscape:window-height="1008"
     inkscape:window-x="-7"
     inkscape:window-y="0"
     inkscape:window-maximized="0" />
  <metadata
     id="metadata7067">
    <rdf:RDF>
      <cc:Work
         rdf:about="">
        <dc:format>image/svg+xml</dc:format>
        <dc:type
           rdf:resource="http://purl.org/dc/dcmitype/StillImage" />
        <dc:title />
      </cc:Work>
    </rdf:RDF>
  </metadata>
  <g
     inkscape:label="Layer 1"
     inkscape:groupmode="layer"
     id="layer1"
     transform="translate(-156.60887,1452.5807)">
    <g
       transform="matrix(26.457717,0,0,26.457528,-15356.556,-11514.446)"
       id="th"
       style="fill:#ffffff">
      <path
         style="fill:#ffffff"
         inkscape:connector-curvature="0"
         id="path3902"
         d="m 593.076,427.011 c -0.164,0.533 -0.072,1.109 0.123,1.619 0.473,-0.379 0.42,-1.322 -0.123,-1.619 z" />
      <path
         style="fill:#ffffff"
         inkscape:connector-curvature="0"
         id="path3904"
         d="m 593.864,427.296 c 0.095,0.223 0.21,0.438 0.286,0.668 0.019,-0.271 -0.077,-0.494 -0.286,-0.668 z" />
      <path
         style="fill:#ffffff"
         inkscape:connector-curvature="0"
         id="path3906"
         d="m 595.899,429.775 c -0.037,-0.256 -0.143,-0.477 -0.317,-0.668 0.027,0.26 0.133,0.482 0.317,0.668 z" />
      <path
         style="fill:#ffffff"
         inkscape:connector-curvature="0"
         id="path3908"
         d="m 597.932,432.666 c -0.225,0.227 -0.248,0.559 0.128,0.637 -0.04,-0.214 -0.083,-0.427 -0.128,-0.637 z" />
      <path
         style="fill:#ffffff"
         inkscape:connector-curvature="0"
         id="path3910"
         d="m 598.476,421.707 c -0.219,0.201 -0.209,0.391 0.031,0.572 0.214,-0.197 0.203,-0.389 -0.031,-0.572 z" />
      <path
         style="fill:#ffffff"
         inkscape:connector-curvature="0"
         id="path3912"
         d="m 598.408,420.88 c -0.098,0.226 0.086,0.32 0.286,0.317 -0.086,-0.114 -0.181,-0.219 -0.286,-0.317 z" />
      <path
         style="fill:#ffffff"
         inkscape:connector-curvature="0"
         id="path3914"
         d="m 605.463,412.43 c 0.104,0.01 0.209,0.021 0.313,0.031 0.004,-0.257 -0.156,-0.462 -0.379,-0.571 10e-4,0.182 0.024,0.362 0.066,0.54 z" />
      <path
         style="fill:#ffffff"
         inkscape:connector-curvature="0"
         id="path3916"
         d="m 606.447,413.385 c -0.102,0.247 -0.048,0.459 0.158,0.636 0.064,-0.242 0.01,-0.453 -0.158,-0.636 z" />
      <path
         style="fill:#ffffff"
         inkscape:connector-curvature="0"
         id="path3918"
         d="m 586.338,387.306 c 0.196,0.379 1.014,0.363 1.283,0.086 0.325,-0.333 -0.317,-1.237 -0.233,-1.675 0.047,-0.242 0.24,-0.41 0.252,-0.667 0.018,-0.396 -0.304,-0.653 -0.196,-1.077 0.068,-0.27 0.559,-1.183 0.742,-1.148 0.538,0.1 1.064,0.332 1.617,0.212 0.263,-0.057 0.515,-0.356 0.775,-0.351 0.265,0.006 0.369,0.264 0.593,-0.079 0.221,-0.337 -0.189,-0.979 0.33,-1.113 0.373,-0.096 1.794,0.193 1.031,-0.795 0.545,-0.027 2.009,-0.992 2.003,0.191 0.299,-0.083 0.394,-0.511 0.743,-0.406 0.155,0.047 0.683,0.749 0.809,0.892 0.307,0.35 -0.125,0.874 -0.215,1.224 -0.128,0.493 0.215,0.879 0.572,1.171 0.5,0.408 1.233,-0.413 1.806,-0.243 0.348,0.103 0.67,0.104 0.479,0.567 -0.184,0.446 0.438,1.086 0.511,1.5 0.062,0.35 -0.168,0.696 -0.119,1.066 0.065,0.493 -0.376,0.748 -0.355,1.162 0.01,0.2 0.368,0.316 0.406,0.574 0.063,0.43 0.087,0.81 -0.072,1.217 -0.388,0.994 -0.737,1.562 0.422,1.98 0.48,-0.749 1.7,-1.307 1.747,-2.287 0.539,0.322 0.58,-0.554 0.993,-0.562 0.284,-0.006 0.668,0.55 0.928,0.679 0.203,0.102 0.674,0.138 0.798,0.346 0.394,0.659 0.854,-0.308 1.35,-0.209 0.269,0.054 0.364,-1.02 0.794,-1.08 -0.743,-0.818 1.536,-0.288 1.782,-0.22 1.384,0.386 1.875,2.313 3.157,2.986 1.06,0.556 0.541,2.514 0.738,3.493 0.12,0.594 0.648,0.9 0.983,1.368 0.539,0.75 0.788,0.746 1.629,1.076 -0.717,0.489 0.352,0.823 0.676,1.082 0.378,0.301 -0.361,1.554 0.148,1.459 -0.138,0.314 -0.454,0.62 -0.236,0.977 0.124,0.202 0.373,0.293 0.347,0.568 -0.073,0.757 0.225,1.505 -0.531,1.975 -0.505,0.313 -0.778,0.969 -1.169,0.264 -0.402,-0.727 -1.55,-0.008 -2.145,-0.187 -0.413,-0.123 -0.81,0.025 -1.216,0.082 -0.437,0.062 -0.639,-0.207 -1.022,-0.238 -0.53,-0.044 -1.187,0.198 -1.673,0.389 -0.768,0.302 -0.828,1.212 -1.217,1.826 -0.181,0.284 -0.653,0.52 -0.612,0.879 0.043,0.38 -0.451,0.24 -0.69,0.232 0.246,0.646 0.35,1.347 0.587,2.005 0.198,0.549 0.169,1.282 0.699,1.654 0.595,0.417 0.45,0.881 0.502,1.508 0.064,0.768 0.902,1.394 0.784,2.171 -0.008,-0.389 -0.332,-0.601 -0.503,-0.911 -0.258,-0.469 -0.224,-1.059 -0.86,-1.249 0.015,0.19 0.025,0.38 0.031,0.571 -0.176,-0.421 -1.598,-0.619 -0.764,-1.175 -0.229,0.137 -0.391,-0.01 -0.477,-0.223 0,0.684 -0.81,-0.374 -0.952,-0.699 0,0.602 -0.454,-0.617 -1.021,-0.358 -0.275,0.126 -0.555,0.36 -0.885,0.295 -0.403,-0.081 -0.87,-0.303 -1.287,-0.199 -0.817,0.202 -0.359,-0.646 -0.414,-1.148 -0.031,-0.295 -0.041,-0.594 -0.082,-0.888 -0.057,-0.406 0.242,-0.723 0.164,-1.101 -0.346,0.277 -1.271,0.021 -1.398,-0.412 0.15,0.87 -2.492,0.102 -1.736,1.454 0.377,0.675 0.138,1.104 0.003,1.809 -0.142,0.748 0.414,1.447 0.273,2.2 -0.057,0.299 -0.278,0.524 -0.428,0.776 -0.185,0.308 -0.067,0.68 -0.279,0.983 -0.397,0.573 -0.459,1.453 -0.604,2.121 -0.177,0.814 -0.296,1.402 -0.636,2.149 -0.122,0.268 0.134,1.001 -0.374,0.927 0.575,0.694 -0.035,1.979 0.328,2.819 0.174,0.398 0.431,0.666 0.23,1.07 -0.227,0.461 0.609,0.562 0.851,0.436 0.849,-0.449 1.37,-0.459 1.498,0.693 0.042,0.381 0.579,3.105 1.13,2.225 0.336,0.773 0.392,1.637 0.647,2.436 0.229,0.715 0.584,1.471 0.592,2.234 -0.527,-0.098 -0.63,-2.408 -1.2,-2.01 -0.41,0.287 0.201,1.191 0.361,1.424 0.192,0.275 0.419,0.486 0.662,0.711 0.204,0.186 0.501,0.115 0.7,0.301 0.46,0.432 0.549,0.885 1.309,0.906 0.559,0.016 1.182,-0.205 1.673,0.17 0.54,0.412 0.654,1.168 1.178,1.605 0.554,0.463 0.91,0.686 0.634,1.418 -0.127,0.336 -0.35,1.02 -0.768,1.107 -0.321,0.068 -0.385,-0.457 -0.631,-0.555 -0.644,-0.254 -1.002,0.883 -1.414,0.881 -0.795,-0.004 -0.598,-0.787 -0.319,-1.223 0.303,-0.475 -0.239,-0.908 -0.587,-0.992 -0.493,-0.123 -0.296,-0.824 -0.926,-0.91 -0.58,-0.076 -0.918,-0.102 -1.289,-0.588 -0.521,-0.682 -0.336,0.496 -0.561,0.803 -0.049,-0.9 -2.298,-1.744 -1.398,-2.699 -0.757,0.453 -0.454,-0.725 -0.825,-0.953 0.039,0.463 -0.352,0.365 -0.521,0.082 -0.217,-0.363 -0.168,-0.916 -0.483,-1.219 -0.209,-0.201 -0.626,0.061 -0.666,-0.27 -0.037,-0.299 0.024,-0.408 -0.152,-0.66 -0.267,-0.375 -0.235,-0.348 -0.631,-0.422 -0.247,-0.047 -0.2,-0.453 -0.278,-0.625 -0.126,-0.275 -0.27,-0.703 -0.667,-0.604 -0.423,0.105 -0.248,0.494 -0.383,0.795 -1.062,-0.219 -0.85,-1.809 -0.729,-2.574 0.244,-1.545 0.571,-3.113 0.898,-4.643 0.126,-0.594 0.615,-1.383 0.608,-1.967 -0.009,-0.687 0.259,-0.726 0.521,-1.337 0.33,-0.77 2.352,-2.835 1.667,-3.683 -0.292,-0.36 -0.536,-1.343 -0.641,-1.785 -0.16,-0.674 -0.408,-0.903 -0.741,-1.473 -0.192,-0.329 -0.624,-1.25 -0.56,-1.607 0.156,-0.866 0.119,-1.496 -0.233,-2.328 -0.575,-1.355 -1.913,-2.174 -2.781,-3.333 -0.38,-0.508 -0.751,-1.007 -0.832,-1.663 -0.046,-0.369 0.062,-1.217 0.597,-0.734 -0.114,-0.449 0.416,-0.353 0.525,-0.668 0.155,-0.446 -0.128,-1.492 -0.197,-1.973 -0.115,-0.793 0.506,-0.387 0.786,-0.831 0.18,-0.285 0.188,-0.901 -0.095,-1.135 -0.08,0.25 -0.208,0.473 -0.384,0.668 -0.535,-0.663 -0.689,-1.438 -0.918,-2.224 -0.145,-0.5 -0.884,-0.994 -1.232,-1.384 -0.538,-0.599 -1.247,-1.233 -1.7,-1.888 -0.251,-0.361 -0.134,-0.702 -0.253,-1.093 -0.108,-0.354 -0.482,-0.633 -0.405,-1.036 -0.658,0.197 -0.947,-0.671 -1.081,-1.141 z" />
    </g>
  </g>
</svg>
