<?xml version="1.0" encoding="UTF-8" standalone="no"?>
<!-- Created with Inkscape (http://www.inkscape.org/) -->

<svg
   xmlns:dc="http://purl.org/dc/elements/1.1/"
   xmlns:cc="http://creativecommons.org/ns#"
   xmlns:rdf="http://www.w3.org/1999/02/22-rdf-syntax-ns#"
   xmlns:svg="http://www.w3.org/2000/svg"
   xmlns="http://www.w3.org/2000/svg"
   xmlns:sodipodi="http://sodipodi.sourceforge.net/DTD/sodipodi-0.dtd"
   xmlns:inkscape="http://www.inkscape.org/namespaces/inkscape"
   width="1585.1mm"
   height="629.70001mm"
   viewBox="0 0 1585.0999 629.70007"
   version="1.1"
   id="svg7070"
   inkscape:version="0.92.4 (5da689c313, 2019-01-14)"
   sodipodi:docname="turkey.svg">
  <defs
     id="defs7064" />
  <sodipodi:namedview
     id="base"
     pagecolor="#ffffff"
     bordercolor="#666666"
     borderopacity="1.0"
     inkscape:pageopacity="0.0"
     inkscape:pageshadow="2"
     inkscape:zoom="7.9195959"
     inkscape:cx="17.919851"
     inkscape:cy="-5.7726806"
     inkscape:document-units="mm"
     inkscape:current-layer="layer1"
     showgrid="false"
     inkscape:window-width="958"
     inkscape:window-height="1008"
     inkscape:window-x="-7"
     inkscape:window-y="0"
     inkscape:window-maximized="0" />
  <metadata
     id="metadata7067">
    <rdf:RDF>
      <cc:Work
         rdf:about="">
        <dc:format>image/svg+xml</dc:format>
        <dc:type
           rdf:resource="http://purl.org/dc/dcmitype/StillImage" />
        <dc:title />
      </cc:Work>
    </rdf:RDF>
  </metadata>
  <g
     inkscape:label="Layer 1"
     inkscape:groupmode="layer"
     id="layer1"
     transform="translate(-153.88868,581.86409)">
    <g
       transform="matrix(26.457579,0,0,26.456298,-8998.8462,-8458.2872)"
       id="tr"
       style="fill:#ffffff">
      <path
         style="fill:#ffffff"
         inkscape:connector-curvature="0"
         d="m 345.94,302.842 c 0.33,-0.156 0.784,-0.607 0.883,-0.965 0.154,-0.558 -0.273,-0.977 0.5,-1.325 0.422,-0.191 0.269,-0.193 0.162,-0.638 -0.062,-0.261 -0.166,-0.521 -0.447,-0.613 -1.014,-0.332 0.236,-0.491 0.18,-0.897 -0.016,-0.112 1.084,-0.426 1.264,-0.484 0.584,-0.19 0.927,-0.386 1.351,0.095 0.396,0.449 0.618,0.161 1.12,0.111 0.233,-0.023 0.508,0.001 0.697,0.158 0.323,0.268 -0.161,0.36 0.067,0.653 0.851,1.095 1.843,1.57 3.192,1.976 0.521,0.156 0.088,0.916 -0.234,1.035 -0.617,0.229 -1.514,-0.369 -2.143,-0.406 -0.311,-0.018 -0.501,0.199 -0.758,0.33 -0.315,0.162 -0.645,-0.118 -1.008,-0.01 -0.438,0.131 -0.618,0.604 -0.92,0.932 -0.49,0.534 -1.15,0.686 -1.715,1.098 -0.479,0.349 -0.941,1.324 -1.461,1.524 -0.156,-0.618 0.105,-1.262 0.715,-1.479 0.109,-0.038 1.277,-0.392 0.893,-0.708 -0.625,-0.516 -2.034,0.864 -2.338,-0.387 z"
         id="path3456" />
      <path
         style="fill:#ffffff"
         inkscape:connector-curvature="0"
         d="m 346.354,307.639 c 0.044,-0.329 0.084,-1.956 0.328,-2.049 0.602,-0.229 0.795,-1.103 1.418,-1.414 0.333,-0.165 0.759,0.127 1.066,-0.089 0.387,-0.271 0.553,-0.064 0.892,0.139 0.485,0.291 2.057,0.167 1.06,-0.431 0.316,-0.129 0.66,-0.112 0.984,-0.032 -0.161,0.059 -0.24,0.161 -0.236,0.31 0.186,0.26 1.131,0.106 1.371,0.084 0.74,-0.067 1.807,0.364 2.426,-0.171 -0.296,-0.289 -0.678,-0.036 -0.988,-0.286 0.398,-1.016 2.227,-0.633 3.053,-0.825 -0.713,-0.351 -1.73,-0.057 -2.328,-0.67 -0.672,-0.688 0.004,-1.259 0.724,-1.19 0.79,0.074 1.577,0.441 2.381,0.267 1.072,-0.233 1.942,0.352 3.036,0.243 0.504,-0.05 0.578,-0.309 0.766,-0.703 0.207,-0.435 0.978,-0.625 1.369,-0.854 1.133,-0.664 2.033,-1.247 3.314,-1.594 1.334,-0.361 2.357,-0.168 3.713,-0.168 0.547,0 1.127,0.225 1.668,0.063 0.25,-0.075 0.334,-0.374 0.574,-0.444 0.244,-0.072 0.457,0.073 0.697,0.095 -0.406,0.488 0.288,1.152 0.73,1.287 0.334,0.102 0.682,0.187 1.034,0.14 0.386,-0.05 0.714,-0.484 0.714,0.066 0.089,-0.819 0.615,0.177 0.691,0.411 0.102,0.31 0.947,1.358 1.279,1.002 0.438,-0.471 0.906,-0.367 1.377,0.01 0.574,0.46 1.279,0.542 1.921,0.863 0.36,0.182 0.423,-0.564 0.919,-0.02 0.398,0.438 1.172,0.427 1.719,0.481 0.76,0.076 1.537,-0.449 2.299,-0.523 0.65,-0.064 1.008,-0.15 1.631,0.073 0.873,0.312 1.521,0.526 2.42,0.105 1.078,-0.506 2.064,-1.081 2.986,-1.822 0.369,-0.298 0.711,0.205 1.084,0.213 0.229,0.006 0.209,-0.308 0.477,-0.254 0.174,0.034 0.346,0.073 0.519,0.108 0.251,0.052 0.964,0.333 1.116,-0.005 0.188,-0.413 1.088,-0.759 0.809,-0.136 0.285,-0.053 0.531,0.129 0.734,0.299 0.146,0.132 0.298,0.257 0.456,0.373 0.256,0.032 0.314,0.15 0.175,0.355 0.118,0.356 0.6,0.01 0.795,0.301 0.127,0.188 0.21,0.75 0.398,0.902 0.602,0.486 1.093,0.972 0.748,1.468 -0.34,0.49 0.578,1.218 0.096,1.543 0.773,0.391 1.169,0.302 1.979,0.332 0.693,0.025 1.664,0.944 1.925,1.542 -0.376,-0.311 -0.95,-0.761 -1.109,0 -0.049,0.235 0.012,0.481 -0.06,0.716 -0.094,0.303 -0.896,0.143 -1.147,0.237 0.186,0.22 0.558,0.786 0.63,1.062 0.119,0.46 0.322,0.699 0.486,1.125 0.238,0.627 0.021,1.544 0.82,1.815 -0.271,0.256 -0.43,0.77 -0.515,1.121 -0.171,0.705 0.56,0.602 0.93,0.943 0.373,0.343 0.298,0.795 0.417,1.243 0.059,0.224 0.456,0.323 0.611,0.461 0.172,0.153 0.02,0.516 0.115,0.71 -0.74,-0.522 -1.046,0.774 -1.471,0.634 -0.549,-0.182 -0.1,-0.904 -0.502,-1.174 -0.201,-0.135 -0.535,-0.123 -0.718,0.042 -0.329,0.296 -0.812,0.228 -1.2,0.105 -0.632,-0.198 -1.119,-0.407 -1.787,-0.397 -0.475,0.007 -0.771,-0.125 -1.02,0.292 -0.301,0.505 -0.9,0.958 -1.106,0.205 -0.179,-0.655 -1.007,0.134 -1.369,0.251 -0.932,0.302 -1.712,0.293 -2.657,0.168 -1.699,-0.224 -3.166,1.485 -4.885,1.604 -0.686,0.048 -1.924,0.218 -2.5,-0.219 -0.629,-0.476 -1.022,-0.748 -1.799,-0.372 -0.828,0.402 -2.633,1.352 -3.346,0.468 -0.357,-0.443 -1.118,-0.598 -1.227,0.101 -0.107,0.687 0.133,1.166 0.425,1.755 -0.312,0.018 -0.642,0.105 -0.952,0.03 -0.051,0.272 0.131,0.56 0.035,0.826 -0.113,0.317 -0.533,0.384 -0.635,0.73 -0.239,-0.16 -0.479,-0.341 -0.764,-0.413 0.273,-0.355 -0.104,-0.818 -0.318,-1.085 -0.401,-0.497 0.033,-0.789 0.447,-1.148 0.425,-0.369 0.701,-0.63 0.286,-1.188 -0.165,-0.224 -0.513,-0.499 -0.748,-0.193 -0.327,0.423 -0.657,0.355 -1.065,0.662 0.676,-0.069 -0.018,0.611 -0.52,0.52 -0.623,-0.114 -1.177,-0.48 -1.733,-0.759 -1.327,-0.665 -2.017,1.285 -2.64,2.081 -0.096,-0.106 -0.19,-0.212 -0.287,-0.317 -0.238,0.251 -0.396,0.697 -0.785,0.551 -0.337,-0.128 -1.289,0.106 -1.607,0.266 -0.577,0.288 -1.254,0.245 -1.816,-0.004 -0.863,-0.381 -1.174,-1.339 -1.996,-1.741 -0.903,-0.442 -1.816,-0.947 -2.812,-1.124 -0.523,-0.093 -1.593,-0.305 -1.593,0.528 0,0.478 0.088,1.346 -0.262,1.728 -0.189,0.208 -0.443,-0.178 -0.623,-0.202 -0.461,-0.062 -0.936,0.482 -1.391,0.559 -0.525,0.088 -1.324,-0.25 -1.757,-0.528 -0.329,-0.211 -0.345,-0.9 -0.794,-0.922 0.35,-0.494 -0.467,-1.03 -0.57,-0.38 -0.34,-0.298 -1.2,-0.409 -1.305,-0.922 -0.08,0.37 -0.975,0.98 -1.271,1.207 0.105,-0.222 0.031,-0.359 -0.221,-0.413 0.25,-0.054 0.41,-0.253 0.411,-0.509 -0.323,0.271 -1.839,0.595 -2.255,0.477 0.331,-0.403 0.947,-0.428 1.424,-0.415 0.48,0.012 0.43,0.14 0.627,-0.233 0.137,-0.259 0.434,-0.376 0.619,-0.59 -0.586,-0.262 -2.6,-0.296 -3.08,0.19 -0.727,-0.853 0.654,-0.402 0.759,-0.622 0.086,-0.184 0.075,-0.439 -0.028,-0.613 -0.243,-0.407 -0.513,0.158 -0.381,-0.479 -0.7,0.895 -0.648,-0.95 -1.301,-0.922 0.452,-0.245 0.968,-0.482 0.58,-1.097 -0.279,-0.442 -1.077,-0.213 -1.27,-0.542 -0.199,-0.341 -0.401,-0.817 -0.699,-0.222 -0.133,0.264 -1.074,-0.446 -1.092,-0.681 0.947,0.228 0.128,-0.775 0.162,-1.167 0.027,-0.323 0.537,-0.087 0.635,0.071 0.2,0.329 0.133,0.869 0.443,1.128 -0.068,-0.704 1.027,0.177 1.332,-0.54 -0.631,-0.078 -0.889,-0.385 -1.27,-0.858 0.329,-0.182 0.5,-0.582 0.891,-0.666 -0.174,-0.516 -0.707,0.019 -0.658,-0.564 0.049,-0.579 -0.258,-0.654 -0.679,-1.024 0.28,-0.323 0.604,-0.607 0.86,-0.953 -0.903,-0.463 -1.757,0.489 -2.668,0.191 z"
         id="path3458" />
    </g>
  </g>
</svg>
