<?xml version="1.0" encoding="UTF-8" standalone="no"?>
<!-- Created with Inkscape (http://www.inkscape.org/) -->

<svg
   xmlns:dc="http://purl.org/dc/elements/1.1/"
   xmlns:cc="http://creativecommons.org/ns#"
   xmlns:rdf="http://www.w3.org/1999/02/22-rdf-syntax-ns#"
   xmlns:svg="http://www.w3.org/2000/svg"
   xmlns="http://www.w3.org/2000/svg"
   xmlns:sodipodi="http://sodipodi.sourceforge.net/DTD/sodipodi-0.dtd"
   xmlns:inkscape="http://www.inkscape.org/namespaces/inkscape"
   width="1248.8mm"
   height="762.20001mm"
   viewBox="0 0 1248.8 762.19988"
   version="1.1"
   id="svg7070"
   inkscape:version="0.92.4 (5da689c313, 2019-01-14)"
   sodipodi:docname="turkmenistan.svg">
  <defs
     id="defs7064" />
  <sodipodi:namedview
     id="base"
     pagecolor="#ffffff"
     bordercolor="#666666"
     borderopacity="1.0"
     inkscape:pageopacity="0.0"
     inkscape:pageshadow="2"
     inkscape:zoom="7.9195959"
     inkscape:cx="28.199985"
     inkscape:cy="-3.7485669"
     inkscape:document-units="mm"
     inkscape:current-layer="layer1"
     showgrid="false"
     inkscape:window-width="958"
     inkscape:window-height="1008"
     inkscape:window-x="-7"
     inkscape:window-y="0"
     inkscape:window-maximized="0" />
  <metadata
     id="metadata7067">
    <rdf:RDF>
      <cc:Work
         rdf:about="">
        <dc:format>image/svg+xml</dc:format>
        <dc:type
           rdf:resource="http://purl.org/dc/dcmitype/StillImage" />
        <dc:title />
      </cc:Work>
    </rdf:RDF>
  </metadata>
  <g
     inkscape:label="Layer 1"
     inkscape:groupmode="layer"
     id="layer1"
     transform="translate(-150.66095,727.72305)">
    <path
       style="fill:#ffffff;stroke-width:26.45876503"
       inkscape:connector-curvature="0"
       id="tm"
       d="m 150.66095,-628.73695 c 39.26327,-56.86192 105.59302,-70.30341 165.12291,-40.74799 28.28347,14.05012 45.45515,39.66314 65.90677,62.86823 28.17747,32.06915 57.46692,19.87122 96.2542,22.54366 17.54067,1.19106 34.36835,0.56003 51.64503,3.09616 20.79661,3.04316 6.90987,-10.63685 4.25992,-16.66966 -14.07574,-32.51897 -20.39862,-43.55264 5.57989,-69.00684 15.55671,-15.26729 46.01014,6.50933 46.30114,-26.51267 0.29999,-29.185 37.3053,6.61534 47.22711,8.96946 -3.83992,-4.18021 -34.65935,-30.29635 -34.84534,-31.91044 -0.79999,-6.87935 30.21543,-0.26001 31.6704,-6.24432 2.77995,-11.40418 13.67875,-1.9841 19.73763,3.8102 9.49983,9.02246 21.4046,7.93841 32.72839,12.93876 10.00081,4.39223 9.01983,16.80187 20.18762,19.84482 10.26481,2.77815 21.3246,-0.053 31.74941,0.32002 14.33973,0.53003 22.30358,8.91646 25.24053,22.99338 3.61993,17.22529 16.98568,14.39414 22.38358,28.70878 -7.69986,-1.24307 -11.53579,0.56003 -6.95987,7.64639 6.79987,10.53094 6.42988,11.29828 5.4199,22.96698 -1.63997,19.10388 44.34317,24.71337 56.03795,23.62852 14.20773,-1.29607 25.24053,3.83619 38.78727,6.77334 17.46168,3.8102 11.19179,-10.92786 22.99157,-10.74265 31.72241,0.45003 45.82514,32.06915 58.25991,55.14194 6.08989,11.29828 13.09676,18.49535 22.93957,26.53906 13.28175,10.79556 15.82171,25.2426 23.22956,39.79545 13.2028,25.90403 56.196,40.986 79.7435,55.56535 29.1305,18.04543 55.853,45.56355 89.9303,54.26879 27.1195,6.95936 57.573,28.36476 81.1995,43.52624 23.7066,15.18778 40.6653,33.52442 70.6157,30.26986 15.4517,-1.69309 57.8639,13.22988 68.7637,26.16864 6.2499,7.46139 -1.51,13.91782 -2.28,21.53821 -1.2699,12.48894 6.7699,23.89303 8.8099,35.85284 3.6799,21.48531 -56.329,-6.40333 -64.6108,-13.12397 -8.2499,-6.69435 -11.0858,14.79096 -11.1118,17.64861 -0.08,14.34113 -9.9498,14.36763 -21.1666,14.42054 -10.4768,0.0529 -22.0656,0.0794 -31.7754,4.49823 -14.8427,6.72034 -5.5299,18.97157 -7.7499,30.71968 -3.1999,16.80196 -6.4498,23.3375 -4.8399,40.694989 1.3,14.129526 -11.1128,22.332048 -22.1456,27.915035 -28.9444,14.685155 -57.3079,38.684089 -91.9412,34.212359 2.4899,6.879353 7.5098,12.674151 13.4407,16.828365 -10.8208,5.821299 -6.9099,22.3055466 -19.5786,31.169502 -13.5468,9.472487 -42.1742,9.181472 -49.2911,24.290049 -4.5999,-13.732606 -15.1077,-25.4278072 -30.1094,-27.8621323 -21.2186,-3.4131755 -30.6115,-3.30717 -50.5601,-13.3356856 -5.4799,-2.7521415 -1.14,-10.1075191 -9.41982,-6.2183201 -6.87987,3.2281664 -7.98985,-5.001257 -8.99983,-10.160522 -1.18998,-5.980307 -1.26997,-12.515443 -4.28992,-17.966123 -7.69985,-14.076524 -9.65982,2.090107 -5.97989,-17.622106 2.16996,-11.509992 -7.45986,-34.82099 -9.51982,-47.46874 -2.42995,-14.79096 -14.49873,-13.78551 -26.88149,-13.15048 -12.43477,0.64004 -26.9865,4.68324 -39.31627,1.64009 -16.56269,-4.07521 -25.21453,-26.43326 -37.83429,-36.32917 -15.16072,-11.95981 -40.00425,-8.78445 -52.20202,-25.79823 -11.37679,-15.84941 -16.4297,-25.2955 -35.92933,-32.75708 -20.00263,-7.62039 -35.82433,-4.15421 -56.35495,-5.37128 -17.93866,-1.03205 -28.89246,-15.6112 -45.24315,-20.77086 -15.18672,-4.81525 -44.82016,-2.27512 -52.41302,-18.57466 -6.66987,-14.31473 -12.72676,-21.16779 -28.09847,-17.5957 -7.03987,1.64008 -74.63761,-13.6003 -58.15391,13.46799 -20.45262,4.49823 -40.56025,-6.53534 -61.03886,-2.22212 -24.02355,5.05326 -39.63326,20.47976 -56.19595,37.04361 -7.50986,7.51439 0.2,17.17228 -6.23988,25.18959 -3.85993,4.84225 -10.9008,7.35538 -16.4837,9.28748 -12.75276,4.33922 -35.16234,10.87486 -47.38611,1.72009 -9.62982,-7.22337 -12.51476,-28.81468 -15.23971,-39.45143 -6.05989,-23.65501 -4.33992,-47.94496 -9.97982,-71.67928 -3.43993,-14.57935 8.85984,-35.66774 -3.03994,-46.72791 -6.84987,-6.35032 -22.38358,-10.55734 -20.61061,-22.43775 0,16.16683 -10.13381,-4.02221 -17.46268,-10.58394 -7.66985,-6.90636 -22.75357,-17.4634 -27.83348,-2.01111 -10.10681,-12.27733 -8.75983,-31.35471 4.99991,-40.32457 -17.70067,17.06648 22.54158,11.35118 29.39445,13.44149 -7.19986,0.16001 -10.7948,-11.37758 -12.32977,-10.79555 -9.01983,3.22816 -6.87987,-13.73251 -7.05987,-18.70697 -0.89998,-24.68686 -36.96131,-9.52548 -52.04302,-17.5692 10.7688,17.4634 -8.32985,3.73119 -11.82578,-0.66003 -4.91991,-6.19132 -6.55988,-14.31464 -7.08987,-21.98803 -1.08998,-16.64306 3.27994,-32.80999 3.64993,-49.34724 0.2,-7.11737 2.74995,-17.4899 0.3,-24.18424 -3.27994,-8.67845 -10.6368,-15.66411 -13.86474,-25.1896 -3.40994,-10.13402 -8.27985,-14.18243 -15.9797,-21.16779 -9.78982,-8.91645 -11.0868,-21.72341 -23.17757,-28.97329 z" />
  </g>
</svg>
