<?xml version="1.0" encoding="UTF-8" standalone="no"?>
<!-- Created with Inkscape (http://www.inkscape.org/) -->

<svg
   xmlns:dc="http://purl.org/dc/elements/1.1/"
   xmlns:cc="http://creativecommons.org/ns#"
   xmlns:rdf="http://www.w3.org/1999/02/22-rdf-syntax-ns#"
   xmlns:svg="http://www.w3.org/2000/svg"
   xmlns="http://www.w3.org/2000/svg"
   xmlns:sodipodi="http://sodipodi.sourceforge.net/DTD/sodipodi-0.dtd"
   xmlns:inkscape="http://www.inkscape.org/namespaces/inkscape"
   width="485.30002mm"
   height="571.70001mm"
   viewBox="0 0 485.30002 571.69992"
   version="1.1"
   id="svg7070"
   inkscape:version="0.92.4 (5da689c313, 2019-01-14)"
   sodipodi:docname="uganda.svg">
  <defs
     id="defs7064" />
  <sodipodi:namedview
     id="base"
     pagecolor="#ffffff"
     bordercolor="#666666"
     borderopacity="1.0"
     inkscape:pageopacity="0.0"
     inkscape:pageshadow="2"
     inkscape:zoom="7.9195959"
     inkscape:cx="5.2369424"
     inkscape:cy="-0.24495926"
     inkscape:document-units="mm"
     inkscape:current-layer="layer1"
     showgrid="false"
     inkscape:window-width="958"
     inkscape:window-height="1008"
     inkscape:window-x="-7"
     inkscape:window-y="0"
     inkscape:window-maximized="0" />
  <metadata
     id="metadata7067">
    <rdf:RDF>
      <cc:Work
         rdf:about="">
        <dc:format>image/svg+xml</dc:format>
        <dc:type
           rdf:resource="http://purl.org/dc/dcmitype/StillImage" />
        <dc:title />
      </cc:Work>
    </rdf:RDF>
  </metadata>
  <g
     inkscape:label="Layer 1"
     inkscape:groupmode="layer"
     id="layer1"
     transform="translate(-157.24435,524.94791)">
    <path
       inkscape:connector-curvature="0"
       style="fill:#ffffff;stroke-width:26.45822906"
       d="m 157.24435,18.869186 c 5.72003,-15.8218995 3.89002,-37.09413 6.22003,-53.842017 2.94002,-21.087033 3.17002,-42.332863 7.67004,-63.261098 3.97002,-18.335371 18.65309,-36.326841 20.8221,-54.053711 1.01001,-8.3079 -1.64001,-16.58909 -0.053,-24.84399 2.51001,-13.01733 14.81708,-9.65687 20.74411,-19.12915 18.15009,-28.68054 46.03722,-51.72545 70.59135,-77.09863 9.50004,-9.86887 23.41511,-24.39429 27.41013,-37.67622 3.28002,-10.90066 -17.03908,-22.38341 -24.87012,-26.56376 -6.30003,-3.35996 -15.82308,6.87891 -20.4791,-3.46596 -3.70002,-8.22789 -0.70001,-19.42015 1.01,-27.75445 5.19003,-25.47897 -4.34002,-46.03691 8.52004,-69.45221 3.78002,-6.82592 -5.11002,-9.36589 -2.78001,-16.53629 2.46001,-7.59291 9.05005,-13.28184 14.92207,-18.15017 5.82003,-4.81494 12.67407,-9.15489 20.63811,-7.69891 6.48003,1.13799 18.73209,14.68412 25.13512,11.77375 8.23004,-3.73095 20.2671,-18.86456 29.02515,-7.3289 9.37004,12.35584 11.90606,16.80078 28.31014,22.67441 -4.15002,-16.53619 16.19308,-21.08693 28.09914,-22.78031 14.76407,-2.06398 32.35916,-12.80564 46.80523,-11.11236 19.7911,2.27497 25.16212,18.65286 46.77823,3.67795 15.45208,-10.74196 26.22013,-26.88126 38.04719,-41.19507 6.88003,9.25988 14.18207,22.48931 10.02805,34.42186 13.91707,-1.40198 4.42002,8.1759 17.09208,13.44063 12.43507,5.26493 17.25109,8.78389 13.81107,23.3624 -6.67003,28.15134 13.60007,50.16437 27.01414,73.73847 2.80001,5.00093 15.90208,22.992 15.63708,27.54275 -0.60001,9.65687 5.69002,21.45742 8.02004,30.85011 4.15002,16.74788 -3.92002,38.7609 -11.16506,55.50879 -6.19003,14.20802 -8.89004,19.68475 -5.87003,36.27394 1.59001,8.57189 -12.38306,13.99632 -18.73309,17.19768 -12.46206,6.24392 -12.96407,23.04491 -20.4251,35.45375 -5.58003,9.31288 -16.69609,13.54653 -20.53211,23.15071 -5.26002,13.01733 -9.34004,25.10868 -15.34607,37.72912 -4.87003,10.18637 -1.72001,119.1138891 -3.92002,119.1138891 -83.92642,0 -169.22784,4.3919443 -252.94226,-1.85197647 -28.76114,-2.16997243 -59.9023,3.41295667 -77.15338,26.19336737 -5.72003,7.487905 -16.56308,25.584876 -28.09914,17.568077 -2.70001,-1.851976 -3.36002,-10.636065 -7.96004,-9.365881 -6.67003,1.851977 -12.30306,6.005924 -19.4201,6.084923 0.80001,-7.698902 -0.027,-15.266306 -2.59001,-22.595113 z"
       id="ug" />
  </g>
</svg>
