<?xml version="1.0" encoding="UTF-8" standalone="no"?>
<!-- Created with Inkscape (http://www.inkscape.org/) -->

<svg
   xmlns:dc="http://purl.org/dc/elements/1.1/"
   xmlns:cc="http://creativecommons.org/ns#"
   xmlns:rdf="http://www.w3.org/1999/02/22-rdf-syntax-ns#"
   xmlns:svg="http://www.w3.org/2000/svg"
   xmlns="http://www.w3.org/2000/svg"
   xmlns:sodipodi="http://sodipodi.sourceforge.net/DTD/sodipodi-0.dtd"
   xmlns:inkscape="http://www.inkscape.org/namespaces/inkscape"
   width="1399mm"
   height="783.29999mm"
   viewBox="0 0 1398.9999 783.30007"
   version="1.1"
   id="svg7070"
   inkscape:version="0.92.4 (5da689c313, 2019-01-14)"
   sodipodi:docname="ukraine.svg">
  <defs
     id="defs7064" />
  <sodipodi:namedview
     id="base"
     pagecolor="#ffffff"
     bordercolor="#666666"
     borderopacity="1.0"
     inkscape:pageopacity="0.0"
     inkscape:pageshadow="2"
     inkscape:zoom="1.4"
     inkscape:cx="21.81249"
     inkscape:cy="-52.141349"
     inkscape:document-units="mm"
     inkscape:current-layer="layer1"
     showgrid="false"
     inkscape:window-width="958"
     inkscape:window-height="1008"
     inkscape:window-x="-7"
     inkscape:window-y="0"
     inkscape:window-maximized="0" />
  <metadata
     id="metadata7067">
    <rdf:RDF>
      <cc:Work
         rdf:about="">
        <dc:format>image/svg+xml</dc:format>
        <dc:type
           rdf:resource="http://purl.org/dc/dcmitype/StillImage" />
        <dc:title />
      </cc:Work>
    </rdf:RDF>
  </metadata>
  <g
     inkscape:label="Layer 1"
     inkscape:groupmode="layer"
     id="layer1"
     transform="translate(-151.60688,728.48339)">
    <path
       inkscape:connector-curvature="0"
       style="fill:#ffffff;stroke-width:26.45828438"
       d="m 151.93274,-342.54066 c -2.72995,-17.75375 12.38179,-29.97772 19.63166,-44.71523 8.11985,-16.51023 11.77379,-29.34261 33.3634,-14.1289 0.89999,-6.56209 -2.16996,-9.36613 -7.13987,-12.77958 -7.13987,-4.92107 -4.12993,-16.13983 -7.16987,-23.57473 -9.91983,-24.10384 10.15982,-40.24367 26.11353,-56.96551 13.17677,-13.78499 26.72253,-30.00422 43.10024,-40.00557 18.22968,-11.13915 40.21629,-18.91806 15.68972,-40.69357 4.80992,-2.09003 9.54983,-4.33906 14.23375,-6.7201 -20.55764,-4.68306 -49.44912,-48.97509 -48.04715,-69.26888 1.18998,-17.48924 25.02956,0.50001 34.76538,-4.60406 8.99984,-4.73607 17.0657,-11.69477 22.6746,-20.02929 7.08988,-10.50414 24.76456,-7.7261 35.34737,-7.77911 23.81258,-0.11 47.78316,-2.17003 71.54273,-3.06904 21.08663,-0.79001 38.09933,6.8001 57.75698,11.77407 9.65983,2.43403 40.34828,-0.66001 47.25416,6.9591 7.19987,8.01711 14.15475,16.53663 26.21953,12.54137 10.39782,-3.44005 18.04468,6.4821 27.22552,8.81113 1.55997,-14.0232 6.98988,-6.13809 18.62567,-7.43511 8.59985,-0.98001 16.13971,-1.40202 23.60058,4.02206 5.25991,3.86305 13.04377,-3.33405 19.23466,-0.77001 5.9299,2.46103 6.18989,12.22397 12.62078,15.10791 -2.16997,-17.01294 18.30867,-22.59572 30.79745,-15.95452 13.17577,6.9851 12.54078,26.56447 31.93443,12.51497 5.6399,-4.04805 10.13282,-4.23306 16.53571,-1.03201 8.24985,4.12706 19.23466,-4.55106 28.46849,-2.54004 5.7999,1.24302 30.90346,31.11544 34.47539,15.47832 4.38992,-19.31487 -12.25078,-25.55906 -1.23998,-46.77896 7.79987,-15.08151 21.69562,-33.23217 40.08329,-24.15684 2.87995,1.42902 14.28775,-4.41906 17.0397,-5.08007 8.56985,-2.14303 20.61063,-1.24402 29.23548,0.16 19.55265,3.22804 40.26929,7.85811 38.23132,-21.72261 15.13373,1.05802 29.34248,11.05976 44.39621,4.55107 7.37987,-3.20105 15.31973,-7.1171 23.41559,-7.96412 9.86982,-1.03201 13.99575,6.6941 22.06561,6.7731 6.2999,0.0794 9.7398,-5.76808 15.7957,-5.60908 9.5798,0.29 21.6426,12.25037 25.9026,20.02928 8.2798,15.26662 27.6215,23.44244 33.9714,37.70364 -6.2199,3.86305 -19.4197,3.41305 -24.2086,8.54612 -2.75,3.01604 25.9015,31.96215 13.3607,39.37056 10.4779,3.46604 43.7083,10.79515 54.1861,7.6201 16.9327,-5.10607 20.9016,14.2348 36.6443,13.38819 -5.9299,11.08616 8.1199,18.89147 11.2708,28.0991 4.23,12.43558 -1.2199,22.83392 10.8208,33.23217 12.1978,10.55705 22.5956,-1.11102 35.1894,-2.27503 14.7898,-1.34902 22.8066,14.79041 37.7813,13.44099 12.0388,-1.08502 8.6799,10.23954 23.4686,1.32302 12.1708,-7.35511 26.7756,-5.10607 39.6603,-12.22388 12.7258,-7.0381 22.1456,9.04913 28.0985,17.70085 9.4399,13.7056 29.7385,16.98645 36.3004,32.46486 19.6046,-11.27146 10.6888,-19.10327 34.4744,-6.64109 12.3028,6.42909 45.3222,20.29389 55.535,8.33412 8.8098,17.56855 22.7796,7.0641 32.7814,18.91797 4.9199,5.87408 13.0168,10.34534 20.5046,11.74766 9.3899,1.74603 17.4357,-6.9581 25.7436,-2.93704 -11.7208,11.21856 12.4878,34.18468 -7.5899,50.24511 -5.7399,4.60407 -18.7057,2.43404 -13.4137,13.6262 6.9098,14.6052 20.9806,-1.98403 22.6476,15.13441 -10.0269,-2.99004 -27.2776,6.45609 -21.6687,19.05027 1.93,4.31306 33.9194,15.18731 17.4617,27.17308 3.49,2.83104 7.4099,3.67806 11.7738,2.51404 1.11,5.42408 -7.3299,32.38546 -10.1598,37.83593 -8.4699,16.45734 -32.4634,3.65106 -47.8622,6.7201 -8.9998,1.79903 -16.6417,-3.83605 -25.5055,0.58001 -8.8098,4.41806 -9.1798,15.37252 -20.0286,19.28837 -6.2399,2.24903 -17.0647,3.67805 -18.8637,11.80057 -2.43,11.27146 -6.0099,20.82299 4.7099,22.96622 -6.3999,5.63608 0.2,14.97562 -7.6499,19.47358 -9.4998,5.50308 -33.6814,-0.13 -45.1372,1.95803 -11.2978,2.09003 -12.8057,14.2348 -24.5265,15.13441 -13.7848,1.05802 -30.1095,8.25512 -33.5754,23.09843 -6.3499,-10.60995 -20.9807,-9.79014 -30.4265,-4.39206 -15.9537,9.10212 -27.0925,4.57706 -43.9462,9.63113 -28.1775,8.44012 -32.6494,48.04908 -61.0379,55.24578 1.14,-4.86807 40.9033,-35.3488 9.3698,-39.50276 11.0068,15.95453 -10.2388,18.97087 -19.7376,25.37386 -13.8378,9.31314 8.6298,40.243673 14.9487,48.816295 11.4558,15.53132 56.223,68.6338713 67.8118,26.643977 9.0998,10.530549 14.8687,7.355104 25.2665,1.931027 13.8378,-7.197102 30.7975,-0.320004 41.9623,8.996128 -13.3878,1.773025 -13.1498,8.255116 -12.9378,19.341273 0.2,13.5997929 -12.1178,12.9647839 -22.5686,14.1554008 -11.3238,1.2970183 -17.5417,0.7900112 -27.8595,-4.9210698 -6.2499,-3.440049 -14.8697,-8.864125 -22.4366,-5.874083 -7.4898,2.963042 -3.4399,10.7951528 -8.0398,12.647279 -11.1918,4.47106329 -17.6477,15.610621 -29.5535,17.303945 -16.1397,2.276032 -30.3745,0.69001 -42.9412,13.308788 -21.5367,21.722608 -61.568,47.810877 -85.0095,8.837125 16.8807,3.836055 21.1136,-53.02325 -4.8899,-56.859804 -14.3668,-2.11703 -21.9067,-7.303104 -34.0514,-14.578707 -11.3768,-6.747095 -21.8537,-1.958028 -33.8394,-3.440048 -18.20272,-2.302033 22.3836,-29.342716 28.6804,-31.856351 12.4088,-4.94807 55.2971,-11.853468 59.16,-26.881981 -10.6358,0.320005 -12.3828,-10.292444 -12.6208,-18.494664 -12.3288,6.9321 -9.2098,8.65212 -24.9755,0.87001 -12.9388,-6.37609 -30.3745,0.45001 -44.6352,0.69001 -15.39777,0.26001 -25.0556,1.93103 -39.18335,-5.87408 -12.17078,-6.72009 -25.87654,-17.67445 -40.69228,-13.33519 43.84023,-17.30404 -11.1658,-10.68935 -21.85461,-26.03537 27.43651,13.46749 64.13386,9.65714 87.33745,-7.5671 -15.66272,4.44506 -36.88234,12.14457 -50.7721,-1.64003 -10.47781,-10.37184 -2.50995,-28.04619 -13.89075,-38.68264 8.88984,11.66826 6.05989,22.75452 6.29989,35.7457 0.19999,9.92214 -22.7006,3.62505 -28.1245,7.1171 -3.01995,-5.76808 -2.74995,-11.37726 0.79998,-16.80124 -6.87988,1.42903 -8.11985,10.58345 -11.48279,15.37252 -4.75992,6.7201 -18.59967,0.37001 -25.71655,1.58803 -30.40046,5.26507 -25.74354,34.18458 -43.49723,52.81154 -1.63997,-8.83712 -18.46767,-35.4811 -30.24146,-26.90848 4.33992,12.35618 23.52158,13.41449 27.14552,25.82367 4.30992,14.658105 -36.85535,41.698887 -47.35916,47.308167 9.51983,-6.35009 21.45762,-13.097086 24.39457,-25.215157 -11.11281,0.820012 -31.45844,37.677233 -33.7344,11.774167 -5.25991,5.794082 -12.61978,24.500746 4.17992,16.801237 -2.05996,2.725039 -3.96993,5.530079 -5.81989,8.41412 11.85278,1.693024 18.41467,24.341944 5.02991,28.575404 8.06985,-31.671148 -33.04642,-19.07677 -49.13213,-14.446504 -20.58464,5.900083 -30.90345,17.489247 -52.62507,5.927083 -3.61993,-1.931027 -26.45753,-20.849495 -9.01984,-20.981797 20.87463,-0.190002 12.91177,-14.314102 22.7796,-26.590976 10.87481,-13.573292 30.87645,-23.812834 28.0455,-43.974424 -2.48996,-17.67435 -10.58281,-23.94504 11.2718,-31.88265 1.79997,5.08007 3.75993,10.13364 5.8499,15.13431 12.56777,-25.87656 50.16411,17.35695 68.94877,-2.51303 -8.16985,-2.51404 -11.4028,-8.20212 -19.12866,-11.40376 23.09759,-8.20212 -13.41376,-43.18061 -25.00255,-35.50751 -5.8999,3.88906 -36.59135,-15.16091 -11.11281,-26.22067 7.80986,-3.36004 7.21987,-24.31554 -8.96984,-16.19273 -4.65992,2.32804 -10.55681,-23.17782 -12.77877,-26.53807 -5.6899,-8.57212 -10.05482,-17.40975 -13.94375,-27.8874 -7.03988,-18.97096 -16.21872,-3.25404 -26.08754,-17.30404 -6.16989,-8.78413 -25.71654,-21.61681 -29.39448,-4.60407 -2.61995,-15.08151 -12.11778,5.50308 -14.94873,-9.04912 -17.0917,8.07011 -35.50637,-19.36778 -49.90012,-25.29456 -18.54667,-7.62011 -38.04632,7.4881 -57.91597,5.68908 -6.92988,-0.61001 -14.78974,0.24 -12.40878,9.44613 -6.60988,-1.16401 -15.71572,3.14905 -21.64261,5.37108 -5.8499,2.19603 -14.04876,4.23306 -16.40371,10.87455 -5.44991,15.34612 -13.46676,14.0496 -29.20949,15.45192 -19.47265,1.74603 -40.61227,-1.98403 -54.90002,14.1025 -21.06063,23.68054 -32.51642,-5.34508 -52.51907,-11.80057 -9.54983,-3.09604 -20.39864,0.26001 -29.97647,1.40202 -11.90578,1.42902 -18.04468,-2.51403 -29.26248,-4.44506 -11.40279,-1.95803 -22.5686,1.93103 -32.78141,-5.21207 -17.0127,-11.90647 -19.31366,3.06904 -34.87139,7.0381 -0.39999,-18.04486 -17.64768,-10.95396 -26.66952,-20.8759 -6.31989,-7.0121 -9.97983,-3.94206 -16.16572,-8.52012 -7.03987,-5.23907 -8.54984,-12.91188 -18.59967,-15.21382 z"
       id="ua" />
  </g>
</svg>
