<?xml version="1.0" encoding="UTF-8" standalone="no"?>
<!-- Created with Inkscape (http://www.inkscape.org/) -->

<svg
   xmlns:dc="http://purl.org/dc/elements/1.1/"
   xmlns:cc="http://creativecommons.org/ns#"
   xmlns:rdf="http://www.w3.org/1999/02/22-rdf-syntax-ns#"
   xmlns:svg="http://www.w3.org/2000/svg"
   xmlns="http://www.w3.org/2000/svg"
   xmlns:sodipodi="http://sodipodi.sourceforge.net/DTD/sodipodi-0.dtd"
   xmlns:inkscape="http://www.inkscape.org/namespaces/inkscape"
   width="8721mm"
   height="5071.7002mm"
   viewBox="0 0 8721 5071.7002"
   version="1.1"
   id="svg7070"
   inkscape:version="0.92.4 (5da689c313, 2019-01-14)"
   sodipodi:docname="united_states_of_america.svg">
  <defs
     id="defs7064" />
  <sodipodi:namedview
     id="base"
     pagecolor="#ffffff"
     bordercolor="#666666"
     borderopacity="1.0"
     inkscape:pageopacity="0.0"
     inkscape:pageshadow="2"
     inkscape:zoom="1.4"
     inkscape:cx="436.72291"
     inkscape:cy="69.44359"
     inkscape:document-units="mm"
     inkscape:current-layer="layer1"
     showgrid="false"
     inkscape:window-width="958"
     inkscape:window-height="991"
     inkscape:window-x="-8"
     inkscape:window-y="0"
     inkscape:window-maximized="0" />
  <metadata
     id="metadata7067">
    <rdf:RDF>
      <cc:Work
         rdf:about="">
        <dc:format>image/svg+xml</dc:format>
        <dc:type
           rdf:resource="http://purl.org/dc/dcmitype/StillImage" />
        <dc:title />
      </cc:Work>
    </rdf:RDF>
  </metadata>
  <g
     inkscape:label="Layer 1"
     inkscape:groupmode="layer"
     id="layer1"
     transform="translate(-15.531537,4948.157)">
    <path
       style="fill:#ffffff;stroke-width:26.4582901"
       inkscape:connector-curvature="0"
       id="path3780"
       d="m 4454.5555,-2734.4344 c -0.42,-4.4451 0.42,-8.6521 2.54,-12.6207 -5.821,3.387 -10.1071,9.208 -10.9273,15.9809 2.805,-1.138 5.609,-2.249 8.387,-3.36 z" />
    <path
       style="fill:#ffffff;stroke-width:26.4582901"
       inkscape:connector-curvature="0"
       id="path3782"
       d="m 4465.4827,-2765.523 c -3.625,1.455 -5.318,4.26 -5.027,8.414 1.667,-2.805 3.36,-5.609 5.027,-8.414 z" />
    <path
       style="fill:#ffffff;stroke-width:26.4582901"
       inkscape:connector-curvature="0"
       id="path3784"
       d="m 4509.1917,-2816.7994 c -10.3717,-6.403 -15.0018,6.906 -7.567,13.4408 -3.5449,-7.064 0.66,-11.8533 7.567,-13.4408 z" />
    <path
       style="fill:#ffffff;stroke-width:26.4582901"
       inkscape:connector-curvature="0"
       id="path3818"
       d="m 4503.2915,-2832.7538 c 7.329,8.625 -3.096,6.456 -8.0699,9.922 -8.255,5.768 -2.117,14.6579 -7.911,22.0133 12.4618,-0.66 10.3188,12.6472 0,14.2876 -12.5411,-18.4415 -1.217,-36.5919 15.9808,-46.2228 z" />
    <path
       style="fill:#ffffff;stroke-width:26.4582901"
       inkscape:connector-curvature="0"
       id="path3764"
       d="m 3903.246,-1388.8407 c 0.29,-3.36 0.56,-6.72 0.85,-10.08 -5.688,1 -11.2977,2.35 -16.801,4.18 2.831,7.14 8.996,11.033 15.9543,5.9 z" />
    <path
       style="fill:#ffffff;stroke-width:26.4582901"
       inkscape:connector-curvature="0"
       id="path3766"
       d="m 3920.047,-1402.3607 c -10.4775,16.245 20.4257,7.83 26.0612,1.69 -8.6249,5.98 -17.4095,-0.4 -26.0612,-1.69 z" />
    <path
       style="fill:#ffffff;stroke-width:26.4582901"
       inkscape:connector-curvature="0"
       id="path3768"
       d="m 3988.1239,-1292.2675 c -1.402,0 -2.805,0 -4.207,0 0.56,6.75 3.334,12.356 8.414,16.828 0.77,-6.14 -0.63,-11.748 -4.207,-16.828 z" />
    <path
       style="fill:#ffffff;stroke-width:26.4582901"
       inkscape:connector-curvature="0"
       id="path3770"
       d="m 4003.258,-1343.4646 c 6.4559,5.45 7.7519,20.876 19.3145,15.134 -1.217,-10.636 -11.2183,-11.906 -19.3145,-15.134 z" />
    <path
       style="fill:#ffffff;stroke-width:26.4582901"
       inkscape:connector-curvature="0"
       id="path3820"
       d="m 5632.0247,-742.56848 c 7.223,-7.54001 13.3879,-16.08603 18.4943,-25.21404 -12.303,13.73202 -34.6867,30.66505 -33.6284,51.27609 4.233,-9.15002 9.6569,-17.64803 15.1341,-26.06205 z" />
    <path
       style="fill:#ffffff;stroke-width:26.4582901"
       inkscape:connector-curvature="0"
       id="path3822"
       d="m 5689.1744,-807.3116 c 0,1.96 0,3.92001 0,5.90001 11.3242,-8.39001 24.712,-13.94302 34.4487,-24.36804 -11.7475,5.66001 -22.6218,12.99102 -34.4487,18.46803 z" />
    <path
       style="fill:#ffffff;stroke-width:26.4582901"
       inkscape:connector-curvature="0"
       id="path4840"
       d="m 4479.7701,-2853.7618 c -8.8369,1.402 -11.5357,8.493 -5.0269,15.1078 6.9319,-2.752 9.9479,-8.6781 5.0269,-15.1078 z" />
    <path
       style="fill:#ffffff;stroke-width:26.4582901"
       inkscape:connector-curvature="0"
       id="path4844"
       d="m 4503.2915,-2863.8689 c -6.2969,2.222 -11.6151,5.874 -15.9808,10.9273 7.223,1.852 21.7751,0.48 15.9808,-10.9273 z" />
    <path
       style="fill:#ffffff;stroke-width:26.4582901"
       inkscape:connector-curvature="0"
       id="path4846"
       d="m 4494.9043,-2848.7347 c -3.202,2.249 -5.133,5.318 -5.874,9.2341 1.958,-3.069 3.916,-6.1651 5.874,-9.2341 z" />
    <path
       style="fill:#ffffff;stroke-width:26.4582901"
       inkscape:connector-curvature="0"
       id="path4852"
       d="m 4520.1189,-2866.3824 c -0.56,2.831 -0.29,5.636 0.85,8.387 -0.29,-2.805 -0.58,-5.583 -0.85,-8.387 z" />
    <path
       style="fill:#ffffff;stroke-width:26.4582901"
       inkscape:connector-curvature="0"
       id="path3836"
       d="m 6710.3022,-958.57389 c -6.932,-3.55 -3.783,-12.85902 -0.85,-17.64803 -2.011,5.98001 -1.72,11.88002 0.85,17.64803 z" />
    <path
       style="fill:#ffffff;stroke-width:26.4582901"
       inkscape:connector-curvature="0"
       id="path3860"
       d="m 7077.5684,-1085.4691 c -2.461,6.19 -5.53,12.092 -9.2599,17.648 0.66,-7.17 3.7569,-13.017 9.2599,-17.648 z" />
    <path
       style="fill:#ffffff;stroke-width:26.4582901"
       inkscape:connector-curvature="0"
       id="path3824"
       d="m 5881.605,-919.04581 c -7.303,6.88001 -16.51,11.27202 -23.5214,18.49503 11.5622,-6.96001 23.9712,-13.01802 33.6283,-22.70104 -3.36,1.4 -6.72,2.80001 -10.1069,4.21001 z" />
    <path
       style="fill:#ffffff;stroke-width:26.4582901"
       inkscape:connector-curvature="0"
       id="path3826"
       d="m 6158.9398,-945.97986 c -5.265,-10.39802 -18.8911,-6.11001 -26.0349,-0.8 8.0169,5.66001 19.1822,12.14502 26.0349,0.8 z" />
    <path
       style="fill:#ffffff;stroke-width:26.4582901"
       inkscape:connector-curvature="0"
       id="path3828"
       d="m 6199.2886,-913.1978 c 11.0065,-23.73304 -26.0614,2.80001 0,0 z" />
    <path
       style="fill:#ffffff;stroke-width:26.4582901"
       inkscape:connector-curvature="0"
       id="path3830"
       d="m 6386.7184,-1002.31 c -2.805,1.67 -5.583,3.36004 -8.387,5.03004 8.202,6.32001 10.9802,4.66001 8.387,-5.03004 z" />
    <path
       style="fill:#ffffff;stroke-width:26.4582901"
       inkscape:connector-curvature="0"
       id="path3838"
       d="m 6729.6167,-952.72687 c 10.8214,4.84 25.585,-6.01002 34.4485,-10.95403 -7.17,6.24002 -24.659,17.78004 -34.4485,10.95403 z" />
    <path
       style="fill:#ffffff;stroke-width:26.4582901"
       inkscape:connector-curvature="0"
       id="path3862"
       d="m 7079.2618,-820.72562 c -0.29,2.8 -0.56,5.61001 -0.85,8.41001 -2.646,-11.19202 -4.604,-23.91804 3.36,-33.62806 5.98,8.39001 -0.32,17.06503 -2.514,25.21505 z" />
    <path
       style="fill:#ffffff;stroke-width:26.4582901"
       inkscape:connector-curvature="0"
       id="path3864"
       d="m 7088.4957,-771.98953 c 5.0539,19.44703 8.6249,40.34907 7.5669,60.53611 -3.572,-19.92304 -8.8369,-40.08407 -7.5669,-60.53611 z" />
    <path
       style="fill:#ffffff;stroke-width:26.4582901"
       inkscape:connector-curvature="0"
       id="path3856"
       d="m 7053.2004,-518.17405 c -9.3399,12.43502 -19.8172,23.78604 -31.0883,34.47506 10.3186,-9.23001 15.6367,-32.14706 31.0883,-34.47506 z" />
    <path
       style="fill:#ffffff;stroke-width:26.4582901"
       inkscape:connector-curvature="0"
       id="path3840"
       d="m 6908.6329,-666.97633 c -0.56,2.78 -1.111,5.58001 -1.693,8.39001 0.34,-2.86 0.9,-5.63001 1.693,-8.39001 z" />
    <path
       style="fill:#ffffff;stroke-width:26.4582901"
       inkscape:connector-curvature="0"
       id="path3842"
       d="m 6910.2998,-638.40128 c 2.8049,2.25 5.6089,4.47001 8.3869,6.72001 -3.545,0.5 -12.8586,-6.59001 -8.3869,-6.72001 z" />
    <path
       style="fill:#ffffff;stroke-width:26.4582901"
       inkscape:connector-curvature="0"
       id="path3844"
       d="m 6917.0465,-636.65528 c -0.32,-5.98001 -1.164,-11.85302 -2.514,-17.67403 4.101,5.50001 4.948,11.37702 2.514,17.67403 z" />
    <path
       style="fill:#ffffff;stroke-width:26.4582901"
       inkscape:connector-curvature="0"
       id="path3848"
       d="m 6931.3076,-641.70829 c 3.0959,-7.75001 9.7369,-13.57302 17.6476,-15.98103 -6.668,4.50001 -11.0331,11.43003 -17.6476,15.98103 z" />
    <path
       style="fill:#ffffff;stroke-width:26.4582901"
       inkscape:connector-curvature="0"
       id="path3872"
       d="m 7697.0078,-1519.1219 c -4.445,0.8 -8.943,1.11 -13.4937,0.8 22.4895,-6.8001 28.5749,-32.6761 31.9351,-52.9431 -1.826,18.229 -6.403,37.756 -18.4414,52.1221 z" />
    <path
       style="fill:#ffffff;stroke-width:26.4582901"
       inkscape:connector-curvature="0"
       id="path3874"
       d="m 7993.6042,-2062.974 c -3.254,6.17 -8.969,11.06 -15.8749,12.621 2.514,-6.62 8.2549,-12.674 15.8749,-12.621 z" />
    <path
       style="fill:#ffffff;stroke-width:26.4582901"
       inkscape:connector-curvature="0"
       id="path3876"
       d="m 8048.2404,-2065.408 c -2.858,0.6 -40.9573,3.41 -16.8009,5.87 -8.837,2.2 -18.2033,1 -26.8552,4.18 19.341,-6.03 -2.143,-3.31 -8.3869,-5.87 10.0805,-14.023 15.1605,-15.558 31.1412,-19.844 8.89,-2.41 12.2502,-10.61 22.3307,-10.848 7.752,-0.2 15.2399,2.54 22.9922,2.12 11.9062,-0.6 24.421,-5.29 37.1209,-6.06 19.3409,-1.22 32.1996,-14.6851 50.297,-19.1561 -12.356,6.56 -23.8123,14.7111 -35.2688,22.7011 10.5569,6.06 15.0282,-4.76 23.151,-8.81 10.398,-5.1901 26.4582,-1.4 38.1527,-5.5001 -36.9092,31.8821 -92.736,31.0621 -137.8737,41.2221 z" />
    <path
       style="fill:#ffffff;stroke-width:26.4582901"
       inkscape:connector-curvature="0"
       id="path4104"
       d="m 8261.7316,-2162.1132 c -1.455,7.3801 -6.2709,13.7321 -12.6205,17.6481 0.93,-6.91 4.551,-16.2991 12.6205,-17.6481 z" />
    <path
       style="fill:#ffffff;stroke-width:26.4582901"
       inkscape:connector-curvature="0"
       id="path4106"
       d="m 8309.5945,-2145.3121 c 4.974,14.208 -17.5418,12.012 -25.1088,11.774 8.546,-3.47 15.0017,-12.515 25.1088,-11.774 z" />
    <path
       style="fill:#ffffff;stroke-width:26.4582901"
       inkscape:connector-curvature="0"
       id="path4108"
       d="m 8347.4033,-2123.4841 c -6.191,0.6 -12.0649,-0.6 -17.6212,-3.33 7.6459,-1.38 19.8172,-0.5 19.3674,-11.774 2.117,5.37 1.535,10.452 -1.746,15.108 z" />
    <path
       style="fill:#ffffff;stroke-width:26.4582901"
       inkscape:connector-curvature="0"
       id="path4110"
       d="m 8553.4337,-2435.2431 c -1.99,2.805 -3.97,5.583 -5.95,8.414 0.2,-4.26 2.14,-7.038 5.95,-8.414 z" />
    <path
       style="fill:#ffffff;stroke-width:26.4582901"
       inkscape:connector-curvature="0"
       id="path4112"
       d="m 8568.4876,-2426.0356 c 0.3,6.6941 -3.33,10.3983 -10.054,10.0808 1.27,-5.4771 4.63,-8.8371 10.054,-10.0808 z" />
    <path
       style="fill:#ffffff;stroke-width:26.4582901"
       inkscape:connector-curvature="0"
       id="path4114"
       d="m 8584.4685,-2417.5423 c -3.07,1.111 -6.14,2.249 -9.21,3.36 2.88,-1.64 5.95,-2.778 9.21,-3.36 z" />
    <path
       style="fill:#ffffff;stroke-width:26.4582901"
       inkscape:connector-curvature="0"
       id="path4116"
       d="m 8606.2964,-2441.937 c 6.85,10.8479 -9.37,14.9225 -15.1599,20.1612 -7.7,-9.26 4.7599,-23.4685 15.1599,-20.1612 z" />
    <path
       style="fill:#ffffff;stroke-width:26.4582901"
       inkscape:connector-curvature="0"
       id="path4190"
       d="m 7161.5997,-2728.5342 c -0.29,-1.958 -0.56,-3.916 -0.85,-5.9 7.752,-1.217 19.8701,3.519 21.0078,-8.3871 -17.3565,-2.249 -41.751,2.672 -56.594,12.2239 -5.027,3.228 -16.5628,9.895 -18.3356,16.2454 -2.328,8.334 8.2549,7.144 11.9327,4.313 -6.562,2.461 -10.9802,7.885 -8.387,15.1342 14.5785,-14.2611 31.644,-27.1728 51.2231,-33.6286 z" />
    <path
       style="fill:#ffffff;stroke-width:26.4582901"
       inkscape:connector-curvature="0"
       id="path4192"
       d="m 7164.1397,-2810.079 c -9.128,-5.503 -73.157,19.2882 -68.8972,32.782 24.2357,-7.435 45.0054,-24.9768 68.8972,-32.782 z" />
    <path
       style="fill:#ffffff;stroke-width:26.4582901"
       inkscape:connector-curvature="0"
       id="path4194"
       d="m 7447.3482,-2607.54 c -6.5879,4.207 -12.4882,9.26 -17.6476,15.1341 11.2448,-0.87 28.9718,1.852 17.6476,-15.1341 z" />
    <path
       style="fill:#ffffff;stroke-width:26.4582901"
       inkscape:connector-curvature="0"
       id="path4196"
       d="m 7280.9526,-2570.5512 c -0.85,-1.111 -1.693,-2.222 -2.54,-3.36 -5.503,4.63 -8.572,10.504 -9.234,17.6477 6.403,-2.143 11.1919,-7.408 11.7739,-14.2875 z" />
    <path
       style="fill:#ffffff;stroke-width:26.4582901"
       inkscape:connector-curvature="0"
       id="path4198"
       d="m 7098.5762,-2497.4202 c -9.9219,5.477 -7.17,22.3572 7.17,8.89 12.4882,-11.7211 23.0451,-25.2413 34.0252,-38.3118 -17.9651,2.5141 -26.2995,21.4578 -41.1955,29.4218 z" />
    <path
       style="fill:#ffffff;stroke-width:26.4582901"
       inkscape:connector-curvature="0"
       id="path3630"
       d="m 16.219003,-160.13938 c 3.91598,-9.05001 17.092014,-12.40902 16.801015,-23.52204 -6.931965,5.45001 -20.716795,12.25102 -16.801015,23.52204 z" />
    <path
       style="fill:#ffffff;stroke-width:26.4582901"
       inkscape:connector-curvature="0"
       id="path3632"
       d="m 84.269459,-169.42639 c 9.418953,-5.64001 31.882141,-37.73007 7.063964,-36.56607 -29.183352,1.4 -44.026377,31.35406 -7.063964,36.56607 z" />
    <path
       style="fill:#ffffff;stroke-width:26.4582901"
       inkscape:connector-curvature="0"
       id="path3634"
       d="m 211.18952,-107.17028 c 23.28318,3.94001 -1.111,-42.01507 -5.39698,-41.80407 -5.79397,0.3 -26.35236,9.60001 -26.29946,16.48403 0.13,16.40403 23.54778,15.87503 31.69694,25.32004 z" />
    <path
       style="fill:#ffffff;stroke-width:26.4582901"
       inkscape:connector-curvature="0"
       id="path3636"
       d="m 287.68013,-86.188235 c 7.59396,0.3 13.38783,-4.660009 12.62054,-12.594024 -13.49363,3.230006 -42.51829,-13.150021 -47.06906,8.390016 11.98553,-1.030002 22.93918,1.140002 34.44852,4.210008 z" />
    <path
       style="fill:#ffffff;stroke-width:26.4582901"
       inkscape:connector-curvature="0"
       id="path3638"
       d="m 276.75289,-55.126177 c 16.72161,-4.870009 3.99498,-22.569042 -9.25996,-16.801031 2.72499,5.79001 5.79397,11.403021 9.25996,16.801031 z" />
    <path
       style="fill:#ffffff;stroke-width:26.4582901"
       inkscape:connector-curvature="0"
       id="path3642"
       d="m 318.76857,-39.145146 c 9.23396,-3.650007 40.825,-3.280007 35.08353,-21.167041 -5.15898,-16.00703 -18.60011,-10.68902 -30.03005,-12.832024 -6.45597,-1.220002 -15.55742,-16.272031 -20.902,-6.300012 -4.60397,8.570016 -2.69898,13.282025 5.13298,18.494035 10.71564,7.140014 3.73098,12.779024 10.71564,21.802042 z" />
    <path
       style="fill:#ffffff;stroke-width:26.4582901"
       inkscape:connector-curvature="0"
       id="path3644"
       d="m 341.46966,123.07116 c 10.13345,3.47001 24.57967,-13.15002 30.95614,-18.83904 15.42512,-13.705021 35.40102,-13.626021 51.72574,-25.029043 18.04451,-12.621024 -1.58699,-21.51104 -6.21797,-35.137066 -2.59298,-7.590014 3.38699,-13.097025 -3.86298,-19.605037 -8.20196,-7.380014 -17.03911,-11.192021 -26.29946,-16.801032 -7.64597,-4.6600088 -25.02948,-20.320038 -31.22065,-5.6100106 -2.67198,6.350012 2.24899,10.3720196 1.349,16.3780306 -1.164,7.750015 -15.23993,13.838027 -20.3199,18.600036 -13.44073,12.621023 0.92999,32.967062 -1.191,48.207091 -2.35498,17.278031 -13.44073,25.718051 5.07998,37.836071 z" />
    <path
       style="fill:#ffffff;stroke-width:26.4582901"
       inkscape:connector-curvature="0"
       id="path3778"
       d="m 4442.808,-3474.8722 c -12.6205,3.307 -27.49,10.1864 -34.4485,21.8545 12.6469,-4.207 25.9555,-11.2183 34.4485,-21.8545 z" />
    <path
       style="fill:#ffffff;stroke-width:26.4582901"
       inkscape:connector-curvature="0"
       id="path4136"
       d="m 4402.4593,-3454.6845 c -4.5769,1.429 -7.3819,4.498 -8.4139,9.234 2.91,-2.99 5.7149,-6.085 8.4139,-9.234 z" />
    <path
       style="fill:#ffffff;stroke-width:26.4582901"
       inkscape:connector-curvature="0"
       id="path4134"
       d="m 4405.8195,-3642.936 c -10.0806,-6.271 -32.57,17.9653 -27.7282,27.7285 5.7149,-4.657 12.7529,-1.244 18.4943,-5.027 9.8429,-6.535 7.5139,-12.3561 9.2339,-22.7015 z" />
    <path
       style="fill:#ffffff;stroke-width:26.4582901"
       inkscape:connector-curvature="0"
       id="path4142"
       d="m 4232.677,-3511.8346 c -11.5886,-3.149 -21.6163,6.271 -26.0349,15.9808 7.885,-6.615 17.4624,-10.4775 26.0349,-15.9808 z" />
    <path
       style="fill:#ffffff;stroke-width:26.4582901"
       inkscape:connector-curvature="0"
       id="path4152"
       d="m 4240.2441,-3522.7619 c -3.836,1.746 -6.615,4.551 -8.414,8.414 2.805,-2.805 5.609,-5.609 8.414,-8.414 z" />
    <path
       style="fill:#ffffff;stroke-width:26.4582901"
       inkscape:connector-curvature="0"
       id="path4166"
       d="m 4288.1599,-3565.651 c -2.963,0.16 -5.794,1.005 -8.4139,2.54 2.8049,-0.82 5.6089,-1.667 8.4139,-2.54 z" />
    <path
       style="fill:#ffffff;stroke-width:26.4582901"
       inkscape:connector-curvature="0"
       id="path3772"
       d="m 4342.796,-3711.0398 c 5.874,-1.032 11.774,-2.143 17.6476,-3.334 -6.7469,2.09 -34.3691,12.8852 -11.7738,15.1077 -20.8226,5.583 -34.8719,17.7272 -50.4293,31.9353 13.5201,3.254 31.2206,-6.932 42.8622,-12.6206 6.932,-3.387 10.3452,-11.5359 17.6477,-14.2876 9.1019,-3.44 17.2243,0.74 25.2146,-6.72 -2.725,-2.064 -5.5029,-4.022 -8.3869,-5.874 12.6999,1.111 18.3884,-7.117 21.2195,-18.2298 1.905,-7.488 1.72,-17.0393 5.6879,-23.7862 3.466,-5.98 10.7686,-6.509 13.4408,-13.4408 4.8949,15.6898 -13.917,27.3315 -10.9272,42.8626 7.514,-14.2875 17.0655,-41.5132 28.5749,-52.123 -11.5094,0.32 -22.9393,-2.672 -34.4486,-0.85 1.1109,-5.583 2.2219,-11.1919 3.3599,-16.801 -9.5509,-1.111 -27.9133,25.7439 -8.4139,15.1341 -19.1293,19.3146 -39.1052,38.3118 -51.2761,63.0239 z" />
    <path
       style="fill:#ffffff;stroke-width:26.4582901"
       inkscape:connector-curvature="0"
       id="path3774"
       d="m 4362.1105,-3504.294 c 12.065,0.85 18.6795,-10.2923 26.0614,-17.6477 -3.916,6.324 -8.678,11.9327 -14.2874,16.8275 12.6205,-6.535 24.368,-12.8852 31.0883,-26.0616 -2.699,16.5366 -20.7432,26.1674 -35.2952,30.2685 10.0541,4.18 19.8701,-2.99 26.0613,-10.0807 -3.016,6.271 -8.44,11.3242 -15.1341,13.4409 18.2298,9.895 47.3866,-21.2196 57.0704,-33.417 5.4239,-6.8 12.9909,-20.611 5.7409,-28.7602 -12.1179,-13.6261 -27.7811,9.102 -40.9309,6.694 23.2039,1.032 -4.0479,7.567 -8.3869,8.414 21.4312,1.64 -0.82,4.815 -6.032,6.694 -5.424,1.958 -1.879,8.9961 -7.303,10.9803 -8.4929,3.096 -28.3631,10.3981 -18.653,22.6483 z" />
    <path
       style="fill:#ffffff;stroke-width:26.4582901"
       inkscape:connector-curvature="0"
       id="path3654"
       d="m 1473.5366,-3329.4835 c -13.0439,-22.1192 -58.4197,13.8378 -70.3259,20.0291 -31.0884,16.166 -65.0607,29.2364 -96.9428,44.6882 55.6416,-21.7753 114.7227,-35.5072 167.2687,-64.7173 z" />
    <path
       style="fill:#ffffff;stroke-width:26.4582901"
       inkscape:connector-curvature="0"
       id="path3656"
       d="m 1457.5823,-3305.9355 c 26.5641,2.99 56.4883,-14.2876 82.4967,-19.1824 14.4462,-2.725 60.0072,-13.335 66.2514,-28.7073 -5.742,1.984 -11.6152,3.387 -17.6476,4.207 10.3186,-6.482 47.4395,-10.3452 45.3757,-27.7549 -11.2711,6.3771 -23.3626,11.0068 -35.2952,15.9545 5.318,-5.424 10.0806,-11.3243 14.2874,-17.6478 -15.3193,0.26 -78.7132,20.6376 -34.4486,28.5751 -7.197,3.545 -14.3667,0.53 -21.8544,1.27 -8.4399,0.85 -12.8058,8.864 -21.8545,7.99 7.064,15.2929 -77.205,27.0141 -85.7245,31.0886 2.8049,1.402 5.6089,2.805 8.4139,4.207 z" />
    <path
       style="fill:#ffffff;stroke-width:26.4582901"
       inkscape:connector-curvature="0"
       id="path3658"
       d="m 1614.7176,-3349.6183 c 7.541,-3.148 15.0547,-6.826 21.0078,-12.5942 -8.0959,2.672 -18.6001,2.17 -21.0078,12.5942 z" />
    <path
       style="fill:#ffffff;stroke-width:26.4582901"
       inkscape:connector-curvature="0"
       id="path3660"
       d="m 1673.5606,-3380.7334 c 8.864,-4.392 19.3674,-3.493 27.7282,-9.26 -21.6428,2.196 6.403,-9.525 -13.1497,-8.149 -9.631,0.69 -21.1136,6.535 -23.8388,16.5365 3.096,0.32 6.1649,0.61 9.2599,0.87 z" />
    <path
       style="fill:#ffffff;stroke-width:26.4582901"
       inkscape:connector-curvature="0"
       id="path3662"
       d="m 1707.189,-3388.3005 c 8.0959,-5.212 14.7108,-12.3296 22.6746,-17.6477 -10.5303,0.19 -19.4203,7.911 -22.6746,17.6477 z" />
    <path
       style="fill:#ffffff;stroke-width:26.4582901"
       inkscape:connector-curvature="0"
       id="path3664"
       d="m 1719.7831,-3381.5536 c 1.614,-6.773 -1.191,-7.62 -8.414,-2.54 2.805,0.85 5.609,1.667 8.414,2.54 z" />
    <path
       style="fill:#ffffff;stroke-width:26.4582901"
       inkscape:connector-curvature="0"
       id="path3666"
       d="m 1752.5648,-3389.1471 c -6.1379,-0.79 -11.7474,0.61 -16.801,4.207 6.138,0.79 11.7475,-0.61 16.801,-4.207 z" />
    <path
       style="fill:#ffffff;stroke-width:26.4582901"
       inkscape:connector-curvature="0"
       id="path3668"
       d="m 1811.3813,-3436.1902 c -16.113,7.064 -14.6313,19.9233 3.466,19.6058 19.2351,-0.37 33.7342,-15.6635 51.9903,-19.6058 18.4944,-3.995 39.4756,3.254 56.9381,-5.45 2.6989,-1.349 11.6945,-7.779 15.2399,-5.847 6.8,3.704 17.2508,10.3452 19.4468,-2.143 -19.5261,2.831 -1.111,-18.4679 -0.85,-26.0614 -24.9237,-5.8211 -47.6248,12.9645 -71.5165,9.181 -25.1618,-4.022 -50.9586,24.7121 -74.7181,30.3212 z" />
    <path
       style="fill:#ffffff;stroke-width:26.4582901"
       inkscape:connector-curvature="0"
       id="path3670"
       d="m 1958.4625,-3424.4426 c -5.9,0.9 -8.043,1.587 -8.414,8.387 6.641,1.746 12.2237,0.079 16.8009,-5.053 -2.7779,-1.085 -5.5829,-2.223 -8.3869,-3.334 z" />
    <path
       style="fill:#ffffff;stroke-width:26.4582901"
       inkscape:connector-curvature="0"
       id="path3672"
       d="m 2049.2406,-3470.6654 c -7.2759,-0.71 -23.151,0.053 -17.6476,11.774 6.614,-2.805 12.5147,-6.72 17.6476,-11.774 z" />
    <path
       style="fill:#ffffff;stroke-width:26.4582901"
       inkscape:connector-curvature="0"
       id="path3730"
       d="m 3372.9178,-3885.8503 c -5.5829,-1.693 -13.3614,3.043 -17.6476,5.874 6.535,0.053 12.409,-1.905 17.6476,-5.874 z" />
    <path
       style="fill:#ffffff;stroke-width:26.4582901"
       inkscape:connector-curvature="0"
       id="path3732"
       d="m 3402.3394,-3987.5299 c -6.615,-3.493 -20.7697,8.996 -26.0614,11.774 8.89,-3.413 17.6212,-7.355 26.0614,-11.774 z" />
    <path
       style="fill:#ffffff;stroke-width:26.4582901"
       inkscape:connector-curvature="0"
       id="path3742"
       d="m 3647.7391,-3943.8206 c -8.5729,8.308 -21.0077,10.7156 -29.4215,19.3145 19.341,-2.778 39.5551,-8.599 55.0595,-21.0079 16.0601,-12.8588 40.7986,-9.6041 55.0595,-25.2149 -13.3878,2.672 -7.7789,-1.482 -1.667,-7.567 -24.4473,14.7108 -50.3235,30.3742 -79.0307,34.4753 z" />
    <path
       style="fill:#ffffff;stroke-width:26.4582901"
       inkscape:connector-curvature="0"
       id="path3746"
       d="m 3697.3218,-3982.4764 c 0.56,-2.222 1.111,-4.471 1.667,-6.694 -10.9537,1.64 -36.3535,16.7746 -36.9621,29.3952 8.6249,-8.731 22.4101,-21.6429 35.2952,-22.7013 z" />
    <path
       style="fill:#ffffff;stroke-width:26.4582901"
       inkscape:connector-curvature="0"
       id="path3748"
       d="m 3696.4752,-4013.5915 c -4.71,2.487 -6.932,2.911 -6.721,9.2341 2.249,-3.0691 4.498,-6.1651 6.721,-9.2341 z" />
    <path
       style="fill:#ffffff;stroke-width:26.4582901"
       inkscape:connector-curvature="0"
       id="path3752"
       d="m 3723.3832,-4028.6992 c -7.541,2.09 -14.1023,6.959 -19.341,12.5942 8.0699,-1.349 18.7589,-1.932 19.341,-12.5942 z" />
    <path
       style="fill:#ffffff;stroke-width:26.4582901"
       inkscape:connector-curvature="0"
       id="path3754"
       d="m 3803.234,-3979.9628 c -4.762,-7.276 -16.7481,-6.959 -24.077,-5.662 -5.424,0.95 -31.7234,9.869 -11.2183,9.869 -6.8529,1.217 -12.4618,4.604 -16.8009,10.0806 16.5628,-7.223 34.3428,-11.1919 52.0962,-14.2875 z" />
    <path
       style="fill:#ffffff;stroke-width:26.4582901"
       inkscape:connector-curvature="0"
       id="path3760"
       d="m 3891.4456,-3943.8206 c -12.8851,4.709 -27.0667,7.673 -37.8087,16.801 13.3349,-7.223 28.1515,-10.795 42.0156,-16.801 -1.376,0 -2.778,0 -4.207,0 z" />
    <path
       style="fill:#ffffff;stroke-width:26.4582901"
       inkscape:connector-curvature="0"
       id="path3700"
       d="m 2824.9421,-3626.1348 c -9.7899,-0.66 -19.6849,0.95 -26.0349,9.234 9.763,2.54 19.4203,-2.408 26.0349,-9.234 z" />
    <path
       style="fill:#ffffff;stroke-width:26.4582901"
       inkscape:connector-curvature="0"
       id="path3706"
       d="m 2967.8428,-3675.7443 c -13.864,-8.149 -40.1635,-5.292 -43.7089,13.4408 14.499,-4.683 28.7072,-10.2923 43.7089,-13.4408 z" />
    <path
       style="fill:#ffffff;stroke-width:26.4582901"
       inkscape:connector-curvature="0"
       id="path3712"
       d="m 3047.6672,-3769.8568 c -5.371,1.058 -9.551,3.836 -12.6206,8.414 5.9,1.852 11.774,1.852 17.6477,0 -1.667,-2.805 -3.36,-5.609 -5.0271,-8.414 z" />
    <path
       style="fill:#ffffff;stroke-width:26.4582901"
       inkscape:connector-curvature="0"
       id="path3718"
       d="m 3088.8626,-3751.3624 c -4.26,-1.535 -3.334,-3.096 -8.414,1.693 2.805,-0.58 5.609,-1.138 8.414,-1.693 z" />
    <path
       style="fill:#ffffff;stroke-width:26.4582901"
       inkscape:connector-curvature="0"
       id="path3720"
       d="m 3162.8133,-3812.7194 c -9.208,-5.503 -21.8016,2.778 -26.0614,10.9273 9.446,-1.349 18.7324,-4.604 26.0614,-10.9273 z" />
    <path
       style="fill:#ffffff;stroke-width:26.4582901"
       inkscape:connector-curvature="0"
       id="path3722"
       d="m 3149.3461,-3814.3863 c -3.307,0.87 -6.377,2.249 -9.234,4.18 3.069,-1.402 6.165,-2.805 9.234,-4.18 z" />
    <path
       style="fill:#ffffff;stroke-width:26.4582901"
       inkscape:connector-curvature="0"
       id="path3724"
       d="m 3165.3268,-3779.9374 c -3.678,0.87 -6.747,2.831 -9.26,5.874 3.096,-1.958 6.165,-3.916 9.26,-5.874 z" />
    <path
       style="fill:#ffffff;stroke-width:26.4582901"
       inkscape:connector-curvature="0"
       id="path3674"
       d="m 2105.5171,-3487.4665 c -4.8149,-2.434 -9.2869,-1.878 -13.4407,1.693 9.578,-5.292 11.2713,-3.307 5.053,5.874 2.805,-2.514 5.609,-5.054 8.3869,-7.567 z" />
    <path
       style="fill:#ffffff;stroke-width:26.4582901"
       inkscape:connector-curvature="0"
       id="path3676"
       d="m 2209.7625,-3511.8346 c -14.2874,0.32 -26.7492,11.2183 -32.7817,23.5214 5.318,-1.164 11.8003,1.905 16.7745,-0.24 8.758,-3.836 16.5628,-16.5365 24.3945,-22.4367 -4.868,4.895 -10.7686,7.144 -17.6476,6.721 2.9369,-2.725 6.0059,-5.239 9.2599,-7.567 z" />
    <path
       style="fill:#ffffff;stroke-width:26.4582901"
       inkscape:connector-curvature="0"
       id="path3678"
       d="m 2225.7167,-3479.8994 c 12.9646,-1.693 20.7962,-11.5623 29.4216,-20.1877 -7.064,7.726 -18.1503,7.541 -26.9609,11.8798 -11.6151,5.688 -27.199,18.0976 -36.9357,26.7759 10.3982,-8.202 23.7331,-10.8744 34.475,-18.468 z" />
    <path
       style="fill:#ffffff;stroke-width:26.4582901"
       inkscape:connector-curvature="0"
       id="path3680"
       d="m 2231.617,-3506.8075 c -5.689,-1.931 -13.4672,2.725 -17.6477,5.874 7.038,4.127 13.8377,0.53 17.6477,-5.874 z" />
    <path
       style="fill:#ffffff;stroke-width:26.4582901"
       inkscape:connector-curvature="0"
       id="path3682"
       d="m 2253.445,-3515.2213 c -5.133,-3.757 -13.282,0.24 -16.801,4.207 5.715,-0.95 11.3241,-2.355 16.801,-4.207 z" />
    <path
       style="fill:#ffffff;stroke-width:26.4582901"
       inkscape:connector-curvature="0"
       id="path3684"
       d="m 2280.353,-3495.8803 c -11.5623,0.53 -17.2773,13.1234 -26.908,17.6478 11.3505,-0.56 19.3409,-10.4775 26.908,-17.6478 z" />
    <path
       style="fill:#ffffff;stroke-width:26.4582901"
       inkscape:connector-curvature="0"
       id="path3686"
       d="m 2271.119,-3479.0792 c -5.847,3.3071 -11.4299,6.9591 -16.8009,10.9538 6.879,-1.005 12.9116,-5.265 16.8009,-10.9538 z" />
    <path
       style="fill:#ffffff;stroke-width:26.4582901"
       inkscape:connector-curvature="0"
       id="path3688"
       d="m 2262.6788,-3943.8206 c 2.752,-0.71 38.0735,16.0337 41.1955,22.6748 3.334,-16.1661 40.6133,-11.8798 52.1227,-13.0175 14.5255,-1.455 36.3535,-28.4164 42.0156,-40.7724 -4.366,1.164 -8.281,0.4 -11.7475,-2.328 -8.5199,-4.683 -18.7059,0.29 -27.7281,-0.58 -12.6471,-1.244 -30.771,4.26 -41.3542,11.0332 -10.9273,6.958 -65.9603,-6.668 -54.504,22.9924 z" />
    <path
       style="fill:#ffffff;stroke-width:26.4582901"
       inkscape:connector-curvature="0"
       id="path3690"
       d="m 2536.68,-3818.6196 c -2.778,3.096 -5.609,6.165 -8.414,9.26 19.6849,2.514 38.4702,-13.5467 53.7895,-23.5479 -14.7637,5.927 -31.1942,6.72 -45.3758,14.2875 z" />
    <path
       style="fill:#ffffff;stroke-width:26.4582901"
       inkscape:connector-curvature="0"
       id="path3694"
       d="m 2590.4695,-3623.6213 c -2.805,1.667 -5.609,3.36 -8.414,5.027 6.667,1.085 12.5677,-0.58 17.6476,-5.027 -3.0689,0 -6.1379,0 -9.2339,0 z" />
    <path
       style="fill:#ffffff;stroke-width:26.4582901"
       inkscape:connector-curvature="0"
       id="path3696"
       d="m 2644.259,-3560.5974 c -7.9639,0.21 -14.7372,5.821 -16.8009,13.4408 6.085,-3.863 11.668,-8.334 16.8009,-13.4408 z" />
    <path
       style="fill:#ffffff;stroke-width:26.4582901"
       inkscape:connector-curvature="0"
       id="path3698"
       d="m 2798.9072,-3624.468 c -14.7108,-3.81 -35.1894,6.694 -43.7089,18.4944 14.2874,-6.8 30.6121,-9.234 43.7089,-18.4944 z" />
    <path
       style="fill:#ffffff;stroke-width:26.4582901"
       inkscape:connector-curvature="0"
       id="path3702"
       d="m 2835.0492,-3621.1077 c -6.588,-0.82 -12.4884,0.87 -17.6478,5.054 6.35,-0.053 12.2238,-1.72 17.6478,-5.054 z" />
    <path
       style="fill:#ffffff;stroke-width:26.4582901"
       inkscape:connector-curvature="0"
       id="path3704"
       d="m 2868.651,-3654.7099 c -8.89,3.096 -17.7534,6.429 -26.0349,10.9273 15.5574,10.1601 48.3392,-9.287 61.3566,-17.6477 -3.043,-2.037 -6.112,-3.995 -9.2599,-5.874 24.1033,-4.207 52.493,-10.0806 75.6175,-17.6477 -0.82,-3.096 -1.64,-6.1651 -2.513,-9.2601 9.1019,0 36.8033,8.5991 42.9416,-1.164 6.1909,-9.869 -12.065,-11.2977 -16.8803,-9.763 17.0126,-6.615 30.2946,5.371 45.1906,1.64 12.2766,-3.069 22.7276,-11.9062 33.8136,-17.6212 -5.609,-1.852 -11.2183,-1.852 -16.801,0 1.693,-7.144 33.0463,-23.4687 16.6952,-27.9137 -8.864,-2.434 -32.7289,8.7311 -37.703,16.1662 2.752,-6.006 7.937,-10.7158 14.2875,-12.6208 -5.715,-4.154 -11.6153,-8.07 -17.6477,-11.7739 3.0959,26.1674 -39.4227,10.5304 -33.6284,26.9082 -6.0589,-5.345 -13.0703,-3.519 -17.6476,2.54 5.054,-5.133 8.996,-11.0067 11.7475,-17.6478 -12.5413,-2.434 -24.077,3.36 -33.6284,10.9274 2.752,2.593 5.53,5.106 8.414,7.567 -5.794,1.72 -11.6681,3.148 -17.6476,4.18 1.297,3.122 2.699,6.218 4.207,9.26 -12.3296,-8.731 -25.7439,12.5942 -26.0614,22.7012 -6.906,-9.578 10.5039,-24.9502 4.339,-30.6916 -11.9592,-11.0861 -43.8942,7.355 -54.8215,12.5941 -20.4257,9.737 -20.1611,18.3357 -32.0144,34.7135 -20.8226,28.7866 19.7114,9.022 31.2736,1.058 -9.2339,-2.011 -18.0974,1.72 -26.0613,5.874 7.8579,-11.0067 22.9658,-11.43 34.475,-6.694 -6.006,2.884 -11.8797,5.953 -17.6476,9.234 12.938,-1.323 24.0241,-8.599 36.1419,-12.6207 -7.8849,6.35 -18.4943,7.408 -26.0614,14.2875 22.2779,-4.498 -4.8149,7.805 -8.4399,8.361 z" />
    <path
       style="fill:#ffffff;stroke-width:26.4582901"
       inkscape:connector-curvature="0"
       id="path3710"
       d="m 3015.7321,-3753.9024 c -30.8237,1.402 20.4522,22.4897 0,0 z" />
    <path
       style="fill:#ffffff;stroke-width:26.4582901"
       inkscape:connector-curvature="0"
       id="path3714"
       d="m 3061.9546,-3756.416 c 16.7216,-1.931 29.9243,-13.0175 44.5292,-20.1612 -3.175,2.381 -6.271,4.921 -9.234,7.541 13.4409,-2.09 24.1035,-4.339 35.2953,-12.5942 -6.694,20.4523 20.3198,1.799 25.2146,-3.36 -6.9319,-1.164 -12.8057,0.79 -17.6476,5.927 4.683,-5.239 10.2923,-9.181 16.801,-11.8004 -9.4989,2.302 -18.2033,-5.5561 -26.0348,3.36 3.5449,-15.2136 -24.6856,-12.0916 -27.9135,-1.323 -3.783,12.5677 -31.5381,-5.45 -26.7228,13.9435 -13.8905,-1.402 -32.8081,5.027 -14.2874,18.4679 z" />
    <path
       style="fill:#ffffff;stroke-width:26.4582901"
       inkscape:connector-curvature="0"
       id="path3726"
       d="m 3175.4073,-3888.3639 c -6.4559,0.71 -12.3559,2.963 -17.6476,6.72 7.064,0.9 12.9646,-1.349 17.6476,-6.72 z" />
    <path
       style="fill:#ffffff;stroke-width:26.4582901"
       inkscape:connector-curvature="0"
       id="path3728"
       d="m 3214.0892,-3845.5013 c -5.8209,-3.2011 -13.1232,-0.93 -17.6476,3.36 6.033,-0.29 11.9063,-1.429 17.6476,-3.36 z" />
    <path
       style="fill:#ffffff;stroke-width:26.4582901"
       inkscape:connector-curvature="0"
       id="path3790"
       d="m 2018.9724,-3474.0256 c -5.186,4.101 -11.0596,6.324 -17.6476,6.72 6.4559,-10.5305 -11.8798,-21.5636 -12.991,-9.657 -1.296,13.8906 -23.389,19.1822 -35.7715,20.5845 18.362,-20.4787 42.7565,-31.1415 68.077,-40.349 -21.8545,6.747 -0.13,6.191 4.7629,3.678 8.123,-4.18 13.4938,-8.361 22.8599,-10.4511 22.2778,-4.974 32.623,-15.3193 52.7577,-24.2887 42.439,-18.8649 83.0522,-31.5384 128.8779,-39.5553 -21.8016,4.71 20.9813,1.561 26.908,0 -12.5148,7.832 -17.8328,11.0067 -21.0078,26.0614 10.9536,2.619 37.4119,-35.2425 42.0156,-5.9 3.175,-1.111 5.9529,-2.778 8.4139,-5.027 -29.1834,-23.7067 122.7131,-68.7654 131.5502,-71.4906 20.4786,-6.297 40.3487,-14.3934 60.7745,-20.7963 9.8689,-3.096 15.6367,0.4 25.3204,1.058 12.0915,0.82 17.8593,-10.7685 25.1618,-17.9387 14.7901,-14.4727 40.0312,-20.9286 58.4197,-29.2101 23.5742,-10.6098 47.81,-21.8282 73.6331,-25.5323 -13.7318,17.3566 17.0126,6.668 21.8545,1.693 -5.8209,3.969 -12.2766,5.662 -19.3145,5.054 9.922,-4.471 11.3242,-16.4571 18.4943,-23.548 8.202,-8.123 19.288,-12.2503 28.2309,-19.394 13.3878,-10.7156 41.3542,-34.9515 59.1606,-20.1084 -4.26,-5.953 -11.1655,-7.937 -17.6476,-4.207 1.429,-22.7543 41.3012,-33.761 58.3403,-39.3437 35.11,-11.5358 61.4624,-33.8932 94.6145,-48.8951 -18.3885,5.159 -33.3638,17.833 -51.3024,23.9978 -14.7638,5.054 -30.2683,7.673 -45.1377,12.5148 -15.4252,5.027 -55.1654,23.0188 -69.982,9.71 6.138,-3.784 7.541,-8.493 5.715,-15.24 -1.297,-4.815 14.1022,-11.2183 17.4094,-13.0439 6.826,-3.7311 30.7445,-13.5997 24.8179,3.916 4.577,-0.37 7.382,-2.884 8.414,-7.5671 -7.17,-1.614 -14.7902,-7.673 -13.4408,-15.9808 -3.916,8.625 -13.1762,14.0758 -21.3253,17.9917 -6.2969,3.0161 -39.9255,18.8119 -19.8437,1.3491 -12.1972,10.0807 -34.5544,19.0236 -41.804,32.6232 -5.0799,9.498 -18.8646,24.0771 -31.6175,18.8912 -12.0119,-4.868 17.3301,-38.735 -3.069,-38.8937 3.069,-1.984 6.138,-3.942 9.26,-5.9 -12.5148,-5.318 -25.1089,8.334 -36.1419,11.7739 1.9579,-3.36 3.9159,-6.72 5.8739,-10.0806 -6.7999,2.54 -12.012,-1.217 -14.2874,-7.567 3.016,-1.5351 6.085,-2.9101 9.26,-4.1801 -19.3939,-12.1973 -69.5851,16.6688 -91.1221,18.8649 -15.2664,1.561 -27.2519,12.5677 -42.2009,16.2189 -5.5299,1.164 -11.0065,2.619 -16.404,4.392 -7.276,2.646 -12.8851,-6.615 -20.902,-4.18 13.0175,-11.1654 37.8881,-3.519 47.7306,-18.8383 13.6789,-21.2726 19.0235,-17.2774 41.3542,-26.5378 -8.731,-1.164 -17.6741,-1.482 -26.0614,1.667 8.043,-26.67 40.6663,-24.8443 59.8749,-37.7825 7.488,-5.0271 12.3031,-26.9611 18.0974,-35.2161 8.493,-12.1444 19.3939,-22.7014 32.1467,-30.3478 -6.0849,0 -11.6945,1.667 -16.8009,5.027 24.3151,-29.1836 61.8328,-36.5654 94.9584,-51.2764 -8.5729,1.535 -19.2086,10.4247 -15.9807,-2.514 -5.7679,9.0751 -89.8255,41.8836 -88.2116,45.8524 12.5412,31.3797 -139.3024,40.7988 -155.5213,37.3328 1.8789,-10.3981 11.8268,-11.3242 19.3145,-15.9544 -12.5412,-3.651 -9.234,-25.7176 0.85,-30.2684 -19.288,11.6681 -30.718,-7.117 -5.874,-15.1077 -5.874,-1.852 -11.7739,-1.852 -17.6476,0 10.8743,-15.3723 33.549,-14.5257 49.0535,-22.3574 4.974,-2.487 11.4829,-5.265 15.3193,-9.472 7.4349,-8.176 14.7637,-2.646 23.8653,-6.032 -14.0758,14.1552 3.625,5.265 10.6891,13.7848 4.63,5.609 -28.1251,15.8486 -32.5436,17.3038 21.2459,-3.016 39.2904,-16.3249 60.5099,-19.3147 -1.984,6.906 -6.6149,12.9118 -12.6205,16.8012 10.4509,2.17 30.5591,-2.619 38.2321,-10.4776 7.567,-7.726 -2.249,-13.4673 -9.6569,-12.2238 8.4399,-3.122 17.5947,-2.752 26.0348,-5.9 -11.2447,-0.29 -11.2447,-2.54 0,-6.72 -20.0289,0.19 -37.359,13.7583 -57.7847,10.2129 -13.9964,-2.434 -33.7871,-12.4618 -47.2808,-3.466 2.9629,-12.8588 29.0246,-16.8804 39.5021,-17.6477 -6.615,-2.619 -12.4883,-1.482 -17.6477,3.36 0.71,-6.668 5.186,-11.9327 11.774,-13.4408 -5.345,2.513 -10.9538,4.207 -16.8274,5.027 3.149,-10.7951 18.1503,-13.4144 26.0612,-19.3146 -19.9495,2.487 -32.4906,30.0038 -53.7895,26.0615 -1.27,-10.2129 12.5412,-12.4354 5.106,-21.1403 -6.218,-7.303 21.5634,-14.5521 25.1088,-16.6952 -4.895,-4.71 -10.4775,-5.847 -16.801,-3.36 4.657,-19.0765 25.4528,-11.8269 39.5021,-14.2875 -19.1028,0.98 2.91,-14.0759 14.4462,-13.3087 16.9862,1.1381 38.8936,-23.6272 55.1389,-30.6652 22.3572,-9.71 44.8202,-19.341 67.68,-27.7813 6.773,-2.487 15.6369,-6.456 23.1245,-4.868 11.3242,2.408 3.175,11.6417 -3.228,13.5996 6.456,-1.429 12.6206,-3.6781 18.4944,-6.7201 -23.3626,-4.048 35.2952,-24.1564 42.8622,-26.9081 -12.5941,3.44 -24.3944,9.128 -36.9886,12.6206 13.9965,-20.1083 54.9537,-44.6088 79.8509,-36.1422 -13.917,-15.5045 33.7341,-21.2195 41.2748,-21.7222 7.223,-0.5 15.5574,1.614 21.6957,5.503 11.668,7.408 -26.0614,15.9544 -30.1888,18.7326 29.0246,-12.3562 61.7799,-4.7621 90.6458,-17.8859 27.9134,-12.7 56.8587,-24.3417 86.6771,-31.6971 -3.175,2.725 -6.244,5.503 -9.26,8.414 44.0264,1.561 85.6981,-4.127 124.4594,-26.0351 15.3457,-8.678 26.4052,-20.7698 39.3962,-32.3321 8.0699,-7.197 27.2519,-40.7194 0.026,-28.9984 7.5409,-3.519 110.9921,-20.1612 85.7245,-43.7093 4.445,-1.191 8.943,-2.328 13.4408,-3.36 -15.5574,1.164 -29.2099,8.387 -43.6825,13.4409 -14.5784,5.0801 -30.5063,-2.434 -44.5556,5.0531 23.7065,-4.7361 -8.9689,4.313 -11.033,4.842 -10.5305,2.566 -21.2724,4.233 -31.9087,6.376 -22.1983,4.445 -40.3223,18.2034 -62.0973,23.2305 11.0859,-12.409 14.6049,-31.1944 -8.414,-22.6748 3.122,2.487 6.191,5.001 9.2599,7.567 -9.7099,3.889 -13.8376,12.4884 -20.7167,4.048 -3.995,-4.895 -9.948,-7.567 -15.9015,-9.102 -13.5201,-3.44 -28.0456,-2.143 -41.751,-0.61 -31.9879,3.519 -55.4299,12.0914 -87.6295,6.191 -5.001,-0.93 -51.0909,-8.096 -40.19,-18.9971 5.398,-5.3971 22.9393,-7.1171 19.8172,-16.7747 -5.345,-16.3777 9.1549,-30.3212 24.1828,-32.8083 -6.191,2.487 -12.0915,5.583 -17.6476,9.26 9.9219,9.366 23.4683,2.91 33.0992,-2.884 10.4774,-6.297 22.0132,-3.36 33.2843,-2.17 -14.0228,-18.2034 -46.487,-13.9172 -66.5158,-15.7428 -6.773,-0.61 -16.0073,-11.5623 -18.7853,-17.0921 -4.974,-9.922 25.8231,-13.4408 31.5116,-14.2346 -8.758,3.413 -17.8063,6.033 -26.908,8.414 21.5105,4.842 40.7986,-9.049 60.6422,-14.4727 17.6476,-4.842 37.359,-0.66 53.1811,-11.7212 34.5279,-24.2358 80.5915,-8.043 118.1623,-15.8221 -3.175,-1.826 -6.244,-3.81 -9.26,-5.874 17.0919,-19.394 49.7414,-17.4096 73.0775,-19.3411 37.4119,-3.096 72.7866,-20.2936 110.9657,-14.2611 -9.472,-1.296 -23.9711,10.9803 -31.3001,15.8222 -14.499,9.631 -28.8658,13.9964 -45.1905,19.4469 8.1489,-2.17 7.2759,0.93 9.9219,6.324 2.884,5.874 14.7636,3.784 19.5526,3.387 10.16,-0.85 20.4257,-0.66 30.5857,-0.69 6.6149,0 35.5863,-4.339 13.8905,7.805 22.3572,-11.9063 48.4714,3.307 71.4371,-5.9 10.0542,0 37.5707,-28.4162 57.9964,-13.4143 -2.858,3.016 -5.9529,5.821 -9.2599,8.387 9.4189,-3.281 19.8701,-5.927 24.368,-15.9809 -15.0548,-12.6471 -36.3536,-8.123 -52.9429,-1.693 8.361,-6.615 27.7282,-11.139 26.5376,-24.3682 -1.005,-11.0861 -14.6314,-8.837 -6.879,-19.6586 14.2081,-19.7379 38.4967,1.508 19.6055,11.8534 -38.7612,21.2461 31.3795,17.9124 30.9827,17.5419 17.5417,17.5419 63.2614,14.1023 73.4479,-11.4301 -6.218,0.77 -12.3824,1.905 -18.4943,3.36 -8.705,-0.53 -15.478,-7.117 -24.5003,-5.503 -13.9699,2.54 -29.3156,14.9226 -44.0265,9.2601 -24.315,-9.3931 32.5701,-36.9359 44.1588,-35.7188 -4.683,-18.521 -32.7817,1.587 -32.7817,-10.0806 -5.239,4.789 -11.4035,7.038 -18.4943,6.72 7.7789,-6.297 17.2772,-9.737 26.0613,-14.2875 -10.1864,-1.1111 -19.2351,7.355 -28.0721,10.9008 -12.1179,4.868 -36.38,0.11 -48.6038,-2.646 -27.7016,-6.191 -4.26,-14.711 5.107,-28.0989 12.303,-17.6212 2.937,-47.5457 -18.8118,-56.9649 -7.091,-3.069 -19.5261,-1.376 -21.6957,-10.9008 -3.281,-14.3404 -11.4299,-13.8906 -24.077,-14.8696 30.136,-2.91 56.1972,-17.3303 82.2321,-31.5649 29.5803,-16.166 53.763,-11.8269 86.7829,-14.2081 72.2044,-5.239 134.4606,-21.9341 202.4582,-46.6726 -5.794,2.99 -11.6681,5.794 -17.6477,8.414 33.4432,-6.376 63.1028,-33.5757 96.5196,-43.7092 40.3487,-12.1973 78.8454,-35.4014 121.152,-40.3491 -7.1969,3.678 -7.4609,10.1337 -15.9807,11.7741 29.6597,-5.239 60.0865,-6.5881 89.0848,-15.1343 26.6433,-7.858 54.0541,-20.1612 82.3644,-19.3146 -7.435,6.244 -17.0657,10.2923 -26.8816,10.0807 28.4425,-4.26 -5.186,7.779 -10.9537,10.0806 9.472,-3.254 10.5833,-0.45 3.36,8.4141 9.366,-6.4821 18.8647,-12.7794 29.0776,-17.8859 12.5676,-6.297 27.49,-1.27 40.6662,-4.789 -8.705,0 -17.4888,-0.45 -26.0349,1.667 3.413,-9.842 -4.921,-12.4619 -12.6205,-9.234 27.3842,-11.2977 57.0968,-14.2875 85.7245,-21.008 -5.8469,3.122 -12.012,5.371 -18.4943,6.721 38.4702,9.472 93.0007,-2.725 130.8623,-11.6153 46.196,-10.8215 90.5135,-28.4692 136.4185,-40.4813 -6.747,1.905 -12.9117,4.974 -18.4943,9.26 4.762,1.746 42.9417,5.53 34.1046,15.4517 -12.594,14.2081 -42.6506,15.7427 -60.1395,15.6369 2.911,6.8001 -2.408,11.6682 -8.414,13.4144 17.7006,-4.895 35.5863,-9.102 52.9429,-15.1078 10.5568,-3.651 20.9549,-7.779 31.5911,-11.2448 5.133,-1.667 35.6127,-14.1552 12.9381,1.984 4.0479,-2.752 18.018,-7.17 20.4522,-0.026 3.8629,11.2712 -20.7433,13.5731 -27.1991,14.3405 17.0126,16.0866 44.5556,3.149 63.9495,-0.026 27.2783,-4.4451 60.4834,-4.9481 87.3385,1.693 -8.9429,10.1865 -23.6802,12.6736 -35.2953,18.4944 5.265,2.725 10.8743,4.127 16.801,4.207 -12.0385,1.402 -24.2622,-0.26 -36.1419,2.54 17.8857,2.302 35.8508,0 53.7895,0 -6.1649,2.223 -12.3295,4.471 -18.4943,6.72 15.3722,7.752 32.332,6.8 48.8154,3.969 9.9479,-1.693 19.8701,-3.889 29.9507,-4.921 5.503,-0.56 30.0565,-5.953 13.6789,4.313 26.5905,0 54.0012,-7.832 80.7504,-4.524 8.334,1.032 20.849,3.545 27.543,9.022 10.4246,8.52 25.003,1.667 35.6127,7.937 26.2201,15.4518 54.0277,6.5881 82.8936,10.2395 8.784,1.111 29.104,-4.207 32.226,6.244 1.402,4.657 26.908,0.79 12.409,8.07 15.9013,-0.37 31.7762,0.48 47.6776,-0.13 7.937,-0.24 15.7956,-1.032 23.6536,-2.302 12.6471,-5.318 15.2135,-4.498 7.699,2.461 16.457,-18.6266 61.727,-10.9273 82.2321,-5.133 13.8905,3.916 17.6741,18.0975 31.7233,21.1931 10.7421,2.355 10.2923,3.678 16.0866,11.2713 6.932,9.0221 17.727,-2.963 26.273,2.91 -89.561,59.0023 -168.8298,131.7363 -254.3691,196.136 -89.4817,67.363 -174.3595,139.0653 -261.063,209.9473 -88.5821,72.4431 -174.8623,147.2145 -262.73,220.5306 -42.7565,35.6659 -84.2957,72.5225 -125.6235,109.8023 -19.2351,17.3303 -37.8352,35.8511 -58.3138,51.6467 -13.9965,10.7951 -34.7397,23.6804 -38.8936,42.307 9.8689,2.567 18.4414,5.98 28.4425,1.429 10.2659,-4.657 17.7799,4.392 27.4901,5.503 11.721,1.349 26.273,-7.752 37.6236,-10.3981 13.4672,-3.149 27.3842,-3.889 40.9044,-0.71 -9.499,7.223 -23.098,11.4035 -29.6597,22.0134 -6.7469,10.9009 10.1071,13.3615 8.863,25.3736 -1.667,16.0073 7.8319,30.4536 13.2026,45.1909 5.133,14.1023 -9.3929,27.7548 -15.9278,38.5234 29.0246,-10.1336 59.822,-15.1607 87.9735,-27.9136 12.3296,-5.583 23.9711,-12.7265 33.9988,-21.9075 4.18,-1.243 8.4669,-1.878 12.8058,-1.905 6.006,-2.752 6.138,-9.1811 11.4829,-12.118 9.1279,-5.106 20.214,-3.704 30.1358,-5.503 10.9008,-1.984 37.1209,-14.949 47.0957,-10.2923 34.0781,15.9014 -19.7114,31.9353 -3.995,47.5986 4.26,4.26 14.7902,8.414 10.8479,16.2983 -3.572,7.17 -8.8639,20.8228 -1.826,26.8553 21.0343,18.0182 8.017,28.4163 4.286,49.3185 -3.413,19.1294 -9.3929,37.8619 -11.2976,57.2295 -1.244,12.356 0.19,30.5593 -8.255,40.7194 -5.45,6.588 -17.5418,15.7163 -3.122,20.6375 -14.4991,6.35 -14.6314,25.5852 -17.6476,38.6558 14.9488,-2.276 39.8196,15.2135 51.0644,24.2622 11.7209,9.419 9.1809,25.9293 28.76,23.6539 -5.741,14.7108 -19.3145,19.5792 -31.5646,27.4637 -16.0601,10.3188 -19.288,27.5697 -28.9718,42.651 -18.7059,29.1041 -72.2044,44.6088 -102.5255,56.7797 4.233,-6.059 8.731,-11.9592 13.4408,-17.6478 -7.355,7.276 -15.7426,14.1817 -26.0349,16.8011 5.715,-27.993 54.5568,-40.9311 77.3109,-52.123 -6.297,2.064 -59.8749,27.993 -56.3031,12.6206 2.408,-10.504 37.5177,-11.4035 44.5557,-10.9273 -5.874,-0.71 -11.7475,-1.005 -17.6477,-0.85 10.107,-13.2291 33.0992,-29.7128 34.4221,-47.5192 1.508,-20.3994 10.5833,-17.7006 25.2676,-28.9454 -19.288,6.324 -37.9145,17.9123 -58.8165,17.6477 5.2649,-2.143 10.5832,-4.101 15.9807,-5.9 -5.503,1.931 -46.1167,7.752 -44.9525,14.1552 1.799,9.895 -4.392,7.673 -10.6361,13.5202 -9.763,9.128 -9.578,-0.48 -17.7271,10.4247 -5.0799,6.8 -20.9548,6.588 -15.0812,-2.6721 7.117,-11.1654 19.3939,-17.1979 30.4005,-23.6802 11.8004,-6.906 22.4631,-14.4992 31.644,-24.7121 8.943,-9.9221 25.003,-4.4981 36.4065,-6.3771 -9.5779,-2.699 -21.0343,-0.61 -22.6747,-13.4408 -0.71,8.096 -15.9014,23.1776 -24.5002,17.2245 -12.3561,-8.5201 9.0489,-26.5378 15.2399,-31.512 -1.138,5.98 0.98,10.5569 7.5669,10.9537 -3.8629,-7.064 -3.3069,-13.7848 1.693,-20.1877 -3.0429,-1.243 -6.1119,-2.381 -9.2599,-3.36 10.054,-3.704 14.6578,-14.8167 25.2147,-17.6478 -7.911,2.937 -15.6105,5.53 -20.5316,-3.493 -6.562,-12.0385 10.0011,-10.5039 12.9645,-20.0289 -8.52,6.191 -19.8966,-0.42 -18.4943,-10.9538 -10.6892,11.8798 -23.9182,-1.085 -8.255,-9.604 11.086,-6.0591 25.0824,-2.4341 36.8563,-6.3501 -8.7309,0.61 -17.3566,3.572 -26.0613,0.85 14.1286,-4.815 3.995,-21.59 22.6747,-22.6748 -9.79,2.275 -13.1233,-8.017 -3.863,-11.721 7.0639,-2.805 16.1924,9.102 19.8436,13.4143 3.519,-9.789 -10.4775,-13.7583 -7.461,-22.1191 5.636,-15.7428 25.8497,-10.1601 36.8827,-6.4561 -15.531,-10.0012 -30.1094,-3.969 -43.7089,5.8741 -6.218,-10.3718 17.6741,-27.2787 26.8815,-31.0887 -6.0589,1.561 -25.5587,17.4625 -28.0721,10.0807 -2.54,-7.488 5.2649,-14.949 10.1864,-19.2882 13.4142,-11.8004 32.3318,-23.2569 49.8208,-27.7548 -16.854,-1.508 -34.3164,10.8214 -46.0902,21.5107 -16.2718,14.7902 -21.6958,-6.085 -37.9675,-8.043 7.1439,-6.0851 6.9579,-14.8167 9.4189,-23.0453 2.222,-7.408 12.2502,-10.6362 16.6159,-16.457 -18.7854,15.7691 1.8789,-23.0718 5.3179,-27.6491 8.996,-12.0385 19.4732,-24.7121 31.6441,-33.6815 -6.932,3.704 -12.4619,9.657 -19.7643,12.7265 -12.1179,5.107 -3.387,8.255 -12.1444,18.3621 -3.493,-17.5154 -15.2663,7.25 -20.3993,15.3459 -6.6669,10.4775 -20.4786,23.9448 -23.971,35.5865 -4.207,14.0229 -14.896,29.3159 -30.1624,32.3586 -13.8112,2.752 -5.662,-13.626 -1.958,-18.5738 -7.8049,8.9691 -25.2147,3.6511 -35.2688,4.2071 16.5893,-20.3201 28.2044,-41.4338 54.6097,-46.2228 -6.271,-4.313 -13.5201,-3.016 -18.4943,2.514 13.5466,-22.4368 -19.288,8.255 -23.6536,9.446 -14.1816,3.863 -5.5829,-17.7535 -9.9479,-23.7068 -2.619,12.6737 -14.7901,7.3031 -17.6476,-1.693 -4.868,12.0122 -21.9074,13.3086 -31.9352,18.4945 12.1444,-4.736 22.8335,-1.429 35.2954,-1.667 -2.91,6.615 -7.541,25.109 6.7199,11.774 -4.921,5.027 -10.7949,8.387 -17.6476,10.0806 7.964,-0.4 19.5526,-7.461 21.8545,5.053 -8.52,0.82 -6.641,4.022 -7.382,10.1336 -1.164,9.4721 -19.3145,12.1444 -26.22,13.388 12.5147,-14.8962 -7.726,-9.3661 -13.4409,-5.874 20.4787,-1.984 -1.588,2.884 -6.0319,2.672 -7.99,-0.42 -9.181,11.5623 -19.2086,11.6152 10.1334,-13.1762 -45.4288,-27.1199 -19.3145,-39.5288 -12.6735,3.731 -13.4144,-9.975 -11.2448,-18.5473 3.413,-13.4409 -2.381,-22.7278 -17.3301,-25.162 4.286,-3.228 9.049,-5.477 14.2874,-6.72 -13.6259,-1.561 -37.8881,2.408 -36.9885,-18.4944 -9.9479,7.673 -15.2664,-7.091 -22.6747,-10.9537 8.652,-9.3661 22.5424,-10.3453 31.6705,-19.103 8.0959,-7.779 12.4088,-17.7536 23.442,-22.2515 27.4371,-11.139 -10.0277,28.6808 -10.5569,30.4271 9.684,-12.1444 27.252,-28.919 43.6825,-17.6477 -7.99,-4.868 -15.7955,-21.4048 -26.908,-18.2298 -14.4726,4.127 -27.7282,13.5466 -42.73,17.78 -34.819,9.869 -65.5634,12.3296 -98.451,-5.45 8.573,-6.138 22.3572,-8.281 23.5478,-21.008 -13.2555,-1.1111 -21.2988,12.8853 -36.38,10.1071 -19.8701,-3.651 -39.6608,-7.752 -59.5574,-11.3772 -35.3217,-6.403 -72.0192,21.2726 -106.6001,7.1171 21.9868,-2.143 -19.0235,-25.7705 -27.7281,-24.3682 15.769,-20.5052 43.8148,-22.9129 63.0234,-38.6557 -24.7914,3.8361 -44.0265,17.9388 -66.5953,27.0934 -5.953,2.408 -16.8539,8.096 -23.6008,5.715 -7.9109,-2.805 -12.7528,-12.4619 -22.463,-9.26 10.1865,-8.625 23.1774,-13.3879 35.2953,-18.4944 -4.551,0.79 -42.0685,7.541 -18.4943,-2.5401 -8.9959,1.5871 -17.9122,3.4661 -26.908,5.0541 7.6459,-5.7681 17.1449,-7.3291 26.0614,-10.0808 -14.6844,-0.98 -29.0512,6.5881 -43.709,3.36 12.6735,-8.149 33.6813,-14.2346 48.736,-11.774 -9.6039,-6.429 -24.3945,5.927 -33.3638,-1.349 -10.9537,-8.863 37.7029,-22.9129 47.6513,-21.3254 -11.7211,-11.0596 -32.8876,-1.032 -44.5821,4.815 -15.187,7.594 -35.0571,6.085 -52.0698,11.9856 2.513,-2.805 5.027,-5.609 7.567,-8.387 -6.138,1.905 -12.0385,4.445 -17.6476,7.541 6.853,-9.604 18.1238,-14.2081 26.0349,-22.6748 -14.5257,7.435 -26.7229,25.7704 -43.6825,27.7283 2.805,-2.778 5.583,-5.583 8.3869,-8.387 -7.2229,0.71 -13.6523,4.948 -17.6476,10.9273 -15.478,-14.896 43.7619,-35.2425 51.2761,-41.1692 -14.7638,4.4181 -28.6807,11.5094 -42.1215,18.8384 -12.2502,6.694 -26.2201,-5.477 -37.7029,6.35 9.2339,-1.297 17.6212,-5.636 26.9079,-6.694 -19.288,16.5629 -41.3541,14.8167 -62.2031,24.3682 22.9921,-1.879 -11.8269,7.17 -16.8011,10.9272 9.551,-0.69 17.3566,-6.879 26.8816,-7.567 -2.487,2.805 -5.001,5.609 -7.567,8.4141 6.138,-1.5351 12.0386,-3.7841 17.6476,-6.7201 -10.9007,21.4843 -39.6872,17.5684 -58.843,25.2149 18.7325,-3.096 34.237,-5.503 52.1227,-10.0806 7.6729,20.5316 -51.7787,23.6802 -60.5099,34.4487 5.927,-0.079 11.5357,-1.508 16.801,-4.207 -3.678,3.413 -17.8329,15.6899 0,5.054 -10.1599,8.202 -25.056,14.4199 -37.5707,17.7536 -7.117,1.905 -13.0438,2.858 -19.8701,5.953 -12.4882,5.636 -22.5953,-2.064 -35.0042,-2.699 3.731,-2.328 7.6729,-4.286 11.7739,-5.874 -13.0174,0.32 -23.5478,7.805 -33.6283,15.1342 6.059,-6.35 11.4299,-13.2556 16.8009,-20.1877 -11.0595,0.98 -49.6092,21.3519 -50.4293,33.6285 -1.852,-6.985 1.7459,-12.8322 8.4139,-15.1341 -5.768,2.223 -13.0968,0.11 -18.4943,3.36 -6.456,3.916 -6.985,13.4144 -13.4407,17.6477 1.482,-16.5365 -11.9063,-5.345 -18.7589,-0.74 -12.7,8.467 -32.2262,14.7109 -46.7781,19.2353 10.0541,-9.0221 22.8069,-14.4199 34.4485,-21.008 -16.113,4.524 -28.9452,16.0603 -44.5555,21.8546 2.6459,-2.99 5.1589,-6.085 7.5669,-9.2601 -14.1287,-1.614 -24.8972,13.9701 -37.703,17.4626 -19.6584,5.371 -21.2724,10.1865 -41.3012,5.239 7.885,14.2875 -4.233,7.541 -11.2447,5.9 -9.366,-2.17 -20.4522,4.498 -29.2099,6.906 -6.8259,1.852 -14.7107,-4.604 -11.6416,-11.9592 1.667,-3.995 11.1918,-5.556 14.4991,-6.588 33.7342,-10.4246 67.4949,-25.0297 101.4672,-34.6076 -17.4889,-4.524 -39.5286,19.8439 -55.2182,6.377 -13.4938,-11.5888 60.2717,-42.4393 71.5693,-47.5987 14.4991,-6.615 28.8924,-13.8641 41.6453,-23.495 8.149,-6.138 12.1707,-21.9869 22.3572,-25.0297 34.0252,-10.1864 69.241,-19.3675 103.7161,-28.7602 -0.42,14.9755 13.6524,10.9802 23.1773,8.334 16.4571,-4.524 40.0313,2.196 55.8269,7.646 -12.1708,-14.1817 -59.1341,-18.7325 -21.8809,-37.518 21.4311,-10.8215 46.2224,-15.3194 69.7702,-18.7855 -22.3572,-9.922 -45.4288,8.123 -65.4575,15.4517 -7.144,2.619 -44.7673,14.7109 -36.2214,-5.371 -10.3186,10.3717 -27.49,12.8059 -41.3012,14.0759 -16.4835,1.482 -28.7601,13.7583 -44.4497,17.2773 -16.801,3.784 -31.8822,3.307 -46.8046,13.3085 -10.6626,7.17 -19.7379,12.409 -32.2525,15.4517 -25.2677,6.1651 -40.9309,10.6893 -60.4306,27.0141 -10.5304,8.811 -25.7703,11.9856 -38.5496,15.9808 -13.3614,4.207 -20.8226,-9.922 -32.0674,-4.842 17.3037,-2.963 14.0229,20.0026 2.752,25.6912 -21.2724,10.7156 -43.074,8.996 -64.9549,16.3247 18.2562,-1.244 4.868,11.7475 -2.3279,13.7319 -9.234,2.514 -20.267,-0.32 -28.7602,4.762 24.4474,-14.896 -5.371,-2.011 -9.737,0.053 -9.1549,4.313 -23.7065,4.551 -31.4852,9.552 -3.704,2.3811 -4.048,7.1971 -8.1229,9.3401 -7.303,3.784 -23.0716,5.318 -31.3266,6.271 22.1191,0.16 -6.562,5.9 -11.8003,7.937 -11.0596,4.366 -24.3681,10.3981 -30.2418,21.4842 12.5942,-1.085 29.9772,-5.292 41.4335,1.984 20.1877,12.8059 -19.4203,27.358 -26.6699,29.8186 -17.1978,5.874 -36.6181,6.059 -51.8051,15.9808 -7.964,5.186 -16.1394,3.942 -23.5213,10.6627 -10.7949,9.8691 -25.0559,6.6151 -36.089,15.5047 5.583,-2.725 11.4565,-4.392 17.6476,-5.027 -9.0749,5.054 -36.3271,31.3532 -34.4485,12.6207 -8.361,11.6152 -33.3638,11.8798 -46.7252,13.8641 -14.2874,2.117 -23.3627,8.308 -36.433,14.4992 -14.5784,6.9321 -30.3739,6.1381 -44.5027,11.6682 -17.2772,6.72 -32.861,19.6056 -51.223,19.5527 -10.2128,-0.026 -14.1816,10.9538 -22.3572,7.699 -10.9537,-4.392 -36.1154,12.1708 -46.7252,15.1077 18.3885,-2.593 0.63,10.1072 -5.5029,14.4993 -9.287,6.694 -22.8599,6.562 -32.6759,13.3879 -8.1229,5.662 -18.997,6.059 -28.469,7.117 -14.4726,1.64 -20.849,9.498 -33.205,13.7054 -5.874,2.011 -6.138,-7.99 -11.5887,-5.821 -6.191,2.487 -22.4895,6.668 -24.5268,14.1288 -2.514,9.234 -12.8587,9.816 -20.4787,7.752 -14.1021,-3.836 -21.4046,-0.11 -35.1629,4.154 22.7805,2.328 -11.1388,9.049 -17.6476,9.155 -19.3674,0.24 -39.1052,9.657 -55.4828,19.4204 8.8109,-1.032 16.8009,-8.043 26.0613,-4.207 -7.541,5.715 -10.9802,8.043 0.8499,9.26 -8.0959,4.842 -17.7005,4.366 -26.0612,8.3871 -7.064,3.387 -11.7475,12.7794 -20.1877,13.4408 2.884,-9.578 12.0385,-14.896 21.0079,-17.6478 -11.0067,-6.429 -23.3362,9.5251 -30.8768,15.1078 -10.0012,7.408 -26.4317,10.0807 -38.5496,11.0332 -16.0601,1.27 -29.7654,0.053 -44.6878,8.387 -13.8377,7.726 -25.3735,24.3417 -43.074,23.4951 9.9749,-4.8421 18.9705,-11.5889 26.9079,-19.3147 -9.8689,-10.3982 -33.0991,0.98 -42.9151,6.085 -7.064,3.704 -11.9856,4.154 -19.8965,4.577 -9.578,0.5 -22.2249,11.5624 -30.5064,16.219 10.6362,-17.3038 -5.318,-3.995 -9.4719,-0.93 -6.403,4.736 -13.1762,4.286 -20.0288,1.164 -3.36,-1.535 -19.1293,5.768 -21.6958,6.535 -10.8479,3.201 -23.6272,1.296 -33.6549,4.974 13.2027,-12.8852 25.4264,-16.9598 43.709,-15.9543 -19.3145,-24.871 -53.8953,8.228 -71.5165,19.05 -7.62,4.683 -16.4305,4.895 -24.2886,8.678 -7.012,3.387 -10.6362,10.9273 -17.6476,14.2875 -7.064,3.36 -4.683,-11.0331 -12.5677,0.24 -4.524,6.4821 -14.9754,7.3551 -21.8809,4.8151 10.9007,-3.5191 9.3659,-13.9171 12.6205,-22.6749 -17.4624,-3.466 -17.6476,29.6599 -35.8773,25.0297 z" />
    <path
       style="fill:#ffffff;stroke-width:26.4582901"
       inkscape:connector-curvature="0"
       id="path3708"
       d="m 3029.1729,-4270.767 c -1.27,-11.5622 -22.9392,-0.5 -26.908,3.3341 9.049,1.508 18.653,1.058 26.908,-3.3341 z" />
    <path
       style="fill:#ffffff;stroke-width:26.4582901"
       inkscape:connector-curvature="0"
       id="path3796"
       d="m 2448.4154,-4232.1112 c 18.2562,-12.7529 32.623,-29.7657 55.4829,-25.2148 7.567,1.508 12.8852,8.916 20.0817,11.4564 8.572,3.043 17.7535,-3.731 27.8341,0.29 -13.9964,16.9862 -33.2579,10.1335 -52.1226,12.6206 23.1508,-3.228 -12.1709,1.164 -18.1769,3.889 -11.377,5.212 -21.8808,12.5942 -33.9458,16.272 5.159,-4.7621 7.673,-10.6364 7.567,-17.6479 -2.249,3.069 -4.498,6.138 -6.72,9.261 0.95,-3.651 0.95,-7.276 0,-10.9273 z" />
    <path
       style="fill:#ffffff;stroke-width:26.4582901"
       inkscape:connector-curvature="0"
       id="path3798"
       d="m 2817.4014,-4488.4401 c 39.7138,-27.6754 18.4944,12.3562 0,0 z" />
    <path
       style="fill:#ffffff;stroke-width:26.4582901"
       inkscape:connector-curvature="0"
       id="path3800"
       d="m 3615.8041,-3943.8206 c 8.599,-4.974 17.4889,-9.4461 26.908,-12.5943 -6.932,7.5141 -17.4095,10.1072 -26.908,12.5943 z" />
    <path
       style="fill:#ffffff;stroke-width:26.4582901"
       inkscape:connector-curvature="0"
       id="path3802"
       d="m 3625.8847,-3949.7208 c -5.53,2.884 -11.4035,4.286 -17.6477,4.18 10.0806,-1.244 16.4836,-10.7951 26.908,-10.9274 -3.096,2.275 -6.165,4.4981 -9.2599,6.7471 z" />
    <path
       style="fill:#ffffff;stroke-width:26.4582901"
       inkscape:connector-curvature="0"
       id="path3814"
       d="m 4424.3137,-3788.3512 c 3.228,1.879 5.186,4.71 5.874,8.387 -18.3885,7.382 -21.7222,-12.0914 -5.874,-8.387 z" />
    <path
       style="fill:#ffffff;stroke-width:26.4582901"
       inkscape:connector-curvature="0"
       id="path4118"
       d="m 4220.083,-3624.468 c 8.2549,-3.519 16.0072,-13.7055 26.0348,-9.26 -21.0872,11.0861 -35.2688,22.1721 -34.4486,47.9161 20.6374,-7.673 35.7186,-29.2365 49.5297,-45.2702 7.223,-8.3871 13.7584,-16.8806 19.8966,-26.0881 8.572,-12.8852 11.1654,-30.6652 21.3518,-42.0953 -7.4879,-5.159 -16.9862,-11.1125 -26.0613,-5.054 20.558,-5.503 -5.345,-5.186 -13.7583,0.053 -5.2649,3.307 -21.0872,17.4626 -5.5829,18.4416 -4.604,3.731 -17.2772,13.0704 0.85,5.874 -16.3248,4.022 -16.3512,28.4692 -34.4486,31.0886 23.3097,3.201 -11.8003,18.5738 10.9273,10.9273 -5.927,3.2811 -10.7157,7.7521 -14.2874,13.4673 z" />
    <path
       style="fill:#ffffff;stroke-width:26.4582901"
       inkscape:connector-curvature="0"
       id="path4120"
       d="m 4236.0637,-3568.9583 c 5.8999,-2.487 9.2869,-6.932 11.1124,-12.9646 1.693,-5.6361 13.8376,-6.6941 17.4624,-11.4301 -13.4672,18.7856 6.615,0.69 10.1071,-1.72 6.0319,-4.154 12.5676,-5.794 18.5472,-11.0332 5.927,-5.212 7.0909,-13.4937 12.8057,-18.7325 3.466,-1.402 6.879,-1.085 10.2923,0.95 7.1169,-0.58 11.668,-8.678 14.6843,-14.023 -9.975,-0.53 -17.5947,6.3501 -26.908,8.3871 11.1125,-5.053 29.5803,-17.1186 11.7739,-27.7284 2.275,19.7379 -9.525,-5.345 -15.9807,12.5941 -3.625,-10.9273 -14.9225,5.186 -18.4944,10.9274 21.0607,-3.7841 -0.71,10.7686 -6.7199,11.774 30.6121,9.922 -36.2477,27.5696 -11.774,22.6748 -12.4617,5.08 -25.9289,15.8221 -26.9079,30.3213 z" />
    <path
       style="fill:#ffffff;stroke-width:26.4582901"
       inkscape:connector-curvature="0"
       id="path4122"
       d="m 4246.1442,-3746.3353 c -5.3179,9.5251 1.852,18.0182 5.9,26.0351 -15.0547,0 -4.392,5.503 -4.207,16.801 -7.6729,-15.9808 -10.5833,6.218 7.673,2.064 9.7369,-2.222 31.4587,-25.744 9.9749,-22.225 6.906,-0.053 11.1125,-3.863 10.9273,-10.9273 12.8057,5.583 20.9813,27.8341 35.0306,28.9454 12.2501,0.98 22.1984,-15.7692 27.1461,-24.765 -7.329,-4.921 -14.0493,-0.48 -21.8544,-1.244 -7.567,-0.74 -9.842,-13.6261 -15.9809,-17.2244 16.5629,-1.402 25.0824,17.3038 42.8623,10.0807 -1.879,-2.857 -3.8629,-5.6621 -5.8999,-8.3871 7.0639,1.693 34.0517,-5.239 20.3199,-15.6633 -17.9123,-13.5732 -35.4805,5.9 -52.255,10.6098 6.429,-13.1498 25.2941,-8.943 31.0885,-22.6748 -13.0175,-6.165 -43.3651,-6.35 -52.1228,7.541 3.096,-15.5046 -7.0109,-3.704 -14.1815,1.72 -7.091,5.398 -4.154,14.7373 -1.773,21.8016 -1.826,-6.641 -7.382,-10.4245 -14.2874,-9.234 3.651,-3.44 5.9,-7.646 6.7199,-12.6206 -8.8899,3.149 -22.5423,11.2712 -21.0077,22.6748 1.9839,-1.058 3.9419,-2.17 5.9269,-3.307 z" />
    <path
       style="fill:#ffffff;stroke-width:26.4582901"
       inkscape:connector-curvature="0"
       id="path4124"
       d="m 4315.0679,-3700.9592 c -3.545,-2.381 -7.197,-2.381 -10.9273,0 0.87,3.069 2.249,5.874 4.207,8.414 2.513,-2.567 4.763,-5.345 6.72,-8.414 z" />
    <path
       style="fill:#ffffff;stroke-width:26.4582901"
       inkscape:connector-curvature="0"
       id="path4126"
       d="m 4316.7348,-3609.3338 c 8.3609,-0.79 18.0974,-2.99 26.0612,-4.207 6.588,-1.032 38.4967,-12.1708 16.8011,-14.2875 6.3499,-2.884 10.8742,-8.6781 9.2339,-15.9809 11.8268,35.4014 40.9838,-12.1708 27.7283,-19.3146 -9.79,-5.106 -72.9189,-12.3825 -52.0963,10.9273 -14.4991,-1.402 -9.9479,12.1708 0.85,3.36 -8.1759,9.34 -33.2315,24.3153 -28.5748,39.5024 z" />
    <path
       style="fill:#ffffff;stroke-width:26.4582901"
       inkscape:connector-curvature="0"
       id="path4130"
       d="m 4383.1183,-3611.8473 c -8.8899,2.249 -42.8094,-0.71 -35.5333,17.78 5.106,12.9647 32.7817,-11.1654 35.5333,-17.78 z" />
    <path
       style="fill:#ffffff;stroke-width:26.4582901"
       inkscape:connector-curvature="0"
       id="path4132"
       d="m 4394.8923,-3600.0998 c -8.282,-3.254 -33.1522,8.837 -35.9832,17.3303 -2.302,6.853 8.4929,13.5996 6.5879,22.1721 13.2027,-2.355 17.3565,-17.9652 30.2682,-20.1877 -3.625,-6.4561 -10.3452,-10.0279 -17.6476,-7.5671 6.9579,-1.27 13.0703,-5.715 16.7745,-11.7475 z" />
    <path
       style="fill:#ffffff;stroke-width:26.4582901"
       inkscape:connector-curvature="0"
       id="path4140"
       d="m 4242.784,-3693.3921 c -10.7155,0.053 -34.7925,22.5955 -39.5021,31.9353 11.9857,-0.48 48.1275,-14.5256 39.5021,-31.9353 z" />
    <path
       style="fill:#ffffff;stroke-width:26.4582901"
       inkscape:connector-curvature="0"
       id="path4144"
       d="m 4228.4966,-3558.9041 c -3.016,-8.996 -18.8382,0 -18.4943,7.567 5.98,-2.963 12.1443,-5.477 18.4943,-7.567 z" />
    <path
       style="fill:#ffffff;stroke-width:26.4582901"
       inkscape:connector-curvature="0"
       id="path4146"
       d="m 4221.7497,-3515.2213 c 3.651,-2.831 6.72,-6.191 9.234,-10.0806 -5.98,2.619 -11.8532,5.424 -17.6476,8.414 2.805,0.56 5.636,1.111 8.4139,1.667 z" />
    <path
       style="fill:#ffffff;stroke-width:26.4582901"
       inkscape:connector-curvature="0"
       id="path4148"
       d="m 4244.4509,-3496.7269 c -15.9543,1.508 -48.0216,50.2974 -22.1191,54.5572 9.234,1.534 9.737,-17.2773 8.678,-22.6219 -1.349,-6.615 8.176,-25.8764 13.4407,-31.9353 z" />
    <path
       style="fill:#ffffff;stroke-width:26.4582901"
       inkscape:connector-curvature="0"
       id="path4150"
       d="m 4237.7306,-3505.1142 c -8.599,0.58 -16.9333,4.71 -21.0078,12.6206 9.1809,1.296 20.0553,-1.746 21.0078,-12.6206 z" />
    <path
       style="fill:#ffffff;stroke-width:26.4582901"
       inkscape:connector-curvature="0"
       id="path4154"
       d="m 4249.478,-3463.0983 c -8.9429,-9.366 -15.0018,5.318 -12.5941,12.6206 1.005,-6.72 6.0319,-11.4564 12.5941,-12.6206 z" />
    <path
       style="fill:#ffffff;stroke-width:26.4582901"
       inkscape:connector-curvature="0"
       id="path4156"
       d="m 4271.3325,-3477.3858 c -2.805,1.667 -5.609,3.36 -8.414,5.027 25.2941,-1.085 -17.5418,20.8227 6.72,15.9808 -3.254,2.011 -6.323,4.26 -9.2599,6.72 15.2135,17.1715 39.2904,-14.2345 47.0691,-25.2147 -5.821,1.376 -11.668,2.196 -17.6476,2.513 12.6205,-5.5031 24.2622,-12.8324 35.2952,-21.008 -5.9529,1.138 -11.8268,0.85 -17.6476,-0.85 6.773,-0.82 12.5942,-5.106 15.9807,-10.9273 -4.9739,-4.789 -10.8478,-6.747 -17.6476,-5.874 6.059,-1.879 12.1973,-3.307 18.4943,-4.207 -8.0699,-8.784 -18.7324,-3.625 -27.7281,0 11.7474,-6.165 25.7702,-16.5895 35.2952,-0.85 4.366,-8.387 9.3929,-31.0092 10.0276,-40.5078 0.71,-10.4775 -12.3824,-14.4727 -20.1347,-16.6158 6.35,-6.826 17.7535,-15.0549 14.2875,-26.0351 -15.9279,2.619 -29.7391,-1.984 -42.8623,10.0806 5.159,4.419 11.033,5.821 17.6476,4.207 -5.715,11.4566 -47.2015,2.7251 -52.9428,26.0351 14.7901,-7.832 37.3854,-4.604 48.7359,-18.4944 -6.271,13.2027 -23.389,19.4734 -24.368,29.4217 3.175,-2.408 6.244,-4.948 9.234,-7.567 -5.503,12.8323 -31.7763,9.79 -29.4216,26.9082 9.102,-0.079 17.1714,-4.6041 26.0613,-5.8741 -10.9801,6.5621 -23.5742,13.0705 -15.134,27.7284 -12.3824,1.244 -26.5641,-7.62 -34.4486,6.72 5.8209,1.64 11.6945,1.931 17.6476,0.85 -21.1136,7.567 4.5509,4.418 9.2599,0 -6.8789,10.9537 9.128,14.8431 11.7475,2.514 -0.29,6.879 -4.577,12.5942 -10.9273,15.1342 10.451,-5.107 12.1443,-3.704 5.08,4.1801 z" />
    <path
       style="fill:#ffffff;stroke-width:26.4582901"
       inkscape:connector-curvature="0"
       id="path4158"
       d="m 4239.4239,-3556.3906 c 4.8949,1.587 8.5199,-0.11 10.9272,-5.027 -4.339,0.19 -7.964,1.878 -10.9272,5.027 z" />
    <path
       style="fill:#ffffff;stroke-width:26.4582901"
       inkscape:connector-curvature="0"
       id="path4160"
       d="m 4260.4317,-3491.6734 c -4.075,6.218 -9.181,12.5413 -15.9808,15.981 10.0542,3.334 19.5261,-5.8211 15.9808,-15.981 z" />
    <path
       style="fill:#ffffff;stroke-width:26.4582901"
       inkscape:connector-curvature="0"
       id="path4162"
       d="m 4257.0715,-3523.6086 c -3.678,0.32 -6.747,2.011 -9.26,5.027 3.096,-1.667 6.165,-3.36 9.26,-5.027 z" />
    <path
       style="fill:#ffffff;stroke-width:26.4582901"
       inkscape:connector-curvature="0"
       id="path4164"
       d="m 4276.386,-3548.8235 c -7.038,1.005 -34.1576,-7.329 -23.5214,9.234 6.112,-8.493 15.1077,-5.715 23.5214,-9.234 z" />
    <path
       style="fill:#ffffff;stroke-width:26.4582901"
       inkscape:connector-curvature="0"
       id="path4168"
       d="m 4360.4436,-3472.3587 c -7.8319,1.614 -16.2188,2.223 -22.701,7.567 8.6779,5.636 18.944,1.879 22.701,-7.567 z" />
    <path
       style="fill:#ffffff;stroke-width:26.4582901"
       inkscape:connector-curvature="0"
       id="path4170"
       d="m 4354.5435,-3512.6813 c -7.752,4.286 -18.2032,12.3825 -13.4408,22.6748 7.25,-4.419 21.2195,-12.1444 13.4408,-22.6748 z" />
    <path
       style="fill:#ffffff;stroke-width:26.4582901"
       inkscape:connector-curvature="0"
       id="path4172"
       d="m 4365.4707,-3495.8803 c -8.9959,-7.303 -22.0926,14.023 -24.368,20.1614 12.065,5.186 26.9345,-7.4881 24.368,-20.1614 z" />
    <path
       style="fill:#ffffff;stroke-width:26.4582901"
       inkscape:connector-curvature="0"
       id="path4176"
       d="m 4291.5201,-3555.5439 c -2.884,2.752 -5.953,5.292 -9.26,7.567 -1.9579,-8.705 1.138,-11.2183 9.26,-7.567 z" />
    <path
       style="fill:#ffffff;stroke-width:26.4582901"
       inkscape:connector-curvature="0"
       id="path3804"
       d="m 3855.3302,-1828.4195 c 7.488,-22.8341 -24.2357,-42.4401 -18.4943,-68.0782 6.535,-29.077 31.3794,-55.2451 32.7288,-84.8521 0.53,-11.509 -18.9441,-36.8561 -14.8431,-45.0581 11.5358,-23.072 24.5797,-43.7361 49.3446,-54.1341 -11.377,5.64 -12.2766,4.55 -2.752,-3.31 6.5089,-6.56 14.2874,-14.076 16.1924,-23.6011 3.175,-15.769 22.463,-26.273 29.3685,-40.878 5.371,-11.2981 0.11,-27.6761 7.17,-36.2221 11.7739,-14.208 4.577,-18.282 7.329,-34.3431 1.958,-11.377 10.6891,-20.2931 17.2243,-29.236 8.0699,-11.0596 6.0059,-21.1668 11.0065,-32.5703 5.662,-12.8852 16.1395,-24.1036 25.9026,-34.0256 4.022,-4.101 26.4583,-27.6225 20.5051,-13.7318 2.831,-6.588 7.1969,-6.138 12.9645,-7.726 3.863,-1.058 12.5413,-16.9598 -3.704,-3.228 8.811,-11.5887 19.5261,-30.4536 36.1419,-31.0886 -18.415,4.5511 -0.93,-10.8215 3.5979,-17.0392 6.641,-9.128 13.8906,-17.78 21.0343,-26.5112 10.795,-13.2028 17.6476,-29.5806 30.5592,-41.0635 18.7853,-16.7216 36.724,-45.0851 50.4293,-66.7809 5.054,-7.9371 15.0282,-28.0195 27.1726,-25.9293 -4.418,-13.0968 10.8214,-30.48 18.6795,-39.1849 10.0805,-11.1918 13.3614,-28.9454 30.2417,-29.845 12.6471,-0.66 37.6764,10.3717 47.7042,1.799 -6.694,2.91 -15.5045,-4.789 -20.9285,-7.541 -10.3716,-5.318 -15.9278,-2.223 -26.4582,-0.56 -15.8749,2.487 2.752,-26.8024 5.345,-31.4062 -2.276,6.006 -4.816,11.8798 -7.567,17.6477 14.2875,-3.069 20.1082,-35.5071 36.9886,-27.7283 -5.371,-4.577 -11.5358,-6.271 -18.4942,-5.054 2.7249,-19.2882 19.1821,-19.0501 34.4485,-23.548 -6.985,0.48 -13.335,-3.122 -17.6476,-8.387 -2.513,2.593 -4.736,5.397 -6.72,8.387 8.572,-27.4108 28.9188,-55.3244 26.9874,-84.7197 -0.93,-13.9965 15.9807,-58.2613 30.0829,-54.5571 22.5424,5.874 38.5496,18.6266 62.3355,22.7277 14.3403,2.461 51.0643,-1.164 51.1966,13.2027 1.64,-6.562 6.853,-11.2977 13.4408,-12.6206 -3.81,6.482 -1.111,14.8166 -3.149,21.7488 -2.461,8.334 -21.9339,17.78 -28.7866,22.8071 18.8647,-19.3675 -7.4879,-1.138 -11.1917,1.376 -11.7474,7.964 -22.2779,17.5154 -33.3373,26.3526 8.2549,7.25 17.674,0.74 25.2145,-3.3601 -5.7409,1.561 -11.3505,3.4931 -16.8009,5.8741 0,-12.7001 15.1605,-20.1878 25.1089,-24.0772 17.0919,-6.641 28.416,-17.8065 43.7883,-27.1992 4.8949,13.1763 -28.1251,22.0398 -32.7818,36.1421 16.4836,-8.996 -0.053,22.8072 -14.2874,24.3682 2.514,-2.805 5.027,-5.583 7.567,-8.414 -10.9537,1.323 -16.9068,11.9856 -23.5478,19.3146 -0.63,-7.064 3.44,-13.1763 9.2599,-16.8011 -12.6205,4.286 -20.9813,17.1979 -34.475,19.3411 11.3771,-2.699 11.3771,-0.74 0,5.874 8.784,-7.17 11.0331,-5.768 6.72,4.207 3.254,-9.234 11.1918,-13.8377 20.2935,-8.864 5.7679,3.149 17.5682,-8.387 21.6428,-11.1125 15.0547,-10.107 36.0625,-16.1926 38.3379,-38.8409 1.64,-16.5365 36.2477,-26.3525 32.5171,-38.8938 -3.149,-10.5305 8.546,-19.1559 4.895,-30.8769 -2.752,-8.811 -13.917,2.355 -7.567,-12.5942 19.6849,10.1071 22.7012,-14.2347 32.7818,-24.3947 -12.8059,1.879 -10.3452,-14.896 -4.895,-20.955 9.8689,-10.9274 43.5502,-4.26 56.9116,-4.26 54.4245,0 108.8225,0 163.2471,0 106.5735,0 213.1208,0 319.668,0 215.4491,0 430.8717,0 646.3208,0 216.3487,0 432.6974,0 649.0196,0 103.9543,0 207.9086,0 311.8628,0 12.8058,0 15.7692,-14.1817 20.9284,-24.5798 4.366,-8.784 22.6218,-18.0182 25.2941,-2.831 3.096,17.6213 -27.6753,50.9324 -2.408,56.7003 7.514,1.693 44.5292,1.508 44.5027,13.1498 -0.053,12.7266 38.0204,-3.493 44.979,-6.271 15.2663,-6.112 32.2789,6.8 46.6986,10.0542 -4.286,6.8261 -0.69,11.2978 6.721,11.774 -3.281,3.572 -3.307,18.7325 4.18,15.584 3.175,-1.349 2.778,-8.811 6.7469,-8.837 9.604,-0.16 15.1607,6.033 22.3043,11.1919 5.794,4.18 11.8798,1.323 11.139,8.493 -0.48,4.657 3.4399,6.482 7.4349,6.853 23.1774,2.196 43.5766,-15.3988 65.8545,-15.6369 -8.943,16.2454 19.9494,12.9381 27.8605,12.3031 7.4609,-0.58 16.6157,-2.037 23.0185,2.858 12.6471,9.657 21.6693,3.863 35.6922,7.541 -48.6302,15.1342 -99.8003,29.9244 -144.9116,54.028 -18.7588,10.0013 -35.6921,23.0453 -54.2922,33.364 -20.7432,11.5359 -44.4762,18.3621 -63.0234,33.6287 16.4041,24.9766 91.4395,-16.0074 112.6061,-17.6478 -2.487,11.6153 -15.1606,25.3472 -25.2147,31.1151 5.609,1.64 15.9014,-5.715 19.4732,-2.752 6.323,5.265 4.683,6.641 14.7108,6.641 17.436,0 34.9248,-10.9802 50.4029,-17.727 18.309,-7.991 37.8352,-3.043 55.2976,-11.536 23.0186,-11.1654 45.7991,-19.8437 67.7065,-33.4698 -3.598,8.387 2.672,14.1288 4.207,21.8546 1.64,8.123 -7.514,14.5522 -9.234,21.8547 4.18,-3.519 39.8195,-26.6701 18.4942,-6.72 22.0662,-17.0128 39.3698,-2.196 50.5882,18.2827 10.5303,19.2352 22.3836,11.721 40.1371,18.3092 24.606,9.102 47.8892,-13.6525 70.7756,-19.3675 13.7053,-3.413 27.543,-0.45 41.4071,-1.482 17.4624,-1.323 34.4485,-5.742 51.7522,-8.149 -5.4499,9.075 -11.1653,18.0446 -13.4407,28.575 16.4834,3.836 31.4587,2.196 46.8839,0.053 13.8905,-1.905 9.7629,25.2149 -1.482,27.6756 10.8478,0.74 12.1178,13.0175 18.4942,19.3145 -16.0336,15.1342 -42.5977,-8.705 -61.092,2.011 -0.71,0.42 -12.0914,13.0439 -11.6681,12.991 -10.9272,0.66 -11.1388,-14.9489 -20.9548,-18.7854 -28.9718,-11.2977 -46.5929,9.79 -74.9297,8.308 -30.0035,-1.561 -42.6506,26.1674 -69.1881,33.2847 4.471,-10.1865 14.6313,-15.6369 21.8545,-23.5216 -17.9916,2.937 -25.6381,14.1024 -42.0157,18.4945 1.111,-6.482 3.625,-12.3825 7.5669,-17.6478 -29.1304,10.7951 -53.8159,47.3076 -77.8136,66.4635 -6.1119,4.895 -8.4399,12.8059 -14.6313,17.5948 -6.879,5.318 -16.5364,4.842 -23.6801,10.2394 -10.8743,8.202 -26.1142,21.7224 -28.4425,36.0099 20.7697,-4.127 41.2748,-39.1584 64.3199,-29.9509 8.3609,3.334 -19.6585,28.8926 -22.6218,32.3586 -9.843,11.43 -14.8696,26.8817 -25.7703,37.2534 -22.1455,21.0873 -31.3794,46.5933 -52.3078,68.8976 -10.6363,11.3242 -19.9231,26.0086 -24.1035,41.0899 -3.889,14.023 -1.164,28.5486 -10.8743,40.693 -15.8485,19.8173 -24.5003,64.5851 -16.7745,89.2711 6.429,20.4791 36.2741,8.02 49.0006,2.38 29.3421,-12.964 51.8051,-35.163 72.3896,-59.2931 11.1125,-13.0444 21.2195,-26.6704 28.522,-42.2545 6.2179,-13.2556 6.2709,-44.6882 19.7643,-51.779 -21.7752,-13.044 -3.281,-37.2798 6.7729,-51.3557 6.482,-9.075 4.948,-18.5738 9.499,-28.0988 4.762,-9.922 20.2935,-17.4891 27.7017,-25.9028 8.414,-9.525 11.4035,-18.8648 16.4835,-30.2154 4.5509,-10.16 14.0493,-10.9802 21.8809,-17.251 9.79,-7.858 10.5039,-12.8058 23.5213,-15.6368 15.3194,-3.307 22.7541,-19.3411 36.9886,-24.8709 -8.9959,11.4036 -11.8268,26.9611 -22.7011,36.9888 6.5089,-3.122 11.8268,-7.594 15.9808,-13.4408 -1.111,7.038 -5.318,13.335 -10.9273,17.6477 17.6476,-7.408 25.0559,-24.8709 33.0463,-40.8517 9.8959,-19.8174 31.4853,-12.0651 47.6512,-21.352 -27.0667,-4.445 12.5942,-35.2954 24.5003,-37.4914 7.223,-1.323 23.442,8.599 30.1359,12.2766 15.8485,8.731 28.9188,19.6586 45.7727,26.8023 13.9699,5.953 20.2934,25.1885 7.276,31.4855 -12.5148,6.059 -8.149,24.9238 -10.4775,35.8512 -2.858,13.3614 -13.6259,35.9833 -27.4635,40.4283 -15.1871,4.895 -19.3145,20.5847 -33.4697,27.0141 -13.3878,6.059 -30.7709,13.0968 -33.5754,29.8979 -3.651,21.6959 25.4263,4.604 31.4324,2.805 12.3824,-3.731 57.9434,-52.4935 72.1779,-31.9617 11.0595,15.9544 -5.001,55.4303 -6.747,72.0726 -2.275,21.6959 -15.0811,72.6283 -44.0794,74.8508 9.922,-10.1601 -3.9949,-15.7957 -10.9801,-7.0641 -5.927,7.4351 -8.572,17.5419 -15.9013,23.8919 -7.805,6.72 -17.436,10.6099 -25.3206,17.1709 -8.44,7.01 -13.2026,16.6431 -21.9338,23.5751 -6.429,5.11 -37.2002,24.156 -19.7643,30.4 6.244,2.25 13.0175,3.52 19.1028,6.14 2.725,1.8 4.921,4.13 6.588,6.9301 4.154,3.25 13.2291,0.053 18.6531,3.15 -8.731,1.85 -17.9387,1.69 -26.0614,5.9 8.625,4.97 17.1714,-2.17 26.0614,-0.8 5.9,0.9 11.6415,3.86 17.6476,4.05 19.4468,0.6 37.5971,-8.2 57.6259,-7.59 19.3674,0.6 36.9621,-16.5891 53.472,-24.5801 19.1558,-9.29 40.9309,-14.34 61.2243,-20.611 42.2008,-13.097 84.9838,-28.4691 122.7661,-51.7523 15.9807,-9.843 33.6283,-19.0236 48.8154,-29.9245 8.8109,-6.324 17.6476,-32.1204 0.71,-32.6231 15.7161,-20.2143 26.9343,-24.8709 54.398,-28.5751 14.8166,-1.984 31.3265,-1.932 46.0373,0.58 11.7474,2.011 20.7696,15.2664 32.7023,12.2502 15.1341,-3.81 28.6806,-1.455 43.9735,-3.254 16.801,-1.958 30.8767,-12.7529 46.2225,-18.8912 11.6681,-4.657 25.6115,-4.366 29.7919,-18.759 4.313,-14.7903 13.8641,-24.9503 25.8497,-34.1049 -6.826,3.016 -18.0181,5.689 -9.234,-6.72 -9.71,6.694 -11.4035,1.535 -6.773,-4.524 4.789,-6.271 13.388,-9.684 20.3464,-12.7265 20.7168,-9.075 36.7769,-21.7488 55.0331,-35.1896 19.7114,-14.4463 44.5291,-33.5228 69.1088,-37.9414 31.7763,-5.689 65.5899,-0.9 97.7101,-1.508 47.5984,-0.9 94.4822,-2.064 141.9747,0.32 9.1019,0.45 35.4011,4.524 41.8569,-4.763 5.318,-7.646 10.6626,-17.3037 19.0499,-22.0398 9.3659,-5.2651 21.0607,-2.4081 31.5117,-8.5461 1.429,2.778 2.805,5.583 4.207,8.4141 10.3981,-4.4451 6.456,-14.7374 18.4149,-13.3615 -2.725,-0.32 31.7228,-32.5173 35.2418,-34.8192 14.235,-9.4461 21.9079,-12.118 25.7179,-28.7339 2.99,-13.0175 16.7739,-25.3735 27.0929,-32.2792 12.4619,-8.334 13.2029,-22.8336 22.1979,-33.6815 12.5149,-15.0548 30.8238,-25.797 45.8787,-38.1001 12.806,-10.451 56.8057,-61.1453 52.5458,-20.1877 -2.27,21.9075 48.0487,-1.111 54.5577,-2.831 38.6818,-10.4776 31.9078,37.7031 23.5739,58.5524 -7.46,18.6795 -13.388,37.8618 -20.1349,56.7796 -3.52,9.869 -21.5899,38.0208 -14.896,48.3924 7.09,11.0067 22.1459,0.26 15.028,16.6688 -5.05,11.6152 -13.229,23.548 -4.44,35.4013 7.0099,-7.091 14.1819,-4.101 16.4049,5.027 2.65,10.7686 -8.33,13.8377 -9.74,23.5215 11.509,-7.779 11.165,1.111 6.24,6.932 -5.26,6.2441 -14.9489,8.2281 -22.4899,9.7101 -9.2099,1.799 -16.9329,3.175 -25.0288,8.467 -5.82,3.81 -26.9079,19.3411 -19.2089,0.11 -7.7,2.54 -13.15,11.7739 -21.8279,11.7739 -6.51,0 -5.05,12.2767 -12.621,14.2875 0,-5.212 0.2,-18.8912 -8.9699,-16.7746 -10.292,2.434 -16.4039,18.0182 -17.9919,1.641 -0.2,7.567 -2.72,6.641 -8.17,6.323 -6.43,-0.4 -5.93,15.6633 -6.06,18.8913 -13.4409,-8.678 -11.8539,-19.6321 -9.2299,-33.6286 -3.2,9.737 -14.5519,11.0331 -21.0079,17.6477 -7.36,7.541 -10.795,18.124 -17.7269,26.0351 -16.2189,18.6002 -31.0089,9.102 -46.1168,29.4481 -1.88,-5.477 -3.31,-6.641 -0.9,-12.6206 -2.75,2.567 -5.58,5.08 -8.3899,7.541 5.4199,-21.537 -10.504,2.011 -11.6681,7.567 0.61,-9.287 1.799,-18.6002 9.234,-25.2148 -5.11,2.355 -9.048,6.006 -11.8005,10.9273 8.706,-2.117 -3.016,21.7488 -7.5939,25.2148 -0.42,-3.651 -0.98,-7.303 -1.64,-10.9273 -4.18,3.44 -17.8858,15.4783 -2.567,-1.667 -14.1816,19.2617 -5.98,2.037 -3.387,-3.36 -9.1809,5.953 -28.2043,11.8005 -29.1039,24.6858 -0.24,3.704 -18.8912,20.0818 -22.9393,22.516 -15.9807,9.631 -73.6068,58.6847 -47.8894,78.0258 -8.0959,4.789 -40.4017,16.9334 -39.0258,29.3952 0.66,5.908 14.2609,8.022 17.4888,13.2555 8.149,13.2821 -4.18,29.5271 10.4775,42.7831 12.356,11.166 36.7769,0.3 39.555,-15.69 -10.2658,0 -1.693,-10.186 -11.6681,-16.801 17.8328,-0.8 15.0813,25.347 9.287,35.296 -6.826,11.747 -51.1702,19.2611 -64.0289,17.6471 2.593,-6.0301 5.424,-11.8791 8.52,-17.6741 -17.5947,9.13 -36.2478,22.1991 -55.5623,23.5751 3.678,-8.8101 5.821,-18.7331 13.5467,-25.2151 -8.308,4.15 -17.6476,15.346 -19.3674,0 -15.3987,19.1031 -16.2453,36.5651 -44,40.9571 -5.477,0.9 -50.9056,8.12 -50.0855,-2.3 -0.4499,11.034 -17.1184,11.086 -24.6589,10.981 -16.4835,-0.2 -25.056,0.026 -40.825,6.32 -31.4589,12.594 -62.1504,23.0191 -89.1907,43.2071 13.2027,-16.431 25.5322,-32.2531 22.6483,-54.6371 -10.9272,18.495 -3.519,53.5251 -31.8292,62.0451 -22.1191,6.64 -23.8124,23.7331 -0.16,26.2201 -4.233,21.881 -18.7853,41.116 -30.2417,59.6901 2.805,-5.61 5.609,-11.218 8.387,-16.8271 -18.5737,-0.4 -23.3891,50.9581 -44.4763,49.1061 -6.72,-0.6 -23.7066,27.0671 -28.0986,31.8561 -9.895,10.689 -23.4684,24.897 -39.1316,25.7711 2.0639,-5.3201 15.6367,-18.6011 7.7519,-23.9721 -13.1497,-8.97 -22.0133,-9.5 -31.3,-24.685 -16.6422,-27.2521 26.7756,-36.1161 40.3487,-47.9961 -20.6109,8.7 -56.5411,21.908 -46.2225,51.1711 5.98,16.933 -0.29,33.813 6.879,51.6201 5.7679,14.287 2.646,24.818 -6.906,30.03 12.5941,2.59 6.641,14.446 1.641,21.0081 8.7579,-19.2091 -2.011,-1.75 -3.625,2.41 -2.567,6.67 -12.5412,11.403 -17.6212,15.981 -13.6788,12.435 -22.9657,25.982 -34.2369,40.4541 -10.0806,12.965 -24.1563,22.596 -33.9194,35.349 -5.7679,7.5401 -12.1972,28.0191 -24.1034,27.7021 -4.101,-18.865 13.1497,-38.6031 24.4738,-51.4091 5.689,-6.43 20.4786,-27.8341 27.7017,-29.2631 -6.879,-2.72 -13.3349,-1.88 -19.3674,2.54 2.223,-8.15 23.8918,-24.421 2.461,-24.394 4.101,-5.34 7.197,-11.245 9.3399,-17.648 -8.5199,13.97 -13.626,-6.7201 -15.9808,12.62 -1.535,-4.55 -14.1286,-12.673 -12.7792,-17.303 2.408,-8.2501 14.7636,-12.5151 7.7789,-22.1991 5.927,0.1 11.5358,1.51 16.7746,4.21 -1.64,-7.01 -9.922,-21.563 -19.3674,-15.981 4.0479,-11.827 10.5568,-3.92 18.2297,-8.65 12.9115,-7.94 -7.408,-13.2821 -14.8431,-7.3 4.154,-13.7851 23.0451,-8.7301 26.0349,-24.3681 -2.699,2.38 -5.503,4.63 -8.4139,6.72 -7.117,-22.886 26.5111,-29.183 42.0155,-31.088 -2.8839,-2.17 -5.6889,-4.39 -8.4139,-6.75 6.509,-3.1001 11.8268,-7.5701 15.9807,-13.4411 -5.768,3.6 -11.6151,6.96 -17.6211,10.081 2.699,-2.94 5.212,-6.06 7.594,-9.23 -8.758,-1.09 -12.9646,3.94 -17.1979,10.609 -2.9369,4.6001 -19.4203,18.5211 -8.9429,1.1401 -4.71,3.44 -8.07,7.94 -10.0277,13.441 -3.3069,-15.9811 -18.7589,2.57 -17.6476,10.107 -3.096,-1.35 -6.1649,-2.75 -9.2069,-4.21 1.191,6.38 3.942,11.986 8.2809,16.828 -10.5832,1.03 -9.3129,2.75 -2.461,9.23 -23.9711,-14.844 -17.4359,59.9282 -23.6006,67.2302 -12.4884,-8.3601 -14.7373,-20.7701 -10.0277,-34.4491 -3.942,11.192 -6.906,21.088 1.429,31.2211 6.456,7.89 15.0812,19.685 4.418,28.469 -3.281,-13.07 -33.7606,-13.255 -28.6013,-28.575 -4.3659,-0.8 -5.4769,1.98 -3.281,8.39 -5.8739,-3.28 -10.5568,-8.68 -12.647,-15.1081 -13.7053,12.2501 -20.1876,-3.52 -8.3869,-14.631 9.0219,-8.47 29.8183,-16.854 22.6481,-32.465 0.58,16.007 -46.487,45.509 -36.38,54.4781 6.112,5.45 16.166,-1.61 21.0607,6.8 8.255,14.155 10.8215,10.213 25.8497,14.155 6.138,1.64 10.3451,14.949 15.7162,19.394 8.996,7.4401 7.62,11.5361 -0.5,20.5051 -21.4312,23.707 -34.7396,-12.515 -42.5448,-29.6071 -0.82,15.716 11.721,39.3441 25.2676,47.0171 16.6157,9.44 12.9909,23.6271 -7.673,20.214 1.244,3.0401 2.355,6.1401 3.387,9.2601 -12.9115,7.54 -19.3674,-10.4771 -26.0349,-17.6471 8.89,15.9801 42.5448,39.8191 11.7475,50.4031 -10.4245,-30.163 -30.0565,-27.755 -57.1497,-37.809 2.831,5.72 21.0872,7.04 28.0721,11.985 9.604,6.88 29.5803,23.76 18.1503,36.751 5.292,-5.66 12.065,-5.11 16.8011,0.8 -1.349,-13.574 12.6734,-9.08 20.4522,-6.85 9.8159,2.83 7.5669,10.6361 7.5409,20.0821 0,12.541 -1.217,24.685 -2.328,37.147 -1.402,15.9811 7.885,33.2051 2.91,48.7891 -0.85,-13.546 -1.376,-27.596 -5.212,-40.692 -3.7309,-12.7001 6.376,-25.8771 -3.2019,-37.4651 -0.63,4.5 -2.619,13.573 -7.594,5.03 -0.26,16.457 10.7684,33.5221 2.593,49.5831 0.82,-6.59 -0.87,-12.489 -5.027,-17.648 -3.36,9.07 -10.0276,10.133 -16.0336,2.51 1.64,2.96 3.043,6.06 4.207,9.26 -6.588,4.18 -12.4619,3.33 -17.6477,-2.51 8.3869,17.092 -8.599,3.92 -14.3139,0.8 2.434,2.67 4.657,5.45 6.72,8.41 -8.255,2.09 -15.2664,11.377 -24.368,5.87 -9.6569,-5.85 -5.212,-19.024 0,-26.035 -4.472,3.86 -16.0337,31.088 -8.7049,35.613 6.5089,4.02 15.478,-5.19 22.0397,-2.78 5.3449,1.93 31.5117,-7.04 30.3475,4.92 -0.79,8.18 -5.371,19.9761 -10.9007,26.1411 7.5669,-2.49 10.4774,-8.76 12.4088,-15.8491 2.54,-9.31 12.8057,-6.64 18.653,-12.726 6.324,13.044 -5.768,22.2511 -7.567,34.4751 -11.7739,-8.52 -19.7908,11.033 -25.9555,17.542 -11.43,12.118 -32.7553,5.21 -44.6085,-2.43 1.746,-2.94 3.704,-5.74 5.874,-8.41 -6.615,1.59 -11.086,6.32 -9.26,13.467 -11.033,-5.42 -24.3945,-3.99 -34.4485,-11.747 6.112,6.43 47.5188,22.595 30.0564,29.3951 -6.6679,2.59 -2.434,11.007 -8.5459,15.293 -13.5202,9.47 -20.8226,8.49 -34.1047,-1.83 1.085,11.642 8.996,15.849 19.8436,14.499 7.355,-0.9 30.7974,-10.98 27.2256,-0.2 3.731,-2.09 7.673,-3.78 11.7474,-5.05 -4.5509,7.43 -12.356,16.881 -20.1612,21.008 -4.4179,2.36 -29.8448,0.4 -23.5477,6.7501 -13.2821,-2.1701 -31.5647,-4.2101 -41.4865,4.6 -6.773,6.06 -20.9019,16.404 -16.5099,-1.24 -4.286,3.81 -4.022,10.716 -5.477,15.743 -1.587,5.37 -13.0968,7.51 -17.4889,9.95 -19.1028,10.451 -29.8978,28.6281 -40.9044,46.6201 1.455,-5.53 2.037,-11.139 1.667,-16.828 -7.488,32.597 -37.8088,22.119 -64.3728,30.083 -30.1623,9.05 -49.371,36.0631 -67.5743,59.8491 -4.5239,-6.06 -2.5669,-12.673 3.36,-16.801 -9.9479,5.58 -2.17,23.76 -13.4407,26.0351 -6.059,1.22 -3.545,5.37 -7.435,8.92 -6.9059,6.27 -8.9159,-0.2 -15.2664,3.7 -6.72,4.13 -37.1473,41.4341 -41.169,18.468 3.731,18.97 -12.1178,21.5631 -25.0294,28.3891 -8.0959,4.29 -14.6049,8.44 -24.2092,6.67 -4.075,-0.7 -29.448,0 -7.911,3.63 -25.5321,5.08 18.2562,1.93 -8.387,12.62 20.3463,-1.98 -13.4672,14.844 -10.0806,-5.03 -2.222,22.675 -9.26,-3.39 -10.0806,-8.41 0.24,7.49 2.937,14.631 3.096,22.092 0.19,9.34 -19.8436,23.6011 -8.1229,6.48 -13.2556,20.0021 -14.7901,27.3051 -38.6554,34.4751 1.138,2.78 2.249,5.58 3.36,8.41 -5.345,3.28 -10.9273,3.86 -16.801,1.67 -0.32,3.12 -0.026,6.19 0.85,9.23 3.122,-1 6.218,-2.09 9.26,-3.36 -2.09,10.3981 -12.1972,14.7641 -21.8544,14.3141 10.4509,5.74 5.318,21.246 -2.514,13.441 2.752,13.785 -4.63,8.33 -15.134,5.9 6.429,2.12 11.4828,6.06 15.134,11.748 -7.8579,7.65 -17.5418,6.72 -21.8015,18.4411 -3.016,8.33 -16.5629,29.448 -9.7099,37.809 2.99,2.91 2.778,5.56 -0.64,7.89 -8.255,5.56 -2.434,7.4301 -0.98,16.6421 2.831,17.939 -1.614,38.89404 -1.693,57.04408 -0.21,39.13207 9.7099,78.68715 23.0186,115.25322 6.5619,18.04403 5.3449,21.96004 0.21,39.05207 -5.054,16.88103 0.63,32.33206 2.328,49.08009 -6.932,-17.30303 -9.975,-35.82406 -2.619,-53.5251 8.4399,-20.29304 -11.6946,-15.55703 -12.5148,-32.20006 0,30.77106 4.022,60.11411 12.2238,89.74717 4.4449,16.08703 15.7426,49.08009 3.731,64.08212 27.5165,-3.86001 -7.011,113.00422 -12.6735,125.73024 -9.2869,20.82304 -22.4631,64.50512 -42.7829,75.96214 -6.7729,3.84001 -4.0479,-12.46202 -12.5677,-0.5 -6.059,8.55002 -15.3192,0.08 -23.4419,3.02001 -13.5995,4.97001 -34.1046,-1.56 -19.4468,-17.64704 2.752,6.01002 7.937,10.66202 14.2874,12.59403 3.545,-9.18002 -12.1443,-18.49404 -15.8485,-25.37405 -8.1489,-15.13403 -2.169,-31.64406 -19.8171,-42.25408 -10.4245,-6.22001 -21.1402,-7.14001 -22.3572,-21.48404 -1.191,-14.12803 7.752,-33.97206 -9.2599,-42.01608 10.0277,-3.41001 15.0812,-13.70503 23.5479,-19.31404 -8.705,2.65001 -14.0494,12.96403 -22.7012,16.19203 -7.276,2.70001 0.37,-37.09407 5.027,-42.25408 -5.821,3.94001 -11.43,3.68001 -16.801,-0.8 12.1179,13.78503 -7.0909,16.74803 -13.4408,0 -5.847,-15.37303 1.111,-41.93708 -15.134,-52.0971 13.1232,-0.9 38.7083,-31.35305 31.0883,-44.55608 -2.831,1.88 -5.6359,3.86001 -8.3869,5.87001 0.77,-7.25001 -3.836,-12.99102 -10.0806,-15.98103 -4.048,6.01001 -4.233,10.92802 2.037,15.29303 5.53,3.86001 -6.482,16.48403 -8.7579,19.18304 -3.889,-6.30002 -7.329,-14.57903 -5.874,0 -10.6627,-34.34307 23.2039,-66.91413 31.1413,-98.63719 2.805,-11.29802 2.752,-21.45804 0.5,-32.86106 -3.863,-19.44704 -11.5358,-13.28203 -23.6537,-24.76505 -17.5947,-16.72203 -23.4419,-40.95808 -33.4431,-61.83312 -4.842,-10.13402 -15.822,-21.24704 -26.6434,-24.81804 -15.822,-5.21004 -26.1142,10.84802 -41.1954,9.26001 2.5929,12.85903 -9.155,9.82002 -19.7642,16.37804 -4.127,2.57 -22.7806,14.81602 -20.5845,3.78 -11.8798,8.94002 -27.4901,11.77402 -42.0157,11.77402 8.7579,-11.37702 1.561,-26.24604 -10.0806,-31.93506 5.583,0.70001 4.762,-2.36 -2.514,-9.26001 11.4035,8.78001 15.0548,-2.20004 3.81,-3.33004 -16.9597,-1.72 -4.895,-13.6 4.604,-15.981 -8.149,0.3 -16.2453,0.7 -24.368,0.8 2.275,2.78 4.498,5.58 6.72,8.41 -16.457,4.18 -43.7883,-14.87 -57.9964,-21.855 1.905,0.3 30.9032,4.31 28.8394,-1.08 -1.984,-5.21 -11.5092,-8.6 -16.2982,-9.61 -8.6249,-1.82 -16.748,5.8 -24.2622,8.65 -12.8322,4.9 -31.009,4.95 -44.5555,4.58 7.7259,-0.8 15.0017,-3.04 21.8544,-6.72 -7.1169,-2.33 -9.8959,-7.99 -5.0269,-14.2881 -4.286,4.7601 -8.202,9.7901 -11.774,15.1081 5.107,-23.2571 -9.3129,-1.22 -13.9434,3.7 -6.985,7.36 -15.2664,11.139 -25.5587,10.584 6.35,-1.61 22.0397,-9.23 12.6206,-17.648 -7.064,19.129 -32.6494,29.316 -51.276,21.855 18.6795,7.01 9.922,-38.8681 6.72,-47.9161 -4.577,9.79 -10.1864,20.9551 -15.9543,30.0831 -4.392,6.98 -16.5099,2.91 -23.3626,6.72 -3.678,2.04 -22.2778,2.65 -20.3728,-0.3 -7.064,10.637 -15.7691,-7.01 -23.5478,-3.78 3.545,1.19 -22.7541,6.88 -28.2838,7.51 -13.97,1.61 -15.822,9.58 -29.2363,14.182 -24.2357,8.28 -31.935,-19.526 -53.5249,-19.103 -7.647,0.2 -33.3639,21.987 -20.5051,29.07804 8.4669,4.66001 23.1509,3.99 31.8821,0.6 7.144,-2.80004 22.5953,-1.24004 27.3842,-5.34004 -2.963,3.86 -21.1665,11.64105 -18.9176,17.67406 5.7149,15.21303 12.1443,6.61001 19.2351,-1.03 9.2869,-10.08102 22.7276,2.94 16.0072,14.12903 -5.715,9.50001 -24.8442,1.72 -21.4047,17.99103 -11.3769,-4.18001 -12.6734,3.94001 -9.8689,12.70002 4.4979,14.18203 14.8959,15.47803 27.9133,19.31504 6.35,1.88 8.916,10.87402 13.5995,15.84803 4.683,4.98001 -11.8003,13.65303 -11.4564,20.21504 -8.837,-13.30903 -18.2826,-0.3 -26.0613,5.90001 4.736,-6.38001 9.446,-12.83202 12.6206,-20.21404 -7.937,-1 -5.741,-5.21001 -8.943,-10.10702 -1.984,-3.02 -21.8809,-10.00202 -25.5057,-10.05502 6.641,-10.79502 -25.585,-26.61705 -29.5009,-23.15104 -2.196,1.93 6.138,14.47303 5.371,18.94504 -2.223,13.01702 -6.377,24.52604 -20.3993,27.75405 -0.4,-12.17103 1.561,-15.82203 -11.774,-18.46804 -21.3253,-4.29001 -11.9855,11.82703 -27.146,15.02903 -23.8124,5.03001 -49.424,-22.54304 -35.8774,-45.29708 -5.4499,10.18701 -18.6001,5.50001 -25.0029,-0.70001 -4.154,-4.1 -7.17,-10.10701 -5.265,-16.03403 -8.546,-1.35 -24.4738,5.98002 -13.4407,-8.41001 -10.5304,0.1 -35.8245,10.05402 -25.2147,24.36804 -15.9543,-2.67 -29.8713,5.37001 -46.9369,1.00001 -20.0817,-5.19001 -37.4912,-17.48904 -57.282,-23.62705 9.208,-8.10001 13.2292,-15.69003 8.387,-27.75505 -3.387,8.84002 -5.239,30.40106 -16.404,32.99406 -10.4246,2.43001 -29.9508,4.79001 -39.899,-0.2 5.1059,-7.49001 15.2134,-13.07102 14.2874,-23.52204 -11.668,5.85001 -22.807,17.99203 -13.4407,31.08906 -30.9562,4.07 -62.8383,14.20802 -88.2382,32.78206 7.461,-9.74002 19.8172,-16.06103 31.0884,-20.18804 -8.8899,-1.72 -17.6476,0.8 -26.0613,3.36001 5.742,-7.25002 12.1443,-16.08704 9.2599,-26.03505 -7.5409,1.64 -8.6779,8.81001 -15.134,11.74802 -6.138,2.8 -6.641,-8.65002 -12.6206,-1.67 -5.159,6.03001 1.032,28.70705 9.2339,31.11505 -14.5255,14.34003 -30.7444,23.81205 -44.6614,39.02608 -19.05,20.82304 -54.8479,16.98603 -71.3049,36.61807 5.609,-1.67001 11.1919,-3.36001 16.801,-5.03001 -13.6789,7.59001 -27.9928,14.39302 -42.8623,19.31503 6.72,-6.17001 15.6898,-9.08001 21.8544,-15.98103 -5.7409,1.56001 -11.3505,3.52001 -16.8009,5.90002 12.9646,-8.04002 -15.5045,-5.87002 -18.4943,-15.13403 1.376,5.82001 -0.026,10.84802 -4.207,15.13403 2.831,-24.97705 -30.8503,14.65802 0,13.44102 -10.451,9.90002 -26.3523,14.20803 -33.6284,-1.67 1.005,13.83802 -22.9657,44.29108 -19.3145,26.03505 -6.165,13.17602 -21.8544,-0.5 -26.908,15.10803 6.906,1.96 12.8058,0.3 17.6476,-5.03001 -3.3599,26.00804 -28.9717,21.40404 -47.9157,26.90805 3.36,0.5 6.72,0.7 10.0805,0.8 -2.7779,6.30001 2.037,10.42502 3.916,15.79603 2.302,6.48001 -10.2128,20.61104 -13.3084,25.53205 -8.361,13.15002 -26.5376,13.97002 -33.4696,-1.00001 3.9159,6.08002 3.6509,11.95903 -0.85,17.67404 8.3609,1.96 17.2243,3.86001 25.2146,-0.8 -2.355,9.15001 -7.0639,24.52704 -16.2982,29.15705 -7.7259,3.86001 -0.5,23.46805 -0.5,29.66006 0,18.62603 -11.2712,57.20311 3.36,72.28413 2.91,-2.43 5.715,-4.95001 8.387,-7.57001 2.1959,8.92002 -19.4997,17.27703 -25.5587,18.15003 -11.9856,1.67001 -19.7113,-18.97003 -33.4431,-18.97003 -11.2448,0 -26.4318,2.96 -36.5389,-3.33001 -11.8003,-7.38001 -25.6379,-24.23604 -41.0366,-26.48505 -26.6963,-3.89001 -25.9555,-21.93404 -29.3686,-46.85809 -2.275,-16.74803 -6.853,-31.16806 -5.292,-48.39209 0.69,-7.41001 4.207,-14.34003 4.286,-21.85504 0.053,-10.84702 -14.3403,-14.63103 -19.1293,-23.46804 -7.488,-13.67903 -8.123,-29.79206 -17.6476,-42.51908 -9.419,-12.56703 -12.8322,-25.92905 -15.7161,-41.22208 -2.752,-14.49903 -1.217,-29.26306 -4.683,-43.70909 -1.72,-7.17001 -6.244,-12.59402 -8.255,-19.47303 -2.408,-8.39002 -13.4936,-13.75903 -14.2609,-21.35204 -1.402,-14.12903 -21.5105,-18.75904 -22.8864,-33.73407 -0.16,-1.64 -26.7756,-5.16001 -29.2627,-5.56001 -27.543,-4.05 -55.8268,-5.05001 -80.4594,9.50002 -26.8022,15.87503 -31.8557,55.64211 -60.8803,71.06714 -12.9381,6.88001 -29.1041,-9.45002 -38.8671,-16.06003 -8.837,-5.95002 -18.2826,-10.90103 -27.0138,-17.03904 -6.6679,-4.68001 -12.7793,-17.62203 -20.0289,-20.37304 -15.4251,-5.80001 -18.7059,-29.60705 -18.018,-43.89508 0.45,-9.63002 5.133,-17.14506 3.625,-27.06706 -1.349,-8.84 -4.313,-17.092 -3.466,-26.22 1.561,-17.0131 -12.8586,-23.3891 -24.659,-31.6441 -16.5099,-11.536 -27.5694,-36.5921 -37.703,-53.4721 -8.3609,-13.97 -20.0024,-11.272 -24.3415,-30.2421 -4.9209,-21.405 -36.8034,-14.817 -52.4137,-14.817 -25.1353,0 -50.5616,1.06 -75.644,-0.4 -27.8605,-1.64 -29.6596,12.409 -39.1316,33.3911 -12.0385,26.59 -67.7331,12.462 -90.5136,12.462 -46.3547,0 -94.0589,4.39 -140.1754,2.17 -21.5635,-1 -40.9309,-14.658 -60.2983,-22.992 -26.6699,-11.4561 -54.4246,-20.6111 -81.306,-31.6181 -50.6146,-20.717 -100.4354,-43.2861 -150.1239,-66.0401 3.201,-8.57 10.6627,-13.917 15.9808,-21.0341 -70.5905,2.25 -140.7047,11.5891 -210.9513,18.4941 -0.77,-19.7381 5.715,-38.2321 6.006,-57.7581 0.32,-23.8131 -16.4041,-32.9141 -29.7656,-49.8741 -13.7317,-17.3571 -13.7846,-7.33 -30.3475,-13.4681 -11.3241,-4.15 13.1233,-33.866 -19.579,-32.702 -20.0553,0.7 -27.8076,-5.08 -38.1792,-21.5641 -10.9802,-17.383 -33.6548,-14.472 -51.2496,-18.229 -11.5357,-2.51 -48.0216,4.58 -43.4972,-18.68 2.8309,-14.6311 18.5737,-28.2041 19.2087,-43.2061 0.61,-14.394 -17.9916,-11.907 -8.334,-28.0461 6.059,-10.081 -6.932,-22.305 -14.208,-30.163 -7.17,-7.75 -6.403,-17.7801 -6.932,-28.1251 -0.77,-15.055 -21.0078,-30.03 -16.9597,-43.5771 6.35,-21.272 9.022,-21.14 23.7859,-35.666 17.2243,-17.0121 1.984,-20.9281 -11.7739,-30.5591 -20.4258,-14.34 -2.9629,-27.861 -6.6409,-45.6411 -2.196,-10.504 9.7099,-34.157 21.7222,-34.739 0.026,5.66 -6.085,11.271 -5.027,16.801 1.297,6.99 10.0276,12.541 14.2874,17.674 7.064,-22.807 -6.535,-48.4721 21.0078,-60.5101 -25.003,-26.591 -21.7221,24.1031 -37.2795,20.7961 -9.948,-2.12 -21.6164,-29.4481 -32.4642,-14.0761 5.6089,-6.85 13.4407,-27.675 19.3145,-9.26 -0.56,-8.1 -1.164,-16.14 -6.747,-22.172 z" />
    <path
       style="fill:#ffffff;stroke-width:26.4582901"
       inkscape:connector-curvature="0"
       id="path7112"
       d="m 2777.8994,-3761.443 c -25.9026,10.8214 12.1443,21.1932 19.3144,29.4217 -2.8839,2.778 -5.9529,5.318 -9.2339,7.567 5.371,-2.567 17.2772,-4.022 18.0709,-11.774 0.74,-7.5941 17.7005,-7.1971 21.4312,-14.2876 -16.8539,-7.832 -30.3741,-16.6687 -49.5827,-10.9272 z" />
    <path
       style="fill:#ffffff;stroke-width:26.4582901"
       inkscape:connector-curvature="0"
       id="path7114"
       d="m 2989.6709,-3881.6435 c 21.1665,6.377 40.4281,-7.858 61.1184,-8.652 16.0337,-0.61 38.285,5.609 52.3607,-4.789 -11.6944,3.228 -11.2976,2.037 1.191,-3.572 9.2599,-4.5241 19.0499,-7.7261 28.9452,-10.4511 16.6687,-4.524 33.6549,-7.937 49.6885,-14.5785 -19.4732,-0.66 -41.5129,-1.508 -60.748,1.72 -16.0072,2.672 -30.7179,9.472 -46.9898,11.4036 -30.7973,3.651 -64.2404,2.223 -85.5657,28.919 z" />
  </g>
</svg>
