<?xml version="1.0" encoding="UTF-8" standalone="no"?>
<!-- Created with Inkscape (http://www.inkscape.org/) -->

<svg
   xmlns:dc="http://purl.org/dc/elements/1.1/"
   xmlns:cc="http://creativecommons.org/ns#"
   xmlns:rdf="http://www.w3.org/1999/02/22-rdf-syntax-ns#"
   xmlns:svg="http://www.w3.org/2000/svg"
   xmlns="http://www.w3.org/2000/svg"
   xmlns:sodipodi="http://sodipodi.sourceforge.net/DTD/sodipodi-0.dtd"
   xmlns:inkscape="http://www.inkscape.org/namespaces/inkscape"
   width="445.60001mm"
   height="488.39999mm"
   viewBox="0 0 445.59999 488.40002"
   version="1.1"
   id="svg7070"
   inkscape:version="0.92.4 (5da689c313, 2019-01-14)"
   sodipodi:docname="uruguay.svg">
  <defs
     id="defs7064" />
  <sodipodi:namedview
     id="base"
     pagecolor="#ffffff"
     bordercolor="#666666"
     borderopacity="1.0"
     inkscape:pageopacity="0.0"
     inkscape:pageshadow="2"
     inkscape:zoom="1.4"
     inkscape:cx="-58.837912"
     inkscape:cy="-49.637954"
     inkscape:document-units="mm"
     inkscape:current-layer="layer1"
     showgrid="false"
     inkscape:window-width="958"
     inkscape:window-height="1008"
     inkscape:window-x="-7"
     inkscape:window-y="0"
     inkscape:window-maximized="0" />
  <metadata
     id="metadata7067">
    <rdf:RDF>
      <cc:Work
         rdf:about="">
        <dc:format>image/svg+xml</dc:format>
        <dc:type
           rdf:resource="http://purl.org/dc/dcmitype/StillImage" />
        <dc:title />
      </cc:Work>
    </rdf:RDF>
  </metadata>
  <g
     inkscape:label="Layer 1"
     inkscape:groupmode="layer"
     id="layer1"
     transform="translate(-172.94562,432.92103)">
    <path
       inkscape:connector-curvature="0"
       style="fill:#ffffff;stroke-width:26.45830154"
       d="m 172.96162,-387.29862 c 7.56989,-10.68934 21.69568,-20.26736 15.87476,-35.34875 11.24484,8.1761 22.72767,14.31408 36.64446,7.17009 7.64989,-3.91605 7.82988,-15.9281 17.72674,-17.25112 18.17673,-2.48703 36.06246,19.73825 48.25928,30.29518 15.98077,13.75858 46.48631,25.58553 49.34427,49.23963 1.02999,8.52011 -0.59999,22.72799 11.58783,19.73815 8.78987,-2.22203 24.26264,-10.39823 18.91772,-21.96068 14.81678,3.86305 43.39136,50.37734 55.40318,46.03809 11.21783,-4.07506 13.3348,4.86806 22.46266,10.47763 12.06483,7.54109 24.02365,7.54109 34.76549,18.54753 7.82988,8.01711 14.41978,17.78023 23.97064,23.97151 12.40882,8.1231 27.56959,9.44612 39.10542,19.36774 21.08669,18.23003 27.4896,41.59303 53.8682,54.6637 29.84456,14.79038 15.60977,23.41589 1.42998,45.53527 -10.31884,16.11341 -3.11995,58.182643 12.99081,68.580875 10.29185,6.615084 -6.6699,45.985183 -13.6258,57.732832 -5.81991,9.81612456 -25.10862,51.012347 -42.14737,35.825055 8.99986,11.430145 -10.98084,17.462721 -18.28273,20.399658 -20.84869,8.414107 -27.88659,8.996114 -50.29626,4.286055 -17.93873,-3.784048 -37.12044,-12.858863 -54.68918,-4.022051 -7.45989,3.784048 -15.60977,8.625109 -24.15565,9.393119 -13.0178,1.138014 -12.22382,-7.911101 -20.63769,-12.462058 -14.57778,-7.8581 -33.01951,-4.974063 -47.0943,-13.493871 C 324.99037,17.650814 317.31748,5.5591608 292.49985,6.8027765 276.54508,7.622787 263.79227,14.343872 252.07145,1.3257071 236.35568,-16.137014 212.51703,-27.672961 199.89722,-47.728615 c -8.80987,-13.943777 -22.67466,-73.634535 -2.66996,-79.111505 20.69069,-5.68907 5.31992,-29.71308 -0.69999,-40.61401 -4.30994,-7.7521 -7.50989,-16.32501 -10.89984,-24.50071 -2.85996,-6.82609 6.31991,-12.51496 2.93996,-22.17239 -2.95996,-8.3611 -17.91174,-32.86171 -10.66184,-41.30202 16.05976,-18.60044 -4.70993,-29.76598 2.13996,-42.33384 4.73993,-8.73111 -1.23998,-49.34542 0.69999,-50.74774 14.60479,-10.37173 -4.46993,-24.95052 -7.79988,-38.78839 z"
       id="uy" />
  </g>
</svg>
