<?xml version="1.0" encoding="UTF-8" standalone="no"?>
<!-- Created with Inkscape (http://www.inkscape.org/) -->

<svg
   xmlns:dc="http://purl.org/dc/elements/1.1/"
   xmlns:cc="http://creativecommons.org/ns#"
   xmlns:rdf="http://www.w3.org/1999/02/22-rdf-syntax-ns#"
   xmlns:svg="http://www.w3.org/2000/svg"
   xmlns="http://www.w3.org/2000/svg"
   xmlns:sodipodi="http://sodipodi.sourceforge.net/DTD/sodipodi-0.dtd"
   xmlns:inkscape="http://www.inkscape.org/namespaces/inkscape"
   width="1.7841293mm"
   height="6.6063809mm"
   viewBox="0 0 1.7841288 6.6063816"
   version="1.1"
   id="svg7070"
   inkscape:version="0.92.4 (5da689c313, 2019-01-14)"
   sodipodi:docname="vanuatu.svg">
  <defs
     id="defs7064" />
  <sodipodi:namedview
     id="base"
     pagecolor="#ffffff"
     bordercolor="#666666"
     borderopacity="1.0"
     inkscape:pageopacity="0.0"
     inkscape:pageshadow="2"
     inkscape:zoom="5.6"
     inkscape:cx="-5.0877893"
     inkscape:cy="18.285573"
     inkscape:document-units="mm"
     inkscape:current-layer="layer1"
     showgrid="false"
     inkscape:window-width="958"
     inkscape:window-height="1008"
     inkscape:window-x="-7"
     inkscape:window-y="0"
     inkscape:window-maximized="0" />
  <metadata
     id="metadata7067">
    <rdf:RDF>
      <cc:Work
         rdf:about="">
        <dc:format>image/svg+xml</dc:format>
        <dc:type
           rdf:resource="http://purl.org/dc/dcmitype/StillImage" />
        <dc:title></dc:title>
      </cc:Work>
    </rdf:RDF>
  </metadata>
  <g
     inkscape:label="Layer 1"
     inkscape:groupmode="layer"
     id="layer1"
     transform="translate(-183.14066,-23.844051)">
    <g
       transform="matrix(0.26458333,0,0,0.26458333,-33.529233,-111.24717)"
       id="vu">
      <path
         style="fill:#aaaaaa"
         inkscape:connector-curvature="0"
         id="path6058"
         d="m 822.574,512.935 c 0.396,-0.215 0.418,-0.922 -0.113,-0.545 -0.24,0.17 -0.324,0.654 0.113,0.545 z" />
      <path
         style="fill:#aaaaaa"
         inkscape:connector-curvature="0"
         id="path6062"
         d="m 822.637,511.503 c 0.384,-0.184 0.478,-0.604 0.189,-0.922 -0.436,0.19 -0.31,0.571 -0.189,0.922 z" />
      <path
         style="fill:#aaaaaa"
         inkscape:connector-curvature="0"
         id="path6048"
         d="m 820.664,515.982 c -0.143,-0.232 -0.163,-0.475 -0.062,-0.729 -0.524,0.211 -0.934,1.537 -0.983,0.191 -0.021,-0.52 -0.641,-1.775 -0.707,-0.537 -0.03,0.561 0.265,1.084 0.062,1.639 -0.195,0.531 0.132,0.852 0.138,1.377 1.112,0.002 2.033,-0.789 1.552,-1.941 z" />
      <path
         style="fill:#aaaaaa"
         inkscape:connector-curvature="0"
         id="path6052"
         d="m 820.859,521.609 c 0.292,-0.188 1.495,-0.273 1.179,-0.871 -0.24,-0.455 -0.727,-0.684 -0.97,-1.156 -0.912,-1.775 -1.112,0.771 -0.465,0.213 0.388,0.538 -0.106,1.265 0.256,1.814 z" />
      <path
         style="fill:#aaaaaa"
         inkscape:connector-curvature="0"
         id="path6054"
         d="m 820.474,518.4 c 0.134,-0.148 0.144,-0.309 0.031,-0.477 -0.135,0.072 -0.251,0.166 -0.349,0.283 0.107,0.065 0.212,0.129 0.318,0.194 z" />
      <path
         style="fill:#aaaaaa"
         inkscape:connector-curvature="0"
         id="path6056"
         d="m 822.796,526.306 c 0.558,0.064 0.863,-0.734 0.41,-1.074 -0.32,-0.24 -0.979,0.465 -1.076,0.725 0.583,-0.409 0.037,0.238 0.666,0.349 z" />
      <path
         style="fill:#aaaaaa"
         inkscape:connector-curvature="0"
         id="path6064"
         d="m 822.857,517.382 c 0.239,-0.232 0.448,-0.498 0.604,-0.795 -0.316,0.051 -0.651,0.092 -0.846,0.383 -0.164,0.246 -0.086,0.461 0.242,0.412 z" />
      <path
         style="fill:#aaaaaa"
         inkscape:connector-curvature="0"
         id="path6066"
         d="m 823.207,520.716 c 0.229,-0.027 0.442,-0.1 0.639,-0.221 -0.208,-0.145 -0.34,-0.377 -0.286,-0.635 -0.361,-0.014 -0.633,0.252 -0.983,0.281 0.046,0.337 0.364,0.458 0.63,0.575 z" />
      <path
         style="fill:#aaaaaa"
         inkscape:connector-curvature="0"
         id="path6068"
         d="m 823.906,522.562 c 0.026,-0.33 -0.696,-0.691 -0.922,-0.826 -0.502,0.859 0.552,0.463 0.922,0.826 z" />
      <path
         style="fill:#aaaaaa"
         inkscape:connector-curvature="0"
         id="path6072"
         d="m 823.683,519.318 c 0.446,-0.344 0.472,-1.523 0.193,-1.967 -0.155,0.658 -0.28,1.287 -0.193,1.967 z" />
      <path
         style="fill:#aaaaaa"
         inkscape:connector-curvature="0"
         id="path6074"
         d="m 823.875,517.033 c 0.437,-0.383 0.439,-1.166 0.19,-1.648 -0.044,0.55 -0.183,1.093 -0.19,1.648 z" />
      <path
         style="fill:#aaaaaa"
         inkscape:connector-curvature="0"
         id="path6076"
         d="m 824.7,530.785 c 0.291,-0.18 0.146,-1.57 -0.414,-1.426 -0.213,0.055 -0.368,0.668 -0.405,0.848 -0.068,0.326 0.624,0.439 0.819,0.578 z" />
      <path
         style="fill:#aaaaaa"
         inkscape:connector-curvature="0"
         id="path6078"
         d="m 824.635,533.292 c 0.421,-0.434 -0.197,-0.832 0,-1.301 -0.779,0.083 -0.512,1.044 0,1.301 z" />
      <path
         style="fill:#aaaaaa"
         inkscape:connector-curvature="0"
         id="path6080"
         d="m 825.366,535.55 c 0.107,-0.096 0.203,-0.199 0.287,-0.314 -0.283,-0.184 -0.682,0.121 -0.287,0.314 z" />
    </g>
  </g>
</svg>
