<?xml version="1.0" encoding="UTF-8" standalone="no"?>
<!-- Created with Inkscape (http://www.inkscape.org/) -->

<svg
   xmlns:dc="http://purl.org/dc/elements/1.1/"
   xmlns:cc="http://creativecommons.org/ns#"
   xmlns:rdf="http://www.w3.org/1999/02/22-rdf-syntax-ns#"
   xmlns:svg="http://www.w3.org/2000/svg"
   xmlns="http://www.w3.org/2000/svg"
   xmlns:sodipodi="http://sodipodi.sourceforge.net/DTD/sodipodi-0.dtd"
   xmlns:inkscape="http://www.inkscape.org/namespaces/inkscape"
   width="767.79999mm"
   height="1496.5mm"
   viewBox="0 0 767.79989 1496.5"
   version="1.1"
   id="svg7070"
   inkscape:version="0.92.4 (5da689c313, 2019-01-14)"
   sodipodi:docname="vietnam.svg">
  <defs
     id="defs7064" />
  <sodipodi:namedview
     id="base"
     pagecolor="#ffffff"
     bordercolor="#666666"
     borderopacity="1.0"
     inkscape:pageopacity="0.0"
     inkscape:pageshadow="2"
     inkscape:zoom="5.6"
     inkscape:cx="-13.003268"
     inkscape:cy="17.146909"
     inkscape:document-units="mm"
     inkscape:current-layer="layer1"
     showgrid="false"
     inkscape:window-width="958"
     inkscape:window-height="1008"
     inkscape:window-x="-7"
     inkscape:window-y="0"
     inkscape:window-maximized="0" />
  <metadata
     id="metadata7067">
    <rdf:RDF>
      <cc:Work
         rdf:about="">
        <dc:format>image/svg+xml</dc:format>
        <dc:type
           rdf:resource="http://purl.org/dc/dcmitype/StillImage" />
        <dc:title />
      </cc:Work>
    </rdf:RDF>
  </metadata>
  <g
     inkscape:label="Layer 1"
     inkscape:groupmode="layer"
     id="layer1"
     transform="translate(-159.20173,1459.7967)">
    <g
       transform="matrix(26.458155,0,0,26.458667,-15719.025,-11223.283)"
       id="vn"
       style="fill:#ffffff">
      <path
         style="fill:#ffffff"
         inkscape:connector-curvature="0"
         id="path3474"
         d="m 618.896,421.038 c 0.105,0.339 0.304,0.686 0.666,0.795 -0.255,-0.232 -0.488,-0.496 -0.666,-0.795 z" />
      <path
         style="fill:#ffffff"
         inkscape:connector-curvature="0"
         id="path3476"
         d="m 620.929,417.546 c 0.074,0.348 -0.169,0.697 0.19,0.953 0.161,-0.335 0.051,-0.691 -0.19,-0.953 z" />
      <path
         style="fill:#ffffff"
         inkscape:connector-curvature="0"
         id="path3478"
         d="m 621.468,418.116 c -0.026,0.104 -0.026,0.211 0,0.317 0,-0.105 0,-0.211 0,-0.317 z" />
      <path
         style="fill:#ffffff"
         inkscape:connector-curvature="0"
         id="path3480"
         d="m 628.81,410.018 c 0.052,0.149 0.156,0.244 0.312,0.285 -0.104,-0.095 -0.208,-0.191 -0.312,-0.285 z" />
      <path
         style="fill:#ffffff"
         inkscape:connector-curvature="0"
         id="path3562"
         d="m 600.126,372.756 c 0.595,0.027 0.472,-0.837 0.696,-1.179 0.363,-0.556 1.355,0.309 1.635,0.588 0.499,0.5 0.864,0.089 1.172,-0.438 0.423,-0.724 0.618,-0.044 0.944,0.331 0.12,-0.281 0.114,-0.966 0.553,-0.527 0.271,0.271 0.521,0.604 0.849,0.81 0.204,0.129 0.345,-1.213 0.919,-1.235 -0.164,0.891 1.49,0.085 1.758,-0.186 0.332,-0.336 -0.062,-0.564 0.011,-0.857 0.117,-0.478 1.143,-0.524 1.372,-1.054 0.47,0.651 1.065,1.164 1.785,1.512 0.563,0.271 1.082,-0.249 1.49,0.25 0.409,0.5 1.043,-0.276 1.54,0.222 0.253,0.252 0.56,1.277 -0.144,1.034 -0.003,0.868 0.458,1.506 0.729,2.351 0.251,-0.216 1.178,0.077 1.178,0.444 0,0.551 1.059,0.428 1.204,0.954 0.106,-0.063 0.212,-0.128 0.317,-0.191 0.172,0.449 0.472,0.114 0.846,0.001 0.468,-0.142 0.859,0.385 1.188,0.634 -0.382,0.335 -0.467,-0.301 -0.857,0.023 -0.354,0.293 -0.467,0.712 -0.944,0.786 -0.511,0.079 -0.108,0.545 -0.295,0.882 -0.183,0.329 -1.214,0.647 -0.696,0.057 -0.332,-0.081 -0.777,0.425 -0.794,0.604 -0.28,-0.157 -0.39,-0.679 -0.794,-0.541 0.125,0.136 0.271,0.241 0.44,0.317 -0.28,0.329 -0.068,0.491 0.144,0.84 0.178,0.29 -0.463,0.281 -0.584,0.209 0.144,0.301 0.225,1.142 -0.098,1.366 0.043,0.015 0.086,0.015 0.128,0 -0.034,0.24 -1.025,1.321 -1.24,1.048 -0.534,0.268 -0.706,1.068 -0.758,1.602 -0.071,0.735 0.239,1.233 -0.142,1.925 -0.432,0.784 0.406,0.964 0.454,1.683 0.189,-0.496 0.302,0.252 0.507,0.522 0.276,0.363 0.598,0.646 0.971,0.906 0.355,0.247 0.715,0.505 1.032,0.802 0.455,0.425 0.256,0.883 0.411,1.423 -0.196,-0.152 -0.418,-0.237 -0.666,-0.254 0.793,0.135 1.167,1.124 1.788,1.621 0.452,0.362 1.887,1.069 1.517,1.842 0.485,-0.28 1.257,0.69 1.525,0.984 -0.135,-0.062 -0.272,-0.115 -0.414,-0.159 0.594,0.37 1.136,0.776 1.526,1.366 0.528,-0.633 1.597,0.788 1.302,1.112 0.279,-0.196 -0.153,-0.809 0.414,-0.509 -0.852,0.734 1.762,2.431 1.81,3.081 0.217,-0.552 0.316,-0.091 0.49,0.163 0.271,0.396 -0.145,0.233 -0.076,0.536 0.128,0.563 0.585,1.064 0.809,1.59 0.304,0.712 0.461,1.484 0.782,2.2 0.129,0.288 0.268,0.579 0.339,0.89 0.034,0.151 0.048,0.952 -0.151,0.181 -0.012,0.43 0.495,1.679 0,0.921 0.112,0.256 0.271,0.479 0.477,0.667 -0.592,0.082 -0.115,0.377 -0.022,0.713 0.136,0.485 0.29,0.812 0.548,1.244 0.104,0.176 0.111,1.048 0.074,1.314 -0.18,-0.18 -0.307,-0.392 -0.379,-0.635 -0.601,0.352 -0.037,1.079 0.158,1.493 -0.199,-0.117 -0.411,-0.202 -0.635,-0.254 0.283,0.258 0.571,1.615 0.414,2.001 -0.003,-0.23 -0.066,-0.441 -0.189,-0.636 0.198,0.316 0.029,0.644 -0.066,0.953 0.358,-0.01 0.377,0.252 0.283,0.523 -0.101,0.29 -0.524,0.429 -0.552,0.525 -0.167,0.596 0.066,0.613 -0.583,0.946 -0.183,0.156 -0.376,0.299 -0.579,0.426 -0.282,0.115 -0.372,0.524 -0.588,0.59 -0.358,0.108 -0.728,0.262 -1.041,0.467 -0.146,0.097 -0.368,0.809 -0.481,0.771 -0.322,-0.11 -0.864,0.29 -1.107,0.474 -0.331,0.25 -0.985,0.47 -1.228,0.774 -0.225,-0.436 -0.814,-0.422 -0.855,-0.984 -0.042,0.223 -0.084,0.444 -0.128,0.667 -0.051,-0.179 -0.124,-0.349 -0.221,-0.508 0.165,0.367 0.11,0.346 -0.163,-0.064 0.357,0 -0.355,-0.224 -0.349,-0.223 0.109,0.386 -0.047,0.88 -0.538,0.763 0.115,0.355 0.627,-0.184 0.744,0.318 0.15,0.64 -0.991,0.326 -1.221,0.317 0.396,0.321 1.046,0.259 1.301,0.763 -0.383,0.059 -0.404,0.663 -0.845,0.355 -0.292,-0.204 -0.485,-0.818 -0.871,-0.863 0.247,0.289 1.473,1.303 1.271,1.62 -0.782,-0.318 -1.192,-1.095 -1.84,-1.589 0.14,0.509 2.467,2.071 1.423,2.642 -0.686,0.375 -1.847,-1.449 -2.344,-1.752 0.338,0.557 1.591,1.417 1.377,2.159 -0.166,0.572 -1.141,0.73 -1.601,0.961 -0.778,0.389 -0.806,0.971 -1.281,1.592 -0.325,0.426 -1.169,1.129 -1.703,0.625 0.164,-0.207 0.376,-0.334 0.636,-0.381 -0.06,-0.133 -0.102,-0.271 -0.128,-0.414 -0.135,0.062 -0.272,0.115 -0.415,0.158 0.021,-0.801 -0.145,-1.596 -0.15,-2.396 -0.003,-0.395 0.025,-0.799 0.15,-1.176 0.084,-0.254 0.646,-1.333 0.764,-0.557 -0.003,-1.247 -2.381,-1.065 -2.157,-2.128 -0.046,0.188 -0.132,0.178 -0.257,-0.031 0.213,-0.073 0.345,-0.413 0.584,-0.413 0.254,0 0.539,0.068 0.781,-0.047 0.203,-0.097 0.431,-0.396 0.566,-0.57 0.263,-0.337 -0.217,-0.673 0.103,-1.003 0.603,0.58 1.446,-0.049 2.097,-0.177 0.227,-0.044 0.355,0.153 0.457,0.32 0.248,0.403 0.734,0.365 1.13,0.492 0.01,-0.348 -0.354,-0.638 0.062,-0.698 -0.081,-0.587 -0.814,-0.609 -1.055,-1.017 -0.205,-0.347 -0.343,-0.794 -0.427,-1.188 -0.08,-0.373 0.312,-0.416 0.498,-0.704 0.283,-0.439 1.227,0.2 1.588,0.271 -0.202,-0.369 0.06,-0.804 -0.221,-1.144 0.307,-0.077 0.646,0.081 0.946,-0.05 0.254,-0.11 0.767,-0.448 1.013,-0.62 0.286,-0.2 0.347,-0.484 0.709,-0.589 0.28,-0.079 0.657,-0.048 0.883,-0.261 0.608,-0.574 -0.321,-2.149 -0.244,-2.884 0.065,-0.63 0.299,-1.081 -0.012,-1.689 -0.103,-0.188 -0.206,-0.373 -0.311,-0.559 -0.177,-0.333 -0.066,-0.569 -0.192,-0.876 -0.177,-0.435 -0.42,-0.395 -0.463,-0.973 -0.053,-0.7 0.394,-1.109 0.434,-1.729 0.01,-0.149 0.012,-0.929 -0.073,-1 -0.529,-0.44 -0.025,-0.332 0.176,-0.792 0.309,-0.71 -0.534,-1.41 -1.045,-1.739 -0.233,-0.151 -0.836,-0.472 -0.807,-0.819 0.036,-0.415 0.729,-0.585 0.892,-0.952 -0.443,-0.169 -1.021,-0.515 -1.304,-0.905 -0.211,-0.29 -0.409,-0.049 -0.644,-0.447 -0.315,-0.536 -0.49,-0.037 -0.88,-0.268 -0.228,-0.136 -0.488,-0.709 -0.531,-0.964 -0.136,-0.803 -0.47,-1.488 -1.126,-2.054 -0.185,-0.16 -0.606,-0.267 -0.866,-0.538 -0.488,-0.514 -1.074,-1.035 -1.487,-1.61 -0.266,-0.369 -0.379,-0.823 -0.657,-1.184 -0.111,-0.144 -0.296,-0.313 -0.481,-0.163 -0.194,-0.299 -0.556,-0.403 -0.74,-0.712 -0.136,-0.227 -0.52,-0.762 -0.264,-1.015 0.319,-0.317 -1.179,-0.625 -1.278,-0.648 -0.998,-0.229 -1.681,-1.373 -2.626,-1.632 -0.272,-0.075 -1.011,-0.422 -0.417,-0.701 0.842,-0.396 -0.219,-0.63 -0.07,-1.072 0.08,-0.239 1.226,0.111 1.339,0.129 0.466,0.07 1.728,-0.704 1.075,-0.892 0.143,-0.216 0.569,-0.33 0.569,-0.636 0,-0.386 -0.429,-0.731 -0.804,-0.683 -0.255,0.032 -0.286,-0.133 -0.36,-0.346 -0.163,-0.471 -0.65,-0.344 -1.024,-0.496 0.087,-0.335 0.574,-0.27 0.601,-0.548 0.046,-0.472 -0.477,-0.65 -0.783,-0.873 -0.367,-0.266 -0.614,-0.585 -1.128,-0.491 -0.8,0.146 -0.621,0.572 -0.979,1.055 -0.356,-0.218 -0.881,-0.63 -1.271,-0.555 -0.444,0.087 -1.274,-0.712 -1.492,-1.033 -0.247,-0.366 -0.472,-1.241 -0.346,-1.679 0.223,-0.775 -0.42,-0.606 -0.576,-1.212 0.098,0.248 0.055,0.471 -0.128,0.667 -0.417,-0.126 -0.511,-0.866 -0.872,-1.151 -0.489,-0.388 -1.291,-1.072 -1.544,-1.646 z" />
      <path
         style="fill:#ffffff"
         inkscape:connector-curvature="0"
         id="path5494"
         d="m 616.484,378.697 c 0.041,-0.152 -0.022,-0.258 -0.189,-0.317 0.063,0.105 0.126,0.211 0.189,0.317 z" />
      <path
         style="fill:#ffffff"
         inkscape:connector-curvature="0"
         id="path5496"
         d="m 616.771,378.729 c 0.139,0.197 0.318,0.346 0.539,0.444 0.263,-0.407 -0.253,-0.518 -0.539,-0.444 z" />
      <path
         style="fill:#ffffff"
         inkscape:connector-curvature="0"
         id="path5498"
         d="m 618.358,377.045 c -0.089,0.279 -0.143,0.565 -0.159,0.857 0.333,-0.196 0.7,-0.634 0.159,-0.857 z" />
      <path
         style="fill:#ffffff"
         inkscape:connector-curvature="0"
         id="path5500"
         d="m 618.803,377.966 c -0.162,0.143 -0.29,0.312 -0.384,0.508 0.231,-0.074 0.393,-0.256 0.384,-0.508 z" />
      <path
         style="fill:#ffffff"
         inkscape:connector-curvature="0"
         id="path5502"
         d="m 619.628,376.631 c 0.11,0.052 0.216,0.031 0.317,-0.063 -0.105,0.021 -0.212,0.041 -0.317,0.063 z" />
    </g>
  </g>
</svg>
