<?xml version="1.0" encoding="UTF-8" standalone="no"?>
<!-- Created with Inkscape (http://www.inkscape.org/) -->

<svg
   xmlns:dc="http://purl.org/dc/elements/1.1/"
   xmlns:cc="http://creativecommons.org/ns#"
   xmlns:rdf="http://www.w3.org/1999/02/22-rdf-syntax-ns#"
   xmlns:svg="http://www.w3.org/2000/svg"
   xmlns="http://www.w3.org/2000/svg"
   xmlns:sodipodi="http://sodipodi.sourceforge.net/DTD/sodipodi-0.dtd"
   xmlns:inkscape="http://www.inkscape.org/namespaces/inkscape"
   width="761.59998mm"
   height="700.5mm"
   viewBox="0 0 761.60002 700.49978"
   version="1.1"
   id="svg7070"
   inkscape:version="0.92.4 (5da689c313, 2019-01-14)"
   sodipodi:docname="western_sahara.svg">
  <defs
     id="defs7064" />
  <sodipodi:namedview
     id="base"
     pagecolor="#ffffff"
     bordercolor="#666666"
     borderopacity="1.0"
     inkscape:pageopacity="0.0"
     inkscape:pageshadow="2"
     inkscape:zoom="0.12374369"
     inkscape:cx="1892.8927"
     inkscape:cy="1111.955"
     inkscape:document-units="mm"
     inkscape:current-layer="layer1"
     showgrid="false"
     inkscape:window-width="958"
     inkscape:window-height="1008"
     inkscape:window-x="-7"
     inkscape:window-y="0"
     inkscape:window-maximized="0" />
  <metadata
     id="metadata7067">
    <rdf:RDF>
      <cc:Work
         rdf:about="">
        <dc:format>image/svg+xml</dc:format>
        <dc:type
           rdf:resource="http://purl.org/dc/dcmitype/StillImage" />
        <dc:title />
      </cc:Work>
    </rdf:RDF>
  </metadata>
  <g
     inkscape:label="Layer 1"
     inkscape:groupmode="layer"
     id="layer1"
     transform="translate(-156.61304,658.9624)">
    <path
       style="fill:#ffffff;stroke-width:26.45930862"
       inkscape:connector-curvature="0"
       id="eh"
       d="m 161.33279,41.536304 c -13.81121,-24.343118 6.67011,-65.646924 10.87517,-90.916095 2.88005,-17.251905 7.33012,-33.47175 16.56226,-48.527427 11.19217,-18.230862 31.69849,-18.283762 38.5776,-41.118692 3.52005,-11.66878 3.31005,-29.68793 14.92223,-36.69984 6.6101,-3.91623 2.70004,-17.1724 7.83012,-24.73994 8.23013,-12.09221 41.38164,-53.36961 32.1475,-69.00732 -6.1901,3.96923 -11.43018,9.55156 -15.05523,15.98173 14.47322,-31.88416 51.17079,-55.32762 75.27516,-79.93526 32.0675,-32.7573 25.90341,-66.62598 41.48765,-106.81852 12.7792,-32.86321 22.70135,-69.11322 54.63685,-87.34408 35.21654,-20.05657 55.03385,-36.14421 68.92507,-75.17248 8.76013,-24.58123 13.97021,-56.20078 43.78968,-56.20078 38.5766,0 77.17919,3.70422 115.9418,3.70422 49.95377,0 99.90855,0 149.88832,0 24.23638,0 48.44675,0 72.65613,0 20.00231,0 29.23645,-5.92735 28.36344,15.84942 -1.48002,37.17617 -5.53008,74.43164 -4.63007,111.68711 0.1,5.87434 2.83004,39.71631 -6.88011,40.85408 -24.05137,2.75216 -50.35078,-0.29002 -74.61416,-0.29002 -49.90077,0 -99.82855,0 -149.75632,0 -9.79015,0 -52.91682,-6.21836 -58.71191,2.51415 -8.44013,12.80654 -3.39005,50.11502 -3.39005,65.03839 0,48.26281 -2.06004,96.97544 -3.44006,145.21175 -0.2,8.28149 1.30002,38.97537 -6.5301,44.6114 -17.25127,12.48903 -41.80465,13.81201 -59.82393,25.05746 -27.14642,16.85498 -38.10059,34.90053 -35.95656,66.9435 1.24002,18.62778 15.55725,115.709039 -4.23006,121.318466 -18.67929,5.265307 -39.10561,0 -58.0769,0 -47.25474,0 -94.53647,0 -141.7922,0 -40.95764,0 -81.91628,0 -122.87391,0 -24.73939,0.0265 -28.70845,40.483658 -26.11541,58.000078 z" />
  </g>
</svg>
