<?xml version="1.0" encoding="UTF-8" standalone="no"?>
<!-- Created with Inkscape (http://www.inkscape.org/) -->

<svg
   xmlns:dc="http://purl.org/dc/elements/1.1/"
   xmlns:cc="http://creativecommons.org/ns#"
   xmlns:rdf="http://www.w3.org/1999/02/22-rdf-syntax-ns#"
   xmlns:svg="http://www.w3.org/2000/svg"
   xmlns="http://www.w3.org/2000/svg"
   xmlns:sodipodi="http://sodipodi.sourceforge.net/DTD/sodipodi-0.dtd"
   xmlns:inkscape="http://www.inkscape.org/namespaces/inkscape"
   width="1041.5mm"
   height="994.90002mm"
   viewBox="0 0 1041.5 994.89989"
   version="1.1"
   id="svg7070"
   inkscape:version="0.92.4 (5da689c313, 2019-01-14)"
   sodipodi:docname="zambia.svg">
  <defs
     id="defs7064" />
  <sodipodi:namedview
     id="base"
     pagecolor="#ffffff"
     bordercolor="#666666"
     borderopacity="1.0"
     inkscape:pageopacity="0.0"
     inkscape:pageshadow="2"
     inkscape:zoom="7.9195959"
     inkscape:cx="14.677791"
     inkscape:cy="6.3311213"
     inkscape:document-units="mm"
     inkscape:current-layer="layer1"
     showgrid="false"
     inkscape:window-width="958"
     inkscape:window-height="1008"
     inkscape:window-x="-7"
     inkscape:window-y="0"
     inkscape:window-maximized="0" />
  <metadata
     id="metadata7067">
    <rdf:RDF>
      <cc:Work
         rdf:about="">
        <dc:format>image/svg+xml</dc:format>
        <dc:type
           rdf:resource="http://purl.org/dc/dcmitype/StillImage" />
        <dc:title />
      </cc:Work>
    </rdf:RDF>
  </metadata>
  <g
     inkscape:label="Layer 1"
     inkscape:groupmode="layer"
     id="layer1"
     transform="translate(-154.74646,945.07165)">
    <path
       inkscape:connector-curvature="0"
       style="fill:#ffffff;stroke-width:26.45857239"
       d="m 154.77346,-141.40803 c 0,-95.54286 2.01,-190.95332 3.23,-286.49618 0.1,-10.23949 -5.24,-31.72409 9.02,-34.81974 12.46199,-2.69905 27.86099,0.82001 40.50799,1.13802 42.43898,1.13802 87.55097,8.46715 128.71996,-5.1591 -13.33499,-14.73757 -6.56,-27.91401 -0.3,-43.86871 7.62,-19.36785 -2.65,-34.52873 -1.61,-53.84369 1.88,-35.77236 17.225,-76.78352 2.7,-112.34417 13.414,0.21 12.091,14.73757 26.008,17.67452 16.53699,3.46607 11.66899,26.8292 2.58999,35.29605 18.521,4.07508 16.828,3.62507 34.899,-4.23307 17.54199,-7.64614 37.62399,-12.40913 56.72698,-13.49395 -6.85,13.49395 -3.49,38.0478 7.2,48.7901 8.41,8.41415 22.14599,3.25406 32.54399,8.01715 15.134,6.93212 25.71699,13.59985 42.94199,13.78505 27.80799,0.37001 54.02798,18.70644 63.86998,-16.64261 10.689,-38.60341 22.119,4.49809 35.50699,16.2193 9.15,8.01715 7.91,20.82309 14.579,30.53346 10.583,15.55779 17.83299,-0.82001 27.30499,4.81509 14.076,8.41416 26.51099,12.96484 40.77199,19.84417 16.06,7.69914 11.589,28.46962 23.49499,39.42363 17.436,16.1663 20.717,29.76615 30.639,50.43053 12.51499,26.03548 48.94798,-24.50085 62.73298,-7.59414 -6.03,4.81609 -6.25,12.80613 1.4,15.87529 13.467,5.3711 8.89,-21.9079 9.05,-27.75531 0.9,-33.78783 2.04,-67.76095 2.04,-101.54888 -6.08,2.27505 -12.806,2.88406 -19.05,4.86809 -10.663,3.30707 -7.17,11.77422 -12.56799,18.54765 -15.451,19.31495 -42.43899,-13.89086 -51.11699,-23.57484 -23.707,-26.35298 -53.31399,-47.86398 -36.53899,-89.45725 7.83,-19.42076 12.77899,-41.24936 19.23499,-61.14633 4.34,-13.49405 -4.1,-35.95756 -2.83,-51.17134 1.98,-24.76546 14.235,-77.04812 -18.89099,-87.23471 10.715,-28.20512 69.82298,-43.86881 47.04299,-81.4932 49.07998,-10.4777 99.16497,-17.83323 148.69496,-25.98258 16.93399,-2.83105 16.80199,-0.66001 24.79199,14.63177 7.99,15.29318 19.288,23.41603 36.64499,24.81836 21.90696,1.74603 19.31396,9.65717 31.61696,25.42686 5.42,6.98513 8.79,4.9741 15.346,2.64605 8.52,-3.09605 11.668,10.6893 18.495,13.99666 14.102,6.77313 38.047,4.60409 45.111,20.21457 2.99,6.56213 12.806,2.99006 17.912,4.9741 10.875,4.23307 18.997,13.75855 22.146,24.89776 4.02,14.26126 27.728,8.73116 33.443,29.71324 1.9,7.03813 -3.68,11.11271 -2.59,17.62153 1.64,10.13379 9.31,13.75855 16.272,19.89707 6.06,5.4241 8.28,23.68063 10.875,31.16847 4.84,14.10256 -11.642,27.49071 -25.268,31.61828 -14.817,4.55109 -6.24,15.9811 -2.62,27.27901 5.69,17.67452 -4.76,27.1203 -5.32,44.18621 -0.8,24.50095 -12.065,76.99522 18.654,86.25579 -12.515,13.38815 -50.774,19.73827 -50.536,42.22828 0.2,14.73757 6.56,20.77019 0.9,36.85718 -6.09,17.30402 -5.77,34.68744 -19.976,46.96437 6.99,0.0529 -5.93,2.17004 -5.79,8.41415 0.2,10.6364 16.246,13.12355 22.199,20.37328 1.72,2.06404 1.67,11.43021 5.24,11.58891 8.25,0.32001 11.774,-19.07675 16.907,-1.69303 -61.437,25.42697 -124.328,51.30365 -187.80195,71.06841 -25.347,7.91115 -54.66299,15.18738 -78.15798,27.80822 -21.881,11.72121 40.26999,62.68095 1.4,67.23184 -8.1,0.93001 -18.892,2.64605 -26.75,-0.53001 -15.39799,-6.19112 -33.68099,3.36006 -48.15398,8.22915 -20.664,6.98513 -47.33399,19.23555 -51.80499,43.2072 -1.91,10.23958 0.7,21.40519 -4,31.06267 -6.61,13.785053 -24.84499,15.451983 -37.41299,20.399775 -21.88099,8.625159 -51.40798,26.458788 -63.49998,47.123169 -12.25,20.928886 -60.45699,112.555776 -96.67798,90.859576 -7.90999,-4.710087 -16.29899,-9.155169 -25.10899,-11.93292 -12.833,-4.075075 -25.63799,12.911938 -35.74599,7.329135 -7.96,-4.445082 -10.98,-15.71659 -21.16599,-17.727427 -16.325,-3.202059 -25.638,9.313172 -40.79899,-5.054093 -22.569,-21.3521941 -40.29599,-23.2572292 -70.45798,-27.9140151 -17.754,-2.7520509 -35.56,3.148058 -52.46699,7.59414 -7.94,2.06403812 -23.99799,10.5306943 -31.96199,5.3710991 -27.252,-17.568724 -46.80499,-45.112332 -68.20998,-68.925271 -11.721,-13.070642 -25.161,-24.183347 -37.121,-36.936478 -11.11199,-12.09173 -9.94999,-27.19971 -19.12899,-39.74114 z"
       id="zm" />
  </g>
</svg>
