<?xml version="1.0" encoding="UTF-8" standalone="no"?>
<!-- Created with Inkscape (http://www.inkscape.org/) -->

<svg
   xmlns:dc="http://purl.org/dc/elements/1.1/"
   xmlns:cc="http://creativecommons.org/ns#"
   xmlns:rdf="http://www.w3.org/1999/02/22-rdf-syntax-ns#"
   xmlns:svg="http://www.w3.org/2000/svg"
   xmlns="http://www.w3.org/2000/svg"
   xmlns:sodipodi="http://sodipodi.sourceforge.net/DTD/sodipodi-0.dtd"
   xmlns:inkscape="http://www.inkscape.org/namespaces/inkscape"
   width="684.59998mm"
   height="683.5mm"
   viewBox="0 0 684.60001 683.49993"
   version="1.1"
   id="svg7070"
   inkscape:version="0.92.4 (5da689c313, 2019-01-14)"
   sodipodi:docname="zimbabwe.svg">
  <defs
     id="defs7064" />
  <sodipodi:namedview
     id="base"
     pagecolor="#ffffff"
     bordercolor="#666666"
     borderopacity="1.0"
     inkscape:pageopacity="0.0"
     inkscape:pageshadow="2"
     inkscape:zoom="7.9195959"
     inkscape:cx="11.569021"
     inkscape:cy="-10.27617"
     inkscape:document-units="mm"
     inkscape:current-layer="layer1"
     showgrid="false"
     inkscape:window-width="958"
     inkscape:window-height="1008"
     inkscape:window-x="-7"
     inkscape:window-y="0"
     inkscape:window-maximized="0" />
  <metadata
     id="metadata7067">
    <rdf:RDF>
      <cc:Work
         rdf:about="">
        <dc:format>image/svg+xml</dc:format>
        <dc:type
           rdf:resource="http://purl.org/dc/dcmitype/StillImage" />
        <dc:title />
      </cc:Work>
    </rdf:RDF>
  </metadata>
  <g
     inkscape:label="Layer 1"
     inkscape:groupmode="layer"
     id="layer1"
     transform="translate(-155.56899,638.06566)">
    <path
       inkscape:connector-curvature="0"
       style="fill:#ffffff;stroke-width:26.45830154"
       d="m 156.86084,-417.3706 c 11.3239,2.64602 22.4888,5.00103 33.81269,0.87001 11.0339,-4.07403 16.35185,12.40908 23.44179,16.95991 7.82992,5.00104 18.78582,-6.05904 26.35276,-7.22305 9.70991,-1.50801 22.22479,8.67806 30.66471,12.30319 24.52678,10.47757 43.8146,-12.30319 57.01748,-30.13621 17.62084,-23.75976 35.05668,-40.34927 47.65057,-67.23106 5.04995,-10.74217 12.67388,-15.346 23.52178,-19.28833 14.86886,-5.42404 26.32576,-17.06572 40.61263,-23.97136 28.01974,-13.6526 33.99869,-15.39891 35.66567,-48.04863 0.79999,-16.00741 27.62275,-35.77194 42.12162,-41.53988 13.59887,-5.37104 30.21472,-12.75299 44.84658,-13.33509 17.72684,-0.66001 35.61268,4.97403 53.18052,0.48 0,33.44363 -2.82998,36.64505 34.21068,36.64505 23.07079,0 39.21064,3.57202 60.13845,16.32491 12.88588,7.80505 25.45277,11.32428 36.45967,22.33095 10.4249,10.39827 25.79676,5.05404 38.46965,8.94306 8.19992,2.48702 28.68073,6.29705 30.37472,16.80112 2.16998,13.12339 13.83687,10.34527 23.99678,7.32905 -2.61998,15.5046 -11.74689,24.44766 -4.46996,40.40207 8.51992,18.86493 -2.05998,32.59693 3.77996,50.27125 5.63995,17.09221 -7.13993,36.11584 -3.51996,54.71617 2.48997,12.91179 10.3459,23.52166 -1.07999,33.73463 -8.35993,7.48805 -0.7,24.95037 -5.65995,27.75499 -12.03889,6.82605 -15.08186,5.79404 -19.76482,20.87574 -2.05998,6.72005 9.04992,9.15506 12.35589,12.14448 2.77997,2.54002 0.39999,12.40899 -0.053,15.29301 -1.10999,6.87905 -6.66994,10.58337 -8.56992,16.90701 -1.50999,4.97404 6.10994,23.30986 7.61993,28.7868 2.79997,-1.13801 5.60994,-2.27501 8.38992,-3.36002 -0.89999,18.33572 6.39994,25.58537 -4.67996,44.1857 -8.91992,14.9755 -14.68386,39.84657 -31.29971,47.65182 -18.17684,8.52006 -4.25996,20.10844 -7.69993,34.21084 -4.17996,17.303916 -17.62084,27.278784 -4.17996,44.609102 -13.94388,-10.133669 -79.48027,80.407349 -88.76719,90.646818 -8.51992,9.366064 -15.08086,21.140345 -28.25674,13.07049 -17.88584,-10.953775 -42.22761,-5.530038 -61.96543,-5.477038 -17.19785,0 -32.06671,-5.583038 -48.04756,-10.953874 -9.62991,-3.202022 -46.72457,0.210001 -50.58754,-3.916027 -9.89991,-10.583472 -10.23991,-6.297043 -21.6428,-12.250284 -12.40889,-6.4030434 0.053,-17.5685196 -3.85997,-22.622054 -17.56883,-22.727855 -82.84024,-8.176056 -92.60315,-32.147119 -9.54991,-23.41576 -25.16177,-43.709499 -20.29381,-69.188974 6.42994,-33.33773 -4.80996,-39.47617 -36.93566,-32.91442 5.76994,-30.37441 -2.19998,-42.73049 -30.32073,-51.11785 -22.27779,-6.61505 -52.06952,-31.51212 -64.5574,-50.95905 -19.07683,-29.6071 -19.31483,-66.67545 -42.14762,-95.43595 -10.00191,-12.56779 -41.80461,-56.40949 -33.70769,-73.1313 z"
       id="zw" />
  </g>
</svg>
