<?xml version="1.0" encoding="UTF-8" standalone="no"?>
<!-- Created with Inkscape (http://www.inkscape.org/) -->

<svg
   xmlns:dc="http://purl.org/dc/elements/1.1/"
   xmlns:cc="http://creativecommons.org/ns#"
   xmlns:rdf="http://www.w3.org/1999/02/22-rdf-syntax-ns#"
   xmlns:svg="http://www.w3.org/2000/svg"
   xmlns="http://www.w3.org/2000/svg"
   xmlns:sodipodi="http://sodipodi.sourceforge.net/DTD/sodipodi-0.dtd"
   xmlns:inkscape="http://www.inkscape.org/namespaces/inkscape"
   width="17.826077mm"
   height="18.242744mm"
   viewBox="0 0 17.826077 18.242739"
   version="1.1"
   id="svg7070"
   inkscape:version="0.92.4 (5da689c313, 2019-01-14)"
   sodipodi:docname="algeria.svg">
  <defs
     id="defs7064" />
  <sodipodi:namedview
     id="base"
     pagecolor="#ffffff"
     bordercolor="#666666"
     borderopacity="1.0"
     inkscape:pageopacity="0.0"
     inkscape:pageshadow="2"
     inkscape:zoom="7.9195959"
     inkscape:cx="46.378002"
     inkscape:cy="14.715142"
     inkscape:document-units="mm"
     inkscape:current-layer="layer1"
     showgrid="false"
     inkscape:window-width="958"
     inkscape:window-height="1008"
     inkscape:window-x="-7"
     inkscape:window-y="0"
     inkscape:window-maximized="0" />
  <metadata
     id="metadata7067">
    <rdf:RDF>
      <cc:Work
         rdf:about="">
        <dc:format>image/svg+xml</dc:format>
        <dc:type
           rdf:resource="http://purl.org/dc/dcmitype/StillImage" />
        <dc:title></dc:title>
      </cc:Work>
    </rdf:RDF>
  </metadata>
  <g
     inkscape:label="Layer 1"
     inkscape:groupmode="layer"
     id="layer1"
     transform="translate(-149.56304,-27.895953)">
    <path
       style="fill:#aaaaaa;stroke-width:0.26458332"
       inkscape:connector-curvature="0"
       id="dz"
       d="m 149.56304,37.777288 c 0.0437,-0.414602 0.0595,-0.851958 0.0595,-1.268941 0,-0.295805 0.46805,-0.454025 0.65643,-0.625475 0.0934,-0.08493 0.2167,-0.24183 0.3601,-0.227542 0.13679,0.01376 0.24448,-0.172508 0.34819,-0.23495 0.23389,-0.140229 0.41249,0.237331 0.57335,-0.11721 0.0498,-0.109803 0.20929,-0.06376 0.30507,-0.0762 0.17251,-0.02302 0.34634,-0.0762 0.50906,-0.136525 0.32702,-0.120915 0.36301,-0.449792 0.64188,-0.59743 0.11509,-0.06059 0.24315,-0.08969 0.36433,-0.134673 0.14922,-0.0553 0.24738,-0.222779 0.40137,-0.253735 0.0564,-0.01111 0.38973,-0.01349 0.26538,-0.173302 -0.0802,-0.103452 -0.23733,-0.163248 -0.0728,-0.31406 -0.23548,-0.06456 -0.0228,-0.311415 0.15002,-0.296863 0.2286,0.01905 0.4392,-0.06218 0.52017,-0.276225 0.15531,-0.40984 1.21311,-0.04683 1.515,-0.124619 -0.27861,-0.105304 0.25585,-0.344223 0.0648,-0.491596 -0.0889,-0.06853 -0.18811,-0.128587 -0.26035,-0.216164 -0.0836,-0.101336 -0.04,-0.246327 -0.12197,-0.370152 -0.0857,-0.129646 -0.001,-0.221456 0.0236,-0.350309 0.0233,-0.120914 -0.10716,-0.137318 -0.0942,-0.254529 0.0122,-0.109537 0.055,-0.219339 0.0566,-0.328612 0.002,-0.146579 -0.14023,-0.286279 0.005,-0.40005 -0.15081,-0.06165 -0.0601,-0.138377 -0.082,-0.25109 -0.0291,-0.150283 -0.28231,-0.199231 -0.33946,-0.354012 0.2794,-5.3e-4 0.36169,-0.07594 0.59928,-0.19738 0.10346,-0.05265 0.16854,-0.05292 0.23099,-0.161925 0.0553,-0.09631 0.0968,-0.177535 0.19949,-0.232304 0.0577,-0.03096 0.17013,-0.121179 0.23125,-0.07276 0.0794,0.06244 0.17965,-0.0463 0.2323,-0.09446 0.13706,-0.125413 0.32517,0.190235 0.4654,-0.09816 0.18786,-0.385762 0.83503,-0.552979 1.21418,-0.596635 0.26987,-0.03096 0.54266,-0.10504 0.81465,-0.08678 0.20293,0.01349 0.34263,-0.245268 0.51858,-0.14552 0.0767,0.04313 0.0593,0.01878 0.0884,-0.02911 0.006,-0.01058 0.31062,-0.0061 0.35587,-0.02408 0.26299,-0.10451 0.52837,-0.06482 0.80486,-0.0725 0.23045,-0.0063 0.28522,0.04127 0.46038,0.173302 0.22383,0.169068 0.30162,-0.08096 0.49609,-0.104775 0.0624,-0.0074 0.45006,-0.02434 0.42862,-0.138907 -0.0384,-0.206639 0.24395,-0.07937 0.31115,-0.03439 0.14023,0.09366 0.35111,0.141552 0.49478,0.02672 0.0788,-0.06323 0.0275,-0.14552 0.17753,-0.10795 0.10663,0.02672 0.19024,0.10504 0.30639,0.09895 -0.0982,0.162189 0.14552,0.105304 0.22251,0.08546 0.15373,-0.03995 0.31962,-0.0026 0.46726,-0.05186 0.0111,0.209285 -0.25427,0.311943 -0.36989,0.445558 0.31485,0.068 0.013,0.51091 0.0765,0.713846 0.1106,0.352689 0.0643,0.619125 -0.0101,0.966787 -0.0611,0.28628 -0.37968,0.509323 -0.5924,0.697178 -0.12409,0.109272 -0.0638,0.395287 0.009,0.516731 0.11721,0.196056 0.064,0.410104 0.30533,0.50165 0.32993,0.125148 0.23283,0.542925 0.49874,0.741891 0.12329,0.09234 0.26881,0.159015 0.37306,0.274903 0.14102,0.156897 0.16166,0.413543 0.19447,0.61251 0.0677,0.410898 0.26273,0.867304 0.26273,1.281642 0,0.111918 -0.23521,0.08387 -0.0833,0.286279 0.14684,0.195791 0.25453,0.414337 0.3167,0.652462 0.10716,0.411163 -0.13732,0.866246 0.0466,1.250686 0.0984,0.205052 0.0482,0.321733 -0.031,0.519377 -0.0892,0.223044 -0.0153,0.468577 0.0331,0.691091 0.073,0.33655 -0.0545,0.364332 -0.29343,0.545042 -0.27252,0.206111 0.18071,0.576792 0.29898,0.758561 0.22093,0.339989 0.0881,0.743743 0.38206,1.060979 0.11298,0.121708 0.24262,-0.02434 0.36301,-0.01535 0.15266,0.01164 0.31803,0.126735 0.4609,0.178594 0.32676,0.118533 0.43657,0.392377 0.55695,0.702733 0.0572,0.147108 0.11483,0.164835 -0.0444,0.255058 -0.21034,0.119592 -0.4109,0.256646 -0.61357,0.388144 -0.86783,0.562769 -1.71503,1.151996 -2.55429,1.75604 -0.36618,0.264054 -0.73183,0.531018 -1.0578,0.844285 -0.17224,0.165894 -0.34184,0.334433 -0.51409,0.500063 -0.16721,0.161395 -0.34369,0.413808 -0.54795,0.52652 -0.15478,0.08546 -0.38258,0.0934 -0.55324,0.128588 -0.23178,0.04815 -0.46434,0.09366 -0.69612,0.14261 -0.11642,0.02487 -1.13506,0.37465 -1.09141,0.01429 0.0154,-0.127 0.1061,-0.176477 0.0937,-0.316971 -0.005,-0.05424 0.0336,-0.30824 -0.0225,-0.336285 -0.17119,-0.08572 -0.36275,-0.177007 -0.55166,-0.213255 -0.0934,-0.01799 -0.29924,-0.283368 -0.35639,-0.237331 -0.29528,0.236273 -0.3773,-0.240506 -0.52361,-0.345281 -0.0915,-0.06562 -0.23628,-0.07858 -0.31565,-0.138642 -0.0894,-0.068 0.0323,-0.266171 -0.0214,-0.357187 -0.0675,-0.114565 -0.2294,-0.184415 -0.3392,-0.249502 -0.18812,-0.11139 -0.36433,-0.243417 -0.53684,-0.377561 -0.42836,-0.332581 -0.84931,-0.674952 -1.27582,-1.009914 -1.64438,-1.293019 -3.28665,-2.581011 -5.00724,-3.772165 -0.41037,-0.286015 -0.82312,-0.566473 -1.23719,-0.845344 z" />
  </g>
</svg>
