<?xml version="1.0" encoding="UTF-8" standalone="no"?>
<!-- Created with Inkscape (http://www.inkscape.org/) -->

<svg
   xmlns:dc="http://purl.org/dc/elements/1.1/"
   xmlns:cc="http://creativecommons.org/ns#"
   xmlns:rdf="http://www.w3.org/1999/02/22-rdf-syntax-ns#"
   xmlns:svg="http://www.w3.org/2000/svg"
   xmlns="http://www.w3.org/2000/svg"
   xmlns:sodipodi="http://sodipodi.sourceforge.net/DTD/sodipodi-0.dtd"
   xmlns:inkscape="http://www.inkscape.org/namespaces/inkscape"
   width="13.614598mm"
   height="33.145126mm"
   viewBox="0 0 13.614598 33.145128"
   version="1.1"
   id="svg7070"
   inkscape:version="0.92.4 (5da689c313, 2019-01-14)"
   sodipodi:docname="argentina.svg">
  <defs
     id="defs7064" />
  <sodipodi:namedview
     id="base"
     pagecolor="#ffffff"
     bordercolor="#666666"
     borderopacity="1.0"
     inkscape:pageopacity="0.0"
     inkscape:pageshadow="2"
     inkscape:zoom="1.4"
     inkscape:cx="10.955465"
     inkscape:cy="-4.5817273"
     inkscape:document-units="mm"
     inkscape:current-layer="layer1"
     showgrid="false"
     inkscape:window-width="958"
     inkscape:window-height="1008"
     inkscape:window-x="-7"
     inkscape:window-y="0"
     inkscape:window-maximized="0" />
  <metadata
     id="metadata7067">
    <rdf:RDF>
      <cc:Work
         rdf:about="">
        <dc:format>image/svg+xml</dc:format>
        <dc:type
           rdf:resource="http://purl.org/dc/dcmitype/StillImage" />
        <dc:title></dc:title>
      </cc:Work>
    </rdf:RDF>
  </metadata>
  <g
     inkscape:label="Layer 1"
     inkscape:groupmode="layer"
     id="layer1"
     transform="translate(-179.33139,-34.254967)">
    <g
       transform="matrix(0.26458333,0,0,0.26458333,169.63743,-108.98886)"
       id="ar">
      <path
         style="fill:#aaaaaa"
         inkscape:connector-curvature="0"
         d="m 71.494,607.343 c 0.052,-0.223 -0.053,-0.256 -0.313,-0.098 0.103,0.034 0.208,0.065 0.313,0.098 z"
         id="path4200" />
      <path
         style="fill:#aaaaaa"
         inkscape:connector-curvature="0"
         d="m 72.036,608.009 c 0.028,-0.377 -0.359,-0.561 -0.667,-0.385 0.202,0.167 0.423,0.293 0.667,0.385 z"
         id="path4202" />
      <path
         style="fill:#aaaaaa"
         inkscape:connector-curvature="0"
         d="m 36.746,569.951 c 0.061,-0.318 0.426,-0.396 0.499,-0.691 0.099,-0.404 -0.138,-1.002 -0.119,-1.436 0.052,-1.232 0.737,-1.74 1.186,-2.785 0.291,-0.682 0.287,-1.379 0.441,-2.088 0.076,-0.348 0.158,-0.738 0.357,-1.039 0.199,-0.301 0.57,-0.059 0.879,-0.201 1.315,-0.605 -0.041,-1.404 -0.481,-2.096 -0.501,-0.785 0.385,-1.275 0.106,-2.039 -0.199,-0.543 -1.759,-3.334 -0.423,-3.379 -0.135,-0.346 -0.851,-1.154 -0.746,-1.494 0.248,-0.799 0.765,-1.359 1.521,-1.695 0.668,-0.297 1.747,-0.562 2.066,-1.303 0.321,-0.742 0.267,-1.74 0.394,-2.531 0.051,-0.312 0.267,-0.824 0.133,-1.137 -0.092,-0.213 -0.651,-0.543 -0.599,-0.768 0.058,-0.254 0.555,-1.059 0.761,-1.145 0.562,-0.236 0.327,-0.861 0.855,-1.125 0.89,-0.445 0.94,-0.537 1.045,-1.605 0.717,0.143 1.082,0.873 1.724,1.154 0.739,0.326 1.606,-0.09 2.378,0.029 1.836,0.279 1.76,1.678 2.696,2.98 0.062,-0.59 0.048,-1.148 0.285,-1.705 0.127,-0.299 0.335,-1.369 0.643,-1.49 0.234,-0.094 0.673,-0.047 0.947,-0.113 0.505,-0.125 1.085,-0.027 1.601,-0.027 0.305,0 0.979,-0.164 1.075,0.182 0.13,0.465 1.066,1.02 1.408,1.361 0.394,0.395 0.67,0.449 0.916,0.961 0.193,0.404 0.445,0.807 0.721,1.158 0.638,0.812 1.707,1.387 2.539,1.98 0.477,0.342 0.707,0.826 1.142,1.188 0.404,0.336 0.964,0.316 1.433,0.502 0.632,0.25 1.045,0.416 1.747,0.416 0.532,0 0.911,0.482 1.351,0.709 1.139,0.586 2.029,1.691 3.288,2.096 0.37,0.121 0.811,0.158 1.108,0.434 0.432,0.4 0.619,0.166 1.061,0.432 0.427,0.254 0.992,0.293 1.312,0.697 0.226,0.287 0.476,0.545 0.699,0.836 0.441,0.57 -0.395,1.172 -0.507,1.832 -0.167,0.984 -1.048,1.244 -0.844,2.4 0.186,1.059 -0.601,1.385 -0.831,2.285 -0.114,0.449 -0.272,0.289 -0.031,0.826 0.648,-0.252 1.34,-0.258 2.015,-0.127 1.193,0.232 2.313,0.932 3.482,0.553 0.366,-0.117 0.541,0.443 0.918,0.174 0.364,-0.26 0.752,0.336 1.049,0.449 0.207,-0.432 0.239,-1.029 0.825,-1.111 0.449,-0.062 0.679,0.449 1.068,0.396 0.616,-0.082 0.52,-0.824 0.67,-1.236 0.173,-0.471 1.173,-0.424 1.123,-0.697 -0.016,-0.086 0.575,-0.939 0.644,-0.928 0.438,0.07 0.354,-0.957 0.405,-1.318 0.104,-0.721 0.094,-1.506 -0.092,-2.215 -0.19,-0.723 0.265,-0.477 0.66,-0.227 0.089,-0.576 0.851,-0.52 1.253,-0.377 0.697,0.248 0.84,0.969 1.068,1.596 0.322,0.885 0.413,1.383 0.439,2.332 0.013,0.496 0.138,0.941 0.062,1.441 -0.043,0.252 -0.084,0.504 -0.124,0.756 -0.157,-0.061 -0.308,-0.045 -0.449,0.049 -0.526,0.299 -0.867,0.695 -1.44,0.93 -0.286,0.117 -1.231,0.445 -1.265,0.828 -0.052,0.582 -0.694,0.635 -1.087,0.889 -0.229,0.146 -0.27,0.465 -0.467,0.658 -0.288,0.285 -0.654,0.494 -0.913,0.807 0.265,0.09 0.38,0.316 0.251,0.574 -0.584,-0.604 -1.736,1.799 -2.064,2.268 -0.572,0.816 -0.722,2.48 -1.789,2.91 -0.48,0.193 -0.445,0.842 -0.68,1.225 -0.124,0.203 -0.317,0.322 -0.55,0.361 0.131,0.34 0.007,0.572 -0.246,0.797 -0.717,0.637 0.053,0.844 0.122,1.523 0.034,0.338 -0.24,0.273 -0.256,0.539 -0.019,0.312 0.181,0.611 0.21,0.92 0.031,0.311 -0.03,0.65 -0.169,0.93 -0.281,0.564 0.285,0.207 0.237,0.75 -0.061,0.689 -0.456,0.818 -0.326,1.57 0.111,0.643 0.496,0.885 0.287,1.537 -0.189,0.588 0.211,1.312 0.505,1.803 0.512,0.857 -0.64,0.545 -0.595,1.041 0.059,0.648 -0.326,1.309 -0.021,1.963 0.17,0.365 1.549,2.348 0.439,2.289 0.503,0.408 0.558,0.938 1.16,1.314 0.655,0.408 1.306,0.725 2.006,1.049 1.142,0.529 2.744,1.424 2.125,2.836 -0.446,1.018 0.901,3.066 2.115,2.561 0.479,-0.199 0.69,1.24 0.791,1.498 0.3,0.771 -0.216,1.639 -0.532,2.332 -0.29,0.637 -1.034,1.541 -1.056,2.244 -0.023,0.744 0.049,0.965 -0.639,1.457 -1.247,0.889 -2.678,1.344 -4.162,1.645 -1.792,0.361 -3.528,0.887 -5.366,0.969 -0.709,0.033 -1.304,0.02 -2.001,-0.045 -0.794,-0.07 -1.333,-0.576 -2.094,-0.676 0.106,0.205 0.249,0.383 0.426,0.529 0.196,0.182 -0.021,0.57 0.091,0.793 0.062,0.125 1.51,1.195 0.594,0.84 0.422,0.309 0.624,0.525 0.716,1.053 0.067,0.379 0.125,1.008 -0.46,0.693 0.087,0.383 0.196,0.773 0.182,1.17 -0.011,0.32 -0.34,0.6 -0.102,0.885 0.173,0.211 0.415,0.355 0.616,0.535 0.306,0.275 0.147,0.719 0.574,0.49 -0.26,1.559 -1.846,1.795 -3.159,1.914 -1.741,0.156 -3.167,-1.02 -4.879,-1.279 0.709,-0.137 -0.035,-0.395 -0.262,-0.277 -0.299,0.154 -0.479,0.537 -0.491,0.861 -0.036,0.934 1.103,1.609 1.277,2.529 0.142,0.744 0.159,1.668 0.987,1.984 0.423,0.162 1.584,0.252 1.256,0.969 0.176,0.043 1.808,0.227 1.698,-0.197 -0.09,-0.346 -0.843,-0.359 -1.098,-0.5 0.543,0.084 0.833,-0.477 1.337,-0.506 0.52,-0.033 1.056,0.691 1.143,1.143 0.081,0.416 0.609,1.029 0.318,1.459 -0.202,0.297 -0.944,0.391 -1.265,0.352 -0.533,-0.066 -0.447,-0.672 -0.711,-0.936 -0.434,-0.432 -1.028,-0.607 -1.559,-0.252 -1.406,0.941 0.914,1.709 1.727,1.502 -0.068,0.443 -0.541,0.59 -0.897,0.736 -0.703,0.289 -0.674,0.607 -0.946,1.234 -0.283,0.65 -0.328,0.873 0.121,1.482 0.156,0.211 0.374,0.469 0.4,0.744 -0.052,0.186 -0.056,0.371 -0.011,0.559 0.188,0.174 0.287,0.389 0.297,0.643 -0.021,0.119 0.039,0.553 -0.137,0.6 -0.248,0.066 -0.589,0.172 -0.624,0.484 -0.058,0.523 0.736,0.605 0.651,1.016 -0.093,0.451 -3.251,-0.189 -2.574,0.955 -1.364,-0.287 -1.725,1.35 -1.914,2.344 -0.316,1.666 0.777,2.326 2.031,3.174 0.616,0.416 1.148,0.967 1.838,1.27 0.879,0.387 1.943,-0.135 2.777,0.359 1.165,0.689 1.343,2.996 -0.475,2.764 0.334,0.135 0.575,-0.164 0.891,-0.189 0.48,-0.041 0.668,0.287 0.953,0.604 -0.278,0.033 -0.368,0.195 -0.225,0.441 -0.524,-0.105 -1.579,1.248 -1.904,1.568 -0.425,0.42 -0.753,0.828 -1.067,1.342 -0.212,0.348 -0.419,0.553 -0.4,0.982 0.015,0.34 0.05,0.664 -0.251,0.908 0.259,0.045 0.462,-0.096 0.512,-0.354 0.033,0.945 1.071,2.584 -0.341,3.035 -1.04,0.33 -1.373,-1.25 -2.267,-1.412 0.23,0.088 0.836,0.551 0.635,0.855 -0.148,0.229 -0.759,0.033 -0.984,0.221 0.871,-0.355 1.239,0.223 2.003,0.385 -0.094,0.584 -1.016,0.555 -1.228,1.201 -0.286,0.873 0.328,1.438 -0.17,2.324 0.644,-0.799 1.577,0.955 1.812,1.414 0.36,0.705 -1.102,0.291 -1.463,0.588 0.378,-0.123 1.269,0.232 1.431,0.139 0.521,-0.307 0.924,0.393 1.321,0.707 0.77,0.611 1.594,1.055 1.95,1.947 -0.187,-0.318 -0.616,-0.305 -0.932,-0.338 -0.566,-0.061 -1.083,-0.367 -1.624,-0.523 -1.363,-0.398 -2.83,-0.568 -4.243,-0.568 -0.626,0 -1.252,0 -1.878,0 -0.527,0 -1.636,0.215 -2.091,-0.068 -0.709,-0.443 -1.305,-1.436 -2.225,-1.551 0.29,-0.426 0.023,-1.119 -0.344,-1.385 -0.486,-0.355 -0.109,-0.818 -0.371,-1.254 -0.162,-0.268 -0.662,-0.965 -1.06,-0.783 -0.311,0.143 -0.582,-0.059 -0.894,0.021 -0.231,0.059 -0.352,0.334 -0.55,0.449 -0.418,0.242 -1.01,-0.869 -1.141,-1.131 -0.261,-0.523 -1.311,-0.881 -1.394,-1.412 -0.044,-0.281 -0.192,-0.289 -0.317,-0.523 -0.099,-0.186 -0.019,-0.422 -0.092,-0.621 -0.104,-0.279 -0.435,-0.383 -0.538,-0.666 -0.116,-0.32 -0.017,-0.656 -0.066,-0.984 0.53,0.086 0.57,-0.223 0.702,-0.635 0.075,-0.234 -0.066,-0.426 0.124,-0.635 0.168,-0.186 0.498,-0.055 0.671,-0.256 0.342,-0.396 -0.024,-1.043 -0.29,-1.395 -0.305,-0.402 0.498,-0.434 0.541,-0.762 0.048,-0.367 -0.488,-0.828 -0.748,-1.012 -0.529,-0.375 -0.606,-0.613 -0.603,-1.252 0.002,-0.438 0.108,-1.988 0.874,-1.871 -0.155,-0.348 -0.582,-0.383 -0.563,-0.748 0.011,-0.236 -0.23,-0.424 -0.126,-0.67 0.074,-0.174 0.262,-0.262 0.346,-0.434 0.346,-0.701 -0.844,-1.791 -1.336,-2.15 0.432,-0.02 0.69,-0.842 0.216,-0.977 -0.339,-0.096 -0.888,-0.875 -0.526,-1.209 0.308,-0.283 0.403,-0.094 0.619,-0.553 0.182,-0.389 0.245,-0.396 -0.102,-0.732 -0.304,-0.295 -0.641,-0.568 -0.987,-0.814 -0.49,-0.35 -1.183,0.018 -1.629,-0.471 -0.379,-0.414 2.081,-0.236 2.28,-0.516 -0.11,0.154 0.011,-0.809 0.062,-0.666 -0.373,-1.047 -2.063,0.021 -2.477,-1.004 -0.104,-0.168 -0.205,-0.336 -0.304,-0.506 -0.07,-0.273 0.352,-0.518 0.169,-0.779 -0.232,-0.332 -0.813,-0.521 -0.487,-0.889 0.407,-0.461 -1.607,-0.82 -0.879,-1.475 0.389,-0.35 -0.101,-0.631 -0.457,-0.691 -0.678,-0.117 -0.94,-0.371 -1.151,-1.027 -0.161,-0.5 -0.178,-1.098 -0.353,-1.57 -0.132,-0.359 -0.671,-0.666 -0.158,-1.027 0.318,-0.225 0.874,-0.043 0.472,-0.584 -0.342,-0.461 -1.087,-1.1 -1.022,-1.729 0.112,-1.086 -1.002,-2.092 -1.19,-3.076 -0.076,-0.398 -0.048,-0.926 0.133,-1.283 0.289,-0.57 -0.526,-0.711 -0.617,-1.195 0.757,0.254 0.269,-0.842 0.051,-1.094 -0.438,-0.506 -0.312,-0.76 0.298,-0.781 -0.387,-0.377 -0.188,-1.477 -0.368,-2.002 -0.275,-0.803 0.53,-0.959 1.018,-1.402 0.531,-0.48 -0.621,-1.254 -0.782,-1.848 -0.205,-0.75 -1.367,-1.668 -1.249,-2.408 0.08,-0.496 -0.419,-1.703 -0.651,-2.18 -0.249,-0.51 -0.377,-1.635 0.027,-2.078 0.218,-0.238 0.415,0.018 0.546,-0.273 0.098,-0.217 0.075,-0.535 0.241,-0.719 0.131,-0.145 0.479,-0.234 0.497,-0.453 0.043,-0.518 -0.143,-1.066 -0.342,-1.535 -0.169,-0.395 -0.375,-0.773 -0.567,-1.158 -0.047,-0.096 -0.435,-0.352 -0.436,-0.395 -0.003,-0.348 0.428,-0.193 0.471,-0.588 0.043,-0.385 -0.034,-0.775 -0.071,-1.16 -0.037,-0.373 0.055,-2.119 0.623,-2.018 0.549,0.098 -0.229,-1.281 -0.275,-1.393 -0.215,-0.514 0.06,-2.285 -0.545,-2.48 -0.344,-0.111 -0.135,0.447 -0.607,-0.141 -0.346,-0.43 -0.248,-0.639 -0.174,-1.117 0.058,-0.375 -0.214,-0.514 -0.469,-0.699 -0.33,-0.24 -0.222,-0.467 -0.328,-0.807 -0.23,-0.744 -0.98,-1.205 -1.195,-1.955 0.71,0.326 -0.079,-0.645 -0.351,-0.783 -0.649,-0.332 -0.867,-1.396 -0.895,-2.037 -0.034,-0.785 0.564,-0.494 0.394,-1.332 -0.125,-0.613 0.496,-1.732 0.058,-2.232 1.074,0.719 0.668,-1.137 0.523,-1.531 -0.208,-0.579 -1.211,-2.111 -0.869,-2.667 z"
         id="path4518" />
      <path
         style="fill:#aaaaaa"
         inkscape:connector-curvature="0"
         d="m 70.668,658.068 c 0.643,0.58 1.451,0.979 1.941,1.717 -0.443,-0.814 -1.46,0.607 0.224,0.623 0.63,0.006 0.822,0.707 1.225,1.068 0.494,0.441 1.22,0.553 1.683,0.965 1.225,1.092 3.001,1.602 4.485,2.277 0.676,0.309 1.658,0.695 2.408,0.674 0.37,-0.012 0.735,-0.088 1.106,-0.07 0.522,0.023 0.404,0.57 0.269,1.006 -0.418,-0.23 -0.911,0.17 -1.405,-0.021 -0.539,-0.207 -1.282,0.484 -1.958,0.34 -0.759,-0.162 -1.421,-0.346 -2.209,-0.371 -0.878,-0.025 -2.003,0.016 -2.828,-0.328 -0.531,-0.221 -0.851,0.324 -1.306,-0.348 -0.417,-0.617 -0.654,-1.389 -0.988,-2.055 -0.905,-1.799 -1.883,-3.614 -2.647,-5.477 z"
         id="path4520" />
      <path
         style="fill:#aaaaaa"
         inkscape:connector-curvature="0"
         d="m 85.854,666.294 c 0.433,-0.537 1.379,-0.389 1.968,-0.604 -0.8,-0.205 -1.545,0.064 -2.286,0.348 0.097,0.098 0.203,0.182 0.318,0.256 z"
         id="path4874" />
    </g>
  </g>
</svg>
