<?xml version="1.0" encoding="UTF-8" standalone="no"?>
<!-- Created with Inkscape (http://www.inkscape.org/) -->

<svg
   xmlns:dc="http://purl.org/dc/elements/1.1/"
   xmlns:cc="http://creativecommons.org/ns#"
   xmlns:rdf="http://www.w3.org/1999/02/22-rdf-syntax-ns#"
   xmlns:svg="http://www.w3.org/2000/svg"
   xmlns="http://www.w3.org/2000/svg"
   xmlns:sodipodi="http://sodipodi.sourceforge.net/DTD/sodipodi-0.dtd"
   xmlns:inkscape="http://www.inkscape.org/namespaces/inkscape"
   width="2.7033055mm"
   height="6.2095156mm"
   viewBox="0 0 2.7033057 6.2095138"
   version="1.1"
   id="svg7070"
   inkscape:version="0.92.4 (5da689c313, 2019-01-14)"
   sodipodi:docname="benin.svg">
  <defs
     id="defs7064" />
  <sodipodi:namedview
     id="base"
     pagecolor="#ffffff"
     bordercolor="#666666"
     borderopacity="1.0"
     inkscape:pageopacity="0.0"
     inkscape:pageshadow="2"
     inkscape:zoom="7.9195959"
     inkscape:cx="11.831149"
     inkscape:cy="5.3732297"
     inkscape:document-units="mm"
     inkscape:current-layer="layer1"
     showgrid="false"
     inkscape:window-width="958"
     inkscape:window-height="1008"
     inkscape:window-x="-7"
     inkscape:window-y="0"
     inkscape:window-maximized="0" />
  <metadata
     id="metadata7067">
    <rdf:RDF>
      <cc:Work
         rdf:about="">
        <dc:format>image/svg+xml</dc:format>
        <dc:type
           rdf:resource="http://purl.org/dc/dcmitype/StillImage" />
        <dc:title></dc:title>
      </cc:Work>
    </rdf:RDF>
  </metadata>
  <g
     inkscape:label="Layer 1"
     inkscape:groupmode="layer"
     id="layer1"
     transform="translate(-158.70355,-37.457466)">
    <path
       style="fill:#aaaaaa;stroke-width:0.26458332"
       inkscape:connector-curvature="0"
       id="bj"
       d="m 158.70355,39.128582 c 0.0696,-0.06959 0.0513,-0.182298 0.10848,-0.257969 0.0537,-0.07117 0.10874,-0.0598 0.1614,-0.120385 0.10477,-0.120915 0.19446,-0.432329 0.39978,-0.317765 0.19473,0.108744 0.51303,-0.09684 0.626,-0.243945 0.073,-0.09446 0.16034,-0.243152 0.15796,-0.366977 -0.002,-0.07488 -0.0857,-0.233628 0.0357,-0.255323 0.0735,-0.01297 0.14526,-0.009 0.20505,-0.06271 0.14605,-0.131498 0.25718,0.05054 0.34608,0.148961 0.0648,0.0717 0.10689,0.162719 0.16986,0.237066 0.0743,0.08705 0.19129,0.1143 0.26511,0.217488 0.041,0.05768 -0.05,0.201083 -0.0632,0.258233 -0.0302,0.131234 0.0939,0.239448 0.15875,0.338138 0.0751,0.115094 0.0148,0.23495 0.0638,0.341312 0.0585,0.127265 0.10689,0.186532 0.0251,0.323586 -0.0434,0.07276 -0.11589,0.03413 -0.1524,0.1143 -0.0616,0.135466 0.0704,0.265112 -0.0109,0.402166 -0.0537,0.09049 -0.18839,0.09631 -0.23971,0.18759 -0.0479,0.08467 -0.0495,0.154781 -0.11933,0.2413 -0.13388,0.165894 0.0601,0.401637 -0.22596,0.471752 -0.0958,0.02381 -0.15345,-0.01561 -0.17065,0.09499 -0.0161,0.102923 -0.0164,0.209286 -0.018,0.313267 -0.004,0.254794 -0.0476,0.507471 -0.0386,0.762794 0.005,0.151341 0.0923,0.350837 0.0714,0.492389 -0.0188,0.128059 -0.0328,0.255852 -0.0513,0.383382 -0.0204,0.140493 0.11324,0.604573 -0.0619,0.69506 -0.10345,0.05371 -0.27622,0.02434 -0.39079,0.0471 -0.17806,0.03572 -0.35692,0.06773 -0.53684,0.0926 0.0426,-0.03863 0.0926,-0.05847 0.15055,-0.059 -0.008,-0.09102 -0.0556,-0.172508 -0.10001,-0.249502 -0.0693,-0.119327 -0.0762,-0.236802 -0.0958,-0.370417 -0.0175,-0.120914 0.0823,-0.203994 0.0751,-0.370416 -0.0191,-0.448469 -0.006,-0.898525 -0.005,-1.347788 5.3e-4,-0.254265 -0.005,-0.488421 -0.14605,-0.704321 -0.13414,-0.204523 -0.0439,-0.410633 -0.1061,-0.629973 -0.0542,-0.1905 -0.27675,-0.26035 -0.4056,-0.38735 -0.11695,-0.116152 -0.0521,-0.274902 -0.0818,-0.419629 z" />
  </g>
</svg>
