<?xml version="1.0" encoding="UTF-8" standalone="no"?>
<!-- Created with Inkscape (http://www.inkscape.org/) -->

<svg
   xmlns:dc="http://purl.org/dc/elements/1.1/"
   xmlns:cc="http://creativecommons.org/ns#"
   xmlns:rdf="http://www.w3.org/1999/02/22-rdf-syntax-ns#"
   xmlns:svg="http://www.w3.org/2000/svg"
   xmlns="http://www.w3.org/2000/svg"
   xmlns:sodipodi="http://sodipodi.sourceforge.net/DTD/sodipodi-0.dtd"
   xmlns:inkscape="http://www.inkscape.org/namespaces/inkscape"
   width="13.69574mm"
   height="13.808071mm"
   viewBox="0 0 13.69574 13.808067"
   version="1.1"
   id="svg7070"
   inkscape:version="0.92.4 (5da689c313, 2019-01-14)"
   sodipodi:docname="libya.svg">
  <defs
     id="defs7064" />
  <sodipodi:namedview
     id="base"
     pagecolor="#ffffff"
     bordercolor="#666666"
     borderopacity="1.0"
     inkscape:pageopacity="0.0"
     inkscape:pageshadow="2"
     inkscape:zoom="7.9195959"
     inkscape:cx="44.980709"
     inkscape:cy="-1.3399898"
     inkscape:document-units="mm"
     inkscape:current-layer="layer1"
     showgrid="false"
     inkscape:window-width="958"
     inkscape:window-height="1008"
     inkscape:window-x="-7"
     inkscape:window-y="0"
     inkscape:window-maximized="0" />
  <metadata
     id="metadata7067">
    <rdf:RDF>
      <cc:Work
         rdf:about="">
        <dc:format>image/svg+xml</dc:format>
        <dc:type
           rdf:resource="http://purl.org/dc/dcmitype/StillImage" />
        <dc:title></dc:title>
      </cc:Work>
    </rdf:RDF>
  </metadata>
  <g
     inkscape:label="Layer 1"
     inkscape:groupmode="layer"
     id="layer1"
     transform="translate(-149.93274,-28.082706)">
    <path
       style="fill:#aaaaaa;stroke-width:0.26458332"
       inkscape:connector-curvature="0"
       id="ly"
       d="m 149.96225,31.250562 c -0.11245,-0.09657 0.12832,-0.210608 0.1905,-0.239448 0.18732,-0.08678 0.28813,-0.136789 0.40164,-0.320675 0.0913,-0.148166 0.20902,-0.225425 0.1733,-0.41566 -0.0307,-0.164306 -0.13467,-0.324644 -0.11801,-0.496094 0.023,-0.23495 0.24554,-0.169598 0.35375,-0.306123 0.0966,-0.122237 0.19923,-0.309298 0.34872,-0.384175 0.11536,-0.05768 0.49424,-0.15875 0.49742,-0.319352 0.002,-0.0807 -0.0773,-0.130439 -0.0691,-0.2159 0.0151,-0.156633 0.0212,-0.31406 0.0368,-0.470429 0.15081,0.104775 0.35348,0.158221 0.51567,0.257704 0.17013,0.104775 0.36328,0.140229 0.56118,0.118534 0.20056,-0.02196 0.34767,-0.148696 0.55404,-0.07435 0.18336,0.06641 0.37783,0.07329 0.55642,0.149225 0.15902,0.068 0.28734,0.1905 0.44768,0.253206 0.13996,0.05503 0.32967,-0.0026 0.45481,0.08387 0.14738,0.101864 0.17516,0.276754 0.20347,0.440266 0.0365,0.20955 0.11853,0.376503 0.28152,0.516996 0.29474,0.254 0.65881,0.194469 1.01335,0.259027 0.35586,0.06456 0.86254,0.226219 1.1475,0.4572 0.2278,0.18468 0.43868,0.496623 0.76464,0.467255 0.37651,-0.03387 0.77894,-0.365919 0.86334,-0.744009 0.0386,-0.17436 -0.0791,-0.310091 -0.13282,-0.467519 -0.059,-0.173302 -0.10213,-0.372533 -0.0429,-0.55192 0.109,-0.329142 0.65114,-0.737394 0.99483,-0.749036 0.1778,-0.0058 0.28178,-0.134937 0.44662,-0.147373 0.16774,-0.01296 0.34686,-0.01614 0.51064,0.02434 0.19182,0.04683 0.35878,0.139435 0.54081,0.210608 0.21537,0.0844 0.15849,0.113771 0.16907,0.302419 0.008,0.152929 0.25506,0.185208 0.36512,0.193146 0.21379,0.0164 0.3519,0.112977 0.54928,0.170127 0.19579,0.05689 0.40164,-0.0087 0.6006,0.02752 0.11298,0.02064 0.28258,0.245533 0.24263,0.363537 -0.0421,0.124619 -0.19421,0.156369 -0.21537,0.296598 -0.0291,0.193675 0.0942,0.337344 0.12832,0.51779 0.0384,0.20267 -0.11483,0.352689 -0.18336,0.528902 -0.0733,0.186796 0.0812,0.461168 0.11324,0.654843 0.0537,0.329671 0.13521,0.626798 0.15584,0.964936 0.0251,0.40931 0.0468,0.816239 0.0527,1.226608 0.0122,0.846667 0.0566,1.692804 0.0828,2.539471 0.0524,1.670579 0.0825,3.342481 0.10954,5.013854 -0.29104,0 -0.58182,0 -0.87313,0 0.008,0.168011 0.002,0.33655 0.0164,0.504296 -1.81319,-1.096169 -3.65443,-2.144977 -5.51498,-3.15886 -0.44662,-0.243153 -0.89403,-0.484717 -1.34276,-0.7239 -0.35322,-0.188384 -0.80777,0.205581 -1.11707,0.38047 -0.17648,0.09975 -0.37042,0.264584 -0.56727,0.31803 -0.13388,0.03678 -0.27675,-0.181769 -0.3548,-0.259292 -0.3257,-0.324908 -0.70062,-0.391319 -1.13454,-0.490008 -0.15504,-0.03519 -0.35798,-0.05318 -0.49583,-0.138642 -0.10953,-0.068 -0.13996,-0.248973 -0.18547,-0.359833 -0.13282,-0.325702 -0.28972,-0.456671 -0.60854,-0.576528 -0.10557,-0.03969 -0.23336,-0.09816 -0.34925,-0.09525 -0.11351,0.0032 -0.23601,0.128852 -0.34237,0.01402 -0.0865,-0.09366 -0.23601,-0.333375 -0.23813,-0.462756 -0.005,-0.270139 -0.0307,-0.369094 -0.17965,-0.599281 -0.11456,-0.177535 -0.4953,-0.49239 -0.33126,-0.728663 0.18892,-0.27252 0.47837,-0.168275 0.35428,-0.615156 -0.0619,-0.223573 -0.10663,-0.395023 -0.0299,-0.622035 0.0656,-0.194204 0.10451,-0.354806 0.0328,-0.555625 -0.0754,-0.211402 -0.0167,-0.423069 0.002,-0.637646 0.0225,-0.254529 -0.0156,-0.511175 -0.10001,-0.751417 -0.0738,-0.206639 -0.17913,-0.400579 -0.30692,-0.57785 z" />
  </g>
</svg>
