<?xml version="1.0" encoding="UTF-8" standalone="no"?>
<!-- Created with Inkscape (http://www.inkscape.org/) -->

<svg
   xmlns:dc="http://purl.org/dc/elements/1.1/"
   xmlns:cc="http://creativecommons.org/ns#"
   xmlns:rdf="http://www.w3.org/1999/02/22-rdf-syntax-ns#"
   xmlns:svg="http://www.w3.org/2000/svg"
   xmlns="http://www.w3.org/2000/svg"
   xmlns:sodipodi="http://sodipodi.sourceforge.net/DTD/sodipodi-0.dtd"
   xmlns:inkscape="http://www.inkscape.org/namespaces/inkscape"
   width="9.1311493mm"
   height="13.780429mm"
   viewBox="0 0 9.1311494 13.780427"
   version="1.1"
   id="svg7070"
   inkscape:version="0.92.4 (5da689c313, 2019-01-14)"
   sodipodi:docname="somalia.svg">
  <defs
     id="defs7064" />
  <sodipodi:namedview
     id="base"
     pagecolor="#ffffff"
     bordercolor="#666666"
     borderopacity="1.0"
     inkscape:pageopacity="0.0"
     inkscape:pageshadow="2"
     inkscape:zoom="7.9195959"
     inkscape:cx="24.850215"
     inkscape:cy="11.863832"
     inkscape:document-units="mm"
     inkscape:current-layer="layer1"
     showgrid="false"
     inkscape:window-width="958"
     inkscape:window-height="1008"
     inkscape:window-x="-7"
     inkscape:window-y="0"
     inkscape:window-maximized="0" />
  <metadata
     id="metadata7067">
    <rdf:RDF>
      <cc:Work
         rdf:about="">
        <dc:format>image/svg+xml</dc:format>
        <dc:type
           rdf:resource="http://purl.org/dc/dcmitype/StillImage" />
        <dc:title></dc:title>
      </cc:Work>
    </rdf:RDF>
  </metadata>
  <g
     inkscape:label="Layer 1"
     inkscape:groupmode="layer"
     id="layer1"
     transform="translate(-156.44825,-36.175441)">
    <path
       inkscape:connector-curvature="0"
       style="fill:#aaaaaa;stroke-width:0.26458332"
       d="m 156.46082,45.921196 c 0,-0.163777 -0.0423,-0.391319 0.0283,-0.544777 0.0677,-0.146844 0.22622,-0.248973 0.31882,-0.380736 0.18548,-0.263525 0.32518,-0.746125 0.60616,-0.915722 0.25639,-0.155046 0.55669,-0.05477 0.78079,-0.29554 0.25506,-0.273844 0.49636,-0.452702 0.88212,-0.508529 0.2884,-0.0418 0.79587,0.163777 0.9951,-0.100806 0.254,-0.336021 0.51488,-0.668073 0.78184,-0.994305 0.5588,-0.681566 1.14776,-1.355989 1.74996,-1.999456 -0.30613,0 -0.62336,0.05159 -0.92446,-0.0254 -0.34105,-0.08731 -0.66675,-0.252148 -0.99642,-0.37465 -0.33972,-0.126735 -0.67786,-0.257969 -1.01706,-0.386556 -0.31406,-0.118798 -0.58949,-0.201613 -0.83052,-0.443442 -0.0804,-0.0807 -0.10637,-0.123031 -0.21802,-0.152929 -0.11377,-0.0299 -0.15822,-0.20611 -0.2114,-0.299508 -0.09,-0.158486 -0.14976,-0.28628 -0.27755,-0.425715 -0.1524,-0.166687 -0.33126,-0.380471 -0.26194,-0.628121 0.0759,-0.271991 0.33549,-0.500327 0.44133,-0.76835 0.28072,0.156634 0.41381,0.519642 0.60563,0.761736 0.23971,0.302154 0.60457,0.385762 0.97525,0.263789 0.14155,-0.04683 0.32518,-0.173302 0.44662,-0.262731 0.21405,-0.157956 0.27437,-0.131233 0.53763,-0.08811 0.27199,0.04498 0.3945,0.101864 0.64876,-0.05662 0.12806,-0.08017 0.42254,-0.378883 0.5879,-0.319881 0.18204,0.06456 0.30772,0.07249 0.50351,0.0056 0.11774,-0.04048 0.22966,-0.100542 0.35216,-0.127529 0.14049,-0.03122 0.23442,0.02963 0.36803,0.04286 0.21934,0.02196 0.38709,-0.10795 0.57679,-0.184944 0.19765,-0.0807 0.42254,-0.04498 0.62178,-0.14605 0.16589,-0.0844 0.18256,-0.301095 0.32385,-0.370152 0.13678,-0.06747 0.57837,0.04974 0.52387,0.246857 -0.0706,0.255587 -0.11774,0.411691 -0.0709,0.68236 0.0326,0.188913 0.082,0.459317 -0.0831,0.604044 0.1098,0.04101 0.20056,0.01561 0.17622,-0.100806 0.0545,0.03625 0.11377,0.06138 0.17753,0.07541 -0.0365,0.181239 -0.44688,-0.06694 -0.44847,0.250825 -0.001,0.259556 0.0206,0.525198 -0.0513,0.779991 -0.0616,0.216959 -0.19261,0.383382 -0.31538,0.565944 -0.14288,0.21299 -0.12647,0.528638 -0.30163,0.733161 -0.0683,0.08017 -0.16192,0.100277 -0.20928,0.205052 -0.0468,0.10451 -0.006,0.22225 -0.0452,0.332846 -0.0894,0.252148 -0.26988,0.452702 -0.39529,0.684741 -0.16748,0.309034 -0.18098,0.649552 -0.31168,0.968904 -0.13256,0.325173 -0.33946,0.611717 -0.52996,0.904346 -0.18468,0.283634 -0.30718,0.612246 -0.51885,0.877359 -0.23495,0.294481 -0.47016,0.587639 -0.70961,0.878416 -0.48128,0.583936 -0.97076,1.058863 -1.60867,1.469232 -0.26723,0.171979 -0.53287,0.350308 -0.75591,0.578908 -0.25136,0.257439 -0.5387,0.510646 -0.76597,0.788194 -0.2249,0.274902 -0.46117,0.54266 -0.68342,0.818091 -0.10822,0.134938 -0.20294,0.279136 -0.30824,0.415396 -0.0651,0.08467 -0.25982,0.389731 -0.29448,0.211931 0,0.288925 -0.17833,0.57203 -0.35269,0.790046 0.014,-0.229394 -0.22754,-0.473869 -0.35931,-0.637646 -0.19473,-0.242887 -0.13864,-0.415925 -0.14155,-0.711993 -0.008,-0.895615 -0.0116,-1.789907 -0.0116,-2.684992 z"
       id="so" />
  </g>
</svg>
