<?xml version="1.0" encoding="UTF-8" standalone="no"?>
<!-- Created with Inkscape (http://www.inkscape.org/) -->

<svg
   xmlns:dc="http://purl.org/dc/elements/1.1/"
   xmlns:cc="http://creativecommons.org/ns#"
   xmlns:rdf="http://www.w3.org/1999/02/22-rdf-syntax-ns#"
   xmlns:svg="http://www.w3.org/2000/svg"
   xmlns="http://www.w3.org/2000/svg"
   xmlns:sodipodi="http://sodipodi.sourceforge.net/DTD/sodipodi-0.dtd"
   xmlns:inkscape="http://www.inkscape.org/namespaces/inkscape"
   width="19.514099mm"
   height="16.237478mm"
   viewBox="0 0 19.514098 16.23748"
   version="1.1"
   id="svg7070"
   inkscape:version="0.92.4 (5da689c313, 2019-01-14)"
   sodipodi:docname="spain.svg">
  <defs
     id="defs7064" />
  <sodipodi:namedview
     id="base"
     pagecolor="#ffffff"
     bordercolor="#666666"
     borderopacity="1.0"
     inkscape:pageopacity="0.0"
     inkscape:pageshadow="2"
     inkscape:zoom="7.9195959"
     inkscape:cx="28.043108"
     inkscape:cy="17.417918"
     inkscape:document-units="mm"
     inkscape:current-layer="layer1"
     showgrid="false"
     inkscape:window-width="958"
     inkscape:window-height="1008"
     inkscape:window-x="-7"
     inkscape:window-y="0"
     inkscape:window-maximized="0" />
  <metadata
     id="metadata7067">
    <rdf:RDF>
      <cc:Work
         rdf:about="">
        <dc:format>image/svg+xml</dc:format>
        <dc:type
           rdf:resource="http://purl.org/dc/dcmitype/StillImage" />
        <dc:title></dc:title>
      </cc:Work>
    </rdf:RDF>
  </metadata>
  <g
     inkscape:label="Layer 1"
     inkscape:groupmode="layer"
     id="layer1"
     transform="translate(-155.60346,-39.070621)">
    <g
       transform="matrix(0.26458333,0,0,0.26458333,101.40358,-38.022611)"
       id="es">
      <path
         style="fill:#aaaaaa"
         inkscape:connector-curvature="0"
         d="m 205.068,352.746 c -0.475,-0.315 -0.094,-0.814 0.38,-0.668 -0.092,0.243 -0.218,0.465 -0.38,0.668 z"
         id="path5984" />
      <path
         style="fill:#aaaaaa"
         inkscape:connector-curvature="0"
         d="m 205.955,349.348 c -0.096,0.063 -0.191,0.127 -0.287,0.19 -0.044,-0.324 -0.64,-1.213 -0.031,-1.335 0.679,-0.135 0.559,0.803 0.318,1.145 z"
         id="path5986" />
      <path
         style="fill:#aaaaaa"
         inkscape:connector-curvature="0"
         d="m 207.605,351.346 c -0.322,-0.199 -0.338,-0.796 0.159,-0.698 0.52,0.101 0.199,0.647 -0.159,0.698 z"
         id="path5988" />
      <path
         style="fill:#aaaaaa"
         inkscape:connector-curvature="0"
         d="m 209.418,351.442 c -0.261,-0.448 -0.402,-0.952 -0.666,-1.397 0.957,-0.226 1.684,-0.522 2.603,-0.89 -0.33,0.708 -1.171,2.001 -1.937,2.287 z"
         id="path5990" />
      <path
         style="fill:#aaaaaa"
         inkscape:connector-curvature="0"
         d="m 212.913,352.395 c -0.783,-0.111 -0.917,-1.39 -0.111,-1.568 1.245,-0.276 0.865,1.217 0.111,1.568 z"
         id="path5992" />
      <path
         style="fill:#aaaaaa"
         inkscape:connector-curvature="0"
         d="m 217.073,351.188 c -0.096,-0.063 -0.191,-0.127 -0.287,-0.191 0.939,-0.311 1.063,-1.752 1.741,-2.4 0.429,-0.409 0.201,1.195 0.138,1.357 -0.289,0.739 -1.082,0.726 -1.592,1.234 z"
         id="path5994" />
      <path
         style="fill:#aaaaaa"
         inkscape:connector-curvature="0"
         d="m 219.045,348.171 c -0.106,-0.042 -0.212,-0.084 -0.318,-0.127 0.132,-0.288 1.157,-1.626 1.395,-0.967 0.199,0.553 -0.799,0.809 -1.077,1.094 z"
         id="path5996" />
      <path
         style="fill:#aaaaaa"
         inkscape:connector-curvature="0"
         d="m 237.689,294.806 c 0.032,-0.053 0.065,-0.106 0.097,-0.159 -0.409,0.036 -0.423,-0.312 -0.31,-0.603 0.184,-0.467 0.515,-0.342 0.808,-0.658 0.567,-0.612 1.792,-0.324 2.582,-0.676 -0.642,0.026 -0.229,-0.156 0,-0.286 -0.136,0.05 -0.274,0.092 -0.415,0.127 -0.095,-0.417 1.306,-1.485 1.306,-0.794 0.212,-0.127 0.423,-0.254 0.635,-0.381 0.052,0.469 1.893,0.254 1.906,1.048 0.562,-0.725 2.207,-0.162 2.982,-0.285 0.667,-0.106 0.839,-0.146 1.54,0.022 0.746,0.178 1.503,0.344 2.263,0.472 1.035,0.175 1.983,0.078 2.931,-0.15 0.6,-0.144 1.308,-0.007 1.833,0.308 0.718,0.431 0.609,-0.167 1.274,-0.119 0.585,0.042 1.157,0.275 1.73,0.385 0.348,0.066 1.382,-0.258 1.535,-0.016 0.166,0.263 1.204,-0.057 1.017,0.579 -0.04,0.135 -0.137,0.295 -0.022,0.427 0.27,0.306 0.202,-0.084 0.489,-0.069 0.904,0.046 1.633,0.965 2.472,1.042 0.19,0.017 0.392,-0.11 0.576,-0.042 0.233,0.087 0.363,0.349 0.621,0.389 0.71,0.109 1.452,0.002 2.167,0.105 -0.037,-0.244 0.016,-0.466 0.159,-0.667 0.9,0.455 2.189,0.427 2.285,1.588 0.501,-0.06 0.817,-0.309 1.306,-0.031 0.145,0.083 0.364,0.349 0.547,0.29 0.213,-0.069 0.431,-0.292 0.678,-0.193 0.471,0.188 0.88,0.393 1.36,0.08 0.396,-0.258 0.616,-0.29 1.064,-0.113 0.254,0.101 0.274,0.429 0.604,0.381 -0.003,0.339 -0.212,0.235 -0.405,0.389 -0.285,0.229 -0.002,0.792 -0.016,1.086 -0.037,0.816 -1.82,1.406 -2.422,1.655 -0.451,0.187 -0.571,0.612 -0.946,0.791 -0.453,0.215 -1.078,0.209 -1.563,0.331 -1.178,0.296 -1.89,0.809 -2.84,1.465 0.738,0.59 0.038,0.702 -0.465,0.99 -0.738,0.424 -0.882,1.443 -1.606,1.906 -1.235,0.789 -1.671,3.051 -0.655,4.131 0.619,0.658 1.117,0.858 0.098,1.495 -0.59,0.369 -1.037,0.523 -1.517,1.05 -0.284,0.312 -0.541,0.788 -0.738,1.242 -0.124,0.284 -0.264,0.604 -0.271,0.919 -0.006,0.264 0.426,0.62 0.165,-0.013 0.403,0.667 -1.239,0.718 -1.557,0.756 -0.767,0.092 -1.832,0.788 -2.017,1.545 -0.159,0.65 -0.699,1.81 -1.396,1.247 -0.426,-0.344 -0.744,0.119 -1.097,0.265 -0.511,0.21 -1.064,-0.106 -1.606,-0.018 -1.129,0.186 -2.255,0.056 -3.409,0.078 -0.616,0.013 -0.753,0.127 -1.2,0.546 -0.512,0.479 -1.186,0.282 -1.777,0.578 -0.294,0.146 -0.584,1.139 -0.848,1.113 -0.329,-0.032 -0.241,0.509 -0.75,0.497 -0.412,-0.01 -0.723,-0.717 -1.115,-0.674 -0.428,0.047 -0.754,-0.849 -0.857,-1.168 0.566,-0.1 -0.138,-0.507 -0.305,-0.636 -0.403,-0.311 0.077,-0.842 0.463,-0.953 -0.241,-0.078 -0.362,0.053 -0.379,0.286 -0.208,-0.222 -1.902,-1.368 -1.526,-1.716 -0.586,-0.064 -0.011,0.245 -0.639,0.259 -0.281,0.007 -0.63,0.113 -0.906,0.012 -0.394,-0.144 -0.38,-1.151 -0.325,-1.478 0.048,-0.285 0.271,-0.499 0.463,-0.695 0.234,-0.241 0.263,-0.621 0.469,-0.823 0.473,-0.465 0.671,-0.106 0.974,-0.832 -0.606,0.2 -1.095,-0.604 -1.112,-1.112 -0.026,-0.791 0.892,-1.177 1.115,-1.875 0.121,-0.378 -0.597,-0.884 -0.766,-1.218 -0.143,-0.281 -0.001,-0.446 -0.209,-0.688 -0.175,-0.203 -0.41,-0.421 -0.523,-0.667 0.403,0.112 0.826,0.031 1.234,0.031 0.425,0 0.309,-0.249 0.457,-0.513 0.185,-0.328 0.766,-1.004 0.15,-1.374 -0.273,-0.164 0.421,-0.448 0.477,-0.475 0.285,-0.136 0.184,-0.54 0.172,-0.785 -0.009,-0.188 0.088,-2.066 -0.159,-2.006 0.442,-0.107 0.64,-0.609 1.076,-0.858 0.271,-0.155 1.322,-0.853 1.241,-1.252 -0.066,-0.326 -0.726,-0.402 -0.966,-0.533 -0.266,-0.146 0.286,-0.691 -0.116,-0.814 -0.285,-0.088 -1.838,-0.25 -1.867,0.031 -0.056,0.541 -0.941,0.341 -1.242,0.218 -0.482,-0.197 -0.955,0.102 -1.429,0.194 -0.745,0.145 -0.365,-0.63 -0.01,-0.886 -0.276,0.036 -0.395,-0.117 -0.349,-0.382 -0.274,0.261 -0.643,0.27 -0.991,0.333 -0.437,0.079 -0.693,0.434 -1.074,0.62 -0.348,-0.91 0.659,-1.009 0.887,-1.716 -0.165,0.311 -0.499,0.408 -0.825,0.413 0.069,-0.363 0.414,-0.507 0.701,-0.667 -0.29,0.128 -0.724,0.16 -0.701,-0.286 0.016,-0.318 0.518,-0.439 0.573,-0.762 -0.281,0.263 -0.727,0.237 -0.891,0.635 -0.317,-0.459 0.189,-0.828 0.507,-1.08 -0.323,0.263 -0.734,0.335 -0.859,-0.153 z"
         id="path5998" />
      <path
         style="fill:#aaaaaa"
         inkscape:connector-curvature="0"
         d="m 269.326,310.054 c -0.636,-0.115 -0.392,-0.697 0.033,-0.917 0.202,-0.104 0.461,-0.138 0.643,0.028 0.306,0.278 -0.546,0.604 -0.676,0.889 z"
         id="path6006" />
      <path
         style="fill:#aaaaaa"
         inkscape:connector-curvature="0"
         d="m 269.356,310.785 c -0.099,-0.365 0.007,-0.429 0.317,-0.19 -0.105,0.063 -0.211,0.127 -0.317,0.19 z"
         id="path6008" />
      <path
         style="fill:#aaaaaa"
         inkscape:connector-curvature="0"
         d="m 275.361,307.831 c -0.593,0.671 -0.537,0.334 -1.251,0.219 -0.76,-0.123 -0.25,-0.94 -1.122,-0.566 -0.773,0.331 -0.136,-0.6 0.085,-0.761 0.666,-0.482 1.357,-0.698 2.129,-0.956 -0.322,0.092 -0.452,0.496 -0.146,0.719 0.239,0.173 0.58,-0.066 0.803,0.11 0.305,0.241 -0.473,0.967 -0.498,1.235 z"
         id="path6010" />
      <path
         style="fill:#aaaaaa"
         inkscape:connector-curvature="0"
         d="m 277.016,305.637 c 0.57,-0.54 1.522,-0.127 1.588,0.636 -0.405,0.064 -1.373,-0.267 -1.588,-0.636 z"
         id="path6012" />
    </g>
  </g>
</svg>
