<?xml version="1.0" encoding="UTF-8" standalone="no"?>
<!-- Created with Inkscape (http://www.inkscape.org/) -->

<svg
   xmlns:dc="http://purl.org/dc/elements/1.1/"
   xmlns:cc="http://creativecommons.org/ns#"
   xmlns:rdf="http://www.w3.org/1999/02/22-rdf-syntax-ns#"
   xmlns:svg="http://www.w3.org/2000/svg"
   xmlns="http://www.w3.org/2000/svg"
   xmlns:sodipodi="http://sodipodi.sourceforge.net/DTD/sodipodi-0.dtd"
   xmlns:inkscape="http://www.inkscape.org/namespaces/inkscape"
   width="13.990249mm"
   height="7.8328891mm"
   viewBox="0 0 13.990248 7.8328899"
   version="1.1"
   id="svg7070"
   inkscape:version="0.92.4 (5da689c313, 2019-01-14)"
   sodipodi:docname="ukraine.svg">
  <defs
     id="defs7064" />
  <sodipodi:namedview
     id="base"
     pagecolor="#ffffff"
     bordercolor="#666666"
     borderopacity="1.0"
     inkscape:pageopacity="0.0"
     inkscape:pageshadow="2"
     inkscape:zoom="1.4"
     inkscape:cx="115.74105"
     inkscape:cy="-52.14135"
     inkscape:document-units="mm"
     inkscape:current-layer="layer1"
     showgrid="false"
     inkscape:window-width="958"
     inkscape:window-height="1008"
     inkscape:window-x="-7"
     inkscape:window-y="0"
     inkscape:window-maximized="0" />
  <metadata
     id="metadata7067">
    <rdf:RDF>
      <cc:Work
         rdf:about="">
        <dc:format>image/svg+xml</dc:format>
        <dc:type
           rdf:resource="http://purl.org/dc/dcmitype/StillImage" />
        <dc:title></dc:title>
      </cc:Work>
    </rdf:RDF>
  </metadata>
  <g
     inkscape:label="Layer 1"
     inkscape:groupmode="layer"
     id="layer1"
     transform="translate(-151.60688,-46.98372)">
    <path
       inkscape:connector-curvature="0"
       style="fill:#aaaaaa;stroke-width:0.26458332"
       d="m 151.61014,50.843093 c -0.0273,-0.177535 0.12382,-0.299773 0.19632,-0.447146 0.0812,-0.1651 0.11774,-0.293422 0.33364,-0.141287 0.009,-0.06562 -0.0217,-0.09366 -0.0714,-0.127794 -0.0714,-0.04921 -0.0413,-0.161396 -0.0717,-0.235744 -0.0992,-0.241035 0.1016,-0.402431 0.26114,-0.569647 0.13177,-0.137848 0.26723,-0.300038 0.43101,-0.40005 0.1823,-0.11139 0.40217,-0.189178 0.1569,-0.40693 0.0481,-0.0209 0.0955,-0.04339 0.14234,-0.0672 -0.20558,-0.04683 -0.4945,-0.489744 -0.48048,-0.692679 0.0119,-0.17489 0.2503,0.005 0.34766,-0.04604 0.09,-0.04736 0.17066,-0.116946 0.22675,-0.20029 0.0709,-0.10504 0.24765,-0.07726 0.35348,-0.07779 0.23813,-0.0011 0.47784,-0.0217 0.71544,-0.03069 0.21087,-0.0079 0.381,0.068 0.57758,0.117739 0.0966,0.02434 0.40349,-0.0066 0.47255,0.06959 0.072,0.08017 0.14155,0.165364 0.2622,0.125412 0.10398,-0.0344 0.18045,0.06482 0.27226,0.08811 0.0156,-0.14023 0.0699,-0.06138 0.18626,-0.07435 0.086,-0.0098 0.1614,-0.01402 0.23601,0.04022 0.0526,0.03863 0.13044,-0.03334 0.19235,-0.0077 0.0593,0.02461 0.0619,0.122238 0.12621,0.151077 -0.0217,-0.170127 0.18309,-0.225954 0.30798,-0.159543 0.13176,0.06985 0.12541,0.265641 0.31935,0.125148 0.0564,-0.04048 0.10133,-0.04233 0.16536,-0.01032 0.0825,0.04127 0.19235,-0.04551 0.28469,-0.0254 0.058,0.01243 0.30904,0.31115 0.34476,0.154781 0.0439,-0.193146 -0.12251,-0.255587 -0.0124,-0.467783 0.078,-0.150813 0.21696,-0.332317 0.40084,-0.241565 0.0288,0.01429 0.14288,-0.04419 0.1704,-0.0508 0.0857,-0.02143 0.20611,-0.01244 0.29236,0.0016 0.19553,0.03228 0.4027,0.07858 0.38232,-0.217223 0.15134,0.01058 0.29343,0.110596 0.44397,0.04551 0.0738,-0.03201 0.1532,-0.07117 0.23416,-0.07964 0.0987,-0.01032 0.13996,0.06694 0.22066,0.06773 0.063,7.94e-4 0.0974,-0.05768 0.15796,-0.05609 0.0958,0.0029 0.21643,0.122502 0.25903,0.20029 0.0828,0.152664 0.27622,0.234421 0.33972,0.377031 -0.0622,0.03863 -0.1942,0.03413 -0.24209,0.08546 -0.0275,0.03016 0.25902,0.319617 0.13361,0.3937 0.10478,0.03466 0.43709,0.10795 0.54187,0.0762 0.16933,-0.05106 0.20902,0.142346 0.36645,0.13388 -0.0593,0.11086 0.0812,0.188912 0.11271,0.280987 0.0423,0.124354 -0.0122,0.228336 0.10821,0.332317 0.12198,0.105569 0.22596,-0.01111 0.3519,-0.02275 0.1479,-0.01349 0.22807,0.147902 0.37782,0.134408 0.12039,-0.01085 0.0868,0.102394 0.23469,0.01323 0.12171,-0.07355 0.26776,-0.05106 0.39661,-0.122237 0.12726,-0.07038 0.22146,0.09049 0.28099,0.177006 0.0944,0.137054 0.29739,0.169862 0.36301,0.324644 0.19605,-0.112713 0.10689,-0.19103 0.34475,-0.06641 0.12303,0.06429 0.45323,0.202936 0.55536,0.08334 0.0881,0.175683 0.2278,0.07064 0.32782,0.189177 0.0492,0.05874 0.13017,0.103452 0.20505,0.117475 0.0939,0.01746 0.17436,-0.06958 0.25744,-0.02937 -0.11721,0.112184 0.12488,0.341842 -0.0759,0.502444 -0.0574,0.04604 -0.18706,0.02434 -0.13414,0.13626 0.0691,0.14605 0.20981,-0.01984 0.22648,0.151342 -0.10027,-0.0299 -0.27278,0.06456 -0.21669,0.1905 0.0193,0.04313 0.3392,0.151871 0.17462,0.271727 0.0349,0.02831 0.0741,0.03678 0.11774,0.02514 0.0111,0.05424 -0.0733,0.32385 -0.1016,0.378354 -0.0847,0.164571 -0.32464,0.03651 -0.47863,0.0672 -0.09,0.01799 -0.16642,-0.03836 -0.25506,0.0058 -0.0881,0.04418 -0.0918,0.153723 -0.20029,0.192881 -0.0624,0.02249 -0.17065,0.03678 -0.18864,0.118004 -0.0243,0.112713 -0.0601,0.208227 0.0471,0.229659 -0.064,0.05636 0.002,0.149754 -0.0765,0.194733 -0.095,0.05503 -0.33682,-0.0013 -0.45138,0.01958 -0.11298,0.0209 -0.12806,0.142346 -0.24527,0.151342 -0.13785,0.01058 -0.3011,0.08255 -0.33576,0.230981 -0.0635,-0.106098 -0.20981,-0.0979 -0.30427,-0.04392 -0.15954,0.09102 -0.27093,0.04577 -0.43947,0.09631 -0.28178,0.0844 -0.3265,0.480484 -0.61039,0.55245 0.0114,-0.04868 0.40904,-0.353483 0.0937,-0.395022 0.11007,0.159543 -0.10239,0.189706 -0.19738,0.253735 -0.13838,0.09313 0.0863,0.402431 0.14949,0.488156 0.11456,0.155311 0.56224,0.686329 0.67813,0.266436 0.091,0.105304 0.14869,0.07355 0.25267,0.01931 0.13838,-0.07197 0.30798,-0.0032 0.41963,0.08996 -0.13388,0.01773 -0.1315,0.08255 -0.12938,0.19341 0.002,0.135996 -0.12118,0.129646 -0.22569,0.141552 -0.11324,0.01297 -0.17542,0.0079 -0.2786,-0.04921 -0.0625,-0.0344 -0.1487,-0.08864 -0.22437,-0.05874 -0.0749,0.02963 -0.0344,0.10795 -0.0804,0.126471 -0.11192,0.04471 -0.17648,0.156104 -0.29554,0.173037 -0.1614,0.02276 -0.30375,0.0069 -0.42942,0.133086 -0.21537,0.217223 -0.61569,0.478102 -0.85011,0.08837 0.16881,0.03836 0.21114,-0.530225 -0.0489,-0.56859 -0.14367,-0.02117 -0.21907,-0.07303 -0.34052,-0.145785 -0.11377,-0.06747 -0.21854,-0.01958 -0.3384,-0.0344 -0.18203,-0.02302 0.22384,-0.293423 0.28681,-0.318559 0.12409,-0.04948 0.55298,-0.118533 0.59161,-0.268816 -0.10636,0.0032 -0.12383,-0.102923 -0.12621,-0.184944 -0.12329,0.06932 -0.0921,0.08652 -0.24976,0.0087 -0.12939,-0.06376 -0.30375,0.0045 -0.44636,0.0069 -0.15398,0.0026 -0.25056,0.01931 -0.39184,-0.05874 -0.12171,-0.0672 -0.25877,-0.176742 -0.40693,-0.13335 0.43841,-0.173038 -0.11166,-0.106892 -0.21855,-0.26035 0.27437,0.134673 0.64135,0.09657 0.87339,-0.07567 -0.15663,0.04445 -0.36883,0.121444 -0.50773,-0.0164 -0.10478,-0.103717 -0.0251,-0.280458 -0.13891,-0.386821 0.0889,0.116681 0.0606,0.227542 0.063,0.357452 0.002,0.09922 -0.22701,0.03625 -0.28125,0.07117 -0.0302,-0.05768 -0.0275,-0.113771 0.008,-0.16801 -0.0688,0.01429 -0.0812,0.105833 -0.11483,0.153723 -0.0476,0.0672 -0.186,0.0037 -0.25717,0.01588 -0.30401,0.05265 -0.25744,0.341841 -0.43498,0.528108 -0.0164,-0.08837 -0.18468,-0.354806 -0.30242,-0.269081 0.0434,0.12356 0.23522,0.134143 0.27146,0.258233 0.0431,0.146579 -0.36856,0.416983 -0.4736,0.473075 0.0952,-0.0635 0.21458,-0.130969 0.24395,-0.252148 -0.11113,0.0082 -0.31459,0.376767 -0.33735,0.11774 -0.0526,0.05794 -0.1262,0.245004 0.0418,0.16801 -0.0206,0.02725 -0.0397,0.0553 -0.0582,0.08414 0.11853,0.01693 0.18415,0.243416 0.0503,0.28575 0.0807,-0.316707 -0.33047,-0.190765 -0.49133,-0.144463 -0.20585,0.059 -0.30904,0.17489 -0.52626,0.05927 -0.0362,-0.01931 -0.26458,-0.208492 -0.0902,-0.209815 0.20875,-0.0019 0.12912,-0.143139 0.2278,-0.265906 0.10875,-0.135731 0.30877,-0.238125 0.28046,-0.439738 -0.0249,-0.176741 -0.10583,-0.239447 0.11272,-0.318822 0.018,0.0508 0.0376,0.101335 0.0585,0.151341 0.12568,-0.258762 0.50165,0.173567 0.6895,-0.02513 -0.0817,-0.02514 -0.11403,-0.08202 -0.19129,-0.114036 0.23098,-0.08202 -0.13414,-0.4318 -0.25003,-0.35507 -0.059,0.03889 -0.36592,-0.151607 -0.11113,-0.262203 0.0781,-0.0336 0.0722,-0.243152 -0.0897,-0.161925 -0.0466,0.02328 -0.10557,-0.231775 -0.12779,-0.265377 -0.0569,-0.08572 -0.10055,-0.174095 -0.13944,-0.27887 -0.0704,-0.189707 -0.16219,-0.03254 -0.26088,-0.173038 -0.0617,-0.08784 -0.25717,-0.216165 -0.29395,-0.04604 -0.0262,-0.150813 -0.12118,0.05503 -0.14949,-0.09049 -0.17092,0.0807 -0.35507,-0.193675 -0.49901,-0.252942 -0.18547,-0.0762 -0.38047,0.07488 -0.57917,0.05689 -0.0693,-0.0061 -0.1479,0.0024 -0.12409,0.09446 -0.0661,-0.01164 -0.15716,0.03149 -0.21643,0.05371 -0.0585,0.02196 -0.14049,0.04233 -0.16404,0.108744 -0.0545,0.153459 -0.13467,0.140494 -0.2921,0.154517 -0.19473,0.01746 -0.40613,-0.01984 -0.54901,0.141023 -0.21061,0.236802 -0.32517,-0.05345 -0.5252,-0.118004 -0.0955,-0.03096 -0.20399,0.0026 -0.29977,0.01402 -0.11906,0.01429 -0.18045,-0.02514 -0.29263,-0.04445 -0.11403,-0.01958 -0.22569,0.01931 -0.32782,-0.05212 -0.17013,-0.119063 -0.19314,0.03069 -0.34872,0.07038 -0.004,-0.180446 -0.17648,-0.109538 -0.2667,-0.208756 -0.0632,-0.07012 -0.0998,-0.03942 -0.16166,-0.0852 -0.0704,-0.05239 -0.0855,-0.129117 -0.186,-0.152136 z"
       id="ua" />
  </g>
</svg>
