<?xml version="1.0" encoding="UTF-8" standalone="no"?>
<!-- Created with Inkscape (http://www.inkscape.org/) -->

<svg
   xmlns:dc="http://purl.org/dc/elements/1.1/"
   xmlns:cc="http://creativecommons.org/ns#"
   xmlns:rdf="http://www.w3.org/1999/02/22-rdf-syntax-ns#"
   xmlns:svg="http://www.w3.org/2000/svg"
   xmlns="http://www.w3.org/2000/svg"
   xmlns:sodipodi="http://sodipodi.sourceforge.net/DTD/sodipodi-0.dtd"
   xmlns:inkscape="http://www.inkscape.org/namespaces/inkscape"
   width="7.084836mm"
   height="4.7328668mm"
   viewBox="0 0 7.084836 4.7328668"
   version="1.1"
   id="svg8"
   inkscape:version="0.92.4 (5da689c313, 2019-01-14)"
   sodipodi:docname="argentina.svg">
  <defs
     id="defs2" />
  <sodipodi:namedview
     id="base"
     pagecolor="#ffffff"
     bordercolor="#666666"
     borderopacity="1.0"
     inkscape:pageopacity="0.0"
     inkscape:pageshadow="2"
     inkscape:zoom="11.2"
     inkscape:cx="18.874584"
     inkscape:cy="6.5467255"
     inkscape:document-units="mm"
     inkscape:current-layer="layer1"
     showgrid="false"
     inkscape:window-width="954"
     inkscape:window-height="630"
     inkscape:window-x="-3"
     inkscape:window-y="6"
     inkscape:window-maximized="0" />
  <metadata
     id="metadata5">
    <rdf:RDF>
      <cc:Work
         rdf:about="">
        <dc:format>image/svg+xml</dc:format>
        <dc:type
           rdf:resource="http://purl.org/dc/dcmitype/StillImage" />
        <dc:title></dc:title>
      </cc:Work>
    </rdf:RDF>
  </metadata>
  <g
     inkscape:label="Layer 1"
     inkscape:groupmode="layer"
     id="layer1"
     transform="translate(-82.596665,-101.61076)">
    <g
       id="g1950"
       transform="matrix(0.35277777,0,0,-0.35277777,82.625946,106.31435)">
      <path
         d="M 0,0 H 19.917 L 19.916,13.251 H 0 Z M 19.959,-0.042 V 0 Z M -0.083,-0.083 V 13.333 H 20 V -0.042 -0.083 Z"
         style="fill:#221f21;fill-opacity:1;fill-rule:nonzero;stroke:none"
         id="path1952"
         inkscape:connector-curvature="0" />
    </g>
    <path
       d="m 82.611619,106.32916 h 7.05556 v -1.56774 h -7.05556 z"
       style="fill:#71a1d2;fill-opacity:1;fill-rule:nonzero;stroke:none;stroke-width:0.35277778"
       id="path1954"
       inkscape:connector-curvature="0" />
    <path
       d="m 82.611619,104.76142 h 7.05556 v -1.5681 h -7.05556 z"
       style="fill:#ffffff;fill-opacity:1;fill-rule:nonzero;stroke:none;stroke-width:0.35277778"
       id="path1956"
       inkscape:connector-curvature="0" />
    <path
       d="m 89.667179,101.62558 h -7.05556 v 1.56774 h 7.05556 z"
       style="fill:#71a1d2;fill-opacity:1;fill-rule:nonzero;stroke:none;stroke-width:0.35277778"
       id="path1958"
       inkscape:connector-curvature="0" />
    <g
       id="g1960"
       transform="matrix(0.35277777,0,0,-0.35277777,86.130997,103.27404)">
      <path
         d="m 0,0 0.05,-0.005 0.01,-0.083 c 0.014,-0.367 0.026,-0.736 0.042,-1.104 l 0.039,0.235 c 0.005,0.094 0.031,0.185 0.073,0.269 l 0.082,0.23 0.003,0.161 0.069,0.211 0.073,0.043 L 0.467,-0.072 0.416,-0.142 0.396,-0.25 0.41,-0.458 0.35,-0.694 0.299,-0.835 C 0.275,-0.957 0.287,-1.083 0.267,-1.206 0.424,-0.863 0.582,-0.52 0.739,-0.177 L 0.788,-0.14 0.803,-0.199 C 0.67,-0.562 0.533,-0.924 0.401,-1.288 0.49,-1.19 0.524,-1.056 0.607,-0.955 l 0.195,0.193 0.092,0.143 0.082,0.174 0.148,0.098 0.047,-0.036 -0.078,-0.052 -0.078,-0.16 C 0.988,-0.686 0.951,-0.776 0.889,-0.849 L 0.745,-0.996 C 0.659,-1.105 0.624,-1.244 0.548,-1.36 c 0.268,0.249 0.537,0.497 0.806,0.746 l 0.06,0.046 0.035,-0.035 -0.051,-0.064 C 1.147,-0.94 0.894,-1.211 0.643,-1.484 c 0.101,0.045 0.173,0.131 0.263,0.192 l 0.188,0.09 0.235,0.122 0.157,0.147 0.178,0.041 L 1.706,-0.933 1.656,-0.954 1.533,-1.01 1.403,-1.162 1.181,-1.302 1.039,-1.369 C 0.936,-1.437 0.854,-1.536 0.754,-1.607 c 0.353,0.129 0.709,0.262 1.063,0.394 L 1.877,-1.229 1.846,-1.275 C 1.495,-1.437 1.143,-1.597 0.791,-1.761 c 0.095,0.003 0.182,0.041 0.27,0.067 l 0.25,0.023 c 0.09,-0.007 0.185,-0.007 0.272,0.025 l 0.183,0.07 0.162,-0.01 L 1.984,-1.631 1.97,-1.668 1.881,-1.646 1.775,-1.671 1.575,-1.769 1.342,-1.798 1.181,-1.809 C 1.062,-1.837 0.953,-1.894 0.834,-1.919 1.009,-1.92 1.184,-1.931 1.357,-1.937 1.564,-1.943 1.771,-1.951 1.977,-1.959 L 2.027,-1.993 1.984,-2.027 C 1.598,-2.043 1.211,-2.054 0.823,-2.072 L 1.076,-2.112 1.328,-2.184 1.575,-2.269 1.809,-2.278 1.942,-2.349 1.974,-2.412 1.945,-2.437 1.863,-2.38 1.696,-2.374 C 1.6,-2.386 1.5,-2.385 1.408,-2.354 L 1.226,-2.279 C 1.091,-2.242 0.947,-2.259 0.81,-2.237 1.145,-2.388 1.479,-2.544 1.813,-2.696 L 1.877,-2.741 1.825,-2.775 C 1.459,-2.642 1.096,-2.504 0.73,-2.371 L 0.976,-2.52 1.16,-2.674 1.339,-2.833 1.487,-2.898 1.655,-3.047 1.664,-3.128 1.625,-3.133 1.57,-3.05 1.421,-2.984 C 1.33,-2.959 1.24,-2.921 1.168,-2.859 l -0.147,0.143 c -0.111,0.088 -0.251,0.123 -0.369,0.2 0.26,-0.276 0.516,-0.555 0.775,-0.832 L 1.44,-3.411 1.382,-3.4 c -0.244,0.227 -0.489,0.454 -0.734,0.681 l -0.116,0.106 c 0.043,-0.095 0.122,-0.166 0.183,-0.249 l 0.098,-0.197 0.11,-0.222 0.108,-0.11 0.097,-0.195 -0.023,-0.083 -0.039,0.009 -0.017,0.098 -0.113,0.117 -0.185,0.21 -0.084,0.196 C 0.598,-2.92 0.488,-2.834 0.409,-2.724 0.54,-3.078 0.672,-3.433 0.803,-3.786 L 0.787,-3.847 0.739,-3.81 c -0.145,0.317 -0.292,0.635 -0.437,0.953 l -0.045,0.094 c 0.002,-0.092 0.04,-0.179 0.065,-0.268 l 0.025,-0.24 0.012,-0.25 0.061,-0.15 0.011,-0.226 -0.053,-0.061 -0.028,0.026 0.021,0.098 -0.059,0.15 C 0.266,-3.601 0.229,-3.512 0.221,-3.417 L 0.218,-3.208 C 0.201,-3.067 0.125,-2.942 0.099,-2.804 0.088,-3.183 0.07,-3.56 0.059,-3.939 l -0.036,-0.059 -0.034,0.047 c -0.014,0.385 -0.028,0.77 -0.044,1.156 l -0.039,-0.236 c -0.007,-0.093 -0.031,-0.185 -0.073,-0.267 l -0.085,-0.246 -0.014,-0.251 -0.105,-0.144 -0.049,0.024 0.057,0.082 0.009,0.135 c -0.013,0.102 -0.018,0.208 0.012,0.306 l 0.083,0.21 c 0.033,0.132 0.017,0.27 0.038,0.403 -0.154,-0.344 -0.312,-0.684 -0.468,-1.026 l -0.051,-0.042 -0.017,0.06 c 0.134,0.362 0.271,0.724 0.403,1.087 -0.083,-0.089 -0.117,-0.208 -0.187,-0.305 l -0.128,-0.137 -0.169,-0.208 -0.089,-0.187 -0.142,-0.101 -0.058,0.028 0.047,0.036 0.09,0.109 c 0.029,0.093 0.053,0.19 0.106,0.272 l 0.143,0.156 c 0.117,0.112 0.152,0.277 0.24,0.41 -0.27,-0.248 -0.536,-0.498 -0.806,-0.747 l -0.06,-0.045 -0.035,0.034 0.042,0.058 c 0.217,0.234 0.436,0.47 0.653,0.705 l 0.109,0.12 c -0.105,-0.048 -0.179,-0.14 -0.276,-0.202 l -0.181,-0.085 -0.236,-0.127 -0.135,-0.129 -0.159,-0.053 -0.068,0.022 0.009,0.039 0.099,0.018 0.1,0.091 0.172,0.173 0.19,0.089 c 0.151,0.059 0.246,0.196 0.375,0.286 -0.336,-0.122 -0.672,-0.249 -1.009,-0.373 l -0.085,-0.025 -0.028,0.038 0.037,0.032 c 0.349,0.159 0.697,0.32 1.048,0.48 -0.116,0 -0.221,-0.06 -0.333,-0.079 -0.136,-0.03 -0.276,0.015 -0.41,-0.019 l -0.221,-0.082 -0.203,0.023 -0.023,0.059 0.049,-0.002 0.123,-0.002 0.144,0.073 0.235,0.069 h 0.185 c 0.143,0.015 0.27,0.091 0.412,0.119 -0.373,0.01 -0.746,0.028 -1.119,0.04 l -0.064,0.012 v 0.047 l 0.038,0.011 c 0.385,0.015 0.77,0.028 1.153,0.043 -0.116,0.047 -0.244,0.027 -0.364,0.061 -0.101,0.023 -0.187,0.084 -0.286,0.115 l -0.164,0.025 -0.178,0.009 -0.149,0.101 0.022,0.055 0.07,-0.051 0.107,-0.02 0.216,0.014 0.23,-0.061 0.148,-0.052 c 0.12,-0.02 0.244,-0.009 0.365,-0.03 -0.342,0.155 -0.683,0.313 -1.025,0.469 l -0.043,0.035 0.028,0.038 0.085,-0.025 c 0.346,-0.128 0.689,-0.257 1.033,-0.382 -0.09,0.084 -0.216,0.117 -0.314,0.194 l -0.127,0.12 -0.197,0.165 -0.202,0.095 -0.099,0.148 0.037,0.047 0.051,-0.078 0.16,-0.078 c 0.091,-0.025 0.182,-0.063 0.254,-0.125 l 0.146,-0.144 c 0.112,-0.087 0.251,-0.123 0.37,-0.2 -0.258,0.274 -0.511,0.55 -0.768,0.825 l -0.03,0.051 0.043,0.025 0.062,-0.051 c 0.271,-0.251 0.54,-0.503 0.813,-0.752 -0.048,0.104 -0.14,0.181 -0.202,0.276 l -0.084,0.181 -0.127,0.236 -0.137,0.145 -0.045,0.173 0.043,0.051 0.02,-0.049 0.062,-0.128 0.2,-0.187 0.102,-0.201 c 0.055,-0.157 0.198,-0.256 0.292,-0.387 -0.131,0.352 -0.262,0.704 -0.393,1.057 l -0.007,0.046 0.044,0.015 0.039,-0.065 c 0.157,-0.338 0.311,-0.675 0.467,-1.013 0,0.118 -0.063,0.224 -0.081,0.339 -0.025,0.133 0.015,0.267 -0.017,0.398 l -0.08,0.216 0.024,0.216 0.062,0.007 -0.02,-0.089 0.024,-0.104 0.1,-0.207 0.026,-0.228 0.015,-0.178 c 0.029,-0.111 0.084,-0.216 0.105,-0.33 0.011,0.377 0.029,0.752 0.041,1.127 z"
         style="fill:#733123;fill-opacity:1;fill-rule:nonzero;stroke:none"
         id="path1962"
         inkscape:connector-curvature="0" />
    </g>
    <g
       id="g1964"
       transform="matrix(0.35277777,0,0,-0.35277777,86.133757,103.28765)">
      <path
         d="M 0,0 0.021,0.031 0.031,0 C 0.045,-0.385 0.06,-0.769 0.074,-1.153 L 0.035,-1.149 C 0.029,-0.976 0.023,-0.803 0.016,-0.629 0.008,-0.803 0.002,-0.976 -0.004,-1.15 L -0.043,-1.153 C -0.029,-0.769 -0.014,-0.385 0,0"
         style="fill:#f0ab40;fill-opacity:1;fill-rule:nonzero;stroke:none"
         id="path1966"
         inkscape:connector-curvature="0" />
    </g>
    <g
       id="g1968"
       transform="matrix(0.35277777,0,0,-0.35277777,86.006966,103.29781)">
      <path
         d="m 0,0 0.031,0.021 -0.022,-0.114 0.055,-0.141 0.093,-0.252 0.002,-0.21 c 0.014,-0.15 0.096,-0.283 0.124,-0.429 L 0.24,-1.133 C 0.218,-1.002 0.146,-0.885 0.123,-0.754 L 0.114,-0.622 0.116,-0.801 C 0.145,-0.914 0.191,-1.024 0.198,-1.143 L 0.161,-1.15 c -0.007,0.123 -0.069,0.234 -0.087,0.356 l -0.002,0.187 -0.033,0.266 -0.065,0.174 z"
         style="fill:#f0ab40;fill-opacity:1;fill-rule:nonzero;stroke:none"
         id="path1970"
         inkscape:connector-curvature="0" />
    </g>
    <g
       id="g1972"
       transform="matrix(0.35277777,0,0,-0.35277777,86.277757,103.29852)">
      <path
         d="M 0,0 0.035,0.007 -0.029,-0.092 -0.03,-0.261 -0.047,-0.525 -0.123,-0.713 c -0.042,-0.142 -0.02,-0.293 -0.049,-0.438 l -0.041,0.012 c 0.028,0.125 0.01,0.254 0.033,0.38 l 0.045,0.134 -0.067,-0.165 c -0.017,-0.113 -0.016,-0.23 -0.054,-0.338 l -0.037,0.003 c 0.031,0.091 0.029,0.19 0.041,0.286 l 0.069,0.217 c 0.04,0.081 0.077,0.167 0.084,0.258 l 0.011,0.225 z"
         style="fill:#f0ab40;fill-opacity:1;fill-rule:nonzero;stroke:none"
         id="path1974"
         inkscape:connector-curvature="0" />
    </g>
    <g
       id="g1976"
       transform="matrix(0.35277777,0,0,-0.35277777,85.869526,103.3302)">
      <path
         d="M 0,0 0.032,-0.025 C 0.192,-0.374 0.353,-0.723 0.511,-1.07 L 0.476,-1.083 c -0.07,0.151 -0.141,0.304 -0.209,0.456 L 0.301,-0.729 C 0.348,-0.853 0.392,-0.975 0.439,-1.098 L 0.403,-1.115 c -0.132,0.359 -0.266,0.719 -0.4,1.079 z"
         style="fill:#f0ab40;fill-opacity:1;fill-rule:nonzero;stroke:none"
         id="path1978"
         inkscape:connector-curvature="0" />
    </g>
    <g
       id="g1980"
       transform="matrix(0.35277777,0,0,-0.35277777,86.403166,103.33055)">
      <path
         d="m 0,0 0.016,-0.031 c -0.135,-0.361 -0.269,-0.722 -0.403,-1.082 l -0.035,0.014 c 0.043,0.122 0.092,0.244 0.135,0.365 l 0.037,0.108 c -0.07,-0.152 -0.139,-0.305 -0.209,-0.457 l -0.036,0.014 c 0.142,0.311 0.286,0.623 0.429,0.934 z"
         style="fill:#f0ab40;fill-opacity:1;fill-rule:nonzero;stroke:none"
         id="path1982"
         inkscape:connector-curvature="0" />
    </g>
    <g
       id="g1984"
       transform="matrix(0.35277777,0,0,-0.35277777,85.757546,103.3991)">
      <path
         d="M 0,0 0.02,0.029 0.047,-0.093 0.138,-0.187 0.335,-0.401 0.413,-0.586 C 0.482,-0.72 0.611,-0.81 0.689,-0.937 L 0.654,-0.958 c -0.07,0.11 -0.177,0.19 -0.249,0.299 l -0.061,0.13 0.094,-0.202 C 0.502,-0.812 0.571,-0.889 0.618,-0.98 L 0.587,-1.004 C 0.535,-0.893 0.434,-0.815 0.371,-0.709 L 0.304,-0.553 0.17,-0.309 0.037,-0.167 Z"
         style="fill:#f0ab40;fill-opacity:1;fill-rule:nonzero;stroke:none"
         id="path1986"
         inkscape:connector-curvature="0" />
    </g>
    <g
       id="g1988"
       transform="matrix(0.35277777,0,0,-0.35277777,86.478946,103.43769)">
      <path
         d="M 0,0 0.131,0.097 0.172,0.093 0.081,0.031 0.01,-0.125 -0.106,-0.368 -0.254,-0.519 c -0.091,-0.113 -0.127,-0.26 -0.209,-0.38 l -0.033,0.024 c 0.065,0.097 0.1,0.21 0.158,0.313 l 0.113,0.134 -0.143,-0.153 C -0.419,-0.672 -0.463,-0.77 -0.535,-0.849 l -0.03,0.019 c 0.086,0.099 0.121,0.23 0.204,0.331 l 0.134,0.131 0.145,0.192 z"
         style="fill:#f0ab40;fill-opacity:1;fill-rule:nonzero;stroke:none"
         id="path1990"
         inkscape:connector-curvature="0" />
    </g>
    <g
       id="g1992"
       transform="matrix(0.35277777,0,0,-0.35277777,85.642825,103.48662)">
      <path
         d="M 0,0 0.034,0.003 C 0.317,-0.259 0.599,-0.52 0.88,-0.781 L 0.854,-0.809 c -0.125,0.115 -0.246,0.23 -0.372,0.342 0.113,-0.125 0.229,-0.245 0.342,-0.37 L 0.798,-0.865 c -0.25,0.27 -0.5,0.54 -0.75,0.808 z"
         style="fill:#f0ab40;fill-opacity:1;fill-rule:nonzero;stroke:none"
         id="path1994"
         inkscape:connector-curvature="0" />
    </g>
    <g
       id="g1996"
       transform="matrix(0.35277777,0,0,-0.35277777,86.623657,103.48556)">
      <path
         d="M 0,0 0.032,0.013 0.016,-0.026 c -0.26,-0.28 -0.52,-0.561 -0.781,-0.842 l -0.026,0.029 c 0.114,0.124 0.231,0.244 0.343,0.371 -0.126,-0.114 -0.246,-0.229 -0.37,-0.344 l -0.03,0.027 C -0.565,-0.523 -0.283,-0.262 0,0"
         style="fill:#f0ab40;fill-opacity:1;fill-rule:nonzero;stroke:none"
         id="path1998"
         inkscape:connector-curvature="0" />
    </g>
    <g
       id="g2000"
       transform="matrix(0.35277777,0,0,-0.35277777,85.566697,103.57704)">
      <path
         d="M 0,0 0.065,-0.094 0.217,-0.16 0.461,-0.278 0.611,-0.425 C 0.726,-0.516 0.873,-0.552 0.992,-0.634 L 0.969,-0.668 c -0.096,0.065 -0.207,0.1 -0.308,0.156 L 0.521,-0.395 0.695,-0.551 0.942,-0.706 0.924,-0.738 C 0.828,-0.652 0.701,-0.619 0.602,-0.54 l -0.133,0.133 -0.199,0.154 -0.177,0.081 -0.097,0.131 z"
         style="fill:#f0ab40;fill-opacity:1;fill-rule:nonzero;stroke:none"
         id="path2002"
         inkscape:connector-curvature="0" />
    </g>
    <g
       id="g2004"
       transform="matrix(0.35277777,0,0,-0.35277777,86.658796,103.60893)">
      <path
         d="m 0,0 0.168,0.038 0.027,-0.02 -0.117,-0.024 -0.081,-0.072 -0.149,-0.164 -0.19,-0.101 -0.227,-0.14 -0.201,-0.169 -0.021,0.035 c 0.097,0.063 0.171,0.151 0.26,0.223 l 0.169,0.088 -0.167,-0.067 C -0.623,-0.442 -0.708,-0.526 -0.814,-0.58 l -0.025,0.03 c 0.11,0.052 0.187,0.151 0.291,0.213 l 0.161,0.071 0.244,0.133 z"
         style="fill:#f0ab40;fill-opacity:1;fill-rule:nonzero;stroke:none"
         id="path2006"
         inkscape:connector-curvature="0" />
    </g>
    <g
       id="g2008"
       transform="matrix(0.35277777,0,0,-0.35277777,86.120665,103.6985)">
      <path
         d="M 0,0 C 0.161,0.011 0.326,-0.028 0.464,-0.113 0.635,-0.217 0.764,-0.388 0.816,-0.58 0.869,-0.774 0.847,-0.988 0.75,-1.166 0.666,-1.321 0.53,-1.446 0.368,-1.517 c -0.194,-0.086 -0.424,-0.087 -0.62,-0.004 -0.166,0.069 -0.308,0.197 -0.393,0.355 -0.093,0.172 -0.118,0.379 -0.071,0.568 0.046,0.186 0.161,0.351 0.319,0.459 C -0.281,-0.058 -0.143,-0.009 0,0"
         style="fill:#f0ab40;fill-opacity:1;fill-rule:nonzero;stroke:none"
         id="path2010"
         inkscape:connector-curvature="0" />
    </g>
    <g
       id="g2012"
       transform="matrix(0.35277777,0,0,-0.35277777,85.491907,103.70746)">
      <path
         d="m 0,0 0.062,-0.013 c 0.351,-0.131 0.703,-0.26 1.054,-0.391 L 1.099,-0.439 C 0.957,-0.384 0.814,-0.333 0.673,-0.28 L 0.628,-0.267 C 0.78,-0.336 0.932,-0.406 1.084,-0.476 L 1.071,-0.512 c -0.348,0.159 -0.697,0.32 -1.045,0.479 z"
         style="fill:#f0ab40;fill-opacity:1;fill-rule:nonzero;stroke:none"
         id="path2014"
         inkscape:connector-curvature="0" />
    </g>
    <g
       id="g2016"
       transform="matrix(0.35277777,0,0,-0.35277777,86.772456,103.70915)">
      <path
         d="M 0,0 0.039,0.005 0.009,-0.03 c -0.348,-0.158 -0.694,-0.318 -1.04,-0.477 l -0.013,0.036 c 0.151,0.07 0.304,0.14 0.456,0.207 L -0.69,-0.296 c -0.122,-0.047 -0.247,-0.091 -0.369,-0.139 l -0.017,0.036 C -0.718,-0.266 -0.358,-0.133 0,0"
         style="fill:#f0ab40;fill-opacity:1;fill-rule:nonzero;stroke:none"
         id="path2018"
         inkscape:connector-curvature="0" />
    </g>
    <g
       id="g2020"
       transform="matrix(0.35277777,0,0,-0.35277777,85.457826,103.82596)">
      <path
         d="m 0,0 0.1,-0.066 h 0.16 c 0.091,0.01 0.185,0.01 0.273,-0.017 L 0.721,-0.16 C 0.863,-0.201 1.014,-0.178 1.158,-0.208 L 1.146,-0.25 C 1.021,-0.221 0.889,-0.24 0.762,-0.215 L 0.633,-0.171 0.812,-0.24 c 0.11,-0.014 0.221,-0.017 0.326,-0.051 L 1.134,-0.329 C 1.01,-0.287 0.874,-0.306 0.75,-0.267 0.659,-0.242 0.579,-0.187 0.489,-0.16 l -0.221,0.026 -0.226,0.058 z"
         style="fill:#f0ab40;fill-opacity:1;fill-rule:nonzero;stroke:none"
         id="path2022"
         inkscape:connector-curvature="0" />
    </g>
    <g
       id="g2024"
       transform="matrix(0.35277777,0,0,-0.35277777,86.694597,103.86007)">
      <path
         d="M 0,0 0.186,0.069 0.352,0.042 0.373,0.011 0.252,0.033 0.127,-0.018 -0.102,-0.109 -0.304,-0.115 c -0.167,0 -0.311,-0.094 -0.47,-0.126 l -0.007,0.043 c 0.132,0.022 0.248,0.094 0.379,0.117 l 0.131,0.01 -0.177,-0.002 c -0.114,-0.029 -0.224,-0.076 -0.343,-0.082 l -0.008,0.037 c 0.096,0.006 0.185,0.044 0.277,0.069 l 0.235,0.021 C -0.191,-0.036 -0.092,-0.034 0,0"
         style="fill:#f0ab40;fill-opacity:1;fill-rule:nonzero;stroke:none"
         id="path2026"
         inkscape:connector-curvature="0" />
    </g>
    <g
       id="g2028"
       transform="matrix(0.35277777,0,0,-0.35277777,85.461255,103.97134)">
      <path
         d="M 0,0 C 0.373,0.014 0.746,0.028 1.119,0.042 L 1.117,0.002 C 0.946,-0.003 0.774,-0.008 0.604,-0.017 0.774,-0.025 0.946,-0.031 1.116,-0.036 l 0.003,-0.039 c -0.383,0.013 -0.767,0.029 -1.151,0.043 l -0.031,0.022 z"
         style="fill:#f0ab40;fill-opacity:1;fill-rule:nonzero;stroke:none"
         id="path2030"
         inkscape:connector-curvature="0" />
    </g>
    <g
       id="g2032"
       transform="matrix(0.35277777,0,0,-0.35277777,86.422425,103.9567)">
      <path
         d="m 0,0 c 0.369,-0.014 0.74,-0.027 1.11,-0.042 l 0.062,-0.004 0.01,-0.018 -0.031,-0.01 C 0.768,-0.088 0.383,-0.103 0,-0.117 l 0.003,0.039 c 0.167,0.006 0.336,0.011 0.505,0.02 -0.168,0.009 -0.338,0.014 -0.505,0.019 z"
         style="fill:#f0ab40;fill-opacity:1;fill-rule:nonzero;stroke:none"
         id="path2034"
         inkscape:connector-curvature="0" />
    </g>
    <g
       id="g2036"
       transform="matrix(0.35277777,0,0,-0.35277777,85.691056,104.05385)">
      <path
         d="M 0,0 C 0.167,0 0.312,0.094 0.472,0.125 L 0.477,0.083 C 0.34,0.06 0.22,-0.017 0.084,-0.037 l -0.112,-0.007 0.179,0.003 C 0.263,-0.011 0.37,0.034 0.486,0.04 L 0.495,0.003 C 0.372,-0.004 0.261,-0.067 0.139,-0.083 l -0.18,-0.003 c -0.092,0.006 -0.187,0.002 -0.272,-0.033 l -0.185,-0.066 -0.163,0.031 -0.017,0.028 0.122,-0.022 0.129,0.052 0.227,0.09 z"
         style="fill:#f0ab40;fill-opacity:1;fill-rule:nonzero;stroke:none"
         id="path2038"
         inkscape:connector-curvature="0" />
    </g>
    <g
       id="g2040"
       transform="matrix(0.35277777,0,0,-0.35277777,86.419007,104.02577)">
      <path
         d="M 0,0 0.006,0.039 C 0.107,0.002 0.219,0.01 0.324,-0.009 L 0.51,-0.072 c 0.083,-0.042 0.171,-0.079 0.263,-0.085 l 0.219,-0.01 0.139,-0.087 0.008,-0.037 -0.093,0.063 -0.109,0.01 -0.236,-0.01 -0.197,0.061 -0.219,0.059 C 0.184,-0.101 0.08,-0.104 -0.02,-0.083 l 0.012,0.041 C 0.106,-0.068 0.226,-0.056 0.342,-0.07 L 0.505,-0.121 0.336,-0.053 C 0.225,-0.037 0.109,-0.037 0,0"
         style="fill:#f0ab40;fill-opacity:1;fill-rule:nonzero;stroke:none"
         id="path2042"
         inkscape:connector-curvature="0" />
    </g>
    <g
       id="g2044"
       transform="matrix(0.35277777,0,0,-0.35277777,85.829907,104.08486)">
      <path
         d="M 0,0 0.109,0.052 0.127,0.016 c -0.152,-0.069 -0.305,-0.14 -0.457,-0.207 l 0.107,0.034 c 0.122,0.045 0.244,0.093 0.366,0.135 l 0.014,-0.034 c -0.35,-0.131 -0.702,-0.26 -1.053,-0.391 l -0.062,-0.012 0.026,0.031 C -0.621,-0.285 -0.311,-0.142 0,0"
         style="fill:#f0ab40;fill-opacity:1;fill-rule:nonzero;stroke:none"
         id="path2046"
         inkscape:connector-curvature="0" />
    </g>
    <g
       id="g2048"
       transform="matrix(0.35277777,0,0,-0.35277777,86.403836,104.07918)">
      <path
         d="m 0,0 0.017,0.036 c 0.348,-0.164 0.702,-0.322 1.051,-0.484 l 0.015,-0.027 -0.037,0.003 c -0.359,0.133 -0.718,0.266 -1.077,0.399 l 0.027,0.031 c 0.141,-0.052 0.28,-0.103 0.421,-0.156 l 0.04,-0.011 C 0.305,-0.141 0.152,-0.069 0,0"
         style="fill:#f0ab40;fill-opacity:1;fill-rule:nonzero;stroke:none"
         id="path2050"
         inkscape:connector-curvature="0" />
    </g>
    <g
       id="g2052"
       transform="matrix(0.35277777,0,0,-0.35277777,85.772016,104.21094)">
      <path
         d="M 0,0 C 0.127,0.07 0.215,0.193 0.338,0.271 L 0.359,0.235 C 0.249,0.165 0.17,0.057 0.062,-0.014 l -0.13,-0.061 0.184,0.079 C 0.202,0.072 0.284,0.148 0.383,0.199 L 0.406,0.168 C 0.295,0.115 0.217,0.014 0.11,-0.047 L -0.046,-0.116 -0.29,-0.25 -0.432,-0.381 -0.6,-0.42 l -0.027,0.02 0.123,0.028 0.093,0.091 0.213,0.196 z"
         style="fill:#f0ab40;fill-opacity:1;fill-rule:nonzero;stroke:none"
         id="path2054"
         inkscape:connector-curvature="0" />
    </g>
    <g
       id="g2056"
       transform="matrix(0.35277777,0,0,-0.35277777,86.379396,104.12963)">
      <path
         d="m 0,0 0.019,0.035 c 0.1,-0.086 0.233,-0.122 0.335,-0.208 L 0.521,-0.344 0.679,-0.452 0.851,-0.531 0.945,-0.662 0.941,-0.703 0.88,-0.612 0.767,-0.555 0.543,-0.467 0.401,-0.344 0.249,-0.223 C 0.15,-0.168 0.043,-0.131 -0.05,-0.068 l 0.024,0.033 c 0.097,-0.065 0.211,-0.1 0.314,-0.158 l 0.135,-0.115 -0.145,0.14 C 0.184,-0.117 0.084,-0.07 0,0"
         style="fill:#f0ab40;fill-opacity:1;fill-rule:nonzero;stroke:none"
         id="path2058"
         inkscape:connector-curvature="0" />
    </g>
    <g
       id="g2060"
       transform="matrix(0.35277777,0,0,-0.35277777,85.647657,104.46124)">
      <path
         d="M 0,0 C 0.262,0.282 0.523,0.563 0.785,0.846 L 0.81,0.817 C 0.724,0.723 0.637,0.63 0.549,0.536 L 0.489,0.467 0.558,0.528 c 0.093,0.086 0.187,0.174 0.281,0.26 L 0.867,0.764 C 0.599,0.513 0.328,0.263 0.059,0.013 L 0.003,-0.035 Z"
         style="fill:#f0ab40;fill-opacity:1;fill-rule:nonzero;stroke:none"
         id="path2062"
         inkscape:connector-curvature="0" />
    </g>
    <g
       id="g2064"
       transform="matrix(0.35277777,0,0,-0.35277777,86.344577,104.17253)">
      <path
         d="m 0,0 0.027,0.028 c 0.26,-0.281 0.52,-0.563 0.781,-0.842 l 0.016,-0.038 -0.039,0.015 c -0.28,0.261 -0.56,0.521 -0.842,0.782 l 0.03,0.026 c 0.096,-0.09 0.193,-0.179 0.289,-0.269 l 0.06,-0.053 C 0.219,-0.23 0.107,-0.119 0,0"
         style="fill:#f0ab40;fill-opacity:1;fill-rule:nonzero;stroke:none"
         id="path2066"
         inkscape:connector-curvature="0" />
    </g>
    <g
       id="g2068"
       transform="matrix(0.35277777,0,0,-0.35277777,85.889137,104.3341)">
      <path
         d="M 0,0 C 0.09,0.114 0.126,0.261 0.209,0.381 L 0.242,0.356 C 0.177,0.26 0.142,0.146 0.083,0.044 L -0.03,-0.09 0.099,0.037 c 0.058,0.1 0.102,0.208 0.181,0.294 L 0.312,0.312 C 0.225,0.211 0.189,0.078 0.104,-0.022 l -0.17,-0.168 -0.109,-0.158 -0.078,-0.172 -0.132,-0.095 -0.041,0.004 0.09,0.062 0.071,0.156 0.121,0.247 z"
         style="fill:#f0ab40;fill-opacity:1;fill-rule:nonzero;stroke:none"
         id="path2070"
         inkscape:connector-curvature="0" />
    </g>
    <g
       id="g2072"
       transform="matrix(0.35277777,0,0,-0.35277777,86.302905,104.20957)">
      <path
         d="M 0,0 0.03,0.024 0.204,-0.21 0.306,-0.404 0.418,-0.638 0.526,-0.747 0.621,-0.924 0.599,-1.009 0.568,-0.882 0.458,-0.776 0.28,-0.575 0.202,-0.388 c -0.07,0.131 -0.195,0.22 -0.274,0.344 l 0.035,0.021 c 0.064,-0.099 0.154,-0.174 0.226,-0.265 l 0.085,-0.164 c -0.006,0.108 -0.084,0.191 -0.148,0.27 z"
         style="fill:#f0ab40;fill-opacity:1;fill-rule:nonzero;stroke:none"
         id="path2074"
         inkscape:connector-curvature="0" />
    </g>
    <g
       id="g2076"
       transform="matrix(0.35277777,0,0,-0.35277777,85.955285,104.38321)">
      <path
         d="M 0,0 C 0.055,0.144 0.105,0.291 0.163,0.433 L 0.195,0.414 C 0.141,0.273 0.09,0.13 0.037,-0.011 L 0.024,-0.056 C 0.092,0.097 0.163,0.248 0.232,0.4 L 0.268,0.387 C 0.109,0.039 -0.051,-0.31 -0.211,-0.658 l -0.032,-0.026 0.004,0.039 C -0.16,-0.43 -0.08,-0.215 0,0"
         style="fill:#f0ab40;fill-opacity:1;fill-rule:nonzero;stroke:none"
         id="path2078"
         inkscape:connector-curvature="0" />
    </g>
    <g
       id="g2080"
       transform="matrix(0.35277777,0,0,-0.35277777,86.254336,104.23592)">
      <path
         d="m 0,0 0.035,0.014 c 0.13,-0.351 0.26,-0.701 0.391,-1.052 l 0.012,-0.063 -0.032,0.025 c -0.147,0.322 -0.295,0.643 -0.442,0.965 l -0.034,0.08 0.033,0.014 c 0.069,-0.152 0.141,-0.305 0.209,-0.458 l -0.037,0.11 C 0.09,-0.244 0.043,-0.122 0,0"
         style="fill:#f0ab40;fill-opacity:1;fill-rule:nonzero;stroke:none"
         id="path2082"
         inkscape:connector-curvature="0" />
    </g>
    <g
       id="g2084"
       transform="matrix(0.35277777,0,0,-0.35277777,86.061396,104.25021)">
      <path
         d="M 0,0 0.041,-0.011 C 0.016,-0.125 0.027,-0.244 0.013,-0.359 l -0.05,-0.165 0.065,0.155 c 0.018,0.118 0.017,0.237 0.055,0.349 L 0.121,-0.024 C 0.08,-0.148 0.098,-0.284 0.059,-0.409 0.033,-0.5 -0.021,-0.578 -0.049,-0.668 l -0.025,-0.223 -0.056,-0.22 -0.078,-0.047 0.062,0.093 0.011,0.103 -0.011,0.233 0.06,0.201 0.06,0.21 C -0.017,-0.212 -0.021,-0.105 0,0"
         style="fill:#f0ab40;fill-opacity:1;fill-rule:nonzero;stroke:none"
         id="path2086"
         inkscape:connector-curvature="0" />
    </g>
    <g
       id="g2088"
       transform="matrix(0.35277777,0,0,-0.35277777,86.201625,104.25504)">
      <path
         d="M 0,0 0.036,0.013 C 0.044,-0.082 0.079,-0.168 0.104,-0.258 L 0.127,-0.5 C 0.121,-0.59 0.122,-0.684 0.15,-0.773 L 0.226,-0.982 0.194,-1.144 0.166,-1.161 0.182,-1.005 0.101,-0.842 0.038,-0.627 0.037,-0.432 c -0.016,0.147 -0.094,0.276 -0.122,0.419 l 0.043,0.007 c 0.021,-0.131 0.094,-0.248 0.117,-0.379 L 0.083,-0.517 0.08,-0.332 C 0.052,-0.221 0.008,-0.114 0,0"
         style="fill:#f0ab40;fill-opacity:1;fill-rule:nonzero;stroke:none"
         id="path2090"
         inkscape:connector-curvature="0" />
    </g>
    <g
       id="g2092"
       transform="matrix(0.35277777,0,0,-0.35277777,86.118586,104.26037)">
      <path
         d="m 0,0 0.039,-0.002 c 0.006,-0.174 0.012,-0.348 0.02,-0.52 0.007,0.172 0.013,0.346 0.019,0.519 L 0.117,0 C 0.104,-0.373 0.089,-0.746 0.075,-1.119 L 0.066,-1.183 H 0.052 L 0.041,-1.119 C 0.028,-0.746 0.014,-0.373 0,0"
         style="fill:#f0ab40;fill-opacity:1;fill-rule:nonzero;stroke:none"
         id="path2094"
         inkscape:connector-curvature="0" />
    </g>
    <g
       id="g2096"
       transform="matrix(0.35277777,0,0,-0.35277777,86.177146,103.92276)">
      <path
         d="M 0,0 H -0.002 Z M 0.314,0.071 0.167,0.104 0.047,0.051 -0.027,0.009 0,0 0.059,0.039 0.114,0.073 0.213,0.083 0.398,-0.007 Z M 0.073,-0.522 -0.026,-0.569 -0.107,-0.595 v 0.001 -0.001 0.001 -0.001 l -0.082,0.026 -0.1,0.047 0.104,-0.075 0.066,-0.021 -0.072,-0.035 -0.036,-0.072 0.057,0.061 0.063,0.018 0.062,-0.018 0.057,-0.061 -0.036,0.072 -0.073,0.035 0.066,0.021 z m 0.094,0.433 -0.169,0.062 c 0,0 0.125,-0.169 0.338,-0.029 z m -0.192,-0.335 -0.082,-0.008 -0.083,0.008 -0.109,-0.082 0.103,0.056 0.089,-0.008 0.087,0.008 0.104,-0.056 z m 0.246,0.368 0.009,0.1 h 0.001 l 0.072,-0.051 z m -0.162,0.038 0.067,0.056 0.01,-0.095 z M 0.23,0.058 0.092,0.041 0.033,-0.019 0.105,-0.055 0.191,-0.065 0.346,-0.018 Z M 0.002,-0.239 c 0,0 -0.097,0.135 -0.064,0.262 0.031,0.129 0.13,0.146 0.176,0.154 0.044,0.007 0.213,-0.023 0.31,-0.099 L 0.273,0.197 0.139,0.215 -0.045,0.138 C -0.114,0.076 -0.093,-0.15 -0.031,-0.246 Z M -0.329,0.073 -0.272,0.039 -0.215,0 -0.188,0.009 -0.263,0.051 -0.382,0.104 -0.53,0.071 l -0.083,-0.078 0.185,0.09 z m 0.144,-0.366 C -0.201,-0.301 -0.27,-0.372 -0.269,-0.25 l -0.012,-0.086 0.032,-0.021 0.075,0.01 0.067,-0.008 0.066,0.008 0.074,-0.01 0.033,0.021 -0.013,0.086 c 0,-0.122 -0.067,-0.051 -0.084,-0.043 l -0.076,-0.042 z m 0.078,-0.208 v 0 l -0.159,-0.01 0.159,-0.017 0.157,0.017 z m -0.222,0.678 c 0.045,-0.008 0.144,-0.025 0.177,-0.154 0.031,-0.127 -0.065,-0.262 -0.065,-0.262 l 0.032,-0.007 c 0.062,0.096 0.084,0.322 0.015,0.384 L -0.354,0.215 -0.488,0.197 -0.639,0.078 c 0.096,0.076 0.264,0.106 0.31,0.099 M -0.213,0 h -0.002 z m -0.305,-0.007 0.072,0.051 h 0.001 l 0.008,-0.1 z m 0.176,0.045 0.067,-0.056 -0.077,-0.039 z m 0.022,-0.093 0.072,0.036 -0.059,0.06 -0.138,0.017 -0.117,-0.076 0.156,-0.047 z m 0.107,0.028 -0.169,-0.062 -0.169,0.033 c 0.213,-0.14 0.338,0.029 0.338,0.029"
         style="fill:#733123;fill-opacity:1;fill-rule:nonzero;stroke:none"
         id="path2098"
         inkscape:connector-curvature="0" />
    </g>
  </g>
</svg>
