<?xml version="1.0" encoding="UTF-8" standalone="no"?>
<!-- Created with Inkscape (http://www.inkscape.org/) -->

<svg
   xmlns:dc="http://purl.org/dc/elements/1.1/"
   xmlns:cc="http://creativecommons.org/ns#"
   xmlns:rdf="http://www.w3.org/1999/02/22-rdf-syntax-ns#"
   xmlns:svg="http://www.w3.org/2000/svg"
   xmlns="http://www.w3.org/2000/svg"
   xmlns:sodipodi="http://sodipodi.sourceforge.net/DTD/sodipodi-0.dtd"
   xmlns:inkscape="http://www.inkscape.org/namespaces/inkscape"
   width="7.084836mm"
   height="4.7328668mm"
   viewBox="0 0 7.084836 4.7328668"
   version="1.1"
   id="svg8"
   inkscape:version="0.92.4 (5da689c313, 2019-01-14)"
   sodipodi:docname="azerbaijan.svg">
  <defs
     id="defs2" />
  <sodipodi:namedview
     id="base"
     pagecolor="#ffffff"
     bordercolor="#666666"
     borderopacity="1.0"
     inkscape:pageopacity="0.0"
     inkscape:pageshadow="2"
     inkscape:zoom="11.2"
     inkscape:cx="28.704065"
     inkscape:cy="3.6202793"
     inkscape:document-units="mm"
     inkscape:current-layer="layer1"
     showgrid="false"
     inkscape:window-width="954"
     inkscape:window-height="630"
     inkscape:window-x="-3"
     inkscape:window-y="6"
     inkscape:window-maximized="0" />
  <metadata
     id="metadata5">
    <rdf:RDF>
      <cc:Work
         rdf:about="">
        <dc:format>image/svg+xml</dc:format>
        <dc:type
           rdf:resource="http://purl.org/dc/dcmitype/StillImage" />
        <dc:title></dc:title>
      </cc:Work>
    </rdf:RDF>
  </metadata>
  <g
     inkscape:label="Layer 1"
     inkscape:groupmode="layer"
     id="layer1"
     transform="translate(-78.703217,-95.555874)">
    <g
       id="g10400"
       transform="matrix(0.35277777,0,0,-0.35277777,78.732498,100.25946)">
      <path
         d="M 0,0 H 19.917 L 19.916,13.251 H 0 Z M 19.958,-0.042 V 0 Z M -0.083,-0.083 V 13.333 H 20 V -0.042 -0.083 Z"
         style="fill:#221f21;fill-opacity:1;fill-rule:nonzero;stroke:none"
         id="path10402"
         inkscape:connector-curvature="0" />
    </g>
    <path
       d="M 78.71775,100.27428 H 85.7733 V 98.706528 H 78.71775 Z"
       style="fill:#3faf68;fill-opacity:1;fill-rule:nonzero;stroke:none;stroke-width:0.35277778"
       id="path10404"
       inkscape:connector-curvature="0" />
    <path
       d="M 78.71775,98.706528 H 85.7733 V 97.138431 H 78.71775 Z"
       style="fill:#dd1c42;fill-opacity:1;fill-rule:nonzero;stroke:none;stroke-width:0.35277778"
       id="path10406"
       inkscape:connector-curvature="0" />
    <path
       d="m 85.7733,95.570687 h -7.05555 v 1.567744 h 7.05555 z"
       style="fill:#408cbe;fill-opacity:1;fill-rule:nonzero;stroke:none;stroke-width:0.35277778"
       id="path10408"
       inkscape:connector-curvature="0" />
    <g
       id="g10410"
       transform="matrix(0.35277777,0,0,-0.35277777,81.990857,97.266525)">
      <path
         d="M 0,0 C 0.56,0.087 1.133,-0.13 1.539,-0.509 1.2,-0.375 0.828,-0.231 0.459,-0.322 -0.229,-0.429 -0.795,-1.049 -0.835,-1.747 -0.912,-2.518 -0.309,-3.286 0.459,-3.4 0.831,-3.494 1.2,-3.346 1.539,-3.212 0.999,-3.732 0.134,-3.896 -0.55,-3.568 -1.345,-3.219 -1.812,-2.263 -1.59,-1.425 -1.419,-0.684 -0.762,-0.074 0,0"
         style="fill:#ffffff;fill-opacity:1;fill-rule:nonzero;stroke:none"
         id="path10412"
         inkscape:connector-curvature="0" />
    </g>
    <g
       id="g10414"
       transform="matrix(0.35277777,0,0,-0.35277777,82.738427,97.585718)">
      <path
         d="m 0,0 h 0.026 c 0.078,-0.148 0.121,-0.309 0.172,-0.466 0.178,0.063 0.348,0.144 0.523,0.215 C 0.647,-0.426 0.56,-0.594 0.499,-0.771 0.66,-0.822 0.821,-0.865 0.969,-0.943 V -0.97 C 0.821,-1.046 0.66,-1.09 0.503,-1.14 0.566,-1.318 0.647,-1.489 0.718,-1.664 0.543,-1.59 0.376,-1.503 0.198,-1.442 0.147,-1.603 0.104,-1.765 0.026,-1.912 H 0 c -0.077,0.147 -0.121,0.309 -0.171,0.467 -0.178,-0.064 -0.35,-0.145 -0.523,-0.215 0.074,0.174 0.161,0.342 0.221,0.52 -0.161,0.05 -0.322,0.094 -0.469,0.17 v 0.027 c 0.147,0.078 0.308,0.121 0.465,0.172 -0.063,0.177 -0.143,0.348 -0.213,0.523 0.173,-0.074 0.341,-0.162 0.519,-0.222 0.05,0.161 0.094,0.322 0.171,0.47"
         style="fill:#ffffff;fill-opacity:1;fill-rule:nonzero;stroke:none"
         id="path10416"
         inkscape:connector-curvature="0" />
    </g>
  </g>
</svg>
