<?xml version="1.0" encoding="UTF-8" standalone="no"?>
<!-- Created with Inkscape (http://www.inkscape.org/) -->

<svg
   xmlns:dc="http://purl.org/dc/elements/1.1/"
   xmlns:cc="http://creativecommons.org/ns#"
   xmlns:rdf="http://www.w3.org/1999/02/22-rdf-syntax-ns#"
   xmlns:svg="http://www.w3.org/2000/svg"
   xmlns="http://www.w3.org/2000/svg"
   xmlns:sodipodi="http://sodipodi.sourceforge.net/DTD/sodipodi-0.dtd"
   xmlns:inkscape="http://www.inkscape.org/namespaces/inkscape"
   width="7.084836mm"
   height="4.7328668mm"
   viewBox="0 0 7.084836 4.7328668"
   version="1.1"
   id="svg8"
   inkscape:version="0.92.4 (5da689c313, 2019-01-14)"
   sodipodi:docname="barbados.svg">
  <defs
     id="defs2" />
  <sodipodi:namedview
     id="base"
     pagecolor="#ffffff"
     bordercolor="#666666"
     borderopacity="1.0"
     inkscape:pageopacity="0.0"
     inkscape:pageshadow="2"
     inkscape:zoom="11.2"
     inkscape:cx="23.865874"
     inkscape:cy="1.4498485"
     inkscape:document-units="mm"
     inkscape:current-layer="layer1"
     showgrid="false"
     inkscape:window-width="954"
     inkscape:window-height="630"
     inkscape:window-x="-3"
     inkscape:window-y="6"
     inkscape:window-maximized="0" />
  <metadata
     id="metadata5">
    <rdf:RDF>
      <cc:Work
         rdf:about="">
        <dc:format>image/svg+xml</dc:format>
        <dc:type
           rdf:resource="http://purl.org/dc/dcmitype/StillImage" />
        <dc:title></dc:title>
      </cc:Work>
    </rdf:RDF>
  </metadata>
  <g
     inkscape:label="Layer 1"
     inkscape:groupmode="layer"
     id="layer1"
     transform="translate(-79.98332,-94.981615)">
    <g
       id="g25920"
       transform="matrix(0.35277777,0,0,-0.35277777,80.012601,99.685201)">
      <path
         d="M 0,0 H 19.917 V 13.25 H 0 Z M 19.958,-0.042 V 0 Z M -0.083,-0.083 V 13.333 H 20 V -0.042 -0.083 Z"
         style="fill:#221f21;fill-opacity:1;fill-rule:nonzero;stroke:none"
         id="path25922"
         inkscape:connector-curvature="0" />
    </g>
    <path
       d="m 79.997963,99.700159 h 2.35197 v -4.703586 h -2.35197 z"
       style="fill:#2f3872;fill-opacity:1;fill-rule:nonzero;stroke:none;stroke-width:0.35277778"
       id="path25924"
       inkscape:connector-curvature="0" />
    <path
       d="m 82.349583,99.700159 h 2.35197 v -4.703586 h -2.35197 z"
       style="fill:#f2b42c;fill-opacity:1;fill-rule:nonzero;stroke:none;stroke-width:0.35277778"
       id="path25926"
       inkscape:connector-curvature="0" />
    <path
       d="m 87.053173,94.99622 h -2.351969 v 4.703586 h 2.351969 z"
       style="fill:#2f3872;fill-opacity:1;fill-rule:nonzero;stroke:none;stroke-width:0.35277778"
       id="path25928"
       inkscape:connector-curvature="0" />
    <g
       id="g25930"
       transform="matrix(0.35277777,0,0,-0.35277777,83.410491,98.446528)">
      <path
         d="M 0,0 V 1.746 L -1.151,1.591 c 0,0 -0.509,2.693 -1.225,3.692 l 0.03,0.063 C -1.845,5.243 -1.321,5.001 -0.965,4.633 L -1.209,4.691 C -1.41,4.73 -0.667,2.249 -0.667,2.249 L 0,2.349 V 4.714 C -0.156,4.718 -0.4,4.677 -0.541,4.631 -0.09,5.08 0.327,6.226 0.327,6.226 c 0,0 0.416,-1.149 0.866,-1.599 C 1.053,4.675 0.809,4.716 0.652,4.711 V 2.345 L 1.319,2.247 c 0,0 0.741,2.491 0.543,2.443 L 1.618,4.631 c 0.356,0.368 0.88,0.609 1.38,0.712 L 3.029,5.279 C 2.318,4.276 1.804,1.589 1.804,1.589 L 0.652,1.742 V 0 Z"
         style="fill:#0e0f0e;fill-opacity:1;fill-rule:nonzero;stroke:none"
         id="path25932"
         inkscape:connector-curvature="0" />
    </g>
  </g>
</svg>
