<?xml version="1.0" encoding="UTF-8" standalone="no"?>
<!-- Created with Inkscape (http://www.inkscape.org/) -->

<svg
   xmlns:dc="http://purl.org/dc/elements/1.1/"
   xmlns:cc="http://creativecommons.org/ns#"
   xmlns:rdf="http://www.w3.org/1999/02/22-rdf-syntax-ns#"
   xmlns:svg="http://www.w3.org/2000/svg"
   xmlns="http://www.w3.org/2000/svg"
   xmlns:sodipodi="http://sodipodi.sourceforge.net/DTD/sodipodi-0.dtd"
   xmlns:inkscape="http://www.inkscape.org/namespaces/inkscape"
   width="7.084836mm"
   height="4.7328668mm"
   viewBox="0 0 7.084836 4.7328668"
   version="1.1"
   id="svg8"
   inkscape:version="0.92.4 (5da689c313, 2019-01-14)"
   sodipodi:docname="comoros.svg">
  <defs
     id="defs2">
    <radialGradient
       id="radialGradient37584"
       spreadMethod="pad"
       gradientTransform="matrix(0.975099,0,0,0.975099,159.64062,365.06934)"
       gradientUnits="userSpaceOnUse"
       r="1"
       cy="0"
       cx="0"
       fy="0"
       fx="0">
      <stop
         id="stop37578"
         offset="0"
         style="stop-opacity:1;stop-color:#852c26" />
      <stop
         id="stop37580"
         offset="0.0015476"
         style="stop-opacity:1;stop-color:#852c26" />
      <stop
         id="stop37582"
         offset="1"
         style="stop-opacity:1;stop-color:#451617" />
    </radialGradient>
    <clipPath
       id="clipPath37532"
       clipPathUnits="userSpaceOnUse">
      <path
         inkscape:connector-curvature="0"
         id="path37530"
         d="M 0,400 H 400 V 0 H 0 Z" />
    </clipPath>
    <radialGradient
       id="radialGradient37522"
       spreadMethod="pad"
       gradientTransform="matrix(-0.2637247,0,0,0.2637247,159.68652,365.88965)"
       gradientUnits="userSpaceOnUse"
       r="1"
       cy="0"
       cx="0"
       fy="0"
       fx="0">
      <stop
         id="stop37516"
         offset="0"
         style="stop-opacity:1;stop-color:#852c26" />
      <stop
         id="stop37518"
         offset="0.0015476"
         style="stop-opacity:1;stop-color:#852c26" />
      <stop
         id="stop37520"
         offset="1"
         style="stop-opacity:1;stop-color:#451617" />
    </radialGradient>
    <clipPath
       id="clipPath37354"
       clipPathUnits="userSpaceOnUse">
      <path
         inkscape:connector-curvature="0"
         id="path37352"
         d="M 0,400 H 400 V 0 H 0 Z" />
    </clipPath>
    <radialGradient
       id="radialGradient37344"
       spreadMethod="pad"
       gradientTransform="matrix(0.975099,0,0,0.975099,155.76025,365.06934)"
       gradientUnits="userSpaceOnUse"
       r="1"
       cy="0"
       cx="0"
       fy="0"
       fx="0">
      <stop
         id="stop37338"
         offset="0"
         style="stop-opacity:1;stop-color:#eee54f" />
      <stop
         id="stop37340"
         offset="0.9977451"
         style="stop-opacity:1;stop-color:#e04a20" />
      <stop
         id="stop37342"
         offset="1"
         style="stop-opacity:1;stop-color:#e04a20" />
    </radialGradient>
    <clipPath
       id="clipPath37272"
       clipPathUnits="userSpaceOnUse">
      <path
         inkscape:connector-curvature="0"
         id="path37270"
         d="M 0,400 H 400 V 0 H 0 Z" />
    </clipPath>
    <radialGradient
       id="radialGradient37262"
       spreadMethod="pad"
       gradientTransform="matrix(0.2636045,0,0,0.2636045,155.71484,365.89062)"
       gradientUnits="userSpaceOnUse"
       r="1"
       cy="0"
       cx="0"
       fy="0"
       fx="0">
      <stop
         id="stop37256"
         offset="0"
         style="stop-opacity:1;stop-color:#eee54f" />
      <stop
         id="stop37258"
         offset="0.9977451"
         style="stop-opacity:1;stop-color:#e04a20" />
      <stop
         id="stop37260"
         offset="1"
         style="stop-opacity:1;stop-color:#e04a20" />
    </radialGradient>
  </defs>
  <sodipodi:namedview
     id="base"
     pagecolor="#ffffff"
     bordercolor="#666666"
     borderopacity="1.0"
     inkscape:pageopacity="0.0"
     inkscape:pageshadow="2"
     inkscape:zoom="11.2"
     inkscape:cx="27.993224"
     inkscape:cy="8.2746172"
     inkscape:document-units="mm"
     inkscape:current-layer="layer1"
     showgrid="false"
     inkscape:window-width="954"
     inkscape:window-height="630"
     inkscape:window-x="-3"
     inkscape:window-y="6"
     inkscape:window-maximized="0" />
  <metadata
     id="metadata5">
    <rdf:RDF>
      <cc:Work
         rdf:about="">
        <dc:format>image/svg+xml</dc:format>
        <dc:type
           rdf:resource="http://purl.org/dc/dcmitype/StillImage" />
        <dc:title></dc:title>
      </cc:Work>
    </rdf:RDF>
  </metadata>
  <g
     inkscape:label="Layer 1"
     inkscape:groupmode="layer"
     id="layer1"
     transform="translate(-59.197256,-94.300082)">
    <g
       id="g36084"
       transform="matrix(0.35277777,0,0,-0.35277777,59.226537,99.003668)">
      <path
         d="M 0,0 H 19.917 L 19.916,13.25 H 0 Z M 19.958,-0.042 V 0 Z M -0.083,-0.083 V 13.333 H 20 V -0.042 -0.083 Z"
         style="fill:#221f21;fill-opacity:1;fill-rule:nonzero;stroke:none"
         id="path36086"
         inkscape:connector-curvature="0" />
    </g>
    <path
       d="m 66.267339,94.314793 h -7.05555 v 1.175808 h 7.05555 z"
       style="fill:#f2b329;fill-opacity:1;fill-rule:nonzero;stroke:none;stroke-width:0.35277778"
       id="path36088"
       inkscape:connector-curvature="0" />
    <path
       d="m 59.211789,99.018379 h 7.05555 v -1.175808 h -7.05555 z"
       style="fill:#466fc0;fill-opacity:1;fill-rule:nonzero;stroke:none;stroke-width:0.35277778"
       id="path36090"
       inkscape:connector-curvature="0" />
    <path
       d="m 59.211789,97.842571 h 7.05555 v -1.175808 h -7.05555 z"
       style="fill:#c12131;fill-opacity:1;fill-rule:nonzero;stroke:none;stroke-width:0.35277778"
       id="path36092"
       inkscape:connector-curvature="0" />
    <path
       d="m 66.267339,95.490601 h -7.05555 v 1.175809 h 7.05555 z"
       style="fill:#ffffff;fill-opacity:1;fill-rule:nonzero;stroke:none;stroke-width:0.35277778"
       id="path36094"
       inkscape:connector-curvature="0" />
    <g
       id="g36096"
       transform="matrix(0.35277777,0,0,-0.35277777,59.211715,99.018485)">
      <path
         d="M 0,0 V 13.333 L 10,6.667 Z"
         style="fill:#468d3b;fill-opacity:1;fill-rule:nonzero;stroke:none"
         id="path36098"
         inkscape:connector-curvature="0" />
    </g>
    <g
       id="g36100"
       transform="matrix(0.35277777,0,0,-0.35277777,59.856277,96.666516)">
      <path
         d="M 0,0 C 0,1.395 1.039,2.546 2.385,2.726 2.124,2.805 1.847,2.847 1.561,2.847 -0.013,2.847 -1.286,1.572 -1.286,0 c 0,-1.573 1.273,-2.848 2.847,-2.848 0.286,0 0.563,0.043 0.824,0.122 C 1.039,-2.547 0,-1.395 0,0"
         style="fill:#ffffff;fill-opacity:1;fill-rule:nonzero;stroke:none"
         id="path36102"
         inkscape:connector-curvature="0" />
    </g>
    <g
       id="g36104"
       transform="matrix(0.35277777,0,0,-0.35277777,60.697575,95.781643)">
      <path
         d="M 0,0 0.122,-0.377 H 0.521 L 0.199,-0.61 0.32,-0.987 0,-0.754 -0.32,-0.987 -0.198,-0.61 -0.52,-0.377 h 0.398 z"
         style="fill:#ffffff;fill-opacity:1;fill-rule:nonzero;stroke:none"
         id="path36106"
         inkscape:connector-curvature="0" />
    </g>
    <g
       id="g36108"
       transform="matrix(0.35277777,0,0,-0.35277777,60.697575,96.255353)">
      <path
         d="M 0,0 0.122,-0.377 H 0.521 L 0.199,-0.61 0.32,-0.988 0,-0.755 -0.32,-0.988 -0.198,-0.61 -0.52,-0.377 h 0.398 z"
         style="fill:#ffffff;fill-opacity:1;fill-rule:nonzero;stroke:none"
         id="path36110"
         inkscape:connector-curvature="0" />
    </g>
    <g
       id="g36112"
       transform="matrix(0.35277777,0,0,-0.35277777,60.697575,96.729204)">
      <path
         d="M 0,0 0.122,-0.377 H 0.521 L 0.199,-0.611 0.32,-0.988 0,-0.755 l -0.32,-0.233 0.122,0.377 -0.322,0.234 h 0.398 z"
         style="fill:#ffffff;fill-opacity:1;fill-rule:nonzero;stroke:none"
         id="path36114"
         inkscape:connector-curvature="0" />
    </g>
    <g
       id="g36116"
       transform="matrix(0.35277777,0,0,-0.35277777,60.697575,97.203091)">
      <path
         d="M 0,0 0.122,-0.377 H 0.521 L 0.199,-0.61 0.32,-0.988 0,-0.755 -0.32,-0.988 -0.198,-0.61 -0.52,-0.377 h 0.398 z"
         style="fill:#ffffff;fill-opacity:1;fill-rule:nonzero;stroke:none"
         id="path36118"
         inkscape:connector-curvature="0" />
    </g>
  </g>
</svg>
