<?xml version="1.0" encoding="UTF-8" standalone="no"?>
<!-- Created with Inkscape (http://www.inkscape.org/) -->

<svg
   xmlns:dc="http://purl.org/dc/elements/1.1/"
   xmlns:cc="http://creativecommons.org/ns#"
   xmlns:rdf="http://www.w3.org/1999/02/22-rdf-syntax-ns#"
   xmlns:svg="http://www.w3.org/2000/svg"
   xmlns="http://www.w3.org/2000/svg"
   xmlns:sodipodi="http://sodipodi.sourceforge.net/DTD/sodipodi-0.dtd"
   xmlns:inkscape="http://www.inkscape.org/namespaces/inkscape"
   width="7.084836mm"
   height="4.7328668mm"
   viewBox="0 0 7.084836 4.7328668"
   version="1.1"
   id="svg8"
   inkscape:version="0.92.4 (5da689c313, 2019-01-14)"
   sodipodi:docname="georgia.svg">
  <defs
     id="defs2">
    <radialGradient
       id="radialGradient37584"
       spreadMethod="pad"
       gradientTransform="matrix(0.975099,0,0,0.975099,159.64062,365.06934)"
       gradientUnits="userSpaceOnUse"
       r="1"
       cy="0"
       cx="0"
       fy="0"
       fx="0">
      <stop
         id="stop37578"
         offset="0"
         style="stop-opacity:1;stop-color:#852c26" />
      <stop
         id="stop37580"
         offset="0.0015476"
         style="stop-opacity:1;stop-color:#852c26" />
      <stop
         id="stop37582"
         offset="1"
         style="stop-opacity:1;stop-color:#451617" />
    </radialGradient>
    <clipPath
       id="clipPath37532"
       clipPathUnits="userSpaceOnUse">
      <path
         inkscape:connector-curvature="0"
         id="path37530"
         d="M 0,400 H 400 V 0 H 0 Z" />
    </clipPath>
    <radialGradient
       id="radialGradient37522"
       spreadMethod="pad"
       gradientTransform="matrix(-0.2637247,0,0,0.2637247,159.68652,365.88965)"
       gradientUnits="userSpaceOnUse"
       r="1"
       cy="0"
       cx="0"
       fy="0"
       fx="0">
      <stop
         id="stop37516"
         offset="0"
         style="stop-opacity:1;stop-color:#852c26" />
      <stop
         id="stop37518"
         offset="0.0015476"
         style="stop-opacity:1;stop-color:#852c26" />
      <stop
         id="stop37520"
         offset="1"
         style="stop-opacity:1;stop-color:#451617" />
    </radialGradient>
    <clipPath
       id="clipPath37354"
       clipPathUnits="userSpaceOnUse">
      <path
         inkscape:connector-curvature="0"
         id="path37352"
         d="M 0,400 H 400 V 0 H 0 Z" />
    </clipPath>
    <radialGradient
       id="radialGradient37344"
       spreadMethod="pad"
       gradientTransform="matrix(0.975099,0,0,0.975099,155.76025,365.06934)"
       gradientUnits="userSpaceOnUse"
       r="1"
       cy="0"
       cx="0"
       fy="0"
       fx="0">
      <stop
         id="stop37338"
         offset="0"
         style="stop-opacity:1;stop-color:#eee54f" />
      <stop
         id="stop37340"
         offset="0.9977451"
         style="stop-opacity:1;stop-color:#e04a20" />
      <stop
         id="stop37342"
         offset="1"
         style="stop-opacity:1;stop-color:#e04a20" />
    </radialGradient>
    <clipPath
       id="clipPath37272"
       clipPathUnits="userSpaceOnUse">
      <path
         inkscape:connector-curvature="0"
         id="path37270"
         d="M 0,400 H 400 V 0 H 0 Z" />
    </clipPath>
    <radialGradient
       id="radialGradient37262"
       spreadMethod="pad"
       gradientTransform="matrix(0.2636045,0,0,0.2636045,155.71484,365.89062)"
       gradientUnits="userSpaceOnUse"
       r="1"
       cy="0"
       cx="0"
       fy="0"
       fx="0">
      <stop
         id="stop37256"
         offset="0"
         style="stop-opacity:1;stop-color:#eee54f" />
      <stop
         id="stop37258"
         offset="0.9977451"
         style="stop-opacity:1;stop-color:#e04a20" />
      <stop
         id="stop37260"
         offset="1"
         style="stop-opacity:1;stop-color:#e04a20" />
    </radialGradient>
  </defs>
  <sodipodi:namedview
     id="base"
     pagecolor="#ffffff"
     bordercolor="#666666"
     borderopacity="1.0"
     inkscape:pageopacity="0.0"
     inkscape:pageshadow="2"
     inkscape:zoom="11.2"
     inkscape:cx="23.534822"
     inkscape:cy="7.1857546"
     inkscape:document-units="mm"
     inkscape:current-layer="layer1"
     showgrid="false"
     inkscape:window-width="954"
     inkscape:window-height="630"
     inkscape:window-x="-3"
     inkscape:window-y="6"
     inkscape:window-maximized="0" />
  <metadata
     id="metadata5">
    <rdf:RDF>
      <cc:Work
         rdf:about="">
        <dc:format>image/svg+xml</dc:format>
        <dc:type
           rdf:resource="http://purl.org/dc/dcmitype/StillImage" />
        <dc:title></dc:title>
      </cc:Work>
    </rdf:RDF>
  </metadata>
  <g
     inkscape:label="Layer 1"
     inkscape:groupmode="layer"
     id="layer1"
     transform="translate(-57.565593,-95.185001)">
    <g
       id="g34506"
       transform="matrix(0.35277777,0,0,-0.35277777,57.594874,99.888587)">
      <path
         d="M 0,0 H 19.917 L 19.916,13.251 H 0 Z M 19.959,-0.042 V 0 Z M -0.083,-0.083 V 13.333 H 20 V -0.042 -0.083 Z"
         style="fill:#221f21;fill-opacity:1;fill-rule:nonzero;stroke:none"
         id="path34508"
         inkscape:connector-curvature="0" />
    </g>
    <path
       d="m 61.578506,99.90337 h 3.05717 v -1.881363 h -3.05717 z"
       style="fill:#ffffff;fill-opacity:1;fill-rule:nonzero;stroke:none;stroke-width:0.35277778"
       id="path34510"
       inkscape:connector-curvature="0" />
    <path
       d="m 60.637646,95.199432 h -3.05752 v 1.881363 h 3.05752 z"
       style="fill:#ffffff;fill-opacity:1;fill-rule:nonzero;stroke:none;stroke-width:0.35277778"
       id="path34512"
       inkscape:connector-curvature="0" />
    <path
       d="m 57.580126,99.90337 h 3.05752 v -1.881363 h -3.05752 z"
       style="fill:#ffffff;fill-opacity:1;fill-rule:nonzero;stroke:none;stroke-width:0.35277778"
       id="path34514"
       inkscape:connector-curvature="0" />
    <path
       d="m 61.578506,97.081148 h 3.05717 v -1.881364 h -3.05717 z"
       style="fill:#ffffff;fill-opacity:1;fill-rule:nonzero;stroke:none;stroke-width:0.35277778"
       id="path34516"
       inkscape:connector-curvature="0" />
    <g
       id="g34518"
       transform="matrix(0.35277777,0,0,-0.35277777,61.578432,95.199467)">
      <path
         d="m 0,0 h -2.667 v -5.333 h -8.667 V -8 h 8.667 v -5.333 H 0 V -8 h 8.666 v 2.667 H 0 Z"
         style="fill:#e22431;fill-opacity:1;fill-rule:nonzero;stroke:none"
         id="path34520"
         inkscape:connector-curvature="0" />
    </g>
    <g
       id="g34522"
       transform="matrix(0.35277777,0,0,-0.35277777,62.949932,95.692438)">
      <path
         d="M 0,0 C 0.297,-0.037 0.597,-0.037 0.89,0 0.831,-0.309 0.797,-0.623 0.78,-0.934 c 0.314,0.015 0.627,0.052 0.936,0.11 -0.037,-0.296 -0.037,-0.595 0,-0.891 -0.309,0.058 -0.622,0.095 -0.936,0.11 0.017,-0.314 0.054,-0.625 0.11,-0.934 -0.293,0.037 -0.596,0.037 -0.89,0 0.06,0.309 0.096,0.623 0.11,0.936 -0.313,-0.017 -0.627,-0.054 -0.935,-0.112 0.036,0.296 0.036,0.595 0,0.891 0.308,-0.058 0.622,-0.095 0.935,-0.113 C 0.096,-0.623 0.06,-0.309 0,0"
         style="fill:#dc2038;fill-opacity:1;fill-rule:nonzero;stroke:none"
         id="path34524"
         inkscape:connector-curvature="0" />
    </g>
    <g
       id="g34526"
       transform="matrix(0.35277777,0,0,-0.35277777,58.951863,95.692438)">
      <path
         d="M 0,0 C 0.297,-0.037 0.596,-0.037 0.89,0 0.831,-0.309 0.796,-0.623 0.78,-0.934 c 0.313,0.015 0.627,0.052 0.936,0.11 -0.037,-0.296 -0.037,-0.595 0,-0.891 -0.309,0.058 -0.623,0.095 -0.936,0.11 0.016,-0.314 0.054,-0.625 0.11,-0.934 -0.294,0.037 -0.596,0.037 -0.89,0 0.06,0.309 0.095,0.623 0.11,0.936 -0.313,-0.017 -0.627,-0.054 -0.936,-0.112 0.037,0.296 0.037,0.595 0,0.891 0.309,-0.058 0.623,-0.095 0.936,-0.113 C 0.095,-0.623 0.06,-0.309 0,0"
         style="fill:#dc2038;fill-opacity:1;fill-rule:nonzero;stroke:none"
         id="path34528"
         inkscape:connector-curvature="0" />
    </g>
    <g
       id="g34530"
       transform="matrix(0.35277777,0,0,-0.35277777,58.951863,98.514661)">
      <path
         d="M 0,0 C 0.297,-0.037 0.596,-0.037 0.89,0 0.831,-0.309 0.796,-0.623 0.78,-0.934 c 0.313,0.015 0.627,0.052 0.936,0.11 -0.037,-0.296 -0.037,-0.595 0,-0.891 -0.309,0.058 -0.623,0.095 -0.936,0.11 0.016,-0.314 0.054,-0.625 0.11,-0.934 -0.294,0.037 -0.596,0.037 -0.89,0 0.06,0.309 0.095,0.623 0.11,0.936 -0.313,-0.017 -0.627,-0.054 -0.936,-0.112 0.037,0.296 0.037,0.595 0,0.891 0.309,-0.058 0.623,-0.095 0.936,-0.113 C 0.095,-0.623 0.06,-0.309 0,0"
         style="fill:#dc2038;fill-opacity:1;fill-rule:nonzero;stroke:none"
         id="path34532"
         inkscape:connector-curvature="0" />
    </g>
    <g
       id="g34534"
       transform="matrix(0.35277777,0,0,-0.35277777,62.949932,98.514661)">
      <path
         d="M 0,0 C 0.297,-0.037 0.597,-0.037 0.89,0 0.831,-0.309 0.797,-0.623 0.78,-0.934 c 0.314,0.015 0.627,0.052 0.936,0.11 -0.037,-0.296 -0.037,-0.595 0,-0.891 -0.309,0.058 -0.622,0.095 -0.936,0.11 0.017,-0.314 0.054,-0.625 0.11,-0.934 -0.293,0.037 -0.596,0.037 -0.89,0 0.06,0.309 0.096,0.623 0.11,0.936 -0.313,-0.017 -0.627,-0.054 -0.935,-0.112 0.036,0.296 0.036,0.595 0,0.891 0.308,-0.058 0.622,-0.095 0.935,-0.113 C 0.096,-0.623 0.06,-0.309 0,0"
         style="fill:#dc2038;fill-opacity:1;fill-rule:nonzero;stroke:none"
         id="path34536"
         inkscape:connector-curvature="0" />
    </g>
  </g>
</svg>
