<?xml version="1.0" encoding="UTF-8" standalone="no"?>
<!-- Created with Inkscape (http://www.inkscape.org/) -->

<svg
   xmlns:dc="http://purl.org/dc/elements/1.1/"
   xmlns:cc="http://creativecommons.org/ns#"
   xmlns:rdf="http://www.w3.org/1999/02/22-rdf-syntax-ns#"
   xmlns:svg="http://www.w3.org/2000/svg"
   xmlns="http://www.w3.org/2000/svg"
   xmlns:sodipodi="http://sodipodi.sourceforge.net/DTD/sodipodi-0.dtd"
   xmlns:inkscape="http://www.inkscape.org/namespaces/inkscape"
   width="7.084836mm"
   height="4.7328668mm"
   viewBox="0 0 7.084836 4.7328668"
   version="1.1"
   id="svg8"
   inkscape:version="0.92.4 (5da689c313, 2019-01-14)"
   sodipodi:docname="grenada.svg">
  <defs
     id="defs2">
    <radialGradient
       id="radialGradient37584"
       spreadMethod="pad"
       gradientTransform="matrix(0.975099,0,0,0.975099,159.64062,365.06934)"
       gradientUnits="userSpaceOnUse"
       r="1"
       cy="0"
       cx="0"
       fy="0"
       fx="0">
      <stop
         id="stop37578"
         offset="0"
         style="stop-opacity:1;stop-color:#852c26" />
      <stop
         id="stop37580"
         offset="0.0015476"
         style="stop-opacity:1;stop-color:#852c26" />
      <stop
         id="stop37582"
         offset="1"
         style="stop-opacity:1;stop-color:#451617" />
    </radialGradient>
    <clipPath
       id="clipPath37532"
       clipPathUnits="userSpaceOnUse">
      <path
         inkscape:connector-curvature="0"
         id="path37530"
         d="M 0,400 H 400 V 0 H 0 Z" />
    </clipPath>
    <radialGradient
       id="radialGradient37522"
       spreadMethod="pad"
       gradientTransform="matrix(-0.2637247,0,0,0.2637247,159.68652,365.88965)"
       gradientUnits="userSpaceOnUse"
       r="1"
       cy="0"
       cx="0"
       fy="0"
       fx="0">
      <stop
         id="stop37516"
         offset="0"
         style="stop-opacity:1;stop-color:#852c26" />
      <stop
         id="stop37518"
         offset="0.0015476"
         style="stop-opacity:1;stop-color:#852c26" />
      <stop
         id="stop37520"
         offset="1"
         style="stop-opacity:1;stop-color:#451617" />
    </radialGradient>
    <clipPath
       id="clipPath37354"
       clipPathUnits="userSpaceOnUse">
      <path
         inkscape:connector-curvature="0"
         id="path37352"
         d="M 0,400 H 400 V 0 H 0 Z" />
    </clipPath>
    <radialGradient
       id="radialGradient37344"
       spreadMethod="pad"
       gradientTransform="matrix(0.975099,0,0,0.975099,155.76025,365.06934)"
       gradientUnits="userSpaceOnUse"
       r="1"
       cy="0"
       cx="0"
       fy="0"
       fx="0">
      <stop
         id="stop37338"
         offset="0"
         style="stop-opacity:1;stop-color:#eee54f" />
      <stop
         id="stop37340"
         offset="0.9977451"
         style="stop-opacity:1;stop-color:#e04a20" />
      <stop
         id="stop37342"
         offset="1"
         style="stop-opacity:1;stop-color:#e04a20" />
    </radialGradient>
    <clipPath
       id="clipPath37272"
       clipPathUnits="userSpaceOnUse">
      <path
         inkscape:connector-curvature="0"
         id="path37270"
         d="M 0,400 H 400 V 0 H 0 Z" />
    </clipPath>
    <radialGradient
       id="radialGradient37262"
       spreadMethod="pad"
       gradientTransform="matrix(0.2636045,0,0,0.2636045,155.71484,365.89062)"
       gradientUnits="userSpaceOnUse"
       r="1"
       cy="0"
       cx="0"
       fy="0"
       fx="0">
      <stop
         id="stop37256"
         offset="0"
         style="stop-opacity:1;stop-color:#eee54f" />
      <stop
         id="stop37258"
         offset="0.9977451"
         style="stop-opacity:1;stop-color:#e04a20" />
      <stop
         id="stop37260"
         offset="1"
         style="stop-opacity:1;stop-color:#e04a20" />
    </radialGradient>
  </defs>
  <sodipodi:namedview
     id="base"
     pagecolor="#ffffff"
     bordercolor="#666666"
     borderopacity="1.0"
     inkscape:pageopacity="0.0"
     inkscape:pageshadow="2"
     inkscape:zoom="11.2"
     inkscape:cx="20.928774"
     inkscape:cy="7.9617753"
     inkscape:document-units="mm"
     inkscape:current-layer="layer1"
     showgrid="false"
     inkscape:window-width="954"
     inkscape:window-height="630"
     inkscape:window-x="-3"
     inkscape:window-y="6"
     inkscape:window-maximized="0" />
  <metadata
     id="metadata5">
    <rdf:RDF>
      <cc:Work
         rdf:about="">
        <dc:format>image/svg+xml</dc:format>
        <dc:type
           rdf:resource="http://purl.org/dc/dcmitype/StillImage" />
        <dc:title></dc:title>
      </cc:Work>
    </rdf:RDF>
  </metadata>
  <g
     inkscape:label="Layer 1"
     inkscape:groupmode="layer"
     id="layer1"
     transform="translate(-58.255108,-95.390324)">
    <g
       id="g39004"
       transform="matrix(0.35277777,0,0,-0.35277777,58.284389,100.09391)">
      <path
         d="M 0,0 H 19.917 V 13.251 H 0 Z M 19.959,-0.042 V 0 Z M -0.083,-0.083 V 13.333 H 20 V -0.042 -0.083 Z"
         style="fill:#221f21;fill-opacity:1;fill-rule:nonzero;stroke:none"
         id="path39006"
         inkscape:connector-curvature="0" />
    </g>
    <path
       d="m 65.32517,100.10883 h -7.05556 v -4.703586 h 7.05556 z"
       style="fill:#c12131;fill-opacity:1;fill-rule:nonzero;stroke:none;stroke-width:0.35277778"
       id="path39008"
       inkscape:connector-curvature="0" />
    <g
       id="g39010"
       transform="matrix(0.35277777,0,0,-0.35277777,58.857828,95.992865)">
      <path
         d="m 0,0 v -10 l 8.333,5 z"
         style="fill:#347961;fill-opacity:1;fill-rule:nonzero;stroke:none"
         id="path39012"
         inkscape:connector-curvature="0" />
    </g>
    <g
       id="g39014"
       transform="matrix(0.35277777,0,0,-0.35277777,64.737399,95.992865)">
      <path
         d="m 0,0 h -16.667 l 8.334,-5 z"
         style="fill:#ecc028;fill-opacity:1;fill-rule:nonzero;stroke:none"
         id="path39016"
         inkscape:connector-curvature="0" />
    </g>
    <g
       id="g39018"
       transform="matrix(0.35277777,0,0,-0.35277777,58.857828,99.520642)">
      <path
         d="M 0,0 H 16.667 L 8.333,5 Z"
         style="fill:#ecc028;fill-opacity:1;fill-rule:nonzero;stroke:none"
         id="path39020"
         inkscape:connector-curvature="0" />
    </g>
    <g
       id="g39022"
       transform="matrix(0.35277777,0,0,-0.35277777,61.797529,97.756755)">
      <path
         d="M 0,0 8.333,-5 V 5 Z"
         style="fill:#347961;fill-opacity:1;fill-rule:nonzero;stroke:none"
         id="path39024"
         inkscape:connector-curvature="0" />
    </g>
    <g
       id="g39026"
       transform="matrix(0.35277777,0,0,-0.35277777,62.385608,97.756755)">
      <path
         d="m 0,0 c 0,-0.921 -0.747,-1.667 -1.667,-1.667 -0.92,0 -1.666,0.746 -1.666,1.667 0,0.92 0.746,1.667 1.666,1.667 C -0.747,1.667 0,0.92 0,0"
         style="fill:#c12131;fill-opacity:1;fill-rule:nonzero;stroke:none"
         id="path39028"
         inkscape:connector-curvature="0" />
    </g>
    <g
       id="g39030"
       transform="matrix(0.35277777,0,0,-0.35277777,61.797529,97.252213)">
      <path
         d="M 0,0 0.33,-1.015 H 1.397 L 0.534,-1.642 0.864,-2.658 0,-2.03 l -0.863,-0.628 0.329,1.016 -0.863,0.627 h 1.067 z"
         style="fill:#ecc028;fill-opacity:1;fill-rule:nonzero;stroke:none"
         id="path39032"
         inkscape:connector-curvature="0" />
    </g>
    <g
       id="g39034"
       transform="matrix(0.35277777,0,0,-0.35277777,59.126719,97.366442)">
      <path
         d="M 0,0 C 0.133,-0.527 -0.187,-1.078 0,-1.601 0.138,-1.976 0.541,-2.146 0.907,-2.213 0.794,-2.042 0.711,-1.86 0.666,-1.668 0.624,-1.489 0.612,-1.306 0.628,-1.127 0.799,-1.198 0.953,-1.306 1.09,-1.435 1.236,-1.573 1.374,-1.73 1.465,-1.914 1.61,-1.522 1.585,-1.011 1.252,-0.72 0.895,-0.378 0.362,-0.329 0,0"
         style="fill:#ecc028;fill-opacity:1;fill-rule:nonzero;stroke:none"
         id="path39036"
         inkscape:connector-curvature="0" />
    </g>
    <g
       id="g39038"
       transform="matrix(0.35277777,0,0,-0.35277777,59.361489,97.954838)">
      <path
         d="M 0,0 C 0.154,-0.146 0.316,-0.287 0.512,-0.371 0.507,-0.167 0.475,0.037 0.425,0.233 0.287,0.362 0.134,0.47 -0.038,0.541 -0.054,0.362 -0.042,0.179 0,0"
         style="fill:#c12131;fill-opacity:1;fill-rule:nonzero;stroke:none"
         id="path39040"
         inkscape:connector-curvature="0" />
    </g>
    <g
       id="g39042"
       transform="matrix(0.35277777,0,0,-0.35277777,60.222099,95.948415)">
      <path
         d="M 0,0 0.466,0.339 0.932,0 0.754,0.548 1.22,0.887 H 0.644 L 0.466,1.435 0.288,0.887 H -0.289 L 0.177,0.548 Z"
         style="fill:#ecc028;fill-opacity:1;fill-rule:nonzero;stroke:none"
         id="path39044"
         inkscape:connector-curvature="0" />
    </g>
    <g
       id="g39046"
       transform="matrix(0.35277777,0,0,-0.35277777,61.633209,95.948415)">
      <path
         d="M 0,0 0.466,0.339 0.932,0 0.754,0.548 1.22,0.887 H 0.644 L 0.466,1.435 0.288,0.887 H -0.289 L 0.177,0.548 Z"
         style="fill:#ecc028;fill-opacity:1;fill-rule:nonzero;stroke:none"
         id="path39048"
         inkscape:connector-curvature="0" />
    </g>
    <g
       id="g39050"
       transform="matrix(0.35277777,0,0,-0.35277777,63.04432,95.948415)">
      <path
         d="M 0,0 0.466,0.339 0.932,0 0.754,0.548 1.22,0.887 H 0.644 L 0.466,1.435 0.288,0.887 H -0.289 L 0.177,0.548 Z"
         style="fill:#ecc028;fill-opacity:1;fill-rule:nonzero;stroke:none"
         id="path39052"
         inkscape:connector-curvature="0" />
    </g>
    <g
       id="g39054"
       transform="matrix(0.35277777,0,0,-0.35277777,60.222099,100.06946)">
      <path
         d="M 0,0 0.466,0.339 0.932,0 0.754,0.548 1.22,0.887 H 0.644 L 0.466,1.435 0.288,0.887 H -0.289 L 0.177,0.548 Z"
         style="fill:#ecc028;fill-opacity:1;fill-rule:nonzero;stroke:none"
         id="path39056"
         inkscape:connector-curvature="0" />
    </g>
    <g
       id="g39058"
       transform="matrix(0.35277777,0,0,-0.35277777,61.633209,100.06946)">
      <path
         d="M 0,0 0.466,0.339 0.932,0 0.754,0.548 1.22,0.887 H 0.644 L 0.466,1.435 0.288,0.887 H -0.289 L 0.177,0.548 Z"
         style="fill:#ecc028;fill-opacity:1;fill-rule:nonzero;stroke:none"
         id="path39060"
         inkscape:connector-curvature="0" />
    </g>
    <g
       id="g39062"
       transform="matrix(0.35277777,0,0,-0.35277777,63.04432,100.06946)">
      <path
         d="M 0,0 0.466,0.339 0.932,0 0.754,0.548 1.22,0.887 H 0.644 L 0.466,1.435 0.288,0.887 H -0.289 L 0.177,0.548 Z"
         style="fill:#ecc028;fill-opacity:1;fill-rule:nonzero;stroke:none"
         id="path39064"
         inkscape:connector-curvature="0" />
    </g>
  </g>
</svg>
