<?xml version="1.0" encoding="UTF-8" standalone="no"?>
<!-- Created with Inkscape (http://www.inkscape.org/) -->

<svg
   xmlns:dc="http://purl.org/dc/elements/1.1/"
   xmlns:cc="http://creativecommons.org/ns#"
   xmlns:rdf="http://www.w3.org/1999/02/22-rdf-syntax-ns#"
   xmlns:svg="http://www.w3.org/2000/svg"
   xmlns="http://www.w3.org/2000/svg"
   xmlns:sodipodi="http://sodipodi.sourceforge.net/DTD/sodipodi-0.dtd"
   xmlns:inkscape="http://www.inkscape.org/namespaces/inkscape"
   width="7.084836mm"
   height="4.7328668mm"
   viewBox="0 0 7.084836 4.7328668"
   version="1.1"
   id="svg8"
   inkscape:version="0.92.4 (5da689c313, 2019-01-14)"
   sodipodi:docname="hong_kong.svg">
  <defs
     id="defs2">
    <radialGradient
       id="radialGradient37584"
       spreadMethod="pad"
       gradientTransform="matrix(0.975099,0,0,0.975099,159.64062,365.06934)"
       gradientUnits="userSpaceOnUse"
       r="1"
       cy="0"
       cx="0"
       fy="0"
       fx="0">
      <stop
         id="stop37578"
         offset="0"
         style="stop-opacity:1;stop-color:#852c26" />
      <stop
         id="stop37580"
         offset="0.0015476"
         style="stop-opacity:1;stop-color:#852c26" />
      <stop
         id="stop37582"
         offset="1"
         style="stop-opacity:1;stop-color:#451617" />
    </radialGradient>
    <clipPath
       id="clipPath37532"
       clipPathUnits="userSpaceOnUse">
      <path
         inkscape:connector-curvature="0"
         id="path37530"
         d="M 0,400 H 400 V 0 H 0 Z" />
    </clipPath>
    <radialGradient
       id="radialGradient37522"
       spreadMethod="pad"
       gradientTransform="matrix(-0.2637247,0,0,0.2637247,159.68652,365.88965)"
       gradientUnits="userSpaceOnUse"
       r="1"
       cy="0"
       cx="0"
       fy="0"
       fx="0">
      <stop
         id="stop37516"
         offset="0"
         style="stop-opacity:1;stop-color:#852c26" />
      <stop
         id="stop37518"
         offset="0.0015476"
         style="stop-opacity:1;stop-color:#852c26" />
      <stop
         id="stop37520"
         offset="1"
         style="stop-opacity:1;stop-color:#451617" />
    </radialGradient>
    <clipPath
       id="clipPath37354"
       clipPathUnits="userSpaceOnUse">
      <path
         inkscape:connector-curvature="0"
         id="path37352"
         d="M 0,400 H 400 V 0 H 0 Z" />
    </clipPath>
    <radialGradient
       id="radialGradient37344"
       spreadMethod="pad"
       gradientTransform="matrix(0.975099,0,0,0.975099,155.76025,365.06934)"
       gradientUnits="userSpaceOnUse"
       r="1"
       cy="0"
       cx="0"
       fy="0"
       fx="0">
      <stop
         id="stop37338"
         offset="0"
         style="stop-opacity:1;stop-color:#eee54f" />
      <stop
         id="stop37340"
         offset="0.9977451"
         style="stop-opacity:1;stop-color:#e04a20" />
      <stop
         id="stop37342"
         offset="1"
         style="stop-opacity:1;stop-color:#e04a20" />
    </radialGradient>
    <clipPath
       id="clipPath37272"
       clipPathUnits="userSpaceOnUse">
      <path
         inkscape:connector-curvature="0"
         id="path37270"
         d="M 0,400 H 400 V 0 H 0 Z" />
    </clipPath>
    <radialGradient
       id="radialGradient37262"
       spreadMethod="pad"
       gradientTransform="matrix(0.2636045,0,0,0.2636045,155.71484,365.89062)"
       gradientUnits="userSpaceOnUse"
       r="1"
       cy="0"
       cx="0"
       fy="0"
       fx="0">
      <stop
         id="stop37256"
         offset="0"
         style="stop-opacity:1;stop-color:#eee54f" />
      <stop
         id="stop37258"
         offset="0.9977451"
         style="stop-opacity:1;stop-color:#e04a20" />
      <stop
         id="stop37260"
         offset="1"
         style="stop-opacity:1;stop-color:#e04a20" />
    </radialGradient>
  </defs>
  <sodipodi:namedview
     id="base"
     pagecolor="#ffffff"
     bordercolor="#666666"
     borderopacity="1.0"
     inkscape:pageopacity="0.0"
     inkscape:pageshadow="2"
     inkscape:zoom="11.2"
     inkscape:cx="29.87786"
     inkscape:cy="6.1941817"
     inkscape:document-units="mm"
     inkscape:current-layer="layer1"
     showgrid="false"
     inkscape:window-width="954"
     inkscape:window-height="630"
     inkscape:window-x="-3"
     inkscape:window-y="6"
     inkscape:window-maximized="0" />
  <metadata
     id="metadata5">
    <rdf:RDF>
      <cc:Work
         rdf:about="">
        <dc:format>image/svg+xml</dc:format>
        <dc:type
           rdf:resource="http://purl.org/dc/dcmitype/StillImage" />
        <dc:title></dc:title>
      </cc:Work>
    </rdf:RDF>
  </metadata>
  <g
     inkscape:label="Layer 1"
     inkscape:groupmode="layer"
     id="layer1"
     transform="translate(-55.887327,-94.92265)">
    <g
       id="g17004"
       transform="matrix(0.35277777,0,0,-0.35277777,55.916608,99.626236)">
      <path
         d="M 0,0 H 19.917 L 19.916,13.251 H 0 Z M 19.958,-0.042 V 0 Z M -0.083,-0.083 V 13.333 H 20 V -0.042 -0.083 Z"
         style="fill:#221f21;fill-opacity:1;fill-rule:nonzero;stroke:none"
         id="path17006"
         inkscape:connector-curvature="0" />
    </g>
    <path
       d="m 62.95741,99.64116 h -7.05555 v -4.703587 h 7.05555 z"
       style="fill:#ee2329;fill-opacity:1;fill-rule:nonzero;stroke:none;stroke-width:0.35277778"
       id="path17008"
       inkscape:connector-curvature="0" />
    <g
       id="g17010"
       transform="matrix(0.35277777,0,0,-0.35277777,59.357556,97.275995)">
      <path
         d="M 0,0 0.11,-0.109 0,-0.219 l -0.109,0.11 z"
         style="fill:#ee2329;fill-opacity:1;fill-rule:nonzero;stroke:none"
         id="path17012"
         inkscape:connector-curvature="0" />
    </g>
    <g
       id="g17014"
       transform="matrix(0.35277777,0,0,-0.35277777,59.357556,97.31459)">
      <path
         d="M 0,0 C -1.035,0.418 -1.529,1.726 -1.098,2.756 -0.861,3.32 0.012,4.097 1.084,3.829 0.67,3.621 0.392,3.335 0.661,2.928 0.957,2.48 0.818,1.807 0.243,1.537 -0.204,1.326 -0.597,0.546 0,0"
         style="fill:#ffffff;fill-opacity:1;fill-rule:nonzero;stroke:none"
         id="path17016"
         inkscape:connector-curvature="0" />
    </g>
    <g
       id="g17018"
       transform="matrix(0.35277777,0,0,-0.35277777,59.351706,97.321646)">
      <path
         d="m 0,0 c -0.218,0.177 -0.567,0.367 -0.654,1.077 l -0.014,0.227 c 0,0.573 0.278,0.901 0.28,0.903 l 0.036,0.003 0.003,-0.036 c 0.001,0 -0.066,-0.077 -0.133,-0.225 C -0.549,1.8 -0.617,1.582 -0.617,1.304 L -0.604,1.083 C -0.516,0.389 -0.192,0.224 0.033,0.041 L 0.037,0.004 0.017,-0.005 Z"
         style="fill:#ee2329;fill-opacity:1;fill-rule:nonzero;stroke:none"
         id="path17020"
         inkscape:connector-curvature="0" />
    </g>
    <g
       id="g17022"
       transform="matrix(0.35277777,0,0,-0.35277777,59.242137,96.328612)">
      <path
         d="m 0,0 0.178,-0.158 0.206,0.12 -0.096,-0.218 0.178,-0.159 -0.237,0.024 -0.096,-0.218 -0.051,0.232 -0.236,0.024 0.205,0.121 z"
         style="fill:#ee2329;fill-opacity:1;fill-rule:nonzero;stroke:none"
         id="path17024"
         inkscape:connector-curvature="0" />
    </g>
    <g
       id="g17026"
       transform="matrix(0.35277777,0,0,-0.35277777,59.357556,97.31459)">
      <path
         d="M 0,0 C 0.081,1.114 1.174,1.986 2.286,1.891 2.896,1.839 3.903,1.247 3.977,0.144 3.652,0.475 3.294,0.652 2.989,0.27 2.655,-0.148 1.972,-0.223 1.538,0.24 1.2,0.603 0.337,0.736 0,0"
         style="fill:#ffffff;fill-opacity:1;fill-rule:nonzero;stroke:none"
         id="path17028"
         inkscape:connector-curvature="0" />
    </g>
    <g
       id="g17030"
       transform="matrix(0.35277777,0,0,-0.35277777,59.349267,97.311309)">
      <path
         d="m 0,0 c 0.102,0.263 0.175,0.654 0.824,0.954 l 0.211,0.083 c 0.546,0.176 0.944,0.011 0.946,0.01 L 1.995,1.014 1.962,1 C 1.961,1 1.868,1.039 1.706,1.058 1.544,1.076 1.316,1.074 1.051,0.988 L 0.846,0.908 C 0.212,0.611 0.153,0.252 0.048,-0.018 l -0.033,-0.015 -0.016,0.016 z"
         style="fill:#ee2329;fill-opacity:1;fill-rule:nonzero;stroke:none"
         id="path17032"
         inkscape:connector-curvature="0" />
    </g>
    <g
       id="g17034"
       transform="matrix(0.35277777,0,0,-0.35277777,60.260497,96.902017)">
      <path
         d="m 0,0 -0.096,-0.217 0.178,-0.159 -0.236,0.023 -0.097,-0.217 -0.05,0.232 -0.238,0.024 0.207,0.121 -0.051,0.232 0.178,-0.159 z"
         style="fill:#ee2329;fill-opacity:1;fill-rule:nonzero;stroke:none"
         id="path17036"
         inkscape:connector-curvature="0" />
    </g>
    <g
       id="g17038"
       transform="matrix(0.35277777,0,0,-0.35277777,59.357556,97.31459)">
      <path
         d="M 0,0 C 1.085,0.265 2.25,-0.507 2.502,-1.595 2.639,-2.191 2.384,-3.331 1.356,-3.74 1.572,-3.33 1.631,-2.936 1.174,-2.762 0.673,-2.572 0.393,-1.944 0.701,-1.389 0.942,-0.956 0.804,-0.094 0,0"
         style="fill:#ffffff;fill-opacity:1;fill-rule:nonzero;stroke:none"
         id="path17040"
         inkscape:connector-curvature="0" />
    </g>
    <g
       id="g17042"
       transform="matrix(0.35277777,0,0,-0.35277777,59.358226,97.305628)">
      <path
         d="m 0,0 c 0.281,-0.016 0.676,0.035 1.16,-0.491 l 0.144,-0.176 c 0.336,-0.466 0.3,-0.894 0.3,-0.897 L 1.576,-1.588 1.554,-1.561 c -0.001,0 0.008,0.103 -0.025,0.262 -0.032,0.16 -0.104,0.376 -0.266,0.603 l -0.14,0.17 c -0.477,0.513 -0.836,0.457 -1.126,0.475 l -0.024,0.027 0.011,0.02 z"
         style="fill:#ee2329;fill-opacity:1;fill-rule:nonzero;stroke:none"
         id="path17044"
         inkscape:connector-curvature="0" />
    </g>
    <g
       id="g17046"
       transform="matrix(0.35277777,0,0,-0.35277777,60.027277,98.047343)">
      <path
         d="m 0,0 -0.236,0.024 -0.097,-0.217 -0.05,0.233 -0.237,0.024 0.206,0.12 -0.05,0.233 0.178,-0.16 0.206,0.12 -0.097,-0.218 z"
         style="fill:#ee2329;fill-opacity:1;fill-rule:nonzero;stroke:none"
         id="path17048"
         inkscape:connector-curvature="0" />
    </g>
    <g
       id="g17050"
       transform="matrix(0.35277777,0,0,-0.35277777,59.357556,97.31459)">
      <path
         d="m 0,0 c 0.587,-0.951 0.208,-2.297 -0.751,-2.87 -0.524,-0.314 -1.688,-0.421 -2.393,0.432 0.457,-0.08 0.851,-0.014 0.875,0.474 0.028,0.534 0.54,0.995 1.162,0.871 C -0.621,-1.189 0.157,-0.793 0,0"
         style="fill:#ffffff;fill-opacity:1;fill-rule:nonzero;stroke:none"
         id="path17052"
         inkscape:connector-curvature="0" />
    </g>
    <g
       id="g17054"
       transform="matrix(0.35277777,0,0,-0.35277777,59.366518,97.312156)">
      <path
         d="m 0,0 c 0.071,-0.273 0.24,-0.632 -0.112,-1.255 l -0.123,-0.191 c -0.34,-0.462 -0.759,-0.561 -0.762,-0.561 l -0.031,0.019 0.019,0.03 c 0,10e-4 0.099,0.023 0.241,0.103 0.143,0.08 0.327,0.215 0.492,0.439 l 0.119,0.186 c 0.343,0.61 0.179,0.936 0.107,1.217 l 0.02,0.031 0.02,-0.004 z"
         style="fill:#ee2329;fill-opacity:1;fill-rule:nonzero;stroke:none"
         id="path17056"
         inkscape:connector-curvature="0" />
    </g>
    <g
       id="g17058"
       transform="matrix(0.35277777,0,0,-0.35277777,58.865577,98.176883)">
      <path
         d="M 0,0 -0.049,0.234 -0.286,0.258 -0.079,0.377 -0.129,0.61 0.048,0.451 0.255,0.569 0.157,0.352 0.334,0.192 0.097,0.219 Z"
         style="fill:#ee2329;fill-opacity:1;fill-rule:nonzero;stroke:none"
         id="path17060"
         inkscape:connector-curvature="0" />
    </g>
    <g
       id="g17062"
       transform="matrix(0.35277777,0,0,-0.35277777,59.357556,97.31459)">
      <path
         d="M 0,0 C -0.726,-0.849 -2.122,-0.901 -2.961,-0.165 -3.421,0.238 -3.88,1.312 -3.285,2.244 -3.22,1.785 -3.037,1.431 -2.565,1.557 -2.048,1.695 -1.453,1.349 -1.38,0.718 -1.322,0.227 -0.707,-0.392 0,0"
         style="fill:#ffffff;fill-opacity:1;fill-rule:nonzero;stroke:none"
         id="path17064"
         inkscape:connector-curvature="0" />
    </g>
    <g
       id="g17066"
       transform="matrix(0.35277777,0,0,-0.35277777,59.362356,97.322316)">
      <path
         d="m 0,0 c -0.236,-0.151 -0.527,-0.422 -1.229,-0.278 l -0.219,0.059 c -0.543,0.182 -0.766,0.55 -0.768,0.552 v 0 l 0.009,0.036 0.035,-0.009 c 0.001,0 0.053,-0.087 0.171,-0.198 0.12,-0.111 0.306,-0.245 0.569,-0.333 l 0.213,-0.056 c 0.687,-0.138 0.947,0.116 1.193,0.271 L 0.009,0.036 0.011,0.014 Z"
         style="fill:#ee2329;fill-opacity:1;fill-rule:nonzero;stroke:none"
         id="path17068"
         inkscape:connector-curvature="0" />
    </g>
    <g
       id="g17070"
       transform="matrix(0.35277777,0,0,-0.35277777,58.386046,97.110789)">
      <path
         d="M 0,0 0.207,0.119 0.158,0.352 0.335,0.192 0.542,0.31 0.443,0.093 0.62,-0.067 0.384,-0.041 0.285,-0.259 0.237,-0.025 Z"
         style="fill:#ee2329;fill-opacity:1;fill-rule:nonzero;stroke:none"
         id="path17072"
         inkscape:connector-curvature="0" />
    </g>
  </g>
</svg>
