<?xml version="1.0" encoding="UTF-8" standalone="no"?>
<!-- Created with Inkscape (http://www.inkscape.org/) -->

<svg
   xmlns:dc="http://purl.org/dc/elements/1.1/"
   xmlns:cc="http://creativecommons.org/ns#"
   xmlns:rdf="http://www.w3.org/1999/02/22-rdf-syntax-ns#"
   xmlns:svg="http://www.w3.org/2000/svg"
   xmlns="http://www.w3.org/2000/svg"
   xmlns:sodipodi="http://sodipodi.sourceforge.net/DTD/sodipodi-0.dtd"
   xmlns:inkscape="http://www.inkscape.org/namespaces/inkscape"
   width="7.0848398mm"
   height="4.732903mm"
   viewBox="0 0 7.0848398 4.732903"
   version="1.1"
   id="svg8"
   inkscape:version="0.92.4 (5da689c313, 2019-01-14)"
   sodipodi:docname="nicaragua.svg">
  <defs
     id="defs2">
    <radialGradient
       id="radialGradient37584"
       spreadMethod="pad"
       gradientTransform="matrix(0.975099,0,0,0.975099,159.64062,365.06934)"
       gradientUnits="userSpaceOnUse"
       r="1"
       cy="0"
       cx="0"
       fy="0"
       fx="0">
      <stop
         id="stop37578"
         offset="0"
         style="stop-opacity:1;stop-color:#852c26" />
      <stop
         id="stop37580"
         offset="0.0015476"
         style="stop-opacity:1;stop-color:#852c26" />
      <stop
         id="stop37582"
         offset="1"
         style="stop-opacity:1;stop-color:#451617" />
    </radialGradient>
    <clipPath
       id="clipPath37532"
       clipPathUnits="userSpaceOnUse">
      <path
         inkscape:connector-curvature="0"
         id="path37530"
         d="M 0,400 H 400 V 0 H 0 Z" />
    </clipPath>
    <radialGradient
       id="radialGradient37522"
       spreadMethod="pad"
       gradientTransform="matrix(-0.2637247,0,0,0.2637247,159.68652,365.88965)"
       gradientUnits="userSpaceOnUse"
       r="1"
       cy="0"
       cx="0"
       fy="0"
       fx="0">
      <stop
         id="stop37516"
         offset="0"
         style="stop-opacity:1;stop-color:#852c26" />
      <stop
         id="stop37518"
         offset="0.0015476"
         style="stop-opacity:1;stop-color:#852c26" />
      <stop
         id="stop37520"
         offset="1"
         style="stop-opacity:1;stop-color:#451617" />
    </radialGradient>
    <clipPath
       id="clipPath37354"
       clipPathUnits="userSpaceOnUse">
      <path
         inkscape:connector-curvature="0"
         id="path37352"
         d="M 0,400 H 400 V 0 H 0 Z" />
    </clipPath>
    <radialGradient
       id="radialGradient37344"
       spreadMethod="pad"
       gradientTransform="matrix(0.975099,0,0,0.975099,155.76025,365.06934)"
       gradientUnits="userSpaceOnUse"
       r="1"
       cy="0"
       cx="0"
       fy="0"
       fx="0">
      <stop
         id="stop37338"
         offset="0"
         style="stop-opacity:1;stop-color:#eee54f" />
      <stop
         id="stop37340"
         offset="0.9977451"
         style="stop-opacity:1;stop-color:#e04a20" />
      <stop
         id="stop37342"
         offset="1"
         style="stop-opacity:1;stop-color:#e04a20" />
    </radialGradient>
    <clipPath
       id="clipPath37272"
       clipPathUnits="userSpaceOnUse">
      <path
         inkscape:connector-curvature="0"
         id="path37270"
         d="M 0,400 H 400 V 0 H 0 Z" />
    </clipPath>
    <radialGradient
       id="radialGradient37262"
       spreadMethod="pad"
       gradientTransform="matrix(0.2636045,0,0,0.2636045,155.71484,365.89062)"
       gradientUnits="userSpaceOnUse"
       r="1"
       cy="0"
       cx="0"
       fy="0"
       fx="0">
      <stop
         id="stop37256"
         offset="0"
         style="stop-opacity:1;stop-color:#eee54f" />
      <stop
         id="stop37258"
         offset="0.9977451"
         style="stop-opacity:1;stop-color:#e04a20" />
      <stop
         id="stop37260"
         offset="1"
         style="stop-opacity:1;stop-color:#e04a20" />
    </radialGradient>
    <radialGradient
       id="radialGradient5422"
       spreadMethod="pad"
       gradientTransform="matrix(0.1021146,-0.0756367,0.070541,0.1077099,271.97559,176.14746)"
       gradientUnits="userSpaceOnUse"
       r="1"
       cy="0"
       cx="0"
       fy="0"
       fx="0">
      <stop
         id="stop5416"
         offset="0"
         style="stop-opacity:1;stop-color:#ffffff" />
      <stop
         id="stop5418"
         offset="0.00091915"
         style="stop-opacity:1;stop-color:#ffffff" />
      <stop
         id="stop5420"
         offset="1"
         style="stop-opacity:1;stop-color:#e63e6e" />
    </radialGradient>
    <clipPath
       id="clipPath5374"
       clipPathUnits="userSpaceOnUse">
      <path
         inkscape:connector-curvature="0"
         id="path5372"
         d="M 0,400 H 400 V 0 H 0 Z" />
    </clipPath>
    <radialGradient
       id="radialGradient5364"
       spreadMethod="pad"
       gradientTransform="matrix(0.1318831,-9.013e-4,-1.001e-4,0.1311822,269.56445,176.4248)"
       gradientUnits="userSpaceOnUse"
       r="1"
       cy="0"
       cx="0"
       fy="0"
       fx="0">
      <stop
         id="stop5358"
         offset="0"
         style="stop-opacity:1;stop-color:#ffffff" />
      <stop
         id="stop5360"
         offset="0.00091915"
         style="stop-opacity:1;stop-color:#ffffff" />
      <stop
         id="stop5362"
         offset="1"
         style="stop-opacity:1;stop-color:#e63e6e" />
    </radialGradient>
    <clipPath
       id="clipPath5316"
       clipPathUnits="userSpaceOnUse">
      <path
         inkscape:connector-curvature="0"
         id="path5314"
         d="M 0,400 H 400 V 0 H 0 Z" />
    </clipPath>
    <radialGradient
       id="radialGradient5306"
       spreadMethod="pad"
       gradientTransform="matrix(0.1105445,0.0935377,-0.0930375,0.1086438,268.6875,176.89062)"
       gradientUnits="userSpaceOnUse"
       r="1"
       cy="0"
       cx="0"
       fy="0"
       fx="0">
      <stop
         id="stop5300"
         offset="0"
         style="stop-opacity:1;stop-color:#ffffff" />
      <stop
         id="stop5302"
         offset="0.00091915"
         style="stop-opacity:1;stop-color:#ffffff" />
      <stop
         id="stop5304"
         offset="1"
         style="stop-opacity:1;stop-color:#e63e6e" />
    </radialGradient>
  </defs>
  <sodipodi:namedview
     id="base"
     pagecolor="#ffffff"
     bordercolor="#666666"
     borderopacity="1.0"
     inkscape:pageopacity="0.0"
     inkscape:pageshadow="2"
     inkscape:zoom="11.2"
     inkscape:cx="14.224648"
     inkscape:cy="8.2361389"
     inkscape:document-units="mm"
     inkscape:current-layer="layer1"
     showgrid="false"
     inkscape:window-width="954"
     inkscape:window-height="630"
     inkscape:window-x="-3"
     inkscape:window-y="6"
     inkscape:window-maximized="0" />
  <metadata
     id="metadata5">
    <rdf:RDF>
      <cc:Work
         rdf:about="">
        <dc:format>image/svg+xml</dc:format>
        <dc:type
           rdf:resource="http://purl.org/dc/dcmitype/StillImage" />
        <dc:title></dc:title>
      </cc:Work>
    </rdf:RDF>
  </metadata>
  <g
     inkscape:label="Layer 1"
     inkscape:groupmode="layer"
     id="layer1"
     transform="translate(-57.51851,-95.007189)">
    <path
       d="m 57.54779,99.710352 h 7.02628 v -4.674306 h -7.02628 z m 7.0411,0.0152 v -0.0152 z m -7.07038,0.0145 v -4.732863 h 7.08484 v 4.718403 0.0145 z"
       style="fill:#221f21;fill-opacity:1;fill-rule:nonzero;stroke:none;stroke-width:0.35277778"
       id="path2120"
       inkscape:connector-curvature="0" />
    <path
       d="m 57.53333,99.725172 h 7.05556 v -1.567748 h -7.05556 z"
       style="fill:#3765b9;fill-opacity:1;fill-rule:nonzero;stroke:none;stroke-width:0.35277778"
       id="path2122"
       inkscape:connector-curvature="0" />
    <path
       d="m 57.53333,98.157424 h 7.05556 V 96.58968 h -7.05556 z"
       style="fill:#ffffff;fill-opacity:1;fill-rule:nonzero;stroke:none;stroke-width:0.35277778"
       id="path2124"
       inkscape:connector-curvature="0" />
    <path
       d="m 64.58889,95.021582 h -7.05556 v 1.567745 h 7.05556 z"
       style="fill:#3765b9;fill-opacity:1;fill-rule:nonzero;stroke:none;stroke-width:0.35277778"
       id="path2126"
       inkscape:connector-curvature="0" />
    <g
       id="g2128"
       transform="matrix(0.35277777,0,0,-0.35277777,61.058387,96.684295)">
      <path
         d="M 0,0 H 0.018 L 0.254,-0.018 0.275,-0.101 0.259,-0.107 0.147,-0.03 0.111,-0.047 0.104,-0.148 l 0.048,0.003 0.032,0.04 h 0.02 L 0.195,-0.232 0.176,-0.23 0.154,-0.187 0.102,-0.174 0.096,-0.252 0.1,-0.289 l 0.036,-0.01 0.12,0.059 0.014,-0.009 -0.038,-0.078 -0.253,0.016 0.001,0.018 0.041,0.025 0.015,0.206 -0.004,0.032 -0.033,0.012 z"
         style="fill:#363424;fill-opacity:1;fill-rule:nonzero;stroke:none"
         id="path2130"
         inkscape:connector-curvature="0" />
    </g>
    <g
       id="g2132"
       transform="matrix(0.35277777,0,0,-0.35277777,61.059417,96.68634)">
      <path
         d="M 0,0 0.246,-0.016 0.265,-0.092 0.258,-0.094 0.171,-0.025 0.117,-0.021 0.101,-0.053 0.095,-0.147 0.156,-0.142 0.185,-0.104 0.196,-0.105 0.188,-0.221 0.177,-0.219 0.153,-0.176 0.094,-0.162 0.088,-0.27 0.117,-0.298 0.255,-0.241 0.261,-0.244 0.227,-0.316 -0.019,-0.3 v 0.007 l 0.036,0.012 0.009,0.038 0.012,0.198 -0.019,0.033 z"
         style="fill:#efbc26;fill-opacity:1;fill-rule:nonzero;stroke:none"
         id="path2134"
         inkscape:connector-curvature="0" />
    </g>
    <g
       id="g2136"
       transform="matrix(0.35277777,0,0,-0.35277777,60.930227,96.696323)">
      <path
         d="M 0,0 0.157,0.018 0.268,-0.011 0.3,-0.232 0.219,-0.286 0.122,-0.3 0.033,-0.31 l -0.002,0.019 0.031,0.01 0.005,0.032 -0.022,0.202 -0.01,0.025 -0.033,0.004 z"
         style="fill:#3a3831;fill-opacity:1;fill-rule:nonzero;stroke:none"
         id="path2138"
         inkscape:connector-curvature="0" />
    </g>
    <g
       id="g2140"
       transform="matrix(0.35277777,0,0,-0.35277777,60.932627,96.698051)">
      <path
         d="M 0,0 0.147,0.018 0.259,-0.012 0.284,-0.23 0.186,-0.281 0.03,-0.298 l 0.002,0.006 0.033,0.024 -0.003,0.058 -0.018,0.164 -0.012,0.032 -0.033,0.007 z"
         style="fill:#efbc26;fill-opacity:1;fill-rule:nonzero;stroke:none"
         id="path2142"
         inkscape:connector-curvature="0" />
    </g>
    <g
       id="g2144"
       transform="matrix(0.35277777,0,0,-0.35277777,60.981197,96.696323)">
      <path
         d="M 0,0 0.072,-0.02 0.109,-0.117 0.097,-0.24 0.009,-0.277 l -0.019,0.031 -0.021,0.203 0.002,0.03 z"
         style="fill:#3e392f;fill-opacity:1;fill-rule:nonzero;stroke:none"
         id="path2146"
         inkscape:connector-curvature="0" />
    </g>
    <g
       id="g2148"
       transform="matrix(0.35277777,0,0,-0.35277777,60.981907,96.698051)">
      <path
         d="M 0,0 0.072,-0.025 0.104,-0.132 0.092,-0.23 0.007,-0.267 l -0.012,0.023 -0.022,0.198 0.001,0.036 z"
         style="fill:#ffffff;fill-opacity:1;fill-rule:nonzero;stroke:none"
         id="path2150"
         inkscape:connector-curvature="0" />
    </g>
    <g
       id="g2152"
       transform="matrix(0.35277777,0,0,-0.35277777,61.224437,96.703591)">
      <path
         d="m 0,0 0.104,-0.034 0.07,-0.241 0.042,0.125 0.003,0.045 -0.028,0.023 0.006,0.015 L 0.305,-0.104 0.299,-0.12 0.254,-0.132 0.23,-0.191 0.166,-0.385 0.127,-0.37 C 0.1,-0.28 0.074,-0.19 0.047,-0.1 L 0.004,-0.224 -0.01,-0.283 0.024,-0.317 0.019,-0.334 l -0.116,0.039 0.005,0.018 0.045,0.005 0.02,0.036 0.058,0.177 -0.032,0.039 z"
         style="fill:#363424;fill-opacity:1;fill-rule:nonzero;stroke:none"
         id="path2154"
         inkscape:connector-curvature="0" />
    </g>
    <g
       id="g2156"
       transform="matrix(0.35277777,0,0,-0.35277777,61.224757,96.707012)">
      <path
         d="m 0,0 0.021,-0.002 0.078,-0.027 0.07,-0.242 0.005,-0.009 0.05,0.147 -0.012,0.053 -0.01,0.016 0.094,-0.032 0.001,-0.008 -0.037,-0.004 -0.027,-0.044 -0.072,-0.216 -0.03,0.01 c -0.029,0.094 -0.056,0.189 -0.085,0.284 l -0.007,-0.015 -0.048,-0.146 -0.006,-0.044 0.033,-0.033 -0.003,-0.005 -0.104,0.034 -0.002,0.009 0.047,0.007 0.022,0.043 0.055,0.167 -0.011,0.033 z"
         style="fill:#efbc26;fill-opacity:1;fill-rule:nonzero;stroke:none"
         id="path2158"
         inkscape:connector-curvature="0" />
    </g>
    <g
       id="g2160"
       transform="matrix(0.35277777,0,0,-0.35277777,60.799307,96.741832)">
      <path
         d="m 0,0 0.049,0.04 0.176,-0.217 0.024,-0.019 0.031,0.004 0.007,-0.018 -0.14,-0.057 -0.005,0.017 0.023,0.028 -0.044,0.059 -0.094,-0.039 0.01,-0.069 0.041,-0.005 0.008,-0.017 -0.108,-0.044 -0.005,0.018 0.03,0.058 -0.006,0.245 z"
         style="fill:#413c20;fill-opacity:1;fill-rule:nonzero;stroke:none"
         id="path2162"
         inkscape:connector-curvature="0" />
    </g>
    <g
       id="g2164"
       transform="matrix(0.35277777,0,0,-0.35277777,60.801357,96.742855)">
      <path
         d="M 0,0 0.041,0.034 0.051,0.024 0.214,-0.178 0.259,-0.199 0.272,-0.204 0.146,-0.257 0.143,-0.251 0.166,-0.23 0.155,-0.201 0.117,-0.154 0.016,-0.195 0.026,-0.27 0.072,-0.281 0.07,-0.287 l -0.093,-0.039 -0.004,0.007 0.025,0.034 0.004,0.074 -0.006,0.19 z"
         style="fill:#efbc26;fill-opacity:1;fill-rule:nonzero;stroke:none"
         id="path2166"
         inkscape:connector-curvature="0" />
    </g>
    <g
       id="g2168"
       transform="matrix(0.35277777,0,0,-0.35277777,61.339837,96.752486)">
      <path
         d="M 0,0 0.009,0.016 0.145,-0.054 0.138,-0.07 0.106,-0.062 0.087,-0.081 -0.007,-0.268 -0.01,-0.295 l 0.026,-0.02 -0.009,-0.017 -0.137,0.069 0.008,0.017 0.037,-0.005 0.023,0.038 0.086,0.172 z"
         style="fill:#363424;fill-opacity:1;fill-rule:nonzero;stroke:none"
         id="path2170"
         inkscape:connector-curvature="0" />
    </g>
    <g
       id="g2172"
       transform="matrix(0.35277777,0,0,-0.35277777,61.343647,96.749735)">
      <path
         d="M 0,0 0.127,-0.063 0.123,-0.07 0.091,-0.065 0.064,-0.102 l -0.076,-0.149 -0.015,-0.048 0.025,-0.028 -0.019,0.002 -0.111,0.056 -0.001,0.008 0.035,-0.005 0.026,0.033 0.078,0.156 0.015,0.045 -0.025,0.027 z"
         style="fill:#efbc26;fill-opacity:1;fill-rule:nonzero;stroke:none"
         id="path2174"
         inkscape:connector-curvature="0" />
    </g>
    <g
       id="g2176"
       transform="matrix(0.35277777,0,0,-0.35277777,60.805517,96.752486)">
      <path
         d="M 0,0 0.095,-0.115 0.004,-0.152 Z"
         style="fill:#363424;fill-opacity:1;fill-rule:nonzero;stroke:none"
         id="path2178"
         inkscape:connector-curvature="0" />
    </g>
    <g
       id="g2180"
       transform="matrix(0.35277777,0,0,-0.35277777,60.807207,96.75732)">
      <path
         d="M 0,0 0.082,-0.1 0.004,-0.131 Z"
         style="fill:#ffffff;fill-opacity:1;fill-rule:nonzero;stroke:none"
         id="path2182"
         inkscape:connector-curvature="0" />
    </g>
    <g
       id="g2184"
       transform="matrix(0.35277777,0,0,-0.35277777,60.719727,96.780389)">
      <path
         d="m 0,0 0.031,0.034 0.073,-0.068 -0.014,-0.019 -0.093,0.029 -0.061,-0.049 0.018,-0.088 0.081,-0.092 0.094,0.009 0.033,0.092 0.019,-0.001 -0.024,-0.106 -0.122,-0.061 -0.116,0.067 -0.035,0.117 0.068,0.119 z"
         style="fill:#363424;fill-opacity:1;fill-rule:nonzero;stroke:none"
         id="path2186"
         inkscape:connector-curvature="0" />
    </g>
    <g
       id="g2188"
       transform="matrix(0.35277777,0,0,-0.35277777,60.731077,96.77143)">
      <path
         d="m 0,0 0.065,-0.06 -0.008,-0.011 -0.092,0.027 -0.067,-0.055 0.024,-0.099 0.088,-0.088 0.084,0.008 0.039,0.075 0.01,0.02 -0.028,-0.106 -0.108,-0.052 -0.098,0.044 -0.052,0.14 0.057,0.105 0.057,0.022 z"
         style="fill:#efbc26;fill-opacity:1;fill-rule:nonzero;stroke:none"
         id="path2190"
         inkscape:connector-curvature="0" />
    </g>
    <g
       id="g2192"
       transform="matrix(0.35277777,0,0,-0.35277777,61.402207,96.800709)">
      <path
         d="M 0,0 0.122,-0.006 0.167,-0.051 0.213,-0.069 0.18,-0.165 0.158,-0.157 0.146,-0.057 0.078,-0.023 0.006,-0.076 -0.045,-0.187 0.004,-0.271 0.097,-0.266 0.104,-0.281 -0.012,-0.3 -0.101,-0.227 -0.113,-0.141 Z"
         style="fill:#363424;fill-opacity:1;fill-rule:nonzero;stroke:none"
         id="path2194"
         inkscape:connector-curvature="0" />
    </g>
    <g
       id="g2196"
       transform="matrix(0.35277777,0,0,-0.35277777,61.412857,96.799333)">
      <path
         d="m 0,0 0.11,-0.031 0.029,-0.032 0.037,-0.014 -0.03,-0.085 -0.012,0.006 -0.012,0.094 -0.072,0.041 -0.07,-0.044 -0.06,-0.128 0.049,-0.086 0.094,0.004 -0.007,-0.013 -0.094,-0.012 -0.094,0.086 0.016,0.129 z"
         style="fill:#efbc26;fill-opacity:1;fill-rule:nonzero;stroke:none"
         id="path2198"
         inkscape:connector-curvature="0" />
    </g>
    <g
       id="g2200"
       transform="matrix(0.35277777,0,0,-0.35277777,60.606377,96.861706)">
      <path
         d="M 0,0 0.116,0.099 0.129,0.084 0.109,0.056 0.123,0.027 0.235,-0.108 0.231,-0.11 0.135,0.005 0.104,0.053 0.121,0.089 0.104,0.08 0.006,-0.002 0.027,0.001 0.067,-0.012 0.193,-0.165 0.21,-0.196 0.192,-0.231 l 0.037,0.023 0.076,0.066 -0.001,0.007 -0.036,-0.012 -0.037,0.034 0.001,0.001 0.01,-0.002 0.037,-0.028 0.024,0.015 0.01,-0.016 -0.116,-0.098 -0.011,0.015 0.018,0.03 -0.019,0.033 -0.12,0.145 L 0.039,0 0.011,-0.015 Z"
         style="fill:#363424;fill-opacity:1;fill-rule:nonzero;stroke:none"
         id="path2202"
         inkscape:connector-curvature="0" />
    </g>
    <g
       id="g2204"
       transform="matrix(0.35277777,0,0,-0.35277777,60.642887,96.833449)">
      <path
         d="M 0,0 0.018,0.009 0,-0.027 0.031,-0.075 0.128,-0.19 0.129,-0.192 0.128,-0.193 0.164,-0.228 0.2,-0.215 0.201,-0.222 0.125,-0.288 0.089,-0.312 l 0.017,0.036 -0.016,0.031 -0.126,0.153 -0.04,0.013 -0.022,-0.003 z"
         style="fill:#efbc26;fill-opacity:1;fill-rule:nonzero;stroke:none"
         id="path2206"
         inkscape:connector-curvature="0" />
    </g>
    <g
       id="g2208"
       transform="matrix(0.35277777,0,0,-0.35277777,61.061457,96.845866)">
      <path
         d="m 0,0 -1.315,-2.278 h 2.63 z"
         style="fill:#efbc23;fill-opacity:1;fill-rule:nonzero;stroke:none"
         id="path2210"
         inkscape:connector-curvature="0" />
    </g>
    <g
       id="g2212"
       transform="matrix(0.35277777,0,0,-0.35277777,61.524157,96.878568)">
      <path
         d="m 0,0 0.014,0.002 0.055,-0.027 -0.1,-0.201 -0.031,-0.066 0.013,-0.044 -0.013,-0.013 -0.108,0.107 0.014,0.013 0.03,-0.015 0.039,0.068 -0.073,0.072 -0.057,-0.038 0.01,-0.041 -0.01,-0.011 -0.075,0.072 -0.005,0.012 0.009,0.009 0.069,-0.003 z"
         style="fill:#363424;fill-opacity:1;fill-rule:nonzero;stroke:none"
         id="path2214"
         inkscape:connector-curvature="0" />
    </g>
    <g
       id="g2216"
       transform="matrix(0.35277777,0,0,-0.35277777,61.454207,96.914411)">
      <path
         d="M 0,0 0.206,0.1 0.261,0.072 0.14,-0.168 0.132,-0.219 0.136,-0.24 0.038,-0.143 0.056,-0.146 0.085,-0.136 0.118,-0.073 0.041,0.002 0,-0.016 l -0.025,-0.041 0.006,-0.029 -0.074,0.074 0.004,0.006 0.035,-0.01 z"
         style="fill:#efbc26;fill-opacity:1;fill-rule:nonzero;stroke:none"
         id="path2218"
         inkscape:connector-curvature="0" />
    </g>
    <g
       id="g2220"
       transform="matrix(0.35277777,0,0,-0.35277777,61.473857,96.910953)">
      <path
         d="M 0,0 0.135,0.064 0.072,-0.064 0.062,-0.063 Z"
         style="fill:#3a341c;fill-opacity:1;fill-rule:nonzero;stroke:none"
         id="path2222"
         inkscape:connector-curvature="0" />
    </g>
    <g
       id="g2224"
       transform="matrix(0.35277777,0,0,-0.35277777,61.476607,96.91166)">
      <path
         d="M 0,0 0.118,0.058 0.06,-0.059 Z"
         style="fill:#ffffff;fill-opacity:1;fill-rule:nonzero;stroke:none"
         id="path2226"
         inkscape:connector-curvature="0" />
    </g>
    <g
       id="g2228"
       transform="matrix(0.35277777,0,0,-0.35277777,61.061137,96.89924)">
      <path
         d="m 0,0 c 0,0 0.129,-0.224 0.19,-0.332 l -0.184,0.027 v 0.284 L -0.005,-0.023 C -0.006,-0.117 -0.006,-0.211 -0.006,-0.305 L -0.187,-0.328 C -0.129,-0.222 0,0 0,0"
         style="fill:#83d3f3;fill-opacity:1;fill-rule:nonzero;stroke:none"
         id="path2230"
         inkscape:connector-curvature="0" />
    </g>
    <g
       id="g2232"
       transform="matrix(0.35277777,0,0,-0.35277777,60.527847,96.944714)">
      <path
         d="M 0,0 0.104,0.115 0.117,0.102 0.103,0.066 0.13,0.035 0.272,-0.095 0.301,-0.097 0.34,0.053 0.354,0.06 0.398,-0.02 0.229,-0.209 0.216,-0.197 0.223,-0.15 0.081,-0.02 0.047,0.006 0.014,-0.013 Z"
         style="fill:#363424;fill-opacity:1;fill-rule:nonzero;stroke:none"
         id="path2234"
         inkscape:connector-curvature="0" />
    </g>
    <g
       id="g2236"
       transform="matrix(0.35277777,0,0,-0.35277777,60.563657,96.907884)">
      <path
         d="M 0,0 0.009,-0.001 -0.006,-0.03 0.012,-0.061 0.166,-0.202 0.2,-0.206 l 0.044,0.153 0.007,-0.003 0.04,-0.067 -0.164,-0.184 -0.005,0.005 0.013,0.031 -0.018,0.028 -0.141,0.131 -0.035,0.019 -0.031,-0.017 0.006,0.016 z"
         style="fill:#efbc26;fill-opacity:1;fill-rule:nonzero;stroke:none"
         id="path2238"
         inkscape:connector-curvature="0" />
    </g>
    <g
       id="g2240"
       transform="matrix(0.35277777,0,0,-0.35277777,61.059417,96.907532)">
      <path
         d="m 0,0 0.011,0.002 v -0.283 h -0.012 c 0,0.094 0,0.187 0.001,0.281"
         style="fill:#fafdfe;fill-opacity:1;fill-rule:nonzero;stroke:none"
         id="path2242"
         inkscape:connector-curvature="0" />
    </g>
    <g
       id="g2244"
       transform="matrix(0.35277777,0,0,-0.35277777,61.588227,96.946124)">
      <path
         d="m 0,0 0.016,0.01 0.102,-0.153 0.02,-0.087 -0.068,-0.053 -0.066,0.031 -0.057,-0.12 0.007,-0.048 -0.016,-0.01 -0.057,0.088 0.055,0.101 0.009,0.063 -0.07,-0.049 -0.024,-0.026 0.012,-0.03 -0.015,-0.011 -0.086,0.128 0.014,0.011 0.021,-0.021 0.033,0.008 0.163,0.113 0.019,0.021 z"
         style="fill:#363424;fill-opacity:1;fill-rule:nonzero;stroke:none"
         id="path2246"
         inkscape:connector-curvature="0" />
    </g>
    <g
       id="g2248"
       transform="matrix(0.35277777,0,0,-0.35277777,61.593407,96.951982)">
      <path
         d="M 0,0 -0.001,0.019 0.094,-0.12 0.12,-0.208 0.049,-0.261 l -0.064,0.037 -0.035,-0.08 -0.021,-0.087 -0.002,-0.014 -0.056,0.081 0.064,0.116 -0.003,0.055 -0.076,-0.053 -0.025,-0.029 0.008,-0.032 -0.004,-0.004 -0.08,0.12 0.006,0.005 0.027,-0.021 0.034,0.014 0.165,0.115 z"
         style="fill:#efbc26;fill-opacity:1;fill-rule:nonzero;stroke:none"
         id="path2250"
         inkscape:connector-curvature="0" />
    </g>
    <g
       id="g2252"
       transform="matrix(0.35277777,0,0,-0.35277777,60.506117,96.981933)">
      <path
         d="M 0,0 0.038,0.018 0.104,-0.03 0.101,-0.09 0.167,-0.051 0.25,-0.131 0.222,-0.209 0.125,-0.363 0.109,-0.354 0.12,-0.321 0.1,-0.299 l -0.167,0.108 -0.03,0.008 -0.023,-0.023 -0.015,0.011 0.064,0.101 z"
         style="fill:#363424;fill-opacity:1;fill-rule:nonzero;stroke:none"
         id="path2254"
         inkscape:connector-curvature="0" />
    </g>
    <g
       id="g2256"
       transform="matrix(0.35277777,0,0,-0.35277777,60.505097,96.985037)">
      <path
         d="m 0,0 0.049,0.022 0.054,-0.048 -0.01,-0.07 0.021,0.018 0.064,0.031 0.062,-0.04 0.006,-0.048 -0.051,-0.101 -0.07,-0.112 0.002,0.023 -0.018,0.037 -0.172,0.111 -0.037,0.006 -0.022,-0.019 0.005,0.017 0.06,0.097 z"
         style="fill:#efbc26;fill-opacity:1;fill-rule:nonzero;stroke:none"
         id="path2258"
         inkscape:connector-curvature="0" />
    </g>
    <g
       id="g2260"
       transform="matrix(0.35277777,0,0,-0.35277777,61.602337,96.983309)">
      <path
         d="M 0,0 0.029,0.004 0.058,-0.045 0.04,-0.098 -0.024,-0.115 -0.082,-0.057 Z"
         style="fill:#363424;fill-opacity:1;fill-rule:nonzero;stroke:none"
         id="path2262"
         inkscape:connector-curvature="0" />
    </g>
    <g
       id="g2264"
       transform="matrix(0.35277777,0,0,-0.35277777,61.575847,97.003629)">
      <path
         d="M 0,0 0.094,0.062 0.124,0.022 0.117,-0.03 0.049,-0.051 Z"
         style="fill:#ffffff;fill-opacity:1;fill-rule:nonzero;stroke:none"
         id="path2266"
         inkscape:connector-curvature="0" />
    </g>
    <g
       id="g2268"
       transform="matrix(0.35277777,0,0,-0.35277777,60.503717,96.997771)">
      <path
         d="m 0,0 0.057,-0.017 0.021,-0.045 -0.033,-0.071 -0.084,0.055 -0.005,0.035 z"
         style="fill:#363424;fill-opacity:1;fill-rule:nonzero;stroke:none"
         id="path2270"
         inkscape:connector-curvature="0" />
    </g>
    <g
       id="g2272"
       transform="matrix(0.35277777,0,0,-0.35277777,60.499237,97.001935)">
      <path
         d="m 0,0 0.046,0.004 0.039,-0.043 -0.029,-0.074 -0.077,0.049 -0.009,0.02 z"
         style="fill:#ffffff;fill-opacity:1;fill-rule:nonzero;stroke:none"
         id="path2274"
         inkscape:connector-curvature="0" />
    </g>
    <g
       id="g2276"
       transform="matrix(0.35277777,0,0,-0.35277777,60.994997,97.015024)">
      <path
         d="M 0,0 0.182,0.023 H 0.193 L 0.378,-0.004 H 0.379 L 0.416,-0.07 0.219,-0.023 -0.04,-0.068 -0.002,-0.001 Z"
         style="fill:#314b96;fill-opacity:1;fill-rule:nonzero;stroke:none"
         id="path2278"
         inkscape:connector-curvature="0" />
    </g>
    <g
       id="g2280"
       transform="matrix(0.35277777,0,0,-0.35277777,60.544007,97.022255)">
      <path
         d="M 0,0 H 0.05 L 0.101,-0.052 0.072,-0.131 H 0.035 l -0.093,0.06 z"
         style="fill:#3a341c;fill-opacity:1;fill-rule:nonzero;stroke:none"
         id="path2282"
         inkscape:connector-curvature="0" />
    </g>
    <g
       id="g2284"
       transform="matrix(0.35277777,0,0,-0.35277777,60.540937,97.027052)">
      <path
         d="M 0,0 0.052,0.011 0.105,-0.05 0.077,-0.112 H 0.048 l -0.089,0.055 z"
         style="fill:#ffffff;fill-opacity:1;fill-rule:nonzero;stroke:none"
         id="path2286"
         inkscape:connector-curvature="0" />
    </g>
    <g
       id="g2288"
       transform="matrix(0.35277777,0,0,-0.35277777,60.980847,97.039117)">
      <path
         d="m 0,0 0.259,0.045 0.197,-0.047 0.033,-0.056 -0.05,0.019 -0.231,0.035 -0.25,-0.068 z"
         style="fill:#548db9;fill-opacity:1;fill-rule:nonzero;stroke:none"
         id="path2290"
         inkscape:connector-curvature="0" />
    </g>
    <g
       id="g2292"
       transform="matrix(0.35277777,0,0,-0.35277777,60.966027,97.064623)">
      <path
         d="M 0,0 0.25,0.068 0.481,0.033 0.531,0.015 V 0.014 l 0.048,-0.08 -0.06,0.03 C 0.38,0.025 0.218,0.032 0.074,-0.016 L -0.041,-0.072 -0.001,0 Z"
         style="fill:#7ac036;fill-opacity:1;fill-rule:nonzero;stroke:none"
         id="path2294"
         inkscape:connector-curvature="0" />
    </g>
    <g
       id="g2296"
       transform="matrix(0.35277777,0,0,-0.35277777,60.992247,97.070127)">
      <path
         d="m 0,0 c 0.144,0.048 0.306,0.041 0.444,-0.021 l 0.061,-0.03 0.011,-0.013 0.025,-0.046 0.003,-0.019 -0.182,0.085 c -0.09,0.023 -0.184,0.025 -0.276,0.012 l -0.244,-0.102 0.027,0.051 0.016,0.026 z"
         style="fill:#efbc26;fill-opacity:1;fill-rule:nonzero;stroke:none"
         id="path2298"
         inkscape:connector-curvature="0" />
    </g>
    <g
       id="g2300"
       transform="matrix(0.35277777,0,0,-0.35277777,60.438947,97.095632)">
      <path
         d="M 0,0 0.039,0.099 0.057,0.092 0.053,0.059 0.081,0.038 0.208,-0.014 0.277,-0.067 0.276,-0.16 0.219,-0.241 0.133,-0.246 l -0.137,0.056 -0.034,0.01 -0.025,-0.028 -0.018,0.007 0.058,0.142 0.017,-0.006 L -0.01,-0.1 0.014,-0.117 0.157,-0.177 0.222,-0.187 0.256,-0.153 0.26,-0.085 0.194,-0.037 0.065,0.016 0.037,0.02 0.017,-0.009 Z"
         style="fill:#524924;fill-opacity:1;fill-rule:nonzero;stroke:none"
         id="path2302"
         inkscape:connector-curvature="0" />
    </g>
    <g
       id="g2304"
       transform="matrix(0.35277777,0,0,-0.35277777,60.454117,97.063599)">
      <path
         d="m 0,0 0.003,-0.024 0.024,-0.03 0.147,-0.06 0.06,-0.059 -0.017,-0.102 -0.063,-0.061 -0.064,0.005 -0.147,0.06 -0.031,0.004 -0.024,-0.026 -0.003,0.005 0.053,0.133 0.001,-0.021 0.025,-0.035 0.148,-0.062 0.074,-0.007 0.041,0.059 -0.016,0.063 -0.059,0.035 -0.129,0.054 -0.039,-0.001 -0.019,-0.021 z"
         style="fill:#efbc26;fill-opacity:1;fill-rule:nonzero;stroke:none"
         id="path2306"
         inkscape:connector-curvature="0" />
    </g>
    <g
       id="g2308"
       transform="matrix(0.35277777,0,0,-0.35277777,61.022547,97.081485)">
      <path
         d="M 0,0 C 0.092,0.014 0.187,0.011 0.276,-0.012 L 0.458,-0.097 0.488,-0.141 0.52,-0.195 0.377,-0.098 0.16,-0.042 c -0.096,0.006 -0.193,-0.006 -0.283,-0.04 l -0.176,-0.11 0.033,0.058 0.022,0.032 z"
         style="fill:#c5203d;fill-opacity:1;fill-rule:nonzero;stroke:none"
         id="path2310"
         inkscape:connector-curvature="0" />
    </g>
    <g
       id="g2312"
       transform="matrix(0.35277777,0,0,-0.35277777,60.979117,97.110449)">
      <path
         d="M 0,0 C 0.09,0.034 0.187,0.046 0.283,0.04 L 0.5,-0.016 0.643,-0.113 0.697,-0.21 0.643,-0.159 0.634,-0.152 0.439,-0.042 0.43,-0.039 0.238,-0.006 H 0.227 L 0.04,-0.038 0.029,-0.041 l -0.195,-0.11 -0.01,-0.006 -0.057,-0.054 0.057,0.101 z"
         style="fill:#ae1b8e;fill-opacity:1;fill-rule:nonzero;stroke:none"
         id="path2314"
         inkscape:connector-curvature="0" />
    </g>
    <g
       id="g2316"
       transform="matrix(0.35277777,0,0,-0.35277777,61.568257,97.100114)">
      <path
         d="m 0,0 0.017,0.006 0.056,-0.03 0.234,0.005 0.026,-0.002 0.04,-0.048 L 0.152,-0.255 0.143,-0.306 0.127,-0.312 0.069,-0.171 0.087,-0.167 0.104,-0.191 0.17,-0.146 0.133,-0.049 0.066,-0.059 0.061,-0.101 0.043,-0.107 Z"
         style="fill:#3a3622;fill-opacity:1;fill-rule:nonzero;stroke:none"
         id="path2318"
         inkscape:connector-curvature="0" />
    </g>
    <g
       id="g2320"
       transform="matrix(0.35277777,0,0,-0.35277777,61.570657,97.101136)">
      <path
         d="M 0,0 0.008,0.002 0.047,-0.024 0.124,-0.025 0.319,-0.02 0.358,-0.065 0.143,-0.246 0.126,-0.275 0.128,-0.302 0.116,-0.287 0.069,-0.17 0.093,-0.19 0.122,-0.183 0.171,-0.143 0.13,-0.041 0.073,-0.045 0.048,-0.062 0.046,-0.096 0.039,-0.097 Z"
         style="fill:#efbc26;fill-opacity:1;fill-rule:nonzero;stroke:none"
         id="path2322"
         inkscape:connector-curvature="0" />
    </g>
    <g
       id="g2324"
       transform="matrix(0.35277777,0,0,-0.35277777,60.993267,97.12389)">
      <path
         d="m 0,0 0.187,0.032 v -0.205 h 0.011 v 0.205 l 0.192,-0.033 -0.113,-0.194 0.011,-0.004 0.111,0.195 0.195,-0.11 -0.252,-0.147 0.03,0.006 0.231,0.134 0.054,-0.051 c 0.061,-0.099 0.116,-0.2 0.175,-0.3 L 0.974,-0.719 1.037,-0.83 0.853,-0.725 C 0.701,-0.637 0.55,-0.55 0.398,-0.463 L 0.345,-0.432 0.341,-0.441 c 0.226,-0.131 0.455,-0.262 0.682,-0.395 l 0.019,-0.002 v 0.001 l 0.117,-0.206 -0.064,10e-4 -0.045,0.026 -0.119,0.1 -0.012,0.01 -0.017,0.015 -0.014,0.013 -0.013,0.011 -0.01,0.008 -0.01,0.007 -0.1,0.075 L 0.706,-0.766 0.673,-0.828 0.557,-0.77 0.507,-0.761 0.464,-0.804 0.336,-0.582 0.283,-0.494 0.277,-0.502 0.405,-0.725 0.459,-0.816 0.458,-0.82 0.421,-0.794 0.265,-0.686 0.229,-0.679 0.198,-0.732 0.197,-0.521 0.187,-0.533 v -0.212 l -0.119,0.069 -0.053,0.003 0.091,0.159 -0.002,0.016 -0.058,-0.098 -0.081,-0.142 -0.068,0.043 -0.097,0.031 -0.042,0.056 0.227,0.13 0.059,0.035 -0.002,0.01 -0.217,-0.126 -0.074,-0.043 -0.063,0.014 -0.108,-0.062 -0.134,-0.127 -0.101,-0.058 0.1,0.175 c 0.061,0.104 0.12,0.209 0.181,0.312 l 0.011,-0.005 c 0.127,0 0.254,0.001 0.38,0 l 0.002,0.011 h -0.391 l 0.099,0.169 0.057,0.054 0.225,-0.131 0.031,-0.015 0.002,0.007 -0.248,0.145 0.195,0.11 0.113,-0.196 0.006,0.011 z"
         style="fill:#83d3f3;fill-opacity:1;fill-rule:nonzero;stroke:none"
         id="path2326"
         inkscape:connector-curvature="0" />
    </g>
    <path
       d="m 61.05899,97.112496 h 0.004 v 0.07232 h -0.004 z"
       style="fill:#fafdfe;fill-opacity:1;fill-rule:nonzero;stroke:none;stroke-width:0.35277778"
       id="path2328"
       inkscape:connector-curvature="0" />
    <g
       id="g2330"
       transform="matrix(0.35277777,0,0,-0.35277777,61.621987,97.1156)">
      <path
         d="M 0,0 0.15,0.005 0.049,-0.082 0.035,-0.089 Z"
         style="fill:#3f3d23;fill-opacity:1;fill-rule:nonzero;stroke:none"
         id="path2332"
         inkscape:connector-curvature="0" />
    </g>
    <g
       id="g2334"
       transform="matrix(0.35277777,0,0,-0.35277777,61.624387,97.11768)">
      <path
         d="M 0,0 0.13,0.006 0.032,-0.076 Z"
         style="fill:#ffffff;fill-opacity:1;fill-rule:nonzero;stroke:none"
         id="path2336"
         inkscape:connector-curvature="0" />
    </g>
    <g
       id="g2338"
       transform="matrix(0.35277777,0,0,-0.35277777,60.989457,97.124914)">
      <path
         d="M 0,0 0.011,0.003 0.119,-0.186 0.112,-0.196 Z"
         style="fill:#ffffff;fill-opacity:1;fill-rule:nonzero;stroke:none"
         id="path2340"
         inkscape:connector-curvature="0" />
    </g>
    <g
       id="g2342"
       transform="matrix(0.35277777,0,0,-0.35277777,61.130707,97.124207)">
      <path
         d="m 0,0 0.01,-0.003 -0.112,-0.195 -0.01,0.004 z"
         style="fill:#ffffff;fill-opacity:1;fill-rule:nonzero;stroke:none"
         id="path2344"
         inkscape:connector-curvature="0" />
    </g>
    <g
       id="g2346"
       transform="matrix(0.35277777,0,0,-0.35277777,60.917137,97.165906)">
      <path
         d="M 0,0 0.01,0.006 0.258,-0.139 0.256,-0.146 0.225,-0.131 Z"
         style="fill:#ffffff;fill-opacity:1;fill-rule:nonzero;stroke:none"
         id="path2348"
         inkscape:connector-curvature="0" />
    </g>
    <g
       id="g2350"
       transform="matrix(0.35277777,0,0,-0.35277777,61.202707,97.164178)">
      <path
         d="m 0,0 0.009,-0.007 -0.231,-0.134 -0.03,-0.005 z"
         style="fill:#ffffff;fill-opacity:1;fill-rule:nonzero;stroke:none"
         id="path2352"
         inkscape:connector-curvature="0" />
    </g>
    <g
       id="g2354"
       transform="matrix(0.35277777,0,0,-0.35277777,60.417607,97.18485)">
      <path
         d="M 0,0 0.113,-0.04 0.103,-0.175 0.17,-0.19 0.208,-0.195 0.229,-0.163 0.246,-0.167 0.213,-0.318 0.195,-0.313 0.194,-0.28 0.167,-0.266 -0.021,-0.224 h -0.033 l -0.016,-0.029 -0.017,0.002 0.033,0.156 z"
         style="fill:#363424;fill-opacity:1;fill-rule:nonzero;stroke:none"
         id="path2356"
         inkscape:connector-curvature="0" />
    </g>
    <g
       id="g2358"
       transform="matrix(0.35277777,0,0,-0.35277777,60.410687,97.194515)">
      <path
         d="M 0,0 0.057,0.034 0.127,-0.015 0.116,-0.152 0.213,-0.173 0.246,-0.157 0.26,-0.142 0.229,-0.283 0.221,-0.282 0.217,-0.249 0.182,-0.231 -0.002,-0.19 -0.039,-0.193 -0.055,-0.22 h -0.007 l 0.026,0.116 z"
         style="fill:#efbc26;fill-opacity:1;fill-rule:nonzero;stroke:none"
         id="path2360"
         inkscape:connector-curvature="0" />
    </g>
    <g
       id="g2362"
       transform="matrix(0.35277777,0,0,-0.35277777,61.645407,97.20277)">
      <path
         d="M 0,0 0.178,-0.009 0.244,-0.119 0.246,-0.173 0.261,-0.196 0.177,-0.24 0.166,-0.224 0.219,-0.149 0.203,-0.077 0.122,-0.054 0.01,-0.077 -0.048,-0.12 -0.043,-0.187 0.01,-0.2 l 0.041,0.013 0.003,0.037 0.019,0.004 0.029,-0.145 -0.02,-0.005 -0.019,0.03 h -0.03 l -0.062,-0.012 -0.046,0.115 0.008,0.096 z"
         style="fill:#363424;fill-opacity:1;fill-rule:nonzero;stroke:none"
         id="path2364"
         inkscape:connector-curvature="0" />
    </g>
    <g
       id="g2366"
       transform="matrix(0.35277777,0,0,-0.35277777,61.644037,97.205524)">
      <path
         d="M 0,0 0.182,-0.008 0.241,-0.097 0.24,-0.149 0.258,-0.186 0.189,-0.222 0.178,-0.216 0.23,-0.134 0.205,-0.06 0.09,-0.044 -0.025,-0.085 -0.056,-0.15 l 0.038,-0.048 0.071,0.01 0.01,0.041 0.009,0.001 0.028,-0.133 -0.01,-0.001 -0.029,0.03 -0.083,-0.015 -0.04,0.098 0.004,0.107 z"
         style="fill:#efbc26;fill-opacity:1;fill-rule:nonzero;stroke:none"
         id="path2368"
         inkscape:connector-curvature="0" />
    </g>
    <g
       id="g2370"
       transform="matrix(0.35277777,0,0,-0.35277777,61.037007,97.203125)">
      <path
         d="m 0,0 0.068,-0.008 0.08,-0.059 0.024,-0.055 -0.052,-0.11 -0.059,-0.022 -0.082,0.047 -0.013,0.039 0.053,0.093 -0.023,0.045 -0.017,0.016 z"
         style="fill:#c5203d;fill-opacity:1;fill-rule:nonzero;stroke:none"
         id="path2372"
         inkscape:connector-curvature="0" />
    </g>
    <g
       id="g2374"
       transform="matrix(0.35277777,0,0,-0.35277777,60.417607,97.205876)">
      <path
         d="m 0,0 0.064,-0.01 0.03,-0.042 -0.009,-0.063 -0.095,0.019 -0.032,0.022 z"
         style="fill:#363424;fill-opacity:1;fill-rule:nonzero;stroke:none"
         id="path2376"
         inkscape:connector-curvature="0" />
    </g>
    <g
       id="g2378"
       transform="matrix(0.35277777,0,0,-0.35277777,60.412767,97.210356)">
      <path
         d="M 0,0 0.059,0.005 0.1,-0.028 0.096,-0.098 0.004,-0.078 -0.023,-0.059 Z"
         style="fill:#ffffff;fill-opacity:1;fill-rule:nonzero;stroke:none"
         id="path2380"
         inkscape:connector-curvature="0" />
    </g>
    <g
       id="g2382"
       transform="matrix(0.35277777,0,0,-0.35277777,60.861997,97.244468)">
      <path
         d="M 0,0 H 0.391 L 0.389,-0.011 c -0.126,10e-4 -0.253,0 -0.38,0 l -0.011,0.005 z"
         style="fill:#fdfeff;fill-opacity:1;fill-rule:nonzero;stroke:none"
         id="path2384"
         inkscape:connector-curvature="0" />
    </g>
    <g
       id="g2386"
       transform="matrix(0.35277777,0,0,-0.35277777,61.122457,97.244468)">
      <path
         d="M 0,0 H 0.35 L 0.39,-0.001 0.391,-0.005 0.389,-0.01 c -0.129,-10e-4 -0.258,-10e-4 -0.387,0 z"
         style="fill:#fdfeff;fill-opacity:1;fill-rule:nonzero;stroke:none"
         id="path2388"
         inkscape:connector-curvature="0" />
    </g>
    <g
       id="g2390"
       transform="matrix(0.35277777,0,0,-0.35277777,61.030797,97.26994)">
      <path
         d="M 0,0 0.004,0.027 0.094,-0.014 0.11,-0.045 0.092,-0.054 0.104,-0.041 0.002,0.02 Z"
         style="fill:#291114;fill-opacity:1;fill-rule:nonzero;stroke:none"
         id="path2392"
         inkscape:connector-curvature="0" />
    </g>
    <g
       id="g2394"
       transform="matrix(0.35277777,0,0,-0.35277777,61.114867,97.27615)">
      <path
         d="M 0,0 0.054,-0.031 C 0.205,-0.118 0.356,-0.205 0.508,-0.293 L 0.692,-0.398 0.697,-0.406 0.679,-0.404 C 0.451,-0.271 0.223,-0.141 -0.004,-0.01 Z"
         style="fill:#ffffff;fill-opacity:1;fill-rule:nonzero;stroke:none"
         id="path2396"
         inkscape:connector-curvature="0" />
    </g>
    <g
       id="g2398"
       transform="matrix(0.35277777,0,0,-0.35277777,60.931597,97.320952)">
      <path
         d="M 0,0 0.217,0.126 0.219,0.115 0.16,0.081 -0.067,-0.05 -0.074,-0.043 Z"
         style="fill:#ffffff;fill-opacity:1;fill-rule:nonzero;stroke:none"
         id="path2400"
         inkscape:connector-curvature="0" />
    </g>
    <g
       id="g2402"
       transform="matrix(0.35277777,0,0,-0.35277777,60.383487,97.307159)">
      <path
         d="M 0,0 0.083,0.025 0.087,0.008 0.021,-0.084 0.02,-0.131 0.049,-0.145 0.134,-0.146 0.126,-0.092 0.089,-0.066 v 0.019 L 0.214,-0.051 0.213,-0.071 0.171,-0.094 0.158,-0.148 0.251,-0.151 0.276,-0.144 0.281,-0.11 0.22,0.01 0.229,0.023 0.308,-0.012 0.298,-0.268 H 0.279 L 0.274,-0.238 0.243,-0.226 0.075,-0.219 0.022,-0.221 0.008,-0.257 -0.01,-0.256 v 0.035 z"
         style="fill:#3e3c26;fill-opacity:1;fill-rule:nonzero;stroke:none"
         id="path2404"
         inkscape:connector-curvature="0" />
    </g>
    <g
       id="g2406"
       transform="matrix(0.35277777,0,0,-0.35277777,61.093177,97.298197)">
      <path
         d="M 0,0 0.053,-0.088 0.181,-0.31 0.176,-0.322 0.122,-0.23 -0.006,-0.008 Z"
         style="fill:#ffffff;fill-opacity:1;fill-rule:nonzero;stroke:none"
         id="path2408"
         inkscape:connector-curvature="0" />
    </g>
    <g
       id="g2410"
       transform="matrix(0.35277777,0,0,-0.35277777,61.029777,97.299573)">
      <path
         d="m 0,0 0.003,-0.016 -0.092,-0.159 -0.041,-0.069 -0.009,0.004 0.081,0.142 z"
         style="fill:#ffffff;fill-opacity:1;fill-rule:nonzero;stroke:none"
         id="path2412"
         inkscape:connector-curvature="0" />
    </g>
    <g
       id="g2414"
       transform="matrix(0.35277777,0,0,-0.35277777,60.384867,97.308535)">
      <path
         d="M 0,0 0.074,0.021 0.078,0.015 0.009,-0.09 0.011,-0.133 0.04,-0.146 0.136,-0.148 0.127,-0.086 0.091,-0.059 0.09,-0.049 0.204,-0.052 0.203,-0.062 0.159,-0.093 0.15,-0.15 0.255,-0.152 0.282,-0.129 0.242,-0.006 0.222,0.02 0.24,0.016 0.297,-0.01 0.288,-0.258 H 0.28 L 0.259,-0.219 0.177,-0.214 0.037,-0.208 0.003,-0.23 -0.008,-0.248 Z"
         style="fill:#efbc26;fill-opacity:1;fill-rule:nonzero;stroke:none"
         id="path2416"
         inkscape:connector-curvature="0" />
    </g>
    <g
       id="g2418"
       transform="matrix(0.35277777,0,0,-0.35277777,61.733607,97.304055)">
      <path
         d="M 0,0 0.018,0.003 0.021,-0.154 H 0.004 l -0.006,0.028 -0.037,0.012 -0.154,-0.004 -0.07,-0.026 -0.005,-0.068 0.039,-0.041 0.101,-0.006 0.097,0.002 0.029,0.01 0.006,0.031 h 0.019 v -0.107 l -0.016,-0.001 -0.006,0.028 -0.032,0.012 -0.14,-0.003 -0.09,0.023 -0.033,0.086 0.028,0.104 0.077,0.03 0.15,0.003 0.032,0.011 z"
         style="fill:#404235;fill-opacity:1;fill-rule:nonzero;stroke:none"
         id="path2420"
         inkscape:connector-curvature="0" />
    </g>
    <g
       id="g2422"
       transform="matrix(0.35277777,0,0,-0.35277777,61.731877,97.317142)">
      <path
         d="m 0,0 0.012,0.034 0.007,-0.015 0.002,-0.132 -0.011,0.02 -0.031,0.021 -0.156,-0.003 -0.077,-0.02 -0.017,-0.066 0.036,-0.056 0.101,-0.011 0.123,0.004 0.025,0.029 0.008,0.012 0.002,-0.086 -0.003,-0.015 -0.01,0.028 -0.037,0.015 -0.162,-0.003 -0.083,0.046 -0.007,0.116 0.048,0.061 0.065,0.01 0.133,0.002 z"
         style="fill:#efbc26;fill-opacity:1;fill-rule:nonzero;stroke:none"
         id="path2424"
         inkscape:connector-curvature="0" />
    </g>
    <g
       id="g2426"
       transform="matrix(0.35277777,0,0,-0.35277777,61.059057,97.31199)">
      <path
         d="M 0,0 0.011,0.013 0.012,-0.199 0.008,-0.218 0,-0.212 Z"
         style="fill:#fafdfe;fill-opacity:1;fill-rule:nonzero;stroke:none"
         id="path2428"
         inkscape:connector-curvature="0" />
    </g>
    <g
       id="g2430"
       transform="matrix(0.35277777,0,0,-0.35277777,60.845137,97.353302)">
      <path
         d="M 0,0 0.107,0.062 0.171,0.049 0.178,0.042 0.22,-0.014 l 0.097,-0.031 0.068,-0.043 0.009,-0.004 0.041,0.07 0.053,-0.003 0.118,-0.07 0.008,-0.006 0.004,0.019 0.03,0.054 0.037,-0.007 0.156,-0.109 0.037,-0.026 0.001,0.004 0.005,0.013 0.043,0.043 0.05,-0.009 0.116,-0.059 0.033,0.063 0.049,-0.012 0.1,-0.074 L 1.228,-0.172 1.132,-0.14 1.163,-0.182 1.289,-0.284 1.396,-0.356 1.427,-0.367 1.393,-0.313 1.351,-0.266 1.47,-0.365 1.515,-0.392 1.518,-0.399 1.499,-0.406 1.434,-0.4 1.345,-0.354 1.113,-0.197 1.15,-0.226 1.356,-0.378 1.428,-0.43 1.437,-0.463 1.433,-0.465 l -0.157,0.02 -0.13,0.071 -0.239,0.178 0.095,-0.083 -0.054,0.037 -0.185,0.126 -0.04,0.02 0.039,-0.049 0.217,-0.195 0.087,-0.046 0.024,0.014 -0.048,0.06 0.023,-0.018 0.104,-0.095 0.025,-0.045 -0.035,0.002 -0.015,0.01 -0.165,0.1 L 0.767,-0.214 0.67,-0.146 0.827,-0.27 1.078,-0.466 1.085,-0.492 1.063,-0.5 0.911,-0.491 0.788,-0.464 0.716,-0.389 C 0.643,-0.286 0.544,-0.206 0.441,-0.135 0.528,-0.207 0.616,-0.28 0.68,-0.374 L 0.723,-0.473 0.71,-0.509 H 0.726 L 0.519,-0.513 C 0.405,-0.514 0.291,-0.514 0.177,-0.517 c -0.109,0 -0.217,-0.001 -0.326,-0.002 l -0.237,-0.002 -0.042,0.001 -0.002,0.003 0.025,0.04 c 0.073,0.114 0.156,0.222 0.246,0.323 l 0.025,0.027 z"
         style="fill:#4f6c31;fill-opacity:1;fill-rule:nonzero;stroke:none"
         id="path2432"
         inkscape:connector-curvature="0" />
    </g>
    <g
       id="g2434"
       transform="matrix(0.35277777,0,0,-0.35277777,60.889237,97.345399)">
      <path
         d="M 0,0 0.043,0.009 0.098,-0.054 0.281,-0.165 0.389,-0.267 0.486,-0.371 0.505,-0.409 0.487,-0.422 0.414,-0.392 0.43,-0.47 0.366,-0.488 0.289,-0.429 0.111,-0.204 0.118,-0.231 0.144,-0.363 0.133,-0.433 0.091,-0.46 l -0.088,0.048 -0.034,0.154 -0.046,-0.081 -0.02,0.005 0.005,0.105 -0.139,-0.181 -0.051,-0.022 -0.01,0.014 0.014,0.059 0.08,0.145 0.124,0.155 z"
         style="fill:#7ac036;fill-opacity:1;fill-rule:nonzero;stroke:none"
         id="path2436"
         inkscape:connector-curvature="0" />
    </g>
    <g
       id="g2438"
       transform="matrix(0.35277777,0,0,-0.35277777,61.008087,97.366743)">
      <path
         d="m 0,0 0.018,0.001 0.13,-0.079 C 0.24,-0.147 0.33,-0.218 0.414,-0.296 l 0.041,-0.051 -0.049,0.012 -0.131,0.068 -0.177,0.126 -0.084,0.093 z"
         style="fill:#7ac036;fill-opacity:1;fill-rule:nonzero;stroke:none"
         id="path2440"
         inkscape:connector-curvature="0" />
    </g>
    <g
       id="g2442"
       transform="matrix(0.35277777,0,0,-0.35277777,61.100057,97.387097)">
      <path
         d="M 0,0 0.04,-0.021 0.226,-0.146 0.279,-0.184 0.319,-0.217 0.367,-0.276 0.344,-0.29 0.256,-0.244 0.039,-0.049 Z"
         style="fill:#7ac036;fill-opacity:1;fill-rule:nonzero;stroke:none"
         id="path2444"
         inkscape:connector-curvature="0" />
    </g>
    <g
       id="g2446"
       transform="matrix(0.35277777,0,0,-0.35277777,61.175867,97.396728)">
      <path
         d="M 0,0 0.06,-0.023 0.261,-0.156 0.372,-0.25 0.384,-0.281 0.338,-0.276 0.21,-0.195 0.028,-0.039 Z"
         style="fill:#7ac036;fill-opacity:1;fill-rule:nonzero;stroke:none"
         id="path2448"
         inkscape:connector-curvature="0" />
    </g>
    <g
       id="g2450"
       transform="matrix(0.35277777,0,0,-0.35277777,60.762087,97.418424)">
      <path
         d="M 0,0 0.102,0.058 0.076,0.03 0.006,-0.009 -0.002,-0.001 Z"
         style="fill:#ffffff;fill-opacity:1;fill-rule:nonzero;stroke:none"
         id="path2452"
         inkscape:connector-curvature="0" />
    </g>
    <g
       id="g2454"
       transform="matrix(0.35277777,0,0,-0.35277777,61.000847,97.400856)">
      <path
         d="M 0,0 C 0.103,-0.071 0.201,-0.151 0.274,-0.254 L 0.347,-0.329 0.47,-0.356 0.622,-0.365 C 0.509,-0.371 0.396,-0.372 0.284,-0.374 H 0.269 l 0.012,0.036 -0.043,0.099 C 0.175,-0.146 0.087,-0.072 0,0"
         style="fill:#23302f;fill-opacity:1;fill-rule:nonzero;stroke:none"
         id="path2456"
         inkscape:connector-curvature="0" />
    </g>
    <g
       id="g2458"
       transform="matrix(0.35277777,0,0,-0.35277777,61.244407,97.402583)">
      <path
         d="m 0,0 0.096,-0.032 0.048,-0.03 0.009,-0.007 0.01,-0.008 0.013,-0.011 0.014,-0.013 0.017,-0.015 0.012,-0.01 0.042,-0.048 0.034,-0.054 -0.031,0.011 -0.107,0.072 -0.126,0.103 z"
         style="fill:#7ac036;fill-opacity:1;fill-rule:nonzero;stroke:none"
         id="path2460"
         inkscape:connector-curvature="0" />
    </g>
    <g
       id="g2462"
       transform="matrix(0.35277777,0,0,-0.35277777,60.480967,97.406042)">
      <path
         d="m 0,0 0.02,0.002 0.014,-0.101 -0.007,-0.011 -0.086,-0.06 -0.035,-0.052 0.092,0.014 0.024,0.013 0.004,0.033 0.019,-0.002 0.022,-0.148 -0.018,-0.003 -0.014,0.031 -0.025,0.004 -0.196,-0.032 -0.031,-0.015 -0.002,-0.031 -0.017,-0.002 -0.026,0.158 0.008,0.099 0.089,0.032 0.05,-0.059 0.102,0.084 z"
         style="fill:#3e3a2d;fill-opacity:1;fill-rule:nonzero;stroke:none"
         id="path2464"
         inkscape:connector-curvature="0" />
    </g>
    <g
       id="g2466"
       transform="matrix(0.35277777,0,0,-0.35277777,61.081457,97.404983)">
      <path
         d="m 0,0 0.097,-0.067 0.212,-0.145 0.165,-0.1 0.015,-0.009 -0.081,0.002 -0.251,0.196 z"
         style="fill:#23302f;fill-opacity:1;fill-rule:nonzero;stroke:none"
         id="path2468"
         inkscape:connector-curvature="0" />
    </g>
    <g
       id="g2470"
       transform="matrix(0.35277777,0,0,-0.35277777,60.483397,97.407735)">
      <path
         d="m 0,0 0.008,0.002 0.014,-0.1 -0.1,-0.07 -0.026,-0.055 0.095,0.015 0.032,0.02 0.007,0.03 0.01,-0.052 0.014,-0.094 -0.005,-0.001 -0.02,0.033 h -0.038 l -0.189,-0.031 -0.029,-0.012 -0.004,-0.036 -0.008,0.003 -0.024,0.154 0.01,0.098 0.088,0.022 0.041,-0.063 0.018,0.02 0.088,0.07 z"
         style="fill:#efbc26;fill-opacity:1;fill-rule:nonzero;stroke:none"
         id="path2472"
         inkscape:connector-curvature="0" />
    </g>
    <g
       id="g2474"
       transform="matrix(0.35277777,0,0,-0.35277777,60.764177,97.42153)">
      <path
         d="m 0,0 0.07,0.039 c -0.09,-0.101 -0.173,-0.209 -0.246,-0.322 0.055,0.096 0.114,0.193 0.168,0.291 z"
         style="fill:#82d2f2;fill-opacity:1;fill-rule:nonzero;stroke:none"
         id="path2476"
         inkscape:connector-curvature="0" />
    </g>
    <g
       id="g2478"
       transform="matrix(0.35277777,0,0,-0.35277777,61.628197,97.449081)">
      <path
         d="M 0,0 0.02,0.113 0.036,0.111 0.049,0.072 0.088,0.043 0.28,-0.069 0.291,-0.08 l 0.01,-0.063 -0.27,-0.039 -0.033,-0.009 -0.016,-0.032 -0.017,0.004 0.024,0.15 0.018,-0.002 0.009,-0.036 0.075,0.008 0.016,0.101 -0.06,0.027 -0.029,-0.034 z"
         style="fill:#363424;fill-opacity:1;fill-rule:nonzero;stroke:none"
         id="path2480"
         inkscape:connector-curvature="0" />
    </g>
    <g
       id="g2482"
       transform="matrix(0.35277777,0,0,-0.35277777,61.636137,97.411899)">
      <path
         d="m 0,0 0.014,-0.019 0.044,-0.045 0.206,-0.121 0.008,-0.059 -0.163,-0.024 -0.12,-0.017 -0.033,-0.037 -0.008,0.003 0.024,0.137 0.007,0.001 0.014,-0.037 0.078,0.007 0.02,0.109 -0.063,0.03 -0.037,-0.032 -0.008,0.001 z"
         style="fill:#efbc26;fill-opacity:1;fill-rule:nonzero;stroke:none"
         id="path2484"
         inkscape:connector-curvature="0" />
    </g>
    <g
       id="g2486"
       transform="matrix(0.35277777,0,0,-0.35277777,61.165177,97.422552)">
      <path
         d="M 0,0 0.238,-0.178 0.369,-0.249 0.525,-0.269 0.489,-0.273 H 0.287 l -0.025,0.044 -0.104,0.095 -0.023,0.018 -0.04,0.033 z"
         style="fill:#23302f;fill-opacity:1;fill-rule:nonzero;stroke:none"
         id="path2488"
         inkscape:connector-curvature="0" />
    </g>
    <g
       id="g2490"
       transform="matrix(0.35277777,0,0,-0.35277777,61.237847,97.422903)">
      <path
         d="M 0,0 0.231,-0.156 0.32,-0.203 0.386,-0.209 0.314,-0.232 0.243,-0.181 0.037,-0.028 Z"
         style="fill:#23302f;fill-opacity:1;fill-rule:nonzero;stroke:none"
         id="path2492"
         inkscape:connector-curvature="0" />
    </g>
    <g
       id="g2494"
       transform="matrix(0.35277777,0,0,-0.35277777,61.295067,97.424279)">
      <path
         d="M 0,0 0.01,-0.008 Z"
         style="fill:#649669;fill-opacity:1;fill-rule:nonzero;stroke:none"
         id="path2496"
         inkscape:connector-curvature="0" />
    </g>
    <g
       id="g2498"
       transform="matrix(0.35277777,0,0,-0.35277777,61.301947,97.429785)">
      <path
         d="M 0,0 0.013,-0.011 Z"
         style="fill:#6baa8d;fill-opacity:1;fill-rule:nonzero;stroke:none"
         id="path2500"
         inkscape:connector-curvature="0" />
    </g>
    <g
       id="g2502"
       transform="matrix(0.35277777,0,0,-0.35277777,61.311577,97.438075)">
      <path
         d="M 0,0 0.017,-0.016 Z"
         style="fill:#4f6c31;fill-opacity:1;fill-rule:nonzero;stroke:none"
         id="path2504"
         inkscape:connector-curvature="0" />
    </g>
    <g
       id="g2506"
       transform="matrix(0.35277777,0,0,-0.35277777,61.672967,97.450457)">
      <path
         d="M 0,0 0.129,-0.075 0.093,-0.082 -0.016,-0.098 Z"
         style="fill:#3a341c;fill-opacity:1;fill-rule:nonzero;stroke:none"
         id="path2508"
         inkscape:connector-curvature="0" />
    </g>
    <g
       id="g2510"
       transform="matrix(0.35277777,0,0,-0.35277777,60.397597,97.463543)">
      <path
         d="M 0,0 0.062,0.025 0.107,-0.003 0.125,-0.067 0.021,-0.084 -0.004,-0.068 Z"
         style="fill:#373526;fill-opacity:1;fill-rule:nonzero;stroke:none"
         id="path2512"
         inkscape:connector-curvature="0" />
    </g>
    <g
       id="g2514"
       transform="matrix(0.35277777,0,0,-0.35277777,61.674017,97.453243)">
      <path
         d="M 0,0 0.112,-0.065 -0.013,-0.084 Z"
         style="fill:#ffffff;fill-opacity:1;fill-rule:nonzero;stroke:none"
         id="path2516"
         inkscape:connector-curvature="0" />
    </g>
    <g
       id="g2518"
       transform="matrix(0.35277777,0,0,-0.35277777,60.406557,97.458747)">
      <path
         d="M 0,0 0.068,-0.006 0.094,-0.076 0.011,-0.09 h -0.029 l -0.009,0.045 z"
         style="fill:#ffffff;fill-opacity:1;fill-rule:nonzero;stroke:none"
         id="path2520"
         inkscape:connector-curvature="0" />
    </g>
    <g
       id="g2522"
       transform="matrix(0.35277777,0,0,-0.35277777,61.379457,97.491483)">
      <path
         d="m 0,0 0.064,-0.001 h 0.002 c 0.069,-0.121 0.139,-0.24 0.208,-0.361 l 0.003,-0.007 -0.237,0.022 0.105,0.027 0.023,0.018 -0.019,0.017 -0.088,0.013 -0.231,0.005 0.018,0.005 0.154,0.017 0.04,0.011 0.008,0.012 -0.027,0.011 -0.122,0.013 c -0.1,0.006 -0.202,0.007 -0.302,0.008 0.128,0.006 0.256,0.012 0.384,0.031 l 0.083,0.023 -0.048,0.02 c -0.1,0.013 -0.202,0.013 -0.303,0.015 l -0.094,0.001 -0.051,-0.001 -0.007,0.027 0.082,-0.002 0.035,-0.002 h 0.202 l 0.036,0.005 0.005,0.002 -0.01,0.033 0.071,0.023 0.019,0.007 z"
         style="fill:#4478a2;fill-opacity:1;fill-rule:nonzero;stroke:none"
         id="path2524"
         inkscape:connector-curvature="0" />
    </g>
    <g
       id="g2526"
       transform="matrix(0.35277777,0,0,-0.35277777,61.227867,97.52694)">
      <path
         d="M 0,0 0.051,0.001 0.145,0 C 0.246,-0.002 0.348,-0.002 0.447,-0.016 L 0.496,-0.035 0.413,-0.059 C 0.285,-0.077 0.156,-0.083 0.028,-0.09 0.129,-0.091 0.23,-0.092 0.331,-0.098 L 0.453,-0.11 0.479,-0.121 0.472,-0.134 0.432,-0.145 0.277,-0.161 0.26,-0.166 0.49,-0.172 0.579,-0.185 0.598,-0.201 0.574,-0.22 0.47,-0.246 0.707,-0.269 0.704,-0.262 0.708,-0.27 h -1.76 c -0.193,0 -0.387,-0.001 -0.581,0.001 l 0.168,0.013 0.1,0.006 -0.123,0.003 -0.098,0.013 -0.006,0.017 0.068,0.018 c 0.113,0.014 0.227,0.015 0.34,0.019 l -0.182,0.022 -0.121,0.023 -0.019,0.018 0.034,0.012 0.105,0.014 c 0.144,0.013 0.289,0.019 0.432,0.025 l 0.062,0.002 -0.081,0.005 c -0.138,0.008 -0.275,0.014 -0.412,0.022 l -0.144,0.006 -0.002,0.003 -10e-4,0.001 0.042,-0.002 0.237,0.003 c 0.109,10e-4 0.217,0.002 0.326,0.002 0.114,0.003 0.228,0.003 0.342,0.003 l 0.207,0.004 c 0.112,0.002 0.224,0.003 0.338,0.009 z"
         style="fill:#83d3f3;fill-opacity:1;fill-rule:nonzero;stroke:none"
         id="path2528"
         inkscape:connector-curvature="0" />
    </g>
    <g
       id="g2530"
       transform="matrix(0.35277777,0,0,-0.35277777,60.693897,97.536251)">
      <path
         d="M 0,0 0.002,-0.002 0.004,-0.005 0.147,-0.011 C 0.284,-0.019 0.422,-0.024 0.56,-0.032 L 0.641,-0.038 0.579,-0.04 C 0.436,-0.046 0.291,-0.052 0.146,-0.064 L 0.042,-0.079 0.008,-0.091 0.026,-0.108 0.147,-0.132 0.33,-0.153 C 0.217,-0.157 0.103,-0.158 -0.011,-0.173 l -0.067,-0.017 0.006,-0.018 0.097,-0.013 0.057,-0.003 -0.033,-0.005 -0.168,-0.013 -0.021,-0.001 0.101,0.177 z"
         style="fill:#4478a2;fill-opacity:1;fill-rule:nonzero;stroke:none"
         id="path2532"
         inkscape:connector-curvature="0" />
    </g>
    <g
       id="g2534"
       transform="matrix(0.35277777,0,0,-0.35277777,60.961237,97.543837)">
      <path
         d="M 0,0 0.213,-0.003 0.523,-0.006 0.578,-0.009 0.484,-0.03 0.504,-0.036 0.633,-0.046 0.69,-0.047 0.574,-0.065 0.568,-0.075 0.625,-0.087 0.523,-0.104 0.51,-0.111 0.527,-0.118 0.637,-0.13 0.522,-0.134 0.45,-0.146 0.479,-0.163 0.582,-0.192 0.427,-0.196 0.201,-0.2 l -0.214,-0.004 -0.178,-0.003 0.095,0.023 0.024,0.016 -0.009,0.015 -0.067,0.016 c 0.098,0.001 0.197,-0.002 0.296,0.005 l 0.026,0.006 -0.005,0.01 -0.057,0.014 0.128,0.006 -0.017,0.013 -0.15,0.028 0.097,0.006 0.023,0.012 -0.06,0.017 z"
         style="fill:#ffffff;fill-opacity:1;fill-rule:nonzero;stroke:none"
         id="path2536"
         inkscape:connector-curvature="0" />
    </g>
    <g
       id="g2538"
       transform="matrix(0.35277777,0,0,-0.35277777,61.667457,97.55555)">
      <path
         d="M 0,0 0.048,-0.04 0.002,-0.08 -0.029,-0.021 Z"
         style="fill:#363424;fill-opacity:1;fill-rule:nonzero;stroke:none"
         id="path2540"
         inkscape:connector-curvature="0" />
    </g>
    <g
       id="g2542"
       transform="matrix(0.35277777,0,0,-0.35277777,60.447557,97.555902)">
      <path
         d="M 0,0 0.055,-0.043 -0.007,-0.072 Z"
         style="fill:#3a341c;fill-opacity:1;fill-rule:nonzero;stroke:none"
         id="path2544"
         inkscape:connector-curvature="0" />
    </g>
    <g
       id="g2546"
       transform="matrix(0.35277777,0,0,-0.35277777,60.448927,97.557277)">
      <path
         d="M 0,0 0.046,-0.035 -0.008,-0.064 Z"
         style="fill:#efbc26;fill-opacity:1;fill-rule:nonzero;stroke:none"
         id="path2548"
         inkscape:connector-curvature="0" />
    </g>
    <g
       id="g2550"
       transform="matrix(0.35277777,0,0,-0.35277777,61.668167,97.557277)">
      <path
         d="M 0,0 0.037,-0.049 -0.019,-0.061 Z"
         style="fill:#efbc26;fill-opacity:1;fill-rule:nonzero;stroke:none"
         id="path2552"
         inkscape:connector-curvature="0" />
    </g>
    <g
       id="g2554"
       transform="matrix(0.35277777,0,0,-0.35277777,60.422397,97.616192)">
      <path
         d="M 0,0 0.016,0.008 0.043,-0.015 0.094,-0.019 0.33,0.001 0.377,-0.049 0.172,-0.239 0.154,-0.268 0.16,-0.297 0.144,-0.305 0.078,-0.167 0.096,-0.159 0.125,-0.181 0.18,-0.134 0.135,-0.04 0.071,-0.055 0.066,-0.098 0.049,-0.105 Z"
         style="fill:#3e392e;fill-opacity:1;fill-rule:nonzero;stroke:none"
         id="path2556"
         inkscape:connector-curvature="0" />
    </g>
    <g
       id="g2558"
       transform="matrix(0.35277777,0,0,-0.35277777,60.702827,97.61411)">
      <path
         d="m 0,0 0.123,-0.003 -0.1,-0.006 0.034,0.006 z"
         style="fill:#518db6;fill-opacity:1;fill-rule:nonzero;stroke:none"
         id="path2560"
         inkscape:connector-curvature="0" />
    </g>
    <g
       id="g2562"
       transform="matrix(0.35277777,0,0,-0.35277777,60.426877,97.616192)">
      <path
         d="M 0,0 0.021,-0.016 0.093,-0.023 0.315,-0.005 0.356,-0.048 0.197,-0.197 0.143,-0.251 0.138,-0.294 0.135,-0.299 0.073,-0.169 0.089,-0.179 0.104,-0.19 0.173,-0.136 0.126,-0.035 0.076,-0.041 0.047,-0.059 0.046,-0.097 0.038,-0.095 -0.001,-0.011 Z"
         style="fill:#efbc26;fill-opacity:1;fill-rule:nonzero;stroke:none"
         id="path2564"
         inkscape:connector-curvature="0" />
    </g>
    <g
       id="g2566"
       transform="matrix(0.35277777,0,0,-0.35277777,61.664037,97.618589)">
      <path
         d="m 0,0 0.011,0.01 0.065,-0.064 -0.111,-0.229 -0.018,0.007 -0.002,0.046 -0.089,0.045 -0.113,0.057 -0.039,-0.025 -0.016,0.008 0.068,0.139 0.016,-0.009 -0.006,-0.034 0.028,-0.021 0.145,-0.073 0.049,-0.023 0.023,0.026 z"
         style="fill:#363424;fill-opacity:1;fill-rule:nonzero;stroke:none"
         id="path2568"
         inkscape:connector-curvature="0" />
    </g>
    <g
       id="g2570"
       transform="matrix(0.35277777,0,0,-0.35277777,61.666787,97.619965)">
      <path
         d="m 0,0 0.003,0.007 0.059,-0.058 -0.105,-0.214 -0.011,-0.005 0.005,0.036 -0.029,0.023 -0.171,0.086 -0.034,0.007 -0.024,-0.025 -0.005,0.004 0.063,0.131 0.001,-0.023 0.019,-0.033 0.192,-0.098 0.034,0.005 0.016,0.112 z"
         style="fill:#efbc26;fill-opacity:1;fill-rule:nonzero;stroke:none"
         id="path2572"
         inkscape:connector-curvature="0" />
    </g>
    <g
       id="g2574"
       transform="matrix(0.35277777,0,0,-0.35277777,60.477857,97.62822)">
      <path
         d="M 0,0 0.146,0.013 0.13,-0.004 0.039,-0.09 l -0.04,0.086 z"
         style="fill:#3a341c;fill-opacity:1;fill-rule:nonzero;stroke:none"
         id="path2576"
         inkscape:connector-curvature="0" />
    </g>
    <g
       id="g2578"
       transform="matrix(0.35277777,0,0,-0.35277777,60.479587,97.630302)">
      <path
         d="M 0,0 0.13,0.013 0.036,-0.076 Z"
         style="fill:#ffffff;fill-opacity:1;fill-rule:nonzero;stroke:none"
         id="path2580"
         inkscape:connector-curvature="0" />
    </g>
    <g
       id="g2582"
       transform="matrix(0.35277777,0,0,-0.35277777,60.556417,97.665439)">
      <path
         d="m 0,0 0.015,0.011 0.067,-0.093 0.004,-0.014 -0.107,-0.16 0.188,0.057 0.065,-0.09 0.004,-0.011 -0.012,-0.009 -0.022,0.021 -0.031,-0.01 -0.161,-0.12 -0.019,-0.024 0.016,-0.03 -0.017,-0.01 -0.09,0.125 0.015,0.01 0.031,-0.021 0.033,0.018 0.151,0.114 -0.259,-0.08 -0.012,0.013 0.148,0.222 -0.129,-0.095 -0.042,-0.039 0.009,-0.035 -0.015,-0.012 -0.064,0.089 0.013,0.013 0.035,-0.02 0.041,0.022 0.14,0.103 0.018,0.024 z"
         style="fill:#363424;fill-opacity:1;fill-rule:nonzero;stroke:none"
         id="path2584"
         inkscape:connector-curvature="0" />
    </g>
    <g
       id="g2586"
       transform="matrix(0.35277777,0,0,-0.35277777,60.562987,97.675104)">
      <path
         d="m 0,0 -0.006,0.031 0.07,-0.095 -0.115,-0.172 0.197,0.058 0.065,-0.09 -0.004,-0.007 -0.025,0.02 -0.033,-0.011 -0.161,-0.121 -0.018,-0.024 0.009,-0.035 -0.016,0.012 -0.072,0.101 0.003,0.007 0.026,-0.02 0.035,0.013 0.174,0.13 -0.012,0.002 -0.263,-0.082 -0.006,0.008 0.133,0.203 0.021,0.033 -0.016,-0.008 -0.15,-0.112 -0.023,-0.049 v -0.017 l -0.059,0.079 0.007,0.005 0.036,-0.017 0.052,0.029 0.13,0.098 z"
         style="fill:#efbc26;fill-opacity:1;fill-rule:nonzero;stroke:none"
         id="path2588"
         inkscape:connector-curvature="0" />
    </g>
    <g
       id="g2590"
       transform="matrix(0.35277777,0,0,-0.35277777,61.531037,97.695779)">
      <path
         d="M 0,0 0.112,-0.035 0.266,-0.086 0.299,-0.088 0.32,-0.069 0.336,-0.08 0.248,-0.203 0.234,-0.191 0.247,-0.166 0.226,-0.149 0.171,-0.131 0.118,-0.206 0.114,-0.218 l 0.039,-0.048 0.041,0.017 0.015,-0.01 -0.066,-0.095 -0.015,0.009 0.005,0.042 -0.031,0.059 -0.122,0.18 z"
         style="fill:#363424;fill-opacity:1;fill-rule:nonzero;stroke:none"
         id="path2592"
         inkscape:connector-curvature="0" />
    </g>
    <g
       id="g2594"
       transform="matrix(0.35277777,0,0,-0.35277777,61.532417,97.697824)">
      <path
         d="m 0,0 0.266,-0.087 0.052,0.017 0.004,-0.007 -0.078,-0.112 -0.007,0.004 0.009,0.029 -0.021,0.017 -0.06,0.02 -0.063,-0.089 0.027,-0.04 0.034,-0.019 0.03,0.016 0.004,-0.005 -0.06,-0.086 -0.002,0.026 -0.033,0.08 -0.12,0.179 z"
         style="fill:#efbc26;fill-opacity:1;fill-rule:nonzero;stroke:none"
         id="path2596"
         inkscape:connector-curvature="0" />
    </g>
    <g
       id="g2598"
       transform="matrix(0.35277777,0,0,-0.35277777,61.535167,97.721954)">
      <path
         d="M 0,0 0.142,-0.046 0.086,-0.127 Z"
         style="fill:#363424;fill-opacity:1;fill-rule:nonzero;stroke:none"
         id="path2600"
         inkscape:connector-curvature="0" />
    </g>
    <g
       id="g2602"
       transform="matrix(0.35277777,0,0,-0.35277777,61.539647,97.725375)">
      <path
         d="M 0,0 0.122,-0.039 0.073,-0.107 Z"
         style="fill:#ffffff;fill-opacity:1;fill-rule:nonzero;stroke:none"
         id="path2604"
         inkscape:connector-curvature="0" />
    </g>
    <g
       id="g2606"
       transform="matrix(0.35277777,0,0,-0.35277777,61.481437,97.769473)">
      <path
         d="m 0,0 0.061,0.008 0.052,-0.067 -0.019,-0.06 0.129,-0.036 0.042,0.015 0.012,-0.012 -0.074,-0.076 -0.127,0.043 -0.045,-0.006 0.05,-0.051 0.032,-0.029 0.035,0.016 0.014,-0.013 -0.109,-0.108 -0.014,0.012 0.018,0.026 -0.013,0.027 -0.1,0.104 -0.053,0.053 -0.041,-0.012 -0.008,0.018 0.092,0.091 z"
         style="fill:#363424;fill-opacity:1;fill-rule:nonzero;stroke:none"
         id="path2608"
         inkscape:connector-curvature="0" />
    </g>
    <g
       id="g2610"
       transform="matrix(0.35277777,0,0,-0.35277777,61.462147,97.7881)">
      <path
         d="M 0,0 0.082,0.057 0.162,0.002 0.137,-0.073 0.214,-0.092 0.289,-0.107 0.323,-0.095 0.309,-0.115 0.254,-0.168 0.133,-0.127 0.08,-0.139 0.138,-0.199 0.172,-0.224 0.204,-0.209 0.206,-0.218 0.105,-0.316 0.112,-0.295 0.104,-0.256 -0.037,-0.109 -0.064,-0.092 -0.097,-0.107 -0.1,-0.1 Z"
         style="fill:#efbc26;fill-opacity:1;fill-rule:nonzero;stroke:none"
         id="path2612"
         inkscape:connector-curvature="0" />
    </g>
    <g
       id="g2614"
       transform="matrix(0.35277777,0,0,-0.35277777,60.640487,97.777411)">
      <path
         d="M 0,0 0.012,0.015 0.202,-0.156 0.168,-0.236 0.15,-0.23 0.127,-0.123 0.089,-0.087 0.062,-0.102 0.004,-0.167 l 0.05,-0.029 0.04,0.011 0.014,-0.011 -0.082,-0.095 -0.015,0.015 0.01,0.047 -0.034,0.042 -0.05,-0.056 -0.022,-0.033 0.03,-0.036 0.124,-0.023 0.005,-0.016 -0.078,-0.039 -0.188,0.172 0.011,0.014 0.034,-0.016 0.018,0.014 0.137,0.154 0.011,0.024 z"
         style="fill:#363424;fill-opacity:1;fill-rule:nonzero;stroke:none"
         id="path2616"
         inkscape:connector-curvature="0" />
    </g>
    <g
       id="g2618"
       transform="matrix(0.35277777,0,0,-0.35277777,60.642887,97.776389)">
      <path
         d="M 0,0 0.007,0.004 0.187,-0.16 0.174,-0.195 0.156,-0.232 0.15,-0.23 0.118,-0.114 0.082,-0.085 0.051,-0.101 -0.011,-0.171 0.037,-0.203 0.086,-0.193 0.095,-0.199 0.02,-0.285 0.011,-0.279 0.018,-0.227 -0.021,-0.182 -0.088,-0.26 -0.09,-0.297 0.023,-0.344 0.062,-0.35 0.004,-0.379 l -0.019,-0.002 -0.176,0.16 0.004,0.006 0.029,-0.013 0.036,0.026 0.123,0.14 0.017,0.027 z"
         style="fill:#efbc26;fill-opacity:1;fill-rule:nonzero;stroke:none"
         id="path2620"
         inkscape:connector-curvature="0" />
    </g>
    <g
       id="g2622"
       transform="matrix(0.35277777,0,0,-0.35277777,61.467647,97.7881)">
      <path
         d="M 0,0 0.059,0.01 0.1,-0.059 0.055,-0.128 l -0.061,0.061 -0.021,0.03 z"
         style="fill:#3a341c;fill-opacity:1;fill-rule:nonzero;stroke:none"
         id="path2624"
         inkscape:connector-curvature="0" />
    </g>
    <g
       id="g2626"
       transform="matrix(0.35277777,0,0,-0.35277777,61.475227,97.78602)">
      <path
         d="m 0,0 0.047,-0.01 0.027,-0.056 -0.042,-0.061 -0.063,0.066 -0.01,0.026 z"
         style="fill:#ffffff;fill-opacity:1;fill-rule:nonzero;stroke:none"
         id="path2628"
         inkscape:connector-curvature="0" />
    </g>
    <g
       id="g2630"
       transform="matrix(0.35277777,0,0,-0.35277777,61.346397,97.876966)">
      <path
         d="M 0,0 0.207,0.145 0.274,0.084 0.264,0.069 0.146,0.076 0.272,-0.113 0.295,-0.137 0.332,-0.127 0.34,-0.143 0.214,-0.229 0.205,-0.213 0.227,-0.185 0.213,-0.154 0.085,0.033 0.051,-0.078 0.031,-0.085 Z"
         style="fill:#383529;fill-opacity:1;fill-rule:nonzero;stroke:none"
         id="path2632"
         inkscape:connector-curvature="0" />
    </g>
    <g
       id="g2634"
       transform="matrix(0.35277777,0,0,-0.35277777,61.350167,97.876293)">
      <path
         d="M 0,0 0.195,0.135 0.257,0.082 0.252,0.073 0.143,0.083 0.132,0.069 0.265,-0.128 0.306,-0.143 h 0.015 l -0.117,-0.082 0.013,0.024 -0.005,0.04 -0.135,0.2 -0.043,-0.094 -0.012,-0.025 -0.023,0.064 z"
         style="fill:#efbc26;fill-opacity:1;fill-rule:nonzero;stroke:none"
         id="path2636"
         inkscape:connector-curvature="0" />
    </g>
    <g
       id="g2638"
       transform="matrix(0.35277777,0,0,-0.35277777,60.714537,97.836326)">
      <path
         d="M 0,0 0.115,-0.072 0.187,-0.127 0.207,-0.199 0.158,-0.25 0.094,-0.245 0.09,-0.351 0.095,-0.395 0.114,-0.418 0.105,-0.435 l -0.091,0.06 0.007,0.069 0.004,0.084 -0.014,0.021 -0.046,-0.072 -0.011,-0.035 0.025,-0.022 -0.011,-0.017 -0.13,0.082 0.01,0.017 0.031,-0.011 0.024,0.025 0.098,0.158 0.013,0.035 -0.023,0.024 z"
         style="fill:#434240;fill-opacity:1;fill-rule:nonzero;stroke:none"
         id="path2640"
         inkscape:connector-curvature="0" />
    </g>
    <g
       id="g2642"
       transform="matrix(0.35277777,0,0,-0.35277777,60.719017,97.845639)">
      <path
         d="M 0,0 -0.01,0.019 0.114,-0.06 0.187,-0.128 0.146,-0.218 0.073,-0.21 0.074,-0.362 0.096,-0.395 0.089,-0.399 l -0.082,0.051 0.014,0.124 -0.025,0.056 -0.055,-0.087 0.005,-0.042 0.006,-0.015 -0.121,0.078 0.022,-0.002 0.037,0.016 0.11,0.178 z"
         style="fill:#efbc26;fill-opacity:1;fill-rule:nonzero;stroke:none"
         id="path2644"
         inkscape:connector-curvature="0" />
    </g>
    <g
       id="g2646"
       transform="matrix(0.35277777,0,0,-0.35277777,60.740047,97.868711)">
      <path
         d="M 0,0 0.028,0.009 0.072,-0.028 0.066,-0.088 0.017,-0.119 -0.057,-0.09 Z"
         style="fill:#363424;fill-opacity:1;fill-rule:nonzero;stroke:none"
         id="path2648"
         inkscape:connector-curvature="0" />
    </g>
    <g
       id="g2650"
       transform="matrix(0.35277777,0,0,-0.35277777,60.742127,97.86938)">
      <path
         d="m 0,0 0.022,0.005 0.042,-0.04 -0.007,-0.046 -0.042,-0.031 -0.07,0.025 z"
         style="fill:#ffffff;fill-opacity:1;fill-rule:nonzero;stroke:none"
         id="path2652"
         inkscape:connector-curvature="0" />
    </g>
    <g
       id="g2654"
       transform="matrix(0.35277777,0,0,-0.35277777,61.305047,97.896968)">
      <path
         d="M 0,0 0.105,0.046 0.111,0.029 0.086,0.001 l 0.012,-0.048 0.09,-0.21 -0.038,-0.016 -0.24,0.146 0.058,-0.135 0.024,-0.041 0.047,-0.002 0.006,-0.015 -0.111,-0.05 -0.006,0.017 0.027,0.026 -0.006,0.04 -0.074,0.174 -0.02,0.011 -0.038,0.002 -0.006,0.016 0.092,0.041 0.011,10e-4 0.207,-0.129 -0.049,0.116 -0.029,0.041 -0.036,-0.004 z"
         style="fill:#363424;fill-opacity:1;fill-rule:nonzero;stroke:none"
         id="path2656"
         inkscape:connector-curvature="0" />
    </g>
    <g
       id="g2658"
       transform="matrix(0.35277777,0,0,-0.35277777,61.307447,97.897989)">
      <path
         d="M 0,0 0.095,0.04 0.098,0.038 0.077,0.013 0.089,-0.052 0.175,-0.251 0.144,-0.265 l -0.217,0.133 -0.034,0.019 0.061,-0.144 0.027,-0.047 0.048,-0.004 0.003,-0.004 -0.103,-0.048 0.013,0.021 0.008,0.051 -0.076,0.178 -0.01,0.012 -0.05,0.008 -0.004,0.005 0.093,0.041 0.223,-0.137 -0.051,0.119 -0.031,0.053 -0.041,0.002 z"
         style="fill:#efbc26;fill-opacity:1;fill-rule:nonzero;stroke:none"
         id="path2660"
         inkscape:connector-curvature="0" />
    </g>
    <g
       id="g2662"
       transform="matrix(0.35277777,0,0,-0.35277777,60.797937,97.894886)">
      <path
         d="M 0,0 0.01,0.017 0.148,-0.049 0.14,-0.064 0.109,-0.059 0.088,-0.082 0.008,-0.263 0.002,-0.293 0.026,-0.314 0.021,-0.331 l -0.138,0.063 0.006,0.017 0.033,-0.006 0.017,0.021 0.082,0.182 0.006,0.029 z"
         style="fill:#363424;fill-opacity:1;fill-rule:nonzero;stroke:none"
         id="path2664"
         inkscape:connector-curvature="0" />
    </g>
    <g
       id="g2666"
       transform="matrix(0.35277777,0,0,-0.35277777,60.801037,97.894534)">
      <path
         d="m 0,0 0.002,0.009 0.129,-0.059 -0.002,-0.01 -0.034,0.004 -0.02,-0.023 -0.084,-0.188 0.002,-0.037 0.018,-0.021 -0.121,0.054 -0.008,0.011 0.035,-0.002 0.022,0.033 0.083,0.187 z"
         style="fill:#efbc26;fill-opacity:1;fill-rule:nonzero;stroke:none"
         id="path2668"
         inkscape:connector-curvature="0" />
    </g>
    <g
       id="g2670"
       transform="matrix(0.35277777,0,0,-0.35277777,60.843407,97.935526)">
      <path
         d="M 0,0 0.137,0.035 0.187,0.006 0.233,0.002 0.229,-0.098 H 0.205 l -0.04,0.094 -0.071,0.015 -0.057,-0.072 -0.016,-0.13 0.068,-0.061 0.087,0.034 0.008,-0.016 -0.103,-0.048 -0.102,0.042 -0.041,0.096 z"
         style="fill:#3a341c;fill-opacity:1;fill-rule:nonzero;stroke:none"
         id="path2672"
         inkscape:connector-curvature="0" />
    </g>
    <g
       id="g2674"
       transform="matrix(0.35277777,0,0,-0.35277777,60.850287,97.932457)">
      <path
         d="M 0,0 0.125,0.018 0.168,-0.009 0.209,-0.013 0.204,-0.103 H 0.19 L 0.149,-0.009 0.07,0.006 0.009,-0.075 l -0.011,-0.133 0.074,-0.058 0.072,0.024 0.015,0.007 -0.016,-0.021 -0.093,-0.03 -0.084,0.039 -0.042,0.114 z"
         style="fill:#efbc26;fill-opacity:1;fill-rule:nonzero;stroke:none"
         id="path2676"
         inkscape:connector-curvature="0" />
    </g>
    <g
       id="g2678"
       transform="matrix(0.35277777,0,0,-0.35277777,61.142777,97.948615)">
      <path
         d="M 0,0 0.247,0.06 0.292,-0.016 0.278,-0.025 0.185,0.017 0.127,0.005 0.122,-0.024 0.142,-0.11 0.192,-0.09 0.206,-0.046 0.228,-0.041 0.255,-0.162 0.235,-0.168 0.202,-0.133 0.148,-0.135 0.169,-0.227 0.195,-0.25 0.315,-0.154 0.331,-0.157 0.317,-0.244 0.069,-0.302 0.066,-0.285 0.1,-0.257 0.091,-0.215 0.052,-0.044 0.036,-0.016 H 0.005 Z"
         style="fill:#363424;fill-opacity:1;fill-rule:nonzero;stroke:none"
         id="path2680"
         inkscape:connector-curvature="0" />
    </g>
    <g
       id="g2682"
       transform="matrix(0.35277777,0,0,-0.35277777,61.144857,97.949673)">
      <path
         d="M 0,0 0.24,0.057 0.278,-0.007 0.269,-0.013 0.153,0.024 0.115,0.01 0.11,-0.02 l 0.023,-0.094 0.054,0.021 0.02,0.048 h 0.011 l 0.023,-0.104 -0.009,-0.01 -0.034,0.034 -0.062,-0.003 0.021,-0.097 0.026,-0.028 0.049,0.015 0.08,0.08 0.007,0.001 -0.011,-0.08 -0.239,-0.055 -0.002,0.006 0.026,0.015 0.004,0.033 -0.046,0.199 -0.032,0.032 z"
         style="fill:#efbc26;fill-opacity:1;fill-rule:nonzero;stroke:none"
         id="path2684"
         inkscape:connector-curvature="0" />
    </g>
    <g
       id="g2686"
       transform="matrix(0.35277777,0,0,-0.35277777,60.963277,97.946215)">
      <path
         d="M 0,0 0.061,0.01 C 0.073,-0.085 0.086,-0.181 0.1,-0.275 L 0.139,-0.312 0.136,-0.33 H 0.132 l -0.144,0.023 0.002,0.018 0.034,0.01 -0.006,0.076 -0.102,0.016 -0.025,-0.062 0.032,-0.028 -0.003,-0.019 -0.097,0.017 -0.012,0.004 -0.001,0.016 0.057,0.035 0.122,0.217 z"
         style="fill:#363424;fill-opacity:1;fill-rule:nonzero;stroke:none"
         id="path2688"
         inkscape:connector-curvature="0" />
    </g>
    <g
       id="g2690"
       transform="matrix(0.35277777,0,0,-0.35277777,60.961907,97.948297)">
      <path
         d="M 0,0 0.061,0.009 C 0.072,-0.086 0.086,-0.18 0.1,-0.274 L 0.137,-0.312 0.136,-0.317 0,-0.296 l -0.002,0.008 0.031,0.006 0.005,0.031 -0.009,0.059 -0.106,0.017 -0.028,-0.063 0.033,-0.039 -0.02,-0.004 -0.086,0.014 0.016,0.013 0.047,0.042 z"
         style="fill:#efbc26;fill-opacity:1;fill-rule:nonzero;stroke:none"
         id="path2692"
         inkscape:connector-curvature="0" />
    </g>
    <g
       id="g2694"
       transform="matrix(0.35277777,0,0,-0.35277777,61.124187,97.951049)">
      <path
         d="m 0,0 0.035,0.014 0.032,-0.095 -0.021,-0.009 -0.07,0.072 -0.077,-0.016 -0.025,-0.104 0.037,-0.111 0.084,-0.026 0.067,0.062 0.014,-0.01 -0.112,-0.093 h -0.041 l -0.106,0.078 0.033,0.208 0.112,0.037 z"
         style="fill:#332d1a;fill-opacity:1;fill-rule:nonzero;stroke:none"
         id="path2696"
         inkscape:connector-curvature="0" />
    </g>
    <g
       id="g2698"
       transform="matrix(0.35277777,0,0,-0.35277777,61.124187,97.952777)">
      <path
         d="m 0,0 0.032,0.012 0.027,-0.078 -0.011,-0.012 -0.069,0.068 -0.08,-0.011 -0.029,-0.088 0.035,-0.137 0.096,-0.028 0.061,0.059 0.006,-0.005 -0.081,-0.08 -0.064,-0.007 -0.109,0.09 0.052,0.198 0.091,0.027 z"
         style="fill:#efbc26;fill-opacity:1;fill-rule:nonzero;stroke:none"
         id="path2700"
         inkscape:connector-curvature="0" />
    </g>
    <g
       id="g2702"
       transform="matrix(0.35277777,0,0,-0.35277777,60.957067,97.967241)">
      <path
         d="m 0,0 0.016,0.024 0.02,-0.148 -0.096,0.017 z"
         style="fill:#3a341c;fill-opacity:1;fill-rule:nonzero;stroke:none"
         id="path2704"
         inkscape:connector-curvature="0" />
    </g>
    <g
       id="g2706"
       transform="matrix(0.35277777,0,0,-0.35277777,60.948147,97.987209)">
      <path
         d="m 0,0 0.038,0.066 0.018,-0.128 -0.081,0.014 z"
         style="fill:#ffffff;fill-opacity:1;fill-rule:nonzero;stroke:none"
         id="path2708"
         inkscape:connector-curvature="0" />
    </g>
    <g
       id="g2710"
       transform="matrix(0.35277777,0,0,-0.35277777,60.895087,98.043724)">
      <path
         d="M 0,0 0.003,0.018 0.004,0.001 0.017,-0.003 Z"
         style="fill:#434240;fill-opacity:1;fill-rule:nonzero;stroke:none"
         id="path2712"
         inkscape:connector-curvature="0" />
    </g>
  </g>
</svg>
