<?xml version="1.0" encoding="UTF-8" standalone="no"?>
<!-- Created with Inkscape (http://www.inkscape.org/) -->

<svg
   xmlns:dc="http://purl.org/dc/elements/1.1/"
   xmlns:cc="http://creativecommons.org/ns#"
   xmlns:rdf="http://www.w3.org/1999/02/22-rdf-syntax-ns#"
   xmlns:svg="http://www.w3.org/2000/svg"
   xmlns="http://www.w3.org/2000/svg"
   xmlns:sodipodi="http://sodipodi.sourceforge.net/DTD/sodipodi-0.dtd"
   xmlns:inkscape="http://www.inkscape.org/namespaces/inkscape"
   width="7.084836mm"
   height="4.7328668mm"
   viewBox="0 0 7.084836 4.7328668"
   version="1.1"
   id="svg8"
   inkscape:version="0.92.4 (5da689c313, 2019-01-14)"
   sodipodi:docname="slovakia.svg">
  <defs
     id="defs2">
    <radialGradient
       id="radialGradient37584"
       spreadMethod="pad"
       gradientTransform="matrix(0.975099,0,0,0.975099,159.64062,365.06934)"
       gradientUnits="userSpaceOnUse"
       r="1"
       cy="0"
       cx="0"
       fy="0"
       fx="0">
      <stop
         id="stop37578"
         offset="0"
         style="stop-opacity:1;stop-color:#852c26" />
      <stop
         id="stop37580"
         offset="0.0015476"
         style="stop-opacity:1;stop-color:#852c26" />
      <stop
         id="stop37582"
         offset="1"
         style="stop-opacity:1;stop-color:#451617" />
    </radialGradient>
    <clipPath
       id="clipPath37532"
       clipPathUnits="userSpaceOnUse">
      <path
         inkscape:connector-curvature="0"
         id="path37530"
         d="M 0,400 H 400 V 0 H 0 Z" />
    </clipPath>
    <radialGradient
       id="radialGradient37522"
       spreadMethod="pad"
       gradientTransform="matrix(-0.2637247,0,0,0.2637247,159.68652,365.88965)"
       gradientUnits="userSpaceOnUse"
       r="1"
       cy="0"
       cx="0"
       fy="0"
       fx="0">
      <stop
         id="stop37516"
         offset="0"
         style="stop-opacity:1;stop-color:#852c26" />
      <stop
         id="stop37518"
         offset="0.0015476"
         style="stop-opacity:1;stop-color:#852c26" />
      <stop
         id="stop37520"
         offset="1"
         style="stop-opacity:1;stop-color:#451617" />
    </radialGradient>
    <clipPath
       id="clipPath37354"
       clipPathUnits="userSpaceOnUse">
      <path
         inkscape:connector-curvature="0"
         id="path37352"
         d="M 0,400 H 400 V 0 H 0 Z" />
    </clipPath>
    <radialGradient
       id="radialGradient37344"
       spreadMethod="pad"
       gradientTransform="matrix(0.975099,0,0,0.975099,155.76025,365.06934)"
       gradientUnits="userSpaceOnUse"
       r="1"
       cy="0"
       cx="0"
       fy="0"
       fx="0">
      <stop
         id="stop37338"
         offset="0"
         style="stop-opacity:1;stop-color:#eee54f" />
      <stop
         id="stop37340"
         offset="0.9977451"
         style="stop-opacity:1;stop-color:#e04a20" />
      <stop
         id="stop37342"
         offset="1"
         style="stop-opacity:1;stop-color:#e04a20" />
    </radialGradient>
    <clipPath
       id="clipPath37272"
       clipPathUnits="userSpaceOnUse">
      <path
         inkscape:connector-curvature="0"
         id="path37270"
         d="M 0,400 H 400 V 0 H 0 Z" />
    </clipPath>
    <radialGradient
       id="radialGradient37262"
       spreadMethod="pad"
       gradientTransform="matrix(0.2636045,0,0,0.2636045,155.71484,365.89062)"
       gradientUnits="userSpaceOnUse"
       r="1"
       cy="0"
       cx="0"
       fy="0"
       fx="0">
      <stop
         id="stop37256"
         offset="0"
         style="stop-opacity:1;stop-color:#eee54f" />
      <stop
         id="stop37258"
         offset="0.9977451"
         style="stop-opacity:1;stop-color:#e04a20" />
      <stop
         id="stop37260"
         offset="1"
         style="stop-opacity:1;stop-color:#e04a20" />
    </radialGradient>
    <radialGradient
       id="radialGradient5422"
       spreadMethod="pad"
       gradientTransform="matrix(0.1021146,-0.0756367,0.070541,0.1077099,271.97559,176.14746)"
       gradientUnits="userSpaceOnUse"
       r="1"
       cy="0"
       cx="0"
       fy="0"
       fx="0">
      <stop
         id="stop5416"
         offset="0"
         style="stop-opacity:1;stop-color:#ffffff" />
      <stop
         id="stop5418"
         offset="0.00091915"
         style="stop-opacity:1;stop-color:#ffffff" />
      <stop
         id="stop5420"
         offset="1"
         style="stop-opacity:1;stop-color:#e63e6e" />
    </radialGradient>
    <clipPath
       id="clipPath5374"
       clipPathUnits="userSpaceOnUse">
      <path
         inkscape:connector-curvature="0"
         id="path5372"
         d="M 0,400 H 400 V 0 H 0 Z" />
    </clipPath>
    <radialGradient
       id="radialGradient5364"
       spreadMethod="pad"
       gradientTransform="matrix(0.1318831,-9.013e-4,-1.001e-4,0.1311822,269.56445,176.4248)"
       gradientUnits="userSpaceOnUse"
       r="1"
       cy="0"
       cx="0"
       fy="0"
       fx="0">
      <stop
         id="stop5358"
         offset="0"
         style="stop-opacity:1;stop-color:#ffffff" />
      <stop
         id="stop5360"
         offset="0.00091915"
         style="stop-opacity:1;stop-color:#ffffff" />
      <stop
         id="stop5362"
         offset="1"
         style="stop-opacity:1;stop-color:#e63e6e" />
    </radialGradient>
    <clipPath
       id="clipPath5316"
       clipPathUnits="userSpaceOnUse">
      <path
         inkscape:connector-curvature="0"
         id="path5314"
         d="M 0,400 H 400 V 0 H 0 Z" />
    </clipPath>
    <radialGradient
       id="radialGradient5306"
       spreadMethod="pad"
       gradientTransform="matrix(0.1105445,0.0935377,-0.0930375,0.1086438,268.6875,176.89062)"
       gradientUnits="userSpaceOnUse"
       r="1"
       cy="0"
       cx="0"
       fy="0"
       fx="0">
      <stop
         id="stop5300"
         offset="0"
         style="stop-opacity:1;stop-color:#ffffff" />
      <stop
         id="stop5302"
         offset="0.00091915"
         style="stop-opacity:1;stop-color:#ffffff" />
      <stop
         id="stop5304"
         offset="1"
         style="stop-opacity:1;stop-color:#e63e6e" />
    </radialGradient>
  </defs>
  <sodipodi:namedview
     id="base"
     pagecolor="#ffffff"
     bordercolor="#666666"
     borderopacity="1.0"
     inkscape:pageopacity="0.0"
     inkscape:pageshadow="2"
     inkscape:zoom="11.2"
     inkscape:cx="16.969434"
     inkscape:cy="14.706979"
     inkscape:document-units="mm"
     inkscape:current-layer="layer1"
     showgrid="false"
     inkscape:window-width="954"
     inkscape:window-height="630"
     inkscape:window-x="-3"
     inkscape:window-y="6"
     inkscape:window-maximized="0" />
  <metadata
     id="metadata5">
    <rdf:RDF>
      <cc:Work
         rdf:about="">
        <dc:format>image/svg+xml</dc:format>
        <dc:type
           rdf:resource="http://purl.org/dc/dcmitype/StillImage" />
        <dc:title></dc:title>
      </cc:Work>
    </rdf:RDF>
  </metadata>
  <g
     inkscape:label="Layer 1"
     inkscape:groupmode="layer"
     id="layer1"
     transform="translate(-56.79529,-100.82288)">
    <g
       id="g10374"
       transform="matrix(0.35277777,0,0,-0.35277777,56.824571,105.52611)">
      <path
         d="M 0,0 H 19.917 L 19.916,13.25 H 0 Z M 19.958,-0.043 V 0 Z M -0.083,-0.084 V 13.332 H 20 V -0.043 -0.084 Z"
         style="fill:#221f21;fill-opacity:1;fill-rule:nonzero;stroke:none"
         id="path10376"
         inkscape:connector-curvature="0" />
    </g>
    <path
       d="m 56.809863,105.54139 h 7.05556 v -1.5681 h -7.05556 z"
       style="fill:#c12131;fill-opacity:1;fill-rule:nonzero;stroke:none;stroke-width:0.35277778"
       id="path10378"
       inkscape:connector-curvature="0" />
    <path
       d="m 56.809863,103.97294 h 7.05556 v -1.56775 h -7.05556 z"
       style="fill:#2945a1;fill-opacity:1;fill-rule:nonzero;stroke:none;stroke-width:0.35277778"
       id="path10380"
       inkscape:connector-curvature="0" />
    <path
       d="m 63.865423,100.83745 h -7.05556 v 1.56774 h 7.05556 z"
       style="fill:#ffffff;fill-opacity:1;fill-rule:nonzero;stroke:none;stroke-width:0.35277778"
       id="path10382"
       inkscape:connector-curvature="0" />
    <g
       id="g10384"
       transform="matrix(0.35277777,0,0,-0.35277777,59.855391,101.96422)">
      <path
         d="m 0,0 h -5.299 c -0.077,-1.087 -0.201,-2.183 -0.075,-3.272 0.08,-0.719 0.299,-1.435 0.711,-2.038 0.492,-0.728 1.231,-1.255 2.014,-1.634 0.781,0.382 1.521,0.906 2.013,1.634 0.411,0.603 0.631,1.319 0.711,2.038 C 0.2,-2.183 0.075,-1.087 0,0"
         style="fill:#ffffff;fill-opacity:1;fill-rule:nonzero;stroke:none"
         id="path10386"
         inkscape:connector-curvature="0" />
    </g>
    <g
       id="g10388"
       transform="matrix(0.35277777,0,0,-0.35277777,58.030552,102.02246)">
      <path
         d="M 0,0 H 5.046 C 5.119,-1.035 5.237,-2.079 5.119,-3.116 5.041,-3.801 4.833,-4.483 4.441,-5.057 c 0.054,0.305 -0.151,0.62 -0.445,0.71 -0.229,0.076 -0.5,0.015 -0.67,-0.164 -0.091,0.239 -0.274,0.449 -0.522,0.533 -0.003,0.321 0,0.64 0,0.96 0.129,0.003 0.26,0 0.389,0 0.315,-0.003 0.625,-0.061 0.933,-0.119 -0.092,0.258 -0.092,0.541 -0.002,0.799 -0.298,-0.057 -0.601,-0.113 -0.906,-0.119 -0.136,-0.004 -0.273,0 -0.409,-0.004 -0.008,0.218 -0.008,0.434 -0.003,0.649 0.35,0.003 0.697,-0.054 1.039,-0.122 -0.089,0.259 -0.089,0.541 0.004,0.8 -0.346,-0.067 -0.693,-0.13 -1.045,-0.119 -0.003,0.337 0.057,0.669 0.121,0.999 -0.261,-0.089 -0.543,-0.089 -0.804,0 0.065,-0.33 0.125,-0.662 0.122,-0.999 -0.353,-0.011 -0.7,0.052 -1.045,0.119 0.092,-0.259 0.09,-0.541 0.003,-0.8 0.345,0.065 0.692,0.132 1.045,0.12 -0.008,-0.216 0.004,-0.432 -0.008,-0.647 -0.136,0.004 -0.273,0 -0.409,0.004 -0.306,0.006 -0.608,0.062 -0.906,0.119 0.089,-0.258 0.089,-0.541 -0.002,-0.799 0.435,0.09 0.878,0.143 1.322,0.116 -0.003,-0.319 0.003,-0.636 0,-0.957 C 2.037,-4.049 1.865,-4.205 1.771,-4.398 L 1.719,-4.511 C 1.546,-4.327 1.263,-4.268 1.027,-4.354 0.746,-4.451 0.553,-4.762 0.605,-5.057 0.213,-4.483 0.005,-3.801 -0.071,-3.116 -0.19,-2.079 -0.075,-1.035 0,0"
         style="fill:#c12131;fill-opacity:1;fill-rule:nonzero;stroke:none"
         id="path10390"
         inkscape:connector-curvature="0" />
    </g>
    <g
       id="g10392"
       transform="matrix(0.35277777,0,0,-0.35277777,58.778823,102.11203)">
      <path
         d="M 0,0 C 0.261,-0.089 0.543,-0.089 0.804,0 0.74,-0.33 0.68,-0.662 0.683,-0.999 1.035,-1.01 1.382,-0.947 1.728,-0.88 1.635,-1.139 1.635,-1.421 1.724,-1.68 1.382,-1.612 1.035,-1.555 0.685,-1.558 0.68,-1.773 0.68,-1.989 0.687,-2.207 c 0.137,0.004 0.273,0 0.41,0.004 0.305,0.006 0.608,0.062 0.905,0.119 -0.089,-0.258 -0.089,-0.541 0.003,-0.799 -0.308,0.058 -0.618,0.116 -0.933,0.119 -0.129,0 -0.26,0.003 -0.389,0 0,-0.32 -0.003,-0.639 0,-0.96 -0.179,0.066 -0.383,0.066 -0.561,0 0.003,0.321 -0.003,0.638 0,0.957 -0.444,0.027 -0.887,-0.026 -1.322,-0.116 0.091,0.258 0.091,0.541 0.002,0.799 0.298,-0.057 0.6,-0.113 0.906,-0.119 0.136,-0.004 0.272,0 0.409,-0.004 0.012,0.215 0,0.431 0.008,0.646 -0.354,0.013 -0.7,-0.054 -1.045,-0.119 0.087,0.259 0.089,0.541 -0.003,0.8 0.345,-0.067 0.692,-0.13 1.045,-0.119 C 0.125,-0.662 0.064,-0.33 0,0"
         style="fill:#ffffff;fill-opacity:1;fill-rule:nonzero;stroke:none"
         id="path10394"
         inkscape:connector-curvature="0" />
    </g>
    <g
       id="g10396"
       transform="matrix(0.35277777,0,0,-0.35277777,58.821902,103.42564)">
      <path
         d="m 0,0 c 0.178,0.065 0.382,0.065 0.561,0 0.248,-0.084 0.431,-0.295 0.522,-0.533 0.169,0.179 0.44,0.24 0.67,0.164 0.294,-0.09 0.499,-0.405 0.445,-0.71 -0.469,-0.694 -1.174,-1.193 -1.918,-1.558 -0.744,0.363 -1.449,0.864 -1.918,1.558 -0.052,0.295 0.141,0.605 0.422,0.702 0.236,0.087 0.519,0.027 0.692,-0.156 l 0.052,0.112 C -0.378,-0.228 -0.207,-0.071 0,0"
         style="fill:#2945a1;fill-opacity:1;fill-rule:nonzero;stroke:none"
         id="path10398"
         inkscape:connector-curvature="0" />
    </g>
  </g>
</svg>
