<?xml version="1.0" encoding="UTF-8" standalone="no"?>
<!-- Created with Inkscape (http://www.inkscape.org/) -->

<svg
   xmlns:dc="http://purl.org/dc/elements/1.1/"
   xmlns:cc="http://creativecommons.org/ns#"
   xmlns:rdf="http://www.w3.org/1999/02/22-rdf-syntax-ns#"
   xmlns:svg="http://www.w3.org/2000/svg"
   xmlns="http://www.w3.org/2000/svg"
   xmlns:sodipodi="http://sodipodi.sourceforge.net/DTD/sodipodi-0.dtd"
   xmlns:inkscape="http://www.inkscape.org/namespaces/inkscape"
   width="7.0848298mm"
   height="4.7329121mm"
   viewBox="0 0 7.0848298 4.7329121"
   version="1.1"
   id="svg8"
   inkscape:version="0.92.4 (5da689c313, 2019-01-14)"
   sodipodi:docname="sri_lanka.svg">
  <defs
     id="defs2">
    <radialGradient
       id="radialGradient37584"
       spreadMethod="pad"
       gradientTransform="matrix(0.975099,0,0,0.975099,159.64062,365.06934)"
       gradientUnits="userSpaceOnUse"
       r="1"
       cy="0"
       cx="0"
       fy="0"
       fx="0">
      <stop
         id="stop37578"
         offset="0"
         style="stop-opacity:1;stop-color:#852c26" />
      <stop
         id="stop37580"
         offset="0.0015476"
         style="stop-opacity:1;stop-color:#852c26" />
      <stop
         id="stop37582"
         offset="1"
         style="stop-opacity:1;stop-color:#451617" />
    </radialGradient>
    <clipPath
       id="clipPath37532"
       clipPathUnits="userSpaceOnUse">
      <path
         inkscape:connector-curvature="0"
         id="path37530"
         d="M 0,400 H 400 V 0 H 0 Z" />
    </clipPath>
    <radialGradient
       id="radialGradient37522"
       spreadMethod="pad"
       gradientTransform="matrix(-0.2637247,0,0,0.2637247,159.68652,365.88965)"
       gradientUnits="userSpaceOnUse"
       r="1"
       cy="0"
       cx="0"
       fy="0"
       fx="0">
      <stop
         id="stop37516"
         offset="0"
         style="stop-opacity:1;stop-color:#852c26" />
      <stop
         id="stop37518"
         offset="0.0015476"
         style="stop-opacity:1;stop-color:#852c26" />
      <stop
         id="stop37520"
         offset="1"
         style="stop-opacity:1;stop-color:#451617" />
    </radialGradient>
    <clipPath
       id="clipPath37354"
       clipPathUnits="userSpaceOnUse">
      <path
         inkscape:connector-curvature="0"
         id="path37352"
         d="M 0,400 H 400 V 0 H 0 Z" />
    </clipPath>
    <radialGradient
       id="radialGradient37344"
       spreadMethod="pad"
       gradientTransform="matrix(0.975099,0,0,0.975099,155.76025,365.06934)"
       gradientUnits="userSpaceOnUse"
       r="1"
       cy="0"
       cx="0"
       fy="0"
       fx="0">
      <stop
         id="stop37338"
         offset="0"
         style="stop-opacity:1;stop-color:#eee54f" />
      <stop
         id="stop37340"
         offset="0.9977451"
         style="stop-opacity:1;stop-color:#e04a20" />
      <stop
         id="stop37342"
         offset="1"
         style="stop-opacity:1;stop-color:#e04a20" />
    </radialGradient>
    <clipPath
       id="clipPath37272"
       clipPathUnits="userSpaceOnUse">
      <path
         inkscape:connector-curvature="0"
         id="path37270"
         d="M 0,400 H 400 V 0 H 0 Z" />
    </clipPath>
    <radialGradient
       id="radialGradient37262"
       spreadMethod="pad"
       gradientTransform="matrix(0.2636045,0,0,0.2636045,155.71484,365.89062)"
       gradientUnits="userSpaceOnUse"
       r="1"
       cy="0"
       cx="0"
       fy="0"
       fx="0">
      <stop
         id="stop37256"
         offset="0"
         style="stop-opacity:1;stop-color:#eee54f" />
      <stop
         id="stop37258"
         offset="0.9977451"
         style="stop-opacity:1;stop-color:#e04a20" />
      <stop
         id="stop37260"
         offset="1"
         style="stop-opacity:1;stop-color:#e04a20" />
    </radialGradient>
    <radialGradient
       id="radialGradient5422"
       spreadMethod="pad"
       gradientTransform="matrix(0.1021146,-0.0756367,0.070541,0.1077099,271.97559,176.14746)"
       gradientUnits="userSpaceOnUse"
       r="1"
       cy="0"
       cx="0"
       fy="0"
       fx="0">
      <stop
         id="stop5416"
         offset="0"
         style="stop-opacity:1;stop-color:#ffffff" />
      <stop
         id="stop5418"
         offset="0.00091915"
         style="stop-opacity:1;stop-color:#ffffff" />
      <stop
         id="stop5420"
         offset="1"
         style="stop-opacity:1;stop-color:#e63e6e" />
    </radialGradient>
    <clipPath
       id="clipPath5374"
       clipPathUnits="userSpaceOnUse">
      <path
         inkscape:connector-curvature="0"
         id="path5372"
         d="M 0,400 H 400 V 0 H 0 Z" />
    </clipPath>
    <radialGradient
       id="radialGradient5364"
       spreadMethod="pad"
       gradientTransform="matrix(0.1318831,-9.013e-4,-1.001e-4,0.1311822,269.56445,176.4248)"
       gradientUnits="userSpaceOnUse"
       r="1"
       cy="0"
       cx="0"
       fy="0"
       fx="0">
      <stop
         id="stop5358"
         offset="0"
         style="stop-opacity:1;stop-color:#ffffff" />
      <stop
         id="stop5360"
         offset="0.00091915"
         style="stop-opacity:1;stop-color:#ffffff" />
      <stop
         id="stop5362"
         offset="1"
         style="stop-opacity:1;stop-color:#e63e6e" />
    </radialGradient>
    <clipPath
       id="clipPath5316"
       clipPathUnits="userSpaceOnUse">
      <path
         inkscape:connector-curvature="0"
         id="path5314"
         d="M 0,400 H 400 V 0 H 0 Z" />
    </clipPath>
    <radialGradient
       id="radialGradient5306"
       spreadMethod="pad"
       gradientTransform="matrix(0.1105445,0.0935377,-0.0930375,0.1086438,268.6875,176.89062)"
       gradientUnits="userSpaceOnUse"
       r="1"
       cy="0"
       cx="0"
       fy="0"
       fx="0">
      <stop
         id="stop5300"
         offset="0"
         style="stop-opacity:1;stop-color:#ffffff" />
      <stop
         id="stop5302"
         offset="0.00091915"
         style="stop-opacity:1;stop-color:#ffffff" />
      <stop
         id="stop5304"
         offset="1"
         style="stop-opacity:1;stop-color:#e63e6e" />
    </radialGradient>
  </defs>
  <sodipodi:namedview
     id="base"
     pagecolor="#ffffff"
     bordercolor="#666666"
     borderopacity="1.0"
     inkscape:pageopacity="0.0"
     inkscape:pageshadow="2"
     inkscape:zoom="11.2"
     inkscape:cx="21.676416"
     inkscape:cy="7.9246582"
     inkscape:document-units="mm"
     inkscape:current-layer="layer1"
     showgrid="false"
     inkscape:window-width="954"
     inkscape:window-height="630"
     inkscape:window-x="-3"
     inkscape:window-y="6"
     inkscape:window-maximized="0" />
  <metadata
     id="metadata5">
    <rdf:RDF>
      <cc:Work
         rdf:about="">
        <dc:format>image/svg+xml</dc:format>
        <dc:type
           rdf:resource="http://purl.org/dc/dcmitype/StillImage" />
        <dc:title></dc:title>
      </cc:Work>
    </rdf:RDF>
  </metadata>
  <g
     inkscape:label="Layer 1"
     inkscape:groupmode="layer"
     id="layer1"
     transform="translate(-55.549899,-99.028348)">
    <path
       d="m 55.579179,103.73152 h 7.02627 v -4.674312 h -7.02627 z m 7.04109,0.0152 v -0.0152 z m -7.07037,0.0145 v -4.732872 h 7.08483 v 4.718412 0.0145 z"
       style="fill:#221f21;fill-opacity:1;fill-rule:nonzero;stroke:none;stroke-width:0.35277778"
       id="path39254"
       inkscape:connector-curvature="0" />
    <path
       d="m 62.620269,103.74633 h -7.05556 v -4.703582 h 7.05556 z"
       style="fill:#f1bc24;fill-opacity:1;fill-rule:nonzero;stroke:none;stroke-width:0.35277778"
       id="path39256"
       inkscape:connector-curvature="0" />
    <path
       d="m 62.326049,103.45247 h -4.1155 v -4.115862 h 4.1155 z"
       style="fill:#8d2041;fill-opacity:1;fill-rule:nonzero;stroke:none;stroke-width:0.35277778"
       id="path39258"
       inkscape:connector-curvature="0" />
    <path
       d="m 56.887629,103.45247 h -1.02905 v -4.115862 h 1.02905 z"
       style="fill:#31703a;fill-opacity:1;fill-rule:nonzero;stroke:none;stroke-width:0.35277778"
       id="path39260"
       inkscape:connector-curvature="0" />
    <path
       d="m 57.916329,103.45247 h -1.0287 v -4.115862 h 1.0287 z"
       style="fill:#f35f25;fill-opacity:1;fill-rule:nonzero;stroke:none;stroke-width:0.35277778"
       id="path39262"
       inkscape:connector-curvature="0" />
    <g
       id="g39264"
       transform="matrix(0.35277777,0,0,-0.35277777,58.304457,99.443637)">
      <path
         d="m 0,0 0.051,0.037 0.235,-0.223 c 0.072,0.084 0.192,0.095 0.294,0.084 l 0.167,-0.092 c 0.11,-0.174 0.19,-0.365 0.276,-0.55 l 0.079,-0.163 0.005,-0.034 -0.263,0.043 c -0.152,0.013 -0.305,0.024 -0.45,0.07 -0.107,0.037 -0.221,0.099 -0.262,0.212 l 0.002,0.199 0.019,0.063 0.015,0.04 0.034,0.062 C 0.177,-0.141 0.077,-0.074 0,0"
         style="fill:#efbc23;fill-opacity:1;fill-rule:nonzero;stroke:none"
         id="path39266"
         inkscape:connector-curvature="0" />
    </g>
    <g
       id="g39268"
       transform="matrix(0.35277777,0,0,-0.35277777,62.231856,99.443637)">
      <path
         d="m 0,0 -0.051,0.037 -0.235,-0.223 c -0.072,0.084 -0.192,0.095 -0.294,0.084 l -0.167,-0.092 c -0.11,-0.174 -0.19,-0.365 -0.276,-0.55 l -0.079,-0.163 -0.005,-0.034 0.263,0.043 c 0.152,0.013 0.305,0.024 0.45,0.07 0.107,0.037 0.221,0.099 0.262,0.212 l -0.002,0.199 -0.019,0.063 -0.014,0.04 -0.035,0.062 C -0.177,-0.141 -0.077,-0.074 0,0"
         style="fill:#efbc23;fill-opacity:1;fill-rule:nonzero;stroke:none"
         id="path39270"
         inkscape:connector-curvature="0" />
    </g>
    <g
       id="g39272"
       transform="matrix(0.35277777,0,0,-0.35277777,58.304457,103.34487)">
      <path
         d="M 0,0 0.051,-0.037 0.286,0.185 C 0.358,0.102 0.478,0.09 0.58,0.102 l 0.167,0.091 c 0.11,0.174 0.19,0.366 0.276,0.55 L 1.102,0.906 1.107,0.941 0.844,0.896 C 0.692,0.885 0.539,0.873 0.394,0.827 0.287,0.789 0.173,0.728 0.132,0.615 L 0.134,0.416 0.153,0.353 0.168,0.314 0.202,0.251 C 0.177,0.141 0.077,0.074 0,0"
         style="fill:#efbc23;fill-opacity:1;fill-rule:nonzero;stroke:none"
         id="path39274"
         inkscape:connector-curvature="0" />
    </g>
    <g
       id="g39276"
       transform="matrix(0.35277777,0,0,-0.35277777,62.231856,103.34487)">
      <path
         d="M 0,0 -0.051,-0.037 -0.286,0.185 C -0.358,0.102 -0.478,0.09 -0.58,0.102 l -0.167,0.091 c -0.11,0.174 -0.19,0.366 -0.276,0.55 l -0.079,0.163 -0.005,0.035 0.263,-0.045 c 0.152,-0.011 0.305,-0.023 0.45,-0.069 0.107,-0.038 0.221,-0.099 0.262,-0.212 L -0.134,0.416 -0.153,0.353 -0.167,0.314 -0.202,0.251 C -0.177,0.141 -0.077,0.074 0,0"
         style="fill:#efbc23;fill-opacity:1;fill-rule:nonzero;stroke:none"
         id="path39278"
         inkscape:connector-curvature="0" />
    </g>
    <g
       id="g39280"
       transform="matrix(0.35277777,0,0,-0.35277777,59.193626,100.39967)">
      <path
         d="M 0,0 0.16,0.239 0.147,0.178 C 0.094,-0.097 0.081,-0.376 0.067,-0.653 L 0.056,-0.897 C 0.043,-1.019 0.059,-1.144 0.042,-1.265 0.036,-1.661 0.036,-2.058 0.038,-2.453 l 0.009,-0.262 0.006,-0.227 c -0.157,-0.073 -0.336,-0.061 -0.5,-0.02 l 0.01,0.045 0.015,0.2 c 0.014,0.098 0.012,0.198 0.026,0.296 l 0.023,0.24 0.015,0.191 0.021,0.219 c 0.025,0.18 0.039,0.361 0.067,0.538 l 0.017,0.136 0.025,0.158 0.022,0.126 0.018,0.105 0.024,0.117 0.038,0.179 0.057,0.21 0.036,0.117 0.017,0.041 z"
         style="fill:#efbc23;fill-opacity:1;fill-rule:nonzero;stroke:none"
         id="path39282"
         inkscape:connector-curvature="0" />
    </g>
    <g
       id="g39284"
       transform="matrix(0.35277777,0,0,-0.35277777,59.441346,100.9271)">
      <path
         d="M 0,0 C 0.183,-0.057 0.373,-0.066 0.562,-0.077 0.66,-0.08 0.759,-0.086 0.856,-0.08 l 0.161,0.02 0.18,-0.16 0.052,-0.138 0.004,-0.044 -0.155,0.052 C 0.977,-0.328 0.853,-0.345 0.735,-0.377 v 0.145 L 0.711,-0.216 C 0.562,-0.253 0.403,-0.281 0.251,-0.24 0.134,-0.211 0.033,-0.117 0,0"
         style="fill:#efbc23;fill-opacity:1;fill-rule:nonzero;stroke:none"
         id="path39286"
         inkscape:connector-curvature="0" />
    </g>
    <g
       id="g39288"
       transform="matrix(0.35277777,0,0,-0.35277777,58.899417,101.38911)">
      <path
         d="M 0,0 0.227,0.096 0.317,0.059 0.315,-0.007 0.273,-0.06 0.299,-0.112 c 0.083,-0.082 0.202,-0.112 0.315,-0.116 0.128,-0.001 0.26,0.022 0.368,0.092 L 0.956,0.001 C 1.029,0.09 1.175,0.019 1.198,-0.079 L 1.199,-0.156 C 1.143,-0.267 1.019,-0.312 0.905,-0.335 0.698,-0.374 0.482,-0.366 0.281,-0.31 0.187,-0.28 0.086,-0.237 0.025,-0.155 Z"
         style="fill:#efbc23;fill-opacity:1;fill-rule:nonzero;stroke:none"
         id="path39290"
         inkscape:connector-curvature="0" />
    </g>
    <g
       id="g39292"
       transform="matrix(0.35277777,0,0,-0.35277777,59.291136,101.52757)">
      <path
         d="M 0,0 0.249,-0.038 C 0.357,-0.102 0.415,-0.22 0.466,-0.329 L 0.549,-0.53 0.591,-0.624 0.732,-0.839 C 0.84,-0.948 0.942,-1.065 1.014,-1.201 L 1.036,-1.392 1.021,-1.418 0.82,-1.527 C 0.683,-1.52 0.569,-1.431 0.475,-1.339 L 0.286,-1.103 0.241,-1.062 0.23,-1.15 0.212,-1.206 0.098,-1.224 -0.079,-1.132 v 0.016 l 0.09,0.111 0.046,0.075 -0.019,0.082 -0.019,0.066 -0.124,0.211 0.066,0.071 -0.063,0.096 0.056,0.039 -0.003,0.066 -0.044,0.054 0.058,0.037 -0.027,0.135 0.022,0.003 z"
         style="fill:#efbc23;fill-opacity:1;fill-rule:nonzero;stroke:none"
         id="path39294"
         inkscape:connector-curvature="0" />
    </g>
    <g
       id="g39296"
       transform="matrix(0.35277777,0,0,-0.35277777,58.962456,101.5431)">
      <path
         d="M 0,0 0.176,0.012 C 0.265,-0.004 0.355,-0.021 0.447,-0.019 L 0.71,0.014 0.792,-0.014 0.79,-0.066 0.574,-0.133 C 0.449,-0.147 0.322,-0.147 0.196,-0.131 l -0.198,0.08 z"
         style="fill:#efbc23;fill-opacity:1;fill-rule:nonzero;stroke:none"
         id="path39298"
         inkscape:connector-curvature="0" />
    </g>
    <g
       id="g39300"
       transform="matrix(0.35277777,0,0,-0.35277777,58.968667,101.62025)">
      <path
         d="M 0,0 0.082,0.021 C 0.174,0.017 0.264,-0.013 0.355,-0.011 0.458,-0.012 0.559,0.023 0.662,0.019 L 0.744,-0.035 0.654,-0.092 C 0.521,-0.133 0.38,-0.129 0.243,-0.119 l -0.24,0.07 z"
         style="fill:#efbc23;fill-opacity:1;fill-rule:nonzero;stroke:none"
         id="path39302"
         inkscape:connector-curvature="0" />
    </g>
    <g
       id="g39304"
       transform="matrix(0.35277777,0,0,-0.35277777,59.068217,101.69087)">
      <path
         d="M 0,0 C 0.128,-0.015 0.252,0.022 0.379,0.034 L 0.475,0.017 0.456,0.014 0.459,-0.017 0.223,-0.109 c -0.116,-0.023 -0.235,-0.016 -0.349,0.012 l -0.106,0.064 -0.007,0.005 0.015,0.041 z"
         style="fill:#efbc23;fill-opacity:1;fill-rule:nonzero;stroke:none"
         id="path39306"
         inkscape:connector-curvature="0" />
    </g>
    <g
       id="g39308"
       transform="matrix(0.35277777,0,0,-0.35277777,59.197436,101.74016)">
      <path
         d="M 0,0 0.112,0.006 V -0.033 L 0.014,-0.096 c -0.135,-0.048 -0.281,-0.06 -0.422,-0.052 l -0.19,0.043 -0.017,0.053 c 0.103,0.025 0.207,0.008 0.311,0.013 C -0.201,-0.043 -0.101,-0.021 0,0"
         style="fill:#efbc23;fill-opacity:1;fill-rule:nonzero;stroke:none"
         id="path39310"
         inkscape:connector-curvature="0" />
    </g>
    <g
       id="g39312"
       transform="matrix(0.35277777,0,0,-0.35277777,60.791816,101.77147)">
      <path
         d="M 0,0 C 0.153,0.063 0.325,0.111 0.492,0.079 0.585,0.062 0.668,0.007 0.719,-0.072 L 0.768,-0.185 0.778,-0.229 0.773,-0.321 0.757,-0.426 C 0.726,-0.556 0.687,-0.682 0.64,-0.808 L 0.63,-0.839 0.607,-0.922 0.766,-0.847 1.027,-0.821 C 0.967,-0.981 0.817,-1.083 0.674,-1.163 L 0.668,-1.247 0.647,-1.362 0.605,-1.51 0.584,-1.58 C 0.546,-1.7 0.502,-1.817 0.461,-1.937 H -0.19 l 0.092,0.211 -0.171,-0.211 h -0.229 l 0.202,0.25 -0.026,0.004 C -0.413,-1.782 -0.516,-1.874 -0.64,-1.929 l -0.108,-0.025 0.004,0.075 0.131,0.241 c 0.08,0.069 0.194,0.077 0.294,0.058 l 0.221,-0.067 0.013,0.04 0.031,0.116 0.009,0.033 0.03,0.127 0.014,0.072 -0.023,0.264 -0.127,0.166 c -0.089,0.095 -0.182,0.19 -0.239,0.308 l -0.017,0.04 0.025,0.221 C -0.28,-0.143 -0.143,-0.062 0,0"
         style="fill:#efbc23;fill-opacity:1;fill-rule:nonzero;stroke:none"
         id="path39314"
         inkscape:connector-curvature="0" />
    </g>
    <g
       id="g39316"
       transform="matrix(0.35277777,0,0,-0.35277777,58.956947,101.81801)">
      <path
         d="M 0,0 0.083,0.033 0.199,0.009 0.271,-0.08 0.294,-0.109 0.309,-0.11 0.504,0.003 0.656,-0.096 0.769,-0.001 0.883,0.025 0.905,0.012 0.929,-0.032 0.931,-0.159 0.797,-0.238 H 0.571 l 0.076,-0.194 -0.041,-0.158 0.181,-0.125 -0.033,0.114 -0.002,0.074 0.069,0.06 c 0.097,0 0.177,-0.081 0.215,-0.165 L 1.037,-0.699 0.86,-0.804 C 0.758,-0.822 0.654,-0.816 0.551,-0.812 L 0.553,-0.895 0.718,-0.988 0.733,-1.025 0.55,-1.055 0.553,-1.192 0.491,-1.236 0.417,-1.128 0.412,-1.085 0.378,-1.101 l -0.144,0.05 0.179,0.159 0.015,0.087 C 0.314,-0.818 0.197,-0.823 0.086,-0.797 l -0.126,0.093 v 0.082 l 0.005,0.024 0.061,0.104 0.167,0.011 L 0.228,-0.622 0.193,-0.71 0.168,-0.722 c 0.102,-0.024 0.207,0.062 0.207,0.164 l -0.04,0.083 0.009,0.131 0.071,0.099 C 0.3,-0.264 0.172,-0.279 0.063,-0.22 l -0.089,0.102 v 0.073 z"
         style="fill:#efbc23;fill-opacity:1;fill-rule:nonzero;stroke:none"
         id="path39318"
         inkscape:connector-curvature="0" />
    </g>
    <g
       id="g39320"
       transform="matrix(0.35277777,0,0,-0.35277777,60.320186,101.30123)">
      <path
         d="m 0,0 h -0.003 -0.002 c -0.068,0.011 -0.151,0.114 -0.223,0.215 l -0.069,0.107 c 0.047,-0.159 0.058,-0.375 0.058,-0.375 l 0.001,-0.01 -0.01,0.002 c -0.164,0.041 -0.313,0.291 -0.357,0.375 0.002,-0.162 0.099,-0.286 0.148,-0.336 l 0.028,-0.028 0.01,-0.009 -0.013,-0.004 -0.026,-0.005 -0.132,0.072 -0.131,0.154 c -0.082,0.113 -0.144,0.225 -0.144,0.225 l 0.013,0.007 0.087,-0.141 0.186,-0.234 0.121,-0.068 h 0.009 c -0.04,0.039 -0.172,0.18 -0.173,0.377 l 0.001,0.022 0.002,0.029 0.013,-0.025 0.031,-0.057 0.08,-0.125 0.24,-0.211 -0.018,0.172 C -0.287,0.225 -0.311,0.338 -0.349,0.408 L -0.352,0.414 -0.338,0.422 -0.337,0.42 -0.336,0.419 C -0.327,0.403 -0.277,0.314 -0.215,0.224 -0.147,0.125 -0.062,0.025 -0.006,0.017 L 0,0.021 0.021,0.043 0.05,0.15 0.048,0.177 0.064,0.179 0.065,0.15 C 0.065,0.039 0.001,0.001 0,0 m -0.937,-0.008 -0.156,0.179 -0.068,0.128 -0.01,-0.176 -0.016,0.001 0.012,0.207 0.016,0.003 0.08,-0.155 0.134,-0.167 c -0.007,0.052 -0.03,0.251 -0.03,0.353 L -0.97,0.423 -0.955,0.418 -0.959,0.365 -0.944,0.139 -0.929,0 -0.927,-0.012 Z m -0.491,1.711 0.011,0.011 0.048,-0.049 0.123,-0.109 c 0.101,-0.079 0.233,-0.159 0.355,-0.159 h 0.001 l -0.119,0.224 10e-4,0.013 0.002,0.012 0.011,-0.006 0.154,-0.086 0.286,-0.086 0.062,0.009 -0.069,0.061 -0.083,0.122 0.001,0.006 0.001,0.008 0.008,-10e-4 0.088,-0.011 0.191,-0.012 c 0.091,-10e-4 0.181,0.012 0.217,0.045 L -0.128,1.684 C -0.173,1.645 -0.263,1.635 -0.356,1.635 c -0.118,0 -0.239,0.017 -0.272,0.021 L -0.552,1.55 -0.473,1.481 -0.463,1.473 -0.474,1.468 -0.555,1.452 C -0.714,1.453 -0.939,1.587 -0.992,1.619 L -0.93,1.474 -0.866,1.396 -0.854,1.383 -0.871,1.382 h -0.02 C -1.148,1.383 -1.428,1.703 -1.428,1.703 M -1.35,1.336 -1.4,1.291 -1.415,1.289 -1.491,1.333 -1.54,1.436 l -0.008,0.068 0.015,0.078 0.051,0.046 0.015,0.001 0.075,-0.043 0.049,-0.103 0.009,-0.068 z m 4.707,-3.428 -0.133,0.223 -0.001,0.223 0.045,0.212 0.021,0.054 0.022,0.053 0.109,0.249 c 0.05,0.115 0.101,0.231 0.143,0.351 l 0.064,0.22 c 0.021,0.103 0.037,0.209 0.02,0.315 -0.012,0.102 -0.059,0.2 -0.138,0.268 L 3.313,0.193 C 3.384,0.269 3.44,0.355 3.479,0.449 3.534,0.584 3.575,0.735 3.541,0.881 L 3.536,0.903 3.443,1.067 C 3.333,1.197 3.169,1.268 3.007,1.314 2.737,1.391 2.454,1.404 2.177,1.391 L 2.072,1.371 C 1.942,1.328 1.809,1.285 1.67,1.283 L 1.451,1.356 C 1.354,1.421 1.271,1.508 1.187,1.59 H 1.164 L 1.147,1.469 1.126,1.34 1.019,1.463 1.015,1.467 0.993,1.523 V 1.619 L 1.061,1.736 1.086,1.744 0.812,1.771 0.63,1.61 0.639,1.681 0.708,1.842 0.861,2.01 1.062,1.957 1.268,1.814 1.285,1.811 C 1.285,1.924 1.284,2.037 1.287,2.15 1.367,2.052 1.436,1.945 1.512,1.843 L 1.546,1.811 C 1.561,1.904 1.584,1.998 1.585,2.092 L 1.608,2.096 1.676,1.987 V 1.892 L 1.593,1.748 1.819,1.788 1.9,1.988 1.985,1.91 C 2.049,1.834 2.118,1.758 2.21,1.716 2.292,1.676 2.383,1.658 2.474,1.645 L 2.38,1.852 2.393,1.838 C 2.597,1.736 2.792,1.607 3.019,1.56 3.111,1.541 3.219,1.541 3.296,1.604 L 3.37,1.766 C 3.371,1.873 3.239,1.955 3.145,1.899 L 3.054,1.777 3.051,1.649 2.885,1.75 C 2.527,1.967 2.149,2.158 1.748,2.282 1.544,2.343 1.329,2.391 1.115,2.367 0.948,2.333 0.784,2.282 0.637,2.195 0.521,2.126 0.42,2.027 0.362,1.904 0.318,1.793 0.306,1.671 0.324,1.555 L 0.349,1.439 0.22,1.233 0.215,1.223 0.22,1.072 0.26,0.955 0.289,0.907 0.304,0.909 0.347,1.028 0.514,1.235 0.608,1.252 0.777,1.135 0.959,1.056 C 1.091,1.018 1.226,0.996 1.36,0.974 L 1.565,0.97 C 1.744,0.974 1.925,0.979 2.101,1.018 2.239,1.06 2.373,1.116 2.515,1.15 L 2.756,1.157 C 2.908,1.109 3.036,0.984 3.085,0.83 L 3.098,0.734 c 0.001,-0.094 0,-0.188 0,-0.283 -0.102,0.002 -0.203,0.01 -0.3,0.041 L 2.609,0.567 C 2.513,0.605 2.405,0.613 2.302,0.605 1.947,0.598 1.605,0.494 1.26,0.429 L 1.018,0.385 C 0.767,0.322 0.504,0.328 0.252,0.274 L 0.01,0.246 0.031,0.256 0.096,0.354 0.037,0.513 -0.025,0.479 -0.05,0.482 -0.138,0.584 -0.227,0.775 C -0.267,0.869 -0.3,0.963 -0.316,1.01 L -0.359,0.629 -0.622,1.006 -0.569,0.705 -0.571,0.684 -0.584,0.671 h -0.003 l -0.059,0.022 -0.085,0.049 -0.099,0.064 -0.011,-0.25 -0.012,-0.072 -0.01,-0.006 -0.006,0.001 -0.047,0.048 -0.073,0.091 -0.1,0.126 0.013,0.011 0.172,-0.218 0.039,-0.041 0.002,0.006 0.006,0.036 0.007,0.115 0.004,0.167 v 0.016 l 0.013,-0.008 0.193,-0.121 0.053,-0.02 v 0 l 0.002,0.018 -0.031,0.2 -0.031,0.138 0.013,0.006 0.264,-0.376 0.042,0.374 0.015,0.002 c 0,0 0.025,-0.074 0.061,-0.168 0.036,-0.095 0.083,-0.209 0.129,-0.289 l 0.078,-0.094 0.02,-0.003 0.053,0.034 -0.007,-0.002 0.073,0.659 -0.1,0.063 -0.14,0.128 -0.167,0.171 0.015,-0.394 -0.14,0.128 0.006,-0.08 -0.005,-0.05 -0.029,-0.025 H -0.467 L -0.53,1.154 -0.615,1.215 -0.707,1.289 -0.697,1.17 -0.704,1.107 -0.732,1.072 -0.738,1.07 -0.809,1.101 -0.899,1.163 -0.975,1.223 -0.924,1.135 -0.847,0.951 -0.853,0.932 -0.87,0.923 h -0.002 l -0.094,0.047 -0.123,0.097 -0.157,0.141 0.012,0.011 0.096,-0.088 0.182,-0.149 0.085,-0.043 h 0.001 l 0.005,0.002 0.002,0.01 -0.074,0.176 -0.076,0.128 0.011,0.011 0.069,-0.057 0.132,-0.096 0.063,-0.026 0.003,0.001 0.016,0.023 0.006,0.059 -0.013,0.138 -0.003,0.02 0.016,-0.014 0.067,-0.054 0.124,-0.092 0.055,-0.026 h 0.001 l 0.013,0.015 0.006,0.045 -0.01,0.1 L -0.462,1.324 -0.315,1.191 -0.331,1.59 -0.316,1.574 -0.202,1.456 0.004,1.261 0.096,1.206 0.119,1.42 C 0.1,1.518 0.055,1.609 -0.008,1.688 v 0.011 l 0.192,0.153 0.052,0.167 0.01,0.039 C 0.092,1.996 -0.075,1.906 -0.247,1.957 L -0.294,2.078 -0.515,2.275 -0.532,2.277 -0.534,2.1 -0.656,1.967 -0.782,2.123 C -0.849,2.186 -0.941,2.22 -1.032,2.215 L -1.018,2.177 V 2.006 L -1.205,1.862 -1.319,2.025 -1.518,2.068 -1.71,1.973 C -1.599,1.955 -1.472,1.908 -1.421,1.797 -1.533,1.788 -1.641,1.761 -1.749,1.733 -1.891,1.697 -2.032,1.658 -2.172,1.613 l -0.073,-0.011 0.025,0.011 0.057,0.134 -0.08,0.05 -0.247,-0.065 0.015,-0.156 0.124,-0.17 0.159,-0.121 0.158,0.092 0.146,-0.213 0.217,-0.091 0.001,0.193 0.2,-0.199 0.155,-0.161 0.064,-0.106 0.016,-0.045 0.01,-0.044 0.009,-0.042 0.011,-0.06 C -1.305,0.645 -1.402,0.687 -1.508,0.692 -1.599,0.697 -1.687,0.674 -1.777,0.66 L -1.775,0.818 -1.953,0.784 -2.161,0.781 C -2.264,0.796 -2.363,0.828 -2.465,0.85 L -2.39,0.629 -2.407,0.404 -2.533,0.277 -2.351,0.285 C -2.25,0.336 -2.166,0.416 -2.091,0.5 -2.104,0.379 -2.119,0.257 -2.155,0.141 l 0.02,-10e-4 0.123,0.172 0.019,0.087 0.008,0.101 h 0.097 l -0.01,-0.051 -0.013,-0.044 0.002,-0.069 0.02,-0.068 0.114,-0.107 10e-4,0.151 0.042,0.118 0.106,0.074 -0.005,-0.045 -0.025,-0.104 -0.017,-0.092 -0.013,-0.019 0.085,0.017 0.126,0.158 0.019,0.016 0.092,-0.089 0.001,-0.234 C -1.485,0.066 -1.604,0.009 -1.712,-0.063 L -1.976,-0.25 c -0.143,-0.104 -0.263,-0.242 -0.33,-0.406 -0.065,-0.164 -0.073,-0.348 -0.019,-0.516 l 0.004,-0.021 0.016,-0.039 0.015,-0.045 0.109,-0.176 0.21,-0.244 c 0.124,-0.106 0.265,-0.189 0.396,-0.283 l -0.004,0.188 -0.017,0.263 c -10e-4,0.099 -0.013,0.199 -0.013,0.297 l -0.005,0.152 0.047,-0.26 0.01,-0.199 0.003,-0.156 0.028,-0.117 0.047,-0.194 0.034,-0.123 0.045,-0.211 c 0.014,-0.11 0.023,-0.225 0,-0.337 l -0.151,-0.21 c -0.09,-0.036 -0.19,-0.002 -0.284,-0.019 l -0.171,-0.048 -0.095,-0.163 -0.014,-0.066 -0.022,-0.087 -0.02,-0.007 0.183,0.017 0.216,0.183 -0.073,-0.128 -0.016,-0.029 -0.018,-0.048 0.175,0.024 c 0.101,0.043 0.167,0.134 0.251,0.203 V -3.08 L -1.446,-3.081 -1.57,-3.28 c 0.266,-0.003 0.533,0 0.8,-0.001 l 0.117,0.086 -0.053,0.247 -0.027,0.074 -0.004,0.075 0.251,0.154 0.134,0.148 0.023,0.099 -0.157,-0.024 c -0.134,-0.024 -0.26,-0.079 -0.386,-0.133 l 0.036,0.08 0.064,0.159 0.02,0.073 0.049,0.141 c 0.099,0.132 0.212,0.252 0.307,0.388 0.107,0.146 0.194,0.306 0.269,0.47 l 0.003,0.026 0.014,-0.001 -0.006,0.021 0.013,10e-4 -0.002,0.033 0.01,-0.003 0.023,0.092 0.003,-0.071 -0.012,0.002 -0.003,-0.026 -0.011,-0.049 H -0.1 l -0.043,-0.119 -0.042,-0.096 -0.014,-0.033 c -0.049,-0.094 -0.103,-0.185 -0.164,-0.27 -0.092,-0.136 -0.206,-0.255 -0.318,-0.375 v -0.063 l -0.017,-0.013 0.177,0.029 c 0.465,0.102 0.904,0.302 1.313,0.542 0.104,0.065 0.218,0.113 0.316,0.187 0.107,0.07 0.221,0.125 0.343,0.163 0.146,0.044 0.308,0.072 0.453,0.013 l 0.185,-0.163 0.24,-0.222 0.159,-0.144 C 2.566,-1.854 2.655,-1.926 2.68,-2.033 L 2.694,-2.097 C 2.698,-2.188 2.696,-2.279 2.693,-2.371 L 2.703,-2.634 2.685,-2.824 2.672,-2.857 2.479,-2.854 C 2.385,-2.809 2.273,-2.775 2.169,-2.807 2.053,-2.844 1.979,-2.954 1.941,-3.064 L 1.913,-3.182 1.905,-3.281 2.033,-3.262 2.153,-3.175 2.115,-3.271 2.098,-3.277 2.353,-3.252 2.485,-3.138 2.418,-3.28 2.543,-3.302 c 0.096,-0.007 0.191,-0.019 0.288,-0.021 l 0.006,0.14 0.161,-0.055 c 0.113,-0.032 0.238,-0.045 0.35,0.003 L 3.4,-3.138 3.394,-3.088 3.373,-2.993 3.355,-2.927 3.329,-2.75 3.414,-2.582 3.258,-2.4 3.517,-2.364 c 0.097,0.032 0.172,0.111 0.218,0.202 -0.128,-0.004 -0.267,-0.007 -0.378,0.07 M -1.416,1.566 -1.467,1.599 -1.475,1.597 -1.504,1.569 -1.517,1.504 -1.509,1.442 -1.467,1.353 -1.415,1.32 l 0.008,0.002 0.029,0.028 0.013,0.065 -0.008,0.062 z"
         style="fill:#efbc23;fill-opacity:1;fill-rule:nonzero;stroke:none"
         id="path39322"
         inkscape:connector-curvature="0" />
    </g>
  </g>
</svg>
