<?xml version="1.0" encoding="UTF-8" standalone="no"?>
<!-- Created with Inkscape (http://www.inkscape.org/) -->

<svg
   xmlns:dc="http://purl.org/dc/elements/1.1/"
   xmlns:cc="http://creativecommons.org/ns#"
   xmlns:rdf="http://www.w3.org/1999/02/22-rdf-syntax-ns#"
   xmlns:svg="http://www.w3.org/2000/svg"
   xmlns="http://www.w3.org/2000/svg"
   xmlns:sodipodi="http://sodipodi.sourceforge.net/DTD/sodipodi-0.dtd"
   xmlns:inkscape="http://www.inkscape.org/namespaces/inkscape"
   width="7.084836mm"
   height="4.7328668mm"
   viewBox="0 0 7.084836 4.7328668"
   version="1.1"
   id="svg8"
   inkscape:version="0.92.4 (5da689c313, 2019-01-14)"
   sodipodi:docname="tajikistan.svg">
  <defs
     id="defs2">
    <radialGradient
       id="radialGradient37584"
       spreadMethod="pad"
       gradientTransform="matrix(0.975099,0,0,0.975099,159.64062,365.06934)"
       gradientUnits="userSpaceOnUse"
       r="1"
       cy="0"
       cx="0"
       fy="0"
       fx="0">
      <stop
         id="stop37578"
         offset="0"
         style="stop-opacity:1;stop-color:#852c26" />
      <stop
         id="stop37580"
         offset="0.0015476"
         style="stop-opacity:1;stop-color:#852c26" />
      <stop
         id="stop37582"
         offset="1"
         style="stop-opacity:1;stop-color:#451617" />
    </radialGradient>
    <clipPath
       id="clipPath37532"
       clipPathUnits="userSpaceOnUse">
      <path
         inkscape:connector-curvature="0"
         id="path37530"
         d="M 0,400 H 400 V 0 H 0 Z" />
    </clipPath>
    <radialGradient
       id="radialGradient37522"
       spreadMethod="pad"
       gradientTransform="matrix(-0.2637247,0,0,0.2637247,159.68652,365.88965)"
       gradientUnits="userSpaceOnUse"
       r="1"
       cy="0"
       cx="0"
       fy="0"
       fx="0">
      <stop
         id="stop37516"
         offset="0"
         style="stop-opacity:1;stop-color:#852c26" />
      <stop
         id="stop37518"
         offset="0.0015476"
         style="stop-opacity:1;stop-color:#852c26" />
      <stop
         id="stop37520"
         offset="1"
         style="stop-opacity:1;stop-color:#451617" />
    </radialGradient>
    <clipPath
       id="clipPath37354"
       clipPathUnits="userSpaceOnUse">
      <path
         inkscape:connector-curvature="0"
         id="path37352"
         d="M 0,400 H 400 V 0 H 0 Z" />
    </clipPath>
    <radialGradient
       id="radialGradient37344"
       spreadMethod="pad"
       gradientTransform="matrix(0.975099,0,0,0.975099,155.76025,365.06934)"
       gradientUnits="userSpaceOnUse"
       r="1"
       cy="0"
       cx="0"
       fy="0"
       fx="0">
      <stop
         id="stop37338"
         offset="0"
         style="stop-opacity:1;stop-color:#eee54f" />
      <stop
         id="stop37340"
         offset="0.9977451"
         style="stop-opacity:1;stop-color:#e04a20" />
      <stop
         id="stop37342"
         offset="1"
         style="stop-opacity:1;stop-color:#e04a20" />
    </radialGradient>
    <clipPath
       id="clipPath37272"
       clipPathUnits="userSpaceOnUse">
      <path
         inkscape:connector-curvature="0"
         id="path37270"
         d="M 0,400 H 400 V 0 H 0 Z" />
    </clipPath>
    <radialGradient
       id="radialGradient37262"
       spreadMethod="pad"
       gradientTransform="matrix(0.2636045,0,0,0.2636045,155.71484,365.89062)"
       gradientUnits="userSpaceOnUse"
       r="1"
       cy="0"
       cx="0"
       fy="0"
       fx="0">
      <stop
         id="stop37256"
         offset="0"
         style="stop-opacity:1;stop-color:#eee54f" />
      <stop
         id="stop37258"
         offset="0.9977451"
         style="stop-opacity:1;stop-color:#e04a20" />
      <stop
         id="stop37260"
         offset="1"
         style="stop-opacity:1;stop-color:#e04a20" />
    </radialGradient>
    <radialGradient
       id="radialGradient5422"
       spreadMethod="pad"
       gradientTransform="matrix(0.1021146,-0.0756367,0.070541,0.1077099,271.97559,176.14746)"
       gradientUnits="userSpaceOnUse"
       r="1"
       cy="0"
       cx="0"
       fy="0"
       fx="0">
      <stop
         id="stop5416"
         offset="0"
         style="stop-opacity:1;stop-color:#ffffff" />
      <stop
         id="stop5418"
         offset="0.00091915"
         style="stop-opacity:1;stop-color:#ffffff" />
      <stop
         id="stop5420"
         offset="1"
         style="stop-opacity:1;stop-color:#e63e6e" />
    </radialGradient>
    <clipPath
       id="clipPath5374"
       clipPathUnits="userSpaceOnUse">
      <path
         inkscape:connector-curvature="0"
         id="path5372"
         d="M 0,400 H 400 V 0 H 0 Z" />
    </clipPath>
    <radialGradient
       id="radialGradient5364"
       spreadMethod="pad"
       gradientTransform="matrix(0.1318831,-9.013e-4,-1.001e-4,0.1311822,269.56445,176.4248)"
       gradientUnits="userSpaceOnUse"
       r="1"
       cy="0"
       cx="0"
       fy="0"
       fx="0">
      <stop
         id="stop5358"
         offset="0"
         style="stop-opacity:1;stop-color:#ffffff" />
      <stop
         id="stop5360"
         offset="0.00091915"
         style="stop-opacity:1;stop-color:#ffffff" />
      <stop
         id="stop5362"
         offset="1"
         style="stop-opacity:1;stop-color:#e63e6e" />
    </radialGradient>
    <clipPath
       id="clipPath5316"
       clipPathUnits="userSpaceOnUse">
      <path
         inkscape:connector-curvature="0"
         id="path5314"
         d="M 0,400 H 400 V 0 H 0 Z" />
    </clipPath>
    <radialGradient
       id="radialGradient5306"
       spreadMethod="pad"
       gradientTransform="matrix(0.1105445,0.0935377,-0.0930375,0.1086438,268.6875,176.89062)"
       gradientUnits="userSpaceOnUse"
       r="1"
       cy="0"
       cx="0"
       fy="0"
       fx="0">
      <stop
         id="stop5300"
         offset="0"
         style="stop-opacity:1;stop-color:#ffffff" />
      <stop
         id="stop5302"
         offset="0.00091915"
         style="stop-opacity:1;stop-color:#ffffff" />
      <stop
         id="stop5304"
         offset="1"
         style="stop-opacity:1;stop-color:#e63e6e" />
    </radialGradient>
  </defs>
  <sodipodi:namedview
     id="base"
     pagecolor="#ffffff"
     bordercolor="#666666"
     borderopacity="1.0"
     inkscape:pageopacity="0.0"
     inkscape:pageshadow="2"
     inkscape:zoom="11.2"
     inkscape:cx="27.186992"
     inkscape:cy="13.553042"
     inkscape:document-units="mm"
     inkscape:current-layer="layer1"
     showgrid="false"
     inkscape:window-width="954"
     inkscape:window-height="630"
     inkscape:window-x="-3"
     inkscape:window-y="6"
     inkscape:window-maximized="0" />
  <metadata
     id="metadata5">
    <rdf:RDF>
      <cc:Work
         rdf:about="">
        <dc:format>image/svg+xml</dc:format>
        <dc:type
           rdf:resource="http://purl.org/dc/dcmitype/StillImage" />
        <dc:title></dc:title>
      </cc:Work>
    </rdf:RDF>
  </metadata>
  <g
     inkscape:label="Layer 1"
     inkscape:groupmode="layer"
     id="layer1"
     transform="translate(-54.09189,-100.51757)">
    <g
       id="g2876"
       transform="matrix(0.35277777,0,0,-0.35277777,54.121171,105.22151)">
      <path
         d="M 0,0 H 19.917 V 13.252 H 0 Z M 19.958,-0.041 V 0 Z M -0.083,-0.082 V 13.334 H 20 V -0.041 -0.082 Z"
         style="fill:#221f21;fill-opacity:1;fill-rule:nonzero;stroke:none"
         id="path2878"
         inkscape:connector-curvature="0" />
    </g>
    <path
       d="m 54.106463,105.23604 h 7.05556 v -1.33243 h -7.05556 z"
       style="fill:#458d3b;fill-opacity:1;fill-rule:nonzero;stroke:none;stroke-width:0.35277778"
       id="path2880"
       inkscape:connector-curvature="0" />
    <path
       d="m 54.106463,103.90326 h 7.05556 v -2.03835 h -7.05556 z"
       style="fill:#ffffff;fill-opacity:1;fill-rule:nonzero;stroke:none;stroke-width:0.35277778"
       id="path2882"
       inkscape:connector-curvature="0" />
    <path
       d="m 61.162023,100.53247 h -7.05556 v 1.33244 h 7.05556 z"
       style="fill:#d31c39;fill-opacity:1;fill-rule:nonzero;stroke:none;stroke-width:0.35277778"
       id="path2884"
       inkscape:connector-curvature="0" />
    <g
       id="g2886"
       transform="matrix(0.35277777,0,0,-0.35277777,57.213171,103.38597)">
      <path
         d="M 0,0 0.129,-0.179 0.376,-0.172 0.185,-0.388 -0.188,-0.396 -0.305,-0.24 -0.089,-0.206 0.001,0"
         style="fill:#f1ba23;fill-opacity:1;fill-rule:nonzero;stroke:none"
         id="path2888"
         inkscape:connector-curvature="0" />
    </g>
    <g
       id="g2890"
       transform="matrix(0.35277777,0,0,-0.35277777,57.524421,103.42661)">
      <path
         d="M 0,0 H 0.169 L 0.312,0.118 0.451,0 H 0.619 L 0.468,-0.225 H 0.15 Z"
         style="fill:#f1ba23;fill-opacity:1;fill-rule:nonzero;stroke:none"
         id="path2892"
         inkscape:connector-curvature="0" />
    </g>
    <g
       id="g2894"
       transform="matrix(0.35277777,0,0,-0.35277777,58.281132,103.70707)">
      <path
         d="m 0,0 c -0.66,0.136 -1.101,0.202 -1.835,0.202 -0.735,0 -1.176,-0.066 -1.832,-0.201 v 0.284 c 0.656,0.136 1.097,0.203 1.832,0.203 0.734,0 1.179,-0.067 1.835,-0.203 z"
         style="fill:#f1ba23;fill-opacity:1;fill-rule:nonzero;stroke:none"
         id="path2896"
         inkscape:connector-curvature="0" />
    </g>
    <g
       id="g2898"
       transform="matrix(0.35277777,0,0,-0.35277777,58.052921,103.38597)">
      <path
         d="m 0,0 -0.129,-0.179 -0.247,0.007 0.19,-0.216 L 0.188,-0.396 0.305,-0.24 0.089,-0.206 -0.001,0"
         style="fill:#f1ba23;fill-opacity:1;fill-rule:nonzero;stroke:none"
         id="path2900"
         inkscape:connector-curvature="0" />
    </g>
    <g
       id="g2902"
       transform="matrix(0.35277777,0,0,-0.35277777,57.543723,102.72934)">
      <path
         d="M 0,0 C 0,0.082 0.115,0.149 0.257,0.149 0.398,0.149 0.514,0.082 0.514,0 0.514,-0.082 0.398,-0.147 0.257,-0.147 0.115,-0.147 0,-0.082 0,0 M 2.177,-1.826 C 1.704,-1.838 1.598,-1.491 1.536,-1.338 1.369,-1.559 1.274,-1.646 0.997,-1.641 0.715,-1.646 0.532,-1.533 0.397,-1.312 v 0.951 C 0.602,-0.314 0.75,-0.17 0.75,0 0.75,0.209 0.529,0.378 0.257,0.378 -0.016,0.378 -0.237,0.209 -0.237,0 c 0,-0.17 0.148,-0.313 0.351,-0.36 v -0.951 c -0.135,-0.219 -0.318,-0.334 -0.6,-0.327 -0.277,-0.005 -0.372,0.082 -0.539,0.302 -0.061,-0.152 -0.168,-0.5 -0.641,-0.488 -0.264,-0.008 -0.429,0.081 -0.539,0.333 0.126,-0.359 0.255,-0.56 0.643,-0.572 0.358,-0.005 0.521,0.202 0.599,0.343 0.257,-0.136 0.283,-0.167 0.648,-0.158 0.273,0.009 0.428,0.187 0.57,0.356 0.141,-0.169 0.297,-0.347 0.569,-0.356 0.365,-0.009 0.391,0.022 0.649,0.158 0.077,-0.141 0.24,-0.348 0.597,-0.343 0.39,0.012 0.518,0.215 0.659,0.57 C 2.606,-1.744 2.442,-1.834 2.177,-1.826"
         style="fill:#f1ba23;fill-opacity:1;fill-rule:nonzero;stroke:none"
         id="path2904"
         inkscape:connector-curvature="0" />
    </g>
    <g
       id="g2906"
       transform="matrix(0.35277777,0,0,-0.35277777,57.633292,102.06097)">
      <path
         d="M 0,0 0.087,-0.269 H 0.37 L 0.141,-0.435 0.229,-0.703 0,-0.537 l -0.229,-0.166 0.088,0.268 -0.228,0.166 h 0.282 z"
         style="fill:#f1ba23;fill-opacity:1;fill-rule:nonzero;stroke:none"
         id="path2908"
         inkscape:connector-curvature="0" />
    </g>
    <g
       id="g2910"
       transform="matrix(0.35277777,0,0,-0.35277777,58.092852,102.18018)">
      <path
         d="M 0,0 0.088,-0.269 H 0.37 L 0.141,-0.435 0.229,-0.703 0,-0.537 l -0.229,-0.166 0.088,0.268 -0.228,0.166 h 0.282 z"
         style="fill:#f1ba23;fill-opacity:1;fill-rule:nonzero;stroke:none"
         id="path2912"
         inkscape:connector-curvature="0" />
    </g>
    <g
       id="g2914"
       transform="matrix(0.35277777,0,0,-0.35277777,58.431342,102.53987)">
      <path
         d="M 0,0 0.087,-0.269 H 0.37 L 0.141,-0.435 0.229,-0.703 0,-0.537 l -0.229,-0.166 0.088,0.268 -0.229,0.166 h 0.283 z"
         style="fill:#f1ba23;fill-opacity:1;fill-rule:nonzero;stroke:none"
         id="path2916"
         inkscape:connector-curvature="0" />
    </g>
    <g
       id="g2918"
       transform="matrix(0.35277777,0,0,-0.35277777,58.529521,102.97636)">
      <path
         d="M 0,0 0.087,-0.269 H 0.37 L 0.141,-0.435 0.228,-0.703 0,-0.537 l -0.229,-0.166 0.087,0.268 -0.228,0.166 h 0.283 z"
         style="fill:#f1ba23;fill-opacity:1;fill-rule:nonzero;stroke:none"
         id="path2920"
         inkscape:connector-curvature="0" />
    </g>
    <g
       id="g2922"
       transform="matrix(0.35277777,0,0,-0.35277777,57.177502,102.18018)">
      <path
         d="M 0,0 0.088,-0.269 H 0.37 L 0.141,-0.435 0.229,-0.703 0,-0.537 l -0.229,-0.166 0.088,0.268 -0.228,0.166 h 0.282 z"
         style="fill:#f1ba23;fill-opacity:1;fill-rule:nonzero;stroke:none"
         id="path2924"
         inkscape:connector-curvature="0" />
    </g>
    <g
       id="g2926"
       transform="matrix(0.35277777,0,0,-0.35277777,56.83919,102.53779)">
      <path
         d="M 0,0 0.087,-0.27 H 0.369 L 0.142,-0.435 0.229,-0.703 0,-0.537 -0.229,-0.703 -0.141,-0.435 -0.37,-0.27 h 0.283 z"
         style="fill:#f1ba23;fill-opacity:1;fill-rule:nonzero;stroke:none"
         id="path2928"
         inkscape:connector-curvature="0" />
    </g>
    <g
       id="g2930"
       transform="matrix(0.35277777,0,0,-0.35277777,56.739281,102.97636)">
      <path
         d="M 0,0 0.087,-0.269 H 0.369 L 0.141,-0.435 0.229,-0.703 0,-0.537 l -0.229,-0.166 0.087,0.268 -0.228,0.166 h 0.282 z"
         style="fill:#f1ba23;fill-opacity:1;fill-rule:nonzero;stroke:none"
         id="path2932"
         inkscape:connector-curvature="0" />
    </g>
  </g>
</svg>
