<?xml version="1.0" encoding="UTF-8" standalone="no"?>
<!-- Created with Inkscape (http://www.inkscape.org/) -->

<svg
   xmlns:dc="http://purl.org/dc/elements/1.1/"
   xmlns:cc="http://creativecommons.org/ns#"
   xmlns:rdf="http://www.w3.org/1999/02/22-rdf-syntax-ns#"
   xmlns:svg="http://www.w3.org/2000/svg"
   xmlns="http://www.w3.org/2000/svg"
   xmlns:sodipodi="http://sodipodi.sourceforge.net/DTD/sodipodi-0.dtd"
   xmlns:inkscape="http://www.inkscape.org/namespaces/inkscape"
   width="1.4397542mm"
   height="2.9803464mm"
   viewBox="0 0 1.4397542 2.9803467"
   version="1.1"
   id="svg7070"
   inkscape:version="0.92.4 (5da689c313, 2019-01-14)"
   sodipodi:docname="albania.svg">
  <defs
     id="defs7064" />
  <sodipodi:namedview
     id="base"
     pagecolor="#ffffff"
     bordercolor="#666666"
     borderopacity="1.0"
     inkscape:pageopacity="0.0"
     inkscape:pageshadow="2"
     inkscape:zoom="7.9195959"
     inkscape:cx="17.351269"
     inkscape:cy="-16.596814"
     inkscape:document-units="mm"
     inkscape:current-layer="layer1"
     showgrid="false"
     inkscape:window-width="958"
     inkscape:window-height="1008"
     inkscape:window-x="-7"
     inkscape:window-y="0"
     inkscape:window-maximized="0" />
  <metadata
     id="metadata7067">
    <rdf:RDF>
      <cc:Work
         rdf:about="">
        <dc:format>image/svg+xml</dc:format>
        <dc:type
           rdf:resource="http://purl.org/dc/dcmitype/StillImage" />
        <dc:title />
      </cc:Work>
    </rdf:RDF>
  </metadata>
  <g
     inkscape:label="Layer 1"
     inkscape:groupmode="layer"
     id="layer1"
     transform="translate(-158.43235,-41.991675)">
    <path
       inkscape:connector-curvature="0"
       style="fill:#ffffff;stroke-width:0.26458332"
       d="m 158.46645,43.968725 c 0.0455,-0.07752 0.0847,-0.169333 0.0513,-0.260085 0.1233,0.01958 0.0603,-0.262731 0.0855,-0.354542 0.0196,-0.07064 -0.0902,-0.07382 -0.0505,-0.164041 0.0299,-0.06747 0.0542,-0.138377 0.0693,-0.210873 0.0251,-0.123296 0.004,-0.260086 -0.15558,-0.220398 -0.0601,-0.186531 -0.0442,-0.413544 0.0749,-0.570706 0.0958,-0.126471 0.13044,-0.308505 0.23574,-0.10504 0.0786,0.152665 0.21114,-0.07197 0.32914,0.05345 0.0392,0.04154 0.0164,0.11086 0.0585,0.151341 0.0807,0.07779 0.17912,0.02196 0.24447,0.162719 0.0558,0.119856 0.0614,0.566738 -0.0344,0.602192 0.006,0.0508 0.0519,0.10451 0.0744,0.147373 0.004,0.03731 -0.005,0.07144 -0.0273,0.102658 -0.0164,0.08123 0.0833,0.161661 0.12568,0.217223 0.0579,0.07673 0.0452,0.180975 0.16377,0.164571 0.11536,-0.01561 0.12039,0.05186 0.14473,0.137583 0.0722,0.254265 -0.1188,0.230981 -0.19685,0.432594 -0.0265,0.06773 -0.0386,0.255587 -0.11827,0.286015 -0.20505,0.07832 -0.22304,0.04392 -0.13229,0.268816 -0.15293,-0.01561 -0.0209,0.111125 -0.17727,0.154781 -0.1307,0.03651 -0.17145,-0.0635 -0.18865,-0.17092 -0.0439,-0.278871 -0.41433,-0.378884 -0.57626,-0.597694 0.0566,0.0087 0.096,0.03942 0.11774,0.0926 0.0839,-0.0971 -0.0783,-0.15875 0.008,-0.193146 -0.0513,-0.03281 -0.0934,-0.07488 -0.12594,-0.126471 z"
       id="al" />
  </g>
</svg>
