<?xml version="1.0" encoding="UTF-8" standalone="no"?>
<!-- Created with Inkscape (http://www.inkscape.org/) -->

<svg
   xmlns:dc="http://purl.org/dc/elements/1.1/"
   xmlns:cc="http://creativecommons.org/ns#"
   xmlns:rdf="http://www.w3.org/1999/02/22-rdf-syntax-ns#"
   xmlns:svg="http://www.w3.org/2000/svg"
   xmlns="http://www.w3.org/2000/svg"
   xmlns:sodipodi="http://sodipodi.sourceforge.net/DTD/sodipodi-0.dtd"
   xmlns:inkscape="http://www.inkscape.org/namespaces/inkscape"
   width="2.8657701mm"
   height="2.4409785mm"
   viewBox="0 0 2.8657699 2.4409787"
   version="1.1"
   id="svg7070"
   inkscape:version="0.92.4 (5da689c313, 2019-01-14)"
   sodipodi:docname="armenia.svg">
  <defs
     id="defs7064" />
  <sodipodi:namedview
     id="base"
     pagecolor="#ffffff"
     bordercolor="#666666"
     borderopacity="1.0"
     inkscape:pageopacity="0.0"
     inkscape:pageshadow="2"
     inkscape:zoom="7.9195959"
     inkscape:cx="18.951194"
     inkscape:cy="-14.612881"
     inkscape:document-units="mm"
     inkscape:current-layer="layer1"
     showgrid="false"
     inkscape:window-width="958"
     inkscape:window-height="1008"
     inkscape:window-x="-7"
     inkscape:window-y="0"
     inkscape:window-maximized="0" />
  <metadata
     id="metadata7067">
    <rdf:RDF>
      <cc:Work
         rdf:about="">
        <dc:format>image/svg+xml</dc:format>
        <dc:type
           rdf:resource="http://purl.org/dc/dcmitype/StillImage" />
        <dc:title></dc:title>
      </cc:Work>
    </rdf:RDF>
  </metadata>
  <g
     inkscape:label="Layer 1"
     inkscape:groupmode="layer"
     id="layer1"
     transform="translate(-158.00905,-43.055959)">
    <path
       inkscape:connector-curvature="0"
       style="fill:#aaaaaa;stroke-width:0.26458332"
       d="m 158.00907,43.243004 c 0.1233,-0.0545 0.31406,-0.0164 0.45164,-0.05001 0.22146,-0.05398 0.46488,-0.03493 0.6911,-0.05054 -0.045,-0.03678 -0.031,-0.05636 0.0421,-0.05847 0.0569,-0.04736 0.0886,-0.03466 0.0947,0.03784 0.0275,0.02672 0.27622,0.160867 0.0474,0.113242 0.15531,0.118004 0.39528,0.119591 0.47175,0.327818 -0.30189,0.09446 0.0341,0.363538 0.16536,0.441855 0.0693,0.04127 0.22596,0.06879 0.24448,0.162718 0.0362,0.182563 -0.19474,0.153723 -0.2929,0.193675 0.10187,0.03863 0.48895,0.436563 0.59346,0.394494 0.0532,-0.02117 0.30322,0.05768 0.2085,0.114565 -0.1405,0.08414 0.1008,0.198173 0.14816,0.255852 -0.14764,0.01799 -0.0616,0.293952 -0.008,0.361421 -0.14657,-0.0471 -0.27384,0.08731 -0.36935,-0.068 -0.0923,-0.150019 -0.10319,-0.310621 -0.26168,-0.389996 -0.0743,-0.03731 -0.0103,-0.196586 -0.0971,-0.230188 -0.0812,-0.03149 -0.13388,0.0172 -0.20214,0.04974 -0.11086,0.05186 -0.17145,-0.140758 -0.2966,-0.06773 0.0169,-0.238125 -0.31221,-0.109273 -0.4527,-0.214048 -0.12991,-0.09684 -0.19447,-0.231775 -0.37465,-0.226219 -0.186,0.0056 -0.34211,-0.02117 -0.50932,-0.105569 0.0828,-0.05583 0.0153,-0.119062 -0.0286,-0.170656 -0.0825,-0.09631 -0.002,-0.218281 0.0569,-0.314325 0.1561,-0.255323 -0.31671,-0.304006 -0.32253,-0.507471 z"
       id="am" />
  </g>
</svg>
