<?xml version="1.0" encoding="UTF-8" standalone="no"?>
<!-- Created with Inkscape (http://www.inkscape.org/) -->

<svg
   xmlns:dc="http://purl.org/dc/elements/1.1/"
   xmlns:cc="http://creativecommons.org/ns#"
   xmlns:rdf="http://www.w3.org/1999/02/22-rdf-syntax-ns#"
   xmlns:svg="http://www.w3.org/2000/svg"
   xmlns="http://www.w3.org/2000/svg"
   xmlns:sodipodi="http://sodipodi.sourceforge.net/DTD/sodipodi-0.dtd"
   xmlns:inkscape="http://www.inkscape.org/namespaces/inkscape"
   width="7.1611757mm"
   height="4.6700287mm"
   viewBox="0 0 7.1611755 4.6700292"
   version="1.1"
   id="svg7070"
   inkscape:version="0.92.4 (5da689c313, 2019-01-14)"
   sodipodi:docname="belarus.svg">
  <defs
     id="defs7064" />
  <sodipodi:namedview
     id="base"
     pagecolor="#ffffff"
     bordercolor="#666666"
     borderopacity="1.0"
     inkscape:pageopacity="0.0"
     inkscape:pageshadow="2"
     inkscape:zoom="1.4"
     inkscape:cx="71.445631"
     inkscape:cy="-118.37223"
     inkscape:document-units="mm"
     inkscape:current-layer="layer1"
     showgrid="false"
     inkscape:window-width="958"
     inkscape:window-height="1008"
     inkscape:window-x="-7"
     inkscape:window-y="0"
     inkscape:window-maximized="0" />
  <metadata
     id="metadata7067">
    <rdf:RDF>
      <cc:Work
         rdf:about="">
        <dc:format>image/svg+xml</dc:format>
        <dc:type
           rdf:resource="http://purl.org/dc/dcmitype/StillImage" />
        <dc:title />
      </cc:Work>
    </rdf:RDF>
  </metadata>
  <g
     inkscape:label="Layer 1"
     inkscape:groupmode="layer"
     id="layer1"
     transform="translate(-163.32671,-32.622993)">
    <path
       inkscape:connector-curvature="0"
       style="fill:#ffffff;stroke-width:0.26458332"
       d="m 163.32752,36.299456 c 0.0971,-0.123031 0.17357,-0.275961 0.34369,-0.306917 0.16696,-0.03043 0.2167,-0.157956 0.19844,-0.313002 -0.0429,-0.364067 -0.35824,-0.618067 -0.41619,-0.976842 0.19077,0.04868 0.4363,0.01376 0.63553,0.03651 0.0603,0.0069 0.15055,-0.03942 0.20902,-0.05398 0.11774,-0.02963 0.0878,-0.08334 0.17225,-0.154781 0.0524,-0.04419 0.11721,-0.0019 0.17277,-0.02857 0.0434,-0.0209 0.0646,-0.06959 0.11059,-0.09075 0.0879,-0.04075 0.26909,-0.05265 0.21246,0.09842 0.0492,0.01588 0.12753,0.01085 0.15875,-0.03836 0.068,-0.10504 -0.12065,-0.141023 -0.17515,-0.163513 0.19182,-0.208227 0.0423,-0.430212 0.31062,-0.5715 0.12462,-0.06562 0.13785,-0.199495 0.30295,-0.184679 0.17992,0.01588 0.0921,-0.07699 0.22701,-0.143404 -0.18785,-0.04974 -0.3421,-0.121179 -0.14817,-0.345281 0.12383,-0.14314 0.35904,-0.195792 0.53182,-0.143934 0.2077,0.06244 0.21405,-0.218281 0.40455,-0.288395 0.10133,-0.03731 0.24817,0.07911 0.2995,0.03836 0.10266,-0.08202 0.20347,0.0019 0.24792,0.08652 0.0294,0.05609 0.39317,-0.06879 0.51726,0.04445 0.0439,0.04022 -0.0217,0.12409 0.028,0.172773 0.0675,0.06588 0.21776,0.01958 0.28866,-0.01455 0.24977,-0.119856 0.40429,-0.07355 0.62813,0.0852 0.0606,0.04313 0.24077,0.0717 0.24315,0.164835 0.003,0.154517 -0.007,0.187854 0.0685,0.32729 0.05,0.09181 0.001,0.150548 -0.0463,0.225954 -0.0817,0.130175 0.11272,0.179916 0.18151,0.257704 0.16007,0.180975 0.21193,0.407723 0.46461,0.48895 0.073,0.02355 0.18229,0.04815 0.21325,0.13044 0.0386,0.102658 -0.0886,0.18415 0.0524,0.224366 0.0434,-0.0061 0.0857,-0.0172 0.12673,-0.0336 0.058,-0.01164 0.1315,0.03545 0.18971,0.04207 0.1823,0.02143 0.0796,0.08361 0.16245,0.188119 0.0442,0.05609 0.13812,0.06059 0.19341,0.106098 0.1487,0.121443 -0.073,0.116681 -0.12514,0.151077 -0.0929,0.06138 -0.10346,0.157162 -0.24686,0.192087 -0.17912,0.04366 -0.26141,-0.115887 -0.42148,-0.113506 -0.34264,0.0053 -0.13917,0.256381 -0.006,0.364331 0.0847,0.06853 0.0532,0.201877 0.0765,0.296598 0.0381,0.155046 0.118,0.286279 0.20161,0.420158 -0.38867,0.01217 -0.75512,-0.03201 -0.89853,0.426773 -0.0341,0.10848 0.0765,0.202671 0.10584,0.302684 0.0521,0.18071 -0.1778,0.03413 -0.2249,-0.02302 -0.13626,-0.166952 -0.30401,-0.06032 -0.48921,-0.106098 -0.0754,-0.01852 -0.20532,0.04313 -0.25824,0.09737 -0.0516,0.05345 -0.13441,-0.198438 -0.177,-0.220663 -0.10716,-0.05609 -0.30904,0.0717 -0.29316,0.195527 -0.064,-0.02884 -0.0669,-0.126735 -0.12621,-0.151341 -0.0614,-0.02567 -0.13943,0.0463 -0.19235,0.0077 -0.0744,-0.05424 -0.14975,-0.04974 -0.23574,-0.04022 -0.11668,0.01323 -0.17092,-0.06562 -0.18627,0.07461 -0.0725,-0.01852 -0.12647,-0.07726 -0.19976,-0.09234 -0.0889,-0.01852 -0.1606,0.05371 -0.23257,-0.03016 -0.13864,-0.16166 -0.37042,-0.143139 -0.57309,-0.18415 -0.20505,-0.0418 -0.4445,-0.0852 -0.65378,-0.08123 -0.13282,0.0026 -0.26935,-0.04075 -0.40005,-0.02778 -0.1151,0.01111 -0.2241,0.05477 -0.34052,0.05477 -0.25268,0 -0.25929,0.09816 -0.43207,0.237331 -0.0913,0.07382 -0.15875,0.02408 -0.25638,0.0058 -0.12673,-0.02355 -0.0728,0.04815 -0.13335,0.105304 -0.0902,0.08573 0.005,-0.397933 0.006,-0.408781 0.0362,-0.224632 -0.30612,-0.179388 -0.39793,-0.318823 z"
       id="by" />
  </g>
</svg>
