<?xml version="1.0" encoding="UTF-8" standalone="no"?>
<!-- Created with Inkscape (http://www.inkscape.org/) -->

<svg
   xmlns:dc="http://purl.org/dc/elements/1.1/"
   xmlns:cc="http://creativecommons.org/ns#"
   xmlns:rdf="http://www.w3.org/1999/02/22-rdf-syntax-ns#"
   xmlns:svg="http://www.w3.org/2000/svg"
   xmlns="http://www.w3.org/2000/svg"
   xmlns:sodipodi="http://sodipodi.sourceforge.net/DTD/sodipodi-0.dtd"
   xmlns:inkscape="http://www.inkscape.org/namespaces/inkscape"
   width="11.999352mm"
   height="11.678463mm"
   viewBox="0 0 11.999352 11.678463"
   version="1.1"
   id="svg7070"
   inkscape:version="0.92.4 (5da689c313, 2019-01-14)"
   sodipodi:docname="bolivarian_republic_of_venezuela.svg">
  <defs
     id="defs7064" />
  <sodipodi:namedview
     id="base"
     pagecolor="#ffffff"
     bordercolor="#666666"
     borderopacity="1.0"
     inkscape:pageopacity="0.0"
     inkscape:pageshadow="2"
     inkscape:zoom="1.4"
     inkscape:cx="0.42231716"
     inkscape:cy="-124.79751"
     inkscape:document-units="mm"
     inkscape:current-layer="layer1"
     showgrid="false"
     inkscape:window-width="958"
     inkscape:window-height="1008"
     inkscape:window-x="-7"
     inkscape:window-y="0"
     inkscape:window-maximized="0" />
  <metadata
     id="metadata7067">
    <rdf:RDF>
      <cc:Work
         rdf:about="">
        <dc:format>image/svg+xml</dc:format>
        <dc:type
           rdf:resource="http://purl.org/dc/dcmitype/StillImage" />
        <dc:title />
      </cc:Work>
    </rdf:RDF>
  </metadata>
  <g
     inkscape:label="Layer 1"
     inkscape:groupmode="layer"
     id="layer1"
     transform="translate(-209.77186,-60.471547)">
    <g
       transform="matrix(0.26458333,0,0,0.26458333,205.47053,-48.444955)"
       id="ve"
       style="fill:#ffffff">
      <path
         style="fill:#ffffff"
         inkscape:connector-curvature="0"
         d="m 16.257,423.23 c 0.869,-1.025 1.304,-2.125 1.578,-3.418 0.263,-1.239 0.677,-2.139 1.323,-3.222 0.527,-0.883 1.437,-1.143 1.941,-2.068 0.575,-1.055 1.745,-0.939 2.686,-1.52 -0.383,0.935 -1.575,0.286 -2.128,0.952 -0.471,0.567 0.189,1.919 0.794,2.16 -0.548,-0.027 -0.02,1.188 0.033,1.417 0.163,0.705 -0.516,1.419 -0.985,1.864 -0.612,0.579 -0.91,1.282 -0.531,2.042 0.147,0.294 0.196,0.666 0.478,0.875 0.312,0.23 0.362,0.129 0.309,0.549 -0.112,0.883 0.565,1.082 1.274,0.678 0.732,-0.416 1.022,-1.031 1.117,-1.844 0.122,-1.044 -0.347,-1.627 -0.871,-2.479 -0.208,-0.338 -0.391,-0.718 -0.515,-1.096 -0.111,-0.341 0.179,-0.806 -0.086,-1.084 0.398,0.047 0.743,-0.555 1.048,-0.73 0.559,-0.321 1.082,-0.744 1.732,-0.858 0.563,-0.1 1.013,-0.176 1.507,-0.474 0.186,-0.112 0.74,-0.561 0.984,-0.446 -0.032,-0.178 -0.116,-0.326 -0.251,-0.445 0.243,0.099 0.983,0.718 1.235,0.426 0.171,-0.198 -0.006,-0.687 -0.227,-0.778 -0.377,-0.157 -0.883,0.2 -1.265,0.226 0.075,-0.438 -0.293,-2.758 1.004,-2.225 0.59,0.243 0.469,1.523 0.561,2.025 0.202,1.113 1.399,0.374 2.191,0.65 0.887,0.31 1.992,0.549 2.38,1.578 0.237,0.63 -0.379,2.045 0.67,2.268 1.249,0.265 2.831,-0.313 4.068,-0.478 1.061,-0.142 2.164,-0.368 2.814,0.58 0.27,0.393 0.646,0.714 1.096,0.872 0.367,0.129 0.747,0.215 1.122,0.314 -0.04,-0.011 1.231,0.259 0.643,0.259 0.999,0.542 1.474,-0.63 2.264,-0.702 0.48,-0.045 0.59,-0.545 0.988,-0.731 0.549,-0.256 1.176,0.233 1.737,-0.091 -0.484,-0.51 -1.62,0.037 -1.941,-0.604 0.278,0 0.556,0 0.833,0 0.391,0 0.506,-0.24 0.79,-0.254 0.141,0.049 0.276,0.106 0.408,0.175 0.389,0.071 0.793,0.023 1.179,-0.042 1.647,-0.278 3.335,0.032 4.956,-0.292 -0.253,0.514 -1.065,0.417 -1.531,0.662 -0.731,0.385 -1.593,-0.227 -2.281,0.354 0.222,-0.221 0.452,-0.191 0.538,0.126 -0.271,-0.021 -0.467,0.148 -0.507,0.414 0.602,-0.355 1.064,0.006 1.051,0.712 -0.011,0.56 -0.949,0.185 -1.241,0.178 0.21,0.784 1.502,0.232 1.368,-0.477 0.348,0.049 0.496,0.448 0.524,0.749 0.038,0.399 0.408,0.85 0.362,1.22 0.248,-0.264 0.372,-0.629 0.256,-0.984 0.319,0.312 0.368,0.916 0.093,1.271 0.337,-0.241 0.198,-0.713 0.159,-1.048 0.173,0.041 0.342,0.094 0.507,0.159 -0.033,-0.036 -1.082,-0.596 -0.464,-0.518 0.586,0.073 1.349,0.688 1.037,1.344 0.14,-0.254 0.34,-0.231 0.19,-0.477 0.236,-0.118 0.48,-0.139 0.732,-0.064 -0.538,-0.597 0.333,-0.059 0.529,0.259 0.361,0.583 0.997,0.345 1.463,0.707 1.247,0.967 -0.216,0.971 -0.531,1.861 0.101,-0.109 0.206,-0.217 0.317,-0.316 0.088,0.457 -0.408,1.248 -0.624,1.629 -0.133,0.234 -0.094,0.436 -0.398,0.436 -0.268,0 -1.089,-0.24 -1.264,0 0.39,0.221 1.019,0.285 1.24,0.73 0.252,-0.328 0.607,-0.562 0.666,-0.031 0.365,-0.402 0.639,-0.592 1.174,-0.699 0.5,-0.102 0.694,0.432 1.159,-0.018 0.804,-0.775 2.252,1.15 1.799,1.379 -0.45,0.227 -0.709,0.555 -1.076,0.904 -0.343,0.326 -0.937,0.484 -1.208,0.771 -0.194,0.205 -0.353,0.49 -0.528,0.715 -0.354,0.459 0.163,0.748 0.124,1.244 -0.024,0.311 0.092,0.654 0.45,0.457 0.429,-0.234 0.729,0.33 0.404,0.643 -0.356,0.344 -0.887,0.465 -1.233,0.811 -0.166,0.164 -0.453,-0.076 -0.624,-0.092 -0.151,-0.016 -0.238,0.281 -0.385,0.338 -1.337,0.523 0.022,1.352 -0.686,2.135 -0.18,0.201 -0.897,0.652 -0.643,1 0.433,0.592 0.877,1.189 1.343,1.756 0.552,0.67 1.677,1.732 0.622,2.502 -0.356,0.26 -0.575,0.664 -0.933,0.922 -0.199,0.145 -0.917,0.057 -0.961,0.129 -0.193,0.318 -0.771,0.246 -0.781,0.574 -0.013,0.391 -0.704,0.396 -0.975,0.525 -0.52,0.25 -1.158,0.576 -1.732,0.289 -0.39,-0.195 -0.75,0.293 -1.155,0.373 -0.494,0.096 -0.502,0.615 -0.387,1.02 0.167,0.586 -0.321,1.035 -0.812,0.59 -0.332,-0.301 -0.496,-0.703 -0.801,-1.021 -0.404,-0.424 -0.664,0.146 -1.059,0.002 -0.543,-0.197 -0.747,-0.037 -1.294,-0.096 -0.426,-0.047 -0.331,0.119 -0.497,-0.404 -0.157,-0.496 -0.795,-0.537 -1.22,-0.453 -0.562,0.111 -0.546,-0.381 -0.984,-0.572 -0.366,0.367 0.31,1.195 0.533,1.467 0.641,0.783 1.17,0.924 1.188,2.037 0.006,0.361 0.018,0.721 0.112,1.072 0.119,0.445 0.587,0.902 0.524,1.371 -0.106,0.795 -0.109,1.145 0.858,1.17 0.28,0.006 1.374,-0.199 1.285,0.309 -0.166,0.939 -0.564,0.564 -1.117,1.141 -0.292,0.305 -1.076,0.23 -1.215,0.555 -0.157,0.367 -0.044,0.734 -0.297,1.092 -0.226,0.316 -0.525,0.568 -0.729,0.904 0.034,-0.871 -1.176,0.367 -1.562,0.508 -0.57,0.209 -0.979,0.459 -1.336,0.955 -0.239,0.332 -0.738,1.201 -1.138,1.332 -0.263,-0.318 0.076,-0.719 -0.009,-1.064 -0.143,-0.584 -1.001,-0.016 -1.227,0.146 -1.293,0.93 -2.135,0.061 -2.979,-1.047 -0.395,-0.52 -0.5,-1.268 -0.681,-1.875 -0.208,-0.695 -0.718,-1.664 -0.686,-2.395 0.024,-0.572 -1.412,-2.48 -2.104,-1.961 -0.022,-0.645 0.923,-1.299 1.371,-1.65 0.781,-0.615 0.26,-1.27 -0.291,-1.9 -1.217,-1.391 -0.802,-3.984 -0.798,-5.654 10e-4,-0.596 0.266,-0.746 0.651,-1.131 0.26,-0.258 0.019,-0.754 0.148,-1.066 0.142,-0.342 0.667,-0.539 0.627,-0.955 -0.057,-0.588 0,-0.705 -0.625,-0.947 -0.683,-0.264 -1.873,0.334 -2.636,0.396 -0.504,0.041 -1,0.039 -1.5,-0.039 -0.753,-0.121 -0.631,0.24 -1.236,0.369 0.114,-0.023 -0.754,-0.184 -0.666,-0.127 -0.351,-0.225 -0.638,-0.943 -0.86,-1.281 -0.313,-0.477 -0.609,-0.947 -0.895,-1.439 -0.146,-0.254 -0.352,-0.654 -0.714,-0.545 -0.675,0.203 -0.981,-0.387 -1.619,-0.453 -0.411,-0.043 -0.717,0.32 -1.092,0.416 -0.553,0.141 -1.071,-0.246 -1.624,-0.145 -0.354,0.064 -0.565,-0.164 -0.935,0.023 -0.364,0.184 -0.851,-0.035 -1.056,-0.369 -0.158,-0.256 -0.206,-0.539 -0.277,-0.822 -0.099,-0.396 -0.682,-0.262 -0.879,-0.543 -0.379,-0.543 0.106,-1.693 0.431,-2.141 0.615,-0.846 -0.626,-1.68 -0.902,-2.293 -0.292,-0.648 0.026,-2.15 -0.921,-1.906 0.018,-0.229 -0.014,-0.451 -0.095,-0.668 -0.365,0.32 -0.756,0.518 -1.262,0.504 z"
         id="path3410" />
      <path
         style="fill:#ffffff"
         inkscape:connector-curvature="0"
         d="m 56.851,425.9 c -0.322,-0.064 -0.652,-0.111 -0.953,-0.254 0.289,-0.166 0.935,-0.234 0.953,0.254 z"
         id="path3412" />
      <path
         style="fill:#ffffff"
         inkscape:connector-curvature="0"
         d="m 57.168,425.072 c 0.192,-0.289 0.496,-0.654 0.892,-0.477 -0.131,0.428 -0.555,0.352 -0.892,0.477 z"
         id="path3414" />
      <path
         style="fill:#ffffff"
         inkscape:connector-curvature="0"
         d="m 57.266,425.804 c -0.085,-0.096 -0.171,-0.191 -0.256,-0.287 0.229,-0.012 0.453,-0.055 0.67,-0.127 -0.015,0.25 -0.166,0.399 -0.414,0.414 z"
         id="path3416" />
      <path
         style="fill:#ffffff"
         inkscape:connector-curvature="0"
         d="m 57.552,425.265 c -0.106,-0.043 -0.211,-0.086 -0.318,-0.127 0.202,-0.125 0.414,-0.146 0.635,-0.064 -0.105,0.064 -0.211,0.127 -0.317,0.191 z"
         id="path3418" />
      <path
         style="fill:#ffffff"
         inkscape:connector-curvature="0"
         d="m 57.962,425.359 c -0.053,-0.229 0.065,-0.271 0.353,-0.127 -0.117,0.043 -0.235,0.084 -0.353,0.127 z"
         id="path3420" />
      <path
         style="fill:#ffffff"
         inkscape:connector-curvature="0"
         d="m 58.06,424.31 c -0.106,0 -0.211,0 -0.317,0 0.086,-0.234 0.281,-0.385 0.538,-0.318 -0.074,0.105 -0.148,0.213 -0.221,0.318 z"
         id="path3422" />
      <path
         style="fill:#ffffff"
         inkscape:connector-curvature="0"
         d="m 58.218,423.484 c -0.327,-0.102 -0.294,-0.207 0.098,-0.316 -0.033,0.105 -0.065,0.21 -0.098,0.316 z"
         id="path3424" />
      <path
         style="fill:#ffffff"
         inkscape:connector-curvature="0"
         d="m 58.28,423.644 c -0.318,0.15 -0.55,0.424 -0.825,0.635 0.113,-0.36 0.452,-0.613 0.825,-0.635 z"
         id="path3426" />
      <path
         style="fill:#ffffff"
         inkscape:connector-curvature="0"
         d="m 58.346,423.453 c 0.053,-0.145 0.158,-0.23 0.317,-0.254 -0.105,0.086 -0.211,0.17 -0.317,0.254 z"
         id="path3428" />
      <path
         style="fill:#ffffff"
         inkscape:connector-curvature="0"
         d="m 43.796,416.719 c -0.106,-0.032 -0.212,-0.063 -0.317,-0.096 0.09,-0.104 0.196,-0.189 0.317,-0.254 0.143,0.139 0.143,0.255 0,0.35 z"
         id="path3598" />
      <path
         style="fill:#ffffff"
         inkscape:connector-curvature="0"
         d="m 47.895,416.814 c -0.082,-0.238 -1.582,-0.568 -0.803,-0.816 0.413,-0.131 0.433,0.31 0.675,0.276 0.402,-0.055 0.469,-0.529 0.825,-0.667 0.216,0.852 0.119,0.765 -0.697,1.207 z"
         id="path3600" />
      <path
         style="fill:#ffffff"
         inkscape:connector-curvature="0"
         d="m 52.117,418.243 c 0.171,0.202 0.309,0.425 0.415,0.667 -0.203,-0.143 -0.412,-0.402 -0.415,-0.667 z"
         id="path3602" />
    </g>
  </g>
</svg>
