<?xml version="1.0" encoding="UTF-8" standalone="no"?>
<!-- Created with Inkscape (http://www.inkscape.org/) -->

<svg
   xmlns:dc="http://purl.org/dc/elements/1.1/"
   xmlns:cc="http://creativecommons.org/ns#"
   xmlns:rdf="http://www.w3.org/1999/02/22-rdf-syntax-ns#"
   xmlns:svg="http://www.w3.org/2000/svg"
   xmlns="http://www.w3.org/2000/svg"
   xmlns:sodipodi="http://sodipodi.sourceforge.net/DTD/sodipodi-0.dtd"
   xmlns:inkscape="http://www.inkscape.org/namespaces/inkscape"
   width="3.0917044mm"
   height="2.6538513mm"
   viewBox="0 0 3.0917041 2.6538516"
   version="1.1"
   id="svg7070"
   inkscape:version="0.92.4 (5da689c313, 2019-01-14)"
   sodipodi:docname="bosnia_and_herzegovina.svg">
  <defs
     id="defs7064" />
  <sodipodi:namedview
     id="base"
     pagecolor="#ffffff"
     bordercolor="#666666"
     borderopacity="1.0"
     inkscape:pageopacity="0.0"
     inkscape:pageshadow="2"
     inkscape:zoom="7.9195959"
     inkscape:cx="11.396804"
     inkscape:cy="-13.460521"
     inkscape:document-units="mm"
     inkscape:current-layer="layer1"
     showgrid="false"
     inkscape:window-width="958"
     inkscape:window-height="1008"
     inkscape:window-x="-7"
     inkscape:window-y="0"
     inkscape:window-maximized="0" />
  <metadata
     id="metadata7067">
    <rdf:RDF>
      <cc:Work
         rdf:about="">
        <dc:format>image/svg+xml</dc:format>
        <dc:type
           rdf:resource="http://purl.org/dc/dcmitype/StillImage" />
        <dc:title></dc:title>
      </cc:Work>
    </rdf:RDF>
  </metadata>
  <g
     inkscape:label="Layer 1"
     inkscape:groupmode="layer"
     id="layer1"
     transform="translate(-160.0078,-43.147981)">
    <path
       inkscape:connector-curvature="0"
       style="fill:#aaaaaa;stroke-width:0.26458332"
       d="m 160.00806,43.30542 c -0.009,-0.273579 0.21961,-0.07938 0.32518,0.0066 0.1143,0.09287 0.19341,0.01455 0.23865,-0.103187 0.0439,-0.112977 0.21616,-0.03704 0.29422,-0.02117 0.0137,-0.110067 0.47572,0.07567 0.57996,0.07567 0.0722,0 0.204,0.07355 0.26273,0.03228 0.13521,-0.09472 0.10002,0.01931 0.21987,-0.0071 0.14632,-0.03254 0.27411,0.0042 0.4109,0.05927 0.1143,0.04604 0.0423,0.156633 0.18971,0.164571 0.0915,0.005 0.21643,-0.0934 0.29686,-0.05345 0.12885,0.06456 0.0209,0.242094 -0.0323,0.313796 -0.17727,0.238389 0.0185,0.319617 0.19262,0.451908 0.29977,0.228071 -0.0865,0.115359 -0.13071,0.178594 -0.006,0.0079 0.20558,0.272521 0.20691,0.337608 0.002,0.05662 -0.39847,0.133086 -0.46567,0.110861 -0.0161,0.106098 0.11536,0.148696 0.068,0.260614 -0.0653,-0.215106 -0.3765,0.05768 -0.27781,0.235479 -0.33285,-0.07117 0.0489,0.474134 -0.11536,0.453496 -0.12806,-0.01614 -0.35349,-0.156104 -0.45297,-0.236008 -0.0524,-0.04207 -0.0656,-0.09922 -0.13864,-0.112713 -0.0749,-0.01349 -0.0939,0.05953 -0.14975,-0.02937 0.21933,-0.0029 -0.19685,-0.351896 -0.23522,-0.399521 -0.19764,-0.245269 -0.34422,-0.327819 -0.52361,-0.529431 -0.0921,-0.103717 -0.21378,-0.157692 -0.30797,-0.255059 -0.1106,-0.114829 -0.0392,-0.299243 -0.1442,-0.427037 -0.0796,-0.0971 -0.18204,-0.121973 -0.27967,-0.190765 -0.0487,-0.03413 -0.023,-0.2413 -0.0317,-0.315912 z"
       id="ba" />
  </g>
</svg>
