<?xml version="1.0" encoding="UTF-8" standalone="no"?>
<!-- Created with Inkscape (http://www.inkscape.org/) -->

<svg
   xmlns:dc="http://purl.org/dc/elements/1.1/"
   xmlns:cc="http://creativecommons.org/ns#"
   xmlns:rdf="http://www.w3.org/1999/02/22-rdf-syntax-ns#"
   xmlns:svg="http://www.w3.org/2000/svg"
   xmlns="http://www.w3.org/2000/svg"
   xmlns:sodipodi="http://sodipodi.sourceforge.net/DTD/sodipodi-0.dtd"
   xmlns:inkscape="http://www.inkscape.org/namespaces/inkscape"
   width="34.858955mm"
   height="39.338348mm"
   viewBox="0 0 34.858954 39.338349"
   version="1.1"
   id="svg7070"
   inkscape:version="0.92.4 (5da689c313, 2019-01-14)"
   sodipodi:docname="brazil.svg">
  <defs
     id="defs7064" />
  <sodipodi:namedview
     id="base"
     pagecolor="#ffffff"
     bordercolor="#666666"
     borderopacity="1.0"
     inkscape:pageopacity="0.0"
     inkscape:pageshadow="2"
     inkscape:zoom="1.4"
     inkscape:cx="79.593339"
     inkscape:cy="-56.704744"
     inkscape:document-units="mm"
     inkscape:current-layer="layer1"
     showgrid="false"
     inkscape:window-width="958"
     inkscape:window-height="1008"
     inkscape:window-x="-7"
     inkscape:window-y="0"
     inkscape:window-maximized="0" />
  <metadata
     id="metadata7067">
    <rdf:RDF>
      <cc:Work
         rdf:about="">
        <dc:format>image/svg+xml</dc:format>
        <dc:type
           rdf:resource="http://purl.org/dc/dcmitype/StillImage" />
        <dc:title />
      </cc:Work>
    </rdf:RDF>
  </metadata>
  <g
     inkscape:label="Layer 1"
     inkscape:groupmode="layer"
     id="layer1"
     transform="translate(-188.82452,-50.827875)">
    <g
       transform="matrix(0.26458333,0,0,0.26458333,185.15343,-65.118771)"
       id="br"
       style="fill:#ffffff">
      <path
         style="fill:#ffffff"
         inkscape:connector-curvature="0"
         d="m 132.609,510.042 c 0.478,-1.246 -0.819,-0.23 0,0 z"
         id="path2886" />
      <path
         style="fill:#ffffff"
         inkscape:connector-curvature="0"
         d="m 85.823,464.082 c 0.318,-0.062 0.597,-0.254 0.825,-0.475 -0.35,-0.051 -0.732,0.105 -0.825,0.475 z"
         id="path2814" />
      <path
         style="fill:#ffffff"
         inkscape:connector-curvature="0"
         d="m 86.586,464.525 c 0.257,-0.289 0.669,-0.223 0.948,-0.477 -0.294,-0.482 -1.138,-0.031 -0.948,0.477 z"
         id="path2816" />
      <path
         style="fill:#ffffff"
         inkscape:connector-curvature="0"
         d="m 92.366,450.167 c 0.074,-0.105 0.146,-0.213 0.22,-0.318 -0.353,-0.101 -0.427,0.006 -0.22,0.318 z"
         id="path2846" />
      <path
         style="fill:#ffffff"
         inkscape:connector-curvature="0"
         d="m 92.652,451.089 c 0.489,-0.242 0.236,-0.666 0,-0.984 -0.478,0.221 -0.222,0.684 0,0.984 z"
         id="path2848" />
      <path
         style="fill:#ffffff"
         inkscape:connector-curvature="0"
         d="m 87.57,463.886 c 0.87,-0.213 2.972,-2.287 2.469,-3.277 -0.513,-1.012 -1.496,0.35 -1.625,0.889 -0.095,0.395 0.077,0.816 -0.32,1.078 -0.43,0.283 -0.75,0.761 -0.524,1.31 z"
         id="path2818" />
      <path
         style="fill:#ffffff"
         inkscape:connector-curvature="0"
         d="m 89.286,460.111 c 0.329,-0.219 1.22,-0.82 0.794,-1.305 -0.458,0.24 -0.641,0.852 -0.794,1.305 z"
         id="path2820" />
      <path
         style="fill:#ffffff"
         inkscape:connector-curvature="0"
         d="m 89.317,462.904 c 0.473,-0.166 0.846,-0.846 0.538,-1.301 -0.005,0.512 -0.544,0.795 -0.538,1.301 z"
         id="path2822" />
      <path
         style="fill:#ffffff"
         inkscape:connector-curvature="0"
         d="m 90.68,461.572 c -0.363,0.121 -0.631,0.451 -0.697,0.824 0.44,-0.107 0.542,-0.596 0.892,-0.824 -0.065,0 -0.13,0 -0.195,0 z"
         id="path2824" />
      <path
         style="fill:#ffffff"
         inkscape:connector-curvature="0"
         d="m 90.203,460.332 c 0.143,-0.312 0.207,-0.664 0.574,-0.793 -0.494,-0.491 -0.697,0.451 -0.574,0.793 z"
         id="path2826" />
      <path
         style="fill:#ffffff"
         inkscape:connector-curvature="0"
         d="m 90.142,461.919 c 0.287,-0.32 0.473,-0.732 0.819,-1 0.194,-0.15 0.304,-0.555 -0.083,-0.416 -0.421,0.149 -0.772,1.002 -0.736,1.416 z"
         id="path2828" />
      <path
         style="fill:#ffffff"
         inkscape:connector-curvature="0"
         d="m 90.362,460.363 c 0.256,-0.076 0.46,-0.283 0.349,-0.568 -0.227,0.103 -0.381,0.308 -0.349,0.568 z"
         id="path2830" />
      <path
         style="fill:#ffffff"
         inkscape:connector-curvature="0"
         d="m 91.063,459.349 c 0.234,-0.254 0.542,-0.418 0.774,-0.674 0.291,-0.318 -0.202,-0.436 -0.423,-0.336 -0.452,0.207 -1.328,0.817 -0.351,1.01 z"
         id="path2832" />
      <path
         style="fill:#ffffff"
         inkscape:connector-curvature="0"
         d="m 90.649,460.46 c 0.27,-0.143 0.842,-0.346 0.635,-0.764 -0.411,0.032 -0.464,0.483 -0.635,0.764 z"
         id="path2834" />
      <path
         style="fill:#ffffff"
         inkscape:connector-curvature="0"
         d="m 90.808,461.474 c 0.164,-0.096 0.28,-0.232 0.348,-0.41 -0.266,0 -0.411,0.139 -0.348,0.41 z"
         id="path2836" />
      <path
         style="fill:#ffffff"
         inkscape:connector-curvature="0"
         d="m 90.905,458.238 c 0.01,0.062 0.02,0.127 0.031,0.189 0.249,-0.031 0.46,-0.137 0.635,-0.318 -0.237,-0.174 -0.499,-0.094 -0.666,0.129 z"
         id="path2838" />
      <path
         style="fill:#ffffff"
         inkscape:connector-curvature="0"
         d="m 91.347,463.859 c 0.236,0.381 0.396,0.822 0.715,1.146 0.241,0.244 1.229,0.316 0.719,0.031 0.452,0.051 1.016,-0.217 1.435,-0.094 0.296,0.086 0.731,0.324 0.629,-0.225 0.067,0.121 0.141,0.236 0.221,0.35 0.312,-0.213 0.633,-0.514 0.635,-0.922 0.178,0.658 1.311,0.188 1.672,-0.002 0.66,-0.342 0.641,-1.035 1.023,-1.604 0.369,-0.547 0.485,-1.094 0.61,-1.732 0.118,-0.598 0.816,-1.615 -0.23,-1.68 -0.818,-0.049 -1.852,-0.561 -2.629,-0.225 -0.343,0.148 0.037,0.295 -0.508,0.271 -0.479,-0.021 -0.87,-0.086 -1.336,-0.209 -0.852,-0.225 -1.964,-0.605 -2.527,0.348 -0.31,0.523 -0.337,1.357 0.37,1.559 -0.256,-0.055 -0.511,-0.119 -0.763,-0.191 -0.105,0.293 0.108,0.428 0.092,0.703 -0.018,0.318 -0.273,0.559 -0.104,0.898 0.185,0.371 0.715,-0.117 0.996,-0.043 -0.434,0.732 -0.341,0.207 -1.112,0.318 0.168,0.397 0.11,0.887 0.092,1.303 z"
         id="path2840" />
      <path
         style="fill:#ffffff"
         inkscape:connector-curvature="0"
         d="m 92.048,458.238 c 0.424,0.314 0.417,-0.141 0.279,-0.42 -0.32,-0.643 -0.661,0.041 -0.279,0.42 z"
         id="path2842" />
      <path
         style="fill:#ffffff"
         inkscape:connector-curvature="0"
         d="m 92.462,457.603 c 0.319,-0.475 0.562,-1.033 0.124,-1.527 -0.198,0.386 -0.575,1.4 -0.124,1.527 z"
         id="path2844" />
      <path
         style="fill:#ffffff"
         inkscape:connector-curvature="0"
         d="m 93.698,458.238 c 0.308,0.623 0.914,-0.365 1.172,-0.631 0.675,-0.695 -0.531,-0.574 -0.903,-0.457 -0.368,0.113 -1.197,0.15 -1.323,0.611 -0.107,0.389 0.841,0.449 1.054,0.477 z"
         id="path2850" />
      <path
         style="fill:#ffffff"
         inkscape:connector-curvature="0"
         d="m 93.093,456.937 c 0.179,-0.145 1.037,-0.799 0.713,-1.074 -0.518,-0.442 -1.103,0.674 -0.713,1.074 z"
         id="path2852" />
      <path
         style="fill:#ffffff"
         inkscape:connector-curvature="0"
         d="m 93.129,457.376 c 0.2,-0.086 0.369,-0.213 0.507,-0.381 -0.268,-0.038 -0.448,0.135 -0.507,0.381 z"
         id="path2854" />
      <path
         style="fill:#ffffff"
         inkscape:connector-curvature="0"
         d="m 93.129,455.408 c 0.316,-0.01 0.708,-0.1 0.666,-0.506 -0.337,-0.098 -0.781,0.086 -0.666,0.506 z"
         id="path2856" />
      <path
         style="fill:#ffffff"
         inkscape:connector-curvature="0"
         d="m 93.888,454.708 c 0.201,-0.119 0.233,-0.275 0.097,-0.473 -0.192,0.124 -0.225,0.28 -0.097,0.473 z"
         id="path2858" />
      <path
         style="fill:#ffffff"
         inkscape:connector-curvature="0"
         d="m 94.748,458.238 c -0.455,0.697 0.667,0.562 1.021,0.445 0.625,-0.211 -0.479,-0.984 -1.021,-0.445 z"
         id="path2860" />
      <path
         style="fill:#ffffff"
         inkscape:connector-curvature="0"
         d="m 97.479,465.128 c 0.105,-0.275 0.168,-0.561 0.189,-0.855 -0.396,0.139 -0.606,0.58 -0.189,0.855 z"
         id="path2862" />
      <path
         style="fill:#ffffff"
         inkscape:connector-curvature="0"
         d="m 99.164,462.685 c 0.859,0.842 0.187,-1.023 0,0 z"
         id="path2864" />
      <path
         style="fill:#ffffff"
         inkscape:connector-curvature="0"
         d="m 101.706,460.871 c 0.335,0.152 0.013,-0.332 0,-0.348 0,0.115 0,0.232 0,0.348 z"
         id="path2866" />
      <path
         style="fill:#ffffff"
         inkscape:connector-curvature="0"
         d="m 105.707,462.14 c 0.174,-0.047 0.26,-0.164 0.256,-0.348 -0.34,-0.074 -0.425,0.043 -0.256,0.348 z"
         id="path2872" />
      <path
         style="fill:#ffffff"
         inkscape:connector-curvature="0"
         d="m 110.851,463.607 c 0.246,-0.09 0.381,-0.289 0.256,-0.543 -0.123,0.361 -0.208,0.436 -0.256,0.221 0,0.107 0,0.215 0,0.322 z"
         id="path2874" />
      <path
         style="fill:#ffffff"
         inkscape:connector-curvature="0"
         d="m 111.614,464.621 c 0.116,-0.043 0.232,-0.084 0.348,-0.127 -0.303,-0.202 -0.419,-0.159 -0.348,0.127 z"
         id="path2876" />
      <path
         style="fill:#ffffff"
         inkscape:connector-curvature="0"
         d="m 112.315,469.958 c 0.207,-0.416 0.364,-0.832 0.349,-1.307 -0.505,0.216 -0.329,0.888 -0.349,1.307 z"
         id="path2878" />
      <path
         style="fill:#ffffff"
         inkscape:connector-curvature="0"
         d="m 115.267,467.224 c 0.096,-0.107 0.191,-0.213 0.287,-0.318 -0.339,-0.031 -0.434,0.074 -0.287,0.318 z"
         id="path2882" />
      <path
         style="fill:#ffffff"
         inkscape:connector-curvature="0"
         d="m 13.875,486.984 c 0.31,-0.318 0.17,-0.539 0.627,-0.758 0.514,-0.244 -0.071,-0.795 0.059,-1.35 0.25,-1.066 1.404,-0.928 1.841,-1.66 0.309,-0.516 0.047,-1.014 -0.077,-1.539 -0.112,-0.482 0.138,-0.918 0.408,-1.299 0.542,-0.764 -0.034,-1.873 0.52,-2.545 0.285,-0.346 0.892,-0.369 1.228,-0.697 0.298,-0.291 0.331,-0.615 0.744,-0.758 0.532,-0.186 0.81,-0.717 1.321,-0.928 0.474,-0.193 1.207,-0.18 1.72,-0.287 0.61,-0.127 1.117,-0.098 1.567,-0.574 0.072,-0.076 0.72,-0.785 0.862,-0.547 0.133,0.223 0.393,0.166 0.653,0.129 0.298,-0.041 0.62,0.414 0.789,0.645 0.085,-0.105 0.171,-0.211 0.256,-0.318 0.46,0.758 0.689,-0.754 0.729,-1.021 0.183,-1.225 0.363,-2.449 0.487,-3.682 0.169,-1.67 0.451,-3.322 0.686,-4.984 0.099,-0.703 0.478,-1.348 0.311,-2.068 -0.16,-0.695 -0.605,-1.129 -0.627,-1.871 -0.023,-0.768 -0.483,-0.957 -1.052,-1.33 -0.728,-0.479 -0.568,-1.221 -0.568,-1.977 0,-0.439 -0.147,-0.992 0.089,-1.396 0.134,-0.229 0.993,-0.5 1.232,-0.41 0.386,0.143 0.523,-0.355 1.03,-0.086 0.519,0.275 0.7,0.119 0.659,-0.48 -0.064,-0.939 -1.5,-1.537 -2.309,-0.99 0.081,-0.654 -0.225,-1.727 0.064,-2.32 0.284,-0.582 1.314,-0.221 1.719,-0.221 0.968,0 1.931,0.006 2.898,0.045 0.171,0.008 0.729,0.064 0.781,-0.203 0.027,-0.139 0.122,-0.82 0.341,-0.803 0.374,0.027 0.202,1.27 0.879,0.814 0.438,-0.295 0.681,-0.809 1.053,-1.17 0.513,-0.5 1.048,0.332 1.262,0.734 0.405,0.764 0.349,1.246 0.264,2.068 -0.02,0.193 -0.095,0.629 0.257,0.564 0.493,-0.092 0.561,-0.104 0.95,0.289 0.474,0.477 0.917,1.045 1.542,1.334 0.84,0.389 1.109,-0.432 1.749,-0.768 1.205,-0.633 0.501,0.877 0.786,1.223 0.313,-0.102 0.873,-0.916 1.063,-1.189 0.324,-0.465 0.465,-0.725 1.031,-0.943 0.473,-0.182 0.817,-0.293 1.178,-0.645 0.255,-0.252 0.792,-0.705 0.765,-0.016 0.377,-0.629 0.799,-0.857 0.983,-1.59 0.146,-0.574 0.381,-0.611 0.919,-0.748 0.183,-0.047 1.128,-0.543 1.25,-0.703 0.662,-0.877 -0.312,-1.113 -1.031,-1.074 -0.353,0.02 -0.669,-0.027 -0.953,-0.26 -0.167,-0.135 0.12,-0.613 0.085,-0.799 -0.186,-0.986 -0.929,-1.604 -0.715,-2.705 0.155,-0.799 -0.447,-1.053 -0.933,-1.537 -0.278,-0.277 -1.167,-1.283 -0.748,-1.703 0.287,0.127 0.402,0.564 0.713,0.594 0.425,0.041 1.256,-0.275 1.438,0.346 0.147,0.506 0.295,0.617 0.785,0.373 0.48,-0.24 1.017,0.535 1.415,0.156 0.692,-0.656 1.172,1.49 2.071,1.262 0.574,-0.146 0.039,-1.287 0.28,-1.666 0.177,-0.277 0.653,-0.137 0.912,-0.445 0.376,-0.451 0.759,0.105 1.165,0.062 0.675,-0.07 1.952,-0.443 2.178,-1.051 -0.015,0.039 0.924,-0.492 0.842,-0.51 0.434,0.098 0.694,0.082 1,-0.301 0.524,-0.656 2.014,-1.504 0.826,-2.314 0.482,-0.072 0.893,0.035 1.38,-0.104 0.395,-0.111 0.83,-0.082 1.017,0.336 0.372,0.834 -0.353,1.43 -0.302,2.186 0.027,0.4 1.026,0.418 1.288,0.68 0.11,0.109 -0.138,0.43 -0.044,0.648 0.153,0.357 0.333,0.68 0.531,1.002 0.219,0.359 -0.919,1.256 -0.999,1.551 -0.079,0.295 0.037,0.645 -0.041,0.965 -0.143,0.584 -0.49,1.137 -0.56,1.736 -0.104,0.891 0.252,1.449 0.63,2.178 0.175,0.338 -0.068,1.693 0.5,1.656 -0.042,0.107 -0.085,0.213 -0.128,0.318 0.64,0.086 1.073,0.859 1.425,1.311 0.287,0.369 0.841,0.156 1.09,0.549 0.226,0.357 0.341,0.35 0.669,0.168 0.208,-0.115 0.971,-0.289 0.807,-0.625 -0.304,-0.621 1.243,-0.494 1.458,-0.568 0.297,-0.102 0.529,-0.455 0.822,-0.604 0.415,-0.207 0.684,0.145 1.042,-0.289 0.475,-0.572 0.998,-1.16 1.698,-0.648 0.674,0.494 1.25,-0.146 1.954,0.043 0.46,0.125 1.539,0.719 1.711,-0.064 0.158,-0.721 -1.009,-0.885 -0.556,-1.533 0.547,-0.779 0.812,-0.281 1.58,-0.318 0.5,-0.023 0.915,-0.104 1.326,-0.279 0.873,-0.371 0.671,-0.264 1.332,0.285 0.131,0.109 0.09,-0.25 0.249,-0.004 0.197,0.305 0.484,0.443 0.771,0.66 0.372,0.281 0.74,0.285 1.126,0.494 0.437,0.238 0.265,-0.189 0.616,-0.26 0.312,-0.062 0.397,-0.387 0.65,-0.525 0.216,-0.121 0.488,0.166 0.718,0.188 0.283,0.025 1.347,-0.215 1.143,0.369 0.312,-0.148 0.808,0.221 1.066,-0.01 0.364,-0.328 0.822,-0.555 1.096,-0.975 0.386,-0.594 0.704,-1.297 0.883,-1.982 0.475,-1.809 1.747,-3.117 2.893,-4.562 0.04,0.256 0.148,0.479 0.322,0.668 -0.145,-0.412 -0.492,-0.924 -0.128,-1.334 0.964,0.598 1.089,1.559 0.984,2.605 0.055,-0.309 0.084,-0.645 0.349,-0.857 -0.037,1.383 0.107,2.826 0.595,4.127 0.199,0.531 1.018,2.146 0.419,2.637 0.462,-0.152 0.54,0.348 0.685,0.65 0.284,0.59 0.954,0.354 1.446,0.559 1.123,0.465 0.906,1.787 -0.066,2.223 0.253,-0.072 0.536,-0.027 0.732,0.158 -0.427,0.428 -1.169,0.811 -1.342,1.434 -0.089,0.318 -0.453,0.463 -0.625,0.725 -0.261,0.396 -0.376,0.838 -0.694,1.203 -0.43,0.496 -0.984,0.855 -1.466,1.293 -0.596,0.543 -0.906,1.271 -1.408,1.891 -0.464,0.572 -0.635,1.014 -0.57,1.752 0.036,0.414 -0.726,0.486 -0.753,1.055 -0.036,0.766 -0.596,0.354 -0.987,0.34 -0.359,-0.012 -1.486,0.541 -1.618,0.887 0.317,-0.074 2.03,-0.4 1.553,0.383 0.324,-0.357 0.83,-0.324 1.223,-0.555 0.458,-0.27 0.811,-0.562 1.306,-0.775 0.645,-0.277 1.598,-1.08 1.955,-1.688 0.834,0.484 0.038,1.738 0.582,2.408 0.218,0.268 0.008,0.988 0.368,1.094 0.301,0.088 0.821,-0.086 0.639,0.438 0.705,0.139 1.967,-1.146 2.096,0.318 -0.063,-0.451 0.382,-0.535 0.72,-0.6 0.168,0.004 0.289,-0.07 0.36,-0.229 0.131,-0.348 0.505,-0.219 0.795,-0.283 -0.376,1.18 -0.727,1.949 -0.671,3.176 0.539,-0.695 0.22,-2.207 1.124,-2.633 0.602,-0.283 0.701,-0.369 1.057,-0.949 0.587,-0.959 0.748,-0.248 1.344,0.119 -0.012,-0.203 -0.063,-0.393 -0.154,-0.574 0.333,-0.023 0.658,-0.098 0.984,-0.158 -0.335,-0.17 -0.711,-0.029 -1.05,0.031 -0.085,-0.465 0.243,-0.484 0.503,-0.732 0.394,-0.379 -0.032,-1.217 0.454,-1.695 0.572,-0.564 0.411,-0.09 0.791,-0.238 0.268,-0.104 0.828,-0.777 0.892,-0.096 0.527,-0.516 0.556,0.203 1.045,0.029 -0.21,-0.18 -0.259,-0.453 -0.128,-0.697 0.301,0.088 1.018,0.264 0.86,0.729 0.104,-0.057 0.21,-0.109 0.317,-0.158 0.043,0.117 0.085,0.234 0.128,0.354 0.275,-0.219 0.318,-0.221 0.318,0.154 0.254,-0.084 0.432,-0.299 0.446,-0.57 -0.16,0.412 0.402,0.488 0.251,0.893 0.039,-0.26 0.205,-0.426 0.476,-0.322 -0.004,0.273 -0.183,0.479 -0.445,0.543 0.454,-0.264 0.866,0.381 1.301,-0.031 -0.058,0.598 0.383,0.244 0.512,-0.066 -0.182,0.723 0.425,0.424 0.379,0.893 0.17,-0.068 0.298,-0.186 0.384,-0.35 -0.059,0.41 0.452,0.26 0.539,0.635 0.108,-0.104 0.214,-0.209 0.317,-0.316 0.021,0.236 0.106,0.449 0.256,0.635 0.105,-0.086 0.21,-0.17 0.313,-0.256 0.054,0.316 0.18,0.469 0.476,0.158 -0.231,0.166 -0.292,0.428 -0.124,0.666 0.066,-0.244 0.254,-0.432 0.507,-0.477 -0.359,0.322 -0.231,1.012 0.098,1.307 0.143,-0.27 -0.029,-0.721 0.333,-0.861 0.66,-0.256 0.364,0.217 0.681,0.318 -0.018,-0.266 0.14,-0.473 0.38,-0.568 -0.11,0.207 -0.164,0.43 -0.159,0.666 0.753,-0.453 -0.099,0.896 0.701,0.41 -0.11,0.102 -0.216,0.207 -0.317,0.318 0.257,0.088 0.492,-0.037 0.635,-0.252 -0.217,0.469 0.546,0.213 0.216,0.842 -0.295,0.562 -0.156,1.031 -0.882,1.254 0.261,-0.164 0.465,-0.018 0.539,0.252 0.018,-0.404 0.463,-1.025 0.835,-0.502 0.398,0.562 -0.299,0.736 -0.519,1.158 -0.187,0.359 -0.52,1.467 -0.391,1.855 0.142,0.432 -0.542,0.789 -0.243,1.109 0.04,-0.605 0.758,-0.789 1.015,-1.27 0.255,-0.479 0.087,-1.279 0.364,-1.674 0.142,-0.201 0.781,-0.66 0.988,-0.312 0.339,0.572 -0.736,0.877 -0.81,1.352 0.313,-0.203 0.419,-0.127 0.318,0.225 0.37,-0.18 0.89,-1.629 1.081,-0.893 0.032,-0.508 1.013,-0.785 1.395,-0.568 -0.041,-1.002 2.037,0.107 2.405,0.32 0.261,0.15 1.7,0.734 1.724,1.012 0.313,-0.203 1.144,0.312 0.988,-0.348 0.416,0.092 0.697,0.402 1.076,0.568 0.437,0.191 0.905,0.162 1.271,0.512 -0.007,-0.611 0.371,-0.545 0.845,-0.562 0.952,-0.035 1.792,-0.416 2.762,-0.209 1.774,0.379 3.416,1.893 4.799,2.979 0.46,0.361 0.988,0.422 1.37,0.877 0.366,0.436 0.649,0.924 0.995,1.371 0.391,0.504 0.914,0.729 1.271,1.225 0.383,0.529 1.086,0.588 1.506,1.135 0.423,0.551 1.039,0.328 1.521,0.801 0.558,0.549 1.539,0.328 2.223,0.242 1.574,-0.197 2.737,0.393 3.194,1.953 0.178,0.605 0.443,1.207 0.454,1.848 0.003,0.193 -0.161,0.518 -0.012,0.592 0.171,0.084 0.266,0.318 0.333,0.48 0.286,0.684 0.771,2.205 0.403,2.926 0.102,-0.154 0.195,-0.312 0.282,-0.477 -0.069,0.723 0.459,1.594 -0.282,2.127 0.117,0.029 0.233,0.061 0.348,0.098 -0.296,0.598 0.174,1.316 -0.189,1.859 -0.376,0.561 -0.095,1.316 -0.39,1.906 -0.342,0.684 -0.461,1.453 -0.778,2.148 -0.349,0.764 -1.108,1.264 -1.404,2.057 -0.11,-0.078 -0.216,-0.162 -0.318,-0.25 0.023,0.322 -0.077,0.723 -0.384,0.189 0.053,0.203 0.182,0.309 0.384,0.318 -0.463,0.914 -1.142,2.105 -1.909,2.797 -0.316,0.285 -0.744,0.398 -1.066,0.682 -0.335,0.295 -0.597,0.682 -0.996,0.902 0.067,-0.271 -0.107,-0.463 -0.353,-0.539 -0.031,0.295 0.34,0.391 0.287,0.666 -0.069,0.355 -0.376,0.83 -0.728,0.385 0.174,0.227 0.584,0.447 0.336,0.791 -0.143,0.197 -0.742,0.857 -0.5,0.127 -0.199,0.316 -0.157,0.713 -0.441,0.988 0.127,-0.041 0.254,-0.084 0.379,-0.129 -0.699,0.998 -1.81,6.023 -3.622,5.717 0.333,-0.76 -0.437,-0.9 -0.667,-1.494 -0.015,0.344 -0.396,1.312 -0.697,0.572 0.094,0.311 0.572,0.438 0.558,0.77 -0.025,0.586 -0.766,1.004 -0.558,1.645 -0.509,-0.344 -0.404,0.533 -0.414,0.891 0.037,-0.164 0.089,-0.322 0.158,-0.477 0.171,0.447 0.175,0.832 0.159,1.303 -0.124,-0.098 -0.239,-0.205 -0.349,-0.318 0.276,0.234 0.522,0.988 0.415,1.336 0.086,-0.221 0.17,-0.445 0.251,-0.67 0.044,1.336 -0.382,2.547 -0.189,3.902 0.166,1.164 0.672,2.383 0.729,3.543 0.103,2.059 -1.19,3.977 -0.618,6.09 0.32,1.178 -0.425,1.322 -0.93,2.207 -0.582,1.021 -0.671,2.289 -0.525,3.434 0.104,0.816 0.588,2.463 -0.379,2.889 -0.912,0.4 -0.18,2.186 -1.264,2.332 0.77,0.682 -0.534,1.535 -0.974,1.953 -0.376,0.359 -0.268,0.631 -0.401,1.111 -0.196,0.711 -0.52,1.352 -0.405,2.109 0.059,0.395 0.345,1.01 0.049,1.369 -0.487,0.594 -1.233,0.574 -1.846,0.941 -0.416,0.248 -0.844,0.711 -1.031,1.158 -0.121,0.291 0.02,0.559 0.104,0.836 0.087,0.283 -0.278,0.432 -0.133,0.748 -0.434,-0.48 -1.678,-0.24 -2.224,-0.125 -0.319,0.066 -0.833,0.242 -1.143,0.062 -0.46,-0.264 -0.133,-0.711 -0.159,-1.111 -1.021,0.121 -0.183,0.547 -0.319,1.061 -0.135,0.508 -2.177,0.311 -2.637,0.559 0.312,-0.332 0.851,-0.184 1.24,-0.316 -0.418,-0.375 -0.886,-0.578 -1.404,-0.262 -0.46,0.279 -0.667,0.057 -1.143,0.111 -0.345,0.039 -0.918,0.078 -1.039,0.488 -0.113,0.381 0.476,0.549 0.696,0.711 -0.501,0.41 -1.169,-0.021 -1.498,0.463 -0.282,0.416 -0.735,0.467 -1.126,0.738 -0.345,0.238 0.08,0.607 -0.266,0.834 -0.478,0.312 -1.293,-0.574 -1.972,0 -0.072,0.061 -0.542,0.924 -0.711,0.711 -0.147,-0.186 -0.031,-0.457 -0.4,-0.395 0.194,0.578 -0.553,0.645 -0.968,0.92 -0.509,0.34 -0.744,0.824 -1.146,1.26 -0.438,0.475 -1.112,0.607 -1.587,1.035 -0.405,0.365 -0.636,0.92 -1.095,1.229 0.105,0.064 0.211,0.129 0.317,0.193 -0.356,0.369 -0.712,0.799 -0.922,1.271 -0.032,-0.24 0.031,-0.453 0.19,-0.635 -0.332,0.141 -0.675,0.051 -0.984,-0.098 0.144,0.658 -0.223,1.039 -0.855,0.506 -0.007,0.381 0.891,0.771 1.235,0.734 -0.237,0.219 -0.32,0.518 -0.379,0.824 -0.047,0.244 -0.542,0.166 -0.697,0.287 0.212,-0.008 0.424,0.002 0.635,0.031 -0.096,0.299 0.028,0.607 -0.059,0.906 -0.103,0.352 -0.477,0.412 -0.576,0.016 0.123,0.26 0.066,0.613 0.354,0.736 0.377,0.162 0.157,0.961 0.246,1.266 0.142,0.488 0.746,1.201 0.476,1.809 0.466,-0.109 0.418,0.439 0.036,0.508 0.419,0.32 0.092,1.678 0.427,2.238 0.314,0.525 -0.244,1.832 -0.269,2.367 -0.167,-0.121 -0.305,-0.27 -0.415,-0.445 0.114,0.271 0.104,0.596 0.446,0.701 -0.354,0.5 -0.918,0.799 -1.373,1.195 -0.484,0.42 -0.818,0.984 -1.118,1.545 -0.729,1.359 -0.941,2.811 -1.328,4.285 -0.363,1.383 -1.05,2.639 -1.848,3.816 -0.768,1.133 -1.885,1.943 -2.782,2.977 0.16,-0.41 -0.068,-0.91 -0.159,-1.307 0.468,0.129 0.652,0.17 1.066,-0.119 0.369,-0.256 0.574,-0.844 0.907,-1.031 0.46,-0.258 0.538,-0.473 0.536,-1.004 -10e-4,-0.344 0.06,-0.945 0.478,-0.449 -0.156,-0.504 0.08,-0.695 0.376,-1.047 0.243,-0.289 0.294,-0.621 0.241,-0.986 -0.038,-0.266 -0.32,-1.154 0.269,-0.604 0.015,-0.139 -0.175,-0.99 -0.394,-0.916 -0.14,0.049 -0.902,0.623 -0.908,0.791 -0.209,-0.236 -0.33,-0.52 -0.641,-0.631 -0.367,-0.131 -0.296,-0.652 -0.63,-0.828 -0.029,0.869 0.383,0.834 0.728,1.459 -0.729,0.18 -0.199,1.021 -0.252,1.492 -0.051,-0.232 -0.146,-0.443 -0.286,-0.635 -0.104,0.301 0.18,0.686 0.029,0.938 -0.067,0.111 -0.301,0.09 -0.268,0.264 0.137,0.723 -0.479,1.109 -0.991,1.402 -0.404,0.23 -0.243,0.734 -0.358,1.115 -0.098,0.318 -0.901,1.098 -0.128,1.174 -0.411,0.254 -0.119,0.818 0.287,0.506 0.065,0.404 -0.233,0.781 -0.396,1.121 -0.267,0.561 -0.247,1.234 -0.332,1.836 -0.167,1.184 -0.891,1.891 -1.504,2.85 -0.499,0.781 -1.208,0.609 -1.311,-0.289 -0.045,-0.396 -0.195,-0.848 -0.183,-1.236 0.015,-0.494 0.579,-0.908 0.774,-1.334 0.311,-0.674 -0.531,-0.926 -0.977,-1.133 -0.519,-0.24 -0.778,-0.662 -1.045,-1.145 -0.583,-1.053 -1.585,-1.051 -2.441,-1.742 -0.451,-0.365 -0.696,-0.947 -1.255,-1.182 -0.224,-0.037 -0.447,-0.08 -0.67,-0.129 -0.253,-0.121 -0.35,-0.422 -0.604,-0.537 -0.393,-0.18 -0.591,0.033 -0.952,-0.439 -0.384,-0.504 -0.739,-1.043 -1.395,-1.215 0.252,0.547 -1.038,1.4 -1.099,0.314 -0.052,-0.918 -1.144,-1.51 -1.793,-1.998 -0.482,-0.363 -1.505,-1.613 -2.232,-1.086 -0.242,0.176 -0.173,0.625 -0.568,0.584 -0.458,-0.045 -0.813,0.049 -1.137,-0.357 0.682,-0.27 0.71,-1.221 1.285,-1.66 0.648,-0.496 0.956,-1.236 1.195,-1.973 0.27,-0.832 0.984,-1.455 1.39,-2.217 0.206,-0.387 0.608,-1.469 1.146,-0.914 0.129,-0.258 0.014,-0.484 -0.251,-0.572 0.428,-0.52 0.945,-1.039 1.535,-1.369 0.604,-0.338 0.684,-0.689 1.098,-1.137 0.418,-0.455 0.935,-0.564 1.452,-0.828 0.377,-0.193 1.058,-1.053 1.537,-0.828 0.109,-0.783 0.082,-1.414 0.061,-2.195 -0.025,-0.949 -0.117,-1.449 -0.438,-2.334 -0.229,-0.625 -0.372,-1.348 -1.068,-1.594 -0.402,-0.143 -1.165,-0.201 -1.253,0.375 -0.376,-0.238 -0.862,-0.463 -0.704,-1.004 0.219,-0.748 0.155,-1.285 0.241,-2.055 0.059,-0.529 0.05,-1.219 0.287,-1.703 0.247,-0.504 -0.552,-0.988 0.017,-1.4 -0.39,-0.268 -0.703,-0.795 -1.208,-0.855 -0.532,-0.064 -0.9,0.445 -1.363,0.6 -1.279,0.428 -1.604,-0.855 -1.875,-1.84 -0.163,-0.592 -0.505,-1.268 -0.615,-1.869 -0.102,-0.561 0.061,-1.09 -0.389,-1.504 -0.42,-0.387 -0.264,-0.963 -0.947,-1.143 -0.534,-0.141 -0.954,-0.27 -1.391,-0.668 -0.424,-0.389 -0.802,-0.305 -0.684,0.168 0.406,1.619 -1.068,0.471 -1.489,0.416 -0.604,-0.078 -1.263,-0.154 -1.805,-0.449 -0.289,-0.156 -1.438,-0.273 -1.525,-0.641 -0.089,-0.375 0.228,-0.543 0.206,-0.92 -0.021,-0.352 -0.26,-0.852 -0.127,-1.193 0.234,-0.604 -0.015,-1.154 0.109,-1.736 0.095,-0.447 -0.694,-0.629 -0.269,-1.133 -0.367,-0.023 -0.442,-0.395 -0.471,-0.689 -0.046,-0.473 -0.296,-0.586 -0.555,-0.947 -0.58,-0.811 1.451,-0.83 0.626,-1.467 -0.998,-0.771 -0.66,-1.365 -0.188,-2.445 0.127,-0.291 0.589,-0.84 0.435,-1.119 -0.262,-0.471 -0.076,-0.877 0.045,-1.402 0.097,-0.426 0.396,-1.064 0.359,-1.496 -0.038,-0.438 -0.498,-0.756 -0.666,-1.143 -0.205,-0.469 -0.239,-1.467 -0.8,-1.521 -0.752,-0.074 -1.631,-0.629 -1.879,-1.389 -0.165,-0.504 -0.371,-1.111 -0.386,-1.645 -0.016,-0.533 0.383,-0.982 0.365,-1.543 -1.073,0.246 -2.192,0.131 -3.275,0.02 -0.687,-0.07 -2.272,0.137 -2.767,-0.414 -0.451,-0.504 -0.345,-1.508 -0.452,-2.135 -0.142,-0.832 -1.128,-1.32 -1.161,-2.076 0.274,-0.029 0.549,-0.039 0.825,-0.031 -0.186,-0.914 -0.244,-1.875 -0.661,-2.727 -0.161,-0.328 -0.375,-0.562 -0.292,-0.949 0.094,-0.438 0.161,-0.717 -0.179,-1.076 -1.125,-1.188 -2.809,-1.502 -4.327,-1.156 -0.424,0.096 -1.172,-1.029 -1.378,-1.307 -0.226,-0.303 -0.386,-0.16 -0.685,-0.184 -0.27,-0.021 -0.875,-0.398 -1.065,-0.588 -0.169,-0.168 -0.466,-0.014 -0.667,-0.152 -0.306,-0.213 -0.472,-0.629 -0.688,-0.92 -0.281,-0.377 -0.397,-0.307 -0.779,-0.137 -0.45,0.201 -0.631,-0.293 -0.936,-0.492 -0.793,-0.521 -1.082,0.062 -1.886,-0.125 -0.922,-0.217 -1.012,-0.289 -1.514,-0.994 -0.237,-0.332 -1.063,-0.883 -1.453,-0.924 -0.382,-0.041 -0.266,-0.584 -0.494,-0.838 -0.167,-0.184 -0.545,-0.15 -0.542,-0.438 0.006,-0.627 -0.584,-0.992 -0.654,-1.703 -0.038,-0.387 0.276,-0.809 0.195,-1.152 -0.072,-0.309 -0.427,-0.373 -0.48,-0.732 -0.042,-0.291 -0.022,-0.594 -0.097,-0.879 -0.101,-0.379 0.318,-0.643 0.381,-0.986 0.122,-0.656 0.033,-1.768 -0.573,-2.188 -0.147,0.139 -0.273,0.494 -0.517,0.475 -0.611,-0.049 -1.081,-0.043 -1.696,0.027 -0.674,0.076 -1.822,0.1 -2.234,0.75 -0.595,0.939 -1.456,0.938 -2.234,1.572 -0.229,0.188 -0.585,0.479 -0.641,0.791 -0.086,0.484 -0.581,0.098 -0.864,0.07 -0.448,-0.045 -0.641,0.438 -0.785,0.766 -0.199,0.453 -0.598,0.697 -1.038,0.896 -0.117,0.053 -0.899,0.318 -0.846,-0.049 0.068,-0.467 -0.471,-0.371 -0.814,-0.381 -0.895,-0.025 -2.235,-0.424 -3.088,-0.164 -0.438,0.135 -0.849,0.613 -1.347,0.461 -0.297,-0.092 -0.7,-0.572 -1.02,-0.293 -0.142,-1.162 -0.099,-2.338 -0.246,-3.5 -0.07,-0.561 0.055,-0.736 0.221,-1.215 0.009,-0.156 -0.038,-0.295 -0.142,-0.418 -0.164,-0.318 0.131,-0.457 0.201,-0.742 -0.836,0.01 -1.61,1.34 -2.169,1.838 -0.849,0.754 -2.311,0.447 -3.328,0.318 0.173,-0.549 -0.265,-1.455 -0.673,-1.807 -0.731,-0.627 -2.021,-0.156 -2.821,-0.574 0.931,-1.219 0.627,-1.564 -0.375,-2.592 -0.213,-0.221 -0.238,-0.43 -0.326,-0.709 -0.093,-0.297 -0.431,-0.373 -0.613,-0.604 -0.418,-0.531 -0.321,-1.199 -0.973,-1.625 0.665,-0.409 -0.546,-1.206 -0.758,-1.526 z"
         id="path2812" />
      <path
         style="fill:#ffffff"
         inkscape:connector-curvature="0"
         d="m 104.437,558.833 c 0.096,0.096 0.192,0.189 0.286,0.285 0.111,-0.309 0.233,-0.641 -0.031,-0.922 -0.179,0.177 -0.265,0.387 -0.255,0.637 z"
         id="path2868" />
      <path
         style="fill:#ffffff"
         inkscape:connector-curvature="0"
         d="m 105.517,564.46 c 0.287,-0.398 0.543,-1.191 0.189,-1.625 -0.463,0.28 -0.237,1.204 -0.189,1.625 z"
         id="path2870" />
      <path
         style="fill:#ffffff"
         inkscape:connector-curvature="0"
         d="m 114.663,549.751 c 0.046,-0.295 -0.197,-0.49 -0.062,-0.795 -0.403,-0.086 -0.54,0.33 -0.604,0.635 0.241,-0.027 0.462,0.026 0.666,0.16 z"
         id="path2880" />
      <path
         style="fill:#ffffff"
         inkscape:connector-curvature="0"
         d="m 117.429,546.89 c 0.261,-0.037 0.489,-0.199 0.635,-0.414 -0.307,-0.219 -0.786,0.002 -0.635,0.414 z"
         id="path2884" />
      <path
         style="fill:#ffffff"
         inkscape:connector-curvature="0"
         d="m 133.055,508.394 c 0.242,-0.23 0.836,-0.615 0.349,-0.953 0.08,0.391 -0.367,0.576 -0.349,0.953 z"
         id="path2888" />
    </g>
  </g>
</svg>
