<?xml version="1.0" encoding="UTF-8" standalone="no"?>
<!-- Created with Inkscape (http://www.inkscape.org/) -->

<svg
   xmlns:dc="http://purl.org/dc/elements/1.1/"
   xmlns:cc="http://creativecommons.org/ns#"
   xmlns:rdf="http://www.w3.org/1999/02/22-rdf-syntax-ns#"
   xmlns:svg="http://www.w3.org/2000/svg"
   xmlns="http://www.w3.org/2000/svg"
   xmlns:sodipodi="http://sodipodi.sourceforge.net/DTD/sodipodi-0.dtd"
   xmlns:inkscape="http://www.inkscape.org/namespaces/inkscape"
   width="5.0155749mm"
   height="2.9635348mm"
   viewBox="0 0 5.0155745 2.9635352"
   version="1.1"
   id="svg7070"
   inkscape:version="0.92.4 (5da689c313, 2019-01-14)"
   sodipodi:docname="bulgaria.svg">
  <defs
     id="defs7064" />
  <sodipodi:namedview
     id="base"
     pagecolor="#ffffff"
     bordercolor="#666666"
     borderopacity="1.0"
     inkscape:pageopacity="0.0"
     inkscape:pageshadow="2"
     inkscape:zoom="7.9195959"
     inkscape:cx="19.507931"
     inkscape:cy="-15.295576"
     inkscape:document-units="mm"
     inkscape:current-layer="layer1"
     showgrid="false"
     inkscape:window-width="958"
     inkscape:window-height="1008"
     inkscape:window-x="-7"
     inkscape:window-y="0"
     inkscape:window-maximized="0" />
  <metadata
     id="metadata7067">
    <rdf:RDF>
      <cc:Work
         rdf:about="">
        <dc:format>image/svg+xml</dc:format>
        <dc:type
           rdf:resource="http://purl.org/dc/dcmitype/StillImage" />
        <dc:title />
      </cc:Work>
    </rdf:RDF>
  </metadata>
  <g
     inkscape:label="Layer 1"
     inkscape:groupmode="layer"
     id="layer1"
     transform="translate(-157.86173,-42.352773)">
    <path
       inkscape:connector-curvature="0"
       style="fill:#ffffff;stroke-width:0.26458332"
       d="m 157.86195,42.786842 c -0.006,-0.137319 0.11245,-0.325173 0.19765,-0.428096 0.0275,-0.03281 0.25876,0.07885 0.27278,0.109008 0.0378,0.08202 -0.12329,0.163513 -0.0749,0.246857 0.0709,0.121708 0.46064,0.0056 0.58182,0.03096 0.19685,0.04101 0.41327,0.180181 0.61303,0.10795 0.16087,-0.05794 0.36487,-0.01297 0.53605,7.94e-4 0.25268,0.02011 0.38814,0.133614 0.6223,-0.04419 0.18045,-0.137848 0.30586,-0.248708 0.5379,-0.288925 0.2114,-0.03651 0.43815,-0.154252 0.64479,-0.0463 0.13123,0.06879 0.32094,0.12409 0.46858,0.0971 0.0505,-0.0093 0.24156,0.196056 0.31432,0.225425 0.0984,0.03916 0.27173,-0.03969 0.28919,0.102129 0.0185,0.153459 0.0402,0.271198 -0.14579,0.256646 -0.18547,-0.01429 -0.27066,0.121444 -0.34581,0.274902 -0.0643,0.131763 0.005,0.2794 -0.0743,0.423863 -0.0246,0.04418 -0.0532,0.08652 -0.0796,0.129646 -0.0423,0.06985 -0.12859,0.02249 -0.17251,0.105568 0.22886,0.05212 0.27225,0.216959 0.41963,0.369888 0.18097,0.188648 -0.21775,0.186267 -0.33629,0.152929 -0.12832,-0.03651 -0.1434,-0.176742 -0.30586,-0.130175 -0.12065,0.03466 -0.20981,0.109802 -0.34025,0.10795 -0.17595,-0.0026 -0.0455,0.06323 -0.10134,0.112713 -0.0532,0.04709 -0.23706,0.03704 -0.1598,0.151341 -0.45218,-0.09948 0.0458,0.233627 -0.23892,0.375973 -0.14923,0.07461 -0.37994,0.0079 -0.55404,0.07752 -0.12065,0.04842 -0.21617,-0.138642 -0.32914,-0.14896 -0.15981,-0.01482 -0.16537,0.06323 -0.28893,-0.08917 -0.0836,-0.102923 -0.17938,-0.07303 -0.29818,-0.05398 -0.16378,0.02672 -0.28417,0.131762 -0.45826,0.13679 -0.20373,0.0058 -0.38365,0.05821 -0.58658,0.04048 0.0675,-0.228865 0.002,-0.396346 -0.10901,-0.59399 -0.0365,-0.06456 -0.11986,-0.07885 -0.17886,-0.1143 -0.10292,-0.06112 -0.17066,-0.159543 -0.25215,-0.243946 0.24818,-0.177006 -0.0389,-0.262202 0.0707,-0.505354 0.0407,-0.09049 0.12673,-0.02672 0.18944,-0.06615 0.0759,-0.04868 0.17409,-0.212195 0.21061,-0.293952 -0.2249,-0.0717 -0.47916,-0.36486 -0.53817,-0.588962 z"
       id="bg" />
  </g>
</svg>
