<?xml version="1.0" encoding="UTF-8" standalone="no"?>
<!-- Created with Inkscape (http://www.inkscape.org/) -->

<svg
   xmlns:dc="http://purl.org/dc/elements/1.1/"
   xmlns:cc="http://creativecommons.org/ns#"
   xmlns:rdf="http://www.w3.org/1999/02/22-rdf-syntax-ns#"
   xmlns:svg="http://www.w3.org/2000/svg"
   xmlns="http://www.w3.org/2000/svg"
   xmlns:sodipodi="http://sodipodi.sourceforge.net/DTD/sodipodi-0.dtd"
   xmlns:inkscape="http://www.inkscape.org/namespaces/inkscape"
   width="7.0181632mm"
   height="5.7445068mm"
   viewBox="0 0 7.0181635 5.7445052"
   version="1.1"
   id="svg7070"
   inkscape:version="0.92.4 (5da689c313, 2019-01-14)"
   sodipodi:docname="burkina_faso.svg">
  <defs
     id="defs7064" />
  <sodipodi:namedview
     id="base"
     pagecolor="#ffffff"
     bordercolor="#666666"
     borderopacity="1.0"
     inkscape:pageopacity="0.0"
     inkscape:pageshadow="2"
     inkscape:zoom="7.9195959"
     inkscape:cx="12.301697"
     inkscape:cy="-14.796701"
     inkscape:document-units="mm"
     inkscape:current-layer="layer1"
     showgrid="false"
     inkscape:window-width="958"
     inkscape:window-height="1008"
     inkscape:window-x="-7"
     inkscape:window-y="0"
     inkscape:window-maximized="0" />
  <metadata
     id="metadata7067">
    <rdf:RDF>
      <cc:Work
         rdf:about="">
        <dc:format>image/svg+xml</dc:format>
        <dc:type
           rdf:resource="http://purl.org/dc/dcmitype/StillImage" />
        <dc:title />
      </cc:Work>
    </rdf:RDF>
  </metadata>
  <g
     inkscape:label="Layer 1"
     inkscape:groupmode="layer"
     id="layer1"
     transform="translate(-158.57906,-32.585847)">
    <path
       style="fill:#ffffff;stroke-width:0.26458332"
       inkscape:connector-curvature="0"
       id="bf"
       d="m 158.57947,37.279174 c 0.0624,-0.161395 0.11324,-0.332581 0.0759,-0.505089 -0.041,-0.188913 0.0545,-0.08387 0.12647,-0.22569 0.0445,-0.08731 0.16854,-0.347133 0.0606,-0.420687 -0.0884,-0.06032 0.0291,-0.210344 -0.13653,-0.252148 0.0971,0.0053 0.14499,-0.07117 0.21881,-0.116152 0.12065,-0.07355 0.28284,-0.01323 0.40746,-0.08943 0.1524,-0.09313 0.37386,-0.448734 0.22569,-0.612776 -0.0598,-0.06615 0.0542,-0.130439 0.11298,-0.116416 0.12488,0.0291 0.11721,-0.100542 0.0982,-0.200819 -0.0124,-0.06562 -0.14235,-0.162983 -0.0294,-0.202406 0.0868,-0.03043 0.20637,-0.275961 0.26061,-0.351102 -0.007,0.147902 0.34158,0.324379 0.46223,0.336285 -0.0283,-0.140229 0.0627,-0.121708 0.17648,-0.117739 -0.0153,-0.128059 0.0487,-0.302419 -0.0175,-0.420423 0.0947,0.01799 0.19289,0.02487 0.27782,0.07567 0.12726,-0.191293 0.11192,-0.610922 0.44264,-0.645054 0.16325,-0.01667 0.37836,0.236538 0.41064,-0.05239 0.0169,-0.155046 0.17515,-0.129646 0.28099,-0.184944 0.13758,-0.07144 0.23521,-0.194998 0.38629,-0.243417 0.21881,-0.07011 0.4863,-0.505354 0.72654,-0.28866 0.0455,0.04101 0.15717,-0.0545 0.23072,-0.03228 0.10054,0.03043 0.20135,0.06694 0.29686,0.111125 0.14923,0.06906 -0.0196,0.406135 0.10081,0.561975 0.096,0.124089 0.0294,0.308504 0.13282,0.412485 0.0585,0.059 0.1053,0.195792 0.14129,0.27305 0.0392,0.08467 0.20584,0.08943 0.28257,0.124619 0.0712,0.03254 0.0775,0.0635 0.11351,0.12356 0.0439,0.07303 0.14155,0.06667 0.20214,0.11774 -0.0833,0.04048 -0.15822,0.03863 -0.23469,-0.01693 -0.12858,0.290512 0.26379,0.627327 0.4998,0.737129 0.18627,0.08652 0.28178,-0.137848 0.41381,-0.09975 0.10848,0.03148 0.13732,0.208492 0.17912,0.29554 -0.28337,0.113506 -0.0431,0.270933 0.0654,0.473604 0.11562,0.216429 -0.16934,0.530489 -0.38127,0.544248 -0.0524,0.0034 -0.25612,0.06244 -0.29422,0.03201 -0.10451,-0.08308 -0.12753,-0.04075 -0.21457,0.03757 -0.17145,0.154252 -0.26803,0.362479 -0.48869,0.388408 -0.22172,0.02619 -0.37888,-0.07197 -0.59372,-0.106627 -0.0963,-0.01535 -0.204,-0.05345 -0.30189,-0.03519 -0.0767,0.01455 -0.32809,0.222779 -0.37254,0.192881 -0.23918,-0.160602 -0.70432,-0.07594 -0.98478,-0.05583 -0.32067,0.02328 -0.64426,0.01138 -0.96387,-0.01693 0.0389,0.127 -0.0923,0.221985 -0.0923,0.344487 0,0.159808 0.099,0.316442 0.12171,0.475985 0.0206,0.141288 0.0537,0.29898 0.0304,0.441855 -0.0214,0.130439 0.0884,0.289454 -0.002,0.359833 -0.14711,-0.109538 -0.28681,-0.373327 -0.3863,-0.529167 -0.0841,0.125148 -0.42333,-0.02487 -0.55456,0.02514 -0.14341,0.05477 -0.44371,0.09869 -0.44583,0.302683 -0.0905,-0.01561 -0.34977,-0.09181 -0.40349,-0.162454 -0.0397,-0.05186 -0.18018,-0.150813 -0.17674,-0.203994 0.005,-0.08361 -0.11192,-0.2921 -0.18415,-0.331258 -0.1225,-0.0672 -0.25823,0.0299 -0.30268,-0.152136 z" />
  </g>
</svg>
