<?xml version="1.0" encoding="UTF-8" standalone="no"?>
<!-- Created with Inkscape (http://www.inkscape.org/) -->

<svg
   xmlns:dc="http://purl.org/dc/elements/1.1/"
   xmlns:cc="http://creativecommons.org/ns#"
   xmlns:rdf="http://www.w3.org/1999/02/22-rdf-syntax-ns#"
   xmlns:svg="http://www.w3.org/2000/svg"
   xmlns="http://www.w3.org/2000/svg"
   xmlns:sodipodi="http://sodipodi.sourceforge.net/DTD/sodipodi-0.dtd"
   xmlns:inkscape="http://www.inkscape.org/namespaces/inkscape"
   width="1.62274mm"
   height="2.1729832mm"
   viewBox="0 0 1.6227401 2.1729828"
   version="1.1"
   id="svg7070"
   inkscape:version="0.92.4 (5da689c313, 2019-01-14)"
   sodipodi:docname="burundi.svg">
  <defs
     id="defs7064" />
  <sodipodi:namedview
     id="base"
     pagecolor="#ffffff"
     bordercolor="#666666"
     borderopacity="1.0"
     inkscape:pageopacity="0.0"
     inkscape:pageshadow="2"
     inkscape:zoom="7.9195959"
     inkscape:cx="20.409674"
     inkscape:cy="-5.927615"
     inkscape:document-units="mm"
     inkscape:current-layer="layer1"
     showgrid="false"
     inkscape:window-width="958"
     inkscape:window-height="1008"
     inkscape:window-x="-7"
     inkscape:window-y="0"
     inkscape:window-maximized="0" />
  <metadata
     id="metadata7067">
    <rdf:RDF>
      <cc:Work
         rdf:about="">
        <dc:format>image/svg+xml</dc:format>
        <dc:type
           rdf:resource="http://purl.org/dc/dcmitype/StillImage" />
        <dc:title></dc:title>
      </cc:Work>
    </rdf:RDF>
  </metadata>
  <g
     inkscape:label="Layer 1"
     inkscape:groupmode="layer"
     id="layer1"
     transform="translate(-157.62314,-43.075566)">
    <path
       inkscape:connector-curvature="0"
       style="fill:#aaaaaa;stroke-width:0.26458332"
       d="m 157.62317,43.513182 c 0.0341,-0.386027 0.33337,0.103452 0.41857,0.09208 0.0709,-0.0093 0.26882,-0.06456 0.32703,-0.105833 0.12673,-0.09049 0.0699,-0.294482 0.0868,-0.423863 0.0251,0.02222 0.14869,0.150813 0.18071,0.09393 0.0712,-0.128058 0.27358,-0.06297 0.37386,-5.29e-4 -0.0593,0.08573 -0.20876,0.267229 -0.0503,0.251619 -0.008,0.01402 -0.15557,0.342106 -0.0132,0.293952 0.11297,-0.03836 0.17727,0.0672 0.29924,0.03307 -0.11774,0.12356 0.0407,0.146843 -0.127,0.325437 l -0.1442,0.154517 c -0.0278,0.02937 -0.15928,0.01402 -0.18283,0.06403 -0.027,0.0553 0.0794,0.26035 0.096,0.323056 -0.0661,-0.0048 -0.1614,0.03836 -0.18865,0.08308 -0.10372,0.170128 -0.16484,0.33073 -0.32914,0.450057 -0.0836,0.06059 -0.31433,0.164306 -0.39741,0.04815 -0.0667,-0.09366 -0.0481,-0.288925 -0.1098,-0.404019 -0.10213,-0.190764 -0.0852,-0.495564 -0.0632,-0.705908 0.0116,-0.10795 0.0458,-0.195792 -0.013,-0.296598 -0.0545,-0.0926 -0.13467,-0.169069 -0.16351,-0.276225 z"
       id="bi" />
  </g>
</svg>
