<?xml version="1.0" encoding="UTF-8" standalone="no"?>
<!-- Created with Inkscape (http://www.inkscape.org/) -->

<svg
   xmlns:dc="http://purl.org/dc/elements/1.1/"
   xmlns:cc="http://creativecommons.org/ns#"
   xmlns:rdf="http://www.w3.org/1999/02/22-rdf-syntax-ns#"
   xmlns:svg="http://www.w3.org/2000/svg"
   xmlns="http://www.w3.org/2000/svg"
   xmlns:sodipodi="http://sodipodi.sourceforge.net/DTD/sodipodi-0.dtd"
   xmlns:inkscape="http://www.inkscape.org/namespaces/inkscape"
   width="4.7362404mm"
   height="4.7400103mm"
   viewBox="0 0 4.7362398 4.7400103"
   version="1.1"
   id="svg7070"
   inkscape:version="0.92.4 (5da689c313, 2019-01-14)"
   sodipodi:docname="cambodia.svg">
  <defs
     id="defs7064" />
  <sodipodi:namedview
     id="base"
     pagecolor="#ffffff"
     bordercolor="#666666"
     borderopacity="1.0"
     inkscape:pageopacity="0.0"
     inkscape:pageshadow="2"
     inkscape:zoom="5.6"
     inkscape:cx="13.690743"
     inkscape:cy="6.1525556"
     inkscape:document-units="mm"
     inkscape:current-layer="layer1"
     showgrid="false"
     inkscape:window-width="958"
     inkscape:window-height="1008"
     inkscape:window-x="-7"
     inkscape:window-y="0"
     inkscape:window-maximized="0" />
  <metadata
     id="metadata7067">
    <rdf:RDF>
      <cc:Work
         rdf:about="">
        <dc:format>image/svg+xml</dc:format>
        <dc:type
           rdf:resource="http://purl.org/dc/dcmitype/StillImage" />
        <dc:title />
      </cc:Work>
    </rdf:RDF>
  </metadata>
  <g
     inkscape:label="Layer 1"
     inkscape:groupmode="layer"
     id="layer1"
     transform="translate(-158.35192,-29.054295)">
    <g
       transform="matrix(0.26458333,0,0,0.26458333,-1.7421605,-77.336514)"
       id="kh"
       style="fill:#ffffff">
      <path
         style="fill:#ffffff"
         inkscape:connector-curvature="0"
         id="path3472"
         d="m 611.72,418.402 c -0.139,0.201 -0.33,0.307 -0.574,0.318 0.43,0.33 0.471,0.896 0.794,1.302 -0.159,-0.543 0.301,-1.185 -0.22,-1.62 z" />
      <path
         style="fill:#ffffff"
         inkscape:connector-curvature="0"
         id="path6024"
         d="m 608.128,414.717 c -0.063,0 -0.126,0 -0.189,0 0.069,0.129 0.154,0.245 0.256,0.35 -0.023,-0.117 -0.045,-0.233 -0.067,-0.35 z" />
      <path
         style="fill:#ffffff"
         inkscape:connector-curvature="0"
         id="path6026"
         d="m 609.146,417.512 c 0.155,-0.269 0.06,-0.374 -0.286,-0.317 0.087,0.113 0.183,0.218 0.286,0.317 z" />
      <path
         style="fill:#ffffff"
         inkscape:connector-curvature="0"
         id="path6044"
         d="m 605.208,407.475 c 0.01,-0.332 -0.009,-0.67 -0.128,-0.984 1.054,0.036 1.499,-1.479 1.824,-2.243 0.354,-0.835 2.07,-1.345 2.805,-0.883 0.36,0.228 0.938,0.117 1.32,-0.017 0.506,-0.177 0.904,0.12 1.433,-0.097 0.953,-0.39 1.503,1.072 1.927,0.222 0.064,1.331 1.647,0.4 2.175,1.283 0.258,0.433 1.146,0.455 1.062,-0.204 -0.046,-0.363 -0.852,-0.809 -0.367,-1.148 0.203,-0.143 0.4,0.145 0.464,-0.187 0.052,-0.27 0.28,-0.176 0.485,-0.193 0.258,-0.021 0.221,-0.382 0.436,-0.4 0.291,-0.025 0.586,0.379 0.794,0.531 0.914,0.669 2.146,-0.308 2.606,-1.048 0.004,0.244 0.056,0.525 -0.03,0.763 -0.095,0.26 -0.491,0.386 -0.39,0.718 0.096,0.315 0.011,0.644 0.096,0.961 0.089,0.333 0.328,0.728 0.459,1.057 0.319,0.796 0.803,1.105 0.566,2.057 -0.108,0.435 -0.34,0.826 -0.179,1.274 0.124,0.348 0.374,0.678 0.41,1.053 0.035,0.36 -0.13,0.868 -0.276,1.19 -0.197,0.437 -0.301,-0.129 -0.633,0.051 -0.418,0.226 -0.689,0.643 -1.084,0.896 -0.569,0.363 -1.025,0.303 -1.67,0.464 0.28,0.34 0.02,0.775 0.221,1.144 -0.36,-0.07 -1.304,-0.71 -1.587,-0.271 -0.186,0.288 -0.578,0.331 -0.498,0.704 0.083,0.395 0.221,0.841 0.427,1.188 0.24,0.406 0.974,0.429 1.054,1.016 -0.416,0.061 -0.053,0.351 -0.062,0.698 -0.294,-0.095 -0.64,-0.085 -0.907,-0.26 -0.231,-0.152 -0.338,-0.619 -0.679,-0.552 -0.651,0.127 -1.495,0.756 -2.098,0.176 -0.336,0.349 0.077,0.817 -0.357,1.25 -0.422,0.421 -0.806,0.21 -1.295,0.406 -0.36,0.145 -0.413,0.377 -0.857,0.187 -0.438,-0.187 -1.338,-0.317 -1.558,-0.763 0.12,0.472 -0.529,0.794 -0.871,0.487 -0.451,-0.407 -0.039,-0.494 0.225,-0.773 0.309,-0.326 -0.066,-1.198 -0.353,-1.427 -0.51,-0.408 -0.568,0.659 -0.651,0.919 -0.313,-0.264 -0.508,0.121 -0.797,-0.021 -0.438,-0.215 -0.173,-0.909 -0.277,-1.269 -0.096,-0.327 0.226,-0.797 -0.114,-1.036 -0.237,-0.165 -0.744,-0.742 -0.148,-0.819 -0.252,-0.133 -0.424,-0.004 -0.477,0.254 0.082,-0.541 -0.383,-1.023 -0.569,-1.493 -0.207,-0.524 0.064,-1.259 -0.261,-1.728 -0.697,-1.003 -1.216,-1.952 -1.616,-3.133 z" />
    </g>
  </g>
</svg>
