<?xml version="1.0" encoding="UTF-8" standalone="no"?>
<!-- Created with Inkscape (http://www.inkscape.org/) -->

<svg
   xmlns:dc="http://purl.org/dc/elements/1.1/"
   xmlns:cc="http://creativecommons.org/ns#"
   xmlns:rdf="http://www.w3.org/1999/02/22-rdf-syntax-ns#"
   xmlns:svg="http://www.w3.org/2000/svg"
   xmlns="http://www.w3.org/2000/svg"
   xmlns:sodipodi="http://sodipodi.sourceforge.net/DTD/sodipodi-0.dtd"
   xmlns:inkscape="http://www.inkscape.org/namespaces/inkscape"
   width="6.8473101mm"
   height="11.555861mm"
   viewBox="0 0 6.8473105 11.555858"
   version="1.1"
   id="svg7070"
   inkscape:version="0.92.4 (5da689c313, 2019-01-14)"
   sodipodi:docname="cameroon.svg">
  <defs
     id="defs7064" />
  <sodipodi:namedview
     id="base"
     pagecolor="#ffffff"
     bordercolor="#666666"
     borderopacity="1.0"
     inkscape:pageopacity="0.0"
     inkscape:pageshadow="2"
     inkscape:zoom="7.9195959"
     inkscape:cx="15.932571"
     inkscape:cy="18.784498"
     inkscape:document-units="mm"
     inkscape:current-layer="layer1"
     showgrid="false"
     inkscape:window-width="958"
     inkscape:window-height="1008"
     inkscape:window-x="-7"
     inkscape:window-y="0"
     inkscape:window-maximized="0" />
  <metadata
     id="metadata7067">
    <rdf:RDF>
      <cc:Work
         rdf:about="">
        <dc:format>image/svg+xml</dc:format>
        <dc:type
           rdf:resource="http://purl.org/dc/dcmitype/StillImage" />
        <dc:title />
      </cc:Work>
    </rdf:RDF>
  </metadata>
  <g
     inkscape:label="Layer 1"
     inkscape:groupmode="layer"
     id="layer1"
     transform="translate(-157.61838,-35.659519)">
    <path
       style="fill:#ffffff;stroke-width:0.26458332"
       inkscape:connector-curvature="0"
       id="cm"
       d="m 157.67638,44.022389 c 0.11007,-0.09393 0.15452,-0.235744 0.18309,-0.372004 0.0222,-0.106892 0.12965,-0.362744 0.10081,-0.461963 -0.0492,-0.169069 -0.0429,-0.16801 0.0926,-0.290512 0.14976,-0.135467 0.25056,-0.315119 0.39899,-0.452702 0.0849,-0.07964 0.20559,-0.149755 0.24977,-0.259821 0.0384,-0.09446 0.19632,-0.292894 0.30189,-0.323057 0.11589,-0.03254 0.17542,0.115888 0.3175,0.08467 0.11271,-0.02487 0.11906,-0.181504 0.14473,-0.269875 0.0212,0.08996 0.26855,0.32094 0.34845,0.358511 0.11404,0.05318 0.037,0.485245 0.27358,0.34925 0.13282,-0.07594 0.24818,-0.227807 0.23284,-0.369359 -0.01,-0.09155 0.13864,-0.196321 0.19976,-0.245004 0.10133,-0.08123 -0.0124,-0.161131 0.0336,-0.274373 0.0982,-0.2413 0.26511,-0.462492 0.34263,-0.716756 0.0344,-0.112713 5.3e-4,-0.233098 0.0328,-0.340519 0.0251,-0.08308 0.13044,-0.10451 0.15055,-0.189706 0.0317,-0.136525 0.33655,-0.09446 0.36565,-0.353483 0.008,-0.07488 0.13759,-0.43815 0.0127,-0.462492 0.14341,-0.07276 0.34185,-0.165894 0.36592,-0.329671 0.0156,-0.106892 0.004,-0.197908 0.004,-0.3048 0,-0.11139 0.11668,-0.104775 0.16774,-0.18071 0.12303,-0.183621 0.0934,-0.446617 0.19579,-0.647965 0.0664,-0.13044 0.1278,-0.408517 0.27729,-0.4699 0.15875,-0.06535 0.5334,-0.04736 0.57785,-0.309298 0.013,-0.07541 -0.0754,-0.128058 -0.0362,-0.20664 0.0545,-0.109272 0.0243,-0.236008 0.0548,-0.350572 0.0307,-0.116682 -0.21193,-0.231511 -0.29422,-0.224103 -0.20188,0.01773 -0.20293,-0.570177 -0.22807,-0.741362 0.10134,0 0.26088,-0.03942 0.33787,0.05001 0.11166,0.130175 0.058,0.255852 0.22596,0.351367 0.21722,0.123825 0.0783,0.440531 0.25294,0.599546 0.22913,0.208491 0.0373,0.839258 0.0455,1.105693 0.0114,0.388144 0.22595,0.826294 0.57414,1.019705 -0.25003,0.07276 -0.51091,0 -0.76411,0.0463 -0.1905,0.03492 -0.45165,-0.166423 -0.59346,0.05053 -0.16696,0.255323 -0.15584,0.323586 0.0569,0.567002 0.21299,0.243946 0.46038,0.455877 0.6948,0.678392 0.0712,0.0672 0.16563,0.140494 0.21114,0.229394 0.0899,0.173566 0.11879,0.576262 0.2667,0.697177 0.12858,0.105304 -0.0976,0.319352 -0.17013,0.401637 -0.1225,0.137584 -0.18759,0.383382 -0.24157,0.560123 -0.0182,0.06085 -0.10107,0.06826 -0.12514,0.127529 -0.0442,0.110067 -0.073,0.229394 -0.12383,0.336815 -0.0553,0.118269 -0.41698,0.180446 -0.25215,0.354012 0.1143,0.119328 0.127,0.228336 0.10637,0.432065 -0.01,0.0926 -0.0146,0.167481 -0.0661,0.246592 0.006,-0.0093 0.096,0.155046 0.0976,0.165364 0.0259,0.17145 0.0331,0.434182 0.136,0.580761 0.0661,0.09393 0.17462,0.132821 0.21537,0.247121 0.0347,0.09551 0.0397,0.21537 0.13123,0.279664 -0.29051,0.0077 0.34396,0.748242 0.40455,0.815975 0.0608,0.0672 0.13732,0.133879 0.23363,0.133879 0.0407,0 0.10001,0.117211 0.11985,0.145257 0.046,0.06456 0.0283,0.133879 0.032,0.207697 0.008,0.187061 0.0749,0.36539 0.11641,0.5461 -0.19552,-0.0082 -0.0426,0.466196 -0.11641,0.5715 -0.12542,-0.123031 -0.26353,-0.233627 -0.43313,-0.287866 -0.0733,-0.02328 -0.29633,-0.100277 -0.36539,-0.08017 -0.0921,0.02593 -0.23442,0.03413 -0.27754,-0.07223 0.003,0.0056 -0.23019,-0.08572 -0.25506,-0.09551 -0.0794,-0.03096 -0.31644,0.03202 -0.4199,0.02593 -0.18811,-0.01085 -0.37703,0.03625 -0.56488,0.0098 -0.0317,-0.0048 -0.127,-0.01958 -0.16378,-0.03784 -0.0706,-0.03466 0.0318,-0.105834 -0.0998,-0.0926 -0.1733,0.01693 -0.32517,0.04498 -0.50165,0.0071 -0.20716,-0.04445 -0.37729,-0.0093 -0.58552,-0.01614 -0.13599,-0.0042 -0.37941,-0.08176 -0.50826,-0.01032 -0.037,0.02011 -0.023,0.128587 -0.0622,0.128587 -0.12885,0 -0.25744,0 -0.38603,0 -0.17939,0 -0.35745,0.0066 -0.53631,0.01085 -0.38444,0.0082 -0.46672,-0.202671 -0.38576,-0.559064 0.046,-0.2032 0.11589,-0.423334 0.006,-0.620184 -0.0516,-0.0926 -0.22939,-0.249502 -0.0421,-0.310621 -0.10557,0.06059 -0.31036,-0.03916 -0.18759,-0.16166 0.0646,-0.06456 0.20849,-0.176212 0.0196,-0.182827 0.0368,-0.04075 0.0561,-0.08837 0.0582,-0.14314 -0.0593,0.144198 -0.12171,0.02937 -0.21828,0.0336 0.0355,0.04762 0.0606,0.08176 0,0.05054 0.004,0.04604 -0.002,0.09102 -0.0164,0.134408 -0.0773,-0.0026 -0.11483,-0.06244 -0.0923,-0.134408 -0.0667,0.121444 -0.25744,-0.03096 -0.28204,-0.120386 -0.0389,-0.141022 -0.0471,-0.382852 -0.14764,-0.492918 -0.11562,0.142081 -0.0931,-0.0254 -0.16801,-0.0254 0.0135,0.0553 0.022,0.111125 0.0257,0.16801 -0.23786,0.03069 -0.10795,-0.193146 -0.0833,-0.318558 z" />
  </g>
</svg>
