<?xml version="1.0" encoding="UTF-8" standalone="no"?>
<!-- Created with Inkscape (http://www.inkscape.org/) -->

<svg
   xmlns:dc="http://purl.org/dc/elements/1.1/"
   xmlns:cc="http://creativecommons.org/ns#"
   xmlns:rdf="http://www.w3.org/1999/02/22-rdf-syntax-ns#"
   xmlns:svg="http://www.w3.org/2000/svg"
   xmlns="http://www.w3.org/2000/svg"
   xmlns:sodipodi="http://sodipodi.sourceforge.net/DTD/sodipodi-0.dtd"
   xmlns:inkscape="http://www.inkscape.org/namespaces/inkscape"
   width="2.2869833mm"
   height="2.4118803mm"
   viewBox="0 0 2.2869834 2.4118795"
   version="1.1"
   id="svg7070"
   inkscape:version="0.92.4 (5da689c313, 2019-01-14)"
   sodipodi:docname="cape_verde.svg">
  <defs
     id="defs7064" />
  <sodipodi:namedview
     id="base"
     pagecolor="#ffffff"
     bordercolor="#666666"
     borderopacity="1.0"
     inkscape:pageopacity="0.0"
     inkscape:pageshadow="2"
     inkscape:zoom="7.9195959"
     inkscape:cx="-14.989192"
     inkscape:cy="-12.881385"
     inkscape:document-units="mm"
     inkscape:current-layer="layer1"
     showgrid="false"
     inkscape:window-width="958"
     inkscape:window-height="1008"
     inkscape:window-x="-7"
     inkscape:window-y="0"
     inkscape:window-maximized="0" />
  <metadata
     id="metadata7067">
    <rdf:RDF>
      <cc:Work
         rdf:about="">
        <dc:format>image/svg+xml</dc:format>
        <dc:type
           rdf:resource="http://purl.org/dc/dcmitype/StillImage" />
        <dc:title></dc:title>
      </cc:Work>
    </rdf:RDF>
  </metadata>
  <g
     inkscape:label="Layer 1"
     inkscape:groupmode="layer"
     id="layer1"
     transform="translate(-165.79978,-36.425236)">
    <g
       transform="matrix(0.26458333,0,0,0.26458333,118.51951,-67.452887)"
       id="cv">
      <path
         style="fill:#aaaaaa"
         inkscape:connector-curvature="0"
         id="path5762"
         d="m 178.827,393.689 c 0.324,0.029 1.062,-0.454 0.906,-0.846 -0.256,-0.649 -1.421,0.198 -0.906,0.846 z" />
      <path
         style="fill:#aaaaaa"
         inkscape:connector-curvature="0"
         id="path5764"
         d="m 179.75,394.197 c 0.928,-0.08 -0.351,-0.843 0,0 z" />
      <path
         style="fill:#aaaaaa"
         inkscape:connector-curvature="0"
         id="path5766"
         d="m 181.434,401.726 c 0.243,-0.09 0.491,-0.627 0.201,-0.804 -0.502,-0.305 -0.683,0.527 -0.201,0.804 z" />
      <path
         style="fill:#aaaaaa"
         inkscape:connector-curvature="0"
         id="path5768"
         d="m 181.942,395.343 c 0.09,-0.726 0.762,-0.013 0.984,-0.414 -0.38,-0.172 -0.876,-0.405 -1.302,-0.253 0.128,0.211 0.235,0.433 0.318,0.667 z" />
      <path
         style="fill:#aaaaaa"
         inkscape:connector-curvature="0"
         id="path5770"
         d="m 184.355,401.377 c 0.51,-0.544 -0.332,-1.148 -0.574,-1.588 -0.249,0.65 -0.385,1.562 0.574,1.588 z" />
      <path
         style="fill:#aaaaaa"
         inkscape:connector-curvature="0"
         id="path5772"
         d="m 185.564,400.55 c 0.917,-0.937 -0.898,-0.574 0,0 z" />
      <path
         style="fill:#aaaaaa"
         inkscape:connector-curvature="0"
         id="path5774"
         d="m 186.927,397.247 c 0.898,-0.358 0.119,-0.823 -0.318,-0.984 0.021,0.394 -0.364,0.991 0.318,0.984 z" />
      <path
         style="fill:#aaaaaa"
         inkscape:connector-curvature="0"
         id="path5776"
         d="m 186.609,394.929 c 0.209,-0.306 0.143,-0.652 0.066,-0.984 -0.35,0.283 -0.068,0.632 -0.066,0.984 z" />
    </g>
  </g>
</svg>
