<?xml version="1.0" encoding="UTF-8" standalone="no"?>
<!-- Created with Inkscape (http://www.inkscape.org/) -->

<svg
   xmlns:dc="http://purl.org/dc/elements/1.1/"
   xmlns:cc="http://creativecommons.org/ns#"
   xmlns:rdf="http://www.w3.org/1999/02/22-rdf-syntax-ns#"
   xmlns:svg="http://www.w3.org/2000/svg"
   xmlns="http://www.w3.org/2000/svg"
   xmlns:sodipodi="http://sodipodi.sourceforge.net/DTD/sodipodi-0.dtd"
   xmlns:inkscape="http://www.inkscape.org/namespaces/inkscape"
   width="11.624706mm"
   height="8.858387mm"
   viewBox="0 0 11.624707 8.8583854"
   version="1.1"
   id="svg7070"
   inkscape:version="0.92.4 (5da689c313, 2019-01-14)"
   sodipodi:docname="central_african_republic.svg">
  <defs
     id="defs7064" />
  <sodipodi:namedview
     id="base"
     pagecolor="#ffffff"
     bordercolor="#666666"
     borderopacity="1.0"
     inkscape:pageopacity="0.0"
     inkscape:pageshadow="2"
     inkscape:zoom="7.9195959"
     inkscape:cx="21.175531"
     inkscape:cy="13.487899"
     inkscape:document-units="mm"
     inkscape:current-layer="layer1"
     showgrid="false"
     inkscape:window-width="958"
     inkscape:window-height="1008"
     inkscape:window-x="-7"
     inkscape:window-y="0"
     inkscape:window-maximized="0" />
  <metadata
     id="metadata7067">
    <rdf:RDF>
      <cc:Work
         rdf:about="">
        <dc:format>image/svg+xml</dc:format>
        <dc:type
           rdf:resource="http://purl.org/dc/dcmitype/StillImage" />
        <dc:title></dc:title>
      </cc:Work>
    </rdf:RDF>
  </metadata>
  <g
     inkscape:label="Layer 1"
     inkscape:groupmode="layer"
     id="layer1"
     transform="translate(-156.23118,-36.955601)">
    <path
       style="fill:#aaaaaa;stroke-width:0.26458332"
       inkscape:connector-curvature="0"
       id="cf"
       d="m 156.2314,41.948698 c 0.0574,-0.09313 0.14314,-0.155046 0.22595,-0.222779 0.1278,-0.105833 0.14023,-0.226748 0.22278,-0.359569 0.1405,-0.225425 0.19236,-0.48895 0.35031,-0.703262 0.19553,-0.266171 0.2712,-0.09155 0.52308,-0.164836 0.13124,-0.03836 0.23469,-0.132821 0.36169,-0.173566 0.12568,-0.03969 0.0918,-0.177271 0.22489,-0.224896 0.0365,0.141023 0.14711,0.221721 0.22622,0.336285 0.0453,-0.114829 0.28734,-0.182827 0.38391,-0.264054 0.20109,-0.167481 0.46673,-0.184944 0.7157,-0.185473 0.21775,-5.29e-4 0.41646,-0.0082 0.57573,-0.17145 0.0879,-0.09102 0.381,-0.394229 0.36487,-0.530225 -0.0101,-0.08414 -0.23681,-0.08123 -0.19474,-0.180975 0.095,-0.228865 0.44688,-0.156104 0.63368,-0.162719 0.42518,-0.01561 0.85937,-0.144727 1.12765,-0.487362 0.13997,-0.179123 0.23072,-0.367242 0.41487,-0.504296 0.0934,-0.06932 0.31459,-0.293688 0.32808,-0.413279 0.0196,-0.176477 -0.006,-0.238125 0.18045,-0.312738 0.19023,-0.0762 0.33999,-0.261937 0.55668,-0.267758 0.2413,-0.0058 0.29686,0.163512 0.43286,0.31459 0.1778,0.197379 0.3384,0.370945 0.4609,0.610658 0.11272,0.220398 0.12145,0.419364 0.0982,0.660929 -0.0169,0.180975 -0.20453,0.267229 -0.1696,0.44794 0.031,-0.01085 0.0614,-0.02222 0.0923,-0.0336 0.0249,0.09366 -0.0267,0.1778 -0.0585,0.26035 0.18654,0.03413 0.40614,-0.01402 0.57891,0.08123 0.18653,0.102393 -0.11827,0.369093 0.23151,0.42836 0.11748,0.02011 0.27887,0.0071 0.37915,0.08255 0.11668,0.08837 0.16642,0.200554 0.30215,0.280194 0.18971,0.110596 0.007,0.187589 0.0119,0.296069 0.005,0.12356 0.20267,0.275431 0.29819,0.332316 0.10292,0.06085 0.21643,0.09922 0.32173,0.156634 0.15796,0.08625 0.12726,0.156633 0.22066,0.284162 0.0598,0.08176 0.28443,0.128588 0.22093,0.255323 -0.0841,0.169069 -0.0418,0.210344 0.0939,0.316177 0.10398,0.0807 -0.0505,0.209286 0.14578,0.248444 0.12145,0.02434 0.20717,0.102923 0.32147,0.161131 0.18336,0.09393 0.21299,0.200025 0.22278,0.399521 0.009,0.183356 0.20214,0.283104 0.19738,0.451115 -0.13626,-0.180975 -0.32597,-0.248444 -0.47361,-0.07805 -0.0524,0.06006 -0.16986,0.03254 -0.23759,0.02593 -0.0328,-0.01138 -0.0648,-0.0087 -0.0953,0.0066 -0.0759,0.03836 -0.077,-0.04921 -0.1352,-0.0717 -0.11668,-0.04551 -0.23495,-0.106362 -0.36275,-0.0889 -0.19235,0.02646 -0.24368,-0.120914 -0.40904,-0.139435 -0.10134,-0.01138 -0.19738,0.09155 -0.1778,0.191293 0.032,0.163778 -0.14552,0.157692 -0.25982,0.193146 -0.11377,0.03572 -0.23813,0.07699 -0.34423,0 -0.0569,-0.0418 -0.21246,-0.203993 -0.24606,-0.0926 -0.0463,0.152929 -0.34713,0.211402 -0.47546,0.252148 -0.13996,0.04392 -0.37465,0.273844 -0.51064,0.190765 -0.19579,-0.120386 -0.26458,-0.277548 -0.40587,-0.05265 -0.0482,0.07594 -0.12621,0.134408 -0.17092,0.209285 -0.0614,0.101865 -0.032,0.245533 -0.14155,0.32041 -0.15267,0.104511 -0.53235,-0.144198 -0.72205,-0.143139 -0.22543,0.0021 -0.37783,0.01693 -0.58553,-0.104775 -0.127,-0.07488 -0.2286,-0.0071 -0.35851,-0.03043 -0.16271,-0.02937 -0.11483,-0.200025 -0.20399,-0.289454 -0.15505,-0.155046 -0.40111,-0.352425 -0.61172,-0.421217 -0.23812,-0.07752 -0.49239,0.175683 -0.60087,0.362214 -0.0616,0.106363 -0.15001,0.212461 -0.19261,0.327555 -0.0331,0.08996 -0.16166,0.03784 -0.19579,0.0889 -0.0542,0.08229 0.0704,0.287337 0.0725,0.382852 0.005,0.170127 -0.0392,0.337873 -0.0212,0.508 -0.11642,-0.192882 -0.42122,-0.0418 -0.61966,-0.07144 -0.0892,-0.01349 -0.23151,-0.06932 -0.31406,-0.107421 -0.15822,-0.07276 -0.16801,0.04445 -0.32914,0.07646 -0.2376,0.0471 -0.54795,-0.0037 -0.6006,0.290512 -0.028,0.15928 -0.0117,0.331788 -0.0408,0.485775 -0.0389,0.206111 -0.17833,0.405078 -0.24844,0.603515 -0.0532,-0.230981 -0.0955,-0.436562 -0.11219,-0.671777 -0.0167,-0.236273 -0.26617,-0.223838 -0.38999,-0.361156 -0.0606,-0.06773 -0.69506,-0.808302 -0.40482,-0.815446 -0.15001,-0.105833 -0.11932,-0.338931 -0.27305,-0.458788 -0.19976,-0.156104 -0.17065,-0.379941 -0.17938,-0.613833 -0.003,-0.08784 -0.11642,-0.147902 -0.11351,-0.20611 0.005,-0.08678 0.0548,-0.175155 0.0606,-0.2667 0.006,-0.09975 0.006,-0.207169 -0.0212,-0.304271 -0.027,-0.09075 -0.13837,-0.04815 -0.17277,-0.167217 z" />
  </g>
</svg>
