<?xml version="1.0" encoding="UTF-8" standalone="no"?>
<!-- Created with Inkscape (http://www.inkscape.org/) -->

<svg
   xmlns:dc="http://purl.org/dc/elements/1.1/"
   xmlns:cc="http://creativecommons.org/ns#"
   xmlns:rdf="http://www.w3.org/1999/02/22-rdf-syntax-ns#"
   xmlns:svg="http://www.w3.org/2000/svg"
   xmlns="http://www.w3.org/2000/svg"
   xmlns:sodipodi="http://sodipodi.sourceforge.net/DTD/sodipodi-0.dtd"
   xmlns:inkscape="http://www.inkscape.org/namespaces/inkscape"
   width="9.2867203mm"
   height="16.071247mm"
   viewBox="0 0 9.2867209 16.071242"
   version="1.1"
   id="svg7070"
   inkscape:version="0.92.4 (5da689c313, 2019-01-14)"
   sodipodi:docname="chad.svg">
  <defs
     id="defs7064" />
  <sodipodi:namedview
     id="base"
     pagecolor="#ffffff"
     bordercolor="#666666"
     borderopacity="1.0"
     inkscape:pageopacity="0.0"
     inkscape:pageshadow="2"
     inkscape:zoom="7.9195959"
     inkscape:cx="22.11807"
     inkscape:cy="29.583654"
     inkscape:document-units="mm"
     inkscape:current-layer="layer1"
     showgrid="false"
     inkscape:window-width="958"
     inkscape:window-height="1008"
     inkscape:window-x="-7"
     inkscape:window-y="0"
     inkscape:window-maximized="0" />
  <metadata
     id="metadata7067">
    <rdf:RDF>
      <cc:Work
         rdf:about="">
        <dc:format>image/svg+xml</dc:format>
        <dc:type
           rdf:resource="http://purl.org/dc/dcmitype/StillImage" />
        <dc:title />
      </cc:Work>
    </rdf:RDF>
  </metadata>
  <g
     inkscape:label="Layer 1"
     inkscape:groupmode="layer"
     id="layer1"
     transform="translate(-155.9818,-34.001409)">
    <path
       style="fill:#ffffff;stroke-width:0.26458332"
       inkscape:connector-curvature="0"
       id="td"
       d="m 155.9818,43.114904 c 0.0312,-0.07858 0.10927,-0.06085 0.14949,-0.124619 0.0355,-0.05662 0.046,-0.135731 0.10266,-0.1778 0.0714,-0.05292 0.0833,-0.254 0.11403,-0.333904 0.16431,-0.4318 0.5334,-0.826293 0.82736,-1.173691 0.26934,-0.318294 0.5752,-0.58764 0.59584,-1.017588 0.0259,-0.538692 0.0362,-1.078706 0.0744,-1.616869 0.0291,-0.415925 0.008,-0.963083 0.21484,-1.331383 0.11879,-0.212196 0.0405,-0.311415 -0.10319,-0.477308 -0.0408,-0.0471 -0.0926,-0.08387 -0.13388,-0.13044 -0.0717,-0.0807 0.0222,-0.152664 -0.0103,-0.236008 -0.0743,-0.191823 -0.21537,-0.340254 -0.30374,-0.523081 -0.0754,-0.154517 -0.0429,-0.342107 -0.0595,-0.507736 -0.0278,-0.273843 -0.10954,-0.538162 -0.15293,-0.809889 -0.005,-0.03149 -0.0466,-0.201084 -0.003,-0.222779 0.21035,-0.104775 0.41699,-0.216694 0.62416,-0.327025 0.14155,-0.07514 0.20902,-0.142611 0.35771,-0.07646 0.14923,0.06641 0.2884,0.156369 0.42625,0.243417 0.79798,0.502973 1.66079,0.917045 2.48602,1.374245 0.93477,0.518055 1.86187,1.049338 2.78157,1.594379 0.37703,0.223573 0.81782,0.423334 1.15993,0.697971 0.10451,0.08387 0.0712,0.265642 0.073,0.380471 0.005,0.281781 0.004,0.563563 0.008,0.845079 0.0135,0.88609 0.058,1.768475 0.058,2.655888 -0.22993,-0.07144 -0.56463,-0.068 -0.79111,0.02143 -0.31829,0.126206 0.0222,0.348192 -0.14949,0.54901 -0.0717,0.08387 -0.11906,0.179653 -0.18918,0.261938 -0.0876,0.102923 0.0408,0.17436 -0.13626,0.225954 -0.20664,0.06006 -0.10583,0.374121 0.022,0.496623 -0.29077,0.233098 -0.4318,0.283633 -0.28601,0.672571 0.0939,0.250296 -0.17701,0.328083 -0.2749,0.513027 -0.0672,0.126735 -0.0672,0.2286 0.0349,0.330729 0.0871,0.08678 0.19394,-0.0381 0.2876,-0.03704 0.0961,0.0011 0.18204,0.0553 0.1405,0.147373 -0.0749,0.166688 0.10186,0.325438 0.0479,0.516732 0.0302,-0.01535 0.0606,-0.02937 0.0923,-0.04207 0.0675,0.108479 -0.009,0.231246 -0.008,0.344752 10e-4,0.129646 0.064,0.183621 0.14578,0.273844 0.0818,0.09049 0.18018,0.07144 0.21749,0.206375 0.0309,0.111389 -0.0511,0.238389 -0.0773,0.343164 -0.0958,-0.03969 -0.28125,-0.115887 -0.38365,-0.06456 -0.0635,0.03175 -0.15107,0.06059 -0.19288,0.122502 -0.0513,0.0762 -0.11985,0.03307 -0.1778,0.09684 -0.0923,0.102658 -0.25638,0.0717 -0.28813,0.232039 -0.013,0.06588 0.0381,0.121444 0.018,0.189971 -0.0365,0.124619 -0.1598,0.11139 -0.2106,0.209285 -0.0775,0.14949 -0.15558,0.150548 -0.26829,0.262996 -0.12621,0.125942 -0.14896,0.301625 -0.28073,0.420423 -0.0915,0.08229 -0.27305,0.136525 -0.32702,0.246063 -0.0966,0.195791 -0.2839,0.06879 -0.45588,0.149225 -0.16272,0.07594 -0.45693,0.08996 -0.63394,0.07276 -0.0606,-0.0056 -0.43233,0.08176 -0.29977,0.181504 0.0579,0.04339 0.2114,0.07276 0.17674,0.176213 -0.0397,0.118268 -0.17833,0.28575 -0.27014,0.370946 -0.072,0.06668 -0.13547,0.233627 -0.22675,0.255852 -0.17251,0.04286 -0.38179,0.0098 -0.56012,0.02593 -0.23522,0.02064 -0.41037,0.07911 -0.61172,0.203729 -0.11086,0.06826 -0.31803,0.128587 -0.36988,0.26035 -0.0799,-0.1143 -0.18998,-0.194733 -0.22649,-0.336021 -0.0733,0.02646 -0.10821,0.123031 -0.1434,0.184944 -0.0251,0.04339 -0.16881,0.0553 -0.21723,0.07646 -0.2413,0.105834 -0.32437,0.08731 -0.58102,0.09102 0.1352,-0.169598 -0.0164,-0.232039 -0.0651,-0.391319 -0.0664,-0.216429 -0.12356,-0.459316 -0.26643,-0.64082 -0.12171,-0.154517 -0.28946,-0.262467 -0.4408,-0.384969 -0.14975,-0.121973 -0.23363,-0.27014 -0.35481,-0.414867 -0.0825,-0.09869 -0.2921,-0.284692 -0.19261,-0.428096 0.1008,-0.144991 0.14922,-0.248179 0.33734,-0.239183 0.21035,0.0098 0.41672,0.09525 0.62521,0.02434 0.0921,-0.03096 0.17304,0.01508 0.25533,0.04789 0.0759,0.03043 0.18229,-0.03969 0.2532,-0.06032 -0.41751,-0.232039 -0.61224,-0.791369 -0.59028,-1.248039 0.005,-0.104511 0.0577,-0.187855 0.0685,-0.287073 0.0109,-0.103188 -0.0156,-0.20664 -0.018,-0.309298 -0.002,-0.07779 0.0138,-0.205052 -0.0317,-0.273579 -0.036,-0.05398 -0.13467,-0.01402 -0.12832,-0.104775 0.008,-0.120121 -0.0402,-0.281517 -0.0648,-0.399521 -0.0177,-0.08493 -0.13812,-0.0979 -0.19924,-0.135731 -0.19367,-0.119857 0.0114,-0.403225 -0.33046,-0.358775 -0.25903,0.03387 -0.40005,-0.404284 -0.50879,-0.586317 -0.13706,-0.226748 -0.12991,-0.51435 -0.18045,-0.767292 z" />
  </g>
</svg>
