<?xml version="1.0" encoding="UTF-8" standalone="no"?>
<!-- Created with Inkscape (http://www.inkscape.org/) -->

<svg
   xmlns:dc="http://purl.org/dc/elements/1.1/"
   xmlns:cc="http://creativecommons.org/ns#"
   xmlns:rdf="http://www.w3.org/1999/02/22-rdf-syntax-ns#"
   xmlns:svg="http://www.w3.org/2000/svg"
   xmlns="http://www.w3.org/2000/svg"
   xmlns:sodipodi="http://sodipodi.sourceforge.net/DTD/sodipodi-0.dtd"
   xmlns:inkscape="http://www.inkscape.org/namespaces/inkscape"
   width="210mm"
   height="297mm"
   viewBox="0 0 210 297"
   version="1.1"
   id="svg6396"
   inkscape:version="0.92.4 (5da689c313, 2019-01-14)">
  <defs
     id="defs6390" />
  <sodipodi:namedview
     id="base"
     pagecolor="#ffffff"
     bordercolor="#666666"
     borderopacity="1.0"
     inkscape:pageopacity="0.0"
     inkscape:pageshadow="2"
     inkscape:zoom="0.98994949"
     inkscape:cx="636.42395"
     inkscape:cy="1106.3066"
     inkscape:document-units="mm"
     inkscape:current-layer="layer1"
     showgrid="false"
     inkscape:window-width="1920"
     inkscape:window-height="1017"
     inkscape:window-x="-8"
     inkscape:window-y="-8"
     inkscape:window-maximized="1" />
  <metadata
     id="metadata6393">
    <rdf:RDF>
      <cc:Work
         rdf:about="">
        <dc:format>image/svg+xml</dc:format>
        <dc:type
           rdf:resource="http://purl.org/dc/dcmitype/StillImage" />
        <dc:title></dc:title>
      </cc:Work>
    </rdf:RDF>
  </metadata>
  <g
     inkscape:label="Layer 1"
     inkscape:groupmode="layer"
     id="layer1">
    <path
       inkscape:connector-curvature="0"
       style="fill:#aaaaaa;stroke-width:0.26458332"
       d="m 42.862321,30.604774 c -0.03016,0.0254 -0.0635,0.04498 -0.100542,0.059 0.05265,0.03096 0.108744,0.03942 0.168275,0.0254 -0.02011,-0.03043 -0.0426,-0.05847 -0.06773,-0.0844 z"
       id="path2738" />
    <path
       inkscape:connector-curvature="0"
       style="fill:#aaaaaa;stroke-width:0.26458332"
       d="m 44.517554,31.605428 c 0.02222,0.08361 0.06747,0.153458 0.03969,0.242358 -0.02249,0.07276 -0.0463,0.136525 0.0172,0.198438 0.116681,0.114035 0.155575,0.30136 0.229394,0.449262 0.08599,0.17145 0.273843,0.221192 0.38391,0.369359 0.03545,0.04789 0.110331,0.355335 0.198173,0.309562 0.113506,-0.05927 0.04683,-0.253735 0.0336,-0.348456 -0.0209,-0.152665 0.02223,-0.266965 0.108479,-0.391319 0.206375,-0.297656 0.243681,-0.851429 0.219869,-1.203325 -0.005,-0.07276 -0.05318,-0.182033 -0.0291,-0.254 0.02408,-0.07197 0.06191,-0.113506 0.07064,-0.192881 0.01905,-0.184679 -0.04419,-0.319881 -0.04419,-0.498475 0,-0.0926 0.09181,-0.167481 0.0077,-0.242623 -0.05107,-0.04604 -0.316442,-0.256117 -0.383117,-0.189442 -0.105304,0.10504 -0.315383,0.131498 -0.374914,0.279665 -0.06085,0.152664 -0.04366,0.242094 -0.152665,0.373062 -0.09922,0.119592 -0.121708,0.290777 -0.161396,0.435769 -0.05847,0.213783 -0.213783,0.4318 -0.163248,0.663046 z"
       id="path2746" />
    <path
       inkscape:connector-curvature="0"
       style="fill:#aaaaaa;stroke-width:0.26458332"
       d="m 40.535046,15.620097 c 0.01561,-0.06879 -0.0217,-0.09234 -0.08493,-0.07567 0.02619,0.02725 0.05477,0.05239 0.08493,0.07567 z"
       id="path2726" />
    <path
       inkscape:connector-curvature="0"
       style="fill:#aaaaaa;stroke-width:0.26458332"
       d="m 41.559513,15.72937 c -0.02117,-0.02646 -0.04921,-0.03757 -0.08414,-0.0336 0.02805,0.01138 0.05636,0.02249 0.08414,0.0336 z"
       id="path2730" />
    <path
       inkscape:connector-curvature="0"
       style="fill:#aaaaaa;stroke-width:0.26458332"
       d="m 43.290417,23.251209 c 0.162454,0.07197 0.518583,0.474927 0.706173,0.277548 -0.112977,-0.09419 -0.559594,-0.421217 -0.706173,-0.277548 z"
       id="path2740" />
    <path
       inkscape:connector-curvature="0"
       style="fill:#aaaaaa;stroke-width:0.26458332"
       d="m 44.359069,26.982363 c 0.0056,0.01402 0.01111,0.02778 0.0164,0.0418 0.145786,-0.04101 0.01587,-0.222779 -0.0164,-0.0418 z"
       id="path2744" />
    <path
       inkscape:connector-curvature="0"
       style="fill:#aaaaaa;stroke-width:0.26458332"
       d="m 44.576557,25.058049 c 0.09155,-0.01244 0.179652,0.04524 0.268552,0 -0.0553,-0.09128 -0.228865,-0.172773 -0.319617,-0.08387 0.0172,0.02805 0.03413,0.05583 0.05106,0.08387 z"
       id="path2748" />
    <path
       inkscape:connector-curvature="0"
       style="fill:#aaaaaa;stroke-width:0.26458332"
       d="m 44.551157,24.75563 c 0.02884,0.04101 0.06826,0.05794 0.118004,0.05027 -0.0082,-0.07594 -0.05741,-0.0971 -0.118004,-0.05027 z"
       id="path2750" />
    <path
       inkscape:connector-curvature="0"
       style="fill:#aaaaaa;stroke-width:0.26458332"
       d="m 44.769438,25.377401 c 0.0164,-0.06773 -0.01191,-0.0762 -0.08387,-0.02514 0.02778,0.0082 0.05583,0.01667 0.08387,0.02514 z"
       id="path2752" />
    <path
       inkscape:connector-curvature="0"
       style="fill:#aaaaaa;stroke-width:0.26458332"
       d="m 42.064073,31.428422 c 0.02275,0.01958 0.04524,0.03916 0.06773,0.059 0.111654,-0.118004 -0.06032,-0.168275 -0.06773,-0.059 z"
       id="path2734" />
    <path
       inkscape:connector-curvature="0"
       style="fill:#aaaaaa;stroke-width:0.26458332"
       d="m 43.736769,29.621847 c 0.08493,0.153193 0.113771,-0.05953 0.09234,-0.126207 -0.03228,0.0029 -0.06297,0.01138 -0.09234,0.0254 0.03069,0.02514 0.06138,0.05027 0.09234,0.07541 -0.03096,0.0085 -0.06165,0.01667 -0.09234,0.0254 z"
       id="path2742" />
    <path
       inkscape:connector-curvature="0"
       style="fill:#aaaaaa;stroke-width:0.26458332"
       d="m 43.206544,29.024682 c 0.05689,0.0299 0.115623,0.05503 0.176213,0.07541 -0.07382,0.04075 -0.144463,-0.0082 -0.176213,-0.07541 z"
       id="path2766" />
    <path
       inkscape:connector-curvature="0"
       style="fill:#aaaaaa;stroke-width:0.26458332"
       d="m 42.576571,30.579374 c -0.02461,0.06906 -7.94e-4,0.110596 0.07567,0.101071 0.01508,-0.05768 -0.01058,-0.109009 -0.07567,-0.101071 z"
       id="path2736" />
    <path
       inkscape:connector-curvature="0"
       style="fill:#aaaaaa;stroke-width:0.26458332"
       d="m 39.012369,32.941309 c 0.01561,-0.0093 0.02857,0.04921 0.01746,-0.01667 0.01429,0.03228 0.01693,0.06588 0.0079,0.100807 -0.0079,-0.02831 -0.01693,-0.05636 -0.0254,-0.08414 z"
       id="path2758" />
    <path
       inkscape:connector-curvature="0"
       style="fill:#aaaaaa;stroke-width:0.26458332"
       d="m 39.559263,32.857172 c 2.64e-4,0.04366 0.02275,0.0717 0.06773,0.08387 -0.01085,-0.03784 -0.03334,-0.06588 -0.06773,-0.08387 z"
       id="path2760" />
    <path
       inkscape:connector-curvature="0"
       style="fill:#aaaaaa;stroke-width:0.26458332"
       d="m 39.272984,32.941309 c -0.004,-0.08784 0.104775,-0.107685 0.159808,-0.142875 0.01138,0.09181 -0.07911,0.146315 -0.159808,0.142875 z"
       id="path2762" />
    <path
       inkscape:connector-curvature="0"
       style="fill:#aaaaaa;stroke-width:0.26458332"
       d="m 39.391252,32.630688 c 0.08837,-0.03016 0.172244,-0.07276 0.243946,0.01667 -0.02593,0.02513 -0.05371,0.04763 -0.08387,0.06747 0.03519,-0.03069 0.101071,-0.05239 0.142875,-0.01984 0.130175,0.101071 -0.146579,0.0093 -0.03307,0.162719 -0.09948,-0.0209 -0.469106,-0.09737 -0.269875,-0.227013 z"
       id="path2764" />
    <path
       inkscape:connector-curvature="0"
       style="fill:#aaaaaa;stroke-width:0.26458332"
       d="m 35.206073,35.849609 c -0.04233,0.06853 0.04207,0.343958 0.05636,0.420688 0.02328,0.125941 0.01667,0.312737 0.111655,0.411691 0.115887,0.12065 0.311679,0.09763 0.448733,0.180182 0.130175,0.07832 0.335756,0.09287 0.483923,0.08864 -0.05741,-0.164835 0.159808,-0.262467 0.224896,-0.151342 -0.04472,-0.0762 0.236537,-0.3048 0.281781,-0.347662 0.06509,-0.06112 0.148167,-0.401902 0.04789,-0.442119 0.108479,-0.05741 0.217752,-0.34581 0.193675,-0.462227 0.218016,0.16219 0.08916,-0.258763 0.05556,-0.340254 -0.05583,-0.136261 -0.44741,-0.280459 -0.283104,0.0291 -0.0508,-0.06323 -0.307446,-0.166423 -0.176477,0.0082 -0.07541,-0.221456 -0.309034,-0.08281 -0.37809,0.01693 -0.0635,-0.143139 -0.309827,-0.124618 -0.412221,-0.04207 0.01905,0.03122 0.03889,0.06191 0.0598,0.0926 -0.100012,0.03413 -0.162719,-0.09393 -0.252148,-0.0672 -0.116152,0.03466 -0.0598,0.189441 0.03387,0.210079 -0.208227,0.05715 -0.3429,0.257175 -0.496094,0.394758 z"
       id="path2710" />
    <path
       inkscape:connector-curvature="0"
       style="fill:#aaaaaa;stroke-width:0.26458332"
       d="m 36.322879,34.18538 c 0.09393,-0.01852 0.188119,-0.05741 0.252148,0.04207 0.06297,-0.17489 -0.19685,-0.176213 -0.252148,-0.04207 z"
       id="path2712" />
    <path
       inkscape:connector-curvature="0"
       style="fill:#aaaaaa;stroke-width:0.26458332"
       d="m 36.55095,33.949901 c -0.068,0.04128 -0.05397,0.06932 0.0418,0.08414 -0.01376,-0.02805 -0.02778,-0.05583 -0.0418,-0.08414 z"
       id="path2714" />
    <path
       inkscape:connector-curvature="0"
       style="fill:#aaaaaa;stroke-width:0.26458332"
       d="m 37.617486,33.58848 c 0.04604,-0.02196 0.07117,-0.05847 0.07593,-0.109273 -0.06985,0.0098 -0.06958,0.05053 -0.07593,0.109273 z"
       id="path2716" />
    <path
       inkscape:connector-curvature="0"
       style="fill:#aaaaaa;stroke-width:0.26458332"
       d="m 38.315721,33.437138 c -0.04974,0.01614 -0.08123,0.04974 -0.09366,0.100807 0.06853,0.0037 0.103452,-0.03334 0.09366,-0.100807 z"
       id="path2718" />
    <path
       inkscape:connector-curvature="0"
       style="fill:#aaaaaa;stroke-width:0.26458332"
       d="m 38.466534,33.571811 c 0.0079,-0.06535 -0.0087,-0.124354 -0.05001,-0.176477 0.0071,0.06165 0.02381,0.120386 0.05001,0.176477 z"
       id="path2720" />
    <path
       inkscape:connector-curvature="0"
       style="fill:#aaaaaa;stroke-width:0.26458332"
       d="m 38.794352,32.227199 c 0.01006,0.02699 0.134144,0.192352 0.185473,0.14261 -0.04842,-0.06059 -0.100541,-0.13335 -0.185473,-0.14261 z"
       id="path2722" />
    <path
       inkscape:connector-curvature="0"
       style="fill:#aaaaaa;stroke-width:0.26458332"
       d="m 38.920294,32.395209 c 0.0082,0.05054 0.0087,0.06906 0.06773,0.08387 -0.02275,-0.02805 -0.04551,-0.05583 -0.06773,-0.08387 z"
       id="path2724" />
    <path
       inkscape:connector-curvature="0"
       style="fill:#aaaaaa;stroke-width:0.26458332"
       d="m 1.1264171,15.527492 c 0.1182688,7.94e-4 0.2018771,-0.059 0.1762125,-0.184679 -0.03519,-0.172773 -0.1187979,-0.140229 -0.065881,-0.322791 0.042862,-0.147638 0.1669521,-0.09551 0.2759605,-0.139436 0.127,-0.05106 0.1780645,-0.231246 0.3280833,-0.235479 -0.024342,-0.05397 -0.030163,-0.110067 -0.017198,-0.16801 0.086254,0.01773 0.2614083,0.102923 0.3415771,0.03096 0.06006,-0.05398 0.1267355,-0.143933 0.2121959,-0.15584 0.089429,-0.01243 0.1317625,0.219604 0.1923521,0.272786 0.1031875,0.09022 0.3029479,-0.03228 0.4339166,-0.0209 0.2407709,0.0209 0.2587625,-0.32094 0.28575,-0.488421 0.02249,-0.138113 0.085725,-0.189971 0.2360084,-0.167746 0.1907646,0.02831 0.3675062,0.03201 0.5513916,-0.0087 0.095779,-0.02143 0.2288645,0.01429 0.3077104,-0.06059 0.086783,-0.08255 0.071967,-0.246327 0.1545166,-0.3429 0.2066396,-0.243152 0.6117167,-0.267229 0.8527521,-0.464079 0.096838,-0.07911 0.1463146,-0.121973 0.2696104,-0.124883 0.1582209,-0.0042 0.1150938,-0.06112 0.06694,-0.176213 C 5.6669316,12.62422 5.6132214,12.496161 5.5412547,12.355667 5.4470627,12.171782 5.647088,12.130772 5.774088,12.098492 5.724611,12.051922 5.6687839,12.015412 5.6060776,11.98922 5.6576716,11.91249 5.7449839,11.797132 5.8500234,11.87148 5.9180214,11.717757 5.7317547,11.702676 5.7238172,11.574617 5.7134982,11.407136 5.5478693,11.289926 5.4552651,11.165307 5.3285297,10.994386 5.1943859,10.822142 5.1216255,10.619472 5.0734715,10.485857 5.1531105,10.268105 5.0266405,10.210426 4.9197488,10.161476 4.4839801,10.212326 4.605953,10.030774 4.675274,9.9278514 4.9337718,9.8987474 5.0486009,9.8630284 c 0.2092854,-0.06562 0.4161896,-0.08229 0.6265334,-0.158221 0.2098145,-0.07541 0.2418291,0.03043 0.414602,0.09948 0.1386417,0.0553 0.2561167,-0.08705 0.3942292,0.0098 0.1592792,0.11139 0.161925,-0.07276 0.1288521,-0.181504 -0.049742,-0.162719 -0.2524125,-0.06826 -0.3346979,-0.189971 -0.070379,-0.103981 0.0037,-0.302683 0.0127,-0.415925 0.013494,-0.170921 -0.027781,-0.350573 -0.027252,-0.522817 2.646e-4,-0.162983 0.070115,-0.342106 0.037306,-0.500856 -0.039423,-0.191294 0.059531,-0.245269 0.2288646,-0.164042 0.1434042,0.06879 0.2674938,0.13388 0.4243917,0.170921 0.2045229,0.04815 0.40005,-0.02858 0.6048375,-0.0082 0.1568979,0.01561 0.2116667,0.22225 0.3563937,0.100277 0.1113896,-0.09366 0.2643188,-0.106364 0.369623,-0.200556 0.192352,-0.17145 -0.2878667,-0.643731 -0.3423709,-0.828675 -0.029633,-0.100277 -0.051329,-0.37465 0.049213,-0.445029 0.096308,-0.06747 0.2375959,0.0016 0.3444875,-0.04604 0.2704042,-0.121179 0.2497667,-0.246856 0.1643063,-0.497945 -0.056092,-0.164042 0.1320271,-0.175948 0.2391833,-0.164836 0.1711854,0.0172 0.2489729,0.02037 0.4138083,-0.03148 0.072761,-0.02275 0.2592917,0.119592 0.201348,0.177271 -0.093398,0.0926 0.045773,0.188912 0.1500187,0.211137 0.2053167,0.04313 0.030692,0.143405 0.1489604,0.199232 0.1643063,0.07726 0.3876142,0.06906 0.5124982,0.220927 0.1397,0.170391 0.544777,0.375708 0.757237,0.308769 0.140759,-0.04445 0.497946,0.294216 0.540544,0.118533 0.07699,0.02461 0.08149,0.09366 0.142346,0.134408 0.08281,0.0553 0.172244,0.06006 0.252677,0.127 0.151077,0.125677 0.206639,0.317765 0.352954,0.446881 0.127794,0.113242 0.28231,0.189707 0.413015,0.299244 0.216693,0.181769 0.141287,0.336286 0.223837,0.561711 0.05583,0.152664 0.214048,0.18415 0.1397,0.375973 -0.06218,0.161395 -0.115358,0.310356 0.01799,0.454818 0.09578,0.103982 0.230452,0.280459 0.382323,0.268288 0.192881,-0.01561 0.388673,0.10451 0.578643,0.113771 0.191823,0.0095 0.388938,0.068 0.578644,0.06032 0.181769,-0.0074 0.356129,-0.0209 0.537898,-0.0071 0.434446,0.03228 0.733425,0.2831036 1.127125,0.4410596 0.179652,0.07197 0.342106,0.180975 0.522552,0.249502 0.131234,0.04974 0.264848,0.04048 0.401638,0.05927 0.171979,0.02381 0.03148,0.144992 0.157691,0.21934 0.170921,0.100806 0.268023,0.138641 0.384969,0.316971 0.0926,0.140758 0.194998,0.284691 0.305858,0.411691 0.129117,0.148167 0.314855,0.225955 0.46408,0.350309 0.10451,0.08705 0.148166,0.214577 0.286014,0.235479 0.189442,0.02884 0.365654,-0.03783 0.550598,-0.05636 0.396875,-0.03995 0.832644,0.147108 1.235075,0.170656 0.211931,0.01244 0.42889,0.04472 0.641086,0.03916 0.203464,-0.005 0.383116,-0.100542 0.589756,-0.08599 0.221191,0.01561 0.43815,0.06085 0.657225,0.09102 0.189971,0.02619 0.406929,-0.005 0.588169,0.06191 0.171185,0.06324 0.279135,0.217752 0.438679,0.29845 0.234156,0.118533 0.53975,0.116681 0.792956,0.169598 0.38391,0.08043 0.7366,0.312738 1.139825,0.214842 0.183885,-0.04445 0.204787,-0.01455 0.316442,0.112712 0.109537,0.124884 0.324379,-0.0079 0.416189,0.09207 -0.02487,-0.02725 0.891381,-0.533664 0.978694,-0.578379 0.175683,-0.08969 0.403754,-0.131762 0.598223,-0.156369 0.231246,-0.02937 0.492125,-0.09313 0.722312,-0.09763 0.343165,-0.0063 0.750359,0.116681 1.063361,-0.07091 0.146579,-0.08784 0.4191,-0.116682 0.528108,-0.246063 0.104775,-0.123825 0.111654,-0.309562 0.189706,-0.449262 0.07223,-0.129647 0.205317,-0.184945 0.328877,-0.254001 0.06985,-0.03889 0.122503,-0.09075 0.15584,-0.164306 0.01984,-0.04286 0.119592,-0.0011 0.128852,-0.04075 0.05609,-0.240771 -0.581819,-0.471752 -0.692944,-0.655108 -0.106891,-0.176742 -0.1778,-0.6617226 0.103452,-0.7207246 0.345811,-0.0725 0.751417,0.2267476 1.093259,0.2825746 0.07382,0.01217 0.287337,0.0762 0.350044,0.01243 0.09789,-0.09948 0.246062,-0.167217 0.303477,-0.2905126 0.05106,-0.110067 0.08176,-0.240242 0.159279,-0.335756 0.07435,-0.09155 0.323585,-0.01191 0.421746,-0.0021 0.261408,0.0254 0.515143,-0.107156 0.662252,-0.3302 0.07091,-0.10795 -0.115888,-0.264319 -0.02619,-0.430213 0.08387,-0.154516 0.176477,-0.1905 0.347662,-0.194468 0.123561,-0.0029 0.235744,0.059 0.213255,-0.12753 -0.01693,-0.144198 0.174625,-0.05186 0.237066,-0.03175 0.06535,0.02143 0.26035,-0.141287 0.351367,-0.166423 0.07514,-0.0209 0.146315,-0.0016 0.221192,0.0071 0.04842,0.0069 0.09684,0.0093 0.145785,0.0074 0.01931,-0.02831 0.03916,-0.05636 0.0598,-0.08414 0.05768,-2.64e-4 0.185737,0.07064 0.254,0.08387 0.123825,0.02355 0.248444,0.04551 0.374385,0.05556 0.461169,0.03678 0.04445,-0.365125 -0.136525,-0.497152 -0.423862,-0.309298 -0.902493,-0.579966 -1.379537,-0.794543 -0.217488,-0.0979 -0.537369,-0.175419 -0.677334,0.07329 -0.179387,0.319087 -0.41275,-0.01402 -0.705908,-5.3e-4 -0.09895,0.0048 -0.306652,-0.03519 -0.392112,0.0063 -0.108215,0.05239 -0.110861,0.192088 -0.269611,0.102923 -0.100806,-0.05689 -0.465666,-0.241829 -0.372533,-0.398991 0.05239,-0.08864 0.122767,-0.08546 0.05318,-0.196057 -0.06906,-0.109537 -0.07064,-0.201347 -0.068,-0.325172 0.0071,-0.373328 -0.03069,-0.74639 -0.0598,-1.117865 0.277284,0.132556 0.581819,0.129117 0.849048,0.247915 0.304271,0.134937 0.347927,-0.130705 0.535782,-0.298715 0.130439,-0.116681 0.492918,-0.0127 0.460375,-0.262202 -0.01693,-0.132821 -0.09472,-0.16219 -0.20955,-0.187854 -0.07594,-0.01667 -0.0635,-0.133086 -0.06959,-0.198438 -0.0095,-0.103716 0.06112,-0.150548 0.01349,-0.257175 -0.02884,-0.04842 -0.03334,-0.09922 -0.01296,-0.152929 0.04286,-0.109537 -0.02011,-0.170921 -0.02011,-0.278606 0,-0.228336 -0.08149,-0.404019 0.135731,-0.565679 0.242365,-0.180437 -0.120115,-0.39422 -0.207956,-0.553235 -0.07779,-0.141023 -0.262732,-0.256646 -0.428096,-0.1905 -0.148167,0.059 -0.218811,-0.05503 -0.306123,-0.151606 0.238654,-0.08043 0.18759,-0.443442 0.469106,-0.497946 0.335492,-0.06509 0.640556,-0.18759 0.985573,-0.16854 0.3429,0.01879 0.630767,-0.103452 0.980811,-0.01349 0.149225,0.03836 0.296862,0.109802 0.435504,0.175418 0.189971,0.08996 0.406929,0.09128 0.590814,0.185209 0.0026,-0.205846 0.61939,0.03201 0.667015,0.115623 0.04286,0.07514 0.321733,0.169862 0.407723,0.216958 0.06641,0.03651 0.04022,0.107685 0.09922,0.142875 0.09207,0.05503 0.184943,0.07012 0.271462,0.139435 0.09446,0.07594 0.254794,0.137848 0.308769,0.245798 0.03201,0.06429 0.192881,0.02567 0.19685,0.134144 0.0058,0.160867 0.189706,0.239977 0.308504,0.318294 0.109537,0.0717 0.214842,0.269346 0.343165,0.306916 0.172508,0.05159 0.224102,0.264848 0.360362,0.366978 0.152929,0.114564 0.32729,0.19632 0.47625,0.318029 0.126206,0.102923 0.164835,0.264054 0.283633,0.37121 0.132557,0.119592 0.239448,0.07726 0.302155,0.260615 0.102393,0.300302 0.60616,0.560652 0.910695,0.503502 0.128852,-0.02408 0.28575,-0.06615 0.402696,-0.0013 0.190765,0.105833 0.372269,0.127264 0.569913,0.208491 -0.110332,-0.197114 0.234421,0.07567 0.294216,0.07567 0.144198,0 0.319617,0.216165 0.443177,0.287338 0.199761,0.115094 0.377825,0.02249 0.570178,0.09922 0.05741,0.02275 0.03493,0.1905 0.07885,0.243152 0.04974,0.05953 0.151607,0.102658 0.217223,0.140494 0.194734,0.111918 0.150548,0.20955 0.227013,0.381793 0.05424,0.122503 0.424391,0.41328 0.562504,0.396346 0.07726,-0.0098 0.146844,-0.04418 0.225954,-0.04418 0.118798,0 0.217223,0.07355 0.338667,0.05874 0.136525,-0.01667 0.532077,0.0085 0.548746,-0.157162 0.01693,-0.168804 0.211402,-0.295011 0.376237,-0.277284 0.01005,0.0013 0.155311,0.06376 0.164571,0.02222 0.02196,-0.09657 0.01429,-0.123825 0.122502,-0.152135 0.09948,-0.02619 0.286279,-0.200819 0.389467,-0.13335 0.05662,0.03704 0.258233,0.108479 0.323321,0.117475 -0.01111,0.114035 0.02143,0.206904 0.100806,0.288131 0.115887,0.118798 0.373591,0.302154 0.261144,0.501915 -0.02408,0.04233 -0.118798,0.05106 -0.154782,0.08758 -0.08969,0.09075 0.04366,0.157956 0.07832,0.23151 0.02831,0.0598 0.01296,0.13044 0.02619,0.193411 0.02434,0.115887 0.13335,0.214048 0.122237,0.336285 -0.01296,0.142081 0.265377,0.352425 0.06218,0.453761 0.150284,0.110066 0.01773,0.139964 0.02461,0.269081 0.005,0.09551 0.116681,0.172508 0.102393,0.272785 -0.01984,0.138113 -0.181504,0.08731 -0.09102,0.280723 0.03201,0.06879 0.07673,0.135731 0.0889,0.211931 0.01905,0.1230316 -0.652198,-0.07461 -0.756709,-0.09842 -0.04604,-0.01058 -0.315912,-0.129116 -0.336285,-0.08943 -0.04445,0.08784 -0.03625,0.245534 -0.127529,0.2984496 -0.07303,0.0426 -0.225161,0.04842 -0.275432,0.106627 -0.04868,0.05583 0.179653,0.200819 0.205053,0.227013 0.244475,0.253206 0.427037,0.548746 0.583406,0.861219 0.131233,0.262202 0.378354,0.436562 0.355335,0.746654 -0.0098,0.135202 0.08202,0.116416 -0.07461,0.174625 -0.125413,0.0463 -0.252413,0.01376 -0.328084,0.151341 0.208757,0.05768 0.171715,0.171186 0.319882,0.28575 -0.160867,-0.130175 -0.383117,-0.176477 -0.503238,-0.356658 -0.09948,-0.148961 -0.230717,-0.191029 -0.404812,-0.18124 0.03122,0.107157 0.20267,0.413544 0.133614,0.518319 -0.05371,0.08149 -0.211137,-0.0029 -0.284691,0.0598 -0.107686,0.09128 0.08837,0.279664 -0.147373,0.339725 -0.211138,0.05371 -0.432594,0.0037 -0.642409,0.05741 0.110332,0.14949 0.47334,0.329407 0.425979,0.535253 -0.02514,0.110331 -0.466725,0.03016 -0.578908,0.01296 -0.104775,-0.01614 -0.214048,-0.03863 -0.306123,-0.09287 -0.108479,-0.06323 -0.212725,-0.248179 -0.355864,-0.232304 -0.07461,0.0085 -0.08758,0.09393 -0.177536,0.09578 0.0069,0.19103 0.02275,0.293952 -0.04048,0.478367 -0.02778,0.08123 -0.04101,0.21881 -0.115358,0.273844 -0.0381,0.02831 -0.21643,0.03545 -0.205317,0.09895 0.01482,0.08255 -0.05953,0.07144 -0.09737,0.132292 -0.04233,0.03942 -0.0926,0.06403 -0.149754,0.07302 -0.05159,0.02619 -0.102129,0.147902 -0.131498,0.156898 -0.182298,0.0553 -0.324379,0.255852 -0.322262,0.460639 0.0029,0.241565 -0.366184,0.249502 -0.500857,0.10795 0.01905,0.127529 -0.159014,0.113242 -0.236008,0.109008 0.03254,0.09366 -0.05212,0.110861 -0.122237,0.122767 -0.145257,0.02434 -0.250825,0.135731 -0.364596,0.221986 -0.112448,0.08519 -0.189971,0.121179 -0.203994,0.275695 -0.0098,0.112448 -0.1397,0.101865 -0.107685,0.211667 -0.05556,-0.03863 -0.116946,-0.0553 -0.184415,-0.05027 0.09049,0.121444 -0.301625,0.418042 -0.389202,0.130969 -0.04551,-0.149754 0.243946,-0.146844 0.283633,-0.1905 0.05794,-0.06297 -0.01693,-0.115623 -0.02328,-0.178594 -0.0079,-0.07858 0.115623,-0.119856 0.153458,-0.173831 -0.261408,0.115887 -0.396875,-0.06218 -0.630502,-0.100806 0.04207,-0.05953 0.105569,-0.103452 0.177536,-0.11774 -0.146315,-0.220398 -0.0426,-0.184679 0.12065,-0.347662 0.07461,-0.07488 0.104775,-0.298186 0.114035,-0.400315 0.03202,-0.367242 -0.535781,-0.289454 -0.579967,-0.613304 0.02672,0.213519 -0.192087,0.120121 -0.305064,0.0799 -0.142875,-0.05133 -0.449527,0.110067 -0.231775,0.197644 -0.165629,0.03228 -0.26379,0.287866 -0.250031,0.444235 0.01164,0.128852 -0.36883,0.27014 -0.456142,0.328877 -0.0844,0.05662 -0.162719,0.09816 -0.210344,0.193146 -0.07779,0.155311 0.07382,0.23204 0.03678,0.351102 -0.08864,0.282311 -0.32676,0.18759 -0.537633,0.316442 -0.144463,0.08811 -0.294481,-0.14314 -0.453231,-0.113242 -0.230188,0.04339 -0.115094,0.419894 -0.06218,0.562504 0.09287,0.249502 0.373856,0.340784 0.574675,0.481277 0.06323,0.04445 0.213783,0.06059 0.285485,0.03228 0.119327,-0.0471 0.147108,0.125677 0.248444,0.14261 0.02778,-0.059 0.02778,-0.117475 0,-0.176477 0.170656,0 0.404018,0.170921 0.484187,0.321469 0.110067,0.207433 -0.04657,0.407987 0.180446,0.582083 0.152135,0.116946 0.337873,0.148696 0.523346,0.119063 0.130175,-0.02117 0.287602,-0.09313 0.139171,-0.224367 0.0717,-0.04207 0.4064,-0.319352 0.159808,-0.319352 0.141552,0.02646 0.271198,-0.0979 0.398727,-0.136525 0.120121,-0.03625 0.313796,0.08943 0.385763,0.177271 0.06271,0.07646 0.115623,0.06747 0.202671,0.04128 0.05001,-0.01508 0.110595,0.08519 0.13626,0.111125 0.116417,0.118268 0.313531,-0.05583 0.4318,0.0672 0.01376,-0.03572 0.02487,-0.07197 0.03387,-0.109273 0.1778,0.125412 0.424656,0.03201 0.59637,0.159808 -0.03096,0.0164 -0.06165,0.03307 -0.09234,0.05027 0.185737,0.150548 -0.09525,0.192881 0.08043,0.318294 0.07064,0.05027 0.06138,0.126735 -0.03148,0.163512 -0.153459,0.06085 -0.169334,-0.07938 -0.233098,-0.170921 -0.01931,0.04366 -0.04207,0.08573 -0.06773,0.126207 -0.01879,-0.126471 -0.09763,-0.08969 -0.168805,-0.02567 -0.04101,0.03704 -0.334433,0.246592 -0.167481,0.06773 -0.09525,0.06165 -0.267758,0.224896 -0.375444,0.244211 -0.07594,0.01376 -0.257968,-0.08758 -0.212989,0.06668 0.12356,-0.108479 0.234421,0.05371 0.159808,0.168275 -0.03625,-0.08864 -0.1397,-0.09446 -0.159808,0.0082 -0.01693,0.08731 0.0799,0.138112 0.06271,0.228071 -0.0077,0.04127 -0.133879,0.100012 -0.17145,0.09128 -0.119063,-0.02805 -0.06906,-0.167481 -0.169333,-0.218546 0.114035,0.162719 -0.04498,0.02752 -0.134144,0.04207 0.0024,0.109537 0.137848,0.26326 0.252148,0.26035 -0.23839,0.03598 -0.100013,0.455877 -0.386556,0.386556 0.0037,0.113506 -0.02222,0.352425 -0.0807,0.450586 -0.0971,0.162718 -0.01588,0.270139 0.03043,0.432064 0.120385,-0.115094 0.314589,0.04921 0.411162,0.120121 0.189971,0.140494 0.411692,0.192617 0.623623,0.28919 0.166158,0.07567 0.227806,0.325966 0.326231,0.464608 0.148961,0.210344 0.291042,0.453496 0.483394,0.626004 0.132556,0.119063 0.261144,0.297656 0.27305,0.476779 0.01402,0.212725 0.336286,0.242888 0.490008,0.31115 0.134938,0.06006 0.07461,0.139436 0.14023,0.241829 0.05053,0.07858 0.13335,0.07885 0.211137,0.11774 0.128059,0.06429 0.413808,0.20611 0.327025,0.394758 -0.182033,-0.05001 -0.383117,-0.231775 -0.581819,-0.174889 -0.2667,0.0762 -0.257175,-0.1143 -0.484981,-0.198967 -0.228864,-0.0852 -0.327289,0.205846 -0.520171,0.100277 -0.09525,-0.05212 -0.148696,-0.141023 -0.209814,-0.227012 -0.07541,-0.106363 -0.18415,-0.100542 -0.286809,-0.162984 0.05186,0.03995 0.07144,0.108744 0.04075,0.168011 0.04736,-0.0545 0.09763,-0.05741 0.151871,-0.0082 -0.03175,-0.02408 -0.06244,-0.04948 -0.09234,-0.07567 0.101865,-0.0381 0.307711,0.230452 0.109538,0.142875 0.13679,0.09155 0.295275,0.294481 0.486304,0.207698 0.07646,-0.03493 0.06773,-0.109273 0.165365,-0.104246 0.08414,0.0045 0.192352,0.04154 0.246327,0.110067 0.0336,0.0426 -0.0058,0.09419 0.05106,0.122502 0.09313,0.0463 0.202407,0.06033 0.29898,0.0979 0.208756,0.08149 0.388937,0.269875 0.59002,0.375443 0.111125,0.05847 0.352955,0.290248 0.345811,0.430477 -0.0032,0.06535 -0.1397,0.04022 -0.176477,0.04366 -0.142875,0.01323 -0.220134,0.130175 -0.325702,0.208491 -0.07038,0.05239 -0.156898,0.07964 -0.172244,0.171715 -0.0066,0.04075 -0.01508,0.140229 -0.07435,0.143933 -0.101335,0.0061 -0.159544,-0.09234 -0.274638,-0.04789 -0.09684,0.03731 -0.16801,0.124618 -0.245004,0.189706 0.05424,-0.02646 0.257175,-0.19394 0.315648,-0.152665 0.111919,0.07832 0.114036,0.291042 0.281781,0.287338 -0.03545,-0.02223 -0.0717,-0.0418 -0.109802,-0.059 0.199232,0.03016 0.323321,-0.20664 0.515409,-0.151607 0.132291,0.03784 0.197908,0.145786 0.288396,0.237332 0.10742,0.108743 0.346075,0.132291 0.490537,0.166423 -0.09895,0.04657 -0.14261,0.121443 -0.210079,0.201612 -0.02302,0.0426 -0.05107,0.08202 -0.08387,0.11774 -0.0508,0.03969 -0.119327,0.01852 -0.168275,0.0672 0.0164,0.03254 0.03863,0.06059 0.06667,0.08387 0.05186,-0.07329 0.150548,-0.176213 0.243946,-0.0926 -0.04868,-0.04921 -0.03889,-0.182298 0.05794,-0.129646 0.107156,0.05874 0.01323,0.149489 0.06482,0.235744 0.0011,0.0019 0.102659,0.28522 -0.0061,0.214841 -0.06059,-0.03916 -0.05398,-0.140229 -0.108215,-0.186002 0.01349,0.0553 0.02196,0.11139 0.02567,0.168011 -0.07144,0.01879 -0.118798,-0.02646 -0.134144,-0.0926 0.03016,0.15584 -0.01455,0.05689 -0.05133,0 -0.01482,0.06773 -0.0426,0.129382 -0.08414,0.184944 0.108479,-0.02196 0.270139,0.08096 0.286014,0.193146 -0.04974,-0.05265 -0.08863,-0.04736 -0.116681,0.01667 0.08837,-0.0061 0.189706,0.116946 0.08864,0.178329 -0.125148,0.0762 -0.30136,-0.07329 -0.408252,-0.119327 0.05662,0.04498 0.09075,0.139964 0.159809,0.16801 0.09737,0.03942 0.163777,-0.04022 0.223573,0.07911 0.02857,0.05715 0.186531,0.201612 0.108214,0.271462 -0.07144,0.0635 -0.161131,0.05927 -0.121708,0.187325 -0.109538,-0.05027 -0.115623,-0.197114 -0.227542,-0.243681 -0.03148,0.05556 -0.03519,0.06694 -0.09234,0.09234 0.166687,0.02249 -0.08017,0.518319 -0.352425,0.184944 0.03625,0.122502 0.307445,0.09869 0.271727,0.240506 -0.03069,0.121709 -0.155575,0.3429 -0.0034,0.423598 -0.08546,0.03995 -0.08361,0.09472 -0.0717,0.175419 0.02593,0.173831 -0.120121,-0.0087 -0.07091,0.110331 -0.05689,-0.04974 -0.112977,-0.100277 -0.168011,-0.151341 -0.0026,0.06059 0.293688,0.270139 0.05001,0.218546 0.04339,0.09948 -0.0336,0.190764 -0.126206,0.218281 0.1016,0.141816 0.177271,0.393964 -0.117739,0.319352 0.0889,-0.03678 0.130704,-0.128323 0.09234,-0.218281 -0.04022,0.03175 -0.07091,0.07117 -0.09234,0.117475 -0.05636,-0.04075 -0.100542,-0.100277 -0.118005,-0.168011 -0.03493,0.06191 -0.09763,0.09948 -0.16801,0.0672 0.04339,0.04816 0.06059,0.104246 0.05107,0.168011 0.137848,-0.06218 0.297656,0.179123 0.100541,0.159808 0.0077,0.103981 0.13679,0.159544 0.168275,0.0336 0.103982,0.107686 -0.01164,0.102659 -0.08255,0.172244 -0.07276,0.0717 -0.110066,0.170921 -0.144198,0.264848 -0.09075,-0.08467 -0.229129,-0.132556 -0.345545,-0.168011 0.09128,0.05715 0.147372,0.217223 0.276754,0.195792 0.128058,-0.02143 0.172773,-0.15531 0.278871,0.0056 -0.08599,0.03572 -0.0553,0.176477 -0.08255,0.265642 -0.04498,0.147108 0.182562,0.151606 0.13282,0.305858 -0.02672,-0.111918 -0.05768,-0.111918 -0.09366,0 -0.05239,-0.08096 -0.127265,-0.149489 -0.218017,-0.184679 -0.0061,0.07064 -0.04736,0.132821 -0.108744,0.168011 0.06085,0.03307 0.214842,0.05424 0.189707,0.159808 -0.03625,0.151606 -0.15584,-0.06694 -0.15584,0.126206 -0.01905,-0.08705 -0.102129,-0.237066 -0.19341,-0.109273 0.115887,0.04075 0.01482,0.212461 0.150283,0.218282 -0.0299,0.09313 -0.226219,0.236008 -0.226219,0.07567 -0.09287,0.07382 -0.07144,0.09366 0.0058,0.14314 0.09604,0.06085 0.01349,0.206904 -0.03149,0.268817 -0.04948,-0.04895 -0.09684,-0.09922 -0.142611,-0.151342 -0.0291,0.11086 -0.17436,0.180975 -0.234685,0.05053 -0.06403,0.09234 -0.220927,0.03413 -0.126206,0.168011 -0.06377,-0.01879 -0.128323,-0.0217 -0.193411,-0.0082 0.05874,0.06376 0.143669,0.08811 0.226219,0.05874 -0.01667,0.06747 0.01587,0.106892 0.08387,0.109273 -0.02355,0.06218 -0.08043,0.06191 -0.123825,0.09948 -0.068,0.059 -0.02302,0.170921 -0.128323,0.236803 0.03757,-0.08149 0.01217,-0.112448 -0.07567,-0.09234 0.03387,0.09049 -0.02355,0.170921 -0.02461,0.26035 -0.009,-0.169863 -0.179388,0.0082 -0.268552,0.0082 -0.01852,0.02117 -0.08546,0.314325 -0.176742,0.22516 -0.08017,-0.07832 -0.133879,-0.118797 -0.14896,0.02778 -0.01693,0.161396 -0.09313,0.199496 -0.254529,0.175683 0.09657,0.03731 0.217223,0.03492 0.243945,0.159808 -0.10795,-0.132291 -0.100806,0.07382 -0.17727,-0.0082 -0.03387,0.102659 0.02646,0.233363 -0.108744,0.274373 -0.08837,0.02699 -0.241565,0.06112 -0.327819,0.01138 0.126206,0.133615 -0.360098,0.201348 -0.252148,-0.0085 -0.07303,0.08228 -0.169333,0.04789 -0.252148,0.0085 0.0164,0.0717 0.208492,0.166952 0.157957,0.254529 -0.03122,0.05345 -0.102659,0.0082 -0.13388,-0.01323 -0.09737,-0.06615 -0.187325,-0.05583 -0.175683,-0.174096 -0.05186,0.0717 -0.245269,0.188648 -0.310356,0.142875 0.148166,0.05186 0.05186,0.165365 -0.03757,0.140759 -0.10504,-0.02884 -0.101335,-0.155046 -0.03016,-0.216165 -0.09975,-5.29e-4 -0.188647,0.05133 -0.242887,0.134409 0.112712,0.02037 -0.0077,0.135466 0.116681,0.16801 -0.02487,0.02223 -0.05265,0.03889 -0.08414,0.05053 -0.05292,-0.18071 -0.468313,-0.164306 -0.562504,-0.01667 -0.01217,-0.246327 -0.319617,-0.310357 -0.286015,-0.5715 -0.03334,0.167481 -0.02858,0.06747 -0.100277,0.0082 0.05556,-0.09393 0.152135,-0.109802 0.252148,-0.09234 -0.129911,-0.09075 -0.239184,0.09234 -0.369888,0.0336 0.186532,0.07488 -0.009,0.219869 -0.134408,0.176477 0.0471,0.01879 0.223308,0.08414 0.232569,0.141023 -0.01852,0.01482 -0.03995,0.01561 -0.06429,0.0019 0.104775,0.06959 0.357452,0.405607 0.252148,0.554567 -0.112713,0.157956 -0.34925,-0.29845 -0.404019,-0.361156 -0.0074,0.150283 0.173831,0.285221 0.244211,0.403225 -0.06244,0.01455 -0.108215,0.06244 -0.118005,0.126206 -0.06191,-0.03069 -0.108479,-0.08811 -0.108479,-0.159808 -0.152929,0.07038 0.0063,0.243681 -0.09366,0.344752 -0.115094,-0.148696 -0.198967,-0.0291 -0.27649,0.07673 -0.05265,0.0717 -0.237067,-0.08123 -0.134408,-0.1778 -0.07223,0.02831 -0.11774,-0.0066 -0.109538,-0.08387 -0.01402,0.09763 0.05768,0.198437 0.02725,0.295804 -0.03863,0.123031 -0.357452,-0.100012 -0.422804,-0.119327 0.151342,0.191823 -0.04974,0.103717 -0.159014,0.109273 0.18997,0.07488 -0.08599,0.361421 -0.21008,0.184944 -0.02011,0.06324 -0.06165,0.126206 -0.126206,0.151077 0.06244,-0.128059 -0.09366,-0.05001 -0.179652,-0.0299 -0.106098,0.02514 -0.257704,0.0598 -0.324908,0.156104 0.01905,-0.04815 0.04392,-0.09287 0.07461,-0.134408 -0.06985,0.04895 -0.124618,0.13335 -0.07461,0.218546 -0.182034,0.05477 -0.118269,-0.07488 -0.227542,-0.159809 -0.04313,0.09578 0.08652,0.158486 0.0016,0.245004 -0.06006,0.06059 -0.190236,0.123032 -0.137055,0.233363 0.03043,0.06297 0.119857,0.06641 0.177536,0.08599 0.08017,0.02752 0.05583,0.207169 -0.0079,0.01561 0.01217,0.147637 0.217488,0.224367 0.206905,0.370946 -0.01773,0.247385 -0.353748,0.126206 -0.493184,0.192352 0.0074,-0.08493 -0.09128,-0.220663 0.0598,-0.142875 -0.03069,-0.142875 -0.287602,-0.114036 -0.185473,-0.31115 -0.118269,0.01588 -0.04418,-0.152929 -0.143139,-0.163513 -0.06271,-0.0069 -0.08043,-0.242093 -0.03863,-0.285485 0.08255,-0.08572 -0.02011,-0.145256 0.09366,-0.214313 0.174096,-0.106362 -0.0717,-0.167481 -0.138113,-0.227277 0.01535,0.03016 0.02937,0.06085 0.04207,0.0926 -0.129646,0.02778 -0.194469,-0.164835 -0.252148,-0.243945 -0.04127,0.06985 -0.01111,0.135466 0.05847,0.168275 -0.04895,0.05477 -0.214048,0.198437 -0.276754,0.08387 -0.102923,0.236008 -0.125413,-0.120386 -0.177271,-0.159809 -0.06112,-0.0463 -0.2794,0.05107 -0.150812,-0.126206 -0.0299,-0.01058 -0.06059,-0.01905 -0.09208,-0.0254 -0.0077,0.06138 0.0061,0.117475 0.0418,0.168275 -0.102129,-0.01561 -0.149754,-0.209815 -0.252148,-0.184944 0.0463,-0.059 0.02619,-0.116416 -0.0418,-0.142875 -0.02699,0.06006 -0.05318,0.144992 -0.06773,0.0254 -0.02196,0.123825 0.166952,0.200819 0.09684,0.327025 -0.03387,0.06059 -0.149754,-0.0807 -0.197379,-0.07488 0.03228,0.07223 -0.0016,0.140229 -0.06747,0.176477 -0.0032,-0.07541 -0.200554,-0.101071 -0.29554,-0.141287 -0.133085,-0.05636 -0.315648,0.120121 -0.368829,-0.01826 -0.02778,0.01667 -0.05583,0.0336 -0.08387,0.05027 -0.03916,-0.141287 -0.223837,-0.128323 -0.318558,-0.210079 -0.0344,-0.02963 0.03837,-0.0725 -0.02196,-0.09049 -0.08625,-0.02619 -0.197909,-0.148167 -0.289719,-0.06932 -0.0717,-0.223573 -0.193411,-0.392113 -0.192881,-0.622036 0.210872,0.07276 0.127793,-0.446881 -0.168011,-0.301889 -0.120121,0.05927 -0.179917,-0.04445 -0.272256,-0.09075 -0.112183,-0.05583 -0.171979,0.107421 -0.295804,0.01323 -0.184944,-0.141288 -0.356129,-0.220398 -0.499798,-0.418836 -0.06138,0.141288 -0.231246,0.157428 -0.338931,0.246857 -0.06853,0.05715 0.05927,0.17145 -0.02699,0.258762 -0.07091,0.0717 -0.508794,0.284427 -0.465402,0.04921 -0.151606,0.0061 -0.188913,0.360891 -0.243152,0.32676 -0.07699,-0.04868 -0.139965,-0.126206 -0.202406,-0.191294 -0.132821,-0.13917 -0.123032,0.01138 -0.168275,0.116417 -0.163248,-0.187854 -0.18468,-0.228335 -0.311944,0.0064 -0.117211,0.216165 -0.282311,-0.01402 -0.393965,-0.106362 -0.242093,-0.200819 -0.282046,0.08758 -0.384704,0.24421 -0.0553,0.0844 -0.128323,-0.01349 -0.193939,-0.0074 -0.04445,0.0037 -0.08784,0.01191 -0.13044,0.02487 -0.05742,0.0172 -0.04339,-0.07752 -0.09366,-0.07752 -0.219604,0 -0.112977,0.424391 -0.05847,0.505618 0.06138,0.09208 0.140493,0.180182 0.173302,0.287867 0.02381,0.03413 0.04551,0.06959 0.06535,0.105833 0.0079,0.06112 -0.04445,0.114829 -0.04207,0.176477 0.0021,0.06509 0.137848,0.202671 0.07567,0.26035 -0.08334,0.07832 -0.179917,-0.09922 -0.283898,-0.06773 -0.15875,0.04815 -0.177006,0.05953 -0.242094,-0.10451 -0.05609,-0.141023 -0.143669,-0.278077 -0.154252,-0.433123 -0.142346,0.105568 -0.386556,0.401373 -0.574146,0.280458 -0.08996,-0.05768 -0.109802,0.07593 -0.184679,0.06059 -0.07699,-0.0164 -0.101071,-0.185209 -0.06535,-0.239977 -0.293423,-0.004 -0.07779,-0.2921 -0.234156,-0.369359 -0.170921,-0.08467 -0.381529,-0.07382 -0.560917,-0.04868 -0.230981,0.03254 -0.04815,-0.301096 -0.0336,-0.382323 0.02117,-0.119856 -0.11721,-0.460904 0.105833,-0.452173 -0.0598,-0.177006 -0.172508,-0.193146 -0.344223,-0.193146 -0.226218,0 -0.20611,-0.183621 -0.299508,-0.327819 -0.0085,-0.01323 -0.08705,-0.100277 -0.0717,-0.122502 0.07832,-0.112977 -0.08123,-0.190764 -0.129117,-0.274373 -0.0807,-0.141022 0.123296,-0.201877 0.08811,-0.342635 -0.203994,0.150548 -0.457465,-0.04048 -0.668867,0.07832 -0.04895,0.02752 -0.336021,0.254793 -0.386027,0.215106 -0.102394,-0.0807 0.0056,-0.1651 0.03889,-0.248179 0.03307,-0.08229 -0.02355,-0.21299 -0.06853,-0.280988 -0.06959,-0.105039 -0.111654,-0.09128 -0.138112,-0.242093 -0.01984,-0.112448 0.02805,-0.19394 0.147902,-0.2032 -0.09102,-0.148432 -0.009,-0.264848 -0.01746,-0.420159 0.197114,0.178065 0.210343,-0.282839 0.227541,-0.344752 0.289454,0.02064 0.0807,-0.102658 0.268552,-0.243946 0.02963,-0.02196 0.134144,0.03678 0.140759,-0.01455 0.01323,-0.102394 -0.115623,-0.177535 -0.148696,-0.262731 0.172773,0.06747 0.08387,-0.243946 0.08387,-0.328877 0,-0.185473 -0.05345,-0.401108 -0.115888,-0.57494 -0.04974,-0.138377 -0.08467,-0.283104 -0.115887,-0.426508 -0.03678,-0.169069 -0.135467,-0.194469 -0.289984,-0.266435 0.0344,0.0672 -0.0013,0.119591 -0.06641,0.142875 -0.06032,-0.12118 -0.173567,-0.243153 -0.21246,-0.370682 -0.0344,-0.112712 -0.03043,-0.20955 -0.124355,-0.293687 -0.155045,-0.139436 -0.395287,-0.194469 -0.529695,-0.343959 -0.0037,0.114565 -0.01006,0.446088 -0.19685,0.262732 -0.101865,-0.09948 -0.161925,-0.0093 -0.263261,-0.0553 -0.09287,-0.04207 -0.206904,-0.124619 -0.312473,-0.123561 -0.09763,0.0011 -0.135466,0.126207 -0.239712,0.08414 -0.07461,-0.0299 -0.01376,-0.137583 0.0098,-0.179123 0.03704,-0.06535 0.107686,-0.133085 0.126471,-0.205052 0.02963,-0.115623 -0.182562,-0.16854 -0.140494,-0.313796 -0.07461,0.02143 -0.153193,0.12409 -0.23786,0.104775 -0.189706,-0.04339 0.02117,-0.21881 0.08625,-0.247385 -0.07594,-0.06906 -0.178064,-0.161661 -0.261673,-0.221721 -0.08281,-0.05953 -0.328612,0.125148 -0.396875,0.172508 -0.07038,0.04948 -0.03598,0.158221 -0.102923,0.203994 -0.06006,0.04101 -0.169598,-0.01111 -0.221985,-0.03307 -0.02011,-0.0085 -0.27014,-0.161131 -0.167481,-0.03784 -0.07699,-0.04524 -0.195527,-0.137848 -0.277813,-0.159809 -0.09472,-0.0254 -0.169069,0.05424 -0.261673,0.108744 -0.13335,0.07885 -0.205052,0.226219 -0.303212,0.340254 -0.12409,0.144198 -0.244211,0.140758 -0.417777,0.171186 -0.191823,0.03334 -0.116946,0.162983 -0.200555,0.281516 -0.07673,0.108744 -0.265112,0.157692 -0.298714,0.286809 -0.04392,0.168539 -0.04604,0.291835 -0.273579,0.300037 -0.146579,0.0053 -0.254265,0.09578 -0.398198,0.07647 -0.105834,-0.01402 -0.184679,-0.02487 -0.188648,-0.141023 -0.0032,-0.103717 -0.271992,-0.186796 -0.36195,-0.197909 -0.13679,-0.01693 -0.13679,0.141023 -0.291306,0.068 -0.137055,-0.06456 -0.2667,-0.06324 -0.415396,-0.06535 -0.147109,-0.0021 -0.05054,-0.165894 -0.181504,-0.205052 -0.167217,-0.04974 -0.314061,-0.03942 -0.462227,0.059 -0.15584,0.103717 -0.275432,0.268023 -0.355865,0.434711 -0.06085,0.126735 -0.18415,0.327289 -0.194733,0.46646 -0.247915,-0.121708 -0.07541,-0.387879 -0.151871,-0.588433 -0.119327,-0.312473 -0.410898,-0.06562 -0.630238,-0.05027 0.0056,0.03096 0.01111,0.06165 0.0172,0.0926 -0.189971,-0.05503 -0.457729,0.01588 -0.658812,0.01164 -0.181769,-0.004 -0.297921,-0.07355 -0.466196,-0.15875 -0.05874,-0.02963 -0.158486,-0.09313 -0.228336,-0.06271 -0.06244,0.02725 -0.02196,0.12753 -0.0889,0.1397 -0.1016,0.01826 -0.30136,-0.126735 -0.306122,-0.232568 -0.02434,0.01984 -0.02911,0.365389 -0.115094,0.221985 -0.08758,-0.14605 -0.275961,-0.232039 -0.330994,-0.398462 -0.02937,0.135995 -0.48551,0.07911 -0.518848,-0.04075 -0.01773,-0.06403 0.04815,-0.177006 -0.0037,-0.229923 -0.05345,-0.05477 -0.214842,0.06853 -0.30771,0.01296 -0.147903,-0.08864 -0.479955,-0.200025 -0.538692,-0.373327 -0.07197,-0.213518 -0.2921,-0.446881 -0.516467,-0.222514 -0.08096,0.08096 -0.341048,-0.266436 -0.382587,-0.316177 -0.115186,-0.137699 -0.342199,-0.166538 -0.512855,-0.270255 -0.265641,-0.16166 -0.502444,-0.341312 -0.730514,-0.545571 -0.08705,-0.07805 -0.20664,-0.06668 -0.3116796,-0.100277 -0.1132416,-0.03651 -0.1143,0.107156 -0.2360083,0.06059 0.046302,0.305858 -0.1262063,0.344752 -0.3042708,0.14896 -0.1595438,-0.174889 -0.360098,-0.256646 -0.5815542,-0.317235 -0.047096,-0.0127 -0.1568979,-0.02672 -0.1902354,-0.06694 -0.051329,-0.06244 0.043921,-0.162983 -0.067733,-0.207433 -0.084402,-0.0336 -0.1267354,-0.04339 -0.200025,-0.110861 -0.1262066,-0.115887 -0.2092858,-0.03228 -0.3439587,-0.07197 -0.2032,-0.0598 -0.2849562,-0.278606 -0.4206875,-0.412221 -0.1370542,-0.134673 -0.2849562,0.24765 -0.3709458,-0.02143 -0.030163,-0.09472 0.00635,-0.190765 -0.050006,-0.279136 -0.057415,-0.08969 -0.07964,-0.162983 -0.096837,-0.266435 -0.018521,-0.111125 -0.1299104,-0.178858 -0.2066396,-0.247386 -0.1137708,-0.101335 -0.087577,-0.25691 -0.1838854,-0.366977 0.2291292,-0.170656 0.2738438,-0.0463 0.4058709,0.111655 0.065087,0.07752 0.1629833,0.09154 0.2151062,0.0042 0.065088,-0.108975 0.1780646,-0.100244 0.24765,-0.1947 0.085725,-0.116682 -0.029633,-0.230982 -0.09816,-0.31168 -0.05424,-0.06429 -0.026723,-0.240506 -0.093663,-0.26035 C 7.1255812,21.76132 7.14225,21.78037 6.9475166,21.582727 6.7273833,21.359418 6.7001312,20.95831 6.7080687,20.903277 6.7122987,20.875757 7.0038729,20.78977 6.7572807,20.710395 6.543762,20.641865 6.3776036,20.476239 6.1778432,20.355325 5.9018828,20.188902 5.989989,19.803404 5.5319953,19.535116 5.2613265,19.547026 4.4445578,19.490936 4.4273599,19.099612 4.3469269,19.120252 4.2315682,19.249631 4.1455787,19.172372 4.0786391,19.112052 3.8997808,19.006214 3.8645912,18.928427 3.8323121,18.856727 3.8405141,18.714114 3.8185537,18.63077 3.7883912,18.516206 3.7317704,18.424131 3.6449871,18.342904 3.5227496,18.228868 3.3121412,18.292894 3.2362058,18.175687 3.1536558,18.048952 2.88431,17.896022 2.7803287,18.082287 2.6967204,17.879352 2.4636225,18.028837 2.3837183,17.880939 2.2786787,17.685941 2.6448621,17.768227 2.6980433,17.758702 2.9173829,17.719012 2.8305996,17.51555 2.7059813,17.43882 2.6006771,17.374 2.6504188,17.33987 2.6467146,17.237737 c -0.00159,-0.04577 -0.080169,-0.182827 -0.1010708,-0.231775 -0.029898,-0.06906 -0.1140354,-0.07646 -0.1410229,-0.153458 -0.032015,-0.09049 -0.00212,-0.187325 -0.020902,-0.279665 -0.034925,-0.170391 -0.3198813,-0.216694 -0.4601105,-0.24765 -0.1862666,-0.04075 -0.3177646,0.207963 -0.4598458,0.0291 -0.046037,-0.05794 -0.2397125,-0.321998 -0.052388,-0.32332 -0.06006,-0.0844 -0.1412875,-0.149225 -0.2140479,-0.221986 -0.069585,-0.06959 -0.040217,-0.194998 -0.070908,-0.281517 z"
       id="path2708" />
  </g>
</svg>
