<?xml version="1.0" encoding="UTF-8" standalone="no"?>
<!-- Created with Inkscape (http://www.inkscape.org/) -->

<svg
   xmlns:dc="http://purl.org/dc/elements/1.1/"
   xmlns:cc="http://creativecommons.org/ns#"
   xmlns:rdf="http://www.w3.org/1999/02/22-rdf-syntax-ns#"
   xmlns:svg="http://www.w3.org/2000/svg"
   xmlns="http://www.w3.org/2000/svg"
   xmlns:sodipodi="http://sodipodi.sourceforge.net/DTD/sodipodi-0.dtd"
   xmlns:inkscape="http://www.inkscape.org/namespaces/inkscape"
   width="10.840949mm"
   height="16.824873mm"
   viewBox="0 0 10.840949 16.824873"
   version="1.1"
   id="svg7070"
   inkscape:version="0.92.4 (5da689c313, 2019-01-14)"
   sodipodi:docname="colombia.svg">
  <defs
     id="defs7064" />
  <sodipodi:namedview
     id="base"
     pagecolor="#ffffff"
     bordercolor="#666666"
     borderopacity="1.0"
     inkscape:pageopacity="0.0"
     inkscape:pageshadow="2"
     inkscape:zoom="1.4"
     inkscape:cx="-2.9679145"
     inkscape:cy="-59.724193"
     inkscape:document-units="mm"
     inkscape:current-layer="layer1"
     showgrid="false"
     inkscape:window-width="958"
     inkscape:window-height="1008"
     inkscape:window-x="-7"
     inkscape:window-y="0"
     inkscape:window-maximized="0" />
  <metadata
     id="metadata7067">
    <rdf:RDF>
      <cc:Work
         rdf:about="">
        <dc:format>image/svg+xml</dc:format>
        <dc:type
           rdf:resource="http://purl.org/dc/dcmitype/StillImage" />
        <dc:title />
      </cc:Work>
    </rdf:RDF>
  </metadata>
  <g
     inkscape:label="Layer 1"
     inkscape:groupmode="layer"
     id="layer1"
     transform="translate(-210.66886,-72.542453)">
    <path
       inkscape:connector-curvature="0"
       style="fill:#ffffff;stroke-width:0.26458332"
       d="m 210.76116,83.482751 c -0.0307,-0.0082 -0.0616,-0.01641 -0.0923,-0.02487 0.0328,-0.201084 0.24818,-0.264054 0.41169,-0.16854 0.0886,-0.170921 -0.13176,-0.332846 -0.0445,-0.507471 0.11192,-0.224366 0.36327,-0.212989 0.57388,-0.248443 0.04,-0.0066 0.0259,-0.103982 0.0804,-0.07091 0.04,0.02381 0.13096,0.04498 0.13176,-0.02593 0.001,-0.140494 0.18547,-0.315648 0.0736,-0.407723 0.20029,-0.0053 0.23733,-0.263525 0.2966,-0.40005 0.0466,-0.10795 0.13785,-0.182827 0.23283,-0.247121 -0.11826,-0.09657 0.022,-0.111125 0.0587,-0.210343 -0.0825,0.0037 -0.18785,0.07144 -0.21854,-0.05001 0.0648,-0.01693 0.11218,-0.06456 0.10927,-0.134937 -0.0638,-0.02222 -0.19288,0.148431 -0.20585,0.01693 -0.0138,-0.137583 0.0646,-0.164835 0.17225,-0.218546 -0.16881,0.0016 -0.0918,-0.223308 -0.0685,-0.315648 0.0452,-0.181504 0.006,-0.424656 -0.0119,-0.609864 -0.0132,-0.139436 -0.0754,-0.273315 -0.0849,-0.413015 -0.005,-0.07646 0.23892,-0.106362 0.19738,-0.284691 -0.0249,-0.106363 -0.27014,-0.351367 -0.10715,-0.41328 0.14657,-0.0553 0.0209,-0.366447 -0.0429,-0.437091 -0.12832,-0.14314 -0.14393,-0.357188 -0.28257,-0.478102 -0.0913,-0.07964 0,-0.179388 0.0529,-0.252148 0.064,-0.08731 0.002,-0.201084 0.0791,-0.275431 0.0421,0.04974 0.0728,0.105833 0.0923,0.16801 0.17939,-0.125677 0.43445,-0.370417 0.35164,-0.613833 -0.0849,-0.249502 -0.24342,-0.302419 -0.091,-0.537369 0.0868,0.112183 0.18124,0.265112 0.25585,0.389731 0.0773,0.128588 0.26644,0.168011 0.0971,0.324644 0.22754,0.261408 0.11589,-0.487892 0.0836,-0.567796 -0.0463,-0.115887 0.48631,-0.381794 0.55457,-0.475456 0.0855,-0.117211 0.14684,-0.31459 0.28972,-0.376767 0.081,-0.03519 0.27305,-0.01508 0.31856,-0.105833 0.0648,-0.129117 -0.0606,-0.176213 -0.0341,-0.255588 0.0468,-0.141552 0.0661,-0.319352 0.14949,-0.445293 -0.12356,-0.0127 -0.09,-0.05371 -0.006,-0.09657 0.0767,-0.03916 0.0471,-0.144727 0.0447,-0.210609 -0.005,-0.154516 0.25533,-0.197908 0.25533,-0.251883 0,-0.08096 0.31697,-0.393435 0.39105,-0.391319 0.14631,0.0037 0.27014,0.133615 0.41592,0.135467 -0.12329,-0.0164 -0.10556,0.11721 -0.21854,0.117475 0.0857,0.3175 0.27305,-0.10504 0.31618,-0.219604 0.10689,-0.28575 0.23336,-0.265377 0.53445,-0.214842 0.4109,0.06853 0.54134,-0.198702 0.86546,-0.392641 0.17806,-0.106892 0.69612,-0.234157 0.53631,-0.542661 0.068,-0.02011 0.26061,-0.08176 0.15134,0.059 0.1262,-0.01905 0.0468,-0.144462 0.18494,-0.207169 0.16642,-0.07541 0.31274,-0.07567 0.45509,0.04313 0.48498,0.405341 -0.55907,0.569647 -0.7157,0.769143 -0.0836,0.106627 -0.11536,0.262202 -0.21431,0.354807 -0.0688,0.06429 -0.18072,0.05186 -0.24183,0.121708 -0.11563,0.131233 -0.23654,0.331523 -0.31062,0.48895 -0.11087,0.234421 -0.11563,0.475192 -0.17833,0.722048 -0.0619,0.242623 -0.23813,0.534723 -0.39952,0.724958 0.13387,0.0037 0.23733,-0.04868 0.33628,-0.134408 0.0214,0.05689 0.0296,0.115887 0.0251,0.176212 0.25426,-0.06562 0.16906,0.386027 0.29818,0.549804 0.18442,0.234686 0.23495,0.372004 0.127,0.659871 -0.0542,0.145256 -0.14129,0.454819 0.0548,0.528108 0.22199,0.08308 0.10451,0.347663 0.33311,0.401638 0.0923,0.0217 0.18098,-0.03678 0.2712,-0.04657 0.14737,-0.01614 0.28178,0.08255 0.42968,0.06932 0.13203,-0.01191 0.24236,-0.105304 0.37677,-0.102923 0.11959,0.0021 0.20849,0.11774 0.32147,0.144198 0.0831,0.01958 0.16033,-0.05001 0.23627,0.0164 0.0998,0.08731 0.16722,0.247121 0.24077,0.355071 0.0683,0.100277 0.13071,0.202142 0.19235,0.306388 0.0794,0.134937 0.11192,0.0971 0.23204,0.131762 0.17436,0.05054 0.33497,-0.08731 0.56251,0.0037 0.0696,0.02778 0.22278,-0.04868 0.29792,-0.05001 0.16483,-0.0037 0.3048,0.0093 0.44926,-0.07805 0.16378,-0.09922 0.43392,0.09551 0.34793,0.268287 -0.0492,0.09816 -0.16881,0.173567 -0.19024,0.283634 -0.0265,0.135466 0.0281,0.206639 -0.10054,0.294481 -0.17145,0.116681 -0.10372,0.586581 -0.12065,0.776817 -0.0201,0.226218 0.0736,0.467254 0.11589,0.705908 0.032,0.180446 0.37703,0.418042 0.3212,0.601398 -0.0688,0.225954 -0.4945,0.314325 -0.48524,0.584994 0.15425,-0.116152 0.53128,0.307975 0.58023,0.437091 -0.0109,0.03466 -0.0198,0.06985 -0.0273,0.105305 0.0201,0.06562 0.0823,0.130175 0.0825,0.200554 2.7e-4,0.145785 0.0849,0.300302 0.12118,0.4445 0.0283,0.1143 0.14976,0.402166 0.003,0.420158 -0.1389,0.0164 -0.10662,-0.132292 -0.0952,-0.220662 0.0175,-0.137584 -0.14234,-0.779728 -0.34369,-0.708025 -0.10848,0.03863 -0.42677,0.599016 -0.51435,0.271197 -0.0328,-0.122502 -0.18944,-0.1778 -0.17224,-5.29e-4 0.0196,0.198967 -0.23337,0.126207 -0.36883,0.126207 -0.20294,0 -0.40587,0 -0.60881,0 -0.13414,0 -0.27913,-0.07911 -0.41116,-0.02064 -0.19738,0.08678 -0.0402,0.529696 -0.0606,0.692944 0.15981,-0.10795 0.53472,-0.01455 0.60642,0.16166 0.0267,0.06562 0.0415,0.285221 -0.0828,0.273844 -0.077,-0.0071 -0.12356,-0.109538 -0.20638,-0.09446 -0.18282,0.03254 -0.5027,0.08308 -0.5162,0.296598 -0.0164,0.25982 -0.0392,0.623623 0.18547,0.794279 0.11325,0.08572 0.2458,0.159808 0.23972,0.321998 -0.006,0.155581 0.0736,0.215371 0.13441,0.346871 0.13811,0.29819 -0.0408,0.70644 -0.0828,1.01124 -0.10133,0.73422 -0.0849,1.53326 -0.31168,2.24181 -0.0545,-0.13493 -0.16166,-0.25744 -0.25823,-0.36433 -0.11007,-0.12197 -0.24077,-5.3e-4 -0.36804,-0.0728 -0.118,-0.0672 0.18759,-0.53075 0.2286,-0.6006 0.0802,-0.13653 0.34555,-0.41302 0.22331,-0.54372 -0.0529,-0.0564 -0.14949,-0.20823 -0.23389,-0.17516 -0.14314,0.0553 -0.26511,-0.16218 -0.36301,-0.22119 -0.16483,-0.0992 -0.18521,-0.0169 -0.34025,0.0595 -0.14658,0.0717 -0.29766,-0.0526 -0.41196,-0.12752 -0.13414,-0.0873 -0.36856,0.19685 -0.52282,0.25743 -0.0934,0.0362 -0.27807,-0.0201 -0.39687,-0.005 -0.16404,0.0212 -0.24262,-0.0119 -0.37148,-0.11271 -0.1008,-0.0781 -0.003,-0.26988 -0.0392,-0.38867 -0.0495,-0.16272 -0.30692,-0.0743 -0.33576,-0.2376 -0.0206,-0.11615 -0.045,-0.25691 -0.0918,-0.36539 -0.0492,-0.11377 -0.22199,-0.09 -0.2921,-0.19023 -0.0759,-0.10848 -0.13309,-0.10584 -0.23469,-0.13997 -0.12938,-0.0434 -0.17198,-0.24342 -0.18203,-0.3601 -0.0185,-0.22225 -0.45879,-0.553509 -0.66622,-0.613834 -0.0399,-0.01191 -0.0818,-0.08308 -0.11695,-0.02699 -0.0384,0.06085 -0.0373,0.08678 -0.11906,0.04974 -0.12144,-0.0553 -0.3085,-0.120914 -0.41063,-0.201083 -0.0796,-0.06191 -0.48128,-0.543719 -0.52467,-0.21299 -0.0228,0.17198 -0.63791,-0.03043 -0.77232,-0.05424 -0.21828,-0.03916 -0.0577,-0.223838 -0.21855,-0.292365 -0.14102,-0.06059 -0.0786,-0.180975 -0.26035,-0.182827 -0.14287,-0.0016 -0.40031,-0.193146 -0.50588,-0.280723 -0.1778,-0.146843 -0.34713,-0.293423 -0.48392,-0.479954 v -0.0016 z"
       id="co" />
  </g>
</svg>
