<?xml version="1.0" encoding="UTF-8" standalone="no"?>
<!-- Created with Inkscape (http://www.inkscape.org/) -->

<svg
   xmlns:dc="http://purl.org/dc/elements/1.1/"
   xmlns:cc="http://creativecommons.org/ns#"
   xmlns:rdf="http://www.w3.org/1999/02/22-rdf-syntax-ns#"
   xmlns:svg="http://www.w3.org/2000/svg"
   xmlns="http://www.w3.org/2000/svg"
   xmlns:sodipodi="http://sodipodi.sourceforge.net/DTD/sodipodi-0.dtd"
   xmlns:inkscape="http://www.inkscape.org/namespaces/inkscape"
   width="2.8714619mm"
   height="3.1985962mm"
   viewBox="0 0 2.8714619 3.1985962"
   version="1.1"
   id="svg7070"
   inkscape:version="0.92.4 (5da689c313, 2019-01-14)"
   sodipodi:docname="costa_rica.svg">
  <defs
     id="defs7064" />
  <sodipodi:namedview
     id="base"
     pagecolor="#ffffff"
     bordercolor="#666666"
     borderopacity="1.0"
     inkscape:pageopacity="0.0"
     inkscape:pageshadow="2"
     inkscape:zoom="1.4"
     inkscape:cx="-90.991229"
     inkscape:cy="-138.2383"
     inkscape:document-units="mm"
     inkscape:current-layer="layer1"
     showgrid="false"
     inkscape:window-width="958"
     inkscape:window-height="1008"
     inkscape:window-x="-7"
     inkscape:window-y="0"
     inkscape:window-maximized="0" />
  <metadata
     id="metadata7067">
    <rdf:RDF>
      <cc:Work
         rdf:about="">
        <dc:format>image/svg+xml</dc:format>
        <dc:type
           rdf:resource="http://purl.org/dc/dcmitype/StillImage" />
        <dc:title />
      </cc:Work>
    </rdf:RDF>
  </metadata>
  <g
     inkscape:label="Layer 1"
     inkscape:groupmode="layer"
     id="layer1"
     transform="translate(-233.95836,-65.395204)">
    <path
       inkscape:connector-curvature="0"
       style="fill:#ffffff;stroke-width:0.26458332"
       d="m 233.96513,66.232397 c 0.0497,-0.04048 0.18442,-0.2286 0.19341,-0.291571 0.0151,-0.101071 -0.21193,-0.224631 -0.12594,-0.275431 0.10213,-0.06032 0.12859,-0.146844 0.19791,-0.262202 0.0273,-0.04551 0.36248,0.11721 0.41063,0.141023 0.23522,0.116681 0.21617,0.04815 0.43445,-0.01138 0.0963,-0.02646 0.18283,0.162983 0.26776,0.06059 0.0717,0.0934 0.11483,0.196057 0.23601,0.230717 0.1479,0.0418 0.37756,0.04974 0.39422,-0.155046 0.0685,0.116417 -0.0196,0.161396 0.0474,0.263261 0.0558,0.08519 0.0902,0.185208 0.12752,0.279664 0.0788,0.199231 0.1577,0.269081 0.29025,0.401373 0.12012,0.119592 0.1823,0.311679 0.33576,0.390525 0.0841,0.04392 0.0717,0.135996 -0.0331,0.10451 -0.0799,-0.02381 -0.0879,-0.131762 -0.18759,-0.06059 0.045,0.07858 -0.0958,0.262467 -0.095,0.392112 0.001,0.160073 0.2839,0.17833 0.12515,0.308505 -0.1778,0.145785 0.0474,0.3048 -0.0931,0.425185 -0.17145,0.146844 -0.0106,0.237067 -0.0463,0.420158 0.0103,-0.0926 -0.0299,-0.163777 -0.0897,-0.229922 -0.0381,-0.02593 -0.0725,-0.05583 -0.10372,-0.08943 0.0106,-0.03466 0.0196,-0.07038 0.0273,-0.105304 -0.0333,-0.111654 -0.16086,-0.357187 -0.31273,-0.264054 0.0288,0.135467 0.20399,0.185473 0.15134,0.344223 -0.12515,-0.03863 -0.32094,-0.08255 -0.35163,-0.238125 -0.0198,-0.101336 0.11562,-0.178859 0.12488,-0.282575 0.0228,-0.255852 -0.25664,-0.353484 -0.42174,-0.482071 -0.10055,-0.07805 -0.12542,-0.13335 -0.26459,-0.137054 -0.13732,-0.0037 -0.21775,-0.07091 -0.21193,-0.213784 0.0138,-0.340254 -0.39105,-0.339195 -0.52202,-0.578908 0.0259,0.06509 0.0315,0.134673 0.0556,0.200025 0.0381,0.103717 0.1307,0.09102 0.20241,0.152929 0.0997,0.08652 -0.0188,0.262202 -0.11166,0.298715 -0.11271,0.04392 -0.20875,-0.19394 -0.33073,-0.220927 -0.20611,-0.0463 -0.36248,-0.302419 -0.32041,-0.515144 z"
       id="cr" />
  </g>
</svg>
