<?xml version="1.0" encoding="UTF-8" standalone="no"?>
<!-- Created with Inkscape (http://www.inkscape.org/) -->

<svg
   xmlns:dc="http://purl.org/dc/elements/1.1/"
   xmlns:cc="http://creativecommons.org/ns#"
   xmlns:rdf="http://www.w3.org/1999/02/22-rdf-syntax-ns#"
   xmlns:svg="http://www.w3.org/2000/svg"
   xmlns="http://www.w3.org/2000/svg"
   xmlns:sodipodi="http://sodipodi.sourceforge.net/DTD/sodipodi-0.dtd"
   xmlns:inkscape="http://www.inkscape.org/namespaces/inkscape"
   width="1.9002399mm"
   height="1.109663mm"
   viewBox="0 0 1.9002398 1.1096631"
   version="1.1"
   id="svg7070"
   inkscape:version="0.92.4 (5da689c313, 2019-01-14)"
   sodipodi:docname="cyprus.svg">
  <defs
     id="defs7064" />
  <sodipodi:namedview
     id="base"
     pagecolor="#ffffff"
     bordercolor="#666666"
     borderopacity="1.0"
     inkscape:pageopacity="0.0"
     inkscape:pageshadow="2"
     inkscape:zoom="7.9195959"
     inkscape:cx="17.281044"
     inkscape:cy="-18.448799"
     inkscape:document-units="mm"
     inkscape:current-layer="layer1"
     showgrid="false"
     inkscape:window-width="958"
     inkscape:window-height="1008"
     inkscape:window-x="-7"
     inkscape:window-y="0"
     inkscape:window-maximized="0" />
  <metadata
     id="metadata7067">
    <rdf:RDF>
      <cc:Work
         rdf:about="">
        <dc:format>image/svg+xml</dc:format>
        <dc:type
           rdf:resource="http://purl.org/dc/dcmitype/StillImage" />
        <dc:title></dc:title>
      </cc:Work>
    </rdf:RDF>
  </metadata>
  <g
     inkscape:label="Layer 1"
     inkscape:groupmode="layer"
     id="layer1"
     transform="translate(-158.45094,-43.372355)">
    <path
       inkscape:connector-curvature="0"
       style="opacity:1;vector-effect:none;fill:#aaaaaa;fill-opacity:1;stroke-width:0.26458332;stroke-linecap:butt;stroke-linejoin:miter;stroke-miterlimit:4;stroke-dasharray:none;stroke-dashoffset:0;stroke-opacity:1"
       d="m 158.48484,44.053392 c -0.0111,-0.03069 -0.0225,-0.06138 -0.0339,-0.0926 0.11483,0.113242 0.2839,-0.102129 0.41487,-0.0934 0.20214,0.01376 0.0503,-0.189177 0.23759,-0.184414 0.20109,0.005 0.37994,0.04048 0.58129,-0.01376 0.22622,-0.06059 0.42916,-0.296334 0.66649,-0.296863 -0.15002,0.09446 -0.28496,0.315648 -0.45191,0.3683 -0.1823,0.05715 0,0.23204 0.0722,0.312738 -0.0778,0.0095 -0.25506,-0.0058 -0.31459,0.04789 -0.0667,0.06032 -0.0894,0.145256 -0.18045,0.176742 -0.0802,0.02752 -0.39422,0.06085 -0.34528,0.203993 -0.26326,-0.133085 -0.52202,-0.09366 -0.64637,-0.428624 z"
       id="cy" />
  </g>
</svg>
