<?xml version="1.0" encoding="UTF-8" standalone="no"?>
<!-- Created with Inkscape (http://www.inkscape.org/) -->

<svg
   xmlns:dc="http://purl.org/dc/elements/1.1/"
   xmlns:cc="http://creativecommons.org/ns#"
   xmlns:rdf="http://www.w3.org/1999/02/22-rdf-syntax-ns#"
   xmlns:svg="http://www.w3.org/2000/svg"
   xmlns="http://www.w3.org/2000/svg"
   xmlns:sodipodi="http://sodipodi.sourceforge.net/DTD/sodipodi-0.dtd"
   xmlns:inkscape="http://www.inkscape.org/namespaces/inkscape"
   width="5.3059449mm"
   height="2.4495864mm"
   viewBox="0 0 5.3059446 2.4495867"
   version="1.1"
   id="svg7070"
   inkscape:version="0.92.4 (5da689c313, 2019-01-14)"
   sodipodi:docname="czech_republic.svg">
  <defs
     id="defs7064" />
  <sodipodi:namedview
     id="base"
     pagecolor="#ffffff"
     bordercolor="#666666"
     borderopacity="1.0"
     inkscape:pageopacity="0.0"
     inkscape:pageshadow="2"
     inkscape:zoom="7.9195959"
     inkscape:cx="15.356626"
     inkscape:cy="-18.444958"
     inkscape:document-units="mm"
     inkscape:current-layer="layer1"
     showgrid="false"
     inkscape:window-width="958"
     inkscape:window-height="1008"
     inkscape:window-x="-7"
     inkscape:window-y="0"
     inkscape:window-maximized="0" />
  <metadata
     id="metadata7067">
    <rdf:RDF>
      <cc:Work
         rdf:about="">
        <dc:format>image/svg+xml</dc:format>
        <dc:type
           rdf:resource="http://purl.org/dc/dcmitype/StillImage" />
        <dc:title />
      </cc:Work>
    </rdf:RDF>
  </metadata>
  <g
     inkscape:label="Layer 1"
     inkscape:groupmode="layer"
     id="layer1"
     transform="translate(-158.9601,-42.033446)">
    <path
       inkscape:connector-curvature="0"
       style="fill:#ffffff;stroke:#ffffff;stroke-width:0.04116917"
       d="m 158.98297,42.746178 c 0.0868,2.64e-4 0.15504,0.07223 0.17621,0.151341 0.0288,-0.301095 0.39396,-0.157956 0.54372,-0.277812 0.27649,-0.221192 0.70061,-0.343694 1.0287,-0.4699 -0.0273,-0.02593 -0.0556,-0.05106 -0.0839,-0.07567 0.0733,-0.01693 0.15875,-0.04366 0.2159,0.02117 0.0505,0.05768 0.0955,0.165629 0.18759,0.134408 0.063,-0.0217 0.16061,0.009 0.15505,-0.08308 -0.005,-0.08969 0.0741,-0.01138 0.13256,0.0037 0.0979,0.02487 0.10318,-0.01958 0.13096,0.0725 0.031,0.1016 0.0444,0.02778 0.10743,0.05345 0.0982,0.03969 0.42624,0.0426 0.43153,0.192881 0.0437,-0.04657 0.15558,-0.07408 0.21537,-0.05001 0.16272,0.06509 -0.005,0.168804 -0.072,0.226483 0.14605,0.0508 0.19552,0.128323 0.27966,0.24474 0.10266,0.14261 0.26802,-0.02434 0.35877,-0.08493 -0.055,-0.04604 -0.0857,-0.104775 -0.0921,-0.176477 0.21696,0.05689 0.41936,0.22225 0.65484,0.151342 -0.0196,0.104246 -0.0331,0.27649 0.11986,0.272256 0.13335,-0.0037 0.11774,-0.02752 0.2585,0.03863 0.15028,0.07091 0.22278,0.01958 0.3003,0.183357 0.018,0.0381 0.31194,0.216958 0.17939,0.26617 -0.1524,0.05662 -0.27464,0.08414 -0.41037,0.185738 -0.0971,0.07303 -0.0897,0.273579 -0.20373,0.284956 -0.17224,0.0172 -0.22966,0.235479 -0.45164,0.192088 -0.2032,-0.03969 -0.26988,0.0077 -0.34687,0.207168 -0.0767,-0.280193 -0.46567,-0.07964 -0.64082,-0.139964 -0.1442,-0.04974 -0.28522,-0.107156 -0.43101,-0.154252 -0.11827,-0.0381 -0.34396,-0.100806 -0.46673,-0.09234 0.009,0.0799 -0.0243,0.155575 -0.0164,0.235479 -0.1188,-0.0164 -0.20928,0.07779 -0.21008,0.193146 -0.17648,-0.07038 -0.18018,0.0056 -0.35322,-0.01058 -0.11536,-0.01085 -0.2114,-0.134408 -0.30215,-0.195263 -0.11642,-0.07832 -0.24024,-0.143933 -0.36142,-0.214312 -0.11298,-0.06588 -0.22384,-0.253736 -0.35825,-0.287073 -0.20928,-0.05212 -0.25135,-0.346075 -0.43206,-0.444235 0.24606,-0.196057 -0.22093,-0.35269 -0.24368,-0.555096 z"
       id="cz" />
  </g>
</svg>
