<?xml version="1.0" encoding="UTF-8" standalone="no"?>
<!-- Created with Inkscape (http://www.inkscape.org/) -->

<svg
   xmlns:dc="http://purl.org/dc/elements/1.1/"
   xmlns:cc="http://creativecommons.org/ns#"
   xmlns:rdf="http://www.w3.org/1999/02/22-rdf-syntax-ns#"
   xmlns:svg="http://www.w3.org/2000/svg"
   xmlns="http://www.w3.org/2000/svg"
   xmlns:sodipodi="http://sodipodi.sourceforge.net/DTD/sodipodi-0.dtd"
   xmlns:inkscape="http://www.inkscape.org/namespaces/inkscape"
   width="17.010983mm"
   height="18.978607mm"
   viewBox="0 0 17.010983 18.978605"
   version="1.1"
   id="svg7070"
   inkscape:version="0.92.4 (5da689c313, 2019-01-14)"
   sodipodi:docname="democratic_republic_of_the_congo.svg">
  <defs
     id="defs7064" />
  <sodipodi:namedview
     id="base"
     pagecolor="#ffffff"
     bordercolor="#666666"
     borderopacity="1.0"
     inkscape:pageopacity="0.0"
     inkscape:pageshadow="2"
     inkscape:zoom="7.9195959"
     inkscape:cx="42.644077"
     inkscape:cy="16.921135"
     inkscape:document-units="mm"
     inkscape:current-layer="layer1"
     showgrid="false"
     inkscape:window-width="958"
     inkscape:window-height="1008"
     inkscape:window-x="-7"
     inkscape:window-y="0"
     inkscape:window-maximized="0" />
  <metadata
     id="metadata7067">
    <rdf:RDF>
      <cc:Work
         rdf:about="">
        <dc:format>image/svg+xml</dc:format>
        <dc:type
           rdf:resource="http://purl.org/dc/dcmitype/StillImage" />
        <dc:title></dc:title>
      </cc:Work>
    </rdf:RDF>
  </metadata>
  <g
     inkscape:label="Layer 1"
     inkscape:groupmode="layer"
     id="layer1"
     transform="translate(-151.74029,-33.651687)">
    <path
       inkscape:connector-curvature="0"
       style="fill:#aaaaaa;stroke-width:0.26458332"
       d="m 151.74035,44.885329 c 0.0802,-0.06085 0.23707,-0.0254 0.26855,-0.133879 0.0257,-0.08837 0.0664,-0.418571 0.005,-0.489479 -0.16192,-0.185473 0.44001,-0.465667 0.55775,-0.570971 0.032,0.133879 0.22807,0.153458 0.236,0.293952 0.0627,-0.06509 0.14605,-0.103981 0.21564,-0.159808 0.095,-0.07699 0.0553,-0.215371 0.13785,-0.302419 0.13996,0.185473 0.34978,-0.169598 0.51514,-0.08678 0.15769,0.07858 0.0122,0.1143 -0.0122,0.212989 -0.0273,0.111125 0.0431,0.232569 0.0431,0.344223 0.0701,-0.08996 0.22436,0.02381 0.31882,-0.0418 0.13891,-0.09657 0.22569,-0.280723 0.33179,-0.410369 0.0548,-0.06773 0.27834,-0.175154 0.28998,-0.236273 0.0315,-0.16166 0.1659,-0.200025 0.29925,-0.25691 0.31009,-0.132821 0.36565,-0.716756 0.35824,-0.995892 -0.006,-0.21246 0.0138,-0.404018 -0.013,-0.61595 -0.0257,-0.203729 0.18812,-0.286808 0.31617,-0.416454 0.30084,-0.3048 0.24448,-0.575733 0.59796,-0.897731 0.15452,-0.141023 0.27861,-0.255852 0.39317,-0.417513 0.11457,-0.16166 0.0317,-0.396875 0.0781,-0.581818 0.0407,-0.162719 0.16906,-0.31168 0.19579,-0.468313 0.0304,-0.175683 -0.0754,-0.392112 -0.0683,-0.575204 0.008,-0.20664 0.12753,-0.388144 0.1614,-0.589227 0.0328,-0.195263 -0.0241,-0.401638 0.0198,-0.594783 0.0825,-0.363273 0.33629,-0.657755 0.46064,-1.003565 0.0722,-0.201083 8e-4,-0.414867 -0.005,-0.620183 -0.003,-0.09393 0.0413,-0.193146 0.0265,-0.28575 -0.0135,-0.08229 -0.0624,-0.150813 -0.0849,-0.229923 -0.036,-0.125677 0.18362,-0.122502 0.23416,-0.237067 0.0696,-0.158221 0.14287,-0.297656 0.26273,-0.425185 0.11509,-0.123032 0.25903,-0.227807 0.43471,-0.226748 0.1487,0.0011 0.20849,0.129646 0.30348,0.150812 0.22093,0.04921 0.42598,0.287867 0.50879,0.490802 0.0672,0.165894 0.30533,0.04181 0.44,0.08255 0.073,0.0217 0.10901,0.120386 0.19289,0.116152 0.0743,-0.0037 0.0894,-0.0164 0.16642,0.02275 0.11589,0.059 0.13864,-5.3e-4 0.25215,-0.0077 0.0759,-0.0048 0.1598,0.03519 0.22886,0.06085 0.12568,0.04657 0.29713,0.137054 0.43418,0.0889 0.24448,-0.08625 0.1696,-0.671248 0.49557,-0.686329 0.18547,-0.0093 0.23521,0.366448 0.47757,0.137583 0.10239,-0.0971 0.80989,-0.190765 0.76676,-0.423333 0.14658,-0.0066 0.19579,0.194733 0.33629,0.180446 0.16907,-0.01693 0.45826,-0.04233 0.52863,-0.22278 0.0265,-0.0672 -0.0413,-0.134408 0.0476,-0.178858 0.10874,-0.05424 0.19817,-0.0217 0.2831,0.06138 0.136,0.13388 0.26194,-0.02381 0.41275,0.04763 0.0743,0.03572 0.13626,0.09155 0.20902,0.129117 0.0849,0.04392 0.14579,0.0066 0.23575,0.02011 0.21352,0.03202 0.2966,-0.205052 0.52202,-0.07752 0.0855,0.04868 0.38285,0.236273 0.38285,0.346869 0,0.05424 0.0704,0.188119 0.12303,0.209815 0.2212,0.09049 0.43233,0.416454 0.66861,0.193675 0.13388,-0.126736 0.23257,-0.151342 0.41037,-0.06509 0.18229,0.08943 0.30189,0.07144 0.363,-0.159279 0.0622,-0.234156 0.49821,0.425186 0.52335,0.467254 0.11404,0.191294 0.60351,0.253736 0.46725,0.551392 0.10743,-0.0254 0.23734,-0.03201 0.26406,0.104775 0.0138,0.03678 0.0323,0.07038 0.0561,0.101335 0.0154,0.07038 -0.091,0.190236 -0.10186,0.264584 -0.0148,0.09922 0.0524,0.170656 0.064,0.2667 0.0161,0.135466 -0.12647,0.241829 -0.11456,0.378354 0.0164,0.190235 0.56383,0.164835 0.47916,0.422275 -0.10107,0.306916 -0.46593,0.605631 -0.68501,0.832908 -0.14499,0.150283 -0.37279,0.274373 -0.4736,0.467254 -0.063,0.120386 0.0352,0.25744 -0.0413,0.380736 -0.0847,0.137054 -0.16906,0.343693 -0.18706,0.504825 -0.0161,0.144727 -0.0143,0.290512 -0.0243,0.435504 -0.0119,0.169598 -0.0926,0.317764 -0.10953,0.478631 -0.013,0.11774 0.0751,0.283104 0.0212,0.391319 -0.0614,0.122502 -0.19791,0.194733 -0.28786,0.293952 -0.13891,0.153987 -0.0852,0.261408 -0.0902,0.441854 -0.003,0.118798 -0.12541,0.183886 -0.1897,0.268817 -0.14182,0.187589 0.0373,0.380735 0.13361,0.566473 0.0722,0.139435 0.12753,0.170656 0.10795,0.334962 -0.0169,0.14314 0.005,0.287338 -0.006,0.432065 -0.0233,0.325173 0.21114,0.576791 0.15266,0.921808 -0.0611,0.362215 0.003,0.602986 0.13759,0.948796 0.0799,0.205581 -0.0331,0.283633 -0.0526,0.475985 -0.0164,0.160602 0.0177,0.369094 0.10927,0.503767 0.18759,0.27596 0.50377,0.38391 0.60695,0.725488 0.10187,0.337872 0.28125,0.645054 0.37359,0.983456 -0.54927,0.125148 -1.1123,0.176212 -1.66317,0.293952 0.22755,0.376767 -0.36327,0.532871 -0.47043,0.814917 0.31724,0.09763 0.21194,0.587639 0.1905,0.826822 -0.0159,0.174625 0.0503,0.338932 0.0402,0.511705 -0.006,0.09049 -0.0566,0.134408 -0.0929,0.21246 -0.0521,0.113242 -0.0572,0.240242 -0.086,0.359569 -0.0572,0.234156 -0.13679,0.389202 0.0122,0.615421 0.10346,0.157691 0.27808,0.345281 0.41487,0.474398 0.0608,0.05847 0.36751,0.234156 0.42651,0.125677 0.0952,-0.174096 0.11747,-0.161132 0.31194,-0.234686 0,0.337873 -0.0111,0.677598 -0.0201,1.015471 -0.002,0.05212 0.0373,0.274902 -0.05,0.283633 -0.10266,0.01032 -0.12568,-0.10795 -0.0548,-0.164835 -0.15134,-0.186002 -0.4908,0.368035 -0.65114,0.01958 -0.0532,-0.115887 -0.077,-0.236802 -0.15531,-0.342106 -0.0445,-0.05953 -0.20558,-0.136525 -0.21934,-0.207169 -0.027,-0.137848 -0.0386,-0.298185 -0.21246,-0.303212 -0.14579,-0.0042 -0.20796,-0.156105 -0.34793,-0.173038 -0.11694,-0.01402 -0.18865,0.05318 -0.26961,-0.07541 -0.0624,-0.09975 -0.0537,-0.223838 -0.14525,-0.305329 -0.13018,-0.116682 -0.23866,-0.528109 -0.3519,-0.163777 -0.11721,0.375179 -0.29554,0.172508 -0.5887,0.182827 -0.19738,0.0071 -0.25479,-0.06085 -0.42121,-0.136525 -0.0114,-0.0053 -0.18627,-0.0471 -0.1913,-0.04604 -0.26564,0.0471 -0.3556,-0.341577 -0.26167,-0.525991 -0.16325,0.0093 -0.32544,0.04921 -0.47969,0.101864 -0.18865,0.06456 -0.2376,0.119327 -0.4363,0.07594 0.0937,-0.08784 0.12065,-0.239184 0.0156,-0.332317 -0.0709,-0.06244 -0.16298,0.0098 -0.15531,-0.09604 0.0103,-0.135467 -0.15981,-0.06297 -0.19791,-0.02064 -0.0926,0.101864 -0.18706,0.05953 -0.304,0.02884 -0.14076,-0.03625 -0.22649,0.04657 -0.35322,0.0852 -0.12039,0.03678 -0.22225,-0.03678 -0.33946,-0.01191 -0.037,0.0077 -0.21193,-0.0098 -0.21643,-0.0077 -0.10028,0.05424 -0.15134,0.205581 -0.28946,0.202142 0.031,-0.103453 -0.0312,-0.184944 -0.0495,-0.282575 -0.0251,-0.13388 0.0886,-0.147373 0.11774,-0.250032 0.0683,-0.238654 -0.0463,-0.663575 -0.1913,-0.855662 -0.17647,-0.234156 -0.25241,-0.380736 -0.23019,-0.683684 0.023,-0.313795 0.14817,-0.642408 0.0667,-0.954352 -0.0312,-0.118798 -0.11589,-0.222779 -0.1143,-0.34872 0.002,-0.14314 0.0651,-0.277019 0.0759,-0.418571 0.0177,-0.233627 -0.13335,-0.228865 -0.32306,-0.230452 -0.18018,-0.0016 -0.35904,0.01614 -0.53896,0.02381 -0.35824,0.01614 -0.27146,-0.06509 -0.20875,-0.377296 -0.0825,0 -0.17992,-0.03148 -0.26009,0 -0.0545,0.02117 10e-4,0.0553 -0.0291,0.08176 -0.0976,0.08361 -0.54637,0.01032 -0.67707,0.01032 0.0434,0.110596 -0.0635,0.239713 -0.045,0.357717 0.0156,0.09551 0.0452,0.247121 -0.10689,0.214577 0.0497,0.145256 -0.0384,0.289983 -0.008,0.436563 -0.0616,0 -0.52599,0.05741 -0.52864,-0.02434 -0.005,-0.134938 -0.27834,0.01244 -0.34396,0.01799 -0.0603,0.0053 -0.20822,-0.01799 -0.24897,0.04763 -0.0283,0.04604 -0.007,0.05424 -0.0807,0.06826 -0.0595,0.01138 -0.0471,-0.101335 -0.12541,-0.05159 -0.0585,0.03625 -0.19447,0.04868 -0.26114,0.03519 -0.21246,-0.04445 -0.27808,-0.51779 -0.38444,-0.673365 -0.0378,-0.05477 -0.0931,-0.09446 -0.13177,-0.148696 -0.0714,-0.100806 -0.0175,-0.173037 -0.0325,-0.280722 -0.0267,-0.191823 -0.17092,-0.332317 -0.19288,-0.535782 -0.0159,-0.148431 -0.0378,-0.284162 -0.081,-0.426243 -0.0556,-0.182828 -0.1487,-0.189707 -0.33496,-0.194734 -0.51197,-0.01402 -1.01971,0.02011 -1.53062,0.03678 -0.41328,0.01296 -0.89641,0.02328 -1.30149,-0.05477 -0.32411,-0.06324 -0.59293,0.419893 -0.78422,-0.06773 z"
       id="cd" />
  </g>
</svg>
