<?xml version="1.0" encoding="UTF-8" standalone="no"?>
<!-- Created with Inkscape (http://www.inkscape.org/) -->

<svg
   xmlns:dc="http://purl.org/dc/elements/1.1/"
   xmlns:cc="http://creativecommons.org/ns#"
   xmlns:rdf="http://www.w3.org/1999/02/22-rdf-syntax-ns#"
   xmlns:svg="http://www.w3.org/2000/svg"
   xmlns="http://www.w3.org/2000/svg"
   xmlns:sodipodi="http://sodipodi.sourceforge.net/DTD/sodipodi-0.dtd"
   xmlns:inkscape="http://www.inkscape.org/namespaces/inkscape"
   width="4.0420499mm"
   height="5.3041034mm"
   viewBox="0 0 4.0420499 5.304103"
   version="1.1"
   id="svg7070"
   inkscape:version="0.92.4 (5da689c313, 2019-01-14)"
   sodipodi:docname="democratic_peoples_republic_of_korea.svg">
  <defs
     id="defs7064" />
  <sodipodi:namedview
     id="base"
     pagecolor="#ffffff"
     bordercolor="#666666"
     borderopacity="1.0"
     inkscape:pageopacity="0.0"
     inkscape:pageshadow="2"
     inkscape:zoom="5.6"
     inkscape:cx="13.079002"
     inkscape:cy="3.6102948"
     inkscape:document-units="mm"
     inkscape:current-layer="layer1"
     showgrid="false"
     inkscape:window-width="958"
     inkscape:window-height="1008"
     inkscape:window-x="-7"
     inkscape:window-y="0"
     inkscape:window-maximized="0" />
  <metadata
     id="metadata7067">
    <rdf:RDF>
      <cc:Work
         rdf:about="">
        <dc:format>image/svg+xml</dc:format>
        <dc:type
           rdf:resource="http://purl.org/dc/dcmitype/StillImage" />
        <dc:title />
      </cc:Work>
    </rdf:RDF>
  </metadata>
  <g
     inkscape:label="Layer 1"
     inkscape:groupmode="layer"
     id="layer1"
     transform="translate(-158.51379,-27.817563)">
    <path
       style="fill:#ffffff;stroke-width:0.26458332"
       inkscape:connector-curvature="0"
       id="kp"
       d="m 158.51379,30.685372 c 0.0508,-0.106891 0.12462,-0.194469 0.1868,-0.293687 0.0452,-0.07197 0.15478,-0.03281 0.17092,-0.108215 0.0336,-0.155839 0.34713,-0.148167 0.34713,-0.304006 0,-0.09419 0.10134,-0.05027 0.15743,-0.06641 0.1008,-0.0291 0.0958,-0.20955 0.16245,-0.278077 0.15002,-0.154516 -0.0487,-0.45667 0.0942,-0.537104 0.0566,-0.03175 0.0828,-0.118533 0.16193,-0.07911 0.11218,0.05636 0.19314,0.15531 0.30242,0.216429 0.19341,0.108215 0.40454,0.119592 0.61965,0.137848 0.11906,0.01005 0.36301,0.02646 0.27623,-0.166952 -0.0376,-0.08387 -0.14579,-0.0971 -0.21008,-0.151342 -0.0871,-0.07329 -0.15108,-0.169598 -0.21828,-0.260085 0.18811,-0.04815 0.40269,-0.03043 0.5961,-0.04842 0.2548,-0.02355 0.11721,-0.184944 0.16854,-0.313531 0.0444,-0.111125 0.20135,-0.03731 0.2839,-0.07408 0.11906,-0.05318 -0.0831,-0.456141 -0.10742,-0.539485 0.17912,-0.01032 0.33046,0.02752 0.41592,0.182562 0.12277,0.222515 0.47228,0.282311 0.63421,0.48948 -0.0754,0.05636 -0.13944,-0.02725 -0.21987,-0.0127 -0.0479,0.0087 -0.0783,0.141816 -0.0926,0.1778 -0.0537,0.138112 -0.1905,0.37412 -0.15187,0.528373 0.027,0.108479 0.59213,0.655902 0.34184,0.779991 -0.0831,0.04075 -0.18627,0.07514 -0.22993,0.165365 -0.0278,0.05768 0.0246,0.136525 -0.0238,0.183356 -0.0704,0.06906 -0.14684,0.07223 -0.20082,0.167481 -0.0421,0.07461 -0.0704,0.163248 -0.1352,0.222779 -0.0746,0.06826 -0.18097,0.04895 -0.26882,0.08626 -0.0757,0.03254 -0.12858,0.0971 -0.18785,0.151606 -0.0802,0.07382 -0.15981,0.109537 -0.055,0.194733 0.0865,0.07091 0.10266,0.210609 0.12303,0.313267 -0.0392,-0.135731 -0.0876,-0.06138 -0.0786,0.03545 0.0175,0.185208 0.21828,0.111919 0.34448,0.189971 0.18865,0.116946 0.82021,0.368829 0.78899,0.637117 -0.0455,0.393435 -0.79004,-0.02196 -0.97843,0.283104 -0.0672,0.109008 -0.0423,0.415131 -0.17224,0.392906 -0.0677,-0.01164 -0.44027,-0.135202 -0.30004,0.06668 -0.077,-0.0471 -0.22225,-0.07514 -0.28178,-0.128852 -0.0937,-0.08414 -0.19235,-0.151606 -0.32279,-0.156898 0.0516,0.04075 0.10768,0.07435 0.16801,0.100806 -0.0855,0.0087 -0.10001,0.160867 -0.21008,0.251884 -0.0725,-0.112713 0.0706,-0.06509 0.0585,-0.134144 -0.0164,-0.09446 -0.13996,-0.138113 -0.13414,-0.0085 -0.0659,-0.142346 -0.25691,-0.0029 -0.33629,-0.142875 0.19421,0 -0.0511,-0.144462 0.15187,-0.07567 -0.10556,-0.110596 -0.32014,-0.04974 -0.45428,-0.07567 0.018,-0.06959 0.0743,-0.101864 0.14261,-0.07541 -0.16484,-0.11086 -0.0117,-0.285221 -0.12621,-0.411956 0.12303,0.08969 0.0654,-0.07567 0.21987,-0.0844 0.0947,-0.0056 0.21854,0.009 0.30189,0.05953 -0.10293,-0.213519 -0.51859,0.0029 -0.52361,-0.302419 -0.002,-0.12012 0.0622,-0.296068 0.0294,-0.408516 -0.0333,-0.114565 -0.15214,-0.101865 -0.1024,-0.247386 -0.21114,0.135996 -0.47096,-0.118004 -0.6559,-0.19341 0.0413,0.06085 0.0354,0.116946 -0.0172,0.168275 -0.0254,-0.113506 -0.127,-0.160338 -0.22384,-0.202406 -0.054,-0.02355 -0.31485,-0.210873 -0.12065,-0.217752 -0.036,-0.02778 -0.0722,-0.05583 -0.10821,-0.08361 z" />
  </g>
</svg>
