<?xml version="1.0" encoding="UTF-8" standalone="no"?>
<!-- Created with Inkscape (http://www.inkscape.org/) -->

<svg
   xmlns:dc="http://purl.org/dc/elements/1.1/"
   xmlns:cc="http://creativecommons.org/ns#"
   xmlns:rdf="http://www.w3.org/1999/02/22-rdf-syntax-ns#"
   xmlns:svg="http://www.w3.org/2000/svg"
   xmlns="http://www.w3.org/2000/svg"
   xmlns:sodipodi="http://sodipodi.sourceforge.net/DTD/sodipodi-0.dtd"
   xmlns:inkscape="http://www.inkscape.org/namespaces/inkscape"
   width="5.2231588mm"
   height="3.0001104mm"
   viewBox="0 0 5.2231586 3.0001107"
   version="1.1"
   id="svg7070"
   inkscape:version="0.92.4 (5da689c313, 2019-01-14)"
   sodipodi:docname="denmark.svg">
  <defs
     id="defs7064" />
  <sodipodi:namedview
     id="base"
     pagecolor="#ffffff"
     bordercolor="#666666"
     borderopacity="1.0"
     inkscape:pageopacity="0.0"
     inkscape:pageshadow="2"
     inkscape:zoom="1.4"
     inkscape:cx="96.65945"
     inkscape:cy="-126.07423"
     inkscape:document-units="mm"
     inkscape:current-layer="layer1"
     showgrid="false"
     inkscape:window-width="958"
     inkscape:window-height="1008"
     inkscape:window-x="-7"
     inkscape:window-y="0"
     inkscape:window-maximized="0" />
  <metadata
     id="metadata7067">
    <rdf:RDF>
      <cc:Work
         rdf:about="">
        <dc:format>image/svg+xml</dc:format>
        <dc:type
           rdf:resource="http://purl.org/dc/dcmitype/StillImage" />
        <dc:title />
      </cc:Work>
    </rdf:RDF>
  </metadata>
  <g
     inkscape:label="Layer 1"
     inkscape:groupmode="layer"
     id="layer1"
     transform="translate(-146.07002,-43.283605)">
    <g
       transform="matrix(0.26458333,0,0,0.26458333,69.094519,-20.236503)"
       id="dk"
       style="fill:#ffffff">
      <path
         style="fill:#ffffff"
         inkscape:connector-curvature="0"
         d="m 295.435,249.732 c 0.221,0.145 0.432,0.924 0.86,0.635 0.446,-0.3 -0.544,-0.817 -0.86,-0.635 z"
         id="path4494" />
      <path
         style="fill:#ffffff"
         inkscape:connector-curvature="0"
         d="m 291.115,244.205 c 0.043,-0.106 0.085,-0.211 0.128,-0.318 0.184,0.204 0.735,0.534 1.019,0.35 0.122,0.534 0.476,0.34 0.565,-0.046 0.214,-0.93 1.524,-0.512 0.829,-0.176 0.287,0.028 0.725,-0.054 0.702,0.381 0.102,-0.4 0.106,-0.583 -0.318,-0.54 -0.019,-0.325 -0.107,-0.81 0.182,-1.056 0.188,-0.122 0.396,-0.17 0.622,-0.146 0.358,0.021 0.56,-0.131 0.873,-0.131 0.381,0 0.621,0.017 0.978,0.159 0.436,0.174 0.303,0.717 0.522,1.047 -0.444,-0.042 -0.865,0.094 -1.271,0.254 0.411,0.008 0.697,-0.306 1.12,-0.125 0.25,0.107 -0.248,0.581 -0.264,0.761 0.109,-0.598 1.701,-0.283 2.013,-0.034 0.265,0.211 -0.264,1.033 -0.532,1.032 -0.276,-10e-4 -0.39,-0.027 -0.498,0.305 -0.327,-0.075 -0.393,-0.3 -0.159,-0.541 -0.607,-0.202 -0.581,0.312 -0.608,0.742 -0.044,0.694 -0.574,0.56 -1.072,0.688 0.186,0.018 0.551,0.223 0.338,0.466 -0.27,0.306 -0.831,0.046 -1.167,0.106 0.234,0.084 0.468,0.168 0.701,0.254 -0.553,0.567 -0.801,0.24 -0.425,1.089 0.228,0.515 -0.703,0.5 -0.686,1.007 0.438,-0.049 0.968,0.213 0.856,0.731 -0.32,-0.02 -0.288,-0.347 -0.591,-0.11 -0.326,0.254 -0.681,0.183 -1.034,0.072 -0.485,-0.152 -1.689,-0.05 -1.423,-0.883 -0.256,0.097 -0.452,-0.046 -0.538,-0.286 1.486,0.001 -0.323,-1.23 -0.415,-1.461 -0.067,0.696 -0.434,0.031 -0.469,-0.279 -0.045,-0.391 0.038,-0.795 -0.038,-1.182 0.038,0.292 0.567,0.818 0.733,0.318 0.078,-0.237 -0.836,-1.249 -0.702,-0.413 -0.27,-0.526 -0.139,-1.495 0.029,-2.035 z"
         id="path4548" />
      <path
         style="fill:#ffffff"
         inkscape:connector-curvature="0"
         d="m 292.544,243.887 c 0.447,-0.103 0.741,-0.568 0.635,-1.017 -0.168,0.12 -0.353,0.208 -0.553,0.261 -0.2,0.06 -0.153,0.415 -0.4,0.501 0.096,0.098 0.202,0.183 0.318,0.255 z"
         id="path4492" />
      <path
         style="fill:#ffffff"
         inkscape:connector-curvature="0"
         d="m 295.469,248.048 c 0.01,0.535 0.716,0.872 0.825,1.398 0,-0.463 0.305,-0.232 0.386,0.045 0.066,0.229 1.025,0.258 1.186,0.229 0.83,-0.148 0.951,-1.325 0.078,-1.514 0.108,-0.061 0.213,-0.124 0.318,-0.19 -0.073,-0.134 -0.167,-0.25 -0.282,-0.35 0.025,0.318 -0.197,0.619 -0.543,0.572 0.625,-0.696 -1.709,-0.204 -1.968,-0.19 z"
         id="path4496" />
      <path
         style="fill:#ffffff"
         inkscape:connector-curvature="0"
         d="m 297.437,250.526 c 0.042,-0.34 -0.413,-0.455 -0.635,-0.572 0.192,0.212 0.404,0.402 0.635,0.572 z"
         id="path4498" />
      <path
         style="fill:#ffffff"
         inkscape:connector-curvature="0"
         d="m 297.694,249.891 c 0.126,0.031 0.253,0.063 0.379,0.095 0.017,-0.369 -0.181,-0.267 -0.379,-0.095 z"
         id="path4500" />
      <path
         style="fill:#ffffff"
         inkscape:connector-curvature="0"
         d="m 298.14,246.683 c -0.187,-0.031 -0.315,-0.137 -0.384,-0.317 0.184,0.221 0.174,0.432 -0.031,0.634 0.254,0.063 0.404,-0.059 0.415,-0.317 z"
         id="path4502" />
      <path
         style="fill:#ffffff"
         inkscape:connector-curvature="0"
         d="m 298.292,250.113 c -0.242,0.221 -0.245,0.537 0.036,0.73 0.144,-0.392 0.61,-0.851 0.41,-1.302 -0.09,0.237 -0.237,0.428 -0.446,0.572 z"
         id="path4504" />
      <path
         style="fill:#ffffff"
         inkscape:connector-curvature="0"
         d="m 298.995,241.918 c 0.177,-0.05 0.283,-0.167 0.318,-0.35 -0.248,-0.008 -0.461,0.077 -0.636,0.254 0.107,0.032 0.213,0.064 0.318,0.096 z"
         id="path4506" />
      <path
         style="fill:#ffffff"
         inkscape:connector-curvature="0"
         d="m 299.345,248.62 c 0.293,0.104 0.33,0.413 0.555,0.527 0.205,0.104 0.559,0.017 0.777,-0.001 0.627,-0.051 0.768,0.649 0.225,0.459 0.139,0.027 0.591,0.164 0.611,0.348 -0.079,0.096 -0.188,0.118 -0.324,0.065 -0.01,0.26 0.4,1.185 0.538,1.397 0.089,-0.24 0.529,-0.709 0.524,-0.932 -0.008,-0.275 -0.488,-0.349 -0.586,-0.593 0.242,0.099 0.485,0.099 0.729,0 -0.375,-0.526 0.055,-0.726 0.504,-0.891 0.547,-0.199 -0.058,-0.484 -0.256,-0.682 -0.434,-0.433 0.4,-0.634 0.64,-0.8 0.552,-0.381 -0.211,-0.981 0.29,-1.344 -0.609,-0.604 -1.298,-0.129 -1.938,0.127 0.47,0.188 0.734,1.206 0.031,1.239 0.183,-0.262 0.359,-0.566 0.189,-0.89 -0.131,0.088 -0.484,0.914 -0.664,0.8 -0.292,-0.187 -0.205,-0.839 -0.037,-0.863 -0.258,-0.211 -0.711,-0.163 -1.015,-0.127 0.164,-0.039 0.271,0.007 0.319,0.137 -0.137,0.567 -1.204,0.679 -1.621,0.657 0.205,0.232 1.406,1.311 0.509,1.367 z"
         id="path4508" />
      <path
         style="fill:#ffffff"
         inkscape:connector-curvature="0"
         d="m 299.058,250.622 c 0.426,0.3 1.959,0.947 2.384,0.417 0.479,-0.597 -0.474,-0.619 -0.776,-0.578 -0.592,0.081 -0.879,-0.692 -1.479,-0.252 0.072,0.107 0.146,0.212 0.221,0.318 -0.118,0.031 -0.234,0.063 -0.35,0.095 z"
         id="path4510" />
      <path
         style="fill:#ffffff"
         inkscape:connector-curvature="0"
         d="m 302.429,249.922 c -0.032,0.127 -0.064,0.254 -0.098,0.381 0.128,-0.04 1.158,-0.251 1.053,-0.445 -0.112,-0.207 -0.781,0.051 -0.955,0.064 z"
         id="path4512" />
      <path
         style="fill:#ffffff"
         inkscape:connector-curvature="0"
         d="m 303.344,247.636 c 0.149,0.358 0.267,0.337 0.353,-0.064 -0.118,0.021 -0.235,0.042 -0.353,0.064 z"
         id="path4514" />
      <path
         style="fill:#ffffff"
         inkscape:connector-curvature="0"
         d="m 310.334,249.192 c -0.425,-0.337 -1.154,0.044 -0.634,0.434 0.831,0.624 1.349,-0.355 0.634,-0.434 z"
         id="path4516" />
      <path
         style="fill:#ffffff"
         inkscape:connector-curvature="0"
         d="m 291.878,243.887 c -0.646,-0.404 -0.094,-1.114 0.33,-1.423 0.596,-0.435 1.579,-0.213 2.271,-0.282 0.615,-0.061 0.934,-0.713 1.287,-1.132 0.393,-0.467 1.55,-0.777 2.148,-0.974 -0.716,0.636 0.129,1.065 -0.244,1.792 -0.413,0.804 -0.854,0.839 -1.668,0.59 -0.392,-0.12 -0.74,-0.035 -1.131,0.069 -0.436,0.114 -0.792,-0.064 -1.207,0.018 -0.37,0.074 -0.887,0.185 -1.145,0.488 -0.165,0.195 -0.314,0.805 -0.639,0.791 0.273,-0.046 0.428,0.105 0.384,0.381 -0.139,-0.095 -0.267,-0.201 -0.386,-0.318 z"
         id="path4550" />
    </g>
  </g>
</svg>
