<?xml version="1.0" encoding="UTF-8" standalone="no"?>
<!-- Created with Inkscape (http://www.inkscape.org/) -->

<svg
   xmlns:dc="http://purl.org/dc/elements/1.1/"
   xmlns:cc="http://creativecommons.org/ns#"
   xmlns:rdf="http://www.w3.org/1999/02/22-rdf-syntax-ns#"
   xmlns:svg="http://www.w3.org/2000/svg"
   xmlns="http://www.w3.org/2000/svg"
   xmlns:sodipodi="http://sodipodi.sourceforge.net/DTD/sodipodi-0.dtd"
   xmlns:inkscape="http://www.inkscape.org/namespaces/inkscape"
   width="1.441775mm"
   height="1.7810789mm"
   viewBox="0 0 1.441775 1.7810783"
   version="1.1"
   id="svg7070"
   inkscape:version="0.92.4 (5da689c313, 2019-01-14)"
   sodipodi:docname="djibouti.svg">
  <defs
     id="defs7064" />
  <sodipodi:namedview
     id="base"
     pagecolor="#ffffff"
     bordercolor="#666666"
     borderopacity="1.0"
     inkscape:pageopacity="0.0"
     inkscape:pageshadow="2"
     inkscape:zoom="7.9195959"
     inkscape:cx="18.383301"
     inkscape:cy="-11.049623"
     inkscape:document-units="mm"
     inkscape:current-layer="layer1"
     showgrid="false"
     inkscape:window-width="958"
     inkscape:window-height="1008"
     inkscape:window-x="-7"
     inkscape:window-y="0"
     inkscape:window-maximized="0" />
  <metadata
     id="metadata7067">
    <rdf:RDF>
      <cc:Work
         rdf:about="">
        <dc:format>image/svg+xml</dc:format>
        <dc:type
           rdf:resource="http://purl.org/dc/dcmitype/StillImage" />
        <dc:title />
      </cc:Work>
    </rdf:RDF>
  </metadata>
  <g
     inkscape:label="Layer 1"
     inkscape:groupmode="layer"
     id="layer1"
     transform="translate(-157.65153,-30.764134)">
    <path
       style="fill:#ffffff;stroke-width:0.26458332"
       inkscape:connector-curvature="0"
       id="dj"
       d="m 157.6846,32.461969 c 0,-0.270669 -0.10504,-0.540279 0.0593,-0.785019 0.12356,-0.184149 0.23707,-0.351366 0.34422,-0.545041 0.12515,-0.225954 0.18812,-0.104775 0.36724,-0.05689 0.0908,0.02434 0.0857,-0.117739 0.12145,-0.164835 0.055,-0.07276 0.15055,-0.101865 0.22622,-0.14605 0.078,0.17145 0.4056,0.490802 0.24791,0.690827 -0.081,0.102923 -0.33364,0.219869 -0.45429,0.267758 -0.12409,0.04895 -0.13996,0.195263 -0.28151,0.218282 0.0931,0.119327 0.36988,-0.07752 0.50429,-0.0254 0.24315,0.09393 8e-4,0.332052 -0.064,0.465666 -0.0979,0.201877 -0.2532,-0.0085 -0.40507,0.03122 -0.15611,0.04128 -0.56224,0.244475 -0.6657,0.04948 z" />
  </g>
</svg>
