<?xml version="1.0" encoding="UTF-8" standalone="no"?>
<!-- Created with Inkscape (http://www.inkscape.org/) -->

<svg
   xmlns:dc="http://purl.org/dc/elements/1.1/"
   xmlns:cc="http://creativecommons.org/ns#"
   xmlns:rdf="http://www.w3.org/1999/02/22-rdf-syntax-ns#"
   xmlns:svg="http://www.w3.org/2000/svg"
   xmlns="http://www.w3.org/2000/svg"
   xmlns:sodipodi="http://sodipodi.sourceforge.net/DTD/sodipodi-0.dtd"
   xmlns:inkscape="http://www.inkscape.org/namespaces/inkscape"
   width="3.2031503mm"
   height="2.3247836mm"
   viewBox="0 0 3.2031503 2.3247835"
   version="1.1"
   id="svg7070"
   inkscape:version="0.92.4 (5da689c313, 2019-01-14)"
   sodipodi:docname="dominican_republic.svg">
  <defs
     id="defs7064" />
  <sodipodi:namedview
     id="base"
     pagecolor="#ffffff"
     bordercolor="#666666"
     borderopacity="1.0"
     inkscape:pageopacity="0.0"
     inkscape:pageshadow="2"
     inkscape:zoom="1.4"
     inkscape:cx="-21.24652"
     inkscape:cy="-86.851037"
     inkscape:document-units="mm"
     inkscape:current-layer="layer1"
     showgrid="false"
     inkscape:window-width="958"
     inkscape:window-height="1008"
     inkscape:window-x="-7"
     inkscape:window-y="0"
     inkscape:window-maximized="0" />
  <metadata
     id="metadata7067">
    <rdf:RDF>
      <cc:Work
         rdf:about="">
        <dc:format>image/svg+xml</dc:format>
        <dc:type
           rdf:resource="http://purl.org/dc/dcmitype/StillImage" />
        <dc:title />
      </cc:Work>
    </rdf:RDF>
  </metadata>
  <g
     inkscape:label="Layer 1"
     inkscape:groupmode="layer"
     id="layer1"
     transform="translate(-215.50507,-79.865231)">
    <g
       transform="matrix(0.26458333,0,0,0.26458333,209.14475,-21.27609)"
       id="do"
       style="fill:#ffffff">
      <path
         style="fill:#ffffff"
         inkscape:connector-curvature="0"
         d="m 24.548,389.401 c 0.142,-0.293 0.299,-0.852 0.112,-1.157 -0.161,-0.264 -0.41,-0.798 -0.621,-1.003 0.427,0.022 1.412,-0.664 0.93,-1.139 -0.464,-0.459 0.909,-0.733 0.35,-1.353 -0.182,-0.202 0.056,-0.663 0.113,-0.869 0.109,-0.394 -0.249,-0.81 -0.059,-1.182 0.44,-0.862 1.322,-0.04 1.854,-0.253 0.438,-0.176 0.878,-0.275 1.317,-0.041 0.437,0.233 0.874,0.267 1.291,0.476 0.383,0.19 0.586,0.38 1.035,0.39 0.458,0.011 0.526,-0.078 0.579,0.44 0.095,0.928 0.501,1.039 1.34,0.823 0.303,-0.078 0.7,-0.188 0.972,0.039 -0.128,0.424 -0.505,0.427 -0.872,0.365 -0.362,-0.061 -1.163,0.198 -0.471,0.395 0.291,0.082 1.462,0.531 1.724,0.41 0.758,-0.352 1.222,0.611 1.695,1.043 0.938,0.855 -0.546,1.271 -0.726,1.621 -0.31,0.6 -0.434,0.016 -0.701,-0.253 -0.256,-0.256 -0.542,-0.09 -0.858,-0.155 -0.221,-0.077 -0.449,-0.128 -0.682,-0.154 -0.274,0 -0.53,0.239 -0.796,0.073 -1.129,-0.704 -1.426,0.613 -2.289,0.771 -0.208,0.038 -0.893,0.175 -1.076,0.026 -0.254,-0.205 0.027,-0.661 -0.348,-0.838 -0.161,0.359 -0.576,0.317 -0.817,0.585 -0.202,0.224 -0.499,-0.13 -0.6,0.166 -0.329,0.973 -0.746,1.622 -1.412,2.426 -0.131,-0.296 -0.502,-0.434 -0.571,-0.763 -0.068,-0.321 -0.095,-0.698 -0.413,-0.889 z"
         id="path3372" />
      <path
         style="fill:#ffffff"
         inkscape:connector-curvature="0"
         d="m 35.189,389.148 c -0.228,-0.027 -0.439,-0.101 -0.635,-0.222 0.213,-0.051 0.565,-0.061 0.635,0.222 z"
         id="path3374" />
    </g>
  </g>
</svg>
