<?xml version="1.0" encoding="UTF-8" standalone="no"?>
<!-- Created with Inkscape (http://www.inkscape.org/) -->

<svg
   xmlns:dc="http://purl.org/dc/elements/1.1/"
   xmlns:cc="http://creativecommons.org/ns#"
   xmlns:rdf="http://www.w3.org/1999/02/22-rdf-syntax-ns#"
   xmlns:svg="http://www.w3.org/2000/svg"
   xmlns="http://www.w3.org/2000/svg"
   xmlns:sodipodi="http://sodipodi.sourceforge.net/DTD/sodipodi-0.dtd"
   xmlns:inkscape="http://www.inkscape.org/namespaces/inkscape"
   width="14.641431mm"
   height="6.4644132mm"
   viewBox="0 0 14.64143 6.4644133"
   version="1.1"
   id="svg7070"
   inkscape:version="0.92.4 (5da689c313, 2019-01-14)"
   sodipodi:docname="ecuador.svg">
  <defs
     id="defs7064" />
  <sodipodi:namedview
     id="base"
     pagecolor="#ffffff"
     bordercolor="#666666"
     borderopacity="1.0"
     inkscape:pageopacity="0.0"
     inkscape:pageshadow="2"
     inkscape:zoom="1.4"
     inkscape:cx="8.6907453"
     inkscape:cy="-38.059959"
     inkscape:document-units="mm"
     inkscape:current-layer="layer1"
     showgrid="false"
     inkscape:window-width="836"
     inkscape:window-height="1008"
     inkscape:window-x="-7"
     inkscape:window-y="0"
     inkscape:window-maximized="0" />
  <metadata
     id="metadata7067">
    <rdf:RDF>
      <cc:Work
         rdf:about="">
        <dc:format>image/svg+xml</dc:format>
        <dc:type
           rdf:resource="http://purl.org/dc/dcmitype/StillImage" />
        <dc:title />
      </cc:Work>
    </rdf:RDF>
  </metadata>
  <g
     inkscape:label="Layer 1"
     inkscape:groupmode="layer"
     id="layer1"
     transform="translate(-207.58416,-88.634909)">
    <g
       transform="matrix(0.26458333,0,0,0.26458333,219.85731,-31.161014)"
       id="ec"
       style="fill:#ffffff">
      <path
         style="fill:#ffffff"
         inkscape:connector-curvature="0"
         d="m -45.97,460.142 c 0.391,-0.082 0.484,-0.742 0.059,-0.844 -0.758,-0.181 -0.481,0.629 -0.059,0.844 z"
         id="path6588" />
      <path
         style="fill:#ffffff"
         inkscape:connector-curvature="0"
         d="m -46.319,458.238 c 0.553,0.105 0.563,0.438 0.718,0.891 0.193,0.568 0.711,0.945 0.901,1.521 -0.613,0.176 -1.795,1.01 -0.73,1.492 0.575,0.26 1.781,-0.207 1.882,-0.877 0.069,-0.465 -0.626,-0.488 -0.568,-0.871 0.092,-0.596 -0.397,-0.801 -0.673,-1.232 -0.492,-0.772 -0.449,-1.551 -1.53,-0.924 z"
         id="path6590" />
      <path
         style="fill:#ffffff"
         inkscape:connector-curvature="0"
         d="m -42.953,459.697 c 0.374,-0.441 -0.203,-0.793 -0.604,-0.793 -0.917,0 0.567,0.767 0.604,0.793 z"
         id="path6592" />
      <path
         style="fill:#ffffff"
         inkscape:connector-curvature="0"
         d="m -42.54,457.253 c 0.238,-0.311 0.175,-0.416 -0.191,-0.316 0.064,0.105 0.127,0.211 0.191,0.316 z"
         id="path6594" />
      <path
         style="fill:#ffffff"
         inkscape:connector-curvature="0"
         d="m -42.031,461.222 c 0.657,-0.18 0.645,-1.16 -0.127,-1.051 -0.784,0.114 -0.599,1.039 0.127,1.051 z"
         id="path6596" />
      <path
         style="fill:#ffffff"
         inkscape:connector-curvature="0"
         d="m -42.381,463.412 c 0.098,-0.098 0.182,-0.203 0.254,-0.318 -0.378,-0.341 -0.634,0.177 -0.254,0.318 z"
         id="path6598" />
      <path
         style="fill:#ffffff"
         inkscape:connector-curvature="0"
         d="m -39.331,461.919 c 0.361,-0.031 1.021,-0.662 0.73,-1.051 -0.334,0.067 -1.056,0.659 -0.73,1.051 z"
         id="path6600" />
      <path
         style="fill:#ffffff"
         inkscape:connector-curvature="0"
         d="m -6.583,468.333 c 0.12,-0.215 0.109,-0.426 -0.032,-0.635 -0.075,0.218 -0.065,0.428 0.032,0.635 z"
         id="path4798" />
      <path
         style="fill:#ffffff"
         inkscape:connector-curvature="0"
         d="m -7.09,468.433 c -0.352,0.039 -0.723,0.299 -0.854,0.633 -0.047,0.121 0.062,0.945 0.317,0.74 0.088,-0.07 0.258,-0.504 0.257,-0.613 -0.001,-0.184 0.507,-0.363 0.628,-0.57 -0.115,-0.063 -0.232,-0.125 -0.348,-0.19 z"
         id="path6602" />
      <path
         style="fill:#ffffff"
         inkscape:connector-curvature="0"
         d="m -10.331,466.619 c 0.68,0.221 0.693,-0.797 0.655,-1.207 -0.031,-0.328 -0.173,-0.576 -0.284,-0.883 -0.189,-0.518 0.391,-0.904 0.185,-1.404 -0.226,-0.547 -0.835,-1.279 0.175,-1.377 0.421,-0.041 0.585,-0.211 0.667,-0.621 0.106,-0.531 0.39,-0.41 0.826,-0.477 -0.738,-0.07 -0.812,-1.029 -0.366,-1.477 0.68,-0.68 1.137,-1.158 1.194,-2.174 0.016,-0.289 -0.416,-1.604 -0.142,-1.768 0.305,-0.184 1.494,-1.074 1.506,-0.203 -0.189,-0.523 0.461,-0.762 0.838,-0.891 0.396,-0.135 1.247,-0.666 1.322,-0.158 0.163,-0.414 0.33,-0.854 0.604,-1.207 0.895,0.816 2.262,2.32 3.584,2.312 0.411,-0.004 0.428,0.498 0.822,0.621 0.527,0.168 0.063,1.221 0.981,1.211 0.688,-0.008 1.228,0.326 1.951,0.336 0.239,0.004 0.761,0.309 0.864,-0.113 0.033,-0.133 -0.212,-0.266 -0.032,-0.354 0.667,-0.328 1.168,0.242 1.551,0.707 0.592,0.717 1.394,0.736 2.127,1.219 -0.384,0.094 -0.763,0.029 -1.144,-0.035 -0.046,0.266 0.785,1.061 0.943,1.273 0.475,0.635 0.131,1.277 0.455,2.031 -0.25,0.037 -0.461,-0.037 -0.635,-0.221 -0.465,2.531 -1.944,4.752 -4.08,6.234 -1.024,0.711 -2.346,0.912 -3.475,1.41 -0.571,0.252 -0.897,0.625 -1.264,1.109 -0.139,0.139 -0.259,0.291 -0.361,0.459 -0.075,0.268 0.087,0.416 -0.127,0.666 -0.216,-1.027 -0.663,0.971 -0.72,1.072 -0.347,0.613 -0.687,1.48 -0.648,2.197 0.046,0.857 -0.581,0.826 -0.794,1.498 -0.219,0.689 -0.173,0.816 -0.828,0.799 -0.793,-0.021 -0.989,-0.9 -1.238,-1.479 -0.322,-0.746 -0.681,-0.166 -1.171,-0.436 -0.344,-0.188 -0.722,-0.896 -1.156,-0.461 -0.59,0.59 -1.209,0.428 -0.59,-0.395 -0.453,-0.064 -0.549,-0.643 -0.218,-0.914 0.198,-0.162 0.554,-0.059 0.773,-0.234 0.348,-0.275 -0.158,-1.984 -0.555,-2.156 0.496,-0.258 0.904,-0.119 1.207,-0.689 0.263,-0.492 0.318,-1.059 0.479,-1.584 0.198,-0.65 0.211,-0.68 -0.003,-1.283 -0.204,-0.576 -0.276,-1.141 0.127,-1.654 -0.713,0.346 -0.259,1.137 -0.365,1.723 -0.173,0.959 -0.834,0.104 -0.143,0.057 -0.346,-0.023 -0.376,-0.314 -0.254,-0.57 -0.23,0.234 -1.032,1.205 -0.857,1.559 -0.523,-0.359 -0.906,-0.928 -1.466,-1.23 -0.396,-0.209 -0.841,-0.329 -0.92,-0.838 z"
         id="path6790" />
    </g>
  </g>
</svg>
