<?xml version="1.0" encoding="UTF-8" standalone="no"?>
<!-- Created with Inkscape (http://www.inkscape.org/) -->

<svg
   xmlns:dc="http://purl.org/dc/elements/1.1/"
   xmlns:cc="http://creativecommons.org/ns#"
   xmlns:rdf="http://www.w3.org/1999/02/22-rdf-syntax-ns#"
   xmlns:svg="http://www.w3.org/2000/svg"
   xmlns="http://www.w3.org/2000/svg"
   xmlns:sodipodi="http://sodipodi.sourceforge.net/DTD/sodipodi-0.dtd"
   xmlns:inkscape="http://www.inkscape.org/namespaces/inkscape"
   width="9.8382034mm"
   height="10.01747mm"
   viewBox="0 0 9.8382036 10.017467"
   version="1.1"
   id="svg7070"
   inkscape:version="0.92.4 (5da689c313, 2019-01-14)"
   sodipodi:docname="egypt.svg">
  <defs
     id="defs7064" />
  <sodipodi:namedview
     id="base"
     pagecolor="#ffffff"
     bordercolor="#666666"
     borderopacity="1.0"
     inkscape:pageopacity="0.0"
     inkscape:pageshadow="2"
     inkscape:zoom="7.9195959"
     inkscape:cx="37.182345"
     inkscape:cy="-9.0521097"
     inkscape:document-units="mm"
     inkscape:current-layer="layer1"
     showgrid="false"
     inkscape:window-width="958"
     inkscape:window-height="1008"
     inkscape:window-x="-7"
     inkscape:window-y="0"
     inkscape:window-maximized="0" />
  <metadata
     id="metadata7067">
    <rdf:RDF>
      <cc:Work
         rdf:about="">
        <dc:format>image/svg+xml</dc:format>
        <dc:type
           rdf:resource="http://purl.org/dc/dcmitype/StillImage" />
        <dc:title />
      </cc:Work>
    </rdf:RDF>
  </metadata>
  <g
     inkscape:label="Layer 1"
     inkscape:groupmode="layer"
     id="layer1"
     transform="translate(-151.99606,-29.832808)">
    <path
       style="fill:#ffffff;stroke-width:0.26458332"
       inkscape:connector-curvature="0"
       id="eg"
       d="m 152.04373,31.496773 c -0.16642,-0.266436 0.15822,-0.54319 0.13415,-0.818357 -0.0281,-0.323056 -0.2548,-0.598487 0.1098,-0.845608 0.009,0.213519 0.25797,0.137054 0.38682,0.09869 0.23601,-0.07038 0.42915,0.0079 0.66384,0.03148 0.25638,0.02567 0.50218,0.08255 0.75089,0.14896 0.10477,0.02778 0.12144,0.142082 0.2278,0.17489 0.0945,0.0291 0.16696,0.0172 0.26062,0.0074 0.063,-0.0066 0.0923,0.09181 0.16298,0.106363 0.078,0.01614 0.15769,0.0164 0.23627,0.02434 0.25242,0.02514 0.42122,0.183357 0.65776,0.223044 0.22886,0.03836 0.44794,-0.115887 0.61224,-0.256116 0.0852,-0.0725 0.16431,-0.151342 0.24236,-0.231775 0.0672,0.05212 0.11748,0.105833 0.20214,0.0926 -0.0482,-0.02434 -0.0378,-0.0381 -0.1016,-0.0336 0.0828,-0.04392 0.16563,-0.123561 0.18574,-0.218546 0.14288,0.08546 0.27755,-0.068 0.42016,-0.06694 -0.096,0.04419 -0.18812,0.09895 -0.26141,0.176477 0.0254,-0.01508 0.60458,-0.190235 0.32809,-0.210079 0.20452,-0.068 0.33734,0.166423 0.53392,0.138377 0.0939,-0.01323 0.1823,-0.105833 0.28205,-0.07144 0.0926,0.03228 0.13626,0.166423 0.21802,0.218546 -0.0828,-0.05821 -0.16801,-0.186003 -0.27782,-0.193146 0.0325,0.08705 -0.0876,0.251618 0.0542,0.285485 0.15399,0.03704 0.082,0.07488 0.18177,0.168275 0,-0.0344 0.27491,-0.150283 0.0759,-0.243681 0.21167,0.04921 0.28204,0.244475 0.53049,0.223044 0.0804,-0.0071 0.31803,-0.15584 0.27596,0.02064 0.15399,-0.0979 0.32676,-0.04075 0.49212,-0.09075 0.14579,-0.04366 0.22649,-0.04657 0.3437,-0.147902 0.15769,0.357187 0.33893,0.670719 0.48842,1.027112 0.0728,0.172773 0.36724,0.64823 0.23336,0.818357 -0.17965,0.228071 -0.0865,0.623887 -0.20082,0.894291 -0.0669,0.158221 -0.064,0.256646 -0.0624,0.423598 0.002,0.142875 -0.17992,0.280988 -0.1352,0.420423 -0.0868,-0.08017 -0.20294,-0.116152 -0.29845,-0.183356 -0.12171,-0.08493 -0.20664,-0.209021 -0.28999,-0.328877 -0.1053,-0.151871 -0.41354,-0.25109 -0.36909,-0.479425 0.045,-0.229923 -0.17674,-0.389467 -0.28998,-0.551392 -0.1569,-0.223837 -0.26882,-0.484452 -0.33232,-0.751416 -0.10504,0.113241 -0.21722,0.359833 -0.10742,0.489214 0.18785,0.221192 0.16854,0.492654 0.3257,0.721254 0.13626,0.197909 0.27464,0.440267 0.44503,0.609336 0.0754,0.07461 0.1614,0.138906 0.23019,0.220398 0.0363,0.0426 0.18388,0.286808 0.006,0.153458 0.14419,0.112977 0.0249,0.256381 0.11615,0.34925 0.12329,0.124883 0.18865,0.25691 0.2532,0.413808 0.0315,0.07726 0.0836,0.143404 0.12859,0.21299 0.0341,0.05318 -0.0341,0.120914 -0.0373,0.172773 -0.004,0.06959 0.10954,0.172244 0.1405,0.232304 0.0709,0.137054 0.14843,0.270669 0.22013,0.407723 0.23575,0.449262 0.47361,0.890587 0.69665,1.346994 0.0873,0.178593 0.21537,0.306387 0.32517,0.466989 0.10213,0.148961 0.28099,0.195263 0.37545,0.347134 -0.0894,0.005 -0.17992,-0.01058 -0.26009,-0.05027 -0.059,0.243946 0.0257,0.525198 0.0937,0.759883 0.0437,0.149225 -0.15531,0.417513 -0.32173,0.419894 -0.0868,0.0011 -0.18944,-0.07329 -0.23945,0.0418 -0.0386,0.09022 -0.0579,0.19341 -0.0878,0.287337 -0.0344,0.10848 -0.0852,0.203994 -0.20505,0.23204 -0.0968,0.02275 -0.30295,-0.01297 -0.35428,0.09816 -0.0939,0.203465 -0.0222,0.381794 -0.30771,0.418042 -0.27014,0.0344 -0.36724,-0.236537 -0.59584,-0.284691 -0.4609,-0.0979 -0.96467,0.09207 -1.43589,0.01085 0.013,-0.04551 0.0659,-0.142081 0.0333,-0.188912 -0.0823,-0.118798 -0.14525,0.09631 -0.17224,0.135202 -0.10874,0.15584 -0.65299,0.06218 -0.82762,0.06218 -0.62785,0 -1.25571,0 -1.88383,0 -0.62733,0 -1.25439,0 -1.88172,0 -0.27807,0 -0.61092,0.0508 -0.88397,-0.0029 -0.0717,-0.01402 -0.0593,-0.628915 -0.0619,-0.710671 -0.0447,-1.258623 -0.0606,-2.52095 -0.0947,-3.780367 -0.0169,-0.613833 -0.003,-1.227931 -0.0397,-1.8415 -0.0175,-0.295539 -0.0103,-0.605631 -0.0511,-0.898525 -0.0344,-0.251619 -0.0992,-0.624417 -0.21246,-0.851164 z" />
  </g>
</svg>
