<?xml version="1.0" encoding="UTF-8" standalone="no"?>
<!-- Created with Inkscape (http://www.inkscape.org/) -->

<svg
   xmlns:dc="http://purl.org/dc/elements/1.1/"
   xmlns:cc="http://creativecommons.org/ns#"
   xmlns:rdf="http://www.w3.org/1999/02/22-rdf-syntax-ns#"
   xmlns:svg="http://www.w3.org/2000/svg"
   xmlns="http://www.w3.org/2000/svg"
   xmlns:sodipodi="http://sodipodi.sourceforge.net/DTD/sodipodi-0.dtd"
   xmlns:inkscape="http://www.inkscape.org/namespaces/inkscape"
   width="2.1069362mm"
   height="1.2871071mm"
   viewBox="0 0 2.1069362 1.2871071"
   version="1.1"
   id="svg7070"
   inkscape:version="0.92.4 (5da689c313, 2019-01-14)"
   sodipodi:docname="el_salvador.svg">
  <defs
     id="defs7064" />
  <sodipodi:namedview
     id="base"
     pagecolor="#ffffff"
     bordercolor="#666666"
     borderopacity="1.0"
     inkscape:pageopacity="0.0"
     inkscape:pageshadow="2"
     inkscape:zoom="1.4"
     inkscape:cx="-87.648098"
     inkscape:cy="-86.86712"
     inkscape:document-units="mm"
     inkscape:current-layer="layer1"
     showgrid="false"
     inkscape:window-width="958"
     inkscape:window-height="1008"
     inkscape:window-x="-7"
     inkscape:window-y="0"
     inkscape:window-maximized="0" />
  <metadata
     id="metadata7067">
    <rdf:RDF>
      <cc:Work
         rdf:about="">
        <dc:format>image/svg+xml</dc:format>
        <dc:type
           rdf:resource="http://purl.org/dc/dcmitype/StillImage" />
        <dc:title />
      </cc:Work>
    </rdf:RDF>
  </metadata>
  <g
     inkscape:label="Layer 1"
     inkscape:groupmode="layer"
     id="layer1"
     transform="translate(-178.95528,-80.898653)">
    <path
       inkscape:connector-curvature="0"
       style="fill:#ffffff;stroke-width:0.26458332"
       d="m 178.96002,81.586317 c -0.0249,-0.1016 0.0534,-0.15928 0.11774,-0.218282 0.0968,-0.08943 0.13864,-0.04921 0.22886,-0.08996 0.022,-0.01005 0.12144,-0.162983 0.18521,-0.197379 0.0349,-0.01879 0.006,-0.07488 0.0153,-0.120121 0.0212,-0.100012 0.17569,-0.05318 0.2413,-0.03492 0.10954,0.03016 0.70062,0.40005 0.64056,0.534723 0.12039,-0.0011 0.38894,-0.222779 0.42863,0 0.10398,-0.06853 0.28495,-0.02408 0.23653,0.119592 -0.0106,0.03096 -0.0955,0.444235 -0.12726,0.3175 -0.0871,0.116945 0.0876,0.211931 -0.15134,0.277283 -0.22649,0.06191 -0.39106,-0.159808 -0.58844,-0.109273 0.21934,0.06033 -0.1135,0.03149 -0.16933,0.0058 -0.13679,-0.06271 -0.25162,-0.174096 -0.3974,-0.217752 -0.13653,-0.04101 -0.29475,0.01693 -0.42519,-0.04868 -0.077,-0.03863 -0.15028,-0.166687 -0.23521,-0.218545 z"
       id="sv" />
  </g>
</svg>
