<?xml version="1.0" encoding="UTF-8" standalone="no"?>
<!-- Created with Inkscape (http://www.inkscape.org/) -->

<svg
   xmlns:dc="http://purl.org/dc/elements/1.1/"
   xmlns:cc="http://creativecommons.org/ns#"
   xmlns:rdf="http://www.w3.org/1999/02/22-rdf-syntax-ns#"
   xmlns:svg="http://www.w3.org/2000/svg"
   xmlns="http://www.w3.org/2000/svg"
   xmlns:sodipodi="http://sodipodi.sourceforge.net/DTD/sodipodi-0.dtd"
   xmlns:inkscape="http://www.inkscape.org/namespaces/inkscape"
   width="5.9561396mm"
   height="5.6585264mm"
   viewBox="0 0 5.9561397 5.6585245"
   version="1.1"
   id="svg7070"
   inkscape:version="0.92.4 (5da689c313, 2019-01-14)"
   sodipodi:docname="eritrea.svg">
  <defs
     id="defs7064" />
  <sodipodi:namedview
     id="base"
     pagecolor="#ffffff"
     bordercolor="#666666"
     borderopacity="1.0"
     inkscape:pageopacity="0.0"
     inkscape:pageshadow="2"
     inkscape:zoom="7.9195959"
     inkscape:cx="34.725306"
     inkscape:cy="6.4189542"
     inkscape:document-units="mm"
     inkscape:current-layer="layer1"
     showgrid="false"
     inkscape:window-width="958"
     inkscape:window-height="1008"
     inkscape:window-x="-7"
     inkscape:window-y="0"
     inkscape:window-maximized="0" />
  <metadata
     id="metadata7067">
    <rdf:RDF>
      <cc:Work
         rdf:about="">
        <dc:format>image/svg+xml</dc:format>
        <dc:type
           rdf:resource="http://purl.org/dc/dcmitype/StillImage" />
        <dc:title />
      </cc:Work>
    </rdf:RDF>
  </metadata>
  <g
     inkscape:label="Layer 1"
     inkscape:groupmode="layer"
     id="layer1"
     transform="translate(-153.32771,-31.508581)">
    <g
       transform="matrix(0.26458333,0,0,0.26458333,51.584838,-71.563824)"
       id="er"
       style="fill:#ffffff">
      <path
         style="fill:#ffffff"
         inkscape:connector-curvature="0"
         id="path6816"
         d="m 396.292,397.692 c 0.024,0.249 0.281,0.999 -0.162,0.635 0.191,0.562 1.165,0.511 1.623,0.477 -0.227,-0.485 -0.862,-0.016 -1.027,-0.516 -0.065,-0.194 -0.071,-0.816 -0.434,-0.596 z" />
      <path
         style="fill:#ffffff"
         inkscape:connector-curvature="0"
         id="path6830"
         d="m 384.54,400.425 c 0.531,-0.477 0.501,-1.226 0.693,-1.857 0.207,-0.687 0.495,-1.354 0.741,-2.028 0.226,-0.62 -0.413,-3.192 0.577,-3.33 0.197,-0.028 0.937,0.121 1.055,-0.077 0.321,-0.536 0.076,-0.947 0.711,-1.148 0.512,-0.162 1.102,-0.563 1.637,-0.774 0.787,-0.312 0.814,-1.122 1.38,-1.646 0.987,1.971 1.714,3.867 2.196,6.019 0.115,0.513 0.107,1.021 0.342,1.504 0.252,0.523 0.492,0.938 0.597,1.514 0.07,0.392 0.563,0.425 0.671,0.841 0.1,0.384 0.18,1.042 0.518,1.304 0.424,-0.3 -0.27,-1.44 0.172,-1.514 0.434,-0.071 0.69,0.473 0.72,0.794 0.034,0.378 0.304,1.021 0.665,1.188 0.512,0.236 0.834,-0.458 1.355,0.125 0.434,0.481 0.483,0.837 1.182,0.934 0.805,0.11 1.109,0.728 1.539,1.366 0.413,0.616 0.773,1.242 1.418,1.648 0.305,0.192 0.574,0.428 0.83,0.68 0.128,0.126 0.75,0.98 0.44,0.21 0.426,0.272 0.425,0.874 0.558,1.301 0.118,0.371 0.53,0.27 0.771,0.521 0.231,0.243 1.153,1.961 1.499,1.101 0.694,0.65 -0.275,0.951 -0.623,1.506 -0.607,0.967 -0.662,-0.446 -1.197,-0.091 -0.465,0.309 -2.724,-3.025 -3.264,-3.438 -0.748,-0.57 -1.161,-1.185 -1.706,-1.936 -0.591,-0.812 -1.573,-0.96 -2.28,-1.63 -0.637,-0.604 -1.156,-0.214 -1.828,-0.523 -0.521,-0.24 -1.59,-0.341 -1.996,0.171 -0.072,-0.275 -0.319,-0.705 -0.553,-0.867 0.062,0.044 -0.902,0.741 -1.162,0.788 -0.501,0.092 -0.947,0.137 -1.259,-0.337 -0.414,-0.631 -1.046,-0.63 -1.479,-1.299 -0.263,1.021 -0.652,2.008 -1.045,2.985 -0.212,-0.303 -0.807,-1.592 -1.324,-1.312 -0.325,0.176 -0.293,0.631 -0.743,0.546 -0.414,-0.079 -1.056,-0.248 -1.365,0.163 -0.234,-1.124 -0.303,-2.268 -0.443,-3.402 z" />
    </g>
  </g>
</svg>
