<?xml version="1.0" encoding="UTF-8" standalone="no"?>
<!-- Created with Inkscape (http://www.inkscape.org/) -->

<svg
   xmlns:dc="http://purl.org/dc/elements/1.1/"
   xmlns:cc="http://creativecommons.org/ns#"
   xmlns:rdf="http://www.w3.org/1999/02/22-rdf-syntax-ns#"
   xmlns:svg="http://www.w3.org/2000/svg"
   xmlns="http://www.w3.org/2000/svg"
   xmlns:sodipodi="http://sodipodi.sourceforge.net/DTD/sodipodi-0.dtd"
   xmlns:inkscape="http://www.inkscape.org/namespaces/inkscape"
   width="4.4460583mm"
   height="1.9533393mm"
   viewBox="0 0 4.4460581 1.9533395"
   version="1.1"
   id="svg7070"
   inkscape:version="0.92.4 (5da689c313, 2019-01-14)"
   sodipodi:docname="estonia.svg">
  <defs
     id="defs7064" />
  <sodipodi:namedview
     id="base"
     pagecolor="#ffffff"
     bordercolor="#666666"
     borderopacity="1.0"
     inkscape:pageopacity="0.0"
     inkscape:pageshadow="2"
     inkscape:zoom="1.4"
     inkscape:cx="96.093958"
     inkscape:cy="-102.39474"
     inkscape:document-units="mm"
     inkscape:current-layer="ee"
     showgrid="false"
     inkscape:window-width="958"
     inkscape:window-height="1008"
     inkscape:window-x="-7"
     inkscape:window-y="0"
     inkscape:window-maximized="0" />
  <metadata
     id="metadata7067">
    <rdf:RDF>
      <cc:Work
         rdf:about="">
        <dc:format>image/svg+xml</dc:format>
        <dc:type
           rdf:resource="http://purl.org/dc/dcmitype/StillImage" />
        <dc:title />
      </cc:Work>
    </rdf:RDF>
  </metadata>
  <g
     inkscape:label="Layer 1"
     inkscape:groupmode="layer"
     id="layer1"
     transform="translate(-156.80517,-39.567059)">
    <g
       transform="matrix(0.26458333,0,0,0.26458333,69.821545,-22.195951)"
       id="ee">
      <path
         style="fill:#ffffff"
         inkscape:connector-curvature="0"
         d="m 329.329,239.472 c 0.488,-0.183 0.363,-0.594 0.635,-0.921 0.191,-0.229 0.557,-0.152 0.807,-0.252 0.146,0.01 0.291,0.031 0.434,0.062 0.145,-0.103 0.279,-0.214 0.408,-0.336 0.295,-0.161 0.539,-0.523 0.924,-0.395 -0.542,-0.513 -1.056,-0.595 -1.777,-0.54 -0.39,0.029 -0.606,-0.055 -0.924,0.235 -0.248,0.225 -0.783,0.044 -1.079,0.083 0.412,0.331 -0.046,0.659 0.505,1.011 0.64,0.408 -0.319,0.661 0.067,1.053 z"
         id="path5944" />
      <path
         style="fill:#ffffff"
         inkscape:connector-curvature="0"
         d="m 330.603,235.342 c -0.452,0.411 -0.98,0.45 -1.559,0.508 0.43,0.22 1.007,-0.009 1.242,0.534 0.172,0.396 0.519,0.334 0.7,-0.013 0.081,-0.155 0.689,-0.104 0.562,-0.46 -0.125,-0.347 -0.736,-0.298 -0.945,-0.569 z"
         id="path5946" />
      <path
         style="fill:#ffffff"
         inkscape:connector-curvature="0"
         d="m 332.189,237.185 c 0.212,0.105 0.392,0.064 0.538,-0.127 -0.147,-0.234 -0.405,-0.34 -0.666,-0.223 0.043,0.117 0.085,0.233 0.128,0.35 z"
         id="path5948" />
      <path
         style="fill:#ffffff"
         inkscape:connector-curvature="0"
         d="m 332.127,235.47 c 0,0.095 0,0.19 0,0.286 0.119,-0.069 0.226,-0.154 0.317,-0.254 -0.105,-0.011 -0.211,-0.022 -0.317,-0.032 z"
         id="path5950" />
      <path
         style="fill:#ffffff"
         inkscape:connector-curvature="0"
         d="m 333.11,237.153 c -0.238,-0.648 0.59,-0.545 0.953,-0.699 -0.266,-0.07 -0.803,0.147 -1.02,-0.032 -0.377,-0.312 0.326,-0.582 0.098,-0.953 -0.108,0.06 -0.215,0.123 -0.318,0.19 0.066,-0.209 -0.021,-0.53 0.129,-0.704 0.365,-0.42 1.033,-0.299 1.521,-0.313 -0.078,-0.12 -0.143,-0.247 -0.189,-0.381 0.472,0.266 0.682,-0.354 1.135,-0.28 0.232,0.038 0.963,0.344 0.867,-0.165 0.28,0.014 2.185,0.302 1.84,-0.381 0.704,0.237 1.646,0.132 2.389,0.221 0.656,0.077 1.209,0.354 1.846,0.436 0.619,0.08 2.954,-0.396 3.2,0.297 -0.611,-0.009 -0.7,0.304 -0.868,0.802 -0.162,0.481 -0.875,0.766 -0.864,1.267 0.009,0.377 0.229,0.687 0.327,1.039 0.088,0.315 -0.135,0.579 -0.024,0.895 0.079,0.227 0.392,0.325 0.549,0.483 0.244,0.246 -0.003,0.625 0.501,0.692 -0.422,0.334 -1.215,0.54 -1.05,1.239 -0.394,0.012 -0.704,-0.233 -1.081,-0.285 -0.428,-0.06 -0.758,0.369 -1.174,0.286 -0.891,-0.178 -1.598,-0.95 -2.431,-1.295 -0.237,-0.099 -0.659,-0.441 -0.922,-0.422 -0.335,0.023 -0.54,-0.192 -0.839,-0.188 -0.71,0.009 -1.385,0.903 -2.1,0.698 0.062,-0.331 0.168,-1.187 0.331,-1.446 0.208,-0.329 -0.291,-0.485 -0.462,-0.152 -0.514,1.006 -1.952,-0.838 -2.344,-0.849 z"
         id="path5970" />
    </g>
  </g>
</svg>
