<?xml version="1.0" encoding="UTF-8" standalone="no"?>
<!-- Created with Inkscape (http://www.inkscape.org/) -->

<svg
   xmlns:dc="http://purl.org/dc/elements/1.1/"
   xmlns:cc="http://creativecommons.org/ns#"
   xmlns:rdf="http://www.w3.org/1999/02/22-rdf-syntax-ns#"
   xmlns:svg="http://www.w3.org/2000/svg"
   xmlns="http://www.w3.org/2000/svg"
   xmlns:sodipodi="http://sodipodi.sourceforge.net/DTD/sodipodi-0.dtd"
   xmlns:inkscape="http://www.inkscape.org/namespaces/inkscape"
   width="13.33143mm"
   height="11.589323mm"
   viewBox="0 0 13.331431 11.589321"
   version="1.1"
   id="svg7070"
   inkscape:version="0.92.4 (5da689c313, 2019-01-14)"
   sodipodi:docname="ethiopia.svg">
  <defs
     id="defs7064" />
  <sodipodi:namedview
     id="base"
     pagecolor="#ffffff"
     bordercolor="#666666"
     borderopacity="1.0"
     inkscape:pageopacity="0.0"
     inkscape:pageshadow="2"
     inkscape:zoom="7.9195959"
     inkscape:cx="26.052331"
     inkscape:cy="7.1221426"
     inkscape:document-units="mm"
     inkscape:current-layer="layer1"
     showgrid="false"
     inkscape:window-width="958"
     inkscape:window-height="1008"
     inkscape:window-x="-7"
     inkscape:window-y="0"
     inkscape:window-maximized="0" />
  <metadata
     id="metadata7067">
    <rdf:RDF>
      <cc:Work
         rdf:about="">
        <dc:format>image/svg+xml</dc:format>
        <dc:type
           rdf:resource="http://purl.org/dc/dcmitype/StillImage" />
        <dc:title />
      </cc:Work>
    </rdf:RDF>
  </metadata>
  <g
     inkscape:label="Layer 1"
     inkscape:groupmode="layer"
     id="layer1"
     transform="translate(-156.13019,-37.111975)">
    <path
       inkscape:connector-curvature="0"
       style="fill:#ffffff;stroke-width:0.26458332"
       d="m 156.13019,44.180853 c 0.0164,-0.136525 0.14631,-0.208227 0.14684,-0.346869 0.001,-0.236802 0.16748,-0.259027 0.36698,-0.224896 0.17674,0.0299 0.3302,0.08625 0.46143,-0.109537 0.091,-0.134938 0.0312,-0.369359 0.0135,-0.518319 -0.0299,-0.24765 -0.0662,-0.514085 0.0265,-0.75274 0.0365,-0.09366 0.0847,-0.181768 0.11879,-0.276225 0.05,-0.138641 -0.005,-0.23151 -0.007,-0.368829 -0.003,-0.137583 0.0717,-0.275431 0.1606,-0.378618 0.10213,-0.118534 0.25453,0.02302 0.25109,0.151341 0.0593,-0.06482 0.29395,-0.424656 0.17701,-0.537898 -0.0664,-0.06403 0.0405,-0.215635 0.0606,-0.280723 0.0386,-0.127264 -0.0471,-0.288395 0.0661,-0.391848 0.18177,-0.166422 0.25427,-0.385497 0.36645,-0.6096 0.0476,-0.09472 0.0767,-0.19341 0.19262,-0.199231 0.0481,-0.0024 0.27516,0.02249 0.29607,-0.03493 0.0632,-0.17436 0.0487,-0.391319 0.0757,-0.57441 0.0159,-0.103981 0.0582,-0.184944 0.10133,-0.280988 0.0775,-0.171714 0.0585,-0.332316 0.0931,-0.511175 0.0656,-0.337608 0.20743,-0.214048 0.46328,-0.216429 0.099,-0.0011 0.11906,-0.202406 0.25824,-0.121973 0.10795,0.06244 0.16801,0.206904 0.23706,0.3048 0.10425,-0.258762 0.20691,-0.519377 0.27676,-0.789781 0.0397,0.06138 0.0847,0.139435 0.1516,0.176477 0.0728,0.03995 0.15531,0.0077 0.19923,0.09578 0.0865,0.172773 0.19262,0.193146 0.37333,0.160338 0.0669,-0.01217 0.13732,-0.03016 0.18997,-0.07567 0.0315,-0.02752 0.0587,-0.130704 0.0918,-0.140229 0.0609,-0.01693 0.15981,0.191558 0.17172,0.237066 0.17224,-0.216164 0.46275,0.03493 0.63976,-0.01217 0.24236,-0.06456 0.49133,0.193939 0.69823,0.281516 0.27702,0.117211 0.35772,0.475456 0.58288,0.655902 0.13573,0.108215 0.31406,0.194998 0.39793,0.354542 0.0767,0.14605 0.11272,0.268287 0.24924,0.372798 0.22913,0.175683 0.32835,0.310621 0.17674,0.577056 -0.17912,0.31459 -0.42439,0.493977 -0.3675,0.878417 0.028,0.191029 -0.0468,0.423598 0.22648,0.404812 0.16007,-0.01111 0.31882,-0.08758 0.47334,-0.126735 0.12568,-0.03175 0.20003,0.115358 0.31724,0.07646 -0.013,0.199761 -0.28337,0.292894 -0.1532,0.515673 0.0947,0.162719 0.16484,0.392113 0.29078,0.531284 0.09,0.100012 0.12859,0.114829 0.18971,0.240771 0.0444,0.09102 0.10239,0.23151 0.16748,0.30771 0.0656,0.07541 0.16959,0.09922 0.24553,0.161131 0.11668,0.09499 0.19738,0.240242 0.34581,0.293423 0.59584,0.214842 1.18454,0.448998 1.77879,0.668073 0.28152,0.103981 0.57283,0.253735 0.86466,0.323056 0.27014,0.0635 0.55378,-0.0071 0.82683,-0.0071 -0.72867,0.778668 -1.44357,1.572948 -2.09101,2.421466 -0.13626,0.178329 -0.25902,0.370417 -0.40481,0.541073 -0.15293,0.178858 -0.28839,0.159279 -0.50588,0.139965 -0.41804,-0.03678 -1.03981,-0.02646 -1.31207,0.363273 -0.095,0.137054 -0.15425,0.273843 -0.33285,0.309562 -0.16483,0.03307 -0.35957,-0.01508 -0.51223,0.06879 -0.16484,0.08996 -0.15928,0.265641 -0.37544,0.2159 -0.18151,-0.0418 -0.38841,0.138906 -0.54849,-0.03836 -0.0683,-0.07488 -0.14896,-0.26035 -0.26246,-0.273843 -0.10954,-0.01297 -0.25056,0.125147 -0.34581,0.168539 -0.1487,0.06826 -0.37254,0.15875 -0.4707,0.298185 -0.0413,0.059 -0.05,0.132821 -0.0942,0.190765 -0.0593,0.07752 -0.15266,0.130704 -0.17356,0.233627 -0.11272,-0.10795 -0.36751,-0.125148 -0.51409,-0.111654 -0.11324,0.01032 -0.16669,-0.0852 -0.26802,-0.106892 -0.10531,-0.02222 -0.21246,0.02593 -0.3183,0.01693 -0.49265,-0.04075 -0.8038,-0.653786 -1.24618,-0.807773 -0.21432,-0.07435 -0.49583,-0.04127 -0.72099,-0.04127 -0.11642,0 -0.25453,-0.243417 -0.30348,-0.342636 -0.0685,-0.138377 0.0487,-0.321468 0.004,-0.473339 -0.04,-0.137054 -0.32121,-0.219604 -0.4146,-0.09975 -0.0574,-0.05583 -0.13706,-0.219604 -0.18389,-0.292365 -0.10874,-0.169069 -0.14737,-0.395287 -0.22066,-0.582348 -0.0553,-0.139964 -0.0826,-0.298714 -0.15849,-0.429948 -0.0349,-0.06085 -0.0765,-0.08228 -0.13573,-0.112183 -0.0653,-0.03254 -0.0463,-0.102923 -0.0944,-0.146315 -0.0299,-0.01905 -0.063,-0.03043 -0.0984,-0.03519 -0.0926,-0.02593 -0.1016,-0.125148 -0.15081,-0.192352 -0.1098,-0.148696 -0.18415,-0.331259 -0.33073,-0.450586 -0.10716,-0.08784 -0.23548,-0.147902 -0.3728,-0.164306 -0.12938,-0.01402 -0.30612,-0.01508 -0.37412,-0.148431 z"
       id="et" />
  </g>
</svg>
