<?xml version="1.0" encoding="UTF-8" standalone="no"?>
<!-- Created with Inkscape (http://www.inkscape.org/) -->

<svg
   xmlns:dc="http://purl.org/dc/elements/1.1/"
   xmlns:cc="http://creativecommons.org/ns#"
   xmlns:rdf="http://www.w3.org/1999/02/22-rdf-syntax-ns#"
   xmlns:svg="http://www.w3.org/2000/svg"
   xmlns="http://www.w3.org/2000/svg"
   xmlns:sodipodi="http://sodipodi.sourceforge.net/DTD/sodipodi-0.dtd"
   xmlns:inkscape="http://www.inkscape.org/namespaces/inkscape"
   width="2.8108866mm"
   height="3.0170374mm"
   viewBox="0 0 2.8108859 3.0170377"
   version="1.1"
   id="svg7070"
   inkscape:version="0.92.4 (5da689c313, 2019-01-14)"
   sodipodi:docname="fiji.svg">
  <defs
     id="defs7064" />
  <sodipodi:namedview
     id="base"
     pagecolor="#ffffff"
     bordercolor="#666666"
     borderopacity="1.0"
     inkscape:pageopacity="0.0"
     inkscape:pageshadow="2"
     inkscape:zoom="5.6"
     inkscape:cx="-0.84730571"
     inkscape:cy="11.665635"
     inkscape:document-units="mm"
     inkscape:current-layer="layer1"
     showgrid="false"
     inkscape:window-width="958"
     inkscape:window-height="1008"
     inkscape:window-x="-7"
     inkscape:window-y="0"
     inkscape:window-maximized="0" />
  <metadata
     id="metadata7067">
    <rdf:RDF>
      <cc:Work
         rdf:about="">
        <dc:format>image/svg+xml</dc:format>
        <dc:type
           rdf:resource="http://purl.org/dc/dcmitype/StillImage" />
        <dc:title />
      </cc:Work>
    </rdf:RDF>
  </metadata>
  <g
     inkscape:label="Layer 1"
     inkscape:groupmode="layer"
     id="layer1"
     transform="translate(-182.0187,-25.681869)">
    <g
       transform="matrix(0.26458333,0,0,0.26458333,-43.466141,-111.8975)"
       id="fj"
       style="fill:#ffffff">
      <path
         style="fill:#ffffff"
         inkscape:connector-curvature="0"
         id="path5538"
         d="m 852.684,523.8 c 0.106,-0.096 0.212,-0.191 0.318,-0.287 -0.257,-0.004 -0.247,0.088 -0.318,0.287 z" />
      <path
         style="fill:#ffffff"
         inkscape:connector-curvature="0"
         id="path5544"
         d="m 853.735,522.562 c 0.239,-0.15 0.451,-0.332 0.636,-0.543 -0.243,0.145 -0.454,0.326 -0.636,0.543 z" />
      <path
         style="fill:#ffffff"
         inkscape:connector-curvature="0"
         id="path5536"
         d="m 852.874,527.544 c 0.662,0.277 1.26,0.576 1.984,0.326 0.482,-0.166 1.564,-0.338 1.935,-0.654 0.256,-0.221 0.116,-0.279 -0.057,-0.445 -0.086,-0.082 0.021,-0.588 0.035,-0.746 0.039,-0.408 -0.329,-1.375 -0.814,-1.084 0.6,-0.814 -1.863,-0.111 -2.092,-0.02 -0.714,0.287 -2.636,2.342 -0.991,2.623 z" />
      <path
         style="fill:#ffffff"
         inkscape:connector-curvature="0"
         id="path5542"
         d="m 853.826,531.388 c 0.213,-0.148 0.42,-0.307 0.619,-0.473 0.202,-0.162 0.512,0.096 0.749,-0.035 -0.155,-0.738 -1.544,0.049 -1.686,0.477 0.107,0.01 0.212,0.021 0.318,0.031 z" />
      <path
         style="fill:#ffffff"
         inkscape:connector-curvature="0"
         id="path5546"
         d="m 857.387,526.025 c 0.125,-0.074 0.241,-0.158 0.349,-0.256 -0.322,-0.246 -0.438,-0.162 -0.349,0.256 z" />
      <path
         style="fill:#ffffff"
         inkscape:connector-curvature="0"
         id="path5548"
         d="m 862.85,519.988 c -1.116,-0.059 -1.963,0.777 -3.004,0.936 -0.567,0.086 -0.963,0.426 -1.421,0.748 -0.368,0.258 -1.107,0.111 -1.038,0.76 0.459,-0.078 0.431,0.395 0.41,0.697 0.594,-0.076 2.03,-1.504 2.264,-0.809 0.124,0.371 1.021,-0.102 1.229,-0.16 0.74,-0.215 0.862,-0.291 1.114,-1.064 -0.413,0.184 -1.132,1.24 -1.65,0.859 0.771,-0.579 1.272,-1.452 2.096,-1.967 z" />
      <path
         style="fill:#ffffff"
         inkscape:connector-curvature="0"
         id="path5550"
         d="m 858.94,527.417 c 0.219,-0.252 0.168,-0.592 -0.19,-0.666 0.028,0.233 0.091,0.454 0.19,0.666 z" />
      <path
         style="fill:#ffffff"
         inkscape:connector-curvature="0"
         id="path5552"
         d="m 860.341,529.421 c 0.104,-0.098 0.199,-0.205 0.286,-0.318 -0.258,-0.062 -0.394,0.07 -0.286,0.318 z" />
    </g>
  </g>
</svg>
