<?xml version="1.0" encoding="UTF-8" standalone="no"?>
<!-- Created with Inkscape (http://www.inkscape.org/) -->

<svg
   xmlns:dc="http://purl.org/dc/elements/1.1/"
   xmlns:cc="http://creativecommons.org/ns#"
   xmlns:rdf="http://www.w3.org/1999/02/22-rdf-syntax-ns#"
   xmlns:svg="http://www.w3.org/2000/svg"
   xmlns="http://www.w3.org/2000/svg"
   xmlns:sodipodi="http://sodipodi.sourceforge.net/DTD/sodipodi-0.dtd"
   xmlns:inkscape="http://www.inkscape.org/namespaces/inkscape"
   width="11.233451mm"
   height="9.6150093mm"
   viewBox="0 0 11.23345 9.6150104"
   version="1.1"
   id="svg7070"
   inkscape:version="0.92.4 (5da689c313, 2019-01-14)"
   sodipodi:docname="france.svg">
  <defs
     id="defs7064" />
  <sodipodi:namedview
     id="base"
     pagecolor="#ffffff"
     bordercolor="#666666"
     borderopacity="1.0"
     inkscape:pageopacity="0.0"
     inkscape:pageshadow="2"
     inkscape:zoom="7.9195959"
     inkscape:cx="23.112132"
     inkscape:cy="1.5063976"
     inkscape:document-units="mm"
     inkscape:current-layer="layer1"
     showgrid="false"
     inkscape:window-width="958"
     inkscape:window-height="1008"
     inkscape:window-x="-7"
     inkscape:window-y="0"
     inkscape:window-maximized="0" />
  <metadata
     id="metadata7067">
    <rdf:RDF>
      <cc:Work
         rdf:about="">
        <dc:format>image/svg+xml</dc:format>
        <dc:type
           rdf:resource="http://purl.org/dc/dcmitype/StillImage" />
        <dc:title />
      </cc:Work>
    </rdf:RDF>
  </metadata>
  <g
     inkscape:label="Layer 1"
     inkscape:groupmode="layer"
     id="layer1"
     transform="translate(-156.90811,-41.483168)">
    <g
       transform="matrix(0.26458333,0,0,0.26458333,90.095898,-28.39853)"
       id="fr"
       style="fill:#ffffff">
      <path
         style="fill:#ffffff"
         inkscape:connector-curvature="0"
         d="m 257.286,278.193 c -0.142,-0.148 -0.301,-0.276 -0.477,-0.381 0.042,0.25 0.21,0.424 0.477,0.381 z"
         id="path2166" />
      <path
         style="fill:#ffffff"
         inkscape:connector-curvature="0"
         d="m 260.021,279.623 c -0.088,-0.203 -0.086,-0.277 -0.353,-0.222 0.118,0.074 0.235,0.147 0.353,0.222 z"
         id="path2168" />
      <path
         style="fill:#ffffff"
         inkscape:connector-curvature="0"
         d="m 262.435,282.418 c -0.116,-0.252 -0.458,-0.198 -0.666,-0.159 0.232,0.008 0.455,0.061 0.666,0.159 z"
         id="path2172" />
      <path
         style="fill:#ffffff"
         inkscape:connector-curvature="0"
         d="m 262.558,283.72 c 0.216,-0.311 -0.025,-0.843 -0.441,-0.635 0.199,0.175 0.346,0.387 0.441,0.635 z"
         id="path2174" />
      <path
         style="fill:#ffffff"
         inkscape:connector-curvature="0"
         d="m 252.619,275.398 c 0.393,-0.186 0.866,-0.303 1.301,-0.223 0.152,-0.667 -0.736,-0.208 -0.922,-0.667 0.409,-0.135 0.885,-0.085 1.306,-0.064 -0.331,-0.057 -0.779,0.061 -0.542,-0.349 -0.255,-0.014 -1.122,0.476 -1.228,0.047 -0.143,-0.584 0.747,-0.938 1.171,-1.021 0.57,-0.113 1.107,-0.159 1.686,-0.143 0.818,0.022 1.342,-0.772 2.249,-0.662 -0.103,0.293 0.986,1.317 1.291,1.195 0.205,-0.1 0.402,-0.214 0.591,-0.341 0.414,-0.23 0.386,0.067 0.732,0.133 0.341,0.065 0.603,-0.204 0.625,0.347 0.223,-0.153 -0.105,-0.336 0.078,-0.585 0.188,-0.254 0.283,0.132 0.448,0.175 0.391,0.102 0.891,-0.002 1.283,-0.066 -0.832,-0.244 -0.527,-1.42 -0.458,-2.033 0.033,-0.298 -0.418,-0.598 -0.572,-0.806 -0.264,-0.359 -0.02,-0.904 -0.399,-1.196 0.289,0.05 0.551,0.191 0.837,0.251 0.313,0.065 0.7,-0.242 0.975,-0.104 0.429,0.215 -0.106,0.862 0.488,1.202 0.171,0.098 0.479,-0.076 0.655,-0.078 0.516,-0.005 1.012,0.17 1.514,0.266 0.49,0.093 0.917,0.079 1.356,-0.172 0.398,-0.227 0.931,-0.219 1.29,-0.474 -0.285,0.113 -0.77,0.17 -1.047,0.011 -0.562,-0.322 0.734,-1.116 0.95,-1.212 0.684,-0.306 1.458,-0.27 2.151,-0.547 0.403,-0.161 0.939,-1.082 1.439,-0.825 -0.438,-0.282 -0.17,-2.234 0.193,-2.6 0.357,-0.359 2.18,-1.009 2.649,-0.614 0.239,0.201 -0.229,0.975 0.47,1.147 0.72,0.178 0.552,0.016 1.062,0.169 0.475,0.143 0.327,0.51 0.694,0.688 0.48,0.232 0.965,-0.043 0.905,0.7 0.286,-0.185 0.782,-0.142 1.085,-0.038 0.571,0.196 0.331,0.899 0.215,1.308 0.382,0.064 0.814,0.183 1.194,0.031 0.376,-0.15 0.462,-0.58 0.84,-0.729 0.033,0.236 -0.066,1.294 0.254,1.305 0.473,0.017 1.424,0.641 1.571,1.093 -0.042,-0.13 1.796,0.167 1.89,0.175 0.447,0.039 0.781,-0.054 1.135,0.315 0.279,0.291 0.475,0.749 0.899,0.859 0.09,-0.043 0.164,-0.107 0.218,-0.193 0.137,-0.141 0.206,0.047 0.351,0.066 0.081,0.031 0.103,0.086 0.065,0.166 -0.025,0.173 0.38,0.079 0.447,0.084 0.451,0.041 0.711,-0.237 1.128,0.081 0.445,0.339 1.364,0.402 1.92,0.495 -0.682,0.603 -1.312,1.263 -1.533,2.158 -0.107,0.435 -0.366,0.835 -0.435,1.273 -0.045,0.287 0.052,0.403 -0.062,0.771 -0.139,0.445 0.2,0.816 -0.1,1.093 -0.252,0.233 -0.447,0.458 -0.827,0.423 -0.318,-0.028 -0.345,-0.499 -0.728,-0.286 -0.277,0.154 -0.303,0.646 0.159,0.572 -0.347,0.365 -0.654,0.797 -1.05,1.112 -0.243,0.158 -0.48,0.324 -0.712,0.498 -0.191,0.172 -0.172,0.509 -0.333,0.709 -0.275,0.341 -0.808,0.502 -0.891,0.985 0.062,0.165 0.104,0.334 0.127,0.508 -0.065,0.312 -0.356,0.424 -0.476,0.699 0.524,-0.066 0.716,-0.245 0.855,-0.746 0.137,-0.493 1.046,-0.455 1.414,-0.352 0.441,0.125 0.142,0.85 0.462,1.204 0.558,0.614 0.215,0.844 -0.287,1.26 0.266,0.378 1.271,1.079 0.994,1.633 -0.186,0.372 -1.574,0.882 -1.57,0.946 0.025,0.438 0.871,0.812 1.163,1.062 0.421,0.362 -0.587,1.006 -0.441,1.484 0.177,0.581 1.287,1.239 1.874,1.004 0.737,-0.295 0.627,0.134 0.349,0.625 -0.672,1.183 -1.956,1.779 -3.1,2.553 0.072,0.107 0.147,0.214 0.225,0.318 -0.428,0.061 -0.786,0.281 -1.187,0.421 -0.431,0.151 -0.706,-0.086 -1.113,-0.055 -0.617,0.049 -0.996,-0.466 -1.734,-0.398 0.296,-0.764 -0.969,-0.179 -0.983,-0.622 0.081,-0.138 0.207,-0.174 0.378,-0.108 -0.013,-0.25 -0.163,-0.392 -0.415,-0.381 0.211,0.324 0.029,0.371 -0.262,0.386 -0.478,0.024 -0.53,-0.004 -0.661,-0.576 0.173,1.139 -0.118,0.413 -0.855,0.413 -0.426,0 -0.775,-0.269 -1.191,-0.29 -0.51,-0.025 -1.069,0.551 -1.522,0.759 -0.353,0.162 -1.597,0.623 -1.519,1.103 -0.008,0.157 -0.055,0.304 -0.142,0.439 -0.198,0.176 -0.181,0.334 0.051,0.471 0.175,0.553 0.06,0.829 0.382,1.361 -0.303,0.087 -0.567,-0.065 -0.867,-0.047 -0.312,0.019 -0.469,0.267 -0.747,0.343 -0.671,0.183 -1.08,-0.512 -1.723,-0.044 -0.045,0.033 -0.939,-0.384 -1.035,-0.457 -0.25,-0.187 0.321,-0.163 -0.081,-0.431 -0.233,-0.156 -0.652,-0.224 -0.85,0.032 -0.092,-0.568 -0.721,-0.331 -1.064,-0.601 -0.472,-0.373 -1.438,-0.612 -1.288,0.284 -0.528,-0.076 -1.124,-0.209 -1.657,-0.111 -0.296,0.054 -0.493,0.138 -0.746,-0.09 -0.449,-0.403 -0.415,-0.237 -0.871,-0.244 -0.452,-0.006 -2.635,-1.438 -2.859,-0.857 -0.412,-0.17 -0.12,-0.47 -0.093,-0.759 0.031,-0.344 -0.968,-0.187 -1.177,-0.448 1.262,-0.467 1.369,-2.216 1.598,-3.354 0.091,-0.446 0.172,-1.15 0.543,-1.469 0.54,-0.464 -0.185,-0.529 -0.236,-0.006 -0.075,-1.075 0.141,-2.392 0.604,-3.367 0.446,0.251 0.89,0.549 1.081,1.048 0.043,0.223 0.085,0.445 0.128,0.667 0.103,0.283 0.386,0.321 0.379,0.667 0.128,-0.444 -0.323,-0.787 -0.364,-1.207 -0.063,-0.647 -0.291,-1.085 -0.864,-1.399 -0.24,-0.132 -0.508,-0.311 -0.709,-0.504 -0.326,-0.314 0.525,-0.158 0.698,-0.002 -0.401,-0.195 -0.422,-1.895 -0.19,-2.224 -0.526,0.368 -1.765,-0.356 -2.008,-0.845 -0.216,-0.432 -0.703,-0.656 -0.8,-1.161 -0.089,-0.46 0.755,-0.964 -0.306,-1.011 0.125,-0.147 0.149,-0.414 0.311,-0.526 0.403,-0.281 0.774,0.192 1.154,0.24 -0.674,-0.445 -0.942,-0.297 -1.645,-0.206 -0.354,0.046 -1.041,-0.477 -0.388,-0.557 -0.182,-0.18 -0.108,-0.296 0.221,-0.35 -0.501,-0.125 -1.212,0.283 -1.619,-0.159 0.224,-0.003 0.436,-0.056 0.635,-0.159 -0.398,-0.266 -1.134,-0.158 -1.239,0.381 -0.015,-0.353 -0.406,-0.683 -0.031,-0.984 -0.154,0.387 -0.847,0.362 -0.415,-0.127 -0.88,0.763 -2.059,-0.975 -2.951,-0.032 -0.355,-0.49 -0.653,-0.793 -1.266,-0.92 z"
         id="path2182" />
      <path
         style="fill:#ffffff"
         inkscape:connector-curvature="0"
         d="m 291.977,296.586 c 0.182,-0.183 0.218,-0.554 0.461,-0.677 0.485,-0.243 1.034,-0.305 1.493,-0.611 0.411,-0.273 0.121,-1.043 0.679,-1 0.067,0.969 0.533,2.365 0.302,3.303 -0.242,0.99 -0.73,1.937 -1.158,2.859 -0.167,-0.262 -1.724,-0.831 -0.891,-1.176 -0.225,-0.053 -0.437,-0.137 -0.635,-0.254 0.219,-0.138 0.373,-0.367 0.349,-0.635 -0.444,0.104 -0.507,-0.392 -0.252,-0.635 -0.378,-0.096 -0.616,-0.592 -0.097,-0.699 -0.107,-0.145 -0.191,-0.303 -0.251,-0.475 z"
         id="path2184" />
    </g>
  </g>
</svg>
