<?xml version="1.0" encoding="UTF-8" standalone="no"?>
<!-- Created with Inkscape (http://www.inkscape.org/) -->

<svg
   xmlns:dc="http://purl.org/dc/elements/1.1/"
   xmlns:cc="http://creativecommons.org/ns#"
   xmlns:rdf="http://www.w3.org/1999/02/22-rdf-syntax-ns#"
   xmlns:svg="http://www.w3.org/2000/svg"
   xmlns="http://www.w3.org/2000/svg"
   xmlns:sodipodi="http://sodipodi.sourceforge.net/DTD/sodipodi-0.dtd"
   xmlns:inkscape="http://www.inkscape.org/namespaces/inkscape"
   width="5.7688193mm"
   height="2.4620085mm"
   viewBox="0 0 5.7688189 2.4620087"
   version="1.1"
   id="svg7070"
   inkscape:version="0.92.4 (5da689c313, 2019-01-14)"
   sodipodi:docname="georgia.svg">
  <defs
     id="defs7064" />
  <sodipodi:namedview
     id="base"
     pagecolor="#ffffff"
     bordercolor="#666666"
     borderopacity="1.0"
     inkscape:pageopacity="0.0"
     inkscape:pageshadow="2"
     inkscape:zoom="7.9195959"
     inkscape:cx="21.490508"
     inkscape:cy="-13.796186"
     inkscape:document-units="mm"
     inkscape:current-layer="layer1"
     showgrid="false"
     inkscape:window-width="958"
     inkscape:window-height="1008"
     inkscape:window-x="-7"
     inkscape:window-y="0"
     inkscape:window-maximized="0" />
  <metadata
     id="metadata7067">
    <rdf:RDF>
      <cc:Work
         rdf:about="">
        <dc:format>image/svg+xml</dc:format>
        <dc:type
           rdf:resource="http://purl.org/dc/dcmitype/StillImage" />
        <dc:title />
      </cc:Work>
    </rdf:RDF>
  </metadata>
  <g
     inkscape:label="Layer 1"
     inkscape:groupmode="layer"
     id="layer1"
     transform="translate(-157.33719,-43.251013)">
    <path
       inkscape:connector-curvature="0"
       style="fill:#ffffff;stroke-width:0.26458332"
       d="m 157.33744,43.43208 c -0.018,-0.398728 0.92631,-0.02408 1.10834,0.04101 0.21643,0.07699 0.40482,0.175154 0.64903,0.13679 0.11562,-0.01799 0.20637,-0.05821 0.31379,0.01693 0.0958,0.06694 0.21405,-0.004 0.31724,0.03387 0.0788,0.02884 0.12858,0.115093 0.19949,0.158485 0.0857,0.05239 0.18653,0.07355 0.28152,0.102129 0.0802,0.02381 0.16695,0.05027 0.23416,0.101336 0.0926,0.07011 -0.0228,0.121708 0.0759,0.16166 0.2503,0.100806 0.64188,-0.332317 0.8046,0.004 0.008,-0.119857 0.0934,-0.123032 0.18494,-0.08811 0.0484,0.0019 0.0945,0.01244 0.13891,0.03228 0.0437,0.03942 0.0799,0.119856 0.13785,0.139964 0.0945,0.03281 0.28575,-0.06191 0.33364,0.07752 0.0349,0.1016 -0.082,0.197908 0.0193,0.286279 0.15663,0.135996 0.34925,0.113507 0.52255,0.189442 0.27914,0.121973 -0.13493,0.206375 -0.002,0.369358 0.0815,0.09975 0.45403,0.258234 0.44926,0.387615 -0.0108,0.293952 -0.38496,-0.0056 -0.47228,0.02646 -0.23468,0.0852 -0.38444,-0.197379 -0.60404,-0.240506 -0.0878,-0.01693 -0.15584,0.02117 -0.22119,0.07541 -0.0614,0.0508 -0.23098,0.109009 -0.20162,0.148167 -0.1434,0.01005 -0.2868,-0.01852 -0.43021,-0.0095 -0.15002,0.0095 -0.27675,0.07699 -0.43233,0.07646 -0.15028,-5.29e-4 -0.22436,0.02593 -0.34263,-0.02381 -0.0497,-0.02064 -0.24448,-0.03519 -0.16537,-0.127265 -0.13176,-0.04313 -0.22331,-0.239183 -0.37835,-0.210079 0.0744,-0.166423 -0.17568,-0.07805 -0.21484,0.02064 -0.0278,0.06958 -0.38735,-0.0034 -0.47387,-0.02064 -0.0786,0.01085 -0.0378,0.09525 -0.1405,0.06429 -0.10742,-0.03254 -0.21907,-0.04022 -0.16324,-0.161131 0.0831,-0.18124 0.15028,-0.295804 0.0201,-0.479425 -0.12409,-0.17489 -0.1405,-0.401902 -0.26141,-0.578909 -0.10002,-0.146579 -0.28284,-0.130968 -0.38921,-0.270404 -0.0997,-0.130704 -0.30956,-0.14896 -0.45508,-0.170127 -0.20161,-0.02937 -0.25056,-0.242887 -0.44265,-0.270139 z"
       id="ge" />
  </g>
</svg>
