<?xml version="1.0" encoding="UTF-8" standalone="no"?>
<!-- Created with Inkscape (http://www.inkscape.org/) -->

<svg
   xmlns:dc="http://purl.org/dc/elements/1.1/"
   xmlns:cc="http://creativecommons.org/ns#"
   xmlns:rdf="http://www.w3.org/1999/02/22-rdf-syntax-ns#"
   xmlns:svg="http://www.w3.org/2000/svg"
   xmlns="http://www.w3.org/2000/svg"
   xmlns:sodipodi="http://sodipodi.sourceforge.net/DTD/sodipodi-0.dtd"
   xmlns:inkscape="http://www.inkscape.org/namespaces/inkscape"
   width="6.9159389mm"
   height="7.5057001mm"
   viewBox="0 0 6.9159385 7.5057009"
   version="1.1"
   id="svg7070"
   inkscape:version="0.92.4 (5da689c313, 2019-01-14)"
   sodipodi:docname="germany.svg">
  <defs
     id="defs7064" />
  <sodipodi:namedview
     id="base"
     pagecolor="#ffffff"
     bordercolor="#666666"
     borderopacity="1.0"
     inkscape:pageopacity="0.0"
     inkscape:pageshadow="2"
     inkscape:zoom="1.4"
     inkscape:cx="80.443226"
     inkscape:cy="-101.17595"
     inkscape:document-units="mm"
     inkscape:current-layer="layer1"
     showgrid="false"
     inkscape:window-width="958"
     inkscape:window-height="1008"
     inkscape:window-x="-7"
     inkscape:window-y="0"
     inkscape:window-maximized="0" />
  <metadata
     id="metadata7067">
    <rdf:RDF>
      <cc:Work
         rdf:about="">
        <dc:format>image/svg+xml</dc:format>
        <dc:type
           rdf:resource="http://purl.org/dc/dcmitype/StillImage" />
        <dc:title></dc:title>
      </cc:Work>
    </rdf:RDF>
  </metadata>
  <g
     inkscape:label="Layer 1"
     inkscape:groupmode="layer"
     id="layer1"
     transform="translate(-150.36056,-45.365687)">
    <g
       transform="matrix(0.26458333,0,0,0.26458333,75.067333,-20.7521)"
       id="de">
      <path
         style="fill:#aaaaaa"
         inkscape:connector-curvature="0"
         d="m 292.227,251.035 c 0.073,-0.337 -0.033,-0.358 -0.318,-0.064 0.106,0.021 0.211,0.042 0.318,0.064 z"
         id="path3832" />
      <path
         style="fill:#aaaaaa"
         inkscape:connector-curvature="0"
         d="m 299.407,251.987 c 0.19,0.021 0.382,0.021 0.573,0 -0.132,-0.335 -0.472,-0.453 -0.794,-0.318 0.073,0.106 0.147,0.212 0.221,0.318 z"
         id="path3834" />
      <path
         style="fill:#aaaaaa"
         inkscape:connector-curvature="0"
         d="m 284.573,261.707 c -0.006,-0.146 0.16,-0.143 0,-0.285 0.362,-0.234 0.728,0.223 0.542,-0.286 0.28,0.143 2.132,0.262 1.819,-0.362 -0.221,-0.441 1.508,-1.063 0.693,-1.502 -0.26,-0.14 -1.21,-0.285 -0.765,-0.772 0.316,-0.347 0.667,0.077 0.983,-0.381 0.268,-0.387 0.424,-2.306 0.918,-2.064 -0.2,-0.102 -0.982,-0.072 -0.988,-0.397 -0.007,-0.393 0.576,-0.962 0.926,-1.032 0.305,-0.061 3.11,0.088 2.065,0.794 0.191,0.144 0.403,0.186 0.635,0.127 -0.261,-0.292 -0.104,-0.709 0.317,-0.508 0.359,0.171 0.256,0.473 0.287,0.794 0.036,-0.196 0.089,-0.386 0.159,-0.572 0.005,-0.249 -0.22,-0.439 -0.19,-0.698 0.075,-0.648 0.534,-0.508 1.015,-0.46 0.413,0.041 0.878,-0.205 1.264,0.022 0.587,0.346 0.767,0.991 1.533,1.074 -0.295,-0.234 -0.599,-0.304 -0.853,-0.611 -0.212,-0.256 -0.417,-0.521 -0.749,-0.622 -0.312,-0.096 -0.683,-0.017 -0.935,-0.264 -0.232,-0.228 -0.082,-0.424 0.216,-0.409 -0.122,-0.387 -0.896,-0.597 -0.189,-0.921 -0.315,0.073 -0.642,0.131 -0.953,0 0.236,-0.427 0.847,-0.227 1.054,-0.565 0.126,-0.206 -0.334,-0.529 -0.427,-0.686 -0.105,-0.178 -0.285,-0.721 -0.468,-0.814 -0.392,-0.201 -0.984,0.035 -0.984,0.381 -0.061,-0.255 -0.045,-0.672 0.251,-0.794 -0.273,0.468 0.396,0.41 0.661,0.382 0.588,-0.062 1.195,-0.057 1.728,0.235 -0.12,-0.065 2.846,0.189 1.966,0.589 0.548,-0.014 0.062,0.658 -0.159,0.763 0.291,-0.119 0.625,-0.164 0.922,-0.031 -0.146,0.202 -0.144,0.247 -0.097,0.477 0.177,-0.517 0.767,-0.325 1.128,-0.162 0.58,0.261 0.921,0.055 1.506,-0.061 -0.115,0.644 -0.518,0.925 -0.948,1.366 0.224,0.049 0.409,0.185 0.472,0.414 -1.007,-0.089 -0.064,0.668 0.055,0.924 0.167,0.361 -0.921,0.656 -0.972,1.013 0.502,-0.022 0.837,0.562 1.271,0.73 0.412,0.16 1.193,0.211 1.521,0.477 -0.146,0.333 -0.641,0.664 -1.014,0.524 -0.471,-0.176 -0.838,0.234 -1.302,0.175 0.019,0.526 0.558,0.726 0.666,1.239 -0.37,0.213 0.215,0.411 0.159,0.699 -0.084,0.425 -0.002,0.88 -0.574,0.938 -0.332,0.034 -1.042,0.042 -0.648,0.556 0.035,0.126 0.003,0.233 -0.097,0.322 -0.091,0.183 0.226,0.392 0.269,0.552 0.146,0.545 -0.716,0.249 -0.895,0.419 -0.283,0.271 -0.826,0.213 -1.073,0.518 -0.502,0.622 0.755,0.634 0.643,0.949 -0.146,10e-4 -0.226,0.084 -0.239,0.247 0.021,0.121 0.079,0.218 0.173,0.293 -0.006,-0.097 -0.709,0.232 -0.735,0.226 0.544,0.228 -0.069,0.781 -0.19,1.08 0.398,-0.26 0.489,0.18 0.507,0.477 0.903,-0.522 1.471,1.555 2.193,1.017 -0.098,-0.104 -0.193,-0.211 -0.287,-0.318 0.425,-0.411 1.226,-0.209 1.557,0.222 0.016,-0.032 -10e-4,-1.307 0.379,-0.871 0.533,0.61 1.266,0.016 1.857,0.456 0.456,0.34 0.387,0.953 0.936,1.254 0.512,0.281 0.768,0.635 0.225,1.066 0.689,0.374 0.836,1.271 1.56,1.672 0.575,0.319 1.048,0.791 1.602,1.123 0.475,0.284 1.567,0.831 0.948,1.581 -0.342,0.413 -0.994,-0.43 -0.994,0.5 0,0.528 -1.154,0.731 -1.51,0.895 -0.312,0.143 -0.512,0.386 -0.235,0.681 0.367,0.391 0.372,0.38 0.333,0.855 -0.031,0.389 0.524,0.187 0.393,0.639 -0.133,0.454 -0.127,0.669 -0.623,0.289 -0.164,-0.125 -0.242,-0.51 -0.44,-0.532 -0.183,0.035 -0.362,0.083 -0.538,0.143 -0.363,0 -0.706,-0.178 -1.063,-0.222 0.032,0.114 0.054,0.23 0.062,0.349 -0.768,-0.25 -1.469,0.295 -2.161,0.365 -0.358,0.036 -0.573,0.342 -0.953,0.333 -0.162,-0.004 -1.017,-0.223 -0.697,-0.381 -0.368,0.035 -1.039,0.008 -1.332,-0.254 -0.152,0.509 -0.17,1.155 -0.86,1.176 0.498,-0.856 -2.032,-1.085 -2.39,-1.293 -0.585,-0.34 -1.355,-0.17 -1.929,-0.455 -0.813,-0.403 -1.036,0.542 -0.348,0.286 -0.124,0.364 -0.64,0.354 -1.213,0.324 -0.294,-0.016 -1.903,0.269 -1.584,-0.102 -0.555,0.337 -0.165,-1.929 0,-2.287 0.246,-0.536 0.228,-1.138 0.598,-1.621 0.323,-0.422 0.721,-0.792 1.118,-1.143 -0.489,-0.081 -1.121,-0.199 -1.592,-0.347 -0.521,-0.164 -0.643,-0.477 -1.209,-0.281 -0.155,0.017 -0.311,0.04 -0.464,0.068 -0.406,0.105 -0.102,-0.202 -0.39,-0.297 -0.474,-0.158 -0.575,0.344 -1,-0.368 -0.225,-0.376 -0.776,-0.523 -0.776,-1.014 0,-0.423 0.766,-0.618 0.107,-0.947 -0.82,-0.409 -1.093,-1.632 0.021,-1.833 -0.128,-0.267 -0.106,-0.772 -0.543,-0.699 0.345,-0.448 -0.166,-0.461 -0.423,-0.677 -0.409,-0.34 0.237,-0.639 -0.04,-0.889 -0.478,-0.431 0.359,-1.196 0.558,-1.579 0.218,-0.429 -0.328,-1.261 -0.733,-1.401 z"
         id="path3884" />
      <path
         style="fill:#aaaaaa"
         inkscape:connector-curvature="0"
         d="m 296.135,264.662 c -1.381,-0.287 -0.719,-1.823 -0.696,-1.862 -0.063,-0.073 -0.462,1.808 -0.485,1.712 -0.021,-0.175 -0.193,-1.154 -0.041,-1.152 0.052,-0.147 -0.066,0.327 -0.067,0.094 -10e-4,-0.409 2.03,-0.787 2.303,-0.889 0.123,-0.068 0.238,-0.146 0.346,-0.234 0.257,-0.076 -0.255,0.1 -0.039,-0.234 -0.011,0.018 0.607,-0.994 0.633,-0.961 -0.319,-0.416 -0.433,-0.511 -0.091,-0.539 0.511,-0.042 1.246,-0.199 1.285,-0.713 0.019,-0.246 -1.434,-0.275 -1.397,-0.393 0.206,-0.667 0.624,-1.113 0.6,-1.785 0.37,0.047 0.656,-0.215 1.015,-0.225 0.513,-0.013 -2.844,0.269 -2.567,-0.354 -0.244,-0.198 3.458,-0.119 3.203,-0.215 -0.272,-0.102 -1.443,-0.381 -1.77,-0.381 -0.587,0 -1.443,-0.34 -2.024,-0.313 0.05,-0.357 2.021,-0.705 1.686,-1.43 -0.554,-1.198 -0.108,-1.013 0.899,-0.924 -0.343,-0.592 1.2,-0.248 1.465,0 0.107,-0.32 0.838,-0.888 0.189,-0.572 0.33,-0.212 1.752,-0.848 1.682,-0.127 -0.153,-0.427 0.391,-0.616 0.646,-0.814 0.544,-0.417 0.657,-0.633 1.387,-0.361 -0.375,-0.062 -1.357,-0.027 -1.271,0.571 0.533,-0.54 1.004,-0.587 1.717,-0.523 0.34,0.03 1.104,0.95 1.461,1.158 -0.107,-0.218 0.297,-0.237 0.494,-0.237 0.324,0 0.424,0.647 0.447,0.864 0.046,0.417 0.547,0.508 0.868,0.626 0.522,0.193 0.67,0.729 0.802,1.219 0.102,0.382 0.117,0.757 -0.022,1.132 -0.129,0.347 -0.628,0.339 -0.587,0.778 0.065,0.704 1.55,0.676 1.286,1.544 -0.214,0.705 0.621,0.866 0.433,1.756 -0.046,0.215 -0.395,0.501 -0.199,0.717 0.292,0.322 0.221,0.456 0.266,0.845 0.031,0.287 0.652,0.21 0.71,0.57 0.081,0.507 -0.366,0.836 -0.351,1.363 0.014,0.456 -0.5,0.855 -0.743,0.261 -0.204,-0.5 -0.474,-0.331 -0.925,-0.227 0.108,0.093 0.215,0.188 0.317,0.286 -1.151,0.443 -2.769,0.879 -3.735,1.654 -0.605,0.485 -2.096,0.001 -2.207,1.172 -0.296,-1.11 -1.474,0.108 -2.191,-0.07 -0.209,-0.052 -0.546,-1.463 -0.705,-1.191 -0.16,0.273 -0.299,1.439 -0.424,1.714 -0.331,-0.432 -0.953,-1.466 -1.379,-1.055 0.095,0.107 0.189,0.213 0.287,0.317 -0.722,0.539 -2.063,-0.943 -2.966,-0.421 -0.018,-0.297 -0.466,-0.558 -0.865,-0.298 0.122,-0.298 0.378,-1.09 -0.166,-1.317 m 1.486,-0.537 z"
         id="path3886" />
      <path
         style="fill:#aaaaaa"
         inkscape:connector-curvature="0"
         d="m 305.093,252.273 c 0.478,-0.061 0.252,-0.514 0.098,-0.763 0.336,-0.03 0.652,0.092 0.953,0.223 -0.141,-0.392 -0.959,-0.277 -0.318,-0.699 -0.025,0.644 0.658,0.079 0.764,0.46 0.051,0.187 -0.273,0.425 -0.046,0.568 0.167,0.106 0.302,0.12 0.298,0.369 -0.314,-0.054 -0.59,-0.242 -0.857,-0.011 -0.238,0.203 -0.756,0.145 -0.892,-0.147 z"
         id="path3892" />
      <path
         style="fill:#aaaaaa"
         inkscape:connector-curvature="0"
         d="m 307.063,253.321 c 0.002,-0.152 -0.02,-0.3 -0.066,-0.444 0.303,0.386 0.939,0.38 1.213,0.803 0.269,0.413 -0.852,0.416 -1.055,0.308 0.452,-0.081 0.029,-0.541 0.543,-0.571 -0.219,0.019 -0.431,-0.013 -0.635,-0.096 z"
         id="path3894" />
    </g>
  </g>
</svg>
