<?xml version="1.0" encoding="UTF-8" standalone="no"?>
<!-- Created with Inkscape (http://www.inkscape.org/) -->

<svg
   xmlns:dc="http://purl.org/dc/elements/1.1/"
   xmlns:cc="http://creativecommons.org/ns#"
   xmlns:rdf="http://www.w3.org/1999/02/22-rdf-syntax-ns#"
   xmlns:svg="http://www.w3.org/2000/svg"
   xmlns="http://www.w3.org/2000/svg"
   xmlns:sodipodi="http://sodipodi.sourceforge.net/DTD/sodipodi-0.dtd"
   xmlns:inkscape="http://www.inkscape.org/namespaces/inkscape"
   width="6.5432129mm"
   height="5.5455952mm"
   viewBox="0 0 6.5432132 5.5455936"
   version="1.1"
   id="svg7070"
   inkscape:version="0.92.4 (5da689c313, 2019-01-14)"
   sodipodi:docname="guinea.svg">
  <defs
     id="defs7064" />
  <sodipodi:namedview
     id="base"
     pagecolor="#ffffff"
     bordercolor="#666666"
     borderopacity="1.0"
     inkscape:pageopacity="0.0"
     inkscape:pageshadow="2"
     inkscape:zoom="7.9195959"
     inkscape:cx="12.171001"
     inkscape:cy="-13.151824"
     inkscape:document-units="mm"
     inkscape:current-layer="layer1"
     showgrid="false"
     inkscape:window-width="958"
     inkscape:window-height="1008"
     inkscape:window-x="-7"
     inkscape:window-y="0"
     inkscape:window-maximized="0" />
  <metadata
     id="metadata7067">
    <rdf:RDF>
      <cc:Work
         rdf:about="">
        <dc:format>image/svg+xml</dc:format>
        <dc:type
           rdf:resource="http://purl.org/dc/dcmitype/StillImage" />
        <dc:title />
      </cc:Work>
    </rdf:RDF>
  </metadata>
  <g
     inkscape:label="Layer 1"
     inkscape:groupmode="layer"
     id="layer1"
     transform="translate(-158.61364,-33.219966)">
    <g
       transform="matrix(0.26458333,0,0,0.26458333,102.45457,-75.214027)"
       id="gn"
       style="fill:#ffffff">
      <path
         style="fill:#ffffff"
         inkscape:connector-curvature="0"
         id="path5380"
         d="m 212.375,416.432 c -0.191,0.242 -0.173,0.641 0.189,0.699 -0.097,-0.257 -0.044,-0.479 0.159,-0.667 -0.116,-0.011 -0.233,-0.022 -0.348,-0.032 z" />
      <path
         style="fill:#ffffff"
         inkscape:connector-curvature="0"
         id="path5400"
         d="m 212.437,416.37 c 0.439,-0.548 0.396,-1.446 0.953,-1.913 0.377,-0.316 1.109,-0.381 1.561,-0.616 0.45,-0.235 0.916,0.05 1.377,-0.195 0.304,-0.162 0.545,-0.451 0.517,-0.812 -0.042,-0.543 -0.544,-0.592 -0.738,-0.988 -0.082,-0.167 0.974,-0.683 0.953,-1.096 -0.044,-0.849 -0.062,-1.044 0.939,-0.854 0.194,0.037 1.191,0.071 1.155,0.326 -0.052,0.377 0.121,0.452 0.442,0.262 0.254,-0.15 0.807,0.395 1,0.532 -0.026,-0.019 0.95,0.228 0.931,0.229 0.465,-0.044 0.771,-0.268 1.276,-0.232 0.626,0.045 1.295,-0.394 1.893,-0.136 -0.448,0.684 -0.495,1.112 0.275,1.539 0.57,0.314 0.727,-0.918 1.201,-0.801 0.732,0.183 0.438,1.806 1.412,0.651 1.03,-1.222 1.276,0.116 2.419,-0.003 0.31,-0.032 0.505,-0.301 0.718,-0.492 0.198,-0.18 0.768,-0.201 0.855,-0.389 0.157,-0.339 -0.289,-1.15 0.452,-0.801 0.28,0.133 0.864,0.343 0.743,0.759 -0.041,0.139 0.16,0.915 0.285,0.979 0.389,0.194 0.009,1.714 0.533,1.416 0.079,0.636 1.047,0.663 1.133,1.246 0.039,0.257 -0.388,0.172 -0.573,0.386 -0.257,0.294 -0.396,0.697 -0.498,1.068 0.383,0.019 0.525,-0.433 0.896,-0.366 0.595,0.106 0.35,0.783 0.336,1.21 -0.01,0.32 -0.077,1.106 0.431,1.105 0.114,-0.001 0.735,0.557 0.737,0.66 0.009,0.382 -0.282,0.717 -0.54,0.959 -0.239,0.224 -0.078,0.685 -0.084,0.984 -0.011,0.566 -0.062,1.886 0.861,1.292 -0.175,0.873 -0.082,0.746 0.415,1.334 -0.596,0.09 -0.599,0.584 -0.763,1.049 0.903,0.148 0.818,0.924 1.045,1.619 -0.442,-0.201 -1.617,-0.92 -1.951,-0.186 -0.263,0.576 0.623,1.131 0.906,1.551 -0.689,-0.367 -0.466,1.023 -0.604,1.244 -0.312,0.5 -0.176,0.469 -0.712,0.439 -0.194,-0.01 -0.662,0.049 -0.731,-0.221 -0.211,-0.805 -0.599,0.387 -0.722,0.658 -0.27,0.598 -0.52,0.764 -1.17,1.023 -0.036,-0.74 -0.641,-0.857 -1.24,-0.635 0.166,-0.484 0.308,-0.982 0.326,-1.498 0.007,-0.195 0.004,-1.305 -0.229,-1.074 0.219,-0.688 -0.253,-1.428 -0.728,-1.846 -0.218,-0.191 -0.425,-0.268 -0.659,-0.029 -0.395,0.404 -0.387,0.08 -0.855,0.027 -0.326,-0.037 -0.693,0.127 -0.965,0.291 -0.168,0.102 -0.88,0.475 -0.953,0.635 -0.067,-0.639 0.713,-1.045 0.665,-1.662 -0.042,-0.531 -0.255,-1.193 -0.622,-1.535 -0.228,-0.213 0.2,-0.447 0.072,-0.686 -0.147,-0.273 -0.391,-0.371 -0.527,-0.697 -0.274,-0.656 -0.666,-1.696 -1.413,-1.951 -0.436,-0.148 -1.032,-0.044 -1.486,-0.044 -0.569,0 -0.704,0.319 -1.204,0.413 -0.877,0.163 -0.944,-0.299 -1.517,0.527 -0.36,0.517 -0.423,1.339 -0.974,1.714 -0.324,0.221 -0.499,0.352 -0.698,0.717 -0.241,0.443 -0.657,0.025 -0.971,0.312 -0.037,-0.295 0.154,-0.512 0.445,-0.539 -0.064,-0.123 -0.149,-0.229 -0.256,-0.318 -0.079,0.102 -0.152,0.209 -0.221,0.318 -0.027,-0.213 -0.037,-0.424 -0.031,-0.637 -0.116,0.012 -0.232,0.021 -0.348,0.033 0.099,-0.395 -0.474,-0.469 -0.225,-0.857 -0.583,0.588 -0.298,-0.934 -0.508,-1.081 0.031,0.255 -0.111,0.349 -0.349,0.286 0.102,-0.225 0.175,-0.458 0.221,-0.699 -0.137,0.468 -0.445,0.305 -0.732,0.096 -0.409,-0.299 -0.196,-0.51 -0.349,-0.921 -0.218,0.078 -0.365,0.226 -0.441,0.444 -0.048,-0.801 -1.741,-0.732 -1.271,-1.747 -0.144,0.052 -0.293,0.084 -0.445,0.095 0.25,-0.466 0.422,-0.985 0.569,-1.493 -0.192,0.193 -0.34,0.415 -0.441,0.668 -0.052,-0.517 -0.257,-0.252 -0.415,0 -0.075,-0.349 -0.124,-1.087 0.318,-1.239 -0.349,0.199 -0.719,0.189 -1.107,0.193 z" />
    </g>
  </g>
</svg>
