<?xml version="1.0" encoding="UTF-8" standalone="no"?>
<!-- Created with Inkscape (http://www.inkscape.org/) -->

<svg
   xmlns:dc="http://purl.org/dc/elements/1.1/"
   xmlns:cc="http://creativecommons.org/ns#"
   xmlns:rdf="http://www.w3.org/1999/02/22-rdf-syntax-ns#"
   xmlns:svg="http://www.w3.org/2000/svg"
   xmlns="http://www.w3.org/2000/svg"
   xmlns:sodipodi="http://sodipodi.sourceforge.net/DTD/sodipodi-0.dtd"
   xmlns:inkscape="http://www.inkscape.org/namespaces/inkscape"
   width="4.2786498mm"
   height="7.3808618mm"
   viewBox="0 0 4.2786496 7.3808618"
   version="1.1"
   id="svg7070"
   inkscape:version="0.92.4 (5da689c313, 2019-01-14)"
   sodipodi:docname="guyana.svg">
  <defs
     id="defs7064" />
  <sodipodi:namedview
     id="base"
     pagecolor="#ffffff"
     bordercolor="#666666"
     borderopacity="1.0"
     inkscape:pageopacity="0.0"
     inkscape:pageshadow="2"
     inkscape:zoom="1.4"
     inkscape:cx="-110.77777"
     inkscape:cy="-86.563715"
     inkscape:document-units="mm"
     inkscape:current-layer="layer1"
     showgrid="false"
     inkscape:window-width="958"
     inkscape:window-height="1008"
     inkscape:window-x="-7"
     inkscape:window-y="0"
     inkscape:window-maximized="0" />
  <metadata
     id="metadata7067">
    <rdf:RDF>
      <cc:Work
         rdf:about="">
        <dc:format>image/svg+xml</dc:format>
        <dc:type
           rdf:resource="http://purl.org/dc/dcmitype/StillImage" />
        <dc:title />
      </cc:Work>
    </rdf:RDF>
  </metadata>
  <g
     inkscape:label="Layer 1"
     inkscape:groupmode="layer"
     id="layer1"
     transform="translate(-239.19355,-74.885174)">
    <path
       inkscape:connector-curvature="0"
       style="fill:#ffffff;stroke-width:0.26458332"
       d="m 239.19355,77.498989 c 0.16933,-0.186002 0.26247,-0.254265 0.20346,-0.506413 -0.0415,-0.177271 0.0304,-0.26035 0.20082,-0.273314 0.0765,-0.0056 -0.002,-0.109538 0.10901,-0.07646 0.11748,0.03519 0.15187,-0.03916 0.25532,-0.07038 0.0836,-0.02487 0.18389,-0.08255 0.22305,-0.164835 0.0317,-0.06773 -0.0378,-0.191823 -0.12224,-0.161661 -0.21061,0.07541 -0.081,-0.113242 -0.16986,-0.229394 -0.0807,-0.105833 0.0233,-0.215371 0.091,-0.299243 0.0852,-0.104775 0.0881,-0.0635 0.21007,-0.126207 0.16352,-0.08361 0.23469,-0.286279 0.37809,-0.368564 0.19712,-0.113242 0.0553,-0.179388 -0.0336,-0.337344 0.13732,0.160602 0.32041,0.2667 0.47863,0.40349 -0.0765,-0.117211 -0.23442,-0.145257 -0.29421,-0.277548 0.19447,0.08784 0.39767,0.215371 0.54133,0.37465 0.11589,0.128587 0.263,0.377825 0.40693,0.461433 0.16034,0.09366 0.20188,0.394229 0.14526,0.55245 -0.0426,0.118269 -0.10398,0.199496 -0.1188,0.329671 -0.013,0.112712 -0.0159,0.235214 -0.0825,0.332846 0.22225,-0.04075 0.0545,-0.584465 0.39688,-0.463021 0.25717,0.09155 0.57335,0.274902 0.63579,0.572029 0.16748,-0.150812 0.28628,0.160602 0.30956,0.280723 0.041,0.208227 -0.0386,0.52361 -0.17409,0.6858 0.22516,0.0635 -0.0251,0.176212 0.0328,0.293952 -0.13812,0.02699 -0.63209,-0.01614 -0.65564,0.252148 -0.0206,0.234685 0.0175,0.387615 -0.019,0.618067 -0.0246,0.155045 0.11483,0.462491 0.22807,0.567531 0.11589,0.106891 0.0386,0.235744 0.21193,0.26035 0.0362,0.0053 0.13044,-0.04022 0.15266,-0.0053 0.0714,0.111654 0.0807,0.250561 0.10028,0.377825 0.0368,0.237596 0.2839,0.431536 0.2839,0.665163 0,0.237596 0.26882,0.230452 0.35375,0.37412 -0.28734,0.183886 -0.56674,-0.186531 -0.84191,0.03916 -0.046,0.03836 -0.0735,0.08943 -0.11483,0.131233 -0.0757,0.07699 -0.17145,0.04392 -0.26326,0.07541 -0.16827,0.059 -0.17594,0.142611 -0.37438,0.145257 -0.0617,5.29e-4 -0.0968,0.04868 -0.13679,0.08784 -0.0304,0.0053 -0.0585,0.0164 -0.0839,0.0336 0.007,0.03519 0.0119,0.07038 0.0135,0.105834 -0.0437,0.08731 -0.28681,0.126206 -0.37544,0.09604 -0.0614,-0.02117 -0.0217,-0.0926 -0.10928,-0.09366 -0.0696,-5.29e-4 -0.20928,-0.05212 -0.23574,-0.12409 -0.0423,-0.115887 -0.20796,-0.29501 -0.33576,-0.312208 0.0114,-0.02778 0.0228,-0.05583 0.0339,-0.08414 -0.118,0.0077 -0.10451,-0.09816 -0.09,-0.178859 0.0249,-0.139964 -0.0119,-0.194204 -0.0966,-0.296598 -0.14023,-0.169068 -0.13362,-0.491331 -0.0902,-0.692414 0.0333,-0.154517 0.14816,-0.296598 0.14869,-0.459846 5.3e-4,-0.141023 0.04,-0.130704 0.12144,-0.250031 0.0513,-0.07435 0.16061,-0.205582 0.11219,-0.295011 -0.0386,-0.07144 -0.13997,-0.170656 -0.13997,-0.255852 0,-0.08176 0.0431,-0.160073 -0.0513,-0.201612 -0.0653,-0.02831 -0.23151,-0.03043 -0.27146,-0.09816 -0.0378,-0.06297 0.0939,-0.253206 0.10689,-0.327025 0.0217,-0.122502 0.006,-0.264054 -0.0921,-0.351896 -0.14552,-0.131762 -0.3728,0.07488 -0.54901,-0.01191 -0.21008,-0.103452 -0.46831,-0.517789 -0.5633,-0.723635 z"
       id="gy" />
  </g>
</svg>
