<?xml version="1.0" encoding="UTF-8" standalone="no"?>
<!-- Created with Inkscape (http://www.inkscape.org/) -->

<svg
   xmlns:dc="http://purl.org/dc/elements/1.1/"
   xmlns:cc="http://creativecommons.org/ns#"
   xmlns:rdf="http://www.w3.org/1999/02/22-rdf-syntax-ns#"
   xmlns:svg="http://www.w3.org/2000/svg"
   xmlns="http://www.w3.org/2000/svg"
   xmlns:sodipodi="http://sodipodi.sourceforge.net/DTD/sodipodi-0.dtd"
   xmlns:inkscape="http://www.inkscape.org/namespaces/inkscape"
   width="5.2689319mm"
   height="2.7880933mm"
   viewBox="0 0 5.2689315 2.7880938"
   version="1.1"
   id="svg7070"
   inkscape:version="0.92.4 (5da689c313, 2019-01-14)"
   sodipodi:docname="hungary.svg">
  <defs
     id="defs7064" />
  <sodipodi:namedview
     id="base"
     pagecolor="#ffffff"
     bordercolor="#666666"
     borderopacity="1.0"
     inkscape:pageopacity="0.0"
     inkscape:pageshadow="2"
     inkscape:zoom="7.9195959"
     inkscape:cx="0.39283394"
     inkscape:cy="-14.559202"
     inkscape:document-units="mm"
     inkscape:current-layer="layer1"
     showgrid="false"
     inkscape:window-width="958"
     inkscape:window-height="1008"
     inkscape:window-x="-7"
     inkscape:window-y="0"
     inkscape:window-maximized="0" />
  <metadata
     id="metadata7067">
    <rdf:RDF>
      <cc:Work
         rdf:about="">
        <dc:format>image/svg+xml</dc:format>
        <dc:type
           rdf:resource="http://purl.org/dc/dcmitype/StillImage" />
        <dc:title />
      </cc:Work>
    </rdf:RDF>
  </metadata>
  <g
     inkscape:label="Layer 1"
     inkscape:groupmode="layer"
     id="layer1"
     transform="translate(-162.91927,-42.723045)">
    <path
       inkscape:connector-curvature="0"
       style="fill:#ffffff;stroke-width:0.26458332"
       d="m 162.91927,44.40125 c 0.0788,-0.0844 0.18124,-0.152929 0.30242,-0.126206 -0.0386,-0.101864 -0.0653,-0.238654 -0.0323,-0.345546 0.0275,-0.09049 0.14155,-0.120121 0.17092,-0.211402 0.0241,-0.07541 -0.24818,-0.103187 -0.0984,-0.159544 0.1135,-0.04286 0.23442,0.148167 0.31855,0.0074 0.11907,-0.198702 0.12012,-0.390261 0.39344,-0.178859 0.33708,0.261144 0.67892,0.128853 1.07103,0.08096 -0.21722,-0.173038 0.0931,-0.179917 0.22596,-0.192617 0.0651,-0.0063 0.24791,-0.03413 0.26458,-0.115358 0.0286,-0.138906 0.12832,-0.01402 0.22966,0.02593 0.13599,0.05371 0.40269,-0.03201 0.50165,-0.126206 0.0722,-0.06853 -0.007,-0.277548 0.0823,-0.313002 0.17463,-0.06879 0.38656,0.03201 0.56224,0.04895 0.0754,-0.121179 0.20823,-0.0217 0.27702,0.04895 0.10266,0.105568 0.1733,0.1143 0.31591,0.07144 0.25109,-0.07567 0.34476,0.292365 0.58288,0.266965 0.17701,-0.01879 0.0815,0.228071 0.0138,0.282575 -0.1053,0.08467 -0.26855,0.01376 -0.35295,0.121179 -0.0542,0.06932 -0.23469,0.178594 -0.28575,0.245533 -0.0807,0.106892 -0.1188,0.241565 -0.17357,0.322527 -0.0585,0.08652 -0.05,0.224632 -0.0585,0.319352 -0.01,0.115094 -0.16405,0.175684 -0.2085,0.284427 -0.0458,0.111919 -0.0445,0.20029 -0.18362,0.234686 -0.0966,0.02381 -0.17092,-0.01614 -0.23918,0.06959 -0.0696,0.08731 -0.15399,0.02037 -0.2413,0.05159 -0.12674,0.04498 -0.2757,0.0056 -0.40455,-0.0074 -0.0907,-0.0093 -0.23521,-0.06165 -0.31168,0.01085 -0.0868,0.08255 -0.11377,0.152664 -0.24394,0.15875 -0.11959,0.0056 -0.24845,0.01773 -0.3601,0.06456 -0.10478,0.04366 -0.13388,0.147108 -0.2585,0.162983 -0.2077,0.02646 -0.47678,-0.02513 -0.64743,-0.134143 -0.0982,-0.06244 -0.19077,-0.04868 -0.26909,-0.155046 -0.0968,-0.132027 -0.23336,-0.208757 -0.3683,-0.297392 -0.12356,-0.08149 -0.2196,-0.152929 -0.29501,-0.280723 -0.0595,-0.101071 -0.13546,-0.261408 -0.27966,-0.235744 z"
       id="hu" />
  </g>
</svg>
