<?xml version="1.0" encoding="UTF-8" standalone="no"?>
<!-- Created with Inkscape (http://www.inkscape.org/) -->

<svg
   xmlns:dc="http://purl.org/dc/elements/1.1/"
   xmlns:cc="http://creativecommons.org/ns#"
   xmlns:rdf="http://www.w3.org/1999/02/22-rdf-syntax-ns#"
   xmlns:svg="http://www.w3.org/2000/svg"
   xmlns="http://www.w3.org/2000/svg"
   xmlns:sodipodi="http://sodipodi.sourceforge.net/DTD/sodipodi-0.dtd"
   xmlns:inkscape="http://www.inkscape.org/namespaces/inkscape"
   width="7.3074746mm"
   height="2.7670226mm"
   viewBox="0 0 7.3074743 2.7670227"
   version="1.1"
   id="svg7070"
   inkscape:version="0.92.4 (5da689c313, 2019-01-14)"
   sodipodi:docname="iceland.svg">
  <defs
     id="defs7064" />
  <sodipodi:namedview
     id="base"
     pagecolor="#ffffff"
     bordercolor="#666666"
     borderopacity="1.0"
     inkscape:pageopacity="0.0"
     inkscape:pageshadow="2"
     inkscape:zoom="1.4"
     inkscape:cx="37.447334"
     inkscape:cy="31.001576"
     inkscape:document-units="mm"
     inkscape:current-layer="layer1"
     showgrid="false"
     inkscape:window-width="958"
     inkscape:window-height="1008"
     inkscape:window-x="-7"
     inkscape:window-y="0"
     inkscape:window-maximized="0" />
  <metadata
     id="metadata7067">
    <rdf:RDF>
      <cc:Work
         rdf:about="">
        <dc:format>image/svg+xml</dc:format>
        <dc:type
           rdf:resource="http://purl.org/dc/dcmitype/StillImage" />
        <dc:title />
      </cc:Work>
    </rdf:RDF>
  </metadata>
  <g
     inkscape:label="Layer 1"
     inkscape:groupmode="layer"
     id="layer1"
     transform="translate(-172.32208,-74.047819)">
    <path
       inkscape:connector-curvature="0"
       style="fill:#ffffff;stroke-width:0.26458332"
       d="m 172.67401,75.023741 c 0.1225,-0.0045 0.29845,-0.04127 0.42015,-0.0672 0.0669,-0.01429 0.0437,-0.119327 0.13044,-0.06694 0.11668,0.07091 0.21167,-0.141816 0.23045,0.05027 0.0622,-0.02513 0.12118,-0.05583 0.17728,-0.0926 0.0124,0.127265 0.17171,0.09366 0.26035,0.01693 -0.0534,0.04339 -0.11272,0.07699 -0.17728,0.100807 0.0796,0.06562 0.10504,-0.0082 0.1704,-0.03598 0.0442,-0.01879 0.17912,0.07832 0.26749,0.05265 -0.21907,0.05318 -0.46514,0.105834 -0.63844,0.260615 0.0889,-0.0066 0.17304,0.02487 0.26035,0.0336 0.0878,0.0087 0.17357,-0.04286 0.26035,-0.0085 -0.18256,0.291571 -0.76015,-0.110331 -0.95832,0.184944 -0.0201,-0.154252 -0.0855,-0.03493 -0.17304,-0.01429 -0.1053,0.02487 -0.21431,0.01429 -0.3212,0.01429 -0.2167,0 -0.0947,0.21246 0.064,0.155046 0.16933,-0.06138 0.27225,-0.07435 0.45984,-0.05477 0.0897,0.0093 0.17622,0.0058 0.26617,0.0058 0.0908,0 0.19897,0.115887 0.28443,0.06191 -0.0664,0.01958 -0.127,0.06721 -0.15055,0.134144 0.0646,0.01032 0.10372,0.05265 0.10875,0.11774 0.12118,-0.101336 0.31168,-0.175684 0.47043,-0.176477 -0.0397,0.06773 -0.13706,0.07355 -0.20426,0.0889 -0.0807,0.01826 -0.2757,0.198173 -0.0722,0.146314 -0.0662,0.0037 -0.12462,0.02619 -0.17648,0.0672 0.15266,0.0336 0.27596,-0.126206 0.42836,-0.05874 -0.0773,0.0098 -0.45032,0.09578 -0.22754,0.184944 -0.0659,0.01429 -0.13653,-0.01905 -0.20082,0.0085 0.0135,0.137848 -0.0974,0.103452 -0.21008,0.126207 -0.0526,0.0336 -0.10398,0.0381 -0.15425,0.0127 -0.0167,-0.02461 -0.0386,-0.04286 -0.0653,-0.05477 -0.10637,0.03598 -0.0915,0.146844 -0.10055,0.235479 0.19474,-0.01032 0.43128,-0.01244 0.6223,-0.05054 0.0926,-0.01826 0.18548,0.01931 0.27861,0.01058 0.10372,-0.0095 0.14288,-0.110331 0.25956,-0.08625 -0.0169,0.02963 -0.0315,0.06033 -0.0431,0.09234 0.0516,0.009 0.14843,0.06562 0.19923,0.02461 0.0942,-0.07514 0.13864,0.05662 -0.005,0.0426 0.0921,0.06588 0.19315,-0.0069 0.26035,-0.06721 0.0225,0.03096 0.0397,0.06456 0.0513,0.100807 -0.04,0.0056 -0.0791,0.01402 -0.11774,0.02513 0.0923,0.183356 0.28681,0.123031 0.45111,0.152135 0.19632,0.03492 0.37254,0.106627 0.57441,0.115623 0.15293,0.0066 0.3093,0.0019 0.45932,-0.03201 0.068,-0.01561 0.136,-0.03731 0.19606,-0.07303 0.14869,-0.08864 -0.0243,-0.08943 0.12594,-0.128852 -0.21167,-0.04207 0.20584,-0.07779 0.27173,-0.08123 0.11562,-0.0061 0.32385,-0.0056 0.36671,-0.145786 0.0111,0.214577 0.37147,-0.01138 0.48207,-0.06853 0.21087,-0.108744 0.42995,-0.187854 0.63473,-0.305064 0.1196,-0.06826 0.23866,0.08864 0.36645,0.04022 0.0707,-0.02699 0.48816,-0.258233 0.27358,-0.271991 0.0709,-0.08176 0.24633,-0.03731 0.13415,-0.167746 0.10953,0.169862 0.25452,-0.03572 0.39449,-0.01693 -0.15875,-0.0799 0.14764,-0.105304 -0.0759,-0.109273 0.0603,0.0042 0.11933,-0.0013 0.17754,-0.01667 -0.0823,-0.03281 -0.16378,-0.07038 -0.25215,-0.08387 0.14949,-0.100806 0.28469,0.141552 0.42466,-0.03466 0.0881,-0.111125 -0.20955,-0.108214 -0.25665,-0.108214 0.0881,-0.0087 0.17939,-0.0071 0.25215,-0.0672 -0.0908,-0.02249 -0.18574,-0.02064 -0.27781,-0.0085 0.0915,-0.01852 0.29236,-0.08969 0.26035,-0.218281 -0.10054,0.03175 -0.20849,-0.06535 -0.30242,-0.08414 -0.12912,-0.02619 -0.21087,0.03942 -0.31036,0.109273 0.0685,-0.07303 0.23072,-0.12356 0.20188,-0.252148 -0.11933,0.0079 -0.23416,0.04419 -0.35375,0.05027 0.0243,-0.09049 0.15584,-0.112712 0.18944,-0.198173 0.0315,-0.07964 -0.26617,-0.09525 -0.30744,-0.163248 0.10371,0.0053 0.09,-0.02857 0.11165,-0.102658 0.0254,-0.08705 0.21643,-0.07805 0.28416,-0.107421 -0.1598,0.03122 -0.50853,0.0037 -0.56382,0.210079 -0.0564,-0.05398 -0.21643,-0.104775 -0.18733,-0.19341 0.0463,-0.141288 -0.26299,-0.152929 -0.32808,-0.119856 -0.0651,0.03307 -0.1995,-0.04789 -0.17489,0.0807 0.0317,0.164042 -0.10875,0.157163 -0.12436,0.274903 -0.0283,-0.03096 -0.2995,-0.113771 -0.34422,-0.109538 -0.14737,0.01402 -0.22754,0.190235 -0.33628,0.269081 -0.0386,-0.09975 -0.3601,-0.355071 -0.46514,-0.210608 -0.0317,0.04392 -0.001,0.139171 0.0331,0.173567 0.0786,0.07885 0.0537,0.17727 0.0283,0.27252 -0.12012,-0.153193 -0.19605,-0.538162 -0.46222,-0.47916 -0.077,0.01693 -0.0863,0.09075 -0.14314,0.103452 -0.0672,0.01482 -0.12859,-0.03096 -0.19685,0.0019 -0.0952,0.04551 -0.0175,0.201613 -0.0918,0.274638 -0.12356,0.121708 -0.3003,-0.256382 -0.37703,-0.311944 -0.13493,-0.0979 -0.24024,0.08943 -0.20029,0.202406 0.0325,0.09234 -0.0749,0.375973 -0.15028,0.259027 -0.0259,0.208757 -0.10663,-0.04128 -0.17859,-0.0553 -0.19579,-0.03784 -0.17648,0.379677 -0.27543,0.173038 0.005,0.09446 -0.0778,0.164571 -0.0595,0.260614 -0.0466,-0.118797 2.7e-4,-0.340254 -0.20187,-0.260614 0.26908,-0.04339 -0.10107,-0.192088 -0.10875,-0.28575 0.20664,0.255058 0.42201,-0.216165 0.17648,-0.168011 0.15981,-0.05398 0.05,-0.07382 -0.0198,-0.09551 -0.0963,-0.0299 -0.0693,-0.08758 -0.14288,-0.142346 -0.0765,-0.05662 -0.19023,-0.01376 -0.23839,-0.110067 -0.023,-0.04604 -0.13229,-0.08096 -0.17886,-0.0889 -0.0352,-0.0061 -0.4183,0.0598 -0.34554,0.106892 0.10054,0.06562 0.3048,0.07832 0.42148,0.06958 -0.11165,0.0299 -0.27464,-0.04418 -0.34449,0.08414 0.0685,0.03254 0.24236,0.05821 0.25665,0.155575 0.0103,0.068 -0.14446,0.09366 -0.17251,0.146844 0.14922,-0.203994 -0.0299,-0.172244 -0.15981,-0.109273 0.0534,-0.100542 0.0312,-0.114565 -0.0664,-0.04207 0.0185,-0.02699 0.0352,-0.05477 0.05,-0.08387 -0.0704,-0.03836 -0.14579,-0.07964 -0.22702,-0.08916 -0.0645,-0.0077 -0.22939,0.03334 -0.0508,0.0807 -0.11218,0.0254 -0.11218,0.05874 0,0.100542 -0.0767,-0.04762 -0.16589,-0.05821 -0.25214,-0.07541 -0.0418,0.151077 0.16377,0.151342 0.25214,0.193146 -0.10583,-0.01058 -0.26696,-0.09128 -0.34448,0.02513 0.10768,0.06324 0.22913,0.04207 0.34448,0.07567 -0.0595,0.0032 -0.11826,0.01138 -0.17621,0.02513 0.0444,0.02302 0.0921,0.03413 0.14235,0.0336 -0.16219,0.11139 -0.34475,-0.143404 -0.52044,-0.08414 0.0217,0.06138 0.0714,0.109008 0.13415,0.126206 -0.11219,0.01905 -0.11219,0.0471 0,0.08414 -0.13944,-0.0418 -0.32015,-0.142346 -0.41196,0.03334 0.1225,0 0.24791,-0.0029 0.35243,0.07567 z"
       id="is" />
  </g>
</svg>
