<?xml version="1.0" encoding="UTF-8" standalone="no"?>
<!-- Created with Inkscape (http://www.inkscape.org/) -->

<svg
   xmlns:dc="http://purl.org/dc/elements/1.1/"
   xmlns:cc="http://creativecommons.org/ns#"
   xmlns:rdf="http://www.w3.org/1999/02/22-rdf-syntax-ns#"
   xmlns:svg="http://www.w3.org/2000/svg"
   xmlns="http://www.w3.org/2000/svg"
   xmlns:sodipodi="http://sodipodi.sourceforge.net/DTD/sodipodi-0.dtd"
   xmlns:inkscape="http://www.inkscape.org/namespaces/inkscape"
   width="8.6496096mm"
   height="8.37957mm"
   viewBox="0 0 8.6496094 8.3795676"
   version="1.1"
   id="svg7070"
   inkscape:version="0.92.4 (5da689c313, 2019-01-14)"
   sodipodi:docname="iraq.svg">
  <defs
     id="defs7064" />
  <sodipodi:namedview
     id="base"
     pagecolor="#ffffff"
     bordercolor="#666666"
     borderopacity="1.0"
     inkscape:pageopacity="0.0"
     inkscape:pageshadow="2"
     inkscape:zoom="7.9195959"
     inkscape:cx="17.503772"
     inkscape:cy="7.525658"
     inkscape:document-units="mm"
     inkscape:current-layer="layer1"
     showgrid="false"
     inkscape:window-width="958"
     inkscape:window-height="1008"
     inkscape:window-x="-7"
     inkscape:window-y="0"
     inkscape:window-maximized="0" />
  <metadata
     id="metadata7067">
    <rdf:RDF>
      <cc:Work
         rdf:about="">
        <dc:format>image/svg+xml</dc:format>
        <dc:type
           rdf:resource="http://purl.org/dc/dcmitype/StillImage" />
        <dc:title />
      </cc:Work>
    </rdf:RDF>
  </metadata>
  <g
     inkscape:label="Layer 1"
     inkscape:groupmode="layer"
     id="layer1"
     transform="translate(-152.32168,-29.080351)">
    <path
       style="fill:#ffffff;stroke-width:0.26458332"
       inkscape:connector-curvature="0"
       id="iq"
       d="m 152.32175,33.106874 c 0.51276,-0.245533 0.96626,-0.490537 1.38298,-0.823118 0.13573,-0.10848 0.3048,-0.186002 0.40878,-0.328877 0.14975,-0.206111 0.0802,-0.4064 0.0744,-0.639763 -0.005,-0.197908 0.14155,-0.526785 0.046,-0.702469 -0.0873,-0.160866 -0.22278,-0.482335 -0.0627,-0.648493 0.11139,-0.115888 0.30824,-0.0717 0.43444,-0.192882 0.0987,-0.09446 0.29713,-0.25056 0.31062,-0.398198 0.005,-0.0598 0.0638,-0.03704 0.12409,-0.0553 0.0998,-0.03016 0.0976,-0.128059 0.14341,-0.206111 0.0436,-0.07541 0.49212,0.0058 0.58367,0.03149 0.0796,0.02222 0.15504,0.05741 0.23627,0.07408 0.13335,0.02752 0.17304,-0.05953 0.28919,-0.08043 0.26961,-0.04842 0.0871,0.330729 0.25903,0.314325 0.12065,-0.01164 0.17462,-0.182034 0.30771,-0.177271 0.16907,0.0064 0.13943,0.281516 0.21352,0.380735 0.0352,0.04736 0.0987,0.03889 0.12806,0.0979 0.0357,0.07223 0.019,0.156369 0.0725,0.222515 0.10398,0.129116 0.35983,0.272785 0.26802,0.484981 0.18759,-0.04233 0.21061,0.0725 0.35243,0.151077 0.0744,0.04101 0.43074,0.04948 0.51356,0.0254 -0.0304,0.131233 -0.18865,0.09472 -0.24342,0.196321 -0.0929,0.171185 0.1778,0.304535 0.19288,0.460375 0.0196,0.205316 -0.23151,-0.02037 -0.22437,0.187854 0.003,0.09366 -0.12779,0.08387 -0.15372,0.172244 -0.0294,0.100012 0.0495,0.168539 0.0667,0.26035 -0.0635,-2.65e-4 -0.12251,-0.01693 -0.17648,-0.05027 -0.0148,0.08387 -0.0794,0.139171 -0.009,0.218546 0.0712,0.08043 0.11906,0.116416 0.0841,0.230716 -0.0365,0.119856 -0.13918,0.149225 -0.0365,0.242094 0.0878,0.07938 0.16484,0.174096 0.26379,0.240506 0.0984,0.06641 0.58976,0.506942 0.31962,0.589227 0.0889,0.0344 0.0661,0.153194 0.16483,0.141817 0.12674,-0.01429 0.23099,0.05027 0.33153,0.118798 0.19209,0.130969 0.3765,0.391319 0.62865,0.366183 0.11006,-0.01111 0.38708,0.468577 0.4609,0.558536 0.14764,0.18071 0.0704,0.31115 0.0265,0.523345 -0.0206,0.1016 -0.0481,0.415925 0.10239,0.426773 0.0527,0.004 0.15584,-0.05133 0.19712,0.0013 0.0534,0.06747 0.0296,0.221721 0.0439,0.304007 0.0347,0.203993 0.16272,0.271727 0.28866,0.391054 0.0942,0.08943 0.16166,0.274373 0.23548,0.370416 -0.0757,0.0056 -0.53605,-0.09366 -0.54637,-0.176477 0.0624,0.146844 -0.24288,0.0172 -0.34422,0.0127 -0.14578,-0.0061 -0.28787,0.03995 -0.35375,0.180711 -0.1434,0.304535 -0.16827,0.843491 -0.60404,0.855398 -0.33311,0.0093 -0.70723,-0.05345 -1.04219,-0.07858 -0.4318,-0.03254 -0.67601,-0.30427 -0.98743,-0.572823 -0.33576,-0.289189 -0.70247,-0.540279 -1.04113,-0.826029 -0.32412,-0.273314 -0.6485,-0.56515 -1.0422,-0.734748 -0.39529,-0.170391 -0.71993,-0.410104 -1.08479,-0.633941 -0.3466,-0.21299 -0.78952,-0.170392 -1.17396,-0.253207 0.26512,-0.227012 -0.0754,-0.162189 -0.14658,-0.271462 -0.0196,-0.02567 -0.022,-0.05186 -0.007,-0.07937 0.0595,-0.06826 5.3e-4,-0.1397 -0.0365,-0.238919 -0.0828,-0.220133 -0.16907,-0.438679 -0.23945,-0.663046 z" />
  </g>
</svg>
