<?xml version="1.0" encoding="UTF-8" standalone="no"?>
<!-- Created with Inkscape (http://www.inkscape.org/) -->

<svg
   xmlns:dc="http://purl.org/dc/elements/1.1/"
   xmlns:cc="http://creativecommons.org/ns#"
   xmlns:rdf="http://www.w3.org/1999/02/22-rdf-syntax-ns#"
   xmlns:svg="http://www.w3.org/2000/svg"
   xmlns="http://www.w3.org/2000/svg"
   xmlns:sodipodi="http://sodipodi.sourceforge.net/DTD/sodipodi-0.dtd"
   xmlns:inkscape="http://www.inkscape.org/namespaces/inkscape"
   width="1.0518998mm"
   height="3.840692mm"
   viewBox="0 0 1.0518998 3.8406909"
   version="1.1"
   id="svg7070"
   inkscape:version="0.92.4 (5da689c313, 2019-01-14)"
   sodipodi:docname="israel.svg">
  <defs
     id="defs7064" />
  <sodipodi:namedview
     id="base"
     pagecolor="#ffffff"
     bordercolor="#666666"
     borderopacity="1.0"
     inkscape:pageopacity="0.0"
     inkscape:pageshadow="2"
     inkscape:zoom="7.9195959"
     inkscape:cx="-1.0029804"
     inkscape:cy="-3.2522841"
     inkscape:document-units="mm"
     inkscape:current-layer="layer1"
     showgrid="false"
     inkscape:window-width="958"
     inkscape:window-height="1008"
     inkscape:window-x="-7"
     inkscape:window-y="0"
     inkscape:window-maximized="0" />
  <metadata
     id="metadata7067">
    <rdf:RDF>
      <cc:Work
         rdf:about="">
        <dc:format>image/svg+xml</dc:format>
        <dc:type
           rdf:resource="http://purl.org/dc/dcmitype/StillImage" />
        <dc:title />
      </cc:Work>
    </rdf:RDF>
  </metadata>
  <g
     inkscape:label="Layer 1"
     inkscape:groupmode="layer"
     id="layer1"
     transform="translate(-157.21826,-30.767565)">
    <path
       style="fill:#ffffff;stroke-width:0.26458332"
       inkscape:connector-curvature="0"
       id="il"
       d="m 157.21826,32.868859 c 0.0405,-0.05583 0.26167,-0.322527 0.15981,-0.386556 0.17356,-0.28919 0.21484,-0.624946 0.27781,-0.949855 0.0193,-0.09922 0.0222,-0.262731 0.10266,-0.334168 0.0603,-0.05371 -0.0315,-0.169863 0.0236,-0.228865 0.0503,-0.0545 0.1733,5.29e-4 0.23177,0.0077 0.13811,0.01693 0.11986,-0.125942 0.16272,-0.20955 0.1606,0.06562 0.0722,0.735277 0.0418,0.907785 -0.0841,-0.0066 -0.15769,-0.101864 -0.23971,-0.134937 -0.12356,-0.04921 -0.18759,0.124354 -0.20399,0.215371 -0.0204,0.111918 -0.10081,0.505089 0.072,0.496358 0.31406,-0.0164 -0.13918,0.22569 -0.10187,0.42889 0.0257,0.138112 0.40905,-0.105834 0.48181,-0.106363 0.0161,0.144727 -0.0548,0.238125 -0.0132,0.387615 0.0468,0.168539 -0.10822,0.373591 -0.15478,0.528108 -0.0939,0.313267 0.0704,0.858044 -0.18442,1.117865 -0.13494,-0.271992 -0.12462,-0.599546 -0.30136,-0.853811 -0.0738,-0.106627 -0.0878,-0.241829 -0.13732,-0.359569 -0.0728,-0.174889 -0.15451,-0.330729 -0.21722,-0.525991 z" />
  </g>
</svg>
