<?xml version="1.0" encoding="UTF-8" standalone="no"?>
<!-- Created with Inkscape (http://www.inkscape.org/) -->

<svg
   xmlns:dc="http://purl.org/dc/elements/1.1/"
   xmlns:cc="http://creativecommons.org/ns#"
   xmlns:rdf="http://www.w3.org/1999/02/22-rdf-syntax-ns#"
   xmlns:svg="http://www.w3.org/2000/svg"
   xmlns="http://www.w3.org/2000/svg"
   xmlns:sodipodi="http://sodipodi.sourceforge.net/DTD/sodipodi-0.dtd"
   xmlns:inkscape="http://www.inkscape.org/namespaces/inkscape"
   width="1.87404mm"
   height="0.79762638mm"
   viewBox="0 0 1.87404 0.79762636"
   version="1.1"
   id="svg7070"
   inkscape:version="0.92.4 (5da689c313, 2019-01-14)"
   sodipodi:docname="jamaica.svg">
  <defs
     id="defs7064" />
  <sodipodi:namedview
     id="base"
     pagecolor="#ffffff"
     bordercolor="#666666"
     borderopacity="1.0"
     inkscape:pageopacity="0.0"
     inkscape:pageshadow="2"
     inkscape:zoom="1.4"
     inkscape:cx="124.99884"
     inkscape:cy="-136.53195"
     inkscape:document-units="mm"
     inkscape:current-layer="layer1"
     showgrid="false"
     inkscape:window-width="958"
     inkscape:window-height="1008"
     inkscape:window-x="-7"
     inkscape:window-y="0"
     inkscape:window-maximized="0" />
  <metadata
     id="metadata7067">
    <rdf:RDF>
      <cc:Work
         rdf:about="">
        <dc:format>image/svg+xml</dc:format>
        <dc:type
           rdf:resource="http://purl.org/dc/dcmitype/StillImage" />
        <dc:title />
      </cc:Work>
    </rdf:RDF>
  </metadata>
  <g
     inkscape:label="Layer 1"
     inkscape:groupmode="layer"
     id="layer1"
     transform="translate(-176.81098,-68.247648)">
    <path
       inkscape:connector-curvature="0"
       style="fill:#ffffff;stroke-width:0.26458332"
       d="m 176.81098,68.490174 c 0.23363,-0.308239 0.66622,-0.259291 1.00012,-0.193145 0.20532,0.04048 0.36434,0.164306 0.55907,0.223572 0.20188,0.06112 0.21378,0.151078 0.31485,0.323057 -0.0894,0.04233 -0.18494,0.05027 -0.28257,0.05027 -0.09,0 -0.13415,-0.09313 -0.23019,-0.07541 0.12409,-0.02117 -0.0302,-0.04577 -0.0648,-0.01508 -0.0365,0.03254 -0.0685,0.09684 -0.12383,0.09922 -0.10821,0.0048 -0.24923,-0.01535 -0.15584,0.14261 -0.11165,0.0011 -0.12647,-0.134937 -0.23204,-0.125148 -0.10213,0.0093 -0.2794,-0.0013 -0.33496,-0.103452 -0.0344,-0.06271 -0.0921,-0.122237 -0.13943,-0.175419 -0.0815,-0.09128 -0.24607,-0.03704 -0.31036,-0.151077 z"
       id="jm" />
  </g>
</svg>
