<?xml version="1.0" encoding="UTF-8" standalone="no"?>
<!-- Created with Inkscape (http://www.inkscape.org/) -->

<svg
   xmlns:dc="http://purl.org/dc/elements/1.1/"
   xmlns:cc="http://creativecommons.org/ns#"
   xmlns:rdf="http://www.w3.org/1999/02/22-rdf-syntax-ns#"
   xmlns:svg="http://www.w3.org/2000/svg"
   xmlns="http://www.w3.org/2000/svg"
   xmlns:sodipodi="http://sodipodi.sourceforge.net/DTD/sodipodi-0.dtd"
   xmlns:inkscape="http://www.inkscape.org/namespaces/inkscape"
   width="210mm"
   height="297mm"
   viewBox="0 0 210 297"
   version="1.1"
   id="svg6396"
   inkscape:version="0.92.4 (5da689c313, 2019-01-14)">
  <defs
     id="defs6390" />
  <sodipodi:namedview
     id="base"
     pagecolor="#ffffff"
     bordercolor="#666666"
     borderopacity="1.0"
     inkscape:pageopacity="0.0"
     inkscape:pageshadow="2"
     inkscape:zoom="0.98994949"
     inkscape:cx="423.48475"
     inkscape:cy="1106.3066"
     inkscape:document-units="mm"
     inkscape:current-layer="layer1"
     showgrid="false"
     inkscape:window-width="1920"
     inkscape:window-height="1017"
     inkscape:window-x="-8"
     inkscape:window-y="-8"
     inkscape:window-maximized="1" />
  <metadata
     id="metadata6393">
    <rdf:RDF>
      <cc:Work
         rdf:about="">
        <dc:format>image/svg+xml</dc:format>
        <dc:type
           rdf:resource="http://purl.org/dc/dcmitype/StillImage" />
        <dc:title></dc:title>
      </cc:Work>
    </rdf:RDF>
  </metadata>
  <g
     inkscape:label="Layer 1"
     inkscape:groupmode="layer"
     id="layer1">
    <path
       inkscape:connector-curvature="0"
       style="fill:#aaaaaa;stroke-width:0.26458332"
       d="m 3.4814376,21.318464 c 0.114035,-0.03863 0.0725,-0.294481 0.141552,-0.381794 0.08334,-0.105304 0.298979,-0.209021 0.219075,-0.37465 -0.109009,0.02037 -0.192617,0.280988 -0.310357,0.134673 0.01587,0.12409 0.05583,0.156369 -0.02963,0.259027 -0.07329,0.0889 -0.102658,0.268552 -0.02064,0.362744 z"
       id="path3504" />
    <path
       inkscape:connector-curvature="0"
       style="fill:#aaaaaa;stroke-width:0.26458332"
       d="m 3.8925996,19.965649 c 0.01111,0.01958 0.02249,0.03916 0.0336,0.059 0.02461,-0.02487 0.04445,-0.05292 0.0598,-0.08414 -0.03149,0.0082 -0.06244,0.0164 -0.0934,0.02514 z"
       id="path3514" />
    <path
       inkscape:connector-curvature="0"
       style="fill:#aaaaaa;stroke-width:0.26458332"
       d="m 4.0778076,19.478022 c -0.0635,0.07408 0.02725,0.202671 0.11774,0.176477 -0.03096,-0.06456 -0.07038,-0.12356 -0.11774,-0.176477 z"
       id="path3516" />
    <path
       inkscape:connector-curvature="0"
       style="fill:#aaaaaa;stroke-width:0.26458332"
       d="m 4.5643766,18.856251 c -0.08493,0.068 -0.518583,0.262203 -0.243946,0.369623 0.169863,0.06615 0.06271,-0.06032 0.109802,-0.142875 0.05001,-0.08837 0.245798,-0.09234 0.134144,-0.226748 z"
       id="path3520" />
    <path
       inkscape:connector-curvature="0"
       style="fill:#aaaaaa;stroke-width:0.26458332"
       d="m 2.2034996,12.620022 c -0.186796,0.03889 -0.05794,0.317765 0.06773,0.352954 -0.06482,-0.100012 -0.0418,-0.241564 -0.06773,-0.352954 z"
       id="path3488" />
    <path
       inkscape:connector-curvature="0"
       style="fill:#aaaaaa;stroke-width:0.26458332"
       d="m 2.2617076,13.082779 c -0.02566,-0.04974 -0.06429,-0.06377 -0.116681,-0.04207 0.02619,0.194998 0.186531,0.1778 0.116681,0.04207 z"
       id="path3490" />
    <path
       inkscape:connector-curvature="0"
       style="fill:#aaaaaa;stroke-width:0.26458332"
       d="m 2.2791706,14.628474 c 0.01058,0.03784 0.02461,0.07435 0.0418,0.109538 0.05424,-0.03625 0.112977,-0.06138 0.176477,-0.07567 -0.05318,-0.100542 -0.15875,-0.07064 -0.24421,-0.11774 0.0085,0.02778 0.01746,0.05583 0.02593,0.08387 z"
       id="path3492" />
    <path
       inkscape:connector-curvature="0"
       style="fill:#aaaaaa;stroke-width:0.26458332"
       d="m 2.5392556,14.258587 c -0.01138,-0.01402 -0.02249,-0.02778 -0.03387,-0.04207 0.0026,0.07885 -0.04207,0.195792 0.07567,0.210344 -0.02699,-0.05292 -0.04127,-0.108744 -0.0418,-0.168275 z"
       id="path3494" />
    <path
       inkscape:connector-curvature="0"
       style="fill:#aaaaaa;stroke-width:0.26458332"
       d="m 2.7996056,14.014906 c -0.01931,-0.01138 -0.03863,-0.02249 -0.05821,-0.0336 -0.02355,0.05662 -0.03201,0.115358 -0.02593,0.176477 0.06218,-0.02328 0.1016,-0.07488 0.08414,-0.142875 z"
       id="path3498" />
    <path
       inkscape:connector-curvature="0"
       style="fill:#aaaaaa;stroke-width:0.26458332"
       d="m 2.7996056,13.49447 c -0.0254,0.0029 -0.05027,0.0056 -0.07567,0.0085 0.01878,0.06429 0.068,0.1016 0.135466,0.07541 -0.02011,-0.02805 -0.03995,-0.05583 -0.0598,-0.08387 z"
       id="path3500" />
    <path
       inkscape:connector-curvature="0"
       style="fill:#aaaaaa;stroke-width:0.26458332"
       d="m 3.0268826,13.998501 c -0.03731,-0.02937 -0.141552,-0.02963 -0.1778,0.0011 -0.04815,0.04101 0.08096,0.167216 0.103717,0.190764 0.07488,0.07699 0.18415,0.08123 0.279136,0.119063 0.07329,0.0291 0.08414,0.147902 0.147902,0.19341 -0.05318,-0.02725 -0.12753,0 -0.176213,-0.0336 -0.05503,-0.0381 -0.06456,-0.121179 -0.109802,-0.16801 -0.162454,0.126471 0.186796,0.255852 0.193675,0.386556 0.02566,-0.0471 0.231246,-0.220927 0.27014,-0.111654 0.0209,0.05927 -0.0074,0.161396 0.101335,0.137848 0.12065,-0.02699 0.01482,-0.343165 -0.1778,-0.21934 0.06218,-0.115358 -0.03651,-0.217487 -0.118004,-0.28575 0.131498,-0.188119 0.402696,0.189971 0.480748,0.300038 0.116416,0.164571 0.225954,0.387614 0.110331,0.593989 -0.06879,0.123032 -0.162983,0.09181 -0.107421,0.256646 0.02884,0.08599 0.0717,0.150813 0.12065,0.225954 0.03731,0.05715 0.276754,0.427302 0.05053,0.346869 0.08784,0.09313 0.143669,0.15875 0.277813,0.171979 0.0672,0.0066 0.09551,0.08599 0.168275,0.0717 0.104775,-0.02117 0.02752,-0.104775 -0.01799,-0.12991 -0.103188,-0.05609 -0.188119,-0.262467 -0.110331,-0.368565 0.08969,-0.122237 0.266964,0.104775 0.07012,0.04445 0.03519,0.09975 0.119856,0.167746 0.166952,0.26035 0.05742,0.113507 0.03334,0.224367 0.02593,0.344752 0.129645,-0.05239 0.189706,-0.177535 0.302418,-0.252148 -0.232039,-0.153722 -0.0725,-0.212989 0.11774,-0.117475 0.133879,-0.260614 -0.09763,-0.640027 -0.07858,-0.924983 0.0034,-0.05106 -0.04128,-0.265906 -0.01693,-0.306917 0.07646,-0.128322 0.22225,-0.268287 0.01958,-0.36486 0.01879,-0.02858 0.03863,-0.05662 0.0598,-0.08387 -0.123825,0.0056 -0.133086,-0.08017 -0.207698,-0.148696 -0.09155,-0.08334 -0.238919,-0.02143 -0.330465,-0.112183 0.132292,-0.0635 0.167482,-0.284427 0.01905,-0.352425 -0.206375,-0.09498 -0.382587,0.2286 -0.580495,-0.05583 -0.113771,-0.163513 -0.0344,-0.240771 -0.253471,-0.214048 -0.154517,0.01879 -0.364067,0.140758 -0.253207,0.336285 -0.20611,-0.0074 -0.115887,0.0056 -0.250825,0.151342 -0.08837,-0.201877 -0.146843,0.0034 -0.118797,0.11721 z"
       id="path3502" />
    <path
       inkscape:connector-curvature="0"
       style="fill:#aaaaaa;stroke-width:0.26458332"
       d="m 3.5219186,14.897556 c 0.01164,0.08758 0.06562,0.161395 0.0934,0.243945 0.338137,-0.185472 -0.177271,-0.425979 -0.0934,-0.243945 z"
       id="path3506" />
    <path
       inkscape:connector-curvature="0"
       style="fill:#aaaaaa;stroke-width:0.26458332"
       d="m 3.5219186,15.670933 c 0.07197,0.01931 0.08599,-0.0085 0.0418,-0.08387 -0.01376,0.02778 -0.02778,0.05583 -0.0418,0.08387 z"
       id="path3508" />
    <path
       inkscape:connector-curvature="0"
       style="fill:#aaaaaa;stroke-width:0.26458332"
       d="m 3.7333206,13.393135 c 0.01323,-0.163777 0.238125,0.01244 0.372004,-0.03466 0.274108,-0.09604 0.454819,-0.02963 0.702998,0.118798 -0.09022,-0.07038 -0.150812,-0.509058 0.0164,-0.521229 0.0934,-0.0063 0.137848,0.114565 0.221456,0.138906 0.06006,0.01746 0.333904,-0.121973 0.375973,-0.164041 7.94e-4,0.04286 0.01905,0.06879 0.05556,0.07726 0.02408,-0.0299 0.02752,-0.06403 0.01111,-0.102394 0.06906,0.04895 0.151077,0.03201 0.143669,-0.06747 0.09499,0.05715 0.174889,-0.05318 0.27596,-0.01641 0.146579,0.05318 0.24765,-0.147902 0.08467,-0.09287 0.157163,-0.04075 0.295804,-0.141023 0.456406,-0.168275 0.1778,-0.03016 0.313796,0.136525 0.474134,0.105039 0.119327,-0.02328 0.252677,-0.136525 0.341048,0.01905 0.07302,0.128588 -0.07223,0.284956 -0.179123,0.337873 0.09155,0.06879 0.167746,0.164306 0.156104,0.28575 -0.01323,0.137054 0.149754,0.199231 0.247385,0.247915 0.10504,0.05265 0.138642,0.180975 0.253207,0.222779 0.08678,0.03148 0.166158,0.08361 0.256116,0.106892 0.105834,0.02725 0.166688,-0.441855 0.185738,-0.510382 0.01852,-0.06509 0.0066,-0.219075 0.06271,-0.267229 0.110067,-0.09393 0.267229,-0.0164 0.385498,-0.07752 -0.106098,-0.135731 -0.185473,-0.217487 -0.344488,-0.291571 -0.193939,-0.08996 -0.123296,-0.1778 -0.126206,-0.350308 -0.0011,-0.07726 0.0717,-0.224631 0.141023,-0.07726 0.04048,0.08599 0.01826,0.287337 0.169862,0.25691 -0.05318,-0.0463 -0.06747,-0.102394 -0.04207,-0.16801 0.04974,0.224631 0.322527,0.02672 0.369888,0.201877 -0.06456,0.01693 -0.111919,0.06429 -0.109802,0.134408 0.285221,-0.16801 0.6223,-0.06191 0.924719,-0.01667 -0.197644,-0.187854 0.129381,-0.732366 0.379412,-0.428625 -0.03122,0.01058 -0.06244,0.0217 -0.09366,0.0336 0.06906,0.100013 0.05027,0.313003 0.1838854,0.361686 0.144992,0.05292 0.17198,-0.172244 0.162984,-0.262996 -0.01111,-0.115358 -0.12409,-0.187325 -0.135467,-0.302948 -0.02408,-0.240771 0.384175,-0.05265 0.452702,0.01905 0.06668,-0.106892 -0.278341,-0.304535 -0.05001,-0.352954 -0.126471,-0.151871 0.345017,-0.214841 0.214577,0.0717 -0.03334,0.07329 -0.04683,0.514879 0.08282,0.548217 0.05027,0.01296 0.338667,-0.26379 0.33999,-0.326761 0.0021,-0.09843 -0.0717,-0.164571 -0.07514,-0.256381 -0.0056,-0.145248 0.142874,-0.197635 0.24421,-0.255579 -0.27305,-0.177006 -0.465402,-0.439473 -0.556419,-0.751417 -0.03307,-0.114035 -0.04763,-0.241564 -0.04498,-0.359833 0.0016,-0.0725 0.01376,-0.068 0.07276,-0.09525 0.05345,-0.02461 5.29e-4,-0.07408 -0.0018,-0.112977 -0.01826,-0.3394613 -0.305595,-0.6072193 -0.471225,-0.8778883 -0.194204,-0.317235 -0.04233,-0.602191 0.313002,-0.374121 -0.130704,-0.140493 -0.383116,-0.72681 -0.118004,-0.781579 -0.09313,-0.07488 -0.01984,-0.220662 -0.08599,-0.314325 -0.05371,-0.07567 -0.04895,-0.166158 -0.114565,-0.247121 -0.07408,-0.09181 -0.107421,-0.212195 -0.184679,-0.306916 -0.06906,-0.0852 -0.1397004,-0.122238 -0.1949984,-0.216694 -0.118533,-0.202671 -0.387085,-0.301096 -0.559594,-0.449527 -0.225689,-0.193675 -0.389996,-0.51779 -0.464873,-0.801423 -0.127,0.115887 -0.429154,-0.186267 -0.50747,-0.05662 -0.115623,0.191294 0.282839,0.451908 0.339195,0.182563 0.130175,0.06138 0.269082,0.261143 0.176213,0.403225 -0.08255,-0.05292 -0.170921,-0.09525 -0.260086,-0.134409 0.03678,0.059 0.03678,0.11774 0,0.176477 -0.140229,-0.03466 -0.186002,-0.18706 -0.269875,-0.28575 -0.08784,-0.103716 -0.212195,-0.0635 -0.31062,-0.142875 -0.0026,0.121973 0.248443,0.37809 0.138641,0.473075 -0.05662,0.04895 -0.259556,0.100277 -0.142875,0.217488 0.08943,0.08943 0.261144,0.209021 0.299509,0.325967 0.03439,0.10451 0.03889,0.35507 -0.135467,0.235479 0.03387,0.118268 0.09472,0.101071 0.192881,0.100806 0.13044,-5.29e-4 0.227013,0.147108 0.28575,0.243946 0.151606,0.249502 0.197644,0.683419 0.157427,0.967052 -0.03096,0.219869 0.185738,0.604044 -0.04921,0.733689 -0.269346,0.148432 -0.133879,0.406665 -0.269611,0.657755 -0.111918,0.2069043 -0.359039,0.2174873 -0.538956,0.3370793 -0.112183,0.07461 -0.253206,0.420952 -0.4191,0.12991 -0.04524,-0.07885 -0.02858,-0.18706 -0.141817,-0.207962 -0.06773,-0.01244 -0.146843,-0.145786 -0.05609,-0.129382 0.189971,0.0336 0.116681,-0.2719913 0.148696,-0.3283473 -0.132292,-0.03704 -0.357452,0.08096 -0.399786,0.211666 -0.05847,0.1804463 0.260086,0.3942293 0.219075,0.6273273 -0.03281,0.186796 -0.115887,0.301625 -0.226483,0.446882 -0.185208,0.242093 0.202142,0.383116 0.188912,0.588168 -0.154781,-0.128058 -0.03149,0.08784 -0.18415,0.0336 0.05821,0.273315 -0.478102,-0.03942 -0.302418,0.151077 -0.0508,-0.03254 -0.16854,-0.03598 -0.181769,-0.109272 -0.01482,-0.08176 0.04339,-0.206905 -0.09763,-0.167482 -0.06059,0.01693 -0.112713,0.0553 -0.172244,0.07302 -0.147108,0.04419 -0.304536,-0.0016 -0.444236,0.06959 -0.09816,0.04974 -0.187854,0.08228 -0.297391,0.0971 -0.103717,0.01429 -0.319352,-0.04974 -0.398463,0.0037 -0.111654,0.07488 -0.156104,0.02143 -0.258498,-0.03651 -0.115093,-0.06509 -0.314589,0.06165 -0.420687,0.103452 0.18706,0.20955 -0.556683,0.782373 -0.611717,0.941917 -0.05794,0.167481 -0.40296,0.02011 -0.398462,0.184679 0.005,0.132556 0.110596,0.283369 0.171979,0.395817 z"
       id="path3510" />
    <path
       inkscape:connector-curvature="0"
       style="fill:#aaaaaa;stroke-width:0.26458332"
       d="m 3.7161226,14.87242 c 0.02143,0.105834 0.172773,0.01799 0.176477,-0.059 -0.06747,-0.02223 -0.134673,0.0034 -0.176477,0.059 z"
       id="path3512" />
    <path
       inkscape:connector-curvature="0"
       style="fill:#aaaaaa;stroke-width:0.26458332"
       d="m 4.6318456,11.174604 c -0.07461,-0.0093 -0.08572,0.02143 -0.03387,0.0926 0.01164,-0.03096 0.02275,-0.06165 0.03387,-0.0926 z"
       id="path3522" />
    <path
       inkscape:connector-curvature="0"
       style="fill:#aaaaaa;stroke-width:0.26458332"
       d="m 4.6662416,16.906272 c -0.148961,0.02646 -0.02752,0.197115 0.06165,0.214577 0.175154,0.03387 0.05186,-0.196056 -0.06165,-0.214577 z"
       id="path3524" />
    <path
       inkscape:connector-curvature="0"
       style="fill:#aaaaaa;stroke-width:0.26458332"
       d="m 4.7167766,10.972991 c -0.06853,0.03413 -0.07752,0.131763 0.0079,0.151077 0.139171,0.03175 0.0635,-0.12356 -0.0079,-0.151077 z"
       id="path3526" />
    <path
       inkscape:connector-curvature="0"
       style="fill:#aaaaaa;stroke-width:0.26458332"
       d="m 5.1948786,13.696083 c -0.06032,0.138641 -0.221191,0.173566 -0.310356,0.28575 0.105304,0.0071 0.170921,-0.08969 0.260085,-0.126207 0.01931,0.04868 0.05847,0.196057 0.130705,0.1905 0.09472,-0.0071 0.131762,0.06138 0.0034,0.08705 0.09551,0.03149 0.09525,0.291571 0.223837,0.274373 0.113242,-0.01535 0.130969,0.119327 0.22225,0.153988 0.09022,0.0344 0.18415,-0.01931 0.260085,0.059 -0.175418,-0.121708 -0.06985,-0.455613 0.0016,-0.606425 0.182563,-0.387086 0.50218,-0.106363 0.738453,0.04339 0.02461,-0.0889 -0.0024,-0.180711 0.02461,-0.269082 0.03175,-0.105304 0.131498,-0.172508 0.187325,-0.264848 0.05265,-0.08784 -0.17145,-0.320675 -0.1778,-0.441325 -0.195792,0.04075 -0.324909,-0.09366 -0.506677,-0.12647 -0.151607,-0.02725 -0.283105,0.175154 -0.393436,0.109537 0.154517,0.137583 0.07779,0.230981 -0.09234,0.277548 -0.243417,0.06641 -0.213519,-0.0971 -0.436298,-0.134673 -0.01958,0.111919 -0.01482,0.450321 -0.135467,0.487892 z"
       id="path3532" />
    <path
       inkscape:connector-curvature="0"
       style="fill:#aaaaaa;stroke-width:0.26458332"
       d="m 5.0104646,16.519981 c -0.09446,0.04895 -0.08361,0.479425 0.05847,0.428625 -0.05927,-0.138113 0.01482,-0.293159 -0.05847,-0.428625 z"
       id="path3536" />
    <path
       inkscape:connector-curvature="0"
       style="fill:#aaaaaa;stroke-width:0.26458332"
       d="m 6.0447206,1.8371927 c -0.05292,-0.0095 0.104775,0.105834 0.134408,0.117475 -0.0209,-0.06059 -0.07064,-0.106098 -0.134408,-0.117475 z"
       id="path3540" />
    <path
       inkscape:connector-curvature="0"
       style="fill:#aaaaaa;stroke-width:0.26458332"
       d="m 6.3974096,12.797029 c -0.06297,-0.03466 -0.116945,-0.0063 -0.15187,0.05027 0.05689,0.05345 0.209285,0.07461 0.15187,-0.05027 z"
       id="path3542" />
    <path
       inkscape:connector-curvature="0"
       style="fill:#aaaaaa;stroke-width:0.26458332"
       d="m 6.3206806,2.0390697 c -0.0071,0.102923 0.101071,0.151871 0.176477,0.08387 -0.05027,-0.04551 -0.109273,-0.07355 -0.176477,-0.08387 z"
       id="path3544" />
    <path
       inkscape:connector-curvature="0"
       style="fill:#aaaaaa;stroke-width:0.26458332"
       d="m 6.5820896,1.8371927 c 0.07303,0.119063 0.09075,0.258234 0.198966,0.355865 0.161661,0.145521 0.351632,0.297127 0.449263,0.496094 0.08546,0.17436 0.185473,0.369887 0.251619,0.551921 0.06323,0.173302 -0.116946,0.243416 0.0071,0.39317 0.127268,0.153988 0.42466,0.51779 0.01244,0.469636 -0.185738,-0.0217 -0.395817,-0.177536 -0.573617,-0.172509 -0.110067,0.0032 0.01508,0.17198 0.05053,0.196057 0.101071,0.06879 0.201877,0.103981 0.180181,0.251618 -0.03942,0.265113 -0.334962,0.114036 -0.21246,0.463815 0.09313,0.265642 0.368829,0.252413 0.5334,0.443971 0.10451,0.120914 0.04921,0.300567 0.140758,0.436033 0.14605,0.2159 0.196056,0.07223 0.365919,0.0058 -0.115623,-0.09075 2.65e-4,-0.201877 0.103452,-0.221456 0.02752,-0.0053 0.382852,0.09155 0.294217,-0.05689 -0.06323,-0.105568 -0.300037,-0.164835 -0.401637,-0.236008 -0.148696,-0.103981 -0.347927,-0.08731 -0.50165,-0.193675 -0.08599,-0.0598 -0.145257,-0.188383 -0.08837,-0.289719 0.05583,-0.09948 0.220398,-0.0079 0.287602,0.02672 0.08784,0.04524 0.162983,0.128588 0.252412,0.164571 0.09446,0.03784 0.212461,-0.181769 0.299773,-0.231775 0.288925,-0.1651 0.678392,0.205846 0.937419,0.299244 0.187325,0.06747 0.575469,0.317764 0.774435,0.293952 0.1214444,-0.01455 0.05741,-0.140758 0.02328,-0.205581 -0.08176,-0.15584 -0.100013,-0.272521 -0.03202,-0.443707 0.1434044,-0.360362 0.3661844,-0.371475 0.7149044,-0.283633 -0.155575,-0.196585 0.364861,0.02566 0.193675,-0.201877 0.08202,-0.03493 0.170921,-0.05927 0.26035,-0.04207 -0.01111,-0.07382 0.03254,-0.133879 0.100277,-0.159544 -0.111389,-0.128058 -0.105568,0.04022 -0.185208,0.07885 -0.04868,0.02328 -0.135202,-0.08017 -0.151606,-0.09499 -0.03836,-0.03387 -0.346869,-0.323321 -0.117211,-0.219075 -0.162718,-0.07355 -0.349779,-0.109538 -0.38391,-0.316177 -0.02196,-0.134938 0.01535,-0.391319 -0.144727,-0.4572 -0.02381,0.132556 -0.06006,0.363008 -0.212196,0.411691 -0.1828274,0.05821 -0.4664604,-0.225954 -0.5699124,-0.109008 -0.03202,-0.101864 -0.106892,-0.09472 -0.193411,-0.07964 -0.120385,0.0209 -0.143404,-0.06879 -0.243416,-0.107157 -0.31115,-0.119856 -0.594784,-0.223573 -0.884503,-0.400314 -0.334168,-0.203729 -0.645054,-0.441325 -0.978164,-0.646907 -0.108744,-0.0672 -0.243946,-0.186002 -0.372269,-0.211666 -0.0926,-0.01905 -0.0852,0.118798 -0.185737,0.04154 z"
       id="path3546" />
    <path
       inkscape:connector-curvature="0"
       style="fill:#aaaaaa;stroke-width:0.26458332"
       d="m 6.9178456,12.771364 c -0.126736,-0.0066 -0.207698,0.250825 -0.115358,0.32729 0.17145,0.142081 0.108743,-0.281782 0.115358,-0.32729 z"
       id="path3548" />
    <path
       inkscape:connector-curvature="0"
       style="fill:#aaaaaa;stroke-width:0.26458332"
       d="m 6.7919036,5.0561137 c -0.0029,0.06747 0.0344,0.102129 0.1016,0.09234 0.0053,-0.07091 -0.0291,-0.109273 -0.1016,-0.09234 z"
       id="path3550" />
    <path
       inkscape:connector-curvature="0"
       style="fill:#aaaaaa;stroke-width:0.26458332"
       d="m 8.1367806,8.9973477 c -0.09022,0.03122 -0.196321,0.224366 -0.0717,0.280722 0.110861,0.05001 0.08969,0.08334 0.0717,0.206905 0.137848,-0.004 0.200025,-0.131763 0.130969,-0.247386 -0.02381,-0.02302 -0.05159,-0.0381 -0.08387,-0.04551 -0.04392,-0.02355 -0.03016,-0.151342 -0.0471,-0.194733 z"
       id="path3552" />
    <path
       style="fill:#aaaaaa;stroke-width:0.26458332"
       inkscape:connector-curvature="0"
       id="path3296"
       d="m 10.783938,2.7701137 c -0.06694,0.168011 -0.0048,0.353484 -0.07752,0.522817 -0.0471,0.109537 -0.11483,0.301096 0.08546,0.25056 -0.0807,-0.188383 0.119856,-0.678127 0.370152,-0.622035 0.0034,-0.03149 7.94e-4,-0.06218 -0.0079,-0.0926 -0.135467,0.0545 -0.245534,-0.01376 -0.370152,-0.05874 z" />
    <path
       style="fill:#aaaaaa;stroke-width:0.26458332"
       inkscape:connector-curvature="0"
       id="path3304"
       d="m 11.783798,3.4090827 c -0.06985,-0.0048 -0.13335,0.03122 -0.176213,0.08387 0.07488,0.11139 0.207169,0.03916 0.176213,-0.08387 z" />
  </g>
</svg>
