<?xml version="1.0" encoding="UTF-8" standalone="no"?>
<!-- Created with Inkscape (http://www.inkscape.org/) -->

<svg
   xmlns:dc="http://purl.org/dc/elements/1.1/"
   xmlns:cc="http://creativecommons.org/ns#"
   xmlns:rdf="http://www.w3.org/1999/02/22-rdf-syntax-ns#"
   xmlns:svg="http://www.w3.org/2000/svg"
   xmlns="http://www.w3.org/2000/svg"
   xmlns:sodipodi="http://sodipodi.sourceforge.net/DTD/sodipodi-0.dtd"
   xmlns:inkscape="http://www.inkscape.org/namespaces/inkscape"
   width="3.4942081mm"
   height="4.2148466mm"
   viewBox="0 0 3.494208 4.2148452"
   version="1.1"
   id="svg7070"
   inkscape:version="0.92.4 (5da689c313, 2019-01-14)"
   sodipodi:docname="jordan.svg">
  <defs
     id="defs7064" />
  <sodipodi:namedview
     id="base"
     pagecolor="#ffffff"
     bordercolor="#666666"
     borderopacity="1.0"
     inkscape:pageopacity="0.0"
     inkscape:pageshadow="2"
     inkscape:zoom="7.9195959"
     inkscape:cx="-4.2242757"
     inkscape:cy="-4.2880289"
     inkscape:document-units="mm"
     inkscape:current-layer="layer1"
     showgrid="false"
     inkscape:window-width="958"
     inkscape:window-height="1008"
     inkscape:window-x="-7"
     inkscape:window-y="0"
     inkscape:window-maximized="0" />
  <metadata
     id="metadata7067">
    <rdf:RDF>
      <cc:Work
         rdf:about="">
        <dc:format>image/svg+xml</dc:format>
        <dc:type
           rdf:resource="http://purl.org/dc/dcmitype/StillImage" />
        <dc:title />
      </cc:Work>
    </rdf:RDF>
  </metadata>
  <g
     inkscape:label="Layer 1"
     inkscape:groupmode="layer"
     id="layer1"
     transform="translate(-158.07056,-30.11937)">
    <path
       style="fill:#ffffff;stroke-width:0.26458332"
       inkscape:connector-curvature="0"
       id="jo"
       d="m 158.07218,34.170406 c -0.0164,-0.281781 0.0971,-0.550068 0.0998,-0.830527 0.003,-0.321998 0.14711,-0.560652 0.186,-0.867304 0.0164,-0.127529 -0.0206,-0.257969 -0.0106,-0.387614 0.01,-0.122503 0.0653,-0.243153 0.0701,-0.36248 0.009,-0.250295 -0.0436,-0.524668 -0.0529,-0.777345 -0.007,-0.214578 0.26353,-0.174361 0.38577,-0.08996 0.20161,0.138906 0.39079,0.34634 0.66146,0.292894 0.27278,-0.05371 0.5162,-0.306388 0.74162,-0.456671 0.28787,-0.192087 0.57574,-0.404019 0.87789,-0.572029 0.0934,0.298715 0.21537,0.58711 0.31856,0.882385 -0.10398,0.01111 -0.036,0.15293 0.0307,0.170127 0.10583,0.02752 0.28443,-0.01164 0.11298,0.168275 -0.25718,0.269611 -0.6059,0.303742 -0.94906,0.395817 -0.1188,0.03175 -0.92419,0.22225 -0.79666,0.357981 l 0.87841,0.93345 c -0.0865,0.0426 -0.28231,0.04101 -0.34422,0.118798 -0.0712,0.08943 0.002,0.266171 -0.0738,0.3556 -0.12726,0.150019 -0.47493,0.07091 -0.64003,0.228336 -0.18811,0.179652 -0.23495,0.469106 -0.50376,0.575204 -0.24315,0.09551 -0.7456,-0.07117 -0.99219,-0.134938 z" />
  </g>
</svg>
