<?xml version="1.0" encoding="UTF-8" standalone="no"?>
<!-- Created with Inkscape (http://www.inkscape.org/) -->

<svg
   xmlns:dc="http://purl.org/dc/elements/1.1/"
   xmlns:cc="http://creativecommons.org/ns#"
   xmlns:rdf="http://www.w3.org/1999/02/22-rdf-syntax-ns#"
   xmlns:svg="http://www.w3.org/2000/svg"
   xmlns="http://www.w3.org/2000/svg"
   xmlns:sodipodi="http://sodipodi.sourceforge.net/DTD/sodipodi-0.dtd"
   xmlns:inkscape="http://www.inkscape.org/namespaces/inkscape"
   width="7.0940733mm"
   height="9.3983011mm"
   viewBox="0 0 7.0940734 9.3982997"
   version="1.1"
   id="svg7070"
   inkscape:version="0.92.4 (5da689c313, 2019-01-14)"
   sodipodi:docname="kenya.svg">
  <defs
     id="defs7064" />
  <sodipodi:namedview
     id="base"
     pagecolor="#ffffff"
     bordercolor="#666666"
     borderopacity="1.0"
     inkscape:pageopacity="0.0"
     inkscape:pageshadow="2"
     inkscape:zoom="7.9195959"
     inkscape:cx="24.767107"
     inkscape:cy="-0.28832789"
     inkscape:document-units="mm"
     inkscape:current-layer="layer1"
     showgrid="false"
     inkscape:window-width="958"
     inkscape:window-height="1008"
     inkscape:window-x="-7"
     inkscape:window-y="0"
     inkscape:window-maximized="0" />
  <metadata
     id="metadata7067">
    <rdf:RDF>
      <cc:Work
         rdf:about="">
        <dc:format>image/svg+xml</dc:format>
        <dc:type
           rdf:resource="http://purl.org/dc/dcmitype/StillImage" />
        <dc:title />
      </cc:Work>
    </rdf:RDF>
  </metadata>
  <g
     inkscape:label="Layer 1"
     inkscape:groupmode="layer"
     id="layer1"
     transform="translate(-156.47024,-37.34231)">
    <path
       inkscape:connector-curvature="0"
       style="fill:#ffffff;stroke-width:0.26458332"
       d="m 156.47219,43.032471 c 0,-0.15875 -0.005,-0.318294 10e-4,-0.477573 0.005,-0.13388 0.0667,-0.304271 0.0365,-0.43524 -0.0516,-0.224367 0.0601,-0.51779 0.20558,-0.708025 0.13203,-0.173037 0.23019,-0.515144 0.44185,-0.598487 0.1016,-0.04022 0.0847,-0.06006 0.0794,-0.148432 -0.008,-0.135996 0.14975,-0.201083 0.18441,-0.321998 0.0413,-0.143668 0.0532,-0.284691 0.0672,-0.428889 0.013,-0.129646 -0.11748,-0.221192 -0.14473,-0.366977 -0.0608,-0.325967 -0.26194,-0.396875 -0.2921,-0.540544 -0.0236,-0.1143 -0.0868,-0.210873 -0.12541,-0.319352 -0.0257,-0.04815 -0.04,-0.09869 -0.0431,-0.1524 0,-0.07276 0.0818,-0.1143 0.0595,-0.192352 -0.0193,-0.06879 -0.0947,-0.08678 -0.15293,-0.108479 -0.13176,-0.04921 -0.0354,-0.149225 -0.17489,-0.135467 0.0453,-0.130704 -0.11668,-0.256381 -0.0849,-0.347663 0.031,-0.08784 0.12224,-0.163777 0.18442,-0.228864 0.21749,-0.228336 0.48392,-0.162719 0.76941,-0.162719 0.16351,0 0.32755,-0.01349 0.49106,-0.01561 0.0804,-5.29e-4 0.16352,-0.0048 0.24315,0.0082 0.0691,0.01085 0.09,0.131233 0.17251,0.163248 0.2548,0.09869 0.53896,-0.0217 0.79878,0.09869 0.27146,0.126207 0.56224,0.358511 0.77417,0.566473 0.10795,0.105304 0.19368,0.179917 0.34952,0.19685 0.10133,0.01085 0.33178,-0.05159 0.41116,-0.0011 0.22251,0.142081 0.5633,0.01614 0.75671,0.201612 0.027,-0.131762 0.20875,-0.324643 0.29077,-0.43815 0.14552,-0.2032 0.4572,-0.283633 0.67257,-0.384439 0.2294,-0.106892 0.26988,0.145256 0.44133,0.245533 0.11774,0.06879 0.24553,0.02381 0.36803,0.0016 0.0992,-0.01799 0.21749,0.04763 0.31115,-0.0042 -0.14313,0.245534 -0.2749,0.513027 -0.44899,0.737923 -0.18389,0.237067 -0.34872,0.369359 -0.34819,0.687917 0.002,0.753004 0.008,1.505744 0.007,2.258748 -5.3e-4,0.563827 -0.11298,1.09855 0.26591,1.559719 0.12832,0.156633 0.32173,0.358245 0.18388,0.563297 -0.0812,0.120915 -0.32279,0.341578 -0.47466,0.202142 -0.0119,0.0299 -0.0233,0.06085 -0.0336,0.09207 -0.0243,-0.02884 -0.0466,-0.06006 -0.0667,-0.09207 0.0397,0.09155 0.14102,0.260879 0.05,0.353483 -0.0156,-0.228335 -0.11007,0.03307 -0.13309,0.08573 -0.0471,0.10795 -0.13785,0.128588 -0.24077,0.143669 -0.22913,0.03202 -0.32147,0.234156 -0.24818,0.427302 0.0333,0.08837 -0.12806,0.344223 -0.19473,0.397934 -0.11351,0.09207 -0.20876,0.711993 -0.33496,0.658812 0.0548,0.239713 -0.18495,0.410369 -0.22649,0.630502 -0.0976,-0.07144 -0.0865,0.05318 -0.16827,0.0336 -0.10293,-0.02434 -0.23707,-0.200025 -0.3138,-0.264054 -0.25744,-0.216429 -0.53208,-0.412485 -0.78634,-0.632619 -0.0929,-0.07964 -0.11033,-0.163248 -0.18494,-0.246062 -0.0638,-0.07091 -0.19897,-0.05741 -0.0794,-0.189177 0.16933,-0.187061 -0.0862,-0.407723 -0.24236,-0.496623 -0.558,-0.319352 -1.08902,-0.686329 -1.64227,-1.016529 -0.27649,-0.164836 -0.56356,-0.331259 -0.82073,-0.524934 -0.15108,-0.113506 -0.40085,-0.370681 -0.61093,-0.33602 z"
       id="ke" />
  </g>
</svg>
