<?xml version="1.0" encoding="UTF-8" standalone="no"?>
<!-- Created with Inkscape (http://www.inkscape.org/) -->

<svg
   xmlns:dc="http://purl.org/dc/elements/1.1/"
   xmlns:cc="http://creativecommons.org/ns#"
   xmlns:rdf="http://www.w3.org/1999/02/22-rdf-syntax-ns#"
   xmlns:svg="http://www.w3.org/2000/svg"
   xmlns="http://www.w3.org/2000/svg"
   xmlns:sodipodi="http://sodipodi.sourceforge.net/DTD/sodipodi-0.dtd"
   xmlns:inkscape="http://www.inkscape.org/namespaces/inkscape"
   width="1.3155658mm"
   height="1.470785mm"
   viewBox="0 0 1.3155657 1.4707852"
   version="1.1"
   id="svg7070"
   inkscape:version="0.92.4 (5da689c313, 2019-01-14)"
   sodipodi:docname="kosovo.svg">
  <defs
     id="defs7064" />
  <sodipodi:namedview
     id="base"
     pagecolor="#ffffff"
     bordercolor="#666666"
     borderopacity="1.0"
     inkscape:pageopacity="0.0"
     inkscape:pageshadow="2"
     inkscape:zoom="7.9195959"
     inkscape:cx="11.176395"
     inkscape:cy="-18.10727"
     inkscape:document-units="mm"
     inkscape:current-layer="layer1"
     showgrid="false"
     inkscape:window-width="958"
     inkscape:window-height="1008"
     inkscape:window-x="-7"
     inkscape:window-y="0"
     inkscape:window-maximized="0" />
  <metadata
     id="metadata7067">
    <rdf:RDF>
      <cc:Work
         rdf:about="">
        <dc:format>image/svg+xml</dc:format>
        <dc:type
           rdf:resource="http://purl.org/dc/dcmitype/StillImage" />
        <dc:title></dc:title>
      </cc:Work>
    </rdf:RDF>
  </metadata>
  <g
     inkscape:label="Layer 1"
     inkscape:groupmode="layer"
     id="layer1"
     transform="translate(-160.06612,-43.101595)">
    <path
       inkscape:connector-curvature="0"
       style="fill:#999999;stroke-width:0.26458332"
       d="m 160.11351,43.672047 c 0.0146,-0.06879 -0.0312,-0.07038 0.0159,-0.04948 0.0119,-0.08017 0.13229,-0.0418 0.16377,-0.09499 0.0516,-0.08678 0.0206,-0.112183 0.0775,-0.136525 0.11615,-0.05001 0.12408,-0.103187 0.0693,-0.230717 0.0553,-0.0074 0.10583,-0.02725 0.1516,-0.05874 0.0355,0.228865 0.59928,0.12991 0.55933,0.357717 -0.0201,0.115093 0.2032,0.159808 0.22728,0.254264 0.0357,0.138377 -0.21617,0.284692 -0.1143,0.396611 -0.0926,0.0071 -0.22834,0.0209 -0.19368,0.151341 -0.15875,-0.0053 -0.19473,-0.119856 -0.35242,-0.0085 -0.13547,0.09525 -0.0818,0.249237 -0.26035,0.319352 -0.0278,-0.2159 0.0325,-0.359834 -0.16801,-0.512763 -0.0931,-0.07064 -0.0894,0.02858 -0.14711,-0.118269 -0.022,-0.05583 -0.0275,-0.242358 -0.0762,-0.269345 m 0.0474,0 z"
       id="kosovo" />
  </g>
</svg>
