<?xml version="1.0" encoding="UTF-8" standalone="no"?>
<!-- Created with Inkscape (http://www.inkscape.org/) -->

<svg
   xmlns:dc="http://purl.org/dc/elements/1.1/"
   xmlns:cc="http://creativecommons.org/ns#"
   xmlns:rdf="http://www.w3.org/1999/02/22-rdf-syntax-ns#"
   xmlns:svg="http://www.w3.org/2000/svg"
   xmlns="http://www.w3.org/2000/svg"
   xmlns:sodipodi="http://sodipodi.sourceforge.net/DTD/sodipodi-0.dtd"
   xmlns:inkscape="http://www.inkscape.org/namespaces/inkscape"
   width="5.327539mm"
   height="2.2453046mm"
   viewBox="0 0 5.3275388 2.2453048"
   version="1.1"
   id="svg7070"
   inkscape:version="0.92.4 (5da689c313, 2019-01-14)"
   sodipodi:docname="latvia.svg">
  <defs
     id="defs7064" />
  <sodipodi:namedview
     id="base"
     pagecolor="#ffffff"
     bordercolor="#666666"
     borderopacity="1.0"
     inkscape:pageopacity="0.0"
     inkscape:pageshadow="2"
     inkscape:zoom="1.4"
     inkscape:cx="90.447471"
     inkscape:cy="-117.43736"
     inkscape:document-units="mm"
     inkscape:current-layer="layer1"
     showgrid="false"
     inkscape:window-width="958"
     inkscape:window-height="1008"
     inkscape:window-x="-7"
     inkscape:window-y="0"
     inkscape:window-maximized="0" />
  <metadata
     id="metadata7067">
    <rdf:RDF>
      <cc:Work
         rdf:about="">
        <dc:format>image/svg+xml</dc:format>
        <dc:type
           rdf:resource="http://purl.org/dc/dcmitype/StillImage" />
        <dc:title></dc:title>
      </cc:Work>
    </rdf:RDF>
  </metadata>
  <g
     inkscape:label="Layer 1"
     inkscape:groupmode="layer"
     id="layer1"
     transform="translate(-158.29914,-35.295068)">
    <path
       inkscape:connector-curvature="0"
       style="fill:#aaaaaa;stroke-width:0.26458332"
       d="m 158.30793,36.75754 c 0.0114,0.02805 0.0225,0.05583 0.0339,0.08414 -0.0114,-0.14605 -0.046,-0.299508 0.0566,-0.423598 0.0437,-0.05292 0.1217,-0.09049 0.14022,-0.162454 0.0233,-0.09022 -0.002,-0.16801 0.0455,-0.25691 0.0916,-0.171715 0.204,-0.250825 0.38973,-0.296334 0.0889,-0.02196 0.32862,-0.164835 0.399,-0.07937 0.11112,0.135467 0.23256,0.194205 0.35824,0.310357 0.14314,0.131762 0.20241,0.306652 0.40323,0.370945 0.15848,0.0508 0.31273,-0.01561 0.44238,-0.107156 0.18759,-0.132821 0.1606,-0.2921 0.0812,-0.482864 -0.0315,-0.07541 -0.064,-0.158486 -0.0471,-0.242359 0.0709,0.02037 0.14367,-0.03148 0.20003,-0.06456 0.11244,-0.06562 0.33178,-0.159808 0.45005,-0.0844 0.0786,0.05001 0.23045,0.03572 0.33338,0.0926 0.15398,0.0852 0.28363,0.108744 0.41936,0.23204 0.11086,0.100806 0.21511,0.160866 0.35692,0.08863 0.15823,-0.08043 0.3355,0.03096 0.50165,0.04604 0.0995,0.0093 0.27517,0.148166 0.35772,0.211931 0.045,0.03466 -0.0484,0.385762 -0.0799,0.427037 0.25003,-0.03016 0.13282,0.110067 0.24236,0.151871 0.12911,0.04895 0.20769,0.267494 0.23098,0.389202 0.0241,0.126471 -0.0889,0.127794 -0.17913,0.173302 -0.0685,0.03466 -0.12435,0.107686 -0.16827,0.168011 -0.0249,0.03413 0,0.111389 -0.0418,0.134408 -0.13467,0.07355 -0.28786,-0.09948 -0.43762,-0.02408 -0.1733,0.08731 -0.26881,0.188912 -0.47016,0.07726 -0.16589,-0.09181 -0.31591,-0.210608 -0.47149,-0.317764 -0.14975,-0.103188 -0.33999,-0.05106 -0.48763,-0.143934 -0.12911,-0.08123 -0.15531,-0.255852 -0.33099,-0.1524 -0.15266,0.08969 -0.20584,0.08626 -0.37385,0.102659 -0.15055,0.01482 -0.3302,-0.08361 -0.49451,-0.08123 -0.17092,0.0024 -0.28443,0.03122 -0.4408,-0.02646 -0.0995,-0.03651 -0.29051,-0.01429 -0.39925,-0.01429 -0.17013,0 -0.32015,0.02725 -0.48419,0.06694 -0.10451,0.02514 -0.29633,0.05662 -0.34184,0.173302 -0.0296,0.07673 -0.0789,0.09631 -0.1315,0.03149 -0.0923,-0.112448 -0.072,-0.237861 -0.0624,-0.372004 z"
       id="lv" />
  </g>
</svg>
