<?xml version="1.0" encoding="UTF-8" standalone="no"?>
<!-- Created with Inkscape (http://www.inkscape.org/) -->

<svg
   xmlns:dc="http://purl.org/dc/elements/1.1/"
   xmlns:cc="http://creativecommons.org/ns#"
   xmlns:rdf="http://www.w3.org/1999/02/22-rdf-syntax-ns#"
   xmlns:svg="http://www.w3.org/2000/svg"
   xmlns="http://www.w3.org/2000/svg"
   xmlns:sodipodi="http://sodipodi.sourceforge.net/DTD/sodipodi-0.dtd"
   xmlns:inkscape="http://www.inkscape.org/namespaces/inkscape"
   width="1.1692494mm"
   height="1.6224852mm"
   viewBox="0 0 1.1692494 1.6224847"
   version="1.1"
   id="svg7070"
   inkscape:version="0.92.4 (5da689c313, 2019-01-14)"
   sodipodi:docname="lebanon.svg">
  <defs
     id="defs7064" />
  <sodipodi:namedview
     id="base"
     pagecolor="#ffffff"
     bordercolor="#666666"
     borderopacity="1.0"
     inkscape:pageopacity="0.0"
     inkscape:pageshadow="2"
     inkscape:zoom="7.9195959"
     inkscape:cx="4.172367"
     inkscape:cy="-8.0212623"
     inkscape:document-units="mm"
     inkscape:current-layer="layer1"
     showgrid="false"
     inkscape:window-width="958"
     inkscape:window-height="1008"
     inkscape:window-x="-7"
     inkscape:window-y="0"
     inkscape:window-maximized="0" />
  <metadata
     id="metadata7067">
    <rdf:RDF>
      <cc:Work
         rdf:about="">
        <dc:format>image/svg+xml</dc:format>
        <dc:type
           rdf:resource="http://purl.org/dc/dcmitype/StillImage" />
        <dc:title />
      </cc:Work>
    </rdf:RDF>
  </metadata>
  <g
     inkscape:label="Layer 1"
     inkscape:groupmode="layer"
     id="layer1"
     transform="translate(-155.84895,-31.72398)">
    <path
       style="fill:#ffffff;stroke-width:0.26458332"
       inkscape:connector-curvature="0"
       id="lb"
       d="m 155.84895,33.326052 c 0.18547,-0.216165 0.17939,-0.60669 0.33681,-0.850106 0.0783,-0.120386 -0.0132,-0.283104 0.0765,-0.399257 0.0699,-0.09049 0.26088,-0.1905 0.1995,-0.330729 0.0717,0.01535 0.18097,0.04604 0.24976,0.005 0.15902,-0.09446 0.0468,0.0852 0.0701,0.139436 -0.003,-0.0071 0.10451,0.03307 0.11588,0.04392 0.0799,0.07673 0.0347,0.06006 0.0953,0.170656 0.12886,0.236273 -0.28284,0.273844 -0.11906,0.473075 -0.16669,-0.04974 -0.45058,0.06694 -0.25188,0.252148 -0.0738,0.01693 -0.32517,0.260614 -0.33629,0.336285 -0.0182,-0.0095 -0.0323,-0.02381 -0.0418,-0.04207 -0.0278,0.05424 -0.0188,0.125942 -0.059,0.174096 -0.072,0.08625 -0.24369,0.03043 -0.33576,0.02752 z" />
  </g>
</svg>
