<?xml version="1.0" encoding="UTF-8" standalone="no"?>
<!-- Created with Inkscape (http://www.inkscape.org/) -->

<svg
   xmlns:dc="http://purl.org/dc/elements/1.1/"
   xmlns:cc="http://creativecommons.org/ns#"
   xmlns:rdf="http://www.w3.org/1999/02/22-rdf-syntax-ns#"
   xmlns:svg="http://www.w3.org/2000/svg"
   xmlns="http://www.w3.org/2000/svg"
   xmlns:sodipodi="http://sodipodi.sourceforge.net/DTD/sodipodi-0.dtd"
   xmlns:inkscape="http://www.inkscape.org/namespaces/inkscape"
   width="3.6296854mm"
   height="4.2283058mm"
   viewBox="0 0 3.6296856 4.2283046"
   version="1.1"
   id="svg7070"
   inkscape:version="0.92.4 (5da689c313, 2019-01-14)"
   sodipodi:docname="liberia.svg">
  <defs
     id="defs7064" />
  <sodipodi:namedview
     id="base"
     pagecolor="#ffffff"
     bordercolor="#666666"
     borderopacity="1.0"
     inkscape:pageopacity="0.0"
     inkscape:pageshadow="2"
     inkscape:zoom="7.9195959"
     inkscape:cx="7.4962264"
     inkscape:cy="-11.163944"
     inkscape:document-units="mm"
     inkscape:current-layer="layer1"
     showgrid="false"
     inkscape:window-width="958"
     inkscape:window-height="1008"
     inkscape:window-x="-7"
     inkscape:window-y="0"
     inkscape:window-maximized="0" />
  <metadata
     id="metadata7067">
    <rdf:RDF>
      <cc:Work
         rdf:about="">
        <dc:format>image/svg+xml</dc:format>
        <dc:type
           rdf:resource="http://purl.org/dc/dcmitype/StillImage" />
        <dc:title />
      </cc:Work>
    </rdf:RDF>
  </metadata>
  <g
     inkscape:label="Layer 1"
     inkscape:groupmode="layer"
     id="layer1"
     transform="translate(-159.8505,-35.063215)">
    <path
       style="fill:#ffffff;stroke-width:0.26458332"
       inkscape:connector-curvature="0"
       id="lr"
       d="m 159.85064,36.689742 c 0.12118,-0.04498 0.12832,-0.246062 0.21484,-0.333904 0.15822,-0.160602 0.34687,-0.289454 0.49715,-0.458787 0.0987,-0.110596 0.0294,-0.258498 0.10663,-0.356659 0.1143,-0.145256 0.22596,-0.05265 0.26273,-0.277547 0.0286,-0.173038 0.11192,-0.180975 0.26141,-0.139965 0.0802,0.0217 0.12409,-0.0635 0.1995,-0.05953 0.10398,0.0061 0.18203,0.129646 0.25505,0.188648 -0.0492,0.06297 -0.0235,0.124618 0.002,0.188648 0.019,0.04762 -0.0119,0.15822 0.041,0.105833 0.0564,0.246592 0.0296,0.468312 -0.0513,0.705908 0.15822,-0.059 0.31856,-0.02778 0.32809,0.168011 0.19023,-0.07594 0.26961,-0.132821 0.33099,-0.329671 0.018,-0.05847 0.0344,-0.17145 0.11192,-0.183356 0.0855,-0.01244 0.11218,0.165364 0.14261,0.23151 0.10927,0.238654 0.1397,0.381265 0.10504,0.638175 -0.0127,0.09498 -0.40243,0.479425 -0.0524,0.40005 -0.0921,0.17145 0.42624,0.09498 0.48022,0.287867 0.0185,0.06562 0.0246,0.2032 0.11668,0.21246 0.12753,0.01243 0.21537,0.13335 0.25241,0.245533 0.068,0.20664 -0.022,0.362215 -0.0442,0.529696 -0.041,0.309034 -0.1651,0.512763 -0.0569,0.833967 -0.1389,0.02646 -0.23945,-0.06006 -0.35163,-0.12409 -0.1479,-0.08414 -0.32782,-0.09604 -0.46249,-0.206639 -0.245,-0.201084 -0.56383,-0.292365 -0.79084,-0.51779 -0.25347,-0.252148 -0.45535,-0.55245 -0.71358,-0.799306 -0.0812,-0.07752 -0.67972,-0.284692 -0.53896,-0.419629 -0.10901,0.01085 -0.24315,-0.157163 -0.33628,-0.201613 -0.18574,-0.08996 -0.16934,-0.193939 -0.30983,-0.327819 z" />
  </g>
</svg>
