<?xml version="1.0" encoding="UTF-8" standalone="no"?>
<!-- Created with Inkscape (http://www.inkscape.org/) -->

<svg
   xmlns:dc="http://purl.org/dc/elements/1.1/"
   xmlns:cc="http://creativecommons.org/ns#"
   xmlns:rdf="http://www.w3.org/1999/02/22-rdf-syntax-ns#"
   xmlns:svg="http://www.w3.org/2000/svg"
   xmlns="http://www.w3.org/2000/svg"
   xmlns:sodipodi="http://sodipodi.sourceforge.net/DTD/sodipodi-0.dtd"
   xmlns:inkscape="http://www.inkscape.org/namespaces/inkscape"
   width="4.32832mm"
   height="2.3947937mm"
   viewBox="0 0 4.3283199 2.394794"
   version="1.1"
   id="svg7070"
   inkscape:version="0.92.4 (5da689c313, 2019-01-14)"
   sodipodi:docname="lithuania.svg">
  <defs
     id="defs7064" />
  <sodipodi:namedview
     id="base"
     pagecolor="#ffffff"
     bordercolor="#666666"
     borderopacity="1.0"
     inkscape:pageopacity="0.0"
     inkscape:pageshadow="2"
     inkscape:zoom="1.4"
     inkscape:cx="91.484119"
     inkscape:cy="-96.483197"
     inkscape:document-units="mm"
     inkscape:current-layer="layer1"
     showgrid="false"
     inkscape:window-width="958"
     inkscape:window-height="1008"
     inkscape:window-x="-7"
     inkscape:window-y="0"
     inkscape:window-maximized="0" />
  <metadata
     id="metadata7067">
    <rdf:RDF>
      <cc:Work
         rdf:about="">
        <dc:format>image/svg+xml</dc:format>
        <dc:type
           rdf:resource="http://purl.org/dc/dcmitype/StillImage" />
        <dc:title />
      </cc:Work>
    </rdf:RDF>
  </metadata>
  <g
     inkscape:label="Layer 1"
     inkscape:groupmode="layer"
     id="layer1"
     transform="translate(-158.02486,-40.689702)">
    <path
       inkscape:connector-curvature="0"
       style="fill:#ffffff;stroke-width:0.26458332"
       d="m 158.02486,41.008709 c 0.11853,0.01905 0.14684,-0.104775 0.22622,-0.159544 0.0873,-0.06006 0.24183,-0.07964 0.34237,-0.103187 0.26061,-0.06085 0.56753,-0.06403 0.83423,-0.04815 0.0921,0.0056 0.031,0.111389 0.13838,0.04683 0.0796,-0.04789 0.26829,-0.0029 0.35666,0.0045 0.17356,0.01482 0.55192,0.161131 0.69585,0.02381 0.18785,-0.178858 0.23892,-0.01032 0.39291,0.08784 0.0921,0.05874 0.19738,0.0553 0.30189,0.07091 0.13943,0.0209 0.23124,0.10795 0.33999,0.189971 0.0699,0.05239 0.53498,0.269346 0.52122,0.330729 -0.0571,0.251884 -0.0495,0.23548 0.1786,0.296069 -0.13997,0.06853 -0.0376,0.183886 -0.23257,0.145521 -0.14922,-0.02963 -0.15505,0.139435 -0.27543,0.175683 -0.35216,0.105305 -0.11192,0.338402 -0.33232,0.578115 0.0556,0.02275 0.16934,0.03202 0.18442,0.109008 0.0177,0.09287 -0.1061,0.112448 -0.16828,0.0926 0.0643,-0.172243 -0.23706,-0.131497 -0.25162,-0.09657 -0.0664,0.160866 -0.2323,0.05715 -0.31115,0.219868 -0.0273,0.05662 -0.16774,0.05741 -0.22807,0.09049 -0.10107,0.05556 -0.28839,-0.0164 -0.40216,-0.0058 -0.0561,0.0053 -0.28972,0.04392 -0.30904,-0.0508 -0.0233,-0.112713 -0.064,-0.192881 -0.17383,-0.242623 -0.10927,-0.04948 -0.21167,-0.115358 -0.32358,-0.158485 -0.0463,-0.01773 -0.1233,0.03387 -0.14949,-0.02831 -0.0717,-0.171714 0.15531,-0.366712 -0.0251,-0.496094 0.0159,0.01111 -0.12726,-0.125147 -0.10716,-0.117475 -0.0923,-0.03519 -0.31009,-0.0037 -0.41751,-0.01058 -0.14658,-0.0095 -0.47016,-0.246856 -0.58711,-0.162983 0.006,-0.124619 -0.0418,-0.260615 -0.10504,-0.366448 -0.0775,-0.129117 -0.0661,-0.275961 -0.11324,-0.414867 z"
       id="lt" />
  </g>
</svg>
