<?xml version="1.0" encoding="UTF-8" standalone="no"?>
<!-- Created with Inkscape (http://www.inkscape.org/) -->

<svg
   xmlns:dc="http://purl.org/dc/elements/1.1/"
   xmlns:cc="http://creativecommons.org/ns#"
   xmlns:rdf="http://www.w3.org/1999/02/22-rdf-syntax-ns#"
   xmlns:svg="http://www.w3.org/2000/svg"
   xmlns="http://www.w3.org/2000/svg"
   xmlns:sodipodi="http://sodipodi.sourceforge.net/DTD/sodipodi-0.dtd"
   xmlns:inkscape="http://www.inkscape.org/namespaces/inkscape"
   width="2.0330963mm"
   height="1.5003211mm"
   viewBox="0 0 2.0330962 1.5003213"
   version="1.1"
   id="svg7070"
   inkscape:version="0.92.4 (5da689c313, 2019-01-14)"
   sodipodi:docname="macedonia.svg">
  <defs
     id="defs7064" />
  <sodipodi:namedview
     id="base"
     pagecolor="#ffffff"
     bordercolor="#666666"
     borderopacity="1.0"
     inkscape:pageopacity="0.0"
     inkscape:pageshadow="2"
     inkscape:zoom="7.9195959"
     inkscape:cx="16.145712"
     inkscape:cy="-16.29432"
     inkscape:document-units="mm"
     inkscape:current-layer="layer1"
     showgrid="false"
     inkscape:window-width="958"
     inkscape:window-height="1008"
     inkscape:window-x="-7"
     inkscape:window-y="0"
     inkscape:window-maximized="0" />
  <metadata
     id="metadata7067">
    <rdf:RDF>
      <cc:Work
         rdf:about="">
        <dc:format>image/svg+xml</dc:format>
        <dc:type
           rdf:resource="http://purl.org/dc/dcmitype/StillImage" />
        <dc:title />
      </cc:Work>
    </rdf:RDF>
  </metadata>
  <g
     inkscape:label="Layer 1"
     inkscape:groupmode="layer"
     id="layer1"
     transform="translate(-158.75132,-43.551735)">
    <path
       inkscape:connector-curvature="0"
       style="fill:#ffffff;stroke-width:0.26458332"
       d="m 158.75164,44.353108 c 0.10477,-0.01561 0.0352,-0.100542 0.0339,-0.163248 -0.002,-0.08731 0.15213,-0.130969 0.1733,-0.23786 0.0182,-0.09313 0.0968,-0.138642 0.17489,-0.176477 0.17277,-0.08281 0.14155,0.02646 0.29818,0.03149 -0.0333,-0.126735 0.0566,-0.07937 0.11774,-0.142875 0.036,-0.01799 0.0717,-0.01746 0.10795,0.0019 0.086,0.02487 0.0945,-0.05636 0.16881,-0.06906 0.0839,-0.01429 0.25823,0.01931 0.32596,-0.03202 0.0852,-0.06456 0.17622,0.125677 0.22966,0.17489 0.19923,0.183885 0.38524,0.238654 0.37174,0.562239 -0.003,0.06747 0.0661,0.205582 0.006,0.255853 -0.073,0.06138 -0.14446,0.04763 -0.12647,0.173831 -0.0884,-0.02222 -0.16219,0.05821 -0.26749,0.0381 -0.1352,-0.02593 -0.27014,-0.01191 -0.38285,0.07038 -0.22411,0.163248 -0.40191,0.164042 -0.67681,0.208227 -0.1479,0.02355 -0.0844,-0.07805 -0.20902,-0.0463 -0.15293,0.03916 -0.0783,-0.09366 -0.15875,-0.156369 -0.16113,-0.126735 -0.12303,-0.312737 -0.18706,-0.492654 z"
       id="mk" />
  </g>
</svg>
