<?xml version="1.0" encoding="UTF-8" standalone="no"?>
<!-- Created with Inkscape (http://www.inkscape.org/) -->

<svg
   xmlns:dc="http://purl.org/dc/elements/1.1/"
   xmlns:cc="http://creativecommons.org/ns#"
   xmlns:rdf="http://www.w3.org/1999/02/22-rdf-syntax-ns#"
   xmlns:svg="http://www.w3.org/2000/svg"
   xmlns="http://www.w3.org/2000/svg"
   xmlns:sodipodi="http://sodipodi.sourceforge.net/DTD/sodipodi-0.dtd"
   xmlns:inkscape="http://www.inkscape.org/namespaces/inkscape"
   width="2.69891mm"
   height="7.806386mm"
   viewBox="0 0 2.69891 7.806385"
   version="1.1"
   id="svg7070"
   inkscape:version="0.92.4 (5da689c313, 2019-01-14)"
   sodipodi:docname="malawi.svg">
  <defs
     id="defs7064" />
  <sodipodi:namedview
     id="base"
     pagecolor="#ffffff"
     bordercolor="#666666"
     borderopacity="1.0"
     inkscape:pageopacity="0.0"
     inkscape:pageshadow="2"
     inkscape:zoom="7.9195959"
     inkscape:cx="21.861551"
     inkscape:cy="-1.0137396"
     inkscape:document-units="mm"
     inkscape:current-layer="layer1"
     showgrid="false"
     inkscape:window-width="958"
     inkscape:window-height="1008"
     inkscape:window-x="-7"
     inkscape:window-y="0"
     inkscape:window-maximized="0" />
  <metadata
     id="metadata7067">
    <rdf:RDF>
      <cc:Work
         rdf:about="">
        <dc:format>image/svg+xml</dc:format>
        <dc:type
           rdf:resource="http://purl.org/dc/dcmitype/StillImage" />
        <dc:title></dc:title>
      </cc:Work>
    </rdf:RDF>
  </metadata>
  <g
     inkscape:label="Layer 1"
     inkscape:groupmode="layer"
     id="layer1"
     transform="translate(-157.239,-40.078638)">
    <path
       inkscape:connector-curvature="0"
       style="fill:#aaaaaa;stroke-width:0.26458332"
       d="m 157.23924,44.448507 c 0.0243,-0.0717 0.11192,-0.115888 0.0399,-0.116152 0.1868,-0.161131 0.30269,-0.550334 0.14949,-0.793221 -0.10848,-0.171979 0.40614,-0.361685 0.49927,-0.460904 -0.3265,-0.09816 -0.16431,-0.622829 -0.19235,-0.878417 -0.0214,-0.197379 0.12753,-0.282575 0.0196,-0.483129 -0.12568,-0.233627 0.0733,-0.145786 0.1823,-0.25744 0.1651,-0.169068 0.20372,-0.501385 -0.0439,-0.635 -0.17065,-0.0926 -0.005,-0.280193 -0.12938,-0.429418 -0.12938,-0.155575 -0.32332,-0.05636 -0.29898,-0.316178 0.0831,-0.0011 0.29343,0.08678 0.36857,0.131763 0.15796,0.09393 0.37174,0.03466 0.49768,0.170656 0.0955,-0.163248 0.0553,-0.316706 0.24844,-0.0971 0.14367,0.162719 0.31671,0.409311 0.32835,0.630502 0.007,0.139436 -0.0519,0.2667 0.037,0.394759 0.0863,0.124089 -0.0413,0.234156 -0.0431,0.358245 -0.004,0.251619 0.32887,0.34978 0.31988,0.596371 -0.0757,0 -0.18733,-0.0299 -0.25506,0.01799 -0.077,0.05477 -0.0992,0.259821 -0.15505,0.345281 -0.17462,0.267229 -0.12038,0.440796 -0.0378,0.735277 0.0339,0.120386 0.0455,0.245534 0.0564,0.369359 0.0103,0.114829 -0.0635,0.318293 0.0492,0.397933 0.21801,0.153987 0.37756,0.218546 0.53525,0.457465 0.12515,0.190235 0.26908,0.365389 0.39555,0.554566 0.15002,0.223838 0.1487,0.405606 0.0921,0.668073 -0.0503,0.232569 0.0307,0.483129 -0.007,0.722313 -0.0164,0.103452 -0.0471,0.225954 -0.13573,0.292364 -0.099,0.07329 -0.23892,0.02117 -0.33337,0.100806 -0.0939,0.07911 -0.0712,0.201613 -0.13071,0.296598 -0.0836,0.04233 -0.0878,0.09208 -0.0124,0.149225 0.0481,0.08017 0.0839,0.168011 0.091,0.262467 0.004,0.04551 0.0119,0.197908 -0.0413,0.233098 -0.0368,0.02434 -0.18706,0.03413 -0.18151,-0.03307 0.019,-0.216958 0.13177,-0.169069 -0.0595,-0.334962 -0.12356,-0.106892 -0.4998,-0.434182 -0.48895,-0.611453 0.007,-0.103452 -0.0529,-0.124618 -0.0796,-0.211931 -0.0542,-0.1778 0.0521,-0.152929 0.10584,-0.299773 0.0307,-0.08467 -0.0156,-0.147902 0.0474,-0.230981 0.0997,-0.131762 0.0984,-0.167481 0.0984,-0.333904 0,-0.194733 0.0595,-0.51779 -0.13176,-0.652727 -0.10822,-0.07646 -0.23495,-0.0053 -0.33946,0.03916 -0.10636,0.04551 -0.2802,-0.0077 -0.28469,0.09975 -0.0669,-0.07223 -0.47334,-0.660929 -0.49239,-0.639233 -0.1143,0.132556 -0.15002,-0.116417 -0.28787,-0.209021 z"
       id="mw" />
  </g>
</svg>
