<?xml version="1.0" encoding="UTF-8" standalone="no"?>
<!-- Created with Inkscape (http://www.inkscape.org/) -->

<svg
   xmlns:dc="http://purl.org/dc/elements/1.1/"
   xmlns:cc="http://creativecommons.org/ns#"
   xmlns:rdf="http://www.w3.org/1999/02/22-rdf-syntax-ns#"
   xmlns:svg="http://www.w3.org/2000/svg"
   xmlns="http://www.w3.org/2000/svg"
   xmlns:sodipodi="http://sodipodi.sourceforge.net/DTD/sodipodi-0.dtd"
   xmlns:inkscape="http://www.inkscape.org/namespaces/inkscape"
   width="2.9249899mm"
   height="3.0043271mm"
   viewBox="0 0 2.9249897 3.0043274"
   version="1.1"
   id="svg7070"
   inkscape:version="0.92.4 (5da689c313, 2019-01-14)"
   sodipodi:docname="moldova.svg">
  <defs
     id="defs7064" />
  <sodipodi:namedview
     id="base"
     pagecolor="#ffffff"
     bordercolor="#666666"
     borderopacity="1.0"
     inkscape:pageopacity="0.0"
     inkscape:pageshadow="2"
     inkscape:zoom="7.9195959"
     inkscape:cx="10.863437"
     inkscape:cy="-15.611735"
     inkscape:document-units="mm"
     inkscape:current-layer="layer1"
     showgrid="false"
     inkscape:window-width="958"
     inkscape:window-height="1008"
     inkscape:window-x="-7"
     inkscape:window-y="0"
     inkscape:window-maximized="0" />
  <metadata
     id="metadata7067">
    <rdf:RDF>
      <cc:Work
         rdf:about="">
        <dc:format>image/svg+xml</dc:format>
        <dc:type
           rdf:resource="http://purl.org/dc/dcmitype/StillImage" />
        <dc:title />
      </cc:Work>
    </rdf:RDF>
  </metadata>
  <g
     inkscape:label="Layer 1"
     inkscape:groupmode="layer"
     id="layer1"
     transform="translate(-160.14892,-42.22833)">
    <path
       inkscape:connector-curvature="0"
       style="fill:#ffffff;stroke-width:0.26458332"
       d="m 160.14894,42.459561 c 0.0812,-0.0471 0.0762,-0.01217 0.10927,-0.08917 0.0222,-0.05212 0.1061,-0.04604 0.1487,-0.04339 0.12912,0.0082 0.28469,0.01905 0.39714,-0.06509 0.23389,-0.17489 0.33655,0.395817 0.57573,0.283104 0.0281,0.145521 0.19606,-0.04577 0.22252,0.10504 0.0309,-0.144463 0.14843,-0.06403 0.21695,0.01588 0.0341,0.03969 0.11616,0.142346 0.1614,0.09895 0.0712,-0.06853 0.0421,0.01058 0.096,0.08123 0.12991,0.170656 0.077,0.246327 0.19871,0.403225 0.0368,0.04154 0.0275,0.144992 0.0672,0.18415 0.0471,0.05212 0.0889,-0.02725 0.13441,0.0291 0.0884,0.109273 -0.0693,0.401902 -0.0243,0.255323 0.0804,-0.261408 0.66939,0.33364 0.41936,0.422275 0.0773,0.03202 0.11986,0.109273 0.20188,0.134408 -0.18838,0.198967 -0.56436,-0.233362 -0.68977,0.0254 -0.0206,-0.05001 -0.0402,-0.100277 -0.0585,-0.151341 -0.30216,0.109802 -0.0572,0.331787 -0.22278,0.551656 -0.096,0.127 -0.1569,0.217223 -0.22305,0.355865 -0.0143,0.03016 -0.008,0.09604 -0.0508,0.106891 -0.0609,0.01535 -0.17462,-0.03757 -0.18494,0.06959 -0.11165,-0.09551 -0.0283,-0.201878 -0.0857,-0.315913 -0.058,-0.115887 -0.0754,-0.262202 -0.0688,-0.390525 0.008,-0.154781 0.11827,-0.295539 0.0717,-0.453496 -0.0389,-0.132291 -0.10848,-0.287073 -0.21194,-0.381529 -0.23706,-0.216164 -0.49186,-0.452437 -0.6559,-0.732102 -0.13044,-0.223044 -0.24897,-0.484187 -0.54451,-0.499533 z"
       id="md" />
  </g>
</svg>
