<?xml version="1.0" encoding="UTF-8" standalone="no"?>
<!-- Created with Inkscape (http://www.inkscape.org/) -->

<svg
   xmlns:dc="http://purl.org/dc/elements/1.1/"
   xmlns:cc="http://creativecommons.org/ns#"
   xmlns:rdf="http://www.w3.org/1999/02/22-rdf-syntax-ns#"
   xmlns:svg="http://www.w3.org/2000/svg"
   xmlns="http://www.w3.org/2000/svg"
   xmlns:sodipodi="http://sodipodi.sourceforge.net/DTD/sodipodi-0.dtd"
   xmlns:inkscape="http://www.inkscape.org/namespaces/inkscape"
   width="26.380419mm"
   height="10.422107mm"
   viewBox="0 0 26.380419 10.422106"
   version="1.1"
   id="svg7070"
   inkscape:version="0.92.4 (5da689c313, 2019-01-14)"
   sodipodi:docname="mongolia.svg">
  <defs
     id="defs7064" />
  <sodipodi:namedview
     id="base"
     pagecolor="#ffffff"
     bordercolor="#666666"
     borderopacity="1.0"
     inkscape:pageopacity="0.0"
     inkscape:pageshadow="2"
     inkscape:zoom="7.9195959"
     inkscape:cx="58.539655"
     inkscape:cy="-1.4528531"
     inkscape:document-units="mm"
     inkscape:current-layer="layer1"
     showgrid="false"
     inkscape:window-width="958"
     inkscape:window-height="1008"
     inkscape:window-x="-7"
     inkscape:window-y="0"
     inkscape:window-maximized="0" />
  <metadata
     id="metadata7067">
    <rdf:RDF>
      <cc:Work
         rdf:about="">
        <dc:format>image/svg+xml</dc:format>
        <dc:type
           rdf:resource="http://purl.org/dc/dcmitype/StillImage" />
        <dc:title></dc:title>
      </cc:Work>
    </rdf:RDF>
  </metadata>
  <g
     inkscape:label="Layer 1"
     inkscape:groupmode="layer"
     id="layer1"
     transform="translate(-147.02682,-24.662248)">
    <path
       style="fill:#aaaaaa;stroke:#ffffff;stroke-width:0.04116917"
       inkscape:connector-curvature="0"
       id="mn"
       d="m 147.04776,27.583424 c 0.19844,0.01693 0.11985,-0.114036 0.16192,-0.231511 0.077,-0.216164 0.52203,0.07938 0.50218,-0.121708 0.0825,0.03545 0.17833,0.07197 0.26009,0.0085 -0.0164,-0.02831 -0.0328,-0.05609 -0.05,-0.08387 0.14843,-0.02328 0.21881,-0.05609 0.36169,-0.109273 -0.0669,-0.04075 -0.1106,-0.112713 -0.1352,-0.184944 0.037,-0.02619 0.2831,-0.05001 0.25717,-0.116946 -0.0331,-0.08625 0.081,-0.08599 0.14102,-0.121973 0.0815,-0.04895 0.21114,-0.02752 0.27676,-0.08281 0.0947,-0.07964 0.1442,-0.167746 0.26934,-0.207963 0.0926,-0.02963 0.18018,0.0053 0.23548,-0.08969 0.0423,-0.07223 0.0709,-0.121972 0.15743,-0.134408 0.0992,-0.01429 0.3974,0.01323 0.31115,-0.170392 0.11218,-0.0021 0.2331,0.19394 0.34052,0.150813 0.0291,-0.01164 0.1315,-0.116681 0.16801,-0.07646 0.0796,0.08758 0.10186,0.167482 0.23971,0.170657 0.18177,0.004 0.36274,0.03704 0.54372,0.03043 0.20029,-0.0074 0.33681,-0.01508 0.46249,0.157427 0.2376,0.32676 0.54742,0.378354 0.91705,0.461962 0.20055,0.04524 0.29368,-0.05477 0.4744,-0.05556 0.0169,0 0.17832,-0.0061 0.1979,-7.94e-4 0.077,0.0209 0.19474,0.111919 0.27305,0.100277 0.0939,-0.01376 0.30745,-0.0291 0.39688,0.0048 0.14234,0.05424 0.32782,0.239712 0.46593,0.08017 0.0979,-0.112977 0.10372,-0.09842 0.23707,-0.129116 0.12779,-0.02937 0.14446,-0.255588 0.13811,-0.357188 -0.009,-0.139171 -0.099,-0.211402 -0.21749,-0.262202 -0.18256,-0.07779 -0.23707,-0.242094 -0.39026,-0.34925 -0.10954,-0.07699 -0.25135,-0.596635 -0.004,-0.514085 -0.0564,-0.119063 -0.0778,-0.246857 0.0762,-0.293159 0.15293,-0.04604 0.12198,-0.246062 0.0918,-0.362214 0.18812,0.05874 0.35296,0.157162 0.54875,0.193939 0.20082,0.03784 0.37518,0.161396 0.57785,0.18415 0.20637,0.02328 0.37438,0.02302 0.57362,0.09366 0.16721,0.05927 0.46804,0.219339 0.64875,0.1651 0.32835,-0.09843 0.58738,0.199496 0.73528,0.427302 0.0825,0.127 0.22595,0.227277 0.29025,0.359833 0.0717,0.148432 0.34158,0.203465 0.48895,0.274109 0.16166,0.07752 0.3175,0.06376 0.47387,0.154516 0.10901,0.06324 0.29342,0.0852 0.40851,0.0418 0.16537,-0.06218 0.24369,0.08573 0.4109,-0.06509 0.1405,-0.126735 0.35005,-0.128852 0.52626,-0.172508 0.34978,-0.08652 0.80327,0.05874 1.16046,0.09287 0.17859,0.0172 0.31433,0.126207 0.46143,0.216694 0.23416,0.144198 0.45191,0.0926 0.70565,0.145256 0.1307,0.02699 0.17462,0.163513 0.25559,0.253471 0.10265,0.1143 0.26643,0.160073 0.39078,0.248179 0.17331,0.123032 0.31777,0.119592 0.52467,0.105834 0.25877,-0.0172 0.41381,0.09578 0.65352,0.136525 0.19024,0.03228 0.3818,-0.01085 0.57283,5.29e-4 0.13811,0.0082 0.26299,0.07646 0.39502,0.0048 0.16801,-0.09128 0.30665,-0.178858 0.50165,-0.204523 0.19579,-0.02566 0.42863,-0.105304 0.62151,-0.08599 0.1725,0.01693 0.27516,-0.03863 0.31935,-0.207169 0.0479,-0.182033 0.17118,-0.27305 0.32358,-0.377296 0.14394,-0.09869 0.20929,-0.200289 0.39106,-0.154252 0.21087,0.05371 0.35957,0.0071 0.56039,0.138642 0.14552,0.09498 0.3048,0.193939 0.47942,0.222514 0.15319,0.02487 0.25744,-0.06509 0.39899,-0.09737 0.39026,-0.08864 0.59214,0.08255 0.57309,0.466725 -0.0167,0.334962 -0.0624,0.8382 0.11086,1.122891 0.0704,0.115094 -0.0825,0.175684 -0.0283,0.320411 0.0482,0.128587 0.25638,0.251354 0.38153,0.296598 0.14817,0.05318 0.19288,-0.134673 0.35137,-0.121709 0.20108,0.0164 0.39449,-0.05847 0.58446,0.04392 0.16113,0.08678 0.2704,0.188913 0.38788,-0.01799 0.09,-0.158486 0.19764,-0.199761 0.39052,-0.186532 0.33232,0.02249 0.71517,0.280194 0.99219,0.456671 0.31962,0.203729 0.6739,0.352954 0.93874,0.633148 0.31089,0.329142 -0.2032,0.309033 -0.4101,0.274373 -0.13785,-0.02302 -0.2749,-0.156633 -0.37968,-0.05821 -0.0339,0.03175 -0.21405,-0.02434 -0.26299,-0.02117 -0.14976,0.0098 -0.24951,0.0852 -0.37756,0.150283 -0.0894,0.04551 -0.28073,-0.07752 -0.30692,0.0299 -0.0288,0.117475 -0.0217,0.175154 -0.16801,0.165894 -0.17013,-0.01058 -0.33893,-0.03281 -0.41672,0.1524 -0.0288,0.06879 -0.0442,0.144992 -0.0471,0.21934 -0.003,0.08043 0.0979,0.15875 0.0815,0.222779 -0.0177,0.06853 -0.24686,0.23495 -0.30851,0.286544 -0.11509,0.09604 -0.31723,0.09842 -0.45931,0.09499 -0.10452,-0.0024 -0.28258,-0.09552 -0.34582,0.02937 -0.059,0.116681 -0.0736,0.25691 -0.17277,0.353748 -0.0654,0.06376 -0.1442,0.04789 -0.195,0.131498 -0.0386,0.06323 -0.0691,0.121972 -0.1524,0.115093 -0.1778,-0.01535 -0.36724,-0.04921 -0.54133,-0.08599 -0.29448,-0.06218 -0.63289,-0.416719 -0.94139,-0.180975 -0.11853,0.09049 -0.11113,0.243946 -0.0606,0.370152 0.0317,0.07911 -0.0225,0.152135 7.9e-4,0.230452 0.0246,0.08228 0.0963,0.08943 0.15029,0.142875 0.10609,0.104775 0.80248,0.49186 0.51117,0.618596 -0.0744,0.03228 -0.18203,0.153458 -0.24103,0.212196 -0.0812,0.08017 -0.2339,0.09366 -0.27755,0.212725 -0.0632,0.173302 -0.12383,0.371739 -0.26908,0.496887 -0.11748,0.1016 -0.32491,0.147108 -0.46435,0.231775 -0.15848,0.09604 -0.44661,0.06853 -0.62785,0.07699 -0.23337,0.01111 -0.43313,-0.04048 -0.66569,-0.0034 -0.48393,0.07726 -0.89641,0.128323 -1.34382,0.355865 -0.18151,0.0926 -0.36698,0.182033 -0.52573,0.31115 -0.14393,0.116946 -0.11774,0.135996 -0.28787,0.120385 -0.10371,-0.0093 -0.21537,-5.29e-4 -0.3003,-0.06906 -0.16642,-0.134938 -0.18045,-0.139435 -0.41407,-0.114829 -0.42519,0.04498 -0.8464,-0.175154 -1.26048,-0.249767 -0.19314,-0.03493 -0.40296,-0.07144 -0.58208,-0.156898 -0.19526,-0.09313 -0.31459,-0.283369 -0.53922,-0.324114 -0.19738,-0.03598 -0.3982,-0.005 -0.59717,-0.04577 -0.1725,-0.03519 -0.34686,-0.06324 -0.52096,-0.09049 -0.20399,-0.03175 -0.34819,0.08176 -0.54689,0.102923 -0.25744,0.02725 -0.53526,-0.04498 -0.79402,-0.05345 -0.43736,-0.01402 -0.86624,-0.189971 -1.30387,-0.14261 -0.12276,0.01323 -0.33919,0.07779 -0.46011,0.02487 -0.0569,-0.02514 -0.0902,-0.09181 -0.11588,-0.143404 -0.0423,-0.08493 -0.16008,-0.13679 -0.23733,-0.180975 -0.33814,-0.192088 -0.49372,-0.559065 -0.77312,-0.810155 -0.10715,-0.09657 -0.27834,-0.114564 -0.29633,-0.283898 -0.018,-0.166687 -0.37333,-0.09207 -0.52732,-0.163777 -0.17727,-0.08255 -0.36538,-0.170127 -0.53048,-0.275431 -0.14897,-0.09498 -0.32068,-0.08652 -0.4662,-0.201612 -0.33179,-0.262202 -0.78079,-0.150548 -1.16681,-0.189177 -0.32015,-0.03228 -0.64797,-0.08811 -0.96388,-0.131763 -0.27914,-0.03837 -0.64505,-0.229394 -0.6821,-0.5461 -0.0175,-0.150548 0.17675,-0.29501 0.0693,-0.423862 -0.13652,-0.162984 -0.0659,-0.371475 -0.18653,-0.52123 -0.15425,-0.191558 -0.28045,-0.337608 -0.48709,-0.474927 -0.18945,-0.126206 -0.24448,-0.298714 -0.38841,-0.46011 -0.095,-0.106892 -0.27411,-0.170127 -0.39132,-0.26379 -0.10954,-0.08758 -0.037,0.03043 -0.1315,0.03228 -0.0757,0.0016 -0.14843,-0.06033 -0.2077,-0.09922 -0.15742,-0.102923 -0.17409,-0.07012 -0.34448,-0.05874 -0.21485,0.01402 -0.43128,-0.137583 -0.59294,-0.261144 -0.12488,-0.09525 -0.25188,-0.205316 -0.40878,-0.243152 -0.14975,-0.03625 -0.22278,-0.02778 -0.2159,-0.171185 0.005,-0.10451 -0.25453,-0.121708 -0.29977,-0.220927 -0.0156,-0.03413 0.0357,-0.03519 0.0474,-0.05609 0.032,-0.06033 -0.0963,-0.162983 -0.11959,-0.207962 z" />
  </g>
</svg>
