<?xml version="1.0" encoding="UTF-8" standalone="no"?>
<!-- Created with Inkscape (http://www.inkscape.org/) -->

<svg
   xmlns:dc="http://purl.org/dc/elements/1.1/"
   xmlns:cc="http://creativecommons.org/ns#"
   xmlns:rdf="http://www.w3.org/1999/02/22-rdf-syntax-ns#"
   xmlns:svg="http://www.w3.org/2000/svg"
   xmlns="http://www.w3.org/2000/svg"
   xmlns:sodipodi="http://sodipodi.sourceforge.net/DTD/sodipodi-0.dtd"
   xmlns:inkscape="http://www.inkscape.org/namespaces/inkscape"
   width="1.3983096mm"
   height="1.664006mm"
   viewBox="0 0 1.3983095 1.6640062"
   version="1.1"
   id="svg7070"
   inkscape:version="0.92.4 (5da689c313, 2019-01-14)"
   sodipodi:docname="montenegro.svg">
  <defs
     id="defs7064" />
  <sodipodi:namedview
     id="base"
     pagecolor="#ffffff"
     bordercolor="#666666"
     borderopacity="1.0"
     inkscape:pageopacity="0.0"
     inkscape:pageshadow="2"
     inkscape:zoom="7.9195959"
     inkscape:cx="16.091703"
     inkscape:cy="-17.488073"
     inkscape:document-units="mm"
     inkscape:current-layer="layer1"
     showgrid="false"
     inkscape:window-width="958"
     inkscape:window-height="1008"
     inkscape:window-x="-7"
     inkscape:window-y="0"
     inkscape:window-maximized="0" />
  <metadata
     id="metadata7067">
    <rdf:RDF>
      <cc:Work
         rdf:about="">
        <dc:format>image/svg+xml</dc:format>
        <dc:type
           rdf:resource="http://purl.org/dc/dcmitype/StillImage" />
        <dc:title />
      </cc:Work>
    </rdf:RDF>
  </metadata>
  <g
     inkscape:label="Layer 1"
     inkscape:groupmode="layer"
     id="layer1"
     transform="translate(-158.76561,-43.072203)">
    <path
       inkscape:connector-curvature="0"
       style="fill:#ffffff;stroke-width:0.26458332"
       d="m 158.77801,44.021793 c 0.21987,-0.03625 -0.2204,-0.527844 0.12621,-0.453761 -0.0984,-0.177535 0.21272,-0.450321 0.27807,-0.235214 0.0474,-0.111655 -0.0841,-0.154517 -0.068,-0.260615 0.14103,0.0463 0.17701,0.130969 0.29502,0.233098 0.16033,0.138906 0.2106,0.202406 0.40084,0.298185 0.0744,0.03731 0.2921,0.01244 0.33787,0.0934 0.0699,0.123296 -0.11218,0.1143 -0.13097,0.129911 -0.0579,0.04763 0.1532,0.174889 0.0471,0.2286 -0.072,0.03651 -0.15954,0.08202 -0.21961,-0.0034 -0.0333,-0.04657 -0.0558,-0.144462 -0.12991,-0.06059 -0.18891,0.213783 -0.26087,0.467783 -0.17145,0.744802 -0.13652,-0.07779 -0.27014,-0.233627 -0.36168,-0.360098 -0.0275,-0.03863 -0.25268,-0.18415 -0.30136,-0.177536 0.0831,-0.03678 0.0577,-0.07964 0.15055,-0.0336 0.009,-0.14261 -0.29396,0.09525 -0.25268,-0.143139 z"
       id="me" />
  </g>
</svg>
