<?xml version="1.0" encoding="UTF-8" standalone="no"?>
<!-- Created with Inkscape (http://www.inkscape.org/) -->

<svg
   xmlns:dc="http://purl.org/dc/elements/1.1/"
   xmlns:cc="http://creativecommons.org/ns#"
   xmlns:rdf="http://www.w3.org/1999/02/22-rdf-syntax-ns#"
   xmlns:svg="http://www.w3.org/2000/svg"
   xmlns="http://www.w3.org/2000/svg"
   xmlns:sodipodi="http://sodipodi.sourceforge.net/DTD/sodipodi-0.dtd"
   xmlns:inkscape="http://www.inkscape.org/namespaces/inkscape"
   width="10.572841mm"
   height="8.3319626mm"
   viewBox="0 0 10.572841 8.3319599"
   version="1.1"
   id="svg7070"
   inkscape:version="0.92.4 (5da689c313, 2019-01-14)"
   sodipodi:docname="morocco.svg">
  <defs
     id="defs7064" />
  <sodipodi:namedview
     id="base"
     pagecolor="#ffffff"
     bordercolor="#666666"
     borderopacity="1.0"
     inkscape:pageopacity="0.0"
     inkscape:pageshadow="2"
     inkscape:zoom="7.9195959"
     inkscape:cx="24.93901"
     inkscape:cy="-2.2079344"
     inkscape:document-units="mm"
     inkscape:current-layer="layer1"
     showgrid="false"
     inkscape:window-width="958"
     inkscape:window-height="1008"
     inkscape:window-x="-7"
     inkscape:window-y="0"
     inkscape:window-maximized="0" />
  <metadata
     id="metadata7067">
    <rdf:RDF>
      <cc:Work
         rdf:about="">
        <dc:format>image/svg+xml</dc:format>
        <dc:type
           rdf:resource="http://purl.org/dc/dcmitype/StillImage" />
        <dc:title />
      </cc:Work>
    </rdf:RDF>
  </metadata>
  <g
     inkscape:label="Layer 1"
     inkscape:groupmode="layer"
     id="layer1"
     transform="translate(-155.23544,-33.329171)">
    <path
       style="fill:#ffffff;stroke-width:0.26458332"
       inkscape:connector-curvature="0"
       id="ma"
       d="m 155.23562,41.631049 c 0.0402,-0.04445 0.17145,-0.252412 0.21749,-0.269346 0.1651,-0.06033 0.34581,-0.06773 0.51673,-0.105304 0.31697,-0.06985 0.63844,-0.170127 0.87736,-0.399256 0.23442,-0.224896 0.47863,-0.401373 0.72416,-0.609865 0.23522,-0.199496 0.4146,-0.465666 0.60299,-0.70776 0.12753,-0.164571 0.42095,-0.637646 0.17356,-0.817034 -0.0958,-0.06932 -0.16324,-0.0717 -0.10186,-0.200289 0.0606,-0.127265 0.0542,-0.255058 0.0611,-0.394229 0.0193,-0.38735 0.15928,-0.560123 0.39634,-0.849048 0.13547,-0.164836 0.0982,-0.332846 0.15531,-0.522817 0.0413,-0.137583 0.15426,-0.243946 0.25691,-0.337344 0.21961,-0.19976 0.39344,-0.446087 0.66887,-0.570441 0.29951,-0.135467 0.61833,-0.2413 0.90488,-0.404283 0.56673,-0.322792 0.83925,-1.108869 1.0541,-1.687513 0.0206,-0.05609 0.096,-0.341312 0.18229,-0.332581 0.1061,0.01085 0.21299,-0.03202 0.30322,-0.0807 0.11403,-0.06085 0.13599,0.09049 0.16907,0.171714 0.064,0.157428 0.14949,0.264319 0.28813,0.362744 0.28945,0.205581 0.52969,0.148167 0.86095,0.108479 0.27437,-0.03281 0.62362,0.134144 0.79058,-0.188648 -0.002,0.10504 0.0262,0.131234 0.0407,0.211138 0.0156,0.08546 0.17092,0.128587 0.0349,-0.0093 0.0733,0.101864 0.20478,0.153722 0.32279,0.09499 0.12012,-0.06006 0.19156,0.0635 0.26564,0.131762 0.0794,0.07355 0.22093,0.115094 0.26855,0.218546 0.0542,0.118269 -0.0632,0.226748 0.1016,0.294217 -0.0892,0.06985 -0.0603,0.198173 -0.0434,0.2921 0.027,0.14896 -0.0228,0.280194 -0.006,0.423862 0.0138,0.115359 0.0884,0.189178 0.0598,0.313003 -0.0434,0.186531 -0.022,0.252676 0.0667,0.416718 0.0452,0.08334 0.004,0.157692 0.0495,0.234156 0.0672,0.113771 0.17224,0.159015 0.27146,0.237067 0.18256,0.144463 -0.3638,0.384175 -0.0717,0.495035 -0.30163,0.07752 -1.3597,-0.285485 -1.51501,0.124355 -0.081,0.214048 -0.2921,0.295275 -0.52017,0.276225 -0.17277,-0.01455 -0.3855,0.232304 -0.15002,0.297127 -0.19923,0.182033 0.16643,0.317235 0.0794,0.403754 -0.0998,0.09869 -0.27437,0.06297 -0.38232,0.141552 -0.11272,0.08255 -0.23654,0.205846 -0.36989,0.251883 -0.10107,0.03493 -0.21511,0.03175 -0.30983,0.08467 -0.18362,0.102658 -0.2577,0.317765 -0.39238,0.468577 -0.15425,0.172508 -0.43973,0.239977 -0.66383,0.248708 -0.16881,0.0066 -0.35005,-0.06376 -0.41805,0.137055 -0.0725,0.214577 -0.28337,0.05371 -0.45191,0.06641 -0.11879,0.0087 -0.18811,0.068 -0.26458,0.150548 -0.0775,0.08414 -0.16933,0.06641 -0.26617,0.105039 -0.11192,0.04472 -0.18097,0.155311 -0.27014,0.229659 -0.0947,0.07937 -0.21246,0.128323 -0.3093,0.206904 -0.18917,0.153194 -0.35507,0.175683 -0.33628,0.440796 0.0188,0.263789 -0.009,0.556419 -0.0386,0.818621 -0.0127,0.112183 -3.52504,0.02831 -3.88382,0.02831 z" />
  </g>
</svg>
