<?xml version="1.0" encoding="UTF-8" standalone="no"?>
<!-- Created with Inkscape (http://www.inkscape.org/) -->

<svg
   xmlns:dc="http://purl.org/dc/elements/1.1/"
   xmlns:cc="http://creativecommons.org/ns#"
   xmlns:rdf="http://www.w3.org/1999/02/22-rdf-syntax-ns#"
   xmlns:svg="http://www.w3.org/2000/svg"
   xmlns="http://www.w3.org/2000/svg"
   xmlns:sodipodi="http://sodipodi.sourceforge.net/DTD/sodipodi-0.dtd"
   xmlns:inkscape="http://www.inkscape.org/namespaces/inkscape"
   width="7.3568406mm"
   height="4.0574141mm"
   viewBox="0 0 7.3568397 4.0574139"
   version="1.1"
   id="svg7070"
   inkscape:version="0.92.4 (5da689c313, 2019-01-14)"
   sodipodi:docname="nepal.svg">
  <defs
     id="defs7064" />
  <sodipodi:namedview
     id="base"
     pagecolor="#ffffff"
     bordercolor="#666666"
     borderopacity="1.0"
     inkscape:pageopacity="0.0"
     inkscape:pageshadow="2"
     inkscape:zoom="5.6"
     inkscape:cx="18.463647"
     inkscape:cy="-6.5831862"
     inkscape:document-units="mm"
     inkscape:current-layer="layer1"
     showgrid="false"
     inkscape:window-width="958"
     inkscape:window-height="1008"
     inkscape:window-x="-7"
     inkscape:window-y="0"
     inkscape:window-maximized="0" />
  <metadata
     id="metadata7067">
    <rdf:RDF>
      <cc:Work
         rdf:about="">
        <dc:format>image/svg+xml</dc:format>
        <dc:type
           rdf:resource="http://purl.org/dc/dcmitype/StillImage" />
        <dc:title />
      </cc:Work>
    </rdf:RDF>
  </metadata>
  <g
     inkscape:label="Layer 1"
     inkscape:groupmode="layer"
     id="layer1"
     transform="translate(-157.08909,-26.367226)">
    <path
       style="fill:#ffffff;stroke-width:0.26458332"
       inkscape:connector-curvature="0"
       id="np"
       d="m 157.10723,27.817057 c 0.0455,-0.137848 0.15135,-0.207434 0.082,-0.353219 -0.0439,-0.09234 -0.0212,-0.132821 0.0288,-0.221456 0.0617,-0.109009 -0.0228,-0.188913 0.0662,-0.294482 0.12409,-0.146843 0.23945,-0.438943 0.44529,-0.290777 0.037,0.02699 0.0863,0.139171 0.14632,0.09313 0.0937,-0.07197 0.11403,-0.212196 0.0976,-0.319882 0.10636,0.04075 0.12435,-0.08308 0.19553,-0.06033 0.12488,0.04022 0.28416,-0.0079 0.37518,0.119063 0.16086,0.224896 0.52731,0.429948 0.77073,0.557212 0.20029,0.104775 0.33813,0.114829 0.48101,0.279665 0.14605,0.16801 0.22939,0.321733 0.4318,0.214312 0.10716,-0.05688 0.22172,-0.01826 0.30745,0.05715 0.0968,0.08493 0.0889,0.262202 0.17912,0.309563 0.16774,0.08784 0.4019,0.314589 0.5969,0.297127 0.0984,-0.0087 0.16113,-0.04948 0.22251,0.03228 0.0505,0.06694 -0.0849,0.121708 0.0191,0.205317 0.0796,0.06376 0.44186,0.184679 0.47943,0.01402 0.054,0.164041 0.2405,0.237331 0.3167,0.38391 0.0982,0.188119 0.091,-0.176477 0.12886,-0.207433 0.005,0.103187 0.25982,0.335491 0.33628,0.189706 0.0281,-0.05398 0.0101,-0.157427 0.10478,-0.110331 0.0831,0.04154 0.14102,0.06562 0.23098,0.09419 0.10133,0.03254 0.14023,0.09578 0.22595,0.141023 0.0754,0.03942 0.16722,-0.01561 0.24845,0.02222 0.1733,0.08043 0.38629,-0.103981 0.55668,-0.03942 0.17224,0.06535 0.0233,0.519377 0.0405,0.656696 0.0333,0.262996 0.27623,0.372004 0.21458,0.667809 -0.05,0.239183 -0.2421,0.124618 -0.46197,0.151077 -0.17224,0.02117 -0.41433,0.07197 -0.44608,-0.168011 -0.15717,0.05265 -0.20929,0.192352 -0.38682,0.08573 -0.0847,-0.05053 -0.46911,-0.186002 -0.55933,-0.150283 -0.18204,0.07144 -0.14949,-0.01879 -0.24686,-0.120386 -0.14817,-0.154516 -0.24474,0.03942 -0.41196,0 -0.12356,-0.02884 -0.21933,-0.191558 -0.34501,-0.222779 -0.17621,-0.04366 -0.15796,-0.109273 -0.22992,-0.252941 -0.0717,-0.143669 -0.81439,-0.358775 -0.72787,-0.129117 -0.0968,-0.04286 -0.23363,-0.155575 -0.34634,-0.09975 -0.15637,0.07779 -0.19315,0.09525 -0.37518,0.01455 -0.0995,-0.04392 -0.23839,-0.05027 -0.28443,-0.164042 -0.0664,-0.163777 -0.19367,-0.04339 -0.32676,-0.123825 -0.12409,-0.07488 -0.21855,-0.145256 -0.36883,-0.160602 -0.20161,-0.02037 -0.33364,-0.137847 -0.51276,-0.220397 -0.15584,-0.0717 -0.24659,-0.23204 -0.39555,-0.322792 -0.15637,-0.09525 -0.32835,-0.162454 -0.48393,-0.259292 0,0.154517 -0.17012,0.01138 -0.26299,-0.04789 -0.0638,-0.04154 -0.22887,-0.148696 -0.15611,-0.246327 z" />
  </g>
</svg>
