<?xml version="1.0" encoding="UTF-8" standalone="no"?>
<!-- Created with Inkscape (http://www.inkscape.org/) -->

<svg
   xmlns:dc="http://purl.org/dc/elements/1.1/"
   xmlns:cc="http://creativecommons.org/ns#"
   xmlns:rdf="http://www.w3.org/1999/02/22-rdf-syntax-ns#"
   xmlns:svg="http://www.w3.org/2000/svg"
   xmlns="http://www.w3.org/2000/svg"
   xmlns:sodipodi="http://sodipodi.sourceforge.net/DTD/sodipodi-0.dtd"
   xmlns:inkscape="http://www.inkscape.org/namespaces/inkscape"
   width="20.012884mm"
   height="16.388027mm"
   viewBox="0 0 20.012879 16.388029"
   version="1.1"
   id="svg7070"
   inkscape:version="0.92.4 (5da689c313, 2019-01-14)"
   sodipodi:docname="new_zealand.svg">
  <defs
     id="defs7064" />
  <sodipodi:namedview
     id="base"
     pagecolor="#ffffff"
     bordercolor="#666666"
     borderopacity="1.0"
     inkscape:pageopacity="0.0"
     inkscape:pageshadow="2"
     inkscape:zoom="5.6"
     inkscape:cx="37.862707"
     inkscape:cy="33.886377"
     inkscape:document-units="mm"
     inkscape:current-layer="layer1"
     showgrid="false"
     inkscape:window-width="958"
     inkscape:window-height="1008"
     inkscape:window-x="-7"
     inkscape:window-y="0"
     inkscape:window-maximized="0" />
  <metadata
     id="metadata7067">
    <rdf:RDF>
      <cc:Work
         rdf:about="">
        <dc:format>image/svg+xml</dc:format>
        <dc:type
           rdf:resource="http://purl.org/dc/dcmitype/StillImage" />
        <dc:title />
      </cc:Work>
    </rdf:RDF>
  </metadata>
  <g
     inkscape:label="Layer 1"
     inkscape:groupmode="layer"
     id="layer1"
     transform="translate(-171.77667,-18.190117)">
    <g
       transform="matrix(0.26458333,0,0,0.26458333,-26.674831,-137.79525)"
       id="nz"
       style="fill:#ffffff">
      <path
         style="fill:#ffffff"
         inkscape:connector-curvature="0"
         id="path3560"
         d="m 751.833,650.474 c -0.221,-0.373 -1.846,0.605 -1.778,1.016 0.232,-0.111 0.638,0.061 0.781,-0.135 0.31,-0.42 0.523,-0.623 0.997,-0.881 z" />
      <path
         style="fill:#ffffff"
         inkscape:connector-curvature="0"
         id="path3564"
         d="m 768.16,636.818 c 0.832,0.416 0.502,-1.521 -0.321,-0.531 -0.59,0.709 -1.069,1.346 -1.998,1.674 0.292,0.203 1.312,-0.166 1.656,-0.258 0.251,-0.066 0.708,0.012 0.88,-0.234 0.282,-0.406 -0.249,-0.557 -0.533,-0.395 0.105,-0.086 0.211,-0.172 0.316,-0.256 z" />
      <path
         style="fill:#ffffff"
         inkscape:connector-curvature="0"
         id="path3566"
         d="m 766.284,633.48 c 0.36,-0.092 0.7,-0.256 1.02,-0.445 -0.048,0.42 -0.564,0.336 -0.702,0.703 0.387,-0.006 0.59,-0.42 0.984,-0.385 -0.414,0.119 -1.074,0.434 -1.205,0.891 0.535,0.055 1.39,0.445 1.878,0.09 0.561,-0.408 1.2,-0.133 0.787,0.607 0.319,0.021 0.66,-0.229 0.974,-0.133 0.509,0.154 -0.031,0.621 -0.017,0.928 0.26,-0.139 0.955,-0.176 1.245,-0.131 0.24,0.035 0.053,0.379 0.438,0.383 1.088,0.012 2.058,-0.494 3.084,-0.766 0.194,-0.053 0.533,-0.465 0.748,-0.568 0.479,-0.23 1.025,-0.33 1.468,-0.635 0.408,-0.279 0.716,-0.656 1.215,-0.783 0.446,-0.113 1.012,-0.033 1.296,-0.482 -0.219,0.082 -0.44,0.156 -0.666,0.221 1.214,-0.553 2.064,-1.707 3.109,-2.498 0.49,-0.371 1.064,-0.619 1.532,-1.021 0.533,-0.459 0.879,-1.086 1.394,-1.562 0.946,-0.875 2.154,-1.252 3.32,-1.732 0.589,-0.242 1.3,-0.367 1.854,-0.662 0.371,-0.199 0.978,-0.855 1.369,-0.336 -0.219,0.092 -0.44,0.176 -0.666,0.25 0.538,-0.236 1.174,0.248 1.649,0.066 1.068,-0.404 0.293,-0.756 -0.282,-0.984 0.55,-0.135 0.645,-0.955 1.043,-1.281 0.688,-0.566 1.666,-0.83 2.447,-1.254 0.699,-0.379 1.217,-0.918 1.823,-1.416 0.516,-0.424 1.113,-0.627 1.693,-0.936 0.445,-0.236 0.701,-0.439 0.996,-0.824 0.383,-0.498 1.065,-0.641 1.558,-0.994 0.57,-0.41 0.34,-1.246 0.831,-1.695 0.508,-0.463 1.359,-0.443 1.741,-1.066 -0.208,0.25 -1.384,0.873 -1.65,0.477 0.467,-0.088 1.472,-0.25 1.398,-0.922 -0.51,0.016 -0.5,0.357 -0.878,0.465 -0.216,0.062 -0.857,0.455 -0.109,0.299 -0.341,0.037 -0.65,0.189 -0.984,0.256 0.291,-0.172 1.318,-0.842 0.604,-0.861 0.281,-0.062 0.536,-0.234 0.728,-0.445 -0.63,0.107 -1.147,0.508 -1.747,0.701 -0.567,0.184 -1.123,0.873 -1.777,0.637 0.248,-0.5 1.105,-1.238 0.983,-1.846 -0.165,0.088 -0.945,0.203 -0.798,-0.211 0.21,-0.59 0.951,-0.842 1.499,-0.711 -0.828,-0.422 -2.683,0.584 -3.333,1.145 -0.407,0.352 -0.705,0.803 -1.033,1.223 -0.45,0.58 -1.021,0.945 -1.591,1.393 -0.578,0.453 -1.119,0.568 -1.802,0.775 -0.635,0.189 -1.057,0.768 -1.484,1.236 -1.016,1.113 -2.13,2.062 -3.428,2.836 -0.563,0.336 -1.122,0.561 -1.748,0.748 -0.7,0.207 -1.293,0.666 -1.952,0.977 -1.414,0.668 -2.772,1.285 -4.225,1.871 -1.375,0.553 -2.838,0.855 -4.15,1.553 -0.535,0.285 -2.592,1.088 -2.316,1.906 -0.211,-0.768 -1.187,0.285 -1.533,0.41 -0.37,0.135 -1.623,0.58 -1.422,0.988 -0.315,-0.121 -0.716,0.092 -0.968,0.262 -0.273,0.184 -0.788,0.533 -0.175,0.533 -0.504,0.01 -0.368,0.59 -0.702,0.824 0.31,-0.334 0.256,-0.42 -0.158,-0.256 0.038,-0.186 -0.097,-0.637 -0.255,-0.289 -0.158,0.346 -0.694,0.562 -1.047,0.801 0.359,0.09 0.677,-0.113 1.02,-0.162 -0.335,0.141 -0.686,0.24 -1.02,0.383 0.223,0.068 0.444,0.068 0.666,0 -0.223,0.104 -0.455,0.176 -0.696,0.221 0.907,0.162 -0.611,0.41 -0.837,0.449 -0.47,0.08 -0.979,0.24 -1.038,0.791 z" />
      <path
         style="fill:#ffffff"
         inkscape:connector-curvature="0"
         id="path3568"
         d="m 804.021,613.441 c -0.36,0.174 -0.815,0.336 -0.891,0.793 0.417,-0.088 0.701,-0.44 0.891,-0.793 z" />
      <path
         style="fill:#ffffff"
         inkscape:connector-curvature="0"
         id="path3570"
         d="m 805.067,615.63 c -0.036,0.223 -0.077,0.445 -0.123,0.666 0.267,-0.152 0.584,-0.115 0.855,-0.254 0.064,0.27 -0.011,0.492 -0.225,0.67 0.597,0.494 1.819,-0.424 2.32,-0.719 1.121,-0.66 2.057,-1.367 3.079,-2.176 0.442,-0.352 0.967,-0.859 1.524,-1.008 0.466,-0.123 0.68,-0.619 1.047,-0.887 0.459,-0.332 0.957,-0.5 1.387,-0.9 0.522,-0.488 0.968,-1.055 1.509,-1.523 -0.954,-0.188 0.761,-1.504 1.015,-1.672 0.586,-0.391 2.909,-1.197 2.479,0.18 0.783,-0.49 0.778,-1.613 1.633,-2.084 0.306,-0.168 0.658,-0.223 0.969,-0.377 0.55,-0.275 0.796,-0.711 1.172,-1.166 0.564,-0.682 1.049,-1.523 1.748,-2.049 0.354,-0.268 0.299,-0.566 -0.091,-0.773 -0.515,-0.275 -1.284,0.229 -1.721,0.469 -1.089,0.596 -2.092,1.576 -3.403,1.01 -0.325,-0.141 -2.108,-1.004 -2.149,-1.35 -0.029,-0.25 1.489,-3.041 0.762,-2.861 0.215,-0.197 0.465,-0.359 0.732,-0.477 -0.25,0.008 -0.495,0.051 -0.732,0.129 0.077,-0.342 0.152,-0.703 -0.062,-1.02 -0.307,0.123 -0.262,0.188 -0.184,0.428 0.094,0.285 -0.341,0.621 -0.452,0.844 -0.26,0.514 -0.248,1.41 -0.978,1.523 -0.376,0.057 -0.036,-0.73 -0.023,-0.891 0.036,-0.457 -1.24,-0.529 -1.54,-0.475 0,-0.041 0.489,-0.344 0.611,-0.564 0.192,-0.344 0.289,-0.598 0.522,-0.922 0.172,-0.242 0.719,-0.373 0.556,-0.732 -0.174,-0.383 -0.464,-1.137 -0.102,-1.496 -0.206,-0.016 -0.388,-0.078 -0.303,-0.293 0.132,-0.338 0.567,0.062 0.748,0.195 0.285,-0.752 0.431,-1.541 0.411,-2.346 -0.209,0.053 -0.421,0.074 -0.636,0.061 0.055,0.115 0.108,0.232 0.159,0.35 -0.114,0.033 -0.23,0.043 -0.349,0.031 0.063,-0.262 -0.064,-0.764 0.379,-0.697 -0.433,-0.061 -0.507,-1.074 -0.983,-0.381 0.322,-0.496 -1.4,-0.617 -0.445,-0.793 -0.435,-0.166 -0.592,0.387 -0.887,0.568 0.291,-0.395 0.121,-1.551 -0.066,-1.967 0.257,0.035 0.451,-0.119 0.542,-0.35 -0.239,0.07 -1.235,0.053 -1.236,0.309 -10e-4,0.309 0.166,0.6 0.229,0.895 0.108,0.5 0.346,1.801 -0.52,1.748 0.115,0.424 0.129,0.867 0.158,1.303 0.235,-0.453 0.995,-0.359 1.081,-0.918 0.021,0.693 -0.973,0.5 -1.034,1.242 -0.085,1.01 0.497,1.922 0.24,2.98 0.635,0.119 0.47,-0.654 0.379,-1.016 0.248,0.066 0.437,0.262 0.507,0.508 -0.04,-0.672 0.362,-0.012 0.702,-0.381 -0.298,0.129 -0.562,0.285 0,0.412 -0.178,0.121 -0.399,0.092 -0.58,0.197 -0.188,0.109 -0.188,0.543 0.263,0.217 -0.268,0.287 -0.298,0.701 -0.573,0.982 -0.158,-0.193 -0.222,-0.416 -0.19,-0.666 -0.55,0.137 -0.375,1.678 -0.538,2.096 0.323,0.047 0.905,-0.469 1.078,0.002 0.12,0.33 -0.663,0.746 -0.762,0.188 -0.25,0.152 -0.712,1.027 -0.158,1.082 -0.338,0.111 -0.477,0.506 -0.565,0.812 -0.049,0.182 -0.097,0.363 -0.142,0.547 -0.108,0.373 -0.354,0.348 -0.527,0.645 -0.151,0.26 -0.197,0.734 -0.384,0.951 -0.118,0.004 -0.235,0.004 -0.354,0 -0.24,0.213 -0.459,0.453 -0.669,0.695 -0.638,0.738 -1.071,1.75 -1.9,2.303 -0.798,0.531 -1.912,0.424 -2.768,0.938 -0.367,0.221 -0.684,0.553 -0.726,1.002 -0.048,0.506 0.563,0.533 0.837,0.797 0.41,0.396 0.456,0.734 1.059,0.941 0.593,0.203 0.691,0.752 0.486,1.295 -0.417,1.102 -1.482,1.83 -2.386,2.508 -0.369,0.277 -0.67,0.777 -1.128,0.916 -0.445,0.137 -0.988,0.412 -1.224,0.836 0.286,0.129 0.53,-0.019 0.64,-0.287 z" />
      <path
         style="fill:#ffffff"
         inkscape:connector-curvature="0"
         id="path3572"
         d="m 817.458,598.478 c -0.199,0.051 -0.389,0.125 -0.569,0.221 0.253,0.156 0.479,0.054 0.569,-0.221 z" />
      <path
         style="fill:#ffffff"
         inkscape:connector-curvature="0"
         id="path3574"
         d="m 819.711,595.839 c -0.423,0.209 -0.563,1.219 -0.282,1.066 0.273,-0.146 0.189,-0.812 0.282,-1.066 z" />
      <path
         style="fill:#ffffff"
         inkscape:connector-curvature="0"
         id="path3576"
         d="m 823.24,626.017 c -0.017,0.148 -0.017,0.297 0,0.445 0.319,-0.129 0.632,-0.281 0.983,-0.287 -0.31,-0.32 -0.078,-1.332 0.446,-0.824 -0.095,0.117 -0.2,0.223 -0.318,0.318 0.302,-0.258 0.627,-0.492 0.984,-0.666 -0.579,0.137 -1.628,-0.379 -1.938,0.379 0.227,-0.078 0.448,-0.068 0.666,0.031 -0.131,0.348 -0.473,0.538 -0.823,0.604 z" />
      <path
         style="fill:#ffffff"
         inkscape:connector-curvature="0"
         id="path3578"
         d="m 823.62,627.16 c 0.205,-0.064 0.301,-0.07 0.349,-0.318 -0.12,0.101 -0.237,0.208 -0.349,0.318 z" />
    </g>
  </g>
</svg>
