<?xml version="1.0" encoding="UTF-8" standalone="no"?>
<!-- Created with Inkscape (http://www.inkscape.org/) -->

<svg
   xmlns:dc="http://purl.org/dc/elements/1.1/"
   xmlns:cc="http://creativecommons.org/ns#"
   xmlns:rdf="http://www.w3.org/1999/02/22-rdf-syntax-ns#"
   xmlns:svg="http://www.w3.org/2000/svg"
   xmlns="http://www.w3.org/2000/svg"
   xmlns:sodipodi="http://sodipodi.sourceforge.net/DTD/sodipodi-0.dtd"
   xmlns:inkscape="http://www.inkscape.org/namespaces/inkscape"
   width="4.1787529mm"
   height="4.2988734mm"
   viewBox="0 0 4.1787529 4.2988734"
   version="1.1"
   id="svg7070"
   inkscape:version="0.92.4 (5da689c313, 2019-01-14)"
   sodipodi:docname="nicaragua.svg">
  <defs
     id="defs7064" />
  <sodipodi:namedview
     id="base"
     pagecolor="#ffffff"
     bordercolor="#666666"
     borderopacity="1.0"
     inkscape:pageopacity="0.0"
     inkscape:pageshadow="2"
     inkscape:zoom="1.4"
     inkscape:cx="-65.465511"
     inkscape:cy="-76.600408"
     inkscape:document-units="mm"
     inkscape:current-layer="layer1"
     showgrid="false"
     inkscape:window-width="958"
     inkscape:window-height="1008"
     inkscape:window-x="-7"
     inkscape:window-y="0"
     inkscape:window-maximized="0" />
  <metadata
     id="metadata7067">
    <rdf:RDF>
      <cc:Work
         rdf:about="">
        <dc:format>image/svg+xml</dc:format>
        <dc:type
           rdf:resource="http://purl.org/dc/dcmitype/StillImage" />
        <dc:title></dc:title>
      </cc:Work>
    </rdf:RDF>
  </metadata>
  <g
     inkscape:label="Layer 1"
     inkscape:groupmode="layer"
     id="layer1"
     transform="translate(-173.08614,-80.603288)">
    <path
       inkscape:connector-curvature="0"
       style="fill:#aaaaaa;stroke-width:0.26458332"
       d="m 173.13019,82.559819 c 0.10584,0.04471 0.10928,0.156104 0.24368,0.143139 0,-0.119327 0.1704,-0.07197 0.27226,-0.102923 0.11086,-0.03334 0.0408,-0.185208 0.11933,-0.240241 0.0587,-0.04101 0.15002,-0.009 0.16457,-0.09287 0.018,-0.105833 -0.0759,-0.320675 -0.01,-0.404548 0.0609,-0.07805 0.20135,-0.01535 0.27781,-0.0053 0.0968,0.01244 0.13573,-0.07276 0.1905,-0.137848 0.20505,-0.243152 0.23257,-0.07011 0.44768,0.0672 -0.0135,-0.126736 0.13996,-0.196586 0.22516,-0.25453 0.087,-0.059 0.1479,-0.211402 0.25611,-0.229129 0.13203,-0.0217 0.031,-0.120385 0.12647,-0.202141 0.0995,-0.08493 0.10187,-0.200025 0.20955,-0.280988 0.12224,-0.09207 0.15505,0.07937 0.26406,0.112183 0.13838,0.04154 0.29871,-0.04762 0.44,-0.06641 0.15558,-0.02064 0.31565,-0.07091 0.4535,-0.14605 0.0627,-0.0344 0.11297,-0.09313 0.18494,-0.109538 0.0897,-0.02064 0.17859,0.01561 0.26908,0 -0.0767,0.03651 -0.11853,0.199232 -0.21854,0.109538 -0.0945,0.164306 0.14869,0.436298 0.0672,0.646906 -0.0786,0.203994 -0.24209,0.320675 -0.30903,0.542925 -0.0831,0.276754 -0.0495,0.553509 -0.0952,0.832909 -0.0222,0.135731 0.0362,0.494241 -0.12515,0.514879 0.005,-0.15875 0.0952,-0.274638 0.0672,-0.445294 -0.10689,0.02672 -0.003,0.221192 -0.20161,0.285485 0.13467,0.173567 0.036,0.354807 0.0421,0.546365 -0.031,-0.05265 -0.0394,-0.108744 -0.0251,-0.168275 -0.0193,0.115094 -0.0929,0.217223 -0.0923,0.336285 0.2167,-0.07779 0.046,0.212196 0.003,0.282575 -0.10213,0.16854 -0.17595,0.36539 -0.0447,0.55245 0.0585,0.08308 0.16854,0.159809 -0.009,0.230188 -0.10372,0.04127 -0.28178,0.0344 -0.37121,-0.03651 -0.027,-0.02328 -0.0497,-0.04974 -0.0683,-0.08017 -0.0757,-0.11139 -0.0497,-0.07144 -0.15135,-0.0889 -0.078,-0.01376 -0.12673,-0.107686 -0.21193,-0.08996 -0.0691,0.01429 -0.12144,0.06641 -0.1815,0.09922 -0.15055,0.08229 -0.45879,-0.199231 -0.60166,-0.241035 -0.10213,-0.0299 -0.13309,0.233627 -0.2204,0.01561 -0.0688,-0.172244 -0.24104,-0.284692 -0.36989,-0.408517 -0.25559,-0.245268 -0.36195,-0.579966 -0.63526,-0.817562 -0.17622,-0.151606 -0.55431,-0.452173 -0.38233,-0.669131 z"
       id="ni" />
  </g>
</svg>
