<?xml version="1.0" encoding="UTF-8" standalone="no"?>
<!-- Created with Inkscape (http://www.inkscape.org/) -->

<svg
   xmlns:dc="http://purl.org/dc/elements/1.1/"
   xmlns:cc="http://creativecommons.org/ns#"
   xmlns:rdf="http://www.w3.org/1999/02/22-rdf-syntax-ns#"
   xmlns:svg="http://www.w3.org/2000/svg"
   xmlns="http://www.w3.org/2000/svg"
   xmlns:sodipodi="http://sodipodi.sourceforge.net/DTD/sodipodi-0.dtd"
   xmlns:inkscape="http://www.inkscape.org/namespaces/inkscape"
   width="13.89997mm"
   height="11.89805mm"
   viewBox="0 0 13.899971 11.898047"
   version="1.1"
   id="svg7070"
   inkscape:version="0.92.4 (5da689c313, 2019-01-14)"
   sodipodi:docname="niger.svg">
  <defs
     id="defs7064" />
  <sodipodi:namedview
     id="base"
     pagecolor="#ffffff"
     bordercolor="#666666"
     borderopacity="1.0"
     inkscape:pageopacity="0.0"
     inkscape:pageshadow="2"
     inkscape:zoom="7.9195959"
     inkscape:cx="34.622408"
     inkscape:cy="13.682359"
     inkscape:document-units="mm"
     inkscape:current-layer="layer1"
     showgrid="false"
     inkscape:window-width="958"
     inkscape:window-height="1008"
     inkscape:window-x="-7"
     inkscape:window-y="0"
     inkscape:window-maximized="0" />
  <metadata
     id="metadata7067">
    <rdf:RDF>
      <cc:Work
         rdf:about="">
        <dc:format>image/svg+xml</dc:format>
        <dc:type
           rdf:resource="http://purl.org/dc/dcmitype/StillImage" />
        <dc:title />
      </cc:Work>
    </rdf:RDF>
  </metadata>
  <g
     inkscape:label="Layer 1"
     inkscape:groupmode="layer"
     id="layer1"
     transform="translate(-152.67336,-33.967389)">
    <path
       style="fill:#ffffff;stroke-width:0.26458332"
       inkscape:connector-curvature="0"
       id="ne"
       d="m 152.72369,43.110102 c -0.12356,-0.14605 0.0209,-0.412485 0.008,-0.579702 0.14869,0.05212 0.33231,0.03731 0.48842,0.03889 0.18415,0.0021 0.23098,-0.09234 0.33999,-0.218546 0.13149,-0.152135 0.28416,-0.1143 0.47175,-0.128852 0.23918,-0.01852 0.47757,-0.04048 0.71755,-0.04524 0.11324,-0.0021 0.2241,-0.0021 0.33655,0.01111 0.22172,0.02593 0.013,-0.068 0.11694,-0.09446 0.16616,-0.0426 0.38391,0.181769 0.45641,-0.0082 0.0638,-0.166687 0.25903,-0.189971 0.32491,-0.340518 0.0672,-0.154782 0.0651,-0.320675 0.15055,-0.471223 0.17833,-0.31459 0.13837,-0.663046 0.15637,-1.02235 0.0257,-0.512498 0.0175,-1.02579 0.0145,-1.538552 -0.002,-0.318823 0.0262,-0.401903 0.3429,-0.475457 0.28046,-0.06509 0.57044,-0.0807 0.84984,-0.149225 0.32993,-0.08123 0.54716,-0.405341 0.78078,-0.632883 0.33973,-0.3302 0.6649,-0.689769 1.03929,-0.981075 0.76279,-0.593725 1.60919,-1.131358 2.42411,-1.651265 0.38391,-0.245004 0.75248,-0.513027 1.13612,-0.758031 0.35931,-0.229394 0.84138,0.0058 1.22396,0.110331 0.33417,0.09155 0.60352,0.309034 0.83185,0.563298 0.0984,0.109802 0.12886,0.115094 0.24924,0.03202 0.17092,-0.116946 0.35428,-0.211138 0.53261,-0.315913 0.0847,0.445823 0.15425,0.881857 0.18917,1.332971 0.014,0.179652 0.11907,0.303213 0.21194,0.449263 0.0526,0.08334 0.10107,0.170921 0.13705,0.26326 0.0336,0.08652 -0.0614,0.156633 0.0135,0.242094 0.0958,0.110067 0.25718,0.203994 0.29766,0.352689 0.0497,0.182034 -0.15743,0.370153 -0.1741,0.55245 -0.0505,0.543455 -0.13705,1.085057 -0.13705,1.632215 0,0.235744 -0.0238,0.470429 -0.0307,0.705908 -0.006,0.189442 0.0204,0.421217 -0.0429,0.602721 -0.0545,0.156634 -0.21061,0.289984 -0.31195,0.417777 -0.16378,0.207169 -0.3421,0.402432 -0.508,0.608013 -0.27305,0.337608 -0.50482,0.724429 -0.65616,1.130035 -0.0368,0.0979 -0.0807,0.193146 -0.14738,0.274638 -0.032,0.03863 -0.0987,0.02778 -0.12303,0.07541 -0.0757,0.148167 0.10716,0.568325 0.13097,0.731573 -0.0804,0 -0.18362,-0.02037 -0.25612,0.02699 -0.0767,0.05001 -0.0638,0.103982 -0.15107,0.142346 -0.19447,0.08573 -0.33523,0.164836 -0.48287,0.320146 -0.22675,0.239183 -0.36221,0.135202 -0.63817,0.02302 -0.3228,-0.130969 -0.61278,-0.148696 -0.95753,-0.157692 -0.29448,-0.0077 -0.54875,0.0463 -0.77311,0.248708 -0.0765,0.06906 -0.13229,0.148167 -0.1905,0.231775 -0.10028,0.144463 -0.16087,0.05265 -0.30613,0.06615 -0.33972,0.03096 -0.48551,-0.140493 -0.76914,-0.254 -0.20743,-0.08281 -0.44476,-0.375179 -0.69453,-0.243152 -0.0945,0.05001 -0.16589,0.132821 -0.25823,0.186531 -0.0712,0.04101 -0.18283,-0.0209 -0.21485,0.04763 -0.13123,0.282575 -0.3593,-0.06747 -0.41275,-0.184943 -0.12594,-0.277548 -0.31908,-0.383646 -0.60086,-0.434711 -0.16008,-0.02857 -0.28126,-0.164306 -0.44503,-0.179387 -0.145,-0.01323 -0.20241,0.137319 -0.35693,0.134144 -0.2786,-0.0056 -0.53287,-0.02884 -0.7366,0.20267 -0.0667,0.07594 -0.13705,0.113242 -0.14631,0.217488 -0.0154,0.172773 -0.0206,0.318294 -0.12409,0.464079 -0.1397,0.196585 -0.31009,0.326496 -0.30057,0.588169 0.002,0.05477 -0.028,0.612775 -0.0619,0.593725 -0.16563,-0.09366 -0.52282,-0.723636 -0.69638,-0.702734 -0.0548,0.0066 -0.0773,0.07329 -0.12568,0.09181 -0.0643,0.02461 -0.20743,0.0064 -0.25056,0.07223 -0.022,0.0336 0.0744,0.313002 0.008,0.310886 -0.059,-0.0019 -0.19474,-0.250296 -0.22252,-0.296069 -0.0907,-0.149225 -0.0206,-0.180181 0.10398,-0.229923 -0.0397,-0.08282 -0.0476,-0.198702 -0.12594,-0.258763 -0.14129,-0.10795 -0.2286,0.117211 -0.37518,0.09128 -0.27278,-0.04842 -0.71834,-0.479425 -0.59161,-0.76544 0.0765,0.05556 0.15134,0.05768 0.23469,0.01693 -0.0408,-0.0344 -0.57018,-0.406135 -0.58791,-0.370152 0.0386,-0.07911 -0.15742,-0.227277 -0.18309,-0.315648 -0.0436,-0.1524 -0.008,-0.293687 -0.15293,-0.399256 z" />
  </g>
</svg>
