<?xml version="1.0" encoding="UTF-8" standalone="no"?>
<!-- Created with Inkscape (http://www.inkscape.org/) -->

<svg
   xmlns:dc="http://purl.org/dc/elements/1.1/"
   xmlns:cc="http://creativecommons.org/ns#"
   xmlns:rdf="http://www.w3.org/1999/02/22-rdf-syntax-ns#"
   xmlns:svg="http://www.w3.org/2000/svg"
   xmlns="http://www.w3.org/2000/svg"
   xmlns:sodipodi="http://sodipodi.sourceforge.net/DTD/sodipodi-0.dtd"
   xmlns:inkscape="http://www.inkscape.org/namespaces/inkscape"
   width="210mm"
   height="297mm"
   viewBox="0 0 210 297"
   version="1.1"
   id="svg6396"
   inkscape:version="0.92.4 (5da689c313, 2019-01-14)">
  <defs
     id="defs6390" />
  <sodipodi:namedview
     id="base"
     pagecolor="#ffffff"
     bordercolor="#666666"
     borderopacity="1.0"
     inkscape:pageopacity="0.0"
     inkscape:pageshadow="2"
     inkscape:zoom="0.98994949"
     inkscape:cx="636.42395"
     inkscape:cy="822.47542"
     inkscape:document-units="mm"
     inkscape:current-layer="layer1"
     showgrid="false"
     inkscape:window-width="1920"
     inkscape:window-height="1017"
     inkscape:window-x="-8"
     inkscape:window-y="-8"
     inkscape:window-maximized="1" />
  <metadata
     id="metadata6393">
    <rdf:RDF>
      <cc:Work
         rdf:about="">
        <dc:format>image/svg+xml</dc:format>
        <dc:type
           rdf:resource="http://purl.org/dc/dcmitype/StillImage" />
        <dc:title></dc:title>
      </cc:Work>
    </rdf:RDF>
  </metadata>
  <g
     inkscape:label="Layer 1"
     inkscape:groupmode="layer"
     id="layer1">
    <path
       inkscape:connector-curvature="0"
       style="fill:#aaaaaa;stroke-width:0.26458332"
       d="m 1.4534837,4.5556322 c 0.0508,-0.1068917 0.124619,-0.1944688 0.186796,-0.2936875 0.04524,-0.071967 0.154781,-0.032808 0.170921,-0.1082146 0.0336,-0.1558396 0.3471333,-0.1481667 0.3471333,-0.3040062 0,-0.094192 0.1013354,-0.050271 0.1574271,-0.06641 0.1008062,-0.029104 0.095779,-0.20955 0.1624541,-0.278077 0.1500188,-0.1545167 -0.048683,-0.4566709 0.094192,-0.5371042 0.056621,-0.03175 0.082815,-0.1185333 0.161925,-0.07911 0.1121833,0.056356 0.1931458,0.1553104 0.3024188,0.2164291 0.1934104,0.1082146 0.4045479,0.1195917 0.6196541,0.137848 0.1190625,0.010054 0.3630084,0.026458 0.276225,-0.1669521 C 3.8950591,2.9924737 3.7868444,2.9792447 3.7225507,2.9250051 3.6355027,2.8517151 3.5714736,2.7554072 3.5042694,2.6649197 3.6923882,2.6167657 3.9069652,2.6344927 4.1003757,2.6165007 4.3551694,2.5929527 4.2175861,2.431557 4.2689152,2.3029695 4.3133652,2.1918445 4.4702632,2.2656635 4.5528132,2.2288865 4.6718757,2.1757055 4.4697342,1.7727448 4.4453923,1.689401 4.6245152,1.679082 4.7758569,1.716918 4.8613173,1.8719635 4.984084,2.0944781 5.3335986,2.154274 5.4955236,2.3614427 c -0.075406,0.056356 -0.1394354,-0.027252 -0.2198688,-0.0127 -0.04789,0.00873 -0.078317,0.1418167 -0.092604,0.1778 -0.05371,0.1381125 -0.1905,0.3741208 -0.1518709,0.5283729 0.026988,0.1084792 0.5921375,0.6559021 0.3418417,0.7799917 -0.083079,0.040746 -0.1862667,0.075142 -0.2299229,0.1653646 -0.027781,0.057679 0.024606,0.136525 -0.023813,0.1833562 -0.070379,0.069056 -0.1468438,0.072231 -0.2008188,0.1674813 -0.042069,0.074613 -0.070379,0.1632479 -0.1352021,0.2227791 -0.074613,0.068263 -0.180975,0.048948 -0.2688166,0.086254 C 4.4387772,4.6926865 4.3858607,4.7572445 4.326594,4.8117488 4.246425,4.8855678 4.1667857,4.9212863 4.271561,5.0064821 4.35808,5.0773901 4.3742193,5.2170904 4.3945922,5.3197488 4.3554342,5.1840177 4.3070152,5.2583658 4.3160112,5.3552028 4.3334732,5.5404112 4.5342924,5.4671216 4.6604987,5.5451737 4.8491466,5.6621195 5.480707,5.9140028 5.4494862,6.1822903 5.4039782,6.5757257 4.6594403,6.1603303 4.471057,6.4653945 4.403853,6.5744028 4.428724,6.8805257 4.2988133,6.8583007 4.2310803,6.8466587 3.8585466,6.7230987 3.9987758,6.9249757 3.9217818,6.8778797 3.7765258,6.8498337 3.7169945,6.7961237 3.6233315,6.7119857 3.5246424,6.6445174 3.3942028,6.6392257 3.4457968,6.6799717 3.5018883,6.7135737 3.5622133,6.740032 3.4767533,6.748762 3.4622008,6.9008987 3.3521341,6.9919153 3.2796381,6.8792028 3.4227781,6.9268283 3.4106071,6.8577716 3.3942031,6.7633156 3.2706425,6.7196591 3.2764634,6.8493016 3.2105824,6.7069558 3.019553,6.8463916 2.940178,6.7064266 c 0.1942041,0 -0.051065,-0.1444625 0.1518708,-0.075671 C 2.98648,6.5201599 2.771903,6.5810136 2.6377592,6.5550846 2.6557512,6.4854996 2.7121072,6.4532201 2.7803696,6.4796786 2.6155342,6.3688182 2.7687276,6.1944578 2.6541634,6.0677223 c 0.1230312,0.089694 0.065352,-0.075671 0.2198687,-0.084402 0.094721,-0.00556 0.2185458,0.009 0.3018896,0.059531 C 3.0729988,5.8293328 2.6573384,6.0457613 2.6523113,5.7404328 2.6501913,5.6203119 2.7144883,5.444364 2.6816803,5.3319161 2.6483423,5.2173515 2.5295449,5.2300515 2.5792866,5.0845307 2.3681491,5.2205265 2.1083283,4.9665265 1.9233842,4.8911203 c 0.04128,0.060854 0.03546,0.1169458 -0.0172,0.168275 -0.0254,-0.1135063 -0.127,-0.1603375 -0.223837,-0.2024063 -0.05397,-0.023548 -0.314854,-0.2108729 -0.12065,-0.2177521 -0.03598,-0.027781 -0.07223,-0.055827 -0.108215,-0.083608 z"
       id="kp" />
  </g>
</svg>
