<?xml version="1.0" encoding="UTF-8" standalone="no"?>
<!-- Created with Inkscape (http://www.inkscape.org/) -->

<svg
   xmlns:dc="http://purl.org/dc/elements/1.1/"
   xmlns:cc="http://creativecommons.org/ns#"
   xmlns:rdf="http://www.w3.org/1999/02/22-rdf-syntax-ns#"
   xmlns:svg="http://www.w3.org/2000/svg"
   xmlns="http://www.w3.org/2000/svg"
   xmlns:sodipodi="http://sodipodi.sourceforge.net/DTD/sodipodi-0.dtd"
   xmlns:inkscape="http://www.inkscape.org/namespaces/inkscape"
   width="25.583755mm"
   height="19.025396mm"
   viewBox="0 0 25.583754 19.025397"
   version="1.1"
   id="svg7070"
   inkscape:version="0.92.4 (5da689c313, 2019-01-14)"
   sodipodi:docname="norway.svg">
  <defs
     id="defs7064" />
  <sodipodi:namedview
     id="base"
     pagecolor="#ffffff"
     bordercolor="#666666"
     borderopacity="1.0"
     inkscape:pageopacity="0.0"
     inkscape:pageshadow="2"
     inkscape:zoom="1.4"
     inkscape:cx="56.508893"
     inkscape:cy="1.9550808"
     inkscape:document-units="mm"
     inkscape:current-layer="layer1"
     showgrid="false"
     inkscape:window-width="958"
     inkscape:window-height="1008"
     inkscape:window-x="-7"
     inkscape:window-y="0"
     inkscape:window-maximized="0" />
  <metadata
     id="metadata7067">
    <rdf:RDF>
      <cc:Work
         rdf:about="">
        <dc:format>image/svg+xml</dc:format>
        <dc:type
           rdf:resource="http://purl.org/dc/dcmitype/StillImage" />
        <dc:title></dc:title>
      </cc:Work>
    </rdf:RDF>
  </metadata>
  <g
     inkscape:label="Layer 1"
     inkscape:groupmode="layer"
     id="layer1"
     transform="translate(-167.27871,-50.104227)">
    <g
       transform="matrix(0.26458333,0,0,0.26458333,100.97836,5.8640418)"
       id="no">
      <path
         style="fill:#aaaaaa"
         inkscape:connector-curvature="0"
         d="m 300.646,173.655 c -0.494,-0.374 -1.207,-0.323 -1.671,-0.741 -0.448,-0.404 -0.808,-1.019 -1.506,-0.72 0.168,0.574 0.91,0.946 1.44,1.088 0.625,0.167 1.408,0.725 2.054,0.659 -0.099,-0.103 -0.204,-0.198 -0.317,-0.286 z"
         id="path6656" />
      <path
         style="fill:#aaaaaa"
         inkscape:connector-curvature="0"
         d="m 298.329,169.812 c -0.219,-0.169 -0.453,-0.19 -0.701,-0.063 0.233,0.024 0.467,0.045 0.701,0.063 z"
         id="path6658" />
      <path
         style="fill:#aaaaaa"
         inkscape:connector-curvature="0"
         d="m 298.774,171.242 c 0.087,0.513 0.912,0.148 1.174,0.031 -0.09,-0.111 -0.186,-0.217 -0.287,-0.317 0.348,0.171 0.734,-0.061 1.015,0.286 -0.268,0.098 -0.521,0.225 -0.759,0.381 0.275,0.085 0.551,0.169 0.825,0.254 -0.571,0.402 -1.275,-0.344 -1.845,0.095 0.595,0.122 0.787,0.777 1.355,0.919 0.692,0.173 1.438,0.052 2.139,0.256 -0.474,0.057 -0.98,-0.058 -1.43,0.159 0.692,0.415 1.46,0.712 2.264,0.689 0.557,-0.016 1.07,-0.045 1.615,-0.181 0.409,-0.453 0.766,-0.174 1.301,-0.381 -0.226,-0.111 -0.458,-0.206 -0.697,-0.286 0.295,-0.058 0.355,-0.257 0.155,-0.477 0.682,-0.226 1.438,0.533 1.813,-0.413 0.459,0.159 0.342,0.699 -0.129,0.699 0.338,0.496 1.043,0.383 1.531,0.239 0.305,-0.089 0.58,-0.218 0.849,-0.385 0.481,-0.299 0.575,-0.074 1.084,-0.077 -0.358,0.13 -0.714,0.292 -0.953,0.604 0.592,-0.06 1.188,0.054 1.778,0.096 -0.988,0.305 -2.15,-0.215 -3.092,0.276 -0.411,0.215 -0.811,0.109 -1.205,0.305 -0.75,0.375 -1.438,0.126 -2.215,0.339 0.09,0.111 0.186,0.217 0.287,0.318 -0.375,-0.164 -1.169,-0.429 -1.551,-0.184 -0.73,0.469 0.98,0.851 1.184,0.842 0.975,-0.039 1.935,-0.251 2.906,-0.309 0.598,-0.035 1.188,0.042 1.786,-0.012 0.513,-0.047 1.103,-0.325 1.612,-0.243 -0.204,0.233 -0.245,0.409 0.189,0.413 -0.823,-0.228 -1.673,0.063 -2.504,0.063 -0.895,0 -1.799,0.083 -2.671,0.286 1.104,0.372 2.326,0.09 3.397,0.604 -1.037,0.021 -2.15,-0.574 -3.218,-0.269 -0.435,0.124 -0.816,-0.16 -1.257,-0.122 -0.834,0.073 -0.544,0.559 -0.025,0.866 0.693,0.412 1.688,0.542 2.469,0.725 0.576,0.135 0.895,-0.108 1.425,-0.164 0.446,-0.047 0.88,0.183 1.308,0.267 -0.676,0.281 -1.438,-0.064 -2.096,0.317 0.604,0.144 1.391,0.408 1.902,0.782 0.54,0.396 2.29,-0.4 1.239,-0.623 0.212,-0.121 0.497,-0.167 0.671,-0.35 -0.042,-0.106 -0.085,-0.211 -0.128,-0.317 0.141,-0.063 0.268,-0.146 0.382,-0.25 0.235,-0.644 0.681,-1.021 1.382,-1.021 0.467,0 0.95,-0.678 0.599,-1.058 -0.391,-0.422 1.346,-0.592 1.48,-0.689 -0.115,-0.065 -0.231,-0.129 -0.349,-0.191 0.499,-0.01 0.203,-0.518 0.093,-0.762 1.104,-0.118 2.067,-0.534 3.197,-0.485 0.541,0.024 1.924,0.171 2.109,-0.564 -1.162,-0.245 -2.707,-0.116 -3.766,-0.648 -0.398,-0.2 -0.729,-0.307 -1.182,-0.246 -0.596,0.081 -0.855,-0.274 -1.375,-0.282 0.926,-0.195 -0.312,-0.827 -0.65,-0.928 -0.367,-0.11 -0.673,0.216 -0.961,0.381 -0.152,0.088 -0.32,0.13 -0.452,-0.023 -0.3,-0.347 0.271,-0.492 0.476,-0.764 -0.465,-0.144 -0.896,-0.374 -1.373,-0.484 -0.398,-0.092 -0.68,0.123 -1.041,0.071 -0.369,-0.052 -1.521,-0.725 -1.336,0.127 -1.621,-0.483 1.036,2.41 1.05,2.605 -0.602,-0.187 -0.941,-0.86 -1.649,-0.635 0.325,-0.526 -1.27,-1.415 -1.594,-1.579 -0.496,-0.25 -0.842,-0.218 -1.26,0.126 -0.288,0.236 -0.619,0.166 -0.902,0.37 -0.133,0.095 0.161,0.559 0.133,0.701 -0.462,-0.65 -1.092,-0.272 -1.716,-0.508 0.062,-0.117 0.125,-0.234 0.19,-0.349 -0.592,-0.021 -1.195,0.202 -1.778,0.032 0.546,0.011 1.037,-0.286 1.583,-0.286 0.488,0 0.996,0 1.465,-0.158 -0.11,-0.608 -1.226,-0.279 -1.604,-0.235 -0.402,0.046 -0.797,0.158 -1.195,0.195 -0.264,0.024 -1.419,-0.471 -1.013,0.198 -0.415,0.138 -0.583,-0.359 -0.952,-0.413 -0.28,-0.041 -1.52,0.361 -0.729,0.572 -0.176,0.005 -1.695,0.152 -0.67,0.191 -0.266,-0.023 -0.521,0.019 -0.764,0.127 0.342,-0.006 0.297,0.065 0.25,0.301 -0.049,0.27 0.567,0.41 0.711,0.56 z"
         id="path6660" />
      <path
         style="fill:#aaaaaa"
         inkscape:connector-curvature="0"
         d="m 314.274,169.082 c -0.336,0.144 -0.707,0.139 -1.05,0.254 1.384,0.322 2.771,0.667 4.195,0.381 1.524,-0.306 3.097,-0.177 4.637,-0.095 -1.136,0.397 -2.403,0.329 -3.587,0.285 0.298,0.223 0.664,0.223 1.016,0.254 -0.956,0.113 -1.904,-0.188 -2.859,-0.063 0.59,0.575 2.138,0.593 2.914,0.657 1.212,0.101 2.639,0.053 3.85,-0.086 -0.12,0.068 -0.236,0.142 -0.349,0.223 0.87,0.576 2.423,0.669 3.382,0.287 0.74,-0.295 1.099,-0.335 1.874,-0.273 0.514,0.041 1.193,-0.142 1.604,-0.458 -0.093,-0.107 -0.187,-0.212 -0.281,-0.318 0.891,-0.297 1.807,-0.529 2.73,-0.699 -0.357,-1.113 -1.807,-0.822 -2.689,-0.787 -0.714,0.027 -1.394,-0.229 -2.105,-0.229 -0.32,0 -0.699,-0.127 -1.009,-0.031 -0.296,0.092 -0.438,-0.332 -0.806,-0.223 0.991,0.105 -0.671,0.246 -0.862,0.402 -0.391,0.32 -0.975,0.067 -1.423,0.138 0.62,-0.287 -0.193,-0.567 0.477,-0.635 -0.305,-0.21 -0.684,-0.17 -1.02,-0.286 0.113,0.505 -0.479,0.479 -0.728,0.222 0.265,0.165 0.286,0.239 0.108,0.448 -0.136,0.161 0.006,0.521 -0.085,0.592 -0.454,0.353 -1.144,-0.496 -1.708,-0.246 0.959,-0.304 -0.439,-0.298 -0.644,-0.277 -0.423,0.043 -0.898,0.121 -1.273,-0.142 -0.597,-0.417 -1.726,-0.694 -2.434,-0.47 0.216,0.124 0.448,0.198 0.697,0.222 -0.493,0.595 -1.108,0.078 -1.712,0.063 0.184,0.355 0.572,0.501 0.953,0.445 -0.376,0.406 -1.012,0.062 -1.436,-0.048 -0.645,-0.166 -1.378,0.029 -2.027,0.08 0.168,0.026 1.619,0.26 0.697,0.222 0.441,0.104 0.914,0.169 1.367,0.096 -0.121,0.101 -0.258,0.133 -0.414,0.095 z"
         id="path6718" />
      <path
         style="fill:#aaaaaa"
         inkscape:connector-curvature="0"
         d="m 313.827,168.478 c 0.096,-0.074 0.19,-0.148 0.286,-0.222 -0.331,-0.077 -0.702,-0.172 -0.983,0.095 0.238,0.006 0.471,0.048 0.697,0.127 z"
         id="path6720" />
      <path
         style="fill:#aaaaaa"
         inkscape:connector-curvature="0"
         d="m 316.973,185.154 c 0.224,-0.064 0.339,-0.212 0.349,-0.444 -0.33,-0.141 -0.689,-0.089 -1.015,0.031 0.208,0.16 0.43,0.297 0.666,0.413 z"
         id="path6730" />
      <path
         style="fill:#aaaaaa"
         inkscape:connector-curvature="0"
         d="m 317.387,170.829 c 0.116,0 0.233,0 0.349,0 -0.327,-0.114 -0.714,-0.201 -1.02,0.032 0.224,0.007 0.449,-0.004 0.671,-0.032 z"
         id="path6732" />
      <path
         style="fill:#aaaaaa"
         inkscape:connector-curvature="0"
         d="m 318.274,171.813 c 0.324,-0.035 0.648,-0.1 0.953,-0.223 -0.446,-0.095 -0.96,-0.242 -1.333,0.127 0.127,0.033 0.253,0.064 0.38,0.096 z"
         id="path6738" />
      <path
         style="fill:#aaaaaa"
         inkscape:connector-curvature="0"
         d="m 318.688,167.398 c 0.105,-0.032 0.211,-0.064 0.317,-0.096 -0.329,-0.028 -0.656,-0.062 -0.983,-0.095 0.22,0.069 0.442,0.132 0.666,0.191 z"
         id="path6740" />
      <path
         style="fill:#aaaaaa"
         inkscape:connector-curvature="0"
         d="m 318.021,173.243 c 0.585,0.117 1.036,0.148 1.523,0.519 0.422,0.321 0.874,0.178 1.364,0.176 0.214,0 2.359,-0.027 1.596,-0.715 -0.846,-0.763 -3.501,-0.327 -4.483,0.02 z"
         id="path6742" />
      <path
         style="fill:#aaaaaa"
         inkscape:connector-curvature="0"
         d="m 318.47,167.525 c -0.08,-0.099 -0.188,-0.12 -0.322,-0.064 0.107,0.021 0.214,0.043 0.322,0.064 z"
         id="path6744" />
      <path
         style="fill:#aaaaaa"
         inkscape:connector-curvature="0"
         d="m 319.96,176.07 c 1.366,0.364 2.727,-0.374 4.1,-0.254 -0.111,0.105 -0.885,0.44 -0.605,0.656 0.531,0.409 1.024,-0.013 1.546,-0.154 0.575,-0.156 0.958,-0.088 1.493,-0.434 0.605,-0.393 1.238,-0.514 1.947,-0.577 -0.482,-0.362 -1.148,-0.55 -1.74,-0.388 -0.655,0.179 -1.36,-0.157 -1.975,-0.342 0.172,-0.209 0.404,-0.373 0.666,-0.445 -0.845,-0.368 -1.706,-0.127 -2.586,-0.127 -0.961,0 -1.931,-0.017 -2.875,0.191 0.318,0.364 0.869,0.49 1.332,0.507 -0.06,0.273 -0.27,0.565 -0.426,0.79 -0.241,0.345 -0.804,0.061 -0.877,0.577 z"
         id="path6754" />
      <path
         style="fill:#aaaaaa"
         inkscape:connector-curvature="0"
         d="m 332.189,172.83 c 0.106,-0.074 0.212,-0.148 0.317,-0.222 -0.33,-0.063 -0.678,-0.389 -0.982,-0.063 0.225,0.084 0.448,0.18 0.665,0.285 z"
         id="path6780" />
      <path
         style="fill:#aaaaaa"
         inkscape:connector-curvature="0"
         d="m 333.618,168.637 c -0.106,0.053 -0.212,0.106 -0.318,0.159 0.23,0.018 0.451,-0.014 0.666,-0.096 -0.115,-0.021 -0.232,-0.042 -0.348,-0.063 z"
         id="path6784" />
      <path
         style="fill:#aaaaaa"
         inkscape:connector-curvature="0"
         d="m 334.987,172.29 c 0.969,-0.309 2.234,0.194 3.079,-0.254 -1.127,0.137 -2.458,-0.552 -3.464,0.222 0.129,0.011 0.256,0.021 0.385,0.032 z"
         id="path6786" />
      <path
         style="fill:#aaaaaa"
         inkscape:connector-curvature="0"
         d="m 341.433,168.891 c 1.387,-0.133 2.787,-0.131 4.16,-0.381 -1.304,-0.124 -2.949,-0.205 -4.16,0.381 z"
         id="path6788" />
      <path
         style="fill:#aaaaaa"
         inkscape:connector-curvature="0"
         d="m 283.112,228.195 c -0.105,-0.108 -0.222,-0.203 -0.348,-0.285 -0.115,0.371 0.002,0.466 0.348,0.285 z"
         id="path6606" />
      <path
         style="fill:#aaaaaa"
         inkscape:connector-curvature="0"
         d="m 283.241,230.896 c -0.138,-0.106 -0.276,-0.212 -0.415,-0.317 0.081,0.226 0.123,0.459 0.128,0.699 0.266,0.012 0.376,-0.129 0.287,-0.382 z"
         id="path6608" />
      <path
         style="fill:#aaaaaa"
         inkscape:connector-curvature="0"
         d="m 282.954,230.26 c 0.116,0.084 0.232,0.169 0.349,0.253 -0.08,-0.138 -0.197,-0.223 -0.349,-0.253 z"
         id="path6610" />
      <path
         style="fill:#aaaaaa"
         inkscape:connector-curvature="0"
         d="m 282.985,230.07 c 0.109,-0.001 0.215,-0.023 0.317,-0.063 -0.106,0.02 -0.211,0.041 -0.317,0.063 z"
         id="path6612" />
      <path
         style="fill:#aaaaaa"
         inkscape:connector-curvature="0"
         d="m 283.524,225.337 c 0.103,-0.306 -0.136,-0.3 -0.349,-0.223 0.117,0.074 0.233,0.149 0.349,0.223 z"
         id="path6614" />
      <path
         style="fill:#aaaaaa"
         inkscape:connector-curvature="0"
         d="m 283.369,234.485 c -0.183,0.251 -0.088,0.492 0.189,0.604 0.124,-0.284 0.135,-0.672 -0.128,-0.889 -0.02,0.094 -0.041,0.19 -0.061,0.285 z"
         id="path6616" />
      <path
         style="fill:#aaaaaa"
         inkscape:connector-curvature="0"
         d="m 283.558,232.738 c -0.465,-0.015 -0.238,0.457 -0.287,0.73 0.072,-0.269 0.276,-0.416 0.538,-0.254 -0.022,-0.191 -0.106,-0.35 -0.251,-0.476 z"
         id="path6618" />
      <path
         style="fill:#aaaaaa"
         inkscape:connector-curvature="0"
         d="m 283.811,232.229 c -0.16,0.23 -0.103,0.783 0.256,0.795 0.48,0.015 0.039,-0.755 -0.256,-0.795 z"
         id="path6620" />
      <path
         style="fill:#aaaaaa"
         inkscape:connector-curvature="0"
         d="m 284.224,232.103 c -0.105,0.021 -0.211,0.042 -0.317,0.063 0.308,0.023 0.558,0.366 0.798,0.019 0.216,-0.311 -0.349,-0.272 -0.481,-0.082 z"
         id="path6624" />
      <path
         style="fill:#aaaaaa"
         inkscape:connector-curvature="0"
         d="m 285.367,224.162 c -0.22,-0.064 -0.441,-0.075 -0.667,-0.032 -0.013,0.504 0.523,0.367 0.667,0.032 z"
         id="path6626" />
      <path
         style="fill:#aaaaaa"
         inkscape:connector-curvature="0"
         d="m 285.905,223.78 c -0.104,-0.021 -0.208,-0.042 -0.313,-0.063 -0.024,0.211 -0.046,0.423 -0.066,0.635 0.223,-0.11 0.383,-0.315 0.379,-0.572 z"
         id="path6628" />
      <path
         style="fill:#aaaaaa"
         inkscape:connector-curvature="0"
         d="m 286.546,223.558 c -0.104,-0.022 -0.211,-0.032 -0.318,-0.032 0.106,0.011 0.212,0.021 0.318,0.032 z"
         id="path6630" />
      <path
         style="fill:#aaaaaa"
         inkscape:connector-curvature="0"
         d="m 286.319,223.653 c 0.116,0.042 0.232,0.084 0.349,0.127 -0.089,-0.112 -0.206,-0.154 -0.349,-0.127 z"
         id="path6632" />
      <path
         style="fill:#aaaaaa"
         inkscape:connector-curvature="0"
         d="m 288.099,222.637 c -0.116,0 -0.232,0 -0.348,0 0.143,0.069 0.291,0.122 0.445,0.159 -0.032,-0.053 -0.065,-0.106 -0.097,-0.159 z"
         id="path6634" />
      <path
         style="fill:#aaaaaa"
         inkscape:connector-curvature="0"
         d="m 288.386,222.224 c -0.115,-0.009 -0.233,0 -0.349,0 0.242,0.185 0.259,0.024 0.349,0 z"
         id="path6636" />
      <path
         style="fill:#aaaaaa"
         inkscape:connector-curvature="0"
         d="m 290.101,221.875 c 0.106,-0.074 0.211,-0.148 0.317,-0.223 -0.075,-0.124 -0.171,-0.23 -0.287,-0.317 0.037,0.363 -0.089,0.427 -0.379,0.19 -0.046,0.268 0.07,0.414 0.349,0.35 z"
         id="path6638" />
      <path
         style="fill:#aaaaaa"
         inkscape:connector-curvature="0"
         d="m 291.66,220.508 c -0.141,-0.474 -0.747,-0.325 -0.984,-0.032 0.319,0.096 0.666,0.229 0.984,0.032 z"
         id="path6642" />
      <path
         style="fill:#aaaaaa"
         inkscape:connector-curvature="0"
         d="m 291.339,221.239 c 0.116,-0.021 0.232,-0.042 0.349,-0.063 -0.2,-0.231 -0.469,-0.243 -0.667,0 0.106,0.021 0.213,0.042 0.318,0.063 z"
         id="path6644" />
      <path
         style="fill:#aaaaaa"
         inkscape:connector-curvature="0"
         d="m 291.909,221.016 c 0.203,0.141 0.425,0.184 0.666,0.127 -0.06,-0.409 -0.443,-0.415 -0.666,-0.127 z"
         id="path6648" />
      <path
         style="fill:#aaaaaa"
         inkscape:connector-curvature="0"
         d="m 292.005,220.127 c 0.368,0.403 1.869,0.076 2.034,-0.445 -0.226,-0.196 -0.547,-0.186 -0.818,-0.125 -0.209,0.046 -0.987,0.178 -0.201,0.285 -0.374,-0.001 -0.76,-0.059 -1.015,0.285 z"
         id="path6650" />
      <path
         style="fill:#aaaaaa"
         inkscape:connector-curvature="0"
         d="m 293.375,219.206 c -0.333,-0.299 -0.959,0.12 -1.306,0.19 0.444,-0.025 0.948,0.196 1.306,-0.19 z"
         id="path6652" />
      <path
         style="fill:#aaaaaa"
         inkscape:connector-curvature="0"
         d="m 292.771,220.413 c -0.105,0.011 -0.211,0.021 -0.317,0.032 0.12,0.07 0.246,0.123 0.379,0.159 -0.021,-0.064 -0.041,-0.127 -0.062,-0.191 z"
         id="path6654" />
      <path
         style="fill:#aaaaaa"
         inkscape:connector-curvature="0"
         d="m 298.774,215.108 c -0.117,0.074 -0.235,0.148 -0.354,0.222 0.24,-0.056 0.475,-0.13 0.702,-0.222 -0.115,0 -0.231,0 -0.348,0 z"
         id="path6662" />
      <path
         style="fill:#aaaaaa"
         inkscape:connector-curvature="0"
         d="m 298.737,215.299 c 0.374,-0.109 0.678,0.315 0.988,-0.063 -0.329,-0.146 -0.667,-0.044 -0.988,0.063 z"
         id="path6664" />
      <path
         style="fill:#aaaaaa"
         inkscape:connector-curvature="0"
         d="m 299.728,216.665 c 0.104,-0.011 0.209,-0.021 0.312,-0.032 -0.273,-0.07 -0.525,-0.218 -0.729,-0.413 -0.029,0.275 0.142,0.451 0.417,0.445 z"
         id="path6666" />
      <path
         style="fill:#aaaaaa"
         inkscape:connector-curvature="0"
         d="m 299.759,215.998 c -0.118,0.01 -0.236,0.021 -0.354,0.031 0.104,0.103 0.222,0.188 0.354,0.254 0,-0.095 0,-0.19 0,-0.285 z"
         id="path6668" />
      <path
         style="fill:#aaaaaa"
         inkscape:connector-curvature="0"
         d="m 299.886,216.252 c -0.104,0.221 0.002,0.273 0.317,0.159 -0.106,-0.053 -0.212,-0.106 -0.317,-0.159 z"
         id="path6670" />
      <path
         style="fill:#aaaaaa"
         inkscape:connector-curvature="0"
         d="m 300.997,214.537 c -0.258,-0.055 -0.511,0.049 -0.671,0.254 0.245,-0.028 0.469,-0.113 0.671,-0.254 z"
         id="path6672" />
      <path
         style="fill:#aaaaaa"
         inkscape:connector-curvature="0"
         d="m 300.932,212.821 c 0.135,0.097 0.282,0.128 0.446,0.096 -0.063,-0.442 -0.248,-0.331 -0.446,-0.096 z"
         id="path6674" />
      <path
         style="fill:#aaaaaa"
         inkscape:connector-curvature="0"
         d="m 302.774,211.964 c 0.26,-0.141 0.534,-0.236 0.824,-0.286 -0.427,-0.196 -0.939,-0.118 -1.143,0.35 0.107,-0.022 0.214,-0.043 0.319,-0.064 z"
         id="path6676" />
      <path
         style="fill:#aaaaaa"
         inkscape:connector-curvature="0"
         d="m 303.026,211.106 c -0.625,-0.484 -0.518,0.697 0.128,0.158 -0.043,-0.052 -0.085,-0.104 -0.128,-0.158 z"
         id="path6678" />
      <path
         style="fill:#aaaaaa"
         inkscape:connector-curvature="0"
         d="m 303.729,205.007 c -0.087,0.097 -0.162,0.204 -0.225,0.318 0.412,0.244 0.833,-0.233 0.67,-0.635 -0.171,0.072 -0.32,0.178 -0.445,0.317 z"
         id="path6680" />
      <path
         style="fill:#aaaaaa"
         inkscape:connector-curvature="0"
         d="m 303.919,210.916 c -0.105,0.042 -0.211,0.084 -0.317,0.127 0.111,-0.029 0.217,-0.071 0.317,-0.127 z"
         id="path6682" />
      <path
         style="fill:#aaaaaa"
         inkscape:connector-curvature="0"
         d="m 304.175,210.756 c -0.131,-0.04 -0.248,-0.008 -0.354,0.096 0.117,-0.032 0.236,-0.063 0.354,-0.096 z"
         id="path6684" />
      <path
         style="fill:#aaaaaa"
         inkscape:connector-curvature="0"
         d="m 304.333,204.976 c 0.29,0.062 0.529,-0.125 0.635,-0.381 -0.28,-0.163 -0.688,0.025 -0.635,0.381 z"
         id="path6686" />
      <path
         style="fill:#aaaaaa"
         inkscape:connector-curvature="0"
         d="m 304.775,208.915 c 0.224,-0.02 0.447,-0.041 0.671,-0.064 -0.23,-0.053 -0.455,-0.032 -0.671,0.064 z"
         id="path6688" />
      <path
         style="fill:#aaaaaa"
         inkscape:connector-curvature="0"
         d="m 305.282,204.499 c -0.073,0.106 -0.146,0.211 -0.22,0.318 0.478,-0.333 1.224,-0.169 1.619,-0.635 -0.293,0.051 -0.399,-0.208 -0.667,-0.222 -0.262,-0.013 -0.42,0.203 -0.696,0.127 0.178,0.211 0.103,0.295 -0.226,0.254 0.064,0.053 0.128,0.105 0.19,0.158 z"
         id="path6690" />
      <path
         style="fill:#aaaaaa"
         inkscape:connector-curvature="0"
         d="m 306.776,204.182 c 0.209,-0.225 -0.15,-0.287 -0.286,-0.286 0.095,0.095 0.191,0.19 0.286,0.286 z"
         id="path6692" />
      <path
         style="fill:#aaaaaa"
         inkscape:connector-curvature="0"
         d="m 306.618,207.803 c 0.085,0.349 0.348,0.468 0.348,-0.032 -0.115,0.01 -0.233,0.021 -0.348,0.032 z"
         id="path6694" />
      <path
         style="fill:#aaaaaa"
         inkscape:connector-curvature="0"
         d="m 306.967,204.245 c 0.542,0.383 1.711,-0.206 1.972,-0.73 -0.266,-0.004 -0.489,0.091 -0.67,0.286 -0.184,-0.684 -1.055,0.309 -1.302,0.444 z"
         id="path6696" />
      <path
         style="fill:#aaaaaa"
         inkscape:connector-curvature="0"
         d="m 308.427,203.133 c 0.415,-0.018 0.922,-0.079 1.239,-0.381 -0.321,-0.083 -0.265,-0.149 -0.177,-0.369 0.102,-0.257 -0.533,-0.507 -0.68,-0.616 0.018,0.23 -0.014,0.452 -0.096,0.667 -0.348,-0.415 -1.036,0.229 -1.492,0.445 0.489,0.414 1.133,-0.395 1.682,-0.159 -0.211,0.103 -0.434,0.166 -0.666,0.191 0.063,0.074 0.125,0.148 0.19,0.222 z"
         id="path6698" />
      <path
         style="fill:#aaaaaa"
         inkscape:connector-curvature="0"
         d="m 308.05,203.419 c 0.213,0.027 0.392,-0.037 0.537,-0.19 -0.286,-0.115 -0.61,-0.119 -0.887,0.032 0.117,0.052 0.233,0.105 0.35,0.158 z"
         id="path6700" />
      <path
         style="fill:#aaaaaa"
         inkscape:connector-curvature="0"
         d="m 308.554,202.18 c 0.049,-0.255 -0.068,-0.255 -0.349,0 0.116,0 0.233,0 0.349,0 z"
         id="path6702" />
      <path
         style="fill:#aaaaaa"
         inkscape:connector-curvature="0"
         d="m 308.268,204.277 c 0.118,-0.053 0.235,-0.106 0.353,-0.159 -0.145,-0.002 -0.264,0.051 -0.353,0.159 z"
         id="path6704" />
      <path
         style="fill:#aaaaaa"
         inkscape:connector-curvature="0"
         d="m 308.685,205.325 c 0.229,-0.004 0.451,-0.046 0.666,-0.127 -0.222,-0.184 -0.561,-0.188 -0.666,0.127 z"
         id="path6706" />
      <path
         style="fill:#aaaaaa"
         inkscape:connector-curvature="0"
         d="m 309.728,202.752 c 0.032,0.106 0.064,0.211 0.098,0.318 -0.205,0.076 -0.418,0.119 -0.636,0.127 0.329,0.36 -0.238,0.529 -0.251,0.89 0.296,-0.261 0.668,-0.411 1.045,-0.508 -0.1,0.113 -0.195,0.23 -0.287,0.35 0.193,0.008 0.444,0.189 0.636,0.127 0.237,-0.078 0.349,-0.458 0.542,-0.604 -0.032,0.733 0.311,0.103 0.477,-0.08 0.188,-0.204 0.475,-0.118 0.711,-0.128 0.436,-0.018 0.838,-0.616 0.382,-0.91 -0.196,-0.127 -0.61,-0.199 -0.78,0.014 -0.241,0.301 -0.746,0.534 -1.105,0.914 0.014,-0.092 1.013,-1.257 0.158,-0.635 0.289,-0.368 0.182,-0.936 -0.398,-0.658 -0.277,0.133 -0.388,0.766 0.015,0.785 -0.205,-0.072 -0.406,-0.072 -0.607,-0.002 z"
         id="path6708" />
      <path
         style="fill:#aaaaaa"
         inkscape:connector-curvature="0"
         d="m 310.303,201.862 c 0.452,-0.082 1.027,-0.447 1.144,-0.921 -0.609,-0.322 -1.543,0.548 -1.717,1.08 0.224,0.07 0.416,0.017 0.573,-0.159 z"
         id="path6710" />
      <path
         style="fill:#aaaaaa"
         inkscape:connector-curvature="0"
         d="m 310.303,204.912 c -0.106,0.043 -0.212,0.084 -0.317,0.127 0.329,0.052 0.662,0.012 0.984,-0.064 -0.223,-0.019 -0.446,-0.04 -0.667,-0.063 z"
         id="path6712" />
      <path
         style="fill:#aaaaaa"
         inkscape:connector-curvature="0"
         d="m 311.477,203.546 c 0.952,0.667 0.731,-0.853 0,0 z"
         id="path6714" />
      <path
         style="fill:#aaaaaa"
         inkscape:connector-curvature="0"
         d="m 312.366,202.18 c 0.106,-0.053 0.213,-0.105 0.318,-0.159 -0.236,-0.122 -0.458,-0.101 -0.666,0.064 0.116,0.032 0.233,0.063 0.348,0.095 z"
         id="path6716" />
      <path
         style="fill:#aaaaaa"
         inkscape:connector-curvature="0"
         d="m 313.478,200.91 c 0.116,-0.011 0.232,-0.021 0.349,-0.032 -0.465,0.106 -0.465,0.212 0,0.317 -0.218,0.086 -0.44,0.16 -0.666,0.223 0.397,0.228 0.864,0.128 1.245,-0.077 0.451,-0.244 1.008,0.008 1.486,-0.113 -0.402,-0.092 -0.424,-0.191 -0.062,-0.3 0.207,-0.227 0.328,-0.76 -0.221,-0.462 0.777,-0.222 -0.053,-0.275 -0.32,-0.408 -0.837,-0.419 0.188,0.661 -0.54,-0.1 0.69,0.604 -0.503,0.06 -0.825,0.222 0.199,0.178 0.432,0.252 0.697,0.223 -0.479,0.175 -0.998,0.086 -1.491,0.191 0.31,-0.033 0.384,0.022 0.348,0.316 z"
         id="path6722" />
      <path
         style="fill:#aaaaaa"
         inkscape:connector-curvature="0"
         d="m 313.827,202.625 c -0.032,-0.497 -0.526,-0.212 -0.667,0.032 0.222,-0.029 0.444,-0.04 0.667,-0.032 z"
         id="path6724" />
      <path
         style="fill:#aaaaaa"
         inkscape:connector-curvature="0"
         d="m 313.863,202.212 c 0.199,0.206 0.483,0.26 0.728,0.095 -0.144,-0.182 -0.598,-0.459 -0.728,-0.095 z"
         id="path6726" />
      <path
         style="fill:#aaaaaa"
         inkscape:connector-curvature="0"
         d="m 317.835,199.607 c 0.186,-0.079 0.355,-0.185 0.507,-0.318 -0.304,-0.152 -0.618,-0.41 -0.983,-0.254 0.438,0.13 0.326,0.314 0.062,0.508 -0.062,-0.117 -0.124,-0.234 -0.189,-0.349 -0.237,0.13 -0.691,0.383 -0.036,0.381 -0.234,-0.071 -1.189,0.289 -0.348,0.19 -0.26,0.009 -0.492,0.094 -0.697,0.254 0.313,0.131 1.765,0.186 1.684,-0.412 z"
         id="path6728" />
      <path
         style="fill:#aaaaaa"
         inkscape:connector-curvature="0"
         d="m 317.418,198.591 c 0.214,-0.122 0.437,-0.228 0.666,-0.317 -0.222,0.035 -0.444,0.035 -0.666,0 0,0.105 0,0.211 0,0.317 z"
         id="path6734" />
      <path
         style="fill:#aaaaaa"
         inkscape:connector-curvature="0"
         d="m 317.735,198.591 c -0.209,1.34 1.881,0.053 2.096,0 -0.289,0.024 -0.533,-0.04 -0.722,-0.002 -0.103,0.02 -0.227,-0.241 -0.359,-0.251 -0.368,-0.032 -0.677,0.155 -1.015,0.253 z"
         id="path6736" />
      <path
         style="fill:#aaaaaa"
         inkscape:connector-curvature="0"
         d="m 318.274,197.956 c 0.111,0.075 0.229,0.139 0.353,0.191 0.073,-0.295 -0.276,-0.597 -0.353,-0.191 z"
         id="path6746" />
      <path
         style="fill:#aaaaaa"
         inkscape:connector-curvature="0"
         d="m 318.909,198.146 c 0.141,0.038 0.279,0.027 0.414,-0.031 -0.137,0.01 -0.275,0.021 -0.414,0.031 z"
         id="path6748" />
      <path
         style="fill:#aaaaaa"
         inkscape:connector-curvature="0"
         d="m 320.022,198.591 c -0.224,0.13 -0.425,0.289 -0.604,0.476 0.34,-0.049 0.77,-0.079 0.891,-0.476 -0.095,0 -0.191,0 -0.287,0 z"
         id="path6750" />
      <path
         style="fill:#aaaaaa"
         inkscape:connector-curvature="0"
         d="m 320.405,198.114 c -0.281,-0.237 -0.635,-0.293 -0.988,-0.317 0.525,0.275 0.655,0.864 1.337,0.477 -0.116,-0.054 -0.233,-0.107 -0.349,-0.16 z"
         id="path6752" />
      <path
         style="fill:#aaaaaa"
         inkscape:connector-curvature="0"
         d="m 321.452,198.114 c 0.215,0.589 0.963,0.306 1.019,-0.222 -0.357,-0.126 -0.732,0.005 -1.019,0.222 z"
         id="path6756" />
      <path
         style="fill:#aaaaaa"
         inkscape:connector-curvature="0"
         d="m 322.245,199.194 c 0.064,-0.106 0.129,-0.212 0.194,-0.318 -0.253,-0.101 -0.444,0.004 -0.445,0.286 0.083,0.011 0.167,0.022 0.251,0.032 z"
         id="path6758" />
      <path
         style="fill:#aaaaaa"
         inkscape:connector-curvature="0"
         d="m 322.438,198.591 c 0.232,0.174 0.525,0.174 0.758,0 -0.201,0.026 -0.592,-0.196 -0.758,0 z"
         id="path6760" />
      <path
         style="fill:#aaaaaa"
         inkscape:connector-curvature="0"
         d="m 324.626,198.591 c -0.01,-0.076 -0.033,-0.075 -0.221,-0.127 0.074,0.042 0.148,0.085 0.221,0.127 z"
         id="path6762" />
      <path
         style="fill:#aaaaaa"
         inkscape:connector-curvature="0"
         d="m 328.566,196.177 c 0.043,-0.042 0.085,-0.085 0.128,-0.127 -0.328,0.034 -0.666,0.105 -0.982,-0.031 0.719,0.809 -1.601,0.008 -0.543,0.508 -0.338,0.005 -0.58,-0.284 -0.864,-0.04 -0.247,0.211 -0.86,0.05 -1.17,0.104 0.216,0.098 0.439,0.172 0.671,0.223 -0.101,0.092 -0.206,0.176 -0.318,0.254 0.424,-0.321 1.074,-0.064 1.553,-0.111 0.576,-0.06 1.052,-0.493 1.525,-0.78 z"
         id="path6764" />
      <path
         style="fill:#aaaaaa"
         inkscape:connector-curvature="0"
         d="m 327.266,197.797 c 0.116,0 0.232,0 0.349,0 -0.186,-0.37 -0.923,-0.495 -1.271,-0.35 0.227,0.312 0.575,0.31 0.922,0.35 z"
         id="path6770" />
      <path
         style="fill:#aaaaaa"
         inkscape:connector-curvature="0"
         d="m 329.043,196.78 c -0.021,-0.053 -0.041,-0.105 -0.062,-0.159 -0.447,0.513 -1.153,0.261 -1.654,0.667 0.355,0.274 0.803,-0.167 0.793,0.413 0.246,-0.18 1.421,-0.444 0.923,-0.921 z"
         id="path6772" />
      <path
         style="fill:#aaaaaa"
         inkscape:connector-curvature="0"
         d="m 330.026,196.939 c 0.362,-0.492 -0.148,-0.555 -0.535,-0.575 -0.847,-0.043 -0.029,0.678 0.535,0.575 z"
         id="path6774" />
      <path
         style="fill:#aaaaaa"
         inkscape:connector-curvature="0"
         d="m 329.649,195.478 c 0.186,0.19 0.408,0.254 0.666,0.191 -0.118,-0.174 -0.47,-0.494 -0.666,-0.191 z"
         id="path6776" />
      <path
         style="fill:#aaaaaa"
         inkscape:connector-curvature="0"
         d="m 329.868,195.224 c 0.1,0.062 0.206,0.052 0.316,-0.032 -0.105,0.011 -0.21,0.021 -0.316,0.032 z"
         id="path6778" />
      <path
         style="fill:#aaaaaa"
         inkscape:connector-curvature="0"
         d="m 334.57,195.478 c 0.116,0 0.231,0 0.349,0 -0.469,0.025 -0.375,-0.163 -0.159,-0.381 -0.249,-0.075 -0.501,-0.138 -0.757,-0.19 -0.336,0 -0.595,0.239 -0.928,0.254 0.221,0.048 0.342,0.277 0.504,0.409 0.219,0.179 0.752,-0.057 0.991,-0.092 z"
         id="path6782" />
      <path
         style="fill:#aaaaaa"
         inkscape:connector-curvature="0"
         d="m 250.584,196.05 c 0.478,-0.208 0.954,-0.48 1.482,-0.526 0.319,-0.027 0.937,0.018 1.139,-0.298 0.438,-0.683 -1.143,0.046 -1.299,0.14 -0.423,0.253 -1.099,0.147 -1.322,0.684 z"
         id="path6604" />
      <path
         style="fill:#aaaaaa"
         inkscape:connector-curvature="0"
         d="m 283.082,227.211 c 0.672,-0.325 1.404,-0.04 2.096,-0.254 -0.156,-0.028 -0.306,-0.008 -0.448,0.061 -0.321,0.105 -0.568,-0.13 -0.885,-0.125 1.025,-0.304 -0.679,-0.149 0.313,-0.349 -0.349,-0.055 -0.698,0.004 -1.046,0.032 0.348,-0.069 0.709,-0.067 1.046,-0.191 -0.302,0.071 -1.08,0.292 -1.077,-0.254 0.249,0.031 0.471,-0.033 0.667,-0.191 -0.849,0.086 0.442,-0.471 0.666,-0.476 0.271,-0.006 0.416,0.205 0.666,0.254 0.25,0.049 1.049,-0.202 0.477,0.35 0.138,-0.343 1.906,-0.574 2.259,-0.414 -0.383,-0.208 -0.842,0.059 -1.246,-0.016 -0.215,-0.039 -1.981,-0.113 -1.074,-0.143 -0.551,-0.039 -1.435,0.218 -1.906,-0.158 0.261,0.015 0.482,-0.069 0.666,-0.254 -0.146,-0.159 -0.797,-0.252 -0.773,-0.537 0.034,-0.409 0.936,0.317 0.963,0.569 0.119,-0.055 0.225,-0.129 0.317,-0.222 -0.583,0.006 -0.132,-0.69 0.384,-0.032 0.031,-0.311 0.398,-0.521 0.446,-0.152 0.029,0.226 0.919,0.182 1.076,0.184 -0.259,-0.057 -1.143,-0.414 -0.602,-0.738 0.653,-0.391 0.757,-0.003 1.237,0.388 -0.849,-1.671 2.094,-0.486 0.922,0.286 0.253,0.062 0.486,0.02 0.701,-0.127 -0.265,-0.057 -0.458,-0.282 -0.194,-0.508 0.138,-0.118 0.52,0.055 0.701,-0.032 -0.748,0.027 -0.826,-0.367 -1.412,-0.583 -0.462,-0.172 -0.979,0.106 -1.447,-0.02 0.371,-0.124 0.762,-0.079 1.143,-0.127 -0.348,-0.212 -0.755,-0.038 -1.081,-0.317 0.609,-0.135 1.332,-0.32 1.943,-0.097 0.518,0.189 1.375,0.464 1.868,0.128 -0.229,0.061 -0.461,0.082 -0.697,0.064 0.085,-0.706 1.307,-0.639 1.778,-0.477 -0.596,-0.61 -1.393,0.367 -2.034,-0.095 0.223,-0.059 0.445,-0.122 0.666,-0.19 -0.5,0.024 -1.264,0.478 -1.681,0 0.204,-0.084 0.416,-0.116 0.636,-0.097 -0.272,-0.057 -0.506,-0.184 -0.702,-0.381 0.338,-0.235 0.742,-0.321 1.102,-0.069 0.367,0.257 0.703,-0.135 1.092,-0.058 0.355,0.071 0.664,-0.132 0.808,0.319 0.121,0.379 0.847,0.415 1.129,0.634 -0.343,-0.611 -1.261,-0.604 -1.429,-1.366 0.256,-0.162 0.651,0.171 0.799,0.343 0.357,0.418 0.165,0.333 0.819,0.355 -0.64,-0.062 -0.22,-0.328 0.066,-0.381 -0.13,-0.012 -1.277,-0.048 -0.349,-0.096 -0.14,0.009 -0.986,-0.29 -0.521,-0.396 0.539,-0.123 1.169,-0.145 1.726,-0.24 -0.329,0.043 -0.681,0.079 -0.984,-0.095 0.126,-0.12 0.238,-0.252 0.333,-0.397 0.191,-0.233 0.372,-0.087 0.609,-0.181 0.367,-0.144 0.749,-0.006 0.359,0.388 0.322,-0.148 0.671,-0.223 1.019,-0.286 -0.247,0.045 -0.491,0.035 -0.732,-0.032 0.2,-0.142 0.423,-0.227 0.666,-0.254 -0.222,-0.036 -0.444,-0.036 -0.666,0 0.342,-0.23 0.825,-0.336 1.217,-0.446 0.462,-0.129 1.11,0.662 0.437,0.955 0.33,-0.123 0.675,-0.053 1.015,-0.064 -0.864,-0.202 0.196,-0.401 0.43,-0.398 0.389,0.004 0.804,0.108 1.189,0.018 -0.238,-0.29 -0.175,-0.417 0.189,-0.381 -0.231,-0.083 -0.453,-0.062 -0.666,0.063 0.52,-0.4 1.119,-0.718 1.778,-0.794 -0.026,-0.286 -0.228,-0.379 -0.477,-0.254 0.101,-0.434 0.568,-0.417 0.892,-0.572 -0.289,-0.038 -1.087,0.144 -0.349,-0.286 -0.666,0.026 -1.058,0.77 -1.716,0.858 0.24,-0.001 0.461,-0.065 0.666,-0.191 0.382,0.525 -0.861,0.914 -1.165,1.022 -0.996,0.356 -1.211,0.543 -1.787,-0.292 0.278,0 0.526,-0.136 0.728,-0.317 -0.461,0.11 -0.926,0.227 -1.363,0.414 0.249,-0.165 0.54,-0.385 -0.035,-0.381 0.502,-0.222 1.169,-0.697 1.747,-0.477 -0.239,-0.149 -0.472,-0.139 -0.697,0.032 0.1,-0.093 0.205,-0.177 0.318,-0.254 -0.723,0.147 0.04,-0.261 0.229,-0.412 0.235,-0.188 0.095,-0.43 0.504,-0.287 -0.319,-0.884 1.639,-0.654 1.46,-1.429 0.354,0.105 0.558,0.457 0.922,0.54 -0.046,0.121 -0.101,0.237 -0.163,0.35 0.322,-0.21 0.695,-0.393 1.08,-0.445 -0.623,0.063 -0.254,-0.38 0.066,-0.381 -0.216,-0.082 -0.439,-0.124 -0.67,-0.126 0.007,-0.505 0.705,-0.514 1.05,-0.604 -0.171,-0.006 -0.341,-0.027 -0.507,-0.063 0.577,-0.445 1.42,-0.562 2.096,-0.286 -1.127,-0.555 -1.949,0.524 -3.049,0.508 0.434,-0.129 0.424,-0.213 -0.031,-0.254 0.322,-0.169 0.697,-0.072 1.015,-0.254 -0.251,0.1 -0.505,0.111 -0.763,0.032 0.214,-0.088 0.436,-0.12 0.666,-0.096 -1.02,-0.206 1.138,-0.298 0,-0.222 0.31,-0.027 0.617,-0.101 0.891,-0.254 -0.792,0.021 -0.009,-0.358 0.287,-0.063 0.054,-0.407 0.518,-0.45 0.604,-0.032 -0.259,0.105 -0.522,0.126 -0.794,0.064 0.742,0.344 1.746,-0.202 2.285,-0.699 -0.237,0.115 -0.453,0.267 -0.694,0.374 -0.222,0.098 -1.118,0.069 -0.32,-0.024 -0.445,-0.041 -0.388,-0.221 -0.159,-0.445 -0.264,-0.05 -0.508,0.082 -0.666,0.286 -0.229,-0.312 0.057,-1.005 0.477,-0.984 0.092,0.078 0.172,0.167 0.24,0.267 0.232,0.225 0.559,0.032 0.805,-0.044 -0.102,0.029 -0.852,-0.265 -0.882,-0.312 -0.405,-0.645 0.431,-0.466 0.754,-0.291 -0.831,-0.329 0.185,-1.586 1.143,-0.635 -0.114,-0.522 -0.904,-0.745 -1.332,-0.699 0.439,-0.014 1.22,-0.449 1.655,-0.608 0.405,-0.147 0.262,0.079 0.514,0.234 0.162,0.099 0.449,-0.043 0.628,-0.007 -0.54,-0.134 0.64,-0.352 0.887,-0.604 -0.892,0.212 -1.809,0.294 -2.7,0.508 0.224,-0.351 0.613,-0.385 0.988,-0.413 -0.35,-0.057 -0.705,0.038 -1.05,-0.064 0.292,-0.207 0.245,-0.456 -0.065,-0.603 0.324,-0.223 0.452,0.161 0.762,0.158 0.107,0 0.961,-0.416 1.02,-0.477 -0.514,-0.154 -1.027,0.459 -1.398,-0.158 0.23,-0.066 0.462,-0.077 0.697,-0.032 -0.166,-0.065 -0.334,-0.118 -0.508,-0.159 0.445,-0.117 0.9,0.128 1.338,-0.031 -0.133,0.014 -1.099,-0.045 -0.287,-0.127 -0.887,-0.086 0.532,-0.118 0.666,-0.127 -0.367,-0.056 -0.666,-0.286 -1.02,-0.381 0.348,-0.178 0.818,-0.341 1.215,-0.271 0.511,0.092 0.878,-0.373 1.393,-0.111 -0.213,-0.13 -0.446,-0.194 -0.697,-0.19 0.13,-0.447 1.584,-0.683 1.584,-0.35 0.381,-0.24 0.949,-0.069 1.271,0.19 0,-0.354 0.06,-0.416 0.414,-0.285 -0.439,-0.086 -0.868,-0.254 -1.318,-0.271 -0.631,-0.023 -1.093,0.247 -1.73,-0.014 0.262,-0.075 0.406,-0.341 0.666,-0.413 0.297,-0.082 0.422,0.301 0.667,-0.064 -0.229,0.017 -0.451,-0.015 -0.667,-0.095 0.306,-0.17 0.697,-0.419 1.051,-0.191 -0.129,0.063 -0.256,0.127 -0.384,0.191 0.32,-0.079 0.696,-0.132 1.019,-0.032 0.292,0.09 0.51,0.487 0.855,0.349 -0.719,-0.027 0.078,-0.613 0.415,-0.603 -0.563,-0.064 -1.096,0.238 -1.654,0.031 1.073,-0.235 -0.503,-0.007 0.122,-0.46 0.193,-0.141 0.526,0.037 0.738,0.016 -0.816,-0.131 0.36,-0.117 0.666,0.063 -0.814,-0.821 -1.605,0.074 -2.51,0.096 0.142,-0.231 0.392,-0.383 0.666,-0.381 -0.256,-0.019 -0.488,-0.104 -0.697,-0.254 0.221,-0.029 0.443,-0.04 0.666,-0.032 -1.082,-0.042 0.855,-0.245 1.043,-0.262 0.288,-0.026 0.975,0.157 1.088,-0.246 -0.527,-0.285 -1.098,-0.033 -1.654,-0.096 0.205,-0.387 0.62,-0.276 0.953,-0.445 -0.549,0.715 0.584,-0.338 0.924,-0.121 0.426,0.271 0.107,1.159 0.854,1.105 -0.261,-0.052 -0.455,-0.248 -0.507,-0.508 0.155,0.125 1.226,0.533 0.317,0 0.373,0.209 0.459,0.135 0.256,-0.222 0.23,0.066 0.463,0.077 0.697,0.032 -0.365,-0.023 -0.73,-0.082 -1.08,-0.19 0.164,-0.074 0.334,-0.138 0.507,-0.191 -0.239,-0.057 -0.481,-0.089 -0.728,-0.095 0.467,-0.035 0.467,-0.141 0,-0.318 0.487,0.146 0.924,0.449 1.429,0.54 -0.427,-0.114 -0.853,-0.407 -1.178,-0.699 0.522,-0.036 1.031,-0.174 1.541,0.03 0.219,0.022 0.438,0.036 0.658,0.04 0.235,0.064 0.172,0.265 0.47,0.279 -0.162,-0.012 -0.257,-0.086 -0.283,-0.224 0.088,-0.216 0.585,-0.141 0.729,-0.062 -0.872,-0.197 0.477,-0.199 0.666,-0.159 -0.686,-0.206 -1.127,-0.201 -1.826,-0.116 -0.441,0.055 -1.189,0.113 -1.57,-0.171 0.451,-0.083 0.271,-0.559 0.892,-0.653 0.593,-0.09 1.216,-0.025 1.808,0.049 -0.229,-0.105 -0.46,-0.201 -0.697,-0.286 0.309,-0.201 0.664,-0.057 0.984,0 -0.555,-0.08 -0.316,-0.241 -0.035,-0.381 -0.89,0.086 0.116,-0.931 0.859,-0.794 -0.846,-0.636 1.107,-1.699 0.953,-0.254 0.088,-0.59 0.733,-0.454 1.209,-0.254 -0.448,-0.209 -1,-0.219 -1.271,-0.699 0.397,-0.092 0.739,0.026 1.083,0.218 0.388,0.215 1.242,0.202 0.982,0.672 0.242,-0.028 0.45,-0.477 0.098,-0.477 -0.381,0 -0.738,0.08 -0.958,-0.318 0.188,-0.2 0.409,-0.253 0.667,-0.159 -0.229,-0.102 -0.461,-0.113 -0.697,-0.031 -0.074,-0.87 1.164,-0.776 1.716,-0.89 -0.054,0.472 0.033,0.858 -0.194,1.302 0.314,-0.207 0.444,-0.797 0.922,-0.571 -0.693,-0.041 -0.163,-1.047 -0.03,-0.572 0.14,-0.371 0.63,-0.231 0.666,-0.667 0.836,0.342 -0.309,1.873 -0.636,2.224 0.356,-0.242 0.807,-0.304 0.986,-0.749 0.184,-0.454 0.852,0.055 1.145,0.083 -1.062,-0.368 -0.604,-1.279 0.287,-1.462 -0.115,0.086 -0.223,0.182 -0.322,0.286 0.41,0.52 0.458,-0.255 0.891,0.064 -0.762,-1.084 2.019,0.293 2.193,0.318 -0.16,-0.184 -0.362,-0.289 -0.604,-0.318 0.39,0.004 0.423,-0.031 0.099,-0.104 -0.199,-0.137 -0.22,-0.6 0.281,-0.213 -0.133,-0.358 -0.983,-0.342 -0.221,-0.54 -0.525,0.157 -1.6,0.057 -2.003,-0.381 0.233,-0.083 0.456,-0.062 0.671,0.063 0.031,-0.117 0.062,-0.232 0.092,-0.35 0.242,0.123 0.477,0.261 0.701,0.414 0.105,-0.781 0.725,0.008 1.113,-0.318 -0.1,0.416 0.346,0.468 0.635,0.508 -0.248,-0.018 -0.408,-0.167 -0.445,-0.413 0.438,-0.074 0.903,0.091 1.332,0.158 -0.105,0.487 -0.811,0.417 -1.174,0.444 0.469,0.015 0.988,0.01 1.398,-0.253 0.052,0.835 0.857,0.496 1.363,0.477 -0.059,-0.182 -0.53,-0.124 -0.729,-0.317 0.303,-0.156 0.57,-0.339 -0.035,-0.414 0.145,0.01 1.231,-0.083 0.318,-0.159 0.365,0.074 0.582,-0.4 0.846,-0.558 0.398,-0.239 0.851,-0.126 1.285,-0.141 -0.646,-0.539 0.541,-0.473 0.795,-0.635 -0.317,-0.163 -0.69,-0.131 -0.984,-0.35 0.354,-0.292 0.719,0.181 1.046,-0.191 -0.92,-0.183 0.494,-0.345 0.827,-0.274 0.023,0.005 1.299,0.866 0.668,0.052 0.455,-0.043 0.883,0.397 1.333,0.159 -0.272,0.693 -1.293,0.739 -1.747,1.271 0.254,-0.063 0.404,0.059 0.414,0.317 -0.158,0.016 -0.67,0.491 -0.635,0.826 0.221,-0.125 0.646,0.119 0.733,-0.027 0.094,-0.158 0.224,-0.277 0.389,-0.359 0.198,-0.139 -0.095,-0.232 0.021,-0.375 0.531,-0.655 1.824,-1.654 2.634,-1.874 0.141,0.53 0.173,0.845 -0.476,0.89 0.611,-0.107 0.572,0.62 0.383,0.984 0.267,0.028 0.301,-0.112 0.446,-0.278 0.212,-0.239 0.591,-0.062 0.855,-0.071 -0.085,-0.116 -0.169,-0.232 -0.251,-0.35 0.225,-0.043 0.446,-0.032 0.666,0.031 -0.25,-0.054 -0.41,-0.253 -0.414,-0.508 0.379,0.025 0.662,-0.355 1.049,-0.191 -0.257,-0.315 -0.662,-0.271 -1.019,-0.349 0.242,-0.04 2.231,-1.122 2.384,-0.381 0.027,0.129 0.64,0.155 0.757,0.267 0.324,0.312 -1.309,0.506 -1.394,0.559 0.242,-0.028 0.466,0.025 0.671,0.158 -0.345,0.091 -0.669,0.25 -1.02,0.318 0.44,-0.015 1.057,-0.386 1.46,-0.064 -0.322,0.218 -0.694,0.343 -1.045,0.508 0.42,0.029 0.855,-0.138 1.271,-0.032 -0.229,0.132 -0.375,0.367 -0.286,0.635 -0.035,-0.446 0.394,-0.706 0.794,-0.667 -0.823,0.007 0.125,-0.965 0.395,-1.126 0.358,-0.215 1.694,-0.013 1.321,0.617 0.318,-0.095 1.033,-0.458 1.144,0.096 0.453,-0.457 1.573,0.189 0.824,0.349 0.687,-0.052 1.71,-0.147 2.269,0.415 0.361,0.364 -0.809,0.488 -0.973,0.521 -0.735,0.147 -1.154,0.588 -1.977,0.472 -0.662,-0.094 -1.947,-0.576 -2.526,-0.073 0.407,0.025 0.812,0.084 1.212,0.156 0.282,0.05 1.73,0.092 0.853,0.415 0.371,0.049 1.226,0.258 0.349,0.635 0.298,-0.037 0.596,-0.08 0.892,-0.127 0.036,0.257 0.187,0.267 0.44,0.254 -0.046,-0.177 -0.066,-0.357 -0.062,-0.541 0.341,0.018 0.739,0.062 0.86,0.445 0.168,-0.578 0.974,-0.317 1.133,0.13 0.319,0.896 -1.551,0.156 -1.773,0.06 0.258,0.581 -0.436,0.803 -0.855,0.921 -0.235,0.066 -0.842,0.071 -0.998,0.303 -0.199,0.297 0.026,0.511 -0.404,0.744 -0.245,0.131 -0.471,0.006 -0.683,-0.123 -0.432,-0.265 0.134,-0.534 0.308,-0.702 0.456,-0.442 0.663,-1.066 -0.188,-1.288 -0.653,-0.171 -1.317,-0.267 -1.95,-0.515 -0.722,-0.283 -1.192,-0.933 -2.007,-0.525 -1.087,0.544 -3.148,-0.051 -3.603,1.519 -0.104,0.361 -0.214,0.724 -0.252,1.1 -0.024,0.236 0.231,0.628 0.007,0.832 -0.249,0.223 -0.51,0.131 -0.795,0.245 -0.294,0.118 -0.428,0.423 -0.6,0.664 -0.4,0.562 -1.197,-0.087 -1.703,-0.221 -0.342,-0.089 -0.689,-0.159 -1.027,-0.261 -0.416,-0.125 -0.43,0.233 -0.748,0.356 -0.975,0.378 -2.02,0.179 -2.998,-0.072 -0.43,-0.109 -1.155,-0.935 -1.531,-1.241 -0.704,-0.574 -1.301,-0.728 -2.109,-0.244 0.104,0.098 0.209,0.193 0.317,0.286 -0.632,0.352 -1.688,0.006 -2.383,0.318 0.946,0.385 0.195,1.127 -0.349,1.461 0.229,0.052 0.451,0.126 0.666,0.222 -1.076,0.825 -2.325,-0.215 -3.492,-0.069 -0.553,0.069 -0.965,-0.372 -1.51,-0.115 -0.391,0.185 0.086,0.785 0.018,1.105 -0.238,1.116 -1.652,0.243 -2.346,0.474 -1.144,0.38 -1.564,1.542 -2.645,2.036 0.26,0.225 0.938,0.614 0.855,1.038 -0.068,0.356 -1.38,1.111 -1.684,1.448 -0.211,0.235 -0.357,0.344 -0.624,0.492 -0.317,0.174 0.152,0.538 -0.03,0.774 -0.4,0.518 -1.725,0.527 -2.298,0.505 0.095,0.345 0.396,2.568 -0.056,2.813 -0.355,0.192 -0.508,0.796 -0.84,1.089 -0.439,0.389 -0.859,0.82 -1.23,1.276 0.617,0.206 1.756,0.597 1.257,1.499 -0.347,0.626 -2.074,0.163 -2.691,0.262 -0.57,0.091 -2.223,0.991 -2.253,1.673 -0.016,0.357 -0.344,0.636 -0.318,0.957 0.02,0.252 0.57,0.939 0.363,1.083 -0.445,0.306 -0.186,1.175 0.043,1.639 0.453,0.924 -0.062,1.527 0.031,2.439 0.061,0.58 0.774,0.771 1.217,0.942 0.217,0.083 0.561,0.207 0.639,0.458 0.051,0.16 -0.322,1.107 -0.513,1.106 -0.585,-0.003 -1.163,0.157 -0.921,0.838 0.146,0.407 0.537,0.651 0.699,1.048 0.188,0.465 -0.223,0.698 -0.174,1.144 0.043,0.379 -0.392,0.715 -0.698,0.833 -0.509,0.196 -0.991,-0.052 -0.946,0.547 0.023,0.323 -0.335,0.515 -0.48,0.76 -0.18,0.299 0.291,0.749 0.263,1.083 -0.026,0.319 -0.183,1.443 -0.696,1.351 -0.236,-0.043 -0.305,-0.462 -0.432,-0.621 -0.15,-0.189 -0.501,-0.135 -0.72,-0.247 -0.569,-0.291 -0.985,-0.262 -1.191,-0.939 -0.091,-0.301 -0.141,-0.622 -0.136,-0.936 0.003,-0.195 0.213,-1.029 0.289,-0.275 0.326,-0.608 -0.504,-0.817 -0.565,-0.184 -0.035,0.362 0.405,0.688 -0.008,0.978 -0.085,-0.104 -0.169,-0.21 -0.251,-0.317 -0.052,0.271 -0.238,0.336 -0.476,0.222 0.461,0.425 0.548,0.7 0.379,1.302 0,-0.64 -0.023,-0.099 -0.247,0.083 -0.19,0.154 -0.423,0.236 -0.625,0.371 -0.327,0.219 -0.065,0.415 -0.553,0.18 -0.292,-0.141 -0.564,-0.322 -0.866,-0.442 0.837,0.362 -0.185,0.955 -0.666,0.921 0.076,0.105 0.15,0.211 0.225,0.318 -0.269,0.089 -0.546,0.132 -0.83,0.127 0.056,0.116 0.11,0.232 0.163,0.349 -0.637,0.095 -0.863,0.751 -1.372,1.057 -0.624,0.375 -1.296,0.547 -1.975,0.788 -0.284,0.101 -0.655,0.371 -0.964,0.369 -0.309,-0.001 -0.593,-0.158 -0.904,-0.166 -0.499,-0.012 -1.392,0.18 -1.742,-0.301 0.205,-0.191 0.438,-0.34 0.697,-0.445 -1.119,0.688 -4.672,-1.544 -3.146,-2.382 -0.101,-0.082 -0.207,-0.155 -0.317,-0.223 0.662,-0.044 1.151,0.575 1.813,0.54 -0.12,-0.09 -0.237,-0.186 -0.349,-0.286 0.415,-0.241 0.908,-0.293 1.363,-0.413 -0.528,0.042 -1.059,0.151 -1.491,0.477 0.059,-0.278 -0.1,-0.526 -0.354,-0.635 0.223,-0.068 0.446,-0.131 0.671,-0.191 -0.819,-0.163 0.713,-0.557 0.984,-0.604 -0.226,-0.01 -0.446,0.022 -0.66,0.097 -0.391,0.115 -0.591,-0.03 -0.038,-0.097 -0.227,0.012 -0.45,-0.009 -0.67,-0.063 0.468,-0.301 0.887,-0.632 1.429,-0.794 -0.317,0.076 -0.604,-0.226 -0.781,0.116 -0.136,0.262 -0.58,0.505 -0.838,0.616 0.015,-0.249 0.166,-0.4 0.415,-0.414 -0.351,-0.012 -0.733,-0.022 -1.019,0.222 0.249,-0.118 0.401,-0.018 0.415,0.254 -0.242,-0.028 -0.464,0.025 -0.667,0.159 0,-0.244 0,-0.487 0,-0.731 -0.151,0.05 -0.29,0.124 -0.415,0.223 0.833,0.071 -0.295,1.057 -0.062,0.159 -0.055,0.691 -0.496,0.034 -0.483,-0.238 0.019,-0.394 0.372,-0.761 0.734,-0.874 -0.042,0.307 -0.104,0.71 -0.507,0.699 0.339,0.212 0.465,-0.027 0.557,-0.319 0.125,-0.393 0.717,-0.063 1.031,-0.221 -0.888,-0.11 0.422,-0.29 0.604,-0.445 -0.374,0.218 -0.868,0.092 -1.208,-0.127 0.305,-0.397 0.923,-0.992 1.464,-0.985 -0.85,-0.252 0.743,-0.934 1.015,-1.111 0.143,0.349 -0.113,0.662 -0.189,0.984 0.537,-0.599 0.691,-1.131 1.588,-1.207 -0.684,-0.113 -1.451,0.022 -2.089,0.277 -0.19,0.076 -0.815,0.535 -0.93,0.731 -0.85,1.464 -0.407,-0.09 -1.079,0.008 0.066,-0.208 0.12,-0.42 0.159,-0.635 -0.093,0.214 -0.421,0.896 -0.775,0.734 -0.286,-0.13 -0.175,-0.662 -0.526,-0.734 0.238,-0.065 0.426,-0.245 0.508,-0.477 0.316,0.929 1.186,-0.179 0.984,-0.794 -0.433,0.108 -0.655,0.635 -1.127,0.635 -0.461,0 -0.476,-0.691 -0.872,-0.825 0.384,-0.004 0.835,0.168 1.077,0.476 -0.043,-0.286 -0.128,-0.748 0.317,-0.73 -0.413,-0.1 -1.14,0.521 -1.239,-0.222 0.289,0.214 0.343,0.213 0.477,-0.127 -0.343,0.088 -0.608,-0.429 0.095,-0.312 0.745,0.123 1.216,-0.17 1.938,-0.196 0.519,-0.019 1.198,0.329 1.677,0.013 0.511,-0.337 1.506,0.448 0.802,0.654 0.223,-0.129 0.455,-0.15 0.697,-0.064 -0.728,-0.525 1.01,-0.882 1.306,-0.889 -0.956,-0.119 -0.599,-0.5 -0.066,-0.985 -0.435,0.177 -0.982,0.616 -0.569,1.112 -0.346,-0.026 -0.675,0.154 -1.019,0.032 0.109,-0.104 0.226,-0.199 0.349,-0.286 -0.318,0.204 -1.884,0.28 -1.173,-0.317 -0.388,0.058 -0.324,0.388 -0.547,0.611 -0.325,0.327 -0.79,-0.011 -1.141,-0.067 -0.4,-0.063 -1.09,0.16 -1.475,0.274 -0.41,0.122 -0.724,-0.254 -1.094,-0.342 0.598,-0.004 0.252,-0.229 0,-0.381 0.406,-0.19 0.888,-0.252 1.332,-0.223 -0.435,-0.137 -0.92,0.017 -1.332,0.159 0.279,-0.372 0.206,-0.467 -0.226,-0.287 z"
         id="path6794" />
      <path
         style="fill:#aaaaaa"
         inkscape:connector-curvature="0"
         d="m 283.112,229.911 c -0.105,-0.063 -0.211,-0.127 -0.317,-0.191 0.246,-0.148 0.494,-0.035 0.635,0.191 -0.106,0 -0.211,0 -0.318,0 z"
         id="path6796" />
      <path
         style="fill:#aaaaaa"
         inkscape:connector-curvature="0"
         d="m 283.461,225.559 c 0.116,0.053 0.232,0.105 0.349,0.158 -0.35,0.057 -0.711,0.021 -1.045,-0.095 0.218,-0.165 0.45,-0.187 0.696,-0.063 z"
         id="path6798" />
      <path
         style="fill:#aaaaaa"
         inkscape:connector-curvature="0"
         d="m 284.511,230.546 c -0.235,-0.074 -0.447,-0.19 -0.636,-0.35 0.324,-0.18 0.698,-0.262 0.984,-0.508 0.057,0.339 0.083,0.768 -0.348,0.858 z"
         id="path6800" />
      <path
         style="fill:#aaaaaa"
         inkscape:connector-curvature="0"
         d="m 286.069,234.009 c 0.128,-0.596 0.497,-0.281 0.918,-0.381 -0.318,0.095 -0.655,0.159 -0.918,0.381 z"
         id="path6802" />
      <path
         style="fill:#aaaaaa"
         inkscape:connector-curvature="0"
         d="m 290.577,221.652 c 0.043,-0.095 0.085,-0.19 0.128,-0.285 0.109,0.251 -0.017,0.146 -0.128,0.285 z"
         id="path6806" />
      <path
         style="fill:#aaaaaa"
         inkscape:connector-curvature="0"
         d="m 344.798,198.909 c -0.63,-0.156 -0.309,0.768 0.384,0.19 -0.3,0.175 -0.429,0.111 -0.384,-0.19 z"
         id="path6812" />
    </g>
  </g>
</svg>
