<?xml version="1.0" encoding="UTF-8" standalone="no"?>
<!-- Created with Inkscape (http://www.inkscape.org/) -->

<svg
   xmlns:dc="http://purl.org/dc/elements/1.1/"
   xmlns:cc="http://creativecommons.org/ns#"
   xmlns:rdf="http://www.w3.org/1999/02/22-rdf-syntax-ns#"
   xmlns:svg="http://www.w3.org/2000/svg"
   xmlns="http://www.w3.org/2000/svg"
   xmlns:sodipodi="http://sodipodi.sourceforge.net/DTD/sodipodi-0.dtd"
   xmlns:inkscape="http://www.inkscape.org/namespaces/inkscape"
   width="13.34782mm"
   height="13.406324mm"
   viewBox="0 0 13.34782 13.406322"
   version="1.1"
   id="svg7070"
   inkscape:version="0.92.4 (5da689c313, 2019-01-14)"
   sodipodi:docname="pakistan.svg">
  <defs
     id="defs7064" />
  <sodipodi:namedview
     id="base"
     pagecolor="#ffffff"
     bordercolor="#666666"
     borderopacity="1.0"
     inkscape:pageopacity="0.0"
     inkscape:pageshadow="2"
     inkscape:zoom="7.9195959"
     inkscape:cx="32.215229"
     inkscape:cy="10.184712"
     inkscape:document-units="mm"
     inkscape:current-layer="layer1"
     showgrid="false"
     inkscape:window-width="958"
     inkscape:window-height="1008"
     inkscape:window-x="-7"
     inkscape:window-y="0"
     inkscape:window-maximized="0" />
  <metadata
     id="metadata7067">
    <rdf:RDF>
      <cc:Work
         rdf:about="">
        <dc:format>image/svg+xml</dc:format>
        <dc:type
           rdf:resource="http://purl.org/dc/dcmitype/StillImage" />
        <dc:title></dc:title>
      </cc:Work>
    </rdf:RDF>
  </metadata>
  <g
     inkscape:label="Layer 1"
     inkscape:groupmode="layer"
     id="layer1"
     transform="translate(-153.99183,-24.757137)">
    <path
       style="fill:#aaaaaa;stroke-width:0.26458332"
       inkscape:connector-curvature="0"
       id="pk"
       d="m 153.99183,32.001548 c 0.37095,0.08334 0.71067,0.265641 1.07394,0.374385 0.4326,0.129646 0.78,-0.0042 1.21127,-0.0127 0.15319,-0.0032 0.28231,0.059 0.431,0.0807 0.15267,0.02222 0.25877,-0.08573 0.39238,-0.134673 0.17648,-0.06403 0.34184,0.0085 0.51779,-7.94e-4 0.14869,-0.0074 0.28892,-0.08334 0.43312,-0.116681 0.16748,-0.03863 0.49292,-0.06641 0.59928,-0.223573 0.0635,-0.09366 -0.0876,-0.144727 -0.0701,-0.235744 0.0431,-0.220398 -0.059,-0.398462 -0.0381,-0.613304 0.0214,-0.217752 0.064,-0.168804 0.19262,-0.297656 0.0791,-0.07911 0.0987,-0.211138 0.20372,-0.265906 0.10928,-0.05741 0.14658,0.05874 0.25242,0.07117 0.18071,0.0209 0.34025,-0.03651 0.49847,-0.120915 -0.0651,-0.068 -0.18282,-0.07223 -0.21008,-0.176477 0.15531,-0.0029 0.31565,-0.100277 0.39873,-0.227277 0.0982,-0.150019 0.34184,0.105039 0.34925,-0.08361 0.11589,0.0545 0.16404,0.02884 0.23495,0.149489 0.0598,0.101865 0.15319,0.06694 0.23521,0.0056 0.21987,-0.1651 0.16484,-0.4699 0.077,-0.688181 -0.0561,-0.1397 0.0534,-0.16166 0.0833,-0.282046 0.0233,-0.09393 0.0262,-0.237066 -0.007,-0.329141 -0.04,-0.109273 0.0754,-0.128323 0.15293,-0.145786 0.12806,-0.02858 0.19553,0.01455 0.31274,-0.07938 0.14261,-0.1143 0.13864,-0.119856 0.0804,-0.260879 -0.0489,-0.118004 -0.11774,-0.24765 -0.22886,-0.317765 -0.21749,-0.137583 -0.25109,-0.334962 0.0532,-0.251883 0.20717,0.05662 0.70908,0.123561 0.7657,-0.17145 0.0167,-0.08705 0.0164,-0.1524 -0.0516,-0.211402 -0.0291,-0.02513 -0.15981,-0.109537 -0.13467,-0.16166 0.0222,-0.02302 0.0505,-0.03254 0.0844,-0.02858 -0.0394,-0.08334 0.0291,-0.147902 0.0751,-0.206111 0.0426,-0.05398 0.19315,-0.17727 0.19315,-0.243416 7.9e-4,-0.06271 0.0209,-0.118534 0.0606,-0.167482 0.0304,-0.04286 -0.0754,-0.08652 -0.0897,-0.1143 -0.0124,-0.03043 -0.004,-0.05318 0.0241,-0.06773 0.0471,-0.04974 -0.0333,-0.149754 -0.0468,-0.196321 -0.018,-0.06165 -0.12488,-0.208756 -0.16722,-0.261937 -0.0608,-0.07673 -0.16033,-0.128059 -0.23442,-0.192088 -0.10028,-0.08625 0.20135,-0.455877 0.29872,-0.42545 0.13388,0.0418 0.14393,-0.104775 0.2233,-0.184679 0.0839,-0.08467 0.19315,-0.139171 0.30613,-0.174889 0.24236,-0.07647 0.50165,-0.07726 0.75353,-0.08705 0.12727,-0.005 0.30507,-0.07144 0.42281,-0.01244 0.11588,0.05794 0.12461,0.08996 0.23124,0.01085 0.14605,-0.108479 0.50985,-0.289454 0.61304,-0.03863 0.10398,-0.186267 0.37333,-0.03334 0.45588,0.0934 0.0759,0.116681 0.28628,0.05292 0.40878,0.167217 0.0868,0.08123 0.1434,0.173037 0.1733,0.287866 0.022,0.08308 0.014,0.225954 0.0463,0.297392 0.0352,0.07805 0.21405,0.183885 0.28073,0.24421 0.086,0.07726 0.20214,-0.05212 0.28204,-0.07276 0.0161,0.362744 0.8853,0.516467 1.1438,0.403225 -0.0818,0.0717 -0.58288,0.318823 -0.53843,0.453496 0.0172,0.05292 -0.0349,0.168539 -0.10292,0.123031 -0.0812,-0.05397 -0.0966,0.08573 -0.11854,0.145785 -0.023,0.06324 -0.52467,0.142611 -0.62256,0.191559 -0.27464,0.137848 -0.46937,0.02461 -0.76968,-0.03784 -0.24288,-0.05027 -0.56964,-0.208491 -0.80512,-0.0635 -0.16008,0.09869 -0.25109,0.329406 -0.0484,0.414338 0.18547,0.07805 -0.0717,0.204787 0.0817,0.253735 0.0505,0.01614 0.39106,0.01799 0.25797,0.149225 -0.12091,0.119327 -0.27172,0.166952 -0.0566,0.318823 0.17992,0.127 -0.0299,0.298185 0.0892,0.425715 0.068,0.07303 0.14367,0.109537 0.22198,0.168539 0.0355,0.02328 0.0561,0.05583 0.0622,0.09763 0.009,0.118005 0.0328,0.09155 0.15849,0.118798 0.21484,0.04683 0.13599,0.278607 0.37068,0.324379 0.12726,0.02514 0.33999,0.03545 0.43074,0.142346 0.11192,0.131763 -0.24315,0.260086 -0.31459,0.293423 -0.18256,0.0844 -0.37227,0.232569 -0.20664,0.436563 0.10927,0.134408 -0.0661,0.493183 0.18785,0.49821 -0.0397,0.0934 -0.2704,0.152929 -0.29448,0.269081 -0.0339,0.160602 -0.3511,0.376502 -0.21034,0.512763 0.20293,0.196321 -0.24157,0.285221 -0.33629,0.348192 -0.0937,0.06218 -0.0717,0.216693 -0.0873,0.313002 -0.0267,0.162718 -0.0709,0.330464 -0.14446,0.478895 -0.10927,0.220928 -0.33814,0.26723 -0.49345,0.436563 -0.0624,0.06826 -0.0839,0.156104 -0.0921,0.246062 -0.0143,0.159015 -0.15082,0.25109 -0.20717,0.391319 -0.12012,0.297656 -0.29475,0.222779 -0.57838,0.29845 -0.0966,0.02593 -0.20558,0.125148 -0.30957,0.115094 -0.12514,-0.01217 -0.18203,-0.162983 -0.24368,-0.250031 -0.14578,-0.203994 -0.36248,0.105568 -0.4191,0.233362 -0.10027,0.225954 -0.26432,0.420159 -0.3556,0.642673 -0.11218,0.273579 0.0423,0.426773 0.30375,0.49239 0.24394,0.06112 0.36406,0.07382 0.34078,0.372533 -0.013,0.170656 -0.0453,0.55245 0.24791,0.555625 0.0844,0.0011 0.18204,-0.06059 0.25665,0.0074 0.0741,0.06747 0.0145,0.251355 0.0802,0.345811 0.1352,0.193939 0.28469,0.339196 0.34819,0.578908 0.0243,0.09181 0.077,0.06429 -0.0124,0.128058 -0.0714,0.05107 0.0458,0.220928 0.10584,0.233363 -0.15875,0.119592 -0.32465,0.269875 -0.45879,0.04551 -0.0624,-0.10451 -0.15769,-0.02646 -0.23654,0.0053 -0.0397,0.01111 -0.0786,0.02434 -0.11694,0.03916 -0.0635,0.03281 -0.0233,0.111919 -0.0918,0.141023 -0.22622,0.09578 -0.48022,-0.122502 -0.71755,-0.109537 -0.12674,0.0069 -0.29528,0.02937 -0.41328,-0.0291 0.007,0.09313 0.0902,0.352954 -0.0786,0.352954 -0.14288,0 -0.36037,0.0037 -0.34978,0.201877 -0.01,-0.114829 -0.0236,-0.112184 -0.0418,0.0082 -0.0561,-0.04868 -0.0934,-0.115888 -0.13414,-0.176477 0.0299,0.05292 0.0384,0.109008 0.0243,0.168275 -0.0617,-0.03836 -0.11509,-0.08572 -0.15981,-0.142875 0.0386,0.153723 -0.0833,0.06694 -0.17621,0.117475 0,-0.04472 0,-0.08969 0,-0.134409 -0.10239,0.07329 -0.2331,-0.06535 -0.11642,-0.134408 -0.13732,0.02566 -0.33046,-0.174096 -0.18573,-0.28575 -0.15981,-0.09208 -0.0738,-0.356658 -0.20612,-0.423069 -0.0741,-0.03678 -0.44926,-0.05292 -0.43841,-0.172508 0.0212,-0.242358 -0.0339,-0.31406 -0.15372,-0.505619 -0.0894,-0.142081 -0.35693,-0.288396 -0.4027,-0.0336 0.14446,-0.0071 0.24077,-0.135731 0.31882,0.059 -0.15425,-0.09948 -0.32729,-0.0381 -0.48604,0.01191 -0.16562,0.05212 -0.32411,-0.0056 -0.48101,0.0418 -0.0855,0.02566 -0.68077,0.01746 -0.52837,0.181768 -0.0696,0.02064 -0.11483,-0.01217 -0.11774,-0.08387 -0.23019,0.118797 -0.41328,-0.225425 -0.5379,-0.168275 0.0191,0.02804 0.0386,0.05636 0.0585,0.08414 -0.11615,0.02381 -0.59134,-0.128852 -0.47042,0.151077 -0.12092,-0.06138 -1.03003,-0.128587 -0.95012,0.100806 -0.0611,-0.0026 -0.10848,-0.09155 -0.15822,-0.119591 -0.086,-0.04895 -0.0863,0.06641 -0.13865,0.0971 -0.2114,0.123031 -0.36565,-0.01667 -0.35824,-0.203465 0.009,-0.251619 -0.05,-1.160991 0.43683,-1.051454 -0.14288,-0.375444 0.72125,-0.171979 0.76332,-0.37809 0.0182,-0.08996 0.0513,-0.432329 0.0132,-0.462491 -0.0921,-0.07303 -0.21379,-0.02011 -0.31803,-0.02699 -0.14896,-0.0093 -0.12674,-0.255323 -0.13044,-0.356129 -0.007,-0.194204 -0.0683,-0.443706 -0.12912,-0.629444 -0.0283,-0.08573 -0.17965,-0.09128 -0.25532,-0.138112 -0.12594,-0.07752 -0.25506,-0.124619 -0.38841,-0.186267 -0.29527,-0.136789 -0.41672,-0.336814 -0.56674,-0.609864 -0.16086,-0.290513 -0.41566,-0.520965 -0.64558,-0.752475 z" />
  </g>
</svg>
