<?xml version="1.0" encoding="UTF-8" standalone="no"?>
<!-- Created with Inkscape (http://www.inkscape.org/) -->

<svg
   xmlns:dc="http://purl.org/dc/elements/1.1/"
   xmlns:cc="http://creativecommons.org/ns#"
   xmlns:rdf="http://www.w3.org/1999/02/22-rdf-syntax-ns#"
   xmlns:svg="http://www.w3.org/2000/svg"
   xmlns="http://www.w3.org/2000/svg"
   xmlns:sodipodi="http://sodipodi.sourceforge.net/DTD/sodipodi-0.dtd"
   xmlns:inkscape="http://www.inkscape.org/namespaces/inkscape"
   width="13.603354mm"
   height="10.368944mm"
   viewBox="0 0 13.603351 10.368945"
   version="1.1"
   id="svg7070"
   inkscape:version="0.92.4 (5da689c313, 2019-01-14)"
   sodipodi:docname="papua_new_guinea.svg">
  <defs
     id="defs7064" />
  <sodipodi:namedview
     id="base"
     pagecolor="#ffffff"
     bordercolor="#666666"
     borderopacity="1.0"
     inkscape:pageopacity="0.0"
     inkscape:pageshadow="2"
     inkscape:zoom="5.6"
     inkscape:cx="19.559302"
     inkscape:cy="45.595408"
     inkscape:document-units="mm"
     inkscape:current-layer="layer1"
     showgrid="false"
     inkscape:window-width="958"
     inkscape:window-height="1008"
     inkscape:window-x="-7"
     inkscape:window-y="0"
     inkscape:window-maximized="0" />
  <metadata
     id="metadata7067">
    <rdf:RDF>
      <cc:Work
         rdf:about="">
        <dc:format>image/svg+xml</dc:format>
        <dc:type
           rdf:resource="http://purl.org/dc/dcmitype/StillImage" />
        <dc:title />
      </cc:Work>
    </rdf:RDF>
  </metadata>
  <g
     inkscape:label="Layer 1"
     inkscape:groupmode="layer"
     id="layer1"
     transform="translate(-176.61945,-27.307214)">
    <g
       transform="matrix(0.26458333,0,0,0.26458333,-18.19299,-95.331734)"
       id="pg"
       style="fill:#ffffff">
      <path
         style="fill:#ffffff"
         inkscape:connector-curvature="0"
         id="path3962"
         d="m 745.26,491.589 c 0.154,-0.643 -0.869,-0.912 -1.301,-1.049 0.468,0.286 0.937,0.635 1.301,1.049 z" />
      <path
         style="fill:#ffffff"
         inkscape:connector-curvature="0"
         id="path3964"
         d="m 745.129,490.669 c 0.424,-0.436 -0.41,-0.508 -0.666,-0.256 0.208,0.124 0.43,0.208 0.666,0.256 z" />
      <path
         style="fill:#ffffff"
         inkscape:connector-curvature="0"
         id="path3966"
         d="m 745.54,490.478 c 0.048,-0.256 -0.12,-0.342 -0.349,-0.316 0.11,0.111 0.227,0.218 0.349,0.316 z" />
      <path
         style="fill:#ffffff"
         inkscape:connector-curvature="0"
         id="path3968"
         d="m 745.767,489.177 c 0.053,-0.223 -0.054,-0.256 -0.317,-0.098 0.106,0.034 0.211,0.067 0.317,0.098 z" />
      <path
         style="fill:#ffffff"
         inkscape:connector-curvature="0"
         id="path3970"
         d="m 746.751,488.126 c -0.026,-0.182 -0.133,-0.287 -0.318,-0.318 0.106,0.106 0.212,0.213 0.318,0.318 z" />
      <path
         style="fill:#ffffff"
         inkscape:connector-curvature="0"
         id="path3954"
         d="m 736.299,493.113 c 0.144,-1.852 0.261,-3.703 0.429,-5.553 0.074,-0.816 0.278,-1.691 0.207,-2.512 -0.047,-0.553 -0.535,-0.828 -0.413,-1.432 0.103,-0.508 0.388,-0.805 0.579,-1.232 0.175,-0.387 0.1,-0.92 0.106,-1.332 0.035,-1.984 0.252,-3.986 0.348,-5.971 0.095,-1.955 0.181,-3.91 0.261,-5.865 0.022,-0.58 -0.18,-1.273 0.567,-0.971 0.486,0.197 0.981,0.459 1.447,0.697 1.3,0.664 2.49,1.605 3.921,1.982 0.706,0.186 1.438,0.084 2.119,0.377 0.786,0.34 1.293,0.99 1.998,1.43 0.559,0.348 0.663,-0.047 1.104,0.037 0.557,0.105 0.573,0.719 1.099,0.84 0.61,0.141 0.729,0.805 1.107,1.18 0.392,0.387 0.966,0.262 1.398,0.68 0.47,0.455 0.847,1.064 0.959,1.717 0.098,0.568 -0.358,1.029 -0.29,1.508 0.098,0.697 1.79,0.836 2.302,1.023 0.516,0.189 1.11,0.58 1.59,0.85 0.232,0.131 0.328,0.375 0.604,0.445 0.324,0.082 0.631,-0.096 0.953,0 0.783,0.232 1.972,1.967 1.308,2.74 -0.524,0.611 -1.855,0.098 -2.534,0.133 -1.071,0.057 -0.038,2.258 0.285,2.738 0.379,0.564 0.992,0.965 1.397,1.529 0.258,0.359 0.963,1.012 1.48,0.801 -0.044,0.523 0.051,1.396 0.209,1.898 0.083,0.268 0.256,0.369 0.475,0.5 0.312,0.186 0.195,0.631 0.252,0.932 0.169,0.904 0.903,0.758 1.568,0.498 0.473,-0.186 1.288,-0.24 0.957,0.494 -0.538,1.188 -0.062,1.553 1.148,1.613 0.229,0.012 1.122,-0.07 1.157,0.285 0.038,0.391 -0.869,0.438 -1.094,0.576 0.201,0.238 0.289,0.564 0.538,0.764 0.313,0.252 0.827,0.289 1.186,0.516 0.546,0.342 1.367,0.525 1.991,0.311 -0.319,0.139 -0.748,0.459 -1.115,0.393 -0.29,-0.051 -0.606,-0.234 -0.662,0.211 0.696,0.182 1.482,0.529 0.439,0.852 -0.694,0.215 -1.646,0.473 -2.028,-0.441 0.232,0.064 0.434,0.012 0.604,-0.158 -0.205,-0.115 -0.385,-0.084 -0.538,0.098 -0.046,-0.656 -1.031,-0.604 -1.487,-0.641 -0.789,-0.062 -1.58,-0.48 -2.391,-0.344 0.029,-0.117 0.062,-0.232 0.097,-0.348 -0.332,0.15 -0.698,0.25 -1.066,0.191 -0.262,-0.043 -0.772,-0.498 -1.015,-0.34 -0.601,0.391 -1.002,-0.406 -1.382,-0.047 -0.103,-0.406 -0.635,-0.566 -0.635,-1.014 0,-0.346 -0.259,-0.783 -0.458,-1.051 -0.227,-0.301 -0.664,-0.072 -0.895,-0.406 -0.188,-0.273 -0.634,-0.947 -0.333,-1.275 -1.082,-0.139 -0.913,-0.635 -1.199,-1.367 -0.271,-0.691 -0.872,-2.299 -1.597,-2.598 -0.237,-0.098 -0.428,-0.293 -0.622,-0.453 -0.265,-0.215 -0.678,-0.002 -0.985,-0.041 -0.46,-0.059 -0.93,-0.371 -1.407,-0.465 -0.849,-0.164 -0.491,-0.32 -0.635,-0.922 0.004,0.527 -0.534,0.254 -0.671,-0.029 -0.064,0.66 -0.422,0.082 -0.379,-0.191 -0.16,0.289 -0.264,0.57 -0.414,0 0.003,0.309 0.024,0.613 0.065,0.918 -0.155,-0.211 -0.356,-0.357 -0.604,-0.441 -0.108,1.432 -1.804,-0.674 -1.998,-0.762 0.232,0.717 0.727,1.332 0.824,2.096 -0.129,-0.037 -0.257,-0.08 -0.383,-0.129 0.171,0.824 -1.159,-0.172 -1.558,-0.221 0.172,0.277 1.143,1.01 0.552,1.258 -0.394,0.164 -0.831,0.146 -1.242,0.219 -0.344,0.061 -0.666,0.217 -1.015,0.086 -0.274,-0.102 -0.495,-0.205 -0.793,-0.133 -0.466,0.113 -0.757,0.35 -0.961,-0.256 0.021,0.447 0.205,0.604 0.628,0.506 0.587,-0.135 1.008,0.023 1.516,0.346 0.975,0.617 1.735,1.781 0.405,2.35 -0.595,0.252 -1.233,0.936 -1.888,0.988 -0.62,0.049 -1.146,-0.521 -1.838,-0.459 -0.771,0.07 -1.586,0.264 -2.33,-0.074 -0.5,-0.23 -0.924,0.587 -1.324,-0.132 z" />
      <path
         style="fill:#ffffff"
         inkscape:connector-curvature="0"
         id="path3972"
         d="m 754.12,476.435 c 0.389,-0.158 0.456,-0.578 0.19,-0.887 -0.341,0.178 -0.594,0.61 -0.19,0.887 z" />
      <path
         style="fill:#ffffff"
         inkscape:connector-curvature="0"
         id="path3974"
         d="m 757.931,479.076 c 0.615,-0.035 0.328,-0.971 -0.152,-0.963 -0.356,0.008 0.028,0.851 0.152,0.963 z" />
      <path
         style="fill:#ffffff"
         inkscape:connector-curvature="0"
         id="path3976"
         d="m 760.726,480.599 c 0.48,-0.369 0.338,-1.338 -0.349,-1.336 -0.839,0.004 0.103,1.125 0.349,1.336 z" />
      <path
         style="fill:#ffffff"
         inkscape:connector-curvature="0"
         id="path3978"
         d="m 760.629,467.224 c 0.272,0.072 0.327,-0.033 0.163,-0.318 -0.054,0.105 -0.108,0.211 -0.163,0.318 z" />
      <path
         style="fill:#ffffff"
         inkscape:connector-curvature="0"
         id="path3982"
         d="m 763.682,480.98 c 0.209,0.275 0.565,0.393 0.697,0.732 0.409,-0.295 1.022,-0.424 1.41,0.004 0.278,0.309 0.259,0.631 0.782,0.58 0.683,-0.066 1.369,0.082 2.048,-0.053 0.892,-0.176 1.366,-1.027 2.13,-1.014 0.785,0.016 1.842,-1.086 1.729,-1.869 0.443,0.053 2.565,0.35 2.254,-0.746 -0.053,-0.188 -0.791,-1.482 -0.158,-1.352 1.04,0.215 1.307,-0.904 1.307,-1.697 0,-0.293 0.083,-0.627 -0.227,-0.77 -0.297,-0.135 -0.636,-0.275 -0.286,-0.615 -0.289,0.111 -0.938,0.818 -1.23,0.395 -0.311,-0.447 -1.129,-0.43 -1.05,0.25 0.074,0.646 0.43,1.195 0.326,1.883 -0.103,0.688 -1.071,0.324 -1.551,0.711 -0.519,0.418 -0.604,1.074 -1.004,1.572 -0.168,0.209 -0.487,0.193 -0.719,0.258 -0.527,0.143 -0.439,-0.072 -0.938,-0.16 -0.381,-0.066 -0.828,0.643 -1.125,0.234 -0.396,-0.541 -0.375,-1.408 0.271,-1.74 -0.549,-0.592 -1.027,1.053 -0.873,1.311 0.282,0.473 -1.966,0.701 -2.206,0.688 -0.312,-0.02 -0.474,-0.172 -0.752,-0.285 -0.374,-0.152 -0.53,0.066 -0.873,0.041 -0.305,-0.021 -1.072,0.137 -1.231,-0.109 -0.258,-0.395 -0.698,0.562 -0.292,0.98 0.287,0.295 0.585,0.209 0.926,0.355 0.252,0.111 0.341,0.373 0.635,0.416 z" />
      <path
         style="fill:#ffffff"
         inkscape:connector-curvature="0"
         id="path3984"
         d="m 766.253,476.277 c 0.067,-0.289 -0.037,-0.318 -0.317,-0.092 0.105,0.029 0.21,0.061 0.317,0.092 z" />
      <path
         style="fill:#ffffff"
         inkscape:connector-curvature="0"
         id="path3986"
         d="m 767.367,464.367 c 0.347,-0.32 -0.289,-1.074 -0.616,-0.785 -0.202,0.179 0.484,0.718 0.616,0.785 z" />
      <path
         style="fill:#ffffff"
         inkscape:connector-curvature="0"
         id="path3988"
         d="m 767.494,494.609 c 0.121,-0.234 0.149,-1.486 -0.424,-1.162 -0.687,0.386 0.092,0.951 0.424,1.162 z" />
      <path
         style="fill:#ffffff"
         inkscape:connector-curvature="0"
         id="path3990"
         d="m 769.145,495.333 c 0.676,-0.705 -0.277,-1.051 -0.808,-1.25 -0.948,-0.357 0.015,0.641 -0.525,0.965 0.377,-0.138 1.044,0.008 1.333,0.285 z" />
      <path
         style="fill:#ffffff"
         inkscape:connector-curvature="0"
         id="path3992"
         d="m 768.191,467.828 c 0.273,0.252 0.455,0.576 0.855,0.635 0.416,0.061 0.91,-0.199 0.6,-0.678 -0.269,-0.416 -1.383,-0.659 -1.455,0.043 z" />
      <path
         style="fill:#ffffff"
         inkscape:connector-curvature="0"
         id="path3994"
         d="m 768.857,498.925 c 0.516,-0.845 -0.93,-0.043 0,0 z" />
      <path
         style="fill:#ffffff"
         inkscape:connector-curvature="0"
         id="path3996"
         d="m 769.209,496.417 c 0.095,0 0.188,0 0.283,0 -0.409,0.27 0.288,0.508 0.475,0.574 0.462,0.164 0.65,-0.57 0.351,-0.826 -0.165,0.092 -0.269,0.229 -0.314,0.41 -0.536,-0.191 -0.739,-0.82 -1.208,-1.111 0.185,0.293 0.368,0.602 0.413,0.953 z" />
      <path
         style="fill:#ffffff"
         inkscape:connector-curvature="0"
         id="path3998"
         d="m 769.017,499.019 c 0.087,-0.148 0.214,-0.242 0.384,-0.281 -0.251,-0.09 -0.394,0.017 -0.384,0.281 z" />
      <path
         style="fill:#ffffff"
         inkscape:connector-curvature="0"
         id="path4000"
         d="m 770.445,491.97 c -0.205,-0.412 -0.085,-1.186 0.098,-1.59 -0.359,0.061 -0.636,0.57 -0.098,0.605 -0.13,0.337 -0.43,0.72 0,0.985 z" />
      <path
         style="fill:#ffffff"
         inkscape:connector-curvature="0"
         id="path4002"
         d="m 770.731,469.642 c 0.216,-0.039 0.429,-0.094 0.636,-0.164 -0.237,-0.139 -0.485,-0.053 -0.636,0.164 z" />
      <path
         style="fill:#ffffff"
         inkscape:connector-curvature="0"
         id="path4004"
         d="m 776.956,472.978 c -0.464,-0.066 -0.648,-0.844 -0.925,-1.143 -0.432,-0.467 -1.224,-1.193 -1.816,-1.432 -0.624,-0.252 -0.966,-0.92 -1.593,-1.174 -0.229,-0.092 -0.392,0.158 -0.487,-0.178 -0.096,-0.334 -0.776,-0.557 -1.023,-0.809 0.119,0.25 0.021,0.4 -0.252,0.41 0.311,0.273 0.758,0.242 1.066,0.521 0.379,0.342 0.758,0.688 1.157,1.006 0.438,0.35 0.847,0.801 1.347,1.062 0.373,0.195 0.811,0.248 1.145,0.521 0.65,0.529 0.873,1.432 1.234,2.15 0.249,0.498 0.016,1.018 0.056,1.537 0.04,0.504 0.396,0.865 0.604,1.301 0.394,-0.32 1.103,-1.828 0.9,-2.312 -0.165,-0.395 -0.527,-0.646 -0.7,-1.016 -0.217,-0.456 -0.27,-0.286 -0.713,-0.444 z" />
      <path
         style="fill:#ffffff"
         inkscape:connector-curvature="0"
         id="path4006"
         d="m 775.083,499.148 c 0.107,-0.084 0.215,-0.168 0.321,-0.252 -0.319,0.002 -0.637,-0.02 -0.953,-0.066 0.21,0.107 0.421,0.212 0.632,0.318 z" />
      <path
         style="fill:#ffffff"
         inkscape:connector-curvature="0"
         id="path4012"
         d="m 775.973,493.496 c 1.032,-0.041 -0.097,-1.555 -0.763,-0.795 0.351,0.181 0.394,0.634 0.763,0.795 z" />
      <path
         style="fill:#ffffff"
         inkscape:connector-curvature="0"
         id="path4014"
         d="m 776.387,501.341 c -0.049,-0.229 -0.025,-0.338 -0.318,-0.287 0.106,0.096 0.211,0.192 0.318,0.287 z" />
      <path
         style="fill:#ffffff"
         inkscape:connector-curvature="0"
         id="path4016"
         d="m 777.401,502.707 c 0.227,-0.059 0.428,-0.164 0.604,-0.316 -0.297,-0.277 -1.191,-0.889 -1.619,-0.637 0.217,0.178 0.207,0.486 0.41,0.668 0.264,0.232 0.436,-0.219 0.605,0.285 z" />
      <path
         style="fill:#ffffff"
         inkscape:connector-curvature="0"
         id="path4018"
         d="m 776.987,470.591 c 0.151,-0.256 0.033,-0.51 -0.189,-0.666 -0.094,0.266 -0.03,0.489 0.189,0.666 z" />
      <path
         style="fill:#ffffff"
         inkscape:connector-curvature="0"
         id="path4020"
         d="m 779.338,501.914 c 0.189,-0.137 0.401,-0.201 0.635,-0.189 -0.287,-0.42 -0.623,-0.021 -0.983,0 0.115,0.062 0.231,0.126 0.348,0.189 z" />
      <path
         style="fill:#ffffff"
         inkscape:connector-curvature="0"
         id="path4024"
         d="m 783.188,479.076 c 0.457,-0.396 0.485,-1.234 0,-1.619 -0.273,0.486 -0.171,1.117 0,1.619 z" />
      <path
         style="fill:#ffffff"
         inkscape:connector-curvature="0"
         id="path4026"
         d="m 784.23,481.994 c 0.241,0.225 0.592,0.318 0.642,0.678 0.063,0.447 -0.011,0.904 0.334,1.256 0.504,0.516 2.286,0.664 2.096,-0.324 -0.079,-0.414 -0.194,-0.705 -0.46,-1.055 -0.157,-0.209 -0.331,-0.596 -0.587,-0.701 -0.234,-0.096 -0.459,-0.1 -0.576,-0.357 -0.487,-1.074 -1.124,-2.086 -2.305,-2.479 0.316,0.352 0.106,0.893 0.078,1.297 -0.048,0.67 0.473,1.148 0.778,1.688 z" />
      <path
         style="fill:#ffffff"
         inkscape:connector-curvature="0"
         id="path4028"
         d="m 786.552,485.458 c 0.105,-0.033 0.211,-0.064 0.317,-0.098 -0.067,-0.418 -0.543,-0.469 -0.635,-0.029 0.106,0.042 0.211,0.085 0.318,0.127 z" />
      <path
         style="fill:#ffffff"
         inkscape:connector-curvature="0"
         id="path4030"
         d="m 787.663,484.919 c 0.067,-0.211 0.067,-0.424 0,-0.635 0,0.212 0,0.424 0,0.635 z" />
      <path
         style="fill:#ffffff"
         inkscape:connector-curvature="0"
         id="path4032"
         d="m 756.657,466.785 c -0.428,-0.496 0.301,-0.939 0.712,-1.049 0.662,-0.174 1.413,0.189 2.055,0.316 -0.562,0.125 -0.604,0.568 -1.302,0.568 -0.281,0 -0.546,-0.256 -0.824,-0.221 -0.242,0.032 -0.427,0.288 -0.641,0.386 z" />
    </g>
  </g>
</svg>
