<?xml version="1.0" encoding="UTF-8" standalone="no"?>
<!-- Created with Inkscape (http://www.inkscape.org/) -->

<svg
   xmlns:dc="http://purl.org/dc/elements/1.1/"
   xmlns:cc="http://creativecommons.org/ns#"
   xmlns:rdf="http://www.w3.org/1999/02/22-rdf-syntax-ns#"
   xmlns:svg="http://www.w3.org/2000/svg"
   xmlns="http://www.w3.org/2000/svg"
   xmlns:sodipodi="http://sodipodi.sourceforge.net/DTD/sodipodi-0.dtd"
   xmlns:inkscape="http://www.inkscape.org/namespaces/inkscape"
   width="7.5219102mm"
   height="8.3972101mm"
   viewBox="0 0 7.5219098 8.3972105"
   version="1.1"
   id="svg7070"
   inkscape:version="0.92.4 (5da689c313, 2019-01-14)"
   sodipodi:docname="paraguay.svg">
  <defs
     id="defs7064" />
  <sodipodi:namedview
     id="base"
     pagecolor="#ffffff"
     bordercolor="#666666"
     borderopacity="1.0"
     inkscape:pageopacity="0.0"
     inkscape:pageshadow="2"
     inkscape:zoom="1.4"
     inkscape:cx="-102.24227"
     inkscape:cy="-11.383344"
     inkscape:document-units="mm"
     inkscape:current-layer="layer1"
     showgrid="false"
     inkscape:window-width="958"
     inkscape:window-height="1008"
     inkscape:window-x="-7"
     inkscape:window-y="0"
     inkscape:window-maximized="0" />
  <metadata
     id="metadata7067">
    <rdf:RDF>
      <cc:Work
         rdf:about="">
        <dc:format>image/svg+xml</dc:format>
        <dc:type
           rdf:resource="http://purl.org/dc/dcmitype/StillImage" />
        <dc:title />
      </cc:Work>
    </rdf:RDF>
  </metadata>
  <g
     inkscape:label="Layer 1"
     inkscape:groupmode="layer"
     id="layer1"
     transform="translate(-209.28163,-93.7603)">
    <path
       inkscape:connector-curvature="0"
       style="fill:#ffffff;stroke-width:0.26458332"
       d="m 209.28163,96.753352 c 0.0818,-0.333904 0.12779,-0.682096 0.16748,-1.023144 0.022,-0.189177 -0.005,-0.364331 -0.0177,-0.551921 -0.0122,-0.181504 0.0825,-0.340518 0.16034,-0.497681 0.11086,-0.223837 0.10054,-0.544777 0.38576,-0.58711 0.35296,-0.05212 0.71279,-0.125677 1.05384,-0.230982 0.55483,-0.17145 0.95409,-0.130704 1.45574,0.148696 0.19949,0.111125 0.47148,0.25744 0.48709,0.516202 0.01,0.155046 0.12912,0.630502 0.29158,0.680509 -0.10425,0.12356 0.0638,0.16801 0.0921,0.25982 0.0214,0.06985 -2.6e-4,0.290513 -0.0116,0.369359 -0.0185,0.05583 -0.0288,0.113241 -0.0318,0.171979 0.01,0.07752 0.0656,0.154517 0.0392,0.235744 -0.0312,0.09657 -0.0855,0.221191 -0.0749,0.321468 0.006,0.05953 0.626,0.240771 0.71649,0.242359 0.13309,0.0026 0.2921,0.05741 0.42175,0.05106 0.12567,-0.0066 0.11483,-0.292893 0.24024,-0.203729 0.12303,0.08731 0.32623,0.190765 0.47837,0.211931 0.1135,0.01561 0.12647,0.04762 0.14816,0.17198 0.022,0.126735 0.11219,0.235214 0.13018,0.384439 0.0233,0.192352 0.19314,0.292894 0.21537,0.483659 0.0251,0.217487 0.0778,0.659341 0.37571,0.630502 0.16589,-0.01614 0.27807,-0.140494 0.43656,-0.17145 0.14631,-0.02831 0.2577,0.147373 0.36195,0.218545 -0.0646,0.04657 -0.0709,0.110067 -0.0368,0.177271 0.0669,0.131234 -0.11589,0.202671 -0.0815,0.328084 0.0362,0.132291 -0.0167,0.267229 -0.0408,0.396345 -0.023,0.12409 0.0206,0.239713 -0.0452,0.352955 -0.1143,0.196318 0.0942,0.624678 0.11589,0.846398 0.007,0.0733 0.01,0.49292 -0.0915,0.51224 -0.0495,0.009 -0.22939,0.22436 -0.20875,0.27172 0.0209,0.0487 -0.16484,0.0423 -0.19183,0.0564 -0.0534,0.027 -0.0828,0.11325 -0.10583,0.16272 -0.0209,0.046 -0.1307,0.36751 -0.2204,0.28575 -0.22357,-0.20373 -0.35269,-0.031 -0.45455,0.18204 -0.0664,-0.0254 -0.11721,-0.13441 -0.19209,-0.13441 -0.0966,0 -0.1487,0.0505 -0.24183,-0.005 -0.0913,-0.0548 -0.14869,0.0357 -0.23839,0.0386 -0.0862,0.002 -0.17092,-0.046 -0.25215,-0.0683 -0.27225,-0.0728 -0.54583,-0.1913 -0.83396,-0.16166 -0.13653,0.014 -0.21908,0.11006 -0.2667,-0.0548 -0.009,-0.031 0.10186,-0.26776 0.13229,-0.28787 0.29078,-0.19129 -0.0238,-0.70908 0.25029,-0.84349 0.12674,-0.0624 0.15849,-0.32359 0.22728,-0.45217 0.12462,-0.232043 -0.0587,-0.407197 -0.25162,-0.535784 -0.15716,-0.104511 -0.36697,-0.09446 -0.50006,-0.206111 -0.0788,-0.06668 -0.17939,-0.09049 -0.27808,-0.109537 -0.12118,-0.02328 -0.20478,-0.120386 -0.30771,-0.179388 -0.22992,-0.131762 -0.42783,-0.246062 -0.63844,-0.414866 -0.23071,-0.184415 -0.44423,-0.141553 -0.70299,-0.245005 -0.16034,-0.06403 -0.50668,-0.103981 -0.56039,-0.306916 -0.0532,-0.198967 -0.50641,-0.351367 -0.65829,-0.488421 -0.1606,-0.144198 -0.25876,-0.315119 -0.36909,-0.496094 -0.12356,-0.203729 -0.34025,-0.264583 -0.47863,-0.453231 z"
       id="py" />
  </g>
</svg>
