<?xml version="1.0" encoding="UTF-8" standalone="no"?>
<!-- Created with Inkscape (http://www.inkscape.org/) -->

<svg
   xmlns:dc="http://purl.org/dc/elements/1.1/"
   xmlns:cc="http://creativecommons.org/ns#"
   xmlns:rdf="http://www.w3.org/1999/02/22-rdf-syntax-ns#"
   xmlns:svg="http://www.w3.org/2000/svg"
   xmlns="http://www.w3.org/2000/svg"
   xmlns:sodipodi="http://sodipodi.sourceforge.net/DTD/sodipodi-0.dtd"
   xmlns:inkscape="http://www.inkscape.org/namespaces/inkscape"
   width="8.5990887mm"
   height="15.582371mm"
   viewBox="0 0 8.5990877 15.582371"
   version="1.1"
   id="svg7070"
   inkscape:version="0.92.4 (5da689c313, 2019-01-14)"
   sodipodi:docname="philippines.svg">
  <defs
     id="defs7064" />
  <sodipodi:namedview
     id="base"
     pagecolor="#ffffff"
     bordercolor="#666666"
     borderopacity="1.0"
     inkscape:pageopacity="0.0"
     inkscape:pageshadow="2"
     inkscape:zoom="5.6"
     inkscape:cx="28.080361"
     inkscape:cy="34.959627"
     inkscape:document-units="mm"
     inkscape:current-layer="layer1"
     showgrid="false"
     inkscape:window-width="958"
     inkscape:window-height="1008"
     inkscape:window-x="-7"
     inkscape:window-y="0"
     inkscape:window-maximized="0" />
  <metadata
     id="metadata7067">
    <rdf:RDF>
      <cc:Work
         rdf:about="">
        <dc:format>image/svg+xml</dc:format>
        <dc:type
           rdf:resource="http://purl.org/dc/dcmitype/StillImage" />
        <dc:title />
      </cc:Work>
    </rdf:RDF>
  </metadata>
  <g
     inkscape:label="Layer 1"
     inkscape:groupmode="layer"
     id="layer1"
     transform="translate(-174.36492,-19.279738)">
    <g
       transform="matrix(0.26458333,0,0,0.26458333,0.83740934,-81.286798)"
       id="ph"
       style="fill:#ffffff">
      <path
         style="fill:#ffffff"
         inkscape:connector-curvature="0"
         id="path5902"
         d="m 681.315,410.27 c 0.087,0.078 0.15,0.067 0.189,-0.031 -0.063,0.01 -0.125,0.02 -0.189,0.031 z" />
      <path
         style="fill:#ffffff"
         inkscape:connector-curvature="0"
         id="path5800"
         d="m 656.062,428.47 c 0.213,-0.346 0.214,-0.752 -0.128,-1.016 -0.143,0.34 -0.098,0.721 0.128,1.016 z" />
      <path
         style="fill:#ffffff"
         inkscape:connector-curvature="0"
         id="path5806"
         d="m 661.365,431.648 c 0.041,-0.352 -0.085,-0.424 -0.379,-0.223 0.118,0.088 0.245,0.162 0.379,0.223 z" />
      <path
         style="fill:#ffffff"
         inkscape:connector-curvature="0"
         id="path5832"
         d="m 666.195,438.988 c 0.198,-0.113 1.35,-0.736 1.296,-0.879 -0.196,-0.529 -0.53,-0.033 -0.8,0.16 -0.33,0.236 -0.873,0.246 -0.496,0.719 z" />
      <path
         style="fill:#ffffff"
         inkscape:connector-curvature="0"
         id="path5838"
         d="m 668.259,433.935 c -0.074,0.176 -0.063,0.346 0.031,0.51 0.153,-0.184 0.144,-0.354 -0.031,-0.51 z" />
      <path
         style="fill:#ffffff"
         inkscape:connector-curvature="0"
         id="path5840"
         d="m 670.861,435.904 c 0.871,-0.434 -0.488,-0.855 -0.906,-0.779 -0.454,0.086 -0.392,0.662 -0.286,0.605 0.295,-0.16 1.059,-0.232 1.192,0.174 z" />
      <path
         style="fill:#ffffff"
         inkscape:connector-curvature="0"
         id="path5858"
         d="m 672.676,433.269 c 0.062,0.385 0.427,0.602 0.787,0.436 0.369,-0.168 0.343,-0.566 0.576,-0.848 -0.327,0.027 -0.524,-0.227 -0.825,-0.285 -0.311,-0.062 -0.544,0.318 -0.825,0.381 0.084,0.115 0.179,0.222 0.287,0.316 z" />
      <path
         style="fill:#ffffff"
         inkscape:connector-curvature="0"
         id="path5860"
         d="m 672.42,435.078 c 0.093,0.246 0.252,0.32 0.477,0.223 -0.145,-0.104 -0.303,-0.178 -0.477,-0.223 z" />
      <path
         style="fill:#ffffff"
         inkscape:connector-curvature="0"
         id="path5874"
         d="m 675.754,430.472 c 1.175,-0.463 -0.951,-0.756 0,0 z" />
      <path
         style="fill:#ffffff"
         inkscape:connector-curvature="0"
         id="path5882"
         d="m 677.789,423.546 c 0.549,-0.027 0.317,-0.529 0.098,-0.793 -0.311,0.153 -0.501,0.61 -0.098,0.793 z" />
      <path
         style="fill:#ffffff"
         inkscape:connector-curvature="0"
         id="path5888"
         d="m 678.234,421.832 c 0.302,-0.018 0.407,-0.125 0.318,-0.316 -0.247,-0.022 -0.328,0.079 -0.318,0.316 z" />
      <path
         style="fill:#ffffff"
         inkscape:connector-curvature="0"
         id="path5892"
         d="m 678.68,419.165 c 0.084,-0.106 0.168,-0.212 0.251,-0.318 -0.294,0.005 -0.253,0.086 -0.251,0.318 z" />
      <path
         style="fill:#ffffff"
         inkscape:connector-curvature="0"
         id="path5900"
         d="m 681.792,423.613 c 0.15,-0.332 -0.13,-0.848 -0.508,-0.51 0.071,0.246 0.259,0.441 0.508,0.51 z" />
      <path
         style="fill:#ffffff"
         inkscape:connector-curvature="0"
         id="path5908"
         d="m 684.553,437.714 c 0.102,0.059 0.21,0.068 0.321,0.031 -0.105,-0.099 -0.213,-0.111 -0.321,-0.031 z" />
      <path
         style="fill:#ffffff"
         inkscape:connector-curvature="0"
         id="path5910"
         d="m 685.701,431.966 c 0.1,-0.344 0.005,-0.682 -0.066,-1.018 -0.551,0.112 -0.073,0.661 0.066,1.018 z" />
      <path
         style="fill:#ffffff"
         inkscape:connector-curvature="0"
         id="path5802"
         d="m 656.665,425.486 c -0.17,0.307 -0.11,0.658 -0.189,0.984 0.865,-1.072 2.095,-1.424 2.858,-2.637 0.285,-0.451 2.713,-2.037 1.84,-2.763 0.516,0.127 0.163,-0.228 0.194,-0.541 0.039,-0.381 0.652,-0.434 0.918,-0.469 0.456,-0.06 0.544,-0.237 0.62,-0.656 0.105,-0.583 0.527,-0.438 0.906,-0.686 0.798,-0.519 0.211,-1.027 -0.123,-1.626 -0.401,-0.718 0.248,-1.701 -0.354,-2.313 -0.387,0.338 0.085,1.623 -0.477,1.113 0.138,0.266 0.508,1.009 0.538,1.302 -0.326,-0.182 -0.703,-0.378 -0.825,-0.763 -0.007,0.402 0.203,0.726 0.325,1.093 0.124,0.37 -0.342,1.511 -0.546,0.718 -0.03,0.246 -0.164,0.328 -0.386,0.389 -0.172,0.047 -0.079,0.538 -0.126,0.66 -0.06,0.153 -0.371,-0.046 -0.44,0.095 -0.111,0.225 0.184,0.38 0,0.636 -0.084,-0.748 -0.4,0.117 -0.513,0.318 -0.186,0.336 -0.362,0.678 -0.622,0.965 -0.411,0.457 -0.625,1.078 -1.105,1.474 -0.191,0.158 -0.409,0.086 -0.601,0.229 -0.219,0.162 -0.23,0.449 -0.456,0.58 -0.639,0.376 -1.189,1.203 -1.436,1.898 z" />
      <path
         style="fill:#ffffff"
         inkscape:connector-curvature="0"
         id="path5812"
         d="m 664.449,414.813 c 0.092,-0.336 -0.024,-0.399 -0.349,-0.19 0.117,0.064 0.233,0.127 0.349,0.19 z" />
      <path
         style="fill:#ffffff"
         inkscape:connector-curvature="0"
         id="path5814"
         d="m 664.668,411.446 c -0.097,-0.097 -0.202,-0.182 -0.318,-0.255 -0.56,1.06 0.826,1.239 1.558,1.239 0.021,-0.194 -0.094,-0.458 -0.27,-0.556 -0.362,-0.2 -0.59,-0.113 -0.97,-0.428 z" />
      <path
         style="fill:#ffffff"
         inkscape:connector-curvature="0"
         id="path5816"
         d="m 664.319,405.411 c 0.124,0.307 0.439,0.495 0.701,0.667 0.015,-0.392 -0.338,-0.651 -0.701,-0.667 z" />
      <path
         style="fill:#ffffff"
         inkscape:connector-curvature="0"
         id="path5818"
         d="m 664.795,412.716 c -0.138,0.032 -0.275,0.063 -0.414,0.096 0.076,0.393 0.548,0.426 0.512,0.857 0.288,-0.26 -0.005,-0.691 -0.098,-0.953 z" />
      <path
         style="fill:#ffffff"
         inkscape:connector-curvature="0"
         id="path5820"
         d="m 665.303,417.991 c -0.043,-0.555 -0.765,-0.041 -0.759,0.317 0.428,0.171 0.352,-0.374 0.759,-0.317 z" />
      <path
         style="fill:#ffffff"
         inkscape:connector-curvature="0"
         id="path5824"
         d="m 665.243,406.871 c 0.068,0.183 0.772,0.746 0.939,0.878 0.712,0.562 0.537,1.295 1.054,1.886 0.228,0.26 1.762,3.061 2.104,1.429 0.072,-0.346 0.284,-0.639 0.352,-0.984 0.065,-0.343 -0.257,-0.648 -0.257,-0.992 0,-0.821 -0.414,-1.331 -0.969,-1.885 -0.447,-0.449 -2.796,-0.883 -3.223,-0.332 z" />
      <path
         style="fill:#ffffff"
         inkscape:connector-curvature="0"
         id="path5828"
         d="m 665.75,413.192 c -0.01,-0.226 -0.043,-0.448 -0.097,-0.667 -0.122,0.246 -0.09,0.468 0.097,0.667 z" />
      <path
         style="fill:#ffffff"
         inkscape:connector-curvature="0"
         id="path5808"
         d="m 662.193,396.675 c -0.143,0.702 0.422,0.613 0.492,1.012 0.107,0.61 0.153,1.395 0.46,1.933 0.296,0.519 0.448,0.973 0.541,1.552 0.056,0.351 0.617,1.123 0.54,0.332 0.593,0.222 0.253,1.375 0.938,1.581 1.013,0.304 0.212,-0.996 0.235,-1.423 0.256,0.094 2.353,0.781 1.54,1.362 -0.312,0.222 -0.586,0.491 -0.867,0.75 -0.45,0.414 0.01,1.232 0.055,1.764 0.271,-0.032 0.376,-0.193 0.257,-0.445 0.571,0.009 0.833,0.326 0.731,0.89 0.186,-0.66 0.602,-0.081 0.477,0.254 0.325,-0.054 0.805,0.147 1.074,-0.122 0.23,-0.23 0.294,-0.581 0.557,-0.779 0.081,-0.062 0.559,-0.428 0.675,-0.335 0.399,0.319 0.932,0.478 1.298,0.827 0.484,0.462 1.408,1.092 1.541,1.774 0.044,0.229 0.446,0.563 0.538,0.162 -0.006,-0.217 -0.064,-0.419 -0.177,-0.608 -0.045,-0.106 -0.518,-0.746 -0.265,-0.665 -0.508,-0.319 -0.376,-1.003 -0.732,-1.429 0.686,-0.109 1.328,0.717 1.659,1.188 0.446,0.638 1.207,0.676 1.59,1.462 0.101,0.206 -0.131,0.606 0.171,0.671 0.326,0.07 0.602,0.303 0.9,0.446 0.239,0.115 0.448,0.448 0.722,0.304 0.198,-0.104 0.494,-0.408 0.742,-0.355 -0.051,0.39 -0.769,0.564 -0.457,1.018 0.057,0.082 0.649,0.934 0.808,0.514 0.244,-0.653 -0.02,-2.917 -1.241,-2.071 -0.137,-0.269 0.005,-0.448 -0.06,-0.71 -0.081,-0.332 -0.561,-0.81 -0.845,-0.974 -0.755,-0.436 0.838,-0.86 1.253,-0.636 -0.072,-0.468 -0.829,-0.655 -1.211,-0.69 -0.651,-0.06 -0.761,-0.611 -1.3,-0.707 -0.136,0.442 0.691,1.086 0,1.334 -0.506,0.182 -0.655,-1.033 -0.879,-1.412 -0.454,-0.771 -2.365,-1.461 -2.328,-0.018 -0.077,-0.131 -0.161,-0.258 -0.251,-0.381 -0.429,0.397 0.443,0.646 0.198,0.925 -0.414,0.471 -1.264,-0.169 -1.566,-0.479 -0.271,-0.278 -1.437,-2.269 -0.573,-2.319 -0.783,-0.546 -1.594,-2.116 -1.235,-3.018 0.244,-0.614 -0.067,-1.175 0.154,-1.716 0.274,-0.67 1.17,-0.714 1.624,-1.207 -0.053,0.181 -0.105,0.36 -0.159,0.541 0.383,-0.436 0.262,-0.945 0.438,-1.461 0.271,-0.785 0.633,-1.628 0.483,-2.479 -0.44,0.209 -0.24,-0.4 -0.383,-0.604 -0.397,-0.561 -0.857,-0.579 -1.101,-1.351 -0.249,-0.792 -0.229,-1.405 0.102,-2.149 0.171,-0.386 -0.329,-1.444 -0.677,-0.881 -0.139,0.224 -0.163,0.717 -0.542,0.648 -0.229,-0.042 -0.725,-0.307 -0.929,-0.047 -0.122,-0.266 -0.378,-0.452 -0.617,-0.602 -0.48,-0.297 -1.106,-0.744 -1.676,-0.556 -0.245,0.082 -0.513,-0.052 -0.757,-0.073 -0.229,-0.021 -0.053,0.309 -0.268,0.309 -0.611,0 -0.227,0.338 -0.238,0.699 -0.021,0.646 -0.224,1.441 -0.317,2.097 -0.171,1.192 0.73,2.247 0.481,3.516 -0.201,1.029 0.224,1.797 0.361,2.754 0.173,1.188 -1.637,-0.396 -1.765,-0.901 -0.397,0.199 -0.358,0.631 -0.219,0.984 z" />
      <path
         style="fill:#ffffff"
         inkscape:connector-curvature="0"
         id="path5826"
         d="m 665.498,384.35 c 0.146,0.216 0.346,0.354 0.6,0.413 0.094,-0.36 -0.302,-0.607 -0.6,-0.413 z" />
      <path
         style="fill:#ffffff"
         inkscape:connector-curvature="0"
         id="path5830"
         d="m 665.75,386.319 c 0.117,-0.01 0.232,-0.021 0.349,-0.031 -0.182,-0.081 -0.266,-0.141 -0.349,0.031 z" />
      <path
         style="fill:#ffffff"
         inkscape:connector-curvature="0"
         id="path5834"
         d="m 666.83,380.603 c 0.103,-0.155 0.166,-0.324 0.19,-0.509 -0.208,0.115 -0.27,0.285 -0.19,0.509 z" />
      <path
         style="fill:#ffffff"
         inkscape:connector-curvature="0"
         id="path5836"
         d="m 667.497,386.416 c 0.211,-0.157 0.308,-0.412 0.225,-0.667 -0.197,0.183 -0.272,0.404 -0.225,0.667 z" />
      <path
         style="fill:#ffffff"
         inkscape:connector-curvature="0"
         id="path5842"
         d="m 669.561,400.994 c 0.104,0.391 0.307,1.139 0.732,1.303 0.186,-0.477 0.052,-1.998 -0.732,-1.303 z" />
      <path
         style="fill:#ffffff"
         inkscape:connector-curvature="0"
         id="path5844"
         d="m 671.216,404.808 c -0.096,-0.387 -0.61,-0.655 -0.952,-0.763 0.217,0.361 0.607,0.547 0.952,0.763 z" />
      <path
         style="fill:#ffffff"
         inkscape:connector-curvature="0"
         id="path5846"
         d="m 670.264,406.936 c -0.013,0.713 1.097,1.248 1.129,0.229 0.015,-0.519 -0.964,-0.802 -1.129,-0.229 z" />
      <path
         style="fill:#ffffff"
         inkscape:connector-curvature="0"
         id="path5848"
         d="m 671.119,402.074 c 0.095,-0.306 -0.011,-0.391 -0.317,-0.254 0.106,0.085 0.212,0.169 0.317,0.254 z" />
      <path
         style="fill:#ffffff"
         inkscape:connector-curvature="0"
         id="path5850"
         d="m 671.088,413.319 c 1.031,0.183 0.783,0.983 0.764,1.773 -0.014,0.572 0.08,0.979 -0.074,1.553 -0.16,0.598 0.188,1.167 -0.023,1.757 0.592,0.125 0.969,-0.89 1.614,-0.89 0.419,0 1.201,-0.612 1.079,-1.029 -0.106,-0.365 1.233,-0.502 1.053,-1.022 -0.24,-0.69 0.251,-1.642 -0.856,-0.839 0.272,-0.296 -0.137,-0.699 -0.462,-0.627 -0.302,0.067 -0.498,0.447 -0.756,0.173 -0.293,-0.311 -0.501,-0.666 -0.903,-0.855 -0.378,-0.178 -0.866,-0.253 -1.116,-0.628 -0.17,0.18 -0.275,0.392 -0.32,0.634 z" />
      <path
         style="fill:#ffffff"
         inkscape:connector-curvature="0"
         id="path5852"
         d="m 671.341,410.524 c -0.044,0.574 -0.28,1.062 0.158,1.557 0.078,-0.653 0.131,-1.308 0.267,-1.946 0.077,-0.361 -0.738,-0.132 -0.425,0.389 z" />
      <path
         style="fill:#ffffff"
         inkscape:connector-curvature="0"
         id="path5854"
         d="m 671.374,402.233 c 0.106,-0.011 0.212,-0.021 0.317,-0.032 -0.109,-0.018 -0.214,-0.008 -0.317,0.032 z" />
      <path
         style="fill:#ffffff"
         inkscape:connector-curvature="0"
         id="path5856"
         d="m 672.199,410.524 c 0.275,0.042 0.243,-0.064 -0.097,-0.317 0.033,0.106 0.065,0.212 0.097,0.317 z" />
      <path
         style="fill:#ffffff"
         inkscape:connector-curvature="0"
         id="path5862"
         d="m 672.676,430.951 c -0.164,0.898 1.067,1.277 1.161,0.227 0.034,-0.381 0.199,-1.438 0.491,-1.555 0.232,-0.092 0.399,-1.484 0.93,-1.074 0.381,0.295 0.225,0.928 0.527,1.26 0.084,-0.559 0.285,-0.287 0.446,0 0.124,-0.346 0.02,-0.822 0.445,-0.984 0.19,0.229 0.153,0.506 -0.065,0.697 0.437,0.016 0.712,0.557 1.146,0.477 -0.133,-0.191 -0.297,-0.453 -0.286,-0.697 0.006,-0.141 0.312,-0.125 0.349,-0.256 0.096,-0.344 -0.285,-0.262 0.157,-0.596 0.272,-0.205 0.541,0.154 0.747,0.283 0.701,0.439 1.334,0.561 1.569,1.49 0.127,0.506 -0.558,0.979 -0.611,1.518 -0.054,0.541 0.236,1.283 0.351,1.816 0.176,0.822 0.891,1.314 1.594,1.676 0.322,0.164 1.468,0.91 1.816,0.602 0.279,-0.246 0.131,-0.826 0.658,-0.799 0.052,0.002 -0.103,2.453 0.646,1.938 0.521,-0.359 0.974,-1.594 0.894,-2.195 -0.113,-0.848 -0.757,-1.201 -1.085,-1.885 -0.198,-0.412 0.805,-2.721 1.162,-2.551 0.275,0.133 0.884,1.439 1.003,1.758 0.118,0.311 0.051,0.633 0.078,0.953 0.04,0.467 0.419,0.779 0.487,1.234 0,-0.738 0.33,-1.695 -0.226,-2.32 0.274,-0.127 0.497,0.037 0.604,0.287 -0.472,-0.42 0.228,-0.84 0.457,-1.154 0.445,-0.605 0.133,-1.492 0.013,-2.143 -0.099,-0.531 -0.797,-0.533 -0.519,-1.113 0.161,-0.336 0.173,-1.199 -0.428,-0.926 1.022,-0.877 -0.849,-1.162 -0.825,-1.621 0.014,-0.268 0.536,-0.393 0.638,-0.656 0.184,-0.473 -0.341,-0.662 -0.479,-1.027 -0.064,-0.172 0.126,-0.996 -0.193,-0.832 -0.402,0.209 -0.478,0.062 -0.695,-0.25 -0.258,-0.369 0.003,-0.584 -0.562,-0.756 -0.622,-0.189 -0.734,-0.752 -1.278,-0.989 -0.329,0.717 0.249,1.661 0.466,2.336 0.049,0.156 0.274,0.727 -0.007,0.809 -0.368,0.105 -0.873,0.016 -1.033,-0.381 -0.299,0.936 0.021,1.01 -0.855,0.4 -0.826,-0.574 -0.109,1.689 -0.792,1.783 -0.439,0.061 -0.524,-0.469 -0.93,-0.287 -0.422,0.189 -0.306,0.963 -0.438,1.324 -0.159,0.432 -0.792,0.238 -1.105,0.494 -0.184,0.15 -0.497,0.502 -0.749,0.512 -0.26,0.012 0.322,-0.404 0.27,-0.369 0.328,-0.219 0.397,-0.34 0.314,-0.758 -0.064,-0.322 -0.509,-1.883 -1.049,-1.129 -0.082,-0.26 -0.241,-0.59 -0.573,-0.572 0.186,0.873 -0.907,0.537 -1.164,1.012 -0.304,0.561 -0.044,1.076 -0.742,1.307 -0.706,0.232 -1.75,0.029 -2.084,0.924 -0.143,0.385 -0.054,0.83 -0.098,1.229 -0.057,0.525 -0.331,1.052 -0.548,1.529 z" />
      <path
         style="fill:#ffffff"
         inkscape:connector-curvature="0"
         id="path5864"
         d="m 673.056,410.524 c -0.115,0.072 -0.222,0.157 -0.317,0.254 0.27,0.215 0.548,0.424 0.794,0.668 0.297,-0.417 0.034,-0.924 -0.477,-0.922 z" />
      <path
         style="fill:#ffffff"
         inkscape:connector-curvature="0"
         id="path5866"
         d="m 674.356,422.246 c 0.303,0.217 0.736,0.211 0.988,0.508 0.212,0.25 0.101,0.648 0.354,0.875 0.349,0.311 0.81,-0.061 0.984,-0.371 0.324,-0.574 -0.273,-0.967 -0.427,-1.471 -0.285,-0.925 0.074,-2.289 0.365,-3.191 0.221,-0.688 0.95,-1.611 -0.004,-2.114 -0.314,-0.166 -0.723,-0.218 -1.054,-0.068 -0.57,0.258 -0.332,0.755 -0.476,1.226 -0.094,0.304 -0.391,0.401 -0.281,0.764 0.123,0.401 0.297,0.84 0.136,1.26 -0.242,0.634 -1.41,0.229 -1.393,0.937 0.018,0.589 0.479,1.184 0.808,1.645 z" />
      <path
         style="fill:#ffffff"
         inkscape:connector-curvature="0"
         id="path5868"
         d="m 673.88,418.529 c 0.284,-0.129 0.954,-1.007 0.351,-1.154 -0.456,-0.112 -0.573,0.918 -0.351,1.154 z" />
      <path
         style="fill:#ffffff"
         inkscape:connector-curvature="0"
         id="path5870"
         d="m 675.785,409.793 c -0.365,-0.591 -0.786,-1.396 -1.46,-1.684 -0.332,0.559 1.208,1.319 1.46,1.684 z" />
      <path
         style="fill:#ffffff"
         inkscape:connector-curvature="0"
         id="path5872"
         d="m 675.437,412.43 c -0.01,0.116 -0.021,0.232 -0.031,0.349 0.447,-0.306 0.781,-1.509 1.321,-0.88 0.219,0.255 0.46,0.491 0.654,0.767 0.247,0.348 0.755,0.366 1.012,0.717 0.489,-0.946 -0.802,-1.522 -1.237,-2.04 -0.194,-0.23 -0.497,-0.485 -0.726,-0.67 -0.137,-0.111 -0.893,-0.469 -1.056,-0.466 0.117,0.304 0.021,1.105 0.154,1.283 0.328,0.44 -0.059,0.462 -0.091,0.94 z" />
      <path
         style="fill:#ffffff"
         inkscape:connector-curvature="0"
         id="path5876"
         d="m 676.868,410.524 c 0.119,0.232 0.278,0.434 0.477,0.604 -0.064,-0.429 -0.184,-0.953 -0.604,-1.175 -0.096,0.222 -0.054,0.412 0.127,0.571 z" />
      <path
         style="fill:#ffffff"
         inkscape:connector-curvature="0"
         id="path5878"
         d="m 676.934,420.086 c 0.046,0.664 -0.161,1.313 -0.226,1.97 0.909,0.238 0.717,-1.92 1.083,-2.349 0.454,-0.53 0.936,-0.961 1.014,-1.699 0.095,-0.879 -0.186,-1.745 -0.159,-2.623 -0.439,0.091 -0.564,1.467 -0.639,1.803 -0.228,1.014 -0.864,1.88 -1.073,2.898 z" />
      <path
         style="fill:#ffffff"
         inkscape:connector-curvature="0"
         id="path5880"
         d="m 677.758,407.792 c 0.053,-0.217 -0.053,-0.26 -0.317,-0.127 0.105,0.042 0.211,0.085 0.317,0.127 z" />
      <path
         style="fill:#ffffff"
         inkscape:connector-curvature="0"
         id="path5884"
         d="m 678.234,406.649 c 0.798,-0.561 0.681,-1.822 -0.384,-2.032 -0.311,0.652 -0.102,1.585 0.384,2.032 z" />
      <path
         style="fill:#ffffff"
         inkscape:connector-curvature="0"
         id="path5886"
         d="m 678.424,407.984 c -0.101,-0.085 -0.217,-0.105 -0.348,-0.063 0.115,0.021 0.232,0.043 0.348,0.063 z" />
      <path
         style="fill:#ffffff"
         inkscape:connector-curvature="0"
         id="path5890"
         d="m 678.518,421.166 c -0.072,1.236 2.135,-0.169 2.417,-0.064 -0.174,-0.637 -0.197,-1.893 -1.339,-1.58 -0.401,0.109 -1.63,1.292 -1.078,1.644 z" />
      <path
         style="fill:#ffffff"
         inkscape:connector-curvature="0"
         id="path5894"
         d="m 678.932,410.524 c 0.251,0.676 0.541,1.254 1.112,1.716 0.318,0.257 1.291,1.286 1.685,1.112 -0.134,0.314 -0.119,0.731 -0.512,0.856 0.195,0.16 0.354,0.352 0.477,0.572 -0.339,-0.372 -0.535,0.101 -0.812,0.262 -0.428,0.248 -1.099,-0.441 -1.284,-0.77 -0.318,0.392 0.285,2.272 0.764,2.477 -0.084,-0.853 0.918,0.248 0.941,0.684 0.059,1.108 -0.144,1.961 1.03,2.493 -0.05,-0.335 -0.223,-0.64 -0.225,-0.984 0.186,0.207 0.833,0.225 0.895,-0.128 0.034,-0.195 -0.44,-1.117 -0.559,-1.314 -0.271,-0.454 -0.354,-0.395 -0.398,-1.003 -0.028,-0.394 0.058,-1.013 -0.286,-1.302 0.264,-0.068 1.01,0.659 1.017,0.651 0.291,-0.342 1.385,0.093 1.684,0.27 -0.241,-0.282 -0.407,-0.678 -0.795,-0.794 0.501,-0.383 -0.502,-1.511 -0.547,-1.965 -0.049,-0.479 0.167,-0.904 -0.096,-1.312 -0.168,-0.261 0.463,-0.185 -0.044,-0.489 -0.274,-0.166 -0.625,-0.044 -0.6,-0.478 0.032,-0.557 -0.451,-0.576 -0.85,-0.663 -0.431,-0.095 -0.569,-0.102 -1.023,0.044 -0.523,0.168 -1.095,-0.296 -1.574,0.065 z" />
      <path
         style="fill:#ffffff"
         inkscape:connector-curvature="0"
         id="path5896"
         d="m 680.043,414.496 c 0.562,0.082 0.15,-1.226 -0.539,-0.826 0.15,0.288 0.232,0.651 0.539,0.826 z" />
      <path
         style="fill:#ffffff"
         inkscape:connector-curvature="0"
         id="path5904"
         d="m 682.935,420.086 c 0.119,0.104 0.237,0.209 0.353,0.317 -0.065,-0.301 -0.211,-0.806 -0.636,-0.667 0.082,0.125 0.177,0.243 0.283,0.35 z" />
      <path
         style="fill:#ffffff"
         inkscape:connector-curvature="0"
         id="path5906"
         d="m 684.204,420.086 c 0.254,0.176 0.285,0.445 0.066,0.667 0.473,0.069 0.364,-0.605 0.309,-0.866 -0.06,-0.272 -0.232,-0.514 -0.278,-0.785 -0.042,-0.248 0.125,-0.447 0.031,-0.699 -0.627,0.268 -0.126,0.8 -0.477,1.207 0.253,0.04 0.422,0.207 0.349,0.476 z" />
      <path
         style="fill:#ffffff"
         inkscape:connector-curvature="0"
         id="path5912"
         d="m 685.57,421.769 c 0.218,-0.225 0.065,-0.526 -0.158,-0.667 -0.037,0.245 0.016,0.466 0.158,0.667 z" />
      <path
         style="fill:#ffffff"
         inkscape:connector-curvature="0"
         id="path5914"
         d="m 685.761,420.086 c -0.159,0.214 -0.297,1.112 0.209,0.997 0.513,-0.117 0.133,-0.934 -0.209,-0.997 z" />
      <path
         style="fill:#ffffff"
         inkscape:connector-curvature="0"
         id="path5920"
         d="m 679.793,417.863 c -0.021,-0.116 -0.044,-0.232 -0.065,-0.349 0.36,0.053 0.381,0.17 0.065,0.349 z" />
      <path
         style="fill:#ffffff"
         inkscape:connector-curvature="0"
         id="path5924"
         d="m 681.692,414.782 c 0.057,0.133 0.078,0.27 0.066,0.413 -0.063,-0.131 -0.085,-0.268 -0.066,-0.413 z" />
      <path
         style="fill:#ffffff"
         inkscape:connector-curvature="0"
         id="path5936"
         d="m 677.217,416.148 c -0.234,-1.241 1.455,-0.602 0,0 z" />
    </g>
  </g>
</svg>
