<?xml version="1.0" encoding="UTF-8" standalone="no"?>
<!-- Created with Inkscape (http://www.inkscape.org/) -->

<svg
   xmlns:dc="http://purl.org/dc/elements/1.1/"
   xmlns:cc="http://creativecommons.org/ns#"
   xmlns:rdf="http://www.w3.org/1999/02/22-rdf-syntax-ns#"
   xmlns:svg="http://www.w3.org/2000/svg"
   xmlns="http://www.w3.org/2000/svg"
   xmlns:sodipodi="http://sodipodi.sourceforge.net/DTD/sodipodi-0.dtd"
   xmlns:inkscape="http://www.inkscape.org/namespaces/inkscape"
   width="5.4515734mm"
   height="6.4325638mm"
   viewBox="0 0 5.4515737 6.432562"
   version="1.1"
   id="svg7070"
   inkscape:version="0.92.4 (5da689c313, 2019-01-14)"
   sodipodi:docname="republic_of_cote_divoire.svg">
  <defs
     id="defs7064" />
  <sodipodi:namedview
     id="base"
     pagecolor="#ffffff"
     bordercolor="#666666"
     borderopacity="1.0"
     inkscape:pageopacity="0.0"
     inkscape:pageshadow="2"
     inkscape:zoom="7.9195959"
     inkscape:cx="8.0868532"
     inkscape:cy="-4.0021554"
     inkscape:document-units="mm"
     inkscape:current-layer="layer1"
     showgrid="false"
     inkscape:window-width="958"
     inkscape:window-height="1008"
     inkscape:window-x="-7"
     inkscape:window-y="0"
     inkscape:window-maximized="0" />
  <metadata
     id="metadata7067">
    <rdf:RDF>
      <cc:Work
         rdf:about="">
        <dc:format>image/svg+xml</dc:format>
        <dc:type
           rdf:resource="http://purl.org/dc/dcmitype/StillImage" />
        <dc:title />
      </cc:Work>
    </rdf:RDF>
  </metadata>
  <g
     inkscape:label="Layer 1"
     inkscape:groupmode="layer"
     id="layer1"
     transform="translate(-159.69423,-34.753847)">
    <path
       style="fill:#ffffff;stroke-width:0.26458332"
       inkscape:connector-curvature="0"
       id="ci"
       d="m 159.69423,39.023167 c 0.05,-0.10795 0.17992,-0.131234 0.22516,-0.24765 0.0299,-0.07699 0.0534,-0.199496 0.0585,-0.281517 0.01,-0.148696 -0.0497,-0.4191 -0.15769,-0.529696 0.0691,-0.07276 0.16431,-0.03519 0.23469,0.0082 0.0153,-0.08784 0.15663,-0.183885 0.1008,-0.280987 -0.045,-0.07911 0.0288,-0.246063 0.13494,-0.189177 -0.0804,-0.119327 -0.2204,-0.193146 -0.25665,-0.340519 -0.0683,-0.277019 0.44927,-0.05953 0.5334,-0.02117 -0.0606,-0.183885 -0.0378,-0.389202 -0.27675,-0.42836 0.0437,-0.123031 0.0442,-0.253736 0.20214,-0.277548 -0.13123,-0.155046 -0.1561,-0.121444 -0.1098,-0.352954 -0.28522,0.183356 -0.28416,-0.451644 -0.23574,-0.588169 0.0439,-0.124354 0.2024,-0.127794 0.28601,-0.210079 0.0479,-0.0471 0.0336,-0.133879 0.0839,-0.176477 0.0741,-0.06271 0.1614,-0.02222 0.24395,-0.059 -0.0177,0.163777 0.3138,0.327554 0.44609,0.269081 -0.0892,-0.148167 0.0624,-0.156369 0.17065,-0.154517 0.14447,0.0021 0.0934,-0.237331 0.0979,-0.33311 0.0569,0.03175 0.11589,0.138641 0.19367,0.117739 0.0746,-0.02064 0.0894,-0.160866 0.16801,-0.19341 0.0643,0.116417 -0.0572,0.510646 0.11139,0.550333 0.0865,0.02037 0.42281,-0.43762 0.51859,-0.220133 0.0521,0.118798 0.19129,0.07303 0.28813,0.126735 0.13335,0.07382 0.13652,0.248444 0.21458,0.351367 0.14261,0.18759 0.34184,0.303742 0.57282,0.343429 0.002,-0.204258 0.30242,-0.248179 0.44582,-0.302683 0.13124,-0.05001 0.47017,0.100012 0.55457,-0.0254 0.0402,0.06323 0.16245,0.167217 0.18494,0.223573 0.0468,0.115887 0.0982,0.229129 0.20135,0.306123 0.0214,-0.02699 0.0413,-0.0553 0.0595,-0.08414 0.0376,0.137584 -0.10292,0.278607 -0.05,0.410369 0.0542,0.135467 0.12276,0.208227 0.14181,0.369887 0.0156,0.134409 0.0987,0.360628 0.0495,0.487363 -0.0556,0.142081 -0.18045,0.218546 -0.25003,0.347663 -0.0926,0.171979 -0.2159,0.269345 -0.25083,0.456935 -0.0381,0.203729 -0.10133,0.426244 -0.13705,0.62521 -0.0357,0.198967 0.0333,0.471223 0.0915,0.660929 0.0474,0.155576 0.17278,0.36539 0.12753,0.532871 0.29898,-0.08255 0.1532,0.370946 0.20188,0.512763 -0.0601,-0.0011 -0.1188,0.0077 -0.17621,0.0254 0.0172,-0.03202 0.0368,-0.06297 0.0585,-0.0926 -0.14049,0.211402 -0.25664,-0.05424 -0.28601,-0.159809 -0.0759,0.08414 -0.10478,0.200555 -0.23469,0.210344 -0.0841,0.0061 -0.19182,-0.0336 -0.25215,-0.0926 -0.0463,0.0852 -0.15293,0.0048 -0.19367,-0.0336 0.0733,-0.01614 0.15478,0.0553 0.21008,-0.0254 -0.0241,-0.02752 -0.0521,-0.04974 -0.0841,-0.0672 0.0347,0.16801 -0.0339,0.01138 -0.15055,0.0418 0.0241,0.05001 -0.27649,0.0217 -0.34951,0.02937 -0.0373,0.0042 -0.41064,0.07091 -0.38047,0.08731 0.18732,0.100806 0.5543,-0.222779 0.70458,-0.03254 -0.23283,0.01297 -0.45535,0.05107 -0.68342,0.09155 -0.0513,0.0093 -0.15795,0.03096 -0.19076,-0.02937 -0.0466,-0.08519 -0.27173,-0.04657 -0.35243,0.03043 0.1323,-0.05318 0.20558,-0.03863 0.33629,0.0082 -0.28628,0.03254 -0.59134,0.01693 -0.86095,0.133879 -0.23284,0.100277 -0.44212,0.289454 -0.70247,0.315648 -0.13256,0.01349 -0.41566,0.163248 -0.5133,0.257439 -0.21907,0.210873 -0.25744,-0.178858 -0.2233,-0.338931 0.0405,-0.191294 0.10662,-0.402167 0.15954,-0.559594 0.0704,-0.209814 0.0103,-0.43815 -0.15531,-0.577321 -0.10081,-0.08467 -0.24686,-0.122502 -0.23045,-0.299243 0.0188,-0.2032 -0.60008,-0.02646 -0.47466,-0.259821 -0.0752,0.01693 -0.14235,-0.01614 -0.19368,-0.0672 z" />
  </g>
</svg>
