<?xml version="1.0" encoding="UTF-8" standalone="no"?>
<!-- Created with Inkscape (http://www.inkscape.org/) -->

<svg
   xmlns:dc="http://purl.org/dc/elements/1.1/"
   xmlns:cc="http://creativecommons.org/ns#"
   xmlns:rdf="http://www.w3.org/1999/02/22-rdf-syntax-ns#"
   xmlns:svg="http://www.w3.org/2000/svg"
   xmlns="http://www.w3.org/2000/svg"
   xmlns:sodipodi="http://sodipodi.sourceforge.net/DTD/sodipodi-0.dtd"
   xmlns:inkscape="http://www.inkscape.org/namespaces/inkscape"
   width="14.15581mm"
   height="12.767715mm"
   viewBox="0 0 14.155809 12.767715"
   version="1.1"
   id="svg7070"
   inkscape:version="0.92.4 (5da689c313, 2019-01-14)"
   sodipodi:docname="republic_of_south_africa.svg">
  <defs
     id="defs7064" />
  <sodipodi:namedview
     id="base"
     pagecolor="#ffffff"
     bordercolor="#666666"
     borderopacity="1.0"
     inkscape:pageopacity="0.0"
     inkscape:pageshadow="2"
     inkscape:zoom="7.9195959"
     inkscape:cx="33.078602"
     inkscape:cy="12.569214"
     inkscape:document-units="mm"
     inkscape:current-layer="layer1"
     showgrid="false"
     inkscape:window-width="958"
     inkscape:window-height="1008"
     inkscape:window-x="-7"
     inkscape:window-y="0"
     inkscape:window-maximized="0" />
  <metadata
     id="metadata7067">
    <rdf:RDF>
      <cc:Work
         rdf:about="">
        <dc:format>image/svg+xml</dc:format>
        <dc:type
           rdf:resource="http://purl.org/dc/dcmitype/StillImage" />
        <dc:title />
      </cc:Work>
    </rdf:RDF>
  </metadata>
  <g
     inkscape:label="Layer 1"
     inkscape:groupmode="layer"
     id="layer1"
     transform="translate(-154.27116,-38.711131)">
    <path
       inkscape:connector-curvature="0"
       style="fill:#ffffff;stroke-width:0.26458332"
       d="m 154.27116,45.211603 c 0.0876,-0.08255 0.22093,-0.06562 0.2376,-0.195792 0.0143,-0.110067 0.0915,-0.300831 0.20796,-0.337873 0.15346,-0.04921 0.13441,0.165365 0.23918,0.195792 0.18124,0.05159 -0.004,0.232568 0.0844,0.342635 0.15426,0.193675 0.39238,0.211402 0.61966,0.283633 0.2069,0.06562 0.37332,-0.02699 0.57573,-0.0217 0.18177,0.0048 0.25188,0.10742 0.43868,0.05212 -0.11245,-0.12753 0.0272,-0.147903 0.10239,-0.177271 0.10399,-0.04075 0.11166,-0.175154 0.24316,-0.213519 0.0847,-0.02487 0.26008,-0.03678 0.27067,-0.153988 0.0204,-0.23151 0.027,-0.464608 0.0294,-0.697177 0.01,-0.976577 0.0783,-1.957916 0.0511,-2.935287 0.0992,0.139964 0.27067,0.206639 0.36327,0.352425 0.10531,0.166423 0.16457,0.391319 0.23336,0.575733 0.0696,0.186002 0.13679,0.385498 0.0463,0.57785 -0.11589,0.245534 -0.20056,0.379942 -0.0873,0.653786 0.20029,-0.230982 0.69612,0.120385 0.91361,-0.09102 0.0362,-0.03519 0.008,-0.125148 0.0614,-0.139965 0.0595,-0.01693 0.11113,-0.0053 0.16907,-0.03836 0.15081,-0.08573 0.1823,-0.283634 0.33893,-0.377296 0.17251,-0.102394 0.28258,-0.214842 0.32253,-0.420688 0.0341,-0.179387 0.0283,-0.328083 0.17595,-0.461962 0.12832,-0.116152 0.29474,-0.139435 0.45191,-0.06932 0.12911,0.05847 0.31538,0.333375 0.43868,0.329671 0.27596,-0.0071 0.6006,0.325437 0.86254,0.118798 0.11694,-0.0926 0.2921,0.03625 0.43815,-0.07223 0.1561,-0.116152 0.21272,-0.310621 0.27966,-0.485775 0.0357,-0.0926 0.0672,-0.188119 0.0825,-0.286809 0.0251,-0.160073 -0.0516,-0.148431 0.11086,-0.194204 0.0942,-0.02699 0.36989,-0.07382 0.42201,-0.16219 0.0926,-0.15822 0.27596,-0.228864 0.35322,-0.396345 0.0839,-0.182298 0.0482,-0.370417 0.17251,-0.542132 0.10636,-0.147373 0.22622,-0.160073 0.36433,-0.256381 0.14129,-0.09869 0.32173,-0.25056 0.42942,-0.386556 0.0921,-0.115888 0.15293,-0.293423 0.29131,-0.363802 0.13837,-0.07038 0.30162,-0.07699 0.44635,-0.129646 0.1389,-0.05054 0.13494,-0.111654 0.20293,-0.219075 0.0574,-0.09102 0.21405,-0.120385 0.30983,-0.140494 0.38973,-0.08176 0.62786,0.175154 1.00727,0.1778 0.33761,0.0026 0.64505,-0.127529 0.75565,0.286808 0.0616,0.230982 0.11509,0.467255 0.12118,0.707496 0.006,0.218546 0.13943,0.406136 0.21854,0.602986 0.1696,0.420687 0.14632,0.820208 0.12383,1.263914 -0.009,0.170921 0.006,0.411428 -0.0783,0.560653 -0.0759,0.135466 0.0455,0.311679 -0.18812,0.2032 -0.0995,-0.04604 -0.11535,-0.05636 -0.23098,-0.0635 -0.14684,-0.0093 -0.39079,0.103981 -0.28416,0.162718 0.56197,0.31115 -0.65167,0.667544 -0.26882,0.682096 0.47281,0.01746 0.49054,0.841904 0.56489,0.531283 0.18547,-0.772054 0.195,0.0635 0.26247,0.0061 0.0852,-0.07223 0.236,-0.313267 0.2532,-0.418571 0.2331,0.112713 0.35931,0.0717 0.6059,0.08017 -0.10002,0.442383 -0.22384,0.824177 -0.34184,1.262327 -0.0611,0.226748 -0.18098,0.687387 -0.49319,0.665162 0.0495,0.111125 -0.0955,0.106892 -0.16245,0.120386 -0.0836,0.01693 -0.15452,0.121973 -0.2077,0.181504 -0.18785,0.209285 -0.37994,0.457729 -0.4662,0.7239 -0.0487,0.149754 -0.18097,0.244475 -0.25638,0.378354 -0.11588,0.206111 -0.23706,0.410898 -0.37253,0.604573 -0.24448,0.34925 -0.50588,0.584994 -0.83106,0.853281 -0.27172,0.223838 -0.4318,0.548746 -0.70273,0.771525 -0.34528,0.283634 -0.68289,0.576792 -1.03875,0.846932 -0.2794,0.21246 -0.60008,0.466725 -0.95965,0.515143 -0.17303,0.02328 -0.34475,-0.0717 -0.51541,-0.01958 -0.12382,0.03784 -0.29633,0.18759 -0.1262,0.293952 -0.20267,0.09049 -0.42704,-0.16801 -0.61701,-0.03784 -0.22146,0.151871 -0.26855,0.2413 -0.57229,0.125677 -0.22808,-0.08678 -0.52044,-0.179388 -0.76121,-0.08784 -0.10795,0.04127 -0.0537,0.111125 -0.21696,0.05212 -0.096,-0.03413 -0.26405,0.0254 -0.313,-0.08572 -0.003,0.01402 -0.003,0.02778 0,0.0418 -0.24686,-0.03969 -0.64214,0.07382 -0.76835,0.303213 -0.11033,0.200554 -0.66172,-0.0061 -0.83741,0.06932 -0.10504,0.04551 -0.2159,0.01508 -0.31485,0.06191 -0.11959,0.05636 -0.25241,0.170921 -0.35745,0.252677 -0.13282,0.103452 -0.0804,0.08308 -0.2339,0.04339 -0.0667,-0.01693 -0.14181,0.02117 -0.20134,-0.02778 -0.068,-0.05583 -0.13203,-0.121973 -0.21908,-0.148432 0.15293,-0.209285 -0.31617,-0.217487 -0.42016,-0.235743 0.0638,-0.163248 -0.003,-0.309034 -0.19685,-0.273315 -0.13229,0.02434 -0.0839,0.180975 -0.081,0.273315 -0.23971,-0.09313 -0.05,-0.378355 -0.027,-0.523611 0.0201,-0.126735 -0.0489,-0.257439 -0.11244,-0.361156 -0.0365,-0.06006 -0.33523,-0.473869 -0.13759,-0.282575 -0.0841,-0.08467 -0.0476,-0.178329 -0.17356,-0.177271 -0.10637,5.29e-4 0.0106,-0.265112 0.022,-0.302419 0.27172,0.159809 0.34184,-0.152929 0.3466,-0.362214 0.009,-0.358246 -0.0902,-0.6604 -0.27543,-0.967317 -0.27596,-0.456935 -0.52017,-0.909637 -0.67839,-1.423194 -0.0738,-0.239712 -0.12118,-0.486833 -0.21008,-0.722048 -0.0886,-0.23495 -0.30242,-0.444764 -0.32491,-0.701145 z"
       id="za" />
  </g>
</svg>
