<?xml version="1.0" encoding="UTF-8" standalone="no"?>
<!-- Created with Inkscape (http://www.inkscape.org/) -->

<svg
   xmlns:dc="http://purl.org/dc/elements/1.1/"
   xmlns:cc="http://creativecommons.org/ns#"
   xmlns:rdf="http://www.w3.org/1999/02/22-rdf-syntax-ns#"
   xmlns:svg="http://www.w3.org/2000/svg"
   xmlns="http://www.w3.org/2000/svg"
   xmlns:sodipodi="http://sodipodi.sourceforge.net/DTD/sodipodi-0.dtd"
   xmlns:inkscape="http://www.inkscape.org/namespaces/inkscape"
   width="3.5127251mm"
   height="4.1871443mm"
   viewBox="0 0 3.5127249 4.1871443"
   version="1.1"
   id="svg7070"
   inkscape:version="0.92.4 (5da689c313, 2019-01-14)"
   sodipodi:docname="republic_of_suriname.svg">
  <defs
     id="defs7064" />
  <sodipodi:namedview
     id="base"
     pagecolor="#ffffff"
     bordercolor="#666666"
     borderopacity="1.0"
     inkscape:pageopacity="0.0"
     inkscape:pageshadow="2"
     inkscape:zoom="1.4"
     inkscape:cx="-103.42528"
     inkscape:cy="-130.79386"
     inkscape:document-units="mm"
     inkscape:current-layer="layer1"
     showgrid="false"
     inkscape:window-width="958"
     inkscape:window-height="1008"
     inkscape:window-x="-7"
     inkscape:window-y="0"
     inkscape:window-maximized="0" />
  <metadata
     id="metadata7067">
    <rdf:RDF>
      <cc:Work
         rdf:about="">
        <dc:format>image/svg+xml</dc:format>
        <dc:type
           rdf:resource="http://purl.org/dc/dcmitype/StillImage" />
        <dc:title></dc:title>
      </cc:Work>
    </rdf:RDF>
  </metadata>
  <g
     inkscape:label="Layer 1"
     inkscape:groupmode="layer"
     id="layer1"
     transform="translate(-237.2482,-66.376333)">
    <path
       inkscape:connector-curvature="0"
       style="fill:#aaaaaa;stroke-width:0.26458332"
       d="m 237.42231,68.844667 c -0.096,-0.05741 -0.17542,-0.404018 -0.17409,-0.518318 0.002,-0.167482 -0.001,-0.434182 0.0122,-0.585523 0.0278,-0.312738 0.29898,-0.337344 0.48577,-0.354013 0.10689,-0.0098 0.2495,-0.254794 0.0635,-0.307446 0.18971,-0.226748 0.11457,-0.724429 0.52652,-0.667543 0.12965,0.01799 0.82418,0.07858 0.75883,0.306387 0.0908,-0.179387 -0.0503,-0.303742 0.23812,-0.302948 0.10689,5.29e-4 0.44371,-0.01402 0.45059,0.151342 0.0556,-0.07038 0.16378,-0.03043 0.23574,-0.0336 -0.0177,-0.01244 -0.25003,-0.09816 -0.21563,-0.121444 0.15372,-0.105304 0.55536,0.05636 0.72125,0.08414 0.28998,0.04868 0.27702,0.251089 0.15055,0.466195 -0.13811,0.234157 -0.32808,0.367507 -0.31697,0.664634 0.01,0.259821 -0.0185,0.569912 0.10768,0.806714 0.10002,0.188119 0.34793,0.346869 0.21458,0.589227 -0.0458,0.08308 -0.11721,0.147373 -0.14049,0.242359 -0.0228,0.09313 0.0238,0.191293 5.3e-4,0.288925 -0.0431,0.182298 -0.17066,0.398991 -0.3011,0.531283 -0.0466,0.0471 -0.33126,-0.135467 -0.3638,-0.175683 -0.11298,-0.142082 -0.35534,0.0299 -0.51779,0.06006 -0.13097,0.02381 -0.15372,0.05265 -0.27093,-0.01138 -0.1233,-0.0672 -0.10055,-0.0026 -0.16881,0.0717 -0.17251,0.187061 0.0431,0.1778 0.0796,0.383911 0.0466,0.26035 -0.38021,0.115887 -0.48181,0.05106 -0.0741,-0.0471 -0.19155,-0.05636 -0.2487,-0.120385 -0.064,-0.07144 -0.0831,-0.170921 -0.12304,-0.255852 -0.0772,-0.163777 -0.29501,-0.424392 -0.29527,-0.602986 0,-0.0672 -0.027,-0.437091 -0.11377,-0.448469 -0.0619,-0.0077 -0.16933,0.07911 -0.22013,0.01297 -0.0487,-0.06482 -0.0156,-0.151077 -0.0931,-0.205317 z"
       id="sr" />
  </g>
</svg>
