<?xml version="1.0" encoding="UTF-8" standalone="no"?>
<!-- Created with Inkscape (http://www.inkscape.org/) -->

<svg
   xmlns:dc="http://purl.org/dc/elements/1.1/"
   xmlns:cc="http://creativecommons.org/ns#"
   xmlns:rdf="http://www.w3.org/1999/02/22-rdf-syntax-ns#"
   xmlns:svg="http://www.w3.org/2000/svg"
   xmlns="http://www.w3.org/2000/svg"
   xmlns:sodipodi="http://sodipodi.sourceforge.net/DTD/sodipodi-0.dtd"
   xmlns:inkscape="http://www.inkscape.org/namespaces/inkscape"
   width="10.534071mm"
   height="8.6351223mm"
   viewBox="0 0 10.53407 8.6351222"
   version="1.1"
   id="svg2687"
   inkscape:version="0.92.4 (5da689c313, 2019-01-14)"
   sodipodi:docname="republic_of_south_sudan.svg">
  <defs
     id="defs2681" />
  <sodipodi:namedview
     id="base"
     pagecolor="#ffffff"
     bordercolor="#666666"
     borderopacity="1.0"
     inkscape:pageopacity="0.0"
     inkscape:pageshadow="2"
     inkscape:zoom="11.2"
     inkscape:cx="18.068714"
     inkscape:cy="17.170493"
     inkscape:document-units="mm"
     inkscape:current-layer="layer1"
     showgrid="false"
     inkscape:window-width="1920"
     inkscape:window-height="1017"
     inkscape:window-x="-8"
     inkscape:window-y="-8"
     inkscape:window-maximized="1" />
  <metadata
     id="metadata2684">
    <rdf:RDF>
      <cc:Work
         rdf:about="">
        <dc:format>image/svg+xml</dc:format>
        <dc:type
           rdf:resource="http://purl.org/dc/dcmitype/StillImage" />
        <dc:title />
      </cc:Work>
    </rdf:RDF>
  </metadata>
  <g
     inkscape:label="Layer 1"
     inkscape:groupmode="layer"
     id="layer1"
     transform="translate(-72.048468,-61.565078)">
    <path
       style="fill:#ffffff;stroke-width:0.26458332"
       inkscape:connector-curvature="0"
       id="sd"
       d="m 76.306466,63.651009 0.02368,0.294169 0.118472,0.133717 0.426479,-0.05349 0.02368,-0.240683 0.308015,-0.320911 0.758184,0.534853 0.379095,0.02674 0.49756,-0.561594 0.142161,-0.320913 0.497559,-0.454626 -0.09477,-0.1872 v -0.374393 l -0.236934,-0.267428 0.497562,-0.05349 v -0.240682 h 0.473866 l -0.07108,0.668568 0.09477,0.829024 0.260628,0.133716 0.189547,0.427884 h 0.09477 l -0.04739,0.32091 0.04739,0.294172 0.153141,0.02556 0.03736,0.177167 c 0.0209,0.265642 0.142082,0.756973 -0.262466,0.800365 -0.123296,0.01349 -0.265113,-0.03625 -0.395817,-0.03043 -0.19976,0.0087 -0.114829,0.10451 -0.143404,0.268816 -0.02302,0.13388 -0.27649,0.25109 -0.05715,0.378884 0.143933,0.08308 0.314589,0.04392 0.462227,0.128058 0.151077,0.08678 0.26961,0.147373 0.342371,0.311679 0.0672,0.151342 0.17145,0.277019 0.303212,0.377296 0.12065,0.09155 0.170127,0.220134 0.298715,0.297127 0.150019,0.09049 0.111125,0.303213 0.182033,0.441325 0.08414,0.163248 0.100277,0.348721 0.186531,0.513556 0.03202,0.06138 0.06509,0.153459 0.129117,0.189707 0.07594,0.04233 0.0471,0.137583 0.110596,0.198966 0.09895,-0.126735 0.185208,-0.02487 0.30136,-0.01191 0.131498,0.01455 0.08493,0.04604 0.119327,0.134938 0.03916,0.100277 -0.02593,0.22225 -0.02593,0.324643 0,0.129117 0.07726,0.198438 0.151606,0.2921 -0.41275,0 -0.926306,-0.07382 -1.327943,0.01958 -0.254265,0.05953 -0.469107,0.465666 -0.636323,0.663045 -0.03069,0.03678 -0.151077,0.211932 -0.21299,0.195792 -0.08652,-0.02223 -0.201877,0.0164 -0.279664,-0.03307 -0.07064,-0.04551 -0.101071,-0.07805 -0.192088,-0.06059 -0.142081,0.02699 -0.7366,0.105833 -0.679185,0.333375 -0.156369,-0.05636 -0.172509,-0.10795 -0.259557,-0.227807 -0.06562,-0.09049 -0.20267,0.02381 -0.268816,0.05371 -0.115359,0.05159 -0.186002,-0.0852 -0.286279,-0.107421 -0.165365,-0.03784 -0.327555,0.179917 -0.379413,0.306387 -0.01799,-0.148431 -0.151077,-0.153458 -0.268816,-0.125677 0.130704,-0.284691 -0.307975,-0.369887 -0.45429,-0.529695 -0.06562,-0.0717 -0.128323,-0.147373 -0.187061,-0.224896 -0.06244,-0.08308 -0.04445,-0.180446 -0.131762,-0.255852 -0.265642,-0.228865 -0.249502,0.255852 -0.471223,0.236802 -0.221721,-0.01905 -0.258498,-0.267229 -0.464873,-0.06668 -0.143404,0.139435 -0.2286,0.205052 -0.408517,0.09208 -0.04709,-0.02937 -0.128587,-0.09763 -0.154252,-0.147902 -0.04815,-0.09657 -0.166422,-0.06244 -0.220398,-0.19738 -0.05106,-0.127529 -0.107949,-0.201612 -0.222779,-0.269345 -0.08255,-0.04921 -0.125148,-0.189177 -0.187589,-0.264584 -0.08625,-0.103981 -0.05054,-0.236273 -0.06085,-0.358246 -0.01614,-0.184943 -0.215371,-0.220662 -0.341578,-0.312208 -0.144197,-0.10451 -0.336285,-0.136525 -0.335491,-0.317764 2.64e-4,-0.07699 -0.09816,-0.119328 -0.137319,-0.175155 -0.07038,-0.09922 0.05874,-0.174095 0.02196,-0.269875 -0.03254,-0.08467 -0.166422,-0.110595 -0.219868,-0.183885 -0.07408,-0.101865 -0.03942,-0.170656 -0.160867,-0.240771 -0.235744,-0.135467 -0.466196,-0.229923 -0.649023,-0.43471 -0.06429,-0.0717 0.05345,-0.155575 0.05345,-0.232569 2.65e-4,-0.118269 -0.07594,-0.146315 -0.169598,-0.184944 -0.103452,-0.04233 -0.09684,-0.134408 -0.16801,-0.204523 -0.06641,-0.06562 -0.165894,-0.08572 -0.25453,-0.09975 -0.129116,-0.02011 -0.447151,-0.01228 -0.416454,-0.201083 l 0.112839,-0.235047 0.352142,-0.19559 V 64.34632 l 0.14216,-0.05348 v -0.347655 l 0.142161,-0.05348 0.118467,-0.374401 0.687105,-0.160457 0.118467,0.240687 0.213241,0.213942 0.14216,0.40114 0.355399,0.08023 0.165854,-0.160454 0.829265,0.08022 -0.04737,-0.534859 z"
       sodipodi:nodetypes="ccccccccccccccccccccccccccccccccccccccccscccccccccccccccsccccccccccccccccccscccccccccccccccc" />
    <path
       inkscape:connector-curvature="0"
       id="path5266-3-3"
       d="m 75.429802,64.212608 0.09477,0.1872 0.710801,0.02674 0.213241,-0.347655 -0.118468,-0.133715 -0.02368,-0.294169 -0.924039,0.02674 z"
       style="opacity:1;vector-effect:none;fill:none;fill-opacity:1;stroke:#ffffff;stroke-width:0.041275;stroke-linecap:round;stroke-linejoin:round;stroke-miterlimit:4;stroke-dasharray:0.1651, 0.1651;stroke-dashoffset:0;stroke-opacity:1" />
  </g>
</svg>
