<?xml version="1.0" encoding="UTF-8" standalone="no"?>
<!-- Created with Inkscape (http://www.inkscape.org/) -->

<svg
   xmlns:dc="http://purl.org/dc/elements/1.1/"
   xmlns:cc="http://creativecommons.org/ns#"
   xmlns:rdf="http://www.w3.org/1999/02/22-rdf-syntax-ns#"
   xmlns:svg="http://www.w3.org/2000/svg"
   xmlns="http://www.w3.org/2000/svg"
   xmlns:sodipodi="http://sodipodi.sourceforge.net/DTD/sodipodi-0.dtd"
   xmlns:inkscape="http://www.inkscape.org/namespaces/inkscape"
   width="1.7845364mm"
   height="1.7667643mm"
   viewBox="0 0 1.7845364 1.766764"
   version="1.1"
   id="svg7070"
   inkscape:version="0.92.4 (5da689c313, 2019-01-14)"
   sodipodi:docname="rwanda.svg">
  <defs
     id="defs7064" />
  <sodipodi:namedview
     id="base"
     pagecolor="#ffffff"
     bordercolor="#666666"
     borderopacity="1.0"
     inkscape:pageopacity="0.0"
     inkscape:pageshadow="2"
     inkscape:zoom="7.9195959"
     inkscape:cx="22.014276"
     inkscape:cy="-6.5031886"
     inkscape:document-units="mm"
     inkscape:current-layer="layer1"
     showgrid="false"
     inkscape:window-width="958"
     inkscape:window-height="1008"
     inkscape:window-x="-7"
     inkscape:window-y="0"
     inkscape:window-maximized="0" />
  <metadata
     id="metadata7067">
    <rdf:RDF>
      <cc:Work
         rdf:about="">
        <dc:format>image/svg+xml</dc:format>
        <dc:type
           rdf:resource="http://purl.org/dc/dcmitype/StillImage" />
        <dc:title />
      </cc:Work>
    </rdf:RDF>
  </metadata>
  <g
     inkscape:label="Layer 1"
     inkscape:groupmode="layer"
     id="layer1"
     transform="translate(-157.19859,-43.329498)">
    <path
       inkscape:connector-curvature="0"
       style="fill:#ffffff;stroke-width:0.26458332"
       d="m 157.20497,44.77988 c -0.0616,-0.127 0.34316,-0.292364 0.33999,-0.461962 -0.006,-0.298185 0.0336,-0.406665 0.28787,-0.554567 0.0318,-0.01852 0.19446,-0.188648 0.23442,-0.157691 0.0537,0.0418 0.0736,0.185473 0.16007,0.08996 0.068,-0.07488 0.29025,-0.405606 0.41434,-0.362215 -0.0579,0.170921 0.0892,0.387086 0.16695,0.513557 0.0974,0.15875 0.19606,0.431006 0.17039,0.612775 -0.0325,0.228864 -0.16272,0.258498 -0.35613,0.184943 -0.21934,-0.08308 -0.27252,0.115888 -0.4609,-0.05054 -0.027,0.20611 -0.01,0.431535 -0.25929,0.483658 -0.127,0.02646 -0.2458,0.04286 -0.30798,-0.08467 -0.0688,-0.139965 -0.25029,-0.128588 -0.26511,0.03863 -0.0786,-0.07355 -0.11748,-0.142346 -0.12462,-0.251884 z"
       id="rw" />
  </g>
</svg>
