<?xml version="1.0" encoding="UTF-8" standalone="no"?>
<!-- Created with Inkscape (http://www.inkscape.org/) -->

<svg
   xmlns:dc="http://purl.org/dc/elements/1.1/"
   xmlns:cc="http://creativecommons.org/ns#"
   xmlns:rdf="http://www.w3.org/1999/02/22-rdf-syntax-ns#"
   xmlns:svg="http://www.w3.org/2000/svg"
   xmlns="http://www.w3.org/2000/svg"
   xmlns:sodipodi="http://sodipodi.sourceforge.net/DTD/sodipodi-0.dtd"
   xmlns:inkscape="http://www.inkscape.org/namespaces/inkscape"
   width="18.668854mm"
   height="15.911939mm"
   viewBox="0 0 18.668854 15.911933"
   version="1.1"
   id="svg7070"
   inkscape:version="0.92.4 (5da689c313, 2019-01-14)"
   sodipodi:docname="saudi_arabia.svg">
  <defs
     id="defs7064" />
  <sodipodi:namedview
     id="base"
     pagecolor="#ffffff"
     bordercolor="#666666"
     borderopacity="1.0"
     inkscape:pageopacity="0.0"
     inkscape:pageshadow="2"
     inkscape:zoom="7.9195959"
     inkscape:cx="38.58202"
     inkscape:cy="17.587942"
     inkscape:document-units="mm"
     inkscape:current-layer="layer1"
     showgrid="false"
     inkscape:window-width="958"
     inkscape:window-height="1008"
     inkscape:window-x="-7"
     inkscape:window-y="0"
     inkscape:window-maximized="0" />
  <metadata
     id="metadata7067">
    <rdf:RDF>
      <cc:Work
         rdf:about="">
        <dc:format>image/svg+xml</dc:format>
        <dc:type
           rdf:resource="http://purl.org/dc/dcmitype/StillImage" />
        <dc:title></dc:title>
      </cc:Work>
    </rdf:RDF>
  </metadata>
  <g
     inkscape:label="Layer 1"
     inkscape:groupmode="layer"
     id="layer1"
     transform="translate(-152.30728,-24.210296)">
    <g
       transform="matrix(0.26458333,0,0,0.26458333,52.707502,-64.612282)"
       id="sa">
      <path
         style="fill:#aaaaaa"
         inkscape:connector-curvature="0"
         id="path3234"
         d="m 403.438,395.024 c -0.018,-0.357 -0.166,-0.69 -0.477,-0.89 -0.007,0.117 -0.019,0.233 -0.035,0.35 -0.414,0.017 -0.562,-0.421 -0.918,-0.54 0.346,0.574 1.231,0.562 1.43,1.08 z" />
      <path
         style="fill:#aaaaaa"
         inkscape:connector-curvature="0"
         id="path3380"
         d="m 405.569,395.611 c 0.043,-0.4 -0.201,-1.35 -0.562,-1.579 -0.185,-0.117 -1.073,-1.985 -1.021,-1.083 -0.083,-1.615 -1.201,-2.03 -2.092,-3.123 -0.337,-0.414 -0.812,-1.011 -0.971,-1.517 -0.204,-0.653 -0.572,-0.839 -0.907,-1.37 -0.195,-0.312 -0.029,-0.583 -0.254,-0.903 -0.162,-0.227 -0.432,-0.95 -0.537,-1.242 -0.1,-0.272 -0.16,-0.562 -0.288,-0.823 -0.118,-0.242 -0.364,-0.275 -0.481,-0.488 -0.113,-0.203 -0.003,-0.481 -0.158,-0.66 -0.158,-0.181 -0.418,-0.205 -0.59,-0.365 -0.43,-0.401 -0.93,-0.807 -1.311,-1.253 -0.461,-0.543 -1.003,-0.315 -1.523,-0.7 -0.865,-0.638 -1.439,-1.822 -1.982,-2.729 -0.316,-0.527 -0.226,-0.83 -0.252,-1.387 -0.029,-0.604 -0.466,-1.104 -0.512,-1.714 -0.059,-0.801 0.273,-1.597 0.113,-2.395 -0.072,-0.363 -0.271,-0.671 -0.466,-0.978 -0.103,-0.161 -0.724,-0.962 -0.022,-0.415 -0.154,-0.402 -0.504,-0.406 -0.595,-0.847 -0.081,-0.395 -0.274,-0.825 -0.429,-1.197 -0.426,-1.03 -1.258,-1.732 -2.037,-2.474 -0.569,-0.54 -1.133,-0.625 -1.826,-0.814 -0.295,-0.081 -0.437,-0.644 -0.523,-0.883 -0.186,-0.515 -0.547,-0.868 -0.869,-1.297 1.117,-0.406 -0.438,-2.238 -0.803,-2.683 -0.246,-0.297 -0.936,-0.84 -0.906,-1.233 0.053,-0.677 -0.82,-1.068 -1.113,-1.678 -0.889,-1.849 -2.293,-3.384 -3.279,-5.197 -0.301,-0.553 -0.635,-1.404 -1.297,-1.591 -0.301,-0.085 -1.484,-0.282 -1.508,0.273 -0.396,-0.361 0.244,-1.312 0.355,-1.692 0.232,-0.796 0.076,-1.62 0.176,-2.429 0.131,-1.051 0.323,-0.95 1.232,-0.823 0.76,0.106 1.77,0.556 2.527,0.454 1.528,-0.206 1.482,-2.52 2.898,-2.742 0.531,-0.084 1.6,0.03 1.777,-0.665 0.249,-0.982 0.693,-0.947 1.567,-1.476 -0.319,-0.656 -0.758,-0.956 -1.077,-1.314 -0.023,-0.027 -1.263,-0.7 -0.709,-0.47 -0.682,-0.639 -1.193,-1.323 -1.811,-2.021 l 2.794,-0.894 c 0.811,-0.26 1.686,-0.451 2.499,-0.767 0.678,-0.265 1.205,-0.851 1.964,-0.693 1.188,0.246 2.431,0.298 3.552,0.799 4.24,1.895 7.727,4.919 11.385,7.702 0.775,0.59 1.529,1.175 2.252,1.825 0.824,0.739 1.467,0.73 2.552,0.836 1.251,0.121 2.499,0.27 3.751,0.385 0.459,0.043 0.686,-0.191 1.185,-0.083 0.674,0.145 1.372,0.227 2.059,0.289 0.728,0.065 0.784,0.91 1.017,1.445 0.344,0.795 1.502,0.293 2.158,0.351 0.681,0.061 0.77,0.429 0.991,0.985 0.241,0.602 1.437,1.369 1.25,2.045 -0.061,-0.106 -0.136,-0.202 -0.225,-0.286 -0.203,0.484 0.284,0.43 0.225,0.856 0.009,0.006 2.044,0.194 1.267,0.793 0.298,0.094 0.932,1.621 1.235,0.761 -0.203,0.766 1.635,1.626 2.061,2.092 -0.227,-0.068 -0.396,-0.206 -0.508,-0.412 0.011,0.844 0.522,0.856 0.704,1.534 0.106,0.397 0.064,1.234 -0.514,0.717 0.053,0.45 -0.093,0.54 0.316,0.623 0.063,0.012 0.6,1.176 0.637,1.311 -0.119,-0.104 -0.235,-0.209 -0.349,-0.317 0.351,0.516 0.979,0.806 1.257,1.377 0.282,0.576 0.367,1.105 0.706,1.667 0.261,0.431 0.637,1.171 1.176,1.303 0.247,0.061 1.142,-0.173 1.013,0.313 0.095,-0.247 0.309,-0.338 0.539,-0.19 -0.302,0.368 -0.7,1.385 0.317,1.125 -0.067,0.018 0.647,1.107 0.703,1.188 0.449,0.636 0.947,1.236 1.426,1.851 0.575,0.735 1.275,1.999 2.263,2.174 1.513,0.267 3.062,0.287 4.584,0.58 0.444,0.086 3.267,0.82 3.452,0.15 0.548,0.786 1.097,1.572 1.645,2.357 0.439,0.63 -0.164,1.967 -0.303,2.628 -0.202,0.965 -0.404,1.931 -0.607,2.896 -0.119,0.57 -0.174,2.326 -0.731,2.584 -1.407,0.65 -2.957,1.103 -4.405,1.666 -0.846,0.329 -1.692,0.658 -2.539,0.987 -0.424,0.164 -0.847,0.329 -1.27,0.493 -0.291,0.113 -1.363,0.343 -1.173,0.652 -2.184,0.305 -4.368,0.598 -6.554,0.881 -1.003,0.131 -2.062,0.174 -3.021,0.513 -0.85,0.301 -1.609,0.8 -2.387,1.246 -1.169,0.673 -2.361,2.505 -2.607,3.814 -0.109,0.575 -0.735,1.144 -1.351,1.146 -0.644,0.003 -0.774,-0.854 -1.259,-1.12 -0.474,-0.262 -1.346,0.111 -1.871,0.055 -0.799,-0.087 -1.745,-0.094 -2.507,-0.354 -0.894,-0.307 -1.508,-0.378 -2.46,-0.378 -0.834,0 -1.561,0.531 -2.391,0.558 -0.637,0.02 -1.173,-0.797 -1.72,-0.657 -0.72,0.186 -0.783,1.162 -0.823,1.759 -0.04,0.589 0.572,1.061 -0.025,1.357 -0.6,0.299 -0.327,1.231 -1.255,1.241 -0.004,-0.08 -0.01,-0.159 -0.014,-0.236 z" />
      <path
         style="fill:#aaaaaa"
         inkscape:connector-curvature="0"
         id="path5480"
         d="m 402.358,393.341 c 0.234,0.059 0.287,0.133 0.158,0.223 -0.052,-0.075 -0.105,-0.149 -0.158,-0.223 z" />
      <path
         style="fill:#aaaaaa"
         inkscape:connector-curvature="0"
         id="path5482"
         d="m 402.517,393.562 c 0.097,0.137 0.117,0.285 0.062,0.444 -0.117,-0.032 -0.223,-0.085 -0.318,-0.158 0.085,-0.095 0.171,-0.19 0.256,-0.286 z" />
      <path
         style="fill:#aaaaaa"
         inkscape:connector-curvature="0"
         id="path5488"
         d="m 425.132,354.016 c 0.156,-0.237 0.401,-0.174 0.573,0 -0.191,0.037 -0.383,0.037 -0.573,0 z" />
    </g>
  </g>
</svg>
