<?xml version="1.0" encoding="UTF-8" standalone="no"?>
<!-- Created with Inkscape (http://www.inkscape.org/) -->

<svg
   xmlns:dc="http://purl.org/dc/elements/1.1/"
   xmlns:cc="http://creativecommons.org/ns#"
   xmlns:rdf="http://www.w3.org/1999/02/22-rdf-syntax-ns#"
   xmlns:svg="http://www.w3.org/2000/svg"
   xmlns="http://www.w3.org/2000/svg"
   xmlns:sodipodi="http://sodipodi.sourceforge.net/DTD/sodipodi-0.dtd"
   xmlns:inkscape="http://www.inkscape.org/namespaces/inkscape"
   width="5.3587017mm"
   height="4.4162207mm"
   viewBox="0 0 5.358702 4.4162192"
   version="1.1"
   id="svg7070"
   inkscape:version="0.92.4 (5da689c313, 2019-01-14)"
   sodipodi:docname="senegal.svg">
  <defs
     id="defs7064" />
  <sodipodi:namedview
     id="base"
     pagecolor="#ffffff"
     bordercolor="#666666"
     borderopacity="1.0"
     inkscape:pageopacity="0.0"
     inkscape:pageshadow="2"
     inkscape:zoom="7.9195959"
     inkscape:cx="1.2213665"
     inkscape:cy="-4.153251"
     inkscape:document-units="mm"
     inkscape:current-layer="layer1"
     showgrid="false"
     inkscape:window-width="958"
     inkscape:window-height="1008"
     inkscape:window-x="-7"
     inkscape:window-y="0"
     inkscape:window-maximized="0" />
  <metadata
     id="metadata7067">
    <rdf:RDF>
      <cc:Work
         rdf:about="">
        <dc:format>image/svg+xml</dc:format>
        <dc:type
           rdf:resource="http://purl.org/dc/dcmitype/StillImage" />
        <dc:title />
      </cc:Work>
    </rdf:RDF>
  </metadata>
  <g
     inkscape:label="Layer 1"
     inkscape:groupmode="layer"
     id="layer1"
     transform="translate(-161.51073,-36.730214)">
    <path
       style="fill:#ffffff;stroke-width:0.26458332"
       inkscape:connector-curvature="0"
       id="sn"
       d="m 161.64546,38.707109 c -0.0513,-0.0013 -0.096,0.01561 -0.13414,0.05027 -0.0148,-0.143404 0.25321,-0.188119 0.33602,-0.270669 0.18045,-0.180181 0.32544,-0.422275 0.43127,-0.652198 0.0505,-0.110066 0.29475,-1.160462 0.55139,-0.919427 0.11536,0.108479 0.7292,-5.29e-4 0.82736,-0.115358 0.1516,-0.176742 0.74771,0.0217 0.87339,0.171979 0.16986,0.202936 0.19102,0.284956 0.46937,0.313531 0.15134,0.01561 0.31961,0.31168 0.2876,0.457994 -0.0148,0.06773 0.20558,0.187325 0.24447,0.259027 0.0487,0.08969 0.0722,0.193675 0.14288,0.27014 0.0691,0.07488 0.20928,0.08414 0.25479,0.176477 0.0667,0.134937 0.26935,0.209814 0.28787,0.367242 0.008,0.07064 -0.10822,0.153193 -0.0273,0.225689 0.0669,0.06006 0.11483,0.09895 0.12488,0.202142 0.0111,0.109008 0.1061,0.373062 0.0175,0.455348 -0.0923,0.02011 -0.10054,0.06509 -0.0246,0.134673 0.0185,0.05133 0.0481,0.09472 0.0886,0.129381 0.0802,0.04498 0.002,0.132292 0.1151,0.164306 0.0608,-0.238654 0.25267,0.175683 0.28575,0.241036 0.0497,0.0979 0.0767,0.17145 0.0489,0.284691 -0.0315,0.128323 0.054,0.293159 0.01,0.398463 -0.14526,-0.06244 -0.30321,0.03545 -0.45694,0.0085 -0.16007,-0.02778 -0.25109,0.08996 -0.40349,0.08599 -0.15451,-0.0037 -0.40269,-0.259292 -0.5326,-0.167481 -0.099,0.07064 -0.068,-0.114829 -0.086,-0.128588 -0.10769,-0.08414 -0.29475,-0.07011 -0.42228,-0.06906 -0.41433,0.0034 -0.83317,0.01826 -1.24698,-0.0024 -0.19288,-0.0098 -0.27516,0.03122 -0.43206,0.130175 -0.15955,0.100806 -0.31248,0.09128 -0.49239,0.08467 -0.16431,-0.0061 -0.26644,0.07541 -0.42016,0.100277 -0.0767,0.01217 -0.17066,0.0032 -0.23839,0.05001 -0.0156,-0.0381 -0.096,-0.12065 -0.054,-0.166952 0.10584,-0.115888 0.16616,-0.173567 0.30613,-0.08467 0.10557,0.06694 0.23706,-0.03731 0.34925,-0.03916 0.0823,-0.0019 0.12303,0.06138 0.2069,0.03493 0.0651,-0.02064 0.0955,-0.0066 0.15584,0.0127 0.10716,0.03519 0.0995,-0.23548 0.22066,-0.277548 -0.18018,0.01296 -0.0757,0.165629 -0.18573,0.243681 -0.0945,0.0672 -0.34714,-0.02249 -0.37809,-0.134408 -0.0656,0.282045 -0.62839,0.07673 -0.5043,-0.06747 -0.0526,0.07594 -0.0489,0.202671 -0.15875,0.227012 -0.0188,-0.06932 5.3e-4,-0.125412 0.0585,-0.16801 -0.15001,0.03281 -0.0667,-0.192617 -0.0336,-0.292894 0.0495,-0.150283 0.17013,-0.148696 0.30427,-0.138906 0.10954,0.0077 0.22119,0.01085 0.331,0.01111 0.23283,0.0013 0.12197,-0.04022 0.254,-0.16801 0.11774,-0.113771 0.27807,-0.02831 0.41248,-0.06641 0.14923,-0.04233 0.0743,-0.257969 0.26776,-0.12753 0.28734,0.193411 0.5588,0.286809 0.88715,0.208492 0.13176,-0.03148 0.22992,-0.07726 0.10239,-0.202671 -0.14658,-0.144462 -0.24765,0.03598 -0.40217,0.02937 -0.1561,-0.0063 -0.11562,-0.240242 -0.29474,-0.168804 -0.0677,0.02699 -0.12568,-0.06932 -0.15214,-0.112448 -0.0516,-0.0844 -0.18997,-0.06085 -0.26537,-0.03651 -0.12012,0.03916 -0.20823,-0.0254 -0.2839,0.11139 -0.0598,0.107421 -0.1098,0.10451 -0.23733,0.109273 -0.24686,0.0095 -0.49186,-0.02117 -0.73819,-0.02117 0.0354,-0.07197 0.0283,-0.125148 -0.0595,-0.134408 0.0143,-0.06985 0.0593,-0.0979 0.12594,-0.0672 -0.0156,-0.0717 -0.0101,-0.141817 0.0164,-0.210344 -0.0508,0.09631 -0.11324,0.168275 -0.22648,0.184944 -0.0304,-0.09366 0.24183,-0.33364 0.33629,-0.344752 -0.10293,-0.04339 -0.37889,0.205316 -0.37809,0.302683 5.3e-4,-0.275167 -0.16881,-0.775494 -0.46197,-0.882121 z" />
  </g>
</svg>
