<?xml version="1.0" encoding="UTF-8" standalone="no"?>
<!-- Created with Inkscape (http://www.inkscape.org/) -->

<svg
   xmlns:dc="http://purl.org/dc/elements/1.1/"
   xmlns:cc="http://creativecommons.org/ns#"
   xmlns:rdf="http://www.w3.org/1999/02/22-rdf-syntax-ns#"
   xmlns:svg="http://www.w3.org/2000/svg"
   xmlns="http://www.w3.org/2000/svg"
   xmlns:sodipodi="http://sodipodi.sourceforge.net/DTD/sodipodi-0.dtd"
   xmlns:inkscape="http://www.inkscape.org/namespaces/inkscape"
   width="3.4964688mm"
   height="3.9235492mm"
   viewBox="0 0 3.4964685 3.9235497"
   version="1.1"
   id="svg7070"
   inkscape:version="0.92.4 (5da689c313, 2019-01-14)"
   sodipodi:docname="serbia.svg">
  <defs
     id="defs7064" />
  <sodipodi:namedview
     id="base"
     pagecolor="#ffffff"
     bordercolor="#666666"
     borderopacity="1.0"
     inkscape:pageopacity="0.0"
     inkscape:pageshadow="2"
     inkscape:zoom="7.9195959"
     inkscape:cx="16.518984"
     inkscape:cy="-12.679217"
     inkscape:document-units="mm"
     inkscape:current-layer="layer1"
     showgrid="false"
     inkscape:window-width="958"
     inkscape:window-height="1008"
     inkscape:window-x="-7"
     inkscape:window-y="0"
     inkscape:window-maximized="0" />
  <metadata
     id="metadata7067">
    <rdf:RDF>
      <cc:Work
         rdf:about="">
        <dc:format>image/svg+xml</dc:format>
        <dc:type
           rdf:resource="http://purl.org/dc/dcmitype/StillImage" />
        <dc:title></dc:title>
      </cc:Work>
    </rdf:RDF>
  </metadata>
  <g
     inkscape:label="Layer 1"
     inkscape:groupmode="layer"
     id="layer1"
     transform="translate(-158.65256,-42.085003)">
    <g
       transform="matrix(0.26458333,0,0,0.26458333,73.248761,-32.612415)"
       id="rs">
      <path
         style="fill:#aaaaaa"
         inkscape:connector-curvature="0"
         d="m 322.786,283.339 c 0.635,-0.199 1.471,-0.328 1.976,-0.765 0.598,-0.518 2.222,-0.179 2.666,0.46 0.466,0.669 1.533,0.829 0.954,1.98 0.464,0.313 0.939,0.842 1.476,1.041 0.521,0.192 1.066,0.132 0.447,0.714 1.019,0.126 -0.726,0.828 -1.021,0.9 -0.938,0.231 -1.093,-1.743 -2.1,-1.46 0.328,0.678 -0.615,2.278 -1.304,1.031 -0.204,-0.371 -0.364,-0.52 -0.94,-0.349 -0.439,0.13 -0.985,0.078 -1.328,0.386 0.014,-0.416 0.287,-0.595 0.03,-1.016 0.11,-0.045 0.988,-0.273 1.028,-0.234 -0.271,-0.271 -1.897,-0.655 -1.028,-1.259 -0.303,-0.011 -0.431,-0.087 -0.493,-0.38 -0.097,-0.464 -0.182,-0.604 -0.363,-1.049 z"
         id="path5962" />
      <path
         style="fill:#aaaaaa"
         inkscape:connector-curvature="0"
         d="m 323.901,289.12 c -0.008,-0.688 0.639,-1.358 0.732,-2.023 0.057,-0.4 0.841,-1.353 0.881,-0.996 0.02,0.174 -0.049,-0.747 0.104,-0.558 0.221,0.271 0.525,0.786 0.713,1.068 0.38,-0.083 0.592,-0.621 0.438,-0.937 0.819,-0.231 1.68,0.493 1.985,0.806 0.613,0.628 1.549,0.733 2.376,1.16 0.417,0.215 0.864,0.333 1.297,0.511 0.186,0.076 0.535,0.532 0.701,0.541 0.121,0.005 0.45,-0.555 0.567,-0.649 0.37,-0.296 1.013,0.083 1.255,0.379 -0.245,0.12 -0.56,0.035 -0.801,0.194 -0.288,0.189 0.505,0.918 0.643,1.044 -0.605,1.01 -1.21,1.857 -0.133,2.867 0.335,0.313 0.904,0.902 1.342,1.041 -0.148,0.337 -0.363,0.677 -0.603,0.956 -0.247,0.287 -0.671,0.078 -0.878,0.379 -0.212,0.307 -0.137,0.962 0.13,1.193 0.637,0.554 -1.397,0.823 -1.7,0.777 -0.305,-0.046 -0.953,0.534 -1.15,0.138 -0.221,-0.442 -0.068,-0.801 -0.004,-1.195 0.045,-0.271 -0.114,-0.419 -0.272,-0.502 -0.396,-0.206 -0.729,0.015 -0.852,-0.133 -0.39,-0.468 -1.276,-0.979 -1.372,-1.602 -0.174,0.12 -0.365,-0.104 -0.574,-0.075 0.254,0.588 0.137,0.592 0.028,1.101 -0.153,0.713 -5.474,-1.309 -1.026,-0.086 0.877,0.241 -1.948,-0.658 -2.711,-1.162 -0.575,-0.379 -1.533,-1.079 -0.349,-1.228 0.999,-0.125 -0.274,-1.573 -0.162,-1.602 0.21,-0.054 0.402,0.19 0.647,0.103 0.584,-0.208 0.125,-0.311 -0.02,-0.525 -0.294,-0.444 -1.099,-0.577 -1.232,-0.985 z"
         id="path5964" />
    </g>
  </g>
</svg>
