<?xml version="1.0" encoding="UTF-8" standalone="no"?>
<!-- Created with Inkscape (http://www.inkscape.org/) -->

<svg
   xmlns:dc="http://purl.org/dc/elements/1.1/"
   xmlns:cc="http://creativecommons.org/ns#"
   xmlns:rdf="http://www.w3.org/1999/02/22-rdf-syntax-ns#"
   xmlns:svg="http://www.w3.org/2000/svg"
   xmlns="http://www.w3.org/2000/svg"
   xmlns:sodipodi="http://sodipodi.sourceforge.net/DTD/sodipodi-0.dtd"
   xmlns:inkscape="http://www.inkscape.org/namespaces/inkscape"
   width="2.6790705mm"
   height="3.0910044mm"
   viewBox="0 0 2.6790706 3.0910035"
   version="1.1"
   id="svg7070"
   inkscape:version="0.92.4 (5da689c313, 2019-01-14)"
   sodipodi:docname="sierra_leone.svg">
  <defs
     id="defs7064" />
  <sodipodi:namedview
     id="base"
     pagecolor="#ffffff"
     bordercolor="#666666"
     borderopacity="1.0"
     inkscape:pageopacity="0.0"
     inkscape:pageshadow="2"
     inkscape:zoom="7.9195959"
     inkscape:cx="5.2354449"
     inkscape:cy="-15.803007"
     inkscape:document-units="mm"
     inkscape:current-layer="layer1"
     showgrid="false"
     inkscape:window-width="958"
     inkscape:window-height="1008"
     inkscape:window-x="-7"
     inkscape:window-y="0"
     inkscape:window-maximized="0" />
  <metadata
     id="metadata7067">
    <rdf:RDF>
      <cc:Work
         rdf:about="">
        <dc:format>image/svg+xml</dc:format>
        <dc:type
           rdf:resource="http://purl.org/dc/dcmitype/StillImage" />
        <dc:title></dc:title>
      </cc:Work>
    </rdf:RDF>
  </metadata>
  <g
     inkscape:label="Layer 1"
     inkscape:groupmode="layer"
     id="layer1"
     transform="translate(-160.44867,-34.973098)">
    <g
       transform="matrix(0.26458333,0,0,0.26458333,102.76262,-76.150798)"
       id="sl">
      <path
         style="fill:#aaaaaa"
         inkscape:connector-curvature="0"
         id="path2896"
         d="m 219.327,429.171 c -0.031,0.074 -0.062,0.148 -0.093,0.223 0.431,0.133 0.851,0.318 1.301,0.381 0.078,-0.17 0.136,-0.404 -0.055,-0.525 -0.326,-0.209 -0.793,-0.057 -1.153,-0.079 z" />
      <path
         style="fill:#aaaaaa"
         inkscape:connector-curvature="0"
         id="path2902"
         d="m 218.026,423.771 c 0.272,-0.25 0.621,-0.031 0.922,-0.223 0.292,-0.186 0.213,-0.689 0.569,-0.793 0.588,-0.174 0.985,-1.309 1.169,-1.822 0.308,-0.856 1.215,-0.226 1.854,-0.653 0.546,-0.366 2.077,-0.395 2.624,0.01 0.525,0.389 0.781,1.052 1.123,1.588 0.178,0.281 0.374,0.568 0.492,0.881 0.087,0.229 -0.17,0.508 -0.011,0.67 0.196,0.203 0.415,0.156 0.435,0.496 0.016,0.268 -0.084,0.73 0.12,0.943 0.286,0.303 -0.678,1.277 -0.624,1.793 0.073,-0.16 0.785,-0.535 0.953,-0.635 0.653,-0.393 0.527,0.139 0.388,0.637 -0.181,0.648 -0.924,0.396 -0.991,1.092 -0.069,0.727 -0.27,0.744 -0.618,1.334 -0.278,0.475 -0.824,0.652 -1.17,1.082 -0.374,0.463 -0.657,1.053 -1.025,1.482 -0.212,0.244 -3.1,-1.344 -3.51,-1.688 0.717,0.203 0.154,-0.137 -0.031,-0.254 0.307,-0.215 0.704,-0.215 0.984,-0.477 -0.589,0.072 -1.447,0.162 -0.953,-0.699 -0.388,0.889 -0.87,-0.111 -1.202,-0.064 -0.235,0.033 -0.439,-1.527 -0.447,-1.715 -0.486,0.113 -1.248,-0.291 -0.892,-0.922 0.21,0.166 0.433,0.314 0.667,0.445 -0.556,-0.279 0.261,-0.756 0.573,-0.73 -0.127,-0.211 -0.068,-0.156 -0.031,-0.414 -0.287,0.578 -0.566,0.281 -0.922,0.064 -0.049,0.113 -0.091,0.23 -0.128,0.35 -0.415,-0.699 -0.068,-0.969 0.539,-1.111 -0.235,-0.31 -0.698,-0.282 -0.857,-0.667 z" />
    </g>
  </g>
</svg>
