<?xml version="1.0" encoding="UTF-8" standalone="no"?>
<!-- Created with Inkscape (http://www.inkscape.org/) -->

<svg
   xmlns:dc="http://purl.org/dc/elements/1.1/"
   xmlns:cc="http://creativecommons.org/ns#"
   xmlns:rdf="http://www.w3.org/1999/02/22-rdf-syntax-ns#"
   xmlns:svg="http://www.w3.org/2000/svg"
   xmlns="http://www.w3.org/2000/svg"
   xmlns:sodipodi="http://sodipodi.sourceforge.net/DTD/sodipodi-0.dtd"
   xmlns:inkscape="http://www.inkscape.org/namespaces/inkscape"
   width="4.3188801mm"
   height="1.8071805mm"
   viewBox="0 0 4.3188798 1.8071808"
   version="1.1"
   id="svg7070"
   inkscape:version="0.92.4 (5da689c313, 2019-01-14)"
   sodipodi:docname="slovakia.svg">
  <defs
     id="defs7064" />
  <sodipodi:namedview
     id="base"
     pagecolor="#ffffff"
     bordercolor="#666666"
     borderopacity="1.0"
     inkscape:pageopacity="0.0"
     inkscape:pageshadow="2"
     inkscape:zoom="7.9195959"
     inkscape:cx="-11.963311"
     inkscape:cy="-7.5799385"
     inkscape:document-units="mm"
     inkscape:current-layer="layer1"
     showgrid="false"
     inkscape:window-width="958"
     inkscape:window-height="1008"
     inkscape:window-x="-7"
     inkscape:window-y="0"
     inkscape:window-maximized="0" />
  <metadata
     id="metadata7067">
    <rdf:RDF>
      <cc:Work
         rdf:about="">
        <dc:format>image/svg+xml</dc:format>
        <dc:type
           rdf:resource="http://purl.org/dc/dcmitype/StillImage" />
        <dc:title />
      </cc:Work>
    </rdf:RDF>
  </metadata>
  <g
     inkscape:label="Layer 1"
     inkscape:groupmode="layer"
     id="layer1"
     transform="translate(-166.1885,-45.550555)">
    <path
       inkscape:connector-curvature="0"
       style="fill:#ffffff;stroke-width:0.26458332"
       d="m 166.1885,46.484562 c 0.0918,-0.237066 0.20611,-0.194998 0.42386,-0.197379 0.0839,-0.0011 0.43762,-0.175683 0.44741,-0.253206 0.036,-0.297127 0.74137,-0.524933 0.67548,-0.306123 0.0921,-0.0127 0.31433,-0.234421 0.39476,-0.163248 0.05,0.04419 0.0738,0.110067 0.13626,0.143933 0.041,0.004 0.0783,0.01693 0.11272,0.03889 -0.009,0.03307 -0.002,0.06297 0.0204,0.08969 0.1389,0.1016 0.19235,0.05503 0.34422,-0.05662 0.0521,-0.03836 0.28998,-0.112183 0.35031,-0.05821 0.18045,0.162454 0.30348,-0.05318 0.51461,-0.03043 0.23813,0.02566 0.38894,0.10795 0.58976,0.229393 0.18653,0.112448 0.40719,0.04524 0.2622,0.294482 -0.0804,0.138377 -0.17383,0.26961 -0.20029,0.424656 -0.0526,0.311415 -0.51673,-0.110331 -0.60669,-0.09816 -0.0717,0.0095 -0.0466,0.06747 -0.12753,0.05159 -0.0971,-0.01879 -0.19288,-0.04498 -0.29104,-0.05847 -0.23177,-0.03149 -0.32914,0.0069 -0.35242,0.22913 -0.0156,0.148431 -0.33391,0.208756 -0.46276,0.151606 -0.2204,-0.09737 -0.24421,0.01508 -0.37015,0.11721 -0.0968,0.07885 -0.61039,0.02514 -0.33973,0.240771 -0.18415,0.02249 -0.37068,0.127529 -0.55853,0.06297 -0.0963,-0.03307 -0.19288,0.02513 -0.29025,0 -0.0868,-0.02222 -0.1823,-0.09842 -0.26432,-0.139171 -0.12541,-0.06191 -0.28548,-0.16801 -0.35401,-0.294481 -0.0291,-0.05371 -0.001,-0.121179 -0.0198,-0.179123 -0.0344,-0.10795 -0.0143,-0.141552 -0.0344,-0.239713 z"
       id="sk" />
  </g>
</svg>
