<?xml version="1.0" encoding="UTF-8" standalone="no"?>
<!-- Created with Inkscape (http://www.inkscape.org/) -->

<svg
   xmlns:dc="http://purl.org/dc/elements/1.1/"
   xmlns:cc="http://creativecommons.org/ns#"
   xmlns:rdf="http://www.w3.org/1999/02/22-rdf-syntax-ns#"
   xmlns:svg="http://www.w3.org/2000/svg"
   xmlns="http://www.w3.org/2000/svg"
   xmlns:sodipodi="http://sodipodi.sourceforge.net/DTD/sodipodi-0.dtd"
   xmlns:inkscape="http://www.inkscape.org/namespaces/inkscape"
   width="14.659094mm"
   height="14.662813mm"
   viewBox="0 0 14.659093 14.662813"
   version="1.1"
   id="svg2687"
   inkscape:version="0.92.4 (5da689c313, 2019-01-14)"
   sodipodi:docname="sudan.svg">
  <defs
     id="defs2681" />
  <sodipodi:namedview
     id="base"
     pagecolor="#ffffff"
     bordercolor="#666666"
     borderopacity="1.0"
     inkscape:pageopacity="0.0"
     inkscape:pageshadow="2"
     inkscape:zoom="7.9195959"
     inkscape:cx="54.314439"
     inkscape:cy="30.966421"
     inkscape:document-units="mm"
     inkscape:current-layer="layer1"
     showgrid="false"
     inkscape:window-width="1920"
     inkscape:window-height="1017"
     inkscape:window-x="-8"
     inkscape:window-y="-8"
     inkscape:window-maximized="1" />
  <metadata
     id="metadata2684">
    <rdf:RDF>
      <cc:Work
         rdf:about="">
        <dc:format>image/svg+xml</dc:format>
        <dc:type
           rdf:resource="http://purl.org/dc/dcmitype/StillImage" />
        <dc:title />
      </cc:Work>
    </rdf:RDF>
  </metadata>
  <g
     inkscape:label="Layer 1"
     inkscape:groupmode="layer"
     id="layer1"
     transform="translate(-77.371004,-59.885919)">
    <path
       style="fill:#ffffff;stroke-width:0.26458332"
       inkscape:connector-curvature="0"
       id="sd"
       d="m 77.371065,70.316049 c 0.05927,-0.142875 0.08229,-0.262732 0.214048,-0.355865 0.12356,-0.08705 0.223837,-0.150548 0.143404,-0.302154 -0.210873,-0.397404 -0.0209,-0.477308 0.27305,-0.712259 -0.07937,-0.07594 -0.211402,-0.396345 -0.08228,-0.464608 0.205052,-0.109008 0.230187,-0.305064 0.371739,-0.485246 0.176477,-0.22516 -0.121179,-0.436827 0.161396,-0.576791 0.121444,-0.06006 0.235215,0.0093 0.354013,-0.05292 0.144197,-0.07514 0.29501,-0.01984 0.439208,0.02487 0,-1.448594 -0.01455,-2.897717 -0.08414,-4.344988 h 0.87339 c -0.01085,-0.67257 -0.01931,-1.345141 -0.0418,-2.017183 h 3.381639 1.659732 c 0.216429,0 0.402431,0.04842 0.511175,-0.167746 0.102393,-0.203994 0.10795,0.08811 0.08758,0.159544 0.265906,0.04577 0.537633,0.03889 0.806185,0.02778 0.205317,-0.0085 0.534988,-0.08652 0.723106,0.01588 0.216959,0.118269 0.664898,0.468048 0.759619,0.0098 0.04313,-0.20955 0.0971,-0.253206 0.305858,-0.28919 0.210344,-0.03625 0.268288,-0.146314 0.336286,-0.339196 0.03545,-0.100277 0.08784,-0.318293 0.252677,-0.232039 0.125942,0.06588 0.333904,-0.248179 0.41275,-0.327819 0.05953,0.259027 0.235744,0.348192 0.454025,0.462227 0.195262,0.102129 0.31459,0.34925 0.50165,0.479954 0.248179,0.172773 0.132821,0.27649 0.21299,0.545571 0.06614,0.222515 0.341577,0.373592 0.352425,0.613304 -0.03995,-0.182562 -0.204259,-0.09895 -0.123032,0.08625 0.05847,0.13388 0.10795,0.302155 0.08864,0.449528 -0.04419,0.333375 0.05768,0.638968 0.07514,0.9779 0.01244,0.23786 0.09657,0.787399 0.380471,0.835289 0.163777,0.02778 0.470165,0.539221 0.579173,0.441061 0.0077,0.143933 0.258498,0.09472 0.278077,0.252147 0.01244,0.100277 -0.116681,0.302155 -0.176477,0.37809 -0.08176,0.104775 -0.357717,0.184679 -0.483923,0.232833 -0.229129,0.08652 -0.220133,0.124619 -0.279135,0.332317 -0.03043,0.106892 -0.234156,0.01852 -0.313267,0.06535 -0.109008,0.06429 -0.138642,0.334169 -0.160602,0.452438 -0.02143,0.116416 0.068,0.203729 0.0418,0.321733 -0.02381,0.108479 -0.07276,0.224367 -0.115887,0.325967 -0.108479,0.257439 -0.143404,0.522023 -0.249502,0.778404 -0.08308,0.200289 0.01191,0.485775 0.03545,0.691885 0.0299,0.258498 0.0029,0.560652 -0.04207,0.818092 -0.03731,0.211137 -0.19976,0.37121 -0.205052,0.591608 -0.0021,0.07805 0.04445,0.389996 -0.06641,0.405342 -0.166953,0.02328 -0.306653,-0.03466 -0.414603,0.136789 -0.105568,0.168275 -0.170656,0.542132 -0.340783,0.64823 -0.182827,0.114035 -0.128852,0.397139 -0.182298,0.595577 -0.02858,0.106362 -0.06112,0.290777 -0.03149,0.398991 0.03334,0.122502 -0.08811,0.177536 -0.159015,0.255588 0.0032,-0.141817 -0.168804,-0.248179 -0.269875,-0.120915 -0.132556,0.167746 -0.134408,0.264848 -0.126735,0.4699 0.0066,0.182298 -0.07461,0.346604 -0.129381,0.515673 -0.06826,0.208756 -0.01434,0.262667 -0.06773,0.473339 l -0.17279,-0.03735 -0.04739,-0.294172 0.04739,-0.32091 h -0.09477 l -0.189547,-0.427884 -0.260628,-0.133716 -0.09477,-0.829024 0.07108,-0.668568 h -0.473866 v 0.240682 l -0.497562,0.05348 0.236934,0.267428 v 0.374396 l 0.09477,0.1872 -0.497559,0.454626 -0.142161,0.320913 -0.49756,0.561594 -0.379098,-0.02673 -0.758184,-0.534853 -0.308015,0.320911 -0.02368,0.240683 -0.426479,0.05349 -0.213245,0.347653 -0.710801,-0.02674 -0.09477,-0.187186 -0.829265,-0.08023 -0.165854,0.160454 -0.355399,-0.08023 -0.14216,-0.40114 -0.213241,-0.213942 -0.118467,-0.240687 -0.687105,0.160457 -0.118467,0.374401 -0.142161,0.05348 v 0.347653 l -0.14216,0.05348 v 0.454628 l -0.42638,0.193039 c -0.1143,-0.123031 -0.464608,-0.07752 -0.617802,-0.105304 0.03175,-0.08308 0.08308,-0.166952 0.05821,-0.26035 -0.03043,0.01138 -0.06112,0.02223 -0.09207,0.0336 -0.02699,-0.138906 0.04551,-0.167481 0.116681,-0.265112 0.08228,-0.112184 0.06932,-0.293423 0.06853,-0.424657 -0.0019,-0.31115 -0.182033,-0.635 -0.399785,-0.852487 -0.121444,-0.121708 -0.248444,-0.2413 -0.32094,-0.400844 -0.07012,-0.153987 0.128588,-0.299244 0.0344,-0.457464 -0.06429,-0.107421 -0.254529,-0.127265 -0.328348,-0.275696 -0.07488,-0.148961 0.09684,-0.311944 0.0053,-0.458788 -0.03096,0.0127 -0.06165,0.02699 -0.09207,0.04207 0.03519,-0.124883 7.93e-4,-0.269611 -0.06297,-0.378619 -0.05186,-0.08943 0.120121,-0.198437 0.0063,-0.264583 -0.192088,-0.11139 -0.408781,0.179387 -0.523346,-0.129381 z"
       sodipodi:nodetypes="cccccccccccccscccccccccccccccccccccccccccccccccccccccsccccccccccccccccccccccccccccccccccccccccccccccccccccc" />
    <path
       inkscape:connector-curvature="0"
       id="path5266-3-3"
       d="m 82.859576,73.73228 0.09477,0.1872 0.710801,0.02674 0.213241,-0.347655 -0.118468,-0.133715 -0.02368,-0.294169 -0.924039,0.02674 z"
       style="opacity:1;vector-effect:none;fill:none;fill-opacity:1;stroke:#ffffff;stroke-width:0.041275;stroke-linecap:round;stroke-linejoin:round;stroke-miterlimit:4;stroke-dasharray:0.1651, 0.1651;stroke-dashoffset:0;stroke-opacity:1" />
  </g>
</svg>
