<?xml version="1.0" encoding="UTF-8" standalone="no"?>
<!-- Created with Inkscape (http://www.inkscape.org/) -->

<svg
   xmlns:dc="http://purl.org/dc/elements/1.1/"
   xmlns:cc="http://creativecommons.org/ns#"
   xmlns:rdf="http://www.w3.org/1999/02/22-rdf-syntax-ns#"
   xmlns:svg="http://www.w3.org/2000/svg"
   xmlns="http://www.w3.org/2000/svg"
   xmlns:sodipodi="http://sodipodi.sourceforge.net/DTD/sodipodi-0.dtd"
   xmlns:inkscape="http://www.inkscape.org/namespaces/inkscape"
   width="8.67733mm"
   height="12.399166mm"
   viewBox="0 0 8.6773296 12.399167"
   version="1.1"
   id="svg7070"
   inkscape:version="0.92.4 (5da689c313, 2019-01-14)"
   sodipodi:docname="sweden.svg">
  <defs
     id="defs7064" />
  <sodipodi:namedview
     id="base"
     pagecolor="#ffffff"
     bordercolor="#666666"
     borderopacity="1.0"
     inkscape:pageopacity="0.0"
     inkscape:pageshadow="2"
     inkscape:zoom="1.4"
     inkscape:cx="-6.0302469"
     inkscape:cy="-103.9839"
     inkscape:document-units="mm"
     inkscape:current-layer="layer1"
     showgrid="false"
     inkscape:window-width="958"
     inkscape:window-height="1008"
     inkscape:window-x="-7"
     inkscape:window-y="0"
     inkscape:window-maximized="0" />
  <metadata
     id="metadata7067">
    <rdf:RDF>
      <cc:Work
         rdf:about="">
        <dc:format>image/svg+xml</dc:format>
        <dc:type
           rdf:resource="http://purl.org/dc/dcmitype/StillImage" />
        <dc:title></dc:title>
      </cc:Work>
    </rdf:RDF>
  </metadata>
  <g
     inkscape:label="Layer 1"
     inkscape:groupmode="layer"
     id="layer1"
     transform="translate(-183.82553,-28.700769)">
    <g
       transform="matrix(0.26458333,0,0,0.26458333,104.58605,-24.648228)"
       id="se">
      <path
         style="fill:#aaaaaa"
         inkscape:connector-curvature="0"
         d="m 300.932,238.265 c -0.212,0.105 -0.423,0.211 -0.636,0.317 0.182,0.248 0.9,0.366 1.043,-0.006 0.088,-0.231 -0.201,-0.616 -0.407,-0.311 z"
         id="path3388" />
      <path
         style="fill:#aaaaaa"
         inkscape:connector-curvature="0"
         d="m 300.772,238.964 c -0.062,0.106 -0.127,0.211 -0.189,0.317 0.268,0.039 0.496,-0.108 0.604,-0.349 -0.138,0.01 -0.276,0.021 -0.415,0.032 z"
         id="path3390" />
      <path
         style="fill:#aaaaaa"
         inkscape:connector-curvature="0"
         d="m 314.116,244.713 c 0.052,0.197 0.072,0.399 0.061,0.603 0.534,-0.11 0.76,-1.117 0.879,-1.544 0.228,-0.81 0.622,-1.524 0.935,-2.299 -0.526,-0.015 -0.673,0.952 -0.882,1.287 -0.38,0.606 -1.168,1.114 -0.993,1.953 z"
         id="path3392" />
      <path
         style="fill:#aaaaaa"
         inkscape:connector-curvature="0"
         d="m 318.561,235.533 c -0.106,0.053 -0.212,0.106 -0.317,0.159 0.12,-0.023 0.226,-0.076 0.317,-0.159 z"
         id="path3394" />
      <path
         style="fill:#aaaaaa"
         inkscape:connector-curvature="0"
         d="m 319.453,242.68 c -0.132,-0.361 1.093,-1.361 1.363,-1.557 -1.208,-0.116 1.45,-2.001 -0.51,-1.593 -0.554,0.115 -1.066,0.579 -1.429,0.995 -0.324,0.373 -0.185,1.744 0.381,1.838 -0.182,0.2 -0.328,0.422 -0.441,0.667 0.282,0.058 0.51,-0.113 0.636,-0.35 z"
         id="path3396" />
      <path
         style="fill:#aaaaaa"
         inkscape:connector-curvature="0"
         d="m 318.85,230.737 c 0.136,0.151 0.305,0.215 0.507,0.191 -0.143,-0.233 -0.354,-0.427 -0.604,-0.54 0.031,0.116 0.063,0.233 0.097,0.349 z"
         id="path3398" />
      <path
         style="fill:#aaaaaa"
         inkscape:connector-curvature="0"
         d="m 319.258,235.279 c -0.073,0.105 -0.147,0.211 -0.221,0.318 0.216,-0.077 0.228,-0.124 0.221,-0.318 z"
         id="path3400" />
      <path
         style="fill:#aaaaaa"
         inkscape:connector-curvature="0"
         d="m 319.581,233.977 c 0.104,-0.064 0.209,-0.127 0.312,-0.191 -0.258,-0.103 -0.43,0.009 -0.44,0.286 0.042,-0.032 0.085,-0.063 0.128,-0.095 z"
         id="path3402" />
      <path
         style="fill:#aaaaaa"
         inkscape:connector-curvature="0"
         d="m 321.165,239.504 c 0.24,0.093 0.453,0.051 0.64,-0.127 -0.232,-0.282 -0.517,-0.184 -0.64,0.127 z"
         id="path3404" />
      <path
         style="fill:#aaaaaa"
         inkscape:connector-curvature="0"
         d="m 327.772,213.171 c -0.105,-0.011 -0.211,-0.021 -0.317,-0.032 0.202,0.168 0.161,0.104 0.317,0.032 z"
         id="path3408" />
      <path
         style="fill:#aaaaaa"
         inkscape:connector-curvature="0"
         d="m 299.661,235.279 c 0.469,-0.082 0.613,0.797 0.947,0.706 0.532,-0.144 0.674,-1.359 0.494,-1.752 -0.32,-0.701 0.365,-0.851 0.314,-1.455 -0.053,-0.655 1.387,-0.29 1.588,-1.18 0.147,-0.653 0.457,-1.126 0.027,-1.718 -0.238,-0.327 -0.976,-1.023 -0.314,-1.304 0.658,-0.28 0.985,-0.045 1.225,-0.948 0.162,-0.61 -0.619,-0.761 -1.027,-0.914 -0.753,-0.283 -0.855,-0.849 -0.665,-1.545 0.229,-0.834 -0.021,-1.264 -0.284,-2.041 -0.102,-0.302 -0.045,-0.597 -0.1,-0.901 -0.051,-0.278 0.294,-0.377 0.209,-0.624 -0.104,-0.303 -0.349,-0.479 -0.393,-0.817 -0.051,-0.406 0.574,-0.578 0.363,-0.929 -0.238,-0.396 0.869,-1.087 1.146,-1.297 0.727,-0.547 1.558,-0.489 2.416,-0.444 0.566,0.029 1.43,0.122 1.402,-0.672 -0.025,-0.79 -0.689,-0.888 -1.314,-1.097 0.307,-0.375 0.652,-0.715 0.994,-1.057 0.313,-0.312 0.719,-1.114 1.077,-1.308 0.452,-0.245 0.151,-2.469 0.056,-2.813 0.695,0.027 1.603,-0.045 2.219,-0.41 0.262,-0.155 0.053,-0.425 0.018,-0.632 -0.039,-0.227 0.357,-0.339 0.482,-0.471 0.562,-0.6 1.213,-1.062 1.841,-1.576 0.515,-0.42 -0.552,-0.97 -0.779,-1.167 1.021,-0.468 1.307,-1.445 2.29,-1.906 0.631,-0.295 1.023,-0.175 1.669,-0.03 0.326,0.074 1.05,-0.199 1.007,-0.63 -0.029,-0.288 -0.297,-0.705 -0.164,-0.991 0.155,-0.331 1.314,-0.005 1.583,0.021 1.048,0.103 2.668,0.812 3.591,0.104 -0.215,-0.097 -0.437,-0.17 -0.666,-0.222 0.543,-0.333 1.295,-1.076 0.349,-1.461 1.441,-0.646 3.052,0.788 4.288,1.334 0.845,0.373 1.799,0.41 2.635,0.785 0.272,0.123 1.944,1.077 1.992,1.297 0.006,0.024 -0.377,0.243 -0.381,0.429 -0.006,0.354 0.023,0.763 0.145,1.099 0.064,0.178 0.354,0.137 0.52,0.182 0.641,0.173 0.139,0.292 -0.082,0.572 -0.244,0.308 0.527,0.867 0.713,1.016 0.418,0.333 0.316,0.978 -0.035,1.367 -0.721,0.796 1,1.606 1.227,2.369 -0.713,0.097 -1.896,0.461 -2.506,-0.095 0.101,0.1 0.195,0.206 0.282,0.318 -0.511,0 -0.929,-0.11 -1.363,-0.381 -0.085,0.87 -0.872,-0.397 -1.048,0.219 -0.083,0.292 0.271,0.589 0.315,0.861 -0.323,-0.007 -0.627,-0.125 -0.917,-0.254 0.112,0.069 0.229,0.133 0.348,0.19 -0.228,0.158 -0.471,0.189 -0.732,0.096 1.029,0.304 -0.783,0.451 -0.983,0.477 0.212,0.359 0.731,0.499 0.287,1.08 -0.153,0.201 -1.007,0.797 -1.271,0.667 0.178,0.203 0.4,0.33 0.666,0.381 -0.902,0.19 0.745,0.758 0.922,1.048 -0.622,0.3 -1.494,0.646 -1.743,1.358 -0.144,0.409 -1.271,0.884 -1.182,1.247 -0.067,-0.121 -0.142,-0.237 -0.221,-0.35 -0.165,0.413 -0.731,0.549 -1.118,0.619 -0.407,0.073 -0.533,0.903 -0.916,0.175 0.104,0.536 -0.016,0.247 -0.382,0.259 -0.208,0.008 -0.379,0.486 -0.564,0.615 -0.671,0.465 -1.528,0.407 -2.23,0.937 0.222,0.028 0.443,0.039 0.666,0.031 0.013,0.354 -0.28,0.589 -0.614,0.422 -0.182,-0.091 -0.285,0.409 -0.621,0.245 0.81,-0.083 -0.184,-0.16 -0.317,-0.127 0.075,-0.359 -0.383,-0.516 -0.415,-0.858 -0.113,0.51 0.473,0.804 0.548,1.269 0.116,0.718 -0.864,1.208 -1.342,0.638 -0.247,0.568 0.075,0.977 0.667,1.016 -0.387,0.052 -0.593,0.672 -0.667,0.985 -0.113,0.48 0.51,0.727 0.349,1.144 -0.254,-0.258 -0.61,-0.45 -0.984,-0.35 1.207,0.272 -0.681,0.176 0.35,0.381 -0.889,-0.083 -0.275,0.105 -0.031,0.19 -0.926,-0.167 0.542,0.386 -0.349,0.477 0.456,0.158 0.199,0.769 0.229,1.107 0.043,0.497 0.355,0.774 0.596,1.18 -0.114,0.057 -0.23,0.11 -0.349,0.159 0.164,0.097 0.932,0.143 0.994,0.281 0.271,0.595 0.668,0.155 1.102,0.068 -0.24,0.874 1.276,0.75 1.619,1.239 -0.804,0.16 0.282,0.458 0.54,0.508 0.186,0.037 1.162,1.319 0.382,0.699 0.22,0.184 0.405,0.413 0.538,0.667 -0.488,0.016 -0.854,0.286 -1.228,0.567 -0.331,0.25 -1.296,0.395 -0.679,0.608 -0.24,0.064 -0.452,0.011 -0.635,-0.159 -0.053,0.39 1.161,0.623 1.02,0.032 0.221,0.122 0.676,0.862 0.031,0.508 0.838,0.289 -0.35,-0.014 -0.508,-0.063 0.051,0.261 0.246,0.456 0.508,0.507 -0.265,0.141 -0.562,0.161 -0.839,0.263 -0.385,0.142 -0.429,0.525 -0.741,0.72 -0.209,0.13 -0.361,-0.715 -0.706,-0.697 0.206,0.164 0.29,0.375 0.251,0.635 -0.105,-0.074 -0.211,-0.148 -0.317,-0.223 0.101,0.294 0.101,0.508 -0.317,0.318 0.057,0.104 0.109,0.21 0.158,0.318 -0.412,0.229 -0.848,0.204 -1.301,0.158 0.109,0.08 0.216,0.165 0.317,0.254 -0.706,0.375 -1.596,-0.299 -2.255,0.191 0.533,-0.133 1.302,-0.073 1.589,0.476 -0.425,0.235 -0.859,0.024 -1.302,0 0.672,0.234 1.834,1.311 0.666,1.747 0.285,-0.066 0.387,0.083 0.318,0.35 -0.221,-0.122 -0.455,-0.154 -0.701,-0.096 0.15,0.195 0.945,0.639 0.4,0.857 -0.484,0.193 0.418,0.479 0.141,0.843 -0.637,0.835 -0.046,1.705 -0.734,2.575 -0.443,0.561 -0.673,2.186 -1.692,1.88 -0.609,-0.183 -1.247,0.104 -1.865,0.063 -0.341,-0.021 -1.227,-0.097 -0.759,0.483 -0.597,0.234 -1.121,-0.128 -1.47,0.646 -0.199,0.442 0.282,0.786 0.324,1.208 0.08,0.795 -1.017,0.269 -1.336,0.298 -1.015,0.091 -1.84,0.126 -2.856,0.072 0.328,-0.013 0.558,-1.022 0.251,-1.345 -0.338,-0.357 -1.173,-1.325 -1.138,-1.831 1.086,0.38 0.458,0.001 0.379,-0.604 1.482,-0.244 0.033,-0.734 -0.328,-1.239 -0.348,-0.486 -0.847,-0.883 -1.066,-1.451 -0.142,-0.364 -0.301,-0.841 -0.797,-0.677 0.023,-0.243 0.045,-0.495 -0.008,-0.737 -0.093,-0.417 -0.779,-0.474 -0.151,-0.692 -0.607,0.217 0.003,-1.672 0.035,-1.906 -0.406,-0.085 -0.613,0.37 -1.019,0.318 0.18,-0.214 0.348,-0.437 0.507,-0.667 -0.59,-0.06 -0.119,0.338 -0.666,0.508 -0.056,-0.298 -0.27,-0.366 -0.507,-0.191 0.249,-0.595 -0.673,-2.26 -0.132,-2.632 z"
         id="path3452" />
      <path
         style="fill:#aaaaaa"
         inkscape:connector-curvature="0"
         d="m 315.765,223.526 c 0.078,0.165 0.184,0.102 0.066,0.349 -0.021,-0.116 -0.044,-0.233 -0.066,-0.349 z"
         id="path3454" />
    </g>
  </g>
</svg>
