<?xml version="1.0" encoding="UTF-8" standalone="no"?>
<!-- Created with Inkscape (http://www.inkscape.org/) -->

<svg
   xmlns:dc="http://purl.org/dc/elements/1.1/"
   xmlns:cc="http://creativecommons.org/ns#"
   xmlns:rdf="http://www.w3.org/1999/02/22-rdf-syntax-ns#"
   xmlns:svg="http://www.w3.org/2000/svg"
   xmlns="http://www.w3.org/2000/svg"
   xmlns:sodipodi="http://sodipodi.sourceforge.net/DTD/sodipodi-0.dtd"
   xmlns:inkscape="http://www.inkscape.org/namespaces/inkscape"
   width="3.5844941mm"
   height="1.9020067mm"
   viewBox="0 0 3.5844939 1.902007"
   version="1.1"
   id="svg7070"
   inkscape:version="0.92.4 (5da689c313, 2019-01-14)"
   sodipodi:docname="switzerland.svg">
  <defs
     id="defs7064" />
  <sodipodi:namedview
     id="base"
     pagecolor="#ffffff"
     bordercolor="#666666"
     borderopacity="1.0"
     inkscape:pageopacity="0.0"
     inkscape:pageshadow="2"
     inkscape:zoom="7.9195959"
     inkscape:cx="10.566264"
     inkscape:cy="-13.802714"
     inkscape:document-units="mm"
     inkscape:current-layer="layer1"
     showgrid="false"
     inkscape:window-width="958"
     inkscape:window-height="1008"
     inkscape:window-x="-7"
     inkscape:window-y="0"
     inkscape:window-maximized="0" />
  <metadata
     id="metadata7067">
    <rdf:RDF>
      <cc:Work
         rdf:about="">
        <dc:format>image/svg+xml</dc:format>
        <dc:type
           rdf:resource="http://purl.org/dc/dcmitype/StillImage" />
        <dc:title />
      </cc:Work>
    </rdf:RDF>
  </metadata>
  <g
     inkscape:label="Layer 1"
     inkscape:groupmode="layer"
     id="layer1"
     transform="translate(-160.22755,-43.809286)">
    <path
       inkscape:connector-curvature="0"
       style="fill:#ffffff;stroke-width:0.26458332"
       d="m 160.22772,45.419054 c 0.0262,-0.0508 0.0545,-0.100013 0.0852,-0.148167 0.0392,-0.07567 -0.0132,-0.138377 0.0143,-0.209286 0.0405,-0.104245 0.16299,-0.140758 0.2286,-0.222514 0.17595,-0.218546 0.35851,-0.407458 0.55457,-0.613569 -0.17568,0.02805 -0.0534,-0.238389 0.0762,-0.132292 0.17383,0.142082 0.2413,-0.0971 0.40243,-0.119856 -0.0839,0.09816 0.34131,0.02275 0.4191,0.02699 0.15161,0.0079 0.28813,0.01085 0.32094,-0.08572 -0.11615,0.04339 -0.14367,-0.06773 -0.0362,-0.09684 0.0487,-0.01323 0.12859,-0.01773 0.13097,0.03757 0.004,0.09525 0.23813,0.04895 0.27543,0.05027 0.13864,0.0056 0.29634,0.05874 0.40164,0.151077 0.13864,0.121444 -0.0675,0.319617 -0.0913,0.454554 0.26829,-0.0336 0.29025,0.160338 0.50906,0.202936 0.0944,0.01826 0.13202,-0.160338 0.23521,-0.130969 0.12092,0.03413 0.0175,0.169598 0.007,0.231775 -0.008,0.04842 0.0979,0.199231 -0.0101,0.202406 -0.0773,0.0021 -0.13785,-0.137319 -0.2114,-0.07223 -0.0265,0.02328 -0.11748,0.160602 -0.054,0.189971 0.11219,0.05133 0.0458,0.09049 0.0283,0.19976 -0.10953,-0.04392 -0.11403,-0.161925 -0.25214,-0.134408 -0.13494,0.02699 -0.14976,0.05556 -0.26035,-0.05027 -0.0109,-0.01032 -0.13097,-0.214842 -0.14711,-0.04762 -0.0148,0.153458 -0.0119,0.190764 -0.12303,0.306652 -0.14129,0.147902 -0.0143,0.494242 -0.24024,0.163512 -0.0503,-0.07355 -0.11007,-0.109802 -0.17966,-0.16166 -0.10636,-0.07937 -0.064,-0.230187 -0.16801,-0.302683 -0.0595,0.07488 -0.13017,0.150548 -0.22648,0.176477 0.1053,0.122237 -0.12568,0.337079 -0.25559,0.325173 -0.24527,-0.02249 -0.44767,0.132556 -0.635,-0.06456 -0.0659,-0.06959 -0.15742,-0.14261 -0.13467,-0.252148 0.0317,-0.153193 -0.0786,-0.193675 -0.20955,-0.18071 -0.22013,0.0217 -0.23892,0.2794 -0.45429,0.306388 z"
       id="ch" />
  </g>
</svg>
