<?xml version="1.0" encoding="UTF-8" standalone="no"?>
<!-- Created with Inkscape (http://www.inkscape.org/) -->

<svg
   xmlns:dc="http://purl.org/dc/elements/1.1/"
   xmlns:cc="http://creativecommons.org/ns#"
   xmlns:rdf="http://www.w3.org/1999/02/22-rdf-syntax-ns#"
   xmlns:svg="http://www.w3.org/2000/svg"
   xmlns="http://www.w3.org/2000/svg"
   xmlns:sodipodi="http://sodipodi.sourceforge.net/DTD/sodipodi-0.dtd"
   xmlns:inkscape="http://www.inkscape.org/namespaces/inkscape"
   width="5.3539181mm"
   height="4.99228mm"
   viewBox="0 0 5.353918 4.9922786"
   version="1.1"
   id="svg7070"
   inkscape:version="0.92.4 (5da689c313, 2019-01-14)"
   sodipodi:docname="syria.svg">
  <defs
     id="defs7064" />
  <sodipodi:namedview
     id="base"
     pagecolor="#ffffff"
     bordercolor="#666666"
     borderopacity="1.0"
     inkscape:pageopacity="0.0"
     inkscape:pageshadow="2"
     inkscape:zoom="7.9195959"
     inkscape:cx="11.007029"
     inkscape:cy="2.9281983"
     inkscape:document-units="mm"
     inkscape:current-layer="layer1"
     showgrid="false"
     inkscape:window-width="958"
     inkscape:window-height="1008"
     inkscape:window-x="-7"
     inkscape:window-y="0"
     inkscape:window-maximized="0" />
  <metadata
     id="metadata7067">
    <rdf:RDF>
      <cc:Work
         rdf:about="">
        <dc:format>image/svg+xml</dc:format>
        <dc:type
           rdf:resource="http://purl.org/dc/dcmitype/StillImage" />
        <dc:title />
      </cc:Work>
    </rdf:RDF>
  </metadata>
  <g
     inkscape:label="Layer 1"
     inkscape:groupmode="layer"
     id="layer1"
     transform="translate(-154.04061,-31.25123)">
    <path
       style="fill:#ffffff;stroke-width:0.26458332"
       inkscape:connector-curvature="0"
       id="sy"
       d="m 154.11102,35.291344 c 0.1225,-0.068 0.22066,-0.282046 0.34422,-0.310886 -0.1987,-0.185473 0.0852,-0.302154 0.25215,-0.252148 -0.14685,-0.178064 0.11985,-0.182827 0.14869,-0.358245 0.0167,-0.100013 -0.0659,-0.295805 -0.17092,-0.314325 -0.12356,-0.02143 0.0209,-0.245534 -0.14129,-0.155046 -0.22357,0.124618 -0.31432,-0.09816 -0.34766,-0.272256 -0.028,-0.147903 0.0833,-0.423334 -0.0508,-0.5334 -0.10795,-0.08837 -0.10054,-0.288132 -0.10477,-0.417248 -0.003,-0.0971 0.23891,0.01138 0.27358,0.02831 0.0259,0.0127 0.12012,-0.09208 0.15927,-0.12356 0.0857,-0.06985 0.007,-0.185738 0.0238,-0.275167 0.0823,0.01984 0.16959,-0.0037 0.25188,-0.0082 -0.0672,-0.134938 -0.14235,-0.170127 -0.12753,-0.332581 0.006,-0.05927 -0.0164,-0.23204 0.0667,-0.252677 0.0622,-0.01588 0.16298,0.05741 0.21272,0.08334 0.13388,0.07038 0.11589,0.104775 0.25374,0.08308 0.16854,-0.02646 0.25638,-0.0344 0.41698,-0.103981 0.16431,-0.07117 0.34396,-0.155046 0.52864,-0.128587 0.13652,0.01958 0.20214,0.107685 0.31723,0.16166 0.1315,0.06165 0.39397,0.06324 0.53446,0.03545 0.35666,-0.07091 0.63765,-0.217752 0.96388,-0.367506 0.32147,-0.147637 0.68395,0.04233 1.03187,-0.07673 0.17833,-0.06138 0.43207,-0.334963 0.44662,0.06006 0.004,0.0971 -0.23045,0.293423 -0.29871,0.360892 -0.12383,0.122502 -0.26141,0.114035 -0.40085,0.195527 -0.29898,0.175419 0.0143,0.55536 0.0376,0.765175 0.014,0.123825 -0.0608,0.27596 -0.0699,0.404019 -0.0135,0.191029 0.0434,0.385233 0.0169,0.572294 -0.0548,0.386027 -0.39794,0.478895 -0.70274,0.661722 -0.38682,0.23204 -0.72549,0.386821 -1.09246,0.720461 -0.30295,0.275696 -0.69189,0.439208 -1.03135,0.668602 -0.25823,0.17436 -0.67336,0.599546 -1.0078,0.365389 -0.12197,-0.08493 -0.23495,-0.121972 -0.33522,-0.237066 -0.14182,-0.161925 -0.19156,-0.0095 -0.32835,-0.0545 -0.0831,-0.02646 0.0458,-0.53684 -0.0706,-0.591873 z" />
  </g>
</svg>
