<?xml version="1.0" encoding="UTF-8" standalone="no"?>
<!-- Created with Inkscape (http://www.inkscape.org/) -->

<svg
   xmlns:dc="http://purl.org/dc/elements/1.1/"
   xmlns:cc="http://creativecommons.org/ns#"
   xmlns:rdf="http://www.w3.org/1999/02/22-rdf-syntax-ns#"
   xmlns:svg="http://www.w3.org/2000/svg"
   xmlns="http://www.w3.org/2000/svg"
   xmlns:sodipodi="http://sodipodi.sourceforge.net/DTD/sodipodi-0.dtd"
   xmlns:inkscape="http://www.inkscape.org/namespaces/inkscape"
   width="9.7837706mm"
   height="10.846964mm"
   viewBox="0 0 9.7837709 10.846962"
   version="1.1"
   id="svg7070"
   inkscape:version="0.92.4 (5da689c313, 2019-01-14)"
   sodipodi:docname="tanzania.svg">
  <defs
     id="defs7064" />
  <sodipodi:namedview
     id="base"
     pagecolor="#ffffff"
     bordercolor="#666666"
     borderopacity="1.0"
     inkscape:pageopacity="0.0"
     inkscape:pageshadow="2"
     inkscape:zoom="7.9195959"
     inkscape:cx="35.273271"
     inkscape:cy="9.0325892"
     inkscape:document-units="mm"
     inkscape:current-layer="layer1"
     showgrid="false"
     inkscape:window-width="958"
     inkscape:window-height="1008"
     inkscape:window-x="-7"
     inkscape:window-y="0"
     inkscape:window-maximized="0" />
  <metadata
     id="metadata7067">
    <rdf:RDF>
      <cc:Work
         rdf:about="">
        <dc:format>image/svg+xml</dc:format>
        <dc:type
           rdf:resource="http://purl.org/dc/dcmitype/StillImage" />
        <dc:title />
      </cc:Work>
    </rdf:RDF>
  </metadata>
  <g
     inkscape:label="Layer 1"
     inkscape:groupmode="layer"
     id="layer1"
     transform="translate(-153.69048,-38.359806)">
    <g
       transform="matrix(0.26458333,0,0,0.26458333,58.05878,-83.883403)"
       id="tz"
       style="fill:#ffffff">
      <path
         style="fill:#ffffff"
         inkscape:connector-curvature="0"
         d="m 394.546,481.236 c 0.124,0.793 0.237,1.076 0.865,1.621 0.436,0.379 0.562,-1.539 -0.139,-0.955 0.115,-0.488 -0.033,-1.287 -0.285,-1.717 -0.105,0.342 -0.547,0.656 -0.441,1.051 z"
         id="path4894" />
      <path
         style="fill:#ffffff"
         inkscape:connector-curvature="0"
         d="m 395.975,488.761 c 0.341,-0.307 0.907,-0.508 0.696,-1.082 -0.193,0.461 -0.772,0.485 -0.696,1.082 z"
         id="path4896" />
      <path
         style="fill:#ffffff"
         inkscape:connector-curvature="0"
         d="m 396.195,477.326 c 0.052,0.404 0.4,0.744 -0.065,0.795 0.111,0.068 0.218,0.141 0.322,0.221 -0.656,0.373 -0.068,0.941 0.207,0.34 0.325,-0.711 0.234,-1.404 -0.433,-1.672 -0.01,0.105 -0.02,0.21 -0.031,0.316 z"
         id="path4898" />
      <path
         style="fill:#ffffff"
         inkscape:connector-curvature="0"
         d="m 361.474,477.326 c -0.163,-0.725 0.37,-1.377 0.227,-2.096 0.771,0 1.545,-0.084 2.045,-0.762 0.361,-0.49 1.053,-1.086 1.457,-1.582 0.293,-0.359 -0.328,-0.709 -0.201,-0.973 0.152,-0.316 0.785,-0.061 0.674,-0.436 -0.074,-0.248 0.555,-0.607 0.688,-0.734 0.378,-0.363 -0.166,-0.793 0.163,-1.139 -1.014,0.285 -1.649,-0.324 -1.081,-1.234 -0.551,0.053 -0.164,-0.352 0.039,-0.674 0.256,-0.406 0.811,-0.23 1.025,-0.646 0.4,-0.775 -0.167,-2.455 -0.535,-3.191 -0.257,-0.51 -1.267,-1.311 -0.243,-1.611 1.022,-0.303 2.126,-0.168 3.183,-0.168 1.428,0 2.855,0 4.283,0 1.231,0 2.6,-0.17 3.812,0.07 1.102,0.221 2.122,1.119 3.048,1.705 1.241,0.783 2.482,1.566 3.721,2.354 1.223,0.775 2.436,1.568 3.659,2.344 0.854,0.541 1.958,0.889 2.212,1.928 0.109,0.445 -0.229,0.459 -0.321,0.84 -0.069,0.283 0.419,0.602 0.579,0.836 0.551,0.809 1.645,1.35 2.365,1.998 0.43,0.389 2.447,1.613 2.371,2.178 -0.121,0.906 -0.436,2.01 -0.812,2.844 -0.19,0.426 -0.396,0.846 -0.532,1.293 -0.068,0.211 -0.111,0.426 -0.128,0.646 -0.019,0.303 0.259,0.578 0.212,0.846 -0.203,1.143 1.645,1.23 1.414,2.451 0.998,-0.316 0.865,0.865 0.49,1.338 -0.596,0.754 -0.246,1.645 -0.649,2.377 0.692,-0.631 0.648,0.676 0.487,1.01 -0.237,0.492 -0.426,1.086 -0.355,1.637 0.066,0.512 0.814,1.371 0.252,1.482 0.426,0.08 0.177,0.873 0.508,0.84 0.537,-0.053 0.262,0.541 0.145,0.801 -0.215,0.479 0.344,0.654 0.441,1.094 0.055,0.242 -0.131,0.387 0,0.633 0.172,0.32 0.249,0.516 -0.08,0.793 0.56,-0.104 0.779,0.371 0.888,0.824 -0.099,-0.734 1.099,0.654 1.495,0.354 0.043,1.26 -1.925,2.137 -2.875,2.57 -0.363,0.166 -0.703,0.439 -1.078,0.57 -0.447,0.156 -0.934,0.07 -1.385,0.225 -0.475,0.162 -0.785,0.662 -1.268,0.82 -0.477,0.156 -1.001,-0.627 -1.592,-0.504 -0.729,0.152 -0.698,1.125 -1.328,1.467 -0.694,0.379 -1.273,0.145 -1.928,-0.156 -0.93,-0.43 -0.969,0.604 -1.695,0.404 -0.661,-0.182 -1.041,-0.148 -1.605,-0.602 -0.482,-0.387 -0.834,-0.66 -1.329,-0.111 -0.36,0.402 -1.819,0.32 -2.284,0.105 -0.158,-0.072 -0.186,-0.387 -0.264,-0.516 -0.222,-0.371 -0.602,-0.588 -0.801,-0.984 -0.278,-0.553 0.061,-1.168 -0.055,-1.754 -0.154,-0.783 -0.167,-1.611 -0.363,-2.381 -0.204,-0.803 -0.781,-1.445 -1.325,-2.043 -0.509,-0.557 -0.47,0.299 -0.646,0.6 -0.634,-0.684 -1.229,-0.045 -1.824,-0.697 -0.187,-0.205 -0.872,-0.295 -1.163,-0.416 -0.453,-0.188 -1.019,-0.365 -1.442,-0.59 -0.092,-0.062 -0.162,-0.143 -0.215,-0.24 -0.219,-0.271 -0.623,-0.15 -0.904,-0.291 -0.264,-0.131 -0.557,-0.186 -0.817,-0.322 -0.24,-0.129 -0.297,-0.428 -0.517,-0.535 -0.181,-0.09 -0.404,-0.016 -0.596,-0.07 -0.311,-0.09 -0.351,-0.422 -0.518,-0.65 -0.319,-0.434 -0.859,-0.375 -1.328,-0.461 -1.241,-0.23 -1.487,-2.436 -1.988,-3.381 -0.658,-1.24 -0.602,-2.668 -1.884,-3.502 -0.878,-0.57 -1.676,-1.918 -1.419,-2.99 0.131,-0.543 0.408,-1.076 0.264,-1.646 -0.186,-0.734 -0.544,-1.465 -0.774,-2.189 z"
         id="path5432" />
    </g>
  </g>
</svg>
