<?xml version="1.0" encoding="UTF-8" standalone="no"?>
<!-- Created with Inkscape (http://www.inkscape.org/) -->

<svg
   xmlns:dc="http://purl.org/dc/elements/1.1/"
   xmlns:cc="http://creativecommons.org/ns#"
   xmlns:rdf="http://www.w3.org/1999/02/22-rdf-syntax-ns#"
   xmlns:svg="http://www.w3.org/2000/svg"
   xmlns="http://www.w3.org/2000/svg"
   xmlns:sodipodi="http://sodipodi.sourceforge.net/DTD/sodipodi-0.dtd"
   xmlns:inkscape="http://www.inkscape.org/namespaces/inkscape"
   width="1.70636mm"
   height="5.084548mm"
   viewBox="0 0 1.7063601 5.0845466"
   version="1.1"
   id="svg7070"
   inkscape:version="0.92.4 (5da689c313, 2019-01-14)"
   sodipodi:docname="togo.svg">
  <defs
     id="defs7064" />
  <sodipodi:namedview
     id="base"
     pagecolor="#ffffff"
     bordercolor="#666666"
     borderopacity="1.0"
     inkscape:pageopacity="0.0"
     inkscape:pageshadow="2"
     inkscape:zoom="7.9195959"
     inkscape:cx="8.2950988"
     inkscape:cy="-2.7043695"
     inkscape:document-units="mm"
     inkscape:current-layer="layer1"
     showgrid="false"
     inkscape:window-width="958"
     inkscape:window-height="1008"
     inkscape:window-x="-7"
     inkscape:window-y="0"
     inkscape:window-maximized="0" />
  <metadata
     id="metadata7067">
    <rdf:RDF>
      <cc:Work
         rdf:about="">
        <dc:format>image/svg+xml</dc:format>
        <dc:type
           rdf:resource="http://purl.org/dc/dcmitype/StillImage" />
        <dc:title></dc:title>
      </cc:Work>
    </rdf:RDF>
  </metadata>
  <g
     inkscape:label="Layer 1"
     inkscape:groupmode="layer"
     id="layer1"
     transform="translate(-159.63913,-36.445235)">
    <path
       style="fill:#aaaaaa;stroke-width:0.26458332"
       inkscape:connector-curvature="0"
       id="tg"
       d="m 159.63971,36.445235 c 0.17277,0.04577 0.34899,0.06456 0.51409,0.136525 0.13123,0.05689 0.29368,0.0034 0.43471,0.0064 -0.0688,0.19341 -0.2077,0.493448 -0.0516,0.680773 0.0884,0.105833 0.41196,0.225954 0.42572,0.369623 0.0209,0.214841 -0.0275,0.464079 0.0823,0.660664 0.12277,0.220134 0.0979,0.369888 0.0934,0.631561 -0.008,0.454819 0.0789,0.906991 0.091,1.362075 0.002,0.07091 0.0233,0.341577 -0.10213,0.337873 0.0423,0.131233 0.0182,0.280987 0.0815,0.406664 0.0511,0.102394 0.12673,0.197379 0.13679,0.315648 -0.18521,0.01746 -0.37042,0.100806 -0.53816,0.176742 -8e-4,-0.08625 -0.21643,-0.194733 -0.27385,-0.246592 -0.12303,-0.110596 -0.18679,-0.280987 -0.26458,-0.423862 -0.10557,-0.193675 0.068,-0.288925 0.0616,-0.486304 -0.004,-0.131763 -0.15029,-0.145257 -0.12383,-0.272257 0.032,-0.152929 0.11827,-0.238654 0.0984,-0.407193 -0.0106,-0.08943 -0.0286,-0.181505 -8e-4,-0.269875 0.0175,-0.0553 0.0958,-0.106363 0.0773,-0.16854 -0.0519,-0.173038 -0.22648,-0.248444 -0.28892,-0.406665 0.19579,-0.01852 0.0656,-0.296068 0.12409,-0.421745 0.0323,-0.06879 0.0392,-0.184415 0.004,-0.254265 -0.0669,-0.133879 -0.16536,0.01191 -0.26299,-0.0048 0.0545,-0.07382 0.002,-0.162189 0.1262,-0.143139 -0.0264,-0.138642 0.0717,-0.376502 0.0251,-0.492654 -0.0802,-0.199496 0.0624,-0.220927 -0.14314,-0.337609 -0.10689,-0.06085 -0.25717,-0.269345 -0.24368,-0.396875 0.0106,-0.100012 0.10477,-0.162718 0.0648,-0.270933 -0.0161,-0.04233 -0.11377,-0.04445 -0.1479,-0.08123 z" />
  </g>
</svg>
