<?xml version="1.0" encoding="UTF-8" standalone="no"?>
<!-- Created with Inkscape (http://www.inkscape.org/) -->

<svg
   xmlns:dc="http://purl.org/dc/elements/1.1/"
   xmlns:cc="http://creativecommons.org/ns#"
   xmlns:rdf="http://www.w3.org/1999/02/22-rdf-syntax-ns#"
   xmlns:svg="http://www.w3.org/2000/svg"
   xmlns="http://www.w3.org/2000/svg"
   xmlns:sodipodi="http://sodipodi.sourceforge.net/DTD/sodipodi-0.dtd"
   xmlns:inkscape="http://www.inkscape.org/namespaces/inkscape"
   width="12.488234mm"
   height="7.6216083mm"
   viewBox="0 0 12.488233 7.6216069"
   version="1.1"
   id="svg7070"
   inkscape:version="0.92.4 (5da689c313, 2019-01-14)"
   sodipodi:docname="turkmenistan.svg">
  <defs
     id="defs7064" />
  <sodipodi:namedview
     id="base"
     pagecolor="#ffffff"
     bordercolor="#666666"
     borderopacity="1.0"
     inkscape:pageopacity="0.0"
     inkscape:pageshadow="2"
     inkscape:zoom="7.9195959"
     inkscape:cx="44.804368"
     inkscape:cy="-3.7485659"
     inkscape:document-units="mm"
     inkscape:current-layer="layer1"
     showgrid="false"
     inkscape:window-width="958"
     inkscape:window-height="1008"
     inkscape:window-x="-7"
     inkscape:window-y="0"
     inkscape:window-maximized="0" />
  <metadata
     id="metadata7067">
    <rdf:RDF>
      <cc:Work
         rdf:about="">
        <dc:format>image/svg+xml</dc:format>
        <dc:type
           rdf:resource="http://purl.org/dc/dcmitype/StillImage" />
        <dc:title></dc:title>
      </cc:Work>
    </rdf:RDF>
  </metadata>
  <g
     inkscape:label="Layer 1"
     inkscape:groupmode="layer"
     id="layer1"
     transform="translate(-150.66095,-26.855341)">
    <path
       style="fill:#aaaaaa;stroke-width:0.26458332"
       inkscape:connector-curvature="0"
       id="tm"
       d="m 150.66095,27.845151 c 0.39264,-0.56859 1.05595,-0.702998 1.65126,-0.407459 0.28284,0.140494 0.45456,0.396611 0.65908,0.62865 0.28178,0.320675 0.57468,0.198702 0.96256,0.225425 0.17541,0.01191 0.34369,0.0056 0.51646,0.03096 0.20797,0.03043 0.0691,-0.106363 0.0426,-0.166688 -0.14076,-0.325173 -0.20399,-0.435504 0.0558,-0.690033 0.15557,-0.152665 0.46011,0.06509 0.46302,-0.265113 0.003,-0.291835 0.37306,0.06615 0.47228,0.08969 -0.0384,-0.0418 -0.3466,-0.302948 -0.34846,-0.319088 -0.008,-0.06879 0.30216,-0.0026 0.31671,-0.06244 0.0278,-0.114036 0.13679,-0.01984 0.19738,0.0381 0.095,0.09022 0.21405,0.07938 0.32729,0.129381 0.10001,0.04392 0.0902,0.16801 0.20188,0.198438 0.10265,0.02778 0.21325,-5.3e-4 0.3175,0.0032 0.1434,0.0053 0.22304,0.08916 0.25241,0.229922 0.0362,0.172244 0.16986,0.143934 0.22384,0.287073 -0.077,-0.01243 -0.11536,0.0056 -0.0696,0.07646 0.068,0.105304 0.0643,0.112977 0.0542,0.229658 -0.0164,0.191029 0.44344,0.247121 0.56039,0.236273 0.14208,-0.01296 0.25241,0.03836 0.38788,0.06773 0.17462,0.0381 0.11192,-0.109273 0.22992,-0.107421 0.31723,0.0045 0.45826,0.320675 0.58261,0.551391 0.0609,0.112977 0.13097,0.184944 0.2294,0.265377 0.13282,0.10795 0.15822,0.252413 0.2323,0.397934 0.13203,0.259027 0.56197,0.409839 0.79745,0.555625 0.29131,0.180445 0.55854,0.455612 0.89932,0.54266 0.2712,0.06959 0.57574,0.283633 0.81201,0.43524 0.23707,0.15187 0.40666,0.335227 0.70617,0.302683 0.15452,-0.01693 0.57865,0.132292 0.68765,0.261673 0.0625,0.07461 -0.0151,0.139171 -0.0228,0.215371 -0.0127,0.124883 0.0677,0.238918 0.0881,0.35851 0.0368,0.214842 -0.5633,-0.06403 -0.64612,-0.131233 -0.0825,-0.06694 -0.11086,0.147902 -0.11112,0.176477 -8e-4,0.143404 -0.0995,0.143669 -0.21167,0.144198 -0.10477,5.29e-4 -0.22066,7.94e-4 -0.31776,0.04498 -0.14843,0.0672 -0.0553,0.189706 -0.0775,0.307181 -0.032,0.168011 -0.0645,0.233363 -0.0484,0.406929 0.013,0.141288 -0.11113,0.223309 -0.22146,0.279136 -0.28945,0.146844 -0.57309,0.386821 -0.91943,0.342106 0.0249,0.06879 0.0751,0.126735 0.13441,0.168275 -0.10821,0.05821 -0.0691,0.223044 -0.19579,0.311679 -0.13547,0.09472 -0.42175,0.09181 -0.49292,0.242888 -0.046,-0.137319 -0.15108,-0.254265 -0.3011,-0.278607 -0.21219,-0.03413 -0.30612,-0.03307 -0.50561,-0.13335 -0.0548,-0.02752 -0.0114,-0.10107 -0.0942,-0.06218 -0.0688,0.03228 -0.0799,-0.05001 -0.09,-0.1016 -0.0119,-0.0598 -0.0127,-0.125148 -0.0429,-0.179652 -0.077,-0.140758 -0.0966,0.0209 -0.0598,-0.176212 0.0217,-0.115094 -0.0746,-0.348192 -0.0952,-0.474663 -0.0243,-0.147902 -0.14499,-0.137848 -0.26882,-0.131498 -0.12435,0.0064 -0.26987,0.04683 -0.39317,0.0164 -0.16563,-0.04075 -0.25215,-0.264319 -0.37835,-0.363273 -0.15161,-0.119592 -0.40005,-0.08784 -0.52203,-0.257969 -0.11377,-0.158486 -0.1643,-0.252942 -0.3593,-0.327554 -0.20003,-0.0762 -0.35825,-0.04154 -0.56356,-0.05371 -0.17939,-0.01032 -0.28893,-0.156104 -0.45244,-0.207698 -0.15187,-0.04815 -0.44821,-0.02275 -0.52414,-0.185737 -0.0667,-0.14314 -0.12727,-0.211667 -0.28099,-0.175948 -0.0704,0.0164 -0.74639,-0.135996 -0.58155,0.134673 -0.20453,0.04498 -0.40561,-0.06535 -0.6104,-0.02222 -0.24024,0.05053 -0.39634,0.204787 -0.56197,0.370417 -0.0751,0.07514 0.002,0.171714 -0.0624,0.251883 -0.0386,0.04842 -0.10901,0.07355 -0.16484,0.09287 -0.12753,0.04339 -0.35163,0.108743 -0.47387,0.0172 -0.0963,-0.07223 -0.12515,-0.288132 -0.1524,-0.394494 -0.0606,-0.236538 -0.0434,-0.479425 -0.0998,-0.716756 -0.0344,-0.145786 0.0886,-0.356659 -0.0304,-0.467255 -0.0685,-0.0635 -0.22384,-0.105568 -0.20611,-0.224366 0,0.16166 -0.10134,-0.04022 -0.17463,-0.105834 -0.0767,-0.06906 -0.22754,-0.174625 -0.27834,-0.02011 -0.10107,-0.122767 -0.0876,-0.313531 0.05,-0.403225 -0.17701,0.170656 0.22542,0.113506 0.29395,0.134408 -0.072,0.0016 -0.10795,-0.11377 -0.1233,-0.10795 -0.0902,0.03228 -0.0688,-0.137318 -0.0706,-0.18706 -0.009,-0.246856 -0.36962,-0.09525 -0.52044,-0.175683 0.10769,0.174625 -0.0833,0.03731 -0.11826,-0.0066 -0.0492,-0.06191 -0.0656,-0.143139 -0.0709,-0.219869 -0.0109,-0.166422 0.0328,-0.328083 0.0365,-0.493447 0.002,-0.07117 0.0275,-0.17489 0.003,-0.24183 -0.0328,-0.08678 -0.10637,-0.156633 -0.13865,-0.251883 -0.0341,-0.101335 -0.0828,-0.141817 -0.1598,-0.211667 -0.0979,-0.08916 -0.11087,-0.217223 -0.23178,-0.289718 z" />
  </g>
</svg>
