<?xml version="1.0" encoding="UTF-8" standalone="no"?>
<!-- Created with Inkscape (http://www.inkscape.org/) -->

<svg
   xmlns:dc="http://purl.org/dc/elements/1.1/"
   xmlns:cc="http://creativecommons.org/ns#"
   xmlns:rdf="http://www.w3.org/1999/02/22-rdf-syntax-ns#"
   xmlns:svg="http://www.w3.org/2000/svg"
   xmlns="http://www.w3.org/2000/svg"
   xmlns:sodipodi="http://sodipodi.sourceforge.net/DTD/sodipodi-0.dtd"
   xmlns:inkscape="http://www.inkscape.org/namespaces/inkscape"
   width="7.298017mm"
   height="10.244292mm"
   viewBox="0 0 7.2980166 10.244293"
   version="1.1"
   id="svg7070"
   inkscape:version="0.92.4 (5da689c313, 2019-01-14)"
   sodipodi:docname="united_kingdom.svg">
  <defs
     id="defs7064" />
  <sodipodi:namedview
     id="base"
     pagecolor="#ffffff"
     bordercolor="#666666"
     borderopacity="1.0"
     inkscape:pageopacity="0.0"
     inkscape:pageshadow="2"
     inkscape:zoom="1.4"
     inkscape:cx="-52.55671"
     inkscape:cy="-85.114196"
     inkscape:document-units="mm"
     inkscape:current-layer="layer1"
     showgrid="false"
     inkscape:window-width="958"
     inkscape:window-height="1008"
     inkscape:window-x="-7"
     inkscape:window-y="0"
     inkscape:window-maximized="0" />
  <metadata
     id="metadata7067">
    <rdf:RDF>
      <cc:Work
         rdf:about="">
        <dc:format>image/svg+xml</dc:format>
        <dc:type
           rdf:resource="http://purl.org/dc/dcmitype/StillImage" />
        <dc:title />
      </cc:Work>
    </rdf:RDF>
  </metadata>
  <g
     inkscape:label="Layer 1"
     inkscape:groupmode="layer"
     id="layer1"
     transform="translate(-196.13565,-35.848251)">
    <g
       transform="matrix(0.26458333,0,0,0.26458333,131.32226,-24.85047)"
       id="gb"
       style="fill:#ffffff">
      <path
         style="fill:#ffffff"
         inkscape:connector-curvature="0"
         d="m 244.964,251.956 c 0.271,-0.428 0.876,-0.419 1.271,-0.667 -0.146,-0.107 -0.284,-0.224 -0.415,-0.35 0.817,0.255 1.131,-0.657 1.52,-1.103 0.37,-0.424 1.139,0.133 1.247,-0.644 0.72,0.333 1.618,-0.498 2.337,0 0.292,0.201 0.464,0.671 0.6,0.974 -0.025,-0.055 0.538,0.596 0.523,0.48 0.016,0.123 -0.613,0.43 -0.698,0.516 0.22,-0.022 0.879,-0.304 1.024,-0.013 0.147,0.294 0.432,0.895 -0.072,1.029 0.079,-0.312 -0.037,-0.729 -0.446,-0.635 0.247,0.146 0.215,0.403 0.062,0.604 0.129,-0.068 0.239,-0.059 0.331,0.027 0.032,0.218 -0.465,0.499 -0.632,0.517 -0.432,0.045 -0.431,0.768 -0.956,0.611 -0.442,-0.131 -0.523,-0.269 -0.899,-0.021 -0.319,0.21 -0.845,-0.005 -0.703,-0.435 -0.177,0.009 -1.389,-1.344 -1.471,-0.475 -0.144,1.533 -2.026,0.082 -2.623,-0.415 z"
         id="path2690" />
      <path
         style="fill:#ffffff"
         inkscape:connector-curvature="0"
         d="m 248.617,242.362 c -0.421,-0.15 -0.175,-0.576 0.189,-0.699 -0.536,-1.049 -1.075,0.9 -0.189,0.699 z"
         id="path2640" />
      <path
         style="fill:#ffffff"
         inkscape:connector-curvature="0"
         d="m 248.775,240.933 c 0.004,-0.097 0.589,-0.487 0.328,-0.564 -0.292,-0.087 -0.99,-0.142 -0.963,0.342 0.239,-0.006 0.451,0.068 0.635,0.222 z"
         id="path2642" />
      <path
         style="fill:#ffffff"
         inkscape:connector-curvature="0"
         d="m 248.617,241.282 c 0.088,-0.339 -0.018,-0.393 -0.318,-0.159 0.106,0.054 0.212,0.106 0.318,0.159 z"
         id="path2644" />
      <path
         style="fill:#ffffff"
         inkscape:connector-curvature="0"
         d="m 249.283,244.713 c 0.144,-0.128 0.303,-0.234 0.477,-0.318 -0.256,-0.057 -0.425,0.068 -0.477,0.318 z"
         id="path2646" />
      <path
         style="fill:#ffffff"
         inkscape:connector-curvature="0"
         d="m 250.457,239.218 c 0.517,0.716 1.103,-0.625 0.511,-0.413 0.31,-0.039 1.336,-0.47 0.667,-0.603 0.59,-0.269 0.477,-1.054 -0.146,-0.623 -0.306,0.211 -0.672,0.261 -0.987,0.45 -0.342,0.205 -0.045,0.562 -0.487,0.713 -0.008,-0.117 -0.02,-0.234 -0.036,-0.35 -0.24,0.047 -0.453,0.153 -0.635,0.318 0.27,0.192 0.427,0.4 -0.031,0.508 0.232,0.049 0.444,0.145 0.635,0.286 -0.22,0.102 -0.431,0.218 -0.635,0.349 0.353,0.58 1.063,-0.253 1.144,-0.635 z"
         id="path2648" />
      <path
         style="fill:#ffffff"
         inkscape:connector-curvature="0"
         d="m 249.979,244.269 c 0.244,-0.081 0.435,-0.229 0.574,-0.445 -0.242,0.062 -0.453,0.224 -0.574,0.445 z"
         id="path2650" />
      <path
         style="fill:#ffffff"
         inkscape:connector-curvature="0"
         d="m 250.682,247.826 c 0.526,-0.233 0.978,-0.742 0.26,-1.142 -0.459,-0.255 -0.708,0.514 -0.865,0.792 0.211,-0.129 0.433,-0.235 0.666,-0.317 0.046,0.229 0.026,0.451 -0.061,0.667 z"
         id="path2652" />
      <path
         style="fill:#ffffff"
         inkscape:connector-curvature="0"
         d="m 251.983,242.649 c 0.367,-0.101 0.95,-0.428 0.887,-0.89 -1.395,0.492 -0.8,-1.193 -1.553,-1.461 -0.078,0.205 -0.12,0.416 -0.128,0.635 -0.63,-0.147 -0.547,0.252 -1.019,0.159 -0.076,0.638 0.7,0.242 0.988,0.54 -0.721,0.052 0.016,0.504 0.291,0.501 0.304,-0.003 0.648,-0.158 0.944,-0.025 -0.26,0.062 -0.431,0.268 -0.41,0.541 z"
         id="path2654" />
      <path
         style="fill:#ffffff"
         inkscape:connector-curvature="0"
         d="m 251.634,268.124 c 0.389,0.088 0.945,-0.669 1.244,-0.907 0.549,-0.438 1.626,-0.075 1.995,-0.744 0.002,0.411 0.82,0.808 1.157,0.834 0.63,0.049 1.039,-1.194 1.036,-1.661 0.198,0.371 0.891,-0.003 1.146,-0.093 0.668,-0.236 1.353,0.071 1.841,0.538 0.042,-0.41 0.46,-0.287 0.735,-0.236 0.3,0.055 1.156,-0.21 0.346,-0.367 0.368,0 2.68,-0.011 2.029,-0.635 0.387,0.395 0.879,0.086 1.337,0.191 0.119,0.023 0.173,0.09 0.161,0.199 0.014,0.188 0.768,-0.018 0.76,-0.017 0.677,-0.085 1.321,-0.116 1.982,0.079 0.555,0.164 1.337,-0.263 1.883,-0.406 0.481,-0.127 0.587,-0.286 0.909,-0.582 0.347,-0.318 1.023,-0.248 1.231,-0.728 0.232,-0.532 -2.254,-0.606 -2.515,-0.642 0.176,-0.047 0.347,-0.111 0.512,-0.191 -0.321,-0.075 -0.662,-0.153 -0.953,0.064 0.287,-0.306 0.676,-0.184 1.037,-0.253 0.606,-0.118 0.585,-0.729 -0.021,-0.794 0.235,0.048 0.382,-0.147 0.568,-0.237 0.369,-0.18 0.645,0.187 1.051,-0.176 -0.101,-0.218 -0.271,-0.345 -0.507,-0.381 0.253,-0.047 0.86,-0.009 0.189,-0.253 0.926,0.278 1.058,-0.321 1.453,-0.981 0.513,-0.855 0.422,-1.681 -0.569,-2.173 -0.574,-0.285 -1.888,-0.683 -2.457,-0.195 -0.195,0.167 -0.263,0.529 -0.523,0.617 -0.395,0.133 -0.637,-0.505 -1.05,-0.413 0.515,-0.779 1.58,-0.828 0.688,-1.965 -0.738,-0.942 -1.548,-0.887 -2.589,-1.021 0.691,-0.3 1.918,-0.039 2.475,0.413 -0.128,-0.443 -1.545,-1.659 -0.538,-1.938 -0.65,-0.167 -0.775,-0.822 -1.209,-1.239 -0.404,-0.389 -1.027,-0.377 -1.536,-0.457 -0.853,-0.133 -1.083,-2.161 -1.136,-2.819 -0.088,-1.095 -1.46,-2.043 -2.51,-2.235 -0.277,-0.05 -0.508,-0.434 -0.808,-0.165 -0.192,0.173 -0.373,0.257 -0.631,0.253 -0.686,-0.011 -1.634,0.031 -2.145,-0.519 1.063,0.791 1.787,-0.318 2.859,-0.318 0.61,0 0.391,-0.471 0.07,-0.723 -0.452,-0.357 -0.913,0.21 -1.407,0.151 1.254,-0.244 2.276,-0.827 3.083,-1.821 0.363,-0.447 0.471,-0.975 0.78,-1.433 0.214,-0.318 0.8,-0.525 0.635,-0.996 -0.296,-0.849 -1.975,-0.524 -2.671,-0.447 -0.723,0.081 -1.421,-0.204 -2.125,0.007 -0.594,0.178 -1.27,0.547 -1.858,0.655 0.09,-0.302 0.438,-0.329 0.538,-0.635 -0.348,-0.033 -0.66,0.132 -0.984,0.222 0.383,-0.395 1.351,-0.121 1.527,-0.73 -0.457,-0.107 -1.006,-0.002 -1.398,-0.318 0.754,0.289 0.609,0.099 1.103,-0.232 0.407,-0.273 0.897,-0.388 1.308,-0.651 0.169,-0.108 2.328,-1.516 1.204,-1.742 -0.685,-0.138 -1.539,0.192 -2.206,0.322 -0.372,0.073 -0.77,0.164 -1.151,0.133 -0.095,-0.007 -0.222,-0.025 -0.287,-0.107 -0.104,-0.132 -0.55,0.202 -0.703,0.276 0.339,-0.552 0.04,-0.171 -0.202,-0.319 -0.097,-0.059 -0.267,-0.273 -0.402,-0.241 -0.278,0.064 -0.172,0.873 -0.57,1.068 0.122,0.066 0.38,0.157 0.38,0.286 -0.963,-0.441 -0.67,0.608 -1.143,0.763 0.242,0.101 0.441,0.296 0.538,0.541 -0.31,0.12 -1.416,-0.292 -1.332,0.349 -0.096,-0.589 -0.811,0.41 -0.031,0.89 -0.211,-0.028 -0.423,-0.039 -0.635,-0.032 -0.051,0.615 0.458,0.618 0.922,0.572 -0.235,0.074 -0.447,0.19 -0.635,0.349 0.283,-0.105 0.595,-0.046 0.763,0.223 -0.415,-0.48 -0.972,0.444 -0.035,0.38 -0.1,0.037 -1.618,0.102 -0.569,0.477 -0.456,-0.406 -0.965,0.354 -0.349,0.477 -0.255,-0.037 -0.406,0.093 -0.415,0.35 -0.343,-0.164 -0.788,-0.123 -1.081,0.127 0.503,0.117 1.201,-0.219 1.65,0.095 -0.359,-0.164 -0.594,0.259 -0.953,0.095 0.297,1.309 1.923,-0.278 2.449,-0.572 -0.208,0.23 -0.331,0.594 0.189,0.381 -0.255,0.051 -1.59,0.658 -0.728,0.572 -0.108,0.104 -0.216,0.211 -0.322,0.317 0.227,0.012 0.45,-0.009 0.67,-0.063 -0.131,0.071 -0.731,0.096 -0.77,0.144 -0.108,0.135 -0.271,0.25 -0.416,0.342 -0.17,0.108 -0.052,0.416 -0.071,0.587 -0.021,0.186 -0.892,1.398 -0.142,0.515 -0.375,0.261 -0.308,1.249 0.221,0.794 -0.583,0.329 -0.6,0.962 -0.981,1.443 -0.267,0.336 0.568,0.586 0.654,-0.087 0.062,-0.481 0.701,-1.039 0.539,-1.498 -0.229,-0.652 0.748,-1.052 1.156,-1.287 -0.27,0.235 -0.986,0.594 -0.911,1.046 0.054,0.214 0.179,0.268 0.372,0.16 0.105,0.204 0.241,0.385 0.411,0.541 0.076,-0.271 -0.083,-0.54 -0.318,-0.667 0.249,-0.338 0.385,-0.115 0.446,0.158 0.442,-0.396 0.138,-1.154 0.666,-1.048 -0.221,0.185 -0.253,0.396 -0.093,0.635 -0.067,-0.6 0.299,0.035 0.666,0.191 -0.249,-0.013 -0.816,-0.226 -0.922,0.14 -0.204,0.698 0.264,0.686 0.483,1.179 0.374,0.84 -1.521,1.33 -1.148,2.334 -0.041,-0.071 -0.46,-0.456 -0.518,-0.237 -0.109,0.418 0.568,0.991 0.804,1.253 -0.249,-0.731 0.044,-0.876 0.728,-0.566 0.564,0.256 0.673,0.238 0.698,-0.45 0.658,0.653 1.073,0.391 1.812,0.176 0.229,-0.066 0.587,-0.141 0.539,-0.462 0.507,0.062 1.019,0.026 1.526,0.063 -0.572,0.38 -1.257,0.429 -1.588,1.112 -0.21,0.433 0.183,1.879 0.825,1.525 -0.093,0.239 -0.05,0.451 0.127,0.635 0.134,-0.18 0.25,-0.37 0.349,-0.571 0.093,0.391 0.425,0.198 0.635,0.063 -0.207,0.283 -0.204,0.645 -0.445,0.953 -0.14,0.179 -0.701,0.911 0.066,0.794 -0.772,0.385 -0.53,1.706 0.411,1.398 -0.428,0.313 -1.729,-0.884 -1.077,0.413 -0.879,-0.749 -2.131,0.025 -3.084,0 0.352,-0.433 -0.756,-0.837 -1.038,-0.599 -0.57,0.481 0.358,1.154 0.91,0.663 -0.518,0.581 -1.252,0.921 -1.747,1.525 0.644,0.05 1.231,-0.678 1.875,-0.35 -0.161,0.265 -0.016,0.526 0.225,0.667 -0.382,0.176 -0.281,0.664 0.159,0.604 -0.36,0.051 -0.386,0.393 -0.523,0.656 -0.179,0.346 -0.634,0.552 -0.979,0.68 -0.766,0.284 -1.875,0.479 -2.375,1.109 0.274,0.109 0.372,0.337 0.159,0.572 0.341,0.072 0.686,0.033 0.922,-0.254 -0.166,0.306 -0.5,0.404 -0.825,0.381 0.431,0.547 1.75,-0.075 2.193,-0.381 -0.024,0.46 0.507,0.477 0.825,0.381 -0.134,0.196 -0.315,0.249 -0.542,0.159 0.088,0.552 0.498,0.283 0.824,0.13 0.503,-0.234 0.78,0.54 1.219,0.731 0.801,0.349 0.933,-0.375 1.586,-0.47 0.714,-0.104 1.198,-0.476 1.77,-0.9 -0.545,0.653 -1.312,1.104 -1.906,1.715 -0.155,0.159 0.074,0.351 -0.255,0.394 -0.374,0.048 -0.752,0.071 -1.124,-0.006 -0.524,-0.108 -1.407,-0.291 -1.911,0.012 -0.302,0.182 -0.321,0.542 -0.629,0.727 -0.425,0.254 -0.506,-0.378 -0.658,0.375 -0.061,0.302 -0.807,1.448 -1.193,1.36 -0.238,-0.054 -0.298,-0.044 -0.388,0.221 -0.144,0.421 -0.74,0.613 -1.112,0.765 -0.297,0.121 -0.626,0.253 -0.878,0.457 -0.105,0.084 0.027,0.375 0.141,0.35 0.398,-0.086 0.883,-0.43 1.081,0.142 z"
         id="path2656" />
      <path
         style="fill:#ffffff"
         inkscape:connector-curvature="0"
         d="m 251.091,242.935 c 0.063,-0.032 0.127,-0.064 0.19,-0.096 -0.082,-0.302 -0.293,-0.354 -0.507,-0.127 0.106,0.074 0.212,0.148 0.317,0.223 z"
         id="path2658" />
      <path
         style="fill:#ffffff"
         inkscape:connector-curvature="0"
         d="m 251.061,245.285 c 0.559,-0.039 1.076,-0.27 1.619,-0.381 -0.107,-0.599 -1.372,-1.185 -1.747,-0.54 0.255,0.02 0.466,0.126 0.635,0.318 -0.221,0.17 -0.526,0.416 0.066,0.317 -0.226,0.024 -0.418,0.119 -0.573,0.286 z"
         id="path2660" />
      <path
         style="fill:#ffffff"
         inkscape:connector-curvature="0"
         d="m 251.604,247.032 c 0.271,-0.415 0.737,-0.754 0.825,-1.271 -0.422,0.253 -0.656,0.748 -1.112,0.952 0.082,0.119 0.178,0.225 0.287,0.319 z"
         id="path2662" />
      <path
         style="fill:#ffffff"
         inkscape:connector-curvature="0"
         d="m 251.983,241.568 c 0.097,-0.212 0.161,-0.435 0.189,-0.667 -0.198,0.184 -0.261,0.407 -0.189,0.667 z"
         id="path2664" />
      <path
         style="fill:#ffffff"
         inkscape:connector-curvature="0"
         d="m 253.699,248.334 c 0.424,-0.172 0.29,-1.08 -0.194,-1.048 -0.565,0.037 -0.302,1.08 0.194,1.048 z"
         id="path2666" />
      <path
         style="fill:#ffffff"
         inkscape:connector-curvature="0"
         d="m 260.242,236.422 c 0.063,-0.256 -0.019,-0.511 -0.318,-0.54 -0.065,0.258 0.083,0.453 0.318,0.54 z"
         id="path2670" />
      <path
         style="fill:#ffffff"
         inkscape:connector-curvature="0"
         d="m 260.242,235.724 c 0.332,0.3 1.211,0.451 1.491,0 -0.345,-0.024 -0.928,0 -1.053,-0.426 -0.1,-0.345 -0.969,-0.011 -0.438,0.426 z"
         id="path2672" />
      <path
         style="fill:#ffffff"
         inkscape:connector-curvature="0"
         d="m 261.005,236.582 c 0.106,-0.104 0.159,-0.231 0.159,-0.381 -0.339,-0.025 -0.392,0.102 -0.159,0.381 z"
         id="path2674" />
      <path
         style="fill:#ffffff"
         inkscape:connector-curvature="0"
         d="m 261.354,234.834 c 0.047,-0.219 -0.038,-0.367 -0.256,-0.445 -0.116,0.251 -0.012,0.412 0.256,0.445 z"
         id="path2676" />
      <path
         style="fill:#ffffff"
         inkscape:connector-curvature="0"
         d="m 261.861,234.993 c 0.186,-0.151 0.388,-0.278 0.604,-0.381 -0.279,-0.04 -0.507,0.126 -0.604,0.381 z"
         id="path2678" />
      <path
         style="fill:#ffffff"
         inkscape:connector-curvature="0"
         d="m 265.77,232.103 c -0.053,0.116 -0.106,0.233 -0.159,0.35 0.692,0.001 0.729,-1.186 0.983,-1.621 -0.265,-0.021 -0.409,-0.174 -0.348,-0.444 -0.106,0.074 -0.212,0.148 -0.318,0.222 -0.024,-0.224 0.017,-0.437 0.124,-0.635 -0.396,-0.055 -0.325,0.449 -0.728,0.349 0.175,0.215 0.387,0.384 0.635,0.508 -0.301,0.168 -0.64,0.244 -0.984,0.223 0.11,0.56 0.151,0.146 0.578,0.291 0.349,0.118 0.527,0.476 0.217,0.757 z"
         id="path2776" />
      <path
         style="fill:#ffffff"
         inkscape:connector-curvature="0"
         d="m 266.498,230.419 c 0.231,-0.178 0.573,-0.71 0.031,-0.73 0.03,0.236 -0.177,0.509 -0.031,0.73 z"
         id="path2778" />
      <path
         style="fill:#ffffff"
         inkscape:connector-curvature="0"
         d="m 267.292,229.784 c 0.464,-0.774 -0.906,-0.117 0,0 z"
         id="path2780" />
      <path
         style="fill:#ffffff"
         inkscape:connector-curvature="0"
         d="m 267.164,230.165 c 0.107,-0.042 0.215,-0.084 0.322,-0.127 -0.318,-0.172 -0.425,-0.129 -0.322,0.127 z"
         id="path2782" />
      <path
         style="fill:#ffffff"
         inkscape:connector-curvature="0"
         d="m 263.388,265.996 c 0.274,-0.025 0.515,-0.189 0.666,-0.414 -0.519,-0.289 -0.813,-0.197 -1.301,0.095 0.226,0.077 0.437,0.183 0.635,0.319 z"
         id="path5354" />
    </g>
  </g>
</svg>
