<?xml version="1.0" encoding="UTF-8" standalone="no"?>
<!-- Created with Inkscape (http://www.inkscape.org/) -->

<svg
   xmlns:dc="http://purl.org/dc/elements/1.1/"
   xmlns:cc="http://creativecommons.org/ns#"
   xmlns:rdf="http://www.w3.org/1999/02/22-rdf-syntax-ns#"
   xmlns:svg="http://www.w3.org/2000/svg"
   xmlns="http://www.w3.org/2000/svg"
   xmlns:sodipodi="http://sodipodi.sourceforge.net/DTD/sodipodi-0.dtd"
   xmlns:inkscape="http://www.inkscape.org/namespaces/inkscape"
   width="4.1183014mm"
   height="3.4612966mm"
   viewBox="0 0 4.1183014 3.4612953"
   version="1.1"
   id="svg7070"
   inkscape:version="0.92.4 (5da689c313, 2019-01-14)"
   sodipodi:docname="united_arab_emirates.svg">
  <defs
     id="defs7064" />
  <sodipodi:namedview
     id="base"
     pagecolor="#ffffff"
     bordercolor="#666666"
     borderopacity="1.0"
     inkscape:pageopacity="0.0"
     inkscape:pageshadow="2"
     inkscape:zoom="7.9195959"
     inkscape:cx="15.049907"
     inkscape:cy="-5.5442559"
     inkscape:document-units="mm"
     inkscape:current-layer="layer1"
     showgrid="false"
     inkscape:window-width="958"
     inkscape:window-height="1008"
     inkscape:window-x="-7"
     inkscape:window-y="0"
     inkscape:window-maximized="0" />
  <metadata
     id="metadata7067">
    <rdf:RDF>
      <cc:Work
         rdf:about="">
        <dc:format>image/svg+xml</dc:format>
        <dc:type
           rdf:resource="http://purl.org/dc/dcmitype/StillImage" />
        <dc:title />
      </cc:Work>
    </rdf:RDF>
  </metadata>
  <g
     inkscape:label="Layer 1"
     inkscape:groupmode="layer"
     id="layer1"
     transform="translate(-158.53348,-30.540544)">
    <g
       transform="matrix(0.26458333,0,0,0.26458333,44.007532,-64.37899)"
       id="ae"
       style="fill:#ffffff">
      <path
         style="fill:#ffffff"
         inkscape:connector-curvature="0"
         id="path2704"
         d="m 440.189,366.151 c 0.221,0.015 0.39,-0.07 0.507,-0.255 -0.288,-0.237 -0.652,-0.182 -0.824,0.159 0.106,0.033 0.211,0.064 0.317,0.096 z" />
      <path
         style="fill:#ffffff"
         inkscape:connector-curvature="0"
         id="path2784"
         d="m 432.854,365.578 c 0.216,-0.143 0.3,-0.058 0.251,0.255 0.104,-0.099 0.209,-0.193 0.317,-0.286 0.206,0.301 0.023,0.735 0.256,1.017 0.226,0.271 0.746,0.208 1.051,0.19 0.396,-0.023 0.73,-0.086 1.035,-0.359 0.139,-0.125 0.299,-0.489 0.486,-0.529 0.205,-0.046 0.714,0.262 0.965,0.267 0.412,0.01 0.821,0.058 1.232,0.043 1.117,-0.04 1.889,0.475 2.983,-0.183 -0.1,-0.153 -0.206,-0.302 -0.318,-0.445 0.345,-0.13 0.297,0.285 0.569,0.255 0.396,-0.045 0.732,-0.522 0.894,-0.839 0.439,-0.864 0.496,-1.356 1.265,-1.998 0.749,-0.625 1.054,-1.752 1.762,-2.336 0.783,-0.646 1.254,-0.818 1.479,-1.879 0.571,0.028 0.325,0.854 0.329,1.203 0.008,0.659 0.724,0.325 0.81,1.058 0.086,0.734 0.396,1.432 0.01,2.144 -0.523,0.966 -0.651,0.547 -0.969,-0.057 -0.373,-0.706 -0.635,0.439 -0.577,0.756 0.044,0.237 0.124,0.287 -0.027,0.494 -0.199,0.273 0.205,0.664 0.14,0.978 -0.104,0.502 0.882,0.485 0.542,0.982 -0.311,0.456 -1.137,0.177 -1.498,0.605 0.546,0.32 0.108,1.21 -0.062,1.621 -0.318,0.769 -0.554,1.508 -0.5,2.344 0.057,0.873 -0.389,1.072 -1.148,0.895 -0.936,-0.22 -1.902,-0.308 -2.852,-0.448 -0.996,-0.147 -1.991,-0.294 -2.99,-0.418 -0.733,-0.092 -1.613,0.054 -2.105,-0.6 -0.499,-0.663 -0.976,-1.335 -1.5,-1.981 -0.366,-0.451 -0.742,-0.895 -1.112,-1.343 -0.373,-0.456 -0.432,-0.924 -0.718,-1.406 z" />
    </g>
  </g>
</svg>
