<?xml version="1.0" encoding="UTF-8" standalone="no"?>
<!-- Created with Inkscape (http://www.inkscape.org/) -->

<svg
   xmlns:dc="http://purl.org/dc/elements/1.1/"
   xmlns:cc="http://creativecommons.org/ns#"
   xmlns:rdf="http://www.w3.org/1999/02/22-rdf-syntax-ns#"
   xmlns:svg="http://www.w3.org/2000/svg"
   xmlns="http://www.w3.org/2000/svg"
   xmlns:sodipodi="http://sodipodi.sourceforge.net/DTD/sodipodi-0.dtd"
   xmlns:inkscape="http://www.inkscape.org/namespaces/inkscape"
   width="4.4560661mm"
   height="4.8839378mm"
   viewBox="0 0 4.456066 4.8839381"
   version="1.1"
   id="svg7070"
   inkscape:version="0.92.4 (5da689c313, 2019-01-14)"
   sodipodi:docname="uruguay.svg">
  <defs
     id="defs7064" />
  <sodipodi:namedview
     id="base"
     pagecolor="#ffffff"
     bordercolor="#666666"
     borderopacity="1.0"
     inkscape:pageopacity="0.0"
     inkscape:pageshadow="2"
     inkscape:zoom="1.4"
     inkscape:cx="35.090659"
     inkscape:cy="-49.637954"
     inkscape:document-units="mm"
     inkscape:current-layer="layer1"
     showgrid="false"
     inkscape:window-width="958"
     inkscape:window-height="1008"
     inkscape:window-x="-7"
     inkscape:window-y="0"
     inkscape:window-maximized="0" />
  <metadata
     id="metadata7067">
    <rdf:RDF>
      <cc:Work
         rdf:about="">
        <dc:format>image/svg+xml</dc:format>
        <dc:type
           rdf:resource="http://purl.org/dc/dcmitype/StillImage" />
        <dc:title />
      </cc:Work>
    </rdf:RDF>
  </metadata>
  <g
     inkscape:label="Layer 1"
     inkscape:groupmode="layer"
     id="layer1"
     transform="translate(-172.94562,-50.595029)">
    <path
       inkscape:connector-curvature="0"
       style="fill:#ffffff;stroke-width:0.26458332"
       d="m 172.94578,51.051247 c 0.0757,-0.106892 0.21696,-0.202671 0.15875,-0.353483 0.11245,0.08176 0.22728,0.143139 0.36645,0.0717 0.0765,-0.03916 0.0783,-0.159279 0.17727,-0.172509 0.18177,-0.02487 0.36063,0.19738 0.4826,0.302948 0.15981,0.137584 0.46487,0.255852 0.49345,0.49239 0.0103,0.0852 -0.006,0.227277 0.11588,0.197379 0.0879,-0.02222 0.24263,-0.103981 0.18918,-0.219604 0.14817,0.03863 0.43392,0.503767 0.55404,0.460375 0.11218,-0.04075 0.13335,0.04868 0.22463,0.104775 0.12065,0.07541 0.24024,0.07541 0.34766,0.185473 0.0783,0.08017 0.1442,0.1778 0.23971,0.239712 0.12409,0.08123 0.2757,0.09446 0.39106,0.193675 0.21087,0.182298 0.2749,0.415925 0.53869,0.54663 0.29845,0.147902 0.1561,0.234156 0.0143,0.455347 -0.10319,0.161132 -0.0312,0.581819 0.12991,0.6858 0.10292,0.06615 -0.0667,0.459846 -0.13626,0.577321 -0.0582,0.09816 -0.25109,0.510117 -0.42148,0.358246 0.09,0.1143 -0.10981,0.174625 -0.18283,0.203994 -0.20849,0.08414 -0.27887,0.08996 -0.50297,0.04286 -0.17939,-0.03784 -0.37121,-0.128587 -0.5469,-0.04022 -0.0746,0.03784 -0.1561,0.08625 -0.24156,0.09393 -0.13018,0.01138 -0.12224,-0.07911 -0.20638,-0.124619 -0.14578,-0.07858 -0.3302,-0.04974 -0.47095,-0.134937 -0.19394,-0.11774 -0.27067,-0.238655 -0.51885,-0.226219 -0.15955,0.0082 -0.28708,0.07541 -0.40429,-0.05477 -0.15716,-0.174625 -0.39555,-0.289983 -0.52175,-0.490537 -0.0881,-0.139436 -0.22675,-0.736336 -0.0267,-0.791105 0.20691,-0.05689 0.0532,-0.297127 -0.007,-0.406135 -0.0431,-0.07752 -0.0751,-0.163248 -0.109,-0.245004 -0.0286,-0.06826 0.0632,-0.125148 0.0294,-0.221721 -0.0296,-0.08361 -0.17912,-0.328613 -0.10662,-0.413015 0.1606,-0.186002 -0.0471,-0.297656 0.0214,-0.423333 0.0474,-0.08731 -0.0124,-0.493448 0.007,-0.507471 0.14605,-0.103716 -0.0447,-0.249502 -0.078,-0.387879 z"
       id="uy" />
  </g>
</svg>
