<?xml version="1.0" encoding="UTF-8" standalone="no"?>
<!-- Created with Inkscape (http://www.inkscape.org/) -->

<svg
   xmlns:dc="http://purl.org/dc/elements/1.1/"
   xmlns:cc="http://creativecommons.org/ns#"
   xmlns:rdf="http://www.w3.org/1999/02/22-rdf-syntax-ns#"
   xmlns:svg="http://www.w3.org/2000/svg"
   xmlns="http://www.w3.org/2000/svg"
   xmlns:sodipodi="http://sodipodi.sourceforge.net/DTD/sodipodi-0.dtd"
   xmlns:inkscape="http://www.inkscape.org/namespaces/inkscape"
   width="7.6158819mm"
   height="7.0045919mm"
   viewBox="0 0 7.6158824 7.0045897"
   version="1.1"
   id="svg7070"
   inkscape:version="0.92.4 (5da689c313, 2019-01-14)"
   sodipodi:docname="western_sahara.svg">
  <defs
     id="defs7064" />
  <sodipodi:namedview
     id="base"
     pagecolor="#ffffff"
     bordercolor="#666666"
     borderopacity="1.0"
     inkscape:pageopacity="0.0"
     inkscape:pageshadow="2"
     inkscape:zoom="7.9195959"
     inkscape:cx="19.732333"
     inkscape:cy="-2.6748171"
     inkscape:document-units="mm"
     inkscape:current-layer="layer1"
     showgrid="false"
     inkscape:window-width="958"
     inkscape:window-height="1008"
     inkscape:window-x="-7"
     inkscape:window-y="0"
     inkscape:window-maximized="0" />
  <metadata
     id="metadata7067">
    <rdf:RDF>
      <cc:Work
         rdf:about="">
        <dc:format>image/svg+xml</dc:format>
        <dc:type
           rdf:resource="http://purl.org/dc/dcmitype/StillImage" />
        <dc:title />
      </cc:Work>
    </rdf:RDF>
  </metadata>
  <g
     inkscape:label="Layer 1"
     inkscape:groupmode="layer"
     id="layer1"
     transform="translate(-156.61304,-34.533012)">
    <path
       style="fill:#ffffff;stroke-width:0.26458332"
       inkscape:connector-curvature="0"
       id="eh"
       d="m 156.66024,41.537591 c -0.13811,-0.243417 0.0667,-0.656431 0.10875,-0.909108 0.0288,-0.172509 0.0733,-0.334698 0.16562,-0.485246 0.11192,-0.182298 0.31698,-0.182827 0.38577,-0.411163 0.0352,-0.116681 0.0331,-0.296862 0.14922,-0.366977 0.0661,-0.03916 0.027,-0.171714 0.0783,-0.247385 0.0823,-0.120915 0.41381,-0.533665 0.32147,-0.690033 -0.0619,0.03969 -0.1143,0.09551 -0.15055,0.159808 0.14473,-0.318823 0.5117,-0.553244 0.75274,-0.799306 0.32067,-0.327554 0.25903,-0.666221 0.41487,-1.068123 0.12779,-0.328613 0.22701,-0.691092 0.54636,-0.87339 0.35216,-0.200554 0.55033,-0.361421 0.68924,-0.751681 0.0876,-0.245798 0.1397,-0.561975 0.43789,-0.561975 0.38576,0 0.77178,0.03704 1.1594,0.03704 0.49953,0 0.99907,0 1.49886,0 0.24236,0 0.48446,0 0.72655,0 0.20002,0 0.29236,-0.05927 0.28363,0.158485 -0.0148,0.37174 -0.0553,0.744273 -0.0463,1.116806 0.001,0.05874 0.0283,0.39714 -0.0688,0.408517 -0.24051,0.02752 -0.5035,-0.0029 -0.74613,-0.0029 -0.499,0 -0.99827,0 -1.49754,0 -0.0979,0 -0.52916,-0.06218 -0.58711,0.02514 -0.0844,0.128058 -0.0339,0.501121 -0.0339,0.650346 0,0.4826 -0.0206,0.969698 -0.0344,1.452033 -0.002,0.08281 0.013,0.389731 -0.0653,0.446088 -0.17251,0.124883 -0.41804,0.138112 -0.59823,0.25056 -0.27146,0.16854 -0.381,0.348985 -0.35956,0.669396 0.0124,0.186267 0.15557,1.157023 -0.0423,1.213114 -0.18679,0.05265 -0.39105,0 -0.58076,0 -0.47254,0 -0.94535,0 -1.4179,0 -0.40957,0 -0.81915,0 -1.22872,0 -0.24739,2.65e-4 -0.28708,0.404813 -0.26115,0.579967 z" />
  </g>
</svg>
