<?xml version="1.0" encoding="UTF-8" standalone="no"?>
<!-- Created with Inkscape (http://www.inkscape.org/) -->

<svg
   xmlns:dc="http://purl.org/dc/elements/1.1/"
   xmlns:cc="http://creativecommons.org/ns#"
   xmlns:rdf="http://www.w3.org/1999/02/22-rdf-syntax-ns#"
   xmlns:svg="http://www.w3.org/2000/svg"
   xmlns="http://www.w3.org/2000/svg"
   xmlns:sodipodi="http://sodipodi.sourceforge.net/DTD/sodipodi-0.dtd"
   xmlns:inkscape="http://www.inkscape.org/namespaces/inkscape"
   width="10.61765mm"
   height="6.9209852mm"
   viewBox="0 0 10.61765 6.9209828"
   version="1.1"
   id="svg7070"
   inkscape:version="0.92.4 (5da689c313, 2019-01-14)"
   sodipodi:docname="yemen.svg">
  <defs
     id="defs7064" />
  <sodipodi:namedview
     id="base"
     pagecolor="#ffffff"
     bordercolor="#666666"
     borderopacity="1.0"
     inkscape:pageopacity="0.0"
     inkscape:pageshadow="2"
     inkscape:zoom="7.9195959"
     inkscape:cx="29.609317"
     inkscape:cy="-1.8849364"
     inkscape:document-units="mm"
     inkscape:current-layer="layer1"
     showgrid="false"
     inkscape:window-width="958"
     inkscape:window-height="1008"
     inkscape:window-x="-7"
     inkscape:window-y="0"
     inkscape:window-maximized="0" />
  <metadata
     id="metadata7067">
    <rdf:RDF>
      <cc:Work
         rdf:about="">
        <dc:format>image/svg+xml</dc:format>
        <dc:type
           rdf:resource="http://purl.org/dc/dcmitype/StillImage" />
        <dc:title />
      </cc:Work>
    </rdf:RDF>
  </metadata>
  <g
     inkscape:label="Layer 1"
     inkscape:groupmode="layer"
     id="layer1"
     transform="translate(-154.68131,-28.049051)">
    <g
       transform="matrix(0.26458333,0,0,0.26458333,47.505142,-74.009456)"
       id="ye"
       style="fill:#ffffff">
      <path
         style="fill:#ffffff"
         inkscape:connector-curvature="0"
         id="path2190"
         d="m 405.853,405.156 c 0.043,-0.146 0.053,-0.295 0.031,-0.445 -0.487,0.078 -0.288,0.272 -0.031,0.445 z" />
      <path
         style="fill:#ffffff"
         inkscape:connector-curvature="0"
         id="path2192"
         d="m 438.095,411.891 c -0.019,-0.343 -0.442,-0.222 -0.635,-0.19 0.211,0.063 0.423,0.126 0.635,0.19 z" />
      <path
         style="fill:#ffffff"
         inkscape:connector-curvature="0"
         id="path2194"
         d="m 442.791,411.256 c 0.744,-0.171 2.034,-0.089 2.414,-0.921 -0.446,-0.268 -1.037,-0.679 -1.587,-0.554 -0.261,0.059 -0.486,0.229 -0.766,0.202 -0.296,-0.027 -0.549,-0.285 -0.856,-0.23 -0.335,0.061 -0.633,0.714 -0.356,0.958 0.289,0.257 0.766,0.49 1.151,0.545 z" />
      <path
         style="fill:#ffffff"
         inkscape:connector-curvature="0"
         id="path2592"
         d="m 440.03,394.565 c -1.07,-0.039 -0.584,-2.253 -1.646,-2.377 0.598,-0.805 -1.271,-3.127 -1.573,-3.911 -0.288,-0.749 -0.46,-1.727 -1.06,-2.306 -0.638,-0.614 -2.949,0.141 -3.764,0.249 -1.558,0.207 -3.117,0.409 -4.677,0.608 -1.451,0.185 -2.402,0.675 -3.612,1.479 -0.953,0.634 -1.267,1.365 -1.889,2.296 -0.539,0.804 -0.827,2.836 -2.118,2.758 -0.879,-0.053 -0.783,-1.37 -1.629,-1.271 -1.064,0.126 -1.937,0.105 -3.017,-0.046 -0.612,-0.086 -1.241,-0.522 -1.842,-0.522 -0.665,0 -1.327,0.064 -1.987,0.127 -0.812,0.076 -1.497,0.44 -2.338,0.395 -0.462,-0.025 -0.634,-0.54 -1.106,-0.599 -0.452,-0.057 -0.8,0.248 -0.989,0.631 -0.206,0.416 -0.272,0.922 -0.194,1.38 0.05,0.297 0.466,0.591 0.239,0.895 -0.213,0.288 -0.383,0.584 -0.602,0.885 -0.117,0.164 -0.266,0.293 -0.443,0.388 -0.424,0.212 -0.207,0.373 -0.12,0.838 0.138,0.735 -0.14,1.076 -0.271,1.747 -0.121,0.62 0.399,1.16 0.34,1.777 -0.117,-0.105 -0.75,-0.122 -0.645,0.125 -0.022,-0.052 0.639,0.32 0.637,0.318 0.354,0.377 0.486,0.769 0.607,1.263 0.236,0.969 0.256,2.049 0.561,2.991 0.124,0.387 0.436,0.676 0.582,1.054 0.178,0.454 0.01,0.947 0.001,1.413 -0.019,0.921 1.095,1.695 0.794,2.631 0.406,0.031 0.681,-0.197 1.092,-0.033 0.438,0.175 0.738,0.319 1.221,0.224 0.994,-0.197 1.438,-0.893 2.475,-0.349 -0.053,-0.282 0.248,-0.569 0.349,-0.158 0.172,-0.188 0.271,-0.408 0.41,-0.618 0.219,-0.332 0.574,-0.325 0.866,-0.546 0.654,-0.493 0.728,-0.991 1.627,-1.197 0.839,-0.192 1.728,-0.229 2.583,-0.151 0.504,0.046 1.349,-0.531 1.854,-0.675 0.753,-0.213 1.126,-0.864 1.788,-1.231 0.204,-0.112 0.49,-0.367 0.711,-0.433 0.243,0.008 0.475,0.065 0.695,0.172 0.248,0.013 0.492,-0.018 0.729,-0.089 1.601,-0.258 1.961,-1.914 3.399,-2.62 0.668,-0.328 1.258,-0.411 1.973,-0.536 0.88,-0.154 1.609,-0.744 2.476,-0.95 0.603,-0.145 1.213,-0.258 1.797,-0.469 0.583,-0.211 0.791,-0.676 1.284,-0.928 0.409,-0.209 1.293,-0.183 1.418,-0.739 0.146,-0.644 -0.301,-1.229 -0.067,-1.887 0.472,-1.329 2.093,-1.276 3.081,-2.003 z" />
    </g>
  </g>
</svg>
