<?xml version="1.0" encoding="UTF-8" standalone="no"?>
<!-- Created with Inkscape (http://www.inkscape.org/) -->

<svg
   xmlns:dc="http://purl.org/dc/elements/1.1/"
   xmlns:cc="http://creativecommons.org/ns#"
   xmlns:rdf="http://www.w3.org/1999/02/22-rdf-syntax-ns#"
   xmlns:svg="http://www.w3.org/2000/svg"
   xmlns="http://www.w3.org/2000/svg"
   xmlns:sodipodi="http://sodipodi.sourceforge.net/DTD/sodipodi-0.dtd"
   xmlns:inkscape="http://www.inkscape.org/namespaces/inkscape"
   width="10.415003mm"
   height="9.9488163mm"
   viewBox="0 0 10.415003 9.948815"
   version="1.1"
   id="svg7070"
   inkscape:version="0.92.4 (5da689c313, 2019-01-14)"
   sodipodi:docname="zambia.svg">
  <defs
     id="defs7064" />
  <sodipodi:namedview
     id="base"
     pagecolor="#ffffff"
     bordercolor="#666666"
     borderopacity="1.0"
     inkscape:pageopacity="0.0"
     inkscape:pageshadow="2"
     inkscape:zoom="7.9195959"
     inkscape:cx="31.282174"
     inkscape:cy="6.3311205"
     inkscape:document-units="mm"
     inkscape:current-layer="layer1"
     showgrid="false"
     inkscape:window-width="958"
     inkscape:window-height="1008"
     inkscape:window-x="-7"
     inkscape:window-y="0"
     inkscape:window-maximized="0" />
  <metadata
     id="metadata7067">
    <rdf:RDF>
      <cc:Work
         rdf:about="">
        <dc:format>image/svg+xml</dc:format>
        <dc:type
           rdf:resource="http://purl.org/dc/dcmitype/StillImage" />
        <dc:title />
      </cc:Work>
    </rdf:RDF>
  </metadata>
  <g
     inkscape:label="Layer 1"
     inkscape:groupmode="layer"
     id="layer1"
     transform="translate(-154.74646,-39.879535)">
    <path
       inkscape:connector-curvature="0"
       style="fill:#ffffff;stroke-width:0.26458332"
       d="m 154.74673,47.916023 c 0,-0.955411 0.0201,-1.909498 0.0323,-2.864909 0.001,-0.102393 -0.0524,-0.317235 0.0902,-0.348191 0.12462,-0.02699 0.27861,0.0082 0.40508,0.01138 0.42439,0.01138 0.87551,0.08467 1.2872,-0.05159 -0.13335,-0.147373 -0.0656,-0.279135 -0.003,-0.438679 0.0762,-0.193675 -0.0265,-0.345281 -0.0161,-0.538427 0.0188,-0.357717 0.17225,-0.767821 0.027,-1.123421 0.13414,0.0021 0.12091,0.147373 0.26008,0.176742 0.16537,0.03466 0.11669,0.268287 0.0259,0.352954 0.18521,0.04075 0.16828,0.03625 0.34899,-0.04233 0.17542,-0.07646 0.37624,-0.124089 0.56727,-0.134937 -0.0685,0.134937 -0.0349,0.380471 0.072,0.487892 0.0841,0.08414 0.22146,0.03254 0.32544,0.08017 0.15134,0.06932 0.25717,0.135996 0.42942,0.137848 0.27808,0.0037 0.54028,0.187061 0.6387,-0.166423 0.10689,-0.386027 0.22119,0.04498 0.35507,0.16219 0.0915,0.08017 0.0791,0.208227 0.14579,0.305329 0.10583,0.155575 0.17833,-0.0082 0.27305,0.04815 0.14076,0.08414 0.26511,0.129646 0.40772,0.198438 0.1606,0.07699 0.11589,0.284691 0.23495,0.394229 0.17436,0.16166 0.20717,0.297656 0.30639,0.504296 0.12515,0.26035 0.48948,-0.245004 0.62733,-0.07594 -0.0603,0.04816 -0.0625,0.128059 0.014,0.15875 0.13467,0.05371 0.0889,-0.219075 0.0905,-0.277548 0.009,-0.337872 0.0204,-0.677597 0.0204,-1.01547 -0.0608,0.02275 -0.12806,0.02884 -0.1905,0.04868 -0.10663,0.03307 -0.0717,0.11774 -0.12568,0.185473 -0.15451,0.193146 -0.42439,-0.138906 -0.51117,-0.235744 -0.23707,-0.263525 -0.53314,-0.478631 -0.36539,-0.894556 0.0783,-0.194204 0.12779,-0.412486 0.19235,-0.611452 0.0434,-0.134938 -0.041,-0.359569 -0.0283,-0.511704 0.0198,-0.24765 0.14235,-0.770467 -0.18891,-0.872331 0.10715,-0.282046 0.69823,-0.43868 0.47043,-0.814917 0.4908,-0.104775 0.99165,-0.178329 1.48695,-0.259821 0.16934,-0.02831 0.16802,-0.0066 0.24792,0.146315 0.0799,0.152929 0.19288,0.234156 0.36645,0.248179 0.21907,0.01746 0.19314,0.09657 0.31617,0.254264 0.0542,0.06985 0.0879,0.04974 0.15346,0.02646 0.0852,-0.03096 0.11668,0.106891 0.18495,0.139964 0.14102,0.06773 0.38047,0.04604 0.45111,0.202142 0.0299,0.06562 0.12806,0.0299 0.17912,0.04974 0.10875,0.04233 0.18997,0.137583 0.22146,0.248973 0.0402,0.14261 0.27728,0.08731 0.33443,0.297127 0.019,0.07038 -0.0368,0.111125 -0.0259,0.176212 0.0164,0.101336 0.0931,0.137583 0.16272,0.198967 0.0606,0.05424 0.0828,0.236802 0.10875,0.311679 0.0484,0.141023 -0.11642,0.274902 -0.25268,0.316177 -0.14817,0.04551 -0.0624,0.159808 -0.0262,0.272785 0.0569,0.176742 -0.0476,0.271198 -0.0532,0.441854 -0.008,0.245005 -0.12065,0.769938 0.18654,0.862542 -0.12515,0.133879 -0.50774,0.197379 -0.50536,0.422275 0.002,0.147373 0.0656,0.207698 0.009,0.368565 -0.0609,0.173037 -0.0577,0.346868 -0.19976,0.469635 0.0699,5.29e-4 -0.0593,0.0217 -0.0579,0.08414 0.002,0.106362 0.16246,0.131233 0.22199,0.203729 0.0172,0.02064 0.0167,0.1143 0.0524,0.115887 0.0825,0.0032 0.11774,-0.190764 0.16907,-0.01693 -0.61437,0.254265 -1.24328,0.513027 -1.87802,0.710671 -0.25347,0.07911 -0.54663,0.151871 -0.78158,0.278077 -0.21881,0.11721 0.4027,0.626798 0.014,0.672306 -0.081,0.0093 -0.18892,0.02646 -0.2675,-0.0053 -0.15398,-0.06191 -0.33681,0.0336 -0.48154,0.08229 -0.20664,0.06985 -0.47334,0.192352 -0.51805,0.432064 -0.0191,0.102394 0.007,0.214048 -0.04,0.310621 -0.0661,0.137848 -0.24845,0.154517 -0.37413,0.203994 -0.21881,0.08625 -0.51408,0.264583 -0.635,0.471223 -0.1225,0.209285 -0.60457,1.125537 -0.96678,0.908579 -0.0791,-0.0471 -0.16299,-0.09155 -0.25109,-0.119327 -0.12833,-0.04075 -0.25638,0.129117 -0.35746,0.07329 -0.0796,-0.04445 -0.1098,-0.157163 -0.21166,-0.177271 -0.16325,-0.03202 -0.25638,0.09313 -0.40799,-0.05054 -0.22569,-0.213518 -0.40296,-0.232568 -0.70458,-0.279135 -0.17754,-0.02752 -0.3556,0.03148 -0.52467,0.07594 -0.0794,0.02064 -0.23998,0.105305 -0.31962,0.05371 -0.27252,-0.175684 -0.46805,-0.451115 -0.6821,-0.68924 -0.11721,-0.130704 -0.25161,-0.241829 -0.37121,-0.369358 -0.11112,-0.120915 -0.0995,-0.271992 -0.19129,-0.397404 z"
       id="zm" />
  </g>
</svg>
