<?xml version="1.0" encoding="UTF-8" standalone="no"?>
<!-- Created with Inkscape (http://www.inkscape.org/) -->

<svg
   xmlns:dc="http://purl.org/dc/elements/1.1/"
   xmlns:cc="http://creativecommons.org/ns#"
   xmlns:rdf="http://www.w3.org/1999/02/22-rdf-syntax-ns#"
   xmlns:svg="http://www.w3.org/2000/svg"
   xmlns="http://www.w3.org/2000/svg"
   xmlns:sodipodi="http://sodipodi.sourceforge.net/DTD/sodipodi-0.dtd"
   xmlns:inkscape="http://www.inkscape.org/namespaces/inkscape"
   width="6.8460627mm"
   height="6.8349533mm"
   viewBox="0 0 6.846063 6.8349526"
   version="1.1"
   id="svg7070"
   inkscape:version="0.92.4 (5da689c313, 2019-01-14)"
   sodipodi:docname="zimbabwe.svg">
  <defs
     id="defs7064" />
  <sodipodi:namedview
     id="base"
     pagecolor="#ffffff"
     bordercolor="#666666"
     borderopacity="1.0"
     inkscape:pageopacity="0.0"
     inkscape:pageshadow="2"
     inkscape:zoom="7.9195959"
     inkscape:cx="28.173411"
     inkscape:cy="-10.276173"
     inkscape:document-units="mm"
     inkscape:current-layer="layer1"
     showgrid="false"
     inkscape:window-width="958"
     inkscape:window-height="1008"
     inkscape:window-x="-7"
     inkscape:window-y="0"
     inkscape:window-maximized="0" />
  <metadata
     id="metadata7067">
    <rdf:RDF>
      <cc:Work
         rdf:about="">
        <dc:format>image/svg+xml</dc:format>
        <dc:type
           rdf:resource="http://purl.org/dc/dcmitype/StillImage" />
        <dc:title />
      </cc:Work>
    </rdf:RDF>
  </metadata>
  <g
     inkscape:label="Layer 1"
     inkscape:groupmode="layer"
     id="layer1"
     transform="translate(-155.56899,-38.599385)">
    <path
       inkscape:connector-curvature="0"
       style="fill:#ffffff;stroke-width:0.26458332"
       d="m 155.58191,40.806321 c 0.11324,0.02646 0.22489,0.05001 0.33813,0.0087 0.11034,-0.04074 0.16352,0.12409 0.23442,0.169598 0.0783,0.05001 0.18786,-0.06059 0.26353,-0.07223 0.0971,-0.01508 0.22225,0.08678 0.30665,0.123031 0.24527,0.104775 0.43815,-0.123031 0.57018,-0.30136 0.17621,-0.237596 0.35057,-0.40349 0.47651,-0.672306 0.0505,-0.107421 0.12674,-0.153459 0.23522,-0.192882 0.14869,-0.05424 0.26326,-0.170656 0.40613,-0.239712 0.2802,-0.136525 0.33999,-0.153988 0.35666,-0.480483 0.008,-0.160073 0.27623,-0.357717 0.42122,-0.415396 0.13599,-0.05371 0.30215,-0.127529 0.44847,-0.13335 0.17727,-0.0066 0.35613,0.04974 0.53181,0.0048 0,0.334434 -0.0283,0.366448 0.34211,0.366448 0.23071,0 0.39211,0.03572 0.60139,0.163248 0.12886,0.07805 0.25453,0.113242 0.3646,0.223308 0.10425,0.103982 0.25797,0.05054 0.3847,0.08943 0.082,0.02487 0.28681,0.06297 0.30375,0.16801 0.0217,0.131233 0.13837,0.103452 0.23997,0.07329 -0.0262,0.155045 -0.11747,0.244475 -0.0447,0.404018 0.0852,0.188648 -0.0206,0.325967 0.0378,0.502709 0.0564,0.170921 -0.0714,0.361156 -0.0352,0.547158 0.0249,0.129117 0.10346,0.235215 -0.0108,0.337344 -0.0836,0.07488 -0.007,0.249502 -0.0566,0.277548 -0.12039,0.06826 -0.15082,0.05794 -0.19765,0.208756 -0.0206,0.0672 0.0905,0.09155 0.12356,0.121444 0.0278,0.0254 0.004,0.124089 -5.3e-4,0.152929 -0.0111,0.06879 -0.0667,0.105833 -0.0857,0.169069 -0.0151,0.04974 0.0611,0.233097 0.0762,0.287866 0.028,-0.01138 0.0561,-0.02275 0.0839,-0.0336 -0.009,0.183356 0.064,0.255852 -0.0468,0.441854 -0.0892,0.149754 -0.14684,0.398463 -0.313,0.476515 -0.18177,0.0852 -0.0426,0.201083 -0.077,0.342106 -0.0418,0.173038 -0.17621,0.272786 -0.0418,0.446088 -0.13944,-0.101336 -0.79481,0.804068 -0.88768,0.906462 -0.0852,0.09366 -0.15081,0.211402 -0.28257,0.130704 -0.17886,-0.109537 -0.42228,-0.0553 -0.61966,-0.05477 -0.17198,0 -0.32067,-0.05583 -0.48048,-0.109538 -0.0963,-0.03202 -0.46725,0.0021 -0.50588,-0.03916 -0.099,-0.105834 -0.1024,-0.06297 -0.21643,-0.122502 -0.12409,-0.06403 5.3e-4,-0.175684 -0.0386,-0.226219 -0.17569,-0.227277 -0.82841,-0.08176 -0.92604,-0.321469 -0.0955,-0.234156 -0.25162,-0.437092 -0.20294,-0.691885 0.0643,-0.333375 -0.0481,-0.394759 -0.36936,-0.329142 0.0577,-0.303742 -0.022,-0.427302 -0.30321,-0.511175 -0.22278,-0.06615 -0.5207,-0.315119 -0.64558,-0.509587 -0.19077,-0.296069 -0.19315,-0.66675 -0.42148,-0.954353 -0.10002,-0.125677 -0.41805,-0.564091 -0.33708,-0.731308 z"
       id="zw" />
  </g>
</svg>
