<?xml version="1.0" encoding="UTF-8" standalone="no"?>
<!-- Created with Inkscape (http://www.inkscape.org/) -->

<svg
   xmlns:dc="http://purl.org/dc/elements/1.1/"
   xmlns:cc="http://creativecommons.org/ns#"
   xmlns:rdf="http://www.w3.org/1999/02/22-rdf-syntax-ns#"
   xmlns:svg="http://www.w3.org/2000/svg"
   xmlns="http://www.w3.org/2000/svg"
   xmlns:sodipodi="http://sodipodi.sourceforge.net/DTD/sodipodi-0.dtd"
   xmlns:inkscape="http://www.inkscape.org/namespaces/inkscape"
   width="4.5627394mm"
   height="3.5222735mm"
   viewBox="0 0 4.5627394 3.5222726"
   version="1.1"
   id="svg7070"
   inkscape:version="0.92.4 (5da689c313, 2019-01-14)"
   sodipodi:docname="azerbaijan.svg">
  <defs
     id="defs7064" />
  <sodipodi:namedview
     id="base"
     pagecolor="#ffffff"
     bordercolor="#666666"
     borderopacity="1.0"
     inkscape:pageopacity="0.0"
     inkscape:pageshadow="2"
     inkscape:zoom="7.9195959"
     inkscape:cx="9.8194764"
     inkscape:cy="-7.7793825"
     inkscape:document-units="mm"
     inkscape:current-layer="layer1"
     showgrid="false"
     inkscape:window-width="958"
     inkscape:window-height="1008"
     inkscape:window-x="-7"
     inkscape:window-y="0"
     inkscape:window-maximized="0" />
  <metadata
     id="metadata7067">
    <rdf:RDF>
      <cc:Work
         rdf:about="">
        <dc:format>image/svg+xml</dc:format>
        <dc:type
           rdf:resource="http://purl.org/dc/dcmitype/StillImage" />
        <dc:title></dc:title>
      </cc:Work>
    </rdf:RDF>
  </metadata>
  <g
     inkscape:label="Layer 1"
     inkscape:groupmode="layer"
     id="layer1"
     transform="translate(-154.35482,-29.888189)">
    <g
       transform="matrix(0.26458333,0,0,0.26458333,47.358904,-49.06365)"
       id="az">
      <path
         style="fill:#aaaaaa"
         inkscape:connector-curvature="0"
         id="path5796"
         d="m 404.394,300.713 c 0.832,-0.745 1.484,-0.623 2.307,0.09 0.521,0.454 0.931,0.175 1.508,0.337 0.453,0.128 0.62,0.439 1.136,0.21 0.966,-0.431 -0.731,-1.058 -0.96,-1.36 -0.145,-0.19 -0.621,-0.597 -0.618,-0.832 0,-0.001 0.614,-0.61 0.653,-0.645 0.53,-0.467 1.568,0.653 1.84,0.966 0.229,0.264 0.561,0.153 0.693,0.423 0.187,0.38 0.424,0.796 0.838,0.933 0.369,0.121 0.784,0.234 1.176,0.226 0.354,-0.009 0.461,-0.569 0.701,-0.799 0.122,-0.118 1.527,-1.527 1.412,-1.564 0.68,0.221 1.173,0.945 1.545,1.512 0.535,0.812 0.977,1.536 1.648,2.253 0.107,0.04 0.213,0.083 0.318,0.127 0.01,0.116 0.02,0.232 0.03,0.35 0.306,0.339 0.626,0.497 1.087,0.534 1.008,0.08 1.531,0.381 1.931,1.308 -0.361,-0.502 -1.381,-0.718 -1.903,-0.378 -0.748,0.489 -0.775,0.835 -0.922,1.652 -0.131,0.734 -0.008,1.227 0.146,1.899 0.057,0.239 -0.298,0.489 -0.322,0.773 -0.038,0.431 0.152,0.762 -0.364,0.659 0.538,-0.509 -0.554,-0.796 -0.44,-0.215 0.158,0.812 -0.074,1.518 0.215,2.374 -0.234,0.007 -0.65,0.269 -0.857,0.123 -0.299,-0.209 -0.479,-0.539 -0.785,-0.757 -0.188,-0.134 -1.621,-0.793 -1.24,-1.149 0.137,-0.127 0.779,-0.273 0.754,-0.502 -0.069,-0.624 -1.254,-0.854 -0.059,-1.305 -0.837,-1.003 -1.285,-1.585 -2.441,-0.711 -0.521,0.394 -1.354,0.732 -1.594,1.384 -0.068,0.19 -0.406,0.181 -0.553,0.251 -0.272,0.131 -0.658,0.757 -0.812,1.015 -0.203,-0.255 -0.525,-1.298 0.031,-1.366 -0.15,-0.184 -0.844,-0.495 -0.721,-0.805 0.053,-0.134 0.384,-0.223 0.179,-0.396 -0.164,-0.139 -0.425,-0.206 -0.634,-0.217 -0.934,-0.049 -1.559,-1.146 -2.416,-1.474 0.379,-0.154 0.908,0.004 1.08,-0.48 0.172,-0.489 -0.398,-0.608 -0.717,-0.768 -0.521,-0.26 -2.02,-1.389 -0.805,-1.77 -0.289,-0.786 -1.195,-0.793 -1.783,-1.239 0.841,0.176 -0.255,-0.438 -0.282,-0.667 z" />
      <path
         style="fill:#aaaaaa"
         inkscape:connector-curvature="0"
         id="path5798"
         d="m 404.515,306.748 c 0.511,-0.111 1.367,-0.356 1.307,0.477 0.377,-0.22 0.637,0.305 1.055,0.175 0.213,-0.065 0.818,-0.214 0.982,0.021 0.34,0.484 -0.113,0.577 0.562,0.914 0.279,0.14 0.665,1.391 0.927,1.686 -1.039,-0.366 -1.974,-0.406 -2.859,-1.131 -0.738,-0.601 -1.593,-1.238 -1.974,-2.142 z" />
    </g>
  </g>
</svg>
