<?xml version="1.0" encoding="UTF-8" standalone="no"?>
<!-- Created with Inkscape (http://www.inkscape.org/) -->

<svg
   xmlns:dc="http://purl.org/dc/elements/1.1/"
   xmlns:cc="http://creativecommons.org/ns#"
   xmlns:rdf="http://www.w3.org/1999/02/22-rdf-syntax-ns#"
   xmlns:svg="http://www.w3.org/2000/svg"
   xmlns="http://www.w3.org/2000/svg"
   xmlns:sodipodi="http://sodipodi.sourceforge.net/DTD/sodipodi-0.dtd"
   xmlns:inkscape="http://www.inkscape.org/namespaces/inkscape"
   width="2.9159231mm"
   height="1.6347131mm"
   viewBox="0 0 2.9159228 1.634713"
   version="1.1"
   id="svg7070"
   inkscape:version="0.92.4 (5da689c313, 2019-01-14)"
   sodipodi:docname="bhutan.svg">
  <defs
     id="defs7064" />
  <sodipodi:namedview
     id="base"
     pagecolor="#ffffff"
     bordercolor="#666666"
     borderopacity="1.0"
     inkscape:pageopacity="0.0"
     inkscape:pageshadow="2"
     inkscape:zoom="5.6"
     inkscape:cx="1.6526154"
     inkscape:cy="-14.565395"
     inkscape:document-units="mm"
     inkscape:current-layer="layer1"
     showgrid="false"
     inkscape:window-width="958"
     inkscape:window-height="1008"
     inkscape:window-x="-7"
     inkscape:window-y="0"
     inkscape:window-maximized="0" />
  <metadata
     id="metadata7067">
    <rdf:RDF>
      <cc:Work
         rdf:about="">
        <dc:format>image/svg+xml</dc:format>
        <dc:type
           rdf:resource="http://purl.org/dc/dcmitype/StillImage" />
        <dc:title></dc:title>
      </cc:Work>
    </rdf:RDF>
  </metadata>
  <g
     inkscape:label="Layer 1"
     inkscape:groupmode="layer"
     id="layer1"
     transform="translate(-161.53701,-26.677968)">
    <path
       style="fill:#aaaaaa;stroke-width:0.26458332"
       inkscape:connector-curvature="0"
       id="bt"
       d="m 161.53701,27.845913 c -2.6e-4,-0.06853 0.0392,-0.07329 0.082,-0.109273 0.0643,-0.05424 -0.002,-0.177006 0.0683,-0.227541 0.14949,-0.109009 0.20744,-0.363802 0.31195,-0.514615 0.1143,-0.1651 0.27305,-0.32041 0.48842,-0.316442 0.0526,7.94e-4 0.22648,0.02355 0.24818,0.08467 0.0196,0.0553 -0.0323,0.133879 0.0434,0.157956 0.1315,0.04181 0.28654,0.02646 0.42254,0.02646 0.0823,0 0.12647,0.132291 0.21643,0.05186 0.0728,-0.06535 0.0926,-0.09472 0.19791,-0.06271 0.13811,0.04207 0.31115,0.07779 0.30877,0.243681 -0.003,0.186531 -0.004,0.376238 0.2495,0.360892 0.23574,-0.01376 0.16774,0.196585 0.1823,0.334962 0.006,0.05689 0.14419,0.212461 0.0786,0.244475 -0.15531,0.07594 -0.30427,0.09128 -0.45853,0.03307 -0.0638,-0.02381 -0.20584,0.06191 -0.28204,0.06668 -0.1143,0.0069 -0.23416,0.0095 -0.34846,0.0061 -0.17515,-0.005 -0.30665,-0.164307 -0.46699,-0.06932 -0.12462,0.07355 -0.30109,0.198966 -0.45931,0.141023 -0.13653,-0.05001 -0.21061,-0.159809 -0.37968,-0.148961 -0.28549,0.01773 -0.28787,-0.194469 -0.50324,-0.302948 z" />
  </g>
</svg>
