<?xml version="1.0" encoding="UTF-8" standalone="no"?>
<!-- Created with Inkscape (http://www.inkscape.org/) -->

<svg
   xmlns:dc="http://purl.org/dc/elements/1.1/"
   xmlns:cc="http://creativecommons.org/ns#"
   xmlns:rdf="http://www.w3.org/1999/02/22-rdf-syntax-ns#"
   xmlns:svg="http://www.w3.org/2000/svg"
   xmlns="http://www.w3.org/2000/svg"
   xmlns:sodipodi="http://sodipodi.sourceforge.net/DTD/sodipodi-0.dtd"
   xmlns:inkscape="http://www.inkscape.org/namespaces/inkscape"
   width="11.227426mm"
   height="13.35286mm"
   viewBox="0 0 11.227425 13.352861"
   version="1.1"
   id="svg7070"
   inkscape:version="0.92.4 (5da689c313, 2019-01-14)"
   sodipodi:docname="bolivia.svg">
  <defs
     id="defs7064" />
  <sodipodi:namedview
     id="base"
     pagecolor="#ffffff"
     bordercolor="#666666"
     borderopacity="1.0"
     inkscape:pageopacity="0.0"
     inkscape:pageshadow="2"
     inkscape:zoom="1.4"
     inkscape:cx="2.1145251"
     inkscape:cy="-49.395029"
     inkscape:document-units="mm"
     inkscape:current-layer="layer1"
     showgrid="false"
     inkscape:window-width="958"
     inkscape:window-height="1008"
     inkscape:window-x="-7"
     inkscape:window-y="0"
     inkscape:window-maximized="0" />
  <metadata
     id="metadata7067">
    <rdf:RDF>
      <cc:Work
         rdf:about="">
        <dc:format>image/svg+xml</dc:format>
        <dc:type
           rdf:resource="http://purl.org/dc/dcmitype/StillImage" />
        <dc:title></dc:title>
      </cc:Work>
    </rdf:RDF>
  </metadata>
  <g
     inkscape:label="Layer 1"
     inkscape:groupmode="layer"
     id="layer1"
     transform="translate(-181.67056,-78.747391)">
    <path
       inkscape:connector-curvature="0"
       style="fill:#aaaaaa;stroke-width:0.26458332"
       d="m 181.67056,80.024261 c 0.22251,0.01455 0.44635,0.03413 0.66834,0.05054 0.10186,0.0077 0.0497,0.02434 0.0648,0.08519 0.0275,0.109538 0.18574,-0.0026 0.23019,-0.02222 0.0513,-0.02223 0.15372,-0.04339 0.18653,-0.09551 0.0508,-0.08017 0.0669,-0.193146 0.14314,-0.255852 0.16854,-0.138907 0.30268,0.08467 0.39449,-0.138907 0.0796,-0.194733 0.32729,-0.203729 0.48049,-0.311679 0.14261,-0.100806 0.21484,-0.308504 0.39158,-0.360098 0.21114,-0.06138 0.44688,-0.16166 0.67125,-0.130704 0.24791,0.03466 0.19288,0.05741 0.35771,-0.09763 0.35666,0.246592 -0.0259,0.716227 0.0778,1.032933 0.0259,0.07964 0.0915,0.125148 0.11906,0.194734 0.031,0.07858 -0.0447,0.159808 -0.0632,0.230981 -0.0545,0.213519 0.15372,0.328083 0.20082,0.487362 0.0339,0.1143 0.0233,0.100807 0.12171,0.184944 0.0609,0.05159 0.0458,0.181504 0.10212,0.214577 0.0759,0.04392 0.13283,-0.01032 0.19897,0.07091 0.0773,0.09551 0.15187,0.103452 0.24157,0.172508 0.0122,0.0098 0.0497,0.12356 0.0699,0.145785 0.0601,0.06562 0.13388,0.07752 0.21748,0.0971 0.11377,0.02699 0.17648,0.07329 0.28813,0.01138 0.0916,-0.05106 0.18389,-0.02699 0.26723,0.03096 0.0675,0.0471 0.12383,0.108479 0.19368,0.152929 0.0963,0.06059 0.11483,-0.06562 0.19209,-0.04339 0.14525,0.04233 0.14949,0.315119 0.33813,0.336021 0.16484,0.01852 0.27914,0.149225 0.44239,0.158221 0.22648,0.01244 0.25955,0.347662 0.44873,0.396346 0.15558,0.04022 0.30506,0.01402 0.45826,-0.0098 0.21775,-0.03307 0.43788,0.139965 0.61833,0.242358 0.2958,0.167482 0.10663,0.326496 0.21352,0.569384 0.11747,0.267229 0.16219,0.502708 0.22013,0.787135 -0.073,-0.0021 -0.14578,5.29e-4 -0.21828,0.0077 0.009,0.207169 0.27305,0.327025 0.30798,0.549804 0.0259,0.166423 0.008,0.361157 0.0807,0.516202 0.0923,0.196321 0.45165,0.129117 0.62839,0.146844 0.33258,0.03307 0.67786,0.08176 1.00806,0.0056 0.005,0.148432 -0.0817,0.238655 -0.0931,0.372534 -0.009,0.110066 0.0357,0.249502 0.0643,0.356658 0.0453,0.16801 0.24183,0.430477 0.42492,0.464079 0.0934,0.01746 0.14235,-0.04445 0.18442,0.07276 0.032,0.08943 0.0744,0.17145 0.11006,0.25982 0.0937,0.23204 0.21511,0.360628 0.1614,0.612246 -0.027,0.126736 -0.13282,0.343694 -0.0892,0.47334 0.0614,0.182033 -0.0685,0.337344 -0.13918,0.512762 -0.0952,0.236803 -0.10001,0.344752 0.0923,0.506942 0.14288,0.120915 -0.0865,0.195263 -0.18626,0.268817 0.0691,-0.227806 -0.081,-0.38444 -0.25982,-0.49874 -0.18786,-0.119856 -0.43366,-0.336021 -0.64929,-0.384969 -0.59822,-0.134408 -1.30281,0.179917 -1.88251,0.282046 -0.27649,0.04921 -0.42704,0.04392 -0.47175,0.345281 -0.0376,0.250032 -0.25162,0.416455 -0.2921,0.659342 -0.0384,0.228336 0.0849,0.442913 0.0381,0.678921 -0.0661,0.334962 -0.0913,0.678392 -0.17225,1.010179 -0.16801,-0.134937 -0.13758,-0.260879 -0.37174,-0.252148 -0.18044,0.0066 -0.38735,-0.01296 -0.55615,0.05424 -0.19738,0.07805 -0.18944,-0.122502 -0.2966,0.149754 -0.0918,0.233627 -0.13705,0.441325 -0.16245,0.687387 -0.25533,-0.35507 -0.21326,-0.699822 -0.70432,-0.77761 -0.20003,-0.03202 -0.49239,0.06297 -0.67046,-0.02328 -0.15584,-0.07594 -0.24606,-0.265113 -0.42413,-0.300832 -0.0246,0.253207 -0.0103,0.332846 -0.26458,0.425186 -0.12726,0.04604 -0.26141,0.293952 -0.33708,0.411956 -0.11562,0.179917 -0.15637,0.2667 -0.38973,0.291571 -0.0799,0.0087 -0.17277,0.0098 -0.24712,-0.02593 -0.13335,-0.06456 -0.0463,-0.212461 -0.0892,-0.317765 -0.0524,-0.127529 -0.0553,-0.282046 -0.12568,-0.402166 -0.0632,-0.107421 -0.13282,-0.179388 -0.16801,-0.303213 -0.0617,-0.216958 -0.11377,-0.505354 -0.23998,-0.694002 -0.0712,-0.105833 -0.18203,-0.153458 -0.25612,-0.250031 -0.0823,-0.106892 0.0146,-0.214577 -0.0391,-0.323586 -0.0458,-0.09313 -0.17119,-0.09922 -0.21829,-0.192881 -0.0526,-0.105304 0.0714,-0.176742 -0.0704,-0.307975 0.24976,-0.150812 0.22913,-0.127529 0.0534,-0.36486 -0.0257,-0.03466 0.0717,-0.182298 0.0892,-0.212461 0.0876,-0.151871 -0.006,-0.199496 -0.12356,-0.29501 -0.23178,-0.187061 -0.331,-0.3556 -0.40693,-0.64135 -0.0344,-0.129117 -0.23337,-0.459846 -0.10795,-0.579173 -0.38365,-0.07699 -0.28681,-0.688975 -0.59637,-0.756444 0.014,-0.07752 0.0717,-0.119327 0.13096,-0.16166 0.0913,-0.06509 0.12013,-0.170921 0.18336,-0.259821 0.0545,-0.07752 0.0942,-0.147902 0.16801,-0.207169 0.0111,-0.0087 0.004,-0.148431 0.01,-0.17145 0.0188,-0.07488 0.22543,-0.275431 -0.006,-0.281517 -0.17093,-0.0048 -0.21881,-0.04551 -0.29528,-0.214047 -0.0505,-0.111655 -0.14975,-0.290513 -0.12568,-0.416455 0.023,-0.120385 0.19209,-0.288395 0.13177,-0.413279 -0.0947,-0.19685 -0.24289,-0.233098 -0.12013,-0.477573 0.0791,-0.157691 0.16114,-0.27596 0.21432,-0.432064 0.063,-0.184944 0.10027,-0.1778 -0.008,-0.373592 -0.0998,-0.179917 -0.0262,-0.324644 -0.0442,-0.51779 -0.0146,-0.156104 -0.10928,-0.475456 0.008,-0.607747 0.11668,-0.131234 0.22437,-0.220663 0.12356,-0.392113 -0.28495,-0.486569 -0.58817,-0.979223 -0.84931,-1.477698 z"
       id="bo" />
  </g>
</svg>
