<?xml version="1.0" encoding="UTF-8" standalone="no"?>
<!-- Created with Inkscape (http://www.inkscape.org/) -->

<svg
   xmlns:dc="http://purl.org/dc/elements/1.1/"
   xmlns:cc="http://creativecommons.org/ns#"
   xmlns:rdf="http://www.w3.org/1999/02/22-rdf-syntax-ns#"
   xmlns:svg="http://www.w3.org/2000/svg"
   xmlns="http://www.w3.org/2000/svg"
   xmlns:sodipodi="http://sodipodi.sourceforge.net/DTD/sodipodi-0.dtd"
   xmlns:inkscape="http://www.inkscape.org/namespaces/inkscape"
   width="13.779907mm"
   height="38.325161mm"
   viewBox="0 0 13.779907 38.325163"
   version="1.1"
   id="svg7070"
   inkscape:version="0.92.4 (5da689c313, 2019-01-14)"
   sodipodi:docname="chile.svg">
  <defs
     id="defs7064" />
  <sodipodi:namedview
     id="base"
     pagecolor="#ffffff"
     bordercolor="#666666"
     borderopacity="1.0"
     inkscape:pageopacity="0.0"
     inkscape:pageshadow="2"
     inkscape:zoom="1.4"
     inkscape:cx="-57.630062"
     inkscape:cy="-60.386417"
     inkscape:document-units="mm"
     inkscape:current-layer="layer1"
     showgrid="false"
     inkscape:window-width="958"
     inkscape:window-height="1008"
     inkscape:window-x="-7"
     inkscape:window-y="0"
     inkscape:window-maximized="0" />
  <metadata
     id="metadata7067">
    <rdf:RDF>
      <cc:Work
         rdf:about="">
        <dc:format>image/svg+xml</dc:format>
        <dc:type
           rdf:resource="http://purl.org/dc/dcmitype/StillImage" />
        <dc:title></dc:title>
      </cc:Work>
    </rdf:RDF>
  </metadata>
  <g
     inkscape:label="Layer 1"
     inkscape:groupmode="layer"
     id="layer1"
     transform="translate(-197.47798,-50.866954)">
    <g
       transform="matrix(0.26458333,0,0,0.26458333,189.74818,-88.056757)"
       id="cl">
      <path
         style="fill:#aaaaaa"
         inkscape:connector-curvature="0"
         d="m 73.24,668.292 c -0.074,-0.109 -0.178,-0.172 -0.313,-0.189 0.105,0.063 0.209,0.127 0.313,0.189 z"
         id="path6426" />
      <path
         style="fill:#aaaaaa"
         inkscape:connector-curvature="0"
         d="m 79.404,669.884 c 0.01,-0.084 0.021,-0.168 0.031,-0.252 -0.234,-0.059 -0.457,-0.027 -0.666,0.092 0.231,-0.029 0.443,0.024 0.635,0.16 z"
         id="path6432" />
      <path
         style="fill:#aaaaaa"
         inkscape:connector-curvature="0"
         d="m 80.422,669.853 c 0.053,-0.219 -0.053,-0.262 -0.317,-0.129 0.106,0.043 0.212,0.086 0.317,0.129 z"
         id="path6440" />
      <path
         style="fill:#aaaaaa"
         inkscape:connector-curvature="0"
         d="m 80.869,669.917 c -0.066,-0.131 -0.162,-0.236 -0.287,-0.318 0.095,0.108 0.19,0.213 0.287,0.318 z"
         id="path6442" />
      <path
         style="fill:#aaaaaa"
         inkscape:connector-curvature="0"
         d="m 79.501,666.992 c -0.501,-0.666 -3.171,-1.252 -3.75,-0.379 0.486,-0.242 0.583,0.406 0.846,0.645 0.227,0.205 1.665,0.193 0.901,0.277 0.223,0.027 0.447,0.039 0.671,0.031 0.179,-0.039 -0.04,-0.211 0.044,-0.283 0.259,-0.221 0.508,0.365 0.655,0.434 0.41,0.191 0.765,-0.378 0.633,-0.725 z"
         id="path6428" />
      <path
         style="fill:#aaaaaa"
         inkscape:connector-curvature="0"
         d="m 78.579,668.869 c 0.073,-0.096 0.146,-0.191 0.22,-0.287 -0.352,-0.133 -0.426,-0.038 -0.22,0.287 z"
         id="path6430" />
      <path
         style="fill:#aaaaaa"
         inkscape:connector-curvature="0"
         d="m 79.977,669.472 c -0.076,-0.24 -0.224,-0.422 -0.445,-0.543 -0.098,0.104 -0.171,0.221 -0.221,0.354 0.221,0.066 0.443,0.129 0.666,0.189 z"
         id="path6434" />
      <path
         style="fill:#aaaaaa"
         inkscape:connector-curvature="0"
         d="m 79.435,666.613 c 0.034,0.275 0.462,0.242 0.64,0.25 -0.2,-0.117 -0.413,-0.201 -0.64,-0.25 z"
         id="path6436" />
      <path
         style="fill:#aaaaaa"
         inkscape:connector-curvature="0"
         d="m 80.264,667.468 c -0.173,0.01 -0.311,0.084 -0.415,0.225 0.2,0.115 0.412,0.146 0.635,0.094 -0.073,-0.108 -0.147,-0.213 -0.22,-0.319 z"
         id="path6438" />
      <path
         style="fill:#aaaaaa"
         inkscape:connector-curvature="0"
         d="m 81.182,667.658 c 0.253,-0.244 0.05,-0.455 -0.251,-0.316 0.072,0.113 0.156,0.22 0.251,0.316 z"
         id="path6444" />
      <path
         style="fill:#aaaaaa"
         inkscape:connector-curvature="0"
         d="m 56.215,660.291 c -0.241,0 -0.34,-0.055 -0.349,0.256 0.123,-0.077 0.239,-0.163 0.349,-0.256 z"
         id="path6364" />
      <path
         style="fill:#aaaaaa"
         inkscape:connector-curvature="0"
         d="m 57.455,661.529 c 0.075,-0.105 0.15,-0.211 0.225,-0.316 -0.393,-0.11 -0.469,-0.005 -0.225,0.316 z"
         id="path6372" />
      <path
         style="fill:#aaaaaa"
         inkscape:connector-curvature="0"
         d="m 58.28,660.798 c -0.16,0.014 -0.319,0.035 -0.477,0.066 0.083,0.107 0.167,0.211 0.256,0.312 -0.219,-0.062 -0.441,-0.115 -0.666,-0.154 0.285,0.104 1.31,0.454 0.887,-0.224 z"
         id="path6374" />
      <path
         style="fill:#aaaaaa"
         inkscape:connector-curvature="0"
         d="m 61.395,663.5 c 0.332,-0.234 0.74,-0.432 1.143,-0.508 -0.342,-0.119 -0.4,-0.689 0.062,-0.477 -0.12,-0.662 -0.798,-0.334 -1.051,-0.74 -0.187,-0.299 -0.75,-0.582 -0.696,-0.021 -0.139,-0.27 -0.626,-0.748 -0.666,-0.129 -0.182,-0.248 -0.755,-1.027 -1.143,-0.729 0.06,0.109 0.123,0.215 0.19,0.318 -0.222,-0.039 -0.444,-0.039 -0.667,0 0.437,0.221 0.812,0.504 1.302,0.6 -0.488,0.031 -1.29,-0.674 -1.619,-0.031 0.262,-0.068 0.423,0.041 0.415,0.318 0.823,-0.369 0.585,0.17 0.91,0.654 0.168,0.25 0.492,0.354 0.653,0.049 0.221,-0.418 0.71,-0.436 1.137,-0.258 -0.108,0.104 -0.213,0.211 -0.317,0.318 0.114,0.088 0.231,0.172 0.349,0.256 -0.214,0.098 -0.436,0.172 -0.667,0.221 0.234,-0.004 0.457,0.049 0.665,0.159 z"
         id="path6376" />
      <path
         style="fill:#aaaaaa"
         inkscape:connector-curvature="0"
         d="m 60.124,663.5 c 0.012,-0.4 -0.426,-0.42 -0.666,-0.221 0.267,-0.063 0.489,0.01 0.666,0.221 z"
         id="path6378" />
      <path
         style="fill:#aaaaaa"
         inkscape:connector-curvature="0"
         d="m 62.793,663.279 c -0.064,0.01 -0.129,0.021 -0.193,0.031 0.187,0.242 0.115,0.412 -0.19,0.445 0.448,0.459 1.05,-0.277 0.383,-0.476 z"
         id="path6380" />
      <path
         style="fill:#aaaaaa"
         inkscape:connector-curvature="0"
         d="m 62.983,664.58 c 0.09,-0.199 0.079,-0.303 0.348,-0.256 -0.222,-0.178 -0.443,-0.178 -0.666,0 0.098,0.097 0.203,0.181 0.318,0.256 z"
         id="path6382" />
      <path
         style="fill:#aaaaaa"
         inkscape:connector-curvature="0"
         d="m 63.08,662.486 c -0.114,0.016 -0.22,0.057 -0.317,0.123 0.106,-0.041 0.212,-0.082 0.317,-0.123 z"
         id="path6384" />
      <path
         style="fill:#aaaaaa"
         inkscape:connector-curvature="0"
         d="m 64.315,662.802 c -0.28,-0.098 -0.477,0.174 -0.621,-0.135 -0.126,-0.27 -0.7,0.283 -0.901,0.293 0.158,0.527 1.564,0.562 1.363,1.24 0.868,0.016 0.021,-0.633 -0.19,-0.891 0.175,0.201 0.387,0.254 0.636,0.158 -0.163,-0.192 -0.258,-0.413 -0.287,-0.665 z"
         id="path6386" />
      <path
         style="fill:#aaaaaa"
         inkscape:connector-curvature="0"
         d="m 63.649,664.103 c -0.108,-0.105 -0.224,-0.201 -0.349,-0.287 0.117,0.096 0.234,0.193 0.349,0.287 z"
         id="path6388" />
      <path
         style="fill:#aaaaaa"
         inkscape:connector-curvature="0"
         d="m 63.71,664.738 c -0.094,-0.059 -0.199,-0.092 -0.313,-0.096 0.105,0.031 0.209,0.065 0.313,0.096 z"
         id="path6390" />
      <path
         style="fill:#aaaaaa"
         inkscape:connector-curvature="0"
         d="m 63.905,664.611 c 0.127,-0.326 0.021,-0.4 -0.318,-0.221 0.107,0.074 0.212,0.147 0.318,0.221 z"
         id="path6392" />
      <path
         style="fill:#aaaaaa"
         inkscape:connector-curvature="0"
         d="m 65.555,663.054 c -0.322,-0.15 -0.796,-0.205 -1.143,-0.123 0.077,0.061 0.991,1.744 0.984,0.508 -0.009,0.746 0.847,0.031 0.697,0.762 0.246,-0.051 0.48,-0.137 0.702,-0.256 -0.165,-0.23 -0.935,-1.164 -0.763,-0.285 -0.248,-0.112 -0.432,-0.334 -0.477,-0.606 z"
         id="path6394" />
      <path
         style="fill:#aaaaaa"
         inkscape:connector-curvature="0"
         d="m 64.986,665.753 c -0.036,-0.223 -0.004,-0.314 -0.287,-0.318 0.096,0.107 0.192,0.213 0.287,0.318 z"
         id="path6396" />
      <path
         style="fill:#aaaaaa"
         inkscape:connector-curvature="0"
         d="m 65.463,663.876 c 0.026,0.195 0.024,0.264 0.251,0.322 -0.084,-0.107 -0.168,-0.214 -0.251,-0.322 z"
         id="path6398" />
      <path
         style="fill:#aaaaaa"
         inkscape:connector-curvature="0"
         d="m 68.096,663.845 c -0.121,-0.393 -0.521,-0.619 -0.697,-0.982 0.202,0.203 0.415,0.215 0.635,0.029 -0.498,-0.236 -0.449,-0.965 -0.922,-1.203 -0.697,-0.354 -0.369,0.602 -0.062,0.824 -0.228,-0.078 -0.451,-0.068 -0.671,0.031 0.413,0.67 0.933,1.133 1.717,1.301 z"
         id="path6400" />
      <path
         style="fill:#aaaaaa"
         inkscape:connector-curvature="0"
         d="m 67.969,666.453 c 0.032,-0.084 0.064,-0.17 0.097,-0.254 -0.44,0.055 -0.827,-0.217 -1.271,-0.094 0.042,0.119 0.106,0.225 0.19,0.318 0.264,-0.365 0.709,-0.242 0.984,0.03 z"
         id="path6402" />
      <path
         style="fill:#aaaaaa"
         inkscape:connector-curvature="0"
         d="m 68.445,663.566 c 0.09,-0.391 -0.015,-0.434 -0.318,-0.129 0.106,0.043 0.212,0.086 0.318,0.129 z"
         id="path6404" />
      <path
         style="fill:#aaaaaa"
         inkscape:connector-curvature="0"
         d="m 69.94,667.373 c 0.105,-0.283 0.193,-0.531 0.539,-0.318 -0.167,-0.453 -0.874,-0.35 -1.24,-0.41 0.261,0.012 0.48,-0.139 0.573,-0.381 -0.286,-0.025 -0.481,0.285 -0.757,0.236 -0.307,-0.053 -0.617,-0.148 -0.928,-0.045 0.302,0.746 1.46,0.136 1.813,0.918 z"
         id="path6406" />
      <path
         style="fill:#aaaaaa"
         inkscape:connector-curvature="0"
         d="m 68.859,664.007 c 0.065,-0.408 -0.433,-0.326 -0.635,-0.189 0.211,0.064 0.423,0.127 0.635,0.189 z"
         id="path6408" />
      <path
         style="fill:#aaaaaa"
         inkscape:connector-curvature="0"
         d="m 69.433,666.041 c -0.253,-0.043 -0.477,0.021 -0.67,0.189 0.259,0.066 0.483,0.004 0.67,-0.189 z"
         id="path6410" />
      <path
         style="fill:#aaaaaa"
         inkscape:connector-curvature="0"
         d="m 70.894,666.326 c -0.085,0.105 -0.171,0.211 -0.256,0.318 0.273,-0.025 0.243,-0.098 0.256,-0.318 z"
         id="path6412" />
      <path
         style="fill:#aaaaaa"
         inkscape:connector-curvature="0"
         d="m 71.339,667.5 c -0.073,-0.117 -0.179,-0.191 -0.317,-0.221 0.105,0.074 0.211,0.146 0.317,0.221 z"
         id="path6414" />
      <path
         style="fill:#aaaaaa"
         inkscape:connector-curvature="0"
         d="m 71.37,666.771 c 0.562,-0.072 1.221,0.025 1.681,-0.385 -0.478,-0.107 -1.569,-0.281 -1.967,0.066 0.082,0.118 0.178,0.225 0.286,0.319 z"
         id="path6418" />
      <path
         style="fill:#aaaaaa"
         inkscape:connector-curvature="0"
         d="m 71.273,667.089 c 0.149,0.301 0.995,0.41 1.271,0.348 -0.297,0.59 1.191,0.977 1.557,0.764 -0.22,-0.166 -0.443,-0.326 -0.672,-0.479 -0.85,-0.568 0.618,-0.27 -0.347,-0.572 0.392,-0.137 0.901,0.365 1.339,0.395 0.419,0.027 0.712,0.514 0.536,0.748 0.351,-0.227 1.336,0.033 1.727,0.129 0.455,0.113 0.537,0.686 1.101,0.541 -0.356,-0.414 -0.641,-0.768 -1.173,-0.957 -0.405,-0.143 -1.047,-0.061 -1.337,-0.441 0.345,0.299 0.915,0.172 1.306,0.062 -0.798,-0.549 -1.985,-0.086 -2.669,-0.855 0.625,0.242 0.832,0.154 1.448,0.166 0.484,0.008 0.207,-0.473 -0.125,-0.527 -0.488,-0.082 -1.002,0.066 -1.466,0.209 -0.262,0.08 -1.733,-0.156 -1.256,0.502 -0.206,-0.544 -0.927,-0.345 -1.24,-0.033 z"
         id="path6420" />
      <path
         style="fill:#aaaaaa"
         inkscape:connector-curvature="0"
         d="m 71.622,667.726 c -0.301,0.045 -0.258,0.129 0.128,0.252 -0.043,-0.084 -0.086,-0.168 -0.128,-0.252 z"
         id="path6422" />
      <path
         style="fill:#aaaaaa"
         inkscape:connector-curvature="0"
         d="m 72.609,668.103 c -0.068,-0.195 -0.07,-0.27 -0.318,-0.221 0.106,0.075 0.213,0.147 0.318,0.221 z"
         id="path6424" />
      <path
         style="fill:#aaaaaa"
         inkscape:connector-curvature="0"
         d="m 50.625,655.335 c 0.379,-0.113 0.079,-0.537 -0.128,-0.635 -0.057,0.233 -0.014,0.444 0.128,0.635 z"
         id="path6318" />
      <path
         style="fill:#aaaaaa"
         inkscape:connector-curvature="0"
         d="m 51.451,656.162 c 0.192,-0.414 0.122,-1.686 -0.569,-1.59 0.102,0.221 0.218,0.432 0.348,0.637 -0.584,-0.122 -0.081,0.738 0.221,0.953 z"
         id="path6322" />
      <path
         style="fill:#aaaaaa"
         inkscape:connector-curvature="0"
         d="m 51.769,656.224 c 0.206,-0.244 0.335,-1.141 -0.221,-0.984 -0.008,0.345 0.175,0.646 0.221,0.984 z"
         id="path6326" />
      <path
         style="fill:#aaaaaa"
         inkscape:connector-curvature="0"
         d="m 52.47,656.896 c 0.345,-0.426 -0.471,-0.312 -0.671,-0.354 0.228,0.11 0.451,0.227 0.671,0.354 z"
         id="path6328" />
      <path
         style="fill:#aaaaaa"
         inkscape:connector-curvature="0"
         d="m 52.055,655.97 c 0.219,-0.043 0.388,-0.158 0.507,-0.348 -0.273,-0.078 -0.469,0.077 -0.507,0.348 z"
         id="path6332" />
      <path
         style="fill:#aaaaaa"
         inkscape:connector-curvature="0"
         d="m 53.454,655.556 c 0.005,-0.438 -0.981,-0.854 -1.337,-0.824 0.403,0.355 0.851,0.601 1.337,0.824 z"
         id="path6334" />
      <path
         style="fill:#aaaaaa"
         inkscape:connector-curvature="0"
         d="m 53.582,654.988 c 0.074,-0.053 0.147,-0.105 0.221,-0.16 -0.348,-0.195 -0.54,-0.57 -0.891,-0.762 0.155,0.535 0.106,0.695 0.67,0.922 z"
         id="path6340" />
      <path
         style="fill:#aaaaaa"
         inkscape:connector-curvature="0"
         d="m 54.345,657.144 c 0.181,-0.029 0.318,-0.125 0.411,-0.285 -0.377,-0.213 -1.168,-1.061 -1.619,-0.57 0.389,-0.117 0.704,0.186 1.015,0.35 -0.78,-0.225 -0.012,0.423 0.193,0.505 z"
         id="path6344" />
      <path
         style="fill:#aaaaaa"
         inkscape:connector-curvature="0"
         d="m 58.06,660.511 c 0.283,0.082 0.568,0.094 0.855,0.037 -0.492,-0.129 -0.845,-0.531 -1.333,-0.672 0.994,0.969 -1.358,-0.951 -0.317,0.031 -0.686,-0.518 -1.382,-0.531 -2.165,-0.734 -0.613,-0.16 -1.122,-0.83 -1.806,-0.66 0.828,0.377 1.407,0.904 2.275,1.168 0.438,0.135 0.901,0.055 1.333,0.229 0.36,0.144 0.711,0.769 1.158,0.601 z"
         id="path6346" />
      <path
         style="fill:#aaaaaa"
         inkscape:connector-curvature="0"
         d="m 53.833,656.224 c -0.101,-0.176 -0.114,-0.23 -0.349,-0.16 0.117,0.053 0.233,0.105 0.349,0.16 z"
         id="path6348" />
      <path
         style="fill:#aaaaaa"
         inkscape:connector-curvature="0"
         d="m 54.279,655.05 c -0.026,-0.316 -0.425,-0.404 -0.667,-0.445 0.21,0.166 0.432,0.314 0.667,0.445 z"
         id="path6350" />
      <path
         style="fill:#aaaaaa"
         inkscape:connector-curvature="0"
         d="m 55.231,656.541 c -0.119,-0.629 -1.055,-1.035 -1.619,-1.08 0.354,0.576 1.135,0.656 1.619,1.08 z"
         id="path6352" />
      <path
         style="fill:#aaaaaa"
         inkscape:connector-curvature="0"
         d="m 54.248,655.367 c -0.145,-0.131 -0.03,-0.244 -0.318,-0.158 0.106,0.052 0.212,0.105 0.318,0.158 z"
         id="path6354" />
      <path
         style="fill:#aaaaaa"
         inkscape:connector-curvature="0"
         d="m 55.201,657.144 c 0.073,-0.02 0.146,-0.041 0.22,-0.061 -0.21,-0.436 -0.735,-0.682 -1.204,-0.637 0.321,0.245 0.706,0.397 0.984,0.698 z"
         id="path6356" />
      <path
         style="fill:#aaaaaa"
         inkscape:connector-curvature="0"
         d="m 54.596,655.748 c 0.227,-0.178 0.154,-0.283 -0.221,-0.318 0.074,0.105 0.147,0.212 0.221,0.318 z"
         id="path6358" />
      <path
         style="fill:#aaaaaa"
         inkscape:connector-curvature="0"
         d="m 54.821,656.478 c 0.053,-0.229 -0.065,-0.271 -0.353,-0.127 0.118,0.043 0.236,0.084 0.353,0.127 z"
         id="path6360" />
      <path
         style="fill:#aaaaaa"
         inkscape:connector-curvature="0"
         d="m 55.611,658.386 c 0.446,-0.248 0.262,-1.195 -0.313,-1.094 -0.447,0.083 0.315,0.916 0.313,1.094 z"
         id="path6362" />
      <path
         style="fill:#aaaaaa"
         inkscape:connector-curvature="0"
         d="m 56.471,659.783 c 0.073,0.119 0.18,0.191 0.317,0.221 -0.105,-0.073 -0.211,-0.147 -0.317,-0.221 z"
         id="path6366" />
      <path
         style="fill:#aaaaaa"
         inkscape:connector-curvature="0"
         d="m 57.486,659.21 c -0.086,-0.434 -0.697,-0.391 -0.983,-0.221 0.351,-0.12 0.706,-0.007 0.983,0.221 z"
         id="path6368" />
      <path
         style="fill:#aaaaaa"
         inkscape:connector-curvature="0"
         d="m 56.661,655.906 c 0.253,-0.092 0.416,-0.299 0.286,-0.568 -0.235,0.101 -0.379,0.308 -0.286,0.568 z"
         id="path6370" />
      <path
         style="fill:#aaaaaa"
         inkscape:connector-curvature="0"
         d="m 46.845,648.031 c -0.241,-0.66 -0.929,-0.986 -1.589,-1.049 0.089,0.346 0.414,0.816 0.794,0.445 0.039,0.451 0.553,0.332 0.795,0.604 z"
         id="path6272" />
      <path
         style="fill:#aaaaaa"
         inkscape:connector-curvature="0"
         d="m 47.895,649.492 c 0.11,-0.24 0.27,-0.441 0.477,-0.605 -0.37,0.24 -0.695,0.213 -0.604,-0.252 -0.167,0.082 -0.309,0.057 -0.426,-0.074 -0.266,-0.205 -0.584,0.041 -0.876,0.01 0.238,0.195 1.079,0.307 1.015,0.732 -0.423,0.094 -0.365,-0.461 -0.794,-0.385 0.012,0.186 0.022,0.443 0.173,0.582 0.263,0.244 0.802,-0.084 0.498,0.469 0.249,-0.057 0.452,-0.235 0.537,-0.477 z"
         id="path6286" />
      <path
         style="fill:#aaaaaa"
         inkscape:connector-curvature="0"
         d="m 47.992,651.3 c 0.099,-0.318 -0.175,-0.586 -0.322,-0.826 0.249,0.129 0.451,0.037 0.477,-0.25 -0.352,0.084 -0.659,-0.203 -0.984,0.061 0.309,0.107 0.35,0.332 0.097,0.539 0.4,-0.016 0.325,0.476 0.732,0.476 z"
         id="path6290" />
      <path
         style="fill:#aaaaaa"
         inkscape:connector-curvature="0"
         d="m 48.243,649.839 c -0.086,-0.086 -0.192,-0.096 -0.317,-0.031 0.106,0.012 0.212,0.022 0.317,0.031 z"
         id="path6294" />
      <path
         style="fill:#aaaaaa"
         inkscape:connector-curvature="0"
         d="m 48.878,651.367 c 0.043,-0.281 -0.046,-0.621 -0.41,-0.572 0.024,0.251 0.187,0.462 0.41,0.572 z"
         id="path6300" />
      <path
         style="fill:#aaaaaa"
         inkscape:connector-curvature="0"
         d="m 49.104,650.226 c 0.141,-0.131 0.225,-0.289 0.251,-0.477 -0.281,0.036 -0.415,0.217 -0.251,0.477 z"
         id="path6304" />
      <path
         style="fill:#aaaaaa"
         inkscape:connector-curvature="0"
         d="m 49.991,651.654 c 0.012,-0.248 -0.703,-0.996 -0.953,-0.764 -0.466,0.436 0.673,0.752 0.953,0.764 z"
         id="path6306" />
      <path
         style="fill:#aaaaaa"
         inkscape:connector-curvature="0"
         d="m 50.308,652.478 c 0.188,-0.295 0.544,-0.508 0.891,-0.316 -0.537,-0.361 -0.594,-1.137 -1.398,-1.02 0.187,0.211 0.356,0.434 0.507,0.67 -0.336,-0.064 -0.671,-0.141 -1.015,-0.158 0.028,0.365 0.68,0.779 0.983,0.471 0.012,0.119 0.022,0.236 0.032,0.353 z"
         id="path6308" />
      <path
         style="fill:#aaaaaa"
         inkscape:connector-curvature="0"
         d="m 49.58,654.384 c 0.466,-0.123 0.232,-0.787 0.282,-1.113 -0.238,0.186 -0.451,0.08 -0.538,-0.189 0.013,0.396 -0.029,0.982 0.256,1.302 z"
         id="path6310" />
      <path
         style="fill:#aaaaaa"
         inkscape:connector-curvature="0"
         d="m 51.327,651.49 c 0.013,-0.377 -0.533,-0.576 -0.798,-0.697 0.596,0 0.161,-0.109 -0.061,-0.344 -0.25,-0.266 -0.498,-0.404 -0.857,-0.227 0.275,0.16 0.358,0.434 0.538,0.672 0.3,0.398 0.789,0.352 1.178,0.596 z"
         id="path6314" />
      <path
         style="fill:#aaaaaa"
         inkscape:connector-curvature="0"
         d="m 50.211,653.81 c 0.375,-0.104 0.567,-0.492 0.67,-0.092 -0.019,-0.139 -0.019,-0.277 0,-0.414 0.118,0.07 0.234,0.145 0.349,0.221 -0.316,-0.521 -0.725,-1.111 -1.209,-0.252 0.27,0.088 0.374,0.299 0.19,0.537 z"
         id="path6316" />
      <path
         style="fill:#aaaaaa"
         inkscape:connector-curvature="0"
         d="m 51.327,652.828 c 0.063,-0.359 -0.395,-0.377 -0.512,-0.666 -0.305,0.394 0.254,0.548 0.512,0.666 z"
         id="path6320" />
      <path
         style="fill:#aaaaaa"
         inkscape:connector-curvature="0"
         d="m 51.769,652.859 c 0.075,-0.021 0.15,-0.041 0.225,-0.062 -0.265,-0.326 -0.506,-0.682 -0.86,-0.922 0.2,0.333 0.407,0.666 0.635,0.984 z"
         id="path6324" />
      <path
         style="fill:#aaaaaa"
         inkscape:connector-curvature="0"
         d="m 52.628,653.718 c -0.018,-0.312 -0.286,-0.553 -0.604,-0.482 0.143,0.221 0.356,0.394 0.604,0.482 z"
         id="path6330" />
      <path
         style="fill:#aaaaaa"
         inkscape:connector-curvature="0"
         d="m 52.66,653.431 c 0.096,-0.064 0.191,-0.129 0.287,-0.193 -0.119,-0.285 -0.351,-0.359 -0.573,-0.123 0.082,0.117 0.177,0.222 0.286,0.316 z"
         id="path6338" />
      <path
         style="fill:#aaaaaa"
         inkscape:connector-curvature="0"
         d="m 53.485,653.431 c 0.011,-0.252 -0.129,-0.402 -0.379,-0.414 -0.012,0.252 0.128,0.402 0.379,0.414 z"
         id="path6342" />
      <path
         style="fill:#aaaaaa"
         inkscape:connector-curvature="0"
         d="m 44.75,643.55 c 0.567,-0.596 -1.406,-2.672 -2.162,-2.256 0.131,0.186 0.616,0.41 0.648,0.625 0.057,0.369 0.512,0.307 -0.044,0.523 0.296,0.121 0.645,-0.242 0.777,0.1 0.127,0.323 0.467,0.846 0.781,1.008 z"
         id="path6206" />
      <path
         style="fill:#aaaaaa"
         inkscape:connector-curvature="0"
         d="m 43.386,640.341 c 0.105,-0.205 0.062,-0.373 -0.128,-0.508 -0.096,0.09 -0.171,0.197 -0.225,0.318 0.118,0.063 0.236,0.126 0.353,0.19 z"
         id="path6218" />
      <path
         style="fill:#aaaaaa"
         inkscape:connector-curvature="0"
         d="m 43.545,643.519 c 0.439,0.098 0.71,-0.242 0.477,-0.637 -0.287,-0.486 -0.562,-0.141 -0.957,-0.029 0.086,0.385 0.483,0.416 0.794,0.506 -0.106,0.053 -0.21,0.107 -0.314,0.16 z"
         id="path6220" />
      <path
         style="fill:#aaaaaa"
         inkscape:connector-curvature="0"
         d="m 43.704,643.902 c 0.28,-0.072 0.525,-0.246 0.728,-0.447 -0.379,-0.119 -0.636,0.293 -1.015,0.129 0.088,0.113 0.184,0.218 0.287,0.318 z"
         id="path6224" />
      <path
         style="fill:#aaaaaa"
         inkscape:connector-curvature="0"
         d="m 43.827,640.15 c 0.129,-0.316 0.023,-0.4 -0.317,-0.25 0.106,0.084 0.211,0.166 0.317,0.25 z"
         id="path6226" />
      <path
         style="fill:#aaaaaa"
         inkscape:connector-curvature="0"
         d="m 44.622,641.203 c 0.106,-0.348 -0.031,-0.736 -0.349,-0.922 -0.144,0.211 -0.144,0.424 0,0.635 -0.23,-0.199 -0.788,-0.299 -0.666,0.189 0.336,-0.334 0.662,0.037 1.015,0.098 z"
         id="path6230" />
      <path
         style="fill:#aaaaaa"
         inkscape:connector-curvature="0"
         d="m 44.846,642.599 c 0.997,-0.738 -0.47,-1.311 -1.143,-1.207 0.297,0.471 0.697,0.877 1.143,1.207 z"
         id="path6232" />
      <path
         style="fill:#aaaaaa"
         inkscape:connector-curvature="0"
         d="m 45.226,644.984 c -0.039,-0.537 -1.029,-1.02 -1.46,-0.732 0.124,0.652 1.157,0.175 1.46,0.732 z"
         id="path6234" />
      <path
         style="fill:#aaaaaa"
         inkscape:connector-curvature="0"
         d="m 44.591,641.421 c -0.106,-0.268 -0.418,-0.32 -0.667,-0.287 0.239,0.057 0.461,0.153 0.667,0.287 z"
         id="path6236" />
      <path
         style="fill:#aaaaaa"
         inkscape:connector-curvature="0"
         d="m 44.37,645.013 c 0.053,-0.219 -0.053,-0.262 -0.317,-0.129 0.105,0.043 0.211,0.086 0.317,0.129 z"
         id="path6242" />
      <path
         style="fill:#aaaaaa"
         inkscape:connector-curvature="0"
         d="m 44.78,645.679 c -0.096,-0.424 0.673,-0.754 -0.093,-0.984 0.059,0.424 -0.742,0.855 0.093,0.984 z"
         id="path6254" />
      <path
         style="fill:#aaaaaa"
         inkscape:connector-curvature="0"
         d="m 45.226,644.664 c 0.116,-0.053 0.232,-0.105 0.348,-0.158 -0.181,-0.336 -0.538,-0.531 -0.917,-0.512 0.198,0.214 0.388,0.439 0.569,0.67 z"
         id="path6258" />
      <path
         style="fill:#aaaaaa"
         inkscape:connector-curvature="0"
         d="m 44.939,641.072 c -0.076,-0.121 -0.16,-0.238 -0.251,-0.348 0.083,0.115 0.167,0.233 0.251,0.348 z"
         id="path6260" />
      <path
         style="fill:#aaaaaa"
         inkscape:connector-curvature="0"
         d="m 45.195,644.06 c 0.01,-0.221 -0.086,-0.379 -0.287,-0.477 -0.133,0.266 0.023,0.434 0.287,0.477 z"
         id="path6262" />
      <path
         style="fill:#aaaaaa"
         inkscape:connector-curvature="0"
         d="m 46.435,643.519 c 0.582,-0.127 -1.086,-1.777 -1.302,-2.031 0.039,0.223 0.08,0.445 0.124,0.668 0.098,0.244 0.344,0.373 0.415,0.635 -0.241,-0.58 -0.915,-0.236 -0.588,0.297 0.244,0.4 0.975,0.259 1.351,0.431 z"
         id="path6264" />
      <path
         style="fill:#aaaaaa"
         inkscape:connector-curvature="0"
         d="m 45.323,646.693 c -0.089,-0.09 -0.195,-0.154 -0.317,-0.189 0.105,0.062 0.211,0.126 0.317,0.189 z"
         id="path6266" />
      <path
         style="fill:#aaaaaa"
         inkscape:connector-curvature="0"
         d="m 47.895,648.38 c 0.294,0.129 0.697,0.15 0.953,0 -0.079,-0.102 -0.164,-0.197 -0.256,-0.287 0.579,0.402 0.343,-0.584 -0.124,-0.666 0.864,0.166 -0.375,-0.932 -0.225,-0.062 -0.074,-0.742 -0.115,-1.818 -0.717,-2.363 -0.228,-0.207 -0.093,-0.531 -0.422,-0.635 -0.225,-0.07 -0.48,-1.252 -0.48,-0.402 -0.342,-1.357 -1.577,0.572 -0.666,0.158 -0.727,0.188 -0.045,0.643 0.287,0.318 -0.23,0.297 0.346,1.205 0.41,1.525 -0.185,-0.178 -0.397,-0.316 -0.635,-0.414 0.444,0.896 -0.779,-0.387 0,0.543 -0.145,-0.209 -0.377,-0.34 -0.635,-0.287 0.23,0.193 0.441,0.406 0.635,0.635 -0.343,-0.211 -0.586,-0.555 -0.953,-0.732 -0.054,0.596 0.573,0.697 0.853,1.098 0.303,0.436 0.784,1.096 1.371,1.127 0.031,-0.43 -0.441,-0.594 -0.477,-0.984 -0.037,-0.4 0.387,-0.42 0.415,-0.795 0.372,0.049 0.482,0.494 -0.066,0.381 -0.008,0.264 0.171,0.445 0.415,0.512 -0.118,0.061 -0.234,0.123 -0.349,0.189 0.106,0.246 0.439,0.285 0.642,0.412 0.439,0.277 -0.339,0.582 0.374,0.443 -0.113,0.101 -0.229,0.197 -0.35,0.286 z"
         id="path6268" />
      <path
         style="fill:#aaaaaa"
         inkscape:connector-curvature="0"
         d="m 45.384,643.71 c 0.347,-0.197 0.201,-0.357 -0.159,-0.316 0.054,0.106 0.107,0.211 0.159,0.316 z"
         id="path6270" />
      <path
         style="fill:#aaaaaa"
         inkscape:connector-curvature="0"
         d="m 45.384,640.5 c 0.08,-0.156 0.19,-0.127 0.097,-0.348 -0.032,0.115 -0.064,0.232 -0.097,0.348 z"
         id="path6274" />
      <path
         style="fill:#aaaaaa"
         inkscape:connector-curvature="0"
         d="m 46.435,645.71 c 0.14,-0.549 -0.779,-1.301 -0.986,-0.709 -0.083,0.237 0.846,0.575 0.986,0.709 z"
         id="path6276" />
      <path
         style="fill:#aaaaaa"
         inkscape:connector-curvature="0"
         d="m 45.83,645.65 c -0.078,-0.102 -0.184,-0.145 -0.317,-0.127 0.106,0.043 0.211,0.084 0.317,0.127 z"
         id="path6278" />
      <path
         style="fill:#aaaaaa"
         inkscape:connector-curvature="0"
         d="m 46.148,642.216 c 0.475,-0.336 -0.135,-0.684 -0.477,-0.666 0.161,0.223 0.319,0.444 0.477,0.666 z"
         id="path6280" />
      <path
         style="fill:#aaaaaa"
         inkscape:connector-curvature="0"
         d="m 46.179,640.884 c 0.377,-0.115 0.818,-0.025 1.112,-0.348 -0.532,-0.275 -1.061,-0.064 -1.619,-0.129 0.047,0.262 0.242,0.448 0.507,0.477 z"
         id="path6282" />
      <path
         style="fill:#aaaaaa"
         inkscape:connector-curvature="0"
         d="m 47.101,642.693 c 0.08,-0.312 -0.388,-0.471 -0.573,-0.604 -0.191,0.414 0.326,0.471 0.573,0.604 z"
         id="path6284" />
      <path
         style="fill:#aaaaaa"
         inkscape:connector-curvature="0"
         d="m 47.767,642.791 c -0.128,-0.242 -0.386,-0.406 -0.667,-0.35 0.212,0.139 0.433,0.254 0.667,0.35 z"
         id="path6288" />
      <path
         style="fill:#aaaaaa"
         inkscape:connector-curvature="0"
         d="m 48.023,641.013 c -0.025,-0.18 -0.13,-0.275 -0.317,-0.287 0.105,0.096 0.211,0.191 0.317,0.287 z"
         id="path6292" />
      <path
         style="fill:#aaaaaa"
         inkscape:connector-curvature="0"
         d="m 48.561,646.951 c 0.096,-0.074 0.191,-0.15 0.287,-0.225 -0.156,-0.211 -0.38,-0.375 -0.636,-0.441 0.095,0.232 0.211,0.455 0.349,0.666 z"
         id="path6296" />
      <path
         style="fill:#aaaaaa"
         inkscape:connector-curvature="0"
         d="m 48.561,641.361 c -0.098,-0.068 -0.204,-0.121 -0.318,-0.158 0.107,0.052 0.212,0.105 0.318,0.158 z"
         id="path6298" />
      <path
         style="fill:#aaaaaa"
         inkscape:connector-curvature="0"
         d="m 41.255,632.402 c -0.104,-0.078 -0.221,-0.133 -0.349,-0.16 0.116,0.052 0.233,0.105 0.349,0.16 z"
         id="path6166" />
      <path
         style="fill:#aaaaaa"
         inkscape:connector-curvature="0"
         d="m 41.445,632.498 c 0.105,0.021 0.211,0.041 0.317,0.062 0.013,-0.215 -0.007,-0.428 -0.062,-0.635 -0.283,0.08 -0.414,0.303 -0.255,0.573 z"
         id="path6176" />
      <path
         style="fill:#aaaaaa"
         inkscape:connector-curvature="0"
         d="m 43.766,633.195 c 0.053,-0.281 0.082,-0.73 -0.349,-0.666 0.049,0.256 0.165,0.478 0.349,0.666 z"
         id="path6222" />
      <path
         style="fill:#aaaaaa"
         inkscape:connector-curvature="0"
         d="m 44.242,633.449 c 0.092,-0.197 0.241,-0.336 0.445,-0.414 -0.328,-0.391 -0.856,0.07 -0.445,0.414 z"
         id="path6240" />
      <path
         style="fill:#aaaaaa"
         inkscape:connector-curvature="0"
         d="m 44.339,632.625 c -0.04,-0.16 -0.135,-0.277 -0.287,-0.354 0.095,0.119 0.192,0.236 0.287,0.354 z"
         id="path6244" />
      <path
         style="fill:#aaaaaa"
         inkscape:connector-curvature="0"
         d="m 44.559,630.333 c -0.068,-0.129 -0.164,-0.234 -0.286,-0.316 0.095,0.106 0.191,0.211 0.286,0.316 z"
         id="path6248" />
      <path
         style="fill:#aaaaaa"
         inkscape:connector-curvature="0"
         d="m 44.401,637.835 c 0.159,-0.094 0.232,-0.23 0.221,-0.416 -0.36,-0.039 -0.434,0.1 -0.221,0.416 z"
         id="path6250" />
      <path
         style="fill:#aaaaaa"
         inkscape:connector-curvature="0"
         d="m 44.97,634.275 c 0.146,-0.465 -0.259,-0.867 -0.666,-0.477 0.257,0.11 0.479,0.27 0.666,0.477 z"
         id="path6252" />
      <path
         style="fill:#aaaaaa"
         inkscape:connector-curvature="0"
         d="m 44.939,633.609 c -0.083,-0.203 -0.229,-0.328 -0.441,-0.381 0.032,0.248 0.19,0.389 0.441,0.381 z"
         id="path6256" />
      <path
         style="fill:#aaaaaa"
         inkscape:connector-curvature="0"
         d="m 40.302,626.367 c -0.161,-0.066 -0.134,-0.176 -0.349,-0.062 0.117,0.021 0.233,0.04 0.349,0.062 z"
         id="path6144" />
      <path
         style="fill:#aaaaaa"
         inkscape:connector-curvature="0"
         d="m 41.67,627.636 c 0.195,-0.287 -0.187,-0.309 -0.353,-0.158 0.117,0.053 0.235,0.105 0.353,0.158 z"
         id="path6174" />
      <path
         style="fill:#aaaaaa"
         inkscape:connector-curvature="0"
         d="m 39.16,617.826 c -0.313,-0.24 -0.394,-0.062 -0.549,0.182 -0.19,0.301 -0.82,-0.344 -1.07,-0.342 0.55,0.561 0.051,1.314 0.336,1.775 0.474,0.766 0.398,1.898 0.774,2.664 0.162,0.326 -0.192,0.529 -0.046,0.889 0.142,0.35 0.583,0.451 0.909,0.539 0.283,0.076 0.571,0.16 0.862,0.199 0.6,0.076 0.091,-0.805 0.054,-0.982 0.923,-0.109 -10e-4,-0.75 -0.287,-1.02 0.212,0.033 0.423,0.033 0.635,0 -0.115,-0.209 -1.844,-1.338 -0.892,-1.334 -0.722,-0.424 0.033,-0.672 0.384,-0.953 -0.456,-0.455 -0.9,-0.998 -1.11,-1.617 z"
         id="path6130" />
      <path
         style="fill:#aaaaaa"
         inkscape:connector-curvature="0"
         d="m 37.982,624.654 c 0.116,-0.074 0.223,-0.16 0.322,-0.256 -0.212,-0.145 -0.423,-0.145 -0.635,0 0.104,0.086 0.208,0.17 0.313,0.256 z"
         id="path6132" />
      <path
         style="fill:#aaaaaa"
         inkscape:connector-curvature="0"
         d="m 39.032,629.478 c 0.104,-0.26 -0.05,-0.412 -0.317,-0.318 0.096,0.117 0.202,0.222 0.317,0.318 z"
         id="path6134" />
      <path
         style="fill:#aaaaaa"
         inkscape:connector-curvature="0"
         d="m 39.575,628.556 c -0.032,-0.191 -0.032,-0.26 -0.256,-0.316 0.084,0.105 0.17,0.211 0.256,0.316 z"
         id="path6136" />
      <path
         style="fill:#aaaaaa"
         inkscape:connector-curvature="0"
         d="m 40.051,620.873 c 0.057,-0.273 -0.049,-0.283 -0.317,-0.031 0.105,0.009 0.211,0.021 0.317,0.031 z"
         id="path6138" />
      <path
         style="fill:#aaaaaa"
         inkscape:connector-curvature="0"
         d="m 40.492,620.554 c -0.07,-0.301 -0.368,-0.48 -0.667,-0.383 0.251,0.08 0.473,0.207 0.667,0.383 z"
         id="path6140" />
      <path
         style="fill:#aaaaaa"
         inkscape:connector-curvature="0"
         d="m 40.558,628.625 c -0.135,-0.318 -0.463,-0.301 -0.671,-0.066 0.224,0.021 0.447,0.044 0.671,0.066 z"
         id="path6142" />
      <path
         style="fill:#aaaaaa"
         inkscape:connector-curvature="0"
         d="m 40.527,628.05 c 0.148,-0.156 0.19,-0.334 0.124,-0.539 -0.186,0.209 -0.408,0.26 -0.666,0.154 0.09,0.233 0.285,0.395 0.542,0.385 z"
         id="path6146" />
      <path
         style="fill:#aaaaaa"
         inkscape:connector-curvature="0"
         d="m 40.43,626.494 c -0.102,-0.039 -0.208,-0.049 -0.318,-0.031 0.107,0.011 0.212,0.021 0.318,0.031 z"
         id="path6148" />
      <path
         style="fill:#aaaaaa"
         inkscape:connector-curvature="0"
         d="m 40.46,627.128 c -0.088,-0.082 -0.194,-0.102 -0.317,-0.061 0.106,0.02 0.212,0.04 0.317,0.061 z"
         id="path6150" />
      <path
         style="fill:#aaaaaa"
         inkscape:connector-curvature="0"
         d="m 40.844,625.765 c -0.035,-0.24 0.076,-0.463 0.349,-0.477 -0.357,0.109 -0.739,-0.082 -1.019,0.252 0.242,0.02 0.466,0.096 0.67,0.225 z"
         id="path6152" />
      <path
         style="fill:#aaaaaa"
         inkscape:connector-curvature="0"
         d="m 41.065,629.224 c 0.075,-0.344 -0.341,-0.494 -0.605,-0.477 0.151,0.223 0.352,0.383 0.605,0.477 z"
         id="path6154" />
      <path
         style="fill:#aaaaaa"
         inkscape:connector-curvature="0"
         d="m 40.748,617.947 c 0.015,-0.18 -0.071,-0.297 -0.256,-0.348 0.085,0.115 0.171,0.233 0.256,0.348 z"
         id="path6156" />
      <path
         style="fill:#aaaaaa"
         inkscape:connector-curvature="0"
         d="m 41.255,622.205 c -0.18,-0.166 -0.392,-0.229 -0.635,-0.189 0.212,0.06 0.424,0.122 0.635,0.189 z"
         id="path6158" />
      <path
         style="fill:#aaaaaa"
         inkscape:connector-curvature="0"
         d="m 41.353,629.033 c 0.339,-0.139 0.592,-0.467 0.983,-0.477 -0.314,-0.289 -0.834,-0.412 -1.244,-0.287 -0.691,0.211 -0.192,0.645 0.261,0.764 z"
         id="path6160" />
      <path
         style="fill:#aaaaaa"
         inkscape:connector-curvature="0"
         d="m 41.383,627.224 c 0.019,-0.145 0.062,-0.283 0.128,-0.414 -0.228,-0.092 -0.461,-0.111 -0.702,-0.062 0.132,0.23 0.324,0.388 0.574,0.476 z"
         id="path6162" />
      <path
         style="fill:#aaaaaa"
         inkscape:connector-curvature="0"
         d="m 41.353,625.923 c -0.082,-0.096 -0.187,-0.129 -0.318,-0.098 0.106,0.034 0.212,0.067 0.318,0.098 z"
         id="path6168" />
      <path
         style="fill:#aaaaaa"
         inkscape:connector-curvature="0"
         d="m 41.604,628.082 c 0.042,-0.096 0.085,-0.191 0.127,-0.287 -0.217,-0.072 -0.439,-0.125 -0.666,-0.158 0.096,0.226 0.295,0.398 0.539,0.445 z"
         id="path6170" />
      <path
         style="fill:#aaaaaa"
         inkscape:connector-curvature="0"
         d="m 41.604,626.75 c -0.063,-0.189 -0.19,-0.318 -0.38,-0.385 -0.013,0.254 0.127,0.394 0.38,0.385 z"
         id="path6172" />
      <path
         style="fill:#aaaaaa"
         inkscape:connector-curvature="0"
         d="m 41.353,629.736 c 0.388,0.162 0.869,-0.08 1.235,-0.193 -0.402,-0.329 -0.986,-0.305 -1.235,0.193 z"
         id="path6178" />
      <path
         style="fill:#aaaaaa"
         inkscape:connector-curvature="0"
         d="m 41.891,630.878 c 0.069,-0.275 -0.176,-0.484 -0.415,-0.543 0.007,0.258 0.168,0.467 0.415,0.543 z"
         id="path6180" />
      <path
         style="fill:#aaaaaa"
         inkscape:connector-curvature="0"
         d="m 41.86,627.255 c 0.038,-0.338 -0.078,-0.359 -0.349,-0.061 0.116,0.02 0.233,0.042 0.349,0.061 z"
         id="path6182" />
      <path
         style="fill:#aaaaaa"
         inkscape:connector-curvature="0"
         d="m 41.86,631.228 c 0.079,-0.316 -0.027,-0.359 -0.318,-0.129 0.106,0.043 0.211,0.086 0.318,0.129 z"
         id="path6186" />
      <path
         style="fill:#aaaaaa"
         inkscape:connector-curvature="0"
         d="m 42.146,626.494 c 0.137,-0.359 -0.254,-0.598 -0.542,-0.635 0.149,0.238 0.331,0.449 0.542,0.635 z"
         id="path6188" />
      <path
         style="fill:#aaaaaa"
         inkscape:connector-curvature="0"
         d="m 41.988,627.732 c 0.177,-0.203 0.102,-0.309 -0.225,-0.318 0.074,0.107 0.15,0.212 0.225,0.318 z"
         id="path6190" />
      <path
         style="fill:#aaaaaa"
         inkscape:connector-curvature="0"
         d="m 42.08,629.224 c 0.045,-0.115 0.045,-0.23 0,-0.35 -0.121,0.066 -0.227,0.152 -0.317,0.256 0.106,0.032 0.211,0.063 0.317,0.094 z"
         id="path6192" />
      <path
         style="fill:#aaaaaa"
         inkscape:connector-curvature="0"
         d="m 42.239,632.656 c 0.435,-0.215 0.566,-1.107 -0.062,-1.143 -0.689,-0.037 -0.019,0.887 0.062,1.143 z"
         id="path6194" />
      <path
         style="fill:#aaaaaa"
         inkscape:connector-curvature="0"
         d="m 42.685,629.736 c -0.27,0.141 -0.578,0.164 -0.855,0.283 0.078,0.641 1.333,0.615 1.778,0.543 -0.064,-0.422 -0.487,-0.832 -0.923,-0.826 z"
         id="path6196" />
      <path
         style="fill:#aaaaaa"
         inkscape:connector-curvature="0"
         d="m 42.972,631.099 c 0.201,-0.021 0.403,-0.043 0.604,-0.061 -0.189,-0.369 -0.919,-0.545 -1.271,-0.35 0.187,0.196 0.409,0.331 0.667,0.411 z"
         id="path6198" />
      <path
         style="fill:#aaaaaa"
         inkscape:connector-curvature="0"
         d="m 42.843,629.578 c 0.195,-0.348 -0.169,-0.658 -0.507,-0.543 0.103,0.242 0.273,0.423 0.507,0.543 z"
         id="path6200" />
      <path
         style="fill:#aaaaaa"
         inkscape:connector-curvature="0"
         d="m 42.812,628.785 c 0.138,-0.033 0.277,-0.064 0.415,-0.098 -0.476,-0.928 -1.2,-0.189 -0.415,0.098 z"
         id="path6202" />
      <path
         style="fill:#aaaaaa"
         inkscape:connector-curvature="0"
         d="m 42.715,619.027 c 0.063,-0.238 -0.042,-0.291 -0.317,-0.158 0.106,0.052 0.211,0.105 0.317,0.158 z"
         id="path6204" />
      <path
         style="fill:#aaaaaa"
         inkscape:connector-curvature="0"
         d="m 42.91,631.925 c 0.17,-0.309 0.547,-0.199 0.794,-0.094 -0.169,-0.492 -1.093,-0.503 -0.794,0.094 z"
         id="path6208" />
      <path
         style="fill:#aaaaaa"
         inkscape:connector-curvature="0"
         d="m 43.1,629.13 c 0.073,0 0.146,0 0.22,0 10e-4,-0.273 -0.139,-0.41 -0.41,-0.318 0.063,0.105 0.126,0.213 0.19,0.318 z"
         id="path6210" />
      <path
         style="fill:#aaaaaa"
         inkscape:connector-curvature="0"
         d="m 43.351,631.386 c 0.033,-0.287 -0.083,-0.318 -0.348,-0.098 0.115,0.034 0.231,0.067 0.348,0.098 z"
         id="path6212" />
      <path
         style="fill:#aaaaaa"
         inkscape:connector-curvature="0"
         d="m 43.479,626.078 c -0.051,-0.346 -0.086,-0.645 -0.477,-0.41 0.05,0.236 0.232,0.4 0.477,0.41 z"
         id="path6214" />
      <path
         style="fill:#aaaaaa"
         inkscape:connector-curvature="0"
         d="m 43.576,632.466 c 0.478,-0.297 -0.223,-0.75 -0.573,-0.508 0.114,0.237 0.321,0.428 0.573,0.508 z"
         id="path6216" />
      <path
         style="fill:#aaaaaa"
         inkscape:connector-curvature="0"
         d="m 45.446,628.748 c -0.072,-0.125 -0.156,-0.24 -0.251,-0.35 0.471,-0.127 0.372,-0.6 -0.07,-0.643 -0.145,0.01 -0.282,-0.018 -0.41,-0.086 -0.378,-0.309 -0.305,0.141 -0.79,-0.127 -0.099,0.271 0.066,0.463 0.318,0.539 -0.206,0.156 -0.438,0.23 -0.697,0.221 0.086,0.324 0.314,0.762 0.728,0.67 -0.717,0.131 0.019,0.434 0.272,0.467 0.4,0.053 0.695,-0.434 0.9,-0.691 z"
         id="path6228" />
      <path
         style="fill:#aaaaaa"
         inkscape:connector-curvature="0"
         d="m 44.657,632.593 c 0.02,-0.164 -0.175,-1.213 -0.443,-1.113 -0.795,0.291 0.145,0.867 0.443,1.113 z"
         id="path6238" />
      <path
         style="fill:#aaaaaa"
         inkscape:connector-curvature="0"
         d="m 29.215,528.279 c 0.7,-0.396 1.535,-0.039 1.813,-1.02 0.128,-0.451 -0.491,-1.113 -0.136,-1.496 0.084,-0.055 0.175,-0.068 0.273,-0.043 0.284,-0.004 0.534,-0.473 0.688,-0.654 0.003,0.553 0.588,0.797 0.738,1.285 0.146,0.477 0.44,0.654 0.912,0.748 -0.437,0.418 0.203,1.584 0.354,2.021 0.392,1.139 0.621,1.809 1.592,2.594 0.878,0.711 0.49,0.938 0.111,1.834 -0.066,0.156 0.644,0.605 0.641,0.906 -0.004,0.379 -0.584,0.412 -0.823,0.555 0.476,0.441 0.089,0.916 0.384,1.398 0.146,0.24 0.518,0.176 0.666,0.412 0.203,0.322 -0.038,0.352 0,0.67 0.114,0.967 1.43,1.428 1.538,2.541 0.131,1.35 1.035,2.479 1.414,3.746 0.291,0.971 0.285,2.205 1.671,1.764 1.432,-0.455 1.516,0.436 1.375,1.611 -0.108,0.9 0.149,2.344 -0.619,3.012 -0.776,0.674 -2.15,0.502 -2.681,1.492 -0.197,0.369 -0.697,0.551 -0.738,1.01 -0.037,0.412 0.645,1.129 0.802,1.531 -1.003,0.035 -0.315,1.631 -0.104,2.096 0.185,0.408 0.407,0.797 0.555,1.219 0.228,0.652 -0.383,0.797 -0.344,1.389 0.055,0.824 1.422,1.738 1.226,2.438 -0.119,0.42 -0.842,0.637 -1.191,0.463 -0.423,-0.211 -0.513,1.07 -0.563,1.273 -0.309,1.236 -0.684,2.139 -1.343,3.215 -0.569,0.928 0.095,1.99 -0.251,2.967 -0.172,0.488 -0.613,0.555 -0.435,1.17 0.15,0.516 0.517,0.939 0.666,1.453 0.087,0.297 0.092,0.611 0.18,0.908 0.08,0.27 0.325,0.393 0.407,0.639 0.166,0.496 -0.452,1.021 -0.899,0.723 0.371,0.42 -0.097,1.262 -0.097,1.74 0,0.334 0.333,0.834 0.006,1.119 -0.239,0.211 -0.417,0.16 -0.442,0.596 -0.044,0.738 0.479,1.488 0.836,2.098 0.174,0.297 0.545,0.197 0.741,0.475 0.169,0.24 0.079,0.508 -0.25,0.355 0.241,0.842 1.152,1.371 1.305,2.227 0.061,0.342 0.072,0.654 0.427,0.832 0.472,0.236 0.079,0.729 0.174,1.104 0.251,0.99 1.216,0.102 1.204,1.227 -0.01,0.893 0.006,1.613 0.495,2.391 0.076,0.121 0.394,0.947 -0.044,0.824 -0.407,-0.117 -0.361,0.08 -0.35,0.416 0.012,0.379 -0.168,0.729 -0.228,1.1 -0.073,0.447 0.048,0.879 0.065,1.324 0.018,0.471 -0.316,0.375 -0.379,0.658 -0.081,0.365 0.124,0.221 0.262,0.498 0.435,0.871 0.643,1.771 1.014,2.639 0.119,0.279 -0.013,0.473 -0.297,0.504 -0.263,0.029 -0.303,0.459 -0.373,0.648 -0.165,0.451 -1.028,0.309 -0.836,0.938 0.116,0.383 -0.173,0.727 -0.037,1.117 0.129,0.375 0.433,0.686 0.473,1.092 0.064,0.662 0.258,1.277 0.386,1.91 0.145,0.713 0.865,1.109 1.157,1.738 0.192,0.412 0.243,0.889 0.536,1.254 0.139,0.172 0.582,0.527 0.462,0.805 -0.259,0.602 -1.398,0.561 -1.196,1.404 0.126,0.527 0.035,1.789 0.417,2.16 -0.439,0.016 -0.73,0.068 -0.458,0.568 0.11,0.201 1.03,1.617 0.11,1.307 0.092,0.488 0.568,0.508 0.689,0.867 0.097,0.285 -0.188,0.586 -0.244,0.85 -0.179,0.844 0.525,1.365 0.76,2.16 0.193,0.656 0.304,1.482 0.577,2.086 0.27,0.596 0.763,1.053 1.107,1.6 -0.254,0.24 -0.828,0.129 -0.919,0.543 -0.081,0.363 0.442,0.941 0.493,1.375 0.058,0.492 0.301,1.498 0.731,1.793 0.388,0.266 1.313,0.08 1.346,0.736 0.028,0.568 -0.829,0.15 0.025,0.846 0.172,0.139 0.427,0.334 0.583,0.506 0.346,0.385 -0.207,0.256 -0.096,0.52 0.106,0.252 0.472,0.348 0.619,0.58 0.23,0.363 -0.304,0.596 -0.125,0.918 0.229,0.41 0.28,0.812 0.738,0.9 0.618,0.119 1.432,-0.119 1.905,0.373 0.125,0.131 0.107,0.816 -0.013,0.924 -0.453,0.41 -1.252,-0.006 -1.76,0.016 -1.106,0.043 0.083,0.715 0.571,0.758 1.043,0.092 2.239,1.182 1.461,2.172 -0.103,0.131 -0.335,-0.027 -0.439,0.131 -0.181,0.279 0.219,0.695 0.28,0.949 0.056,0.232 0.395,0.211 0.525,0.381 0.212,0.279 -0.112,0.777 -0.428,0.791 0.449,0.328 1.704,1.467 1.338,2.113 -0.171,0.303 -0.554,0.377 -0.344,0.799 0.06,0.119 0.005,0.531 0.143,0.594 0.236,0.105 0.435,0.254 0.543,0.496 -0.487,-0.074 -0.89,1.215 -0.866,1.578 0.028,0.42 -0.096,0.816 0.184,1.178 0.241,0.314 1.263,0.99 1.14,1.455 -0.076,0.285 -0.537,0.252 -0.617,0.516 -0.133,0.443 0.844,0.824 0.463,1.438 -0.198,0.32 -0.732,0.25 -0.868,0.605 -0.175,0.455 0.123,1.184 -0.707,1.049 0.069,0.447 0.055,0.908 0.316,1.301 0.216,0.324 0.57,1.027 0.61,1.396 0.057,0.52 1.073,0.861 1.363,1.273 0.281,0.398 0.435,1.094 0.916,1.312 0.331,0.15 0.412,-0.053 0.658,-0.229 0.292,-0.207 0.551,-0.072 0.871,-0.068 0.687,0.006 0.749,-0.117 1.186,0.551 0.303,0.467 0.045,1.066 0.484,1.32 0.384,0.223 0.615,1.064 0.365,1.432 0.66,0.084 1.729,0.945 2.106,1.449 0.433,0.578 2.358,0.17 2.983,0.17 2.592,0 5.045,0.539 7.55,1.18 -0.651,0.012 -1.242,-0.268 -1.871,-0.385 -1.146,-0.213 -0.566,0.412 -0.922,0.891 -0.314,0.424 -0.945,0.023 -1.313,0.432 -0.445,0.492 -1.251,0.398 -1.832,0.584 0.385,0.51 0.417,1.148 0.547,1.748 0.126,0.586 0.49,0.916 0.764,1.416 0.732,1.332 -1.013,0.881 -1.677,0.744 -0.798,-0.166 -2.613,-0.666 -2.919,-1.545 -0.308,-0.881 1.403,-0.377 0.682,0.209 0.411,0.012 0.283,-0.488 0.441,-0.703 0.114,-0.154 1.013,0.637 0.574,1.057 0.694,-0.238 -0.572,-1.311 0.734,-1.541 0.226,-0.041 0.275,-0.656 0.276,-0.816 0.001,-0.451 -0.758,-0.357 -1.01,-0.598 0.018,0.471 -0.658,0.902 -0.984,1.143 -0.553,0.406 -1.046,-0.225 -1.588,0.127 0.395,-0.076 0.703,0.266 0.983,0.477 -0.229,0.051 -0.452,0.029 -0.667,-0.066 0.086,0.24 0.054,0.465 -0.097,0.672 0.401,0.053 0.712,0.336 0.988,0.604 -0.96,0.244 -2.588,-0.799 -3.273,-1.398 0.473,0.227 1.138,0.201 1.65,0.189 -0.083,-0.426 -1.089,-0.459 -1.125,-1.291 -0.021,-0.5 0.852,-0.701 0.684,-0.076 0.557,-0.164 0.64,-0.111 1.028,-0.58 0.395,-0.475 1.436,0.23 1.985,-0.148 -0.352,-0.457 -2.68,-0.787 -2.792,0 -0.313,-0.109 -0.537,-0.244 -0.031,-0.445 -0.299,0.01 -1.503,0.027 -1.24,0.604 0.212,-0.203 0.435,-0.215 0.666,-0.029 -0.09,0.242 -0.292,0.43 -0.538,0.506 0.165,0.277 0.671,0.951 0.025,1.008 -0.4,0.035 -1.289,-0.471 -0.501,-0.689 -0.395,0.123 -0.7,-0.207 -0.984,-0.414 0.222,0.033 0.444,0.033 0.666,0 -0.121,-0.057 -0.239,-0.119 -0.353,-0.189 0.438,-0.268 -0.052,-0.787 0.542,-0.637 -0.467,-0.17 -0.467,-0.244 0,-0.221 -0.222,-0.072 -0.444,-0.072 -0.667,0 0.234,0.166 0.292,0.43 0.124,0.666 -0.109,-0.223 -0.318,-0.387 -0.569,-0.414 0.012,0.268 -0.142,0.494 -0.379,0.605 0.137,-0.309 0.042,-0.424 -0.287,-0.35 0.72,-0.59 -1.016,-1.678 -1.147,-2.223 0.302,0.34 0.835,0.674 1.307,0.652 0.217,-0.01 1.057,-0.764 0.824,0.111 0.334,-0.199 0.969,0.139 0.477,-0.445 0.172,0.748 -0.287,-0.238 -0.287,-0.605 0.374,0.033 0.701,0.416 0.974,0.635 0.506,0.408 0.188,0.768 -0.118,1.174 0.31,-0.201 0.659,-0.055 0.988,-0.031 -0.434,-0.217 -0.107,-0.736 -0.497,-0.971 -0.238,-0.141 -1.034,-0.744 -0.328,-0.838 -0.43,-0.336 -0.621,-0.873 -1.102,-1.16 -0.515,-0.307 -1.15,-0.318 -1.603,-0.744 -0.083,0.094 -0.146,0.199 -0.189,0.316 0.401,-0.043 2.358,0.471 2.305,1.016 -0.043,0.449 -2.051,-0.598 -2.336,-0.568 0.203,0.277 0.501,0.217 0.749,0.412 0.265,0.211 0.094,0.598 0.522,0.602 -0.164,0.184 -0.269,0.396 -0.318,0.635 -0.298,-0.438 -0.521,-0.969 -0.953,-1.301 0.34,0.436 0.847,1.029 0.825,1.619 -0.492,-0.434 -1.137,-0.607 -1.395,-1.27 0.219,0.164 0.44,0.322 0.667,0.475 -0.172,-0.301 -0.704,-0.5 -0.604,-0.922 -0.206,0.002 -0.431,0.207 -0.635,0.16 -0.204,-0.049 -0.159,-0.35 -0.417,-0.395 -0.271,-0.049 -0.618,-0.729 -0.664,-0.971 0.558,0.137 0.898,0.623 1.332,0.953 -0.435,-0.492 -0.703,-1.121 -1.204,-1.557 0.69,0.621 0.165,-0.16 -0.159,-0.225 -0.032,0.105 -0.064,0.211 -0.097,0.318 -0.265,-0.068 -0.497,-0.195 -0.697,-0.381 0.446,0.721 -0.614,-0.467 -0.78,-0.615 -0.204,-0.18 0.303,-0.271 0.374,-0.283 0.143,-0.023 0.286,-0.029 0.43,-0.021 0.549,0.043 -0.522,-0.627 0.294,-0.16 -0.286,-0.242 -0.265,-0.742 0.189,-0.732 -0.372,0.012 -0.783,-0.352 -0.507,-0.729 -0.356,0.316 -0.029,0.988 -0.258,1.369 -0.27,0.445 -1.386,-1.078 -1.617,-1.209 0.241,0.08 0.462,0.195 0.667,0.348 -0.666,-0.602 0.056,-0.158 0.384,-0.189 -0.415,-0.365 -1.327,-0.334 -1.496,-0.855 0,0.734 -0.826,-0.354 -1.271,-0.385 0.451,-0.893 1.894,0.488 2.607,0.385 -0.63,-0.146 -1.933,-0.525 -2.034,-1.307 0.522,-0.027 0.887,0.518 1.429,0.318 -0.341,0.021 -0.417,-0.24 -0.286,-0.508 -0.312,0.762 -1.848,-0.406 -0.763,-0.604 -0.246,0.062 -1.122,-0.213 -0.621,-0.508 0.66,-0.385 1.16,0.322 1.733,0.508 -0.418,-0.256 -0.88,-0.533 -1.235,-0.76 -0.185,-0.119 -0.493,-0.146 -0.477,-0.445 0.016,-0.289 0.331,-0.354 0.538,-0.225 -0.344,-0.164 -0.959,-1.439 -0.255,-1.076 -0.238,-0.156 -0.46,-0.135 -0.667,0.061 0.167,0.16 0.188,1.445 0.066,1.65 -0.487,-0.475 -1.26,-1.324 -1.221,-2.047 0.009,-0.168 -0.578,-0.477 -0.306,-0.688 0.203,-0.158 0.689,-0.172 0.923,-0.09 -0.103,-0.076 -1.732,-0.248 -1.138,-0.799 0.249,-0.229 0.882,0.102 1.138,0.195 -0.267,-0.143 -0.375,-0.404 -0.19,-0.666 -0.219,0.025 -1.472,-0.078 -0.67,-0.354 -0.782,0.357 -1.202,-1.096 -1.968,-0.855 -0.118,-0.852 1.152,0.145 1.363,0.348 -0.146,-0.221 -0.303,-0.432 -0.472,-0.635 0.595,-0.09 1.037,0.205 1.578,0.377 0.23,0.074 0.48,-0.004 0.689,0.146 0.292,0.209 0.659,0.096 0.905,0.301 0.113,-0.193 0.092,-0.373 -0.062,-0.537 -0.136,0.701 -1.198,-0.258 -1.239,-0.635 0.403,0.316 0.874,0.221 1.336,0.348 -0.171,-0.064 -0.348,-0.094 -0.531,-0.086 -0.363,-0.035 -0.534,-0.42 -0.805,-0.611 -0.242,-0.17 -0.464,-0.09 -0.667,-0.348 -0.161,-0.207 -0.049,-0.473 -0.251,-0.672 0.279,0.373 0.37,1.26 -0.354,1.088 -0.616,-0.148 -1.897,-0.027 -2.346,-0.482 0.275,-0.07 0.372,-0.273 0.19,-0.508 0.631,-0.168 0.903,0.58 1.461,0.697 -0.493,-0.094 -0.198,-0.598 0.189,-0.445 -0.07,-0.58 -0.401,-0.018 -0.757,-0.209 -0.245,-0.131 -0.357,-0.457 -0.671,-0.457 -0.324,0 0.134,-1.49 0.666,-0.637 -0.093,-0.258 0.001,-0.422 0.287,-0.41 -0.038,-0.158 -0.101,-0.307 -0.189,-0.445 -0.056,0.404 -0.441,0.531 -0.636,0.129 0.208,-0.072 0.419,-0.125 0.636,-0.16 -0.21,-0.291 -0.652,-0.348 -0.938,-0.535 -0.598,-0.391 -0.736,-0.59 -1.445,-0.197 0.255,-0.082 0.509,0.016 0.667,0.227 -0.53,-0.131 -1.075,-0.23 -1.56,-0.494 -0.851,-0.465 -0.247,-0.67 -0.567,-1.223 -0.308,0.609 -1.549,0.693 -1.589,1.24 0.578,-0.928 1.506,1.4 0.201,0.377 -0.857,-0.672 -0.089,-2.426 0.943,-2 -0.308,-0.047 -0.408,-0.252 -0.221,-0.508 0.526,0.41 0.262,-0.562 0.79,0 -0.424,-0.324 0.147,-0.723 -0.349,-1.016 0.288,1.215 -1.23,0.211 -0.318,0.252 -0.328,-0.045 -0.707,-0.133 -0.794,-0.508 0.425,0.156 0.823,-0.27 1.288,-0.182 0.4,0.076 0.477,0.502 0.875,0.531 -0.573,-0.393 0.041,-0.551 0.363,-0.592 0.386,-0.051 0.269,0.436 0.687,0.467 -0.229,0.311 0.262,0.891 0.124,0.221 0.946,0.43 -0.474,1.051 -1.015,0.795 0.364,0.221 1.542,0.408 1.968,0.379 -0.24,-0.109 -0.393,-0.338 -0.379,-0.604 0.273,0.18 0.604,0.268 0.729,0.611 0.135,0.367 -0.258,0.672 -0.064,1.043 0.627,-0.084 0.812,-1.602 0.701,-2.064 -0.104,0.34 -0.187,0.697 -0.415,0.982 0.047,-0.676 -0.882,-2.375 0.446,-2.352 -0.376,-0.205 -0.757,0.084 -0.953,0.385 -0.067,-0.307 -0.278,-0.699 -0.189,-1.02 0.101,-0.365 0.511,-0.371 0.63,-0.729 0.239,0.289 0.587,0.398 0.906,0.562 0.412,0.211 0.521,-0.236 0.182,-0.205 -0.273,0.023 -0.443,-0.104 -0.661,-0.24 -0.404,-0.254 -0.856,-0.031 -1.251,-0.246 0.696,-0.52 -0.963,-1.059 0.34,-1.205 0.936,-0.105 1.347,-1.426 0.869,-2.16 -0.33,0.543 -2.35,-0.539 -2.304,-1.064 0.085,-0.109 0.198,-0.115 0.337,-0.016 -0.585,-0.617 0.596,-1.018 0.221,-1.527 -0.105,0.385 -0.455,0.393 -0.47,-0.021 -0.019,-0.523 -0.361,-0.324 -0.595,-0.812 -0.203,-0.422 0.018,-0.592 0.11,-0.957 0.053,-0.211 -0.375,-0.832 0.258,-0.684 -10e-4,-0.385 -0.253,-0.439 -0.464,-0.695 -0.174,-0.211 -0.112,-0.49 -0.248,-0.715 -0.503,-0.83 0.13,-0.348 0.646,-0.465 -0.497,-0.066 -1.007,-0.617 -1.143,-1.082 0.708,-0.25 1.057,0.354 1.398,0.855 -0.071,-0.662 -0.536,-1.336 -0.86,-1.9 -0.645,0.605 -1.572,-0.277 -0.782,-0.799 0.5,-0.33 1.185,-0.57 0.531,-1.205 0.394,1.742 -0.967,0.475 -1.747,0.285 -0.596,-0.143 -0.184,0.803 -0.513,1.02 -0.491,0.322 -2.324,-0.219 -1.332,-0.668 -1.743,-0.037 -1.983,-2.766 -2.173,-3.965 -0.084,-0.531 -0.432,-1.742 -0.188,-2.27 0.245,-0.529 0.607,-0.064 0.5,-0.74 -0.075,-0.469 0.118,-0.914 0,-1.389 -0.179,-0.713 -0.377,-1.102 -0.88,-1.836 -0.512,-0.75 -1.138,-1.439 -1.394,-2.33 -0.158,-0.551 -0.002,-0.939 -0.424,-1.412 -0.283,-0.318 -0.562,-0.609 -0.769,-0.984 -0.172,-0.314 0.066,-0.484 -0.049,-0.721 -0.206,-0.424 -0.435,-0.721 -0.37,-1.221 0.366,0.271 1.026,0.447 1.22,-0.121 0.241,-0.705 -0.484,-1.244 -0.236,-1.943 0.013,0.252 0.163,0.393 0.415,0.379 -0.009,-0.176 -0.048,-0.346 -0.117,-0.51 -0.084,-0.32 0.183,-0.674 0.179,-1.012 -0.008,-0.668 -0.386,-1.111 0.021,-1.744 0.329,-0.512 -0.268,-0.814 -0.021,-1.424 0.187,-0.461 0.542,-1.242 0.605,-1.725 0.157,-1.17 -0.341,-2.406 -0.287,-3.561 0.03,-0.639 0.625,-1.186 0.595,-1.754 -0.025,-0.498 -0.42,-1.082 -0.61,-1.541 -0.16,-0.389 0.09,-0.906 0.238,-1.262 0.16,-0.383 -0.114,-1.004 -0.161,-1.381 -0.034,-0.271 0.132,-0.5 -0.066,-0.748 -0.207,-0.262 -0.394,-0.521 -0.503,-0.84 -0.243,-0.703 -0.342,-1.357 -0.639,-2.061 -0.54,-1.277 -1.138,-2.662 -1.373,-4.035 -0.119,-0.697 0.024,-0.766 0.508,-1.117 0.379,-0.275 0.004,-0.887 0.261,-1.242 0.243,-0.338 -0.544,-2.188 -0.818,-2.412 -0.344,-0.283 -0.781,-1.104 -0.54,-1.557 0.337,-0.631 0.383,-1.193 0.598,-1.871 0.137,-0.428 -0.177,-1.18 -0.169,-1.65 0.013,-0.766 0.59,-1.23 0.292,-2.006 -0.446,-1.162 0.172,-2.607 0.181,-3.84 0.008,-1.076 -0.662,-1.965 -0.611,-2.984 0.029,-0.588 0.655,-0.689 0.634,-1.252 -0.029,-0.75 -0.57,-1.484 -0.729,-2.227 -0.166,-0.775 -0.035,-1.539 -0.147,-2.309 -0.056,-0.389 -0.2,-0.65 -0.093,-1.055 0.087,-0.328 0.226,-0.662 0.154,-1.012 -0.085,-0.412 -0.71,-0.164 -0.812,-0.619 -0.108,-0.477 0.053,-0.996 0.097,-1.473 0.749,0.67 0.71,-1.518 0.703,-1.84 -0.041,-1.863 0.338,-4.006 -0.355,-5.754 -0.743,-1.873 -0.252,-3.932 -0.952,-5.84 -0.292,-0.795 -0.611,-1.752 -0.756,-2.584 -0.098,-0.523 0.149,-1.586 -0.46,-1.867 z"
         id="path6462" />
      <path
         style="fill:#aaaaaa"
         inkscape:connector-curvature="0"
         d="m 42.747,632.751 c -0.031,-0.117 -0.062,-0.234 -0.093,-0.352 0.432,0.044 0.462,0.161 0.093,0.352 z"
         id="path6464" />
      <path
         style="fill:#aaaaaa"
         inkscape:connector-curvature="0"
         d="m 57.614,656.478 c -0.01,-0.115 -0.021,-0.232 -0.031,-0.348 0.08,0.107 0.143,0.223 0.189,0.348 -0.052,0 -0.105,0 -0.158,0 z"
         id="path6470" />
      <path
         style="fill:#aaaaaa"
         inkscape:connector-curvature="0"
         d="m 66.539,660.48 c -0.228,-0.295 -0.578,-0.932 -0.317,-1.301 0.089,0.428 0.735,0.391 0.666,-0.066 -0.037,-0.244 -0.781,-0.494 -0.984,-0.568 0.364,-0.34 0.841,0.074 1.217,0.16 0.818,0.189 0.448,-0.777 0.697,-1.129 0.266,-0.375 1.01,0.484 1.291,0.557 0.501,0.129 0.895,-0.461 1.351,-0.176 0.503,0.311 0.536,1.006 0.847,1.461 0.43,0.629 0.737,1.336 1.036,2.033 0.695,1.617 1.724,3.115 2.297,4.777 -0.309,-0.184 -0.676,-0.223 -0.984,-0.41 0.18,0.18 0.392,0.307 0.635,0.381 -0.458,0.488 -1.562,0.186 -2.088,-0.01 -0.27,-0.1 -0.576,-0.549 -0.878,-0.461 -0.402,0.117 -0.473,0.227 -0.815,-0.1 0.076,0.137 0.151,0.273 0.225,0.41 -0.233,-0.242 -1.281,0.248 -0.922,-0.445 -0.062,0.34 -1.166,0.516 -1.46,0.383 0.202,-0.172 0.414,-0.33 0.635,-0.475 -0.392,-0.23 -0.932,0.236 -1.306,0.316 -0.018,-0.254 -0.123,-0.465 -0.313,-0.635 -0.144,0.797 -0.711,-0.135 -0.988,-0.287 0.44,0.598 -0.448,0.381 -0.75,0.33 -0.241,-0.041 -0.526,0.221 -0.741,0.146 -0.227,-0.076 -0.306,-0.5 -0.507,-0.635 0.384,-0.027 0.655,0.281 1.015,0.348 -0.022,-0.252 -0.177,-0.426 -0.445,-0.379 0.258,-0.096 0.481,-0.043 0.67,0.16 -0.724,-0.688 1.399,0.037 1.616,-0.236 0.183,-0.23 -0.018,-0.607 0.543,-0.453 0.385,0.105 -0.008,1.166 0.634,1.006 -0.208,-0.145 -0.34,-0.377 -0.287,-0.635 0.552,-0.01 1.1,0.691 1.654,0.445 -0.533,-0.295 -1.116,-0.449 -1.604,-0.828 -0.426,-0.328 -1.002,-0.07 -1.321,-0.602 0.895,0.145 1.895,0.414 2.638,0.953 -0.282,-0.176 -0.373,-0.562 0.088,-0.492 0.412,0.064 0.708,0.482 1.024,0.713 -0.11,-0.242 -0.279,-0.434 -0.507,-0.572 0.415,-0.154 0.861,0.408 1.142,0.223 0.448,-0.295 1.087,0.408 0.728,0.857 0.119,-0.258 0.356,-0.377 0.604,-0.189 -0.382,-0.4 -0.04,-0.42 0.286,-0.379 -1.169,-1.002 -3.537,-0.664 -4.433,-2.078 -0.634,-1 1.796,-0.789 1.503,-1.695 -0.365,-1.132 -2.671,0.731 -3.392,-0.423 z"
         id="path6472" />
    </g>
  </g>
</svg>
