<?xml version="1.0" encoding="UTF-8" standalone="no"?>
<!-- Created with Inkscape (http://www.inkscape.org/) -->

<svg
   xmlns:dc="http://purl.org/dc/elements/1.1/"
   xmlns:cc="http://creativecommons.org/ns#"
   xmlns:rdf="http://www.w3.org/1999/02/22-rdf-syntax-ns#"
   xmlns:svg="http://www.w3.org/2000/svg"
   xmlns="http://www.w3.org/2000/svg"
   xmlns:sodipodi="http://sodipodi.sourceforge.net/DTD/sodipodi-0.dtd"
   xmlns:inkscape="http://www.inkscape.org/namespaces/inkscape"
   width="9.1970997mm"
   height="3.3963385mm"
   viewBox="0 0 9.1970997 3.3963384"
   version="1.1"
   id="svg7070"
   inkscape:version="0.92.4 (5da689c313, 2019-01-14)"
   sodipodi:docname="cuba.svg">
  <defs
     id="defs7064" />
  <sodipodi:namedview
     id="base"
     pagecolor="#ffffff"
     bordercolor="#666666"
     borderopacity="1.0"
     inkscape:pageopacity="0.0"
     inkscape:pageshadow="2"
     inkscape:zoom="1.4"
     inkscape:cx="-97.370861"
     inkscape:cy="-73.753558"
     inkscape:document-units="mm"
     inkscape:current-layer="layer1"
     showgrid="false"
     inkscape:window-width="958"
     inkscape:window-height="1008"
     inkscape:window-x="-7"
     inkscape:window-y="0"
     inkscape:window-maximized="0" />
  <metadata
     id="metadata7067">
    <rdf:RDF>
      <cc:Work
         rdf:about="">
        <dc:format>image/svg+xml</dc:format>
        <dc:type
           rdf:resource="http://purl.org/dc/dcmitype/StillImage" />
        <dc:title></dc:title>
      </cc:Work>
    </rdf:RDF>
  </metadata>
  <g
     inkscape:label="Layer 1"
     inkscape:groupmode="layer"
     id="layer1"
     transform="translate(-181.52776,-82.259052)">
    <g
       transform="matrix(0.26458333,0,0,0.26458333,186.04182,-15.559257)"
       id="cu">
      <path
         style="fill:#aaaaaa"
         inkscape:connector-curvature="0"
         d="m -16.938,374.726 c 0.612,-0.221 1.259,-0.793 1.938,-0.444 0.223,-0.501 -0.4,-0.925 0.042,-1.416 0.359,-0.399 0.931,-0.999 1.372,-1.293 0.522,-0.348 1.197,-0.479 1.785,-0.671 0.506,-0.166 0.964,-0.499 1.511,-0.487 1.136,0.025 2.084,-0.554 3.209,-0.638 0.521,-0.038 1.15,-0.076 1.644,0.133 0.113,0.048 0.25,0.132 0.253,0.274 0.411,-0.194 0.869,-0.26 1.271,-0.477 -0.659,0.174 0.061,0.544 0.417,0.414 0.33,-0.12 1.323,-0.131 1.438,0.057 0.181,0.295 0.667,0.732 1.054,0.616 0.451,-0.136 1.052,0.387 1.442,0.057 -0.092,0.111 -0.177,0.228 -0.254,0.35 0.728,0.19 0.586,0.532 1.09,1.028 0.659,0.649 0.958,0.488 1.828,0.568 0.83,0.075 1.152,0.449 1.816,0.85 0.251,0.151 0.609,0.115 0.78,0.399 0.158,0.263 0.364,0.733 0.713,0.362 -0.13,0.39 0.186,0.658 0.545,0.69 0.419,0.038 0.551,0.408 0.916,0.548 -0.152,-0.304 -0.257,-0.697 -0.635,-0.794 0.342,0.075 1.45,0.506 1.271,1.017 -0.228,-0.03 -0.45,-0.084 -0.667,-0.158 0.156,0.2 0.216,0.424 0.35,0.635 0.486,-0.834 0.634,0.119 1.207,0.127 -0.079,0.111 -0.163,0.217 -0.254,0.317 0.209,-0.123 0.432,-0.154 0.667,-0.095 -0.043,0.116 -0.086,0.232 -0.127,0.349 0.241,0.048 0.452,0.154 0.635,0.318 -0.046,-0.863 1.176,0.138 1.424,0.313 0.325,0.23 0.622,-0.046 0.97,-0.078 0.565,-0.053 0.766,0.73 0.147,0.812 0.116,0.064 0.233,0.127 0.35,0.191 -0.266,0.082 -0.5,0.255 -0.667,0.477 0.906,0.192 2.442,-0.135 3.164,0.487 0.61,0.526 0.775,1.079 1.624,1.197 1.006,0.14 -0.321,0.842 -0.734,0.89 -0.125,0.015 -2.282,0.59 -2.326,0.519 0.015,-0.112 0.074,-0.201 0.179,-0.266 -0.399,0 -0.377,0.508 -1.058,0.442 -0.727,-0.071 -1.407,-0.331 -2.145,-0.363 -1.848,-0.08 -3.711,0.616 -5.564,0.557 0.027,-0.98 1.243,-1.216 1.881,-1.691 0.376,-0.281 0.607,-0.546 0.239,-0.848 -0.275,-0.228 0.112,-0.95 -0.553,-0.787 -1.245,0.307 -2.501,0.077 -3.213,-1.072 -0.255,-0.412 -0.21,-0.959 -0.283,-1.421 -0.033,-0.212 -0.085,-0.44 -0.226,-0.609 -0.167,-0.202 -0.535,-0.12 -0.164,-0.307 -0.569,-0.271 -1.133,0.152 -1.684,0.207 -0.572,0.056 -1.059,-0.478 -1.584,-0.572 -0.513,-0.094 -0.829,-0.01 -1.107,-0.346 -0.443,-0.535 -1.031,-0.506 -1.121,-1.354 -0.098,0.709 -2.25,0.498 -2.287,-0.444 -0.126,0.204 -0.189,0.427 -0.191,0.667 -0.192,-0.007 -0.342,-0.087 -0.449,-0.242 -0.273,-0.274 -0.705,-0.171 -1.044,-0.171 -0.558,0 -1.041,-0.33 -1.429,-0.699 0.295,-0.325 0.864,-0.156 1.244,-0.22 0.565,-0.095 0.528,-0.668 0.036,-0.832 -0.969,-0.326 -2.795,-0.357 -3.668,0.217 -0.542,0.357 -1.158,0.752 -1.593,1.235 -0.407,0.451 -0.695,0.113 -1.176,0.313 -0.275,0.114 -0.569,-0.06 -0.833,0.099 -0.279,0.167 -0.184,0.438 -0.394,0.649 -0.442,0.442 -1.159,0.401 -1.62,0.825 0.135,-1.287 -1.374,0.333 -1.525,-0.508 0.039,0.033 0.082,0.064 0.123,0.097 z"
         id="path3580" />
      <path
         style="fill:#aaaaaa"
         inkscape:connector-curvature="0"
         d="m -10.616,376.441 c -0.34,-0.079 -0.716,-0.214 -0.794,-0.604 0.682,0.73 0.396,-0.566 0.401,-0.773 0.012,-0.445 0.693,-0.625 1.028,-0.466 0.352,0.167 0.617,0.807 0.609,1.173 -0.011,0.497 -0.898,0.57 -1.244,0.67 z"
         id="path3582" />
      <path
         style="fill:#aaaaaa"
         inkscape:connector-curvature="0"
         d="m -0.959,370.63 c -0.117,-0.021 -0.233,-0.043 -0.35,-0.064 0.108,-0.071 0.225,-0.124 0.35,-0.158 0,0.073 0,0.148 0,0.222 z"
         id="path3586" />
      <path
         style="fill:#aaaaaa"
         inkscape:connector-curvature="0"
         d="m 3.996,379.967 c -0.122,-0.1 -0.239,-0.206 -0.35,-0.317 0.289,-0.008 0.274,0.095 0.35,0.317 z"
         id="path3588" />
      <path
         style="fill:#aaaaaa"
         inkscape:connector-curvature="0"
         d="m 4.694,372.693 c -0.219,-0.08 -0.431,-0.175 -0.635,-0.286 0.36,-0.162 1.011,-0.419 1.144,0.159 -0.171,0.038 -0.341,0.08 -0.509,0.127 z"
         id="path3590" />
      <path
         style="fill:#aaaaaa"
         inkscape:connector-curvature="0"
         d="m 5.934,373.266 c -0.285,-0.168 -0.711,-0.178 -0.794,-0.571 0.501,-0.291 0.617,0.23 0.794,0.571 z"
         id="path3592" />
      <path
         style="fill:#aaaaaa"
         inkscape:connector-curvature="0"
         d="m 6.377,373.901 c -0.367,-0.056 -0.582,-0.445 -0.349,-0.763 0.105,0.188 0.476,0.506 0.349,0.763 z"
         id="path3594" />
      <path
         style="fill:#aaaaaa"
         inkscape:connector-curvature="0"
         d="m 6.791,374.63 c -0.212,-0.17 -0.423,-0.339 -0.635,-0.508 0.452,-0.412 1.346,0.04 0.635,0.508 z"
         id="path3596" />
    </g>
  </g>
</svg>
