<?xml version="1.0" encoding="UTF-8" standalone="no"?>
<!-- Created with Inkscape (http://www.inkscape.org/) -->

<svg
   xmlns:dc="http://purl.org/dc/elements/1.1/"
   xmlns:cc="http://creativecommons.org/ns#"
   xmlns:rdf="http://www.w3.org/1999/02/22-rdf-syntax-ns#"
   xmlns:svg="http://www.w3.org/2000/svg"
   xmlns="http://www.w3.org/2000/svg"
   xmlns:sodipodi="http://sodipodi.sourceforge.net/DTD/sodipodi-0.dtd"
   xmlns:inkscape="http://www.inkscape.org/namespaces/inkscape"
   width="7.2676573mm"
   height="6.8472071mm"
   viewBox="0 0 7.267657 6.8472077"
   version="1.1"
   id="svg7070"
   inkscape:version="0.92.4 (5da689c313, 2019-01-14)"
   sodipodi:docname="greece.svg">
  <defs
     id="defs7064" />
  <sodipodi:namedview
     id="base"
     pagecolor="#ffffff"
     bordercolor="#666666"
     borderopacity="1.0"
     inkscape:pageopacity="0.0"
     inkscape:pageshadow="2"
     inkscape:zoom="7.9195959"
     inkscape:cx="29.570197"
     inkscape:cy="-12.369775"
     inkscape:document-units="mm"
     inkscape:current-layer="layer1"
     showgrid="false"
     inkscape:window-width="958"
     inkscape:window-height="1008"
     inkscape:window-x="-7"
     inkscape:window-y="0"
     inkscape:window-maximized="0" />
  <metadata
     id="metadata7067">
    <rdf:RDF>
      <cc:Work
         rdf:about="">
        <dc:format>image/svg+xml</dc:format>
        <dc:type
           rdf:resource="http://purl.org/dc/dcmitype/StillImage" />
        <dc:title></dc:title>
      </cc:Work>
    </rdf:RDF>
  </metadata>
  <g
     inkscape:label="Layer 1"
     inkscape:groupmode="layer"
     id="layer1"
     transform="translate(-155.19943,-39.243219)">
    <g
       transform="matrix(0.26458333,0,0,0.26458333,68.846241,-39.886273)"
       id="gr">
      <path
         style="fill:#aaaaaa"
         inkscape:connector-curvature="0"
         d="m 327.487,306.845 c 0.232,0.053 0.534,0.099 0.76,-0.01 0.479,-0.229 -0.309,-0.541 0.418,-0.467 -0.257,-0.636 -0.431,-0.613 0.18,-0.942 0.384,-0.208 0.643,-0.497 0.78,-0.916 0.189,-0.578 0.397,-0.527 0.767,-0.94 0.355,-0.399 -0.159,-0.763 -0.139,-1.172 0.441,-0.022 0.836,-0.138 1.265,-0.224 0.417,-0.083 0.798,0.203 1.195,-0.108 0.413,-0.324 0.513,-0.755 1.113,-0.825 0.589,-0.069 0.989,0.123 1.569,-0.074 0.37,-0.126 0.141,-0.548 0.631,-0.596 0.342,-0.033 0.76,0.336 1.066,0.121 0.41,-0.287 1.027,-0.112 1.491,-0.175 0.463,-0.062 0.903,-0.576 1.346,-0.716 0.349,-0.111 0.939,-0.307 1.241,0.009 0.265,0.275 0.471,0.79 0.953,0.637 0.522,-0.165 0.841,0.242 1.332,0.339 0.439,0.086 0.836,-0.188 1.276,-0.171 0.396,0.016 0.94,0.134 1.285,-0.131 0.429,-0.33 -0.042,-0.744 -0.165,-1.085 -0.221,-0.611 0.953,-0.193 1.094,-0.114 0.449,0.25 0.51,0.735 0.68,1.177 -1.372,0.232 -0.49,1.812 -1.685,2.382 0.187,-0.508 -2.142,-0.61 -2.503,-0.753 -0.703,-0.278 -0.692,-0.138 -1.322,0.276 -0.434,0.285 -0.836,-0.526 -1.247,-0.322 -0.576,0.286 -0.599,1.056 -1.473,0.736 -0.655,-0.239 -0.608,0.071 -0.439,0.507 0.093,0.236 0.437,0.062 0.249,0.4 -0.127,0.23 0.152,0.504 0.326,0.315 0.357,-0.383 1.26,0.845 1.454,1.063 -0.502,0.274 -1.139,-0.805 -1.659,-0.849 -1.199,-0.1 0.396,1.082 0.455,1.42 -0.561,0.182 -1.145,-0.8 -1.609,-0.985 -0.388,-0.156 -0.438,0.092 -0.289,0.384 0.217,0.427 0.637,0.533 0.977,0.824 -0.818,0.343 -1.018,-0.377 -1.254,-0.891 -0.268,-0.579 -1.131,-0.655 -1.508,-1.143 0.246,-0.071 0.372,-0.251 0.317,-0.508 -1.771,0.243 -0.956,2.215 -0.304,3.073 0.348,0.456 2.634,2.547 1.002,2.707 0.699,-0.243 0.037,-1.199 -0.477,-1.048 -0.673,0.197 -0.092,1.453 0.445,1.239 -0.343,0.441 -0.91,0.707 -1.465,0.54 0.364,0.187 1.371,0.463 1.523,0.819 0.124,0.285 0.471,-0.179 0.666,0.113 0.184,0.274 -0.283,0.303 0.359,0.484 0.678,0.191 1.096,0.581 1.735,0.868 0.473,0.212 0.444,0.609 0.385,1.054 -0.065,0.489 0.354,0.927 0.101,1.395 -0.539,-0.428 -1.008,-1.163 -1.73,-1.299 -0.527,-0.099 -1.038,0.32 -1.543,0.282 -0.01,0.438 0.395,0.042 0.424,0.512 0.018,0.306 0.539,1.396 0.626,0.6 0.109,0.219 0.683,0.456 0.472,0.763 0.049,-0.071 -0.953,0.441 -0.793,0.445 -0.449,-0.01 -0.145,-0.466 -0.488,-0.603 -0.338,-0.136 -0.75,-0.166 -1.035,-0.414 -0.057,0.782 0.684,1.475 0.941,2.175 0.154,0.416 0.355,0.777 0.244,1.22 -0.098,0.39 0.498,0.504 0.414,0.869 -0.037,0.163 -1.162,-0.969 -1.258,-1.12 -0.561,-0.89 -1.051,0.529 -0.885,1.049 -0.479,0.068 -0.646,-1.287 -0.994,-1.53 -0.222,-0.155 -0.136,-0.586 -0.496,-0.55 -0.471,0.047 -0.391,0.646 -0.35,0.969 -0.953,-0.162 -1.281,-1.26 -0.9,-2.047 0.311,-0.639 -1.562,-1.866 -1.865,-2.306 0.377,-0.118 0.566,-0.649 0.837,-0.902 0.265,-0.246 0.573,0.02 0.862,-0.234 0.199,-0.174 0.418,-0.574 0.736,-0.514 0.582,0.113 0.979,0.712 1.627,0.77 0.504,0.045 0.834,0.414 1.242,0.659 0.324,0.194 0.482,-0.192 0.819,-0.396 0.271,-0.164 0.638,-0.406 0.031,-0.481 -0.331,-0.041 -0.613,0.009 -0.915,-0.18 -0.344,-0.215 -0.418,-0.598 -0.696,-0.151 -0.16,-0.229 -0.352,-0.432 -0.573,-0.604 0.051,0.826 -1.132,0.173 -1.469,0.249 -0.86,0.192 -1.409,0.462 -1.867,-0.344 -0.06,0.289 -0.326,0.503 -0.568,0.636 -0.163,-0.524 -0.297,-1.098 -0.758,-1.44 -0.244,-0.182 -0.932,-0.674 -0.58,-1.038 0.133,-0.138 1.877,0.411 1.082,-0.317 -0.246,-0.225 -1.172,-0.28 -1.112,0.285 -0.261,-0.77 -0.976,-0.879 -1.476,-1.377 -0.349,-0.348 -0.292,-1.3 -0.904,-1.353 z"
         id="path6492" />
      <path
         style="fill:#aaaaaa"
         inkscape:connector-curvature="0"
         d="m 345.152,305.288 c -0.257,-0.418 0.56,-0.867 0.719,-0.432 0.093,0.254 -0.565,0.422 -0.719,0.432 z"
         id="path3606" />
      <path
         style="fill:#aaaaaa"
         inkscape:connector-curvature="0"
         d="m 349.849,318.279 c -0.516,-0.486 0.77,-0.914 1.112,-0.825 -0.271,0.216 -1.087,0.408 -1.112,0.825 z"
         id="path3608" />
      <path
         style="fill:#aaaaaa"
         inkscape:connector-curvature="0"
         d="m 327.425,307.703 c 0.115,0.075 0.232,0.148 0.348,0.223 -0.616,0.119 -1.427,-0.937 -1.398,-1.492 1.234,-0.122 0.181,0.99 1.05,1.269 z"
         id="path6518" />
      <path
         style="fill:#aaaaaa"
         inkscape:connector-curvature="0"
         d="m 329.27,311.8 c 0,-0.105 0,-0.211 0,-0.318 0.229,0.189 0.114,0.526 0.331,0.699 0.238,0.191 0.467,0.393 0.557,0.699 -0.278,0.107 -1.04,0.017 -1.016,-0.413 -0.105,0.064 -0.211,0.128 -0.317,0.19 -0.308,-0.573 0.245,-0.479 0.445,-0.857 z"
         id="path6520" />
      <path
         style="fill:#aaaaaa"
         inkscape:connector-curvature="0"
         d="m 329.709,310.054 c 0.164,0.196 0.13,1.124 -0.253,0.845 -0.223,-0.162 -0.082,-0.912 0.253,-0.845 z"
         id="path6522" />
      <path
         style="fill:#aaaaaa"
         inkscape:connector-curvature="0"
         d="m 329.868,312.055 c -0.158,-0.189 -0.275,-0.4 -0.35,-0.636 0.163,0.187 0.278,0.398 0.35,0.636 z"
         id="path6524" />
      <path
         style="fill:#aaaaaa"
         inkscape:connector-curvature="0"
         d="m 330.344,314.563 c -0.31,-0.19 -0.704,-0.472 -0.666,-0.89 0.67,-10e-4 1.063,0.353 0.666,0.89 z"
         id="path6526" />
      <path
         style="fill:#aaaaaa"
         inkscape:connector-curvature="0"
         d="m 337.241,319.391 c 0.217,0.256 0.535,0.742 0,0.858 -0.068,-0.256 -0.326,-0.649 0,-0.858 z"
         id="path6528" />
      <path
         style="fill:#aaaaaa"
         inkscape:connector-curvature="0"
         d="m 338.636,313.229 c 0.21,0.333 0.044,0.416 -0.252,0.413 0.011,-0.183 0.095,-0.321 0.252,-0.413 z"
         id="path6530" />
      <path
         style="fill:#aaaaaa"
         inkscape:connector-curvature="0"
         d="m 338.669,314.47 c -0.086,-0.109 -0.16,-0.226 -0.225,-0.349 0.36,-0.103 0.435,0.014 0.225,0.349 z"
         id="path6532" />
      <path
         style="fill:#aaaaaa"
         inkscape:connector-curvature="0"
         d="m 338.859,311.451 c 0.148,-0.654 -1.624,-1.856 -2.162,-1.397 0.26,-0.287 0.546,-0.741 0.981,-0.754 0.502,-0.015 0.689,0.569 0.987,0.858 0.446,0.433 1.099,0.26 1.623,0.499 0.612,0.28 0.317,1.093 0.647,1.56 0.266,0.374 0.824,0.247 1.033,0.72 0.287,0.646 -0.71,0.123 -0.849,-0.004 -0.325,-0.298 -0.53,-1.006 -0.907,-1.191 -0.402,-0.199 -1.074,0.187 -1.353,-0.291 z"
         id="path6534" />
      <path
         style="fill:#aaaaaa"
         inkscape:connector-curvature="0"
         d="m 339.111,309.163 c -0.112,-0.087 -0.219,-0.183 -0.317,-0.285 0.239,-0.062 0.376,0.028 0.317,0.285 z"
         id="path6536" />
      <path
         style="fill:#aaaaaa"
         inkscape:connector-curvature="0"
         d="m 341.181,323.869 c -0.421,0.093 -1.314,0.034 -1.713,-0.138 -0.414,-0.178 -0.146,-0.849 -0.131,-1.164 0.104,0.065 0.211,0.129 0.317,0.19 0.117,-0.208 0.159,-0.431 0.128,-0.667 0.26,0.78 0.895,0.452 1.491,0.381 -0.594,0.232 -0.155,0.336 0.095,0.565 0.378,0.348 0.734,0.282 1.192,0.118 0.948,-0.34 1.938,0.256 2.894,0.302 0.267,0.014 0.777,-0.262 0.789,0.208 0.004,0.193 -0.127,0.448 0.168,0.431 0.447,-0.028 0.947,-0.425 1.391,-0.341 0.212,0.041 0.27,0.502 0.141,0.645 -0.171,0.191 -0.518,0.184 -0.748,0.183 -0.916,-0.006 -1.803,0.087 -2.704,0.264 -0.328,0.064 -0.758,0.194 -1.074,0.013 -0.274,-0.158 -0.228,-0.501 -0.513,-0.636 -0.536,-0.256 -1.159,-0.215 -1.723,-0.354 z"
         id="path6538" />
      <path
         style="fill:#aaaaaa"
         inkscape:connector-curvature="0"
         d="m 341.212,315.04 c -0.129,-0.258 0.01,-0.469 0.252,-0.572 0.045,0.247 -0.039,0.438 -0.252,0.572 z"
         id="path6540" />
      <path
         style="fill:#aaaaaa"
         inkscape:connector-curvature="0"
         d="m 341.529,318.376 c 0,-0.116 0,-0.233 0,-0.35 0.221,0.22 0.489,0.19 0.667,-0.062 0.022,0.418 -0.392,0.341 -0.667,0.412 z"
         id="path6542" />
      <path
         style="fill:#aaaaaa"
         inkscape:connector-curvature="0"
         d="m 341.657,303.478 c -0.443,-0.124 -0.487,-0.936 0.062,-0.826 0.497,0.099 0.399,0.759 -0.062,0.826 z"
         id="path6544" />
      <path
         style="fill:#aaaaaa"
         inkscape:connector-curvature="0"
         d="m 341.81,310.34 c -0.021,-0.359 -0.516,-0.371 -0.379,-0.763 0.393,0.026 0.527,0.433 0.666,0.73 -0.096,0.011 -0.192,0.022 -0.287,0.033 z"
         id="path6546" />
      <path
         style="fill:#aaaaaa"
         inkscape:connector-curvature="0"
         d="m 342.672,317.393 c -0.054,-0.106 -0.105,-0.212 -0.159,-0.318 0.363,-10e-4 0.417,0.105 0.159,0.318 z"
         id="path6548" />
      <path
         style="fill:#aaaaaa"
         inkscape:connector-curvature="0"
         d="m 343.21,305.637 c 0.359,-0.054 0.709,0.156 1.051,-0.031 -0.121,0.206 -0.186,0.429 -0.19,0.667 -0.49,-0.268 -1.233,0.312 -0.861,-0.636 z"
         id="path6550" />
      <path
         style="fill:#aaaaaa"
         inkscape:connector-curvature="0"
         d="m 343.275,314.436 c -0.292,-0.312 -0.533,-0.677 -0.892,-0.921 0.09,-0.106 0.195,-0.191 0.318,-0.254 0.153,0.505 0.95,0.505 0.574,1.175 z"
         id="path6552" />
      <path
         style="fill:#aaaaaa"
         inkscape:connector-curvature="0"
         d="m 343.403,314.47 c 0.292,0.088 0.742,0.057 0.76,0.477 -0.331,0.062 -0.659,-0.169 -0.76,-0.477 z"
         id="path6554" />
      <path
         style="fill:#aaaaaa"
         inkscape:connector-curvature="0"
         d="m 343.497,318.597 c -0.117,-0.063 -0.232,-0.127 -0.349,-0.19 0.237,-0.028 0.206,0.075 0.349,0.19 z"
         id="path6556" />
      <path
         style="fill:#aaaaaa"
         inkscape:connector-curvature="0"
         d="m 344.163,317.138 c -0.277,-0.219 -0.254,-0.48 0.065,-0.636 0.191,0.211 0.152,0.464 -0.065,0.636 z"
         id="path6558" />
      <path
         style="fill:#aaaaaa"
         inkscape:connector-curvature="0"
         d="m 344.577,315.484 c -0.243,-0.33 -0.17,-0.426 0.221,-0.286 -0.074,0.096 -0.148,0.192 -0.221,0.286 z"
         id="path6560" />
      <path
         style="fill:#aaaaaa"
         inkscape:connector-curvature="0"
         d="m 344.767,318.376 c -0.105,-0.085 -0.211,-0.169 -0.318,-0.254 0.238,-0.142 0.475,-0.02 0.318,0.254 z"
         id="path6562" />
      <path
         style="fill:#aaaaaa"
         inkscape:connector-curvature="0"
         d="m 344.798,303.764 c 0,0.105 0,0.211 0,0.317 -0.256,0.05 -0.449,-0.087 -0.477,-0.35 0.162,-0.044 0.322,-0.034 0.477,0.033 z"
         id="path6564" />
      <path
         style="fill:#aaaaaa"
         inkscape:connector-curvature="0"
         d="m 344.987,317.358 c -0.117,-0.159 -0.36,-0.453 -0.24,-0.681 0.064,-0.123 0.41,-0.407 0.551,-0.297 0.246,0.194 -0.102,0.878 -0.311,0.978 z"
         id="path6566" />
      <path
         style="fill:#aaaaaa"
         inkscape:connector-curvature="0"
         d="m 346.104,317.931 c 0.125,-0.352 0.473,-0.509 0.825,-0.508 -0.303,0.124 -0.53,0.368 -0.825,0.508 z"
         id="path6568" />
      <path
         style="fill:#aaaaaa"
         inkscape:connector-curvature="0"
         d="m 346.484,312.658 c -0.703,-0.271 0.151,-1.093 -0.636,-1.397 0.832,-1.075 1.456,0.885 0.636,1.397 z"
         id="path6570" />
      <path
         style="fill:#aaaaaa"
         inkscape:connector-curvature="0"
         d="m 346.544,315.104 c 0.042,-0.573 0.73,-0.488 1.111,-0.667 -0.182,0.413 -0.687,0.634 -1.111,0.667 z"
         id="path6572" />
      <path
         style="fill:#aaaaaa"
         inkscape:connector-curvature="0"
         d="m 347.564,309.577 c -0.361,-0.041 -0.688,-0.218 -0.988,-0.413 0.104,-0.079 0.212,-0.153 0.322,-0.222 -0.292,-0.027 -0.658,0.132 -0.921,-0.054 -0.49,-0.347 0.052,-0.505 0.367,-0.591 0.98,-0.267 1.287,0.11 1.819,1.058 -0.254,-0.157 -0.478,-0.02 -0.599,0.222 z"
         id="path6574" />
      <path
         style="fill:#aaaaaa"
         inkscape:connector-curvature="0"
         d="m 349.12,314.595 c -0.054,-0.062 -1.201,-0.399 -0.502,-0.589 0.375,-0.102 0.771,0.186 1.133,0.081 -0.101,0.27 -0.34,0.474 -0.631,0.508 z"
         id="path6576" />
      <path
         style="fill:#aaaaaa"
         inkscape:connector-curvature="0"
         d="m 349.404,316.661 c -0.106,-0.096 -0.212,-0.191 -0.318,-0.286 0.255,-0.002 0.246,0.09 0.318,0.286 z"
         id="path6578" />
      <path
         style="fill:#aaaaaa"
         inkscape:connector-curvature="0"
         d="m 349.786,317.327 c -0.238,-0.31 -0.175,-0.415 0.19,-0.317 -0.063,0.106 -0.125,0.212 -0.19,0.317 z"
         id="path6580" />
      <path
         style="fill:#aaaaaa"
         inkscape:connector-curvature="0"
         d="m 350.674,323.141 c -0.128,-0.6 -0.103,-1.047 0.128,-1.619 0.087,0.341 0.185,1.428 -0.128,1.619 z"
         id="path6582" />
      <path
         style="fill:#aaaaaa"
         inkscape:connector-curvature="0"
         d="m 352.995,320.854 c -0.322,0.873 -0.593,-0.102 -0.638,-0.444 -0.087,-0.658 0.909,-1.134 1.463,-1.239 0.093,0.386 -0.125,0.746 -0.229,1.1 -0.191,0.636 -0.247,0.107 -0.596,0.583 z"
         id="path6584" />
    </g>
  </g>
</svg>
