<?xml version="1.0" encoding="UTF-8" standalone="no"?>
<!-- Created with Inkscape (http://www.inkscape.org/) -->

<svg
   xmlns:dc="http://purl.org/dc/elements/1.1/"
   xmlns:cc="http://creativecommons.org/ns#"
   xmlns:rdf="http://www.w3.org/1999/02/22-rdf-syntax-ns#"
   xmlns:svg="http://www.w3.org/2000/svg"
   xmlns="http://www.w3.org/2000/svg"
   xmlns:sodipodi="http://sodipodi.sourceforge.net/DTD/sodipodi-0.dtd"
   xmlns:inkscape="http://www.inkscape.org/namespaces/inkscape"
   width="40.963425mm"
   height="16.982391mm"
   viewBox="0 0 40.96342 16.982392"
   version="1.1"
   id="svg7070"
   inkscape:version="0.92.4 (5da689c313, 2019-01-14)"
   sodipodi:docname="indonesia.svg">
  <defs
     id="defs7064" />
  <sodipodi:namedview
     id="base"
     pagecolor="#ffffff"
     bordercolor="#666666"
     borderopacity="1.0"
     inkscape:pageopacity="0.0"
     inkscape:pageshadow="2"
     inkscape:zoom="5.6"
     inkscape:cx="81.205845"
     inkscape:cy="39.552335"
     inkscape:document-units="mm"
     inkscape:current-layer="layer1"
     showgrid="false"
     inkscape:window-width="958"
     inkscape:window-height="1008"
     inkscape:window-x="-7"
     inkscape:window-y="0"
     inkscape:window-maximized="0" />
  <metadata
     id="metadata7067">
    <rdf:RDF>
      <cc:Work
         rdf:about="">
        <dc:format>image/svg+xml</dc:format>
        <dc:type
           rdf:resource="http://purl.org/dc/dcmitype/StillImage" />
        <dc:title></dc:title>
      </cc:Work>
    </rdf:RDF>
  </metadata>
  <g
     inkscape:label="Layer 1"
     inkscape:groupmode="layer"
     id="layer1"
     transform="translate(-160.3088,-19.094871)">
    <g
       transform="matrix(0.26458333,0,0,0.26458333,6.0478305,-96.207523)"
       id="id">
      <path
         style="fill:#aaaaaa"
         inkscape:connector-curvature="0"
         id="path2528"
         d="m 714.51,473.226 c -0.225,0.143 -0.161,0.248 0.189,0.318 -0.063,-0.105 -0.127,-0.211 -0.189,-0.318 z" />
      <path
         style="fill:#aaaaaa"
         inkscape:connector-curvature="0"
         id="path2530"
         d="m 715.176,464.939 c -0.288,0.096 -0.32,0.424 -0.221,0.666 0.018,-0.24 0.091,-0.463 0.221,-0.666 z" />
      <path
         style="fill:#aaaaaa"
         inkscape:connector-curvature="0"
         id="path2532"
         d="m 715.686,465.953 c -0.235,-0.051 -0.258,0.055 -0.066,0.318 0.021,-0.105 0.043,-0.213 0.066,-0.318 z" />
      <path
         style="fill:#aaaaaa"
         inkscape:connector-curvature="0"
         id="path2540"
         d="m 717.397,461.861 c -0.4,0.084 -0.336,0.879 0.096,0.758 0.253,-0.071 -0.002,-0.647 -0.096,-0.758 z" />
      <path
         style="fill:#aaaaaa"
         inkscape:connector-curvature="0"
         id="path2542"
         d="m 718.16,463.886 c -0.01,0.064 -0.021,0.131 -0.03,0.193 0.228,-0.014 0.449,-0.057 0.666,-0.127 -0.212,-0.019 -0.425,-0.04 -0.636,-0.066 z" />
      <path
         style="fill:#aaaaaa"
         inkscape:connector-curvature="0"
         id="path2544"
         d="m 719.022,460.712 c 10e-4,0.498 0.838,1.129 1.2,0.576 0.259,-0.394 -1.001,-0.556 -1.2,-0.576 z" />
      <path
         style="fill:#aaaaaa"
         inkscape:connector-curvature="0"
         id="path2546"
         d="m 719.402,464.367 c -0.021,0.105 -0.042,0.211 -0.062,0.316 0.819,0.057 1.524,0.504 2.316,0.672 0.335,0.07 0.693,0.223 1.043,0.129 0.389,-0.102 0.828,-0.336 1.242,-0.258 -0.337,-0.494 -1.204,-0.463 -1.725,-0.525 -0.939,-0.114 -1.868,-0.237 -2.814,-0.334 z" />
      <path
         style="fill:#aaaaaa"
         inkscape:connector-curvature="0"
         id="path2548"
         d="m 725.278,490.093 c -0.032,0.105 -0.064,0.211 -0.097,0.318 0.655,-0.219 1.364,-0.121 2.042,-0.123 0.664,-0.004 1.056,-0.344 1.565,-0.736 0.224,-0.172 1.615,-1.883 1.336,-2.23 -0.809,-1 -1.336,-1.104 -2.574,-0.588 -1.273,0.531 -1.767,2.205 -2.272,3.359 z" />
      <path
         style="fill:#aaaaaa"
         inkscape:connector-curvature="0"
         id="path2550"
         d="m 729.182,490.351 c 0.107,-0.031 0.215,-0.064 0.321,-0.098 -0.164,-0.322 -0.148,-0.943 -0.681,-0.729 -0.708,0.284 -0.144,0.811 0.36,0.827 z" />
      <path
         style="fill:#aaaaaa"
         inkscape:connector-curvature="0"
         id="path2552"
         d="m 729.028,483.937 c 0.015,0.25 0.174,0.414 0.411,0.475 -0.022,-0.241 -0.17,-0.422 -0.411,-0.475 z" />
      <path
         style="fill:#aaaaaa"
         inkscape:connector-curvature="0"
         id="path2562"
         d="m 705.169,462.078 c 0.102,-0.248 0.06,-0.471 -0.128,-0.666 0.991,-0.252 1.813,-0.307 2.585,-1.018 0.716,-0.66 1.462,-0.941 2.424,-0.705 0.974,0.24 1.459,0.959 2.297,1.32 0.849,0.365 1.722,-0.119 2.51,0.494 -0.603,0.449 -0.022,1.049 0.234,1.5 0.349,0.609 -0.048,1.117 -0.272,1.68 -0.574,1.439 0.281,3.16 0.93,4.414 0.223,-0.324 -0.082,-1.053 0.282,-1.291 0.514,-0.34 0.45,1.176 0.455,1.318 0.011,0.289 0.105,0.359 0.303,0.553 0.282,0.275 0.149,0.648 0.4,0.932 0.487,0.547 1.485,0.838 2.046,0.258 0.407,-0.424 0.827,-0.799 1.244,-1.209 0.438,-0.432 0.523,-1.01 1.108,-1.381 0.525,-0.332 0.375,-1.564 1.044,-1.568 0.793,-0.004 1.175,0.07 1.917,-0.316 0.532,-0.277 0.557,-0.463 0.32,-0.959 -0.182,-0.383 0.982,-0.924 1.218,-1.049 0.591,-0.314 1.139,-0.531 1.764,-0.209 0.817,0.42 1.791,0.715 2.522,1.266 0.615,0.463 1.315,0.719 1.999,1.066 0.468,0.236 1.387,0.961 1.937,0.768 0.694,-0.242 0.983,0.285 1.694,0.277 0.745,-0.012 1.115,0.76 1.854,0.658 -0.093,2.223 -0.267,4.438 -0.417,6.654 -0.158,2.322 -0.056,4.709 -0.296,7.016 -0.077,0.738 -0.639,1.266 -0.606,2.051 0.014,0.322 0.433,0.498 0.433,0.701 0,0.492 -0.084,0.998 -0.118,1.49 -0.159,2.318 -0.336,4.645 -0.553,6.957 -0.95,-0.479 -1.146,-1.566 -1.869,-2.256 -0.357,-0.34 -1.721,-1.205 -1.082,-1.807 -0.416,0.326 -1.158,0.188 -1.656,0.385 -0.424,0.17 -1.209,0.209 -0.982,-0.48 -0.211,0.258 -0.752,0.746 -1.112,0.75 -0.544,0.006 0.092,-0.932 0.148,-1.064 0.185,-0.432 0.788,-1.4 0.349,-1.637 -0.396,-0.211 -0.51,-0.734 -0.814,-1.037 0.52,-0.447 1.207,0.336 1.619,-0.348 -0.717,0.715 -1.654,-0.414 -2.157,-0.855 0.664,-0.764 1.423,0.127 2.096,0.158 -0.586,-0.229 -1.084,-0.633 -1.619,-0.953 0.625,-0.109 0.087,-0.303 -0.12,-0.518 -0.293,-0.307 -0.582,-0.674 -0.699,-1.088 -0.152,-0.533 -0.646,-1.533 0.056,-1.797 -0.692,0.256 -0.733,-0.492 -0.097,-0.604 -0.237,0 -0.83,0.377 -1.015,0.098 -0.222,-0.334 0.222,-0.773 0.062,-1.143 -0.204,0.814 -0.807,-0.486 -1.071,-0.6 -0.453,-0.197 -0.48,-0.309 -0.826,-0.469 -0.268,-0.121 -0.912,-0.303 -1.072,-0.572 -0.222,-0.371 -1.588,-0.4 -2.013,-0.658 -0.666,-0.404 -1.44,-0.844 -2.186,-1.084 -0.719,-0.232 -1.778,-0.018 -2.406,-0.328 -0.56,-0.275 -1.305,-0.656 -1.541,-1.279 -0.22,-0.576 0.702,-0.486 1.017,-0.539 -0.384,-0.115 -0.867,-0.312 -1.174,0.076 -0.347,0.438 -0.575,-0.236 -0.892,-0.332 -0.005,0.652 -1.021,0.172 -0.542,-0.281 -0.694,0.006 -0.966,0.014 -1.143,-0.83 -0.031,0.244 -0.163,0.445 -0.362,0.193 -0.281,-0.355 -0.059,-0.578 -0.092,-0.951 -0.06,-0.68 0.618,-1.064 0.645,-1.754 -0.169,0.357 -0.764,0.484 -0.764,0.93 0,0.398 0.035,1.018 -0.538,0.98 0.497,0.223 0.103,0.482 -0.062,0.76 -0.111,0.1 -0.217,0.205 -0.317,0.318 -0.018,0.211 -0.028,0.422 -0.035,0.635 -0.155,0.451 -1.072,0.928 -1.551,0.795 -0.423,-0.119 -0.67,-1.109 -0.685,-1.479 -0.01,-0.25 0.321,-0.273 0.492,-0.354 0.453,-0.211 -0.242,-0.777 -0.128,-1.152 -0.547,0.33 -1.225,-1.434 -1.991,-1.465 -1.188,-0.049 -0.549,-0.865 0.306,-0.951 0.889,-0.092 1.528,0.789 2.145,-0.242 0.461,-0.771 1.871,-1.016 1.509,0.242 0.098,-0.215 0.171,-0.436 0.22,-0.666 0.127,0.609 0.826,-0.145 0.799,0.506 0.096,-0.527 0.277,-0.234 0.411,0.035 0.128,-0.275 0.15,-0.635 -0.098,-0.859 0.22,0.047 0.433,0.025 0.64,-0.062 -0.184,-0.221 -0.174,-0.432 0.031,-0.635 -0.68,0.506 -0.156,-0.361 -0.031,-0.508 -0.728,0.062 -1.12,0.523 -1.902,0.402 -0.487,-0.074 -1.139,0.387 -1.559,0.23 -0.518,-0.189 -0.735,0.164 -1.141,-0.24 -0.141,-0.139 -0.541,0.117 -0.676,0.125 -0.45,0.027 -0.807,-0.383 -1.142,-0.613 0.083,-0.109 0.168,-0.215 0.256,-0.318 -0.358,0.062 -0.682,-0.357 -0.554,-0.697 0.048,-0.127 0.22,-0.301 0.195,-0.447 -0.062,-0.375 -0.646,0.234 -0.247,-0.443 -0.324,0.062 -0.406,0.068 -0.379,-0.287 -0.458,0.666 -1.349,-0.498 -1.747,-0.477 0.379,0.5 -0.529,0.424 -0.763,0.264 -0.65,-0.45 0.608,-1.278 0.726,-1.725 z" />
      <path
         style="fill:#aaaaaa"
         inkscape:connector-curvature="0"
         id="path2206"
         d="m 587.228,449.183 c 0.139,0.098 0.641,0.15 0.562,-0.186 -0.037,-0.162 -0.588,-0.5 -0.718,-0.633 -0.164,-0.164 -0.359,-0.312 -0.607,-0.262 0.126,-0.352 -0.358,-0.619 -0.604,-0.73 -0.13,-0.057 -0.235,-0.322 -0.408,-0.18 -0.32,0.264 -0.313,0.529 0.005,0.807 0.53,0.461 1.466,0.467 1.77,1.184 z" />
      <path
         style="fill:#aaaaaa"
         inkscape:connector-curvature="0"
         id="path2348"
         d="m 664.577,477.992 c -0.148,0.535 0.136,1.027 0.062,1.559 0.493,-0.23 0.779,0.717 1.33,0.307 0.377,-0.279 0.383,-0.334 0.87,-0.277 0.457,0.053 0.763,-0.471 1.202,-0.127 -0.042,-0.746 -0.633,-1.389 -0.358,-2.152 0.334,-0.934 0.511,-1.545 0.396,-2.568 -0.097,-0.857 0.096,-1.529 0.174,-2.363 0.036,-0.379 -0.003,-0.758 0.038,-1.139 0.069,-0.639 -0.219,-0.639 -0.376,-1.18 -0.308,-1.053 1.518,-1.914 2.314,-1.664 0.721,0.225 0.498,1.834 0.119,2.256 -1.066,1.182 0.736,2.527 1.754,3.074 0.433,0.232 -0.653,1.852 -0.213,2.512 0.237,0.355 1.019,0.537 1.42,0.598 0.492,0.07 0.368,-0.727 0.422,-1.01 0.123,-0.633 1.02,-0.518 1.466,-0.699 0.266,-0.107 1.339,0.439 0.721,-0.332 0.482,0.816 1.132,-0.838 0.287,-1.08 -0.152,0.775 -0.359,-0.295 -0.764,-0.287 0.085,-0.117 0.171,-0.232 0.256,-0.35 -0.35,-0.014 -0.784,-0.471 -0.983,-0.727 -0.326,-0.418 0.101,-0.76 -0.194,-1.178 0.157,0.039 0.316,0.07 0.477,0.098 -0.364,-0.223 -0.267,-0.76 0.194,-0.734 -0.085,-0.162 -0.197,-0.305 -0.334,-0.426 -0.253,-0.277 -0.07,-0.572 -0.24,-0.875 -0.143,-0.254 -0.477,-0.271 -0.635,-0.506 -0.18,-0.268 -0.239,-0.691 -0.387,-0.988 -0.223,-0.447 -0.41,-0.887 -0.883,-1.117 -0.385,-0.189 -0.568,-0.996 -1.082,-0.754 0.023,-0.275 0.033,-0.551 0.03,-0.824 0.537,0.455 0.962,0.869 1.506,0.119 0.472,-0.652 0.963,-0.66 1.63,-1.033 0.915,-0.512 1.585,-2.656 2.784,-2.617 0.343,0.01 0.403,1 0.8,0.584 0.236,-0.25 0.687,-0.885 0.446,-1.238 -0.399,-0.588 -1.954,-0.406 -2.432,-0.012 0.26,0.027 0.481,0.133 0.667,0.318 -0.626,0.021 -2.425,-0.418 -2.645,0.393 -0.146,0.543 -1.778,0.521 -1.675,-0.234 -0.544,0.334 -1.108,0.887 -1.382,1.469 -0.298,0.633 -0.435,1.008 -1.168,0.848 -0.479,-0.105 -0.936,-0.23 -1.066,-0.771 -0.067,-0.273 -0.093,-0.549 -0.242,-0.797 -0.277,-0.453 -0.467,-0.084 -0.773,-0.307 -0.986,-0.717 -1.029,-2.949 -0.603,-3.941 0.245,-0.568 0.654,-1.207 1.216,-1.508 0.465,-0.248 1.603,0.162 2.087,0.338 0.344,0.125 1.002,-0.162 1.31,-0.305 0.636,-0.295 0.812,0.156 1.427,0.248 0.685,0.105 1.597,-0.266 2.329,-0.248 0.877,0.021 1.44,0.072 2.142,0.578 0.872,0.631 3.583,0.205 4.293,-0.625 0.488,-0.57 0.66,-1.211 1.247,-1.738 0.632,-0.568 0.604,-1.531 1.285,-2.039 -0.24,-0.152 -0.377,-0.416 -0.287,-0.699 -0.249,0.064 -0.6,-0.111 -0.811,0.066 -0.316,0.268 -0.298,0.791 -0.731,0.924 -0.661,0.203 -0.241,0.406 -0.554,0.82 -0.18,0.24 -0.622,0.146 -0.748,0.475 -0.316,0.818 -1.571,0.965 -2.268,0.814 -0.59,-0.129 -1.287,-0.264 -1.893,-0.234 -0.341,0.018 -0.667,0.395 -0.947,0.283 -0.878,-0.355 -1.499,-0.523 -2.44,-0.621 -0.483,-0.051 -0.766,-0.193 -1.28,-0.141 -0.587,0.059 -0.762,-0.74 -1.059,-0.736 -0.384,0.008 -1.808,-0.693 -1.89,0.104 -0.111,1.086 -1.096,2.119 -1.892,0.98 -0.076,0.357 -0.192,0.627 -0.468,0.869 -0.373,0.33 -0.297,0.838 -0.659,1.131 -0.691,0.557 0.211,1.527 -0.497,2.033 -0.059,-0.25 -0.238,-0.42 -0.507,-0.35 0.175,0.676 0.696,0.51 0.482,1.287 -0.194,0.709 0.453,1.357 0.25,2.08 -0.147,-0.27 -0.209,-0.58 -0.446,-0.795 -0.397,1.076 -1.243,1.637 -1.302,2.859 -0.026,0.545 0.021,1.127 -0.018,1.66 -0.046,0.623 -0.628,1.025 -0.671,1.691 -0.056,0.885 -1.498,1.291 -1.273,2.027 0.127,0.416 0.459,0.156 0.102,0.744 -0.311,0.51 0.097,1.611 0.303,2.137 0.286,-0.322 1.026,-0.441 1.428,-0.463 0.877,-0.047 0.182,0.803 0.467,1.312 0.474,0.848 0.36,1.572 0.21,2.547 -0.127,0.798 -0.331,2.042 -0.867,2.667 z" />
      <path
         style="fill:#aaaaaa"
         inkscape:connector-curvature="0"
         id="path2366"
         d="m 673.342,477.644 c -1.026,0.355 -0.105,1.502 -0.052,1.453 0.275,-0.252 0.248,-1.168 0.052,-1.453 z" />
      <path
         style="fill:#aaaaaa"
         inkscape:connector-curvature="0"
         id="path2368"
         d="m 673.628,460.046 c -0.172,-0.318 -0.622,-0.332 -0.635,0.096 0.23,0.088 0.441,0.055 0.635,-0.096 z" />
      <path
         style="fill:#aaaaaa"
         inkscape:connector-curvature="0"
         id="path2370"
         d="m 674.107,459.697 c -0.203,-0.289 -0.455,-0.279 -0.667,0 0.207,0.146 0.456,0.142 0.667,0 z" />
      <path
         style="fill:#aaaaaa"
         inkscape:connector-curvature="0"
         id="path2372"
         d="m 675.188,479.013 c 0.131,-0.164 0.458,-0.514 0.338,-0.754 -0.219,-0.438 0.22,-0.633 0.338,-1.012 0.064,-0.205 0.332,-1.611 -0.234,-1.307 -0.28,0.15 -0.65,0.348 -0.893,0.551 -0.457,0.377 0.233,0.863 -0.092,1.268 -0.125,0.156 -0.453,0.695 -0.348,0.9 0.17,0.334 0.73,0.234 0.728,-0.158 0.048,0.172 0.103,0.342 0.163,0.512 z" />
      <path
         style="fill:#aaaaaa"
         inkscape:connector-curvature="0"
         id="path2378"
         d="m 677.154,475.072 c -0.816,0.016 -1.115,1.773 -1.151,2.396 -0.038,0.65 -0.293,0.93 -0.531,1.523 -0.296,0.734 0.161,0.539 0.571,0.973 0.197,-0.27 0.219,-0.631 0.427,-0.891 0.21,-0.26 0.598,-0.117 0.797,-0.367 0.286,-0.355 -0.304,-0.98 -0.654,-0.617 0.096,-0.387 0.076,-0.791 0.184,-1.176 0.07,-0.254 0.541,-1.096 0.646,-0.35 0.353,-0.589 -0.325,-0.931 -0.289,-1.491 z" />
      <path
         style="fill:#aaaaaa"
         inkscape:connector-curvature="0"
         id="path2386"
         d="m 678.075,464.525 c -0.015,-0.227 0.007,-0.447 0.062,-0.666 1.213,0.629 0.908,-1.768 -0.062,-0.287 -0.316,-0.469 0.318,-0.602 -0.323,-0.799 -0.22,-0.066 -0.479,-0.096 -0.683,0.037 -0.466,0.303 -0.356,1.08 -0.233,1.525 0.356,-0.184 0.559,-0.543 0.728,-0.887 0.348,0.251 0.015,1.04 0.511,1.077 z" />
      <path
         style="fill:#aaaaaa"
         inkscape:connector-curvature="0"
         id="path2388"
         d="m 677.123,473.449 c -0.362,0.15 -0.319,0.814 0.037,0.955 0.53,0.207 0.838,-0.842 -0.037,-0.955 z" />
      <path
         style="fill:#aaaaaa"
         inkscape:connector-curvature="0"
         id="path2394"
         d="m 678.362,462.843 c -0.105,0.135 -0.174,0.104 -0.066,0.318 0.021,-0.105 0.044,-0.21 0.066,-0.318 z" />
      <path
         style="fill:#aaaaaa"
         inkscape:connector-curvature="0"
         id="path2396"
         d="m 678.518,464.718 c -0.14,0.055 -0.213,0.16 -0.221,0.316 0.074,-0.105 0.147,-0.21 0.221,-0.316 z" />
      <path
         style="fill:#aaaaaa"
         inkscape:connector-curvature="0"
         id="path2398"
         d="m 678.552,478.31 c 0.033,0.225 10e-4,0.314 0.286,0.318 -0.096,-0.107 -0.191,-0.212 -0.286,-0.318 z" />
      <path
         style="fill:#aaaaaa"
         inkscape:connector-curvature="0"
         id="path2400"
         d="m 679.09,479.134 c 0.025,0.18 0.131,0.275 0.318,0.287 -0.106,-0.095 -0.212,-0.191 -0.318,-0.287 z" />
      <path
         style="fill:#aaaaaa"
         inkscape:connector-curvature="0"
         id="path2404"
         d="m 679.98,480.759 c -0.228,0.229 -0.154,0.334 0.221,0.316 -0.073,-0.105 -0.147,-0.21 -0.221,-0.316 z" />
      <path
         style="fill:#aaaaaa"
         inkscape:connector-curvature="0"
         id="path2408"
         d="m 682.047,464.589 c -0.556,0.811 -0.113,1.516 0.855,1.205 0.153,-0.096 0.312,-0.18 0.477,-0.254 0.185,0.037 0.37,0.055 0.559,0.055 0.352,-0.178 0.965,-0.037 1.127,-0.498 -0.254,0.031 -0.423,-0.102 -0.477,-0.348 -0.41,0.579 -1.928,-0.376 -2.541,-0.16 z" />
      <path
         style="fill:#aaaaaa"
         inkscape:connector-curvature="0"
         id="path2414"
         d="m 685.381,447.751 c -0.327,-0.076 -0.359,0.029 -0.098,0.318 0.033,-0.105 0.066,-0.212 0.098,-0.318 z" />
      <path
         style="fill:#aaaaaa"
         inkscape:connector-curvature="0"
         id="path2416"
         d="m 686.05,445.468 c 0.19,-0.398 -0.37,-1.668 -0.86,-1.113 0.519,0.143 0.343,0.896 0.86,1.113 z" />
      <path
         style="fill:#aaaaaa"
         inkscape:connector-curvature="0"
         id="path2418"
         d="m 685.381,465.066 c -0.457,0.479 0.714,0.504 0.941,0.508 0.619,0.01 1.535,0.105 2.01,-0.379 -0.973,-0.145 -2.004,0.217 -2.951,-0.129 z" />
      <path
         style="fill:#aaaaaa"
         inkscape:connector-curvature="0"
         id="path2422"
         d="m 687.191,465.794 c -0.681,0.146 -0.062,1.699 0.287,1.941 0.141,-0.245 -0.125,-1.691 -0.287,-1.941 z" />
      <path
         style="fill:#aaaaaa"
         inkscape:connector-curvature="0"
         id="path2424"
         d="m 689.414,472.878 c 0.467,-0.232 1.488,-0.387 1.785,-0.832 0.376,-0.562 0.17,-0.977 -0.417,-1.105 0.466,-0.525 -0.547,-0.85 -0.896,-0.936 -0.656,-0.164 -1.24,0.041 -1.892,0.111 -0.798,0.088 -0.964,0.482 -0.604,1.25 0.377,0.809 1.286,1.118 2.024,1.512 z" />
      <path
         style="fill:#aaaaaa"
         inkscape:connector-curvature="0"
         id="path2426"
         d="m 689.477,443.783 c 0.087,-0.254 -0.01,-0.508 -0.221,-0.666 0.062,0.226 0.136,0.447 0.221,0.666 z" />
      <path
         style="fill:#aaaaaa"
         inkscape:connector-curvature="0"
         id="path2428"
         d="m 689.604,443.052 c 0.347,-0.359 0.431,-0.92 0.365,-1.395 -0.034,-0.246 -0.248,-0.971 -0.474,-0.391 -0.157,0.404 0.312,0.727 0.158,1.033 -0.139,0.283 -0.423,0.492 -0.049,0.753 z" />
      <path
         style="fill:#aaaaaa"
         inkscape:connector-curvature="0"
         id="path2432"
         d="m 691.608,459.283 c -0.398,-0.17 -0.714,0.725 -0.446,0.953 0.464,0.396 0.509,-0.711 0.446,-0.953 z" />
      <path
         style="fill:#aaaaaa"
         inkscape:connector-curvature="0"
         id="path2434"
         d="m 691.608,460.587 c -0.383,0.199 -0.188,0.797 0.256,0.666 -0.048,-0.236 -0.134,-0.459 -0.256,-0.666 z" />
      <path
         style="fill:#aaaaaa"
         inkscape:connector-curvature="0"
         id="path2438"
         d="m 691.926,454.994 c -0.097,0.152 -0.04,0.211 0.097,0.35 -0.033,-0.118 -0.065,-0.233 -0.097,-0.35 z" />
      <path
         style="fill:#aaaaaa"
         inkscape:connector-curvature="0"
         id="path2440"
         d="m 692.592,459.443 c -0.104,0.139 -0.211,0.275 -0.317,0.414 -0.108,-0.104 -0.214,-0.211 -0.318,-0.318 -0.292,0.881 0.139,0.561 0.415,1.174 0.062,0.135 -0.347,0.719 0.088,0.615 0.235,-0.057 0.489,-0.191 0.575,0.117 0.1,0.357 1.366,-0.242 0.308,-0.533 -0.432,-0.119 -0.534,-0.369 -0.301,-0.742 0.146,-0.235 -0.32,-0.598 -0.45,-0.727 z" />
      <path
         style="fill:#aaaaaa"
         inkscape:connector-curvature="0"
         id="path2442"
         d="m 692.144,456.837 c -0.08,0.15 -0.146,0.111 0,0.318 0,-0.107 0,-0.212 0,-0.318 z" />
      <path
         style="fill:#aaaaaa"
         inkscape:connector-curvature="0"
         id="path2444"
         d="m 692.306,463.732 c -0.491,0.381 -0.235,1.068 0.349,1.146 0.246,0.033 0.464,-0.158 0.708,-0.158 0.266,0 0.529,0.084 0.795,0.1 0.905,0.051 0.017,-0.818 -0.254,-0.957 -0.594,-0.303 -1.013,-0.59 -1.598,-0.131 z" />
      <path
         style="fill:#aaaaaa"
         inkscape:connector-curvature="0"
         id="path2446"
         d="m 692.274,455.439 c -0.074,-0.01 -0.147,-0.02 -0.221,-0.029 0.058,0.125 0.131,0.242 0.221,0.348 0,-0.106 0,-0.212 0,-0.319 z" />
      <path
         style="fill:#aaaaaa"
         inkscape:connector-curvature="0"
         id="path2452"
         d="m 693.1,458.238 c 0.026,0.395 -0.128,0.807 0.15,1.148 0.269,0.33 0.555,0.49 0.711,0.91 0.172,0.461 1.023,1.453 1.428,1.211 -1.148,-1.178 -1.283,-2.598 -1.51,-4.111 -0.1,-0.656 -0.072,-1.197 0.744,-0.779 0.694,0.354 1.703,0.568 2.477,0.637 -0.486,-0.238 -0.495,-0.83 -0.889,-1.143 -0.396,-0.312 -1.514,-0.262 -1.029,-1.07 0.322,-0.541 1.176,-0.557 1.337,-1.23 0.109,-0.453 -0.211,-1.213 -0.019,-1.547 -0.814,-0.207 -1.704,0.598 -2.034,1.271 0.761,0.037 0.019,0.432 -0.193,0.514 -0.459,0.182 -0.259,0.678 -0.476,1.014 -0.226,0.35 -0.702,-0.008 -0.844,-0.242 -0.253,-0.414 0.271,-0.682 0.554,-0.867 0.58,-0.383 0.96,-1.559 0.642,-2.229 -0.137,-0.287 -0.619,-0.391 -0.502,-0.775 0.112,-0.369 0.614,-0.596 0.471,-1.035 -0.776,0.006 -1.13,0.986 -1.314,1.592 -0.197,0.641 -0.707,1.775 -0.591,2.41 0.056,0.312 0.19,0.639 0.366,0.9 0.069,0.127 0.17,0.219 0.3,0.275 -0.211,0.266 -0.287,0.59 -0.254,0.922 0.043,0.436 0.193,0.684 0.452,1.008 0.26,0.323 0.08,0.853 0.023,1.216 z" />
      <path
         style="fill:#aaaaaa"
         inkscape:connector-curvature="0"
         id="path2454"
         d="m 692.688,462.744 c -0.116,0.086 -0.232,0.172 -0.349,0.258 0.236,0.029 0.459,-0.012 0.666,-0.129 -0.105,-0.043 -0.211,-0.086 -0.317,-0.129 z" />
      <path
         style="fill:#aaaaaa"
         inkscape:connector-curvature="0"
         id="path2456"
         d="m 692.492,470.718 c -0.191,0.266 -0.105,0.371 0.256,0.318 -0.085,-0.107 -0.17,-0.212 -0.256,-0.318 z" />
      <path
         style="fill:#aaaaaa"
         inkscape:connector-curvature="0"
         id="path2458"
         d="m 692.969,470.308 c -0.077,0.113 -0.107,0.24 -0.093,0.379 0.12,0.002 0.236,-0.02 0.349,-0.062 -0.075,-0.116 -0.16,-0.221 -0.256,-0.317 z" />
      <path
         style="fill:#aaaaaa"
         inkscape:connector-curvature="0"
         id="path2462"
         d="m 693.799,469.386 c -0.101,0.162 -0.205,0.322 -0.317,0.477 0.25,-0.053 0.375,-0.221 0.317,-0.477 z" />
      <path
         style="fill:#aaaaaa"
         inkscape:connector-curvature="0"
         id="path2464"
         d="m 700.628,471.511 c 0.709,0.41 1.437,0.695 2.086,1.203 0.757,0.592 0.862,-0.295 0.739,-0.885 -0.075,-0.361 -0.562,-0.479 -0.635,-0.824 -0.074,-0.357 -0.074,-0.754 -0.427,-0.965 -0.327,-0.195 -0.45,-0.451 -0.877,-0.367 -0.429,0.082 -0.839,0.023 -1.188,-0.254 -0.34,-0.268 -0.774,-0.471 -1.216,-0.457 -0.441,0.012 -0.647,0.371 -1.037,0.457 -0.345,0.074 -0.478,-0.104 -0.66,-0.32 -0.064,-0.076 -1.146,0.057 -1.301,0.047 -1.484,-0.109 -3.05,0.945 -2.442,2.592 0.012,-0.336 0.474,-1.697 0.953,-1.588 -0.152,0.447 0.644,1.164 1.025,1.234 0.156,0.029 1.942,-1.455 1.516,-0.312 0.279,-0.062 1.926,0.6 2.019,0.033 0.082,-0.488 1.36,-0.084 1.445,0.406 z" />
      <path
         style="fill:#aaaaaa"
         inkscape:connector-curvature="0"
         id="path2466"
         d="m 693.989,471.957 c -0.252,0.121 -0.445,0.373 -0.384,0.666 0.375,-0.047 0.635,-0.338 0.988,-0.439 -0.34,0.568 0.456,0.023 0.379,-0.514 -0.357,0.025 -0.606,0.363 -0.983,0.287 z" />
      <path
         style="fill:#aaaaaa"
         inkscape:connector-curvature="0"
         id="path2468"
         d="m 694.497,449.501 c 0.096,-0.145 0.165,-0.098 0.03,-0.318 -0.009,0.106 -0.02,0.213 -0.03,0.318 z" />
      <path
         style="fill:#aaaaaa"
         inkscape:connector-curvature="0"
         id="path2470"
         d="m 695.004,450.55 c 1.194,-0.27 1.635,-1.283 0.923,-2.352 -0.141,0.346 -0.529,0.432 -0.764,0.688 -0.406,0.442 -0.416,1.158 -0.159,1.664 z" />
      <path
         style="fill:#aaaaaa"
         inkscape:connector-curvature="0"
         id="path2474"
         d="m 695.387,471.671 c -0.093,0.117 -0.104,0.246 -0.035,0.383 0.134,-0.062 0.251,-0.148 0.354,-0.256 -0.107,-0.043 -0.213,-0.084 -0.319,-0.127 z" />
      <path
         style="fill:#aaaaaa"
         inkscape:connector-curvature="0"
         id="path2478"
         d="m 695.863,471.578 c -0.118,0.328 0.141,0.609 0.477,0.445 -0.039,-0.25 -0.217,-0.436 -0.477,-0.445 z" />
      <path
         style="fill:#aaaaaa"
         inkscape:connector-curvature="0"
         id="path2482"
         d="m 698.692,458.238 c 0.165,0.285 0.416,0.52 0.728,0.635 -0.221,-0.229 -0.44,-0.489 -0.728,-0.635 z" />
      <path
         style="fill:#aaaaaa"
         inkscape:connector-curvature="0"
         id="path2484"
         d="m 700.818,465.953 c 0.217,0.074 0.438,0.127 0.666,0.16 0.244,-0.006 0.374,-0.227 0.635,-0.191 -0.256,-0.352 0.279,-0.521 0.003,-1.057 -0.296,-0.572 -1.562,0.375 -2.067,0.453 0.078,0.357 0.397,0.623 0.763,0.635 z" />
      <path
         style="fill:#aaaaaa"
         inkscape:connector-curvature="0"
         id="path2486"
         d="m 700.469,462.617 c -0.131,0.066 -0.249,0.15 -0.353,0.256 0.305,0.168 0.423,0.084 0.353,-0.256 z" />
      <path
         style="fill:#aaaaaa"
         inkscape:connector-curvature="0"
         id="path2488"
         d="m 701.263,458.269 c 0.054,0.105 0.106,0.211 0.159,0.316 0.042,-0.265 -0.039,-0.181 -0.159,-0.316 z" />
      <path
         style="fill:#aaaaaa"
         inkscape:connector-curvature="0"
         id="path2490"
         d="m 703.329,459.917 c 1.328,0.377 0.001,-0.9 -0.286,-1.203 0.375,-0.053 0.626,0.348 0.827,0.59 0.377,0.451 0.478,0.062 0.843,0.246 0.691,0.344 0.754,-0.645 0.251,-0.92 -0.475,-0.26 -2.95,-0.631 -3.002,0.303 0.632,-0.426 0.284,0.264 -0.097,0.129 0.303,0.389 0.994,0.123 0.859,0.824 0.037,-0.24 0.21,-0.422 0.445,-0.477 0.063,0.169 0.116,0.337 0.16,0.508 z" />
      <path
         style="fill:#aaaaaa"
         inkscape:connector-curvature="0"
         id="path2494"
         d="m 702.405,461.412 c -0.114,0.6 1.495,0.389 1.333,-0.225 -0.341,0.381 -0.91,0.094 -1.333,0.225 z" />
      <path
         style="fill:#aaaaaa"
         inkscape:connector-curvature="0"
         id="path2496"
         d="m 703.043,459.857 c -0.189,0.078 -0.338,0.203 -0.445,0.379 0.276,0.168 0.894,-0.194 0.445,-0.379 z" />
      <path
         style="fill:#aaaaaa"
         inkscape:connector-curvature="0"
         id="path2500"
         d="m 703.934,461.664 c -1.207,0.203 -0.732,1.043 -0.078,1.691 0.379,0.375 1.131,-1.486 0.078,-1.691 z" />
      <path
         style="fill:#aaaaaa"
         inkscape:connector-curvature="0"
         id="path2506"
         d="m 704.727,462.046 c -0.099,0.143 -0.198,0.08 -0.128,0.318 0.043,-0.105 0.085,-0.21 0.128,-0.318 z" />
      <path
         style="fill:#aaaaaa"
         inkscape:connector-curvature="0"
         id="path2508"
         d="m 704.917,473.802 c 0.052,0.197 0.046,0.279 0.286,0.318 -0.096,-0.105 -0.19,-0.212 -0.286,-0.318 z" />
      <path
         style="fill:#aaaaaa"
         inkscape:connector-curvature="0"
         id="path2510"
         d="m 705.328,473.386 c -0.275,-0.041 -0.243,0.064 0.097,0.318 -0.032,-0.107 -0.065,-0.212 -0.097,-0.318 z" />
      <path
         style="fill:#aaaaaa"
         inkscape:connector-curvature="0"
         id="path2522"
         d="m 711.745,473.929 c -0.128,0.441 0.741,0.535 0.953,0.76 -0.247,-0.346 -0.705,-0.414 -0.953,-0.76 z" />
      <path
         style="fill:#aaaaaa"
         inkscape:connector-curvature="0"
         id="path2392"
         d="m 677.503,496.417 c 0.174,0.131 0.15,0.266 0.415,0.158 0.087,0.471 -0.782,0.621 -0.86,1.24 0.38,-0.117 0.765,-0.014 1.148,-0.088 0.501,-0.096 0.874,-0.631 1.382,-0.645 0.816,-0.023 1.096,-0.258 1.64,-0.865 0.351,-0.391 0.938,-0.887 1.086,-1.377 0.224,-0.746 -0.229,-0.146 0.426,-0.365 l 0.493,-1.689 -0.717,-0.559 c -1.314,0.531 -0.307,0.83 -1.854,1.131 -0.385,0.074 -0.086,1.168 -0.358,1.342 -0.271,0.172 -0.343,-0.41 -0.532,-0.16 -0.189,0.25 -0.827,-0.641 -0.964,-0.336 -0.136,0.307 -1.192,1.874 -1.305,2.213 z" />
      <path
         style="fill:#aaaaaa"
         inkscape:connector-curvature="0"
         id="path2346"
         d="m 662.955,489.3 c -0.222,0.086 -0.297,0.246 -0.225,0.477 0.296,-0.029 0.373,-0.235 0.225,-0.477 z" />
      <path
         style="fill:#aaaaaa"
         inkscape:connector-curvature="0"
         id="path2278"
         d="m 616.802,483.203 c -0.135,0.059 -0.251,0.145 -0.349,0.256 0.306,0.169 0.422,0.083 0.349,-0.256 z" />
      <path
         style="fill:#aaaaaa"
         inkscape:connector-curvature="0"
         id="path2280"
         d="m 621.822,481.39 c -0.282,-0.219 -1.696,-0.48 -1.973,-0.221 -0.035,-0.898 -0.87,0.279 -0.983,0.574 -0.115,0.299 -0.13,1.742 -0.763,1.174 -0.107,0.475 -0.4,0.854 -0.574,1.301 -0.188,-0.445 -0.593,-0.324 -0.917,-0.123 1.023,0.496 2.232,-0.1 3.155,0.543 0.288,0.199 0.7,0.215 1.016,0.367 0.504,0.24 -0.2,0.609 -0.275,0.957 -0.201,0.939 2.502,0.777 3.003,0.867 0.966,0.172 1.769,0.877 2.731,1.127 0.305,0.078 0.722,0.18 1.021,0.027 0.32,-0.166 0.245,-0.445 0.704,-0.459 1.171,-0.035 2.354,0.242 3.443,0.605 1.349,0.447 2.651,1.168 4.034,1.484 0.574,0.131 1.394,0.012 1.908,0.262 0.53,0.258 0.983,0.021 1.562,0.078 1.183,0.113 2.502,0.848 3.586,0.105 0.884,-0.607 1.906,0.5 2.668,0.895 0.257,0.133 1.828,0.229 1.795,0.41 -0.059,0.328 0.434,0.527 0.7,0.396 0.197,-0.096 -0.325,-0.758 -0.387,-0.852 -0.534,-0.82 0.114,-1.635 0.192,-2.48 0.05,-0.531 -0.477,-0.631 -0.86,-0.75 -0.656,-0.207 -0.859,0.08 -1.474,0.02 -0.58,-0.057 -1.369,0.363 -1.871,0.117 -0.319,-0.158 -1.233,-0.465 -1.381,-0.814 -0.126,-0.301 0.431,-1.719 -0.304,-1.096 0.145,-0.471 -0.262,-0.926 -0.225,-1.4 -0.43,0.221 -1.001,0.068 -1.461,0.113 -0.181,-0.02 -0.328,-0.1 -0.444,-0.242 -0.317,-0.275 -0.646,-0.068 -0.984,-0.25 -0.178,-0.094 -0.477,-0.834 -0.785,-0.463 -0.307,0.367 -0.921,0.305 -1.157,-0.111 -0.559,-0.98 -1.215,-1.1 -1.672,0.119 -0.155,0.41 -0.425,1.346 -1.052,1.139 -0.35,-0.115 -0.422,-0.297 -0.814,-0.271 -0.317,0.021 -0.648,0.105 -0.966,0.035 -0.621,-0.139 -0.882,-0.104 -1.483,-0.066 -0.348,0.021 -0.904,-0.438 -1.214,-0.268 -1.255,0.682 -1.524,-1.08 -2.003,-1.75 -0.441,-0.621 -0.36,-0.047 -0.759,-0.047 -0.469,0 -0.874,-0.678 -1.359,-0.436 -0.461,0.23 -0.777,-0.375 -1.061,-0.615 -0.467,-0.391 -0.817,-0.23 -1.333,-0.537 -0.093,0.446 -0.536,1.058 -0.984,0.536 z" />
      <path
         style="fill:#aaaaaa"
         inkscape:connector-curvature="0"
         id="path2296"
         d="m 628.555,487.587 c 0.032,0.334 0.437,0.303 0.666,0.318 -0.204,-0.146 -0.426,-0.253 -0.666,-0.318 z" />
      <path
         style="fill:#aaaaaa"
         inkscape:connector-curvature="0"
         id="path2308"
         d="m 642.563,484.572 c -0.323,-0.053 -1.149,0.588 -0.767,0.906 0.36,0.301 1.223,0.561 1.273,0.047 0.521,0.615 1.188,0.26 1.805,0.037 0.254,-0.092 0.531,-0.164 0.803,-0.104 -0.056,-0.428 0.418,-0.418 0.697,-0.508 -0.109,-0.635 -0.963,-0.486 -1.409,-0.426 -0.793,0.112 -1.623,-0.165 -2.402,0.048 z" />
      <path
         style="fill:#aaaaaa"
         inkscape:connector-curvature="0"
         id="path2310"
         d="m 641.956,480.125 c -0.253,0.039 -0.305,0.221 -0.22,0.439 0.301,-0.004 0.368,-0.201 0.22,-0.439 z" />
      <path
         style="fill:#aaaaaa"
         inkscape:connector-curvature="0"
         id="path2312"
         d="m 647.167,485.207 c 0.028,0.234 -0.015,0.342 0.286,0.348 -0.088,-0.122 -0.183,-0.239 -0.286,-0.348 z" />
      <path
         style="fill:#aaaaaa"
         inkscape:connector-curvature="0"
         id="path2314"
         d="m 647.453,489.14 c -0.413,0.783 0.633,1.164 1.17,1.42 0.339,0.16 0.609,0.326 0.838,0.627 0.414,0.547 -0.102,0.402 -0.13,0.795 -0.018,0.26 1.024,-0.92 1.07,-0.938 0.431,-0.152 1.513,-0.58 0.971,-1.148 -0.392,-0.412 -1.167,-0.994 -1.753,-0.672 -0.67,0.369 -1.507,0.381 -2.166,-0.084 z" />
      <path
         style="fill:#aaaaaa"
         inkscape:connector-curvature="0"
         id="path2316"
         d="m 647.802,485.488 c 0.092,0.08 0.196,0.08 0.317,0 -0.105,0 -0.211,0 -0.317,0 z" />
      <path
         style="fill:#aaaaaa"
         inkscape:connector-curvature="0"
         id="path2318"
         d="m 650.472,484.345 c -0.267,0.143 -0.328,0.387 -0.097,0.604 0.244,-0.301 0.648,-0.348 0.987,-0.189 -0.147,-0.384 -0.546,-0.391 -0.89,-0.415 z" />
      <path
         style="fill:#aaaaaa"
         inkscape:connector-curvature="0"
         id="path2320"
         d="m 651.011,491.876 c 0.101,-0.17 0.101,-0.34 0,-0.512 -0.124,0.074 -0.23,0.17 -0.317,0.287 0.105,0.075 0.21,0.151 0.317,0.225 z" />
      <path
         style="fill:#aaaaaa"
         inkscape:connector-curvature="0"
         id="path2322"
         d="m 653.678,489.617 c -0.458,0.23 -1.024,0.656 -0.969,1.24 0.045,0.465 -0.116,1.215 -0.712,0.732 -0.492,0.758 2.061,0.547 2.157,0.666 -0.21,-0.465 0.46,-1.355 0.685,-1.732 0.345,-0.578 -0.72,-1.072 -1.161,-0.906 z" />
      <path
         style="fill:#aaaaaa"
         inkscape:connector-curvature="0"
         id="path2328"
         d="m 658.76,492.318 c 0.684,-0.352 1.358,-0.467 1.747,-1.203 0.147,0.244 -0.187,0.75 0.064,0.881 0.27,0.141 0.458,0.037 0.707,-0.062 0.314,-0.127 0.571,0.059 0.88,0.104 -0.159,-0.211 -0.369,-0.328 -0.632,-0.354 0.606,-0.365 1.478,0.32 1.65,-0.666 -0.551,0.684 -0.482,-0.582 -0.615,-0.846 -0.321,-0.641 -0.991,0.018 -0.974,0.498 -0.094,-0.479 -0.461,-1.291 -1.006,-0.688 -0.412,0.457 -0.757,-0.443 -0.967,-0.676 -0.307,-0.34 -1.572,-0.08 -1.207,0.488 0.447,0.695 1.034,0.861 1.72,1.254 -0.216,0.289 -0.797,0.445 -1.128,0.52 -0.57,0.129 -0.638,-0.398 -0.877,-0.758 -0.56,-0.84 -2.31,-0.541 -2.892,0.123 -0.28,0.32 0.009,0.818 -0.249,1.145 -0.345,0.436 0.273,0.787 0.625,0.879 0.218,0.057 0.403,0.068 0.591,-0.076 0.346,-0.268 0.334,-0.092 0.782,-0.109 0.632,-0.026 1.147,-0.659 1.781,-0.454 z" />
      <path
         style="fill:#aaaaaa"
         inkscape:connector-curvature="0"
         id="path2330"
         d="m 657.649,490.289 c 0.223,-0.27 0.351,-0.598 0.538,-0.891 -0.663,-0.303 -0.605,0.478 -0.538,0.891 z" />
      <path
         style="fill:#aaaaaa"
         inkscape:connector-curvature="0"
         id="path2342"
         d="m 662.065,494.667 c 0.301,0.789 1.034,0.764 1.747,0.844 0.844,0.094 1.515,0.875 2.021,1.48 0.951,1.133 3.145,0.107 1.999,-1.162 -0.358,-0.395 -0.628,-0.723 -1.153,-0.725 0.024,0 -0.826,-1.018 -0.935,-1.115 -0.079,-0.07 -1.49,-0.049 -1.558,-0.006 -0.656,0.423 -1.568,-0.247 -2.121,0.684 z" />
      <path
         style="fill:#aaaaaa"
         inkscape:connector-curvature="0"
         id="path2350"
         d="m 664.101,490.441 c -0.179,0.297 -0.398,0.643 -0.097,0.959 0.011,-0.44 0.876,-0.652 0.097,-0.959 z" />
      <path
         style="fill:#aaaaaa"
         inkscape:connector-curvature="0"
         id="path2352"
         d="m 664.64,491.078 c 0.09,0.248 0.059,0.482 -0.093,0.701 0.425,0.104 0.353,-0.385 0.441,-0.635 -0.117,-0.023 -0.232,-0.045 -0.348,-0.066 z" />
      <path
         style="fill:#aaaaaa"
         inkscape:connector-curvature="0"
         id="path2354"
         d="m 665.811,491.908 c 0.339,-0.182 0.993,0.023 1.389,-0.021 0.365,-0.041 0.914,0.039 1.272,0.111 0.392,0.08 0.601,0.52 1.051,0.314 0.312,-0.143 1.053,0.131 0.929,-0.471 0.986,0.414 1.408,0.141 2.359,-0.205 0.635,-0.232 2.861,0.082 2.533,-1.193 0.439,0.084 0.388,-0.461 0.794,-0.473 -0.181,-0.525 -0.741,-1.309 -0.891,-0.287 0.2,-0.125 0.412,-0.146 0.635,-0.064 -0.442,0.508 -1.23,0.541 -1.564,1.164 -0.404,0.754 -1.083,0.252 -1.508,-0.145 -0.403,-0.375 -0.901,0.246 -1.332,0.074 -0.227,-0.09 -0.21,0.09 -0.354,0.225 -0.225,0.213 -0.657,-0.158 -0.822,-0.277 -0.551,-0.396 -1.422,-0.645 -2.073,-0.797 -1.026,-0.24 -1.355,0.148 -2.209,0.574 -0.428,0.213 -0.706,0.207 -0.754,0.803 -0.026,0.308 0.093,1.22 0.545,0.668 z" />
      <path
         style="fill:#aaaaaa"
         inkscape:connector-curvature="0"
         id="path2356"
         d="m 668.197,480.345 c -0.544,0.182 -0.279,2.195 -0.159,2.602 0.11,-0.869 0.304,-1.721 0.159,-2.602 z" />
      <path
         style="fill:#aaaaaa"
         inkscape:connector-curvature="0"
         id="path2358"
         d="m 668.48,485.048 c -0.097,0.156 -0.097,0.316 0,0.477 0.122,-0.066 0.229,-0.15 0.317,-0.258 -0.106,-0.072 -0.211,-0.146 -0.317,-0.219 z" />
      <path
         style="fill:#aaaaaa"
         inkscape:connector-curvature="0"
         id="path2360"
         d="m 669.021,486 c 0.088,0.271 0.477,0.133 0.636,0.062 -0.215,0.012 -0.427,-0.008 -0.636,-0.062 z" />
      <path
         style="fill:#aaaaaa"
         inkscape:connector-curvature="0"
         id="path2362"
         d="m 670.422,498.736 c 0.111,0.047 0.217,0.025 0.317,-0.066 -0.106,0.021 -0.212,0.044 -0.317,0.066 z" />
      <path
         style="fill:#aaaaaa"
         inkscape:connector-curvature="0"
         id="path2364"
         d="m 671.088,498.511 c -0.021,0.055 -0.044,0.107 -0.065,0.16 0.253,0.096 0.629,0.023 0.833,-0.152 0.103,-0.082 0.127,-0.182 0.074,-0.303 -0.215,-0.404 -0.586,0.16 -0.842,0.295 z" />
      <path
         style="fill:#aaaaaa"
         inkscape:connector-curvature="0"
         id="path2374"
         d="m 674.802,499.339 c -0.136,0.205 -0.146,0.418 -0.031,0.635 0.538,-0.305 1.353,-0.836 1.938,-0.988 -0.111,-0.203 -0.206,-0.416 -0.287,-0.635 -0.606,0.277 -0.946,0.748 -1.62,0.988 z" />
      <path
         style="fill:#aaaaaa"
         inkscape:connector-curvature="0"
         id="path2380"
         d="m 675.694,490.765 c 0.03,0.094 0.062,0.188 0.093,0.281 0.134,-0.234 0.314,-0.424 0.543,-0.568 -0.259,-0.01 -0.472,0.086 -0.636,0.287 z" />
      <path
         style="fill:#aaaaaa"
         inkscape:connector-curvature="0"
         id="path2382"
         d="m 676.36,489.873 c -0.147,0.123 -0.221,0.283 -0.221,0.477 0.27,-0.035 0.887,0.086 0.984,-0.287 0.124,-0.472 -0.547,-0.315 -0.763,-0.19 z" />
      <path
         style="fill:#aaaaaa"
         inkscape:connector-curvature="0"
         id="path2384"
         d="m 676.899,497.021 c -0.225,0.145 -0.37,0.398 -0.38,0.666 0.414,0.055 0.497,-0.363 0.38,-0.666 z" />
      <path
         style="fill:#aaaaaa"
         inkscape:connector-curvature="0"
         id="path2390"
         d="m 677.409,489.843 c 0.087,0.098 0.16,0.203 0.221,0.318 -0.248,0.102 -0.641,0.283 -0.726,0.566 -0.148,0.5 0.793,0.121 0.981,0.258 -0.064,-0.598 0.854,-1.08 1.333,-1.174 -0.619,-0.682 -0.938,0.203 -1.368,0.412 0.213,-0.458 -0.111,-0.431 -0.441,-0.38 z" />
      <path
         style="fill:#aaaaaa"
         inkscape:connector-curvature="0"
         id="path2402"
         d="m 679.346,490.093 c -0.136,0.129 -0.198,0.289 -0.19,0.477 0.272,-0.064 0.514,0.076 0.636,0.316 0.258,-0.268 0.787,-0.916 0.44,-1.301 -0.171,0.354 -0.548,0.411 -0.886,0.508 z" />
      <path
         style="fill:#aaaaaa"
         inkscape:connector-curvature="0"
         id="path2406"
         d="m 681.058,489.3 c -0.187,0.205 -0.436,0.732 0.158,0.414 -0.33,0.146 -0.615,0.447 -0.635,0.824 0.783,-0.074 1.685,-0.01 2.417,-0.34 0.463,-0.209 0.306,-0.695 -0.151,-0.775 -0.271,-0.049 -0.509,0.066 -0.778,0.039 -0.341,-0.033 -0.662,-0.209 -1.011,-0.162 z" />
      <path
         style="fill:#aaaaaa"
         inkscape:connector-curvature="0"
         id="path2410"
         d="m 684.998,489.367 c -0.247,-0.025 -0.432,0.398 -0.477,0.57 0.238,-0.105 0.416,-0.316 0.477,-0.57 z" />
      <path
         style="fill:#aaaaaa"
         inkscape:connector-curvature="0"
         id="path2420"
         d="m 685.474,488.861 c 0.665,-0.555 1.311,-0.43 2.096,-0.293 0.418,0.074 0.84,-0.736 1.368,-0.727 -0.69,-0.852 -1.048,-0.549 -2.044,-0.16 -0.278,0.107 -0.473,-0.145 -0.708,-0.045 -0.431,0.186 -0.65,0.801 -0.712,1.225 z" />
      <path
         style="fill:#aaaaaa"
         inkscape:connector-curvature="0"
         id="path2430"
         d="m 691.101,486.917 c -0.136,0.168 -0.2,0.359 -0.193,0.574 0.283,-0.097 0.418,-0.32 0.193,-0.574 z" />
      <path
         style="fill:#aaaaaa"
         inkscape:connector-curvature="0"
         id="path2436"
         d="m 691.767,489.427 c -0.078,0.375 0.028,0.396 0.318,0.066 -0.106,-0.021 -0.212,-0.044 -0.318,-0.066 z" />
      <path
         style="fill:#aaaaaa"
         inkscape:connector-curvature="0"
         id="path2450"
         d="m 692.212,489.177 c -0.142,0.555 0.909,0.74 1.015,0.123 -0.346,0.065 -0.687,-0.027 -1.015,-0.123 z" />
      <path
         style="fill:#aaaaaa"
         inkscape:connector-curvature="0"
         id="path2460"
         d="m 693.258,489.585 c 0.012,0.096 0.023,0.191 0.035,0.287 0.12,-0.078 0.225,-0.174 0.313,-0.287 -0.116,0 -0.232,0 -0.348,0 z" />
      <path
         style="fill:#aaaaaa"
         inkscape:connector-curvature="0"
         id="path2472"
         d="m 695.259,485.238 c -0.143,0.084 -0.216,0.211 -0.221,0.379 0.348,0.039 0.421,-0.086 0.221,-0.379 z" />
      <path
         style="fill:#aaaaaa"
         inkscape:connector-curvature="0"
         id="path2476"
         d="m 695.767,489.523 c 0.102,0.217 0.271,0.312 0.508,0.287 -0.048,-0.268 -0.254,-0.387 -0.508,-0.287 z" />
      <path
         style="fill:#aaaaaa"
         inkscape:connector-curvature="0"
         id="path2480"
         d="m 698.468,488.029 c -0.283,0.248 -0.136,0.852 0.277,0.844 0.788,-0.014 0.428,-0.924 -0.277,-0.844 z" />
      <path
         style="fill:#aaaaaa"
         inkscape:connector-curvature="0"
         id="path2492"
         d="m 702.15,490.13 c 0.521,-0.176 0.995,-0.5 1.43,-0.83 -0.548,0.213 -1.093,0.16 -1.43,0.83 z" />
      <path
         style="fill:#aaaaaa"
         inkscape:connector-curvature="0"
         id="path2498"
         d="m 702.726,486.886 c -0.057,0.273 0.05,0.283 0.318,0.031 -0.106,-0.009 -0.212,-0.019 -0.318,-0.031 z" />
      <path
         style="fill:#aaaaaa"
         inkscape:connector-curvature="0"
         id="path2502"
         d="m 703.293,486.57 c -0.052,0.086 -0.104,0.17 -0.155,0.256 0.255,0.086 0.425,-0.031 0.477,-0.287 -0.107,0.009 -0.216,0.021 -0.322,0.031 z" />
      <path
         style="fill:#aaaaaa"
         inkscape:connector-curvature="0"
         id="path2504"
         d="m 705.424,485.427 c -0.521,0.031 -1.997,1.787 -1.49,2.254 -1.028,-0.473 -0.312,2.109 0.208,0.916 0.229,-0.527 0.804,-0.787 1.087,-1.289 0.234,-0.416 -0.043,-1.355 0.483,-1.533 -0.08,-0.129 -0.176,-0.244 -0.288,-0.348 z" />
      <path
         style="fill:#aaaaaa"
         inkscape:connector-curvature="0"
         id="path2512"
         d="m 705.772,485.427 c 0.17,0.281 0.549,0.205 0.764,0.445 0.002,-0.435 -0.436,-0.47 -0.764,-0.445 z" />
      <path
         style="fill:#aaaaaa"
         inkscape:connector-curvature="0"
         id="path2516"
         d="m 709.427,479.927 c -0.08,-0.102 -0.186,-0.131 -0.317,-0.092 0.136,0.23 -0.084,0.938 0.222,1.033 0.478,0.147 0.179,-0.769 0.095,-0.941 z" />
      <path
         style="fill:#aaaaaa"
         inkscape:connector-curvature="0"
         id="path2518"
         d="m 709.682,479.55 c -0.278,-0.057 -0.288,0.049 -0.03,0.318 0.009,-0.105 0.02,-0.21 0.03,-0.318 z" />
      <path
         style="fill:#aaaaaa"
         inkscape:connector-curvature="0"
         id="path2520"
         d="m 709.682,481.169 c 0.572,-0.424 1.138,-1.926 1.333,-2.602 -0.479,0.168 -0.43,0.639 -0.592,1.029 -0.23,0.55 -0.57,0.978 -0.741,1.573 z" />
      <path
         style="fill:#aaaaaa"
         inkscape:connector-curvature="0"
         id="path2524"
         d="m 713.971,481.804 c -0.089,0.393 -0.16,0.924 0.159,1.24 -0.639,-0.035 -0.85,1.877 0.206,1.373 1.372,-0.654 0.482,-1.978 -0.365,-2.613 z" />
      <path
         style="fill:#aaaaaa"
         inkscape:connector-curvature="0"
         id="path2534"
         d="m 715.845,483.423 c -0.229,0.145 -0.257,0.441 -0.159,0.67 0.166,-0.197 0.218,-0.42 0.159,-0.67 z" />
      <path
         style="fill:#aaaaaa"
         inkscape:connector-curvature="0"
         id="path2536"
         d="m 715.845,482.884 c -0.295,0.174 -0.254,0.279 0.123,0.318 -0.042,-0.105 -0.082,-0.212 -0.123,-0.318 z" />
      <path
         style="fill:#aaaaaa"
         inkscape:connector-curvature="0"
         id="path2538"
         d="m 716.286,482.947 c 0.378,-1.151 -0.267,-0.371 0,0 z" />
      <path
         style="fill:#aaaaaa"
         inkscape:connector-curvature="0"
         id="path2230"
         d="m 607.271,479.203 c 0.091,-0.43 -0.527,-0.924 -0.855,-0.508 0.308,0.148 0.438,0.668 0.855,0.508 z" />
      <path
         style="fill:#aaaaaa"
         inkscape:connector-curvature="0"
         id="path2202"
         d="m 583.319,436.126 c 0.478,0.15 0.231,-0.457 -0.221,-0.316 0.074,0.106 0.147,0.211 0.221,0.316 z" />
      <path
         style="fill:#aaaaaa"
         inkscape:connector-curvature="0"
         id="path2204"
         d="m 590.851,438.191 c -0.28,0.164 -0.642,0.408 -0.99,0.311 -0.332,-0.092 -0.425,-0.393 -0.801,-0.402 -0.628,-0.016 -1.172,0.309 -1.818,0.246 -0.76,-0.072 -1.258,-0.32 -1.753,-0.891 -0.369,-0.426 -1.396,-1.018 -1.958,-0.623 -2.074,1.453 2.958,5.523 3.755,6.588 0.304,0.406 0.714,0.422 1.178,0.506 0.766,0.141 1.011,0.996 1.36,1.561 0.269,0.432 0.81,1.518 1.272,1.713 0.806,0.34 0.493,1.121 0.717,1.84 0.21,0.676 0.907,0.506 1.426,0.867 0.331,0.229 0.653,0.475 0.979,0.711 0.4,0.289 0.809,0.588 1.154,0.943 0.485,0.5 0.021,0.555 0.169,1.111 0.177,0.664 0.465,1.307 0.646,1.979 0.192,0.713 0.702,1.457 0.651,2.209 -0.054,0.793 0.561,0.307 0.862,0.662 0.493,0.582 1.217,0.447 1.352,1.398 0.175,1.242 1.81,2.047 2.088,3.35 0.039,0.186 -0.271,0.207 -0.124,0.408 0.2,0.271 0.377,0.559 0.528,0.859 0.345,0.684 1.06,1.582 1.086,2.355 0.025,0.75 0.007,1.225 0.468,1.875 0.348,0.488 0.879,0.834 1.171,1.361 0.348,0.627 0.529,1.262 1.082,1.76 0.548,0.494 1.314,0.826 1.649,1.52 0.331,0.686 0.272,1.088 0.906,1.609 0.642,0.527 1.211,1.129 1.825,1.688 0.532,0.484 1.049,0.939 1.688,1.273 0.637,0.332 0.722,0.578 1.036,1.145 0.166,0.301 0.385,0.582 0.596,0.854 0.182,0.193 0.378,0.371 0.589,0.531 0.131,0.117 -0.026,0.248 0.139,0.363 0.117,0.084 1.174,1.461 1.18,0.732 0.003,-0.428 -0.403,-0.752 -0.447,-1.174 -0.062,-0.592 0.869,0.172 0.98,0.271 0.791,0.701 1.563,0.705 1.469,-0.627 0.493,0.426 0.826,1.293 1.526,1.43 0.42,0.082 0.404,-1.188 0.414,-1.402 0.037,-0.826 0.16,-1.646 0.222,-2.471 0.032,-0.441 0.317,-1.064 0.12,-1.486 -0.15,-0.326 -0.256,-0.512 -0.152,-0.861 0.127,-0.426 0.472,-0.996 0.417,-1.451 -0.04,-0.336 -0.419,-0.352 -0.332,-0.807 0.075,-0.396 0.317,-0.74 0.517,-1.082 0.214,-0.367 0.383,-0.523 0.302,-0.982 -0.078,-0.436 -0.437,-0.258 -0.682,-0.514 -0.333,-0.35 -0.865,-1.514 -0.666,-1.967 -0.385,-0.062 -2.23,-0.549 -2.382,-0.16 -0.058,-0.113 -0.11,-0.229 -0.159,-0.348 -0.403,0.502 -0.456,1.207 -1.051,1.557 0.176,-0.258 0.983,-1.141 0.19,-1.146 0.429,-0.174 0.94,-0.549 0.869,-1.074 -0.053,-0.396 -0.47,-0.26 -0.717,-0.408 -0.252,-0.152 -0.392,-0.807 -0.448,-1.061 -0.168,-0.744 -0.347,-1.451 -0.439,-2.215 -0.059,-0.469 -1.434,-0.52 -1.837,-0.426 -0.317,0.074 -0.925,-0.553 -1.155,-0.746 -0.392,-0.324 -0.234,-1.008 -0.401,-1.469 0.176,0.213 0.438,0.254 0.666,0.092 -0.09,-0.367 -0.445,-0.416 -0.763,-0.441 0.257,-0.018 0.448,-0.201 0.512,-0.445 -0.215,-0.014 -0.428,0.008 -0.636,0.062 0.375,-0.109 0.597,-0.441 0.871,-0.689 0.212,-0.191 0.764,-0.135 0.893,-0.35 0.211,-0.354 -0.566,-1.123 -0.77,-1.352 -0.563,-0.633 -0.982,-0.58 -1.632,-0.117 -0.504,0.355 -1.776,1.258 -2.317,0.539 1.125,0.646 3.29,-1.35 1.239,-1.812 -0.326,-0.074 -0.663,0.068 -0.983,-0.062 -0.362,-0.146 -0.516,-0.559 -0.809,-0.791 -0.603,-0.477 -0.265,-1.459 -0.923,-1.965 -0.243,-0.188 -0.495,-0.479 -0.759,-0.629 -0.279,-0.162 -0.651,-0.023 -0.962,-0.186 -0.503,-0.262 -0.463,-1.041 -0.787,-1.469 -0.159,-0.211 -1.295,-1.32 -1.544,-0.658 -0.185,0.492 0.415,1.121 0.476,1.6 -0.207,-0.211 -0.267,-0.494 -0.435,-0.73 -0.278,-0.387 -0.787,-0.445 -1.123,-0.762 -0.556,-0.523 -0.612,-1.361 -1.143,-1.906 -0.152,0.207 -0.183,0.428 -0.093,0.668 -0.089,-0.16 -0.64,-1.242 -0.445,-0.381 -0.357,-0.41 0.175,-0.922 -0.365,-1.275 -0.49,-0.318 -0.87,-0.877 -1.351,-1.234 -0.555,-0.412 -1.001,-1.076 -1.644,-1.355 -0.229,-0.1 -0.474,-0.152 -0.7,-0.256 -0.392,-0.18 -0.332,-0.469 -0.587,-0.738 -0.333,-0.354 -0.924,-0.375 -1.261,-0.699 -0.424,-0.408 0.14,-1.121 -0.312,-1.49 -0.545,-0.445 -0.649,-0.451 -0.889,-1.15 -0.205,-0.599 -1.216,-1.392 -1.69,-1.812 z" />
      <path
         style="fill:#aaaaaa"
         inkscape:connector-curvature="0"
         id="path2208"
         d="m 591.962,455.884 c 0.659,0.705 0.887,-1.26 0.595,-1.658 -0.346,-0.469 -0.896,-1.355 -1.44,-1.59 -0.403,-0.176 -0.634,0.393 -1.061,0.135 0.067,0.592 0.593,1.029 0.846,1.539 0.157,0.316 0.523,0.426 0.708,0.719 0.166,0.265 0.197,0.584 0.352,0.855 z" />
      <path
         style="fill:#aaaaaa"
         inkscape:connector-curvature="0"
         id="path2210"
         d="m 590.723,450.421 c -0.005,-0.316 -0.239,-0.84 -0.635,-0.539 0.239,0.147 0.451,0.328 0.635,0.539 z" />
      <path
         style="fill:#aaaaaa"
         inkscape:connector-curvature="0"
         id="path2212"
         d="m 594.694,460.046 c 0.084,-0.281 -0.025,-0.559 -0.256,-0.732 -0.175,0.238 -0.304,0.605 -0.372,0.893 -0.091,0.382 0.755,0.396 0.628,-0.161 z" />
      <path
         style="fill:#aaaaaa"
         inkscape:connector-curvature="0"
         id="path2214"
         d="m 594.119,458.238 c 0.166,0.471 0.415,0.902 0.667,1.332 0.108,-0.352 -0.171,-1.389 -0.667,-1.332 z" />
      <path
         style="fill:#aaaaaa"
         inkscape:connector-curvature="0"
         id="path2216"
         d="m 594.916,452.041 c 0.047,-0.248 -0.06,-0.248 -0.318,0 0.105,0 0.212,0 0.318,0 z" />
      <path
         style="fill:#aaaaaa"
         inkscape:connector-curvature="0"
         id="path2218"
         d="m 595.74,457.888 c -0.086,-0.42 -0.75,-0.352 -0.983,-0.127 0.295,0.196 0.648,0.219 0.983,0.127 z" />
      <path
         style="fill:#aaaaaa"
         inkscape:connector-curvature="0"
         id="path2220"
         d="m 596.727,465.128 c 1.318,-0.186 -0.735,-2.756 -0.701,-3.365 -0.217,0.117 -0.584,0.061 -0.737,0.275 -0.221,0.309 -0.361,0.904 -0.127,1.236 0.445,0.628 0.703,1.669 1.565,1.854 z" />
      <path
         style="fill:#aaaaaa"
         inkscape:connector-curvature="0"
         id="path2222"
         d="m 599.17,467.32 c -0.082,-0.34 -0.516,-1.537 -0.982,-1.219 -0.516,0.354 0.748,1.078 0.982,1.219 z" />
      <path
         style="fill:#aaaaaa"
         inkscape:connector-curvature="0"
         id="path2224"
         d="m 599.618,468.847 c 0.101,0.377 0.539,0.203 0.673,-0.037 0.201,-0.357 -0.455,-0.896 -0.708,-1.043 -0.134,0.363 0.104,0.713 0.035,1.08 z" />
      <path
         style="fill:#aaaaaa"
         inkscape:connector-curvature="0"
         id="path2226"
         d="m 601.109,470.974 c 0.014,-0.244 -0.212,-0.426 -0.169,-0.664 0.056,-0.309 0.238,-0.236 0.146,-0.543 -0.066,-0.223 -0.341,-0.916 -0.682,-0.787 -0.508,0.193 0.461,1.791 0.705,1.994 z" />
      <path
         style="fill:#aaaaaa"
         inkscape:connector-curvature="0"
         id="path2228"
         d="m 605.685,450.833 c -0.132,-0.629 -1.008,-0.822 -1.233,-0.143 -0.125,0.379 0.114,0.916 0.532,1 0.502,0.102 0.519,-0.565 0.701,-0.857 z" />
      <path
         style="fill:#aaaaaa"
         inkscape:connector-curvature="0"
         id="path2232"
         d="m 608.034,452.486 c -0.473,-0.201 -1.019,-0.172 -1.464,-0.445 -0.088,0.465 0.306,0.678 0.694,0.748 0.381,0.07 0.586,0.422 0.862,0.65 10e-4,-0.32 0.03,-0.647 -0.092,-0.953 z" />
      <path
         style="fill:#aaaaaa"
         inkscape:connector-curvature="0"
         id="path2234"
         d="m 608.097,453.662 c -0.194,-0.33 -0.479,-0.701 -0.888,-0.762 -0.105,0.58 -0.049,1.619 0.697,1.746 0.117,-0.318 0.06,-0.666 0.191,-0.984 z" />
      <path
         style="fill:#aaaaaa"
         inkscape:connector-curvature="0"
         id="path2236"
         d="m 610.033,455.25 c -0.22,-0.418 -0.647,-0.703 -1.092,-0.832 -0.247,-0.072 -0.473,-0.428 -0.633,-0.457 -0.187,-0.037 -0.354,1.02 -0.127,1.17 0.521,0.35 1.274,-0.01 1.789,0.438 0.021,-0.107 0.042,-0.214 0.063,-0.319 z" />
      <path
         style="fill:#aaaaaa"
         inkscape:connector-curvature="0"
         id="path2238"
         d="m 610.418,454.994 c -0.135,-0.545 -1.862,-1.596 -1.623,-0.635 0.662,-0.295 0.948,0.849 1.623,0.635 z" />
      <path
         style="fill:#aaaaaa"
         inkscape:connector-curvature="0"
         id="path2240"
         d="m 610.863,456.013 c -0.047,-0.227 -0.186,-0.355 -0.414,-0.385 -0.16,0.238 -0.13,0.451 0.093,0.635 0.117,-0.07 0.224,-0.154 0.321,-0.25 z" />
      <path
         style="fill:#aaaaaa"
         inkscape:connector-curvature="0"
         id="path2242"
         d="m 611.303,454.328 c -0.089,-0.127 -0.205,-0.223 -0.349,-0.285 -0.038,0.267 0.094,0.374 0.349,0.285 z" />
      <path
         style="fill:#aaaaaa"
         inkscape:connector-curvature="0"
         id="path2244"
         d="m 611.561,455.439 c -0.078,-0.25 -0.271,-0.416 -0.542,-0.316 0.009,0.266 0.167,0.492 0.383,0.635 0.053,-0.106 0.106,-0.212 0.159,-0.319 z" />
      <path
         style="fill:#aaaaaa"
         inkscape:connector-curvature="0"
         id="path2248"
         d="m 612.292,459.283 c -0.231,-0.158 -1.094,-0.066 -0.742,0.346 0.215,0.251 0.704,-0.102 0.742,-0.346 z" />
      <path
         style="fill:#aaaaaa"
         inkscape:connector-curvature="0"
         id="path2252"
         d="m 613.021,454.708 c 0.091,-0.332 -0.025,-0.396 -0.349,-0.189 0.116,0.063 0.232,0.125 0.349,0.189 z" />
      <path
         style="fill:#aaaaaa"
         inkscape:connector-curvature="0"
         id="path2256"
         d="m 613.718,453.916 c -0.229,-0.531 -0.666,0.07 -0.666,0.387 0,0.376 0.713,-0.026 0.666,-0.387 z" />
      <path
         style="fill:#aaaaaa"
         inkscape:connector-curvature="0"
         id="path2258"
         d="m 613.814,455.218 c 0.174,-0.316 0.088,-0.422 -0.256,-0.316 0.086,0.105 0.171,0.211 0.256,0.316 z" />
      <path
         style="fill:#aaaaaa"
         inkscape:connector-curvature="0"
         id="path2262"
         d="m 615.464,454.328 c -0.455,-1.109 -1.726,-0.066 -1.195,0.131 0.354,0.131 0.512,-0.209 0.626,0.377 0.114,0.589 0.582,-0.26 0.569,-0.508 z" />
      <path
         style="fill:#aaaaaa"
         inkscape:connector-curvature="0"
         id="path2264"
         d="m 614.163,455.568 c -0.003,-0.123 -0.034,-0.24 -0.093,-0.35 0.032,0.117 0.062,0.233 0.093,0.35 z" />
      <path
         style="fill:#aaaaaa"
         inkscape:connector-curvature="0"
         id="path2266"
         d="m 614.863,459.57 c -0.152,0.121 -0.451,0.182 -0.635,0.242 -0.353,0.113 0.24,0.811 0.282,0.998 0.023,-0.318 0.186,-0.418 0.445,-0.221 0.086,-0.379 0.363,-0.752 -0.092,-1.019 z" />
      <path
         style="fill:#aaaaaa"
         inkscape:connector-curvature="0"
         id="path2268"
         d="m 614.676,457.634 c -0.182,0.199 -0.108,0.314 0.221,0.348 -0.075,-0.117 -0.147,-0.232 -0.221,-0.348 z" />
      <path
         style="fill:#aaaaaa"
         inkscape:connector-curvature="0"
         id="path2270"
         d="m 614.987,458.238 c 0.046,0.227 -0.354,1.061 0.126,1 0.269,-0.035 0.431,-0.182 0.698,-0.045 0.274,0.139 0.506,0.361 0.831,0.188 -0.168,-0.268 -1.341,-1.174 -1.655,-1.143 z" />
      <path
         style="fill:#aaaaaa"
         inkscape:connector-curvature="0"
         id="path2272"
         d="m 615.305,455.312 c -0.11,-0.006 -0.216,0.016 -0.317,0.066 0.106,-0.021 0.211,-0.045 0.317,-0.066 z" />
      <path
         style="fill:#aaaaaa"
         inkscape:connector-curvature="0"
         id="path2274"
         d="m 615.115,457.443 c -0.143,0.311 0.319,0.561 0.512,0.668 -0.161,-0.231 -0.332,-0.451 -0.512,-0.668 z" />
      <path
         style="fill:#aaaaaa"
         inkscape:connector-curvature="0"
         id="path2282"
         d="m 617.754,464.81 c 0.373,0.512 -0.571,0.742 -0.763,1.082 0.39,0.316 0.688,0.574 1.211,0.381 0.353,-0.129 0.938,0.172 1.038,0.535 0.09,0.32 0.335,0.703 0.387,0.986 0.121,0.648 -0.261,0.92 0.478,1.324 0.317,0.174 1.753,1.277 2.098,0.965 0.342,-0.312 -0.183,-0.457 -0.286,-0.715 -0.165,-0.408 0.336,-1.145 0.731,-1.223 -0.503,-0.303 -1.192,-0.156 -1.654,-0.539 -0.426,-0.352 -0.577,-1.225 -0.53,-1.744 0.027,-0.309 -0.181,-1.307 -0.388,-1.561 -0.582,-0.717 -1.336,0.107 -0.799,0.764 -0.227,0.032 -1.477,-1.696 -1.523,-0.255 z" />
      <path
         style="fill:#aaaaaa"
         inkscape:connector-curvature="0"
         id="path2286"
         d="m 622.615,469.324 c -0.095,0.031 -0.19,0.061 -0.286,0.092 0.065,0.264 0.265,0.377 0.508,0.227 -0.062,-0.116 -0.136,-0.222 -0.222,-0.319 z" />
      <path
         style="fill:#aaaaaa"
         inkscape:connector-curvature="0"
         id="path2290"
         d="m 624.841,469.037 c -0.147,0.055 -0.275,0.139 -0.384,0.252 0.248,0.119 0.394,0.023 0.384,-0.252 z" />
      <path
         style="fill:#aaaaaa"
         inkscape:connector-curvature="0"
         id="path2292"
         d="m 625.629,468.017 c -0.419,0.426 -0.518,1.164 -0.472,1.727 0.048,0.602 0.938,0.918 0.79,0.277 0.262,0.016 0.652,0.742 0.911,0.486 0.355,-0.35 0.719,-1.059 0.66,-1.574 -0.084,-0.752 -1.278,-1.039 -1.889,-0.916 z" />
      <path
         style="fill:#aaaaaa"
         inkscape:connector-curvature="0"
         id="path2294"
         d="m 626.649,443.56 c 0.273,0.045 0.521,0.201 0.697,0.412 -0.258,-0.162 -0.429,-0.027 -0.446,0.254 0.789,0.113 1.013,-0.678 0.706,-1.275 -0.544,-1.059 -1.218,-0.219 -0.957,0.609 z" />
      <path
         style="fill:#aaaaaa"
         inkscape:connector-curvature="0"
         id="path2298"
         d="m 628.935,464.81 c 0.133,0.014 0.261,-0.008 0.384,-0.061 -0.134,-0.013 -0.262,0.008 -0.384,0.061 z" />
      <path
         style="fill:#aaaaaa"
         inkscape:connector-curvature="0"
         id="path2302"
         d="m 629.918,464.242 c -0.179,-0.143 -0.358,-0.143 -0.539,0 0.074,0.125 0.17,0.23 0.287,0.316 0.097,-0.096 0.181,-0.201 0.252,-0.316 z" />
      <path
         style="fill:#aaaaaa"
         inkscape:connector-curvature="0"
         id="path2306"
         d="m 632.616,462.208 c -0.498,-0.707 -1.512,0.4 -0.887,1.016 0.299,-0.299 1.087,-0.435 0.887,-1.016 z" />
      <path
         style="fill:#aaaaaa"
         inkscape:connector-curvature="0"
         id="path2324"
         d="m 654.412,470.783 c -1.151,-0.482 -0.782,2.443 -0.542,2.828 0.303,-0.5 0.629,-0.348 0.585,-1.033 -0.034,-0.537 -0.253,-1.282 -0.043,-1.795 z" />
      <path
         style="fill:#aaaaaa"
         inkscape:connector-curvature="0"
         id="path2326"
         d="m 654.919,471.259 c -0.358,0.066 -0.329,0.449 -0.097,0.637 0.051,-0.209 0.084,-0.422 0.097,-0.637 z" />
      <path
         style="fill:#aaaaaa"
         inkscape:connector-curvature="0"
         id="path2332"
         d="m 658.315,445.529 c -0.069,0.291 0.037,0.322 0.317,0.096 -0.105,-0.032 -0.21,-0.063 -0.317,-0.096 z" />
      <path
         style="fill:#aaaaaa"
         inkscape:connector-curvature="0"
         id="path2334"
         d="m 658.701,445.15 c -0.139,0.307 0.155,0.576 0.41,0.668 0.021,-0.287 0.028,-0.77 -0.41,-0.668 z" />
      <path
         style="fill:#aaaaaa"
         inkscape:connector-curvature="0"
         id="path2336"
         d="m 658.791,442.607 c -0.006,0.273 0.169,0.457 0.446,0.318 -0.033,-0.256 -0.191,-0.379 -0.446,-0.318 z" />
      <path
         style="fill:#aaaaaa"
         inkscape:connector-curvature="0"
         id="path2338"
         d="m 658.919,459.666 c -0.1,0.092 -0.142,0.209 -0.128,0.35 0.042,-0.118 0.085,-0.233 0.128,-0.35 z" />
      <path
         style="fill:#aaaaaa"
         inkscape:connector-curvature="0"
         id="path2340"
         d="m 659.463,444.609 c 0.012,0.229 0.128,0.377 0.349,0.445 0.007,-0.232 -0.133,-0.385 -0.349,-0.445 z" />
      <path
         style="fill:#aaaaaa"
         inkscape:connector-curvature="0"
         id="path2344"
         d="m 662.225,449.404 c 0.023,0.229 0.129,0.408 0.318,0.541 -0.097,-0.186 -0.202,-0.365 -0.318,-0.541 z" />
      <path
         style="fill:#aaaaaa"
         inkscape:connector-curvature="0"
         id="path2554"
         d="m 629.728,454.933 c 0.412,-0.277 0.132,-0.566 0.221,-0.939 0.114,-0.482 0.816,-0.514 0.892,-1.064 -0.146,0.24 -0.325,0.453 -0.538,0.635 -0.388,-0.568 0.093,-1.131 0.457,-1.553 0.239,-0.275 0.31,-0.533 0.434,-0.865 0.16,-0.428 0.711,-0.527 1.015,-0.82 -0.059,0.393 -0.577,0.873 0.015,1.109 0.084,0.035 0.297,0.963 0.463,1.143 0.486,0.531 1.36,0.947 1.673,1.623 0.12,0.262 0.66,0.488 0.92,0.623 0.485,0.252 1.171,-0.246 1.591,-0.432 0.834,-0.373 1.627,0.119 2.515,0.033 0.355,-0.035 0.678,-0.309 0.991,-0.475 0.468,-0.252 0.336,-0.863 0.69,-1.248 0.369,-0.402 2.247,-0.811 2.537,-0.195 0.277,0.586 1.991,1.145 2.539,0.807 0.474,-0.293 0.575,-0.758 1.218,-0.537 0.315,0.109 0.566,-0.15 0.838,-0.258 0.225,-0.09 0.487,0.201 0.718,0.189 -0.124,-0.611 1.173,-1.943 0.816,-2.338 -0.614,-0.682 0.765,-1.551 1.279,-1.729 -0.303,-0.371 -0.869,-1.744 0.071,-1.857 1.181,-0.143 0.296,-0.873 0.972,-1.52 0.261,-0.25 -0.075,-1.27 -0.035,-1.699 0.037,-0.396 0.14,-0.9 0.318,-1.258 0.154,-0.309 0.471,-0.455 0.549,-0.812 0.624,0.232 0.78,0.355 1.445,0.07 0.228,-0.098 0.785,0.742 0.84,-0.135 0.432,0.416 1.246,0.312 1.784,0.264 0.689,-0.064 1.109,0.686 1.775,0.627 -0.2,0.141 -0.423,0.227 -0.666,0.254 0.12,0.104 1.314,1.098 0.507,0.699 0.164,0.115 0.588,0.191 0.672,0.385 0.082,0.191 0.077,0.385 0.312,0.473 -0.381,0.486 -1.002,0.182 -1.174,-0.318 0.078,0.215 0.109,0.438 0.093,0.666 -0.343,-0.211 -0.943,-0.189 -1.302,-0.031 0.454,0.176 0.688,0.643 1.179,0.764 -0.125,0.25 -0.183,0.801 -0.604,0.604 0.311,0.404 0.774,0.572 1.239,0.73 -0.386,0.439 0.361,0.484 -0.256,0.57 0.214,0.01 0.415,0.062 0.604,0.16 -0.63,0.172 0.161,0.529 0.4,0.824 0.274,0.338 0.517,0.707 0.742,1.078 0.284,0.467 -0.313,1.387 -0.859,1.369 0.355,0.125 0.182,0.48 0.459,0.711 0.4,0.332 0.8,0.676 1.217,0.986 0.336,0.25 0.534,0.68 0.927,0.82 0.526,0.189 0.896,0.725 1.244,1.135 0.147,0.174 0.53,0.037 0.263,0.455 -0.33,0.516 -0.868,0.26 -1.323,0.49 -0.756,0.383 -1.647,-0.67 -2.243,-0.912 0.274,0.402 0.491,0.912 -0.152,0.947 -0.584,0.033 -0.769,0.924 -0.918,1.361 -0.396,1.17 -0.588,2.508 -0.519,3.729 0.168,-0.193 0.38,-0.301 0.635,-0.318 -0.081,0.262 -0.502,0.574 -0.189,0.697 -0.301,0.186 -0.301,0.449 0,0.635 -0.413,0.115 -0.872,0.609 -0.983,0.031 -0.128,0.818 -1.651,2.547 -1.875,0.891 -0.32,0.58 0.222,1.033 -0.432,1.486 -0.301,0.209 -0.152,0.535 -0.363,0.799 -0.244,0.307 -0.697,0.297 -0.922,0.635 0.999,-0.379 0.668,1.012 0.19,1.369 0.246,0.242 0.751,-0.094 0.959,0.156 0.201,0.244 -0.204,1.188 -0.355,1.4 -0.174,-0.205 -0.386,-0.258 -0.635,-0.158 0.625,0.541 -0.193,2.273 -0.635,1.395 -0.119,0.385 0.204,0.717 0.414,0.986 -0.874,0.16 -0.604,1.488 -1.341,1.787 -0.806,0.326 -1.62,0.869 -2.439,1.23 -0.216,0.096 -1.918,1.25 -1.846,0.6 0.043,-0.395 -0.004,-0.828 0.015,-1.23 0.026,-0.572 -0.345,-1.049 -0.203,-1.627 -0.646,0.633 -1.087,0.395 -0.635,-0.477 -0.293,0.494 -0.941,0.812 -0.795,-0.062 -0.068,0.465 -1.294,1.545 -1.651,0.828 -0.124,-0.248 0.218,-0.438 -0.019,-0.697 -0.436,-0.479 -0.9,0.387 -1.029,-0.258 0.143,0.734 -0.802,-0.574 -0.892,-0.893 0.005,0.666 -0.711,1.406 -1.276,1.695 -0.588,0.301 -1.103,-0.545 -1.673,-0.135 -0.207,0.15 -1.009,1.301 -1.164,0.555 -0.188,-0.91 0.119,-1.723 -0.365,-2.621 -0.381,0.984 -0.513,0.525 -1.241,0.506 -0.307,-0.01 -0.558,0.256 -0.795,0.406 -0.451,0.285 -0.747,0.029 -1.202,-0.053 0.146,-0.16 0.306,-0.309 0.477,-0.445 -0.369,0.055 -0.489,0.533 -0.892,0.477 0.169,-0.967 -0.806,-0.432 -1.204,-0.129 -0.463,-0.578 -0.094,-1.535 -0.297,-2.203 -0.139,-0.451 -0.055,-0.932 -0.138,-1.393 -0.07,-0.389 -0.678,-0.699 -0.638,-1.041 0.009,-0.08 0.344,-0.49 0.384,-0.609 0.142,-0.424 0.22,-0.793 -0.041,-1.184 -0.179,-0.268 -0.216,-0.557 -0.367,-0.812 -0.186,-0.312 -0.58,-0.428 -0.559,-0.857 -0.091,0.111 -0.187,0.217 -0.286,0.318 -0.337,-0.65 -0.694,-0.053 -1.154,-0.33 -0.26,-0.158 -0.095,-0.447 0.02,-0.625 0.115,-0.18 0.542,0.027 0.689,0.033 -0.248,-0.139 -0.396,-0.477 -0.671,-0.545 -0.204,-0.053 -0.468,-0.014 -0.602,-0.219 -0.188,-0.287 -0.298,-1.459 0.288,-1.107 -0.152,-0.41 -0.404,-0.904 0.098,-0.953 -0.424,-0.559 -0.987,-1.045 -1.137,-1.758 -0.066,-0.297 -0.341,-1.262 -0.073,-1.514 z" />
      <path
         style="fill:#aaaaaa"
         inkscape:connector-curvature="0"
         id="path2556"
         d="m 657.587,444.798 c 0.01,-0.074 0.021,-0.148 0.03,-0.223 0.34,0.049 0.654,0.189 0.953,0.35 -0.334,0.061 -0.669,-0.017 -0.983,-0.127 z" />
      <path
         style="fill:#aaaaaa"
         inkscape:connector-curvature="0"
         id="path2558"
         d="m 659.05,442.353 c 0.386,-0.053 0.89,-0.125 0.794,0.443 -0.368,0.079 -0.553,-0.252 -0.794,-0.443 z" />
      <path
         style="fill:#aaaaaa"
         inkscape:connector-curvature="0"
         id="path2564"
         d="m 714.319,481.265 c 0.022,0.264 0.128,0.484 0.317,0.668 -0.086,-0.152 0.065,-1.074 0.133,-1.283 0.171,-0.533 -0.39,-0.258 -0.229,-0.721 0.433,0.217 0.711,-0.492 0.893,-0.75 0.312,-0.441 0.723,0.506 0.717,0.744 -0.015,0.627 -0.056,1.301 -0.091,1.928 -0.058,0.982 -0.792,0.533 -1.294,0.178 0.648,0.771 -1.684,-0.834 -0.446,-0.764 z" />
      <path
         style="fill:#aaaaaa"
         inkscape:connector-curvature="0"
         id="path2566"
         d="m 715.082,482.25 c 0.132,0.088 0.547,0.625 0.273,0.754 -0.443,0.21 -0.743,-0.643 -0.273,-0.754 z" />
    </g>
  </g>
</svg>
