<?xml version="1.0" encoding="UTF-8" standalone="no"?>
<!-- Created with Inkscape (http://www.inkscape.org/) -->

<svg
   xmlns:dc="http://purl.org/dc/elements/1.1/"
   xmlns:cc="http://creativecommons.org/ns#"
   xmlns:rdf="http://www.w3.org/1999/02/22-rdf-syntax-ns#"
   xmlns:svg="http://www.w3.org/2000/svg"
   xmlns="http://www.w3.org/2000/svg"
   xmlns:sodipodi="http://sodipodi.sourceforge.net/DTD/sodipodi-0.dtd"
   xmlns:inkscape="http://www.inkscape.org/namespaces/inkscape"
   width="8.3067951mm"
   height="4.0761428mm"
   viewBox="0 0 8.3067947 4.0761421"
   version="1.1"
   id="svg7070"
   inkscape:version="0.92.4 (5da689c313, 2019-01-14)"
   sodipodi:docname="kyrgyzstan.svg">
  <defs
     id="defs7064" />
  <sodipodi:namedview
     id="base"
     pagecolor="#ffffff"
     bordercolor="#666666"
     borderopacity="1.0"
     inkscape:pageopacity="0.0"
     inkscape:pageshadow="2"
     inkscape:zoom="7.9195959"
     inkscape:cx="26.531117"
     inkscape:cy="-11.503198"
     inkscape:document-units="mm"
     inkscape:current-layer="layer1"
     showgrid="false"
     inkscape:window-width="958"
     inkscape:window-height="1008"
     inkscape:window-x="-7"
     inkscape:window-y="0"
     inkscape:window-maximized="0" />
  <metadata
     id="metadata7067">
    <rdf:RDF>
      <cc:Work
         rdf:about="">
        <dc:format>image/svg+xml</dc:format>
        <dc:type
           rdf:resource="http://purl.org/dc/dcmitype/StillImage" />
        <dc:title></dc:title>
      </cc:Work>
    </rdf:RDF>
  </metadata>
  <g
     inkscape:label="Layer 1"
     inkscape:groupmode="layer"
     id="layer1"
     transform="translate(-155.49575,-28.349059)">
    <path
       style="fill:#aaaaaa;stroke-width:0.26458332"
       inkscape:connector-curvature="0"
       id="kg"
       d="m 155.59536,31.534698 c 0.17251,-0.114035 0.38127,-0.144198 0.57653,-0.08493 0.0598,0.01826 0.37729,0.119856 0.25479,0.227806 0.1405,-0.0098 0.13547,-0.160602 0.23919,-0.22225 0.15478,-0.09155 0.26193,-0.215371 0.44741,-0.135202 0.0481,0.0209 0.0918,0.0717 0.13758,0.08837 0.073,0.02646 0.0624,-0.106362 0.1307,0.0026 0.04,0.06403 0.17463,-0.04736 0.25533,-0.04472 -0.25215,-0.134143 0.23627,-0.162983 0.28601,-0.159808 -0.0328,-0.0635 -0.0672,-0.118269 -0.0595,-0.193146 0.13917,0.06006 0.24289,0.09525 0.31697,-0.06853 0.0183,-0.03995 0.25215,-0.114829 0.16404,-0.168275 -0.0458,-0.02778 -0.20373,-0.0418 -0.26114,-0.04075 -0.1913,0.004 -0.30639,-0.249502 -0.51276,-0.125941 -0.008,-0.210873 -0.13256,-0.118005 -0.25109,-0.223044 -0.12277,-0.108215 -0.2802,-0.211138 -0.34661,-0.331788 0.0127,0.06985 0.05,0.16219 0.014,0.230982 -0.0246,0.03731 -0.0601,0.05556 -0.10609,0.05477 0.022,0.04763 0.022,0.09525 0,0.142875 -0.14791,-0.138906 -0.46117,0.03466 -0.5551,-0.198173 -0.0497,-0.123295 -0.10504,-0.137054 -0.22648,-0.100277 -0.0987,0.0299 -0.21035,-0.09419 -0.31089,-0.09657 0.0418,-0.28522 0.52308,-0.508 0.70618,-0.680773 -0.24765,-0.128058 -0.40693,0.0074 -0.26565,-0.308768 0.0376,-0.08361 0.001,-0.147109 0.0968,-0.201877 0.0995,-0.05689 0.23204,-0.02487 0.31697,-0.08123 0.17833,-0.118269 0.62706,0.04948 0.80698,0.105568 0.0632,0.01402 0.12065,0.04022 0.17251,0.07885 0.10557,0.07805 0.15584,0.0418 0.27543,0.0545 0.11853,0.01244 0.22939,0.159015 0.35348,0.11774 -0.12223,-0.115094 -0.23415,-0.538692 -0.0497,-0.639763 0.0447,-0.02461 0.4019,-0.110066 0.3601,-0.183885 0.24474,0.08043 0.48789,0.210079 0.71808,0.325173 0.0892,0.04445 0.50086,0.1905 0.61039,0.137054 0.0836,-0.04128 0.0109,-0.142875 0.12621,-0.142875 0.16748,0 0.33787,0.0635 0.50482,0.0418 0.12198,-0.01588 0.23575,-0.07541 0.35984,-0.07541 0.13044,0 0.24103,0.09684 0.37385,0.05689 0.11854,-0.03545 0.25559,0.0016 0.37333,0.02222 0.15319,0.02699 0.30083,-0.0032 0.45456,0.0066 0.25558,0.0164 0.63314,0.11086 0.83264,0.275696 0.086,0.07064 0.12065,0.165629 0.2495,0.160866 0.11007,-0.0042 0.17833,-0.0019 0.27305,0.05265 0.11853,0.068 0.30824,0.173566 0.36433,0.306652 0.0164,0.03889 -0.31168,0.150018 -0.37518,0.202935 -0.20478,0.170127 -0.52361,0.245269 -0.753,0.39714 -0.10636,0.07038 -0.15399,0.121708 -0.17939,0.244475 -0.0222,0.107685 -0.068,0.202935 -0.19341,0.1905 -0.12435,-0.01244 -0.22595,0.07541 -0.35163,0.06323 -0.13758,-0.01297 -0.2667,-0.04577 -0.40614,-0.04366 -0.18388,0.0029 -0.23071,0.23151 -0.24553,0.389996 -0.0325,0.352689 -0.23759,0.206639 -0.48842,0.318293 -0.23707,0.105834 -0.21484,-0.163248 -0.34078,-0.261673 -0.0704,-0.05477 -0.16299,0.04339 -0.21617,0.07488 -0.12488,0.07408 -0.245,0.04974 -0.38047,0.0217 -0.0124,0.05821 -0.007,0.114036 0.0175,0.168275 -0.10927,0.0029 -0.17594,0.107686 -0.24632,0.175155 -0.10504,0.100012 -0.26379,0.03863 -0.35137,0.160866 -0.12462,0.173567 0.21537,0.413544 -0.0109,0.526786 -0.10107,0.0508 -0.21563,-0.0336 -0.31353,0.03466 -0.11271,0.07885 -0.24818,0.08678 -0.38047,0.07329 -0.17013,-0.0172 -0.4781,-0.07514 -0.5043,0.171979 -0.0495,-0.059 -0.1217,-0.114565 -0.19129,-0.146579 -0.0862,-0.03995 -0.14817,0.08202 -0.20981,0.04815 -0.0664,-0.03625 -0.0318,-0.143934 -0.0865,-0.161925 -0.0453,0.004 -0.09,0.0016 -0.13415,-0.0069 -0.0511,-0.03281 -0.0638,-0.09287 -0.11086,-0.125942 -0.12938,-0.09075 -0.33152,0.183356 -0.45614,0.184944 -0.0998,0.0011 -0.15769,-0.01931 -0.20955,-0.106098 -0.0826,-0.137848 -0.24685,-0.06429 -0.35877,-0.0217 -0.003,-0.03096 -0.006,-0.06138 -0.008,-0.0926 -0.0754,0.04551 -0.27517,0.110331 -0.35798,0.06059 -0.11801,-0.07091 -0.23072,0.08043 -0.35401,0.01799 -0.13812,-0.06985 -0.15611,-0.544512 0.006,-0.372533 0.005,-0.05662 -0.001,-0.112713 -0.0156,-0.168011 z" />
  </g>
</svg>
