<?xml version="1.0" encoding="UTF-8" standalone="no"?>
<!-- Created with Inkscape (http://www.inkscape.org/) -->

<svg
   xmlns:dc="http://purl.org/dc/elements/1.1/"
   xmlns:cc="http://creativecommons.org/ns#"
   xmlns:rdf="http://www.w3.org/1999/02/22-rdf-syntax-ns#"
   xmlns:svg="http://www.w3.org/2000/svg"
   xmlns="http://www.w3.org/2000/svg"
   xmlns:sodipodi="http://sodipodi.sourceforge.net/DTD/sodipodi-0.dtd"
   xmlns:inkscape="http://www.inkscape.org/namespaces/inkscape"
   width="6.6698456mm"
   height="3.5388021mm"
   viewBox="0 0 6.6698439 3.5388025"
   version="1.1"
   id="svg7070"
   inkscape:version="0.92.4 (5da689c313, 2019-01-14)"
   sodipodi:docname="new_caledonia.svg">
  <defs
     id="defs7064" />
  <sodipodi:namedview
     id="base"
     pagecolor="#ffffff"
     bordercolor="#666666"
     borderopacity="1.0"
     inkscape:pageopacity="0.0"
     inkscape:pageshadow="2"
     inkscape:zoom="5.6"
     inkscape:cx="10.608196"
     inkscape:cy="13.329092"
     inkscape:document-units="mm"
     inkscape:current-layer="layer1"
     showgrid="false"
     inkscape:window-width="958"
     inkscape:window-height="1008"
     inkscape:window-x="-7"
     inkscape:window-y="0"
     inkscape:window-maximized="0" />
  <metadata
     id="metadata7067">
    <rdf:RDF>
      <cc:Work
         rdf:about="">
        <dc:format>image/svg+xml</dc:format>
        <dc:type
           rdf:resource="http://purl.org/dc/dcmitype/StillImage" />
        <dc:title />
      </cc:Work>
    </rdf:RDF>
  </metadata>
  <g
     inkscape:label="Layer 1"
     inkscape:groupmode="layer"
     id="layer1"
     transform="translate(-178.98776,-25.600228)">
    <g
       transform="matrix(0.26458333,0,0,0.26458333,-30.947773,-115.00491)"
       id="nc"
       style="fill:#ffffff">
      <path
         style="fill:#ffffff"
         inkscape:connector-curvature="0"
         id="path2568"
         d="m 806.848,537.234 c 0.359,0.447 0.517,1.115 1.024,1.434 0.215,0.135 0.142,0.479 0.24,0.676 0.146,0.293 0.604,0.385 0.674,0.717 0.117,0.561 0.819,0.725 1.161,1.064 0.505,0.506 1.01,0.721 1.634,1.031 -0.418,0.398 0.351,1.168 0.764,0.764 -0.146,0.195 -0.107,0.277 -0.098,0.508 0.412,-0.771 0.704,0.291 1.103,0.197 0.536,-0.129 1.108,-0.148 0.77,-0.938 -0.145,-0.336 -0.442,-0.371 -0.698,-0.58 -0.327,-0.266 -0.512,-0.666 -0.768,-0.992 -0.486,-0.623 -1.273,-0.852 -1.8,-1.402 -0.416,-0.436 -0.628,-0.873 -0.85,-1.426 -0.288,-0.717 -0.421,-0.611 -1.023,-1.055 -0.536,-0.393 -0.717,-1.158 -1.304,-1.49 -0.25,-0.143 -0.496,0.002 -0.748,-0.1 -0.336,-0.135 -0.443,-0.518 -0.748,-0.695 0.157,0.283 0.269,0.637 0.341,0.951 0.051,0.227 -0.086,0.385 0.016,0.621 0.106,0.246 0.278,0.438 0.31,0.715 z" />
      <path
         style="fill:#ffffff"
         inkscape:connector-curvature="0"
         id="path2570"
         d="m 813.932,537.33 c 0.482,-0.189 0.358,-0.609 0.573,-0.988 -0.218,0.316 -0.288,0.714 -0.573,0.988 z" />
      <path
         style="fill:#ffffff"
         inkscape:connector-curvature="0"
         id="path2572"
         d="m 815.36,544.796 c 0.086,-0.098 0.159,-0.203 0.221,-0.318 -0.363,-0.279 -0.611,0.184 -0.221,0.318 z" />
      <path
         style="fill:#ffffff"
         inkscape:connector-curvature="0"
         id="path2574"
         d="m 816.381,539.111 c 0.381,-0.303 0.222,-2.057 -0.512,-1.811 0.618,0.424 -0.142,0.436 -0.251,0.789 -0.17,0.549 0.506,0.684 0.763,1.022 z" />
      <path
         style="fill:#ffffff"
         inkscape:connector-curvature="0"
         id="path2576"
         d="m 817.999,540.917 c 0.404,0.014 0.582,-0.404 0.667,-0.727 -0.374,0.102 -0.342,-0.369 -0.638,-0.379 -0.61,-0.017 -0.274,0.897 -0.029,1.106 z" />
      <path
         style="fill:#ffffff"
         inkscape:connector-curvature="0"
         id="path3370"
         d="m 793.474,532.089 c 0.124,-0.209 0.209,-0.43 0.257,-0.668 -0.172,0.161 -0.326,0.422 -0.257,0.668 z" />
    </g>
  </g>
</svg>
