<?xml version="1.0" encoding="UTF-8" standalone="no"?>
<!-- Created with Inkscape (http://www.inkscape.org/) -->

<svg
   xmlns:dc="http://purl.org/dc/elements/1.1/"
   xmlns:cc="http://creativecommons.org/ns#"
   xmlns:rdf="http://www.w3.org/1999/02/22-rdf-syntax-ns#"
   xmlns:svg="http://www.w3.org/2000/svg"
   xmlns="http://www.w3.org/2000/svg"
   xmlns:sodipodi="http://sodipodi.sourceforge.net/DTD/sodipodi-0.dtd"
   xmlns:inkscape="http://www.inkscape.org/namespaces/inkscape"
   width="7.5768929mm"
   height="4.553678mm"
   viewBox="0 0 7.5768922 4.5536786"
   version="1.1"
   id="svg7070"
   inkscape:version="0.92.4 (5da689c313, 2019-01-14)"
   sodipodi:docname="romania.svg">
  <defs
     id="defs7064" />
  <sodipodi:namedview
     id="base"
     pagecolor="#ffffff"
     bordercolor="#666666"
     borderopacity="1.0"
     inkscape:pageopacity="0.0"
     inkscape:pageshadow="2"
     inkscape:zoom="7.9195959"
     inkscape:cx="22.782857"
     inkscape:cy="-11.552046"
     inkscape:document-units="mm"
     inkscape:current-layer="layer1"
     showgrid="false"
     inkscape:window-width="958"
     inkscape:window-height="1008"
     inkscape:window-x="-7"
     inkscape:window-y="0"
     inkscape:window-maximized="0" />
  <metadata
     id="metadata7067">
    <rdf:RDF>
      <cc:Work
         rdf:about="">
        <dc:format>image/svg+xml</dc:format>
        <dc:type
           rdf:resource="http://purl.org/dc/dcmitype/StillImage" />
        <dc:title></dc:title>
      </cc:Work>
    </rdf:RDF>
  </metadata>
  <g
     inkscape:label="Layer 1"
     inkscape:groupmode="layer"
     id="layer1"
     transform="translate(-156.99524,-41.753105)">
    <path
       inkscape:connector-curvature="0"
       style="fill:#aaaaaa;stroke-width:0.26458332"
       d="m 156.99582,43.850943 c 0.0915,-0.06244 0.16113,-0.05715 0.25321,-0.03334 0.0894,0.02302 0.095,-0.0926 0.16721,-0.11774 0.0794,-0.02752 0.1651,-0.0074 0.24474,-0.03254 0.11536,-0.03625 0.0931,-0.175684 0.14738,-0.261938 0.0513,-0.08228 0.12117,-0.151077 0.17938,-0.2286 0.0744,-0.09948 0.0651,-0.188648 0.13177,-0.278606 0.059,-0.07937 0.12752,-0.172508 0.1598,-0.267494 0.0376,-0.110331 -0.006,-0.16166 0.0722,-0.203729 0.0775,-0.04127 0.10028,-0.06906 0.15399,-0.137583 0.0841,-0.107157 0.2376,-0.03096 0.3384,-0.115359 0.0828,-0.06985 0.1405,-0.167481 0.23204,-0.227541 0.12674,-0.08308 0.26988,0.02196 0.39952,0.03889 0.12357,0.01614 0.24554,0.04207 0.36936,0.05477 0.14764,0.01508 0.33444,-0.05001 0.46779,0.03572 0.25214,0.162719 0.27543,0.260879 0.51011,0.03704 0.14685,-0.14023 0.45271,-0.06879 0.63818,-0.100013 0.1225,-0.02064 0.11377,-0.0971 0.18362,-0.174625 0.0754,-0.08334 0.2204,-0.09287 0.32411,-0.08096 0.23178,0.02646 0.35005,0.261672 0.44715,0.445558 0.10795,0.203994 0.25956,0.381794 0.42439,0.540014 0.24024,0.230982 0.3519,0.401109 0.44847,0.718609 0.0354,0.115887 -0.0341,0.233891 -0.0601,0.343694 -0.0299,0.126206 0.0259,0.260085 0.0354,0.38735 0.0159,0.211666 0.0675,0.297656 0.23442,0.415395 0.064,0.04524 0.34449,0.242623 0.33788,0.0418 0.2077,0.08202 0.58711,-0.344223 0.7022,0.01244 0.127,0.394229 -0.11985,0.553508 -0.49186,0.550598 0.0455,-0.03678 0.0847,-0.257969 -0.0122,-0.254529 -0.11562,0.004 -0.0535,0.270669 -0.13864,0.338666 0.0553,-0.01296 0.11139,-0.02143 0.16801,-0.02513 -0.0847,0.03704 -0.23574,0.04842 -0.13388,0.159544 0.0299,-0.02593 0.0579,-0.05398 0.0836,-0.08387 -0.036,0.132821 -0.17833,0.205846 -0.20188,0.344487 -0.0251,0.147902 0.0923,0.354807 -0.005,0.492919 -0.0561,0.08043 -0.2913,-0.0093 -0.35216,-0.03598 -0.086,-0.03784 -0.13732,-0.09472 -0.18494,-0.174625 -0.0299,-0.05001 -0.0598,0.02328 -0.0968,0.01164 -0.29078,-0.08969 -0.52546,-0.204787 -0.83,-0.143404 -0.18097,0.03625 -0.38497,0.05107 -0.53869,0.163777 -0.15055,0.110332 -0.25188,0.266436 -0.45085,0.294482 -0.19367,0.02752 -0.38391,-0.04683 -0.57573,-0.06244 -0.0796,-0.0066 -0.15796,-0.04313 -0.23866,-0.03387 -0.10927,0.01217 -0.16801,0.0725 -0.28707,0.04524 -0.20743,-0.04763 -0.40852,-0.141817 -0.62362,-0.150019 -0.10927,-0.0042 -0.3564,0.115623 -0.43101,-0.0042 -0.11165,-0.178329 0.26644,-0.173038 -0.0743,-0.327554 -0.1053,-0.04789 -0.21669,-0.130175 -0.25638,-0.24474 -0.0365,-0.104775 0.15664,-0.0979 0.21273,-0.125148 -0.063,-0.07752 -0.20823,-0.153987 -0.31036,-0.117739 -0.0701,0.02487 -0.11747,0.198173 -0.20135,0.179916 -0.0839,-0.01799 -0.17489,-0.156633 -0.28204,-0.187325 -0.11615,-0.0336 -0.25215,-0.05239 -0.34052,-0.143668 0.0971,-0.02831 0.11986,-0.153194 0,-0.168011 0.11165,-0.105039 0.0807,-0.178329 -0.0516,-0.224896 -0.17833,-0.06244 -0.34264,-0.167216 -0.49663,-0.270933 0.13732,-0.273579 -0.24421,-0.438944 -0.40137,-0.614363 z"
       id="ro" />
  </g>
</svg>
