<?xml version="1.0" encoding="UTF-8" standalone="no"?>
<!-- Created with Inkscape (http://www.inkscape.org/) -->

<svg
   xmlns:dc="http://purl.org/dc/elements/1.1/"
   xmlns:cc="http://creativecommons.org/ns#"
   xmlns:rdf="http://www.w3.org/1999/02/22-rdf-syntax-ns#"
   xmlns:svg="http://www.w3.org/2000/svg"
   xmlns="http://www.w3.org/2000/svg"
   xmlns:sodipodi="http://sodipodi.sourceforge.net/DTD/sodipodi-0.dtd"
   xmlns:inkscape="http://www.inkscape.org/namespaces/inkscape"
   width="3.4050989mm"
   height="7.1625543mm"
   viewBox="0 0 3.405099 7.1625521"
   version="1.1"
   id="svg7070"
   inkscape:version="0.92.4 (5da689c313, 2019-01-14)"
   sodipodi:docname="tunisia.svg">
  <defs
     id="defs7064" />
  <sodipodi:namedview
     id="base"
     pagecolor="#ffffff"
     bordercolor="#666666"
     borderopacity="1.0"
     inkscape:pageopacity="0.0"
     inkscape:pageshadow="2"
     inkscape:zoom="7.9195959"
     inkscape:cx="28.695443"
     inkscape:cy="-15.817227"
     inkscape:document-units="mm"
     inkscape:current-layer="layer1"
     showgrid="false"
     inkscape:window-width="958"
     inkscape:window-height="1008"
     inkscape:window-x="-7"
     inkscape:window-y="0"
     inkscape:window-maximized="0" />
  <metadata
     id="metadata7067">
    <rdf:RDF>
      <cc:Work
         rdf:about="">
        <dc:format>image/svg+xml</dc:format>
        <dc:type
           rdf:resource="http://purl.org/dc/dcmitype/StillImage" />
        <dc:title></dc:title>
      </cc:Work>
    </rdf:RDF>
  </metadata>
  <g
     inkscape:label="Layer 1"
     inkscape:groupmode="layer"
     id="layer1"
     transform="translate(-154.24155,-30.897787)">
    <g
       transform="matrix(0.26458333,0,0,0.26458333,77.950713,-52.64782)"
       id="tn">
      <path
         style="fill:#aaaaaa"
         inkscape:connector-curvature="0"
         id="path5410"
         d="m 288.354,328.255 c 0.076,-0.374 0.426,-0.517 0.698,-0.724 0.423,-0.322 0.385,-0.738 0.927,-0.966 0.511,-0.215 0.713,-0.763 0.819,-1.265 0.083,-0.392 0.564,-1.266 0.426,-1.646 -0.141,-0.389 -0.321,-0.337 -0.17,-0.959 0.136,-0.561 -0.35,-1.066 -0.273,-1.638 0.086,-0.65 0.808,-1.886 -0.234,-2.11 0.375,-0.432 0.984,-0.653 1.273,-1.166 0.107,-0.189 0.038,-0.514 0.298,-0.588 0.285,-0.082 0.464,-10e-4 0.69,-0.241 0.494,-0.521 1.008,-0.753 1.7,-0.951 0.322,-0.092 0.763,-0.334 1.105,-0.197 0.406,0.163 10e-4,0.359 0.045,0.666 0.338,0 0.419,-0.169 0.221,-0.445 0.621,0.136 0.798,0.041 1.05,0.604 0.111,0.248 -0.234,0.271 0.101,0.508 0.256,0.18 0.297,0.494 0.059,0.7 0.019,-0.021 0.285,0.292 0.557,0.181 0.369,-0.152 0.68,-0.453 0.981,-0.707 0.117,-0.099 0.523,-0.536 0.715,-0.45 0.455,0.207 0.395,0.656 0.188,1.029 -0.395,0.716 -1.747,1.402 -1.792,2.217 -0.034,0.611 0.328,1.349 0.88,1.646 0.836,0.45 0.809,0.472 1.008,1.431 0.25,1.208 -0.594,2.464 -1.521,3.196 -0.922,0.729 -2.333,1.139 -1.419,2.554 0.201,0.311 0.469,0.604 0.812,0.76 0.382,0.174 0.538,-0.065 0.889,-0.017 0.116,0.017 0.188,0.582 0.259,0.702 0.174,0.291 0.656,-0.568 0.92,-0.473 0.359,0.131 0.117,0.424 0.225,0.667 0.15,0.338 0.669,0.646 0.128,0.698 0.284,0.305 0.905,-0.03 1.171,0.319 0.222,0.293 -0.145,1.43 -0.064,1.856 0.119,0.641 0.462,0.937 -0.254,1.354 -0.566,0.328 -1.436,0.433 -1.793,1.032 -0.129,0.215 -0.413,0.25 -0.596,0.396 -0.236,0.188 -0.154,0.557 -0.443,0.764 -0.633,0.453 -1.37,0.706 -1.129,1.684 0.211,0.856 0.551,1.525 0.056,2.363 -0.577,0.978 -1.083,1.352 -2.096,1.795 -0.242,-1.594 -0.684,-3.133 -1.012,-4.707 -0.325,-1.555 -0.45,-2.444 -1.828,-3.341 -0.617,-0.401 -0.893,-0.75 -1.055,-1.465 -0.142,-0.629 -0.427,-1.174 -0.998,-1.51 -0.286,-0.168 -0.64,-0.244 -0.83,-0.545 -0.194,-0.307 -0.058,-0.697 -0.242,-1.015 -0.368,-0.631 -0.504,-1.27 -0.452,-1.996 z" />
      <path
         style="fill:#aaaaaa"
         inkscape:connector-curvature="0"
         id="path5412"
         d="m 299.058,329.842 c -0.052,-0.422 -0.344,-0.079 -0.441,-0.285 -0.236,-0.505 -0.004,-0.667 0.422,-0.661 0.933,0.011 0.349,0.569 0.019,0.946 z" />
    </g>
  </g>
</svg>
