<?xml version="1.0" encoding="UTF-8" standalone="no"?>
<!-- Created with Inkscape (http://www.inkscape.org/) -->

<svg
   xmlns:dc="http://purl.org/dc/elements/1.1/"
   xmlns:cc="http://creativecommons.org/ns#"
   xmlns:rdf="http://www.w3.org/1999/02/22-rdf-syntax-ns#"
   xmlns:svg="http://www.w3.org/2000/svg"
   xmlns="http://www.w3.org/2000/svg"
   xmlns:sodipodi="http://sodipodi.sourceforge.net/DTD/sodipodi-0.dtd"
   xmlns:inkscape="http://www.inkscape.org/namespaces/inkscape"
   width="14.897755mm"
   height="8.3242569mm"
   viewBox="0 0 14.897754 8.3242554"
   version="1.1"
   id="svg7070"
   inkscape:version="0.92.4 (5da689c313, 2019-01-14)"
   sodipodi:docname="uzbekistan.svg">
  <defs
     id="defs7064" />
  <sodipodi:namedview
     id="base"
     pagecolor="#ffffff"
     bordercolor="#666666"
     borderopacity="1.0"
     inkscape:pageopacity="0.0"
     inkscape:pageshadow="2"
     inkscape:zoom="7.9195959"
     inkscape:cx="37.854804"
     inkscape:cy="-0.51832277"
     inkscape:document-units="mm"
     inkscape:current-layer="layer1"
     showgrid="false"
     inkscape:window-width="958"
     inkscape:window-height="1008"
     inkscape:window-x="-7"
     inkscape:window-y="0"
     inkscape:window-maximized="0" />
  <metadata
     id="metadata7067">
    <rdf:RDF>
      <cc:Work
         rdf:about="">
        <dc:format>image/svg+xml</dc:format>
        <dc:type
           rdf:resource="http://purl.org/dc/dcmitype/StillImage" />
        <dc:title></dc:title>
      </cc:Work>
    </rdf:RDF>
  </metadata>
  <g
     inkscape:label="Layer 1"
     inkscape:groupmode="layer"
     id="layer1"
     transform="translate(-152.49969,-27.00736)">
    <g
       transform="matrix(0.26458333,0,0,0.26458333,37.335561,-48.337945)"
       id="uz">
      <path
         style="fill:#aaaaaa"
         inkscape:connector-curvature="0"
         id="path3470"
         d="m 435.266,286.77 c 1.659,-0.614 3.375,-1.053 5.075,-1.539 0.609,-0.174 1.458,-0.232 2.055,-0.444 0.654,-0.233 -0.792,1.938 0.145,3.17 0.036,0.047 0.121,0.76 0.292,1.076 0.171,0.316 0.42,0.273 0.495,0.271 l 1.57,-0.056 c 0.264,-0.038 0.288,0.351 0.384,0.569 0.057,0.13 0.479,0.28 0.589,0.822 0.033,0.167 0.173,-0.255 0.278,-0.408 0.132,-0.189 2.358,-0.043 2.313,0.01 0.606,-0.452 1.007,-1.095 1.004,-2.02 0.132,0.036 0.443,0.096 0.557,0.152 1.274,0.629 2.392,1.959 3.42,2.928 0.417,0.394 0.883,0.85 1.442,1.031 0.66,0.213 1.586,-0.214 2.244,-0.332 1.724,-0.311 3.562,0.547 5.229,0.129 0.432,-0.108 0.836,-0.796 1.319,-0.528 0.612,0.338 1,0.943 1.646,1.266 0.634,0.316 0.835,0.767 1.293,1.271 0.479,0.526 0.684,0.309 1.306,0.253 0.138,0.966 -0.02,2.929 0.89,3.562 0.449,0.312 1.049,-0.062 1.39,0.52 0.395,0.672 0.542,1.472 0.887,2.168 0.679,1.369 2.68,0.41 3.854,0.45 0.691,0.024 1.137,0.58 1.069,1.206 -0.102,0.936 1.353,0.85 1.917,1.02 -0.047,-0.357 -0.663,-0.896 -0.304,-1.25 0.33,-0.326 0.334,-0.715 0.82,-0.909 0.405,-0.162 -0.002,-0.597 0.228,-0.853 0.292,-0.326 1.017,-0.699 1.396,-0.965 0.449,-0.314 1.006,-0.31 1.318,-0.806 0.146,-0.233 0.359,-0.735 0.662,-0.806 0.467,-0.109 0.481,0.213 0.922,-0.241 0.487,-0.503 0.939,-0.513 1.53,-0.207 -0.681,0.642 -2.519,1.552 -2.669,2.573 0.397,0.009 0.641,0.371 1.02,0.413 0.44,0.048 0.706,-0.431 0.95,0.177 0.413,1.024 1.551,0.328 2.16,0.903 0.083,-0.18 0.083,-0.359 0,-0.541 0.175,0.003 0.309,-0.065 0.401,-0.206 0.137,-0.261 -0.005,-0.61 -0.053,-0.873 0.28,0.51 0.713,0.584 1.139,1.076 0.433,0.502 1.091,0.212 1.12,1.021 0.782,-0.47 1.077,0.435 1.737,0.502 0.162,0.017 0.498,-0.135 0.56,0.066 0.041,0.133 0.445,-0.05 0.63,0.062 0.313,0.189 -0.429,0.464 -0.536,0.544 -0.592,0.442 -0.445,0.71 -1.283,0.35 -0.029,0.283 0.102,0.49 0.226,0.73 -0.189,-0.013 -2.035,0.097 -1.081,0.604 -0.267,-0.009 -0.536,0.135 -0.782,0.215 -0.243,0.079 -0.23,-0.166 -0.492,-0.047 -0.237,0.107 -0.537,-0.272 -0.738,-0.334 -0.444,-0.133 -0.883,-0.011 -1.305,0.14 -0.919,0.326 -1.032,-0.141 -1.859,-0.418 -0.772,-0.26 0.933,-1.124 0.845,-1.404 -0.031,-0.1 -0.275,-0.015 -0.335,-0.121 -0.241,-0.425 -0.609,-0.722 -0.989,-1.016 -0.211,0.396 -1.546,1.77 -2.084,1.406 -0.365,-0.248 -1.039,-0.758 -1.227,0.026 -0.083,0.348 0.296,1.487 0.58,1.711 -0.676,0.279 -1.572,-0.427 -2.158,0.19 0.347,0.278 0.89,-0.16 1.112,0.318 -0.147,-0.021 -0.296,-0.032 -0.445,-0.031 0.038,0.261 0.199,0.488 0.414,0.635 -0.352,-0.334 -0.416,-0.303 -0.193,0.096 -0.2,-0.01 -0.491,-0.002 -0.451,0.274 0.07,0.487 0.146,1.009 -0.542,1.021 -0.66,0.01 -1.285,-0.305 -1.927,-0.278 -0.312,0.012 -0.532,0.16 -0.772,0.339 -0.362,0.271 -0.156,0.248 -0.198,0.648 -0.054,0.486 0.175,0.647 0.635,0.78 0.521,0.15 0.417,0.521 0.9,0.612 0.35,0.065 1.121,-0.053 1.28,0.387 0.101,0.275 -0.144,0.517 -0.149,0.788 -0.006,0.313 0.139,0.635 0.311,0.889 0.26,0.386 0.759,0.552 0.983,0.958 0.35,0.633 -0.38,1.113 -0.576,1.642 -0.25,0.677 -0.462,1.057 -0.318,1.787 0.118,0.607 -0.483,0.225 -0.772,0.149 -0.586,-0.153 -0.71,0.305 -1.293,-0.022 -0.248,-0.139 -0.486,-0.341 -0.77,-0.407 -0.336,-0.079 -0.633,0.127 -0.964,0.068 -0.518,-0.09 -0.469,-0.65 -0.614,-1.211 -0.132,-0.51 0.491,-1.172 -0.209,-1.361 -0.44,-0.12 -0.781,-0.177 -1.178,-0.435 -0.677,-0.44 -1.17,-0.292 -1.909,-0.427 -0.772,-0.141 -1.391,-0.78 -2.026,-1.187 -0.608,-0.388 -1.26,-0.586 -1.837,-1.036 -0.547,-0.425 -1.21,-0.366 -1.749,-0.744 -0.677,-0.475 -1.396,-0.896 -2.08,-1.369 -1.059,-0.73 -3.295,-1.483 -3.836,-2.719 -0.509,-1.16 -1.406,-1.832 -1.979,-2.982 -0.31,-0.621 -0.689,-1.027 -1.337,-1.311 -0.172,-0.074 -0.473,-0.238 -0.666,-0.19 -0.275,0.068 -0.089,0.428 -0.415,0.461 -0.651,0.065 -1.307,-0.308 -2.01,-0.252 -0.555,0.044 -1.041,-0.212 -1.533,-0.437 -0.365,-0.168 -0.875,-1.733 -0.33,-1.646 -0.201,-0.532 -0.839,-0.365 -0.873,-1.034 -0.035,-0.673 -0.454,-0.91 -1.115,-0.9 -0.314,0.005 -1.278,0.105 -1.403,-0.308 -0.191,-0.625 -0.836,-0.432 -1.283,-0.717 -0.213,-0.137 -0.745,-0.801 -1.041,-0.569 -0.362,0.284 -0.295,0.264 -0.817,0.17 -0.842,-0.151 0.752,1.282 0.908,1.453 -0.423,-0.1 -0.399,-0.577 -0.899,-0.597 -0.265,-0.01 -1.104,-0.375 -0.966,0.219 0.287,1.239 -1.202,0.567 -1.743,1.125 -0.78,0.8 -0.759,1.04 -0.341,2.079 0.134,0.332 0.618,0.648 0.365,0.967 -0.166,0.21 -1.028,0.021 -1.271,0.021 -0.983,0.004 -2.126,0.207 -2.268,-0.943 -0.184,-1.488 -0.626,-2.981 -0.96,-4.442 -0.324,-1.412 -0.653,-2.822 -0.961,-4.238 -0.313,-1.408 -0.416,-2.995 -0.901,-4.352 z" />
      <path
         style="fill:#aaaaaa"
         inkscape:connector-curvature="0"
         id="path7148"
         d="m 445.524,286.109 c 0.11,0.488 -0.022,1.39 -0.446,1.715 -0.024,-0.073 -0.045,-0.147 -0.062,-0.222 -0.119,0.395 0.367,0.701 0.385,1.08 -0.297,-0.563 -0.04,0.053 -0.574,-0.318 -0.142,0.324 0.229,0.916 -0.465,0.716 -0.066,-0.019 -0.902,-1.115 -0.902,-1.225 0,-0.235 0.7,0.277 0.785,0.312 0.368,0.151 -0.178,-1.201 -0.401,-0.535 -0.171,-0.307 -0.079,-1.009 0.379,-1.017 -0.113,-0.103 -1.032,0.307 -0.902,0.017 0.117,-0.263 0.463,-0.236 0.224,-0.607 -0.181,-0.279 -0.485,-0.805 -0.274,-1.156 m 2.253,1.24 z" />
    </g>
  </g>
</svg>
