<?xml version="1.0" encoding="UTF-8" standalone="no"?>
<!-- Created with Inkscape (http://www.inkscape.org/) -->

<svg
   xmlns:dc="http://purl.org/dc/elements/1.1/"
   xmlns:cc="http://creativecommons.org/ns#"
   xmlns:rdf="http://www.w3.org/1999/02/22-rdf-syntax-ns#"
   xmlns:svg="http://www.w3.org/2000/svg"
   xmlns="http://www.w3.org/2000/svg"
   xmlns:sodipodi="http://sodipodi.sourceforge.net/DTD/sodipodi-0.dtd"
   xmlns:inkscape="http://www.inkscape.org/namespaces/inkscape"
   width="7.084836mm"
   height="4.7328668mm"
   viewBox="0 0 7.084836 4.7328668"
   version="1.1"
   id="svg8"
   inkscape:version="0.92.4 (5da689c313, 2019-01-14)"
   sodipodi:docname="algeria.svg">
  <defs
     id="defs2" />
  <sodipodi:namedview
     id="base"
     pagecolor="#ffffff"
     bordercolor="#666666"
     borderopacity="1.0"
     inkscape:pageopacity="0.0"
     inkscape:pageshadow="2"
     inkscape:zoom="11.2"
     inkscape:cx="15.160557"
     inkscape:cy="1.6941572"
     inkscape:document-units="mm"
     inkscape:current-layer="layer1"
     showgrid="false"
     inkscape:window-width="954"
     inkscape:window-height="630"
     inkscape:window-x="-3"
     inkscape:window-y="6"
     inkscape:window-maximized="0" />
  <metadata
     id="metadata5">
    <rdf:RDF>
      <cc:Work
         rdf:about="">
        <dc:format>image/svg+xml</dc:format>
        <dc:type
           rdf:resource="http://purl.org/dc/dcmitype/StillImage" />
        <dc:title></dc:title>
      </cc:Work>
    </rdf:RDF>
  </metadata>
  <g
     inkscape:label="Layer 1"
     inkscape:groupmode="layer"
     id="layer1"
     transform="translate(-85.33145,-104.63781)">
    <g
       id="g10958"
       transform="matrix(0.35277777,0,0,-0.35277777,85.360731,109.3414)">
      <path
         d="M 0,0 H 19.917 V 13.251 H 0 Z M 19.958,-0.042 V 0 Z M -0.083,-0.083 V 13.333 H 20 V -0.042 -0.083 Z"
         style="fill:#221f21;fill-opacity:1;fill-rule:nonzero;stroke:none"
         id="path10960"
         inkscape:connector-curvature="0" />
    </g>
    <path
       d="m 85.346093,109.35621 h 3.52778 v -4.70358 h -3.52778 z"
       style="fill:#36863f;fill-opacity:1;fill-rule:nonzero;stroke:none;stroke-width:0.35277778"
       id="path10962"
       inkscape:connector-curvature="0" />
    <path
       d="m 92.401654,104.65227 h -3.527781 v 4.70359 h 3.527781 z"
       style="fill:#ffffff;fill-opacity:1;fill-rule:nonzero;stroke:none;stroke-width:0.35277778"
       id="path10964"
       inkscape:connector-curvature="0" />
    <g
       id="g10966"
       transform="matrix(0.35277777,0,0,-0.35277777,89.572342,106.43994)">
      <path
         d="m 0,0 -0.048,-1.222 1.149,-0.422 -1.178,-0.334 -0.047,-1.221 -0.679,1.016 -1.177,-0.332 0.757,0.96 -0.682,1.017 1.149,-0.423 z"
         style="fill:#e22225;fill-opacity:1;fill-rule:nonzero;stroke:none"
         id="path10968"
         inkscape:connector-curvature="0" />
    </g>
    <g
       id="g10970"
       transform="matrix(0.35277777,0,0,-0.35277777,89.128442,108.06998)">
      <path
         d="m 0,0 c -1.669,0 -3.021,1.352 -3.021,3.021 0,1.668 1.352,3.021 3.021,3.021 0.955,0 1.806,-0.445 2.359,-1.138 -0.628,1.002 -1.74,1.671 -3.01,1.671 -1.962,0 -3.554,-1.591 -3.554,-3.554 0,-1.963 1.592,-3.554 3.554,-3.554 1.27,0 2.382,0.668 3.01,1.67 C 1.806,0.445 0.955,0 0,0"
         style="fill:#e22225;fill-opacity:1;fill-rule:nonzero;stroke:none"
         id="path10972"
         inkscape:connector-curvature="0" />
    </g>
  </g>
</svg>
