<?xml version="1.0" encoding="UTF-8" standalone="no"?>
<!-- Created with Inkscape (http://www.inkscape.org/) -->

<svg
   xmlns:dc="http://purl.org/dc/elements/1.1/"
   xmlns:cc="http://creativecommons.org/ns#"
   xmlns:rdf="http://www.w3.org/1999/02/22-rdf-syntax-ns#"
   xmlns:svg="http://www.w3.org/2000/svg"
   xmlns="http://www.w3.org/2000/svg"
   xmlns:sodipodi="http://sodipodi.sourceforge.net/DTD/sodipodi-0.dtd"
   xmlns:inkscape="http://www.inkscape.org/namespaces/inkscape"
   width="7.084836mm"
   height="4.7328668mm"
   viewBox="0 0 7.084836 4.7328668"
   version="1.1"
   id="svg8"
   inkscape:version="0.92.4 (5da689c313, 2019-01-14)"
   sodipodi:docname="andorra.svg">
  <defs
     id="defs2" />
  <sodipodi:namedview
     id="base"
     pagecolor="#ffffff"
     bordercolor="#666666"
     borderopacity="1.0"
     inkscape:pageopacity="0.0"
     inkscape:pageshadow="2"
     inkscape:zoom="11.2"
     inkscape:cx="15.944921"
     inkscape:cy="13.80646"
     inkscape:document-units="mm"
     inkscape:current-layer="layer1"
     showgrid="false"
     inkscape:window-width="954"
     inkscape:window-height="630"
     inkscape:window-x="-3"
     inkscape:window-y="6"
     inkscape:window-maximized="0" />
  <metadata
     id="metadata5">
    <rdf:RDF>
      <cc:Work
         rdf:about="">
        <dc:format>image/svg+xml</dc:format>
        <dc:type
           rdf:resource="http://purl.org/dc/dcmitype/StillImage" />
        <dc:title></dc:title>
      </cc:Work>
    </rdf:RDF>
  </metadata>
  <g
     inkscape:label="Layer 1"
     inkscape:groupmode="layer"
     id="layer1"
     transform="translate(-83.371807,-103.53158)">
    <g
       id="g25968"
       transform="matrix(0.35277777,0,0,-0.35277777,83.401088,108.23517)">
      <path
         d="M 0,0 H 19.917 L 19.916,13.251 H 0 Z M 19.958,-0.042 V 0 Z M -0.083,-0.083 V 13.333 H 20 V -0.042 -0.083 Z"
         style="fill:#221f21;fill-opacity:1;fill-rule:nonzero;stroke:none"
         id="path25970"
         inkscape:connector-curvature="0" />
    </g>
    <path
       d="m 83.38655,108.24998 h 2.35197 v -4.70358 h -2.35197 z"
       style="fill:#3a2f86;fill-opacity:1;fill-rule:nonzero;stroke:none;stroke-width:0.35277778"
       id="path25972"
       inkscape:connector-curvature="0" />
    <path
       d="m 85.73817,108.24998 h 2.35197 v -4.70358 h -2.35197 z"
       style="fill:#ead22a;fill-opacity:1;fill-rule:nonzero;stroke:none;stroke-width:0.35277778"
       id="path25974"
       inkscape:connector-curvature="0" />
    <path
       d="m 90.44211,103.5464 h -2.35197 v 4.70358 h 2.35197 z"
       style="fill:#cb2046;fill-opacity:1;fill-rule:nonzero;stroke:none;stroke-width:0.35277778"
       id="path25976"
       inkscape:connector-curvature="0" />
    <g
       id="g25978"
       transform="matrix(0.35277777,0,0,-0.35277777,86.914228,106.99907)">
      <path
         d="m 0,0 c 0.092,0.036 0.154,0.122 0.209,0.2 l 0.156,-0.083 0.178,0.05 0.064,0.034 0.109,0.045 0.09,0.2 -0.09,0.208 0.189,0.084 0.256,0.048 C 1.334,0.806 1.508,0.812 1.682,0.813 1.874,0.81 2.069,0.839 2.245,0.92 2.416,0.998 2.563,1.134 2.646,1.304 2.762,1.534 2.758,1.829 2.613,2.047 L 2.706,2.083 2.795,2.22 C 2.815,2.329 2.762,2.458 2.655,2.502 L 2.483,2.499 C 2.41,2.563 2.369,2.654 2.343,2.747 2.316,2.851 2.307,2.969 2.36,3.066 L 2.542,3.099 2.618,3.216 2.59,3.38 2.736,3.481 C 2.857,3.602 2.92,3.772 2.924,3.941 V 3.996 C 2.917,4.105 2.888,4.215 2.829,4.31 2.774,4.398 2.692,4.471 2.596,4.512 2.491,4.558 2.373,4.567 2.26,4.555 L 2.149,4.549 2.057,4.635 2.055,4.775 c 0.026,0.094 0.093,0.17 0.174,0.222 0.09,0.055 0.162,0.145 0.187,0.249 L 2.395,5.414 2.344,5.472 2.3,5.554 2.162,5.628 2.073,5.719 1.826,5.776 1.729,5.824 1.558,5.819 1.428,5.83 1.35,5.794 C 1.239,5.775 1.155,5.667 1.158,5.557 L 1.202,5.426 0.976,5.412 0.805,5.435 0.737,5.533 0.796,5.699 0.84,5.854 C 0.852,5.945 0.829,6.042 0.772,6.113 0.708,6.193 0.606,6.239 0.504,6.242 L 0.299,6.166 C 0.25,6.121 0.161,6.034 0,6.034 c -0.162,0 -0.251,0.087 -0.3,0.132 L -0.505,6.242 C -0.607,6.239 -0.708,6.193 -0.772,6.113 -0.83,6.042 -0.853,5.945 -0.841,5.854 L -0.796,5.699 -0.738,5.533 -0.805,5.435 -0.977,5.412 -1.203,5.426 -1.158,5.557 c 0.003,0.11 -0.081,0.218 -0.192,0.237 L -1.428,5.83 -1.559,5.819 -1.73,5.824 -1.827,5.776 -2.073,5.719 -2.162,5.628 -2.301,5.554 -2.344,5.472 -2.396,5.414 -2.417,5.246 C -2.392,5.142 -2.32,5.052 -2.229,4.997 -2.149,4.945 -2.082,4.869 -2.056,4.775 L -2.058,4.635 -2.15,4.549 -2.261,4.554 C -2.373,4.567 -2.492,4.558 -2.597,4.512 -2.692,4.471 -2.774,4.398 -2.83,4.31 -2.888,4.215 -2.917,4.105 -2.925,3.996 V 3.941 c 0.004,-0.169 0.067,-0.339 0.189,-0.46 L -2.591,3.38 -2.617,3.216 -2.542,3.099 -2.361,3.066 C -2.308,2.969 -2.316,2.851 -2.343,2.747 -2.369,2.654 -2.41,2.563 -2.484,2.499 L -2.656,2.502 C -2.762,2.458 -2.816,2.329 -2.795,2.22 L -2.706,2.083 -2.613,2.047 C -2.759,1.829 -2.762,1.534 -2.646,1.304 c 0.082,-0.17 0.23,-0.306 0.401,-0.384 0.176,-0.081 0.371,-0.11 0.563,-0.107 0.174,-10e-4 0.347,-0.007 0.52,-0.027 l 0.257,-0.048 0.188,-0.084 -0.089,-0.208 0.089,-0.2 0.11,-0.045 0.064,-0.034 0.178,-0.05 L -0.21,0.2 C -0.155,0.122 -0.093,0.036 0,0"
         style="fill:#6a382a;fill-opacity:1;fill-rule:nonzero;stroke:none"
         id="path25980"
         inkscape:connector-curvature="0" />
    </g>
    <g
       id="g25982"
       transform="matrix(0.35277777,0,0,-0.35277777,86.914228,106.98407)">
      <path
         d="M 0,0 0.028,0.009 0.205,0.214 0.367,0.112 0.556,0.178 0.618,0.199 0.739,0.285 0.76,0.465 0.662,0.61 0.771,0.687 C 0.862,0.729 0.961,0.75 1.06,0.766 1.281,0.8 1.505,0.805 1.729,0.807 1.957,0.811 2.191,0.862 2.377,1 2.545,1.121 2.661,1.313 2.685,1.519 2.707,1.684 2.669,1.856 2.575,1.994 L 2.359,2.059 C 2.207,2.13 2.084,2.259 2.019,2.414 1.961,2.546 1.946,2.693 1.959,2.835 1.969,2.951 2.008,3.063 2.064,3.164 L 2.238,3.349 2.141,3.458 2.177,3.583 2.326,3.559 2.335,3.507 2.531,3.541 2.644,3.705 C 2.676,3.821 2.667,3.947 2.627,4.059 L 2.473,4.248 2.356,4.289 2.27,4.279 2.163,4.175 2.168,4.106 2.2,4.072 2.302,4.09 2.312,4.12 2.284,4.132 2.268,4.141 2.296,4.162 2.333,4.132 2.324,4.081 2.17,4.065 2.114,4.155 2.103,4.39 2.02,4.356 1.904,4.408 1.869,4.289 1.911,4.031 2.042,3.917 2.286,3.932 2.296,3.897 2.097,3.87 1.934,3.938 1.836,4.141 1.866,4.411 1.872,4.456 1.836,4.585 C 1.824,4.69 1.854,4.798 1.912,4.884 l 0.184,0.203 c 0.073,0.079 0.147,0.162 0.19,0.261 L 2.276,5.481 2.141,5.551 2.109,5.302 1.981,5.165 1.973,5.201 2.079,5.326 2.092,5.587 2.053,5.645 1.833,5.698 1.879,5.496 1.764,5.277 1.737,5.303 1.829,5.445 1.803,5.673 1.768,5.727 1.592,5.753 1.666,5.539 1.597,5.338 1.573,5.367 1.616,5.441 C 1.644,5.534 1.627,5.642 1.568,5.722 L 1.495,5.754 1.399,5.719 1.343,5.712 C 1.245,5.687 1.176,5.577 1.199,5.479 L 1.27,5.365 1.216,5.347 0.969,5.332 0.81,5.349 0.714,5.434 0.724,5.608 0.782,5.718 C 0.813,5.811 0.819,5.917 0.771,6.004 0.702,6.135 0.527,6.199 0.391,6.139 L 0.256,6.039 0,5.957 -0.257,6.039 -0.391,6.139 C -0.527,6.199 -0.702,6.135 -0.771,6.004 -0.819,5.917 -0.814,5.811 -0.783,5.718 l 0.059,-0.11 0.009,-0.174 -0.095,-0.085 -0.159,-0.017 -0.248,0.015 -0.052,0.018 0.07,0.114 c 0.022,0.098 -0.045,0.208 -0.145,0.233 L -1.4,5.719 -1.495,5.754 -1.568,5.722 C -1.627,5.642 -1.645,5.534 -1.616,5.441 L -1.574,5.367 -1.598,5.338 -1.666,5.539 -1.593,5.753 -1.769,5.727 -1.804,5.673 -1.83,5.445 -1.738,5.303 -1.764,5.277 -1.88,5.496 -1.833,5.698 -2.054,5.645 -2.092,5.587 -2.08,5.326 -1.973,5.201 -1.982,5.165 -2.109,5.302 -2.141,5.551 -2.277,5.481 -2.287,5.348 c 0.043,-0.099 0.118,-0.182 0.19,-0.261 L -1.912,4.884 C -1.854,4.798 -1.824,4.69 -1.836,4.585 L -1.872,4.456 -1.867,4.411 -1.836,4.141 -1.934,3.938 -2.098,3.87 -2.296,3.897 -2.286,3.932 -2.043,3.917 -1.912,4.031 -1.87,4.289 -1.905,4.408 -2.02,4.356 -2.104,4.39 -2.115,4.155 -2.17,4.065 -2.324,4.081 -2.333,4.132 -2.297,4.162 -2.269,4.141 -2.285,4.132 -2.313,4.12 -2.302,4.09 -2.2,4.072 -2.168,4.106 -2.164,4.175 -2.27,4.279 -2.357,4.289 -2.474,4.248 -2.627,4.059 C -2.668,3.947 -2.677,3.821 -2.644,3.705 l 0.112,-0.164 0.197,-0.034 0.009,0.052 0.149,0.024 0.035,-0.125 -0.097,-0.109 0.175,-0.185 C -2.009,3.063 -1.97,2.951 -1.96,2.835 -1.946,2.693 -1.962,2.546 -2.019,2.414 -2.085,2.259 -2.208,2.13 -2.359,2.059 L -2.576,1.994 C -2.67,1.856 -2.707,1.684 -2.686,1.519 -2.662,1.313 -2.546,1.121 -2.378,1 -2.192,0.862 -1.957,0.811 -1.729,0.807 -1.506,0.805 -1.281,0.8 -1.06,0.766 -0.962,0.75 -0.862,0.729 -0.771,0.687 L -0.663,0.61 -0.76,0.465 l 0.021,-0.18 0.12,-0.086 0.062,-0.021 0.189,-0.066 0.162,0.102 0.177,-0.205 z"
         style="fill:#c3b182;fill-opacity:1;fill-rule:nonzero;stroke:none"
         id="path25984"
         inkscape:connector-curvature="0" />
    </g>
    <g
       id="g25986"
       transform="matrix(0.35277777,0,0,-0.35277777,86.914228,105.00884)">
      <path
         d="M 0,0 0.252,0.089 0.341,0.168 0.429,0.188 0.437,0.139 0.472,0.126 0.467,0.203 0.39,0.228 0.26,0.146 0,0.032 -0.261,0.146 -0.39,0.228 -0.468,0.203 -0.473,0.126 l 0.035,0.013 0.008,0.049 0.088,-0.02 0.09,-0.079 z"
         style="fill:#6a382a;fill-opacity:1;fill-rule:nonzero;stroke:none"
         id="path25988"
         inkscape:connector-curvature="0" />
    </g>
    <g
       id="g25990"
       transform="matrix(0.35277777,0,0,-0.35277777,86.929537,105.06913)">
      <path
         d="M 0,0 0.023,0.001 0.048,-0.129 0.171,-0.209 0.25,-0.144 0.196,-0.057 0.173,-0.104 0.156,-0.078 0.208,-0.035 0.272,-0.113 0.227,-0.218 0.1,-0.215 Z"
         style="fill:#6a382a;fill-opacity:1;fill-rule:nonzero;stroke:none"
         id="path25992"
         inkscape:connector-curvature="0" />
    </g>
    <g
       id="g25994"
       transform="matrix(0.35277777,0,0,-0.35277777,86.914228,106.51022)">
      <path
         d="M 0,0 0.168,0.121 0.256,0.149 C 0.379,0.163 0.502,0.161 0.625,0.16 0.853,0.155 1.08,0.14 1.307,0.127 l 0.232,0.04 C 1.686,0.229 1.796,0.369 1.822,0.526 L 1.823,0.738 C 1.814,1.275 1.813,1.812 1.811,2.35 L 1.929,2.15 1.85,2.005 1.903,1.775 1.864,1.619 C 1.844,1.497 1.836,1.372 1.853,1.247 L 1.944,1.044 1.966,1.072 1.913,1.162 C 1.879,1.256 1.878,1.356 1.883,1.454 1.89,1.564 1.905,1.677 1.944,1.781 L 1.89,2.016 1.973,2.138 1.893,2.295 1.812,2.418 V 2.58 L 1.943,2.412 C 2.036,2.35 2.157,2.33 2.265,2.355 L 2.466,2.488 2.436,2.512 2.352,2.432 C 2.271,2.381 2.17,2.37 2.079,2.393 L 1.909,2.497 1.828,2.628 1.811,2.687 C 1.811,3.07 1.809,3.454 1.809,3.838 1.583,3.837 1.358,3.835 1.132,3.835 0.989,3.833 0.846,3.835 0.703,3.832 h -0.704 c -0.143,0.003 -0.989,0.001 -1.132,0.003 -0.225,0 -0.45,0.002 -0.677,0.003 C -1.809,3.454 -1.812,3.07 -1.811,2.687 L -1.829,2.628 -1.91,2.497 -2.08,2.393 C -2.171,2.37 -2.272,2.381 -2.352,2.432 l -0.085,0.08 -0.03,-0.024 0.201,-0.133 C -2.157,2.33 -2.037,2.35 -1.944,2.412 L -1.812,2.58 -1.813,2.418 -1.894,2.295 -1.973,2.138 -1.89,2.016 -1.945,1.781 C -1.906,1.677 -1.891,1.564 -1.883,1.454 -1.879,1.356 -1.88,1.256 -1.913,1.162 l -0.053,-0.09 0.021,-0.028 0.091,0.203 c 0.018,0.125 0.009,0.25 -0.011,0.372 l -0.038,0.156 0.053,0.23 -0.079,0.145 0.117,0.2 C -1.813,1.812 -1.814,1.275 -1.823,0.738 L -1.822,0.526 C -1.796,0.369 -1.687,0.229 -1.54,0.167 l 0.232,-0.04 c 0.227,0.013 0.455,0.028 0.682,0.033 0.123,0.001 0.247,0.003 0.369,-0.011 l 0.088,-0.028 z"
         style="fill:#6a382a;fill-opacity:1;fill-rule:nonzero;stroke:none"
         id="path25996"
         inkscape:connector-curvature="0" />
    </g>
    <g
       id="g25998"
       transform="matrix(0.35277777,0,0,-0.35277777,86.914228,106.49643)">
      <path
         d="m 0,0 0.145,0.112 0.1,0.034 C 0.371,0.164 0.499,0.159 0.625,0.158 0.853,0.153 1.08,0.139 1.307,0.126 1.409,0.118 1.514,0.145 1.598,0.203 1.697,0.271 1.768,0.38 1.787,0.499 V 0.656 C 1.784,0.792 1.781,0.93 1.78,1.067 1.779,1.294 1.775,1.521 1.776,1.749 1.772,2.42 1.773,3.091 1.771,3.762 1.199,3.76 0.625,3.755 0.052,3.754 H -0.001 C -0.574,3.755 -1.199,3.76 -1.772,3.762 -1.773,3.091 -1.772,2.42 -1.777,1.749 -1.775,1.521 -1.78,1.294 -1.781,1.067 -1.782,0.93 -1.785,0.792 -1.788,0.656 l 0.001,-0.157 c 0.019,-0.119 0.09,-0.228 0.188,-0.296 0.084,-0.058 0.19,-0.085 0.291,-0.077 0.228,0.013 0.455,0.027 0.682,0.032 0.127,0.001 0.254,0.006 0.38,-0.012 l 0.1,-0.034 z"
         style="fill:#c3b182;fill-opacity:1;fill-rule:nonzero;stroke:none"
         id="path26000"
         inkscape:connector-curvature="0" />
    </g>
    <g
       id="g26002"
       transform="matrix(0.35277777,0,0,-0.35277777,87.580838,106.29418)">
      <path
         d="M 0,0 C 0.074,0.066 0.177,0.097 0.274,0.09 L 0.5,-0.017 C 0.576,-0.085 0.641,-0.173 0.658,-0.276 L 0.639,-0.491 C 0.601,-0.603 0.524,-0.695 0.439,-0.775 L 0.257,-0.909 C 0.136,-0.974 0,-1.01 -0.134,-1.033 -0.285,-1.059 -0.437,-1.064 -0.588,-1.069 -0.719,-1.073 -0.85,-1.074 -0.98,-1.073 c -0.101,10e-4 -0.2,-0.028 -0.29,-0.071 -0.092,-0.044 -0.181,-0.11 -0.235,-0.2 l -0.025,-0.025 -0.027,-0.177 0.098,-0.14 0.126,-0.019 0.127,0.123 -0.063,0.171 -0.138,-0.022 0.01,-0.143 0.091,0.024 -0.031,0.062 -0.025,-0.03 0.022,0.016 v -0.032 l -0.034,0.038 0.073,0.013 -0.025,-0.111 -0.112,0.039 0.041,0.158 0.18,-0.033 -0.028,-0.247 -0.201,-0.032 -0.113,0.113 0.012,0.233 0.023,0.061 0.063,0.076 -0.182,-0.078 -0.074,-0.176 -0.057,-0.142 -0.071,-0.029 -0.031,0.07 0.042,0.227 0.119,0.168 c 0.083,0.063 0.144,0.109 0.241,0.146 0.173,0.066 0.356,0.109 0.541,0.122 0.222,0.017 0.443,0.008 0.663,0.009 0.216,0 0.426,0.092 0.577,0.243 l 0.161,0.235 C 0.503,-0.318 0.434,-0.18 0.317,-0.146 L 0.184,-0.172 0.229,-0.215 0.207,-0.344 0.068,-0.391 l -0.111,0.072 -0.027,0.186 0.038,0.09 z"
         style="fill:#6a382a;fill-opacity:1;fill-rule:nonzero;stroke:none"
         id="path26004"
         inkscape:connector-curvature="0" />
    </g>
    <g
       id="g26006"
       transform="matrix(0.35277777,0,0,-0.35277777,87.579808,106.31366)">
      <path
         d="M 0,0 C 0.065,0.074 0.166,0.113 0.265,0.107 L 0.454,0.031 0.604,-0.156 0.618,-0.383 C 0.592,-0.501 0.514,-0.6 0.428,-0.682 L 0.253,-0.815 C 0.143,-0.875 0.02,-0.913 -0.103,-0.936 -0.269,-0.967 -0.436,-0.972 -0.604,-0.978 l -0.26,-0.003 -0.229,-0.01 c -0.12,-0.023 -0.234,-0.076 -0.33,-0.152 l -0.181,-0.034 -0.111,-0.157 -0.054,-0.145 -0.051,-0.095 -0.014,0.167 0.069,0.168 0.149,0.145 c 0.137,0.074 0.287,0.122 0.438,0.156 0.234,0.052 0.475,0.046 0.713,0.046 L -0.2,-0.89 c 0.271,0.022 0.528,0.182 0.666,0.417 l 0.05,0.135 -0.096,0.234 -0.18,0.053 -0.111,-0.074 0.009,-0.053 0.008,0.028 0.011,0.002 0.03,0.009 0.036,-0.066 -0.109,-0.115 -0.132,0.056 -0.003,0.25 z"
         style="fill:#c3b182;fill-opacity:1;fill-rule:nonzero;stroke:none"
         id="path26008"
         inkscape:connector-curvature="0" />
    </g>
    <g
       id="g26010"
       transform="matrix(0.35277777,0,0,-0.35277777,86.235198,106.42235)">
      <path
         d="M 0,0 0.105,-0.03 0.07,-0.034 0.076,-0.133 0.09,-0.236 0.176,-0.112 0.197,-0.073 0.175,-0.044 0.254,-0.066 0.212,-0.092 0.063,-0.304 0.028,-0.042 Z"
         style="fill:#6a382a;fill-opacity:1;fill-rule:nonzero;stroke:none"
         id="path26012"
         inkscape:connector-curvature="0" />
    </g>
    <g
       id="g26014"
       transform="matrix(0.35277777,0,0,-0.35277777,86.705628,106.53259)">
      <path
         d="M 0,0 0.109,0.003 0.078,-0.011 0.112,-0.104 0.154,-0.2 0.201,-0.056 0.21,-0.012 0.181,0.009 0.263,0.011 0.229,-0.027 0.148,-0.271 0.039,-0.031 Z"
         style="fill:#6a382a;fill-opacity:1;fill-rule:nonzero;stroke:none"
         id="path26016"
         inkscape:connector-curvature="0" />
    </g>
    <g
       id="g26018"
       transform="matrix(0.35277777,0,0,-0.35277777,86.326498,106.44577)">
      <path
         d="M 0,0 0.109,-0.026 0.071,-0.038 0.043,-0.134 0.015,-0.259 l 0.029,-0.026 -0.11,0.03 0.037,0.006 0.017,0.046 0.033,0.13 0.008,0.049 z"
         style="fill:#6a382a;fill-opacity:1;fill-rule:nonzero;stroke:none"
         id="path26020"
         inkscape:connector-curvature="0" />
    </g>
    <g
       id="g26022"
       transform="matrix(0.35277777,0,0,-0.35277777,87.572228,106.45992)">
      <path
         d="M 0,0 0.105,0.019 0.174,0.006 0.193,-0.078 0.153,-0.115 0.225,-0.196 0.281,-0.222 0.213,-0.234 0.116,-0.124 0.094,-0.127 0.109,-0.224 0.148,-0.242 0.038,-0.259 0.069,-0.226 0.054,-0.11 0.039,-0.019 Z"
         style="fill:#6a382a;fill-opacity:1;fill-rule:nonzero;stroke:none"
         id="path26024"
         inkscape:connector-curvature="0" />
    </g>
    <g
       id="g26026"
       transform="matrix(0.35277777,0,0,-0.35277777,87.598758,106.46147)">
      <path
         d="M 0,0 0.054,0.001 0.07,-0.086 0.017,-0.111 Z"
         style="fill:#c3b182;fill-opacity:1;fill-rule:nonzero;stroke:none"
         id="path26028"
         inkscape:connector-curvature="0" />
    </g>
    <g
       id="g26030"
       transform="matrix(0.35277777,0,0,-0.35277777,87.520719,106.4644)">
      <path
         d="M 0,0 0.082,-0.009 0.11,-0.246 -0.026,-0.254 -0.084,-0.11 Z"
         style="fill:#6a382a;fill-opacity:1;fill-rule:nonzero;stroke:none"
         id="path26032"
         inkscape:connector-curvature="0" />
    </g>
    <g
       id="g26034"
       transform="matrix(0.35277777,0,0,-0.35277777,86.381248,106.50677)">
      <path
         d="M 0,0 0.028,0.109 0.082,0.085 0.057,0 Z M 0.093,-0.127 0.057,-0.024 0.103,-0.01 0.12,0.087 0.066,0.118 -0.041,0.144 -0.012,0.118 -0.028,0.036 l -0.034,-0.128 -0.044,-0.02 0.109,-0.03 -0.028,0.025 0.022,0.105 0.022,-0.009 0.049,-0.136 0.067,-0.015 z"
         style="fill:#6a382a;fill-opacity:1;fill-rule:nonzero;stroke:none"
         id="path26036"
         inkscape:connector-curvature="0" />
    </g>
    <g
       id="g26038"
       transform="matrix(0.35277777,0,0,-0.35277777,87.520719,106.47057)">
      <path
         d="M 0,0 0.074,-0.018 0.11,-0.116 0.088,-0.221 0,-0.223 -0.043,-0.086 Z"
         style="fill:#c3b182;fill-opacity:1;fill-rule:nonzero;stroke:none"
         id="path26040"
         inkscape:connector-curvature="0" />
    </g>
    <g
       id="g26042"
       transform="matrix(0.35277777,0,0,-0.35277777,87.440458,106.47904)">
      <path
         d="m 0,0 0.11,0.018 -0.03,-0.022 0.001,-0.04 0.023,-0.16 0.012,-0.029 0.032,-0.009 -0.111,-0.016 0.033,0.02 -0.004,0.049 -0.021,0.145 -0.009,0.032 z"
         style="fill:#6a382a;fill-opacity:1;fill-rule:nonzero;stroke:none"
         id="path26044"
         inkscape:connector-curvature="0" />
    </g>
    <g
       id="g26046"
       transform="matrix(0.35277777,0,0,-0.35277777,86.439668,106.49918)">
      <path
         d="M 0,0 0.02,0.067 0.21,0.018 0.194,-0.049 0.176,0.003 0.127,0.02 0.079,-0.168 0.073,-0.205 0.103,-0.229 -0.006,-0.201 0.03,-0.194 0.043,-0.162 0.092,0.03 0.04,0.039 Z"
         style="fill:#6a382a;fill-opacity:1;fill-rule:nonzero;stroke:none"
         id="path26048"
         inkscape:connector-curvature="0" />
    </g>
    <g
       id="g26050"
       transform="matrix(0.35277777,0,0,-0.35277777,87.366909,106.48832)">
      <path
         d="m 0,0 0.194,0.028 0.01,-0.069 -0.03,0.04 L 0.115,-0.003 0.148,-0.217 0.189,-0.241 0.079,-0.256 0.11,-0.235 0.107,-0.193 0.081,-0.008 0.03,-0.019 0.012,-0.063 H 0.005 Z"
         style="fill:#6a382a;fill-opacity:1;fill-rule:nonzero;stroke:none"
         id="path26052"
         inkscape:connector-curvature="0" />
    </g>
    <g
       id="g26054"
       transform="matrix(0.35277777,0,0,-0.35277777,86.516818,106.49403)">
      <path
         d="M 0,0 0.105,-0.027 0.072,-0.037 V -0.093 L 0.09,-0.235 0.2,-0.074 0.174,-0.045 0.256,-0.067 0.21,-0.095 0.125,-0.217 0.062,-0.304 0.029,-0.044 Z"
         style="fill:#6a382a;fill-opacity:1;fill-rule:nonzero;stroke:none"
         id="path26056"
         inkscape:connector-curvature="0" />
    </g>
    <g
       id="g26058"
       transform="matrix(0.35277777,0,0,-0.35277777,87.286478,106.50126)">
      <path
         d="M 0,0 0.131,0.019 0.2,-0.06 0.156,-0.117 0.222,-0.193 0.283,-0.222 0.215,-0.234 0.118,-0.128 H 0.095 l 0.017,-0.102 0.036,-0.012 -0.109,-0.017 0.029,0.021 -0.001,0.045 -0.02,0.135 -0.011,0.047 z"
         style="fill:#6a382a;fill-opacity:1;fill-rule:nonzero;stroke:none"
         id="path26060"
         inkscape:connector-curvature="0" />
    </g>
    <g
       id="g26062"
       transform="matrix(0.35277777,0,0,-0.35277777,87.313497,106.50313)">
      <path
         d="M 0,0 0.059,-0.001 0.065,-0.09 0.016,-0.11 Z"
         style="fill:#c3b182;fill-opacity:1;fill-rule:nonzero;stroke:none"
         id="path26064"
         inkscape:connector-curvature="0" />
    </g>
    <g
       id="g26066"
       transform="matrix(0.35277777,0,0,-0.35277777,87.233598,106.50659)">
      <path
         d="M 0,0 0.084,-0.007 0.119,-0.24 0.04,-0.273 l -0.095,0.056 -0.023,0.121 z"
         style="fill:#6a382a;fill-opacity:1;fill-rule:nonzero;stroke:none"
         id="path26068"
         inkscape:connector-curvature="0" />
    </g>
    <g
       id="g26070"
       transform="matrix(0.35277777,0,0,-0.35277777,87.238078,106.5116)">
      <path
         d="m 0,0 0.061,-0.015 0.041,-0.1 -0.019,-0.104 -0.092,-0.005 -0.042,0.126 z"
         style="fill:#c3b182;fill-opacity:1;fill-rule:nonzero;stroke:none"
         id="path26072"
         inkscape:connector-curvature="0" />
    </g>
    <g
       id="g26074"
       transform="matrix(0.35277777,0,0,-0.35277777,87.125749,106.52501)">
      <path
         d="M 0,0 0.182,0.028 0.191,-0.034 0.157,0.003 0.075,-0.003 0.09,-0.104 l 0.058,0.014 0.013,0.037 0.015,-0.098 -0.022,0.033 -0.062,-0.004 0.016,-0.1 0.04,-0.02 -0.11,-0.017 0.032,0.024 -0.009,0.087 -0.019,0.124 z"
         style="fill:#6a382a;fill-opacity:1;fill-rule:nonzero;stroke:none"
         id="path26076"
         inkscape:connector-curvature="0" />
    </g>
    <g
       id="g26078"
       transform="matrix(0.35277777,0,0,-0.35277777,86.609497,106.55432)">
      <path
         d="M 0,0 0.059,0.092 0.136,0.06 0.157,0.075 0.129,-0.024 0.112,0.052 0.047,0.067 0.035,0.018 0.119,-0.086 0.059,-0.188 -0.031,-0.154 -0.051,-0.169 -0.025,-0.07 0,-0.152 0.081,-0.149 0.068,-0.088 Z"
         style="fill:#6a382a;fill-opacity:1;fill-rule:nonzero;stroke:none"
         id="path26080"
         inkscape:connector-curvature="0" />
    </g>
    <g
       id="g26082"
       transform="matrix(0.35277777,0,0,-0.35277777,86.863248,106.53294)">
      <path
         d="M 0,0 H 0.094 L 0.061,-0.014 0.056,-0.097 0.055,-0.271 -0.012,-0.19 -0.114,-0.058 v -0.148 l 0.005,-0.04 0.033,-0.015 h -0.095 l 0.037,0.028 0.002,0.161 -0.008,0.048 -0.03,0.016 -0.003,0.011 h 0.061 l 0.151,-0.196 -0.003,0.168 z"
         style="fill:#6a382a;fill-opacity:1;fill-rule:nonzero;stroke:none"
         id="path26084"
         inkscape:connector-curvature="0" />
    </g>
    <g
       id="g26086"
       transform="matrix(0.35277777,0,0,-0.35277777,86.897858,106.53259)">
      <path
         d="M 0,0 H 0.115 L 0.082,-0.015 0.077,-0.05 0.076,-0.201 0.08,-0.244 0.114,-0.264 0,-0.263 0.035,-0.247 0.04,-0.133 0.037,-0.015 Z"
         style="fill:#6a382a;fill-opacity:1;fill-rule:nonzero;stroke:none"
         id="path26088"
         inkscape:connector-curvature="0" />
    </g>
    <g
       id="g26090"
       transform="matrix(0.35277777,0,0,-0.35277777,86.944528,106.53192)">
      <path
         d="M 0,0 0.205,0.001 0.208,-0.059 0.2,-0.063 0.177,-0.022 0.121,-0.017 0.12,-0.203 0.126,-0.249 0.156,-0.261 V -0.266 L 0.045,-0.265 0.083,-0.233 0.084,-0.017 0.023,-0.026 0,-0.067 Z"
         style="fill:#6a382a;fill-opacity:1;fill-rule:nonzero;stroke:none"
         id="path26092"
         inkscape:connector-curvature="0" />
    </g>
    <g
       id="g26094"
       transform="matrix(0.35277777,0,0,-0.35277777,87.022067,106.61408)">
      <path
         d="M 0,0 0.102,0.245 0.197,0.005 0.236,-0.033 H 0.131 L 0.159,-0.014 0.138,0.055 H 0.043 L 0.02,-0.013 0.054,-0.032 -0.034,-0.033 Z"
         style="fill:#6a382a;fill-opacity:1;fill-rule:nonzero;stroke:none"
         id="path26096"
         inkscape:connector-curvature="0" />
    </g>
    <g
       id="g26098"
       transform="matrix(0.35277777,0,0,-0.35277777,87.039958,106.5884)">
      <path
         d="M 0,0 0.041,0.101 0.079,-0.001 Z"
         style="fill:#c3b182;fill-opacity:1;fill-rule:nonzero;stroke:none"
         id="path26100"
         inkscape:connector-curvature="0" />
    </g>
    <g
       id="g26102"
       transform="matrix(0.35277777,0,0,-0.35277777,86.898697,105.06913)">
      <path
         d="m 0,0 -0.022,0.001 -0.026,-0.13 -0.123,-0.08 -0.079,0.065 0.055,0.087 0.022,-0.047 0.016,0.026 -0.051,0.043 -0.064,-0.078 0.044,-0.105 0.128,0.003 z"
         style="fill:#6a382a;fill-opacity:1;fill-rule:nonzero;stroke:none"
         id="path26104"
         inkscape:connector-curvature="0" />
    </g>
    <g
       id="g26106"
       transform="matrix(0.35277777,0,0,-0.35277777,86.914228,104.91288)">
      <path
         d="M 0,0 0.2,0.047 0.397,0.13 0.549,0.127 0.617,0.045 0.614,-0.13 C 0.584,-0.242 0.528,-0.352 0.437,-0.429 L 0.378,-0.501 0.384,-0.545 0.469,-0.564 C 0.627,-0.583 0.786,-0.6 0.945,-0.609 1.077,-0.612 1.21,-0.616 1.338,-0.583 l 0.01,-0.013 0.11,0.046 0.096,0.217 -0.157,0.144 -0.177,-0.144 0.098,-0.125 0.114,0.094 -0.077,0.063 -0.029,-0.067 0.038,0.003 -0.021,0.019 0.034,-0.023 -0.074,0.002 0.071,0.084 0.073,-0.098 -0.128,-0.094 -0.116,0.111 0.042,0.13 L 1.44,-0.179 1.569,-0.321 1.536,-0.496 1.37,-0.609 1.174,-0.645 c -0.25,-0.014 -0.5,0.02 -0.748,0.047 l -0.077,0.036 0.003,0.094 0.107,0.113 c 0.067,0.078 0.109,0.176 0.128,0.277 L 0.556,0.074 0.431,0.102 0.349,0.062 C 0.258,0.02 0.1,-0.027 0,-0.039 -0.101,-0.027 -0.258,0.02 -0.35,0.062 l -0.081,0.04 -0.126,-0.028 -0.03,-0.152 c 0.019,-0.101 0.06,-0.199 0.127,-0.277 l 0.107,-0.113 0.004,-0.094 -0.077,-0.036 c -0.249,-0.027 -0.498,-0.061 -0.749,-0.047 l -0.196,0.036 -0.165,0.113 -0.034,0.175 0.129,0.142 0.197,-0.055 0.041,-0.13 -0.116,-0.111 -0.128,0.094 0.073,0.098 0.07,-0.084 -0.074,-0.002 0.034,0.023 -0.02,-0.019 0.037,-0.003 -0.028,0.067 -0.077,-0.063 0.113,-0.094 0.099,0.125 -0.178,0.144 -0.157,-0.144 0.097,-0.217 0.11,-0.046 0.009,0.013 c 0.129,-0.033 0.262,-0.029 0.394,-0.026 0.159,0.009 0.318,0.026 0.476,0.045 l 0.085,0.019 0.006,0.044 -0.06,0.072 c -0.091,0.077 -0.146,0.187 -0.177,0.299 l -0.002,0.175 0.068,0.082 0.151,0.003 0.17,-0.077 C -0.128,0.021 -0.019,0 0,0"
         style="fill:#6a382a;fill-opacity:1;fill-rule:nonzero;stroke:none"
         id="path26108"
         inkscape:connector-curvature="0" />
    </g>
    <g
       id="g26110"
       transform="matrix(0.35277777,0,0,-0.35277777,86.247258,106.29418)">
      <path
         d="M 0,0 C -0.074,0.066 -0.176,0.097 -0.273,0.09 L -0.5,-0.017 c -0.076,-0.068 -0.14,-0.156 -0.158,-0.259 l 0.019,-0.215 c 0.038,-0.112 0.116,-0.204 0.2,-0.284 l 0.182,-0.134 C -0.135,-0.974 0,-1.01 0.135,-1.033 c 0.15,-0.026 0.302,-0.031 0.454,-0.036 0.13,-0.004 0.262,-0.005 0.392,-0.004 0.101,10e-4 0.199,-0.028 0.289,-0.071 0.093,-0.044 0.181,-0.11 0.235,-0.2 l 0.026,-0.025 0.027,-0.177 -0.099,-0.14 -0.125,-0.019 -0.128,0.123 0.063,0.171 0.139,-0.022 -0.011,-0.143 -0.09,0.024 0.03,0.062 0.026,-0.03 -0.023,0.016 v -0.032 l 0.035,0.038 -0.073,0.013 0.025,-0.111 0.111,0.039 -0.04,0.158 -0.18,-0.033 0.027,-0.247 0.202,-0.032 0.113,0.113 -0.012,0.233 -0.024,0.061 -0.063,0.076 0.183,-0.078 0.073,-0.176 0.057,-0.142 0.071,-0.029 0.032,0.07 -0.042,0.227 -0.12,0.168 C 1.633,-1.125 1.57,-1.079 1.474,-1.042 1.301,-0.976 1.118,-0.933 0.933,-0.92 0.712,-0.903 0.491,-0.912 0.27,-0.911 c -0.215,0 -0.426,0.092 -0.577,0.243 l -0.161,0.235 c -0.035,0.115 0.035,0.253 0.152,0.287 l 0.133,-0.026 -0.045,-0.043 0.022,-0.129 0.138,-0.047 0.111,0.072 0.028,0.186 -0.038,0.09 z"
         style="fill:#6a382a;fill-opacity:1;fill-rule:nonzero;stroke:none"
         id="path26112"
         inkscape:connector-curvature="0" />
    </g>
    <g
       id="g26114"
       transform="matrix(0.35277777,0,0,-0.35277777,86.248637,106.31366)">
      <path
         d="m 0,0 c -0.065,0.074 -0.167,0.113 -0.266,0.107 l -0.188,-0.076 -0.15,-0.187 -0.015,-0.227 c 0.027,-0.118 0.105,-0.217 0.19,-0.299 l 0.176,-0.133 c 0.11,-0.06 0.232,-0.098 0.355,-0.121 0.166,-0.031 0.334,-0.036 0.502,-0.042 l 0.259,-0.003 0.23,-0.01 c 0.12,-0.023 0.234,-0.076 0.33,-0.152 l 0.181,-0.034 0.111,-0.157 0.053,-0.145 0.051,-0.095 0.015,0.167 -0.069,0.168 -0.15,0.145 C 1.479,-1.02 1.329,-0.972 1.177,-0.938 0.944,-0.886 0.702,-0.892 0.464,-0.892 L 0.199,-0.89 c -0.271,0.022 -0.528,0.182 -0.665,0.417 l -0.051,0.135 0.096,0.234 0.18,0.053 0.111,-0.074 -0.008,-0.053 -0.009,0.028 -0.01,0.002 -0.03,0.009 -0.036,-0.066 0.108,-0.115 0.132,0.056 0.004,0.25 z"
         style="fill:#c3b182;fill-opacity:1;fill-rule:nonzero;stroke:none"
         id="path26116"
         inkscape:connector-curvature="0" />
    </g>
    <g
       id="g26118"
       transform="matrix(0.35277777,0,0,-0.35277777,86.905438,105.21623)">
      <path
         d="m 0,0 c -0.546,0 -1.093,0 -1.64,0 0,-0.323 10e-4,-0.646 10e-4,-0.969 0.003,-0.226 0,-0.454 0.002,-0.679 0.486,-0.001 0.972,0 1.459,0 L 0,-1.642 Z"
         style="fill:#6a382a;fill-opacity:1;fill-rule:nonzero;stroke:none"
         id="path26120"
         inkscape:connector-curvature="0" />
    </g>
    <g
       id="g26122"
       transform="matrix(0.35277777,0,0,-0.35277777,86.900787,105.82411)">
      <path
         d="M 0,0 C -0.325,0.001 -0.649,0.001 -0.974,0.003 -1.189,0.005 -1.405,0.007 -1.62,0.007 -1.631,-0.152 -1.625,-0.312 -1.628,-0.47 -1.627,-0.664 -1.629,-0.858 -1.629,-1.05 l 0.014,-0.138 0.146,-0.188 0.224,-0.143 0.162,-0.03 c 0.28,0.007 0.56,0.024 0.839,0.034 l 0.107,-0.013 0.092,-0.065 0.041,-0.006 c 0.003,0.176 0,0.349 0.003,0.525 C -0.002,-0.716 0.001,-0.359 0,0"
         style="fill:#6a382a;fill-opacity:1;fill-rule:nonzero;stroke:none"
         id="path26124"
         inkscape:connector-curvature="0" />
    </g>
    <g
       id="g26126"
       transform="matrix(0.35277777,0,0,-0.35277777,86.418467,105.23172)">
      <path
         d="M 0,0 C 0.336,0.001 0.672,0.004 1.008,0.004 1.122,0.007 1.235,0.006 1.349,0.006 1.347,-0.475 1.347,-0.956 1.347,-1.437 L 1.345,-1.563 c -0.145,-0.004 -0.289,0 -0.434,-0.004 -0.376,0 -0.753,0 -1.13,-0.001 -0.001,0.302 -0.003,0.606 -0.003,0.91 -0.004,0.218 -0.003,0.437 -0.003,0.656 z"
         style="fill:#cb2046;fill-opacity:1;fill-rule:nonzero;stroke:none"
         id="path26128"
         inkscape:connector-curvature="0" />
    </g>
    <g
       id="g26130"
       transform="matrix(0.35277777,0,0,-0.35277777,86.763479,105.24947)">
      <path
         d="M 0,0 0.168,0.04 C 0.261,0.03 0.341,-0.056 0.344,-0.15 L 0.288,-0.27 0.16,-0.326 0.144,-0.241 0.254,-0.177 0.18,-0.05 0.042,-0.078 0.029,-0.163 0.021,-0.341 l -0.079,-0.08 -0.056,0.065 0.066,0.071 -0.011,0.134 z"
         style="fill:#e9d22a;fill-opacity:1;fill-rule:nonzero;stroke:none"
         id="path26132"
         inkscape:connector-curvature="0" />
    </g>
    <g
       id="g26134"
       transform="matrix(0.35277777,0,0,-0.35277777,86.596588,105.28238)">
      <path
         d="M 0,0 0.062,0.069 C 0.164,-0.04 0.261,-0.152 0.359,-0.263 L 0.415,-0.328 0.496,-0.42 0.518,-0.521 C 0.434,-0.693 0.362,-0.872 0.273,-1.043 H 0.217 l 0.011,-0.169 0.1,-0.075 0.134,0.101 0.037,0.187 0.23,0.064 0.079,-0.236 -0.156,-0.087 -0.006,0.092 0.083,0.045 -0.087,0.113 -0.064,-0.041 -0.04,-0.209 C 0.488,-1.359 0.352,-1.411 0.249,-1.363 l -0.12,0.154 -0.007,0.165 -0.129,-0.003 0.003,-0.115 -0.105,-0.184 -0.284,0.049 -0.029,0.052 -0.001,0.006 0.075,0.081 0.022,-0.071 0.111,-0.055 0.098,0.061 0.017,0.175 h -0.057 l -0.031,0.067 -0.039,0.085 c -0.047,0.105 -0.095,0.21 -0.144,0.314 l -0.024,0.061 0.01,0.061 0.042,0.054 C -0.228,-0.271 -0.115,-0.135 0,0"
         style="fill:#ffffff;fill-opacity:1;fill-rule:nonzero;stroke:none"
         id="path26136"
         inkscape:connector-curvature="0" />
    </g>
    <g
       id="g26138"
       transform="matrix(0.35277777,0,0,-0.35277777,86.503057,105.46067)">
      <path
         d="M 0,0 C 0.1,0.131 0.2,0.262 0.3,0.392 V -0.415 L 0.255,-0.453 0.138,-0.369 C 0.085,-0.249 0.042,-0.124 0,0"
         style="fill:#cb2046;fill-opacity:1;fill-rule:nonzero;stroke:none"
         id="path26140"
         inkscape:connector-curvature="0" />
    </g>
    <g
       id="g26142"
       transform="matrix(0.35277777,0,0,-0.35277777,86.628438,105.32235)">
      <path
         d="M 0,0 C 0.1,-0.131 0.201,-0.263 0.301,-0.394 0.264,-0.501 0.229,-0.609 0.184,-0.714 L 0.131,-0.815 0.027,-0.845 0,-0.806 C 0,-0.538 0,-0.268 0,0"
         style="fill:#cb2046;fill-opacity:1;fill-rule:nonzero;stroke:none"
         id="path26144"
         inkscape:connector-curvature="0" />
    </g>
    <g
       id="g26146"
       transform="matrix(0.35277777,0,0,-0.35277777,86.514598,105.45824)">
      <path
         d="m 0,0 c 0.082,0.106 0.164,0.213 0.245,0.32 0.001,-0.241 0,-0.481 0,-0.723 L 0.241,-0.434 0.136,-0.388 C 0.082,-0.273 0.042,-0.152 0,-0.034 Z"
         style="fill:#e9d22a;fill-opacity:1;fill-rule:nonzero;stroke:none"
         id="path26148"
         inkscape:connector-curvature="0" />
    </g>
    <g
       id="g26150"
       transform="matrix(0.35277777,0,0,-0.35277777,86.636548,105.34609)">
      <path
         d="M 0,0 C 0.085,-0.11 0.17,-0.22 0.253,-0.333 0.208,-0.46 0.166,-0.588 0.108,-0.711 L 0,-0.754 C -0.001,-0.503 -0.001,-0.251 0,0"
         style="fill:#e9d22a;fill-opacity:1;fill-rule:nonzero;stroke:none"
         id="path26152"
         inkscape:connector-curvature="0" />
    </g>
    <g
       id="g26154"
       transform="matrix(0.35277777,0,0,-0.35277777,86.516649,105.59847)">
      <path
         d="m 0,0 0.039,-0.085 -0.161,-0.177 -0.074,-0.081 -0.132,-0.145 -0.056,0.066 0.061,0.066 0.016,0.019 0.091,0.099 0.081,0.089 z"
         style="fill:#e9d22a;fill-opacity:1;fill-rule:nonzero;stroke:none"
         id="path26156"
         inkscape:connector-curvature="0" />
    </g>
    <g
       id="g26158"
       transform="matrix(0.35277777,0,0,-0.35277777,86.377118,105.6124)">
      <path
         d="M 0,0 0.224,-0.035 0.26,-0.109 0.18,-0.198 0.154,-0.099 0.039,-0.087 0.015,-0.19 0.092,-0.226 0.089,-0.298 0.073,-0.317 -0.071,-0.228 Z"
         style="fill:#ffffff;fill-opacity:1;fill-rule:nonzero;stroke:none"
         id="path26160"
         inkscape:connector-curvature="0" />
    </g>
    <g
       id="g26162"
       transform="matrix(0.35277777,0,0,-0.35277777,86.530257,105.62842)">
      <path
         d="M 0,0 0.031,-0.067 H 0.088 L 0.071,-0.242 -0.027,-0.303 -0.138,-0.249 -0.16,-0.177 Z"
         style="fill:#cb2046;fill-opacity:1;fill-rule:nonzero;stroke:none"
         id="path26164"
         inkscape:connector-curvature="0" />
    </g>
    <g
       id="g26166"
       transform="matrix(0.35277777,0,0,-0.35277777,86.390736,105.64324)">
      <path
         d="m 0,0 0.116,-0.011 0.025,-0.1 -0.091,-0.099 0.004,0.072 -0.077,0.035 z"
         style="fill:#cb2046;fill-opacity:1;fill-rule:nonzero;stroke:none"
         id="path26168"
         inkscape:connector-curvature="0" />
    </g>
    <g
       id="g26170"
       transform="matrix(0.35277777,0,0,-0.35277777,87.738458,105.0843)">
      <path
         d="M 0,0 0.05,-0.112 C 0.052,-0.204 0.002,-0.289 -0.062,-0.351 l -0.124,-0.092 c -0.08,-0.069 -0.137,-0.166 -0.144,-0.273 l 0.025,-0.11 -0.027,-0.04 0.021,-0.03 0.017,0.047 0.048,-0.044 0.01,-0.052 -0.099,-0.058 -0.127,0.13 -0.003,0.098 0.048,0.213 0.102,0.133 c 0.088,0.088 0.176,0.177 0.246,0.281 z"
         style="fill:#c3b182;fill-opacity:1;fill-rule:nonzero;stroke:none"
         id="path26172"
         inkscape:connector-curvature="0" />
    </g>
    <g
       id="g26174"
       transform="matrix(0.35277777,0,0,-0.35277777,86.922827,105.21623)">
      <path
         d="m 0,0 c 0.546,0 1.093,0 1.64,0 0,-0.323 -10e-4,-0.646 -10e-4,-0.969 -0.003,-0.226 0,-0.454 -0.002,-0.679 -0.486,-0.001 -0.972,10e-4 -1.458,10e-4 L 0,-1.642 Z"
         style="fill:#6a382a;fill-opacity:1;fill-rule:nonzero;stroke:none"
         id="path26176"
         inkscape:connector-curvature="0" />
    </g>
    <g
       id="g26178"
       transform="matrix(0.35277777,0,0,-0.35277777,86.935918,105.22915)">
      <path
         d="M 0,0 H 0.155 V -1.575 L 0,-1.574 C -0.001,-1.049 0,-0.525 0,0"
         style="fill:#e9d22a;fill-opacity:1;fill-rule:nonzero;stroke:none"
         id="path26180"
         inkscape:connector-curvature="0" />
    </g>
    <g
       id="g26182"
       transform="matrix(0.35277777,0,0,-0.35277777,86.990708,105.22915)">
      <path
         d="M 0,0 C 0.112,0.002 0.226,0.002 0.338,0 V -1.575 C 0.226,-1.576 0.112,-1.575 0,-1.576 v 0.001 z"
         style="fill:#cb2046;fill-opacity:1;fill-rule:nonzero;stroke:none"
         id="path26184"
         inkscape:connector-curvature="0" />
    </g>
    <path
       d="m 87.11012,105.22915 h 0.0437 v 0.55562 h -0.0437 z"
       style="fill:#e9d22a;fill-opacity:1;fill-rule:nonzero;stroke:none;stroke-width:0.35277778"
       id="path26186"
       inkscape:connector-curvature="0" />
    <g
       id="g26188"
       transform="matrix(0.35277777,0,0,-0.35277777,87.153657,105.22915)">
      <path
         d="M 0,0 C 0.113,0.002 0.225,0.001 0.338,0.001 V -1.575 C 0.225,-1.576 0.113,-1.576 0,-1.575 Z"
         style="fill:#cb2046;fill-opacity:1;fill-rule:nonzero;stroke:none"
         id="path26190"
         inkscape:connector-curvature="0" />
    </g>
    <g
       id="g26192"
       transform="matrix(0.35277777,0,0,-0.35277777,87.273037,105.22879)">
      <path
         d="M 0,0 0.125,-0.001 V -1.577 L 0,-1.576 Z"
         style="fill:#e9d22a;fill-opacity:1;fill-rule:nonzero;stroke:none"
         id="path26194"
         inkscape:connector-curvature="0" />
    </g>
    <g
       id="g26196"
       transform="matrix(0.35277777,0,0,-0.35277777,87.317127,105.22915)">
      <path
         d="m 0,0 c 0.112,0.001 0.225,0 0.337,0.001 0.001,-0.526 0,-1.051 0.001,-1.577 -0.113,0 -0.226,0 -0.338,0 z"
         style="fill:#cb2046;fill-opacity:1;fill-rule:nonzero;stroke:none"
         id="path26198"
         inkscape:connector-curvature="0" />
    </g>
    <g
       id="g26200"
       transform="matrix(0.35277777,0,0,-0.35277777,87.436158,105.22862)">
      <path
         d="M 0,0 H 0.149 C 0.147,-0.157 0.148,-0.313 0.148,-0.47 c -0.004,-0.187 0,-0.374 -0.002,-0.561 0,-0.182 0,-0.365 -0.001,-0.546 H 0.001 C 0,-1.052 0.001,-0.526 0,0"
         style="fill:#e9d22a;fill-opacity:1;fill-rule:nonzero;stroke:none"
         id="path26202"
         inkscape:connector-curvature="0" />
    </g>
    <g
       id="g26204"
       transform="matrix(0.35277777,0,0,-0.35277777,87.702787,105.40638)">
      <path
         d="M 0,0 C 0.123,0.018 0.253,0.008 0.366,-0.046 0.465,-0.094 0.543,-0.177 0.59,-0.275 0.677,-0.457 0.671,-0.68 0.581,-0.86 0.527,-0.968 0.437,-1.062 0.323,-1.106 l -0.238,-0.005 -0.068,0.009 -0.09,0.101 0.031,0.094 0.115,-0.024 -0.003,-0.031 -0.038,-0.006 0.034,-0.031 0.235,0.028 0.147,0.21 c 0.031,0.12 0.02,0.248 -0.023,0.364 l -0.168,0.206 -0.123,0.04 -0.091,-0.015 -0.136,-0.117 c -0.019,0.092 -0.009,0.187 0.014,0.276 z"
         style="fill:#c3b182;fill-opacity:1;fill-rule:nonzero;stroke:none"
         id="path26206"
         inkscape:connector-curvature="0" />
    </g>
    <g
       id="g26208"
       transform="matrix(0.35277777,0,0,-0.35277777,87.706067,105.81652)">
      <path
         d="m 0,0 0.063,0.015 0.245,0.003 0.001,-0.216 -0.012,0.089 -0.168,0.067 -0.143,-0.071 c -0.082,-0.084 -0.123,-0.201 -0.134,-0.316 -0.008,-0.099 -0.004,-0.2 0.028,-0.295 0.033,-0.096 0.092,-0.183 0.17,-0.247 l 0.133,-0.079 0.158,-0.017 0.103,0.076 0.014,0.065 0.057,-0.195 -0.084,-0.124 -0.12,-0.029 c -0.183,0.029 -0.352,0.138 -0.451,0.295 -0.11,0.171 -0.133,0.387 -0.096,0.585 0.024,0.102 0.065,0.202 0.125,0.288 z"
         style="fill:#c3b182;fill-opacity:1;fill-rule:nonzero;stroke:none"
         id="path26210"
         inkscape:connector-curvature="0" />
    </g>
    <g
       id="g26212"
       transform="matrix(0.35277777,0,0,-0.35277777,86.927489,105.82411)">
      <path
         d="m 0,0 c 0.324,0.001 0.649,0.001 0.973,0.003 0.216,0.002 0.432,0.004 0.648,0.004 0.01,-0.159 0.004,-0.319 0.007,-0.477 -10e-4,-0.194 0.001,-0.388 0,-0.58 L 1.615,-1.188 1.469,-1.376 1.244,-1.519 1.082,-1.549 c -0.28,0.007 -0.559,0.024 -0.838,0.034 L 0.137,-1.528 0.045,-1.593 0.004,-1.599 c -0.003,0.176 0,0.349 -0.003,0.525 C 0.002,-0.716 0,-0.359 0,0"
         style="fill:#6a382a;fill-opacity:1;fill-rule:nonzero;stroke:none"
         id="path26214"
         inkscape:connector-curvature="0" />
    </g>
    <g
       id="g26216"
       transform="matrix(0.35277777,0,0,-0.35277777,86.940398,105.83702)">
      <path
         d="M 0,0 C 0.516,0.002 1.033,0.004 1.55,0.007 1.556,-0.277 1.554,-0.562 1.556,-0.845 V -1.08 L 1.473,-1.246 1.258,-1.418 1.058,-1.476 C 0.78,-1.47 0.502,-1.452 0.225,-1.441 L 0.099,-1.453 -0.003,-1.519 C -0.002,-1.013 -0.001,-0.507 0,0"
         style="fill:#e9d22a;fill-opacity:1;fill-rule:nonzero;stroke:none"
         id="path26218"
         inkscape:connector-curvature="0" />
    </g>
    <g
       id="g26220"
       transform="matrix(0.35277777,0,0,-0.35277777,87.717609,105.85445)">
      <path
         d="M 0,0 0.158,0.042 0.253,-0.036 0.203,-0.128 0.129,-0.114 0.155,-0.073 0.114,-0.086 0.119,-0.144 0.062,-0.14 C 0.003,-0.23 0,-0.343 0.017,-0.446 0.034,-0.543 0.069,-0.642 0.13,-0.72 l 0.071,-0.068 0.037,0.014 0.019,-0.044 0.04,-0.003 -0.03,0.027 0.012,0.028 0.097,-0.018 0.022,-0.053 -0.054,-0.083 -0.185,0.001 -0.074,0.051 -0.182,0.21 c -0.047,0.104 -0.058,0.221 -0.047,0.334 l 0.09,0.253 z"
         style="fill:#c3b182;fill-opacity:1;fill-rule:nonzero;stroke:none"
         id="path26222"
         inkscape:connector-curvature="0" />
    </g>
    <g
       id="g26224"
       transform="matrix(0.35277777,0,0,-0.35277777,87.036849,105.88253)">
      <path
         d="m 0,0 h 0.022 l 0.015,-0.026 0.108,-0.001 0.016,0.026 0.019,-0.006 -0.006,-0.04 0.097,-0.032 0.149,0.003 0.172,-0.006 0.14,0.016 0.062,-0.037 0.075,-0.058 0.01,-0.1 L 0.826,-0.304 0.87,-0.342 0.88,-0.408 0.897,-0.537 H 0.866 L 0.821,-0.568 0.792,-0.55 0.81,-0.523 0.828,-0.436 0.804,-0.383 0.759,-0.351 0.747,-0.432 0.626,-0.54 0.611,-0.539 0.555,-0.574 0.549,-0.559 0.523,-0.557 0.564,-0.509 0.65,-0.424 0.637,-0.362 0.619,-0.356 0.611,-0.341 0.456,-0.398 0.469,-0.517 0.454,-0.535 0.444,-0.521 0.423,-0.57 0.378,-0.574 v 0.017 L 0.357,-0.558 0.402,-0.474 0.399,-0.405 0.3,-0.38 0.27,-0.408 0.341,-0.429 V -0.442 L 0.366,-0.462 0.36,-0.494 0.334,-0.513 0.238,-0.441 0.207,-0.396 0.233,-0.327 0.183,-0.278 0.198,-0.33 0.187,-0.339 0.163,-0.359 0.145,-0.339 0.127,-0.33 0.144,-0.283 0.141,-0.232 0.128,-0.218 0.071,-0.244 0.006,-0.258 l -0.03,0.032 -0.009,0.02 0.037,0.048 0.002,0.045 0.021,0.048 z"
         style="fill:#6a382a;fill-opacity:1;fill-rule:nonzero;stroke:none"
         id="path26226"
         inkscape:connector-curvature="0" />
    </g>
    <g
       id="g26228"
       transform="matrix(0.35277777,0,0,-0.35277777,87.039958,105.88302)">
      <path
         d="M 0,0 0.024,-0.056 Z"
         style="fill:#cb2046;fill-opacity:1;fill-rule:nonzero;stroke:none"
         id="path26230"
         inkscape:connector-curvature="0" />
    </g>
    <g
       id="g26232"
       transform="matrix(0.35277777,0,0,-0.35277777,87.089419,105.90457)">
      <path
         d="M 0,0 0.021,0.056 Z"
         style="fill:#cb2046;fill-opacity:1;fill-rule:nonzero;stroke:none"
         id="path26234"
         inkscape:connector-curvature="0" />
    </g>
    <g
       id="g26236"
       transform="matrix(0.35277777,0,0,-0.35277777,87.052367,105.89491)">
      <path
         d="m 0,0 h 0.088 l 0.017,-0.035 0.02,0.016 0.052,-0.04 -0.045,-0.139 -0.037,0.019 0.027,0.036 -0.091,-0.046 -0.01,0.021 -0.001,-0.04 -0.056,-0.005 -0.034,0.038 0.048,0.071 0.016,0.005 -0.027,0.01 z"
         style="fill:#cb2046;fill-opacity:1;fill-rule:nonzero;stroke:none"
         id="path26238"
         inkscape:connector-curvature="0" />
    </g>
    <g
       id="g26240"
       transform="matrix(0.35277777,0,0,-0.35277777,87.052727,105.90214)">
      <path
         d="M 0,0 0.054,-0.014 Z"
         style="fill:#6a382a;fill-opacity:1;fill-rule:nonzero;stroke:none"
         id="path26242"
         inkscape:connector-curvature="0" />
    </g>
    <g
       id="g26244"
       transform="matrix(0.35277777,0,0,-0.35277777,87.245478,105.91421)">
      <path
         d="M 0,0 0.126,0.018 0.17,-0.025 0.144,0.015 0.233,-0.049 0.288,-0.102 0.218,-0.203 0.11,-0.2 l -0.118,0.072 -0.046,-0.004 -0.066,0.012 0.062,0.005 -0.055,0.01 0.058,0.01 v 0.006 h -0.069 l 0.078,0.009 0.145,-0.096 0.111,-0.007 0.048,0.076 -0.088,0.06 0.042,-0.128 -0.14,0.02 -0.115,0.083 -0.1,-0.012 0.007,-0.039 0.058,-0.019 0.059,0.009 0.054,-0.036 0.063,-0.059 -0.08,-0.018 -0.154,-0.053 -0.008,0.114 0.014,-0.248 -0.019,0.011 -0.058,-0.025 0.028,0.113 -0.032,0.057 -0.046,0.032 -0.049,0.063 0.073,-0.091 0.037,-0.03 -0.081,0.016 -0.121,0.103 0.061,0.08 -0.019,-0.104 0.032,0.121 -0.005,0.09 0.125,0.003 -0.009,-0.035 0.034,-0.024 -0.023,0.038 0.03,0.019 z"
         style="fill:#cb2046;fill-opacity:1;fill-rule:nonzero;stroke:none"
         id="path26246"
         inkscape:connector-curvature="0" />
    </g>
    <g
       id="g26248"
       transform="matrix(0.35277777,0,0,-0.35277777,87.059608,105.92832)">
      <path
         d="M 0,0 0.07,0.021 0.063,0.011 0.004,-0.04 0.007,-0.026 Z"
         style="fill:#6a382a;fill-opacity:1;fill-rule:nonzero;stroke:none"
         id="path26250"
         inkscape:connector-curvature="0" />
    </g>
    <g
       id="g26252"
       transform="matrix(0.35277777,0,0,-0.35277777,87.291098,105.92454)">
      <path
         d="M 0,0 -0.001,-0.121 -0.013,-0.126 Z"
         style="fill:#6a382a;fill-opacity:1;fill-rule:nonzero;stroke:none"
         id="path26254"
         inkscape:connector-curvature="0" />
    </g>
    <g
       id="g26256"
       transform="matrix(0.35277777,0,0,-0.35277777,87.324186,105.97534)">
      <path
         d="M 0,0 -0.046,0.12 0.029,0.048 Z"
         style="fill:#e9d22a;fill-opacity:1;fill-rule:nonzero;stroke:none"
         id="path26258"
         inkscape:connector-curvature="0" />
    </g>
    <g
       id="g26260"
       transform="matrix(0.35277777,0,0,-0.35277777,87.036177,105.96243)">
      <path
         d="M 0,0 0.026,0.023 0.016,-0.001 0.038,0.005 0.029,-0.012 Z"
         style="fill:#6a382a;fill-opacity:1;fill-rule:nonzero;stroke:none"
         id="path26262"
         inkscape:connector-curvature="0" />
    </g>
    <g
       id="g26264"
       transform="matrix(0.35277777,0,0,-0.35277777,87.277337,105.98758)">
      <path
         d="M 0,0 0.134,-0.004 0.178,-0.048 0.19,-0.11 0.204,-0.237 0.182,-0.217 0.17,-0.233 l -0.028,0.004 0.013,0.093 -0.04,0.069 -0.054,0.025 z"
         style="fill:#cb2046;fill-opacity:1;fill-rule:nonzero;stroke:none"
         id="path26266"
         inkscape:connector-curvature="0" />
    </g>
    <g
       id="g26268"
       transform="matrix(0.35277777,0,0,-0.35277777,87.278887,105.99863)">
      <path
         d="m 0,0 0.054,-0.022 v -0.002 l 0.001,-0.071 -0.119,-0.107 -0.062,0.01 0.056,0.034 0.045,0.069 -0.018,0.063 -0.023,0.009 z"
         style="fill:#cb2046;fill-opacity:1;fill-rule:nonzero;stroke:none"
         id="path26270"
         inkscape:connector-curvature="0" />
    </g>
    <g
       id="g26272"
       transform="matrix(0.35277777,0,0,-0.35277777,87.120248,106.00067)">
      <path
         d="M 0,0 0.061,-0.035 0.032,-0.081 0.094,-0.097 0.078,-0.159 0.012,-0.103 -0.021,-0.055 Z"
         style="fill:#cb2046;fill-opacity:1;fill-rule:nonzero;stroke:none"
         id="path26274"
         inkscape:connector-curvature="0" />
    </g>
    <g
       id="g26276"
       transform="matrix(0.35277777,0,0,-0.35277777,87.154006,106.05355)">
      <path
         d="M 0,0 0.013,0.036 0.021,-0.007 Z"
         style="fill:#cb2046;fill-opacity:1;fill-rule:nonzero;stroke:none"
         id="path26278"
         inkscape:connector-curvature="0" />
    </g>
    <g
       id="g26280"
       transform="matrix(0.35277777,0,0,-0.35277777,87.225828,106.07835)">
      <path
         d="M 0,0 0.028,0.029 Z"
         style="fill:#cb2046;fill-opacity:1;fill-rule:nonzero;stroke:none"
         id="path26282"
         inkscape:connector-curvature="0" />
    </g>
    <g
       id="g26284"
       transform="matrix(0.35277777,0,0,-0.35277777,87.172067,106.07475)">
      <path
         d="M 0,0 0.052,0.008 0.036,-0.015 0.005,-0.021 Z"
         style="fill:#cb2046;fill-opacity:1;fill-rule:nonzero;stroke:none"
         id="path26286"
         inkscape:connector-curvature="0" />
    </g>
    <g
       id="g26288"
       transform="matrix(0.35277777,0,0,-0.35277777,87.233067,106.08216)">
      <path
         d="M 0,0 0.013,0.035 0.045,0.027 Z"
         style="fill:#cb2046;fill-opacity:1;fill-rule:nonzero;stroke:none"
         id="path26290"
         inkscape:connector-curvature="0" />
    </g>
    <g
       id="g26292"
       transform="matrix(0.35277777,0,0,-0.35277777,87.322459,106.0713)">
      <path
         d="m 0,0 0.046,-0.003 -0.028,-0.02 -0.025,0.016 z"
         style="fill:#cb2046;fill-opacity:1;fill-rule:nonzero;stroke:none"
         id="path26294"
         inkscape:connector-curvature="0" />
    </g>
    <g
       id="g26296"
       transform="matrix(0.35277777,0,0,-0.35277777,87.037727,106.09818)">
      <path
         d="M 0,0 H 0.023 L 0.04,-0.027 0.144,-0.029 0.157,-0.004 H 0.18 L 0.174,-0.047 0.275,-0.079 0.424,-0.078 0.595,-0.082 0.742,-0.069 0.798,-0.106 0.885,-0.184 0.877,-0.266 0.829,-0.304 0.835,-0.321 0.873,-0.35 0.886,-0.461 0.895,-0.532 0.867,-0.535 0.819,-0.568 l -0.03,0.019 0.045,0.07 -0.027,0.097 -0.055,0.033 V -0.424 L 0.71,-0.461 0.625,-0.541 H 0.612 l -0.055,-0.033 -0.008,0.015 -0.026,0.002 0.03,0.041 0.051,0.028 0.054,0.087 -0.021,0.036 -0.03,0.023 -0.15,-0.056 0.012,-0.13 -0.026,0.005 -0.018,-0.049 -0.046,-0.001 -0.001,0.012 -0.016,0.005 0.017,0.035 0.02,0.117 -0.097,0.023 -0.03,-0.03 0.066,-0.014 0.004,-0.019 0.019,-0.008 0.008,-0.015 -0.034,-0.048 -0.096,0.072 -0.031,0.049 0.025,0.067 -0.049,0.05 L 0.199,-0.329 0.187,-0.34 0.161,-0.359 0.145,-0.342 0.131,-0.326 0.146,-0.269 0.132,-0.218 0.09,-0.229 0.046,-0.261 0,-0.253 l -0.037,0.046 0.04,0.043 0.004,0.053 0.02,0.045 z"
         style="fill:#6a382a;fill-opacity:1;fill-rule:nonzero;stroke:none"
         id="path26298"
         inkscape:connector-curvature="0" />
    </g>
    <g
       id="g26300"
       transform="matrix(0.35277777,0,0,-0.35277777,87.041188,106.0992)">
      <path
         d="M 0,0 0.024,-0.053 Z"
         style="fill:#cb2046;fill-opacity:1;fill-rule:nonzero;stroke:none"
         id="path26302"
         inkscape:connector-curvature="0" />
    </g>
    <g
       id="g26304"
       transform="matrix(0.35277777,0,0,-0.35277777,87.089236,106.11988)">
      <path
         d="M 0,0 0.023,0.056 Z"
         style="fill:#cb2046;fill-opacity:1;fill-rule:nonzero;stroke:none"
         id="path26306"
         inkscape:connector-curvature="0" />
    </g>
    <g
       id="g26308"
       transform="matrix(0.35277777,0,0,-0.35277777,87.053568,106.11056)">
      <path
         d="m 0,0 h 0.092 l 0.009,-0.032 0.07,-0.007 -0.009,-0.101 -0.037,-0.066 -0.033,0.027 0.029,0.03 -0.006,0.006 -0.084,-0.046 -0.009,0.024 -0.024,-0.052 -0.068,0.044 0.046,0.068 0.015,0.009 -0.026,0.003 z"
         style="fill:#cb2046;fill-opacity:1;fill-rule:nonzero;stroke:none"
         id="path26310"
         inkscape:connector-curvature="0" />
    </g>
    <g
       id="g26312"
       transform="matrix(0.35277777,0,0,-0.35277777,87.054277,106.11797)">
      <path
         d="M 0,0 0.05,-0.01 Z"
         style="fill:#6a382a;fill-opacity:1;fill-rule:nonzero;stroke:none"
         id="path26314"
         inkscape:connector-curvature="0" />
    </g>
    <g
       id="g26316"
       transform="matrix(0.35277777,0,0,-0.35277777,87.264608,106.12813)">
      <path
         d="M 0,0 0.073,0.012 0.12,-0.029 0.091,0.01 0.182,-0.054 0.236,-0.108 0.207,-0.196 0.139,-0.209 0.05,-0.204 l -0.105,0.068 -0.054,-0.001 -0.065,0.013 0.064,-0.001 -0.056,0.015 0.066,0.014 -0.076,0.001 0.08,0.01 0.122,-0.087 0.138,-0.015 0.042,0.077 -0.09,0.053 0.046,-0.122 -0.137,0.016 -0.122,0.087 -0.095,-0.013 0.009,-0.024 -0.004,-0.016 0.067,-0.018 0.048,0.009 0.06,-0.039 0.058,-0.055 -0.076,-0.019 -0.158,-0.055 -0.007,0.116 0.014,-0.245 -0.021,0.005 -0.058,-0.02 0.03,0.112 -0.032,0.055 -0.056,0.042 -0.036,0.055 0.052,-0.081 0.055,-0.043 -0.08,0.017 -0.123,0.104 0.061,0.079 -0.02,-0.101 0.029,0.095 v 0.113 l 0.126,0.004 -0.008,-0.041 0.029,-0.018 -0.024,0.032 0.019,0.028 0.148,-0.007 z"
         style="fill:#cb2046;fill-opacity:1;fill-rule:nonzero;stroke:none"
         id="path26318"
         inkscape:connector-curvature="0" />
    </g>
    <g
       id="g26320"
       transform="matrix(0.35277777,0,0,-0.35277777,87.061688,106.14277)">
      <path
         d="m 0,0 0.069,0.016 -0.065,-0.058 0.001,0.015 -0.009,0.013 z"
         style="fill:#6a382a;fill-opacity:1;fill-rule:nonzero;stroke:none"
         id="path26322"
         inkscape:connector-curvature="0" />
    </g>
    <g
       id="g26324"
       transform="matrix(0.35277777,0,0,-0.35277777,87.289047,106.18567)">
      <path
         d="M 0,0 0.011,0.13 0.016,0.035 Z"
         style="fill:#6a382a;fill-opacity:1;fill-rule:nonzero;stroke:none"
         id="path26326"
         inkscape:connector-curvature="0" />
    </g>
    <g
       id="g26328"
       transform="matrix(0.35277777,0,0,-0.35277777,87.308348,106.14898)">
      <path
         d="m 0,0 0.077,-0.069 -0.03,-0.05 z"
         style="fill:#e9d22a;fill-opacity:1;fill-rule:nonzero;stroke:none"
         id="path26330"
         inkscape:connector-curvature="0" />
    </g>
    <g
       id="g26332"
       transform="matrix(0.35277777,0,0,-0.35277777,87.037198,106.18016)">
      <path
         d="M 0,0 0.027,0.029 0.015,0.003 0.04,0.011 Z"
         style="fill:#6a382a;fill-opacity:1;fill-rule:nonzero;stroke:none"
         id="path26334"
         inkscape:connector-curvature="0" />
    </g>
    <g
       id="g26336"
       transform="matrix(0.35277777,0,0,-0.35277777,87.278887,106.20341)">
      <path
         d="M 0,0 0.133,-0.002 0.18,-0.046 0.189,-0.119 0.204,-0.237 0.18,-0.217 0.171,-0.231 0.14,-0.23 0.162,-0.164 0.143,-0.112 0.118,-0.069 0.064,-0.045 Z"
         style="fill:#cb2046;fill-opacity:1;fill-rule:nonzero;stroke:none"
         id="path26338"
         inkscape:connector-curvature="0" />
    </g>
    <g
       id="g26340"
       transform="matrix(0.35277777,0,0,-0.35277777,87.258038,106.21943)">
      <path
         d="M 0,0 0.073,0.02 0.117,-0.009 V -0.082 L 0,-0.187 l -0.063,0.009 0.058,0.036 0.045,0.082 z"
         style="fill:#cb2046;fill-opacity:1;fill-rule:nonzero;stroke:none"
         id="path26342"
         inkscape:connector-curvature="0" />
    </g>
    <g
       id="g26344"
       transform="matrix(0.35277777,0,0,-0.35277777,87.115057,106.24148)">
      <path
         d="M 0,0 0.019,0.072 0.076,0.035 0.054,-0.012 0.113,-0.027 0.099,-0.092 0.05,-0.048 Z"
         style="fill:#cb2046;fill-opacity:1;fill-rule:nonzero;stroke:none"
         id="path26346"
         inkscape:connector-curvature="0" />
    </g>
    <g
       id="g26348"
       transform="matrix(0.35277777,0,0,-0.35277777,87.225658,106.29281)">
      <path
         d="M 0,0 0.028,0.027 Z"
         style="fill:#cb2046;fill-opacity:1;fill-rule:nonzero;stroke:none"
         id="path26350"
         inkscape:connector-curvature="0" />
    </g>
    <g
       id="g26352"
       transform="matrix(0.35277777,0,0,-0.35277777,87.239448,106.28681)">
      <path
         d="M 0,0 0.031,-0.003 -0.016,-0.031 Z"
         style="fill:#cb2046;fill-opacity:1;fill-rule:nonzero;stroke:none"
         id="path26354"
         inkscape:connector-curvature="0" />
    </g>
    <g
       id="g26356"
       transform="matrix(0.35277777,0,0,-0.35277777,87.321607,106.28801)">
      <path
         d="m 0,0 0.052,-0.001 -0.03,-0.02 z"
         style="fill:#cb2046;fill-opacity:1;fill-rule:nonzero;stroke:none"
         id="path26358"
         inkscape:connector-curvature="0" />
    </g>
    <g
       id="g26360"
       transform="matrix(0.35277777,0,0,-0.35277777,87.174147,106.29006)">
      <path
         d="M 0,0 0.049,0.003 0,-0.024 Z"
         style="fill:#cb2046;fill-opacity:1;fill-rule:nonzero;stroke:none"
         id="path26362"
         inkscape:connector-curvature="0" />
    </g>
    <g
       id="g26364"
       transform="matrix(0.35277777,0,0,-0.35277777,86.089818,105.0843)">
      <path
         d="m 0,0 -0.05,-0.112 c -0.002,-0.092 0.049,-0.177 0.112,-0.239 l 0.124,-0.092 c 0.08,-0.069 0.137,-0.166 0.144,-0.273 l -0.024,-0.11 0.026,-0.04 -0.02,-0.03 -0.018,0.047 -0.048,-0.044 -0.011,-0.053 0.1,-0.057 0.127,0.13 0.004,0.098 -0.049,0.213 -0.101,0.133 c -0.088,0.088 -0.177,0.177 -0.247,0.281 z"
         style="fill:#c3b182;fill-opacity:1;fill-rule:nonzero;stroke:none"
         id="path26366"
         inkscape:connector-curvature="0" />
    </g>
    <g
       id="g26368"
       transform="matrix(0.35277777,0,0,-0.35277777,86.125447,105.40638)">
      <path
         d="m 0,0 c -0.124,0.018 -0.253,0.008 -0.366,-0.046 -0.099,-0.048 -0.177,-0.131 -0.224,-0.229 -0.087,-0.182 -0.081,-0.405 0.009,-0.585 0.054,-0.108 0.144,-0.202 0.257,-0.246 l 0.239,-0.005 0.068,0.009 0.091,0.101 -0.032,0.094 -0.115,-0.024 0.002,-0.031 0.039,-0.006 -0.035,-0.031 -0.234,0.028 -0.147,0.21 c -0.031,0.12 -0.02,0.248 0.022,0.364 l 0.169,0.206 0.122,0.04 0.092,-0.015 0.135,-0.117 c 0.02,0.092 0.01,0.187 -0.013,0.276 z"
         style="fill:#c3b182;fill-opacity:1;fill-rule:nonzero;stroke:none"
         id="path26370"
         inkscape:connector-curvature="0" />
    </g>
    <g
       id="g26372"
       transform="matrix(0.35277777,0,0,-0.35277777,86.122198,105.81652)">
      <path
         d="m 0,0 -0.063,0.015 -0.245,0.003 -0.001,-0.216 0.012,0.089 0.167,0.067 0.144,-0.071 C 0.096,-0.197 0.137,-0.314 0.148,-0.429 0.156,-0.528 0.152,-0.629 0.12,-0.724 0.088,-0.82 0.028,-0.907 -0.05,-0.971 l -0.133,-0.079 -0.158,-0.017 -0.102,0.076 -0.015,0.065 -0.057,-0.195 0.083,-0.124 0.121,-0.029 c 0.183,0.029 0.352,0.138 0.451,0.295 0.11,0.171 0.132,0.387 0.096,0.585 -0.024,0.102 -0.065,0.202 -0.125,0.288 z"
         style="fill:#c3b182;fill-opacity:1;fill-rule:nonzero;stroke:none"
         id="path26374"
         inkscape:connector-curvature="0" />
    </g>
    <g
       id="g26376"
       transform="matrix(0.35277777,0,0,-0.35277777,86.110807,105.85445)">
      <path
         d="m 0,0 -0.158,0.042 -0.095,-0.078 0.05,-0.092 0.073,0.014 -0.025,0.041 0.041,-0.013 -0.006,-0.058 0.058,0.004 C -0.004,-0.23 0,-0.343 -0.017,-0.446 -0.035,-0.543 -0.069,-0.642 -0.13,-0.72 l -0.071,-0.068 -0.038,0.014 -0.018,-0.044 -0.041,-0.003 0.031,0.027 -0.013,0.028 -0.096,-0.018 -0.023,-0.053 0.055,-0.083 0.185,0.001 0.074,0.051 0.181,0.21 c 0.047,0.104 0.058,0.221 0.047,0.334 l -0.09,0.253 z"
         style="fill:#c3b182;fill-opacity:1;fill-rule:nonzero;stroke:none"
         id="path26378"
         inkscape:connector-curvature="0" />
    </g>
    <g
       id="g26380"
       transform="matrix(0.35277777,0,0,-0.35277777,86.888897,105.83702)">
      <path
         d="M 0,0 C -0.517,0.002 -1.033,0.004 -1.55,0.007 -1.556,-0.277 -1.554,-0.562 -1.555,-0.845 V -1.08 l 0.083,-0.166 0.215,-0.172 0.199,-0.058 c 0.278,0.006 0.556,0.024 0.833,0.035 l 0.127,-0.012 0.101,-0.066 C 0.002,-1.013 0.001,-0.507 0,0"
         style="fill:#e9d22a;fill-opacity:1;fill-rule:nonzero;stroke:none"
         id="path26382"
         inkscape:connector-curvature="0" />
    </g>
    <g
       id="g26384"
       transform="matrix(0.35277777,0,0,-0.35277777,86.764368,105.8367)">
      <path
         d="m 0,0 v -1.448 l 0.128,0.006 0.101,-0.004 c 0,0.481 0,0.963 0,1.445 z"
         style="fill:#cb2046;fill-opacity:1;fill-rule:nonzero;stroke:none"
         id="path26386"
         inkscape:connector-curvature="0" />
    </g>
    <g
       id="g26388"
       transform="matrix(0.35277777,0,0,-0.35277777,86.385238,105.8348)">
      <path
         d="m 0,0 c 0,-0.434 0,-0.867 0,-1.299 l 0.17,-0.125 0.06,-0.029 c -0.001,0.484 0,0.968 0,1.453 z"
         style="fill:#cb2046;fill-opacity:1;fill-rule:nonzero;stroke:none"
         id="path26390"
         inkscape:connector-curvature="0" />
    </g>
    <g
       id="g26392"
       transform="matrix(0.35277777,0,0,-0.35277777,86.593659,105.83564)">
      <path
         d="m 0,0 -0.229,0.001 v -1.48 h 0.008 L 0,-1.473 C 0,-0.982 0.001,-0.491 0,0"
         style="fill:#cb2046;fill-opacity:1;fill-rule:nonzero;stroke:none"
         id="path26394"
         inkscape:connector-curvature="0" />
    </g>
    <g
       id="g26396"
       transform="matrix(0.35277777,0,0,-0.35277777,86.641207,105.83599)">
      <path
         d="m 0,0 v -1.466 l 0.23,0.01 v 1.455 z"
         style="fill:#cb2046;fill-opacity:1;fill-rule:nonzero;stroke:none"
         id="path26398"
         inkscape:connector-curvature="0" />
    </g>
    <g
       id="g26400"
       transform="matrix(0.35277777,0,0,-0.35277777,87.116118,105.91318)">
      <path
         d="m 0,0 -0.055,-0.16 -0.025,0.014 0.006,-0.033 -0.016,-0.056 h 0.057 l -0.013,0.041 c 0.004,0.013 0.088,0.063 0.079,0.19 l -0.035,0.011 z"
         style="fill:#3a6ebf;fill-opacity:1;fill-rule:nonzero;stroke:none"
         id="path26402"
         inkscape:connector-curvature="0" />
    </g>
    <g
       id="g26404"
       transform="matrix(0.35277777,0,0,-0.35277777,87.117497,106.12919)">
      <path
         d="m 0,0 -0.055,-0.16 -0.024,0.014 0.005,-0.033 -0.016,-0.056 h 0.057 l -0.013,0.04 c 0.005,0.013 0.088,0.063 0.08,0.19 l -0.036,0.011 z"
         style="fill:#3a6ebf;fill-opacity:1;fill-rule:nonzero;stroke:none"
         id="path26406"
         inkscape:connector-curvature="0" />
    </g>
  </g>
</svg>
