<?xml version="1.0" encoding="UTF-8" standalone="no"?>
<!-- Created with Inkscape (http://www.inkscape.org/) -->

<svg
   xmlns:dc="http://purl.org/dc/elements/1.1/"
   xmlns:cc="http://creativecommons.org/ns#"
   xmlns:rdf="http://www.w3.org/1999/02/22-rdf-syntax-ns#"
   xmlns:svg="http://www.w3.org/2000/svg"
   xmlns="http://www.w3.org/2000/svg"
   xmlns:sodipodi="http://sodipodi.sourceforge.net/DTD/sodipodi-0.dtd"
   xmlns:inkscape="http://www.inkscape.org/namespaces/inkscape"
   width="7.084836mm"
   height="4.7328668mm"
   viewBox="0 0 7.084836 4.7328668"
   version="1.1"
   id="svg8"
   inkscape:version="0.92.4 (5da689c313, 2019-01-14)"
   sodipodi:docname="belarus.svg">
  <defs
     id="defs2" />
  <sodipodi:namedview
     id="base"
     pagecolor="#ffffff"
     bordercolor="#666666"
     borderopacity="1.0"
     inkscape:pageopacity="0.0"
     inkscape:pageshadow="2"
     inkscape:zoom="11.2"
     inkscape:cx="24.57597"
     inkscape:cy="1.1974206"
     inkscape:document-units="mm"
     inkscape:current-layer="layer1"
     showgrid="false"
     inkscape:window-width="954"
     inkscape:window-height="630"
     inkscape:window-x="-3"
     inkscape:window-y="6"
     inkscape:window-maximized="0" />
  <metadata
     id="metadata5">
    <rdf:RDF>
      <cc:Work
         rdf:about="">
        <dc:format>image/svg+xml</dc:format>
        <dc:type
           rdf:resource="http://purl.org/dc/dcmitype/StillImage" />
        <dc:title></dc:title>
      </cc:Work>
    </rdf:RDF>
  </metadata>
  <g
     inkscape:label="Layer 1"
     inkscape:groupmode="layer"
     id="layer1"
     transform="translate(-79.79544,-94.914827)">
    <g
       id="g10478"
       transform="matrix(0.35277777,0,0,-0.35277777,79.824721,99.618413)">
      <path
         d="M 0,0 H 19.917 L 19.916,13.25 H 0 Z M 19.958,-0.042 V 0 Z M -0.083,-0.083 V 13.333 H 20 V -0.042 -0.083 Z"
         style="fill:#221f21;fill-opacity:1;fill-rule:nonzero;stroke:none"
         id="path10480"
         inkscape:connector-curvature="0" />
    </g>
    <path
       d="m 79.810183,99.633371 h 7.05556 v -1.567745 h -7.05556 z"
       style="fill:#3b993e;fill-opacity:1;fill-rule:nonzero;stroke:none;stroke-width:0.35277778"
       id="path10482"
       inkscape:connector-curvature="0" />
    <path
       d="m 79.810183,98.065274 h 7.05556 v -3.135842 h -7.05556 z"
       style="fill:#be2329;fill-opacity:1;fill-rule:nonzero;stroke:none;stroke-width:0.35277778"
       id="path10484"
       inkscape:connector-curvature="0" />
    <path
       d="m 80.782443,99.633371 h -0.97226 v -4.703586 h 0.97226 z"
       style="fill:#ffffff;fill-opacity:1;fill-rule:nonzero;stroke:none;stroke-width:0.35277778"
       id="path10486"
       inkscape:connector-curvature="0" />
    <g
       id="g10488"
       transform="matrix(0.35277777,0,0,-0.35277777,79.904482,94.929467)">
      <path
         d="M 0,0 H 0.521 V -0.308 H 0.391 V -0.614 L 0.265,-0.615 0.26,-0.632 c 0,-0.096 0,-0.193 0,-0.29 H 0.129 V -1.229 H 0 v 0.615 h 0.132 v 0.367 H 0 Z"
         style="fill:#ffffff;fill-opacity:1;fill-rule:nonzero;stroke:none"
         id="path10490"
         inkscape:connector-curvature="0" />
    </g>
    <g
       id="g10492"
       transform="matrix(0.35277777,0,0,-0.35277777,80.08846,94.929467)">
      <path
         d="m 0,0 h 0.133 v -0.308 h 0.131 v -0.306 h 0.131 c 0,-0.103 -0.001,-0.205 0,-0.308 h 0.13 v -0.307 h 0.128 c 0,0.103 0,0.205 0,0.307 h 0.131 c 0,0.103 0,0.205 0,0.308 h 0.131 v 0.306 h 0.13 V 0 h 0.133 v -0.308 h 0.131 v -0.306 l 0.126,-0.001 0.004,-0.004 c 10e-4,-0.1 0,-0.202 10e-4,-0.303 h 0.131 c 0,-0.102 -10e-4,-0.204 0,-0.307 H 1.7 V -1.538 H 1.57 V -1.844 H 1.44 c -10e-4,-0.102 -10e-4,-0.204 0,-0.305 L 1.309,-2.152 V -2.458 H 1.178 v -0.309 l -0.133,0.002 c 0,0.102 0,0.205 0,0.307 h -0.13 v 0.306 H 0.784 c 0,0.103 0,0.205 0,0.308 H 0.653 c 0,0.102 0,0.205 0,0.306 H 0.525 v -0.306 h -0.13 c -0.001,-0.103 0,-0.205 0,-0.308 H 0.264 V -2.458 H 0.133 c 0,-0.103 0,-0.205 0,-0.307 L 0,-2.767 v 0.309 h -0.13 v 0.306 l -0.132,0.002 c 0.001,0.102 0.001,0.204 0,0.306 h -0.13 v 0.306 h -0.129 v 0.309 h 0.129 v 0.307 h 0.13 c 0.001,0.097 0.001,0.194 0,0.29 l 0.006,0.017 0.126,0.001 v 0.306 H 0 Z"
         style="fill:#be2329;fill-opacity:1;fill-rule:nonzero;stroke:none"
         id="path10494"
         inkscape:connector-curvature="0" />
    </g>
    <g
       id="g10496"
       transform="matrix(0.35277777,0,0,-0.35277777,80.135482,94.929467)">
      <path
         d="M 0,0 H 0.912 V -0.308 H 0.782 V -0.614 H 0.651 C 0.65,-0.717 0.651,-0.819 0.65,-0.922 H 0.52 c 0,-0.102 0,-0.204 0,-0.307 H 0.392 v 0.307 H 0.261 c -0.001,0.103 0,0.205 0,0.308 H 0.13 v 0.306 H 0 Z"
         style="fill:#ffffff;fill-opacity:1;fill-rule:nonzero;stroke:none"
         id="path10498"
         inkscape:connector-curvature="0" />
    </g>
    <g
       id="g10500"
       transform="matrix(0.35277777,0,0,-0.35277777,80.503922,94.929467)">
      <path
         d="M 0,0 H 0.522 V -0.247 H 0.39 V -0.614 H 0.522 V -1.229 H 0.393 c 0,0.103 0,0.205 0,0.307 H 0.262 c 0,0.101 0.001,0.203 0,0.303 l -0.005,0.004 -0.126,0.001 v 0.306 H 0 Z"
         style="fill:#ffffff;fill-opacity:1;fill-rule:nonzero;stroke:none"
         id="path10502"
         inkscape:connector-curvature="0" />
    </g>
    <g
       id="g10504"
       transform="matrix(0.35277777,0,0,-0.35277777,79.904482,95.016462)">
      <path
         d="M 0,0 H 0.132 V -0.367 L 0,-0.368 Z"
         style="fill:#be2329;fill-opacity:1;fill-rule:nonzero;stroke:none"
         id="path10506"
         inkscape:connector-curvature="0" />
    </g>
    <g
       id="g10508"
       transform="matrix(0.35277777,0,0,-0.35277777,80.27257,95.016639)">
      <path
         d="m 0,0 h 0.133 c 0,-0.122 0,-0.244 0.001,-0.367 H 0 C 0,-0.245 0,-0.122 0,0"
         style="fill:#be2329;fill-opacity:1;fill-rule:nonzero;stroke:none"
         id="path10510"
         inkscape:connector-curvature="0" />
    </g>
    <g
       id="g10512"
       transform="matrix(0.35277777,0,0,-0.35277777,80.64136,95.016639)">
      <path
         d="M 0,0 H 0.132 V -0.367 H 0 Z"
         style="fill:#be2329;fill-opacity:1;fill-rule:nonzero;stroke:none"
         id="path10514"
         inkscape:connector-curvature="0" />
    </g>
    <g
       id="g10516"
       transform="matrix(0.35277777,0,0,-0.35277777,80.089129,95.146179)">
      <path
         d="m 0,0 h 0.128 c 0.001,-0.103 0,-0.206 0,-0.308 L 0.262,-0.309 0.26,-0.519 0.262,-0.615 0.39,-0.614 c 0.001,-0.103 0.001,-0.206 0,-0.309 H 0.262 L 0.261,-0.992 V -1.096 L 0.259,-1.229 H 0.128 V -1.536 L 0,-1.535 v 0.306 h -0.13 c -0.001,0.102 0,0.204 -0.001,0.306 H -0.26 c -0.001,0.103 -0.001,0.206 0,0.308 h 0.129 c 0,0.102 0,0.204 0.001,0.307 L -0.002,-0.309 0,-0.285 C 0,-0.189 0,-0.095 0,0"
         style="fill:#ffffff;fill-opacity:1;fill-rule:nonzero;stroke:none"
         id="path10518"
         inkscape:connector-curvature="0" />
    </g>
    <g
       id="g10520"
       transform="matrix(0.35277777,0,0,-0.35277777,80.458101,95.254869)">
      <path
         d="m 0,0 c 0.001,0.103 -0.001,0.205 0.001,0.308 h 0.127 c 0.001,-0.095 0,-0.189 0,-0.285 L 0.131,0 h 0.128 c 0,-0.103 0,-0.205 0,-0.307 h 0.13 c 0,-0.102 0,-0.205 0,-0.308 h -0.13 c 0,-0.102 0,-0.204 0,-0.305 H 0.13 C 0.127,-1.016 0.129,-1.111 0.129,-1.207 L 0.128,-1.227 H 0 v 0.306 l -0.13,0.001 v 0.305 h -0.132 c 0,0.103 0,0.206 0,0.308 l 0.132,0.001 V 0 Z"
         style="fill:#ffffff;fill-opacity:1;fill-rule:nonzero;stroke:none"
         id="path10522"
         inkscape:connector-curvature="0" />
    </g>
    <g
       id="g10524"
       transform="matrix(0.35277777,0,0,-0.35277777,80.08846,95.36289)">
      <path
         d="M 0,0 H 0.133 V -0.309 H 0 Z"
         style="fill:#be2329;fill-opacity:1;fill-rule:nonzero;stroke:none"
         id="path10526"
         inkscape:connector-curvature="0" />
    </g>
    <g
       id="g10528"
       transform="matrix(0.35277777,0,0,-0.35277777,80.457249,95.465372)">
      <path
         d="m 0,0 v 0.291 h 0.132 v -0.31 h -0.13 z"
         style="fill:#be2329;fill-opacity:1;fill-rule:nonzero;stroke:none"
         id="path10530"
         inkscape:connector-curvature="0" />
    </g>
    <g
       id="g10532"
       transform="matrix(0.35277777,0,0,-0.35277777,79.904482,95.471898)">
      <path
         d="M 0,0 H 0.129 V -0.306 L 0.26,-0.307 c 0,-0.101 0,-0.204 0,-0.306 L 0.391,-0.614 V -0.92 h 0.13 v -0.309 l 0.134,0.002 C 0.654,-1.125 0.654,-1.023 0.654,-0.92 h 0.131 v 0.306 h 0.131 c 0,0.103 -0.001,0.205 0,0.307 l 0.131,0.001 V 0 h 0.127 c 0,-0.102 0.001,-0.205 0,-0.306 l 0.131,-0.001 c 0.001,-0.102 0,-0.204 0.001,-0.307 H 1.437 V -0.92 h 0.13 c 0,-0.102 0,-0.205 -10e-4,-0.307 l 0.133,-0.002 v 0.309 h 0.132 v 0.306 l 0.13,0.002 c 0,0.102 0,0.204 0,0.305 l 0.131,0.001 V 0 H 2.221 V -0.489 L 2.089,-0.49 c 10e-4,-0.123 0,-0.247 0,-0.37 h 0.132 v -0.49 l -0.067,0.001 v 0.184 H 2.092 L 2.089,-0.98 H 1.893 L 1.892,-1.165 H 1.827 V -1.349 H 1.762 V -1.595 H 1.827 V -1.78 h 0.066 v -0.184 h 0.196 v 0.184 h 0.065 v 0.185 H 2.221 V -2.087 H 2.089 c 0,-0.123 10e-4,-0.246 0,-0.369 l 0.132,-10e-4 v -0.491 l -0.129,10e-4 v 0.306 H 1.961 c 0,0.102 0,0.204 0,0.306 l -0.13,10e-4 c -0.002,0.102 0.002,0.205 -0.002,0.308 H 1.699 V -1.72 H 1.567 V -2.026 H 1.437 V -2.334 L 1.306,-2.335 V -2.641 H 1.174 v -0.307 l -0.127,10e-4 v 0.306 H 0.916 v 0.307 h -0.13 c -0.002,0.102 0,0.205 -0.001,0.308 H 0.654 V -1.72 H 0.521 v -0.306 h -0.13 c 0,-0.103 0.001,-0.206 0,-0.308 L 0.26,-2.335 c 0,-0.102 0,-0.204 0,-0.306 H 0.129 V -2.948 L 0,-2.946 v 0.489 h 0.132 v 0.37 H 0 v 0.49 h 0.063 v -0.184 h 0.066 v -0.185 h 0.197 v 0.185 h 0.067 v 0.184 H 0.459 V -1.35 H 0.393 v 0.184 H 0.328 L 0.326,-0.981 H 0.129 V -1.166 H 0.064 L 0.063,-1.35 H 0 v 0.49 h 0.132 v 0.37 L 0,-0.489 Z"
         style="fill:#ffffff;fill-opacity:1;fill-rule:nonzero;stroke:none"
         id="path10534"
         inkscape:connector-curvature="0" />
    </g>
    <g
       id="g10536"
       transform="matrix(0.35277777,0,0,-0.35277777,79.904482,95.644512)">
      <path
         d="m 0,0 0.132,-0.001 v -0.37 H 0 Z"
         style="fill:#be2329;fill-opacity:1;fill-rule:nonzero;stroke:none"
         id="path10538"
         inkscape:connector-curvature="0" />
    </g>
    <g
       id="g10540"
       transform="matrix(0.35277777,0,0,-0.35277777,80.27275,95.644865)">
      <path
         d="m 0,0 h 0.133 c 0,-0.123 0.001,-0.247 0,-0.37 H 0.008 L 0,-0.352 Z"
         style="fill:#be2329;fill-opacity:1;fill-rule:nonzero;stroke:none"
         id="path10542"
         inkscape:connector-curvature="0" />
    </g>
    <g
       id="g10544"
       transform="matrix(0.35277777,0,0,-0.35277777,80.64136,95.644865)">
      <path
         d="M 0,0 0.132,0.001 V -0.37 H 0 C 0,-0.247 0.001,-0.123 0,0"
         style="fill:#be2329;fill-opacity:1;fill-rule:nonzero;stroke:none"
         id="path10546"
         inkscape:connector-curvature="0" />
    </g>
    <g
       id="g10548"
       transform="matrix(0.35277777,0,0,-0.35277777,80.57211,95.817797)">
      <path
         d="m 0,0 h 0.196 l 0.003,-0.185 0.063,0.001 V -0.369 H 0.329 V -0.615 H 0.262 V -0.8 H 0.196 V -0.984 H 0 V -0.8 h -0.066 v 0.185 h -0.065 v 0.246 h 0.065 v 0.185 h 0.065 z"
         style="fill:#be2329;fill-opacity:1;fill-rule:nonzero;stroke:none"
         id="path10550"
         inkscape:connector-curvature="0" />
    </g>
    <g
       id="g10552"
       transform="matrix(0.35277777,0,0,-0.35277777,79.95013,95.817973)">
      <path
         d="M 0,0 H 0.196 L 0.199,-0.185 H 0.263 L 0.264,-0.369 H 0.33 V -0.616 H 0.264 L 0.263,-0.8 H 0.196 V -0.985 H 0 V -0.8 h -0.066 v 0.184 h -0.063 v 0.247 h 0.063 l 0.001,0.184 H 0 Z"
         style="fill:#be2329;fill-opacity:1;fill-rule:nonzero;stroke:none"
         id="path10554"
         inkscape:connector-curvature="0" />
    </g>
    <g
       id="g10556"
       transform="matrix(0.35277777,0,0,-0.35277777,80.203501,95.883272)">
      <path
         d="M 0,0 V 0.184 H 0.199 V 0 H 0.327 V 0.184 L 0.526,0.185 V 0 H 0.591 V -0.184 H 0.655 V -0.431 H 0.592 L 0.591,-0.615 H 0.526 V -0.8 H 0.327 v 0.185 H 0.199 V -0.8 H 0 v 0.185 h -0.062 l -0.003,0.184 H -0.13 v 0.247 h 0.065 L -0.063,-0.122 -0.062,0 Z"
         style="fill:#be2329;fill-opacity:1;fill-rule:nonzero;stroke:none"
         id="path10558"
         inkscape:connector-curvature="0" />
    </g>
    <g
       id="g10560"
       transform="matrix(0.35277777,0,0,-0.35277777,79.973731,95.926841)">
      <path
         d="M 0,0 H 0.064 L 0.063,-0.122 0.129,-0.123 0.13,-0.173 0.131,-0.233 0.128,-0.246 H 0.063 L 0.064,-0.368 H 0 v 0.123 l -0.064,-0.001 v 0.123 H 0 Z"
         style="fill:#ffffff;fill-opacity:1;fill-rule:nonzero;stroke:none"
         id="path10562"
         inkscape:connector-curvature="0" />
    </g>
    <g
       id="g10564"
       transform="matrix(0.35277777,0,0,-0.35277777,80.227631,95.926841)">
      <path
         d="M 0,0 H 0.062 V -0.122 L 0.127,-0.123 V -0.246 H 0.062 V -0.368 H 0 v 0.122 h -0.065 v 0.123 H 0 Z"
         style="fill:#ffffff;fill-opacity:1;fill-rule:nonzero;stroke:none"
         id="path10566"
         inkscape:connector-curvature="0" />
    </g>
    <g
       id="g10568"
       transform="matrix(0.35277777,0,0,-0.35277777,80.343021,95.926841)">
      <path
         d="M 0,0 H 0.062 V -0.123 H 0.127 V -0.245 L 0.062,-0.246 V -0.368 H 0 v 0.122 l -0.065,0.001 v 0.122 L 0,-0.122 Z"
         style="fill:#ffffff;fill-opacity:1;fill-rule:nonzero;stroke:none"
         id="path10570"
         inkscape:connector-curvature="0" />
    </g>
    <g
       id="g10572"
       transform="matrix(0.35277777,0,0,-0.35277777,80.595222,95.926841)">
      <path
         d="M 0,0 H 0.064 V -0.122 H 0.13 V -0.243 H 0.065 L 0.064,-0.366 H 0 v 0.123 h -0.065 v 0.12 L 0,-0.122 Z"
         style="fill:#ffffff;fill-opacity:1;fill-rule:nonzero;stroke:none"
         id="path10574"
         inkscape:connector-curvature="0" />
    </g>
    <g
       id="g10576"
       transform="matrix(0.35277777,0,0,-0.35277777,80.08846,96.078606)">
      <path
         d="m 0,0 h 0.133 v -0.307 h 0.131 c 0,-0.103 -0.001,-0.205 0,-0.308 h 0.131 v -0.306 h 0.13 v -0.307 h 0.128 v 0.307 h 0.131 v 0.306 h 0.131 v 0.308 h 0.13 V 0 h 0.133 v -0.307 h 0.129 c 0.004,-0.102 0,-0.205 0.002,-0.308 H 1.44 c -10e-4,-0.102 -10e-4,-0.204 0,-0.306 H 1.57 V -1.228 H 1.7 V -1.537 H 1.57 c 0,-0.102 -0.001,-0.204 0,-0.306 H 1.44 c -10e-4,-0.103 0,-0.205 -10e-4,-0.308 H 1.309 V -2.457 H 1.176 c 0.001,0.102 0,0.204 0,0.306 H 1.045 c 0,0.103 0.001,0.205 0,0.308 h -0.13 c 0,0.102 -0.002,0.204 0.001,0.306 l 0.129,10e-4 c 0,0.123 0,0.246 0,0.369 H 0.917 L 0.915,-1.284 0.917,-1.413 H 0.786 c -0.001,-0.165 0,-0.328 0,-0.493 H 0.722 v -0.306 h 0.195 v -0.245 h 0.131 v -0.185 h 0.13 v -0.306 h 0.129 c 0,0.101 0,0.204 0,0.306 h 0.13 v 0.185 h 0.13 v 0.183 L 1.7,-2.273 V -2.827 H 1.57 V -3.072 L 1.44,-3.073 1.439,-3.284 1.435,-3.288 1.309,-3.289 v -0.245 h 0.13 V -3.748 H 1.57 V -3.993 H 1.7 v -0.555 l -0.133,0.001 v 0.184 l -0.13,0.001 v 0.184 h -0.13 v 0.306 H 1.178 V -4.178 H 1.049 L 1.048,-4.362 0.917,-4.363 V -4.608 H 0.722 c -0.001,-0.103 -0.001,-0.205 0,-0.308 l 0.064,-10e-4 v -0.49 h 0.129 v -0.245 h 0.13 c 0,0.122 0,0.245 0,0.367 h -0.13 v 0.308 h 0.13 v 0.306 h 0.13 c 0.002,0.103 10e-4,0.206 10e-4,0.309 h 0.133 c 0,-0.103 -10e-4,-0.206 0,-0.309 H 1.44 c -10e-4,-0.102 0,-0.204 -10e-4,-0.306 L 1.57,-4.978 V -5.283 H 1.7 V -5.592 H 1.57 c 0,-0.102 -0.001,-0.204 0,-0.306 H 1.439 v -0.31 H 1.309 V -6.513 H 1.178 V -6.822 H 1.063 L 1.045,-6.81 v 0.192 0.054 0.051 h -0.13 v 0.305 H 0.784 v 0.31 H 0.653 c 0,0.102 0,0.204 0,0.306 H 0.525 v -0.306 h -0.13 v -0.31 H 0.264 v -0.306 h -0.13 c -0.001,-0.098 0,-0.197 -0.001,-0.297 L 0.115,-6.822 H 0 c 0,0.103 0.001,0.206 0,0.309 h -0.13 v 0.305 h -0.13 c -0.004,0.103 0,0.206 -0.002,0.309 l -0.13,0.001 v 0.306 h -0.129 v 0.309 h 0.129 v 0.305 l 0.131,10e-4 c 0,0.102 0,0.204 -0.001,0.306 h 0.131 c 0.001,0.103 0.001,0.206 0.001,0.308 L 0,-4.362 C 0.005,-4.465 0,-4.568 0.002,-4.671 H 0.133 V -4.977 H 0.264 V -5.285 H 0.133 v -0.179 -0.188 h 0.131 v 0.245 h 0.129 v 0.49 h 0.063 c 0.006,0.102 0.002,0.203 0.003,0.304 L 0.264,-4.608 0.261,-4.362 H 0.13 v 0.184 H 0 v 0.306 h -0.128 c -0.001,-0.102 0,-0.205 -0.001,-0.306 H -0.258 V -4.362 L -0.39,-4.363 v -0.184 l -0.131,-0.001 v 0.555 h 0.129 v 0.245 h 0.131 l -0.001,0.214 h 0.131 l 0.001,0.245 -0.131,0.001 -0.001,0.215 -0.13,10e-4 v 0.245 h -0.129 v 0.554 h 0.131 v -0.184 h 0.132 v -0.185 h 0.129 V -2.948 H 0 v 0.306 h 0.13 v 0.185 h 0.132 l 0.002,0.245 0.195,0.005 c 0,0.1 0.002,0.201 -0.002,0.301 H 0.393 c -0.001,0.165 0,0.328 -0.001,0.493 H 0.264 L 0.262,-1.311 0.261,-1.167 H 0.134 L 0.132,-1.185 0.133,-1.3 0.132,-1.524 0.135,-1.537 0.264,-1.536 V -1.843 H 0.133 c -0.001,-0.103 0,-0.205 0,-0.308 H 0.002 c 0,-0.102 -0.001,-0.204 0,-0.306 H -0.13 v 0.306 h -0.131 c -0.001,0.103 0,0.205 -0.001,0.308 h -0.13 v 0.306 h -0.129 v 0.31 l 0.129,-10e-4 v 0.307 h 0.131 c 0,0.102 0,0.204 -0.001,0.306 h 0.131 c 0.001,0.102 0,0.205 0.001,0.308 H 0 Z"
         style="fill:#be2329;fill-opacity:1;fill-rule:nonzero;stroke:none"
         id="path10578"
         inkscape:connector-curvature="0" />
    </g>
    <path
       d="m 79.904383,96.208251 h 0.0466 v 0.130528 h -0.0466 z"
       style="fill:#be2329;fill-opacity:1;fill-rule:nonzero;stroke:none;stroke-width:0.35277778"
       id="path10580"
       inkscape:connector-curvature="0" />
    <g
       id="g10582"
       transform="matrix(0.35277777,0,0,-0.35277777,80.27275,96.208145)">
      <path
         d="M 0,0 H 0.131 L 0.133,-0.056 V -0.37 H 0 Z"
         style="fill:#be2329;fill-opacity:1;fill-rule:nonzero;stroke:none"
         id="path10584"
         inkscape:connector-curvature="0" />
    </g>
    <g
       id="g10586"
       transform="matrix(0.35277777,0,0,-0.35277777,80.64136,96.338356)">
      <path
         d="M 0,0 C 0.001,0.123 0,0.246 0,0.369 H 0.132 V 0 Z"
         style="fill:#be2329;fill-opacity:1;fill-rule:nonzero;stroke:none"
         id="path10588"
         inkscape:connector-curvature="0" />
    </g>
    <g
       id="g10590"
       transform="matrix(0.35277777,0,0,-0.35277777,80.135622,96.490297)">
      <path
         d="M 0,0 H 0.127 L 0.128,-0.144 0.13,-0.246 h 0.128 c 0.001,-0.165 0,-0.328 0.001,-0.493 H 0.323 C 0.327,-0.839 0.325,-0.94 0.326,-1.04 L 0.13,-1.045 0.128,-1.29 h -0.132 v -0.185 h -0.13 v -0.306 h -0.129 v 0.306 h -0.129 v 0.185 h -0.131 v 0.184 h -0.132 v 0.122 h 0.132 v 0.245 l -0.132,0.001 v 0.368 h 0.129 v -0.306 h 0.13 c 0.001,-0.103 0,-0.205 0.001,-0.308 h 0.131 V -1.29 h 0.132 c 0,0.102 0,0.204 0,0.306 h 0.131 c 0.001,0.103 0,0.205 0.001,0.308 h 0.13 v 0.307 l -0.129,-0.001 -0.003,0.013 0.001,0.224 v 0.115 z"
         style="fill:#ffffff;fill-opacity:1;fill-rule:nonzero;stroke:none"
         id="path10592"
         inkscape:connector-curvature="0" />
    </g>
    <g
       id="g10594"
       transform="matrix(0.35277777,0,0,-0.35277777,80.411921,96.490297)">
      <path
         d="m 0,0 h 0.128 c 0,-0.123 0,-0.246 0,-0.369 L -0.001,-0.37 c -0.003,-0.102 -0.001,-0.204 -0.001,-0.306 h 0.13 c 0.001,-0.103 0,-0.205 0,-0.308 h 0.131 c 0,-0.102 0.001,-0.204 0,-0.306 h 0.133 v 0.306 h 0.13 c 0.001,0.103 0,0.205 0.001,0.308 h 0.13 c -0.001,0.102 0,0.204 0,0.306 h 0.13 V -0.738 L 0.65,-0.739 V -0.984 H 0.783 V -1.106 L 0.65,-1.107 V -1.29 H 0.52 V -1.475 H 0.39 c 0,-0.102 0,-0.205 0,-0.306 H 0.261 v 0.306 H 0.131 V -1.29 H 0 v 0.245 h -0.195 v 0.306 h 0.064 c 0,0.165 -0.001,0.328 0,0.493 H 0 l -0.002,0.129 z"
         style="fill:#ffffff;fill-opacity:1;fill-rule:nonzero;stroke:none"
         id="path10596"
         inkscape:connector-curvature="0" />
    </g>
    <g
       id="g10598"
       transform="matrix(0.35277777,0,0,-0.35277777,79.904482,96.750718)">
      <path
         d="M 0,0 H 0.132 V -0.246 H 0 Z"
         style="fill:#be2329;fill-opacity:1;fill-rule:nonzero;stroke:none"
         id="path10600"
         inkscape:connector-curvature="0" />
    </g>
    <g
       id="g10602"
       transform="matrix(0.35277777,0,0,-0.35277777,80.64136,96.750894)">
      <path
         d="M 0,0 H 0.132 V -0.246 H 0 Z"
         style="fill:#be2329;fill-opacity:1;fill-rule:nonzero;stroke:none"
         id="path10604"
         inkscape:connector-curvature="0" />
    </g>
    <g
       id="g10606"
       transform="matrix(0.35277777,0,0,-0.35277777,80.273771,96.924179)">
      <path
         d="M 0,0 H 0.127 V -0.137 L 0.193,-0.14 V -0.429 L 0.39,-0.43 V -0.493 -0.612 -0.675 L 0.52,-0.676 V -0.868 L 0.522,-0.892 H 0.65 L 0.651,-0.988 V -1.07 L 0.65,-1.137 H 0.52 L 0.521,-1.233 0.52,-1.351 H 0.39 L 0.391,-1.582 0.389,-1.596 H 0.194 c -0.001,-0.098 0,-0.196 -0.001,-0.293 H 0.127 L 0.128,-2.026 H 0 v 0.139 l -0.066,0.002 v 0.233 l -0.002,0.056 h -0.194 v 0.245 h -0.131 v 0.214 h -0.129 l -0.001,0.245 h 0.131 v 0.216 h 0.13 v 0.246 l 0.196,0.001 c 0,0.095 0,0.192 0.001,0.287 H 0 Z"
         style="fill:#ffffff;fill-opacity:1;fill-rule:nonzero;stroke:none"
         id="path10608"
         inkscape:connector-curvature="0" />
    </g>
    <g
       id="g10610"
       transform="matrix(0.35277777,0,0,-0.35277777,80.274121,97.053225)">
      <path
         d="m 0,0 h 0.118 l 0.011,-0.013 c 0,-0.099 0,-0.197 0.001,-0.297 h -0.134 v 0.265 z"
         style="fill:#be2329;fill-opacity:1;fill-rule:nonzero;stroke:none"
         id="path10612"
         inkscape:connector-curvature="0" />
    </g>
    <g
       id="g10614"
       transform="matrix(0.35277777,0,0,-0.35277777,79.904482,97.075944)">
      <path
         d="M 0,0 H 0.129 V -0.245 L 0.26,-0.246 V -0.461 H 0.391 V -0.707 H 0.26 V -0.92 H 0.129 V -1.166 H 0 v 0.398 h 0.132 v 0.37 H 0 Z"
         style="fill:#ffffff;fill-opacity:1;fill-rule:nonzero;stroke:none"
         id="path10616"
         inkscape:connector-curvature="0" />
    </g>
    <g
       id="g10618"
       transform="matrix(0.35277777,0,0,-0.35277777,80.642421,97.075944)">
      <path
         d="m 0,0 h 0.129 v -0.398 h -0.132 v -0.37 H 0.129 V -1.166 H 0 v 0.246 h -0.131 v 0.213 h -0.13 v 0.246 h 0.126 l 0.004,0.004 0.001,0.211 0.13,0.001 z"
         style="fill:#ffffff;fill-opacity:1;fill-rule:nonzero;stroke:none"
         id="path10620"
         inkscape:connector-curvature="0" />
    </g>
    <g
       id="g10622"
       transform="matrix(0.35277777,0,0,-0.35277777,80.203501,97.14089)">
      <path
         d="m 0,0 h 0.133 v -0.122 h 0.066 v -0.092 h 0.128 v 0.092 H 0.393 V 0 H 0.526 L 0.525,-0.185 H 0.459 V -0.277 H 0.396 v -0.245 h 0.063 l 0.002,-0.093 0.065,-0.001 v -0.183 l -0.134,0.002 0.001,0.121 H 0.327 v 0.092 H 0.199 V -0.676 L 0.133,-0.677 0.134,-0.797 H 0 v 0.181 l 0.065,0.001 0.001,0.093 H 0.13 l 0.001,0.245 H 0.067 L 0.066,-0.185 H 0.003 L 0,-0.129 Z"
         style="fill:#be2329;fill-opacity:1;fill-rule:nonzero;stroke:none"
         id="path10624"
         inkscape:connector-curvature="0" />
    </g>
    <path
       d="m 79.904383,97.21649 h 0.0466 v 0.130528 h -0.0466 z"
       style="fill:#be2329;fill-opacity:1;fill-rule:nonzero;stroke:none;stroke-width:0.35277778"
       id="path10626"
       inkscape:connector-curvature="0" />
    <g
       id="g10628"
       transform="matrix(0.35277777,0,0,-0.35277777,80.15767,97.216526)">
      <path
         d="m 0,0 0.133,-0.002 c -0.001,-0.123 0,-0.245 0,-0.367 L 0,-0.37 Z"
         style="fill:#be2329;fill-opacity:1;fill-rule:nonzero;stroke:none"
         id="path10630"
         inkscape:connector-curvature="0" />
    </g>
    <g
       id="g10632"
       transform="matrix(0.35277777,0,0,-0.35277777,80.38782,97.217725)">
      <path
         d="m 0,0 0.133,0.003 c 0.001,-0.123 0,-0.246 0,-0.369 H 0.001 C 0,-0.244 0.001,-0.122 0,0"
         style="fill:#be2329;fill-opacity:1;fill-rule:nonzero;stroke:none"
         id="path10634"
         inkscape:connector-curvature="0" />
    </g>
    <path
       d="m 80.641333,97.21649 h 0.0466 v 0.130528 h -0.0466 z"
       style="fill:#be2329;fill-opacity:1;fill-rule:nonzero;stroke:none;stroke-width:0.35277778"
       id="path10636"
       inkscape:connector-curvature="0" />
    <g
       id="g10638"
       transform="matrix(0.35277777,0,0,-0.35277777,80.27275,97.491586)">
      <path
         d="M 0,0 V 0.257 H 0.134 L 0.133,0 0.131,-0.051 H 0.003 Z"
         style="fill:#be2329;fill-opacity:1;fill-rule:nonzero;stroke:none"
         id="path10640"
         inkscape:connector-curvature="0" />
    </g>
    <g
       id="g10642"
       transform="matrix(0.35277777,0,0,-0.35277777,80.043121,97.444561)">
      <path
         d="m 0,0 h 0.128 v -0.306 h 0.13 V -0.49 H 0.39 L 0.392,-0.736 0.588,-0.741 C 0.587,-0.842 0.59,-0.943 0.584,-1.044 H 0.521 V -1.535 H 0.392 V -1.78 H 0.261 v 0.188 0.179 h 0.131 v 0.308 H 0.261 v 0.306 H 0.13 c -0.002,0.103 0.003,0.206 -0.002,0.309 l -0.13,-0.001 c 0,-0.102 0,-0.205 0,-0.308 h -0.131 c 0,-0.102 0,-0.204 0,-0.306 h -0.131 v -0.306 h -0.129 v 0.366 l 0.132,10e-4 v 0.245 h -0.132 v 0.123 l 0.132,0.001 v 0.184 l 0.131,0.001 v 0.184 H 0 C 0,-0.205 0,-0.102 0,0"
         style="fill:#ffffff;fill-opacity:1;fill-rule:nonzero;stroke:none"
         id="path10644"
         inkscape:connector-curvature="0" />
    </g>
    <g
       id="g10646"
       transform="matrix(0.35277777,0,0,-0.35277777,80.503922,97.444561)">
      <path
         d="m 0,0 h 0.129 v -0.306 h 0.13 V -0.49 L 0.39,-0.491 V -0.675 L 0.522,-0.676 V -0.799 H 0.39 V -1.026 L 0.393,-1.044 0.522,-1.045 V -1.411 H 0.393 v 0.306 H 0.262 c 0,0.102 0,0.204 0,0.306 H 0.131 c -0.001,0.103 0,0.206 0,0.309 h -0.133 c 0,-0.103 0.002,-0.206 0,-0.309 h -0.13 v -0.306 h -0.131 v -0.308 h 0.13 c 0.001,-0.122 0.001,-0.245 0.001,-0.367 h -0.131 v 0.245 h -0.129 v 0.491 h -0.064 c -0.001,0.103 -0.001,0.205 0,0.308 h 0.196 v 0.245 l 0.13,0.001 0.001,0.184 H 0 Z"
         style="fill:#ffffff;fill-opacity:1;fill-rule:nonzero;stroke:none"
         id="path10648"
         inkscape:connector-curvature="0" />
    </g>
    <g
       id="g10650"
       transform="matrix(0.35277777,0,0,-0.35277777,79.904482,97.726395)">
      <path
         d="M 0,0 H 0.132 V -0.246 H 0 Z"
         style="fill:#be2329;fill-opacity:1;fill-rule:nonzero;stroke:none"
         id="path10652"
         inkscape:connector-curvature="0" />
    </g>
    <g
       id="g10654"
       transform="matrix(0.35277777,0,0,-0.35277777,80.64136,97.726572)">
      <path
         d="M 0,0 H 0.132 V -0.246 L 0.003,-0.245 0,-0.227 Z"
         style="fill:#be2329;fill-opacity:1;fill-rule:nonzero;stroke:none"
         id="path10656"
         inkscape:connector-curvature="0" />
    </g>
    <g
       id="g10658"
       transform="matrix(0.35277777,0,0,-0.35277777,79.904482,98.051445)">
      <path
         d="M 0,0 H 0.129 V -0.306 L 0.26,-0.307 C 0.262,-0.41 0.258,-0.513 0.262,-0.615 h 0.129 v -0.306 h 0.13 c 0.001,-0.103 0,-0.206 0,-0.308 h 0.116 l 0.018,0.011 c 0,0.099 0,0.198 0,0.296 h 0.13 v 0.307 h 0.131 v 0.309 H 1.047 V 0 h 0.127 c 0,-0.102 0.001,-0.204 0,-0.306 h 0.132 v -0.309 h 0.131 v -0.306 h 0.129 l 10e-4,-0.051 v -0.054 -0.191 l 0.017,-0.012 h 0.115 v 0.308 h 0.132 v 0.306 h 0.13 v 0.309 h 0.131 c -10e-4,0.102 0,0.204 0,0.306 H 2.221 V -0.491 H 2.089 V -0.86 H 2.221 V -1.352 H 2.154 v 0.185 H 2.089 v 0.184 L 1.893,-0.984 V -1.167 L 1.827,-1.169 V -1.352 H 1.762 V -1.6 h 0.065 v -0.181 l 0.065,-0.001 0.001,-0.185 h 0.196 v 0.182 H 2.154 V -1.6 H 2.221 V -2.087 H 2.09 c -10e-4,-0.124 0,-0.247 -10e-4,-0.371 H 2.221 V -2.95 H 2.092 c -0.002,0.103 0,0.206 0,0.308 H 1.961 c 0,0.102 0,0.204 0,0.307 h -0.13 c -10e-4,0.103 0,0.206 0,0.308 H 1.699 V -1.72 L 1.566,-1.721 c 10e-4,-0.102 10e-4,-0.203 10e-4,-0.306 h -0.13 c 0,-0.102 0,-0.205 -0.001,-0.308 H 1.306 V -2.642 H 1.174 V -2.947 H 1.047 v 0.305 H 0.916 v 0.307 H 0.785 v 0.308 H 0.654 V -1.72 H 0.521 V -2.027 H 0.391 V -2.335 H 0.26 c 0,-0.103 0,-0.205 0,-0.307 H 0.129 c 0,-0.102 0.002,-0.205 0,-0.308 L 0,-2.949 v 0.491 h 0.132 v 0.371 H 0 v 0.49 h 0.063 v -0.184 l 0.066,-0.001 v -0.184 h 0.197 l 0.002,0.184 h 0.065 v 0.185 h 0.066 v 0.246 H 0.393 v 0.185 H 0.326 L 0.325,-0.982 H 0.141 L 0.129,-1 V -1.166 L 0.063,-1.167 V -1.351 H 0 v 0.491 h 0.132 v 0.369 H 0 Z"
         style="fill:#ffffff;fill-opacity:1;fill-rule:nonzero;stroke:none"
         id="path10660"
         inkscape:connector-curvature="0" />
    </g>
    <path
       d="m 79.904383,98.224376 h 0.0466 v 0.130528 h -0.0466 z"
       style="fill:#be2329;fill-opacity:1;fill-rule:nonzero;stroke:none;stroke-width:0.35277778"
       id="path10662"
       inkscape:connector-curvature="0" />
    <path
       d="m 80.272683,98.224376 h 0.0469 v 0.130528 h -0.0469 z"
       style="fill:#be2329;fill-opacity:1;fill-rule:nonzero;stroke:none;stroke-width:0.35277778"
       id="path10664"
       inkscape:connector-curvature="0" />
    <path
       d="m 80.641333,98.224376 h 0.0466 v 0.130528 h -0.0466 z"
       style="fill:#be2329;fill-opacity:1;fill-rule:nonzero;stroke:none;stroke-width:0.35277778"
       id="path10666"
       inkscape:connector-curvature="0" />
    <g
       id="g10668"
       transform="matrix(0.35277777,0,0,-0.35277777,79.95013,98.404046)">
      <path
         d="M 0,0 0.011,0.018 H 0.196 L 0.197,-0.167 H 0.263 L 0.264,-0.352 H 0.33 V -0.598 H 0.263 V -0.782 H 0.199 L 0.197,-0.966 H 0 v 0.184 h -0.066 v 0.184 h -0.063 v 0.246 h 0.063 v 0.185 H 0 Z"
         style="fill:#be2329;fill-opacity:1;fill-rule:nonzero;stroke:none"
         id="path10670"
         inkscape:connector-curvature="0" />
    </g>
    <g
       id="g10672"
       transform="matrix(0.35277777,0,0,-0.35277777,80.20367,98.399389)">
      <path
         d="m 0,0 0.005,0.004 h 0.16 L 0.199,0.001 V -0.18 H 0.326 V 0.001 L 0.431,0.004 0.525,0.001 V -0.18 H 0.591 V -0.365 H 0.655 V -0.611 H 0.591 V -0.795 H 0.525 V -0.979 H 0.326 v 0.184 H 0.199 V -0.979 H 0 v 0.184 H -0.064 L -0.066,-0.61 -0.13,-0.611 v 0.246 h 0.065 l 0.002,0.123 0.001,0.062 H 0 Z"
         style="fill:#be2329;fill-opacity:1;fill-rule:nonzero;stroke:none"
         id="path10674"
         inkscape:connector-curvature="0" />
    </g>
    <g
       id="g10676"
       transform="matrix(0.35277777,0,0,-0.35277777,80.57211,98.398684)">
      <path
         d="M 0,0 0.196,0.001 V -0.182 L 0.261,-0.183 0.262,-0.367 H 0.329 V -0.615 H 0.262 L 0.261,-0.8 H 0.196 V -0.983 H 0 l -0.001,0.186 h -0.064 l -0.001,0.182 h -0.065 v 0.248 h 0.065 v 0.182 L 0,-0.183 Z"
         style="fill:#be2329;fill-opacity:1;fill-rule:nonzero;stroke:none"
         id="path10678"
         inkscape:connector-curvature="0" />
    </g>
    <g
       id="g10680"
       transform="matrix(0.35277777,0,0,-0.35277777,79.973731,98.506881)">
      <path
         d="M 0,0 H 0.064 L 0.063,-0.121 0.129,-0.123 0.13,-0.187 0.129,-0.244 0.064,-0.245 V -0.366 H 0 v 0.122 h -0.064 v 0.121 H 0 Z"
         style="fill:#ffffff;fill-opacity:1;fill-rule:nonzero;stroke:none"
         id="path10682"
         inkscape:connector-curvature="0" />
    </g>
    <g
       id="g10684"
       transform="matrix(0.35277777,0,0,-0.35277777,80.227631,98.506881)">
      <path
         d="M 0,0 H 0.062 V -0.121 L 0.128,-0.123 V -0.244 H 0.062 V -0.366 H 0 v 0.122 h -0.065 v 0.121 H 0 Z"
         style="fill:#ffffff;fill-opacity:1;fill-rule:nonzero;stroke:none"
         id="path10686"
         inkscape:connector-curvature="0" />
    </g>
    <g
       id="g10688"
       transform="matrix(0.35277777,0,0,-0.35277777,80.343021,98.549743)">
      <path
         d="M 0,0 V 0.122 H 0.062 V -0.001 H 0.128 V -0.123 H 0.062 V -0.245 H 0 v 0.122 h -0.066 v 0.122 z"
         style="fill:#ffffff;fill-opacity:1;fill-rule:nonzero;stroke:none"
         id="path10690"
         inkscape:connector-curvature="0" />
    </g>
    <g
       id="g10692"
       transform="matrix(0.35277777,0,0,-0.35277777,80.595222,98.550449)">
      <path
         d="M 0,0 V 0.123 L 0.064,0.124 0.065,0 H 0.13 V -0.123 H 0.065 L 0.064,-0.246 0,-0.245 v 0.122 l -0.065,0.001 v 0.121 z"
         style="fill:#ffffff;fill-opacity:1;fill-rule:nonzero;stroke:none"
         id="path10694"
         inkscape:connector-curvature="0" />
    </g>
    <g
       id="g10696"
       transform="matrix(0.35277777,0,0,-0.35277777,80.08846,98.658117)">
      <path
         d="m 0,0 h 0.133 v -0.307 h 0.131 v -0.308 l 0.131,-0.001 v -0.306 h 0.13 v -0.306 h 0.128 v 0.306 h 0.131 v 0.306 l 0.13,0.001 c 0.001,0.103 0.001,0.205 0.001,0.308 h 0.13 c 0,0.102 0,0.204 0,0.306 L 1.178,0 v -0.307 h 0.131 c 0,-0.103 0,-0.205 0,-0.308 L 1.44,-0.616 C 1.439,-0.718 1.439,-0.82 1.439,-0.922 H 1.57 C 1.571,-1.024 1.569,-1.127 1.571,-1.23 H 1.7 V -1.537 H 1.571 C 1.57,-1.639 1.571,-1.742 1.57,-1.845 H 1.439 v -0.307 h -0.13 c 0,-0.102 0,-0.204 0,-0.306 L 1.178,-2.459 V -2.764 H 1.045 c 0.001,0.102 0,0.203 0,0.306 h -0.13 v 0.306 H 0.784 v 0.307 l -0.131,0.003 c 0,0.102 0,0.203 0,0.305 H 0.525 V -1.842 L 0.395,-1.845 V -2.152 H 0.264 v -0.307 l -0.13,10e-4 C 0.133,-2.561 0.133,-2.662 0.133,-2.764 H 0 c 0,0.102 0.001,0.203 0,0.306 h -0.13 v 0.306 h -0.131 v 0.307 l -0.126,10e-4 -0.005,0.004 c -0.001,0.101 0.001,0.203 0,0.303 h -0.129 v 0.308 l 0.129,-10e-4 c 0.001,0.103 0,0.206 0,0.308 h 0.131 c 0,0.102 0,0.204 -0.001,0.306 l 0.132,0.001 v 0.308 H 0 Z"
         style="fill:#be2329;fill-opacity:1;fill-rule:nonzero;stroke:none"
         id="path10698"
         inkscape:connector-curvature="0" />
    </g>
    <path
       d="m 79.904383,98.787762 h 0.0466 v 0.130881 h -0.0466 z"
       style="fill:#be2329;fill-opacity:1;fill-rule:nonzero;stroke:none;stroke-width:0.35277778"
       id="path10700"
       inkscape:connector-curvature="0" />
    <g
       id="g10702"
       transform="matrix(0.35277777,0,0,-0.35277777,80.273951,98.787657)">
      <path
         d="m 0,0 h 0.119 l 0.01,-0.012 c 0,-0.119 0,-0.238 0.001,-0.359 l -0.134,0.001 c 0.001,0.091 0.001,0.181 0.001,0.271 z"
         style="fill:#be2329;fill-opacity:1;fill-rule:nonzero;stroke:none"
         id="path10704"
         inkscape:connector-curvature="0" />
    </g>
    <g
       id="g10706"
       transform="matrix(0.35277777,0,0,-0.35277777,80.64172,98.787657)">
      <path
         d="M 0,0 H 0.131 V -0.371 H -0.001 C 0,-0.247 -0.001,-0.124 0,0"
         style="fill:#be2329;fill-opacity:1;fill-rule:nonzero;stroke:none"
         id="path10708"
         inkscape:connector-curvature="0" />
    </g>
    <g
       id="g10710"
       transform="matrix(0.35277777,0,0,-0.35277777,80.089129,98.875498)">
      <path
         d="m 0,0 h 0.128 v -0.306 h 0.13 l 0.003,-0.149 v -0.07 L 0.262,-0.614 H 0.391 V -0.919 H 0.262 c -0.001,-0.102 0,-0.205 0,-0.307 H 0.128 V -1.535 H 0 v 0.231 l -0.002,0.078 h -0.129 c 0.001,0.102 0,0.204 0.001,0.306 h -0.13 c -0.001,0.102 0,0.204 0,0.306 h 0.129 c 0.001,0.103 -0.001,0.205 0.001,0.308 h 0.128 L 0,-0.259 Z"
         style="fill:#ffffff;fill-opacity:1;fill-rule:nonzero;stroke:none"
         id="path10712"
         inkscape:connector-curvature="0" />
    </g>
    <g
       id="g10714"
       transform="matrix(0.35277777,0,0,-0.35277777,80.458101,98.875498)">
      <path
         d="m 0,0 h 0.128 c 0,-0.102 0.001,-0.204 0,-0.306 h 0.131 c 0.001,-0.103 0,-0.205 0,-0.308 h 0.13 c 0,-0.102 0,-0.204 0,-0.306 h -0.13 c 0,-0.102 0,-0.204 0,-0.306 H 0.131 L 0.129,-1.369 V -1.478 L 0.128,-1.535 H 0 c 0,0.102 0,0.204 0.001,0.306 l -0.131,0.003 v 0.306 l -0.132,0.001 v 0.305 l 0.129,-0.001 0.003,0.062 v 0.247 H 0 Z"
         style="fill:#ffffff;fill-opacity:1;fill-rule:nonzero;stroke:none"
         id="path10716"
         inkscape:connector-curvature="0" />
    </g>
    <g
       id="g10718"
       transform="matrix(0.35277777,0,0,-0.35277777,80.08846,99.092033)">
      <path
         d="M 0,0 0.066,0.002 0.133,-0.001 V -0.307 H 0 Z"
         style="fill:#be2329;fill-opacity:1;fill-rule:nonzero;stroke:none"
         id="path10720"
         inkscape:connector-curvature="0" />
    </g>
    <g
       id="g10722"
       transform="matrix(0.35277777,0,0,-0.35277777,80.457249,99.092351)">
      <path
         d="M 0,0 0.11,0.002 0.132,0 v -0.306 h -0.13 l -0.001,0.085 v 0.093 z"
         style="fill:#be2329;fill-opacity:1;fill-rule:nonzero;stroke:none"
         id="path10724"
         inkscape:connector-curvature="0" />
    </g>
    <g
       id="g10726"
       transform="matrix(0.35277777,0,0,-0.35277777,79.904482,99.200195)">
      <path
         d="m 0,0 h 0.129 c 0.002,-0.101 0,-0.203 0.001,-0.303 L 0.135,-0.308 0.26,-0.309 v -0.306 l 0.131,-0.001 v -0.306 h 0.13 c 0.001,-0.102 0,-0.203 0,-0.306 H 0 v 0.244 h 0.132 v 0.369 L 0,-0.614 Z"
         style="fill:#ffffff;fill-opacity:1;fill-rule:nonzero;stroke:none"
         id="path10728"
         inkscape:connector-curvature="0" />
    </g>
    <g
       id="g10730"
       transform="matrix(0.35277777,0,0,-0.35277777,80.273771,99.200195)">
      <path
         d="m 0,0 h 0.127 c 0.001,-0.102 0.001,-0.204 0,-0.306 L 0.259,-0.309 V -0.615 L 0.39,-0.616 v -0.306 h 0.13 c 0,-0.102 0.001,-0.203 0,-0.306 h -0.912 c 0,0.103 0,0.204 0,0.306 l 0.13,-0.001 v 0.307 l 0.131,0.001 v 0.306 L 0,-0.306 Z"
         style="fill:#ffffff;fill-opacity:1;fill-rule:nonzero;stroke:none"
         id="path10732"
         inkscape:connector-curvature="0" />
    </g>
    <g
       id="g10734"
       transform="matrix(0.35277777,0,0,-0.35277777,80.642601,99.200195)">
      <path
         d="m 0,0 h 0.129 v -0.614 l -0.132,-0.001 c 0,-0.117 0.001,-0.234 0,-0.351 l 0.011,-0.018 h 0.121 v -0.244 h -0.522 v 0.305 l 0.131,0.001 c 0,0.102 0,0.205 0,0.306 l 0.131,0.001 v 0.306 H 0 C 0,-0.206 0,-0.103 0,0"
         style="fill:#ffffff;fill-opacity:1;fill-rule:nonzero;stroke:none"
         id="path10736"
         inkscape:connector-curvature="0" />
    </g>
    <g
       id="g10738"
       transform="matrix(0.35277777,0,0,-0.35277777,79.904482,99.416906)">
      <path
         d="M 0,0 0.132,-0.001 V -0.37 H 0 Z"
         style="fill:#be2329;fill-opacity:1;fill-rule:nonzero;stroke:none"
         id="path10740"
         inkscape:connector-curvature="0" />
    </g>
    <g
       id="g10742"
       transform="matrix(0.35277777,0,0,-0.35277777,80.27275,99.417224)">
      <path
         d="M 0,0 H 0.133 V -0.313 L 0.131,-0.369 0.003,-0.37 0,-0.226 Z"
         style="fill:#be2329;fill-opacity:1;fill-rule:nonzero;stroke:none"
         id="path10744"
         inkscape:connector-curvature="0" />
    </g>
    <g
       id="g10746"
       transform="matrix(0.35277777,0,0,-0.35277777,80.64136,99.417224)">
      <path
         d="m 0,0 0.132,0.001 v -0.37 H 0.012 L 0,-0.351 C 0.001,-0.234 0,-0.117 0,0"
         style="fill:#be2329;fill-opacity:1;fill-rule:nonzero;stroke:none"
         id="path10748"
         inkscape:connector-curvature="0" />
    </g>
  </g>
</svg>
