<?xml version="1.0" encoding="UTF-8" standalone="no"?>
<!-- Created with Inkscape (http://www.inkscape.org/) -->

<svg
   xmlns:dc="http://purl.org/dc/elements/1.1/"
   xmlns:cc="http://creativecommons.org/ns#"
   xmlns:rdf="http://www.w3.org/1999/02/22-rdf-syntax-ns#"
   xmlns:svg="http://www.w3.org/2000/svg"
   xmlns="http://www.w3.org/2000/svg"
   xmlns:sodipodi="http://sodipodi.sourceforge.net/DTD/sodipodi-0.dtd"
   xmlns:inkscape="http://www.inkscape.org/namespaces/inkscape"
   width="7.084836mm"
   height="4.7328668mm"
   viewBox="0 0 7.084836 4.7328668"
   version="1.1"
   id="svg8"
   inkscape:version="0.92.4 (5da689c313, 2019-01-14)"
   sodipodi:docname="bosnia_and_herzegovina.svg">
  <defs
     id="defs2">
    <radialGradient
       id="radialGradient37584"
       spreadMethod="pad"
       gradientTransform="matrix(0.975099,0,0,0.975099,159.64062,365.06934)"
       gradientUnits="userSpaceOnUse"
       r="1"
       cy="0"
       cx="0"
       fy="0"
       fx="0">
      <stop
         id="stop37578"
         offset="0"
         style="stop-opacity:1;stop-color:#852c26" />
      <stop
         id="stop37580"
         offset="0.0015476"
         style="stop-opacity:1;stop-color:#852c26" />
      <stop
         id="stop37582"
         offset="1"
         style="stop-opacity:1;stop-color:#451617" />
    </radialGradient>
    <clipPath
       id="clipPath37532"
       clipPathUnits="userSpaceOnUse">
      <path
         inkscape:connector-curvature="0"
         id="path37530"
         d="M 0,400 H 400 V 0 H 0 Z" />
    </clipPath>
    <radialGradient
       id="radialGradient37522"
       spreadMethod="pad"
       gradientTransform="matrix(-0.2637247,0,0,0.2637247,159.68652,365.88965)"
       gradientUnits="userSpaceOnUse"
       r="1"
       cy="0"
       cx="0"
       fy="0"
       fx="0">
      <stop
         id="stop37516"
         offset="0"
         style="stop-opacity:1;stop-color:#852c26" />
      <stop
         id="stop37518"
         offset="0.0015476"
         style="stop-opacity:1;stop-color:#852c26" />
      <stop
         id="stop37520"
         offset="1"
         style="stop-opacity:1;stop-color:#451617" />
    </radialGradient>
    <clipPath
       id="clipPath37354"
       clipPathUnits="userSpaceOnUse">
      <path
         inkscape:connector-curvature="0"
         id="path37352"
         d="M 0,400 H 400 V 0 H 0 Z" />
    </clipPath>
    <radialGradient
       id="radialGradient37344"
       spreadMethod="pad"
       gradientTransform="matrix(0.975099,0,0,0.975099,155.76025,365.06934)"
       gradientUnits="userSpaceOnUse"
       r="1"
       cy="0"
       cx="0"
       fy="0"
       fx="0">
      <stop
         id="stop37338"
         offset="0"
         style="stop-opacity:1;stop-color:#eee54f" />
      <stop
         id="stop37340"
         offset="0.9977451"
         style="stop-opacity:1;stop-color:#e04a20" />
      <stop
         id="stop37342"
         offset="1"
         style="stop-opacity:1;stop-color:#e04a20" />
    </radialGradient>
    <clipPath
       id="clipPath37272"
       clipPathUnits="userSpaceOnUse">
      <path
         inkscape:connector-curvature="0"
         id="path37270"
         d="M 0,400 H 400 V 0 H 0 Z" />
    </clipPath>
    <radialGradient
       id="radialGradient37262"
       spreadMethod="pad"
       gradientTransform="matrix(0.2636045,0,0,0.2636045,155.71484,365.89062)"
       gradientUnits="userSpaceOnUse"
       r="1"
       cy="0"
       cx="0"
       fy="0"
       fx="0">
      <stop
         id="stop37256"
         offset="0"
         style="stop-opacity:1;stop-color:#eee54f" />
      <stop
         id="stop37258"
         offset="0.9977451"
         style="stop-opacity:1;stop-color:#e04a20" />
      <stop
         id="stop37260"
         offset="1"
         style="stop-opacity:1;stop-color:#e04a20" />
    </radialGradient>
  </defs>
  <sodipodi:namedview
     id="base"
     pagecolor="#ffffff"
     bordercolor="#666666"
     borderopacity="1.0"
     inkscape:pageopacity="0.0"
     inkscape:pageshadow="2"
     inkscape:zoom="11.2"
     inkscape:cx="37.539889"
     inkscape:cy="2.807899"
     inkscape:document-units="mm"
     inkscape:current-layer="layer1"
     showgrid="false"
     inkscape:window-width="954"
     inkscape:window-height="630"
     inkscape:window-x="-3"
     inkscape:window-y="6"
     inkscape:window-maximized="0" />
  <metadata
     id="metadata5">
    <rdf:RDF>
      <cc:Work
         rdf:about="">
        <dc:format>image/svg+xml</dc:format>
        <dc:type
           rdf:resource="http://purl.org/dc/dcmitype/StillImage" />
        <dc:title></dc:title>
      </cc:Work>
    </rdf:RDF>
  </metadata>
  <g
     inkscape:label="Layer 1"
     inkscape:groupmode="layer"
     id="layer1"
     transform="translate(-73.943459,-95.340934)">
    <g
       id="g34712"
       transform="matrix(0.35277777,0,0,-0.35277777,73.97274,100.04452)">
      <path
         d="M 0,0 H 19.918 L 19.917,13.251 H 0 Z M 19.959,-0.042 V 0 Z M -0.083,-0.083 V 13.333 H 20 V -0.042 -0.083 Z"
         style="fill:#221f21;fill-opacity:1;fill-rule:nonzero;stroke:none"
         id="path34714"
         inkscape:connector-curvature="0" />
    </g>
    <path
       d="m 73.958242,95.355363 h 7.05556 v 4.703587 h -7.05556 z"
       style="fill:#2f3483;fill-opacity:1;fill-rule:nonzero;stroke:none;stroke-width:0.35277778"
       id="path34716"
       inkscape:connector-curvature="0" />
    <g
       id="g34718"
       transform="matrix(0.35277777,0,0,-0.35277777,75.27498,95.355398)">
      <path
         d="M 0,0 H 13.334 V -13.333 Z"
         style="fill:#e6c128;fill-opacity:1;fill-rule:nonzero;stroke:none"
         id="path34720"
         inkscape:connector-curvature="0" />
    </g>
    <g
       id="g34722"
       transform="matrix(0.35277777,0,0,-0.35277777,75.016609,95.443593)">
      <path
         d="M 0,0 0.283,-0.875 H 1.204 L 0.46,-1.417 0.744,-2.292 0,-1.75 l -0.745,-0.542 0.284,0.875 -0.744,0.542 h 0.92 z"
         style="fill:#ffffff;fill-opacity:1;fill-rule:nonzero;stroke:none"
         id="path34724"
         inkscape:connector-curvature="0" />
    </g>
    <g
       id="g34726"
       transform="matrix(0.35277777,0,0,-0.35277777,75.60434,96.031497)">
      <path
         d="M 0,0 0.284,-0.875 H 1.205 L 0.461,-1.417 0.744,-2.292 0,-1.751 l -0.744,-0.541 0.284,0.875 -0.745,0.542 h 0.921 z"
         style="fill:#ffffff;fill-opacity:1;fill-rule:nonzero;stroke:none"
         id="path34728"
         inkscape:connector-curvature="0" />
    </g>
    <g
       id="g34730"
       transform="matrix(0.35277777,0,0,-0.35277777,76.192419,96.619577)">
      <path
         d="m 0,0 0.284,-0.875 h 0.92 L 0.46,-1.417 0.744,-2.292 0,-1.75 l -0.745,-0.542 0.285,0.875 -0.745,0.542 h 0.921 z"
         style="fill:#ffffff;fill-opacity:1;fill-rule:nonzero;stroke:none"
         id="path34732"
         inkscape:connector-curvature="0" />
    </g>
    <g
       id="g34734"
       transform="matrix(0.35277777,0,0,-0.35277777,76.7805,97.207482)">
      <path
         d="M 0,0 0.283,-0.875 H 1.204 L 0.46,-1.417 0.744,-2.292 0,-1.75 l -0.745,-0.542 0.284,0.875 -0.744,0.542 h 0.92 z"
         style="fill:#ffffff;fill-opacity:1;fill-rule:nonzero;stroke:none"
         id="path34736"
         inkscape:connector-curvature="0" />
    </g>
    <g
       id="g34738"
       transform="matrix(0.35277777,0,0,-0.35277777,77.368579,97.795386)">
      <path
         d="m 0,0 0.284,-0.875 h 0.92 L 0.46,-1.417 0.744,-2.292 0,-1.751 l -0.745,-0.541 0.285,0.875 -0.745,0.542 h 0.921 z"
         style="fill:#ffffff;fill-opacity:1;fill-rule:nonzero;stroke:none"
         id="path34740"
         inkscape:connector-curvature="0" />
    </g>
    <g
       id="g34742"
       transform="matrix(0.35277777,0,0,-0.35277777,77.95666,98.383466)">
      <path
         d="M 0,0 0.283,-0.875 H 1.204 L 0.46,-1.417 0.744,-2.292 0,-1.75 l -0.745,-0.542 0.284,0.875 -0.744,0.542 h 0.92 z"
         style="fill:#ffffff;fill-opacity:1;fill-rule:nonzero;stroke:none"
         id="path34744"
         inkscape:connector-curvature="0" />
    </g>
    <g
       id="g34746"
       transform="matrix(0.35277777,0,0,-0.35277777,78.54439,98.97137)">
      <path
         d="M 0,0 0.283,-0.875 H 1.204 L 0.46,-1.417 0.744,-2.292 0,-1.75 l -0.745,-0.542 0.284,0.875 -0.744,0.542 h 0.92 z"
         style="fill:#ffffff;fill-opacity:1;fill-rule:nonzero;stroke:none"
         id="path34748"
         inkscape:connector-curvature="0" />
    </g>
    <g
       id="g34750"
       transform="matrix(0.35277777,0,0,-0.35277777,74.428529,95.473226)">
      <path
         d="M 0,0 0.744,-0.541 0.46,0.334 h -0.92 l -0.285,-0.875 z"
         style="fill:#ffffff;fill-opacity:1;fill-rule:nonzero;stroke:none"
         id="path34752"
         inkscape:connector-curvature="0" />
    </g>
    <g
       id="g34754"
       transform="matrix(0.35277777,0,0,-0.35277777,79.55725,99.868308)">
      <path
         d="M 0,0 H -0.921 L -1.205,0.875 -1.489,0 H -2.41 l 0.745,-0.541 h 0.921 z"
         style="fill:#ffffff;fill-opacity:1;fill-rule:nonzero;stroke:none"
         id="path34756"
         inkscape:connector-curvature="0" />
    </g>
  </g>
</svg>
