<?xml version="1.0" encoding="UTF-8" standalone="no"?>
<!-- Created with Inkscape (http://www.inkscape.org/) -->

<svg
   xmlns:dc="http://purl.org/dc/elements/1.1/"
   xmlns:cc="http://creativecommons.org/ns#"
   xmlns:rdf="http://www.w3.org/1999/02/22-rdf-syntax-ns#"
   xmlns:svg="http://www.w3.org/2000/svg"
   xmlns="http://www.w3.org/2000/svg"
   xmlns:sodipodi="http://sodipodi.sourceforge.net/DTD/sodipodi-0.dtd"
   xmlns:inkscape="http://www.inkscape.org/namespaces/inkscape"
   width="7.084836mm"
   height="4.7328668mm"
   viewBox="0 0 7.084836 4.7328668"
   version="1.1"
   id="svg8"
   inkscape:version="0.92.4 (5da689c313, 2019-01-14)"
   sodipodi:docname="brazil.svg">
  <defs
     id="defs2">
    <radialGradient
       id="radialGradient37584"
       spreadMethod="pad"
       gradientTransform="matrix(0.975099,0,0,0.975099,159.64062,365.06934)"
       gradientUnits="userSpaceOnUse"
       r="1"
       cy="0"
       cx="0"
       fy="0"
       fx="0">
      <stop
         id="stop37578"
         offset="0"
         style="stop-opacity:1;stop-color:#852c26" />
      <stop
         id="stop37580"
         offset="0.0015476"
         style="stop-opacity:1;stop-color:#852c26" />
      <stop
         id="stop37582"
         offset="1"
         style="stop-opacity:1;stop-color:#451617" />
    </radialGradient>
    <clipPath
       id="clipPath37532"
       clipPathUnits="userSpaceOnUse">
      <path
         inkscape:connector-curvature="0"
         id="path37530"
         d="M 0,400 H 400 V 0 H 0 Z" />
    </clipPath>
    <radialGradient
       id="radialGradient37522"
       spreadMethod="pad"
       gradientTransform="matrix(-0.2637247,0,0,0.2637247,159.68652,365.88965)"
       gradientUnits="userSpaceOnUse"
       r="1"
       cy="0"
       cx="0"
       fy="0"
       fx="0">
      <stop
         id="stop37516"
         offset="0"
         style="stop-opacity:1;stop-color:#852c26" />
      <stop
         id="stop37518"
         offset="0.0015476"
         style="stop-opacity:1;stop-color:#852c26" />
      <stop
         id="stop37520"
         offset="1"
         style="stop-opacity:1;stop-color:#451617" />
    </radialGradient>
    <clipPath
       id="clipPath37354"
       clipPathUnits="userSpaceOnUse">
      <path
         inkscape:connector-curvature="0"
         id="path37352"
         d="M 0,400 H 400 V 0 H 0 Z" />
    </clipPath>
    <radialGradient
       id="radialGradient37344"
       spreadMethod="pad"
       gradientTransform="matrix(0.975099,0,0,0.975099,155.76025,365.06934)"
       gradientUnits="userSpaceOnUse"
       r="1"
       cy="0"
       cx="0"
       fy="0"
       fx="0">
      <stop
         id="stop37338"
         offset="0"
         style="stop-opacity:1;stop-color:#eee54f" />
      <stop
         id="stop37340"
         offset="0.9977451"
         style="stop-opacity:1;stop-color:#e04a20" />
      <stop
         id="stop37342"
         offset="1"
         style="stop-opacity:1;stop-color:#e04a20" />
    </radialGradient>
    <clipPath
       id="clipPath37272"
       clipPathUnits="userSpaceOnUse">
      <path
         inkscape:connector-curvature="0"
         id="path37270"
         d="M 0,400 H 400 V 0 H 0 Z" />
    </clipPath>
    <radialGradient
       id="radialGradient37262"
       spreadMethod="pad"
       gradientTransform="matrix(0.2636045,0,0,0.2636045,155.71484,365.89062)"
       gradientUnits="userSpaceOnUse"
       r="1"
       cy="0"
       cx="0"
       fy="0"
       fx="0">
      <stop
         id="stop37256"
         offset="0"
         style="stop-opacity:1;stop-color:#eee54f" />
      <stop
         id="stop37258"
         offset="0.9977451"
         style="stop-opacity:1;stop-color:#e04a20" />
      <stop
         id="stop37260"
         offset="1"
         style="stop-opacity:1;stop-color:#e04a20" />
    </radialGradient>
  </defs>
  <sodipodi:namedview
     id="base"
     pagecolor="#ffffff"
     bordercolor="#666666"
     borderopacity="1.0"
     inkscape:pageopacity="0.0"
     inkscape:pageshadow="2"
     inkscape:zoom="11.2"
     inkscape:cx="22.966663"
     inkscape:cy="7.9281003"
     inkscape:document-units="mm"
     inkscape:current-layer="layer1"
     showgrid="false"
     inkscape:window-width="954"
     inkscape:window-height="630"
     inkscape:window-x="-3"
     inkscape:window-y="6"
     inkscape:window-maximized="0" />
  <metadata
     id="metadata5">
    <rdf:RDF>
      <cc:Work
         rdf:about="">
        <dc:format>image/svg+xml</dc:format>
        <dc:type
           rdf:resource="http://purl.org/dc/dcmitype/StillImage" />
        <dc:title></dc:title>
      </cc:Work>
    </rdf:RDF>
  </metadata>
  <g
     inkscape:label="Layer 1"
     inkscape:groupmode="layer"
     id="layer1"
     transform="translate(-72.598959,-96.695654)">
    <g
       id="g11516"
       transform="matrix(0.35277777,0,0,-0.35277777,72.62824,101.39924)">
      <path
         d="M 0,0 H 19.917 L 19.916,13.25 H 0 Z M 19.959,-0.042 V 0 Z M -0.083,-0.083 V 13.333 H 20 V -0.042 -0.083 Z"
         style="fill:#221f21;fill-opacity:1;fill-rule:nonzero;stroke:none"
         id="path11518"
         inkscape:connector-curvature="0" />
    </g>
    <path
       d="m 79.669513,101.4142 h -7.055561 v -4.703584 h 7.055561 z"
       style="fill:#389240;fill-opacity:1;fill-rule:nonzero;stroke:none;stroke-width:0.35277778"
       id="path11520"
       inkscape:connector-curvature="0" />
    <g
       id="g11522"
       transform="matrix(0.35277777,0,0,-0.35277777,73.32071,99.062268)">
      <path
         d="M 0,0 7.996,-5.106 15.992,0 7.996,5.106 Z"
         style="fill:#e9ae22;fill-opacity:1;fill-rule:nonzero;stroke:none"
         id="path11524"
         inkscape:connector-curvature="0" />
    </g>
    <g
       id="g11526"
       transform="matrix(0.35277777,0,0,-0.35277777,76.14155,97.854074)">
      <path
         d="M 0,0 C 1.891,0 3.424,-1.534 3.424,-3.425 3.424,-5.317 1.891,-6.85 0,-6.85 c -1.893,0 -3.426,1.533 -3.426,3.425 C -3.426,-1.534 -1.893,0 0,0"
         style="fill:#363264;fill-opacity:1;fill-rule:nonzero;stroke:none"
         id="path11528"
         inkscape:connector-curvature="0" />
    </g>
    <g
       id="g11530"
       transform="matrix(0.35277777,0,0,-0.35277777,77.343571,99.183905)">
      <path
         d="M 0,0 C -1.498,1.195 -3.412,1.884 -5.478,1.81 -5.843,1.798 -6.202,1.759 -6.554,1.7 -6.627,1.531 -6.687,1.354 -6.731,1.171 c 0.412,0.083 0.835,0.135 1.271,0.151 2.038,0.072 3.922,-0.643 5.359,-1.87 C -0.053,-0.371 -0.019,-0.187 0,0"
         style="fill:#ffffff;fill-opacity:1;fill-rule:nonzero;stroke:none"
         id="path11532"
         inkscape:connector-curvature="0" />
    </g>
    <g
       id="g11534"
       transform="matrix(0.35277777,0,0,-0.35277777,75.09045,98.660242)">
      <path
         d="m 0,0 0.038,-0.081 0.07,-0.02 0.062,0.038 0.013,0.09 L 0.146,0.109 0.075,0.127 0.013,0.089 Z m -0.068,-0.012 0.003,0.087 0.023,0.05 0.039,0.036 0.07,0.024 L 0.19,0.156 0.253,0.036 0.227,-0.096 0.117,-0.158 -0.007,-0.13 Z"
         style="fill:#389240;fill-opacity:1;fill-rule:nonzero;stroke:none"
         id="path11536"
         inkscape:connector-curvature="0" />
    </g>
    <g
       id="g11538"
       transform="matrix(0.35277777,0,0,-0.35277777,75.25065,98.630961)">
      <path
         d="M 0,0 0.049,0.004 0.109,0.014 0.127,0.03 0.132,0.055 0.121,0.082 0.094,0.092 0.044,0.089 -0.008,0.084 Z M -0.051,-0.199 -0.08,0.135 0.061,0.147 0.141,0.146 0.182,0.117 0.201,0.065 0.185,0.002 0.121,-0.035 0.16,-0.06 0.202,-0.11 0.249,-0.172 0.169,-0.179 0.113,-0.111 0.074,-0.065 0.053,-0.053 0.018,-0.052 0.004,-0.054 0.017,-0.193 Z"
         style="fill:#389240;fill-opacity:1;fill-rule:nonzero;stroke:none"
         id="path11540"
         inkscape:connector-curvature="0" />
    </g>
    <g
       id="g11542"
       transform="matrix(0.35277777,0,0,-0.35277777,75.40019,98.590286)">
      <path
         d="m 0,0 0.006,-0.222 0.051,0.002 0.041,0.004 0.026,0.015 0.017,0.033 0.005,0.061 L 0.138,-0.048 0.117,-0.016 0.086,-0.001 0.03,0 Z M -0.069,0.055 0.055,0.058 0.118,0.054 0.169,0.024 0.203,-0.029 0.216,-0.108 0.207,-0.18 0.174,-0.24 0.127,-0.268 0.066,-0.277 -0.061,-0.28 Z"
         style="fill:#389240;fill-opacity:1;fill-rule:nonzero;stroke:none"
         id="path11544"
         inkscape:connector-curvature="0" />
    </g>
    <g
       id="g11546"
       transform="matrix(0.35277777,0,0,-0.35277777,75.52419,98.685748)">
      <path
         d="M 0,0 0.004,0.335 0.253,0.331 0.252,0.274 0.071,0.277 0.07,0.203 0.238,0.2 0.237,0.144 0.069,0.146 0.067,0.055 0.255,0.053 0.254,-0.004 Z"
         style="fill:#389240;fill-opacity:1;fill-rule:nonzero;stroke:none"
         id="path11548"
         inkscape:connector-curvature="0" />
    </g>
    <g
       id="g11550"
       transform="matrix(0.35277777,0,0,-0.35277777,75.661321,98.688817)">
      <path
         d="M 0,0 0.023,0.334 0.124,0.327 0.169,0.095 0.244,0.318 0.346,0.312 0.322,-0.022 0.26,-0.019 0.278,0.245 0.193,-0.014 0.129,-0.009 0.081,0.259 0.062,-0.004 Z"
         style="fill:#389240;fill-opacity:1;fill-rule:nonzero;stroke:none"
         id="path11552"
         inkscape:connector-curvature="0" />
    </g>
    <g
       id="g11554"
       transform="matrix(0.35277777,0,0,-0.35277777,75.897289,98.710866)">
      <path
         d="M 0,0 0.05,0.331 0.296,0.293 0.287,0.237 0.108,0.265 0.097,0.191 0.264,0.167 0.255,0.11 0.089,0.136 0.075,0.045 0.261,0.018 0.252,-0.039 Z"
         style="fill:#389240;fill-opacity:1;fill-rule:nonzero;stroke:none"
         id="path11556"
         inkscape:connector-curvature="0" />
    </g>
    <g
       id="g11558"
       transform="matrix(0.35277777,0,0,-0.35277777,76.14776,98.656432)">
      <path
         d="m 0,0 -0.021,-0.093 0.036,-0.008 0.053,-0.007 0.025,0.011 0.012,0.024 -0.003,0.032 -0.024,0.02 -0.046,0.014 z M -0.129,-0.256 -0.053,0.07 0.053,0.046 0.13,0.023 0.17,-0.02 0.174,-0.087 0.151,-0.136 0.116,-0.162 0.078,-0.169 l -0.069,0.011 -0.043,0.01 -0.028,-0.123 z"
         style="fill:#389240;fill-opacity:1;fill-rule:nonzero;stroke:none"
         id="path11560"
         inkscape:connector-curvature="0" />
    </g>
    <g
       id="g11562"
       transform="matrix(0.35277777,0,0,-0.35277777,76.278319,98.720179)">
      <path
         d="M 0,0 0.048,-0.014 0.107,-0.026 0.13,-0.018 0.144,0.005 0.142,0.033 0.121,0.053 0.073,0.068 0.024,0.082 Z M -0.118,-0.167 -0.026,0.156 0.11,0.116 0.183,0.086 0.212,0.044 V -0.01 L 0.173,-0.064 0.101,-0.075 0.128,-0.112 0.149,-0.176 0.172,-0.25 l -0.078,0.022 -0.028,0.084 -0.02,0.058 -0.016,0.019 -0.032,0.012 -0.013,0.004 -0.038,-0.135 z"
         style="fill:#389240;fill-opacity:1;fill-rule:nonzero;stroke:none"
         id="path11564"
         inkscape:connector-curvature="0" />
    </g>
    <g
       id="g11566"
       transform="matrix(0.35277777,0,0,-0.35277777,76.413719,98.770661)">
      <path
         d="M 0,0 -0.004,-0.09 0.05,-0.14 0.121,-0.133 0.175,-0.06 0.18,0.03 0.125,0.079 0.053,0.074 Z M -0.066,0.021 -0.024,0.097 0.02,0.13 0.07,0.145 0.144,0.133 0.24,0.051 V -0.084 L 0.157,-0.189 0.031,-0.194 -0.066,-0.113 Z"
         style="fill:#389240;fill-opacity:1;fill-rule:nonzero;stroke:none"
         id="path11568"
         inkscape:connector-curvature="0" />
    </g>
    <g
       id="g11570"
       transform="matrix(0.35277777,0,0,-0.35277777,76.589439,98.853176)">
      <path
         d="m 0,0 0.021,0.052 0.135,-0.055 -0.05,-0.123 -0.071,-0.011 -0.081,0.017 -0.077,0.055 -0.029,0.081 0.015,0.09 0.056,0.078 L 0.002,0.217 0.082,0.201 0.162,0.14 0.176,0.056 0.109,0.07 0.1,0.117 0.061,0.148 -0.016,0.149 -0.072,0.082 l -0.009,-0.093 0.053,-0.054 0.043,-0.008 0.041,0.004 0.016,0.04 z"
         style="fill:#389240;fill-opacity:1;fill-rule:nonzero;stroke:none"
         id="path11572"
         inkscape:connector-curvature="0" />
    </g>
    <g
       id="g11574"
       transform="matrix(0.35277777,0,0,-0.35277777,76.716551,98.881575)">
      <path
         d="M 0,0 0.046,-0.022 0.102,-0.044 0.125,-0.04 0.142,-0.02 0.146,0.008 0.128,0.031 0.085,0.053 0.036,0.076 Z M -0.144,-0.146 0,0.156 0.128,0.095 0.194,0.053 0.217,0.008 0.206,-0.046 0.16,-0.093 l -0.073,0.001 0.02,-0.041 0.012,-0.066 0.009,-0.076 -0.073,0.034 -0.013,0.087 -0.011,0.06 -0.012,0.022 -0.03,0.017 -0.011,0.006 -0.061,-0.126 z"
         style="fill:#389240;fill-opacity:1;fill-rule:nonzero;stroke:none"
         id="path11576"
         inkscape:connector-curvature="0" />
    </g>
    <g
       id="g11578"
       transform="matrix(0.35277777,0,0,-0.35277777,76.796129,98.996651)">
      <path
         d="M 0,0 0.16,0.294 0.378,0.176 0.352,0.126 0.191,0.212 0.156,0.146 0.305,0.067 0.277,0.017 0.13,0.097 0.087,0.017 0.251,-0.072 0.225,-0.122 Z"
         style="fill:#389240;fill-opacity:1;fill-rule:nonzero;stroke:none"
         id="path11580"
         inkscape:connector-curvature="0" />
    </g>
    <g
       id="g11582"
       transform="matrix(0.35277777,0,0,-0.35277777,76.930501,99.026778)">
      <path
         d="M 0,0 0.06,-0.028 0.055,-0.083 0.088,-0.122 0.138,-0.135 0.169,-0.116 0.174,-0.095 0.16,-0.07 0.121,-0.03 0.073,0.038 0.082,0.111 0.119,0.146 0.172,0.152 0.234,0.128 0.301,0.056 0.292,-0.025 0.232,0.007 0.236,0.049 0.205,0.081 0.159,0.095 0.14,0.082 0.138,0.06 0.18,0.009 0.229,-0.05 0.242,-0.099 0.227,-0.151 0.186,-0.189 0.127,-0.197 0.059,-0.17 -0.01,-0.094 Z"
         style="fill:#389240;fill-opacity:1;fill-rule:nonzero;stroke:none"
         id="path11584"
         inkscape:connector-curvature="0" />
    </g>
    <g
       id="g11586"
       transform="matrix(0.35277777,0,0,-0.35277777,77.04865,99.099838)">
      <path
         d="m 0,0 0.059,-0.032 -0.008,-0.053 0.032,-0.04 0.049,-0.017 0.031,0.018 0.006,0.02 L 0.157,-0.078 0.12,-0.036 0.075,0.035 0.088,0.107 0.127,0.14 0.181,0.144 0.241,0.117 0.304,0.041 0.291,-0.04 0.233,-0.004 0.238,0.037 0.21,0.07 0.165,0.086 0.144,0.076 0.141,0.053 0.18,0 0.227,-0.061 0.238,-0.11 0.22,-0.162 0.176,-0.198 0.118,-0.204 0.051,-0.172 -0.014,-0.094 Z"
         style="fill:#389240;fill-opacity:1;fill-rule:nonzero;stroke:none"
         id="path11588"
         inkscape:connector-curvature="0" />
    </g>
    <g
       id="g11590"
       transform="matrix(0.35277777,0,0,-0.35277777,77.196111,99.177167)">
      <path
         d="m 0,0 -0.03,-0.085 0.035,-0.063 0.07,-0.018 0.074,0.055 0.032,0.083 L 0.144,0.035 0.073,0.053 Z M -0.057,0.041 0.008,0.099 0.06,0.117 0.112,0.115 0.179,0.082 0.245,-0.026 0.203,-0.155 0.092,-0.229 -0.03,-0.195 -0.097,-0.086 Z"
         style="fill:#389240;fill-opacity:1;fill-rule:nonzero;stroke:none"
         id="path11592"
         inkscape:connector-curvature="0" />
    </g>
    <g
       id="g11594"
       transform="matrix(0.35277777,0,0,-0.35277777,76.52499,98.603727)">
      <path
         d="M 0,0 0.032,-0.097 H 0.134 L 0.052,-0.157 0.083,-0.253 0,-0.194 l -0.082,-0.059 0.032,0.096 -0.082,0.06 h 0.102 z"
         style="fill:#ffffff;fill-opacity:1;fill-rule:nonzero;stroke:none"
         id="path11596"
         inkscape:connector-curvature="0" />
    </g>
    <g
       id="g11598"
       transform="matrix(0.35277777,0,0,-0.35277777,76.146389,99.579722)">
      <path
         d="M 0,0 0.031,-0.097 H 0.133 L 0.051,-0.156 0.082,-0.253 0,-0.193 l -0.082,-0.06 0.031,0.097 -0.082,0.059 h 0.102 z"
         style="fill:#ffffff;fill-opacity:1;fill-rule:nonzero;stroke:none"
         id="path11600"
         inkscape:connector-curvature="0" />
    </g>
    <g
       id="g11602"
       transform="matrix(0.35277777,0,0,-0.35277777,77.00388,99.459672)">
      <path
         d="M 0,0 0.032,-0.099 H 0.136 L 0.052,-0.16 0.084,-0.258 0,-0.197 l -0.083,-0.061 0.031,0.098 -0.083,0.061 h 0.103 z"
         style="fill:#ffffff;fill-opacity:1;fill-rule:nonzero;stroke:none"
         id="path11604"
         inkscape:connector-curvature="0" />
    </g>
    <g
       id="g11606"
       transform="matrix(0.35277777,0,0,-0.35277777,77.173039,99.4886)">
      <path
         d="M 0,0 0.021,-0.062 H 0.087 L 0.033,-0.102 0.054,-0.165 0,-0.126 l -0.053,-0.039 0.02,0.063 -0.053,0.04 h 0.066 z"
         style="fill:#ffffff;fill-opacity:1;fill-rule:nonzero;stroke:none"
         id="path11608"
         inkscape:connector-curvature="0" />
    </g>
    <g
       id="g11610"
       transform="matrix(0.35277777,0,0,-0.35277777,77.05278,99.574924)">
      <path
         d="m 0,0 0.028,-0.085 h 0.09 L 0.045,-0.138 0.073,-0.224 0,-0.171 l -0.072,-0.053 0.028,0.086 -0.073,0.053 h 0.09 z"
         style="fill:#ffffff;fill-opacity:1;fill-rule:nonzero;stroke:none"
         id="path11612"
         inkscape:connector-curvature="0" />
    </g>
    <g
       id="g11614"
       transform="matrix(0.35277777,0,0,-0.35277777,76.97735,99.674655)">
      <path
         d="M 0,0 0.027,-0.084 H 0.115 L 0.045,-0.136 0.072,-0.22 0,-0.168 -0.07,-0.22 l 0.027,0.084 -0.072,0.052 h 0.089 z"
         style="fill:#ffffff;fill-opacity:1;fill-rule:nonzero;stroke:none"
         id="path11616"
         inkscape:connector-curvature="0" />
    </g>
    <g
       id="g11618"
       transform="matrix(0.35277777,0,0,-0.35277777,76.88055,99.747009)">
      <path
         d="M 0,0 0.021,-0.064 H 0.089 L 0.034,-0.105 0.056,-0.169 0,-0.129 l -0.055,-0.04 0.021,0.064 -0.055,0.041 h 0.068 z"
         style="fill:#ffffff;fill-opacity:1;fill-rule:nonzero;stroke:none"
         id="path11620"
         inkscape:connector-curvature="0" />
    </g>
    <g
       id="g11622"
       transform="matrix(0.35277777,0,0,-0.35277777,76.75341,99.722703)">
      <path
         d="M 0,0 0.021,-0.063 H 0.088 L 0.034,-0.103 0.055,-0.167 0,-0.127 l -0.054,-0.04 0.021,0.064 -0.054,0.04 h 0.067 z"
         style="fill:#ffffff;fill-opacity:1;fill-rule:nonzero;stroke:none"
         id="path11624"
         inkscape:connector-curvature="0" />
    </g>
    <g
       id="g11626"
       transform="matrix(0.35277777,0,0,-0.35277777,76.616639,99.764048)">
      <path
         d="M 0,0 0.022,-0.069 H 0.095 L 0.036,-0.112 0.059,-0.181 0,-0.138 l -0.059,-0.043 0.023,0.069 -0.059,0.043 h 0.073 z"
         style="fill:#ffffff;fill-opacity:1;fill-rule:nonzero;stroke:none"
         id="path11628"
         inkscape:connector-curvature="0" />
    </g>
    <g
       id="g11630"
       transform="matrix(0.35277777,0,0,-0.35277777,76.755809,99.963509)">
      <path
         d="M 0,0 0.021,-0.065 H 0.089 L 0.034,-0.105 0.056,-0.17 0,-0.13 l -0.056,-0.04 0.022,0.065 -0.055,0.04 h 0.068 z"
         style="fill:#ffffff;fill-opacity:1;fill-rule:nonzero;stroke:none"
         id="path11632"
         inkscape:connector-curvature="0" />
    </g>
    <g
       id="g11634"
       transform="matrix(0.35277777,0,0,-0.35277777,76.509149,99.858452)">
      <path
         d="M 0,0 0.028,-0.088 H 0.121 L 0.046,-0.143 0.075,-0.23 0,-0.176 -0.075,-0.23 l 0.029,0.087 -0.075,0.055 h 0.093 z"
         style="fill:#ffffff;fill-opacity:1;fill-rule:nonzero;stroke:none"
         id="path11636"
         inkscape:connector-curvature="0" />
    </g>
    <g
       id="g11638"
       transform="matrix(0.35277777,0,0,-0.35277777,76.414431,99.732334)">
      <path
         d="M 0,0 0.022,-0.067 H 0.094 L 0.036,-0.108 0.059,-0.176 0,-0.135 l -0.057,-0.041 0.022,0.068 -0.057,0.041 h 0.071 z"
         style="fill:#ffffff;fill-opacity:1;fill-rule:nonzero;stroke:none"
         id="path11640"
         inkscape:connector-curvature="0" />
    </g>
    <g
       id="g11642"
       transform="matrix(0.35277777,0,0,-0.35277777,76.759619,99.831217)">
      <path
         d="m 0,0 0.028,-0.085 h 0.09 L 0.045,-0.138 0.072,-0.224 0,-0.171 l -0.072,-0.053 0.027,0.086 -0.072,0.053 h 0.09 z"
         style="fill:#ffffff;fill-opacity:1;fill-rule:nonzero;stroke:none"
         id="path11644"
         inkscape:connector-curvature="0" />
    </g>
    <g
       id="g11646"
       transform="matrix(0.35277777,0,0,-0.35277777,76.145011,100.02535)">
      <path
         d="M 0,0 0.01,-0.031 H 0.042 L 0.016,-0.05 0.025,-0.081 0,-0.062 l -0.026,-0.019 0.009,0.031 -0.025,0.019 h 0.032 z"
         style="fill:#ffffff;fill-opacity:1;fill-rule:nonzero;stroke:none"
         id="path11648"
         inkscape:connector-curvature="0" />
    </g>
    <g
       id="g11650"
       transform="matrix(0.35277777,0,0,-0.35277777,76.4654,98.971322)">
      <path
         d="M 0,0 0.023,-0.07 H 0.097 L 0.037,-0.113 0.061,-0.184 0,-0.141 l -0.059,-0.043 0.023,0.071 -0.06,0.043 h 0.074 z"
         style="fill:#ffffff;fill-opacity:1;fill-rule:nonzero;stroke:none"
         id="path11652"
         inkscape:connector-curvature="0" />
    </g>
    <g
       id="g11654"
       transform="matrix(0.35277777,0,0,-0.35277777,76.14568,99.237633)">
      <path
         d="M 0,0 0.024,-0.074 H 0.103 L 0.039,-0.12 0.063,-0.194 0,-0.147 l -0.062,-0.047 0.024,0.074 -0.064,0.046 h 0.079 z"
         style="fill:#ffffff;fill-opacity:1;fill-rule:nonzero;stroke:none"
         id="path11656"
         inkscape:connector-curvature="0" />
    </g>
    <g
       id="g11658"
       transform="matrix(0.35277777,0,0,-0.35277777,76.28764,99.347524)">
      <path
         d="M 0,0 0.025,-0.079 H 0.109 L 0.042,-0.128 0.068,-0.207 0,-0.158 l -0.067,-0.049 0.026,0.079 -0.068,0.049 h 0.084 z"
         style="fill:#ffffff;fill-opacity:1;fill-rule:nonzero;stroke:none"
         id="path11660"
         inkscape:connector-curvature="0" />
    </g>
    <g
       id="g11662"
       transform="matrix(0.35277777,0,0,-0.35277777,76.023049,99.351334)">
      <path
         d="M 0,0 0.02,-0.062 H 0.086 L 0.032,-0.101 0.053,-0.164 0,-0.125 l -0.054,-0.039 0.021,0.063 -0.054,0.039 h 0.066 z"
         style="fill:#ffffff;fill-opacity:1;fill-rule:nonzero;stroke:none"
         id="path11664"
         inkscape:connector-curvature="0" />
    </g>
    <g
       id="g11666"
       transform="matrix(0.35277777,0,0,-0.35277777,76.081619,99.450711)">
      <path
         d="M 0,0 0.014,-0.042 H 0.058 L 0.021,-0.068 0.035,-0.109 0,-0.083 l -0.035,-0.026 0.014,0.041 -0.036,0.026 h 0.043 z"
         style="fill:#ffffff;fill-opacity:1;fill-rule:nonzero;stroke:none"
         id="path11668"
         inkscape:connector-curvature="0" />
    </g>
    <g
       id="g11670"
       transform="matrix(0.35277777,0,0,-0.35277777,75.14319,98.81423)">
      <path
         d="M 0,0 0.031,-0.097 H 0.133 L 0.051,-0.156 0.082,-0.253 0,-0.193 l -0.082,-0.06 0.031,0.097 -0.082,0.059 h 0.102 z"
         style="fill:#ffffff;fill-opacity:1;fill-rule:nonzero;stroke:none"
         id="path11672"
         inkscape:connector-curvature="0" />
    </g>
    <g
       id="g11674"
       transform="matrix(0.35277777,0,0,-0.35277777,75.67165,99.088479)">
      <path
         d="M 0,0 0.025,-0.08 H 0.109 L 0.042,-0.129 0.068,-0.209 0,-0.16 l -0.068,-0.049 0.027,0.08 -0.068,0.049 h 0.084 z"
         style="fill:#ffffff;fill-opacity:1;fill-rule:nonzero;stroke:none"
         id="path11676"
         inkscape:connector-curvature="0" />
    </g>
    <g
       id="g11678"
       transform="matrix(0.35277777,0,0,-0.35277777,75.25273,99.32738)">
      <path
         d="M 0,0 0.031,-0.097 H 0.133 L 0.051,-0.158 0.082,-0.254 0,-0.194 l -0.083,-0.06 0.031,0.096 -0.082,0.061 h 0.102 z"
         style="fill:#ffffff;fill-opacity:1;fill-rule:nonzero;stroke:none"
         id="path11680"
         inkscape:connector-curvature="0" />
    </g>
    <g
       id="g11682"
       transform="matrix(0.35277777,0,0,-0.35277777,75.37123,99.276404)">
      <path
         d="m 0,0 0.016,-0.049 h 0.05 L 0.025,-0.079 0.041,-0.127 0,-0.097 l -0.041,-0.03 0.016,0.048 -0.041,0.03 h 0.05 z"
         style="fill:#ffffff;fill-opacity:1;fill-rule:nonzero;stroke:none"
         id="path11684"
         inkscape:connector-curvature="0" />
    </g>
    <g
       id="g11686"
       transform="matrix(0.35277777,0,0,-0.35277777,75.50906,99.456038)">
      <path
         d="M 0,0 0.026,-0.083 H 0.113 L 0.043,-0.133 0.069,-0.216 0,-0.165 l -0.071,-0.051 0.027,0.083 -0.07,0.05 h 0.087 z"
         style="fill:#ffffff;fill-opacity:1;fill-rule:nonzero;stroke:none"
         id="path11688"
         inkscape:connector-curvature="0" />
    </g>
    <g
       id="g11690"
       transform="matrix(0.35277777,0,0,-0.35277777,75.652709,99.680687)">
      <path
         d="M 0,0 0.031,-0.097 H 0.133 L 0.051,-0.156 0.082,-0.252 0,-0.193 l -0.082,-0.059 0.031,0.096 -0.082,0.059 h 0.102 z"
         style="fill:#ffffff;fill-opacity:1;fill-rule:nonzero;stroke:none"
         id="path11692"
         inkscape:connector-curvature="0" />
    </g>
    <g
       id="g11694"
       transform="matrix(0.35277777,0,0,-0.35277777,75.46909,99.577993)">
      <path
         d="M 0,0 0.027,-0.082 H 0.113 L 0.044,-0.133 0.07,-0.215 0,-0.165 l -0.069,-0.05 0.026,0.082 -0.07,0.051 h 0.087 z"
         style="fill:#ffffff;fill-opacity:1;fill-rule:nonzero;stroke:none"
         id="path11696"
         inkscape:connector-curvature="0" />
    </g>
    <g
       id="g11698"
       transform="matrix(0.35277777,0,0,-0.35277777,75.10114,99.451558)">
      <path
         d="M 0,0 0.021,-0.064 H 0.088 L 0.033,-0.104 0.055,-0.167 0,-0.128 l -0.055,-0.039 0.021,0.063 -0.055,0.04 h 0.068 z"
         style="fill:#ffffff;fill-opacity:1;fill-rule:nonzero;stroke:none"
         id="path11700"
         inkscape:connector-curvature="0" />
    </g>
  </g>
</svg>
