<?xml version="1.0" encoding="UTF-8" standalone="no"?>
<!-- Created with Inkscape (http://www.inkscape.org/) -->

<svg
   xmlns:dc="http://purl.org/dc/elements/1.1/"
   xmlns:cc="http://creativecommons.org/ns#"
   xmlns:rdf="http://www.w3.org/1999/02/22-rdf-syntax-ns#"
   xmlns:svg="http://www.w3.org/2000/svg"
   xmlns="http://www.w3.org/2000/svg"
   xmlns:sodipodi="http://sodipodi.sourceforge.net/DTD/sodipodi-0.dtd"
   xmlns:inkscape="http://www.inkscape.org/namespaces/inkscape"
   width="7.0848298mm"
   height="4.7329102mm"
   viewBox="0 0 7.0848298 4.7329102"
   version="1.1"
   id="svg8"
   inkscape:version="0.92.4 (5da689c313, 2019-01-14)"
   sodipodi:docname="brunei_darussalam.svg">
  <defs
     id="defs2">
    <radialGradient
       id="radialGradient37584"
       spreadMethod="pad"
       gradientTransform="matrix(0.975099,0,0,0.975099,159.64062,365.06934)"
       gradientUnits="userSpaceOnUse"
       r="1"
       cy="0"
       cx="0"
       fy="0"
       fx="0">
      <stop
         id="stop37578"
         offset="0"
         style="stop-opacity:1;stop-color:#852c26" />
      <stop
         id="stop37580"
         offset="0.0015476"
         style="stop-opacity:1;stop-color:#852c26" />
      <stop
         id="stop37582"
         offset="1"
         style="stop-opacity:1;stop-color:#451617" />
    </radialGradient>
    <clipPath
       id="clipPath37532"
       clipPathUnits="userSpaceOnUse">
      <path
         inkscape:connector-curvature="0"
         id="path37530"
         d="M 0,400 H 400 V 0 H 0 Z" />
    </clipPath>
    <radialGradient
       id="radialGradient37522"
       spreadMethod="pad"
       gradientTransform="matrix(-0.2637247,0,0,0.2637247,159.68652,365.88965)"
       gradientUnits="userSpaceOnUse"
       r="1"
       cy="0"
       cx="0"
       fy="0"
       fx="0">
      <stop
         id="stop37516"
         offset="0"
         style="stop-opacity:1;stop-color:#852c26" />
      <stop
         id="stop37518"
         offset="0.0015476"
         style="stop-opacity:1;stop-color:#852c26" />
      <stop
         id="stop37520"
         offset="1"
         style="stop-opacity:1;stop-color:#451617" />
    </radialGradient>
    <clipPath
       id="clipPath37354"
       clipPathUnits="userSpaceOnUse">
      <path
         inkscape:connector-curvature="0"
         id="path37352"
         d="M 0,400 H 400 V 0 H 0 Z" />
    </clipPath>
    <radialGradient
       id="radialGradient37344"
       spreadMethod="pad"
       gradientTransform="matrix(0.975099,0,0,0.975099,155.76025,365.06934)"
       gradientUnits="userSpaceOnUse"
       r="1"
       cy="0"
       cx="0"
       fy="0"
       fx="0">
      <stop
         id="stop37338"
         offset="0"
         style="stop-opacity:1;stop-color:#eee54f" />
      <stop
         id="stop37340"
         offset="0.9977451"
         style="stop-opacity:1;stop-color:#e04a20" />
      <stop
         id="stop37342"
         offset="1"
         style="stop-opacity:1;stop-color:#e04a20" />
    </radialGradient>
    <clipPath
       id="clipPath37272"
       clipPathUnits="userSpaceOnUse">
      <path
         inkscape:connector-curvature="0"
         id="path37270"
         d="M 0,400 H 400 V 0 H 0 Z" />
    </clipPath>
    <radialGradient
       id="radialGradient37262"
       spreadMethod="pad"
       gradientTransform="matrix(0.2636045,0,0,0.2636045,155.71484,365.89062)"
       gradientUnits="userSpaceOnUse"
       r="1"
       cy="0"
       cx="0"
       fy="0"
       fx="0">
      <stop
         id="stop37256"
         offset="0"
         style="stop-opacity:1;stop-color:#eee54f" />
      <stop
         id="stop37258"
         offset="0.9977451"
         style="stop-opacity:1;stop-color:#e04a20" />
      <stop
         id="stop37260"
         offset="1"
         style="stop-opacity:1;stop-color:#e04a20" />
    </radialGradient>
  </defs>
  <sodipodi:namedview
     id="base"
     pagecolor="#ffffff"
     bordercolor="#666666"
     borderopacity="1.0"
     inkscape:pageopacity="0.0"
     inkscape:pageshadow="2"
     inkscape:zoom="11.2"
     inkscape:cx="26.533891"
     inkscape:cy="6.5150454"
     inkscape:document-units="mm"
     inkscape:current-layer="layer1"
     showgrid="false"
     inkscape:window-width="954"
     inkscape:window-height="630"
     inkscape:window-x="-3"
     inkscape:window-y="6"
     inkscape:window-maximized="0" />
  <metadata
     id="metadata5">
    <rdf:RDF>
      <cc:Work
         rdf:about="">
        <dc:format>image/svg+xml</dc:format>
        <dc:type
           rdf:resource="http://purl.org/dc/dcmitype/StillImage" />
        <dc:title></dc:title>
      </cc:Work>
    </rdf:RDF>
  </metadata>
  <g
     inkscape:label="Layer 1"
     inkscape:groupmode="layer"
     id="layer1"
     transform="translate(-71.65513,-96.32174)">
    <path
       d="m 71.68441,101.02531 h 7.02627 v -4.674662 h -7.02627 z m 7.04109,0.0148 v -0.0148 z m -7.07037,0.0145 v -4.73287 h 7.08483 v 4.71841 0.0145 z"
       style="fill:#221f21;fill-opacity:1;fill-rule:nonzero;stroke:none;stroke-width:0.35277778"
       id="path38580"
       inkscape:connector-curvature="0" />
    <path
       d="m 71.66959,96.336184 h 7.05555 v 4.703586 h -7.05555 z"
       style="fill:#e3d32a;fill-opacity:1;fill-rule:nonzero;stroke:none;stroke-width:0.35277778"
       id="path38582"
       inkscape:connector-curvature="0" />
    <g
       id="g38584"
       transform="matrix(0.35277777,0,0,-0.35277777,71.669516,96.662997)">
      <path
         d="M 0,0 20,-5.555 V -8.704 L 0,-3.148 Z"
         style="fill:#ffffff;fill-opacity:1;fill-rule:nonzero;stroke:none"
         id="path38586"
         inkscape:connector-curvature="0" />
    </g>
    <g
       id="g38588"
       transform="matrix(0.35277777,0,0,-0.35277777,71.669516,97.773542)">
      <path
         d="M 0,0 20,-5.556 V -8.333 L 0,-2.778 Z"
         style="fill:#0e0f0e;fill-opacity:1;fill-rule:nonzero;stroke:none"
         id="path38590"
         inkscape:connector-curvature="0" />
    </g>
    <g
       id="g38592"
       transform="matrix(0.35277777,0,0,-0.35277777,75.186958,97.255911)">
      <path
         d="M 0,0 H 0.041 L 0.205,-0.089 0.229,-0.304 0.15,-0.396 0.135,-0.454 0.331,-0.509 0.521,-0.646 0.658,-0.714 0.839,-0.729 0.883,-0.781 0.833,-0.848 0.643,-0.991 0.78,-1.24 0.605,-1.235 c -0.119,0.03 -0.23,0.083 -0.334,0.149 l -0.132,0.032 v -0.148 c 0.114,-0.002 0.234,-0.005 0.339,-0.059 l 0.13,-0.138 C 0.687,-1.551 0.73,-1.725 0.707,-1.896 L 0.652,-2.002 0.541,-1.961 0.454,-1.745 0.399,-1.919 0.319,-1.979 0.249,-1.94 0.178,-1.769 0.146,-1.878 v -0.294 c 0.088,0.048 0.191,0.071 0.291,0.057 0.096,-0.013 0.188,-0.048 0.278,-0.08 0.226,-0.084 0.453,-0.176 0.685,-0.243 0.194,-0.058 0.395,-0.101 0.596,-0.085 0.137,-10e-4 0.274,0.017 0.411,0.002 L 2.512,-2.57 2.498,-2.658 2.328,-2.778 2.293,-2.872 C 2.219,-2.936 2.121,-2.954 2.029,-2.973 L 1.988,-3.063 C 2.262,-3.367 2.432,-3.755 2.5,-4.158 2.605,-4.77 2.491,-5.417 2.184,-5.957 1.969,-6.337 1.65,-6.66 1.266,-6.868 0.797,-7.124 0.243,-7.206 -0.285,-7.147 c -0.332,0.037 -0.658,0.133 -0.949,0.298 -0.282,0.158 -0.526,0.376 -0.72,0.633 -0.433,0.578 -0.606,1.335 -0.49,2.045 0.066,0.404 0.23,0.796 0.506,1.103 l -0.054,0.096 -0.252,0.091 -0.042,0.103 -0.175,0.125 0.004,0.1 0.158,0.038 c 0.213,0.004 0.427,-0.03 0.637,0.006 0.25,0.042 0.486,0.127 0.721,0.213 0.158,0.058 0.311,0.123 0.472,0.168 0.123,0.036 0.26,0.013 0.375,-0.043 v 0.267 l -0.041,0.137 -0.068,-0.167 -0.065,-0.046 -0.086,0.055 -0.059,0.176 -0.087,-0.226 -0.117,-0.017 -0.045,0.137 c -0.012,0.134 0.013,0.27 0.069,0.394 l 0.086,0.147 0.161,0.088 0.256,0.024 c 0,0.266 0.002,0.531 0,0.796 l -0.104,0.13 0.029,0.181 z"
         style="fill:#10100f;fill-opacity:1;fill-rule:nonzero;stroke:none"
         id="path38594"
         inkscape:connector-curvature="0" />
    </g>
    <g
       id="g38596"
       transform="matrix(0.35277777,0,0,-0.35277777,75.176616,97.281911)">
      <path
         d="M 0,0 0.204,-0.095 0.153,-0.26 0.002,-0.287 l -0.11,0.142 z"
         style="fill:#c12130;fill-opacity:1;fill-rule:nonzero;stroke:none"
         id="path38598"
         inkscape:connector-curvature="0" />
    </g>
    <g
       id="g38600"
       transform="matrix(0.35277777,0,0,-0.35277777,75.179018,97.407676)">
      <path
         d="M 0,0 H 0.096 L 0.089,-0.02 0.019,-0.027 c 0.002,-0.199 0.007,-0.397 0.007,-0.597 l 0.07,-0.007 V -0.812 L 0.093,-0.848 0.009,-0.85 -0.001,-0.812 C 0,-0.542 -0.002,-0.271 0,0"
         style="fill:#c12130;fill-opacity:1;fill-rule:nonzero;stroke:none"
         id="path38602"
         inkscape:connector-curvature="0" />
    </g>
    <g
       id="g38604"
       transform="matrix(0.35277777,0,0,-0.35277777,75.209006,97.438509)">
      <path
         d="M 0,0 C 0.118,0.001 0.238,-0.031 0.33,-0.105 L 0.45,-0.202 C 0.531,-0.254 0.63,-0.283 0.729,-0.279 L 0.527,-0.434 0.51,-0.48 0.607,-0.665 c -0.102,0.017 -0.201,0.061 -0.293,0.109 l -0.126,0.067 -0.18,0.012 C 0,-0.318 0.001,-0.159 0,0"
         style="fill:#c12130;fill-opacity:1;fill-rule:nonzero;stroke:none"
         id="path38606"
         inkscape:connector-curvature="0" />
    </g>
    <g
       id="g38608"
       transform="matrix(0.35277777,0,0,-0.35277777,75.062567,97.713076)">
      <path
         d="M 0,0 0.261,0.032 0.33,-0.051 0.469,-0.027 0.495,0.027 C 0.601,0.03 0.713,0.025 0.807,-0.027 0.71,-0.067 0.605,-0.072 0.503,-0.079 c -0.109,-0.008 -0.22,0 -0.33,0.005 l -0.226,0.047 z"
         style="fill:#c12130;fill-opacity:1;fill-rule:nonzero;stroke:none"
         id="path38610"
         inkscape:connector-curvature="0" />
    </g>
    <g
       id="g38612"
       transform="matrix(0.35277777,0,0,-0.35277777,75.021578,97.739075)">
      <path
         d="m 0,0 0.029,-0.01 0.18,-0.045 c 0.103,-0.014 0.207,-0.016 0.311,-0.016 0.111,0 0.226,0.005 0.334,0.027 L 0.981,0.002 C 1.049,-0.098 1.09,-0.214 1.11,-0.333 L 1.09,-0.579 1.053,-0.538 0.982,-0.346 0.937,-0.289 0.877,-0.322 0.785,-0.55 0.683,-0.312 0.631,-0.288 0.598,-0.336 0.516,-0.521 H 0.465 l -0.098,0.213 -0.068,0.001 -0.106,-0.243 -0.1,0.243 -0.08,-0.006 -0.084,-0.236 -0.034,-0.03 c -0.041,0.102 -0.03,0.216 -0.008,0.321 l 0.058,0.163 z"
         style="fill:#c12130;fill-opacity:1;fill-rule:nonzero;stroke:none"
         id="path38614"
         inkscape:connector-curvature="0" />
    </g>
    <g
       id="g38616"
       transform="matrix(0.35277777,0,0,-0.35277777,75.176616,97.946473)">
      <path
         d="M 0,0 0.109,0.004 V -0.245 L 0.001,-0.242 Z"
         style="fill:#c12130;fill-opacity:1;fill-rule:nonzero;stroke:none"
         id="path38618"
         inkscape:connector-curvature="0" />
    </g>
    <g
       id="g38620"
       transform="matrix(0.35277777,0,0,-0.35277777,74.969577,98.047579)">
      <path
         d="M 0,0 0.239,0.067 0.468,0.025 0.649,-0.028 0.813,0.024 C 0.906,0.071 1.018,0.082 1.116,0.05 1.269,0.008 1.415,-0.053 1.562,-0.108 1.807,-0.2 2.053,-0.289 2.311,-0.33 2.521,-0.365 2.735,-0.333 2.948,-0.336 L 3.075,-0.361 C 3.012,-0.44 2.915,-0.488 2.814,-0.5 2.627,-0.523 2.438,-0.501 2.253,-0.477 L 2.212,-0.515 2.261,-0.544 C 2.45,-0.568 2.646,-0.59 2.839,-0.563 L 2.882,-0.558 2.749,-0.637 C 2.606,-0.679 2.458,-0.686 2.311,-0.678 2.125,-0.665 1.942,-0.625 1.765,-0.57 L 1.718,-0.599 1.756,-0.636 c 0.192,-0.059 0.39,-0.099 0.589,-0.11 l 0.238,0.007 -0.08,-0.038 -0.227,-0.04 c -0.181,0 -0.365,0.005 -0.544,0.044 L 1.495,-0.679 1.449,-0.693 1.481,-0.749 C 1.607,-0.824 1.755,-0.849 1.9,-0.866 1.991,-0.875 2.085,-0.88 2.178,-0.882 L 1.916,-0.932 C 1.741,-0.919 1.567,-0.889 1.399,-0.838 1.301,-0.805 1.2,-0.767 1.123,-0.695 L 1.07,-0.701 1.088,-0.749 1.185,-0.819 1.302,-0.853 C 1.417,-0.88 1.532,-0.905 1.647,-0.932 L 1.577,-1.004 C 1.465,-1.019 1.354,-0.997 1.248,-0.964 1.112,-0.919 0.981,-0.849 0.884,-0.742 L 0.851,-0.72 0.822,-0.771 c 0.074,-0.086 0.17,-0.15 0.271,-0.202 -0.129,0.022 -0.258,0.07 -0.358,0.155 L 0.64,-0.7 0.563,-0.79 C 0.482,-0.851 0.387,-0.894 0.288,-0.923 L 0.163,-0.939 0.14,-0.902 0.224,-0.803 c 0.128,0.094 0.281,0.151 0.435,0.183 l 0.03,0.037 -0.048,0.026 C 0.485,-0.59 0.331,-0.646 0.2,-0.741 v 0.046 l -0.055,-0.003 -0.22,-0.124 c -0.109,-0.038 -0.221,-0.064 -0.332,-0.082 -0.108,-0.017 -0.212,-0.031 -0.32,-0.031 l -0.176,0.053 c 0.167,0.005 0.337,0.013 0.499,0.055 l 0.212,0.089 0.019,0.038 -0.031,0.031 -0.228,-0.098 c -0.169,-0.039 -0.34,-0.048 -0.512,-0.05 l -0.26,0.031 -0.109,0.047 0.117,-0.007 c 0.234,-0.008 0.467,0.037 0.689,0.102 l 0.05,0.019 -0.003,0.053 h -0.037 c -0.24,-0.074 -0.494,-0.123 -0.748,-0.106 l -0.25,0.047 -0.113,0.072 0.244,-0.017 c 0.135,0.004 0.27,0.014 0.403,0.037 l -0.009,0.062 c -0.169,-0.021 -0.34,-0.042 -0.511,-0.03 l -0.195,0.048 -0.125,0.103 0.237,0.019 c 0.104,-0.004 0.211,-0.01 0.319,-0.009 0.138,-0.002 0.275,0.025 0.411,0.058 C -0.55,-0.215 -0.276,-0.1 0,0"
         style="fill:#c12130;fill-opacity:1;fill-rule:nonzero;stroke:none"
         id="path38622"
         inkscape:connector-curvature="0" />
    </g>
    <g
       id="g38624"
       transform="matrix(0.35277777,0,0,-0.35277777,74.839687,98.388116)">
      <path
         d="M 0,0 C 0.177,0.039 0.359,0.078 0.512,0.181 L 0.45,0.094 0.444,0.02 C 0.332,-0.021 0.214,-0.05 0.095,-0.042 Z"
         style="fill:#c12130;fill-opacity:1;fill-rule:nonzero;stroke:none"
         id="path38626"
         inkscape:connector-curvature="0" />
    </g>
    <g
       id="g38628"
       transform="matrix(0.35277777,0,0,-0.35277777,75.166956,98.356789)">
      <path
         d="m 0,0 0.077,0.062 0.087,-0.08 V -0.294 L 0.08,-0.209 -0.001,-0.29 c 0,0.097 -0.001,0.194 0.001,0.29"
         style="fill:#c12130;fill-opacity:1;fill-rule:nonzero;stroke:none"
         id="path38630"
         inkscape:connector-curvature="0" />
    </g>
    <g
       id="g38632"
       transform="matrix(0.35277777,0,0,-0.35277777,75.804988,98.354037)">
      <path
         d="M 0,0 0.163,0.031 C 0.389,-0.205 0.541,-0.502 0.629,-0.813 0.795,-1.411 0.732,-2.064 0.473,-2.625 0.288,-3.022 -0.003,-3.373 -0.372,-3.61 c -0.227,-0.148 -0.481,-0.253 -0.742,-0.312 -0.288,-0.065 -0.587,-0.081 -0.882,-0.052 -0.304,0.031 -0.606,0.113 -0.877,0.251 -0.291,0.149 -0.545,0.36 -0.746,0.615 -0.412,0.524 -0.598,1.213 -0.534,1.876 0.036,0.381 0.161,0.757 0.382,1.071 l 0.15,0.185 0.173,-0.029 c -0.199,-0.364 -0.251,-0.797 -0.185,-1.203 0.052,-0.331 0.183,-0.65 0.381,-0.92 0.176,-0.237 0.406,-0.434 0.672,-0.562 0.312,-0.153 0.666,-0.21 1.009,-0.186 0.329,0.02 0.655,0.123 0.927,0.308 0.231,0.153 0.419,0.362 0.56,0.599 0.171,0.288 0.271,0.62 0.292,0.954 C 0.231,-0.666 0.167,-0.308 0,0"
         style="fill:#c12130;fill-opacity:1;fill-rule:nonzero;stroke:none"
         id="path38634"
         inkscape:connector-curvature="0" />
    </g>
    <g
       id="g38636"
       transform="matrix(0.35277777,0,0,-0.35277777,74.609566,98.36575)">
      <path
         d="m 0,0 0.035,0.02 0.057,-0.064 0.235,-0.054 0.261,0.025 0.143,-0.097 c 0.138,-0.011 0.275,0.022 0.404,0.071 L 1.175,-0.1 1.317,-0.087 1.514,-0.01 V -0.352 L 1.499,-0.41 1.463,-0.505 C 1.408,-0.422 1.341,-0.34 1.246,-0.304 l -0.156,0.003 0.101,-0.117 0.07,-0.209 c 0.018,-0.196 0.021,-0.392 0.02,-0.587 l -0.244,0.01 0.142,-0.16 0.052,-0.262 C 1.243,-1.777 1.237,-1.93 1.243,-2.08 L 1.239,-2.304 c -0.094,0.029 -0.194,0.017 -0.291,0 L 1.086,-2.511 1.119,-2.707 C 0.836,-2.626 0.573,-2.471 0.364,-2.26 -0.084,-1.807 -0.287,-1.13 -0.178,-0.503 -0.145,-0.327 -0.087,-0.156 0,0"
         style="fill:#c12130;fill-opacity:1;fill-rule:nonzero;stroke:none"
         id="path38638"
         inkscape:connector-curvature="0" />
    </g>
    <g
       id="g38640"
       transform="matrix(0.35277777,0,0,-0.35277777,75.692696,98.399158)">
      <path
         d="M 0,0 0.208,0.115 0.252,0.112 C 0.418,-0.184 0.482,-0.531 0.463,-0.869 0.443,-1.21 0.34,-1.546 0.16,-1.835 0.017,-2.072 -0.183,-2.276 -0.418,-2.422 -0.555,-2.508 -0.705,-2.572 -0.859,-2.616 l 0.025,0.19 0.139,0.217 c -0.103,0.018 -0.21,0.03 -0.309,-0.008 0.002,0.229 0.006,0.457 0.024,0.685 l 0.046,0.256 0.148,0.165 -0.239,-0.008 c 0.004,0.201 0.006,0.402 0.026,0.603 l 0.072,0.204 0.105,0.109 -0.18,-0.009 -0.209,-0.187 -0.018,0.033 -0.031,0.1 c 0.001,0.108 0,0.217 0.001,0.325 0.113,-0.061 0.241,-0.104 0.37,-0.104 l 0.101,0.005 c 0.102,-0.028 0.212,-0.046 0.319,-0.033 l 0.125,0.095 C -0.23,0.006 -0.115,-0.01 0,0"
         style="fill:#c12130;fill-opacity:1;fill-rule:nonzero;stroke:none"
         id="path38642"
         inkscape:connector-curvature="0" />
    </g>
    <g
       id="g38644"
       transform="matrix(0.35277777,0,0,-0.35277777,75.155248,98.528521)">
      <path
         d="M 0,0 0.113,0.189 C 0.178,0.116 0.219,0.027 0.248,-0.067 L 0.291,-0.237 0.359,-0.084 0.536,0.088 0.475,-0.05 C 0.453,-0.164 0.447,-0.282 0.442,-0.397 0.436,-0.527 0.439,-0.658 0.431,-0.788 L 0.368,-0.856 0.324,-0.922 0.229,-0.717 0.113,-0.583 c -0.101,-0.09 -0.172,-0.213 -0.21,-0.343 l -0.104,0.133 c 0.002,0.217 -0.001,0.435 -0.022,0.651 l -0.081,0.227 c 0.126,-0.063 0.185,-0.2 0.245,-0.319 z"
         style="fill:#c12130;fill-opacity:1;fill-rule:nonzero;stroke:none"
         id="path38646"
         inkscape:connector-curvature="0" />
    </g>
    <g
       id="g38648"
       transform="matrix(0.35277777,0,0,-0.35277777,75.194536,98.767281)">
      <path
         d="M 0,0 C 0.083,-0.083 0.131,-0.195 0.159,-0.306 L 0.198,-0.48 c 0.035,0.096 0.057,0.203 0.128,0.281 L 0.472,-0.122 0.413,-0.218 C 0.379,-0.308 0.374,-0.403 0.364,-0.498 0.348,-0.735 0.344,-0.973 0.343,-1.212 l -0.098,-0.11 c -0.046,0.137 -0.124,0.268 -0.242,0.354 l -0.16,-0.18 -0.079,-0.174 -0.117,0.127 c 0.001,0.252 0.006,0.504 -0.012,0.756 l -0.05,0.228 -0.063,0.091 0.161,-0.086 c 0.063,-0.077 0.089,-0.177 0.126,-0.269 l 0.03,0.141 C -0.137,-0.211 -0.085,-0.094 0,0"
         style="fill:#c12130;fill-opacity:1;fill-rule:nonzero;stroke:none"
         id="path38650"
         inkscape:connector-curvature="0" />
    </g>
    <g
       id="g38652"
       transform="matrix(0.35277777,0,0,-0.35277777,75.879426,98.853924)">
      <path
         d="m 0,0 0.143,0.004 0.193,-0.039 0.088,-0.057 -0.179,0.06 -0.241,0.019 z"
         style="fill:#ebbf27;fill-opacity:1;fill-rule:nonzero;stroke:none"
         id="path38654"
         inkscape:connector-curvature="0" />
    </g>
    <g
       id="g38656"
       transform="matrix(0.35277777,0,0,-0.35277777,74.407316,98.867188)">
      <path
         d="m 0,0 0.146,-0.023 0.019,-0.035 -0.068,0.025 -0.101,-0.064 -0.036,-0.184 0.068,-0.195 0.07,0.001 0.052,0.148 0.162,0.002 0.091,-0.132 -0.122,-0.123 0.046,0.114 -0.039,0.11 -0.06,0.001 L 0.196,-0.473 0.145,-0.52 c -0.103,-0.017 -0.211,0.038 -0.253,0.132 -0.043,0.095 -0.034,0.207 0.012,0.299 z"
         style="fill:#ebbf27;fill-opacity:1;fill-rule:nonzero;stroke:none"
         id="path38658"
         inkscape:connector-curvature="0" />
    </g>
    <g
       id="g38660"
       transform="matrix(0.35277777,0,0,-0.35277777,75.861508,98.889554)">
      <path
         d="m 0,0 0.059,0.02 0.21,-0.05 0.147,-0.066 0.066,-0.114 -0.073,-0.082 -0.03,-0.079 -0.039,0.056 -0.074,0.056 0.123,0.023 0.013,0.1 -0.167,0.078 -0.192,0.031 z"
         style="fill:#ebbf27;fill-opacity:1;fill-rule:nonzero;stroke:none"
         id="path38662"
         inkscape:connector-curvature="0" />
    </g>
    <g
       id="g38664"
       transform="matrix(0.35277777,0,0,-0.35277777,75.829787,98.981206)">
      <path
         d="M 0,0 0.002,0.006 0.176,-0.062 0.387,-0.158 0.436,-0.201 0.373,-0.185 0.256,-0.123 0.023,-0.026 Z"
         style="fill:#ebbf27;fill-opacity:1;fill-rule:nonzero;stroke:none"
         id="path38666"
         inkscape:connector-curvature="0" />
    </g>
    <g
       id="g38668"
       transform="matrix(0.35277777,0,0,-0.35277777,76.007238,99.019976)">
      <path
         d="M 0,0 0.026,-0.125 -0.009,-0.152 Z"
         style="fill:#ebbf27;fill-opacity:1;fill-rule:nonzero;stroke:none"
         id="path38670"
         inkscape:connector-curvature="0" />
    </g>
    <g
       id="g38672"
       transform="matrix(0.35277777,0,0,-0.35277777,75.830496,99.034616)">
      <path
         d="M 0,0 0.125,-0.03 0.065,-0.09 0.108,-0.164 0.047,-0.117 Z"
         style="fill:#ebbf27;fill-opacity:1;fill-rule:nonzero;stroke:none"
         id="path38674"
         inkscape:connector-curvature="0" />
    </g>
    <g
       id="g38676"
       transform="matrix(0.35277777,0,0,-0.35277777,75.908707,99.06044)">
      <path
         d="m 0,0 0.062,-0.043 0.054,-0.101 -0.043,-0.151 0.035,-0.093 -0.056,-0.096 -0.113,0.024 -0.013,-0.053 -0.05,-0.159 -0.092,-0.24 -0.052,-0.044 -0.012,0.055 0.105,0.17 -0.028,0.054 -0.065,0.011 -0.05,0.077 -0.019,0.128 0.063,0.032 0.077,-0.065 0.061,-0.035 0.022,0.042 0.008,0.141 0.015,0.066 0.154,0.115 -0.021,0.087 z"
         style="fill:#ebbf27;fill-opacity:1;fill-rule:nonzero;stroke:none"
         id="path38678"
         inkscape:connector-curvature="0" />
    </g>
    <g
       id="g38680"
       transform="matrix(0.35277777,0,0,-0.35277777,74.393208,99.071623)">
      <path
         d="M 0,0 0.07,0.006 0.088,-0.059 0.148,-0.107 0.105,-0.124 Z"
         style="fill:#ebbf27;fill-opacity:1;fill-rule:nonzero;stroke:none"
         id="path38682"
         inkscape:connector-curvature="0" />
    </g>
    <g
       id="g38684"
       transform="matrix(0.35277777,0,0,-0.35277777,74.473107,99.117272)">
      <path
         d="M 0,0 0.052,0.027 0.118,0.015 0.096,-0.076 0.119,-0.115 h 0.21 l 0.003,-0.098 -0.125,-0.052 0.025,-0.091 0.088,-0.082 0.061,0.018 0.162,0.132 0.111,0.013 -0.238,-0.173 -0.218,0.022 -0.075,0.093 -0.187,0.005 -0.014,0.106 0.109,0.033 0.009,0.07 z"
         style="fill:#ebbf27;fill-opacity:1;fill-rule:nonzero;stroke:none"
         id="path38686"
         inkscape:connector-curvature="0" />
    </g>
    <g
       id="g38688"
       transform="matrix(0.35277777,0,0,-0.35277777,75.115976,99.304174)">
      <path
         d="M 0,0 C 0.044,0.168 0.091,0.35 0.226,0.47 0.32,0.387 0.377,0.273 0.413,0.155 L 0.457,-0.001 0.533,0.178 0.659,0.288 0.819,0.305 0.734,0.144 0.707,-0.069 C 0.395,-0.143 0.062,-0.142 -0.25,-0.065 l -0.033,0.222 -0.088,0.15 0.184,-0.025 0.125,-0.13 z"
         style="fill:#c12130;fill-opacity:1;fill-rule:nonzero;stroke:none"
         id="path38690"
         inkscape:connector-curvature="0" />
    </g>
    <g
       id="g38692"
       transform="matrix(0.35277777,0,0,-0.35277777,74.542356,99.171212)">
      <path
         d="M 0,0 0.06,-0.042 -0.019,-0.065 Z"
         style="fill:#c12130;fill-opacity:1;fill-rule:nonzero;stroke:none"
         id="path38694"
         inkscape:connector-curvature="0" />
    </g>
    <g
       id="g38696"
       transform="matrix(0.35277777,0,0,-0.35277777,75.904228,99.174987)">
      <path
         d="m 0,0 0.058,-0.083 -0.081,0.038 z"
         style="fill:#c12130;fill-opacity:1;fill-rule:nonzero;stroke:none"
         id="path38698"
         inkscape:connector-curvature="0" />
    </g>
    <g
       id="g38700"
       transform="matrix(0.35277777,0,0,-0.35277777,74.468988,99.211323)">
      <path
         d="m 0,0 0.078,0.045 v -0.06 L 0.012,-0.024 Z"
         style="fill:#c12130;fill-opacity:1;fill-rule:nonzero;stroke:none"
         id="path38702"
         inkscape:connector-curvature="0" />
    </g>
    <g
       id="g38704"
       transform="matrix(0.35277777,0,0,-0.35277777,74.662938,99.271471)">
      <path
         d="M 0,0 0.176,0.109 0.14,0.055 -0.028,-0.095 -0.072,-0.192 0,-0.263 0.095,-0.152 H 0.152 C 0.124,-0.25 0.008,-0.321 -0.093,-0.289 l -0.078,0.106 z"
         style="fill:#ebbf27;fill-opacity:1;fill-rule:nonzero;stroke:none"
         id="path38706"
         inkscape:connector-curvature="0" />
    </g>
    <g
       id="g38708"
       transform="matrix(0.35277777,0,0,-0.35277777,75.812216,99.235806)">
      <path
         d="M 0,0 0.044,-0.011 0.084,-0.084 0.016,-0.098 Z"
         style="fill:#c12130;fill-opacity:1;fill-rule:nonzero;stroke:none"
         id="path38710"
         inkscape:connector-curvature="0" />
    </g>
    <g
       id="g38712"
       transform="matrix(0.35277777,0,0,-0.35277777,75.735736,99.272847)">
      <path
         d="m 0,0 0.122,-0.054 0.045,-0.125 -0.156,-0.201 -0.134,0.006 -0.067,0.155 0.043,-0.063 0.118,-0.012 0.156,0.123 -0.005,0.06 -0.053,0.014 z"
         style="fill:#ebbf27;fill-opacity:1;fill-rule:nonzero;stroke:none"
         id="path38714"
         inkscape:connector-curvature="0" />
    </g>
    <g
       id="g38716"
       transform="matrix(0.35277777,0,0,-0.35277777,75.687156,99.278174)">
      <path
         d="M 0,0 0.057,-0.088 Z"
         style="fill:#ebbf27;fill-opacity:1;fill-rule:nonzero;stroke:none"
         id="path38718"
         inkscape:connector-curvature="0" />
    </g>
    <g
       id="g38720"
       transform="matrix(0.35277777,0,0,-0.35277777,75.562458,99.316063)">
      <path
         d="M 0,0 0.176,-0.226 0.249,-0.391 0.17,-0.297 0.062,-0.113 Z"
         style="fill:#ebbf27;fill-opacity:1;fill-rule:nonzero;stroke:none"
         id="path38722"
         inkscape:connector-curvature="0" />
    </g>
    <g
       id="g38724"
       transform="matrix(0.35277777,0,0,-0.35277777,75.523188,99.336206)">
      <path
         d="M 0,0 0.042,0.012 0.126,-0.112 0.211,-0.336 0.213,-0.47 0.105,-0.521 0.039,-0.615 l -0.11,-0.036 -0.076,0.062 -0.037,-0.004 -0.14,-0.108 -0.152,0.059 -0.087,-0.102 -0.164,-0.029 -0.094,0.023 -0.056,0.06 -0.077,-0.064 -0.092,-0.009 -0.05,0.072 -0.054,-0.034 -0.132,-0.032 -0.039,0.062 -0.035,0.031 -0.101,-0.062 -0.098,0.014 -0.028,0.066 -0.03,0.089 0.041,0.052 0.018,0.058 0.027,0.009 0.004,-0.166 0.066,-0.047 0.053,0.002 0.099,0.146 0.037,-0.008 -0.002,-0.118 0.114,-0.058 0.093,0.147 0.008,-0.001 0.008,-0.096 0.102,-0.053 0.049,0.039 0.045,0.109 0.043,-0.135 0.148,-0.013 0.112,0.033 -0.03,0.137 0.141,0.071 0.081,-0.013 -0.021,-0.109 0.104,-0.032 0.115,0.143 0.12,0.093 0.171,-0.042 0.048,0.005 -0.002,0.085 -0.147,0.23 z"
         style="fill:#ebbf27;fill-opacity:1;fill-rule:nonzero;stroke:none"
         id="path38726"
         inkscape:connector-curvature="0" />
    </g>
    <g
       id="g38728"
       transform="matrix(0.35277777,0,0,-0.35277777,74.722556,99.386512)">
      <path
         d="M 0,0 0.064,0.031 0.068,0.018 0.014,-0.084 C 0.049,-0.18 0.147,-0.253 0.252,-0.255 L 0.278,-0.21 0.289,-0.131 0.348,-0.12 0.305,-0.246 0.12,-0.289 -0.028,-0.187 -0.07,-0.073 Z"
         style="fill:#ebbf27;fill-opacity:1;fill-rule:nonzero;stroke:none"
         id="path38730"
         inkscape:connector-curvature="0" />
    </g>
    <g
       id="g38732"
       transform="matrix(0.35277777,0,0,-0.35277777,74.795936,99.401858)">
      <path
         d="M 0,0 0.074,0.078 Z"
         style="fill:#ebbf27;fill-opacity:1;fill-rule:nonzero;stroke:none"
         id="path38734"
         inkscape:connector-curvature="0" />
    </g>
    <g
       id="g38736"
       transform="matrix(0.35277777,0,0,-0.35277777,74.588188,99.395473)">
      <path
         d="M 0,0 0.107,0.007 Z"
         style="fill:#ebbf27;fill-opacity:1;fill-rule:nonzero;stroke:none"
         id="path38738"
         inkscape:connector-curvature="0" />
    </g>
    <g
       id="g38740"
       transform="matrix(0.35277777,0,0,-0.35277777,74.852766,99.477635)">
      <path
         d="M 0,0 0.133,0.101 0.193,0.015 0.141,-0.065 0.119,0.034 0.051,0.021 0.047,-0.083 0.14,-0.181 0.269,-0.187 0.243,-0.231 l -0.159,0.012 -0.109,0.043 -0.226,0.013 -0.024,0.018 0.064,0.052 0.143,-0.062 0.046,0.025 z"
         style="fill:#ebbf27;fill-opacity:1;fill-rule:nonzero;stroke:none"
         id="path38742"
         inkscape:connector-curvature="0" />
    </g>
    <g
       id="g38744"
       transform="matrix(0.35277777,0,0,-0.35277777,74.972328,99.453716)">
      <path
         d="M 0,0 0.048,0.005 -0.006,-0.07 Z"
         style="fill:#ebbf27;fill-opacity:1;fill-rule:nonzero;stroke:none"
         id="path38746"
         inkscape:connector-curvature="0" />
    </g>
    <g
       id="g38748"
       transform="matrix(0.35277777,0,0,-0.35277777,75.507707,99.486101)">
      <path
         d="M 0,0 0.099,-0.053 0.013,-0.178 -0.051,-0.135 Z"
         style="fill:#c12130;fill-opacity:1;fill-rule:nonzero;stroke:none"
         id="path38750"
         inkscape:connector-curvature="0" />
    </g>
    <g
       id="g38752"
       transform="matrix(0.35277777,0,0,-0.35277777,73.667647,98.375557)">
      <path
         d="M 0,0 0.057,0.096 0.181,0.037 0.26,0.074 0.352,0.013 0.41,0.031 0.503,-0.027 0.578,0.006 0.666,-0.069 c 0.049,-0.099 0.063,-0.21 0.073,-0.319 l 0.128,-0.093 c 0.067,-0.094 0.147,-0.177 0.227,-0.26 l 0.17,-0.133 0.15,-0.178 0.012,-0.135 C 1.428,-1.432 1.432,-1.675 1.433,-1.918 1.439,-2.125 1.437,-2.332 1.442,-2.54 L 1.531,-2.623 1.492,-2.721 1.53,-2.824 1.486,-2.917 1.533,-3.017 1.449,-3.145 1.445,-3.262 1.386,-3.339 1.133,-3.393 c -0.106,-0.007 -0.213,0 -0.318,0.018 l -0.172,0.078 -0.005,0.148 -0.081,0.132 0.041,0.106 -0.037,0.086 0.038,0.116 0.012,0.172 0.071,0.033 c 0.004,0.173 0.005,0.346 0.004,0.519 -0.002,0.162 0,0.325 -0.018,0.487 l -0.076,0.13 c -0.125,0.132 -0.28,0.239 -0.383,0.391 l -0.097,0.24 C 0.055,-0.524 0.018,-0.305 0,-0.085 Z"
         style="fill:#10100f;fill-opacity:1;fill-rule:nonzero;stroke:none"
         id="path38754"
         inkscape:connector-curvature="0" />
    </g>
    <g
       id="g38756"
       transform="matrix(0.35277777,0,0,-0.35277777,73.692798,98.36642)">
      <path
         d="M 0,0 0.036,-0.007 0.13,-0.233 0.124,-0.367 0.162,-0.419 C 0.228,-0.5 0.28,-0.593 0.304,-0.695 l 0.05,-0.134 C 0.439,-0.895 0.54,-0.938 0.632,-0.998 l 0.083,-0.085 0.052,-0.053 0.037,0.047 -0.04,0.184 -0.068,0.168 -0.109,0.21 0.021,0.057 0.141,-0.083 0.152,-0.182 0.136,-0.127 0.215,-0.192 0.038,-0.101 C 1.291,-1.589 1.3,-2.022 1.302,-2.456 l 0.006,-0.111 -0.196,-0.071 -0.235,0.004 -0.2,0.085 c 0.003,0.32 0.008,0.637 -0.009,0.956 L 0.637,-1.437 0.485,-1.269 C 0.382,-1.173 0.27,-1.081 0.19,-0.96 0.132,-0.872 0.109,-0.765 0.082,-0.664 0.045,-0.509 0.017,-0.35 0.001,-0.191 Z"
         style="fill:#c12130;fill-opacity:1;fill-rule:nonzero;stroke:none"
         id="path38758"
         inkscape:connector-curvature="0" />
    </g>
    <g
       id="g38760"
       transform="matrix(0.35277777,0,0,-0.35277777,73.749988,98.377462)">
      <path
         d="M 0,0 0.05,-0.002 0.104,-0.122 0.119,-0.36 0.276,-0.572 0.327,-0.739 0.51,-0.851 0.553,-0.944 c -0.105,0.075 -0.226,0.126 -0.328,0.203 l -0.031,0.136 c -0.033,0.106 -0.093,0.202 -0.165,0.286 l -0.022,0.242 z"
         style="fill:#c12130;fill-opacity:1;fill-rule:nonzero;stroke:none"
         id="path38762"
         inkscape:connector-curvature="0" />
    </g>
    <g
       id="g38764"
       transform="matrix(0.35277777,0,0,-0.35277777,73.806148,98.404837)">
      <path
         d="M 0,0 0.008,0.052 0.113,-0.087 0.128,-0.233 0.18,-0.398 0.209,-0.452 0.312,-0.651 0.23,-0.608 c -0.036,0.113 -0.085,0.225 -0.164,0.317 l -0.041,0.067 z"
         style="fill:#c12130;fill-opacity:1;fill-rule:nonzero;stroke:none"
         id="path38766"
         inkscape:connector-curvature="0" />
    </g>
    <g
       id="g38768"
       transform="matrix(0.35277777,0,0,-0.35277777,73.855437,98.410164)">
      <path
         d="M 0,0 0.038,0.04 0.093,-0.039 0.138,-0.278 0.072,-0.31 0.044,-0.083 Z"
         style="fill:#c12130;fill-opacity:1;fill-rule:nonzero;stroke:none"
         id="path38770"
         inkscape:connector-curvature="0" />
    </g>
    <g
       id="g38772"
       transform="matrix(0.35277777,0,0,-0.35277777,73.905388,99.283854)">
      <path
         d="m 0,0 0.062,-0.015 c 0.086,-0.043 0.17,-0.085 0.266,-0.094 0.111,-0.011 0.228,0.005 0.33,0.051 L 0.781,-0.037 0.785,-0.082 0.681,-0.163 C 0.594,-0.205 0.496,-0.223 0.4,-0.222 0.269,-0.225 0.136,-0.2 0.024,-0.13 l -0.063,0.064 z"
         style="fill:#c12130;fill-opacity:1;fill-rule:nonzero;stroke:none"
         id="path38774"
         inkscape:connector-curvature="0" />
    </g>
    <g
       id="g38776"
       transform="matrix(0.35277777,0,0,-0.35277777,73.890217,99.376176)">
      <path
         d="m 0,0 0.02,0.083 c 0.121,-0.08 0.269,-0.11 0.414,-0.108 0.107,-10e-4 0.215,0.017 0.311,0.062 L 0.812,0.069 0.831,-0.003 0.715,-0.093 C 0.521,-0.17 0.299,-0.166 0.108,-0.088 Z"
         style="fill:#c12130;fill-opacity:1;fill-rule:nonzero;stroke:none"
         id="path38778"
         inkscape:connector-curvature="0" />
    </g>
    <g
       id="g38780"
       transform="matrix(0.35277777,0,0,-0.35277777,73.901927,99.463347)">
      <path
         d="M 0,0 -0.014,0.13 C 0.134,0.05 0.305,0.024 0.472,0.038 0.573,0.047 0.674,0.072 0.764,0.122 L 0.802,0.076 0.721,-0.021 C 0.565,-0.089 0.388,-0.102 0.222,-0.073 Z"
         style="fill:#c12130;fill-opacity:1;fill-rule:nonzero;stroke:none"
         id="path38782"
         inkscape:connector-curvature="0" />
    </g>
    <g
       id="g38784"
       transform="matrix(0.35277777,0,0,-0.35277777,73.915728,99.495909)">
      <path
         d="M 0,0 C 0.217,-0.079 0.462,-0.081 0.68,-0.002 L 0.676,-0.087 0.546,-0.14 C 0.422,-0.158 0.294,-0.158 0.17,-0.142 l -0.174,0.054 z"
         style="fill:#c12130;fill-opacity:1;fill-rule:nonzero;stroke:none"
         id="path38786"
         inkscape:connector-curvature="0" />
    </g>
    <g
       id="g38788"
       transform="matrix(0.35277777,0,0,-0.35277777,76.726907,98.375557)">
      <path
         d="M 0,0 -0.057,0.096 -0.18,0.037 -0.258,0.074 -0.352,0.013 -0.409,0.031 -0.502,-0.027 -0.577,0.006 -0.665,-0.069 c -0.05,-0.099 -0.064,-0.21 -0.073,-0.319 l -0.128,-0.093 c -0.066,-0.094 -0.148,-0.177 -0.228,-0.26 l -0.168,-0.133 -0.15,-0.178 -0.013,-0.135 C -1.426,-1.432 -1.43,-1.675 -1.431,-1.918 -1.437,-2.125 -1.436,-2.332 -1.441,-2.54 l -0.089,-0.083 0.039,-0.098 -0.038,-0.103 0.043,-0.093 -0.045,-0.1 0.084,-0.128 0.003,-0.117 0.059,-0.077 0.253,-0.054 c 0.107,-0.007 0.212,0 0.318,0.018 l 0.173,0.078 0.004,0.148 0.08,0.132 -0.04,0.106 0.036,0.086 -0.036,0.116 -0.012,0.172 -0.072,0.033 c -0.003,0.173 -0.005,0.346 -0.003,0.519 0.002,0.162 0,0.325 0.018,0.487 l 0.076,0.13 c 0.125,0.132 0.279,0.239 0.381,0.391 l 0.098,0.24 c 0.056,0.213 0.095,0.432 0.111,0.652 z"
         style="fill:#10100f;fill-opacity:1;fill-rule:nonzero;stroke:none"
         id="path38790"
         inkscape:connector-curvature="0" />
    </g>
    <g
       id="g38792"
       transform="matrix(0.35277777,0,0,-0.35277777,76.702097,98.36642)">
      <path
         d="m 0,0 -0.035,-0.007 -0.096,-0.226 0.006,-0.134 -0.037,-0.052 C -0.229,-0.5 -0.281,-0.593 -0.303,-0.695 l -0.051,-0.134 c -0.085,-0.066 -0.187,-0.109 -0.278,-0.169 l -0.083,-0.085 -0.052,-0.053 -0.036,0.047 0.039,0.184 0.067,0.168 0.111,0.21 -0.022,0.057 -0.14,-0.083 -0.153,-0.182 -0.136,-0.127 -0.215,-0.192 -0.037,-0.101 C -1.291,-1.589 -1.3,-2.022 -1.303,-2.456 l -0.005,-0.111 0.196,-0.071 0.235,0.004 0.201,0.085 c -0.004,0.32 -0.01,0.637 0.008,0.956 l 0.031,0.156 0.151,0.168 c 0.105,0.096 0.216,0.188 0.297,0.309 0.057,0.088 0.08,0.195 0.107,0.296 0.037,0.155 0.065,0.314 0.081,0.473 z"
         style="fill:#c12130;fill-opacity:1;fill-rule:nonzero;stroke:none"
         id="path38794"
         inkscape:connector-curvature="0" />
    </g>
    <g
       id="g38796"
       transform="matrix(0.35277777,0,0,-0.35277777,76.644918,98.377462)">
      <path
         d="M 0,0 -0.049,-0.002 -0.104,-0.122 -0.119,-0.36 -0.277,-0.572 -0.328,-0.739 -0.51,-0.851 -0.553,-0.944 c 0.105,0.075 0.225,0.126 0.328,0.203 l 0.031,0.136 c 0.034,0.106 0.092,0.202 0.166,0.286 l 0.021,0.242 z"
         style="fill:#c12130;fill-opacity:1;fill-rule:nonzero;stroke:none"
         id="path38798"
         inkscape:connector-curvature="0" />
    </g>
    <g
       id="g38800"
       transform="matrix(0.35277777,0,0,-0.35277777,76.589107,98.404837)">
      <path
         d="m 0,0 -0.009,0.052 -0.106,-0.139 -0.014,-0.146 -0.053,-0.165 -0.027,-0.054 -0.104,-0.199 0.081,0.043 c 0.037,0.113 0.086,0.225 0.164,0.317 l 0.043,0.067 z"
         style="fill:#c12130;fill-opacity:1;fill-rule:nonzero;stroke:none"
         id="path38802"
         inkscape:connector-curvature="0" />
    </g>
    <g
       id="g38804"
       transform="matrix(0.35277777,0,0,-0.35277777,76.539508,98.410164)">
      <path
         d="m 0,0 -0.038,0.04 -0.055,-0.079 -0.044,-0.239 0.065,-0.032 0.027,0.227 z"
         style="fill:#c12130;fill-opacity:1;fill-rule:nonzero;stroke:none"
         id="path38806"
         inkscape:connector-curvature="0" />
    </g>
    <g
       id="g38808"
       transform="matrix(0.35277777,0,0,-0.35277777,76.489867,99.283854)">
      <path
         d="m 0,0 -0.064,-0.015 c -0.084,-0.043 -0.17,-0.085 -0.264,-0.094 -0.112,-0.011 -0.228,0.005 -0.33,0.051 l -0.123,0.021 -0.004,-0.045 0.103,-0.081 c 0.087,-0.042 0.186,-0.06 0.282,-0.059 0.13,-0.003 0.263,0.022 0.376,0.092 l 0.062,0.064 z"
         style="fill:#c12130;fill-opacity:1;fill-rule:nonzero;stroke:none"
         id="path38810"
         inkscape:connector-curvature="0" />
    </g>
    <g
       id="g38812"
       transform="matrix(0.35277777,0,0,-0.35277777,76.504686,99.376176)">
      <path
         d="m 0,0 -0.021,0.083 c -0.12,-0.08 -0.269,-0.11 -0.413,-0.108 -0.106,-10e-4 -0.214,0.017 -0.311,0.062 l -0.067,0.032 -0.019,-0.072 0.117,-0.09 c 0.193,-0.077 0.414,-0.073 0.606,0.005 z"
         style="fill:#c12130;fill-opacity:1;fill-rule:nonzero;stroke:none"
         id="path38814"
         inkscape:connector-curvature="0" />
    </g>
    <g
       id="g38816"
       transform="matrix(0.35277777,0,0,-0.35277777,76.493328,99.463347)">
      <path
         d="M 0,0 0.012,0.13 C -0.135,0.05 -0.307,0.024 -0.474,0.038 c -0.1,0.009 -0.201,0.034 -0.29,0.084 l -0.039,-0.046 0.08,-0.097 c 0.158,-0.068 0.335,-0.081 0.5,-0.052 z"
         style="fill:#c12130;fill-opacity:1;fill-rule:nonzero;stroke:none"
         id="path38818"
         inkscape:connector-curvature="0" />
    </g>
    <g
       id="g38820"
       transform="matrix(0.35277777,0,0,-0.35277777,76.479218,99.495909)">
      <path
         d="m 0,0 c -0.218,-0.079 -0.462,-0.081 -0.679,-0.002 l 0.004,-0.085 0.129,-0.053 c 0.125,-0.018 0.252,-0.018 0.377,-0.002 l 0.172,0.054 z"
         style="fill:#c12130;fill-opacity:1;fill-rule:nonzero;stroke:none"
         id="path38822"
         inkscape:connector-curvature="0" />
    </g>
    <g
       id="g38824"
       transform="matrix(0.35277777,0,0,-0.35277777,75.850816,99.515206)">
      <path
         d="M 0,0 0.087,0.044 0.202,-0.032 C 0.27,-0.12 0.291,-0.231 0.298,-0.337 0.304,-0.434 0.359,-0.52 0.432,-0.58 c 0.085,0.056 0.161,0.132 0.203,0.227 l 0.057,0.002 0.036,-0.1 -0.017,-0.255 C 0.853,-0.72 0.99,-0.78 1.089,-0.886 L 1.196,-1.045 1.159,-1.09 c -0.09,0.03 -0.181,0.048 -0.275,0.058 -0.118,0.015 -0.238,0.005 -0.35,-0.036 -0.204,-0.077 -0.345,-0.26 -0.547,-0.345 -0.109,-0.05 -0.232,-0.067 -0.349,-0.08 -0.124,-0.012 -0.251,-0.019 -0.371,0.017 -0.315,-0.163 -0.671,-0.228 -1.024,-0.239 h -0.249 c -0.338,0.011 -0.679,0.077 -0.98,0.236 l -0.137,-0.024 c -0.136,-0.006 -0.27,0.011 -0.402,0.036 -0.14,0.027 -0.269,0.095 -0.382,0.181 -0.119,0.089 -0.236,0.19 -0.381,0.232 -0.172,0.053 -0.357,0.026 -0.528,-0.019 l -0.08,0.004 0.013,0.081 0.118,0.142 c 0.094,0.081 0.216,0.128 0.338,0.14 -0.027,0.117 -0.043,0.251 0.02,0.359 l 0.058,-0.006 c 0.041,-0.092 0.112,-0.173 0.202,-0.222 l 0.113,0.153 0.03,0.175 0.113,0.246 0.116,0.041 0.088,-0.08 c 0.168,-0.181 0.356,-0.348 0.567,-0.481 0.263,-0.17 0.559,-0.287 0.867,-0.336 0.502,-0.082 1.03,0.002 1.478,0.243 0.186,0.099 0.36,0.226 0.517,0.369 z"
         style="fill:#10100f;fill-opacity:1;fill-rule:nonzero;stroke:none"
         id="path38826"
         inkscape:connector-curvature="0" />
    </g>
    <g
       id="g38828"
       transform="matrix(0.35277777,0,0,-0.35277777,74.484156,99.544663)">
      <path
         d="M 0,0 0.07,0.063 0.127,0.01 c 0.186,-0.197 0.391,-0.378 0.621,-0.521 0.282,-0.176 0.602,-0.295 0.934,-0.337 0.495,-0.066 1.011,0.023 1.452,0.263 0.203,0.109 0.389,0.248 0.558,0.404 0.091,0.081 0.171,0.172 0.263,0.248 L 4.09,-0.131 4.129,-0.359 4.217,-0.503 C 4.109,-0.536 4.011,-0.594 3.919,-0.657 3.82,-0.724 3.741,-0.814 3.658,-0.899 3.548,-1.016 3.432,-1.127 3.297,-1.219 3.137,-1.333 2.953,-1.418 2.763,-1.471 2.54,-1.537 2.307,-1.562 2.076,-1.569 1.779,-1.575 1.479,-1.548 1.195,-1.455 0.96,-1.379 0.743,-1.25 0.561,-1.085 0.453,-0.99 0.36,-0.882 0.26,-0.782 0.157,-0.677 0.033,-0.594 -0.101,-0.531 l -0.08,0.035 0.103,0.218 C -0.069,-0.182 -0.057,-0.081 0,0"
         style="fill:#c12130;fill-opacity:1;fill-rule:nonzero;stroke:none"
         id="path38830"
         inkscape:connector-curvature="0" />
    </g>
    <g
       id="g38832"
       transform="matrix(0.35277777,0,0,-0.35277777,75.794648,99.609574)">
      <path
         d="m 0,0 0.039,0.035 0.021,-0.148 -0.069,-0.122 0.011,-0.069 0.033,-0.178 -0.064,-0.156 0.024,0.237 -0.061,0.186 0.1,0.129 -0.011,0.047 z"
         style="fill:#ebbf27;fill-opacity:1;fill-rule:nonzero;stroke:none"
         id="path38834"
         inkscape:connector-curvature="0" />
    </g>
    <g
       id="g38836"
       transform="matrix(0.35277777,0,0,-0.35277777,74.460026,99.652296)">
      <path
         d="M 0,0 0.031,0.029 0.142,-0.116 0.366,-0.184 0.524,-0.205 0.54,-0.293 0.333,-0.345 0.309,-0.252 0.262,-0.209 0.104,-0.147 Z"
         style="fill:#ebbf27;fill-opacity:1;fill-rule:nonzero;stroke:none"
         id="path38838"
         inkscape:connector-curvature="0" />
    </g>
    <g
       id="g38840"
       transform="matrix(0.35277777,0,0,-0.35277777,75.840127,99.693146)">
      <path
         d="M 0,0 -0.014,0.097 0.012,0.08 Z"
         style="fill:#ebbf27;fill-opacity:1;fill-rule:nonzero;stroke:none"
         id="path38842"
         inkscape:connector-curvature="0" />
    </g>
    <g
       id="g38844"
       transform="matrix(0.35277777,0,0,-0.35277777,74.307057,99.672476)">
      <path
         d="M 0,0 0.078,-0.097 0.188,-0.186 0.249,-0.31 0.5,-0.53 C 0.629,-0.618 0.767,-0.698 0.918,-0.739 L 1.021,-0.771 C 1.107,-0.853 1.207,-0.92 1.305,-0.988 1.16,-1.003 1.017,-0.985 0.875,-0.959 0.753,-0.938 0.639,-0.882 0.539,-0.811 0.417,-0.723 0.303,-0.62 0.161,-0.564 c -0.14,0.055 -0.297,0.06 -0.443,0.037 L -0.44,-0.556 c 0.065,0.092 0.156,0.167 0.265,0.203 l 0.165,0.03 0.035,0.04 C -0.004,-0.192 -0.021,-0.094 0,0"
         style="fill:#c12130;fill-opacity:1;fill-rule:nonzero;stroke:none"
         id="path38846"
         inkscape:connector-curvature="0" />
    </g>
    <g
       id="g38848"
       transform="matrix(0.35277777,0,0,-0.35277777,76.074048,99.685386)">
      <path
         d="M 0,0 0.03,0.032 C 0.05,-0.061 0.028,-0.155 0.006,-0.245 l 0.026,-0.043 c 0.172,-0.001 0.342,-0.087 0.434,-0.233 l -0.231,0.04 C 0.097,-0.468 -0.048,-0.486 -0.174,-0.546 -0.354,-0.629 -0.487,-0.791 -0.67,-0.87 -0.789,-0.924 -0.919,-0.938 -1.048,-0.951 l -0.228,0.004 0.11,0.077 0.191,0.151 c 0.167,0.024 0.318,0.106 0.458,0.198 l 0.244,0.191 0.113,0.181 z"
         style="fill:#c12130;fill-opacity:1;fill-rule:nonzero;stroke:none"
         id="path38850"
         inkscape:connector-curvature="0" />
    </g>
    <g
       id="g38852"
       transform="matrix(0.35277777,0,0,-0.35277777,75.689598,99.726906)">
      <path
         d="M 0,0 0.084,0.062 0.155,0.029 0.216,-0.167 0.183,-0.356 0.104,-0.491 0.066,-0.514 0.128,-0.378 0.187,-0.176 0.177,-0.069 0.153,-0.077 0.075,-0.181 0.009,-0.082 0.067,-0.108 0.108,0.006 0.078,0 0.006,-0.069 Z"
         style="fill:#ebbf27;fill-opacity:1;fill-rule:nonzero;stroke:none"
         id="path38854"
         inkscape:connector-curvature="0" />
    </g>
    <g
       id="g38856"
       transform="matrix(0.35277777,0,0,-0.35277777,74.707388,99.718296)">
      <path
         d="M 0,0 0.05,0.003 0.069,-0.065 0.022,-0.231 -0.051,-0.327 -0.057,-0.355 0.035,-0.336 0.17,-0.202 0.256,-0.138 0.243,-0.19 0.146,-0.418 0.233,-0.529 0.402,-0.579 0.506,-0.48 0.541,-0.494 0.508,-0.578 0.554,-0.629 0.62,-0.642 0.687,-0.556 0.701,-0.603 0.713,-0.681 0.794,-0.684 0.837,-0.601 0.867,-0.616 0.911,-0.742 0.999,-0.765 1.02,-0.721 1.012,-0.456 1.082,-0.461 1.078,-0.596 1.033,-0.772 0.888,-0.825 0.817,-0.76 0.696,-0.758 0.617,-0.72 0.52,-0.712 0.444,-0.629 0.252,-0.612 0.09,-0.515 0.073,-0.401 0.053,-0.372 -0.076,-0.4 l -0.128,0.046 -0.115,0.106 0.148,-0.041 0.095,0.006 0.083,0.117 z"
         style="fill:#ebbf27;fill-opacity:1;fill-rule:nonzero;stroke:none"
         id="path38858"
         inkscape:connector-curvature="0" />
    </g>
    <g
       id="g38860"
       transform="matrix(0.35277777,0,0,-0.35277777,74.604737,99.730506)">
      <path
         d="M 0,0 0.061,-0.062 -0.001,-0.088 Z"
         style="fill:#c12130;fill-opacity:1;fill-rule:nonzero;stroke:none"
         id="path38862"
         inkscape:connector-curvature="0" />
    </g>
    <g
       id="g38864"
       transform="matrix(0.35277777,0,0,-0.35277777,74.423506,99.779786)">
      <path
         d="M 0,0 -0.074,0.112 0.11,0.042 c 0.1,-0.056 0.196,-0.12 0.276,-0.203 l 0.192,-0.201 c -0.121,0.034 -0.234,0.101 -0.34,0.17 z"
         style="fill:#c12130;fill-opacity:1;fill-rule:nonzero;stroke:none"
         id="path38866"
         inkscape:connector-curvature="0" />
    </g>
    <g
       id="g38868"
       transform="matrix(0.35277777,0,0,-0.35277777,75.926948,99.766346)">
      <path
         d="M 0,0 0.191,0.068 0.032,-0.114 C -0.098,-0.221 -0.24,-0.312 -0.395,-0.378 L -0.467,-0.4 -0.258,-0.186 C -0.184,-0.11 -0.093,-0.051 0,0"
         style="fill:#c12130;fill-opacity:1;fill-rule:nonzero;stroke:none"
         id="path38870"
         inkscape:connector-curvature="0" />
    </g>
    <g
       id="g38872"
       transform="matrix(0.35277777,0,0,-0.35277777,75.616888,99.757036)">
      <path
         d="m 0,0 0.025,-0.021 0.04,-0.037 -0.022,-0.048 -0.02,0.039 z"
         style="fill:#ebbf27;fill-opacity:1;fill-rule:nonzero;stroke:none"
         id="path38874"
         inkscape:connector-curvature="0" />
    </g>
    <g
       id="g38876"
       transform="matrix(0.35277777,0,0,-0.35277777,75.593107,99.766346)">
      <path
         d="M 0,0 0.019,-0.005 0.017,-0.066 h -0.021 z"
         style="fill:#ebbf27;fill-opacity:1;fill-rule:nonzero;stroke:none"
         id="path38878"
         inkscape:connector-curvature="0" />
    </g>
    <g
       id="g38880"
       transform="matrix(0.35277777,0,0,-0.35277777,75.643767,99.792166)">
      <path
         d="M 0,0 0.021,0.042 0.06,-0.062 0.143,-0.108 0.122,-0.142 0.047,-0.153 l -0.109,-0.038 0.019,0.038 0.068,0.07 z"
         style="fill:#ebbf27;fill-opacity:1;fill-rule:nonzero;stroke:none"
         id="path38882"
         inkscape:connector-curvature="0" />
    </g>
    <g
       id="g38884"
       transform="matrix(0.35277777,0,0,-0.35277777,75.647897,99.901036)">
      <path
         d="M 0,0 0.078,0.146 0.104,0.126 0.085,0.026 -0.077,-0.125 C -0.152,-0.182 -0.248,-0.209 -0.342,-0.198 L -0.418,-0.103 -0.406,0.02 -0.363,-0.106 -0.2,-0.12 Z"
         style="fill:#ebbf27;fill-opacity:1;fill-rule:nonzero;stroke:none"
         id="path38886"
         inkscape:connector-curvature="0" />
    </g>
    <g
       id="g38888"
       transform="matrix(0.35277777,0,0,-0.35277777,75.150446,99.898466)">
      <path
         d="M 0,0 0.045,0.055 0.051,-0.134 0.039,-0.304 0.009,-0.332 0.01,-0.16 Z"
         style="fill:#ebbf27;fill-opacity:1;fill-rule:nonzero;stroke:none"
         id="path38890"
         inkscape:connector-curvature="0" />
    </g>
    <g
       id="g38892"
       transform="matrix(0.35277777,0,0,-0.35277777,75.258957,99.887776)">
      <path
         d="M 0,0 0.032,-0.027 0.073,-0.249 0.062,-0.382 0.041,-0.404 0.03,-0.249 -0.014,-0.03 Z"
         style="fill:#ebbf27;fill-opacity:1;fill-rule:nonzero;stroke:none"
         id="path38894"
         inkscape:connector-curvature="0" />
    </g>
    <g
       id="g38896"
       transform="matrix(0.35277777,0,0,-0.35277777,75.344396,99.927566)">
      <path
         d="m 0,0 -0.003,0.079 0.143,-0.19 -0.192,-0.127 -0.042,0.025 0.164,0.065 0.043,0.06 z"
         style="fill:#ebbf27;fill-opacity:1;fill-rule:nonzero;stroke:none"
         id="path38898"
         inkscape:connector-curvature="0" />
    </g>
    <g
       id="g38900"
       transform="matrix(0.35277777,0,0,-0.35277777,75.657877,99.934976)">
      <path
         d="M 0,0 0.056,-0.008 -0.015,-0.01 Z"
         style="fill:#ebbf27;fill-opacity:1;fill-rule:nonzero;stroke:none"
         id="path38902"
         inkscape:connector-curvature="0" />
    </g>
    <g
       id="g38904"
       transform="matrix(0.35277777,0,0,-0.35277777,75.220018,99.947046)">
      <path
         d="M 0,0 0.037,-0.063 -0.07,-0.238 C -0.174,-0.3 -0.303,-0.296 -0.414,-0.257 l -0.009,0.012 c 0.099,0.01 0.198,-0.013 0.296,0.016 l 0.106,0.091 z"
         style="fill:#ebbf27;fill-opacity:1;fill-rule:nonzero;stroke:none"
         id="path38906"
         inkscape:connector-curvature="0" />
    </g>
    <g
       id="g38908"
       transform="matrix(0.35277777,0,0,-0.35277777,75.628598,99.949436)">
      <path
         d="M 0,0 0.023,-0.061 Z"
         style="fill:#ebbf27;fill-opacity:1;fill-rule:nonzero;stroke:none"
         id="path38910"
         inkscape:connector-curvature="0" />
    </g>
  </g>
</svg>
