<?xml version="1.0" encoding="UTF-8" standalone="no"?>
<!-- Created with Inkscape (http://www.inkscape.org/) -->

<svg
   xmlns:dc="http://purl.org/dc/elements/1.1/"
   xmlns:cc="http://creativecommons.org/ns#"
   xmlns:rdf="http://www.w3.org/1999/02/22-rdf-syntax-ns#"
   xmlns:svg="http://www.w3.org/2000/svg"
   xmlns="http://www.w3.org/2000/svg"
   xmlns:sodipodi="http://sodipodi.sourceforge.net/DTD/sodipodi-0.dtd"
   xmlns:inkscape="http://www.inkscape.org/namespaces/inkscape"
   width="7.084836mm"
   height="4.7328668mm"
   viewBox="0 0 7.084836 4.7328668"
   version="1.1"
   id="svg8"
   inkscape:version="0.92.4 (5da689c313, 2019-01-14)"
   sodipodi:docname="canada.svg">
  <defs
     id="defs2">
    <radialGradient
       id="radialGradient37584"
       spreadMethod="pad"
       gradientTransform="matrix(0.975099,0,0,0.975099,159.64062,365.06934)"
       gradientUnits="userSpaceOnUse"
       r="1"
       cy="0"
       cx="0"
       fy="0"
       fx="0">
      <stop
         id="stop37578"
         offset="0"
         style="stop-opacity:1;stop-color:#852c26" />
      <stop
         id="stop37580"
         offset="0.0015476"
         style="stop-opacity:1;stop-color:#852c26" />
      <stop
         id="stop37582"
         offset="1"
         style="stop-opacity:1;stop-color:#451617" />
    </radialGradient>
    <clipPath
       id="clipPath37532"
       clipPathUnits="userSpaceOnUse">
      <path
         inkscape:connector-curvature="0"
         id="path37530"
         d="M 0,400 H 400 V 0 H 0 Z" />
    </clipPath>
    <radialGradient
       id="radialGradient37522"
       spreadMethod="pad"
       gradientTransform="matrix(-0.2637247,0,0,0.2637247,159.68652,365.88965)"
       gradientUnits="userSpaceOnUse"
       r="1"
       cy="0"
       cx="0"
       fy="0"
       fx="0">
      <stop
         id="stop37516"
         offset="0"
         style="stop-opacity:1;stop-color:#852c26" />
      <stop
         id="stop37518"
         offset="0.0015476"
         style="stop-opacity:1;stop-color:#852c26" />
      <stop
         id="stop37520"
         offset="1"
         style="stop-opacity:1;stop-color:#451617" />
    </radialGradient>
    <clipPath
       id="clipPath37354"
       clipPathUnits="userSpaceOnUse">
      <path
         inkscape:connector-curvature="0"
         id="path37352"
         d="M 0,400 H 400 V 0 H 0 Z" />
    </clipPath>
    <radialGradient
       id="radialGradient37344"
       spreadMethod="pad"
       gradientTransform="matrix(0.975099,0,0,0.975099,155.76025,365.06934)"
       gradientUnits="userSpaceOnUse"
       r="1"
       cy="0"
       cx="0"
       fy="0"
       fx="0">
      <stop
         id="stop37338"
         offset="0"
         style="stop-opacity:1;stop-color:#eee54f" />
      <stop
         id="stop37340"
         offset="0.9977451"
         style="stop-opacity:1;stop-color:#e04a20" />
      <stop
         id="stop37342"
         offset="1"
         style="stop-opacity:1;stop-color:#e04a20" />
    </radialGradient>
    <clipPath
       id="clipPath37272"
       clipPathUnits="userSpaceOnUse">
      <path
         inkscape:connector-curvature="0"
         id="path37270"
         d="M 0,400 H 400 V 0 H 0 Z" />
    </clipPath>
    <radialGradient
       id="radialGradient37262"
       spreadMethod="pad"
       gradientTransform="matrix(0.2636045,0,0,0.2636045,155.71484,365.89062)"
       gradientUnits="userSpaceOnUse"
       r="1"
       cy="0"
       cx="0"
       fy="0"
       fx="0">
      <stop
         id="stop37256"
         offset="0"
         style="stop-opacity:1;stop-color:#eee54f" />
      <stop
         id="stop37258"
         offset="0.9977451"
         style="stop-opacity:1;stop-color:#e04a20" />
      <stop
         id="stop37260"
         offset="1"
         style="stop-opacity:1;stop-color:#e04a20" />
    </radialGradient>
  </defs>
  <sodipodi:namedview
     id="base"
     pagecolor="#ffffff"
     bordercolor="#666666"
     borderopacity="1.0"
     inkscape:pageopacity="0.0"
     inkscape:pageshadow="2"
     inkscape:zoom="11.2"
     inkscape:cx="21.99839"
     inkscape:cy="4.9111627"
     inkscape:document-units="mm"
     inkscape:current-layer="layer1"
     showgrid="false"
     inkscape:window-width="954"
     inkscape:window-height="630"
     inkscape:window-x="-3"
     inkscape:window-y="6"
     inkscape:window-maximized="0" />
  <metadata
     id="metadata5">
    <rdf:RDF>
      <cc:Work
         rdf:about="">
        <dc:format>image/svg+xml</dc:format>
        <dc:type
           rdf:resource="http://purl.org/dc/dcmitype/StillImage" />
        <dc:title></dc:title>
      </cc:Work>
    </rdf:RDF>
  </metadata>
  <g
     inkscape:label="Layer 1"
     inkscape:groupmode="layer"
     id="layer1"
     transform="translate(-68.708841,-95.897424)">
    <g
       id="g14564"
       transform="matrix(0.35277777,0,0,-0.35277777,68.738122,100.60101)">
      <path
         d="M 0,0 H 19.917 V 13.25 H 0 Z M 19.959,-0.042 V 0 Z M -0.083,-0.083 V 13.333 H 20 V -0.042 -0.083 Z"
         style="fill:#221f21;fill-opacity:1;fill-rule:nonzero;stroke:none"
         id="path14566"
         inkscape:connector-curvature="0" />
    </g>
    <path
       d="m 68.723343,100.61572 h 1.76389 v -4.703587 h -1.76389 z"
       style="fill:#d62140;fill-opacity:1;fill-rule:nonzero;stroke:none;stroke-width:0.35277778"
       id="path14568"
       inkscape:connector-curvature="0" />
    <path
       d="m 70.487233,100.61572 h 3.52778 v -4.703587 h -3.52778 z"
       style="fill:#ffffff;fill-opacity:1;fill-rule:nonzero;stroke:none;stroke-width:0.35277778"
       id="path14570"
       inkscape:connector-curvature="0" />
    <path
       d="m 75.778903,95.912133 h -1.76389 v 4.703587 h 1.76389 z"
       style="fill:#d62140;fill-opacity:1;fill-rule:nonzero;stroke:none;stroke-width:0.35277778"
       id="path14572"
       inkscape:connector-curvature="0" />
    <g
       id="g14574"
       transform="matrix(0.35277777,0,0,-0.35277777,72.251262,99.852202)">
      <path
         d="M 0,0 H 0.158 L 0.107,2.103 0.254,2.229 C 0.913,2.15 1.504,2.079 2.164,1.999 L 1.996,2.574 C 1.969,2.675 2.008,2.785 2.083,2.847 L 3.999,4.473 3.602,4.668 C 3.428,4.733 3.477,4.835 3.539,5.082 L 3.831,6.193 2.719,5.949 C 2.61,5.932 2.538,6.004 2.521,6.072 L 2.377,6.595 1.498,5.565 C 1.373,5.4 1.12,5.4 1.198,5.782 L 1.575,7.868 1.07,7.595 C 0.929,7.513 0.787,7.499 0.708,7.646 L 0,9.004 -0.708,7.646 C -0.787,7.499 -0.929,7.513 -1.07,7.595 L -1.574,7.868 -1.198,5.782 C -1.12,5.4 -1.373,5.4 -1.498,5.565 l -0.88,1.03 -0.143,-0.523 C -2.538,6.004 -2.609,5.932 -2.718,5.949 L -3.831,6.193 -3.539,5.082 C -3.476,4.835 -3.427,4.733 -3.602,4.668 L -3.999,4.473 -2.083,2.847 C -2.007,2.785 -1.969,2.675 -1.996,2.574 L -2.164,1.999 c 0.659,0.08 1.251,0.151 1.91,0.23 L -0.107,2.103 -0.158,0 Z"
         style="fill:#d62140;fill-opacity:1;fill-rule:nonzero;stroke:none"
         id="path14576"
         inkscape:connector-curvature="0" />
    </g>
  </g>
</svg>
