<?xml version="1.0" encoding="UTF-8" standalone="no"?>
<!-- Created with Inkscape (http://www.inkscape.org/) -->

<svg
   xmlns:dc="http://purl.org/dc/elements/1.1/"
   xmlns:cc="http://creativecommons.org/ns#"
   xmlns:rdf="http://www.w3.org/1999/02/22-rdf-syntax-ns#"
   xmlns:svg="http://www.w3.org/2000/svg"
   xmlns="http://www.w3.org/2000/svg"
   xmlns:sodipodi="http://sodipodi.sourceforge.net/DTD/sodipodi-0.dtd"
   xmlns:inkscape="http://www.inkscape.org/namespaces/inkscape"
   width="7.084836mm"
   height="4.7328668mm"
   viewBox="0 0 7.084836 4.7328668"
   version="1.1"
   id="svg8"
   inkscape:version="0.92.4 (5da689c313, 2019-01-14)"
   sodipodi:docname="equatorial_guinea.svg">
  <defs
     id="defs2">
    <radialGradient
       id="radialGradient37584"
       spreadMethod="pad"
       gradientTransform="matrix(0.975099,0,0,0.975099,159.64062,365.06934)"
       gradientUnits="userSpaceOnUse"
       r="1"
       cy="0"
       cx="0"
       fy="0"
       fx="0">
      <stop
         id="stop37578"
         offset="0"
         style="stop-opacity:1;stop-color:#852c26" />
      <stop
         id="stop37580"
         offset="0.0015476"
         style="stop-opacity:1;stop-color:#852c26" />
      <stop
         id="stop37582"
         offset="1"
         style="stop-opacity:1;stop-color:#451617" />
    </radialGradient>
    <clipPath
       id="clipPath37532"
       clipPathUnits="userSpaceOnUse">
      <path
         inkscape:connector-curvature="0"
         id="path37530"
         d="M 0,400 H 400 V 0 H 0 Z" />
    </clipPath>
    <radialGradient
       id="radialGradient37522"
       spreadMethod="pad"
       gradientTransform="matrix(-0.2637247,0,0,0.2637247,159.68652,365.88965)"
       gradientUnits="userSpaceOnUse"
       r="1"
       cy="0"
       cx="0"
       fy="0"
       fx="0">
      <stop
         id="stop37516"
         offset="0"
         style="stop-opacity:1;stop-color:#852c26" />
      <stop
         id="stop37518"
         offset="0.0015476"
         style="stop-opacity:1;stop-color:#852c26" />
      <stop
         id="stop37520"
         offset="1"
         style="stop-opacity:1;stop-color:#451617" />
    </radialGradient>
    <clipPath
       id="clipPath37354"
       clipPathUnits="userSpaceOnUse">
      <path
         inkscape:connector-curvature="0"
         id="path37352"
         d="M 0,400 H 400 V 0 H 0 Z" />
    </clipPath>
    <radialGradient
       id="radialGradient37344"
       spreadMethod="pad"
       gradientTransform="matrix(0.975099,0,0,0.975099,155.76025,365.06934)"
       gradientUnits="userSpaceOnUse"
       r="1"
       cy="0"
       cx="0"
       fy="0"
       fx="0">
      <stop
         id="stop37338"
         offset="0"
         style="stop-opacity:1;stop-color:#eee54f" />
      <stop
         id="stop37340"
         offset="0.9977451"
         style="stop-opacity:1;stop-color:#e04a20" />
      <stop
         id="stop37342"
         offset="1"
         style="stop-opacity:1;stop-color:#e04a20" />
    </radialGradient>
    <clipPath
       id="clipPath37272"
       clipPathUnits="userSpaceOnUse">
      <path
         inkscape:connector-curvature="0"
         id="path37270"
         d="M 0,400 H 400 V 0 H 0 Z" />
    </clipPath>
    <radialGradient
       id="radialGradient37262"
       spreadMethod="pad"
       gradientTransform="matrix(0.2636045,0,0,0.2636045,155.71484,365.89062)"
       gradientUnits="userSpaceOnUse"
       r="1"
       cy="0"
       cx="0"
       fy="0"
       fx="0">
      <stop
         id="stop37256"
         offset="0"
         style="stop-opacity:1;stop-color:#eee54f" />
      <stop
         id="stop37258"
         offset="0.9977451"
         style="stop-opacity:1;stop-color:#e04a20" />
      <stop
         id="stop37260"
         offset="1"
         style="stop-opacity:1;stop-color:#e04a20" />
    </radialGradient>
  </defs>
  <sodipodi:namedview
     id="base"
     pagecolor="#ffffff"
     bordercolor="#666666"
     borderopacity="1.0"
     inkscape:pageopacity="0.0"
     inkscape:pageshadow="2"
     inkscape:zoom="11.2"
     inkscape:cx="21.15695"
     inkscape:cy="0.99091188"
     inkscape:document-units="mm"
     inkscape:current-layer="layer1"
     showgrid="false"
     inkscape:window-width="954"
     inkscape:window-height="630"
     inkscape:window-x="-3"
     inkscape:window-y="6"
     inkscape:window-maximized="0" />
  <metadata
     id="metadata5">
    <rdf:RDF>
      <cc:Work
         rdf:about="">
        <dc:format>image/svg+xml</dc:format>
        <dc:type
           rdf:resource="http://purl.org/dc/dcmitype/StillImage" />
        <dc:title></dc:title>
      </cc:Work>
    </rdf:RDF>
  </metadata>
  <g
     inkscape:label="Layer 1"
     inkscape:groupmode="layer"
     id="layer1"
     transform="translate(-58.194741,-93.545948)">
    <g
       id="g34070"
       transform="matrix(0.35277777,0,0,-0.35277777,58.224022,98.249534)">
      <path
         d="M 0,0 H 19.917 V 13.251 H 0 Z M 19.958,-0.042 V 0 Z M -0.083,-0.083 V 13.333 H 20 V -0.042 -0.083 Z"
         style="fill:#221f21;fill-opacity:1;fill-rule:nonzero;stroke:none"
         id="path34072"
         inkscape:connector-curvature="0" />
    </g>
    <path
       d="m 58.209314,98.264317 h 7.05556 v -1.567744 h -7.05556 z"
       style="fill:#d72828;fill-opacity:1;fill-rule:nonzero;stroke:none;stroke-width:0.35277778"
       id="path34074"
       inkscape:connector-curvature="0" />
    <path
       d="m 58.209314,96.696573 h 7.05556 v -1.568097 h -7.05556 z"
       style="fill:#ffffff;fill-opacity:1;fill-rule:nonzero;stroke:none;stroke-width:0.35277778"
       id="path34076"
       inkscape:connector-curvature="0" />
    <path
       d="m 65.264874,93.560731 h -7.05556 v 1.567745 h 7.05556 z"
       style="fill:#489a3a;fill-opacity:1;fill-rule:nonzero;stroke:none;stroke-width:0.35277778"
       id="path34078"
       inkscape:connector-curvature="0" />
    <g
       id="g34080"
       transform="matrix(0.35277777,0,0,-0.35277777,58.209382,98.264353)">
      <path
         d="M 0,0 V 13.333 L 6.681,6.667 Z"
         style="fill:#3b6fc0;fill-opacity:1;fill-rule:nonzero;stroke:none"
         id="path34082"
         inkscape:connector-curvature="0" />
    </g>
    <g
       id="g34084"
       transform="matrix(0.35277777,0,0,-0.35277777,61.734233,96.380203)">
      <path
         d="M 0,0 C 0,0 0.037,0.109 0.14,0.164 0.243,0.219 0.331,0.185 0.528,0.189 0.726,0.196 0.761,0.203 0.857,0.281 0.955,0.358 0.946,0.483 0.946,0.483 V 2.616 H -0.945 V 0.483 c 0,0 -0.01,-0.125 0.088,-0.202 C -0.76,0.203 -0.725,0.196 -0.527,0.189 -0.33,0.185 -0.243,0.219 -0.14,0.164 -0.037,0.109 0,0 0,0"
         style="fill:#c2c3c4;fill-opacity:1;fill-rule:nonzero;stroke:none"
         id="path34086"
         inkscape:connector-curvature="0" />
    </g>
    <g
       id="g34088"
       transform="matrix(0.35277777,0,0,-0.35277777,61.686862,96.318713)">
      <path
         d="M 0,0 0.134,-0.144 0.269,0 0.419,0.034 0.618,0.027 H 0.662 C 0.861,0.034 0.888,0.039 0.985,0.115 L 1.068,0.301 V 0.309 2.43 H -0.799 V 0.308 0.301 L -0.716,0.115 C -0.62,0.039 -0.592,0.034 -0.393,0.027 h 0.044 l 0.199,0.007 h 0.001 v 0 z M 0.134,-0.174 0.146,-0.17 Z M 0.124,-0.178 0.117,-0.161 0.093,-0.119 -0.011,-0.021 -0.15,0.01 -0.349,0.003 -0.394,0.004 C -0.59,0.008 -0.633,0.019 -0.73,0.097 L -0.824,0.301 V 0.309 2.454 H 1.093 V 0.31 0.301 L 0.999,0.097 C 0.902,0.019 0.859,0.008 0.662,0.004 L 0.618,0.003 0.419,0.01 0.28,-0.021 0.152,-0.161 0.146,-0.178 0.134,-0.211 Z"
         style="fill:#0e0f0e;fill-opacity:1;fill-rule:nonzero;stroke:none"
         id="path34090"
         inkscape:connector-curvature="0" />
    </g>
    <g
       id="g34092"
       transform="matrix(0.35277777,0,0,-0.35277777,61.155642,96.054127)">
      <path
         d="M 0,0 0.104,-0.074 0.306,-0.216 0.435,-0.331 0.478,-0.415 0.443,-0.468 0.372,-0.481 0.303,-0.44 0.251,-0.449 0.223,-0.485 0.216,-0.532 0.263,-0.657 0.373,-0.79 c 0.108,-0.095 0.252,-0.148 0.396,-0.148 0.129,0 0.258,0.015 0.384,0.045 l 0.179,0.05 0.077,0.011 L 1.436,-0.858 1.423,-0.913 1.267,-1.048 1.225,-1.099 1.223,-1.122 1.269,-1.141 1.425,-1.162 c 0.143,-0.01 0.287,-0.01 0.43,0 l 0.14,0.017 0.068,0.025 -0.06,0.08 -0.146,0.129 -10e-4,0.003 -0.005,0.063 0.056,0.012 0.156,-0.043 c 0.144,-0.041 0.297,-0.062 0.448,-0.062 0.144,0 0.287,0.052 0.396,0.148 l 0.122,0.152 0.034,0.14 -0.042,0.054 -0.049,0.002 -0.066,-0.04 -0.069,0.016 -0.012,0.008 -0.003,0.029 0.008,0.051 0.076,0.091 0.215,0.163 L 3.296,0 V -0.455 L 3.256,-0.543 3.142,-0.616 3.171,-0.884 3.089,-1.045 2.924,-1.147 2.678,-1.207 2.443,-1.216 H 2.087 V -1.453 L 2.075,-1.479 2.014,-1.503 C 1.917,-1.522 1.817,-1.527 1.719,-1.531 H 1.567 c -0.095,0.004 -0.192,0.009 -0.286,0.026 l -0.068,0.021 -0.02,0.031 v 0.237 H 0.9 l -0.238,0.004 c -0.116,0.008 -0.233,0.03 -0.339,0.078 L 0.171,-1.022 0.11,-0.877 0.142,-0.611 0.023,-0.52 0,-0.456 Z"
         style="fill:#0f100f;fill-opacity:1;fill-rule:nonzero;stroke:none"
         id="path34094"
         inkscape:connector-curvature="0" />
    </g>
    <g
       id="g34096"
       transform="matrix(0.35277777,0,0,-0.35277777,62.309583,96.072754)">
      <path
         d="m 0,0 v -0.394 l -0.026,-0.068 -0.111,-0.076 -0.043,0.101 -0.012,0.051 -0.009,0.005 -0.019,0.002 -0.072,0.02 -0.084,-0.047 -0.042,0.027 0.002,0.046 0.083,0.092 C -0.229,-0.151 -0.113,-0.079 0,0"
         style="fill:#c2c3c4;fill-opacity:1;fill-rule:nonzero;stroke:none"
         id="path34098"
         inkscape:connector-curvature="0" />
    </g>
    <g
       id="g34100"
       transform="matrix(0.35277777,0,0,-0.35277777,61.164963,96.072754)">
      <path
         d="M 0,0 C 0.111,-0.078 0.225,-0.148 0.327,-0.236 L 0.41,-0.324 0.423,-0.373 0.396,-0.396 0.346,-0.401 0.276,-0.359 0.19,-0.39 0.159,-0.448 0.124,-0.533 0.023,-0.458 0,-0.394 Z"
         style="fill:#c2c3c4;fill-opacity:1;fill-rule:nonzero;stroke:none"
         id="path34102"
         inkscape:connector-curvature="0" />
    </g>
    <g
       id="g34104"
       transform="matrix(0.35277777,0,0,-0.35277777,61.773531,95.56546)">
      <path
         d="m 0,0 0.062,-0.011 0.025,-0.035 0.052,-0.01 0.034,-0.015 0.016,-0.015 0.016,-0.01 0.025,-0.019 0.023,-0.015 h 0.028 l 0.005,0.016 0.016,0.013 0.028,0.027 0.054,-0.007 0.011,-0.021 0.021,-0.05 0.012,-0.041 V -0.205 L 0.477,-0.223 0.525,-0.233 0.572,-0.242 0.594,-0.274 0.627,-0.29 0.67,-0.313 0.707,-0.352 0.721,-0.398 0.717,-0.493 0.708,-0.513 0.68,-0.561 0.66,-0.595 0.665,-0.638 0.612,-0.678 0.59,-0.711 0.561,-0.718 0.476,-0.722 l 0.017,0.003 0.003,0.011 -0.011,0.011 0.087,0.005 0.022,0.034 0.044,0.028 -0.002,0.03 0.013,0.006 -0.003,0.024 0.003,0.006 0.028,0.042 0.02,0.091 -0.015,0.069 -0.039,0.031 -0.065,0.035 0.009,0.01 -0.004,0.013 -0.019,0.002 -0.072,0.015 -0.086,0.033 -0.005,0.046 -0.03,0.024 0.021,0.013 -0.005,0.012 -0.024,0.004 0.004,0.025 -0.038,-0.008 -0.05,-0.05 -0.005,-0.002 -0.007,0.011 -0.03,-0.002 -0.051,0.026 -0.005,0.01 -0.02,0.001 v 0.017 l -0.064,0.022 -0.007,0.022 -0.023,-0.01 -0.025,0.03 -0.041,0.003 -0.061,-0.003 -0.072,-0.02 -0.033,-0.019 -0.086,0.008 -0.025,-0.03 -0.055,-0.023 -0.025,-0.031 -0.037,-0.029 -0.018,-0.016 0.003,-0.013 -0.006,-0.002 -0.007,-0.035 -0.033,-0.018 0.002,-0.05 -0.019,-0.027 -0.03,0.002 -0.018,0.007 -0.01,-0.071 -0.005,-0.014 h -0.022 l -0.053,0.002 -0.053,-0.039 -0.036,-0.002 -0.053,-0.002 -0.02,-0.043 h -0.057 l -0.015,-0.014 v -0.028 l -0.055,-0.002 -0.019,-0.029 0.01,-0.027 0.038,-0.02 -0.022,-0.016 -0.031,0.013 -0.011,0.017 -0.009,0.048 0.018,0.026 0.039,0.018 0.005,0.017 0.021,0.005 0.018,0.017 0.048,0.001 0.044,0.043 0.051,0.005 0.039,0.009 0.012,0.016 0.056,0.012 0.046,-0.003 0.002,0.032 v 0.045 l 0.019,0.011 0.035,-0.011 0.01,0.008 0.002,0.056 0.035,0.023 0.005,0.043 0.017,0.001 0.048,0.055 0.027,0.031 0.045,0.016 0.039,0.04 0.097,-0.006 0.045,0.035 0.054,0.007 0.039,-0.007 z"
         style="fill:#0f100f;fill-opacity:1;fill-rule:nonzero;stroke:none"
         id="path34106"
         inkscape:connector-curvature="0" />
    </g>
    <g
       id="g34108"
       transform="matrix(0.35277777,0,0,-0.35277777,61.774031,95.57562)">
      <path
         d="m 0,0 0.041,-0.003 0.024,-0.031 -0.026,-0.052 -0.048,-0.061 -0.042,-0.032 0.009,-0.023 0.035,0.017 0.046,0.061 0.034,0.033 0.022,0.046 0.065,-0.022 v -0.017 l 0.02,-0.001 0.005,-0.01 0.05,-0.026 -0.017,-0.061 0.017,-0.075 0.033,-0.024 0.011,0.024 -0.033,0.031 0.012,0.085 0.02,0.013 0.049,0.05 L 0.366,-0.07 0.362,-0.095 0.385,-0.099 0.391,-0.111 0.369,-0.125 0.4,-0.148 0.404,-0.194 0.49,-0.227 0.563,-0.242 0.531,-0.272 0.497,-0.297 0.417,-0.3 0.418,-0.323 0.449,-0.326 0.504,-0.322 0.543,-0.297 0.577,-0.268 0.641,-0.302 0.681,-0.333 0.69,-0.399 0.661,-0.507 0.648,-0.536 0.645,-0.541 0.57,-0.554 0.504,-0.516 0.494,-0.54 0.581,-0.582 0.635,-0.571 0.637,-0.602 0.593,-0.629 0.57,-0.664 0.484,-0.668 0.45,-0.636 0.418,-0.607 0.403,-0.546 0.384,-0.535 0.39,-0.612 0.42,-0.654 0.384,-0.649 H 0.32 L 0.281,-0.638 H 0.206 l -0.008,0.012 0.07,0.024 0.018,0.025 0.009,0.039 H 0.271 L 0.257,-0.573 0.23,-0.589 0.155,-0.604 0.07,-0.599 0.022,-0.57 l -0.033,0.004 -0.035,0.024 -0.037,0.026 -0.006,0.027 -0.023,0.039 -0.009,0.055 -0.026,-0.001 0.012,-0.064 0.007,-0.028 -0.063,-0.006 -0.06,0.015 -0.034,-0.008 -0.048,-0.015 -0.038,-0.027 -0.035,-0.014 -0.048,-0.003 -0.04,0.025 h -0.03 l 0.045,-0.044 0.041,-0.012 -0.007,-0.057 -0.019,-0.022 -0.037,-0.011 -0.049,0.014 -0.07,0.023 v 0.005 l 0.069,0.021 0.036,0.064 -0.025,0.004 -0.03,-0.049 -0.073,-0.018 -0.058,-0.009 -0.025,-0.014 -0.009,-0.022 -0.043,-0.006 -0.055,0.029 -0.005,0.013 0.061,0.02 0.046,0.029 -0.017,0.025 -0.047,-0.034 -0.075,-0.016 -0.038,0.02 -0.01,0.026 0.018,0.03 0.055,0.002 0.001,0.028 0.015,0.014 h 0.056 l 0.02,0.043 0.054,0.002 0.036,0.002 0.052,0.039 0.054,-0.002 0.089,-0.012 0.046,0.022 0.025,-0.003 0.057,-0.014 0.013,0.022 -0.049,0.014 -0.053,0.008 -0.04,-0.021 -0.049,0.001 0.001,0.063 0.014,-0.002 0.03,-0.002 0.02,0.027 -0.002,0.05 0.032,0.018 0.006,0.035 0.008,0.002 0.047,-0.01 0.027,-0.026 0.047,-0.01 0.024,-0.016 0.016,0.017 -0.024,0.022 -0.046,0.01 -0.024,0.026 -0.052,0.016 0.037,0.029 0.025,0.031 0.054,0.023 0.026,0.03 0.086,-0.008 0.032,0.019 0.073,0.02 z"
         style="fill:#3a933e;fill-opacity:1;fill-rule:nonzero;stroke:none"
         id="path34110"
         inkscape:connector-curvature="0" />
    </g>
    <g
       id="g34112"
       transform="matrix(0.35277777,0,0,-0.35277777,61.797103,95.587508)">
      <path
         d="M 0,0 0.023,0.01 0.03,-0.011 0.007,-0.057 -0.027,-0.09 l -0.046,-0.061 -0.034,-0.017 -0.01,0.022 0.043,0.033 0.047,0.061 z"
         style="fill:#2d6335;fill-opacity:1;fill-rule:nonzero;stroke:none"
         id="path34114"
         inkscape:connector-curvature="0" />
    </g>
    <g
       id="g34116"
       transform="matrix(0.35277777,0,0,-0.35277777,61.857074,95.618343)">
      <path
         d="M 0,0 0.03,0.001 0.037,-0.009 0.042,-0.007 0.022,-0.02 0.01,-0.105 0.044,-0.136 0.032,-0.16 0,-0.136 -0.018,-0.061 Z"
         style="fill:#2d6335;fill-opacity:1;fill-rule:nonzero;stroke:none"
         id="path34118"
         inkscape:connector-curvature="0" />
    </g>
    <g
       id="g34120"
       transform="matrix(0.35277777,0,0,-0.35277777,61.628474,95.633334)">
      <path
         d="M 0,0 0.019,0.017 0.07,0.001 0.094,-0.026 0.14,-0.036 0.165,-0.058 0.148,-0.075 0.125,-0.058 0.077,-0.049 0.051,-0.022 0.003,-0.013 Z"
         style="fill:#2d6335;fill-opacity:1;fill-rule:nonzero;stroke:none"
         id="path34122"
         inkscape:connector-curvature="0" />
    </g>
    <g
       id="g34124"
       transform="matrix(0.35277777,0,0,-0.35277777,61.716313,95.666391)">
      <path
         d="M 0,0 0.023,0.009 0.065,-0.082 0.131,-0.125 0.168,-0.144 0.238,-0.15 V -0.174 L 0.175,-0.171 0.126,-0.155 0.087,-0.13 0.027,-0.077 Z"
         style="fill:#2d6335;fill-opacity:1;fill-rule:nonzero;stroke:none"
         id="path34126"
         inkscape:connector-curvature="0" />
    </g>
    <g
       id="g34128"
       transform="matrix(0.35277777,0,0,-0.35277777,61.972644,95.660888)">
      <path
         d="m 0,0 0.019,-0.003 0.004,-0.012 -0.009,-0.011 -0.034,-0.03 -0.039,-0.024 -0.055,-0.004 -0.031,0.003 -0.001,0.023 0.08,0.002 0.034,0.026 z"
         style="fill:#2d6335;fill-opacity:1;fill-rule:nonzero;stroke:none"
         id="path34130"
         inkscape:connector-curvature="0" />
    </g>
    <g
       id="g34132"
       transform="matrix(0.35277777,0,0,-0.35277777,61.643822,95.682935)">
      <path
         d="M 0,0 0.123,0.035 0.131,0.01 0.066,0 0.011,-0.022 Z"
         style="fill:#2d6335;fill-opacity:1;fill-rule:nonzero;stroke:none"
         id="path34134"
         inkscape:connector-curvature="0" />
    </g>
    <g
       id="g34136"
       transform="matrix(0.35277777,0,0,-0.35277777,61.590583,95.68103)">
      <path
         d="M 0,0 0.017,-0.007 0.003,-0.005 0.002,-0.068 0.051,-0.069 0.091,-0.048 0.144,-0.057 0.193,-0.07 0.18,-0.092 0.123,-0.079 0.098,-0.075 0.052,-0.097 -0.037,-0.085 h 0.022 l 0.005,0.014 z"
         style="fill:#2d6335;fill-opacity:1;fill-rule:nonzero;stroke:none"
         id="path34138"
         inkscape:connector-curvature="0" />
    </g>
    <g
       id="g34140"
       transform="matrix(0.35277777,0,0,-0.35277777,62.014162,95.693273)">
      <path
         d="m 0,0 0.015,-0.069 -0.02,-0.091 -0.028,-0.042 0.013,0.028 0.029,0.109 z"
         style="fill:#2d6335;fill-opacity:1;fill-rule:nonzero;stroke:none"
         id="path34142"
         inkscape:connector-curvature="0" />
    </g>
    <g
       id="g34144"
       transform="matrix(0.35277777,0,0,-0.35277777,61.848602,95.714791)">
      <path
         d="M 0,0 0.01,0.02 0.063,0.006 0.135,-0.008 0.207,-0.039 0.258,-0.023 0.283,-0.036 0.23,-0.061 0.176,-0.059 0.137,-0.037 Z"
         style="fill:#2d6335;fill-opacity:1;fill-rule:nonzero;stroke:none"
         id="path34146"
         inkscape:connector-curvature="0" />
    </g>
    <g
       id="g34148"
       transform="matrix(0.35277777,0,0,-0.35277777,61.722033,95.715143)">
      <path
         d="M 0,0 0.027,0.001 0.036,-0.055 0.058,-0.094 0.033,-0.102 0.024,-0.091 0.019,-0.093 0.012,-0.065 Z"
         style="fill:#2d6335;fill-opacity:1;fill-rule:nonzero;stroke:none"
         id="path34150"
         inkscape:connector-curvature="0" />
    </g>
    <g
       id="g34152"
       transform="matrix(0.35277777,0,0,-0.35277777,61.649143,95.728409)">
      <path
         d="M 0,0 0.097,0.034 0.105,0.01 0.006,-0.024 Z"
         style="fill:#2d6335;fill-opacity:1;fill-rule:nonzero;stroke:none"
         id="path34154"
         inkscape:connector-curvature="0" />
    </g>
    <g
       id="g34156"
       transform="matrix(0.35277777,0,0,-0.35277777,61.673633,95.747354)">
      <path
         d="M 0,0 0.034,0.008 0.093,-0.007 0.156,-0.001 0.161,0 0.17,-0.011 0.195,-0.002 0.201,-0.029 0.239,-0.055 0.274,-0.08 0.307,-0.083 0.354,-0.112 0.44,-0.117 0.447,-0.139 H 0.475 L 0.491,-0.151 H 0.566 L 0.605,-0.163 H 0.669 L 0.705,-0.167 0.753,-0.203 0.695,-0.195 0.659,-0.187 0.591,-0.188 0.538,-0.18 0.464,-0.163 0.413,-0.144 0.376,-0.149 0.266,-0.276 0.258,-0.354 c 0,-0.167 0.012,-0.334 0.037,-0.5 0.023,-0.143 0.057,-0.285 0.114,-0.418 L 0.469,-1.393 0.478,-1.451 0.417,-1.5 0.379,-1.496 0.342,-1.456 0.315,-1.506 0.261,-1.508 0.222,-1.451 0.15,-1.498 l -0.042,0.039 -0.05,-0.02 -0.067,0.035 -0.006,0.058 c 0.106,0.281 0.165,0.582 0.15,0.883 l -0.01,0.193 -0.015,0.054 -0.075,0.087 -0.069,0.021 -0.089,0.007 0.003,0.054 -0.002,0.03 0.036,0.015 0.037,0.027 z"
         style="fill:#0f100f;fill-opacity:1;fill-rule:nonzero;stroke:none"
         id="path34158"
         inkscape:connector-curvature="0" />
    </g>
    <g
       id="g34160"
       transform="matrix(0.35277777,0,0,-0.35277777,61.667743,95.75836)">
      <path
         d="M 0,0 0.046,0.014 0.093,0 0.138,-0.003 0.141,-0.105 0.086,-0.054 -0.034,-0.02 Z"
         style="fill:#c2c3c4;fill-opacity:1;fill-rule:nonzero;stroke:none"
         id="path34162"
         inkscape:connector-curvature="0" />
    </g>
    <g
       id="g34164"
       transform="matrix(0.35277777,0,0,-0.35277777,61.725803,95.758712)">
      <path
         d="m 0,0 0.023,0.009 0.034,-0.044 0.001,-0.17 0.023,0.032 0.081,0.09 0.036,-0.022 -0.109,-0.144 -0.006,-0.079 0.002,-0.11 C 0.091,-0.587 0.104,-0.736 0.133,-0.882 L 0.147,-0.963 H 0.122 L 0.125,-1.031 0.132,-1.087 0.118,-1.161 0.09,-1.246 0.142,-1.3 0.17,-1.357 v -0.045 l -0.018,-0.05 -0.031,0.005 -0.033,0.076 0.008,0.008 -0.01,0.049 -0.018,0.047 0.003,0.057 0.013,0.076 0.022,0.049 v 0.097 L 0.104,-0.833 0.093,-0.76 0.067,-0.764 0.079,-0.854 V -0.975 L 0.083,-1.07 0.059,-1.127 0.045,-1.206 0.042,-1.274 0.064,-1.331 0.071,-1.376 0.01,-1.438 l -0.026,0.022 -0.005,0.078 -0.009,0.092 10e-4,0.05 0.04,0.086 0.012,0.099 0.009,0.046 0.01,0.086 0.012,0.075 0.007,0.054 v 0.1 H 0.036 L 0.026,-0.807 0.02,-0.869 0.001,-0.979 -0.009,-1.058 -0.02,-1.124 -0.053,-1.185 -0.06,-1.224 l 0.01,-0.053 0.003,-0.064 -0.015,-0.072 -0.026,-0.008 -0.054,0.033 0.004,0.024 c 0.1,0.267 0.159,0.552 0.153,0.837 l -0.012,0.256 -0.037,0.086 -0.056,0.063 -0.097,0.034 -0.058,0.003 0.004,0.037 0.129,-0.014 0.07,-0.062 0.045,-0.049 z"
         style="fill:#57271d;fill-opacity:1;fill-rule:nonzero;stroke:none"
         id="path34166"
         inkscape:connector-curvature="0" />
    </g>
    <g
       id="g34168"
       transform="matrix(0.35277777,0,0,-0.35277777,61.589032,95.759593)">
      <path
         d="M 0,0 H 0.031 L 0.07,-0.024 0.118,-0.022 0.12,-0.052 H 0.118 0.088 L 0.087,-0.056 0.045,-0.044 Z"
         style="fill:#2d6335;fill-opacity:1;fill-rule:nonzero;stroke:none"
         id="path34170"
         inkscape:connector-curvature="0" />
    </g>
    <g
       id="g34172"
       transform="matrix(0.35277777,0,0,-0.35277777,61.948373,95.76612)">
      <path
         d="M 0,0 0.01,0.024 0.076,-0.014 0.151,-0.001 0.154,-0.025 0.141,-0.031 0.086,-0.042 Z"
         style="fill:#2d6335;fill-opacity:1;fill-rule:nonzero;stroke:none"
         id="path34174"
         inkscape:connector-curvature="0" />
    </g>
    <g
       id="g34176"
       transform="matrix(0.35277777,0,0,-0.35277777,61.493433,95.777479)">
      <path
         d="M 0,0 0.047,0.035 0.064,0.009 0.018,-0.02 l -0.06,-0.02 0.005,-0.013 -0.013,0.011 -0.031,-0.003 -0.016,0.013 0.022,0.016 z"
         style="fill:#2d6335;fill-opacity:1;fill-rule:nonzero;stroke:none"
         id="path34178"
         inkscape:connector-curvature="0" />
    </g>
    <g
       id="g34180"
       transform="matrix(0.35277777,0,0,-0.35277777,61.572842,95.781961)">
      <path
         d="M 0,0 0.031,0.049 0.056,0.045 0.019,-0.02 -0.049,-0.04 v -0.005 l -0.022,0.001 -0.047,-0.007 -0.002,0.024 h -0.01 l 0.058,0.009 z"
         style="fill:#2d6335;fill-opacity:1;fill-rule:nonzero;stroke:none"
         id="path34182"
         inkscape:connector-curvature="0" />
    </g>
    <g
       id="g34184"
       transform="matrix(0.35277777,0,0,-0.35277777,61.869453,95.765451)">
      <path
         d="M 0,0 H 0.024 L 0.015,-0.039 -0.003,-0.063 -0.072,-0.088 -0.064,-0.1 -0.081,-0.087 h -0.027 l -0.007,0.022 0.074,0.014 0.027,0.016 z"
         style="fill:#2d6335;fill-opacity:1;fill-rule:nonzero;stroke:none"
         id="path34186"
         inkscape:connector-curvature="0" />
    </g>
    <g
       id="g34188"
       transform="matrix(0.35277777,0,0,-0.35277777,61.911504,95.791449)">
      <path
         d="M 0,0 -0.006,0.077 0.014,0.065 0.028,0.005 0.06,-0.024 0.094,-0.056 0.105,-0.067 0.102,-0.079 0.084,-0.082 0.079,-0.078 0.03,-0.042 Z"
         style="fill:#2d6335;fill-opacity:1;fill-rule:nonzero;stroke:none"
         id="path34190"
         inkscape:connector-curvature="0" />
    </g>
    <g
       id="g34192"
       transform="matrix(0.35277777,0,0,-0.35277777,61.620041,95.778008)">
      <path
         d="M 0,0 H 0.03 L 0.018,-0.049 -0.013,-0.104 -0.05,-0.12 l -0.03,0.005 -0.085,0.019 -0.056,0.03 -0.041,0.002 -0.006,-0.023 -0.067,-0.028 -0.061,0.026 -0.009,0.008 -0.035,0.038 0.031,0.002 0.013,-0.011 0.054,-0.029 0.044,0.006 0.009,0.023 0.025,0.014 0.01,-0.001 0.002,-0.023 0.047,0.006 h 0.022 l 0.07,-0.024 0.049,-0.013 0.037,0.01 0.019,0.023 0.007,0.057 z"
         style="fill:#0f100f;fill-opacity:1;fill-rule:nonzero;stroke:none"
         id="path34194"
         inkscape:connector-curvature="0" />
    </g>
    <g
       id="g34196"
       transform="matrix(0.35277777,0,0,-0.35277777,61.755082,95.776103)">
      <path
         d="M 0,0 0.047,-0.027 0,-0.077 Z"
         style="fill:#c2c3c4;fill-opacity:1;fill-rule:nonzero;stroke:none"
         id="path34198"
         inkscape:connector-curvature="0" />
    </g>
    <g
       id="g34200"
       transform="matrix(0.35277777,0,0,-0.35277777,61.780413,96.131809)">
      <path
         d="m 0,0 -0.007,0.089 c 0.033,-0.138 0.075,-0.276 0.148,-0.4 l 0.01,-0.037 -0.051,-0.037 -0.024,0.013 -0.03,0.05 -0.001,0.028 -0.041,0.071 -0.037,0.041 -0.004,0.015 0.01,0.032 0.021,0.031 0.01,0.031 z"
         style="fill:#57271d;fill-opacity:1;fill-rule:nonzero;stroke:none"
         id="path34202"
         inkscape:connector-curvature="0" />
    </g>
    <g
       id="g34204"
       transform="matrix(0.35277777,0,0,-0.35277777,61.244373,96.212454)">
      <path
         d="m 0,0 0.052,0.009 0.068,-0.042 0.071,0.014 -0.015,-0.078 -0.055,-0.244 -0.109,0.133 -0.047,0.125 0.007,0.047 z"
         style="fill:#c2c3c4;fill-opacity:1;fill-rule:nonzero;stroke:none"
         id="path34206"
         inkscape:connector-curvature="0" />
    </g>
    <g
       id="g34208"
       transform="matrix(0.35277777,0,0,-0.35277777,62.204173,96.210197)">
      <path
         d="M 0,0 0.049,-0.001 0.09,-0.055 0.057,-0.196 -0.065,-0.347 c -0.024,0.107 -0.047,0.215 -0.07,0.323 l 0.069,-0.016 z"
         style="fill:#c2c3c4;fill-opacity:1;fill-rule:nonzero;stroke:none"
         id="path34210"
         inkscape:connector-curvature="0" />
    </g>
    <g
       id="g34212"
       transform="matrix(0.35277777,0,0,-0.35277777,62.304391,96.245863)">
      <path
         d="m 0,0 0.04,0.089 v -1.076 h -1.488 l 0.109,0.01 0.096,0.017 0.061,0.025 0.013,0.026 v 0.237 h 0.356 l 0.235,0.008 0.245,0.06 0.166,0.103 0.082,0.161 -0.03,0.267 z"
         style="fill:#ffffff;fill-opacity:1;fill-rule:nonzero;stroke:none"
         id="path34214"
         inkscape:connector-curvature="0" />
    </g>
    <g
       id="g34216"
       transform="matrix(0.35277777,0,0,-0.35277777,61.155642,96.214854)">
      <path
         d="M 0,0 0.023,-0.064 0.142,-0.156 0.11,-0.421 0.171,-0.567 0.323,-0.678 c 0.106,-0.049 0.223,-0.07 0.339,-0.079 L 0.9,-0.76 h 0.293 v -0.237 l 0.02,-0.032 0.068,-0.021 0.12,-0.018 0.064,-0.007 H 0 Z"
         style="fill:#ffffff;fill-opacity:1;fill-rule:nonzero;stroke:none"
         id="path34218"
         inkscape:connector-curvature="0" />
    </g>
    <g
       id="g34220"
       transform="matrix(0.35277777,0,0,-0.35277777,61.203873,96.342137)">
      <path
         d="M 0,0 C 0.001,0.093 0.019,0.185 0.056,0.27 L 0.122,0.116 0.2,0.024 0.107,-0.052 0.039,-0.118 0.029,-0.157 0.01,-0.113 Z"
         style="fill:#c2c3c4;fill-opacity:1;fill-rule:nonzero;stroke:none"
         id="path34222"
         inkscape:connector-curvature="0" />
    </g>
    <g
       id="g34224"
       transform="matrix(0.35277777,0,0,-0.35277777,62.245834,96.247064)">
      <path
         d="m 0,0 0.028,-0.082 0.027,-0.245 -0.025,-0.088 -0.168,0.117 -0.018,0.011 -0.018,-0.009 0.109,-0.201 0.019,0.011 -0.035,0.06 0.05,0.031 0.052,-0.037 -0.118,-0.105 -0.22,-0.081 c -0.09,-0.019 -0.181,-0.025 -0.273,-0.026 h -0.413 v 0.072 l -0.033,0.066 -0.132,0.111 -0.044,0.048 -0.005,0.037 0.079,-0.015 0.26,-0.066 c 0.103,-0.018 0.208,-0.027 0.313,-0.026 0.149,0.002 0.297,0.061 0.409,0.163 C -0.083,-0.187 -0.021,-0.1 0,0"
         style="fill:#c2c3c4;fill-opacity:1;fill-rule:nonzero;stroke:none"
         id="path34226"
         inkscape:connector-curvature="0" />
    </g>
    <g
       id="g34228"
       transform="matrix(0.35277777,0,0,-0.35277777,61.237102,96.373675)">
      <path
         d="M 0,0 0.121,0.1 0.182,0.051 0.087,-0.025 0.026,-0.071 l -0.04,-0.003 -0.021,0.029 z"
         style="fill:#c2c3c4;fill-opacity:1;fill-rule:nonzero;stroke:none"
         id="path34230"
         inkscape:connector-curvature="0" />
    </g>
    <g
       id="g34232"
       transform="matrix(0.35277777,0,0,-0.35277777,61.623142,96.361788)">
      <path
         d="M 0,0 0.065,0.015 0.084,0.01 0.058,-0.047 -0.075,-0.156 -0.131,-0.239 -0.132,-0.318 h -0.147 l 0.045,0.035 0.015,0.108 -0.027,0.073 -0.037,0.018 h -0.07 V -0.318 H -0.37 l -0.067,0.23 0.239,0.034 z"
         style="fill:#c2c3c4;fill-opacity:1;fill-rule:nonzero;stroke:none"
         id="path34234"
         inkscape:connector-curvature="0" />
    </g>
    <g
       id="g34236"
       transform="matrix(0.35277777,0,0,-0.35277777,62.193833,96.356954)">
      <path
         d="M 0,0 0.094,-0.068 0.055,-0.093 Z"
         style="fill:#c2c3c4;fill-opacity:1;fill-rule:nonzero;stroke:none"
         id="path34238"
         inkscape:connector-curvature="0" />
    </g>
    <g
       id="g34240"
       transform="matrix(0.35277777,0,0,-0.35277777,61.260563,96.398123)">
      <path
         d="M 0,0 0.134,0.109 0.233,0.058 0.131,-0.102 0.16,0.093 0.139,0.102 0.005,-0.105 0.024,-0.113 0.128,0.048 0.1,-0.147 0.119,-0.156 0.252,0.048 0.318,0.03 0.36,0.021 0.353,-0.21 0.259,-0.199 0.311,0.027 0.289,0.034 0.237,-0.195 0.03,-0.132 l -0.146,0.115 0.035,-0.015 z"
         style="fill:#c2c3c4;fill-opacity:1;fill-rule:nonzero;stroke:none"
         id="path34242"
         inkscape:connector-curvature="0" />
    </g>
    <g
       id="g34244"
       transform="matrix(0.35277777,0,0,-0.35277777,62.167972,96.365243)">
      <path
         d="M 0,0 0.015,0.015 0.128,-0.173 0.107,-0.18 Z"
         style="fill:#0f100f;fill-opacity:1;fill-rule:nonzero;stroke:none"
         id="path34246"
         inkscape:connector-curvature="0" />
    </g>
    <g
       id="g34248"
       transform="matrix(0.35277777,0,0,-0.35277777,62.130444,96.387963)">
      <path
         d="M 0,0 0.058,0.042 0.126,0.003 0.11,-0.008 0.085,0.013 0.024,-0.004 0.031,-0.064 0.073,-0.127 0.137,-0.131 0.144,-0.075 H 0.167 L 0.165,-0.137 0.107,-0.165 0.061,-0.144 0.008,-0.068 Z"
         style="fill:#0f100f;fill-opacity:1;fill-rule:nonzero;stroke:none"
         id="path34250"
         inkscape:connector-curvature="0" />
    </g>
    <g
       id="g34252"
       transform="matrix(0.35277777,0,0,-0.35277777,61.810893,96.37558)">
      <path
         d="M 0,0 0.146,-0.128 0.205,-0.208 0.137,-0.233 -0.002,-0.25 0,-0.175 Z"
         style="fill:#c2c3c4;fill-opacity:1;fill-rule:nonzero;stroke:none"
         id="path34254"
         inkscape:connector-curvature="0" />
    </g>
    <g
       id="g34256"
       transform="matrix(0.35277777,0,0,-0.35277777,61.602653,96.42398)">
      <path
         d="M 0,0 0.156,0.136 V 0.041 l 0.002,-0.154 -0.157,0.021 -0.045,0.018 0.002,0.024 z"
         style="fill:#c2c3c4;fill-opacity:1;fill-rule:nonzero;stroke:none"
         id="path34258"
         inkscape:connector-curvature="0" />
    </g>
    <g
       id="g34260"
       transform="matrix(0.35277777,0,0,-0.35277777,62.107862,96.389339)">
      <path
         d="M 0,0 0.02,0.005 0.092,-0.194 0.072,-0.2 0.02,-0.058 Z"
         style="fill:#0f100f;fill-opacity:1;fill-rule:nonzero;stroke:none"
         id="path34262"
         inkscape:connector-curvature="0" />
    </g>
    <g
       id="g34264"
       transform="matrix(0.35277777,0,0,-0.35277777,62.057734,96.395723)">
      <path
         d="M 0,0 0.13,0.008 0.133,-0.016 0.079,-0.021 0.098,-0.202 0.076,-0.203 0.057,-0.021 0.003,-0.024 Z"
         style="fill:#0f100f;fill-opacity:1;fill-rule:nonzero;stroke:none"
         id="path34266"
         inkscape:connector-curvature="0" />
    </g>
    <g
       id="g34268"
       transform="matrix(0.35277777,0,0,-0.35277777,61.421604,96.394173)">
      <path
         d="m 0,0 0.109,0.001 -0.061,-0.228 -0.074,0.003 0.044,0.035 0.018,0.102 z"
         style="fill:#c2c3c4;fill-opacity:1;fill-rule:nonzero;stroke:none"
         id="path34270"
         inkscape:connector-curvature="0" />
    </g>
    <g
       id="g34272"
       transform="matrix(0.35277777,0,0,-0.35277777,61.920293,96.393995)">
      <path
         d="m 0,0 h 0.021 v -0.144 l -0.009,-0.046 -0.071,-0.005 -0.012,0.046 0.022,0.004 0.014,-0.039 0.026,0.004 L 0,-0.148 Z"
         style="fill:#0f100f;fill-opacity:1;fill-rule:nonzero;stroke:none"
         id="path34274"
         inkscape:connector-curvature="0" />
    </g>
    <g
       id="g34276"
       transform="matrix(0.35277777,0,0,-0.35277777,61.952504,96.396218)">
      <path
         d="M 0,0 H 0.022 L 0.017,-0.092 v -0.064 l 0.032,-0.031 0.041,0.016 0.012,0.076 0.005,0.091 H 0.13 l -0.008,-0.138 -0.034,-0.064 -0.07,0.004 -0.024,0.064 z"
         style="fill:#0f100f;fill-opacity:1;fill-rule:nonzero;stroke:none"
         id="path34278"
         inkscape:connector-curvature="0" />
    </g>
    <g
       id="g34280"
       transform="matrix(0.35277777,0,0,-0.35277777,62.023123,96.399499)">
      <path
         d="M 0,0 0.073,-0.008 0.093,-0.055 0.071,-0.057 0.057,-0.024 0.01,-0.021 0.001,-0.069 0.077,-0.1 0.061,-0.202 l -0.085,0.026 -0.01,0.039 0.02,0.002 0.014,-0.034 0.061,-0.007 0.005,0.051 -0.075,0.034 z"
         style="fill:#0f100f;fill-opacity:1;fill-rule:nonzero;stroke:none"
         id="path34282"
         inkscape:connector-curvature="0" />
    </g>
    <g
       id="g34284"
       transform="matrix(0.35277777,0,0,-0.35277777,61.394902,96.401226)">
      <path
         d="M 0,0 0.055,-0.003 0.088,-0.061 0.07,-0.163 -0.005,-0.178 Z"
         style="fill:#c2c3c4;fill-opacity:1;fill-rule:nonzero;stroke:none"
         id="path34286"
         inkscape:connector-curvature="0" />
    </g>
    <g
       id="g34288"
       transform="matrix(0.35277777,0,0,-0.35277777,61.455193,96.439998)">
      <path
         d="M 0,0 0.026,0.111 0.055,0 Z"
         style="fill:#c2c3c4;fill-opacity:1;fill-rule:nonzero;stroke:none"
         id="path34290"
         inkscape:connector-curvature="0" />
    </g>
    <g
       id="g34292"
       transform="matrix(0.35277777,0,0,-0.35277777,61.506522,96.401226)">
      <path
         d="M 0,0 0.056,-0.003 0.087,-0.044 0.086,-0.135 0.059,-0.174 0,-0.179 Z"
         style="fill:#c2c3c4;fill-opacity:1;fill-rule:nonzero;stroke:none"
         id="path34294"
         inkscape:connector-curvature="0" />
    </g>
    <g
       id="g34296"
       transform="matrix(0.35277777,0,0,-0.35277777,61.452793,96.449134)">
      <path
         d="M 0,0 H 0.069 L 0.087,-0.071 H -0.017 Z"
         style="fill:#c2c3c4;fill-opacity:1;fill-rule:nonzero;stroke:none"
         id="path34298"
         inkscape:connector-curvature="0" />
    </g>
    <g
       id="g34300"
       transform="matrix(0.35277777,0,0,-0.35277777,61.585571,96.460318)">
      <path
         d="m 0,0 0.184,-0.035 c 0.113,-0.009 0.227,-0.009 0.34,-0.007 L 0.762,-0.022 0.842,0 V -0.306 L 0.749,-0.333 c -0.103,-0.017 -0.207,-0.02 -0.31,-0.021 -0.097,0 -0.195,0.003 -0.292,0.013 L 0.028,-0.318 0.001,-0.303 C 0,-0.202 0.001,-0.101 0,0"
         style="fill:#c2c3c4;fill-opacity:1;fill-rule:nonzero;stroke:none"
         id="path34302"
         inkscape:connector-curvature="0" />
    </g>
    <g
       id="g34304"
       transform="matrix(0.35277777,0,0,-0.35277777,61.662412,96.486139)">
      <path
         d="M 0,0 H 0.076 L 0.115,-0.022 0.117,-0.11 0.078,-0.139 H 0.022 V -0.233 L 0,-0.234 Z"
         style="fill:#0f100f;fill-opacity:1;fill-rule:nonzero;stroke:none"
         id="path34306"
         inkscape:connector-curvature="0" />
    </g>
    <g
       id="g34308"
       transform="matrix(0.35277777,0,0,-0.35277777,61.732193,96.486139)">
      <path
         d="m 0,0 h 0.024 l 0.067,-0.234 -0.026,0.001 -0.019,0.07 H -0.021 L -0.04,-0.234 h -0.022 z"
         style="fill:#0f100f;fill-opacity:1;fill-rule:nonzero;stroke:none"
         id="path34310"
         inkscape:connector-curvature="0" />
    </g>
    <g
       id="g34312"
       transform="matrix(0.35277777,0,0,-0.35277777,61.768883,96.486139)">
      <path
         d="M 0,0 H 0.118 L 0.113,-0.038 0.017,-0.206 H 0.12 v -0.028 h -0.129 l 0.006,0.039 0.094,0.167 H 0 Z"
         style="fill:#0f100f;fill-opacity:1;fill-rule:nonzero;stroke:none"
         id="path34314"
         inkscape:connector-curvature="0" />
    </g>
    <g
       id="g34316"
       transform="matrix(0.35277777,0,0,-0.35277777,61.670352,96.495984)">
      <path
         d="M 0,0 H 0.057 L 0.08,-0.041 0.06,-0.081 0,-0.083 Z"
         style="fill:#c2c3c4;fill-opacity:1;fill-rule:nonzero;stroke:none"
         id="path34318"
         inkscape:connector-curvature="0" />
    </g>
    <g
       id="g34320"
       transform="matrix(0.35277777,0,0,-0.35277777,61.736492,96.495452)">
      <path
         d="M 0,0 0.027,-0.112 H -0.028 Z"
         style="fill:#c2c3c4;fill-opacity:1;fill-rule:nonzero;stroke:none"
         id="path34322"
         inkscape:connector-curvature="0" />
    </g>
    <g
       id="g34324"
       transform="matrix(0.35277777,0,0,-0.35277777,61.761964,96.59416)">
      <path
         d="M 0,0 C 0.099,0.004 0.198,0.008 0.295,0.027 L 0.199,0.011 0.09,0 Z"
         style="fill:#c2c3c4;fill-opacity:1;fill-rule:nonzero;stroke:none"
         id="path34326"
         inkscape:connector-curvature="0" />
    </g>
    <g
       id="g34328"
       transform="matrix(0.35277777,0,0,-0.35277777,61.607622,96.585199)">
      <path
         d="M 0,0 C 0.094,-0.017 0.19,-0.022 0.286,-0.025 H 0.184 L 0.12,-0.018 Z"
         style="fill:#c2c3c4;fill-opacity:1;fill-rule:nonzero;stroke:none"
         id="path34330"
         inkscape:connector-curvature="0" />
    </g>
    <g
       id="g34332"
       transform="matrix(0.35277777,0,0,-0.35277777,61.651582,95.239388)">
      <path
         d="M 0,0 0.06,-0.102 H 0.177 L 0.118,-0.205 0.177,-0.306 H 0.06 L 0,-0.409 -0.059,-0.306 h -0.118 l 0.059,0.101 -0.059,0.103 h 0.118 z"
         style="fill:#efc024;fill-opacity:1;fill-rule:nonzero;stroke:none"
         id="path34334"
         inkscape:connector-curvature="0" />
    </g>
    <g
       id="g34336"
       transform="matrix(0.35277777,0,0,-0.35277777,61.615033,95.311532)">
      <path
         d="m 0,0 -0.052,-0.089 h 0.104 l 0.052,-0.09 0.051,0.09 H 0.259 L 0.208,0 0.259,0.09 H 0.155 L 0.104,0.18 0.052,0.09 H -0.052 Z M 0.038,-0.115 H -0.094 L -0.028,0 -0.094,0.115 H 0.038 L 0.092,0.211 0.104,0.229 0.17,0.115 H 0.302 L 0.236,0 0.302,-0.115 H 0.17 L 0.104,-0.229 Z"
         style="fill:#0e0f0e;fill-opacity:1;fill-rule:nonzero;stroke:none"
         id="path34338"
         inkscape:connector-curvature="0" />
    </g>
    <g
       id="g34340"
       transform="matrix(0.35277777,0,0,-0.35277777,61.470713,95.270045)">
      <path
         d="m 0,0 0.073,-0.093 0.117,0.016 -0.044,-0.109 0.072,-0.093 -0.116,-0.016 -0.045,-0.11 -0.073,0.093 -0.116,-0.017 0.044,0.11 -0.073,0.093 0.117,0.016 z"
         style="fill:#efc024;fill-opacity:1;fill-rule:nonzero;stroke:none"
         id="path34342"
         inkscape:connector-curvature="0" />
    </g>
    <g
       id="g34344"
       transform="matrix(0.35277777,0,0,-0.35277777,61.489483,95.404207)">
      <path
         d="M 0,0 0.04,0.096 0.142,0.11 0.079,0.192 0.117,0.288 0.015,0.274 -0.049,0.355 -0.088,0.259 -0.19,0.244 -0.127,0.163 -0.165,0.067 -0.063,0.082 Z m -0.074,0.055 -0.131,-0.019 0.049,0.124 -0.08,0.104 0.13,0.018 0.041,0.103 0.008,0.02 L 0.026,0.3 0.156,0.318 0.106,0.196 0.188,0.092 0.057,0.073 0.007,-0.049 Z"
         style="fill:#0e0f0e;fill-opacity:1;fill-rule:nonzero;stroke:none"
         id="path34346"
         inkscape:connector-curvature="0" />
    </g>
    <g
       id="g34348"
       transform="matrix(0.35277777,0,0,-0.35277777,61.287053,95.317564)">
      <path
         d="M 0,0 0.085,-0.082 0.199,-0.049 0.17,-0.164 0.255,-0.245 0.142,-0.278 0.113,-0.392 0.028,-0.31 l -0.113,-0.033 0.027,0.114 -0.083,0.083 0.113,0.032 z"
         style="fill:#efc024;fill-opacity:1;fill-rule:nonzero;stroke:none"
         id="path34350"
         inkscape:connector-curvature="0" />
    </g>
    <g
       id="g34352"
       transform="matrix(0.35277777,0,0,-0.35277777,61.324451,95.447634)">
      <path
         d="m 0,0 0.025,0.101 0.099,0.028 -0.074,0.072 0.026,0.1 -0.1,-0.028 -0.074,0.072 -0.026,-0.1 -0.1,-0.029 0.075,-0.072 -0.025,-0.101 0.1,0.029 z m -0.081,0.044 -0.127,-0.036 0.032,0.129 -0.095,0.092 0.127,0.035 0.027,0.108 0.005,0.021 L -0.017,0.301 0.11,0.337 0.078,0.209 0.173,0.117 0.046,0.081 0.014,-0.048 Z"
         style="fill:#0e0f0e;fill-opacity:1;fill-rule:nonzero;stroke:none"
         id="path34354"
         inkscape:connector-curvature="0" />
    </g>
    <g
       id="g34356"
       transform="matrix(0.35277777,0,0,-0.35277777,61.997792,95.270045)">
      <path
         d="m 0,0 -0.073,-0.093 -0.116,0.016 0.043,-0.109 -0.072,-0.093 0.116,-0.016 0.045,-0.11 0.072,0.093 0.117,-0.017 -0.044,0.11 0.073,0.093 -0.117,0.016 z"
         style="fill:#efc024;fill-opacity:1;fill-rule:nonzero;stroke:none"
         id="path34358"
         inkscape:connector-curvature="0" />
    </g>
    <g
       id="g34360"
       transform="matrix(0.35277777,0,0,-0.35277777,61.993673,95.271739)">
      <path
         d="m 0,0 0.012,0.005 z m -0.12,-0.184 -0.063,-0.081 0.102,-0.014 0.039,-0.096 0.063,0.081 0.104,-0.014 -0.04,0.096 0.064,0.081 -0.103,0.015 -0.039,0.096 -0.063,-0.082 -0.103,0.015 z m 0.022,-0.118 -0.131,0.018 0.081,0.105 -0.05,0.122 0.131,-0.018 0.068,0.087 0.014,0.017 0.049,-0.122 0.131,-0.018 -0.081,-0.105 0.05,-0.123 -0.132,0.018 -0.081,-0.103 z"
         style="fill:#0e0f0e;fill-opacity:1;fill-rule:nonzero;stroke:none"
         id="path34362"
         inkscape:connector-curvature="0" />
    </g>
    <g
       id="g34364"
       transform="matrix(0.35277777,0,0,-0.35277777,62.181413,95.317564)">
      <path
         d="m 0,0 -0.085,-0.082 -0.114,0.033 0.029,-0.115 -0.085,-0.081 0.113,-0.033 0.029,-0.114 0.085,0.082 0.113,-0.033 -0.028,0.114 0.084,0.083 -0.113,0.032 z"
         style="fill:#efc024;fill-opacity:1;fill-rule:nonzero;stroke:none"
         id="path34366"
         inkscape:connector-curvature="0" />
    </g>
    <g
       id="g34368"
       transform="matrix(0.35277777,0,0,-0.35277777,62.177294,95.318623)">
      <path
         d="m 0,0 0.012,0.003 z m -0.145,-0.165 -0.074,-0.071 0.098,-0.029 0.027,-0.101 0.074,0.073 0.099,-0.029 -0.024,0.1 0.074,0.072 -0.1,0.029 -0.024,0.1 -0.074,-0.071 -0.101,0.028 z m 0.005,-0.12 -0.128,0.036 0.095,0.092 -0.031,0.128 0.127,-0.036 0.079,0.077 0.017,0.015 0.031,-0.129 0.128,-0.035 -0.095,-0.092 0.031,-0.128 -0.127,0.035 -0.096,-0.092 z"
         style="fill:#0e0f0e;fill-opacity:1;fill-rule:nonzero;stroke:none"
         id="path34370"
         inkscape:connector-curvature="0" />
    </g>
    <g
       id="g34372"
       transform="matrix(0.35277777,0,0,-0.35277777,61.816923,95.239388)">
      <path
         d="M 0,0 0.059,-0.102 H 0.177 L 0.118,-0.205 0.177,-0.306 H 0.059 L 0,-0.409 -0.059,-0.306 h -0.118 l 0.059,0.101 -0.059,0.103 h 0.118 z"
         style="fill:#efc024;fill-opacity:1;fill-rule:nonzero;stroke:none"
         id="path34374"
         inkscape:connector-curvature="0" />
    </g>
    <g
       id="g34376"
       transform="matrix(0.35277777,0,0,-0.35277777,61.780413,95.311532)">
      <path
         d="m 0,0 -0.052,-0.089 h 0.104 l 0.052,-0.09 0.052,0.09 H 0.258 L 0.207,0 0.258,0.09 H 0.156 L 0.104,0.18 0.052,0.09 H -0.052 Z M 0.037,-0.115 H -0.095 L -0.029,0 -0.095,0.115 H 0.037 L 0.092,0.211 0.104,0.229 0.169,0.115 H 0.302 L 0.235,0 0.302,-0.115 H 0.169 L 0.104,-0.229 Z"
         style="fill:#0e0f0e;fill-opacity:1;fill-rule:nonzero;stroke:none"
         id="path34378"
         inkscape:connector-curvature="0" />
    </g>
  </g>
</svg>
