<?xml version="1.0" encoding="UTF-8" standalone="no"?>
<!-- Created with Inkscape (http://www.inkscape.org/) -->

<svg
   xmlns:dc="http://purl.org/dc/elements/1.1/"
   xmlns:cc="http://creativecommons.org/ns#"
   xmlns:rdf="http://www.w3.org/1999/02/22-rdf-syntax-ns#"
   xmlns:svg="http://www.w3.org/2000/svg"
   xmlns="http://www.w3.org/2000/svg"
   xmlns:sodipodi="http://sodipodi.sourceforge.net/DTD/sodipodi-0.dtd"
   xmlns:inkscape="http://www.inkscape.org/namespaces/inkscape"
   width="7.0848298mm"
   height="4.7329078mm"
   viewBox="0 0 7.0848297 4.7329078"
   version="1.1"
   id="svg8"
   inkscape:version="0.92.4 (5da689c313, 2019-01-14)"
   sodipodi:docname="fiji.svg">
  <defs
     id="defs2">
    <radialGradient
       id="radialGradient37584"
       spreadMethod="pad"
       gradientTransform="matrix(0.975099,0,0,0.975099,159.64062,365.06934)"
       gradientUnits="userSpaceOnUse"
       r="1"
       cy="0"
       cx="0"
       fy="0"
       fx="0">
      <stop
         id="stop37578"
         offset="0"
         style="stop-opacity:1;stop-color:#852c26" />
      <stop
         id="stop37580"
         offset="0.0015476"
         style="stop-opacity:1;stop-color:#852c26" />
      <stop
         id="stop37582"
         offset="1"
         style="stop-opacity:1;stop-color:#451617" />
    </radialGradient>
    <clipPath
       id="clipPath37532"
       clipPathUnits="userSpaceOnUse">
      <path
         inkscape:connector-curvature="0"
         id="path37530"
         d="M 0,400 H 400 V 0 H 0 Z" />
    </clipPath>
    <radialGradient
       id="radialGradient37522"
       spreadMethod="pad"
       gradientTransform="matrix(-0.2637247,0,0,0.2637247,159.68652,365.88965)"
       gradientUnits="userSpaceOnUse"
       r="1"
       cy="0"
       cx="0"
       fy="0"
       fx="0">
      <stop
         id="stop37516"
         offset="0"
         style="stop-opacity:1;stop-color:#852c26" />
      <stop
         id="stop37518"
         offset="0.0015476"
         style="stop-opacity:1;stop-color:#852c26" />
      <stop
         id="stop37520"
         offset="1"
         style="stop-opacity:1;stop-color:#451617" />
    </radialGradient>
    <clipPath
       id="clipPath37354"
       clipPathUnits="userSpaceOnUse">
      <path
         inkscape:connector-curvature="0"
         id="path37352"
         d="M 0,400 H 400 V 0 H 0 Z" />
    </clipPath>
    <radialGradient
       id="radialGradient37344"
       spreadMethod="pad"
       gradientTransform="matrix(0.975099,0,0,0.975099,155.76025,365.06934)"
       gradientUnits="userSpaceOnUse"
       r="1"
       cy="0"
       cx="0"
       fy="0"
       fx="0">
      <stop
         id="stop37338"
         offset="0"
         style="stop-opacity:1;stop-color:#eee54f" />
      <stop
         id="stop37340"
         offset="0.9977451"
         style="stop-opacity:1;stop-color:#e04a20" />
      <stop
         id="stop37342"
         offset="1"
         style="stop-opacity:1;stop-color:#e04a20" />
    </radialGradient>
    <clipPath
       id="clipPath37272"
       clipPathUnits="userSpaceOnUse">
      <path
         inkscape:connector-curvature="0"
         id="path37270"
         d="M 0,400 H 400 V 0 H 0 Z" />
    </clipPath>
    <radialGradient
       id="radialGradient37262"
       spreadMethod="pad"
       gradientTransform="matrix(0.2636045,0,0,0.2636045,155.71484,365.89062)"
       gradientUnits="userSpaceOnUse"
       r="1"
       cy="0"
       cx="0"
       fy="0"
       fx="0">
      <stop
         id="stop37256"
         offset="0"
         style="stop-opacity:1;stop-color:#eee54f" />
      <stop
         id="stop37258"
         offset="0.9977451"
         style="stop-opacity:1;stop-color:#e04a20" />
      <stop
         id="stop37260"
         offset="1"
         style="stop-opacity:1;stop-color:#e04a20" />
    </radialGradient>
    <radialGradient
       id="radialGradient5422"
       spreadMethod="pad"
       gradientTransform="matrix(0.1021146,-0.0756367,0.070541,0.1077099,271.97559,176.14746)"
       gradientUnits="userSpaceOnUse"
       r="1"
       cy="0"
       cx="0"
       fy="0"
       fx="0">
      <stop
         id="stop5416"
         offset="0"
         style="stop-opacity:1;stop-color:#ffffff" />
      <stop
         id="stop5418"
         offset="0.00091915"
         style="stop-opacity:1;stop-color:#ffffff" />
      <stop
         id="stop5420"
         offset="1"
         style="stop-opacity:1;stop-color:#e63e6e" />
    </radialGradient>
    <clipPath
       id="clipPath5374"
       clipPathUnits="userSpaceOnUse">
      <path
         inkscape:connector-curvature="0"
         id="path5372"
         d="M 0,400 H 400 V 0 H 0 Z" />
    </clipPath>
    <radialGradient
       id="radialGradient5364"
       spreadMethod="pad"
       gradientTransform="matrix(0.1318831,-9.013e-4,-1.001e-4,0.1311822,269.56445,176.4248)"
       gradientUnits="userSpaceOnUse"
       r="1"
       cy="0"
       cx="0"
       fy="0"
       fx="0">
      <stop
         id="stop5358"
         offset="0"
         style="stop-opacity:1;stop-color:#ffffff" />
      <stop
         id="stop5360"
         offset="0.00091915"
         style="stop-opacity:1;stop-color:#ffffff" />
      <stop
         id="stop5362"
         offset="1"
         style="stop-opacity:1;stop-color:#e63e6e" />
    </radialGradient>
    <clipPath
       id="clipPath5316"
       clipPathUnits="userSpaceOnUse">
      <path
         inkscape:connector-curvature="0"
         id="path5314"
         d="M 0,400 H 400 V 0 H 0 Z" />
    </clipPath>
    <radialGradient
       id="radialGradient5306"
       spreadMethod="pad"
       gradientTransform="matrix(0.1105445,0.0935377,-0.0930375,0.1086438,268.6875,176.89062)"
       gradientUnits="userSpaceOnUse"
       r="1"
       cy="0"
       cx="0"
       fy="0"
       fx="0">
      <stop
         id="stop5300"
         offset="0"
         style="stop-opacity:1;stop-color:#ffffff" />
      <stop
         id="stop5302"
         offset="0.00091915"
         style="stop-opacity:1;stop-color:#ffffff" />
      <stop
         id="stop5304"
         offset="1"
         style="stop-opacity:1;stop-color:#e63e6e" />
    </radialGradient>
  </defs>
  <sodipodi:namedview
     id="base"
     pagecolor="#ffffff"
     bordercolor="#666666"
     borderopacity="1.0"
     inkscape:pageopacity="0.0"
     inkscape:pageshadow="2"
     inkscape:zoom="11.2"
     inkscape:cx="26.971248"
     inkscape:cy="-0.92869758"
     inkscape:document-units="mm"
     inkscape:current-layer="layer1"
     showgrid="false"
     inkscape:window-width="954"
     inkscape:window-height="630"
     inkscape:window-x="-3"
     inkscape:window-y="6"
     inkscape:window-maximized="0" />
  <metadata
     id="metadata5">
    <rdf:RDF>
      <cc:Work
         rdf:about="">
        <dc:format>image/svg+xml</dc:format>
        <dc:type
           rdf:resource="http://purl.org/dc/dcmitype/StillImage" />
        <dc:title></dc:title>
      </cc:Work>
    </rdf:RDF>
  </metadata>
  <g
     inkscape:label="Layer 1"
     inkscape:groupmode="layer"
     id="layer1"
     transform="translate(-42.847509,-96.685882)">
    <path
       d="m 42.876789,101.38945 h 7.02627 v -4.674661 h -7.02627 z m 7.04109,0.0148 v -0.0148 z m -7.07037,0.0145 v -4.732868 h 7.08483 v 4.718408 0.0145 z"
       style="fill:#221f21;fill-opacity:1;fill-rule:nonzero;stroke:none;stroke-width:0.35277778"
       id="path34768"
       inkscape:connector-curvature="0" />
    <path
       d="m 49.917879,101.40427 h -7.05556 v -4.703592 h 7.05556 z"
       style="fill:#5b91aa;fill-opacity:1;fill-rule:nonzero;stroke:none;stroke-width:0.35277778"
       id="path34770"
       inkscape:connector-curvature="0" />
    <path
       d="m 46.390099,99.052295 h -3.52778 v -2.351969 h 3.52778 z"
       style="fill:#2f376f;fill-opacity:1;fill-rule:nonzero;stroke:none;stroke-width:0.35277778"
       id="path34772"
       inkscape:connector-curvature="0" />
    <g
       id="g34774"
       transform="matrix(0.35277777,0,0,-0.35277777,46.389957,97.523744)">
      <path
         d="M 0,0 H -4 V 2.333 H -6 V 0 h -4 v -2 h 4 v -2.333 h 2 V -2 h 4 z"
         style="fill:#ffffff;fill-opacity:1;fill-rule:nonzero;stroke:none"
         id="path34776"
         inkscape:connector-curvature="0" />
    </g>
    <g
       id="g34778"
       transform="matrix(0.35277777,0,0,-0.35277777,46.389957,98.782066)">
      <path
         d="M 0,0 -8.853,5.9 H -10 V 5.128 l 8.844,-5.894 H 0 Z"
         style="fill:#ffffff;fill-opacity:1;fill-rule:nonzero;stroke:none"
         id="path34780"
         inkscape:connector-curvature="0" />
    </g>
    <g
       id="g34782"
       transform="matrix(0.35277777,0,0,-0.35277777,42.862177,98.782066)">
      <path
         d="M 0,0 8.852,5.9 H 10 V 5.128 L 1.156,-0.766 H 0 Z"
         style="fill:#ffffff;fill-opacity:1;fill-rule:nonzero;stroke:none"
         id="path34784"
         inkscape:connector-curvature="0" />
    </g>
    <g
       id="g34786"
       transform="matrix(0.35277777,0,0,-0.35277777,46.389957,97.670675)">
      <path
         d="M 0,0 H -4.417 V 2.75 H -5.584 V 0 H -10 v -1.167 h 4.416 v -2.75 h 1.167 v 2.75 H 0 Z"
         style="fill:#c22135;fill-opacity:1;fill-rule:nonzero;stroke:none"
         id="path34788"
         inkscape:connector-curvature="0" />
    </g>
    <g
       id="g34790"
       transform="matrix(0.35277777,0,0,-0.35277777,46.389957,99.045591)">
      <path
         d="M 0,0 V 0.526 L -2.688,2.314 H -3.479 Z"
         style="fill:#c22135;fill-opacity:1;fill-rule:nonzero;stroke:none"
         id="path34792"
         inkscape:connector-curvature="0" />
    </g>
    <g
       id="g34794"
       transform="matrix(0.35277777,0,0,-0.35277777,46.389957,96.700536)">
      <path
         d="M 0,0 H -0.791 L -4,-2.135 v -0.198 h 0.492 z"
         style="fill:#c22135;fill-opacity:1;fill-rule:nonzero;stroke:none"
         id="path34796"
         inkscape:connector-curvature="0" />
    </g>
    <g
       id="g34798"
       transform="matrix(0.35277777,0,0,-0.35277777,44.090016,98.229301)">
      <path
         d="m 0,0 -3.48,-2.314 v -0.019 h 0.763 L 0.52,-0.181 V 0 Z"
         style="fill:#c22135;fill-opacity:1;fill-rule:nonzero;stroke:none"
         id="path34800"
         inkscape:connector-curvature="0" />
    </g>
    <g
       id="g34802"
       transform="matrix(0.35277777,0,0,-0.35277777,42.862177,96.702089)">
      <path
         d="M 0,0 V -0.526 L 2.71,-2.329 H 3.502 Z"
         style="fill:#c22135;fill-opacity:1;fill-rule:nonzero;stroke:none"
         id="path34804"
         inkscape:connector-curvature="0" />
    </g>
    <g
       id="g34806"
       transform="matrix(0.35277777,0,0,-0.35277777,48.926257,98.04187)">
      <path
         d="m 0,0 v -3.64 c 0,-0.805 -1.044,-1.61 -2.189,-2.089 -1.147,0.479 -2.19,1.284 -2.19,2.089 V 0.001 H 0 Z"
         style="fill:#c51e3d;fill-opacity:1;fill-rule:nonzero;stroke:none"
         id="path34808"
         inkscape:connector-curvature="0" />
    </g>
    <g
       id="g34810"
       transform="matrix(0.35277777,0,0,-0.35277777,48.926257,98.04187)">
      <path
         d="m 0,0 h -0.006 v -3.64 c 0.001,-0.8 -1.041,-1.606 -2.185,-2.085 -1.142,0.479 -2.183,1.285 -2.182,2.085 V 0.001 H -4.379 V -0.004 H 0 V 0.001 H -0.006 V 0 H 0 0.006 V 0.001 0.006 H -4.385 V 0.001 -3.64 c 10e-4,-0.81 1.046,-1.614 2.194,-2.094 1.15,0.48 2.196,1.284 2.197,2.094 V 0 Z"
         style="fill:#0e0f0e;fill-opacity:1;fill-rule:nonzero;stroke:none"
         id="path34812"
         inkscape:connector-curvature="0" />
    </g>
    <g
       id="g34814"
       transform="matrix(0.35277777,0,0,-0.35277777,48.009167,99.996608)">
      <path
         d="M 0,0 C -0.975,0.486 -1.779,1.193 -1.779,1.901 H 0 Z"
         style="fill:#ffffff;fill-opacity:1;fill-rule:nonzero;stroke:none"
         id="path34816"
         inkscape:connector-curvature="0" />
    </g>
    <g
       id="g34818"
       transform="matrix(0.35277777,0,0,-0.35277777,48.009167,99.996608)">
      <path
         d="M 0,0 0.002,0.005 C -0.972,0.491 -1.774,1.197 -1.773,1.901 H -1.779 V 1.896 h 1.773 L -0.006,0 H 0 L 0.002,0.005 0,0 H 0.006 V 1.906 H -1.785 V 1.901 c 10e-4,-0.713 0.807,-1.419 1.782,-1.906 L 0.006,-0.009 V 0 Z"
         style="fill:#0e0f0e;fill-opacity:1;fill-rule:nonzero;stroke:none"
         id="path34820"
         inkscape:connector-curvature="0" />
    </g>
    <path
       d="m 47.381409,98.56652 h 0.62759 v 0.470253 h -0.62759 z"
       style="fill:#ffffff;fill-opacity:1;fill-rule:nonzero;stroke:none;stroke-width:0.35277778"
       id="path34822"
       inkscape:connector-curvature="0" />
    <g
       id="g34824"
       transform="matrix(0.35277777,0,0,-0.35277777,47.381476,99.036984)">
      <path
         d="M 0,0 H 0.006 V 1.333 H 0 V 1.328 H 1.773 V 0.005 H 0 V 0 H 0.006 0 V -0.005 H 1.785 V 1.339 H -0.006 V 1.333 0 -0.005 H 0 Z"
         style="fill:#0e0f0e;fill-opacity:1;fill-rule:nonzero;stroke:none"
         id="path34826"
         inkscape:connector-curvature="0" />
    </g>
    <g
       id="g34828"
       transform="matrix(0.35277777,0,0,-0.35277777,48.298556,99.996608)">
      <path
         d="M 0,0 C 0.974,0.486 1.779,1.193 1.779,1.901 H 0 Z"
         style="fill:#ffffff;fill-opacity:1;fill-rule:nonzero;stroke:none"
         id="path34830"
         inkscape:connector-curvature="0" />
    </g>
    <g
       id="g34832"
       transform="matrix(0.35277777,0,0,-0.35277777,48.298556,99.996608)">
      <path
         d="M 0,0 0.002,-0.005 C 0.977,0.482 1.784,1.188 1.785,1.901 V 1.906 H -0.006 V -0.009 L 0.002,-0.005 0,0 H 0.006 V 1.896 H 1.779 V 1.901 H 1.773 C 1.774,1.197 0.971,0.491 -0.003,0.005 L 0,0 h 0.006 z"
         style="fill:#0e0f0e;fill-opacity:1;fill-rule:nonzero;stroke:none"
         id="path34834"
         inkscape:connector-curvature="0" />
    </g>
    <path
       d="m 48.926219,98.56652 h -0.62759 v 0.470253 h 0.62759 z"
       style="fill:#ffffff;fill-opacity:1;fill-rule:nonzero;stroke:none;stroke-width:0.35277778"
       id="path34836"
       inkscape:connector-curvature="0" />
    <g
       id="g34838"
       transform="matrix(0.35277777,0,0,-0.35277777,48.926257,99.036984)">
      <path
         d="M 0,0 H 0.006 V 1.333 1.339 H -1.785 V -0.005 H 0.006 V 0 H 0 V 0.005 H -1.773 V 1.328 H 0 V 1.333 H -0.006 V 0 H 0 v 0.005 z"
         style="fill:#0e0f0e;fill-opacity:1;fill-rule:nonzero;stroke:none"
         id="path34840"
         inkscape:connector-curvature="0" />
    </g>
    <g
       id="g34842"
       transform="matrix(0.35277777,0,0,-0.35277777,47.694946,98.42188)">
      <path
         d="m 0,0 -0.125,-0.086 -0.086,-0.022 -0.067,0.01 -0.059,0.043 -0.015,0.084 0.038,0.228 -0.083,0.201 0.017,0.025 -0.003,0.073 0.025,0.018 0.059,-0.005 0.083,-0.03 L -0.078,0.437 -0.199,0.417 -0.02,0.319 -0.144,0.27 0.026,0.215 -0.057,0.06 -0.111,0.024 Z M 3.315,0.043 3.235,0.191 3.2,0.282 3.101,0.32 C 3.003,0.317 2.912,0.277 2.816,0.27 L 2.644,0.32 2.516,0.463 2.688,0.517 2.819,0.698 2.882,0.737 3.001,0.633 3.026,0.725 2.972,0.805 2.85,0.815 2.819,0.875 2.781,0.909 2.801,0.985 2.719,0.939 2.712,0.862 2.567,0.932 2.325,0.923 C 2.119,0.88 1.923,0.789 1.711,0.776 L 1.465,0.815 1.436,0.884 1.333,0.911 C 1.237,0.9 1.149,0.855 1.055,0.842 L 0.974,0.865 0.971,0.96 0.911,0.843 1.019,0.737 0.983,0.687 1,0.604 1.094,0.544 1.069,0.604 1.093,0.686 1.167,0.704 1.362,0.672 1.428,0.683 1.45,0.725 C 1.585,0.692 1.727,0.698 1.863,0.722 1.972,0.743 2.079,0.773 2.185,0.803 2.277,0.829 2.371,0.855 2.467,0.86 L 2.641,0.808 2.701,0.701 2.64,0.59 2.433,0.534 2.4,0.55 C 2.312,0.606 2.207,0.633 2.104,0.627 1.989,0.622 1.879,0.585 1.773,0.546 1.608,0.484 1.443,0.415 1.27,0.38 1.136,0.354 0.997,0.349 0.863,0.373 L 0.89,0.424 0.732,0.437 0.569,0.574 0.59,0.674 0.725,0.752 0.753,0.767 0.748,0.788 0.684,0.791 0.635,0.818 0.615,0.773 0.558,0.84 0.603,0.847 0.596,0.902 0.604,0.932 0.556,0.957 0.536,0.938 0.484,0.917 0.499,0.875 0.413,0.895 0.445,0.933 0.397,0.963 0.365,1.022 H 0.349 L 0.346,0.974 0.338,0.827 0.261,0.75 0.274,0.722 0.228,0.686 0.162,0.665 0.114,0.687 0.152,0.6 0.077,0.566 0.024,0.568 -0.119,0.64 -0.272,0.696 -0.355,0.686 -0.443,0.626 -0.485,0.613 -0.577,0.622 -0.667,0.53 -0.657,0.458 C -0.709,0.382 -0.745,0.294 -0.744,0.2 l 0.044,-0.176 0.031,-0.056 -0.032,0.047 0.001,-0.091 0.092,-0.068 0.057,0.003 0.037,-0.026 0.1,-0.019 0.137,-0.039 0.146,-0.012 0.079,0.036 0.149,0.097 0.001,-0.021 0.036,0.027 0.137,0.111 0.083,-0.129 0.006,0.056 0.062,0.109 0.133,-0.109 0.08,-0.076 0.002,0.075 c 0.101,-0.035 0.212,-0.015 0.312,0.013 0.178,0.052 0.342,0.14 0.505,0.227 0.089,0.047 0.177,0.095 0.268,0.139 L 1.916,0.394 2.026,0.388 2.096,0.314 2.086,0.292 2.004,0.274 1.922,0.249 1.891,0.196 1.833,0.143 1.832,0.128 1.931,0.139 V 0.017 L 1.991,-0.059 1.839,-0.101 1.754,-0.074 1.692,-0.012 1.566,0.004 1.504,-0.018 1.488,-0.034 1.513,-0.038 1.467,-0.075 1.406,-0.158 1.474,-0.121 1.496,-0.16 1.489,-0.187 1.447,-0.222 1.44,-0.291 l 0.079,0.056 0.064,-0.031 0.084,0.05 0.086,0.005 0.226,0.014 0.239,0.133 L 2.141,0.039 2.2,0.137 2.314,0.191 2.339,0.215 2.389,0.076 2.457,0.187 2.558,0.127 2.648,0.098 2.651,0.156 2.764,0.121 2.935,0.138 H 3.037 L 3.137,0.049 3.168,-0.026 3.134,-0.087 3.045,-0.106 2.991,-0.074 2.938,-0.099 2.863,-0.066 2.831,-0.209 2.818,-0.253 2.873,-0.32 l 0.014,0.088 0.027,-0.014 0.074,-0.107 0.003,0.1 0.044,-0.009 0.104,-0.092 -0.024,0.032 -0.007,0.072 0.046,0.003 0.047,0.091 0.107,0.068 0.037,0.063 V 0 Z"
         style="fill:#0e0f0e;fill-opacity:1;fill-rule:nonzero;stroke:none"
         id="path34844"
         inkscape:connector-curvature="0" />
    </g>
    <g
       id="g34846"
       transform="matrix(0.35277777,0,0,-0.35277777,47.820717,98.066315)">
      <path
         d="m 0,0 0.026,-0.07 0.021,0.01 0.026,-0.015 -0.022,-0.022 -0.023,0.005 0.079,-0.061 0.076,0.031 -0.038,0.011 0.014,0.03 0.024,-0.013 0.019,0.028 0.03,-0.014 -0.015,-0.024 0.002,-0.01 0.02,-0.018 -0.017,-0.023 -0.03,0.027 0.002,-0.073 0.096,-0.049 -0.017,0.033 0.027,0.012 0.01,-0.038 0.075,0.011 -0.051,-0.02 -0.126,-0.084 -0.014,-0.008 -0.06,0.059 -0.149,0.066 0.022,0.171 z"
         style="fill:#efc024;fill-opacity:1;fill-rule:nonzero;stroke:none"
         id="path34848"
         inkscape:connector-curvature="0" />
    </g>
    <g
       id="g34850"
       transform="matrix(0.35277777,0,0,-0.35277777,48.658206,98.093903)">
      <path
         d="M 0,0 0.042,0.035 V -0.037 L 0.086,-0.073 0.099,-0.121 0.11,-0.134 0.232,-0.139 0.28,-0.248 0.27,-0.244 0.185,-0.183 0.099,-0.196 0.06,-0.253 -0.072,-0.416 -0.241,-0.449 -0.256,-0.46 l 0.038,-0.024 0.104,-0.121 0.162,-0.07 c 0.11,-0.005 0.213,0.047 0.321,0.05 L 0.452,-0.651 0.488,-0.738 0.575,-0.896 0.601,-0.937 0.579,-0.996 0.453,-1.083 0.414,-1.165 0.369,-1.157 0.363,-1.184 0.361,-1.164 0.363,-1.25 0.346,-1.241 0.32,-1.192 0.326,-1.163 0.294,-1.176 0.261,-1.16 0.238,-1.258 0.202,-1.207 v 0.045 l -0.04,0.02 -0.038,-0.082 -0.018,0.064 0.016,0.027 -0.023,0.018 0.038,0.105 0.062,-0.035 v -0.067 l 0.013,0.004 0.017,0.08 0.075,-0.027 0.007,-0.055 0.012,0.007 0.004,0.057 0.047,0.007 0.077,0.068 -0.027,0.091 -0.118,0.106 -0.124,-0.006 -0.19,-0.007 -0.12,0.071 -0.009,-0.013 0.032,-0.027 0.012,-0.047 -0.088,0.016 -0.09,0.067 -0.03,0.062 -0.017,-0.002 0.029,-0.065 -0.038,-0.089 -0.047,0.103 -0.1,0.065 -0.011,0.056 -0.008,-0.007 -0.013,-0.084 -0.149,-0.048 0.04,0.089 -0.076,0.108 -0.126,0.011 -0.253,-0.104 c -0.17,-0.088 -0.335,-0.184 -0.51,-0.261 -0.094,-0.042 -0.189,-0.079 -0.29,-0.097 l -0.225,0.01 -0.006,0.063 0.127,-0.035 0.147,0.012 -0.12,0.148 0.115,-0.001 0.106,0.089 -0.097,0.02 -0.108,0.08 0.048,0.026 c 0.106,-0.017 0.214,-0.021 0.321,-0.009 0.203,0.023 0.394,0.1 0.583,0.172 0.11,0.041 0.223,0.082 0.341,0.09 l 0.261,-0.053 0.062,-0.037 0.185,0.027 0.104,0.099 -0.008,0.122 -0.147,0.098 -0.218,-0.012 c -0.098,-0.021 -0.193,-0.051 -0.289,-0.076 -0.111,-0.03 -0.223,-0.055 -0.336,-0.06 -0.091,-0.006 -0.183,0.002 -0.272,0.023 l -0.013,-0.045 -0.061,-0.01 -0.181,0.029 -0.102,-0.025 -0.015,-0.118 -0.067,0.075 0.029,0.073 0.021,0.021 -0.115,0.091 0.019,0.089 0.024,-0.08 0.094,-0.014 c 0.092,0.015 0.177,0.057 0.27,0.067 l 0.087,-0.023 0.025,-0.068 c 0.098,-0.045 0.21,-0.052 0.315,-0.04 0.189,0.023 0.363,0.099 0.547,0.14 0.094,0.021 0.193,0.033 0.286,0.003 l 0.126,-0.075 0.01,0.014 z"
         style="fill:#efc024;fill-opacity:1;fill-rule:nonzero;stroke:none"
         id="path34852"
         inkscape:connector-curvature="0" />
    </g>
    <g
       id="g34854"
       transform="matrix(0.35277777,0,0,-0.35277777,47.822767,98.130063)">
      <path
         d="M 0,0 0.092,-0.032 0.214,-0.126 V -0.131 L 0.205,-0.138 0.132,-0.073 0.003,-0.015 Z"
         style="fill:#0e0f0e;fill-opacity:1;fill-rule:nonzero;stroke:none"
         id="path34856"
         inkscape:connector-curvature="0" />
    </g>
    <g
       id="g34858"
       transform="matrix(0.35277777,0,0,-0.35277777,47.792456,98.154686)">
      <path
         d="M 0,0 0.057,0.054 0.054,0.019 0.175,-0.026 0.27,-0.109 0.302,-0.094 0.291,-0.166 0.239,-0.168 0.169,-0.289 0.077,-0.342 0.037,-0.385 0,-0.377 0.053,-0.29 0.101,-0.301 0.1,-0.29 l -0.037,0.014 0.008,0.063 0.048,0.008 -0.006,0.015 -0.055,0.009 -0.007,0.03 0.007,-0.054 -0.055,-0.035 -0.024,0.022 -0.013,-0.001 0.032,-0.037 -0.051,-0.088 -0.023,0.047 0.02,0.052 0.005,0.109 0.072,0.099 z"
         style="fill:#efc024;fill-opacity:1;fill-rule:nonzero;stroke:none"
         id="path34860"
         inkscape:connector-curvature="0" />
    </g>
    <g
       id="g34862"
       transform="matrix(0.35277777,0,0,-0.35277777,47.805546,98.174162)">
      <path
         d="M 0,0 0.012,0.01 0.083,-0.017 0.071,-0.029 0.046,-0.046 0.057,-0.017 0.029,-0.011 0.016,-0.034 0.013,-0.027 0.006,-0.002 Z"
         style="fill:#0e0f0e;fill-opacity:1;fill-rule:nonzero;stroke:none"
         id="path34864"
         inkscape:connector-curvature="0" />
    </g>
    <g
       id="g34866"
       transform="matrix(0.35277777,0,0,-0.35277777,47.574727,98.183298)">
      <path
         d="M 0,0 0.078,0.004 0.21,-0.047 0.351,-0.12 0.359,-0.13 0.377,-0.165 0.281,-0.229 0.143,-0.132 0.012,-0.087 -0.046,-0.098 -0.055,-0.165 -0.063,-0.204 -0.107,-0.211 -0.126,-0.247 -0.135,-0.211 h -0.031 l -0.007,0.042 0.025,0.023 -0.005,0.013 -0.027,-0.083 -0.014,-0.009 -0.014,-0.012 -0.004,0.016 -0.007,0.005 -0.01,0.094 v 0.019 l -0.021,-0.105 -0.025,-0.017 -0.035,0.027 0.029,0.099 0.085,0.034 0.083,-0.009 z"
         style="fill:#efc024;fill-opacity:1;fill-rule:nonzero;stroke:none"
         id="path34868"
         inkscape:connector-curvature="0" />
    </g>
    <g
       id="g34870"
       transform="matrix(0.35277777,0,0,-0.35277777,47.740776,98.190529)">
      <path
         d="M 0,0 0.101,0.016 0.078,-0.05 0.075,-0.146 0.053,-0.214 0.091,-0.26 l 0.015,-0.018 0.032,-0.01 0.052,-0.009 0.046,0.048 0.102,0.059 0.057,0.099 0.012,0.003 0.066,-0.2 L 0.48,-0.3 0.43,-0.288 0.396,-0.261 0.389,-0.37 0.396,-0.413 0.292,-0.341 0.279,-0.343 l -0.028,-0.15 -0.07,0.048 -0.026,0.094 -0.014,0.002 -0.142,-0.091 0.018,0.126 0.016,0.029 -0.062,-0.01 -0.085,0.039 0.073,0.052 0.041,0.033 0.001,0.01 -0.051,0.003 -0.046,0.051 0.09,0.02 0.058,0.023 0.001,0.012 z"
         style="fill:#efc024;fill-opacity:1;fill-rule:nonzero;stroke:none"
         id="path34872"
         inkscape:connector-curvature="0" />
    </g>
    <g
       id="g34874"
       transform="matrix(0.35277777,0,0,-0.35277777,47.847566,98.188624)">
      <path
         d="M 0,0 0.056,-0.047 0.059,-0.059 0.043,-0.06 0.021,-0.057 0.034,-0.046 0.015,-0.023 -0.009,-0.046 Z"
         style="fill:#0e0f0e;fill-opacity:1;fill-rule:nonzero;stroke:none"
         id="path34876"
         inkscape:connector-curvature="0" />
    </g>
    <g
       id="g34878"
       transform="matrix(0.35277777,0,0,-0.35277777,47.920626,98.299571)">
      <path
         d="M 0,0 -0.086,0.222 0.099,0.073 0.231,0.061 0.119,-0.007 0.121,-0.02 0.195,-0.049 0.282,-0.122 0.335,-0.133 0.192,-0.195 0.09,-0.169 0.085,-0.183 0.238,-0.336 V -0.34 l -0.213,0.013 -0.058,0.043 0.015,-0.155 -0.148,0.105 -0.042,0.066 -0.015,-0.001 -0.077,-0.152 -0.046,0.066 -0.009,0.073 -0.014,-0.001 -0.051,-0.091 -0.107,-0.065 0.015,0.165 -0.103,-0.051 -0.103,0.001 0.037,0.032 0.077,0.147 0.049,0.036 -0.007,0.012 -0.105,-0.025 -0.084,0.032 0.093,0.043 0.035,0.036 -0.144,0.03 -0.038,0.034 0.212,0.1 0.048,-0.021 -0.064,-0.057 -0.043,-0.006 0.05,-0.051 0.093,-0.019 -0.016,-0.117 -0.029,-0.025 0.186,0.075 0.039,-0.091 0.09,-0.045 -0.004,0.047 0.024,0.094 0.013,-0.004 0.071,-0.039 0.03,-0.033 0.002,0.064 -0.003,0.093 z"
         style="fill:#efc024;fill-opacity:1;fill-rule:nonzero;stroke:none"
         id="path34880"
         inkscape:connector-curvature="0" />
    </g>
    <g
       id="g34882"
       transform="matrix(0.35277777,0,0,-0.35277777,47.796936,98.247538)">
      <path
         d="m 0,0 0.03,0.017 -0.003,-0.035 -0.052,-0.086 -0.025,0.005 0.004,0.031 z"
         style="fill:#efc024;fill-opacity:1;fill-rule:nonzero;stroke:none"
         id="path34884"
         inkscape:connector-curvature="0" />
    </g>
    <g
       id="g34886"
       transform="matrix(0.35277777,0,0,-0.35277777,47.489287,98.26426)">
      <path
         d="m 0,0 0.015,-0.001 0.054,-0.051 -0.007,0.048 0.035,0.007 v -0.049 l 0.025,0.01 c 0.033,-0.119 0.039,-0.247 0.012,-0.367 l -0.017,-0.029 -0.04,0.023 -0.003,0.032 0.01,0.025 -0.038,-0.018 -0.023,-0.039 -0.027,0.022 -0.005,0.05 -0.011,0.006 -0.012,-0.016 c -0.014,0.105 -0.007,0.214 0.023,0.315 l 0.023,0.005 z"
         style="fill:#ffffff;fill-opacity:1;fill-rule:nonzero;stroke:none"
         id="path34888"
         inkscape:connector-curvature="0" />
    </g>
    <g
       id="g34890"
       transform="matrix(0.35277777,0,0,-0.35277777,47.437596,98.351255)">
      <path
         d="M 0,0 0.083,0.246 0.101,0.239 0.123,0.218 C 0.092,0.11 0.083,-0.007 0.102,-0.119 L 0.094,-0.162 0.087,-0.232 0.075,-0.223 Z"
         style="fill:#ffffff;fill-opacity:1;fill-rule:nonzero;stroke:none"
         id="path34892"
         inkscape:connector-curvature="0" />
    </g>
    <g
       id="g34894"
       transform="matrix(0.35277777,0,0,-0.35277777,47.536836,98.27442)">
      <path
         d="m 0,0 0.011,0.03 0.025,0.004 c 0.055,-0.077 0.092,-0.17 0.086,-0.266 L 0.083,-0.382 0.072,-0.374 0.025,-0.305 C 0.038,-0.203 0.029,-0.099 0,0"
         style="fill:#ffffff;fill-opacity:1;fill-rule:nonzero;stroke:none"
         id="path34896"
         inkscape:connector-curvature="0" />
    </g>
    <g
       id="g34898"
       transform="matrix(0.35277777,0,0,-0.35277777,48.416696,98.32903)">
      <path
         d="m 0,0 0.055,0.018 -0.063,-0.09 0.159,0.017 0.056,0.06 0.071,-0.043 -0.122,-0.071 -0.077,-0.109 0.067,-0.11 -0.011,-0.011 c -0.074,-0.06 -0.163,-0.101 -0.258,-0.12 h -0.169 l -0.072,0.005 -0.087,-0.059 -0.069,0.028 -0.071,-0.028 0.011,0.028 0.038,0.026 0.028,0.055 0.086,0.007 0.003,0.014 -0.103,-0.014 -0.017,-0.008 -0.017,0.037 -0.044,-0.011 0.04,0.029 0.046,0.035 0.063,-0.005 0.006,0.013 -0.071,0.02 0.043,0.01 0.113,-0.007 0.065,-0.066 0.108,-0.028 0.157,0.049 0.004,0.011 -0.077,0.099 0.011,0.098 0.006,0.02 -0.021,-0.004 -0.074,-0.019 0.042,0.045 0.033,0.055 z"
         style="fill:#efc024;fill-opacity:1;fill-rule:nonzero;stroke:none"
         id="path34900"
         inkscape:connector-curvature="0" />
    </g>
    <g
       id="g34902"
       transform="matrix(0.35277777,0,0,-0.35277777,47.480676,98.393623)">
      <path
         d="m 0,0 0.008,-0.033 0.023,-0.018 -0.01,-0.032 0.036,-0.055 -0.003,0.019 -0.006,0.063 0.014,0.002 0.019,0.042 0.007,-0.044 0.05,-0.029 0.018,-0.008 0.004,0.032 0.022,0.02 0.008,0.044 0.025,-0.057 v 0.008 L 0.219,-0.054 0.25,-0.069 0.253,-0.14 0.3,-0.174 0.35,-0.203 0.453,-0.191 0.604,-0.102 0.65,-0.067 0.689,-0.05 0.707,-0.044 0.702,-0.11 0.7,-0.17 0.545,-0.27 0.424,-0.308 0.278,-0.27 l -0.093,0.019 -0.098,0.028 -0.045,0.017 -0.114,0.041 -0.012,0.049 0.057,-0.012 0.046,-0.037 0.008,0.014 -0.051,0.058 0.021,0.056 z"
         style="fill:#efc024;fill-opacity:1;fill-rule:nonzero;stroke:none"
         id="path34904"
         inkscape:connector-curvature="0" />
    </g>
    <g
       id="g34906"
       transform="matrix(0.35277777,0,0,-0.35277777,48.413276,98.589309)">
      <path
         d="m 0,0 0.121,-0.07 -0.009,0.072 0.094,-0.08 -0.019,0.067 0.088,-0.085 -0.012,0.075 0.102,-0.111 0.012,-0.014 -0.019,0.077 0.081,-0.086 0.047,-0.014 -0.048,0.08 0.008,0.012 0.067,-0.04 -0.007,0.096 0.07,-0.071 L 0.65,0 0.638,-0.117 0.73,-0.092 0.654,-0.207 0.844,-0.085 0.922,-0.034 0.944,0.002 0.948,-0.053 1.057,-0.02 1.021,-0.074 1.195,-0.04 1.141,-0.092 1.285,-0.1 1.206,-0.139 1.336,-0.224 1.212,-0.218 1.254,-0.33 1.135,-0.265 1.155,-0.332 1.159,-0.336 1.148,-0.337 1.015,-0.257 1,-0.253 1.043,-0.32 0.871,-0.269 0.92,-0.313 0.893,-0.317 0.814,-0.328 V -0.332 L 0.922,-0.367 1.098,-0.523 1.101,-0.738 H 1.085 L 1.055,-0.6 0.995,-0.694 0.99,-0.588 0.948,-0.646 0.922,-0.551 0.904,-0.532 0.858,-0.622 0.827,-0.523 0.793,-0.581 0.894,-0.762 0.892,-0.92 0.834,-1.015 0.831,-0.919 0.761,-0.98 0.777,-0.935 0.791,-0.89 0.786,-0.88 0.724,-0.948 0.746,-0.802 0.749,-0.78 0.682,-0.843 0.699,-0.699 0.65,-0.759 0.626,-0.615 0.618,-0.646 c 0,-0.114 0.003,-0.228 0.017,-0.34 l 0.05,-0.201 V -1.192 L 0.593,-1.14 0.542,-1.207 0.524,-1.144 0.433,-1.175 c 0.046,0.091 0.075,0.19 0.082,0.292 L 0.513,-0.686 0.498,-0.74 0.488,-0.744 0.461,-0.671 0.446,-0.74 0.409,-0.819 0.387,-0.753 0.356,-0.896 0.354,-0.946 0.297,-0.851 0.261,-0.99 0.225,-0.927 0.186,-1.003 l -0.012,0.004 0.03,0.267 c 0.044,0.116 0.137,0.211 0.248,0.266 L 0.373,-0.49 0.345,-0.525 0.336,-0.458 0.285,-0.545 0.272,-0.546 0.263,-0.478 0.257,-0.47 0.261,-0.477 0.214,-0.583 0.2,-0.584 l -0.018,0.079 -0.023,-0.1 -0.043,0.075 -0.03,-0.13 -0.052,0.098 -0.068,-0.097 -0.018,-0.03 0.006,0.161 0.061,0.097 0.034,0.032 H 0.058 L 0.077,-0.383 0.161,-0.346 0.158,-0.27 0.06,-0.393 H 0.045 l -0.002,0.097 -0.078,-0.1 0.016,0.154 -0.128,-0.169 0.003,0.156 0.025,0.056 -0.078,-0.02 0.001,0.029 0.149,0.08 -0.058,0.057 v 0.013 l 0.134,-0.056 z"
         style="fill:#0e0f0e;fill-opacity:1;fill-rule:nonzero;stroke:none"
         id="path34908"
         inkscape:connector-curvature="0" />
    </g>
    <g
       id="g34910"
       transform="matrix(0.35277777,0,0,-0.35277777,48.425306,98.599469)">
      <path
         d="M 0,0 0.095,-0.079 0.102,0 0.172,-0.077 0.19,-0.085 0.181,-0.019 0.244,-0.101 0.256,-0.094 v 0.061 l 0.09,-0.135 0.008,0.042 v 0.046 l 0.094,-0.154 0.011,-0.042 -0.21,0.111 -0.239,0.032 v -0.015 l 0.253,-0.036 0.208,-0.127 -0.063,0.026 -0.125,0.033 -0.055,-0.026 0.001,0.041 0.015,0.025 -0.104,-0.07 0.005,0.065 -0.029,-0.012 -0.095,-0.104 0.004,0.07 0.006,0.027 -0.073,-0.057 -0.016,-0.014 0.013,0.079 0.025,0.044 -0.147,-0.123 -0.007,-0.002 0.027,0.118 0.024,0.034 -0.09,-0.006 0.117,0.065 0.042,-0.004 -0.047,0.069 0.096,-0.055 0.01,-0.007 z"
         style="fill:#3dab3d;fill-opacity:1;fill-rule:nonzero;stroke:none"
         id="path34912"
         inkscape:connector-curvature="0" />
    </g>
    <g
       id="g34914"
       transform="matrix(0.35277777,0,0,-0.35277777,48.747077,98.61478)">
      <path
         d="m 0,0 0.08,0.039 -0.026,-0.071 0.043,0.025 0.114,0.027 -0.056,-0.075 0.066,0.03 0.07,-0.003 -0.061,-0.054 0.127,-0.05 -0.122,-0.007 0.038,-0.042 0.018,-0.047 -0.145,0.058 0.041,-0.058 -0.175,0.062 0.024,-0.017 0.033,-0.035 -0.131,0.037 -0.049,-0.013 0.057,-0.036 -0.099,-0.02 -0.084,-0.005 -0.062,-0.021 0.042,0.004 0.119,0.001 0.204,-0.094 0.06,-0.068 0.021,-0.198 -0.052,0.156 -0.007,-0.08 -0.02,-0.028 -0.017,0.095 -0.009,0.003 -0.028,-0.048 -0.021,0.053 -0.054,0.058 -0.011,-0.099 -0.021,0.063 -0.023,0.021 -0.021,0.049 -0.018,-0.002 0.022,-0.059 -0.021,-0.035 -0.101,0.091 -0.076,0.001 0.003,-0.008 0.166,-0.122 0.097,-0.175 -0.001,-0.132 -0.032,-0.075 -0.003,0.06 0.005,0.091 -0.005,0.002 -0.005,-0.001 -0.008,-0.052 -0.042,-0.071 0.016,0.078 0.018,0.11 -0.015,0.008 -0.008,-0.06 -0.037,-0.081 -0.015,-0.011 0.01,0.099 0.003,0.091 -0.002,0.049 h -0.011 l -0.001,-0.089 -0.042,-0.057 0.01,0.079 -0.02,0.109 -0.015,0.008 0.01,-0.057 -0.022,-0.049 -0.034,0.116 0.008,0.05 -0.01,-0.001 -0.02,-0.058 -0.014,-0.01 -0.017,0.078 -0.012,-0.026 -0.012,-0.042 -0.041,0.09 -0.027,-0.184 -0.024,0.086 h -0.014 l -0.006,-0.054 -0.03,-0.104 -0.028,0.097 -0.015,0.002 -0.007,-0.108 -0.029,-0.113 -0.036,0.087 0.008,0.095 -0.014,0.001 -0.009,-0.061 -0.006,-0.078 -0.029,-0.082 -0.017,0.032 0.023,0.11 -0.015,0.008 -0.02,-0.108 -0.035,-0.069 0.039,0.25 0.182,0.209 0.074,0.04 -0.081,0.01 -0.043,-0.027 -0.005,0.001 -0.002,0.044 0.019,0.039 -0.018,-0.009 -0.036,-0.053 -0.034,-0.052 -0.007,0.061 0.025,0.044 -0.015,0.002 -0.077,-0.145 -0.012,0.087 0.018,0.027 -0.018,0.002 -0.022,-0.049 -0.027,-0.081 -0.012,0.083 0.02,0.036 -0.018,-0.001 -0.029,-0.066 -0.034,-0.118 -0.028,0.09 0.019,0.07 -0.015,-0.005 -0.018,-0.056 -0.016,-0.025 -0.054,-0.077 -0.007,0.031 0.106,0.193 0.087,0.046 c 0.116,0.041 0.242,0.033 0.36,0.008 l 0.031,-0.02 -0.01,0.024 -0.038,0.126 -0.018,0.048 0.035,-0.011 -0.04,0.086 0.053,-0.05 0.006,0.097 0.051,-0.078 0.049,0.098 -0.005,-0.062 0.005,-0.04 0.062,0.025 -0.071,-0.169 v -0.043 l 0.012,-0.002 0.012,0.083 0.128,0.104 0.111,0.06 0.048,0.029 -0.022,-0.05 0.01,-0.004 z"
         style="fill:#3dab3d;fill-opacity:1;fill-rule:nonzero;stroke:none"
         id="path34916"
         inkscape:connector-curvature="0" />
    </g>
    <g
       id="g34918"
       transform="matrix(0.35277777,0,0,-0.35277777,48.706787,98.654396)">
      <path
         d="M 0,0 C 0.089,0.035 0.187,0.041 0.278,0.015 L 0.275,0.003 0.117,0.015 c -0.121,-0.013 -0.231,-0.08 -0.309,-0.17 h -0.021 z"
         style="fill:#0e0f0e;fill-opacity:1;fill-rule:nonzero;stroke:none"
         id="path34920"
         inkscape:connector-curvature="0" />
    </g>
    <g
       id="g34922"
       transform="matrix(0.35277777,0,0,-0.35277777,48.476316,98.709006)">
      <path
         d="M 0,0 0.068,0.071 0.072,0.012 Z"
         style="fill:#ffffff;fill-opacity:1;fill-rule:nonzero;stroke:none"
         id="path34924"
         inkscape:connector-curvature="0" />
    </g>
    <g
       id="g34926"
       transform="matrix(0.35277777,0,0,-0.35277777,48.507646,98.704209)">
      <path
         d="M 0,0 0.063,0.032 0.18,-0.007 0.167,-0.003 Z"
         style="fill:#ffffff;fill-opacity:1;fill-rule:nonzero;stroke:none"
         id="path34928"
         inkscape:connector-curvature="0" />
    </g>
    <g
       id="g34930"
       transform="matrix(0.35277777,0,0,-0.35277777,48.643746,98.756737)">
      <path
         d="M 0,0 0.129,-0.096 Z"
         style="fill:#ffffff;fill-opacity:1;fill-rule:nonzero;stroke:none"
         id="path34932"
         inkscape:connector-curvature="0" />
    </g>
    <g
       id="g34934"
       transform="matrix(0.35277777,0,0,-0.35277777,48.618236,98.800129)">
      <path
         d="m 0,0 0.001,0.001 -0.007,-0.07 0.028,0.015 0.002,-0.16 0.02,-0.217 0.035,-0.141 -0.042,0.026 -0.026,0.035 -0.042,-0.071 -0.015,0.095 h -0.013 v -0.041 l -0.063,-0.03 c 0.048,0.1 0.071,0.21 0.073,0.321 l -0.01,0.184 0.004,0.051 0.005,-0.022 0.009,0.022 0.006,-0.056 0.024,0.025 z"
         style="fill:#b34927;fill-opacity:1;fill-rule:nonzero;stroke:none"
         id="path34936"
         inkscape:connector-curvature="0" />
    </g>
    <g
       id="g34938"
       transform="matrix(0.35277777,0,0,-0.35277777,47.815526,98.615487)">
      <path
         d="m 0,0 0.104,0.024 0.03,-0.01 -0.016,-0.027 -0.219,-0.115 -0.085,-0.09 -0.077,-0.15 0.102,0.068 0.054,-0.011 0.027,-0.072 -0.001,-0.142 0.003,-0.072 0.049,-0.042 -0.116,0.017 -0.042,0.106 -0.013,0.037 -0.028,-0.008 -0.054,-0.056 c 0.005,-0.125 0.011,-0.25 0.013,-0.375 l -0.025,-0.043 h -0.087 l -0.027,0.034 c 0.005,0.155 0.011,0.309 0.01,0.463 l -0.026,0.073 -0.023,-0.009 -0.031,-0.083 0.005,-0.199 -0.023,-0.047 -0.013,-0.007 -0.053,0.135 -0.032,0.128 0.062,0.143 0.078,0.061 0.071,-0.066 -0.013,0.102 -0.041,0.066 -0.087,0.042 -0.179,0.107 -0.035,0.02 0.166,0.016 0.113,-0.019 0.092,-0.06 0.061,-0.061 0.012,-0.05 0.004,-0.015 -0.001,0.008 0.136,0.123 z"
         style="fill:#0e0f0e;fill-opacity:1;fill-rule:nonzero;stroke:none"
         id="path34940"
         inkscape:connector-curvature="0" />
    </g>
    <g
       id="g34942"
       transform="matrix(0.35277777,0,0,-0.35277777,47.825516,98.617884)">
      <path
         d="m 0,0 0.089,0.019 -0.05,-0.04 -0.198,-0.103 -0.087,-0.112 -0.068,-0.14 -0.007,-0.021 0.032,0.016 0.088,0.068 0.049,0.003 0.031,-0.071 -0.001,-0.123 -0.003,-0.081 0.025,-0.035 -0.069,0.022 -0.032,0.076 -0.012,0.055 -0.042,0.004 -0.083,-0.088 -0.024,-0.009 -0.054,0.126 -0.03,0.066 -0.038,-0.012 -0.036,-0.101 -0.001,-0.203 -0.012,-0.008 -0.01,0.023 -0.063,0.159 0.025,0.123 0.062,0.093 0.037,0.017 0.045,-0.035 0.03,-0.066 0.011,-0.001 v 0.044 L -0.433,-0.17 -0.523,-0.116 -0.72,0 l 0.166,0.009 0.171,-0.093 0.043,-0.055 -0.008,-0.159 0.012,0.001 0.049,0.15 0.126,0.092 z"
         style="fill:#3dab3d;fill-opacity:1;fill-rule:nonzero;stroke:none"
         id="path34944"
         inkscape:connector-curvature="0" />
    </g>
    <g
       id="g34946"
       transform="matrix(0.35277777,0,0,-0.35277777,47.679816,98.805987)">
      <path
         d="m 0,0 0.003,0.032 0.005,-0.02 0.033,-0.048 0.048,0.011 0.005,-0.13 0.006,-0.17 -0.002,-0.069 -0.059,-0.02 -0.049,0.021 0.008,0.158 z"
         style="fill:#b34927;fill-opacity:1;fill-rule:nonzero;stroke:none"
         id="path34948"
         inkscape:connector-curvature="0" />
    </g>
    <g
       id="g34950"
       transform="matrix(0.35277777,0,0,-0.35277777,47.756296,98.608076)">
      <path
         d="M 0,0 0.043,-0.039 0.166,-0.08 0.263,-0.107 0.333,-0.218 0.449,-0.166 0.529,-0.169 0.578,-0.235 0.6,-0.385 0.461,-0.301 0.352,-0.407 0.325,-0.435 0.322,-0.478 0.439,-0.413 0.53,-0.482 0.587,-0.703 0.432,-0.574 0.403,-0.569 0.362,-0.618 0.434,-0.698 0.428,-0.817 0.396,-0.972 0.33,-0.94 0.322,-0.817 0.297,-0.733 0.255,-0.746 0.232,-0.788 C 0.19,-0.883 0.149,-0.979 0.106,-1.073 L 0.081,-1.1 0.017,-1.089 -0.027,-1.044 v 0.014 c 0.062,0.12 0.129,0.238 0.186,0.36 l 0.004,0.118 0.011,0.168 0.044,0.082 -0.031,0.049 -0.073,0.035 z"
         style="fill:#0e0f0e;fill-opacity:1;fill-rule:nonzero;stroke:none"
         id="path34952"
         inkscape:connector-curvature="0" />
    </g>
    <g
       id="g34954"
       transform="matrix(0.35277777,0,0,-0.35277777,47.762156,98.621694)">
      <path
         d="M 0,0 0.187,-0.062 0.299,-0.19 0.214,-0.251 0.181,-0.204 0.098,-0.162 Z"
         style="fill:#3dab3d;fill-opacity:1;fill-rule:nonzero;stroke:none"
         id="path34956"
         inkscape:connector-curvature="0" />
    </g>
    <g
       id="g34958"
       transform="matrix(0.35277777,0,0,-0.35277777,47.875146,98.690417)">
      <path
         d="M 0,0 0.127,0.056 0.19,0.048 0.233,-0.025 0.248,-0.129 0.174,-0.093 0.127,-0.048 0.112,-0.058 -0.054,-0.219 -0.067,-0.272 -0.083,-0.36 -0.102,-0.375 -0.15,-0.416 h -0.009 l 0.001,0.196 0.027,0.109 z"
         style="fill:#3dab3d;fill-opacity:1;fill-rule:nonzero;stroke:none"
         id="path34960"
         inkscape:connector-curvature="0" />
    </g>
    <g
       id="g34962"
       transform="matrix(0.35277777,0,0,-0.35277777,47.898926,98.762066)">
      <path
         d="m 0,0 0.075,-0.005 0.047,-0.065 0.04,-0.162 -0.122,0.102 -0.042,0.013 -0.054,-0.054 -0.022,0.007 -0.057,0.007 0.052,0.09 z"
         style="fill:#3dab3d;fill-opacity:1;fill-rule:nonzero;stroke:none"
         id="path34964"
         inkscape:connector-curvature="0" />
    </g>
    <g
       id="g34966"
       transform="matrix(0.35277777,0,0,-0.35277777,47.864106,98.767744)">
      <path
         d="m 0,0 -0.001,-0.045 -0.023,-0.039 0.005,0.058 z"
         style="fill:#3dab3d;fill-opacity:1;fill-rule:nonzero;stroke:none"
         id="path34968"
         inkscape:connector-curvature="0" />
    </g>
    <g
       id="g34970"
       transform="matrix(0.35277777,0,0,-0.35277777,47.840687,98.827365)">
      <path
         d="m 0,0 0.078,0.009 0.09,-0.067 0.015,-0.099 -0.045,-0.178 -0.033,0.02 -0.011,0.044 0.004,0.072 -0.015,0.084 -0.048,0.02 -0.044,-0.033 -0.021,0.004 -0.041,0.043 z"
         style="fill:#3dab3d;fill-opacity:1;fill-rule:nonzero;stroke:none"
         id="path34972"
         inkscape:connector-curvature="0" />
    </g>
    <g
       id="g34974"
       transform="matrix(0.35277777,0,0,-0.35277777,47.753866,98.968086)">
      <path
         d="M 0,0 C 0.057,0.1 0.109,0.204 0.163,0.306 L 0.232,0.253 0.182,0.138 0.1,-0.045 0.073,-0.067 -0.002,-0.028 Z"
         style="fill:#b34927;fill-opacity:1;fill-rule:nonzero;stroke:none"
         id="path34976"
         inkscape:connector-curvature="0" />
    </g>
    <g
       id="g34978"
       transform="matrix(0.35277777,0,0,-0.35277777,47.608486,98.637886)">
      <path
         d="M 0,0 0.236,0.081 0.241,0.063 0.03,-0.115 -0.012,-0.166 -0.078,-0.343 -0.081,-0.415 c 0.048,-0.141 0.096,-0.281 0.137,-0.425 l 0.01,-0.071 -0.088,-0.058 -0.046,0.036 c -0.031,0.117 -0.064,0.232 -0.099,0.348 l -0.056,-0.013 -0.069,-0.085 -0.065,-0.251 -0.091,0.179 0.05,0.178 0.157,0.089 -0.104,0.033 -0.078,-0.05 -0.027,-0.137 -0.068,0.121 0.012,0.102 0.133,0.093 0.145,-0.073 -0.102,0.215 -0.066,0.001 -0.05,-0.139 -0.064,0.115 0.024,0.118 0.071,0.085 0.085,0.001 0.089,-0.091 0.074,-0.154 0.07,0.189 z"
         style="fill:#0e0f0e;fill-opacity:1;fill-rule:nonzero;stroke:none"
         id="path34980"
         inkscape:connector-curvature="0" />
    </g>
    <g
       id="g34982"
       transform="matrix(0.35277777,0,0,-0.35277777,47.612616,98.641836)">
      <path
         d="M 0,0 0.205,0.068 0.014,-0.088 -0.048,-0.165 -0.104,-0.34 -0.111,-0.441 -0.13,-0.502 l -0.004,-0.004 -0.056,0.022 -0.048,0.014 -0.118,0.04 -0.086,-0.048 -0.027,-0.093 -0.02,0.016 -0.034,0.099 0.052,0.082 0.111,0.044 0.104,-0.063 0.033,-0.035 -0.011,0.088 -0.06,0.135 -0.057,0.058 -0.068,-0.014 -0.045,-0.113 -0.045,0.126 0.073,0.131 0.084,0.012 0.093,-0.094 0.074,-0.248 0.015,-0.005 0.004,0.09 0.066,0.201 z"
         style="fill:#3dab3d;fill-opacity:1;fill-rule:nonzero;stroke:none"
         id="path34984"
         inkscape:connector-curvature="0" />
    </g>
    <g
       id="g34986"
       transform="matrix(0.35277777,0,0,-0.35277777,47.578496,98.797732)">
      <path
         d="M 0,0 0.079,-0.235 0.137,-0.43 0.057,-0.499 0.031,-0.471 c -0.029,0.111 -0.059,0.22 -0.094,0.328 l 0.073,-0.026 0.025,0.013 -0.01,0.049 -0.046,0.035 z"
         style="fill:#b34927;fill-opacity:1;fill-rule:nonzero;stroke:none"
         id="path34988"
         inkscape:connector-curvature="0" />
    </g>
    <g
       id="g34990"
       transform="matrix(0.35277777,0,0,-0.35277777,47.481026,98.834771)">
      <path
         d="M 0,0 0.135,0.055 0.288,-0.011 0.299,-0.044 0.22,-0.025 0.143,-0.02 0.062,-0.11 -0.007,-0.342 -0.07,-0.182 Z"
         style="fill:#3dab3d;fill-opacity:1;fill-rule:nonzero;stroke:none"
         id="path34992"
         inkscape:connector-curvature="0" />
    </g>
    <g
       id="g34994"
       transform="matrix(0.35277777,0,0,-0.35277777,48.623747,98.790146)">
      <path
         d="M 0,0 0.077,-0.025 0.072,-0.111 -0.039,-0.099 Z"
         style="fill:#0e0f0e;fill-opacity:1;fill-rule:nonzero;stroke:none"
         id="path34996"
         inkscape:connector-curvature="0" />
    </g>
    <g
       id="g34998"
       transform="matrix(0.35277777,0,0,-0.35277777,48.625117,98.79498)">
      <path
         d="M 0,0 0.055,-0.012 0.047,-0.096 0.002,-0.101 -0.035,-0.068 Z"
         style="fill:#b34927;fill-opacity:1;fill-rule:nonzero;stroke:none"
         id="path35000"
         inkscape:connector-curvature="0" />
    </g>
    <g
       id="g35002"
       transform="matrix(0.35277777,0,0,-0.35277777,47.862377,99.403198)">
      <path
         d="m 0,0 0.038,0.026 0.015,-0.022 -0.036,-0.083 0.02,-0.012 -0.041,-0.087 0.227,0.082 0.068,0.06 0.037,10e-4 L 0.326,-0.075 0.265,-0.172 0.3,-0.189 0.252,-0.257 0.257,-0.29 0.178,-0.383 0.173,-0.414 0.091,-0.48 0.102,-0.486 0.051,-0.54 0,-0.591 0.063,-0.707 0.15,-0.894 0.271,-0.995 0.328,-1.02 0.342,-1.049 0.308,-1.093 0.227,-1.136 0.194,-1.155 l -0.035,0.009 -0.057,0.009 -0.033,0.064 -0.078,0.115 -0.128,0.066 -0.062,0.005 -0.037,-0.048 -0.015,0.003 -0.017,0.038 -0.043,-0.043 -0.016,0.053 -0.024,-0.03 -0.005,0.021 0.031,0.078 -0.047,0.033 -0.038,-0.044 -0.01,-0.02 -0.023,0.065 -0.035,-0.034 -0.011,-0.011 -0.012,0.06 -0.022,-0.001 -0.018,-0.03 0.01,0.072 0.051,0.035 -0.044,0.214 0.014,0.184 -0.063,0.094 -0.067,0.001 -0.053,-0.073 0.069,-0.077 0.02,-0.055 -0.026,-0.118 0.016,-0.05 -0.105,0.052 -0.095,-0.117 -0.046,-0.032 -0.009,0.077 0.033,0.146 -0.079,-0.001 0.013,0.055 -0.141,-0.003 0.039,0.077 -0.16,0.045 0.11,0.063 -0.099,0.122 -0.004,0.028 0.093,-0.007 0.081,-0.041 0.03,0.096 0.013,-0.028 0.071,-0.047 0.037,-0.052 0.001,0.09 0.052,-0.038 0.063,-0.095 0.035,0.072 0.067,0.002 0.08,0.08 0.152,-0.025 0.049,0.023 -0.039,-0.097 0.05,-0.055 0.04,-0.104 0.095,-0.065 -0.04,0.069 -0.049,0.1 0.051,0.083 0.093,0.036 z"
         style="fill:#0e0f0e;fill-opacity:1;fill-rule:nonzero;stroke:none"
         id="path35004"
         inkscape:connector-curvature="0" />
    </g>
    <g
       id="g35006"
       transform="matrix(0.35277777,0,0,-0.35277777,47.860337,99.410608)">
      <path
         d="m 0,0 0.043,0.033 -0.059,-0.109 -0.061,-0.027 0.011,-0.011 0.057,0.023 0.038,0.017 -0.051,-0.084 -0.08,-0.014 -0.06,-0.091 -0.007,-0.081 v 0.043 l -0.054,0.064 -0.025,0.107 0.075,0.059 z"
         style="fill:#ffffff;fill-opacity:1;fill-rule:nonzero;stroke:none"
         id="path35008"
         inkscape:connector-curvature="0" />
    </g>
    <g
       id="g35010"
       transform="matrix(0.35277777,0,0,-0.35277777,47.655686,99.429558)">
      <path
         d="M 0,0 0.104,0.03 0.236,0.016 0.207,-0.035 0.175,-0.051 0.239,-0.092 0.294,-0.221 0.393,-0.29 0.401,-0.309 0.354,-0.353 0.36,-0.364 l 0.073,0.108 0.016,0.094 0.076,0.04 0.249,0.064 0.108,0.08 L 0.901,0.035 0.885,-0.021 0.828,-0.103 0.717,-0.132 0.711,-0.144 0.815,-0.125 0.872,-0.113 0.828,-0.171 0.757,-0.222 0.702,-0.23 0.701,-0.244 0.803,-0.214 0.831,-0.196 0.819,-0.225 0.752,-0.299 0.738,-0.306 0.657,-0.322 0.655,-0.334 0.753,-0.323 0.664,-0.394 0.62,-0.391 0.623,-0.405 0.672,-0.42 0.603,-0.456 0.602,-0.47 H 0.62 L 0.558,-0.515 0.635,-0.637 0.734,-0.841 0.869,-0.941 0.915,-0.97 0.886,-1.003 0.809,-0.943 0.8,-0.955 0.872,-1.01 V -1.038 L 0.827,-1.053 0.811,-1.02 0.737,-0.943 0.729,-0.955 0.801,-1.033 0.78,-1.066 0.742,-1.027 0.707,-0.969 0.694,-0.975 0.743,-1.056 0.695,-1.049 0.668,-0.988 0.605,-0.889 0.484,-0.814 0.407,-0.794 0.348,-0.831 0.322,-0.804 0.283,-0.825 0.265,-0.798 h -0.02 l 0.029,0.05 0.066,-0.008 0.002,0.008 -0.003,0.006 -0.14,0.07 0.002,-0.024 -0.035,-0.039 -0.01,0.054 -0.053,-0.038 -0.002,0.042 -0.042,0.002 0.055,0.044 0.028,-0.032 0.009,0.005 -0.076,0.246 0.015,0.199 -0.071,0.103 -0.061,0.004 -0.045,-0.012 0.072,0.065 z"
         style="fill:#ffffff;fill-opacity:1;fill-rule:nonzero;stroke:none"
         id="path35012"
         inkscape:connector-curvature="0" />
    </g>
    <g
       id="g35014"
       transform="matrix(0.35277777,0,0,-0.35277777,47.524096,99.421128)">
      <path
         d="m 0,0 0.023,-0.007 0.093,-0.091 0.015,-0.026 0.014,0.098 0.046,-0.045 0.043,-0.085 0.026,0.024 0.028,0.056 0.044,0.004 L 0.271,-0.153 0.289,-0.16 0.247,-0.222 0.337,-0.331 0.318,-0.434 0.32,-0.501 0.241,-0.446 0.234,-0.447 0.121,-0.585 0.106,-0.591 l 0.001,0.084 0.026,0.095 0.013,0.035 -0.007,0.004 -0.08,-0.009 0.016,0.043 0.002,0.018 -0.056,-0.012 -0.086,0.002 0.044,0.068 -10e-4,0.017 -0.052,-0.007 -0.101,0.033 0.004,0.012 0.097,0.039 0.008,0.015 -0.084,0.068 -0.033,0.069 0.165,-0.061 0.011,0.004 z"
         style="fill:#3dab3d;fill-opacity:1;fill-rule:nonzero;stroke:none"
         id="path35016"
         inkscape:connector-curvature="0" />
    </g>
    <g
       id="g35018"
       transform="matrix(0.35277777,0,0,-0.35277777,47.672236,99.437808)">
      <path
         d="M 0,0 0.023,-0.007 -0.004,-0.021 Z"
         style="fill:#0e0f0e;fill-opacity:1;fill-rule:nonzero;stroke:none"
         id="path35020"
         inkscape:connector-curvature="0" />
    </g>
    <g
       id="g35022"
       transform="matrix(0.35277777,0,0,-0.35277777,47.855497,99.482968)">
      <path
         d="M 0,0 0.009,0.011 0.033,-0.023 0.011,-0.085 v -0.096 l -0.047,-0.015 -0.029,-0.039 -0.071,-0.001 0.005,0.013 0.044,-0.006 0.036,0.037 -0.013,0.006 0.033,0.006 0.047,0.052 -0.015,0.032 -0.017,-0.008 -0.004,0.012 0.04,0.058 z"
         style="fill:#0e0f0e;fill-opacity:1;fill-rule:nonzero;stroke:none"
         id="path35024"
         inkscape:connector-curvature="0" />
    </g>
    <g
       id="g35026"
       transform="matrix(0.35277777,0,0,-0.35277777,48.713667,99.398898)">
      <path
         d="M 0,0 0.224,0.014 0.3,-0.015 0.315,-0.101 0.28,-0.149 l -0.048,0.018 -0.135,0.019 -0.188,-0.054 -0.006,-0.027 0.062,-0.006 0.019,-0.071 0.045,-0.001 0.033,-0.06 0.051,-0.068 0.033,-0.038 -0.023,-0.098 -0.166,-0.181 -0.024,-0.058 -0.108,-0.094 -0.127,-0.071 -0.014,-0.043 -0.095,-0.081 -0.097,-0.043 -0.051,0.034 h -0.046 l -0.011,0.025 -0.067,-0.019 -0.028,-0.053 0.007,-0.064 0.013,-0.059 0.016,-0.039 -0.073,-0.091 -0.049,0.046 -0.05,-0.06 -0.061,0.045 -0.14,-0.049 h -0.009 l -0.003,0.003 0.054,0.134 0.045,0.062 0.126,0.071 0.074,0.123 -0.03,0.073 -0.028,0.016 -0.006,0.07 0.049,0.184 0.065,0.084 0.043,0.171 0.079,0.123 0.075,0.026 0.055,0.115 0.055,0.072 0.08,0.062 0.06,-0.062 0.053,0.018 0.042,-0.028 z"
         style="fill:#0e0f0e;fill-opacity:1;fill-rule:nonzero;stroke:none"
         id="path35028"
         inkscape:connector-curvature="0" />
    </g>
    <g
       id="g35030"
       transform="matrix(0.35277777,0,0,-0.35277777,48.655816,99.430258)">
      <path
         d="M 0,0 C 0.093,0.072 0.216,0.09 0.331,0.089 L 0.421,0.085 0.4,0.035 v -0.064 l -0.069,0.017 -0.263,-0.049 -0.069,0.029 z"
         style="fill:#b34927;fill-opacity:1;fill-rule:nonzero;stroke:none"
         id="path35032"
         inkscape:connector-curvature="0" />
    </g>
    <g
       id="g35034"
       transform="matrix(0.35277777,0,0,-0.35277777,48.586567,99.411638)">
      <path
         d="m 0,0 0.051,0.019 0.017,-0.074 -0.067,-0.078 -0.063,-0.117 -0.049,-0.006 -0.028,0.036 0.06,0.121 z"
         style="fill:#efc024;fill-opacity:1;fill-rule:nonzero;stroke:none"
         id="path35036"
         inkscape:connector-curvature="0" />
    </g>
    <g
       id="g35038"
       transform="matrix(0.35277777,0,0,-0.35277777,48.808066,99.405108)">
      <path
         d="m 0,0 0.02,-0.005 0.012,-0.078 -0.029,-0.031 -0.02,0.022 z"
         style="fill:#b34927;fill-opacity:1;fill-rule:nonzero;stroke:none"
         id="path35040"
         inkscape:connector-curvature="0" />
    </g>
    <g
       id="g35042"
       transform="matrix(0.35277777,0,0,-0.35277777,48.624806,99.424898)">
      <path
         d="m 0,0 0.05,0.009 0.014,-0.069 -0.102,-0.12 -0.065,-0.093 -0.023,0.004 -0.03,0.05 0.062,0.114 z"
         style="fill:#efc024;fill-opacity:1;fill-rule:nonzero;stroke:none"
         id="path35044"
         inkscape:connector-curvature="0" />
    </g>
    <g
       id="g35046"
       transform="matrix(0.35277777,0,0,-0.35277777,48.632036,99.470198)">
      <path
         d="M 0,0 0.073,0.067 0.124,0.025 0.068,-0.066 -0.039,-0.189 -0.091,-0.204 -0.109,-0.153 Z"
         style="fill:#efc024;fill-opacity:1;fill-rule:nonzero;stroke:none"
         id="path35048"
         inkscape:connector-curvature="0" />
    </g>
    <g
       id="g35050"
       transform="matrix(0.35277777,0,0,-0.35277777,48.674046,99.478658)">
      <path
         d="m 0,0 0.044,0.024 0.039,-0.05 -0.026,-0.07 -0.135,-0.143 -0.038,-0.011 0.002,0.048 -0.03,0.029 0.093,0.106 z"
         style="fill:#efc024;fill-opacity:1;fill-rule:nonzero;stroke:none"
         id="path35052"
         inkscape:connector-curvature="0" />
    </g>
    <g
       id="g35054"
       transform="matrix(0.35277777,0,0,-0.35277777,48.518686,99.493968)">
      <path
         d="m 0,0 0.067,-0.034 -0.091,-0.127 -0.063,-0.188 h -0.017 l -0.039,0.05 0.075,0.227 z"
         style="fill:#efc024;fill-opacity:1;fill-rule:nonzero;stroke:none"
         id="path35056"
         inkscape:connector-curvature="0" />
    </g>
    <g
       id="g35058"
       transform="matrix(0.35277777,0,0,-0.35277777,48.700936,99.512248)">
      <path
         d="M 0,0 0.028,0.038 0.08,0.014 0.071,-0.045 l -0.08,-0.103 -0.087,-0.075 -0.005,0.036 -0.041,0.033 z"
         style="fill:#efc024;fill-opacity:1;fill-rule:nonzero;stroke:none"
         id="path35060"
         inkscape:connector-curvature="0" />
    </g>
    <g
       id="g35062"
       transform="matrix(0.35277777,0,0,-0.35277777,48.552796,99.506038)">
      <path
         d="m 0,0 0.062,-0.043 -0.08,-0.102 -0.09,-0.183 -0.013,-0.037 -0.017,-0.006 -0.031,0.053 0.088,0.234 z"
         style="fill:#efc024;fill-opacity:1;fill-rule:nonzero;stroke:none"
         id="path35064"
         inkscape:connector-curvature="0" />
    </g>
    <g
       id="g35066"
       transform="matrix(0.35277777,0,0,-0.35277777,48.734696,99.521208)">
      <path
         d="m 0,0 0.036,-0.042 -0.039,-0.089 -0.126,-0.12 -0.065,0.032 0.091,0.075 z"
         style="fill:#efc024;fill-opacity:1;fill-rule:nonzero;stroke:none"
         id="path35068"
         inkscape:connector-curvature="0" />
    </g>
    <g
       id="g35070"
       transform="matrix(0.35277777,0,0,-0.35277777,48.578626,99.525508)">
      <path
         d="m 0,0 0.045,-0.039 -0.036,-0.08 -0.131,-0.22 -0.054,0.031 0.068,0.147 0.063,0.12 z"
         style="fill:#efc024;fill-opacity:1;fill-rule:nonzero;stroke:none"
         id="path35072"
         inkscape:connector-curvature="0" />
    </g>
    <g
       id="g35074"
       transform="matrix(0.35277777,0,0,-0.35277777,48.606887,99.544098)">
      <path
         d="m 0,0 0.062,-0.024 -0.036,-0.101 -0.141,-0.206 -0.034,0.015 -0.05,-0.02 0.007,0.035 0.098,0.161 0.062,0.108 z"
         style="fill:#efc024;fill-opacity:1;fill-rule:nonzero;stroke:none"
         id="path35076"
         inkscape:connector-curvature="0" />
    </g>
    <g
       id="g35078"
       transform="matrix(0.35277777,0,0,-0.35277777,48.752267,99.545298)">
      <path
         d="m 0,0 0.022,-0.044 -0.042,-0.102 -0.135,-0.138 -0.035,0.032 0.015,0.053 0.086,0.07 z"
         style="fill:#efc024;fill-opacity:1;fill-rule:nonzero;stroke:none"
         id="path35080"
         inkscape:connector-curvature="0" />
    </g>
    <g
       id="g35082"
       transform="matrix(0.35277777,0,0,-0.35277777,48.638916,99.570988)">
      <path
         d="m 0,0 0.062,-0.029 -0.01,-0.056 -0.078,-0.102 -0.113,-0.127 -0.035,-0.03 -0.026,0.008 0.004,0.07 0.092,0.13 0.072,0.114 z"
         style="fill:#efc024;fill-opacity:1;fill-rule:nonzero;stroke:none"
         id="path35084"
         inkscape:connector-curvature="0" />
    </g>
    <g
       id="g35086"
       transform="matrix(0.35277777,0,0,-0.35277777,48.665797,99.604388)">
      <path
         d="m 0,0 0.055,-0.028 -0.023,-0.064 -0.088,-0.094 -0.163,-0.107 -0.019,0.031 0.194,0.217 z"
         style="fill:#efc024;fill-opacity:1;fill-rule:nonzero;stroke:none"
         id="path35088"
         inkscape:connector-curvature="0" />
    </g>
    <g
       id="g35090"
       transform="matrix(0.35277777,0,0,-0.35277777,48.452547,99.614198)">
      <path
         d="M 0,0 0.039,0.023 0.068,-0.014 0.01,-0.113 -0.047,-0.297 -0.072,-0.26 -0.04,-0.109 Z"
         style="fill:#efc024;fill-opacity:1;fill-rule:nonzero;stroke:none"
         id="path35092"
         inkscape:connector-curvature="0" />
    </g>
    <g
       id="g35094"
       transform="matrix(0.35277777,0,0,-0.35277777,48.480097,99.623868)">
      <path
         d="m 0,0 0.035,-0.001 0.016,-0.05 -0.073,-0.125 -0.055,-0.157 -0.033,0.001 0.005,0.085 0.049,0.155 z"
         style="fill:#efc024;fill-opacity:1;fill-rule:nonzero;stroke:none"
         id="path35096"
         inkscape:connector-curvature="0" />
    </g>
    <g
       id="g35098"
       transform="matrix(0.35277777,0,0,-0.35277777,48.511456,99.639878)">
      <path
         d="m 0,0 0.058,-0.041 -0.034,-0.093 -0.095,-0.161 -0.052,-0.047 -0.028,0.036 0.047,0.152 0.061,0.117 z"
         style="fill:#efc024;fill-opacity:1;fill-rule:nonzero;stroke:none"
         id="path35100"
         inkscape:connector-curvature="0" />
    </g>
    <g
       id="g35102"
       transform="matrix(0.35277777,0,0,-0.35277777,48.681636,99.639178)">
      <path
         d="m 0,0 0.032,-0.038 -0.035,-0.061 -0.089,-0.075 -0.124,-0.071 -0.05,0.024 0.001,0.01 0.141,0.082 z"
         style="fill:#efc024;fill-opacity:1;fill-rule:nonzero;stroke:none"
         id="path35104"
         inkscape:connector-curvature="0" />
    </g>
    <g
       id="g35106"
       transform="matrix(0.35277777,0,0,-0.35277777,48.549347,99.661578)">
      <path
         d="m 0,0 0.046,-0.027 -0.009,-0.055 -0.083,-0.106 -0.1,-0.093 -0.057,-0.026 -0.019,0.013 0.074,0.076 0.086,0.151 z"
         style="fill:#efc024;fill-opacity:1;fill-rule:nonzero;stroke:none"
         id="path35108"
         inkscape:connector-curvature="0" />
    </g>
    <g
       id="g35110"
       transform="matrix(0.35277777,0,0,-0.35277777,48.503866,99.763208)">
      <path
         d="M 0,0 0.176,0.193 0.221,0.164 0.212,0.117 0.119,0.035 0.024,-0.027 h -0.028 z"
         style="fill:#efc024;fill-opacity:1;fill-rule:nonzero;stroke:none"
         id="path35112"
         inkscape:connector-curvature="0" />
    </g>
    <g
       id="g35114"
       transform="matrix(0.35277777,0,0,-0.35277777,48.585186,99.723948)">
      <path
         d="m 0,0 0.047,-0.025 -0.05,-0.066 -0.115,-0.073 -0.056,0.008 0.003,0.018 0.081,0.059 0.073,0.064 z"
         style="fill:#efc024;fill-opacity:1;fill-rule:nonzero;stroke:none"
         id="path35116"
         inkscape:connector-curvature="0" />
    </g>
    <g
       id="g35118"
       transform="matrix(0.35277777,0,0,-0.35277777,48.428417,99.789208)">
      <path
         d="M 0,0 0.069,0.112 0.079,0.076 0.108,0.063 0.109,0.044 0.084,-0.046 0.101,-0.138 0.118,-0.166 0.053,-0.24 0.02,-0.199 0.032,-0.13 H 0.02 l -0.016,-0.075 -0.038,-0.033 -0.015,-0.02 -0.04,0.034 0.007,0.054 -0.016,0.006 -0.002,-0.041 -0.025,-0.028 -0.099,-0.035 0.033,0.076 0.029,0.083 0.1,0.046 z"
         style="fill:#b34927;fill-opacity:1;fill-rule:nonzero;stroke:none"
         id="path35120"
         inkscape:connector-curvature="0" />
    </g>
  </g>
</svg>
