<?xml version="1.0" encoding="UTF-8" standalone="no"?>
<!-- Created with Inkscape (http://www.inkscape.org/) -->

<svg
   xmlns:dc="http://purl.org/dc/elements/1.1/"
   xmlns:cc="http://creativecommons.org/ns#"
   xmlns:rdf="http://www.w3.org/1999/02/22-rdf-syntax-ns#"
   xmlns:svg="http://www.w3.org/2000/svg"
   xmlns="http://www.w3.org/2000/svg"
   xmlns:sodipodi="http://sodipodi.sourceforge.net/DTD/sodipodi-0.dtd"
   xmlns:inkscape="http://www.inkscape.org/namespaces/inkscape"
   width="7.084836mm"
   height="4.7328668mm"
   viewBox="0 0 7.084836 4.7328668"
   version="1.1"
   id="svg8"
   inkscape:version="0.92.4 (5da689c313, 2019-01-14)"
   sodipodi:docname="kenya.svg">
  <defs
     id="defs2">
    <radialGradient
       id="radialGradient37584"
       spreadMethod="pad"
       gradientTransform="matrix(0.975099,0,0,0.975099,159.64062,365.06934)"
       gradientUnits="userSpaceOnUse"
       r="1"
       cy="0"
       cx="0"
       fy="0"
       fx="0">
      <stop
         id="stop37578"
         offset="0"
         style="stop-opacity:1;stop-color:#852c26" />
      <stop
         id="stop37580"
         offset="0.0015476"
         style="stop-opacity:1;stop-color:#852c26" />
      <stop
         id="stop37582"
         offset="1"
         style="stop-opacity:1;stop-color:#451617" />
    </radialGradient>
    <clipPath
       id="clipPath37532"
       clipPathUnits="userSpaceOnUse">
      <path
         inkscape:connector-curvature="0"
         id="path37530"
         d="M 0,400 H 400 V 0 H 0 Z" />
    </clipPath>
    <radialGradient
       id="radialGradient37522"
       spreadMethod="pad"
       gradientTransform="matrix(-0.2637247,0,0,0.2637247,159.68652,365.88965)"
       gradientUnits="userSpaceOnUse"
       r="1"
       cy="0"
       cx="0"
       fy="0"
       fx="0">
      <stop
         id="stop37516"
         offset="0"
         style="stop-opacity:1;stop-color:#852c26" />
      <stop
         id="stop37518"
         offset="0.0015476"
         style="stop-opacity:1;stop-color:#852c26" />
      <stop
         id="stop37520"
         offset="1"
         style="stop-opacity:1;stop-color:#451617" />
    </radialGradient>
    <clipPath
       id="clipPath37354"
       clipPathUnits="userSpaceOnUse">
      <path
         inkscape:connector-curvature="0"
         id="path37352"
         d="M 0,400 H 400 V 0 H 0 Z" />
    </clipPath>
    <radialGradient
       id="radialGradient37344"
       spreadMethod="pad"
       gradientTransform="matrix(0.975099,0,0,0.975099,155.76025,365.06934)"
       gradientUnits="userSpaceOnUse"
       r="1"
       cy="0"
       cx="0"
       fy="0"
       fx="0">
      <stop
         id="stop37338"
         offset="0"
         style="stop-opacity:1;stop-color:#eee54f" />
      <stop
         id="stop37340"
         offset="0.9977451"
         style="stop-opacity:1;stop-color:#e04a20" />
      <stop
         id="stop37342"
         offset="1"
         style="stop-opacity:1;stop-color:#e04a20" />
    </radialGradient>
    <clipPath
       id="clipPath37272"
       clipPathUnits="userSpaceOnUse">
      <path
         inkscape:connector-curvature="0"
         id="path37270"
         d="M 0,400 H 400 V 0 H 0 Z" />
    </clipPath>
    <radialGradient
       id="radialGradient37262"
       spreadMethod="pad"
       gradientTransform="matrix(0.2636045,0,0,0.2636045,155.71484,365.89062)"
       gradientUnits="userSpaceOnUse"
       r="1"
       cy="0"
       cx="0"
       fy="0"
       fx="0">
      <stop
         id="stop37256"
         offset="0"
         style="stop-opacity:1;stop-color:#eee54f" />
      <stop
         id="stop37258"
         offset="0.9977451"
         style="stop-opacity:1;stop-color:#e04a20" />
      <stop
         id="stop37260"
         offset="1"
         style="stop-opacity:1;stop-color:#e04a20" />
    </radialGradient>
  </defs>
  <sodipodi:namedview
     id="base"
     pagecolor="#ffffff"
     bordercolor="#666666"
     borderopacity="1.0"
     inkscape:pageopacity="0.0"
     inkscape:pageshadow="2"
     inkscape:zoom="11.2"
     inkscape:cx="19.734773"
     inkscape:cy="11.12704"
     inkscape:document-units="mm"
     inkscape:current-layer="layer1"
     showgrid="false"
     inkscape:window-width="954"
     inkscape:window-height="630"
     inkscape:window-x="-3"
     inkscape:window-y="6"
     inkscape:window-maximized="0" />
  <metadata
     id="metadata5">
    <rdf:RDF>
      <cc:Work
         rdf:about="">
        <dc:format>image/svg+xml</dc:format>
        <dc:type
           rdf:resource="http://purl.org/dc/dcmitype/StillImage" />
        <dc:title></dc:title>
      </cc:Work>
    </rdf:RDF>
  </metadata>
  <g
     inkscape:label="Layer 1"
     inkscape:groupmode="layer"
     id="layer1"
     transform="translate(-58.571014,-96.227804)">
    <g
       id="g36232"
       transform="matrix(0.35277777,0,0,-0.35277777,58.600295,100.93139)">
      <path
         d="M 0,0 H 19.917 L 19.916,13.25 H 0 Z M 19.959,-0.042 V 0 Z M -0.083,-0.083 V 13.333 H 20 V -0.042 -0.083 Z"
         style="fill:#221f21;fill-opacity:1;fill-rule:nonzero;stroke:none"
         id="path36234"
         inkscape:connector-curvature="0" />
    </g>
    <path
       d="m 58.586007,100.94607 h 7.055561 v -1.56775 h -7.055561 z"
       style="fill:#2d6335;fill-opacity:1;fill-rule:nonzero;stroke:none;stroke-width:0.35277778"
       id="path36236"
       inkscape:connector-curvature="0" />
    <path
       d="m 58.586007,99.37832 h 7.055561 v -1.568097 h -7.055561 z"
       style="fill:#ab242a;fill-opacity:1;fill-rule:nonzero;stroke:none;stroke-width:0.35277778"
       id="path36238"
       inkscape:connector-curvature="0" />
    <path
       d="m 65.641568,96.242479 h -7.055561 v 1.567744 h 7.055561 z"
       style="fill:#0e0f0e;fill-opacity:1;fill-rule:nonzero;stroke:none;stroke-width:0.35277778"
       id="path36240"
       inkscape:connector-curvature="0" />
    <path
       d="m 65.641568,97.928051 h -7.055561 v -0.235303 h 7.055561 z"
       style="fill:#ffffff;fill-opacity:1;fill-rule:nonzero;stroke:none;stroke-width:0.35277778"
       id="path36242"
       inkscape:connector-curvature="0" />
    <path
       d="m 65.641568,99.495795 h -7.055561 v -0.235302 h 7.055561 z"
       style="fill:#ffffff;fill-opacity:1;fill-rule:nonzero;stroke:none;stroke-width:0.35277778"
       id="path36244"
       inkscape:connector-curvature="0" />
    <g
       id="g36246"
       transform="matrix(0.35277777,0,0,-0.35277777,62.765435,97.694548)">
      <path
         d="m 0,0 c 0.254,0.064 0.393,0.296 0.533,0.527 0.093,0.154 0.626,1.571 0.626,1.571 0,0 -1.016,-1.15 -1.109,-1.304 C -0.09,0.562 -0.229,0.332 -0.161,0.088 l -1.687,-2.794 -1.687,2.794 c 0.068,0.244 -0.071,0.474 -0.211,0.706 -0.093,0.154 -1.109,1.304 -1.109,1.304 0,0 0.533,-1.416 0.626,-1.571 C -4.089,0.296 -3.95,0.064 -3.696,0 l 1.74,-2.884 -2.55,-4.226 0.161,-0.089 2.497,4.137 2.497,-4.137 0.162,0.089 -2.552,4.225 z"
         style="fill:#ffffff;fill-opacity:1;fill-rule:nonzero;stroke:none"
         id="path36248"
         inkscape:connector-curvature="0" />
    </g>
    <g
       id="g36250"
       transform="matrix(0.35277777,0,0,-0.35277777,62.765435,97.694548)">
      <path
         d="M 0,0 0.002,-0.009 C 0.261,0.057 0.4,0.292 0.541,0.522 0.635,0.679 1.168,2.094 1.168,2.094 l -0.016,0.01 c 0,0 -1.015,-1.149 -1.11,-1.305 -0.114,-0.19 -0.23,-0.38 -0.23,-0.58 l 0.018,-0.133 0.009,0.002 -0.008,0.005 -1.679,-2.781 -1.679,2.781 -0.008,-0.005 0.009,-0.002 0.018,0.133 c -10e-4,0.2 -0.116,0.39 -0.23,0.58 -0.095,0.156 -1.111,1.305 -1.111,1.305 L -4.864,2.095 c 0,0 0.532,-1.415 0.628,-1.573 0.139,-0.23 0.279,-0.465 0.538,-0.531 L -3.696,0 l -0.008,-0.005 1.737,-2.879 -2.552,-4.23 0.169,-0.093 0.008,-0.004 2.494,4.131 2.494,-4.131 0.168,0.093 0.009,0.004 -2.553,4.229 1.738,2.88 L 0,0 0.002,-0.009 0,0 l -0.008,0.005 -1.744,-2.89 2.55,-4.222 -0.146,-0.08 -2.5,4.143 -2.5,-4.143 -0.145,0.08 2.548,4.223 -1.745,2.892 -0.004,10e-4 C -3.943,0.072 -4.081,0.3 -4.221,0.532 -4.313,0.684 -4.846,2.1 -4.847,2.102 L -4.855,2.098 -4.862,2.092 C -4.861,2.091 -3.845,0.94 -3.754,0.789 -3.64,0.6 -3.526,0.412 -3.526,0.219 L -3.544,0.091 -3.545,0.087 -1.848,-2.724 -0.151,0.087 -0.152,0.091 -0.17,0.219 c 0,0.193 0.113,0.381 0.228,0.57 0.09,0.151 1.107,1.302 1.108,1.303 L 1.159,2.098 1.15,2.102 C 1.15,2.1 0.617,0.683 0.525,0.532 0.385,0.3 0.247,0.072 -0.002,0.009 L -0.006,0.008 -0.008,0.005 Z"
         style="fill:#0e0f0e;fill-opacity:1;fill-rule:nonzero;stroke:none"
         id="path36252"
         inkscape:connector-curvature="0" />
    </g>
    <g
       id="g36254"
       transform="matrix(0.35277777,0,0,-0.35277777,62.736826,97.841127)">
      <path
         d="m 0,0 c -0.278,0.712 -1.209,2.136 -1.767,2.136 -0.558,0 -1.488,-1.424 -1.767,-2.136 0.279,-0.711 0.465,-1.423 0.465,-2.135 0,-0.711 -0.186,-1.424 -0.465,-2.135 0.279,-0.712 1.209,-2.136 1.767,-2.136 0.558,0 1.489,1.424 1.767,2.136 -0.278,0.711 -0.465,1.424 -0.465,2.135 0,0.712 0.187,1.424 0.465,2.135"
         style="fill:#ab242a;fill-opacity:1;fill-rule:nonzero;stroke:none"
         id="path36256"
         inkscape:connector-curvature="0" />
    </g>
    <g
       id="g36258"
       transform="matrix(0.35277777,0,0,-0.35277777,62.736826,97.841127)">
      <path
         d="M 0,0 C -0.568,-1.45 -0.568,-2.82 0,-4.27 0.569,-2.822 0.569,-1.448 0,0"
         style="fill:#0e0f0e;fill-opacity:1;fill-rule:nonzero;stroke:none"
         id="path36260"
         inkscape:connector-curvature="0" />
    </g>
    <g
       id="g36262"
       transform="matrix(0.35277777,0,0,-0.35277777,61.490075,97.841127)">
      <path
         d="M 0,0 C -0.569,-1.448 -0.569,-2.822 0,-4.27 0.568,-2.82 0.568,-1.45 0,0"
         style="fill:#0e0f0e;fill-opacity:1;fill-rule:nonzero;stroke:none"
         id="path36264"
         inkscape:connector-curvature="0" />
    </g>
    <g
       id="g36266"
       transform="matrix(0.35277777,0,0,-0.35277777,62.113605,98.40596)">
      <path
         d="M 0,0 C 0.502,0 0.502,-1.067 0,-1.067 -0.502,-1.067 -0.502,0 0,0"
         style="fill:#ffffff;fill-opacity:1;fill-rule:nonzero;stroke:none"
         id="path36268"
         inkscape:connector-curvature="0" />
    </g>
    <g
       id="g36270"
       transform="matrix(0.35277777,0,0,-0.35277777,62.146345,98.777858)">
      <path
         d="M 0,0 C 0.53,-1.097 0.53,-2.639 0,-3.737 V 0"
         style="fill:#ffffff;fill-opacity:1;fill-rule:nonzero;stroke:none"
         id="path36272"
         inkscape:connector-curvature="0" />
    </g>
    <g
       id="g36274"
       transform="matrix(0.35277777,0,0,-0.35277777,62.080553,98.410756)">
      <path
         d="M 0,0 C -0.529,1.098 -0.53,2.64 0,3.737 V 0"
         style="fill:#ffffff;fill-opacity:1;fill-rule:nonzero;stroke:none"
         id="path36276"
         inkscape:connector-curvature="0" />
    </g>
    <g
       id="g36278"
       transform="matrix(0.35277777,0,0,-0.35277777,62.080553,98.777858)">
      <path
         d="M 0,0 C -0.529,-1.097 -0.53,-2.639 0,-3.737 V 0"
         style="fill:#ffffff;fill-opacity:1;fill-rule:nonzero;stroke:none"
         id="path36280"
         inkscape:connector-curvature="0" />
    </g>
    <g
       id="g36282"
       transform="matrix(0.35277777,0,0,-0.35277777,62.146345,98.410756)">
      <path
         d="M 0,0 C 0.53,1.098 0.53,2.64 0,3.737 V 0"
         style="fill:#ffffff;fill-opacity:1;fill-rule:nonzero;stroke:none"
         id="path36284"
         inkscape:connector-curvature="0" />
    </g>
  </g>
</svg>
