<?xml version="1.0" encoding="UTF-8" standalone="no"?>
<!-- Created with Inkscape (http://www.inkscape.org/) -->

<svg
   xmlns:dc="http://purl.org/dc/elements/1.1/"
   xmlns:cc="http://creativecommons.org/ns#"
   xmlns:rdf="http://www.w3.org/1999/02/22-rdf-syntax-ns#"
   xmlns:svg="http://www.w3.org/2000/svg"
   xmlns="http://www.w3.org/2000/svg"
   xmlns:sodipodi="http://sodipodi.sourceforge.net/DTD/sodipodi-0.dtd"
   xmlns:inkscape="http://www.inkscape.org/namespaces/inkscape"
   width="7.084836mm"
   height="4.7328668mm"
   viewBox="0 0 7.084836 4.7328668"
   version="1.1"
   id="svg8"
   inkscape:version="0.92.4 (5da689c313, 2019-01-14)"
   sodipodi:docname="lesotho.svg">
  <defs
     id="defs2">
    <radialGradient
       id="radialGradient37584"
       spreadMethod="pad"
       gradientTransform="matrix(0.975099,0,0,0.975099,159.64062,365.06934)"
       gradientUnits="userSpaceOnUse"
       r="1"
       cy="0"
       cx="0"
       fy="0"
       fx="0">
      <stop
         id="stop37578"
         offset="0"
         style="stop-opacity:1;stop-color:#852c26" />
      <stop
         id="stop37580"
         offset="0.0015476"
         style="stop-opacity:1;stop-color:#852c26" />
      <stop
         id="stop37582"
         offset="1"
         style="stop-opacity:1;stop-color:#451617" />
    </radialGradient>
    <clipPath
       id="clipPath37532"
       clipPathUnits="userSpaceOnUse">
      <path
         inkscape:connector-curvature="0"
         id="path37530"
         d="M 0,400 H 400 V 0 H 0 Z" />
    </clipPath>
    <radialGradient
       id="radialGradient37522"
       spreadMethod="pad"
       gradientTransform="matrix(-0.2637247,0,0,0.2637247,159.68652,365.88965)"
       gradientUnits="userSpaceOnUse"
       r="1"
       cy="0"
       cx="0"
       fy="0"
       fx="0">
      <stop
         id="stop37516"
         offset="0"
         style="stop-opacity:1;stop-color:#852c26" />
      <stop
         id="stop37518"
         offset="0.0015476"
         style="stop-opacity:1;stop-color:#852c26" />
      <stop
         id="stop37520"
         offset="1"
         style="stop-opacity:1;stop-color:#451617" />
    </radialGradient>
    <clipPath
       id="clipPath37354"
       clipPathUnits="userSpaceOnUse">
      <path
         inkscape:connector-curvature="0"
         id="path37352"
         d="M 0,400 H 400 V 0 H 0 Z" />
    </clipPath>
    <radialGradient
       id="radialGradient37344"
       spreadMethod="pad"
       gradientTransform="matrix(0.975099,0,0,0.975099,155.76025,365.06934)"
       gradientUnits="userSpaceOnUse"
       r="1"
       cy="0"
       cx="0"
       fy="0"
       fx="0">
      <stop
         id="stop37338"
         offset="0"
         style="stop-opacity:1;stop-color:#eee54f" />
      <stop
         id="stop37340"
         offset="0.9977451"
         style="stop-opacity:1;stop-color:#e04a20" />
      <stop
         id="stop37342"
         offset="1"
         style="stop-opacity:1;stop-color:#e04a20" />
    </radialGradient>
    <clipPath
       id="clipPath37272"
       clipPathUnits="userSpaceOnUse">
      <path
         inkscape:connector-curvature="0"
         id="path37270"
         d="M 0,400 H 400 V 0 H 0 Z" />
    </clipPath>
    <radialGradient
       id="radialGradient37262"
       spreadMethod="pad"
       gradientTransform="matrix(0.2636045,0,0,0.2636045,155.71484,365.89062)"
       gradientUnits="userSpaceOnUse"
       r="1"
       cy="0"
       cx="0"
       fy="0"
       fx="0">
      <stop
         id="stop37256"
         offset="0"
         style="stop-opacity:1;stop-color:#eee54f" />
      <stop
         id="stop37258"
         offset="0.9977451"
         style="stop-opacity:1;stop-color:#e04a20" />
      <stop
         id="stop37260"
         offset="1"
         style="stop-opacity:1;stop-color:#e04a20" />
    </radialGradient>
  </defs>
  <sodipodi:namedview
     id="base"
     pagecolor="#ffffff"
     bordercolor="#666666"
     borderopacity="1.0"
     inkscape:pageopacity="0.0"
     inkscape:pageshadow="2"
     inkscape:zoom="11.2"
     inkscape:cx="22.473289"
     inkscape:cy="6.5029185"
     inkscape:document-units="mm"
     inkscape:current-layer="layer1"
     showgrid="false"
     inkscape:window-width="954"
     inkscape:window-height="630"
     inkscape:window-x="-3"
     inkscape:window-y="6"
     inkscape:window-maximized="0" />
  <metadata
     id="metadata5">
    <rdf:RDF>
      <cc:Work
         rdf:about="">
        <dc:format>image/svg+xml</dc:format>
        <dc:type
           rdf:resource="http://purl.org/dc/dcmitype/StillImage" />
        <dc:title></dc:title>
      </cc:Work>
    </rdf:RDF>
  </metadata>
  <g
     inkscape:label="Layer 1"
     inkscape:groupmode="layer"
     id="layer1"
     transform="translate(-57.514607,-94.811266)">
    <g
       id="g10464"
       transform="matrix(0.35277777,0,0,-0.35277777,57.543888,99.514852)">
      <path
         d="M 0,0 H 19.917 V 13.25 H 0 Z M 19.958,-0.042 V 0 Z M -0.083,-0.083 V 13.333 H 20 V -0.042 -0.083 Z"
         style="fill:#221f21;fill-opacity:1;fill-rule:nonzero;stroke:none"
         id="path10466"
         inkscape:connector-curvature="0" />
    </g>
    <path
       d="m 57.52928,99.529671 h 7.05556 v -1.567744 h -7.05556 z"
       style="fill:#399545;fill-opacity:1;fill-rule:nonzero;stroke:none;stroke-width:0.35277778"
       id="path10468"
       inkscape:connector-curvature="0" />
    <path
       d="m 57.52928,97.961927 h 7.05556 v -1.567745 h -7.05556 z"
       style="fill:#ffffff;fill-opacity:1;fill-rule:nonzero;stroke:none;stroke-width:0.35277778"
       id="path10470"
       inkscape:connector-curvature="0" />
    <path
       d="m 64.58484,94.826085 h -7.05556 v 1.567744 h 7.05556 z"
       style="fill:#2c398d;fill-opacity:1;fill-rule:nonzero;stroke:none;stroke-width:0.35277778"
       id="path10472"
       inkscape:connector-curvature="0" />
    <g
       id="g10474"
       transform="matrix(0.35277777,0,0,-0.35277777,61.530877,97.69205)">
      <path
         d="M 0,0 0.096,0.142 0.179,-0.02 0.015,-0.077 Z M -0.217,0.222 0.007,0.312 0.054,0.244 -0.079,0.046 Z m -0.186,-0.449 -0.05,0.09 0.195,0.144 0.124,-0.166 c -0.09,-0.024 -0.178,-0.048 -0.269,-0.068 m -0.225,0.315 0.257,0.079 0.069,-0.072 -0.202,-0.16 z m -0.258,-0.4 -0.06,0.098 0.241,0.118 0.147,-0.171 c -0.109,-0.011 -0.218,-0.042 -0.328,-0.045 m -0.213,0.351 c 0.094,0.009 0.186,0.025 0.281,0.03 l 0.062,-0.089 -0.243,-0.117 z m -0.331,-0.393 -0.068,0.115 c 0.102,0.035 0.201,0.074 0.301,0.11 l 0.143,-0.212 C -1.178,-0.345 -1.305,-0.344 -1.43,-0.354 m -0.241,0.4 c 0.129,-0.004 0.258,-0.01 0.388,-0.017 l 0.033,-0.083 c -0.102,-0.034 -0.202,-0.075 -0.304,-0.109 z m -0.281,-0.341 -0.032,0.091 0.222,0.075 0.137,-0.215 c -0.11,0.017 -0.218,0.031 -0.327,0.049 m -0.17,0.41 0.24,-0.053 0.068,-0.102 -0.21,-0.08 z m -0.278,-0.319 -0.032,0.105 0.199,0.065 0.11,-0.236 c -0.092,0.022 -0.184,0.046 -0.277,0.066 M -2.566,0.244 -2.333,0.173 -2.271,0.048 -2.479,-0.01 Z m -0.248,-0.297 0.174,0.058 0.034,-0.138 z m 0.08,0.302 0.056,-0.172 -0.164,-0.036 z m 0.784,2.25 c -0.016,0.188 0.014,0.386 0.114,0.549 0.074,0.122 0.203,0.207 0.342,0.233 0,-0.208 0.006,-0.416 10e-4,-0.624 L -1.738,2.398 -1.534,2.397 C -1.535,2.286 -1.532,2.177 -1.537,2.065 L -1.547,1.964 -1.726,1.723 C -1.834,1.97 -1.92,2.23 -1.95,2.499 m 0.722,0.225 0.005,0.211 c 0.002,0.116 0,0.231 0.001,0.348 0.15,-0.022 0.291,-0.113 0.357,-0.25 C -0.771,2.851 -0.741,2.64 -0.771,2.438 -0.803,2.197 -0.884,1.967 -0.977,1.744 l -0.179,0.232 c -0.001,0.145 0,0.289 -0.001,0.432 L -0.952,2.41 -1.21,2.652 Z M 0.141,0.527 -0.009,0.463 c -0.304,0.401 -0.607,0.806 -0.914,1.205 0.111,0.255 0.206,0.52 0.239,0.796 0.02,0.223 -0.015,0.46 -0.134,0.652 C -0.904,3.257 -1.06,3.341 -1.22,3.364 V 3.413 L -1.355,3.486 -1.494,3.413 V 3.364 C -1.633,3.338 -1.768,3.27 -1.859,3.158 -1.985,3.002 -2.033,2.797 -2.037,2.6 -2.027,2.272 -1.917,1.958 -1.789,1.661 L -1.802,1.621 C -2.09,1.234 -2.378,0.845 -2.665,0.458 l -0.171,0.057 c -0.102,-0.214 -0.202,-0.427 -0.302,-0.641 0.464,-0.263 0.993,-0.403 1.523,-0.439 0.489,-0.025 0.983,0.028 1.449,0.178 0.214,0.07 0.426,0.158 0.617,0.283 -0.104,0.211 -0.206,0.422 -0.31,0.631"
         style="fill:#0e0f0e;fill-opacity:1;fill-rule:nonzero;stroke:none"
         id="path10476"
         inkscape:connector-curvature="0" />
    </g>
  </g>
</svg>
