<?xml version="1.0" encoding="UTF-8" standalone="no"?>
<!-- Created with Inkscape (http://www.inkscape.org/) -->

<svg
   xmlns:dc="http://purl.org/dc/elements/1.1/"
   xmlns:cc="http://creativecommons.org/ns#"
   xmlns:rdf="http://www.w3.org/1999/02/22-rdf-syntax-ns#"
   xmlns:svg="http://www.w3.org/2000/svg"
   xmlns="http://www.w3.org/2000/svg"
   xmlns:sodipodi="http://sodipodi.sourceforge.net/DTD/sodipodi-0.dtd"
   xmlns:inkscape="http://www.inkscape.org/namespaces/inkscape"
   width="7.084836mm"
   height="4.7328668mm"
   viewBox="0 0 7.084836 4.7328668"
   version="1.1"
   id="svg8"
   inkscape:version="0.92.4 (5da689c313, 2019-01-14)"
   sodipodi:docname="malawi.svg">
  <defs
     id="defs2">
    <radialGradient
       id="radialGradient37584"
       spreadMethod="pad"
       gradientTransform="matrix(0.975099,0,0,0.975099,159.64062,365.06934)"
       gradientUnits="userSpaceOnUse"
       r="1"
       cy="0"
       cx="0"
       fy="0"
       fx="0">
      <stop
         id="stop37578"
         offset="0"
         style="stop-opacity:1;stop-color:#852c26" />
      <stop
         id="stop37580"
         offset="0.0015476"
         style="stop-opacity:1;stop-color:#852c26" />
      <stop
         id="stop37582"
         offset="1"
         style="stop-opacity:1;stop-color:#451617" />
    </radialGradient>
    <clipPath
       id="clipPath37532"
       clipPathUnits="userSpaceOnUse">
      <path
         inkscape:connector-curvature="0"
         id="path37530"
         d="M 0,400 H 400 V 0 H 0 Z" />
    </clipPath>
    <radialGradient
       id="radialGradient37522"
       spreadMethod="pad"
       gradientTransform="matrix(-0.2637247,0,0,0.2637247,159.68652,365.88965)"
       gradientUnits="userSpaceOnUse"
       r="1"
       cy="0"
       cx="0"
       fy="0"
       fx="0">
      <stop
         id="stop37516"
         offset="0"
         style="stop-opacity:1;stop-color:#852c26" />
      <stop
         id="stop37518"
         offset="0.0015476"
         style="stop-opacity:1;stop-color:#852c26" />
      <stop
         id="stop37520"
         offset="1"
         style="stop-opacity:1;stop-color:#451617" />
    </radialGradient>
    <clipPath
       id="clipPath37354"
       clipPathUnits="userSpaceOnUse">
      <path
         inkscape:connector-curvature="0"
         id="path37352"
         d="M 0,400 H 400 V 0 H 0 Z" />
    </clipPath>
    <radialGradient
       id="radialGradient37344"
       spreadMethod="pad"
       gradientTransform="matrix(0.975099,0,0,0.975099,155.76025,365.06934)"
       gradientUnits="userSpaceOnUse"
       r="1"
       cy="0"
       cx="0"
       fy="0"
       fx="0">
      <stop
         id="stop37338"
         offset="0"
         style="stop-opacity:1;stop-color:#eee54f" />
      <stop
         id="stop37340"
         offset="0.9977451"
         style="stop-opacity:1;stop-color:#e04a20" />
      <stop
         id="stop37342"
         offset="1"
         style="stop-opacity:1;stop-color:#e04a20" />
    </radialGradient>
    <clipPath
       id="clipPath37272"
       clipPathUnits="userSpaceOnUse">
      <path
         inkscape:connector-curvature="0"
         id="path37270"
         d="M 0,400 H 400 V 0 H 0 Z" />
    </clipPath>
    <radialGradient
       id="radialGradient37262"
       spreadMethod="pad"
       gradientTransform="matrix(0.2636045,0,0,0.2636045,155.71484,365.89062)"
       gradientUnits="userSpaceOnUse"
       r="1"
       cy="0"
       cx="0"
       fy="0"
       fx="0">
      <stop
         id="stop37256"
         offset="0"
         style="stop-opacity:1;stop-color:#eee54f" />
      <stop
         id="stop37258"
         offset="0.9977451"
         style="stop-opacity:1;stop-color:#e04a20" />
      <stop
         id="stop37260"
         offset="1"
         style="stop-opacity:1;stop-color:#e04a20" />
    </radialGradient>
  </defs>
  <sodipodi:namedview
     id="base"
     pagecolor="#ffffff"
     bordercolor="#666666"
     borderopacity="1.0"
     inkscape:pageopacity="0.0"
     inkscape:pageshadow="2"
     inkscape:zoom="11.2"
     inkscape:cx="39.579099"
     inkscape:cy="13.246226"
     inkscape:document-units="mm"
     inkscape:current-layer="layer1"
     showgrid="false"
     inkscape:window-width="954"
     inkscape:window-height="630"
     inkscape:window-x="-3"
     inkscape:window-y="6"
     inkscape:window-maximized="0" />
  <metadata
     id="metadata5">
    <rdf:RDF>
      <cc:Work
         rdf:about="">
        <dc:format>image/svg+xml</dc:format>
        <dc:type
           rdf:resource="http://purl.org/dc/dcmitype/StillImage" />
        <dc:title></dc:title>
      </cc:Work>
    </rdf:RDF>
  </metadata>
  <g
     inkscape:label="Layer 1"
     inkscape:groupmode="layer"
     id="layer1"
     transform="translate(-52.988692,-96.595434)">
    <g
       id="g10236"
       transform="matrix(0.35277777,0,0,-0.35277777,53.017973,101.29902)">
      <path
         d="M 0,0 H 19.917 V 13.251 H 0 Z M 19.958,-0.042 V 0 Z M -0.083,-0.083 V 13.333 H 20 V -0.042 -0.083 Z"
         style="fill:#221f21;fill-opacity:1;fill-rule:nonzero;stroke:none"
         id="path10238"
         inkscape:connector-curvature="0" />
    </g>
    <path
       d="m 53.003265,101.31345 h 7.05556 v -1.56739 h -7.05556 z"
       style="fill:#439e3b;fill-opacity:1;fill-rule:nonzero;stroke:none;stroke-width:0.35277778"
       id="path10240"
       inkscape:connector-curvature="0" />
    <path
       d="m 53.003265,99.74606 h 7.05556 v -1.568097 h -7.05556 z"
       style="fill:#c12131;fill-opacity:1;fill-rule:nonzero;stroke:none;stroke-width:0.35277778"
       id="path10242"
       inkscape:connector-curvature="0" />
    <path
       d="m 60.058825,96.610218 h -7.05556 v 1.567392 h 7.05556 z"
       style="fill:#0e0f0e;fill-opacity:1;fill-rule:nonzero;stroke:none;stroke-width:0.35277778"
       id="path10244"
       inkscape:connector-curvature="0" />
    <g
       id="g10246"
       transform="matrix(0.35277777,0,0,-0.35277777,56.576944,96.851411)">
      <path
         d="m 0,0 c 0,0.141 -0.037,0.28 -0.13,0.28 -0.094,0 -0.13,-0.139 -0.13,-0.28 0,-0.34 0.13,-1.088 0.13,-1.088 0,0 0.13,0.748 0.13,1.088"
         style="fill:#c12131;fill-opacity:1;fill-rule:nonzero;stroke:none"
         id="path10248"
         inkscape:connector-curvature="0" />
    </g>
    <g
       id="g10250"
       transform="matrix(0.35277777,0,0,-0.35277777,56.433963,97.239327)">
      <path
         d="M 0,0 C 0,0 0.064,0.756 0.035,1.095 0.023,1.234 -0.026,1.37 -0.119,1.362 -0.212,1.354 -0.236,1.212 -0.224,1.071 -0.194,0.733 0,0 0,0"
         style="fill:#c12131;fill-opacity:1;fill-rule:nonzero;stroke:none"
         id="path10252"
         inkscape:connector-curvature="0" />
    </g>
    <g
       id="g10254"
       transform="matrix(0.35277777,0,0,-0.35277777,56.337864,97.251744)">
      <path
         d="M 0,0 C 0,0 -0.002,0.758 -0.061,1.092 -0.085,1.23 -0.146,1.362 -0.237,1.346 -0.33,1.329 -0.341,1.187 -0.316,1.047 -0.257,0.713 0,0 0,0"
         style="fill:#c12131;fill-opacity:1;fill-rule:nonzero;stroke:none"
         id="path10256"
         inkscape:connector-curvature="0" />
    </g>
    <g
       id="g10258"
       transform="matrix(0.35277777,0,0,-0.35277777,56.243103,97.273088)">
      <path
         d="M 0,0 C 0,0 -0.068,0.756 -0.156,1.084 -0.192,1.22 -0.264,1.346 -0.354,1.321 -0.444,1.297 -0.443,1.152 -0.407,1.018 -0.319,0.688 0,0 0,0"
         style="fill:#c12131;fill-opacity:1;fill-rule:nonzero;stroke:none"
         id="path10260"
         inkscape:connector-curvature="0" />
    </g>
    <g
       id="g10262"
       transform="matrix(0.35277777,0,0,-0.35277777,56.150613,97.302366)">
      <path
         d="M 0,0 C 0,0 -0.134,0.748 -0.25,1.067 -0.298,1.198 -0.38,1.317 -0.467,1.286 -0.556,1.253 -0.542,1.11 -0.494,0.978 -0.378,0.658 0,0 0,0"
         style="fill:#c12131;fill-opacity:1;fill-rule:nonzero;stroke:none"
         id="path10264"
         inkscape:connector-curvature="0" />
    </g>
    <g
       id="g10266"
       transform="matrix(0.35277777,0,0,-0.35277777,56.061043,97.339231)">
      <path
         d="M 0,0 C 0,0 -0.199,0.732 -0.342,1.04 -0.402,1.168 -0.494,1.278 -0.578,1.238 -0.663,1.199 -0.637,1.059 -0.578,0.93 -0.434,0.622 0,0 0,0"
         style="fill:#c12131;fill-opacity:1;fill-rule:nonzero;stroke:none"
         id="path10268"
         inkscape:connector-curvature="0" />
    </g>
    <g
       id="g10270"
       transform="matrix(0.35277777,0,0,-0.35277777,55.974924,97.384035)">
      <path
         d="M 0,0 C 0,0 -0.262,0.713 -0.432,1.006 -0.501,1.128 -0.603,1.23 -0.684,1.184 -0.765,1.137 -0.727,0.998 -0.656,0.876 -0.486,0.582 0,0 0,0"
         style="fill:#c12131;fill-opacity:1;fill-rule:nonzero;stroke:none"
         id="path10272"
         inkscape:connector-curvature="0" />
    </g>
    <g
       id="g10274"
       transform="matrix(0.35277777,0,0,-0.35277777,55.893083,97.436386)">
      <path
         d="M 0,0 C 0,0 -0.323,0.687 -0.518,0.966 -0.598,1.08 -0.708,1.174 -0.785,1.121 -0.861,1.066 -0.811,0.932 -0.73,0.816 -0.535,0.538 0,0 0,0"
         style="fill:#c12131;fill-opacity:1;fill-rule:nonzero;stroke:none"
         id="path10276"
         inkscape:connector-curvature="0" />
    </g>
    <g
       id="g10278"
       transform="matrix(0.35277777,0,0,-0.35277777,55.816283,97.495301)">
      <path
         d="M 0,0 C 0,0 -0.383,0.657 -0.6,0.916 -0.691,1.024 -0.808,1.107 -0.879,1.048 -0.951,0.986 -0.89,0.857 -0.799,0.749 -0.581,0.488 0,0 0,0"
         style="fill:#c12131;fill-opacity:1;fill-rule:nonzero;stroke:none"
         id="path10280"
         inkscape:connector-curvature="0" />
    </g>
    <g
       id="g10282"
       transform="matrix(0.35277777,0,0,-0.35277777,55.744594,97.561094)">
      <path
         d="m 0,0 c 0,0 -0.437,0.622 -0.678,0.861 -0.099,0.1 -0.223,0.172 -0.29,0.106 C -1.034,0.9 -0.96,0.777 -0.861,0.678 -0.621,0.437 0,0 0,0"
         style="fill:#c12131;fill-opacity:1;fill-rule:nonzero;stroke:none"
         id="path10284"
         inkscape:connector-curvature="0" />
    </g>
    <g
       id="g10286"
       transform="matrix(0.35277777,0,0,-0.35277777,55.355664,97.421217)">
      <path
         d="m 0,0 c 0.26,-0.219 0.916,-0.599 0.916,-0.599 0,0 -0.49,0.58 -0.749,0.798 C 0.059,0.289 -0.071,0.352 -0.131,0.281 -0.191,0.208 -0.108,0.092 0,0"
         style="fill:#c12131;fill-opacity:1;fill-rule:nonzero;stroke:none"
         id="path10288"
         inkscape:connector-curvature="0" />
    </g>
    <g
       id="g10290"
       transform="matrix(0.35277777,0,0,-0.35277777,55.279173,97.527334)">
      <path
         d="m 0,0 c 0.279,-0.194 0.966,-0.517 0.966,-0.517 0,0 -0.539,0.537 -0.817,0.731 C 0.034,0.294 -0.102,0.345 -0.154,0.268 -0.208,0.191 -0.114,0.082 0,0"
         style="fill:#c12131;fill-opacity:1;fill-rule:nonzero;stroke:none"
         id="path10292"
         inkscape:connector-curvature="0" />
    </g>
    <g
       id="g10294"
       transform="matrix(0.35277777,0,0,-0.35277777,55.212503,97.639657)">
      <path
         d="m 0,0 c 0.294,-0.168 1.007,-0.43 1.007,-0.43 0,0 -0.584,0.487 -0.877,0.657 C 0.008,0.296 -0.131,0.334 -0.177,0.254 -0.224,0.172 -0.122,0.071 0,0"
         style="fill:#c12131;fill-opacity:1;fill-rule:nonzero;stroke:none"
         id="path10296"
         inkscape:connector-curvature="0" />
    </g>
    <g
       id="g10298"
       transform="matrix(0.35277777,0,0,-0.35277777,55.155843,97.757132)">
      <path
         d="m 0,0 c 0.308,-0.143 1.041,-0.341 1.041,-0.341 0,0 -0.624,0.434 -0.932,0.577 C -0.018,0.295 -0.16,0.321 -0.199,0.237 -0.238,0.151 -0.127,0.061 0,0"
         style="fill:#c12131;fill-opacity:1;fill-rule:nonzero;stroke:none"
         id="path10300"
         inkscape:connector-curvature="0" />
    </g>
    <g
       id="g10302"
       transform="matrix(0.35277777,0,0,-0.35277777,55.109493,97.878735)">
      <path
         d="m 0,0 c 0.32,-0.117 1.067,-0.25 1.067,-0.25 0,0 -0.66,0.377 -0.978,0.494 C -0.043,0.291 -0.187,0.305 -0.218,0.217 -0.25,0.129 -0.132,0.047 0,0"
         style="fill:#c12131;fill-opacity:1;fill-rule:nonzero;stroke:none"
         id="path10304"
         inkscape:connector-curvature="0" />
    </g>
    <g
       id="g10306"
       transform="matrix(0.35277777,0,0,-0.35277777,54.990814,97.934898)">
      <path
         d="M 0,0 C -0.024,-0.091 0.101,-0.161 0.236,-0.198 0.358,-0.23 0.539,-0.261 0.718,-0.284 h 0.45 C 0.947,-0.186 0.536,-0.009 0.303,0.054 0.168,0.089 0.023,0.091 0,0"
         style="fill:#c12131;fill-opacity:1;fill-rule:nonzero;stroke:none"
         id="path10308"
         inkscape:connector-curvature="0" />
    </g>
    <g
       id="g10310"
       transform="matrix(0.35277777,0,0,-0.35277777,56.707182,96.861396)">
      <path
         d="m 0,0 c 0.012,0.141 -0.013,0.282 -0.105,0.291 -0.094,0.008 -0.142,-0.128 -0.154,-0.268 -0.03,-0.338 0.034,-1.094 0.034,-1.094 0,0 0.195,0.733 0.225,1.071"
         style="fill:#c12131;fill-opacity:1;fill-rule:nonzero;stroke:none"
         id="path10312"
         inkscape:connector-curvature="0" />
    </g>
    <g
       id="g10314"
       transform="matrix(0.35277777,0,0,-0.35277777,56.807944,96.77701)">
      <path
         d="m 0,0 c -0.092,0.017 -0.152,-0.115 -0.176,-0.254 -0.059,-0.334 -0.062,-1.092 -0.062,-1.092 0,0 0.259,0.713 0.318,1.047 C 0.104,-0.159 0.092,-0.016 0,0"
         style="fill:#c12131;fill-opacity:1;fill-rule:nonzero;stroke:none"
         id="path10316"
         inkscape:connector-curvature="0" />
    </g>
    <g
       id="g10318"
       transform="matrix(0.35277777,0,0,-0.35277777,56.962452,96.914101)">
      <path
         d="M 0,0 C 0.036,0.135 0.037,0.279 -0.053,0.304 -0.144,0.328 -0.214,0.202 -0.25,0.066 c -0.089,-0.328 -0.157,-1.084 -0.157,-1.084 0,0 0.319,0.689 0.407,1.018"
         style="fill:#c12131;fill-opacity:1;fill-rule:nonzero;stroke:none"
         id="path10320"
         inkscape:connector-curvature="0" />
    </g>
    <g
       id="g10322"
       transform="matrix(0.35277777,0,0,-0.35277777,57.085783,96.957527)">
      <path
         d="M 0,0 C 0.048,0.133 0.062,0.276 -0.026,0.309 -0.115,0.34 -0.196,0.221 -0.244,0.09 -0.36,-0.229 -0.495,-0.978 -0.495,-0.978 c 0,0 0.379,0.659 0.495,0.978"
         style="fill:#c12131;fill-opacity:1;fill-rule:nonzero;stroke:none"
         id="path10324"
         inkscape:connector-curvature="0" />
    </g>
    <g
       id="g10326"
       transform="matrix(0.35277777,0,0,-0.35277777,57.204993,97.011256)">
      <path
         d="M 0,0 C 0.059,0.129 0.085,0.27 0,0.309 -0.085,0.35 -0.176,0.238 -0.236,0.11 c -0.143,-0.307 -0.342,-1.04 -0.342,-1.04 0,0 0.434,0.622 0.578,0.93"
         style="fill:#c12131;fill-opacity:1;fill-rule:nonzero;stroke:none"
         id="path10328"
         inkscape:connector-curvature="0" />
    </g>
    <g
       id="g10330"
       transform="matrix(0.35277777,0,0,-0.35277777,57.318833,97.075002)">
      <path
         d="M 0,0 C 0.07,0.122 0.108,0.262 0.027,0.308 -0.054,0.354 -0.155,0.252 -0.226,0.13 c -0.169,-0.293 -0.431,-1.006 -0.431,-1.006 0,0 0.488,0.582 0.657,0.876"
         style="fill:#c12131;fill-opacity:1;fill-rule:nonzero;stroke:none"
         id="path10332"
         inkscape:connector-curvature="0" />
    </g>
    <g
       id="g10334"
       transform="matrix(0.35277777,0,0,-0.35277777,57.426674,97.148379)">
      <path
         d="m 0,0 c 0.081,0.115 0.13,0.251 0.054,0.305 -0.077,0.052 -0.186,-0.041 -0.267,-0.156 -0.194,-0.278 -0.518,-0.965 -0.518,-0.965 0,0 0.536,0.538 0.731,0.816"
         style="fill:#c12131;fill-opacity:1;fill-rule:nonzero;stroke:none"
         id="path10336"
         inkscape:connector-curvature="0" />
    </g>
    <g
       id="g10338"
       transform="matrix(0.35277777,0,0,-0.35277777,57.245983,97.495301)">
      <path
         d="M 0,0 C 0,0 0.581,0.488 0.799,0.749 0.889,0.857 0.95,0.988 0.879,1.048 0.807,1.108 0.69,1.024 0.6,0.916 0.382,0.657 0,0 0,0"
         style="fill:#c12131;fill-opacity:1;fill-rule:nonzero;stroke:none"
         id="path10340"
         inkscape:connector-curvature="0" />
    </g>
    <g
       id="g10342"
       transform="matrix(0.35277777,0,0,-0.35277777,57.317634,97.561094)">
      <path
         d="M 0,0 C 0,0 0.62,0.437 0.861,0.678 0.961,0.777 1.033,0.902 0.967,0.967 0.9,1.033 0.777,0.961 0.677,0.861 0.437,0.622 0,0 0,0"
         style="fill:#c12131;fill-opacity:1;fill-rule:nonzero;stroke:none"
         id="path10344"
         inkscape:connector-curvature="0" />
    </g>
    <g
       id="g10346"
       transform="matrix(0.35277777,0,0,-0.35277777,57.383113,97.632426)">
      <path
         d="M 0,0 C 0,0 0.656,0.38 0.917,0.599 1.024,0.69 1.107,0.808 1.047,0.88 0.987,0.95 0.858,0.888 0.75,0.798 0.491,0.581 0,0 0,0"
         style="fill:#c12131;fill-opacity:1;fill-rule:nonzero;stroke:none"
         id="path10348"
         inkscape:connector-curvature="0" />
    </g>
    <g
       id="g10350"
       transform="matrix(0.35277777,0,0,-0.35277777,57.442343,97.709579)">
      <path
         d="M 0,0 C 0,0 0.687,0.322 0.965,0.517 1.081,0.599 1.174,0.709 1.12,0.784 1.066,0.862 0.932,0.811 0.816,0.73 0.539,0.536 0,0 0,0"
         style="fill:#c12131;fill-opacity:1;fill-rule:nonzero;stroke:none"
         id="path10352"
         inkscape:connector-curvature="0" />
    </g>
    <g
       id="g10354"
       transform="matrix(0.35277777,0,0,-0.35277777,57.494373,97.791248)">
      <path
         d="M 0,0 C 0,0 0.712,0.262 1.007,0.43 1.129,0.501 1.231,0.603 1.184,0.684 1.137,0.765 0.999,0.726 0.877,0.656 0.583,0.486 0,0 0,0"
         style="fill:#c12131;fill-opacity:1;fill-rule:nonzero;stroke:none"
         id="path10356"
         inkscape:connector-curvature="0" />
    </g>
    <g
       id="g10358"
       transform="matrix(0.35277777,0,0,-0.35277777,57.539144,97.877359)">
      <path
         d="M 0,0 C 0,0 0.732,0.198 1.041,0.341 1.168,0.401 1.279,0.494 1.239,0.578 1.2,0.663 1.059,0.636 0.931,0.577 0.625,0.434 0,0 0,0"
         style="fill:#c12131;fill-opacity:1;fill-rule:nonzero;stroke:none"
         id="path10360"
         inkscape:connector-curvature="0" />
    </g>
    <g
       id="g10362"
       transform="matrix(0.35277777,0,0,-0.35277777,57.576003,97.966931)">
      <path
         d="M 0,0 C 0,0 0.748,0.133 1.067,0.25 1.2,0.297 1.317,0.38 1.286,0.467 1.253,0.556 1.11,0.541 0.979,0.494 0.661,0.377 0,0 0,0"
         style="fill:#c12131;fill-opacity:1;fill-rule:nonzero;stroke:none"
         id="path10364"
         inkscape:connector-curvature="0" />
    </g>
    <g
       id="g10366"
       transform="matrix(0.35277777,0,0,-0.35277777,57.988054,98.004817)">
      <path
         d="M 0,0 C 0.136,0.037 0.261,0.109 0.237,0.198 0.212,0.29 0.068,0.287 -0.067,0.252 -0.3,0.189 -0.711,0.012 -0.933,-0.086 h 0.451 C -0.303,-0.062 -0.122,-0.032 0,0"
         style="fill:#c12131;fill-opacity:1;fill-rule:nonzero;stroke:none"
         id="path10368"
         inkscape:connector-curvature="0" />
    </g>
    <g
       id="g10370"
       transform="matrix(0.35277777,0,0,-0.35277777,56.531113,97.37645)">
      <path
         d="M 0,0 C -1.211,0 -2.236,-0.782 -2.604,-1.867 H 2.604 C 2.236,-0.782 1.21,0 0,0"
         style="fill:#c12131;fill-opacity:1;fill-rule:nonzero;stroke:none"
         id="path10372"
         inkscape:connector-curvature="0" />
    </g>
  </g>
</svg>
