<?xml version="1.0" encoding="UTF-8" standalone="no"?>
<!-- Created with Inkscape (http://www.inkscape.org/) -->

<svg
   xmlns:dc="http://purl.org/dc/elements/1.1/"
   xmlns:cc="http://creativecommons.org/ns#"
   xmlns:rdf="http://www.w3.org/1999/02/22-rdf-syntax-ns#"
   xmlns:svg="http://www.w3.org/2000/svg"
   xmlns="http://www.w3.org/2000/svg"
   xmlns:sodipodi="http://sodipodi.sourceforge.net/DTD/sodipodi-0.dtd"
   xmlns:inkscape="http://www.inkscape.org/namespaces/inkscape"
   width="7.0848398mm"
   height="4.7329102mm"
   viewBox="0 0 7.0848398 4.7329102"
   version="1.1"
   id="svg8"
   inkscape:version="0.92.4 (5da689c313, 2019-01-14)"
   sodipodi:docname="mongolia.svg">
  <defs
     id="defs2">
    <radialGradient
       id="radialGradient37584"
       spreadMethod="pad"
       gradientTransform="matrix(0.975099,0,0,0.975099,159.64062,365.06934)"
       gradientUnits="userSpaceOnUse"
       r="1"
       cy="0"
       cx="0"
       fy="0"
       fx="0">
      <stop
         id="stop37578"
         offset="0"
         style="stop-opacity:1;stop-color:#852c26" />
      <stop
         id="stop37580"
         offset="0.0015476"
         style="stop-opacity:1;stop-color:#852c26" />
      <stop
         id="stop37582"
         offset="1"
         style="stop-opacity:1;stop-color:#451617" />
    </radialGradient>
    <clipPath
       id="clipPath37532"
       clipPathUnits="userSpaceOnUse">
      <path
         inkscape:connector-curvature="0"
         id="path37530"
         d="M 0,400 H 400 V 0 H 0 Z" />
    </clipPath>
    <radialGradient
       id="radialGradient37522"
       spreadMethod="pad"
       gradientTransform="matrix(-0.2637247,0,0,0.2637247,159.68652,365.88965)"
       gradientUnits="userSpaceOnUse"
       r="1"
       cy="0"
       cx="0"
       fy="0"
       fx="0">
      <stop
         id="stop37516"
         offset="0"
         style="stop-opacity:1;stop-color:#852c26" />
      <stop
         id="stop37518"
         offset="0.0015476"
         style="stop-opacity:1;stop-color:#852c26" />
      <stop
         id="stop37520"
         offset="1"
         style="stop-opacity:1;stop-color:#451617" />
    </radialGradient>
    <clipPath
       id="clipPath37354"
       clipPathUnits="userSpaceOnUse">
      <path
         inkscape:connector-curvature="0"
         id="path37352"
         d="M 0,400 H 400 V 0 H 0 Z" />
    </clipPath>
    <radialGradient
       id="radialGradient37344"
       spreadMethod="pad"
       gradientTransform="matrix(0.975099,0,0,0.975099,155.76025,365.06934)"
       gradientUnits="userSpaceOnUse"
       r="1"
       cy="0"
       cx="0"
       fy="0"
       fx="0">
      <stop
         id="stop37338"
         offset="0"
         style="stop-opacity:1;stop-color:#eee54f" />
      <stop
         id="stop37340"
         offset="0.9977451"
         style="stop-opacity:1;stop-color:#e04a20" />
      <stop
         id="stop37342"
         offset="1"
         style="stop-opacity:1;stop-color:#e04a20" />
    </radialGradient>
    <clipPath
       id="clipPath37272"
       clipPathUnits="userSpaceOnUse">
      <path
         inkscape:connector-curvature="0"
         id="path37270"
         d="M 0,400 H 400 V 0 H 0 Z" />
    </clipPath>
    <radialGradient
       id="radialGradient37262"
       spreadMethod="pad"
       gradientTransform="matrix(0.2636045,0,0,0.2636045,155.71484,365.89062)"
       gradientUnits="userSpaceOnUse"
       r="1"
       cy="0"
       cx="0"
       fy="0"
       fx="0">
      <stop
         id="stop37256"
         offset="0"
         style="stop-opacity:1;stop-color:#eee54f" />
      <stop
         id="stop37258"
         offset="0.9977451"
         style="stop-opacity:1;stop-color:#e04a20" />
      <stop
         id="stop37260"
         offset="1"
         style="stop-opacity:1;stop-color:#e04a20" />
    </radialGradient>
    <radialGradient
       id="radialGradient5422"
       spreadMethod="pad"
       gradientTransform="matrix(0.1021146,-0.0756367,0.070541,0.1077099,271.97559,176.14746)"
       gradientUnits="userSpaceOnUse"
       r="1"
       cy="0"
       cx="0"
       fy="0"
       fx="0">
      <stop
         id="stop5416"
         offset="0"
         style="stop-opacity:1;stop-color:#ffffff" />
      <stop
         id="stop5418"
         offset="0.00091915"
         style="stop-opacity:1;stop-color:#ffffff" />
      <stop
         id="stop5420"
         offset="1"
         style="stop-opacity:1;stop-color:#e63e6e" />
    </radialGradient>
    <clipPath
       id="clipPath5374"
       clipPathUnits="userSpaceOnUse">
      <path
         inkscape:connector-curvature="0"
         id="path5372"
         d="M 0,400 H 400 V 0 H 0 Z" />
    </clipPath>
    <radialGradient
       id="radialGradient5364"
       spreadMethod="pad"
       gradientTransform="matrix(0.1318831,-9.013e-4,-1.001e-4,0.1311822,269.56445,176.4248)"
       gradientUnits="userSpaceOnUse"
       r="1"
       cy="0"
       cx="0"
       fy="0"
       fx="0">
      <stop
         id="stop5358"
         offset="0"
         style="stop-opacity:1;stop-color:#ffffff" />
      <stop
         id="stop5360"
         offset="0.00091915"
         style="stop-opacity:1;stop-color:#ffffff" />
      <stop
         id="stop5362"
         offset="1"
         style="stop-opacity:1;stop-color:#e63e6e" />
    </radialGradient>
    <clipPath
       id="clipPath5316"
       clipPathUnits="userSpaceOnUse">
      <path
         inkscape:connector-curvature="0"
         id="path5314"
         d="M 0,400 H 400 V 0 H 0 Z" />
    </clipPath>
    <radialGradient
       id="radialGradient5306"
       spreadMethod="pad"
       gradientTransform="matrix(0.1105445,0.0935377,-0.0930375,0.1086438,268.6875,176.89062)"
       gradientUnits="userSpaceOnUse"
       r="1"
       cy="0"
       cx="0"
       fy="0"
       fx="0">
      <stop
         id="stop5300"
         offset="0"
         style="stop-opacity:1;stop-color:#ffffff" />
      <stop
         id="stop5302"
         offset="0.00091915"
         style="stop-opacity:1;stop-color:#ffffff" />
      <stop
         id="stop5304"
         offset="1"
         style="stop-opacity:1;stop-color:#e63e6e" />
    </radialGradient>
  </defs>
  <sodipodi:namedview
     id="base"
     pagecolor="#ffffff"
     bordercolor="#666666"
     borderopacity="1.0"
     inkscape:pageopacity="0.0"
     inkscape:pageshadow="2"
     inkscape:zoom="11.2"
     inkscape:cx="26.055076"
     inkscape:cy="11.347345"
     inkscape:document-units="mm"
     inkscape:current-layer="layer1"
     showgrid="false"
     inkscape:window-width="954"
     inkscape:window-height="630"
     inkscape:window-x="-3"
     inkscape:window-y="6"
     inkscape:window-maximized="0" />
  <metadata
     id="metadata5">
    <rdf:RDF>
      <cc:Work
         rdf:about="">
        <dc:format>image/svg+xml</dc:format>
        <dc:type
           rdf:resource="http://purl.org/dc/dcmitype/StillImage" />
        <dc:title></dc:title>
      </cc:Work>
    </rdf:RDF>
  </metadata>
  <g
     inkscape:label="Layer 1"
     inkscape:groupmode="layer"
     id="layer1"
     transform="translate(-56.56692,-96.09298)">
    <path
       d="m 56.5962,100.79655 h 7.02628 V 96.121889 H 56.5962 Z m 7.04109,0.0148 v -0.0148 z m -7.07037,0.0145 v -4.73287 h 7.08484 v 4.71841 0.0145 z"
       style="fill:#221f21;fill-opacity:1;fill-rule:nonzero;stroke:none;stroke-width:0.35277778"
       id="path26562"
       inkscape:connector-curvature="0" />
    <path
       d="m 56.58174,100.81137 h 2.35162 v -4.703592 h -2.35162 z"
       style="fill:#cf242a;fill-opacity:1;fill-rule:nonzero;stroke:none;stroke-width:0.35277778"
       id="path26564"
       inkscape:connector-curvature="0" />
    <path
       d="m 58.93336,100.81137 h 2.35197 v -4.703592 h -2.35197 z"
       style="fill:#56a9c4;fill-opacity:1;fill-rule:nonzero;stroke:none;stroke-width:0.35277778"
       id="path26566"
       inkscape:connector-curvature="0" />
    <path
       d="m 63.63729,96.107778 h -2.35196 v 4.703592 h 2.35196 z"
       style="fill:#cf242a;fill-opacity:1;fill-rule:nonzero;stroke:none;stroke-width:0.35277778"
       id="path26568"
       inkscape:connector-curvature="0" />
    <g
       id="g26570"
       transform="matrix(0.35277777,0,0,-0.35277777,57.757547,98.132157)">
      <path
         d="M 0,0 C -0.529,0 -0.982,0.317 -1.182,0.773 L -1.183,0.752 c 0,-0.653 0.53,-1.184 1.183,-1.184 0.653,0 1.184,0.531 1.184,1.184 L 1.183,0.773 C 0.982,0.317 0.528,0 0,0"
         style="fill:#e8df2a;fill-opacity:1;fill-rule:nonzero;stroke:none"
         id="path26572"
         inkscape:connector-curvature="0" />
    </g>
    <g
       id="g26574"
       transform="matrix(0.35277777,0,0,-0.35277777,57.576006,97.220932)">
      <path
         d="M 0,0 C 0,-0.284 0.23,-0.515 0.515,-0.515 0.799,-0.515 1.029,-0.284 1.029,0 1.029,0.206 0.9,0.232 0.9,0.31 0.9,0.387 0.979,0.489 0.823,0.618 0.9,0.489 0.772,0.43 0.772,0.302 0.772,0.173 0.823,0.206 0.823,0.104 L 0.721,0 0.618,0.104 c 0,0.102 0.052,0.202 0.052,0.357 0,0.155 0.006,0.147 -0.07,0.276 C 0.521,0.866 0.512,0.892 0.563,1.12 0.408,1.069 0.458,0.821 0.458,0.692 0.458,0.563 0.334,0.541 0.334,0.387 0.334,0.232 0.411,0.206 0.411,0.104 L 0.309,0 0.205,0.104 c 0,0.102 0.052,0.069 0.052,0.198 0,0.128 -0.129,0.187 -0.052,0.316 C 0.051,0.489 0.128,0.387 0.128,0.31 0.128,0.232 0,0.206 0,0"
         style="fill:#e8df2a;fill-opacity:1;fill-rule:nonzero;stroke:none"
         id="path26576"
         inkscape:connector-curvature="0" />
    </g>
    <g
       id="g26578"
       transform="matrix(0.35277777,0,0,-0.35277777,57.757547,97.475532)">
      <path
         d="m 0,0 c 0.454,0 0.824,-0.368 0.824,-0.824 0,-0.455 -0.37,-0.824 -0.824,-0.824 -0.455,0 -0.824,0.369 -0.824,0.824 C -0.824,-0.368 -0.455,0 0,0"
         style="fill:#e8df2a;fill-opacity:1;fill-rule:nonzero;stroke:none"
         id="path26580"
         inkscape:connector-curvature="0" />
    </g>
    <path
       d="m 57.00154,98.347917 h 0.31927 v 1.745193 h -0.31927 z"
       style="fill:#e8df2a;fill-opacity:1;fill-rule:nonzero;stroke:none;stroke-width:0.35277778"
       id="path26582"
       inkscape:connector-curvature="0" />
    <path
       d="m 58.19393,98.347917 h 0.31927 v 1.745193 h -0.31927 z"
       style="fill:#e8df2a;fill-opacity:1;fill-rule:nonzero;stroke:none;stroke-width:0.35277778"
       id="path26584"
       inkscape:connector-curvature="0" />
    <g
       id="g26586"
       transform="matrix(0.35277777,0,0,-0.35277777,57.408538,98.347811)">
      <path
         d="M 0,0 0.989,-0.618 1.979,0 Z"
         style="fill:#e8df2a;fill-opacity:1;fill-rule:nonzero;stroke:none"
         id="path26588"
         inkscape:connector-curvature="0" />
    </g>
    <path
       d="M 57.40865,98.78395 H 58.1068 V 98.638606 H 57.40865 Z"
       style="fill:#e8df2a;fill-opacity:1;fill-rule:nonzero;stroke:none;stroke-width:0.35277778"
       id="path26590"
       inkscape:connector-curvature="0" />
    <path
       d="m 57.40865,99.802066 h 0.69815 v -0.14534 h -0.69815 z"
       style="fill:#e8df2a;fill-opacity:1;fill-rule:nonzero;stroke:none;stroke-width:0.35277778"
       id="path26592"
       inkscape:connector-curvature="0" />
    <g
       id="g26594"
       transform="matrix(0.35277777,0,0,-0.35277777,57.408538,99.875016)">
      <path
         d="M 0,0 0.989,-0.618 1.979,0 Z"
         style="fill:#e8df2a;fill-opacity:1;fill-rule:nonzero;stroke:none"
         id="path26596"
         inkscape:connector-curvature="0" />
    </g>
    <g
       id="g26598"
       transform="matrix(0.35277777,0,0,-0.35277777,57.757547,99.478145)">
      <path
         d="M 0,0 C -0.109,0 -0.198,0.09 -0.198,0.2 -0.198,0.312 -0.109,0.4 0,0.4 0.109,0.4 0.198,0.312 0.198,0.2 0.198,0.09 0.109,0 0,0 M 0.331,1.686 C 0.464,1.591 0.553,1.434 0.553,1.257 c 0,-0.291 -0.234,-0.526 -0.52,-0.526 -0.287,0 -0.519,-0.235 -0.519,-0.525 0,-0.178 0.087,-0.334 0.22,-0.43 0.095,-0.03 0.195,-0.047 0.299,-0.047 0.545,0 0.988,0.45 0.988,1.002 0,0.448 -0.289,0.827 -0.69,0.955"
         style="fill:#e8df2a;fill-opacity:1;fill-rule:nonzero;stroke:none"
         id="path26600"
         inkscape:connector-curvature="0" />
    </g>
    <g
       id="g26602"
       transform="matrix(0.35277777,0,0,-0.35277777,57.757547,99.103673)">
      <path
         d="m 0,0 c -0.109,0 -0.198,0.09 -0.198,0.199 0,0.112 0.089,0.2 0.198,0.2 0.109,0 0.198,-0.088 0.198,-0.2 C 0.198,0.09 0.109,0 0,0 m 0.266,0.657 c -0.095,0.03 -0.195,0.046 -0.299,0.046 -0.545,0 -0.988,-0.448 -0.988,-1.001 0,-0.447 0.29,-0.825 0.69,-0.954 -0.133,0.096 -0.221,0.252 -0.221,0.43 0,0.289 0.233,0.524 0.519,0.524 0.287,0 0.519,0.236 0.519,0.527 0,0.177 -0.087,0.333 -0.22,0.428"
         style="fill:#e8df2a;fill-opacity:1;fill-rule:nonzero;stroke:none"
         id="path26604"
         inkscape:connector-curvature="0" />
    </g>
  </g>
</svg>
