<?xml version="1.0" encoding="UTF-8" standalone="no"?>
<!-- Created with Inkscape (http://www.inkscape.org/) -->

<svg
   xmlns:dc="http://purl.org/dc/elements/1.1/"
   xmlns:cc="http://creativecommons.org/ns#"
   xmlns:rdf="http://www.w3.org/1999/02/22-rdf-syntax-ns#"
   xmlns:svg="http://www.w3.org/2000/svg"
   xmlns="http://www.w3.org/2000/svg"
   xmlns:sodipodi="http://sodipodi.sourceforge.net/DTD/sodipodi-0.dtd"
   xmlns:inkscape="http://www.inkscape.org/namespaces/inkscape"
   width="7.084836mm"
   height="4.7328668mm"
   viewBox="0 0 7.084836 4.7328668"
   version="1.1"
   id="svg8"
   inkscape:version="0.92.4 (5da689c313, 2019-01-14)"
   sodipodi:docname="mozambique.svg">
  <defs
     id="defs2">
    <radialGradient
       id="radialGradient37584"
       spreadMethod="pad"
       gradientTransform="matrix(0.975099,0,0,0.975099,159.64062,365.06934)"
       gradientUnits="userSpaceOnUse"
       r="1"
       cy="0"
       cx="0"
       fy="0"
       fx="0">
      <stop
         id="stop37578"
         offset="0"
         style="stop-opacity:1;stop-color:#852c26" />
      <stop
         id="stop37580"
         offset="0.0015476"
         style="stop-opacity:1;stop-color:#852c26" />
      <stop
         id="stop37582"
         offset="1"
         style="stop-opacity:1;stop-color:#451617" />
    </radialGradient>
    <clipPath
       id="clipPath37532"
       clipPathUnits="userSpaceOnUse">
      <path
         inkscape:connector-curvature="0"
         id="path37530"
         d="M 0,400 H 400 V 0 H 0 Z" />
    </clipPath>
    <radialGradient
       id="radialGradient37522"
       spreadMethod="pad"
       gradientTransform="matrix(-0.2637247,0,0,0.2637247,159.68652,365.88965)"
       gradientUnits="userSpaceOnUse"
       r="1"
       cy="0"
       cx="0"
       fy="0"
       fx="0">
      <stop
         id="stop37516"
         offset="0"
         style="stop-opacity:1;stop-color:#852c26" />
      <stop
         id="stop37518"
         offset="0.0015476"
         style="stop-opacity:1;stop-color:#852c26" />
      <stop
         id="stop37520"
         offset="1"
         style="stop-opacity:1;stop-color:#451617" />
    </radialGradient>
    <clipPath
       id="clipPath37354"
       clipPathUnits="userSpaceOnUse">
      <path
         inkscape:connector-curvature="0"
         id="path37352"
         d="M 0,400 H 400 V 0 H 0 Z" />
    </clipPath>
    <radialGradient
       id="radialGradient37344"
       spreadMethod="pad"
       gradientTransform="matrix(0.975099,0,0,0.975099,155.76025,365.06934)"
       gradientUnits="userSpaceOnUse"
       r="1"
       cy="0"
       cx="0"
       fy="0"
       fx="0">
      <stop
         id="stop37338"
         offset="0"
         style="stop-opacity:1;stop-color:#eee54f" />
      <stop
         id="stop37340"
         offset="0.9977451"
         style="stop-opacity:1;stop-color:#e04a20" />
      <stop
         id="stop37342"
         offset="1"
         style="stop-opacity:1;stop-color:#e04a20" />
    </radialGradient>
    <clipPath
       id="clipPath37272"
       clipPathUnits="userSpaceOnUse">
      <path
         inkscape:connector-curvature="0"
         id="path37270"
         d="M 0,400 H 400 V 0 H 0 Z" />
    </clipPath>
    <radialGradient
       id="radialGradient37262"
       spreadMethod="pad"
       gradientTransform="matrix(0.2636045,0,0,0.2636045,155.71484,365.89062)"
       gradientUnits="userSpaceOnUse"
       r="1"
       cy="0"
       cx="0"
       fy="0"
       fx="0">
      <stop
         id="stop37256"
         offset="0"
         style="stop-opacity:1;stop-color:#eee54f" />
      <stop
         id="stop37258"
         offset="0.9977451"
         style="stop-opacity:1;stop-color:#e04a20" />
      <stop
         id="stop37260"
         offset="1"
         style="stop-opacity:1;stop-color:#e04a20" />
    </radialGradient>
    <radialGradient
       id="radialGradient5422"
       spreadMethod="pad"
       gradientTransform="matrix(0.1021146,-0.0756367,0.070541,0.1077099,271.97559,176.14746)"
       gradientUnits="userSpaceOnUse"
       r="1"
       cy="0"
       cx="0"
       fy="0"
       fx="0">
      <stop
         id="stop5416"
         offset="0"
         style="stop-opacity:1;stop-color:#ffffff" />
      <stop
         id="stop5418"
         offset="0.00091915"
         style="stop-opacity:1;stop-color:#ffffff" />
      <stop
         id="stop5420"
         offset="1"
         style="stop-opacity:1;stop-color:#e63e6e" />
    </radialGradient>
    <clipPath
       id="clipPath5374"
       clipPathUnits="userSpaceOnUse">
      <path
         inkscape:connector-curvature="0"
         id="path5372"
         d="M 0,400 H 400 V 0 H 0 Z" />
    </clipPath>
    <radialGradient
       id="radialGradient5364"
       spreadMethod="pad"
       gradientTransform="matrix(0.1318831,-9.013e-4,-1.001e-4,0.1311822,269.56445,176.4248)"
       gradientUnits="userSpaceOnUse"
       r="1"
       cy="0"
       cx="0"
       fy="0"
       fx="0">
      <stop
         id="stop5358"
         offset="0"
         style="stop-opacity:1;stop-color:#ffffff" />
      <stop
         id="stop5360"
         offset="0.00091915"
         style="stop-opacity:1;stop-color:#ffffff" />
      <stop
         id="stop5362"
         offset="1"
         style="stop-opacity:1;stop-color:#e63e6e" />
    </radialGradient>
    <clipPath
       id="clipPath5316"
       clipPathUnits="userSpaceOnUse">
      <path
         inkscape:connector-curvature="0"
         id="path5314"
         d="M 0,400 H 400 V 0 H 0 Z" />
    </clipPath>
    <radialGradient
       id="radialGradient5306"
       spreadMethod="pad"
       gradientTransform="matrix(0.1105445,0.0935377,-0.0930375,0.1086438,268.6875,176.89062)"
       gradientUnits="userSpaceOnUse"
       r="1"
       cy="0"
       cx="0"
       fy="0"
       fx="0">
      <stop
         id="stop5300"
         offset="0"
         style="stop-opacity:1;stop-color:#ffffff" />
      <stop
         id="stop5302"
         offset="0.00091915"
         style="stop-opacity:1;stop-color:#ffffff" />
      <stop
         id="stop5304"
         offset="1"
         style="stop-opacity:1;stop-color:#e63e6e" />
    </radialGradient>
  </defs>
  <sodipodi:namedview
     id="base"
     pagecolor="#ffffff"
     bordercolor="#666666"
     borderopacity="1.0"
     inkscape:pageopacity="0.0"
     inkscape:pageshadow="2"
     inkscape:zoom="11.2"
     inkscape:cx="20.774644"
     inkscape:cy="7.9114735"
     inkscape:document-units="mm"
     inkscape:current-layer="layer1"
     showgrid="false"
     inkscape:window-width="954"
     inkscape:window-height="630"
     inkscape:window-x="-3"
     inkscape:window-y="6"
     inkscape:window-maximized="0" />
  <metadata
     id="metadata5">
    <rdf:RDF>
      <cc:Work
         rdf:about="">
        <dc:format>image/svg+xml</dc:format>
        <dc:type
           rdf:resource="http://purl.org/dc/dcmitype/StillImage" />
        <dc:title></dc:title>
      </cc:Work>
    </rdf:RDF>
  </metadata>
  <g
     inkscape:label="Layer 1"
     inkscape:groupmode="layer"
     id="layer1"
     transform="translate(-57.964033,-95.18395)">
    <g
       id="g33712"
       transform="matrix(0.35277777,0,0,-0.35277777,57.993314,99.887183)">
      <path
         d="M 0,0 H 19.917 V 13.25 H 0 Z M 19.958,-0.043 V 0 Z M -0.083,-0.084 V 13.332 H 20 V -0.043 -0.084 Z"
         style="fill:#221f21;fill-opacity:1;fill-rule:nonzero;stroke:none"
         id="path33714"
         inkscape:connector-curvature="0" />
    </g>
    <path
       d="m 57.978676,99.902243 h 7.055561 v -1.568095 h -7.055561 z"
       style="fill:#ead326;fill-opacity:1;fill-rule:nonzero;stroke:none;stroke-width:0.35277778"
       id="path33716"
       inkscape:connector-curvature="0" />
    <path
       d="m 57.978676,98.334148 h 7.055561 v -1.567744 h -7.055561 z"
       style="fill:#0e0f0e;fill-opacity:1;fill-rule:nonzero;stroke:none;stroke-width:0.35277778"
       id="path33718"
       inkscape:connector-curvature="0" />
    <path
       d="m 65.034237,95.198306 h -7.055561 v 1.567745 h 7.055561 z"
       style="fill:#326f6a;fill-opacity:1;fill-rule:nonzero;stroke:none;stroke-width:0.35277778"
       id="path33720"
       inkscape:connector-curvature="0" />
    <path
       d="m 65.034237,96.848601 h -7.055561 v -0.164747 h 7.055561 z"
       style="fill:#ffffff;fill-opacity:1;fill-rule:nonzero;stroke:none;stroke-width:0.35277778"
       id="path33722"
       inkscape:connector-curvature="0" />
    <path
       d="m 65.034237,98.416345 h -7.055561 v -0.164747 h 7.055561 z"
       style="fill:#ffffff;fill-opacity:1;fill-rule:nonzero;stroke:none;stroke-width:0.35277778"
       id="path33724"
       inkscape:connector-curvature="0" />
    <g
       id="g33726"
       transform="matrix(0.35277777,0,0,-0.35277777,57.978674,99.902353)">
      <path
         d="M 0,0 V 13.334 L 8.71,6.667 Z"
         style="fill:#c22135;fill-opacity:1;fill-rule:nonzero;stroke:none"
         id="path33728"
         inkscape:connector-curvature="0" />
    </g>
    <g
       id="g33730"
       transform="matrix(0.35277777,0,0,-0.35277777,59.012706,96.69253)">
      <path
         d="M 0,0 0.603,-1.856 H 2.556 L 0.976,-3.005 1.581,-4.862 0,-3.716 l -1.581,-1.146 0.604,1.857 -1.579,1.149 h 1.952 z"
         style="fill:#ead326;fill-opacity:1;fill-rule:nonzero;stroke:none"
         id="path33732"
         inkscape:connector-curvature="0" />
    </g>
    <g
       id="g33734"
       transform="matrix(0.35277777,0,0,-0.35277777,59.845725,96.763509)">
      <path
         d="M 0,0 H 0.007 V -0.007 Z"
         style="fill:#ffffff;fill-opacity:1;fill-rule:nonzero;stroke:none"
         id="path33736"
         inkscape:connector-curvature="0" />
    </g>
    <g
       id="g33738"
       transform="matrix(0.35277777,0,0,-0.35277777,59.063185,97.29751)">
      <path
         d="M 0,0 -0.017,0.019 0.101,0.126 0.109,0.142 0.126,0.107 Z M 0.297,0.011 0.312,0.069 0.502,0.236 0.612,0.147 0.635,0.132 0.66,0.151 C 0.808,0.275 0.954,0.399 1.101,0.524 L 1.194,0.602 1.236,0.588 1.302,0.606 C 1.61,0.901 1.919,1.196 2.226,1.492 V 1.507 L 2.218,1.514 H 2.208 L 2.117,1.451 C 1.819,1.24 1.522,1.03 1.225,0.821 L 1.199,0.806 1.181,0.817 1.196,0.87 1.169,0.918 1.111,0.921 1.055,0.872 0.949,0.921 0.893,0.978 0.883,0.981 0.869,0.978 0.863,0.907 0.857,0.81 0.61,0.579 0.415,0.588 C 0.324,0.501 0.235,0.414 0.145,0.327 L 0.12,0.298 0.105,0.254 0.072,0.3 0.046,0.287 -0.104,0.146 -0.122,0.143 c -0.153,0.174 -0.309,0.348 -0.462,0.523 l 0.024,0.087 -0.008,0.022 c -0.097,0.105 -0.194,0.21 -0.29,0.316 L -0.903,1.111 -1.091,1.097 -1.191,0.969 -1.21,0.894 -1.256,0.88 -1.415,0.892 -1.464,0.895 -1.579,0.871 -1.592,0.861 C -1.819,0.538 -2.046,0.218 -2.272,-0.105 l -0.02,-0.033 0.017,-0.024 c 0.126,-0.151 0.251,-0.303 0.377,-0.453 h 0.023 c 0.261,0.33 0.522,0.66 0.783,0.989 l 0.019,0.034 0.021,0.245 0.12,-0.134 0.029,-0.028 0.077,-0.007 0.085,0.017 c 0.096,-0.105 0.19,-0.212 0.286,-0.318 l 0.17,-0.19 -0.067,-0.062 -0.002,-0.025 0.063,-0.069 0.023,-0.014 0.072,0.049 0.013,-0.018 -0.084,-0.059 -0.105,0.133 -0.007,0.037 -0.021,-0.003 -0.181,-0.15 c -0.097,-0.013 -0.195,-0.028 -0.293,-0.044 -0.09,-0.017 -0.182,-0.034 -0.27,-0.061 L -1.218,-0.33 -1.359,-0.474 -1.39,-0.599 c -0.029,-0.119 -0.056,-0.24 -0.085,-0.36 l -0.051,-0.007 -0.012,-0.013 -0.018,-0.189 0.009,-0.029 H -1.53 L -1.543,-1.249 -1.579,-1.254 -1.84,-1.515 -2.033,-1.573 c -0.131,-0.116 -0.261,-0.233 -0.393,-0.348 l -0.085,-0.076 v -0.01 l 0.022,-0.028 c 0.089,-0.105 0.178,-0.209 0.268,-0.314 l 0.145,-0.003 c 0.131,0.161 0.264,0.32 0.398,0.48 0.419,-10e-4 0.837,0 1.255,0 l 0.122,-0.074 0.253,-0.023 0.22,0.107 0.055,0.024 c 0.124,0.049 0.259,0.062 0.39,0.064 0.221,0 0.442,-0.034 0.654,-0.086 l 0.065,-0.01 c 0.131,-0.15 0.262,-0.299 0.393,-0.447 l 0.028,-0.003 0.092,0.058 0.031,0.1 -0.005,0.024 c -0.127,0.145 -0.253,0.29 -0.38,0.437 L 1.479,-1.659 C 1.359,-1.268 1.24,-0.876 1.12,-0.483 L 1.111,-0.468 0.988,-0.335 0.957,-0.314 0.79,-0.253 C 0.617,-0.205 0.436,-0.191 0.257,-0.2 L 0.189,-0.205 0.148,-0.157 0.24,-0.056 Z"
         style="fill:#0e0f0e;fill-opacity:1;fill-rule:nonzero;stroke:none"
         id="path33740"
         inkscape:connector-curvature="0" />
    </g>
    <g
       id="g33742"
       transform="matrix(0.35277777,0,0,-0.35277777,58.745193,97.391879)">
      <path
         d="M 0,0 C 0.092,0.016 0.184,0.03 0.277,0.042 L 0.235,0.005 0.227,-0.036 C 0.102,-0.144 -0.026,-0.247 -0.151,-0.353 l -0.224,-0.183 c 0.036,0.156 0.073,0.313 0.108,0.47 z"
         style="fill:#ffffff;fill-opacity:1;fill-rule:nonzero;stroke:none"
         id="path33744"
         inkscape:connector-curvature="0" />
    </g>
    <g
       id="g33746"
       transform="matrix(0.35277777,0,0,-0.35277777,59.139314,97.379848)">
      <path
         d="M 0,0 C 0.175,0.013 0.354,0.003 0.527,-0.038 L 0.72,-0.104 0.743,-0.122 C 0.812,-0.444 0.882,-0.768 0.951,-1.091 0.87,-1 0.79,-0.906 0.71,-0.816 0.473,-0.543 0.236,-0.271 0,0"
         style="fill:#ffffff;fill-opacity:1;fill-rule:nonzero;stroke:none"
         id="path33748"
         inkscape:connector-curvature="0" />
    </g>
    <g
       id="g33750"
       transform="matrix(0.35277777,0,0,-0.35277777,59.029604,97.424968)">
      <path
         d="m 0,0 0.061,0.052 c 0.22,-0.249 0.439,-0.499 0.658,-0.75 0.133,-0.151 0.266,-0.303 0.4,-0.454 -0.122,0.015 -0.245,0.021 -0.367,0.023 -0.225,-0.003 -0.451,-0.03 -0.663,-0.106 l -0.103,-0.041 0.002,0.142 v 0.201 l 0.243,-0.021 0.062,0.019 0.011,0.038 c 0.007,0.099 0.009,0.2 0.013,0.301 l -0.018,0.02 c -0.102,0.011 -0.205,0.027 -0.306,0.044 -0.001,0.168 0,0.335 0.001,0.504 z"
         style="fill:#ffffff;fill-opacity:1;fill-rule:nonzero;stroke:none"
         id="path33752"
         inkscape:connector-curvature="0" />
    </g>
    <g
       id="g33754"
       transform="matrix(0.35277777,0,0,-0.35277777,58.594664,97.46769)">
      <path
         d="M 0,0 0.123,0.123 C 0.087,-0.036 0.051,-0.195 0.013,-0.354 l -0.124,-0.103 c 0.033,0.144 0.068,0.288 0.102,0.433 z"
         style="fill:#ffffff;fill-opacity:1;fill-rule:nonzero;stroke:none"
         id="path33756"
         inkscape:connector-curvature="0" />
    </g>
    <g
       id="g33758"
       transform="matrix(0.35277777,0,0,-0.35277777,59.412504,97.432905)">
      <path
         d="m 0,0 0.084,-0.088 0.018,-0.023 c 0.115,-0.382 0.231,-0.762 0.348,-1.145 -0.078,0.09 -0.156,0.179 -0.234,0.27 L 0.208,-0.973 C 0.139,-0.647 0.07,-0.324 0,0"
         style="fill:#ffffff;fill-opacity:1;fill-rule:nonzero;stroke:none"
         id="path33760"
         inkscape:connector-curvature="0" />
    </g>
    <g
       id="g33762"
       transform="matrix(0.35277777,0,0,-0.35277777,58.948814,97.493513)">
      <path
         d="M 0,0 0.199,0.168 0.198,0.016 C 0.197,-0.1 0.197,-0.217 0.196,-0.332 0.103,-0.316 0.011,-0.295 -0.079,-0.266 l -0.12,0.057 -0.034,0.039 0.021,0.093 0.141,0.065 0.002,0.022 -0.074,0.107 0.005,0.029 0.114,-0.142 z"
         style="fill:#ffffff;fill-opacity:1;fill-rule:nonzero;stroke:none"
         id="path33764"
         inkscape:connector-curvature="0" />
    </g>
    <g
       id="g33766"
       transform="matrix(0.35277777,0,0,-0.35277777,58.826865,97.480072)">
      <path
         d="M 0,0 0.095,0.075 0.096,0.066 c -0.117,-0.1 -0.229,-0.204 -0.343,-0.308 l -0.017,-0.042 -0.047,-0.044 -0.035,0.022 -0.016,-0.006 c -0.157,-0.14 -0.313,-0.279 -0.469,-0.417 l -0.011,-0.002 0.022,0.086 c 0.153,0.128 0.306,0.254 0.458,0.382 l 0.021,0.022 v 0.029 l 0.048,-0.021 C -0.196,-0.155 -0.099,-0.078 0,0"
         style="fill:#ffffff;fill-opacity:1;fill-rule:nonzero;stroke:none"
         id="path33768"
         inkscape:connector-curvature="0" />
    </g>
    <g
       id="g33770"
       transform="matrix(0.35277777,0,0,-0.35277777,58.758105,97.656814)">
      <path
         d="m 0,0 0.038,0.055 c 0.155,-0.096 0.316,-0.18 0.484,-0.25 L 0.733,-0.27 c 0,-0.114 -0.002,-0.23 -0.002,-0.344 l -0.146,0.048 c -0.221,0.06 -0.454,0.078 -0.682,0.08 l -0.039,0.131 0.182,0.197 0.028,0.043 z"
         style="fill:#ffffff;fill-opacity:1;fill-rule:nonzero;stroke:none"
         id="path33772"
         inkscape:connector-curvature="0" />
    </g>
    <g
       id="g33774"
       transform="matrix(0.35277777,0,0,-0.35277777,58.709035,97.688175)">
      <path
         d="M 0,0 0.048,0.034 0.091,-0.022 0.008,-0.123 H -0.09 l -0.188,-0.17 -0.003,-0.023 0.075,-0.069 0.009,-0.02 h -0.017 l -0.205,-0.018 0.005,0.039 c 0.115,0.102 0.229,0.206 0.346,0.307 l 0.074,-0.006 0.006,0.027 -0.039,0.02 z"
         style="fill:#ffffff;fill-opacity:1;fill-rule:nonzero;stroke:none"
         id="path33776"
         inkscape:connector-curvature="0" />
    </g>
    <g
       id="g33778"
       transform="matrix(0.35277777,0,0,-0.35277777,59.200634,97.839411)">
      <path
         d="M 0,0 0.241,0.015 H 0.327 C 0.44,0.013 0.553,0.003 0.664,-0.012 c 0.084,-0.097 0.169,-0.193 0.253,-0.289 -0.192,0.048 -0.388,0.082 -0.585,0.09 -0.146,0.006 -0.293,0 -0.435,-0.039 l -0.13,-0.051 -0.236,0.179 C -0.319,-0.057 -0.161,-0.02 0,0"
         style="fill:#ffffff;fill-opacity:1;fill-rule:nonzero;stroke:none"
         id="path33780"
         inkscape:connector-curvature="0" />
    </g>
    <g
       id="g33782"
       transform="matrix(0.35277777,0,0,-0.35277777,58.726074,97.839411)">
      <path
         d="M 0,0 C 0.158,0 0.315,-0.011 0.472,-0.035 V -0.037 L 0.507,-0.041 C 0.608,-0.059 0.708,-0.086 0.803,-0.122 0.71,-0.171 0.621,-0.229 0.549,-0.306 L 0.292,-0.307 h -0.791 l -0.198,0.002 0.163,0.2 0.061,0.089 0.038,-0.005 0.201,0.017 0.088,-0.242 0.021,-0.05 h 0.022 l 0.147,0.104 0.005,0.024 z"
         style="fill:#ffffff;fill-opacity:1;fill-rule:nonzero;stroke:none"
         id="path33784"
         inkscape:connector-curvature="0" />
    </g>
    <g
       id="g33786"
       transform="matrix(0.35277777,0,0,-0.35277777,59.017005,97.891092)">
      <path
         d="M 0,0 0.021,0.006 C 0.112,-0.037 0.197,-0.093 0.262,-0.17 L 0.031,-0.262 C -0.068,-0.273 -0.175,-0.245 -0.248,-0.174 -0.179,-0.1 -0.09,-0.046 0,0"
         style="fill:#ffffff;fill-opacity:1;fill-rule:nonzero;stroke:none"
         id="path33788"
         inkscape:connector-curvature="0" />
    </g>
  </g>
</svg>
