<?xml version="1.0" encoding="UTF-8" standalone="no"?>
<!-- Created with Inkscape (http://www.inkscape.org/) -->

<svg
   xmlns:dc="http://purl.org/dc/elements/1.1/"
   xmlns:cc="http://creativecommons.org/ns#"
   xmlns:rdf="http://www.w3.org/1999/02/22-rdf-syntax-ns#"
   xmlns:svg="http://www.w3.org/2000/svg"
   xmlns="http://www.w3.org/2000/svg"
   xmlns:sodipodi="http://sodipodi.sourceforge.net/DTD/sodipodi-0.dtd"
   xmlns:inkscape="http://www.inkscape.org/namespaces/inkscape"
   width="7.084836mm"
   height="4.7328668mm"
   viewBox="0 0 7.0848358 4.7328668"
   version="1.1"
   id="svg8"
   inkscape:version="0.92.4 (5da689c313, 2019-01-14)"
   sodipodi:docname="new_zealand.svg">
  <defs
     id="defs2">
    <radialGradient
       id="radialGradient37584"
       spreadMethod="pad"
       gradientTransform="matrix(0.975099,0,0,0.975099,159.64062,365.06934)"
       gradientUnits="userSpaceOnUse"
       r="1"
       cy="0"
       cx="0"
       fy="0"
       fx="0">
      <stop
         id="stop37578"
         offset="0"
         style="stop-opacity:1;stop-color:#852c26" />
      <stop
         id="stop37580"
         offset="0.0015476"
         style="stop-opacity:1;stop-color:#852c26" />
      <stop
         id="stop37582"
         offset="1"
         style="stop-opacity:1;stop-color:#451617" />
    </radialGradient>
    <clipPath
       id="clipPath37532"
       clipPathUnits="userSpaceOnUse">
      <path
         inkscape:connector-curvature="0"
         id="path37530"
         d="M 0,400 H 400 V 0 H 0 Z" />
    </clipPath>
    <radialGradient
       id="radialGradient37522"
       spreadMethod="pad"
       gradientTransform="matrix(-0.2637247,0,0,0.2637247,159.68652,365.88965)"
       gradientUnits="userSpaceOnUse"
       r="1"
       cy="0"
       cx="0"
       fy="0"
       fx="0">
      <stop
         id="stop37516"
         offset="0"
         style="stop-opacity:1;stop-color:#852c26" />
      <stop
         id="stop37518"
         offset="0.0015476"
         style="stop-opacity:1;stop-color:#852c26" />
      <stop
         id="stop37520"
         offset="1"
         style="stop-opacity:1;stop-color:#451617" />
    </radialGradient>
    <clipPath
       id="clipPath37354"
       clipPathUnits="userSpaceOnUse">
      <path
         inkscape:connector-curvature="0"
         id="path37352"
         d="M 0,400 H 400 V 0 H 0 Z" />
    </clipPath>
    <radialGradient
       id="radialGradient37344"
       spreadMethod="pad"
       gradientTransform="matrix(0.975099,0,0,0.975099,155.76025,365.06934)"
       gradientUnits="userSpaceOnUse"
       r="1"
       cy="0"
       cx="0"
       fy="0"
       fx="0">
      <stop
         id="stop37338"
         offset="0"
         style="stop-opacity:1;stop-color:#eee54f" />
      <stop
         id="stop37340"
         offset="0.9977451"
         style="stop-opacity:1;stop-color:#e04a20" />
      <stop
         id="stop37342"
         offset="1"
         style="stop-opacity:1;stop-color:#e04a20" />
    </radialGradient>
    <clipPath
       id="clipPath37272"
       clipPathUnits="userSpaceOnUse">
      <path
         inkscape:connector-curvature="0"
         id="path37270"
         d="M 0,400 H 400 V 0 H 0 Z" />
    </clipPath>
    <radialGradient
       id="radialGradient37262"
       spreadMethod="pad"
       gradientTransform="matrix(0.2636045,0,0,0.2636045,155.71484,365.89062)"
       gradientUnits="userSpaceOnUse"
       r="1"
       cy="0"
       cx="0"
       fy="0"
       fx="0">
      <stop
         id="stop37256"
         offset="0"
         style="stop-opacity:1;stop-color:#eee54f" />
      <stop
         id="stop37258"
         offset="0.9977451"
         style="stop-opacity:1;stop-color:#e04a20" />
      <stop
         id="stop37260"
         offset="1"
         style="stop-opacity:1;stop-color:#e04a20" />
    </radialGradient>
    <radialGradient
       id="radialGradient5422"
       spreadMethod="pad"
       gradientTransform="matrix(0.1021146,-0.0756367,0.070541,0.1077099,271.97559,176.14746)"
       gradientUnits="userSpaceOnUse"
       r="1"
       cy="0"
       cx="0"
       fy="0"
       fx="0">
      <stop
         id="stop5416"
         offset="0"
         style="stop-opacity:1;stop-color:#ffffff" />
      <stop
         id="stop5418"
         offset="0.00091915"
         style="stop-opacity:1;stop-color:#ffffff" />
      <stop
         id="stop5420"
         offset="1"
         style="stop-opacity:1;stop-color:#e63e6e" />
    </radialGradient>
    <clipPath
       id="clipPath5374"
       clipPathUnits="userSpaceOnUse">
      <path
         inkscape:connector-curvature="0"
         id="path5372"
         d="M 0,400 H 400 V 0 H 0 Z" />
    </clipPath>
    <radialGradient
       id="radialGradient5364"
       spreadMethod="pad"
       gradientTransform="matrix(0.1318831,-9.013e-4,-1.001e-4,0.1311822,269.56445,176.4248)"
       gradientUnits="userSpaceOnUse"
       r="1"
       cy="0"
       cx="0"
       fy="0"
       fx="0">
      <stop
         id="stop5358"
         offset="0"
         style="stop-opacity:1;stop-color:#ffffff" />
      <stop
         id="stop5360"
         offset="0.00091915"
         style="stop-opacity:1;stop-color:#ffffff" />
      <stop
         id="stop5362"
         offset="1"
         style="stop-opacity:1;stop-color:#e63e6e" />
    </radialGradient>
    <clipPath
       id="clipPath5316"
       clipPathUnits="userSpaceOnUse">
      <path
         inkscape:connector-curvature="0"
         id="path5314"
         d="M 0,400 H 400 V 0 H 0 Z" />
    </clipPath>
    <radialGradient
       id="radialGradient5306"
       spreadMethod="pad"
       gradientTransform="matrix(0.1105445,0.0935377,-0.0930375,0.1086438,268.6875,176.89062)"
       gradientUnits="userSpaceOnUse"
       r="1"
       cy="0"
       cx="0"
       fy="0"
       fx="0">
      <stop
         id="stop5300"
         offset="0"
         style="stop-opacity:1;stop-color:#ffffff" />
      <stop
         id="stop5302"
         offset="0.00091915"
         style="stop-opacity:1;stop-color:#ffffff" />
      <stop
         id="stop5304"
         offset="1"
         style="stop-opacity:1;stop-color:#e63e6e" />
    </radialGradient>
  </defs>
  <sodipodi:namedview
     id="base"
     pagecolor="#ffffff"
     bordercolor="#666666"
     borderopacity="1.0"
     inkscape:pageopacity="0.0"
     inkscape:pageshadow="2"
     inkscape:zoom="11.2"
     inkscape:cx="13.087215"
     inkscape:cy="6.2947427"
     inkscape:document-units="mm"
     inkscape:current-layer="layer1"
     showgrid="false"
     inkscape:window-width="954"
     inkscape:window-height="630"
     inkscape:window-x="-3"
     inkscape:window-y="6"
     inkscape:window-maximized="0" />
  <metadata
     id="metadata5">
    <rdf:RDF>
      <cc:Work
         rdf:about="">
        <dc:format>image/svg+xml</dc:format>
        <dc:type
           rdf:resource="http://purl.org/dc/dcmitype/StillImage" />
        <dc:title></dc:title>
      </cc:Work>
    </rdf:RDF>
  </metadata>
  <g
     inkscape:label="Layer 1"
     inkscape:groupmode="layer"
     id="layer1"
     transform="translate(-46.52099,-98.597127)">
    <g
       id="g34640"
       transform="matrix(0.35277777,0,0,-0.35277777,46.550271,103.30036)">
      <path
         d="M 0,0 H 19.917 L 19.916,13.25 H 0 Z M 19.959,-0.043 V 0 Z M -0.083,-0.084 V 13.332 H 20 V -0.043 -0.084 Z"
         style="fill:#221f21;fill-opacity:1;fill-rule:nonzero;stroke:none"
         id="path34642"
         inkscape:connector-curvature="0" />
    </g>
    <path
       d="m 53.591083,103.31543 h -7.05556 v -4.703938 h 7.05556 z"
       style="fill:#2c4d91;fill-opacity:1;fill-rule:nonzero;stroke:none;stroke-width:0.35277778"
       id="path34644"
       inkscape:connector-curvature="0" />
    <g
       id="g34646"
       transform="matrix(0.35277777,0,0,-0.35277777,51.57978,99.339202)">
      <path
         d="M 0,0 H 0.536 L 0.701,0.509 0.867,0 H 1.402 L 0.97,-0.314 1.135,-0.824 0.701,-0.51 0.269,-0.824 l 0.165,0.51 z"
         style="fill:#ffffff;fill-opacity:1;fill-rule:nonzero;stroke:none"
         id="path34648"
         inkscape:connector-curvature="0" />
    </g>
    <g
       id="g34650"
       transform="matrix(0.35277777,0,0,-0.35277777,51.663851,99.366753)">
      <path
         d="M 0,0 H 0.354 L 0.463,0.337 0.572,0 H 0.927 L 0.641,-0.208 0.749,-0.545 0.463,-0.337 0.177,-0.545 0.286,-0.208 Z"
         style="fill:#d62140;fill-opacity:1;fill-rule:nonzero;stroke:none"
         id="path34652"
         inkscape:connector-curvature="0" />
    </g>
    <g
       id="g34654"
       transform="matrix(0.35277777,0,0,-0.35277777,50.698511,100.61008)">
      <path
         d="M 0,0 H 0.536 L 0.701,0.509 0.867,0 H 1.402 L 0.97,-0.315 1.135,-0.824 0.701,-0.51 0.269,-0.824 0.434,-0.315 Z"
         style="fill:#ffffff;fill-opacity:1;fill-rule:nonzero;stroke:none"
         id="path34656"
         inkscape:connector-curvature="0" />
    </g>
    <g
       id="g34658"
       transform="matrix(0.35277777,0,0,-0.35277777,50.782581,100.63763)">
      <path
         d="M 0,0 H 0.354 L 0.463,0.337 0.572,0 H 0.927 L 0.641,-0.208 0.749,-0.545 0.463,-0.337 0.177,-0.545 0.286,-0.208 Z"
         style="fill:#d62140;fill-opacity:1;fill-rule:nonzero;stroke:none"
         id="path34660"
         inkscape:connector-curvature="0" />
    </g>
    <g
       id="g34662"
       transform="matrix(0.35277777,0,0,-0.35277777,52.390751,100.30553)">
      <path
         d="M 0,0 H 0.477 L 0.624,0.452 0.771,0 H 1.248 L 0.862,-0.28 1.01,-0.733 0.624,-0.454 0.238,-0.733 0.386,-0.28 Z"
         style="fill:#ffffff;fill-opacity:1;fill-rule:nonzero;stroke:none"
         id="path34664"
         inkscape:connector-curvature="0" />
    </g>
    <g
       id="g34666"
       transform="matrix(0.35277777,0,0,-0.35277777,52.465151,100.33001)">
      <path
         d="M 0,0 H 0.315 L 0.413,0.299 0.51,0 H 0.825 L 0.57,-0.186 0.668,-0.485 0.413,-0.3 0.158,-0.485 0.255,-0.186 Z"
         style="fill:#d62140;fill-opacity:1;fill-rule:nonzero;stroke:none"
         id="path34668"
         inkscape:connector-curvature="0" />
    </g>
    <g
       id="g34670"
       transform="matrix(0.35277777,0,0,-0.35277777,51.55565,102.46597)">
      <path
         d="M 0,0 H 0.588 L 0.77,0.56 0.951,0 h 0.588 l -0.476,-0.347 0.182,-0.56 -0.475,0.346 -0.476,-0.346 0.182,0.56 z"
         style="fill:#ffffff;fill-opacity:1;fill-rule:nonzero;stroke:none"
         id="path34672"
         inkscape:connector-curvature="0" />
    </g>
    <g
       id="g34674"
       transform="matrix(0.35277777,0,0,-0.35277777,51.647661,102.49628)">
      <path
         d="M 0,0 H 0.39 L 0.509,0.37 0.63,0 H 1.018 L 0.704,-0.229 0.824,-0.6 0.509,-0.371 0.195,-0.6 l 0.12,0.371 z"
         style="fill:#d62140;fill-opacity:1;fill-rule:nonzero;stroke:none"
         id="path34676"
         inkscape:connector-curvature="0" />
    </g>
    <path
       d="m 50.063303,100.96346 h -3.52778 v -2.351968 h 3.52778 z"
       style="fill:#2c4d91;fill-opacity:1;fill-rule:nonzero;stroke:none;stroke-width:0.35277778"
       id="path34678"
       inkscape:connector-curvature="0" />
    <g
       id="g34680"
       transform="matrix(0.35277777,0,0,-0.35277777,50.063261,99.434981)">
      <path
         d="M 0,0 H -4 V 2.334 H -6 V 0 h -4 v -2 h 4 v -2.333 h 2 V -2 h 4 z"
         style="fill:#ffffff;fill-opacity:1;fill-rule:nonzero;stroke:none"
         id="path34682"
         inkscape:connector-curvature="0" />
    </g>
    <g
       id="g34684"
       transform="matrix(0.35277777,0,0,-0.35277777,50.063261,100.69312)">
      <path
         d="M 0,0 -8.852,5.9 H -10 V 5.129 l 8.844,-5.896 H 0 Z"
         style="fill:#ffffff;fill-opacity:1;fill-rule:nonzero;stroke:none"
         id="path34686"
         inkscape:connector-curvature="0" />
    </g>
    <g
       id="g34688"
       transform="matrix(0.35277777,0,0,-0.35277777,46.535491,100.69312)">
      <path
         d="M 0,0 8.853,5.9 H 10 V 5.129 L 1.156,-0.767 H 0 Z"
         style="fill:#ffffff;fill-opacity:1;fill-rule:nonzero;stroke:none"
         id="path34690"
         inkscape:connector-curvature="0" />
    </g>
    <g
       id="g34692"
       transform="matrix(0.35277777,0,0,-0.35277777,50.063261,99.581735)">
      <path
         d="M 0,0 H -4.416 V 2.75 H -5.583 V 0 H -10 v -1.167 h 4.417 v -2.75 h 1.167 v 2.75 H 0 Z"
         style="fill:#d62140;fill-opacity:1;fill-rule:nonzero;stroke:none"
         id="path34694"
         inkscape:connector-curvature="0" />
    </g>
    <g
       id="g34696"
       transform="matrix(0.35277777,0,0,-0.35277777,50.063261,100.95665)">
      <path
         d="M 0,0 V 0.526 L -2.688,2.313 H -3.479 Z"
         style="fill:#d62140;fill-opacity:1;fill-rule:nonzero;stroke:none"
         id="path34698"
         inkscape:connector-curvature="0" />
    </g>
    <g
       id="g34700"
       transform="matrix(0.35277777,0,0,-0.35277777,50.063261,98.611598)">
      <path
         d="M 0,0 H -0.79 L -4,-2.135 v -0.199 h 0.493 L 0,-0.001 Z"
         style="fill:#d62140;fill-opacity:1;fill-rule:nonzero;stroke:none"
         id="path34702"
         inkscape:connector-curvature="0" />
    </g>
    <g
       id="g34704"
       transform="matrix(0.35277777,0,0,-0.35277777,47.76329,100.14053)">
      <path
         d="m 0,0 -3.48,-2.314 v -0.019 h 0.763 L 0.52,-0.181 V 0 Z"
         style="fill:#d62140;fill-opacity:1;fill-rule:nonzero;stroke:none"
         id="path34706"
         inkscape:connector-curvature="0" />
    </g>
    <g
       id="g34708"
       transform="matrix(0.35277777,0,0,-0.35277777,46.535491,98.613325)">
      <path
         d="M 0,0 V -0.526 L 2.711,-2.329 H 3.502 Z"
         style="fill:#d62140;fill-opacity:1;fill-rule:nonzero;stroke:none"
         id="path34710"
         inkscape:connector-curvature="0" />
    </g>
  </g>
</svg>
