<?xml version="1.0" encoding="UTF-8" standalone="no"?>
<svg
   xmlns:dc="http://purl.org/dc/elements/1.1/"
   xmlns:cc="http://creativecommons.org/ns#"
   xmlns:rdf="http://www.w3.org/1999/02/22-rdf-syntax-ns#"
   xmlns:svg="http://www.w3.org/2000/svg"
   xmlns="http://www.w3.org/2000/svg"
   xmlns:xlink="http://www.w3.org/1999/xlink"
   xmlns:sodipodi="http://sodipodi.sourceforge.net/DTD/sodipodi-0.dtd"
   xmlns:inkscape="http://www.inkscape.org/namespaces/inkscape"
   width="7.085"
   height="4.7329998"
   version="1.1"
   id="svg31"
   sodipodi:docname="new_caledonia.svg"
   inkscape:version="0.92.4 (5da689c313, 2019-01-14)">
  <metadata
     id="metadata37">
    <rdf:RDF>
      <cc:Work
         rdf:about="">
        <dc:format>image/svg+xml</dc:format>
        <dc:type
           rdf:resource="http://purl.org/dc/dcmitype/StillImage" />
        <dc:title>Flag of New Caledonia</dc:title>
      </cc:Work>
    </rdf:RDF>
  </metadata>
  <defs
     id="defs35" />
  <sodipodi:namedview
     pagecolor="#ffffff"
     bordercolor="#666666"
     borderopacity="1"
     objecttolerance="10"
     gridtolerance="10"
     guidetolerance="10"
     inkscape:pageopacity="0"
     inkscape:pageshadow="2"
     inkscape:window-width="1920"
     inkscape:window-height="1017"
     id="namedview33"
     showgrid="false"
     inkscape:zoom="0.52333333"
     inkscape:cx="450"
     inkscape:cy="225"
     inkscape:window-x="-8"
     inkscape:window-y="-8"
     inkscape:window-maximized="1"
     inkscape:current-layer="svg31" />
  <title
     id="title2">Flag of New Caledonia</title>
  <rect
     width="7.085"
     height="4.7329998"
     id="rect4"
     x="0"
     y="0"
     style="fill:#009543;stroke-width:0.00909936" />
  <rect
     width="7.085"
     height="3.1553333"
     id="rect6"
     x="0"
     y="0"
     style="fill:#ed4135;stroke-width:0.00909936" />
  <rect
     width="7.085"
     height="1.5776666"
     id="rect8"
     x="0"
     y="0"
     style="fill:#0035ad;stroke-width:0.00909936" />
  <ellipse
     cx="2.3616667"
     cy="2.3665161"
     id="circle10"
     rx="1.1609952"
     ry="1.5511618"
     style="fill:#fae600;stroke:#000000;stroke-width:0.04549678" />
  <path
     d="M 2.1648611,2.5978917 H 2.5584722 M 2.1648611,2.2087317 H 2.5584722 M 2.3616667,0.82039171 V 3.4708717"
     id="path12"
     inkscape:connector-curvature="0"
     style="stroke:#000000;stroke-width:0.05459614" />
  <path
     d="m 1.8942141,3.7908117 c 0.4738369,0.25852 0.9179641,0.0159 0.9179641,0.0159 0,0 -0.1676547,-0.24241 -0.2535958,-0.33706 -0.083863,-0.0923 -0.3305625,-0.0887 -0.414748,0 -0.070252,0.074 -0.2717491,0.34677 -0.2496203,0.32118 z"
     id="path14"
     inkscape:connector-curvature="0"
     style="stroke-width:0.00909936" />
  <ellipse
     cx="2.3616667"
     cy="3.0816956"
     rx="0.12989166"
     ry="0.25242665"
     id="ellipse16"
     style="stroke-width:0.00909936" />
  <ellipse
     cx="2.3616667"
     cy="2.4033203"
     rx="0.15744445"
     ry="0.13315506"
     id="ellipse18"
     style="stroke-width:0.00909936" />
  <ellipse
     cx="2.3616667"
     cy="1.7880249"
     rx="0.15744445"
     ry="0.21035555"
     id="ellipse20"
     style="stroke-width:0.00909936" />
  <path
     d="m 2.5506,1.0044517 c -4.72e-5,-1.4e-4 0.013643,0.0302 -0.01506,0.0992 -0.1371813,0.33008 -0.2748429,0.33721 -0.3009708,0.36564 -0.028796,0.0313 -0.040951,0.0292 -0.040951,0.0292 0.00205,-0.0283 0.00397,-0.14387 0.00547,-0.15501 0.020822,-0.15422 0.1951997,-0.1521 0.3316725,-0.31002 0.021318,-0.0247 0.019791,-0.0292 0.019791,-0.0292 z"
     id="path22"
     inkscape:connector-curvature="0"
     style="stroke-width:0.00909936" />
  <g
     id="leaf"
     transform="matrix(0.00787222,0,0,0.01051778,0,1.7089844e-6)">
    <path
       d="m 265.5,163 c 0,0 3.91436,11.22974 4.5,22.5 0.93516,17.99657 18.18031,18.5 30,18.5 v -10 c -8.85851,0 -16.55267,-1.31658 -23,-14.5 -3.18045,-6.50336 -11.5,-16.5 -11.5,-16.5 z"
       id="path24"
       inkscape:connector-curvature="0" />
    <path
       d="m 265,308 c 0,0 6.29638,-7.76543 13.6619,-25.97461 C 282.5048,272.5249 291.6115,267 300,267 v -14 c -19.02757,0 -28.1503,7.0552 -29.11281,17.36332 C 268.90975,291.54089 265,308 265,308 Z"
       id="path26"
       inkscape:connector-curvature="0" />
  </g>
  <use
     xlink:href="#leaf"
     transform="matrix(-1,0,0,1,4.7233333,1.7089844e-6)"
     id="use29"
     x="0"
     y="0"
     width="100%"
     height="100%" />
</svg>
