<?xml version="1.0" encoding="UTF-8" standalone="no"?>
<!-- Created with Inkscape (http://www.inkscape.org/) -->

<svg
   xmlns:dc="http://purl.org/dc/elements/1.1/"
   xmlns:cc="http://creativecommons.org/ns#"
   xmlns:rdf="http://www.w3.org/1999/02/22-rdf-syntax-ns#"
   xmlns:svg="http://www.w3.org/2000/svg"
   xmlns="http://www.w3.org/2000/svg"
   xmlns:sodipodi="http://sodipodi.sourceforge.net/DTD/sodipodi-0.dtd"
   xmlns:inkscape="http://www.inkscape.org/namespaces/inkscape"
   width="7.084836mm"
   height="4.7328668mm"
   viewBox="0 0 7.084836 4.7328668"
   version="1.1"
   id="svg8"
   inkscape:version="0.92.4 (5da689c313, 2019-01-14)"
   sodipodi:docname="oman.svg">
  <defs
     id="defs2">
    <radialGradient
       id="radialGradient37584"
       spreadMethod="pad"
       gradientTransform="matrix(0.975099,0,0,0.975099,159.64062,365.06934)"
       gradientUnits="userSpaceOnUse"
       r="1"
       cy="0"
       cx="0"
       fy="0"
       fx="0">
      <stop
         id="stop37578"
         offset="0"
         style="stop-opacity:1;stop-color:#852c26" />
      <stop
         id="stop37580"
         offset="0.0015476"
         style="stop-opacity:1;stop-color:#852c26" />
      <stop
         id="stop37582"
         offset="1"
         style="stop-opacity:1;stop-color:#451617" />
    </radialGradient>
    <clipPath
       id="clipPath37532"
       clipPathUnits="userSpaceOnUse">
      <path
         inkscape:connector-curvature="0"
         id="path37530"
         d="M 0,400 H 400 V 0 H 0 Z" />
    </clipPath>
    <radialGradient
       id="radialGradient37522"
       spreadMethod="pad"
       gradientTransform="matrix(-0.2637247,0,0,0.2637247,159.68652,365.88965)"
       gradientUnits="userSpaceOnUse"
       r="1"
       cy="0"
       cx="0"
       fy="0"
       fx="0">
      <stop
         id="stop37516"
         offset="0"
         style="stop-opacity:1;stop-color:#852c26" />
      <stop
         id="stop37518"
         offset="0.0015476"
         style="stop-opacity:1;stop-color:#852c26" />
      <stop
         id="stop37520"
         offset="1"
         style="stop-opacity:1;stop-color:#451617" />
    </radialGradient>
    <clipPath
       id="clipPath37354"
       clipPathUnits="userSpaceOnUse">
      <path
         inkscape:connector-curvature="0"
         id="path37352"
         d="M 0,400 H 400 V 0 H 0 Z" />
    </clipPath>
    <radialGradient
       id="radialGradient37344"
       spreadMethod="pad"
       gradientTransform="matrix(0.975099,0,0,0.975099,155.76025,365.06934)"
       gradientUnits="userSpaceOnUse"
       r="1"
       cy="0"
       cx="0"
       fy="0"
       fx="0">
      <stop
         id="stop37338"
         offset="0"
         style="stop-opacity:1;stop-color:#eee54f" />
      <stop
         id="stop37340"
         offset="0.9977451"
         style="stop-opacity:1;stop-color:#e04a20" />
      <stop
         id="stop37342"
         offset="1"
         style="stop-opacity:1;stop-color:#e04a20" />
    </radialGradient>
    <clipPath
       id="clipPath37272"
       clipPathUnits="userSpaceOnUse">
      <path
         inkscape:connector-curvature="0"
         id="path37270"
         d="M 0,400 H 400 V 0 H 0 Z" />
    </clipPath>
    <radialGradient
       id="radialGradient37262"
       spreadMethod="pad"
       gradientTransform="matrix(0.2636045,0,0,0.2636045,155.71484,365.89062)"
       gradientUnits="userSpaceOnUse"
       r="1"
       cy="0"
       cx="0"
       fy="0"
       fx="0">
      <stop
         id="stop37256"
         offset="0"
         style="stop-opacity:1;stop-color:#eee54f" />
      <stop
         id="stop37258"
         offset="0.9977451"
         style="stop-opacity:1;stop-color:#e04a20" />
      <stop
         id="stop37260"
         offset="1"
         style="stop-opacity:1;stop-color:#e04a20" />
    </radialGradient>
    <radialGradient
       id="radialGradient5422"
       spreadMethod="pad"
       gradientTransform="matrix(0.1021146,-0.0756367,0.070541,0.1077099,271.97559,176.14746)"
       gradientUnits="userSpaceOnUse"
       r="1"
       cy="0"
       cx="0"
       fy="0"
       fx="0">
      <stop
         id="stop5416"
         offset="0"
         style="stop-opacity:1;stop-color:#ffffff" />
      <stop
         id="stop5418"
         offset="0.00091915"
         style="stop-opacity:1;stop-color:#ffffff" />
      <stop
         id="stop5420"
         offset="1"
         style="stop-opacity:1;stop-color:#e63e6e" />
    </radialGradient>
    <clipPath
       id="clipPath5374"
       clipPathUnits="userSpaceOnUse">
      <path
         inkscape:connector-curvature="0"
         id="path5372"
         d="M 0,400 H 400 V 0 H 0 Z" />
    </clipPath>
    <radialGradient
       id="radialGradient5364"
       spreadMethod="pad"
       gradientTransform="matrix(0.1318831,-9.013e-4,-1.001e-4,0.1311822,269.56445,176.4248)"
       gradientUnits="userSpaceOnUse"
       r="1"
       cy="0"
       cx="0"
       fy="0"
       fx="0">
      <stop
         id="stop5358"
         offset="0"
         style="stop-opacity:1;stop-color:#ffffff" />
      <stop
         id="stop5360"
         offset="0.00091915"
         style="stop-opacity:1;stop-color:#ffffff" />
      <stop
         id="stop5362"
         offset="1"
         style="stop-opacity:1;stop-color:#e63e6e" />
    </radialGradient>
    <clipPath
       id="clipPath5316"
       clipPathUnits="userSpaceOnUse">
      <path
         inkscape:connector-curvature="0"
         id="path5314"
         d="M 0,400 H 400 V 0 H 0 Z" />
    </clipPath>
    <radialGradient
       id="radialGradient5306"
       spreadMethod="pad"
       gradientTransform="matrix(0.1105445,0.0935377,-0.0930375,0.1086438,268.6875,176.89062)"
       gradientUnits="userSpaceOnUse"
       r="1"
       cy="0"
       cx="0"
       fy="0"
       fx="0">
      <stop
         id="stop5300"
         offset="0"
         style="stop-opacity:1;stop-color:#ffffff" />
      <stop
         id="stop5302"
         offset="0.00091915"
         style="stop-opacity:1;stop-color:#ffffff" />
      <stop
         id="stop5304"
         offset="1"
         style="stop-opacity:1;stop-color:#e63e6e" />
    </radialGradient>
  </defs>
  <sodipodi:namedview
     id="base"
     pagecolor="#ffffff"
     bordercolor="#666666"
     borderopacity="1.0"
     inkscape:pageopacity="0.0"
     inkscape:pageshadow="2"
     inkscape:zoom="11.2"
     inkscape:cx="25.547833"
     inkscape:cy="8.0300575"
     inkscape:document-units="mm"
     inkscape:current-layer="layer1"
     showgrid="false"
     inkscape:window-width="954"
     inkscape:window-height="630"
     inkscape:window-x="-3"
     inkscape:window-y="6"
     inkscape:window-maximized="0" />
  <metadata
     id="metadata5">
    <rdf:RDF>
      <cc:Work
         rdf:about="">
        <dc:format>image/svg+xml</dc:format>
        <dc:type
           rdf:resource="http://purl.org/dc/dcmitype/StillImage" />
        <dc:title></dc:title>
      </cc:Work>
    </rdf:RDF>
  </metadata>
  <g
     inkscape:label="Layer 1"
     inkscape:groupmode="layer"
     id="layer1"
     transform="translate(-54.522584,-94.9527)">
    <g
       id="g33790"
       transform="matrix(0.35277777,0,0,-0.35277777,54.551865,99.656286)">
      <path
         d="M 0,0 H 19.917 V 13.251 H 0 Z M 19.958,-0.042 V 0 Z M -0.083,-0.083 V 13.333 H 20 V -0.042 -0.083 Z"
         style="fill:#221f21;fill-opacity:1;fill-rule:nonzero;stroke:none"
         id="path33792"
         inkscape:connector-curvature="0" />
    </g>
    <path
       d="m 54.537048,99.670964 h 7.05556 v -1.567745 h -7.05556 z"
       style="fill:#399545;fill-opacity:1;fill-rule:nonzero;stroke:none;stroke-width:0.35277778"
       id="path33794"
       inkscape:connector-curvature="0" />
    <path
       d="m 54.537048,98.103219 h 7.05556 v -1.567744 h -7.05556 z"
       style="fill:#ef323c;fill-opacity:1;fill-rule:nonzero;stroke:none;stroke-width:0.35277778"
       id="path33796"
       inkscape:connector-curvature="0" />
    <path
       d="m 61.592608,94.967378 h -7.05556 v 1.567744 h 7.05556 z"
       style="fill:#ffffff;fill-opacity:1;fill-rule:nonzero;stroke:none;stroke-width:0.35277778"
       id="path33798"
       inkscape:connector-curvature="0" />
    <path
       d="m 56.300938,94.967378 h -1.76389 v 4.703586 h 1.76389 z"
       style="fill:#ef323c;fill-opacity:1;fill-rule:nonzero;stroke:none;stroke-width:0.35277778"
       id="path33800"
       inkscape:connector-curvature="0" />
    <g
       id="g33802"
       transform="matrix(0.35277777,0,0,-0.35277777,55.924555,96.365893)">
      <path
         d="m 0,0 -0.041,-0.011 c -0.222,0.18 -0.513,0.43 -0.873,0.782 -0.534,0.522 -0.798,0.872 -0.95,1.089 l 0.03,0.015 c -0.481,0.831 -0.943,1.473 -1.031,1.434 -0.088,-0.041 0.232,-0.748 0.714,-1.58 l 0.033,0.016 C -1.955,1.472 -1.635,1.088 -1.226,0.68 -0.925,0.379 -0.63,0.109 -0.372,-0.098 L -0.381,-0.1 C -0.022,-0.439 0.38,-0.579 0.492,-0.52 0.604,-0.459 0.29,-0.319 0,0"
         style="fill:#ffffff;fill-opacity:1;fill-rule:nonzero;stroke:none"
         id="path33804"
         inkscape:connector-curvature="0" />
    </g>
    <g
       id="g33806"
       transform="matrix(0.35277777,0,0,-0.35277777,56.089237,96.539849)">
      <path
         d="m 0,0 -0.05,-0.007 c -0.131,0 -0.421,0.105 -0.716,0.376 l 0.297,0.076 C -0.347,0.313 -0.226,0.218 -0.135,0.147 L -0.026,0.062 0.013,0.014 Z m -0.017,0.071 c -0.08,0.071 -0.261,0.187 -0.445,0.387 L -0.464,0.46 H -0.468 L -0.793,0.376 -0.785,0.368 c 0.301,-0.28 0.597,-0.389 0.735,-0.389 l 0.055,0.009 0.021,0.026 z M -2.563,2.278 C -2.618,2.372 -2.659,2.44 -2.709,2.531 l 0.178,0.083 c 0.053,-0.089 0.093,-0.16 0.147,-0.255 z m 0.04,0.348 -0.002,0.005 -0.006,-0.003 -0.198,-0.09 0.004,-0.007 C -2.671,2.435 -2.629,2.365 -2.57,2.266 l 0.002,-0.005 0.203,0.093 -0.004,0.006 c -0.058,0.1 -0.097,0.172 -0.154,0.266 m 2.545,-2.647 -0.065,-0.011 c -0.159,0 -0.49,0.14 -0.791,0.422 l 0.365,0.095 C -0.345,0.349 -0.217,0.247 -0.12,0.168 l 0.119,-0.1 0.043,-0.063 z m -1.71,1.199 c -0.301,0.301 -0.553,0.587 -0.73,0.827 l -0.156,0.23 0.093,0.042 0.148,0.069 C -2.181,2.128 -1.916,1.777 -1.385,1.259 -1.031,0.912 -0.742,0.664 -0.522,0.485 L -0.836,0.402 c -0.258,0.207 -0.553,0.476 -0.852,0.776 m -0.896,1.067 c -0.058,0.1 -0.112,0.195 -0.165,0.29 l 0.237,0.11 C -2.457,2.553 -2.399,2.456 -2.343,2.357 L -2.342,2.356 -2.58,2.247 Z M -3.24,3.514 c -0.041,0.102 -0.065,0.174 -0.065,0.208 l 0.007,0.019 10e-4,10e-4 0.045,-0.026 0.13,-0.149 z m 0.127,0.043 C -2.967,3.366 -2.753,3.044 -2.52,2.656 L -2.756,2.548 c -0.136,0.244 -0.254,0.47 -0.345,0.657 -0.055,0.114 -0.1,0.214 -0.134,0.296 z M -2.616,2.23 C -2.828,2.598 -3.01,2.94 -3.137,3.212 -3.265,3.483 -3.34,3.686 -3.339,3.763 l 0.01,0.031 0.006,10e-4 h 10e-4 L -3.189,3.688 C -2.998,3.474 -2.659,2.973 -2.31,2.371 L -2.33,2.362 c -0.057,0.1 -0.115,0.203 -0.171,0.297 L -2.504,2.663 -2.507,2.662 c -0.16,0.267 -0.312,0.502 -0.439,0.687 -0.086,0.125 -0.162,0.226 -0.221,0.297 L -3.243,3.727 -3.296,3.755 -3.305,3.754 -3.318,3.722 c 10e-4,-0.07 0.077,-0.258 0.206,-0.523 0.091,-0.187 0.208,-0.413 0.344,-0.657 L -2.771,2.54 -2.768,2.534 C -2.714,2.44 -2.653,2.338 -2.596,2.239 Z M 0.008,0.078 C -0.08,0.162 -0.275,0.292 -0.462,0.497 L -0.464,0.5 -0.468,0.499 -0.507,0.49 c -0.22,0.179 -0.51,0.429 -0.868,0.779 -0.52,0.507 -0.784,0.853 -0.938,1.072 l -0.008,0.011 0.03,0.013 -0.004,0.007 C -2.528,2.774 -2.757,3.134 -2.942,3.393 -3.033,3.521 -3.114,3.625 -3.179,3.696 L -3.323,3.81 -3.335,3.808 -3.353,3.763 c 0,-0.084 0.075,-0.284 0.204,-0.557 0.128,-0.273 0.311,-0.619 0.524,-0.987 l 0.004,-0.005 0.005,10e-4 0.027,0.013 0.003,10e-4 0.157,-0.232 C -2.251,1.757 -1.998,1.469 -1.697,1.168 -1.4,0.871 -1.109,0.604 -0.853,0.399 L -0.86,0.396 -0.852,0.388 c 0.306,-0.287 0.643,-0.434 0.809,-0.434 l 0.071,0.015 0.028,0.036 z m -3.272,3.538 0.04,-0.041 0.041,0.041 -0.041,0.04 z m 0.819,-1.22 -0.095,0.053 0.006,0.1 z M -2.546,2.33 -2.54,2.435 -2.441,2.378 Z m -0.007,0.127 -0.099,0.056 0.105,0.049 z M -2.559,2.342 -2.648,2.495 -2.553,2.441 Z m -0.117,0.175 0.004,-0.007 0.115,-0.199 0.14,0.064 -0.12,0.206 z"
         style="fill:#e42a34;fill-opacity:1;fill-rule:nonzero;stroke:none"
         id="path33808"
         inkscape:connector-curvature="0" />
    </g>
    <g
       id="g33810"
       transform="matrix(0.35277777,0,0,-0.35277777,55.645866,96.232895)">
      <path
         d="M 0,0 V 0.004 L 0.021,0.035 0.039,0.062 0.037,0.068 0.002,0.094 -0.048,0.115 -0.066,0.152 V 0.153 L -0.095,0.146 -0.123,0.145 -0.129,0.15 -0.126,0.156 h 0.003 L -0.097,0.159 -0.062,0.172 -0.051,0.164 -0.052,0.161 -0.053,0.152 -0.04,0.127 0.006,0.106 0.049,0.075 0.052,0.062 0.031,0.026 0.014,0.004 V 0.002 L 0.021,-0.001 0.032,0.001 0.039,0.004 0.047,0.001 0.045,-0.008 0.021,-0.015 H 0.019 Z"
         style="fill:#e42a34;fill-opacity:1;fill-rule:nonzero;stroke:none"
         id="path33812"
         inkscape:connector-curvature="0" />
    </g>
    <g
       id="g33814"
       transform="matrix(0.35277777,0,0,-0.35277777,55.711835,96.288706)">
      <path
         d="M 0,0 V 0.01 L 0.021,0.07 0.019,0.088 -0.053,0.141 -0.079,0.145 -0.115,0.139 -0.132,0.133 -0.141,0.138 -0.137,0.146 -0.079,0.158 -0.047,0.152 0.032,0.092 0.035,0.07 0.01,0 0.006,-0.001 v 0 z"
         style="fill:#e42a34;fill-opacity:1;fill-rule:nonzero;stroke:none"
         id="path33816"
         inkscape:connector-curvature="0" />
    </g>
    <g
       id="g33818"
       transform="matrix(0.35277777,0,0,-0.35277777,55.749895,96.326595)">
      <path
         d="M 0,0 -0.065,0.053 -0.075,0.076 -0.07,0.097 -0.061,0.099 -0.058,0.09 -0.06,0.086 -0.061,0.076 -0.055,0.062 0,0.014 H 0.001 L 0.034,0.029 0.068,0.05 h 0.006 l 0.04,-0.025 v 0 L 0.112,0.016 0.103,0.017 0.094,0.027 0.074,0.037 H 0.072 L 0.041,0.018 0.001,0 Z"
         style="fill:#e42a34;fill-opacity:1;fill-rule:nonzero;stroke:none"
         id="path33820"
         inkscape:connector-curvature="0" />
    </g>
    <g
       id="g33822"
       transform="matrix(0.35277777,0,0,-0.35277777,55.825005,96.384486)">
      <path
         d="M 0,0 -0.004,0.027 0.005,0.083 -0.005,0.072 -0.007,0.07 -0.092,0.05 -0.146,0.07 -0.162,0.11 -0.128,0.18 h 0.009 V 0.171 L -0.134,0.152 -0.148,0.11 -0.136,0.08 -0.092,0.062 -0.038,0.072 -0.014,0.083 0.003,0.099 0.019,0.119 0.021,0.125 0.035,0.119 0.031,0.111 0.021,0.086 0.01,0.027 0.012,0.006 0.01,-0.003 H 0.006 Z"
         style="fill:#e42a34;fill-opacity:1;fill-rule:nonzero;stroke:none"
         id="path33824"
         inkscape:connector-curvature="0" />
    </g>
    <g
       id="g33826"
       transform="matrix(0.35277777,0,0,-0.35277777,56.015685,96.511943)">
      <path
         d="M 0,0 -0.003,0.013 0.008,0.055 0.009,0.068 -0.021,0.111 -0.035,0.115 -0.125,0.066 -0.17,0.057 h -0.005 l -0.001,0.013 0.017,0.015 0.001,10e-4 0.01,0.022 0.01,0.035 -0.001,0.003 -0.019,0.04 -0.008,0.019 -0.04,-0.011 -0.022,0.004 -0.014,0.014 V 0.215 0.216 L -0.241,0.221 -0.268,0.198 -0.275,0.173 -0.283,0.137 -0.292,0.119 -0.308,0.115 -0.333,0.125 -0.347,0.158 -0.345,0.17 v 0.007 l -0.016,0.022 -0.03,0.003 -0.042,0.009 -0.017,0.02 -0.001,0.003 0.037,0.041 0.045,0.018 h 0.003 l 0.034,-0.018 0.021,-0.005 0.012,0.003 0.007,0.014 v 0.002 l 0.005,0.008 0.008,-0.004 V 0.287 L -0.291,0.263 -0.311,0.256 -0.338,0.265 -0.366,0.279 H -0.367 L -0.408,0.264 -0.437,0.234 V 0.232 l 0.02,-0.011 0.04,-0.005 0.02,-0.004 0.025,-0.035 -0.001,-0.008 V 0.158 l 0.008,-0.022 0.017,-0.007 0.009,0.003 0.001,0.001 0.003,0.008 0.003,0.022 0.012,0.043 0.031,0.026 0.025,0.016 L -0.216,0.237 -0.218,0.235 -0.222,0.231 -0.228,0.216 V 0.215 l 0.005,-0.005 0.017,-0.003 0.038,0.014 0.006,0.016 0.005,-0.016 0.011,-0.03 0.017,-0.037 0.004,-0.011 -0.02,-0.061 -0.007,-0.01 0.021,0.006 0.096,0.051 0.021,-0.005 0.036,-0.056 V 0.052 L 0.011,0.013 0.013,0.006 0.064,-0.014 0.086,-0.01 0.095,-0.014 0.092,-0.021 0.064,-0.027 Z"
         style="fill:#e42a34;fill-opacity:1;fill-rule:nonzero;stroke:none"
         id="path33828"
         inkscape:connector-curvature="0" />
    </g>
    <g
       id="g33830"
       transform="matrix(0.35277777,0,0,-0.35277777,55.543875,96.109917)">
      <path
         d="M 0,0 -0.01,0.021 V 0.028 L -0.006,0.046 -0.01,0.054 -0.019,0.051 -0.023,0.028 V 0.026 L -0.029,0.021 -0.051,0.013 H -0.054 L -0.121,0.044 -0.136,0.087 -0.139,0.123 -0.146,0.13 -0.152,0.122 -0.149,0.086 -0.13,0.034 l 0.074,-0.036 0.006,0.001 0.029,0.013 0.009,-0.019 0.007,-0.004 0.002,10e-4 z"
         style="fill:#e42a34;fill-opacity:1;fill-rule:nonzero;stroke:none"
         id="path33832"
         inkscape:connector-curvature="0" />
    </g>
    <g
       id="g33834"
       transform="matrix(0.35277777,0,0,-0.35277777,55.626565,96.153311)">
      <path
         d="m 0,0 -0.052,0.009 -0.067,0.07 -0.045,0.015 -0.013,0.001 -0.089,-0.019 -0.004,-0.009 0.008,-0.005 0.031,0.009 0.054,0.01 0.011,-0.001 0.041,-0.013 0.057,-0.06 -0.028,-0.013 -0.002,-0.009 0.006,-0.002 h 0.004 l 0.008,0.006 0.023,0.007 h 0.005 l 0.031,-0.004 0.016,-0.005 0.009,0.005 z"
         style="fill:#e42a34;fill-opacity:1;fill-rule:nonzero;stroke:none"
         id="path33836"
         inkscape:connector-curvature="0" />
    </g>
    <g
       id="g33838"
       transform="matrix(0.35277777,0,0,-0.35277777,54.913606,96.365893)">
      <path
         d="m 0,0 0.041,-0.011 c 0.221,0.18 0.512,0.43 0.873,0.782 0.534,0.522 0.798,0.872 0.95,1.089 L 1.833,1.875 C 2.315,2.706 2.777,3.348 2.865,3.309 2.953,3.268 2.632,2.561 2.151,1.729 L 2.117,1.745 C 1.953,1.472 1.634,1.088 1.226,0.68 0.925,0.379 0.63,0.109 0.371,-0.098 L 0.38,-0.1 C 0.022,-0.439 -0.381,-0.579 -0.492,-0.52 -0.604,-0.459 -0.291,-0.319 0,0"
         style="fill:#ffffff;fill-opacity:1;fill-rule:nonzero;stroke:none"
         id="path33840"
         inkscape:connector-curvature="0" />
    </g>
    <g
       id="g33842"
       transform="matrix(0.35277777,0,0,-0.35277777,54.744267,96.535049)">
      <path
         d="M 0,0 0.039,0.049 0.148,0.134 C 0.239,0.204 0.359,0.3 0.481,0.432 L 0.779,0.355 C 0.484,0.084 0.194,-0.021 0.063,-0.021 l -0.049,0.007 z m -0.014,0 0.021,-0.025 0.056,-0.009 c 0.138,0 0.434,0.108 0.734,0.388 L 0.807,0.362 0.481,0.446 H 0.478 L 0.475,0.444 C 0.291,0.244 0.11,0.128 0.03,0.058 Z M 2.397,2.346 C 2.452,2.44 2.49,2.512 2.544,2.601 L 2.722,2.518 C 2.673,2.427 2.63,2.358 2.576,2.265 Z M 2.382,2.347 2.378,2.34 2.581,2.247 2.584,2.252 c 0.058,0.1 0.101,0.169 0.154,0.266 L 2.742,2.524 2.544,2.614 2.538,2.617 2.536,2.612 C 2.479,2.519 2.44,2.446 2.382,2.347 m -2.41,-2.356 0.043,0.064 0.117,0.099 C 0.229,0.233 0.357,0.335 0.481,0.472 L 0.847,0.376 C 0.546,0.095 0.214,-0.046 0.056,-0.046 l -0.065,0.012 z M 0.85,0.389 0.535,0.472 c 0.22,0.178 0.509,0.426 0.862,0.773 0.532,0.519 0.796,0.869 0.95,1.087 L 2.495,2.264 2.587,2.222 2.432,1.991 C 2.254,1.751 2.002,1.466 1.701,1.164 1.401,0.864 1.107,0.596 0.85,0.389 M 2.593,2.233 2.355,2.343 2.356,2.344 C 2.413,2.442 2.47,2.539 2.525,2.631 L 2.762,2.521 C 2.709,2.427 2.654,2.331 2.597,2.231 Z M 3.134,3.554 3.265,3.702 3.309,3.729 3.311,3.728 3.317,3.708 C 3.318,3.675 3.294,3.603 3.253,3.5 Z M 3.249,3.487 C 3.214,3.405 3.169,3.306 3.113,3.191 3.023,3.004 2.905,2.778 2.768,2.534 L 2.532,2.643 c 0.234,0.387 0.447,0.71 0.594,0.9 z M 2.609,2.226 C 2.666,2.324 2.728,2.427 2.78,2.521 L 2.784,2.526 2.781,2.528 C 2.917,2.772 3.035,2.998 3.126,3.186 3.254,3.45 3.33,3.639 3.33,3.708 L 3.317,3.74 3.309,3.741 3.256,3.713 3.181,3.632 C 3.121,3.562 3.046,3.46 2.959,3.335 2.831,3.15 2.681,2.915 2.52,2.648 L 2.517,2.649 2.513,2.646 C 2.458,2.552 2.399,2.448 2.342,2.349 L 2.323,2.357 C 2.671,2.959 3.01,3.46 3.202,3.674 L 3.336,3.781 3.341,3.78 3.352,3.749 C 3.353,3.672 3.277,3.47 3.15,3.198 3.021,2.927 2.84,2.584 2.628,2.217 Z m -2.651,-2.235 0.026,-0.036 0.072,-0.015 c 0.166,0 0.504,0.147 0.809,0.434 L 0.874,0.383 0.865,0.386 C 1.122,0.591 1.414,0.857 1.71,1.154 2.012,1.455 2.264,1.743 2.442,1.983 L 2.599,2.216 2.602,2.214 2.628,2.201 2.635,2.2 2.637,2.205 C 2.851,2.573 3.034,2.919 3.162,3.192 3.291,3.466 3.365,3.665 3.366,3.749 L 3.348,3.794 3.336,3.796 3.191,3.683 C 3.127,3.611 3.047,3.507 2.955,3.379 2.771,3.12 2.542,2.761 2.308,2.358 L 2.304,2.352 2.334,2.338 2.326,2.327 C 2.172,2.108 1.908,1.763 1.389,1.255 1.03,0.905 0.74,0.655 0.52,0.477 L 0.481,0.485 0.478,0.486 0.475,0.483 C 0.288,0.278 0.093,0.148 0.005,0.064 Z M 3.235,3.643 3.196,3.603 3.235,3.562 3.277,3.603 Z M 2.546,2.535 2.553,2.436 2.458,2.382 Z M 2.455,2.364 2.554,2.421 2.56,2.316 Z M 2.56,2.548 2.664,2.499 2.565,2.443 Z M 2.566,2.428 2.662,2.481 2.572,2.328 Z M 2.55,2.567 2.431,2.361 2.57,2.297 2.686,2.496 2.689,2.503 Z"
         style="fill:#e42a34;fill-opacity:1;fill-rule:nonzero;stroke:none"
         id="path33844"
         inkscape:connector-curvature="0" />
    </g>
    <g
       id="g33846"
       transform="matrix(0.35277777,0,0,-0.35277777,55.191987,96.232895)">
      <path
         d="m 0,0 v 0.004 l -0.021,0.031 -0.017,0.027 0.001,0.006 0.036,0.026 0.05,0.021 0.018,0.037 V 0.153 L 0.095,0.146 0.122,0.145 H 0.124 L 0.13,0.15 0.124,0.156 0.097,0.159 0.063,0.172 0.052,0.164 0.053,0.161 0.055,0.152 0.04,0.127 -0.006,0.106 -0.049,0.075 -0.051,0.062 -0.031,0.026 -0.013,0.004 -0.014,0.002 -0.02,-0.001 -0.032,0.001 -0.038,0.004 -0.046,0.001 -0.043,-0.008 -0.02,-0.015 h 0.001 z"
         style="fill:#e42a34;fill-opacity:1;fill-rule:nonzero;stroke:none"
         id="path33848"
         inkscape:connector-curvature="0" />
    </g>
    <g
       id="g33850"
       transform="matrix(0.35277777,0,0,-0.35277777,55.126156,96.288706)">
      <path
         d="M 0,0 V 0.01 L -0.021,0.07 -0.019,0.088 0.053,0.141 0.08,0.145 0.115,0.139 0.132,0.133 0.141,0.138 0.137,0.146 0.08,0.158 0.047,0.152 -0.032,0.092 -0.035,0.07 -0.009,0 -0.005,-0.001 Z"
         style="fill:#e42a34;fill-opacity:1;fill-rule:nonzero;stroke:none"
         id="path33852"
         inkscape:connector-curvature="0" />
    </g>
    <g
       id="g33854"
       transform="matrix(0.35277777,0,0,-0.35277777,55.087916,96.326595)">
      <path
         d="M 0,0 0.066,0.053 0.075,0.076 0.07,0.097 0.062,0.099 0.059,0.09 0.06,0.086 0.062,0.076 0.056,0.062 0,0.014 v 0 L -0.033,0.029 -0.068,0.05 H -0.074 L -0.113,0.025 v 0 l 0.002,-0.009 0.009,0.001 0.009,0.01 0.019,0.01 h 0.003 l 0.03,-0.019 z"
         style="fill:#e42a34;fill-opacity:1;fill-rule:nonzero;stroke:none"
         id="path33856"
         inkscape:connector-curvature="0" />
    </g>
    <g
       id="g33858"
       transform="matrix(0.35277777,0,0,-0.35277777,55.013155,96.384486)">
      <path
         d="M 0,0 0.004,0.027 -0.006,0.083 0.005,0.072 V 0.07 H 0.007 L 0.091,0.05 0.146,0.07 0.162,0.11 0.128,0.18 H 0.119 V 0.171 L 0.134,0.152 0.148,0.11 0.136,0.08 0.091,0.062 0.038,0.072 0.013,0.083 -0.002,0.099 -0.019,0.119 -0.021,0.125 -0.034,0.119 -0.031,0.111 -0.021,0.086 -0.009,0.027 -0.013,0.006 -0.009,-0.003 h 0.002 z"
         style="fill:#e42a34;fill-opacity:1;fill-rule:nonzero;stroke:none"
         id="path33860"
         inkscape:connector-curvature="0" />
    </g>
    <g
       id="g33862"
       transform="matrix(0.35277777,0,0,-0.35277777,54.822306,96.511943)">
      <path
         d="M 0,0 0.002,0.013 -0.009,0.055 V 0.068 L 0.02,0.111 0.035,0.115 0.125,0.066 0.171,0.057 H 0.174 L 0.177,0.07 0.158,0.085 v 10e-4 0 L 0.148,0.108 0.139,0.143 0.14,0.146 0.158,0.186 0.167,0.205 0.205,0.194 0.228,0.198 0.241,0.212 0.242,0.215 V 0.216 L 0.241,0.221 0.268,0.198 0.276,0.173 0.284,0.137 0.292,0.119 0.308,0.115 0.333,0.125 0.346,0.158 V 0.17 L 0.345,0.177 0.362,0.199 0.391,0.202 0.434,0.211 0.451,0.231 V 0.234 L 0.414,0.275 0.369,0.293 H 0.366 L 0.332,0.275 0.312,0.27 0.299,0.273 0.292,0.287 V 0.289 L 0.287,0.297 0.28,0.293 0.278,0.287 0.291,0.263 0.312,0.256 0.338,0.265 0.366,0.279 H 0.368 L 0.407,0.264 0.437,0.234 V 0.232 L 0.417,0.221 0.377,0.216 0.357,0.212 0.332,0.177 V 0.169 L 0.333,0.158 0.325,0.136 0.308,0.129 0.3,0.132 H 0.299 V 0.133 L 0.295,0.141 0.292,0.163 0.28,0.206 0.249,0.232 0.225,0.248 0.217,0.237 0.219,0.235 0.223,0.231 0.228,0.216 V 0.215 L 0.223,0.21 0.205,0.207 0.169,0.221 0.163,0.237 0.157,0.221 0.146,0.191 0.129,0.154 0.125,0.143 0.146,0.082 0.152,0.072 0.131,0.078 0.035,0.129 0.014,0.124 -0.023,0.068 -0.022,0.052 -0.01,0.013 -0.013,0.006 l -0.051,-0.02 -0.023,0.004 -0.008,-0.004 0.003,-0.007 0.028,-0.006 z"
         style="fill:#e42a34;fill-opacity:1;fill-rule:nonzero;stroke:none"
         id="path33864"
         inkscape:connector-curvature="0" />
    </g>
    <g
       id="g33866"
       transform="matrix(0.35277777,0,0,-0.35277777,55.294105,96.109917)">
      <path
         d="M 0,0 0.009,0.021 V 0.028 L 0.006,0.046 0.011,0.054 0.019,0.051 0.023,0.028 V 0.026 L 0.03,0.021 0.052,0.013 H 0.055 L 0.122,0.044 0.136,0.087 0.14,0.123 0.146,0.13 0.152,0.122 0.149,0.086 0.13,0.034 0.055,-0.002 0.049,-0.001 0.021,0.012 0.012,-0.007 0.006,-0.011 0.003,-0.01 Z"
         style="fill:#e42a34;fill-opacity:1;fill-rule:nonzero;stroke:none"
         id="path33868"
         inkscape:connector-curvature="0" />
    </g>
    <g
       id="g33870"
       transform="matrix(0.35277777,0,0,-0.35277777,55.211775,96.153311)">
      <path
         d="M 0,0 0.052,0.009 0.117,0.079 0.162,0.094 0.176,0.095 0.265,0.076 0.269,0.067 0.261,0.062 0.23,0.071 0.176,0.081 0.165,0.08 0.125,0.067 0.067,0.007 0.096,-0.006 0.097,-0.015 0.091,-0.017 H 0.088 L 0.079,-0.011 0.056,-0.004 H 0.052 L 0.021,-0.008 0.003,-0.013 -0.004,-0.008 Z"
         style="fill:#e42a34;fill-opacity:1;fill-rule:nonzero;stroke:none"
         id="path33872"
         inkscape:connector-curvature="0" />
    </g>
    <g
       id="g33874"
       transform="matrix(0.35277777,0,0,-0.35277777,55.537345,95.581105)">
      <path
         d="m 0,0 c -0.101,-0.002 -0.167,0.059 -0.167,0.119 h -0.025 v 0.119 h -0.024 v 0.119 0.12 h -0.023 v 0.16 h 0.008 V 0.73 l 0.155,0.108 0.018,-0.002 0.069,0.06 -0.069,0.061 -0.009,-0.001 C -0.094,1.021 -0.17,1.073 -0.266,1.09 V 1.096 L -0.335,1.154 -0.405,1.096 -0.404,1.09 C -0.501,1.073 -0.577,1.021 -0.603,0.956 l -0.01,0.001 -0.069,-0.061 0.069,-0.06 0.019,0.002 0.155,-0.108 V 0.637 h 0.007 V 0.477 H -0.455 V 0.357 0.238 h -0.024 v -0.12 h -0.024 c 0,-0.059 -0.067,-0.12 -0.168,-0.12 v -0.099 c 0,-0.669 0.004,-0.922 -0.047,-0.956 -0.048,-0.04 -1.406,0 -1.406,-0.201 0,-0.198 1.119,-0.398 1.453,-0.398 0.448,0 0.672,0.2 0.672,0.599 v 0.995 H 0 Z"
         style="fill:#ffffff;fill-opacity:1;fill-rule:nonzero;stroke:none"
         id="path33876"
         inkscape:connector-curvature="0" />
    </g>
    <g
       id="g33878"
       transform="matrix(0.35277777,0,0,-0.35277777,54.777006,95.736116)">
      <path
         d="M 0,0 H 0.726 L 0.799,-0.069 V -0.412 L 0.726,-0.479 H 0 l -0.072,0.067 v 0.343 z"
         style="fill:#ffffff;fill-opacity:1;fill-rule:nonzero;stroke:none"
         id="path33880"
         inkscape:connector-curvature="0" />
    </g>
    <g
       id="g33882"
       transform="matrix(0.35277777,0,0,-0.35277777,54.777006,95.907669)">
      <path
         d="M 0,0 -0.079,0.074 V 0.417 L 0,0.492 V 0.486 0.479 L -0.066,0.417 V 0.074 L 0,0.015 H 0.726 L 0.793,0.074 V 0.417 L 0.726,0.479 H 0 V 0.486 0.492 H 0.726 L 0.806,0.417 V 0.074 L 0.726,0 Z"
         style="fill:#e42a34;fill-opacity:1;fill-rule:nonzero;stroke:none"
         id="path33884"
         inkscape:connector-curvature="0" />
    </g>
    <g
       id="g33886"
       transform="matrix(0.35277777,0,0,-0.35277777,54.783536,95.743347)">
      <path
         d="M 0,0 H 0.69 L 0.758,-0.062 V -0.376 L 0.69,-0.438 H 0 l -0.069,0.062 v 0.314 z"
         style="fill:#ffffff;fill-opacity:1;fill-rule:nonzero;stroke:none"
         id="path33888"
         inkscape:connector-curvature="0" />
    </g>
    <g
       id="g33890"
       transform="matrix(0.35277777,0,0,-0.35277777,54.783536,95.900121)">
      <path
         d="M 0,0 -0.076,0.068 V 0.382 L 0,0.451 V 0.444 0.437 L -0.062,0.382 V 0.068 L 0,0.013 H 0.69 L 0.752,0.068 V 0.382 L 0.69,0.437 H 0 V 0.444 0.451 H 0.69 L 0.765,0.382 V 0.068 L 0.69,0 Z"
         style="fill:#e42a34;fill-opacity:1;fill-rule:nonzero;stroke:none"
         id="path33892"
         inkscape:connector-curvature="0" />
    </g>
    <g
       id="g33894"
       transform="matrix(0.35277777,0,0,-0.35277777,54.895016,95.785397)">
      <path
         d="m 0,0 0.042,-0.003 10e-4,-0.018 0.036,-0.017 0.026,0.021 0.032,-0.016 -0.031,-0.019 0.008,-0.027 0.038,0.002 V -0.112 L 0.122,-0.111 0.106,-0.134 0.14,-0.157 0.114,-0.179 0.085,-0.156 0.043,-0.165 0.045,-0.197 0,-0.2 l -0.006,0.031 -0.038,0.016 -0.021,-0.022 -0.032,0.017 0.02,0.024 -0.024,0.016 h -0.032 l -0.002,0.045 0.032,-0.003 0.023,0.026 -0.027,0.02 0.035,0.024 0.024,-0.018 0.042,0.005 z"
         style="fill:#ffffff;fill-opacity:1;fill-rule:nonzero;stroke:none"
         id="path33896"
         inkscape:connector-curvature="0" />
    </g>
    <g
       id="g33898"
       transform="matrix(0.35277777,0,0,-0.35277777,54.895156,95.843606)">
      <path
         d="m 0,0 0.005,-0.027 0.033,0.001 -0.002,0.032 0.05,0.01 0.028,-0.02 L 0.129,0.008 0.097,0.031 0.118,0.062 0.145,0.059 V 0.08 H 0.109 L 0.099,0.115 0.123,0.13 0.105,0.141 0.078,0.118 0.037,0.141 0.035,0.156 0.005,0.157 -0.001,0.139 -0.05,0.133 -0.073,0.15 -0.095,0.135 -0.07,0.116 -0.1,0.082 -0.128,0.084 -0.127,0.054 h 0.028 l 0.031,-0.023 -0.018,-0.023 0.019,-0.009 0.022,0.021 z m -0.012,-0.009 -0.03,0.012 -0.021,-0.022 -0.045,0.022 0.02,0.026 -0.016,0.01 H -0.14 l -0.003,0.061 0.037,-0.005 0.016,0.02 -0.029,0.02 0.047,0.031 0.026,-0.02 0.034,0.005 0.006,0.015 0.001,0.006 L 0.047,0.169 0.05,0.148 0.077,0.134 0.104,0.156 0.149,0.132 0.114,0.109 0.119,0.094 H 0.158 V 0.045 L 0.125,0.047 0.115,0.033 0.151,0.008 0.114,-0.021 0.083,0.001 0.05,-0.005 0.052,-0.038 -0.005,-0.042 Z"
         style="fill:#e42a34;fill-opacity:1;fill-rule:nonzero;stroke:none"
         id="path33900"
         inkscape:connector-curvature="0" />
    </g>
    <g
       id="g33902"
       transform="matrix(0.35277777,0,0,-0.35277777,54.899636,95.805011)">
      <path
         d="M 0,0 0.046,-0.039 0,-0.078 -0.046,-0.039 Z"
         style="fill:#ffffff;fill-opacity:1;fill-rule:nonzero;stroke:none"
         id="path33904"
         inkscape:connector-curvature="0" />
    </g>
    <g
       id="g33906"
       transform="matrix(0.35277777,0,0,-0.35277777,54.881046,95.818806)">
      <path
         d="M 0,0 0.053,0.046 V 0.039 0.032 L 0.013,0 0.053,-0.032 0.092,0 0.053,0.032 V 0.039 0.046 L 0.105,0 0.053,-0.046 Z"
         style="fill:#e42a34;fill-opacity:1;fill-rule:nonzero;stroke:none"
         id="path33908"
         inkscape:connector-curvature="0" />
    </g>
    <g
       id="g33910"
       transform="matrix(0.35277777,0,0,-0.35277777,55.015594,95.764726)">
      <path
         d="M 0,0 -0.012,0.011 0,0.021 0.012,0.011 Z m -0.044,0 -0.012,0.011 0.012,0.01 0.011,-0.01 z m -0.044,0 -0.014,0.011 0.014,0.01 0.01,-0.01 z m -0.046,0 -0.012,0.011 0.012,0.01 0.012,-0.01 z m -0.045,0 -0.012,0.011 0.012,0.01 0.012,-0.01 z m -0.044,0 -0.012,0.011 0.012,0.01 0.012,-0.01 z m -0.045,0 -0.012,0.011 0.012,0.01 0.012,-0.01 z m -0.044,0 -0.013,0.011 0.013,0.01 0.011,-0.01 z m -0.046,0 -0.012,0.011 0.012,0.01 0.013,-0.01 z m -0.044,0 -0.012,0.011 0.012,0.01 0.012,-0.01 z m -0.044,0 -0.013,0.011 0.013,0.01 0.011,-0.01 z m -0.046,0 -0.011,0.011 0.011,0.01 0.012,-0.01 z m -0.045,0 -0.012,0.011 0.012,0.01 0.013,-0.01 z m -0.045,0 -0.011,0.011 0.011,0.01 0.013,-0.01 z m -0.043,0 -0.013,0.011 0.013,0.01 0.011,-0.01 z M 0.033,0.011 0.062,0.035 V 0.046 H 0.052 L 0.022,0.02 0.01,0.03 0.016,0.035 V 0.046 H 0.006 L 0,0.04 -0.006,0.046 h -0.01 V 0.035 l 0.007,-0.005 -0.013,-0.01 -0.012,0.01 0.005,0.005 0.001,0.011 h -0.01 L -0.044,0.04 -0.051,0.046 h -0.01 L -0.06,0.035 -0.054,0.03 -0.066,0.02 -0.079,0.03 -0.074,0.035 -0.072,0.046 H -0.083 L -0.088,0.04 -0.096,0.046 H -0.105 V 0.035 l 0.006,-0.005 -0.013,-0.01 -0.012,0.01 0.005,0.005 0.001,0.011 h -0.01 L -0.134,0.04 -0.141,0.046 H -0.15 V 0.035 L -0.144,0.03 -0.157,0.02 -0.167,0.03 -0.163,0.035 V 0.046 H -0.172 L -0.179,0.04 -0.185,0.046 h -0.01 L -0.194,0.035 -0.189,0.03 -0.202,0.02 -0.213,0.03 -0.208,0.035 V 0.046 H -0.216 L -0.223,0.04 -0.23,0.046 H -0.24 V 0.035 L -0.234,0.03 -0.246,0.02 -0.258,0.03 -0.252,0.035 v 0.011 h -0.01 L -0.268,0.04 -0.274,0.046 H -0.285 L -0.284,0.035 -0.279,0.03 -0.29,0.02 -0.303,0.03 -0.297,0.035 -0.296,0.046 H -0.307 L -0.312,0.04 -0.32,0.046 H -0.329 V 0.035 l 0.006,-0.005 -0.013,-0.01 -0.011,0.01 0.005,0.005 0.001,0.011 h -0.01 L -0.358,0.04 -0.364,0.046 h -0.01 V 0.035 L -0.368,0.03 -0.38,0.02 l -0.012,0.01 0.005,0.005 0.001,0.011 h -0.01 L -0.402,0.04 -0.409,0.046 H -0.418 V 0.035 L -0.413,0.03 -0.424,0.02 -0.437,0.03 -0.431,0.035 V 0.046 H -0.44 L -0.446,0.04 -0.454,0.046 H -0.463 L -0.462,0.035 -0.458,0.03 -0.47,0.02 -0.481,0.03 -0.476,0.035 V 0.046 H -0.485 L -0.492,0.04 -0.499,0.046 H -0.508 V 0.035 L -0.502,0.03 -0.515,0.02 -0.525,0.03 -0.521,0.035 V 0.046 H -0.53 L -0.537,0.04 -0.542,0.046 h -0.011 l 0.001,-0.011 0.005,-0.005 -0.012,-0.01 -0.012,0.01 0.005,0.005 0.001,0.011 h -0.01 L -0.582,0.04 -0.588,0.046 H -0.597 L -0.596,0.035 -0.591,0.03 -0.603,0.02 -0.616,0.03 -0.61,0.035 -0.609,0.046 H -0.62 L -0.625,0.04 -0.632,0.046 h -0.01 V 0.035 L -0.637,0.03 -0.648,0.02 -0.677,0.046 h -0.01 V 0.035 l 0.028,-0.024 -0.028,-0.026 v -0.009 l 0.005,-0.001 0.005,0.001 0.029,0.026 0.011,-0.012 -0.005,-0.005 v -0.009 l 0.005,-0.001 0.005,0.001 0.007,0.005 0.005,-0.005 0.004,-0.001 0.007,0.001 -0.001,0.009 -0.006,0.005 0.013,0.012 0.012,-0.012 -0.005,-0.005 -0.001,-0.009 0.002,-0.001 0.007,0.001 0.006,0.005 0.007,-0.005 0.003,-0.001 0.007,0.001 -0.001,0.009 -0.005,0.005 0.012,0.012 0.012,-0.012 -0.005,-0.005 -0.001,-0.009 0.003,-0.001 0.008,0.001 0.005,0.005 0.007,-0.005 0.005,-0.001 0.004,0.001 v 0.009 l -0.004,0.005 0.01,0.012 0.013,-0.012 -0.006,-0.005 v -0.009 l 0.005,-0.001 0.004,0.001 0.007,0.005 0.007,-0.005 0.005,-0.001 0.004,0.001 v 0.009 l -0.005,0.005 0.011,0.012 0.012,-0.012 -0.004,-0.005 -0.001,-0.009 0.005,-0.001 0.004,0.001 0.008,0.005 0.006,-0.005 0.003,-0.001 0.006,0.001 v 0.009 l -0.006,0.005 0.013,0.012 0.011,-0.012 -0.005,-0.005 v -0.009 l 0.002,-0.001 0.007,0.001 0.007,0.005 0.006,-0.005 0.003,-0.001 0.007,0.001 -0.001,0.009 -0.005,0.005 0.012,0.012 0.012,-0.012 -0.006,-0.005 v -0.009 l 0.003,-0.001 0.007,0.001 0.006,0.005 0.007,-0.005 0.005,-0.001 0.005,0.001 -0.001,0.009 -0.005,0.005 0.011,0.012 0.013,-0.012 -0.006,-0.005 v -0.009 l 0.005,-0.001 0.004,0.001 0.008,0.005 0.005,-0.005 0.006,-0.001 0.005,0.001 -0.001,0.009 -0.006,0.005 0.013,0.012 0.011,-0.012 -0.005,-0.005 -0.001,-0.009 0.005,-0.001 0.006,0.001 0.006,0.005 0.006,-0.005 0.004,-0.001 0.006,0.001 v 0.009 l -0.006,0.005 0.012,0.012 0.012,-0.012 -0.006,-0.005 v -0.009 l 0.004,-0.001 0.006,0.001 0.007,0.005 0.007,-0.005 0.002,-0.001 0.006,0.001 v 0.009 l -0.005,0.005 0.011,0.012 0.013,-0.012 -0.005,-0.005 -0.001,-0.009 0.006,-0.001 0.004,0.001 0.006,0.005 0.007,-0.005 0.005,-0.001 0.004,0.001 v 0.009 l -0.004,0.005 0.01,0.012 0.013,-0.012 -0.006,-0.005 v -0.009 l 0.005,-0.001 0.004,0.001 0.007,0.005 0.006,-0.005 0.005,-0.001 0.005,0.001 -0.001,0.009 -0.005,0.005 0.012,0.012 0.013,-0.012 -0.006,-0.005 v -0.009 l 0.004,-0.001 0.005,0.001 0.008,0.005 0.005,-0.005 0.003,-0.001 0.008,0.001 -0.002,0.009 -0.005,0.005 0.013,0.012 0.012,-0.012 -0.006,-0.005 -0.001,-0.009 0.003,-0.001 0.007,0.001 0.007,0.005 0.006,-0.005 0.003,-0.001 0.007,0.001 -0.001,0.009 -0.005,0.005 0.012,0.012 0.013,-0.012 -0.007,-0.005 v -0.009 l 0.003,-0.001 0.007,0.001 0.006,0.005 0.006,-0.005 0.006,-0.001 0.004,0.001 v 0.009 l -0.006,0.005 0.012,0.012 0.03,-0.026 0.004,-0.001 0.006,0.001 v 0.009 z"
         style="fill:#e42a34;fill-opacity:1;fill-rule:nonzero;stroke:none"
         id="path33912"
         inkscape:connector-curvature="0" />
    </g>
    <g
       id="g33914"
       transform="matrix(0.35277777,0,0,-0.35277777,55.015594,95.884246)">
      <path
         d="M 0,0 -0.012,0.01 0,0.021 0.012,0.01 Z m -0.044,0 -0.012,0.01 0.012,0.011 0.011,-0.011 z m -0.044,0 -0.014,0.01 0.014,0.011 0.01,-0.011 z M -0.134,0 -0.146,0.01 -0.134,0.021 -0.122,0.01 Z M -0.179,0 -0.191,0.01 -0.179,0.021 -0.167,0.01 Z M -0.223,0 -0.235,0.01 -0.223,0.021 -0.211,0.01 Z M -0.268,0 -0.28,0.01 -0.268,0.021 -0.256,0.01 Z M -0.312,0 -0.325,0.01 -0.312,0.021 -0.301,0.01 Z M -0.358,0 -0.37,0.01 -0.358,0.021 -0.345,0.01 Z M -0.402,0 -0.414,0.01 -0.402,0.021 -0.39,0.01 Z M -0.446,0 -0.459,0.01 -0.446,0.021 -0.435,0.01 Z M -0.492,0 -0.503,0.01 -0.492,0.021 -0.48,0.01 Z m -0.045,0 -0.012,0.01 0.012,0.011 0.013,-0.011 z m -0.045,0 -0.011,0.01 0.011,0.011 0.013,-0.011 z m -0.043,0 -0.013,0.01 0.013,0.011 0.011,-0.011 z m 0.658,0.01 0.029,0.025 v 0.01 L 0.052,0.046 0.022,0.021 0.01,0.029 0.016,0.035 v 0.01 L 0.006,0.046 0,0.04 -0.006,0.046 -0.016,0.045 v -0.01 l 0.007,-0.006 -0.013,-0.008 -0.012,0.008 0.005,0.006 0.001,0.01 -0.01,0.001 L -0.044,0.04 -0.051,0.046 -0.061,0.045 -0.06,0.035 -0.054,0.029 -0.066,0.021 -0.079,0.029 -0.074,0.035 -0.072,0.045 -0.083,0.046 -0.088,0.04 -0.096,0.046 -0.105,0.045 v -0.01 l 0.006,-0.006 -0.013,-0.008 -0.012,0.008 0.005,0.006 0.001,0.01 -0.01,0.001 L -0.134,0.04 -0.141,0.046 -0.15,0.045 v -0.01 l 0.006,-0.006 -0.013,-0.008 -0.01,0.008 0.004,0.006 v 0.01 L -0.172,0.046 -0.179,0.04 -0.185,0.046 -0.195,0.045 -0.194,0.035 -0.189,0.029 -0.202,0.021 -0.213,0.029 -0.208,0.035 v 0.01 L -0.216,0.046 -0.223,0.04 -0.23,0.046 -0.24,0.045 v -0.01 l 0.006,-0.006 -0.012,-0.008 -0.012,0.008 0.006,0.006 v 0.01 L -0.262,0.046 -0.268,0.04 -0.274,0.046 -0.285,0.045 -0.284,0.035 -0.279,0.029 -0.29,0.021 -0.303,0.029 -0.296,0.035 v 0.01 L -0.307,0.046 -0.312,0.04 -0.32,0.046 -0.329,0.045 v -0.01 l 0.006,-0.006 -0.013,-0.008 -0.011,0.008 0.005,0.006 0.001,0.01 -0.01,0.001 L -0.358,0.04 -0.364,0.046 -0.374,0.045 V 0.035 L -0.368,0.029 -0.38,0.021 -0.392,0.029 -0.387,0.035 -0.386,0.045 -0.396,0.046 -0.402,0.04 -0.409,0.046 -0.418,0.045 v -0.01 l 0.005,-0.006 -0.011,-0.008 -0.013,0.008 0.006,0.006 v 0.01 L -0.44,0.046 -0.446,0.04 -0.454,0.046 -0.463,0.045 -0.462,0.035 -0.458,0.029 -0.47,0.021 -0.481,0.029 -0.476,0.035 v 0.01 L -0.485,0.046 -0.492,0.04 -0.499,0.046 -0.508,0.045 v -0.01 l 0.006,-0.006 -0.013,-0.008 -0.01,0.008 0.004,0.006 v 0.01 L -0.53,0.046 -0.537,0.04 -0.542,0.046 -0.553,0.045 -0.552,0.035 -0.547,0.029 -0.559,0.021 -0.571,0.029 -0.566,0.035 -0.565,0.045 -0.575,0.046 -0.582,0.04 -0.588,0.046 -0.597,0.045 -0.596,0.035 -0.591,0.029 -0.603,0.021 -0.616,0.029 -0.61,0.035 -0.609,0.045 -0.62,0.046 -0.625,0.04 -0.632,0.046 -0.642,0.045 v -0.01 l 0.005,-0.006 -0.011,-0.008 -0.029,0.025 -0.01,-0.001 0.001,-0.01 0.027,-0.025 -0.027,-0.024 -0.001,-0.009 0.005,-0.002 h 0.005 l 0.029,0.027 0.011,-0.012 -0.005,-0.004 v -0.009 l 0.005,-0.002 h 0.005 l 0.007,0.007 0.005,-0.007 h 0.004 l 0.007,0.002 -0.001,0.009 -0.006,0.004 0.013,0.012 0.012,-0.012 -0.005,-0.004 -0.001,-0.009 0.002,-0.002 h 0.007 l 0.006,0.007 0.007,-0.007 h 0.003 l 0.007,0.002 -0.001,0.009 -0.005,0.004 0.012,0.012 0.012,-0.012 -0.005,-0.004 -0.001,-0.009 0.003,-0.002 h 0.008 l 0.005,0.007 0.007,-0.007 h 0.005 l 0.004,0.002 v 0.009 l -0.004,0.004 0.01,0.012 0.013,-0.012 -0.006,-0.004 v -0.009 l 0.005,-0.002 h 0.004 l 0.007,0.007 0.007,-0.007 h 0.005 l 0.004,0.002 v 0.009 l -0.005,0.004 0.011,0.012 0.012,-0.012 -0.004,-0.004 -0.001,-0.009 0.005,-0.002 h 0.004 l 0.008,0.007 0.006,-0.007 h 0.003 l 0.006,0.002 v 0.009 l -0.006,0.004 0.013,0.012 0.011,-0.012 -0.005,-0.004 v -0.009 l 0.002,-0.002 h 0.007 l 0.007,0.007 0.006,-0.007 h 0.003 l 0.007,0.002 -0.001,0.009 -0.005,0.004 0.012,0.012 0.012,-0.012 -0.006,-0.004 v -0.009 l 0.003,-0.002 h 0.007 l 0.006,0.007 0.007,-0.007 h 0.005 l 0.005,0.002 -0.001,0.009 -0.005,0.004 0.011,0.012 0.013,-0.012 -0.006,-0.004 v -0.009 l 0.005,-0.002 h 0.004 l 0.008,0.007 0.005,-0.007 h 0.006 l 0.005,0.002 v 0.009 l -0.007,0.004 0.013,0.012 0.011,-0.012 -0.005,-0.004 -0.001,-0.009 0.005,-0.002 h 0.006 l 0.006,0.007 0.006,-0.007 h 0.004 l 0.006,0.002 v 0.009 l -0.006,0.004 0.012,0.012 0.012,-0.012 -0.006,-0.004 v -0.009 l 0.004,-0.002 h 0.006 l 0.007,0.007 0.007,-0.007 h 0.002 l 0.006,0.002 v 0.009 l -0.005,0.004 0.011,0.012 0.013,-0.012 -0.005,-0.004 -0.001,-0.009 0.006,-0.002 h 0.004 l 0.006,0.007 0.007,-0.007 h 0.005 l 0.004,0.002 v 0.009 l -0.004,0.004 0.01,0.012 0.013,-0.012 -0.006,-0.004 v -0.009 l 0.005,-0.002 h 0.004 l 0.007,0.007 0.006,-0.007 h 0.005 l 0.005,0.002 -0.001,0.009 -0.005,0.004 0.012,0.012 0.013,-0.012 -0.006,-0.004 v -0.009 l 0.004,-0.002 h 0.005 l 0.008,0.007 0.005,-0.007 h 0.003 l 0.008,0.002 -0.002,0.009 -0.005,0.004 0.013,0.012 0.012,-0.012 -0.006,-0.004 -0.001,-0.009 0.003,-0.002 h 0.007 l 0.007,0.007 0.006,-0.007 h 0.003 l 0.007,0.002 -0.001,0.009 -0.005,0.004 0.012,0.012 0.013,-0.012 -0.007,-0.004 v -0.009 l 0.003,-0.002 h 0.007 L 0,-0.018 0.006,-0.025 h 0.006 l 0.004,0.002 v 0.009 L 0.01,-0.01 0.022,0.002 0.052,-0.025 h 0.004 l 0.006,0.002 v 0.009 z"
         style="fill:#e42a34;fill-opacity:1;fill-rule:nonzero;stroke:none"
         id="path33916"
         inkscape:connector-curvature="0" />
    </g>
    <g
       id="g33918"
       transform="matrix(0.35277777,0,0,-0.35277777,55.804685,95.736116)">
      <path
         d="M 0,0 H 0.727 L 0.799,-0.069 V -0.412 L 0.727,-0.479 H 0 l -0.073,0.067 v 0.343 z"
         style="fill:#ffffff;fill-opacity:1;fill-rule:nonzero;stroke:none"
         id="path33920"
         inkscape:connector-curvature="0" />
    </g>
    <g
       id="g33922"
       transform="matrix(0.35277777,0,0,-0.35277777,55.804685,95.907669)">
      <path
         d="M 0,0 -0.08,0.074 V 0.417 L 0,0.492 V 0.486 0.479 L -0.066,0.417 V 0.074 L 0,0.015 H 0.727 L 0.792,0.074 V 0.417 L 0.727,0.479 H 0 V 0.486 0.492 H 0.727 L 0.807,0.417 V 0.074 L 0.727,0 Z"
         style="fill:#e42a34;fill-opacity:1;fill-rule:nonzero;stroke:none"
         id="path33924"
         inkscape:connector-curvature="0" />
    </g>
    <g
       id="g33926"
       transform="matrix(0.35277777,0,0,-0.35277777,55.811215,95.743347)">
      <path
         d="m 0,0 h 0.689 l 0.07,-0.062 V -0.376 L 0.689,-0.438 H 0 l -0.069,0.062 v 0.314 z"
         style="fill:#ffffff;fill-opacity:1;fill-rule:nonzero;stroke:none"
         id="path33928"
         inkscape:connector-curvature="0" />
    </g>
    <g
       id="g33930"
       transform="matrix(0.35277777,0,0,-0.35277777,55.811215,95.900121)">
      <path
         d="M 0,0 -0.076,0.068 V 0.382 L 0,0.451 V 0.444 0.437 L -0.062,0.382 V 0.068 L 0,0.013 H 0.689 L 0.751,0.068 V 0.382 L 0.689,0.437 H 0 V 0.444 0.451 H 0.689 L 0.765,0.382 V 0.068 L 0.689,0 Z"
         style="fill:#e42a34;fill-opacity:1;fill-rule:nonzero;stroke:none"
         id="path33932"
         inkscape:connector-curvature="0" />
    </g>
    <g
       id="g33934"
       transform="matrix(0.35277777,0,0,-0.35277777,55.922827,95.785397)">
      <path
         d="m 0,0 0.042,-0.003 10e-4,-0.018 0.034,-0.017 0.027,0.021 0.032,-0.016 -0.03,-0.019 0.008,-0.027 0.037,0.002 V -0.112 L 0.121,-0.111 0.106,-0.134 0.14,-0.157 0.114,-0.179 0.085,-0.156 0.043,-0.165 0.045,-0.197 0,-0.2 l -0.006,0.031 -0.038,0.016 -0.021,-0.022 -0.033,0.017 0.019,0.024 -0.023,0.016 h -0.032 l -0.002,0.045 0.033,-0.003 0.022,0.026 -0.026,0.02 0.034,0.024 0.025,-0.018 0.042,0.005 z"
         style="fill:#ffffff;fill-opacity:1;fill-rule:nonzero;stroke:none"
         id="path33936"
         inkscape:connector-curvature="0" />
    </g>
    <g
       id="g33938"
       transform="matrix(0.35277777,0,0,-0.35277777,55.922827,95.843606)">
      <path
         d="M 0,0 0.005,-0.027 0.037,-0.026 0.036,0.006 0.087,0.016 0.114,-0.004 0.128,0.008 0.096,0.031 0.117,0.062 0.145,0.059 V 0.08 H 0.108 L 0.098,0.115 0.123,0.13 0.104,0.141 0.078,0.118 0.036,0.141 V 0.156 L 0.004,0.157 -0.001,0.139 -0.049,0.133 -0.073,0.15 -0.096,0.135 -0.071,0.116 -0.101,0.082 -0.128,0.084 -0.127,0.054 h 0.028 l 0.031,-0.023 -0.019,-0.023 0.02,-0.009 0.021,0.021 z m -0.012,-0.009 -0.031,0.012 -0.021,-0.022 -0.043,0.022 0.019,0.026 -0.015,0.01 H -0.14 l -0.003,0.061 0.036,-0.005 0.016,0.02 -0.028,0.02 0.046,0.031 0.027,-0.02 0.034,0.005 0.005,0.015 0.002,0.006 L 0.048,0.169 0.049,0.148 0.076,0.134 0.103,0.156 0.149,0.132 0.114,0.109 0.118,0.094 h 0.04 V 0.045 L 0.125,0.047 0.115,0.033 0.151,0.008 0.114,-0.021 0.083,0.001 0.05,-0.005 0.053,-0.038 -0.006,-0.042 Z"
         style="fill:#e42a34;fill-opacity:1;fill-rule:nonzero;stroke:none"
         id="path33940"
         inkscape:connector-curvature="0" />
    </g>
    <g
       id="g33942"
       transform="matrix(0.35277777,0,0,-0.35277777,55.926957,95.805011)">
      <path
         d="M 0,0 0.046,-0.039 0,-0.078 -0.046,-0.039 Z"
         style="fill:#ffffff;fill-opacity:1;fill-rule:nonzero;stroke:none"
         id="path33944"
         inkscape:connector-curvature="0" />
    </g>
    <g
       id="g33946"
       transform="matrix(0.35277777,0,0,-0.35277777,55.908365,95.818806)">
      <path
         d="M 0,0 0.053,0.046 V 0.039 0.032 L 0.014,0 0.053,-0.032 0.092,0 0.053,0.032 V 0.039 0.046 L 0.105,0 0.053,-0.046 Z"
         style="fill:#e42a34;fill-opacity:1;fill-rule:nonzero;stroke:none"
         id="path33948"
         inkscape:connector-curvature="0" />
    </g>
    <g
       id="g33950"
       transform="matrix(0.35277777,0,0,-0.35277777,56.043405,95.764726)">
      <path
         d="M 0,0 -0.012,0.011 0,0.021 0.012,0.011 Z m -0.044,0 -0.014,0.011 0.014,0.01 0.011,-0.01 z m -0.046,0 -0.013,0.011 0.013,0.01 0.013,-0.01 z m -0.044,0 -0.013,0.011 0.013,0.01 0.012,-0.01 z m -0.046,0 -0.011,0.011 0.011,0.01 0.013,-0.01 z m -0.044,0 -0.012,0.011 0.012,0.01 0.012,-0.01 z m -0.045,0 -0.012,0.011 0.012,0.01 0.012,-0.01 z m -0.044,0 -0.013,0.011 0.013,0.01 0.012,-0.01 z m -0.045,0 -0.012,0.011 0.012,0.01 0.012,-0.01 z m -0.045,0 -0.012,0.011 0.012,0.01 0.012,-0.01 z m -0.045,0 -0.011,0.011 0.011,0.01 0.012,-0.01 z m -0.044,0 -0.012,0.011 0.012,0.01 0.012,-0.01 z m -0.045,0 -0.012,0.011 0.012,0.01 0.012,-0.01 z m -0.045,0 -0.012,0.011 0.012,0.01 0.013,-0.01 z m -0.044,0 -0.014,0.011 0.014,0.01 0.012,-0.01 z M 0.032,0.011 0.06,0.035 0.061,0.046 H 0.052 L 0.021,0.02 0.01,0.03 0.015,0.035 0.016,0.046 H 0.006 L 0,0.04 -0.007,0.046 h -0.01 V 0.035 l 0.006,-0.005 -0.012,-0.01 -0.012,0.01 0.006,0.005 0.001,0.011 h -0.01 L -0.044,0.04 -0.052,0.046 H -0.061 V 0.035 L -0.055,0.03 -0.068,0.02 -0.08,0.03 -0.074,0.035 V 0.046 H -0.083 L -0.09,0.04 -0.097,0.046 h -0.009 l 0.001,-0.011 0.004,-0.005 -0.011,-0.01 -0.013,0.01 0.006,0.005 0.001,0.011 h -0.01 L -0.134,0.04 -0.141,0.046 h -0.01 L -0.15,0.035 -0.145,0.03 -0.157,0.02 -0.169,0.03 -0.164,0.035 -0.163,0.046 H -0.172 L -0.18,0.04 -0.186,0.046 H -0.195 L -0.194,0.035 -0.19,0.03 -0.202,0.02 -0.214,0.03 -0.208,0.035 V 0.046 H -0.217 L -0.224,0.04 -0.23,0.046 H -0.24 V 0.035 l 0.006,-0.005 -0.013,-0.01 -0.011,0.01 0.005,0.005 0.001,0.011 h -0.01 L -0.269,0.04 -0.275,0.046 h -0.01 L -0.284,0.035 -0.279,0.03 -0.291,0.02 -0.303,0.03 -0.298,0.035 -0.297,0.046 H -0.306 L -0.313,0.04 -0.32,0.046 H -0.33 L -0.329,0.035 -0.324,0.03 -0.336,0.02 -0.348,0.03 -0.343,0.035 -0.341,0.046 H -0.352 L -0.358,0.04 -0.365,0.046 H -0.374 V 0.035 L -0.369,0.03 -0.38,0.02 -0.392,0.03 -0.388,0.035 V 0.046 H -0.396 L -0.403,0.04 -0.41,0.046 H -0.419 L -0.418,0.035 -0.413,0.03 -0.426,0.02 -0.437,0.03 -0.433,0.035 -0.432,0.046 H -0.44 L -0.448,0.04 -0.454,0.046 h -0.01 L -0.463,0.035 -0.458,0.03 -0.47,0.02 -0.482,0.03 -0.477,0.035 -0.476,0.046 H -0.485 L -0.492,0.04 -0.499,0.046 h -0.01 L -0.508,0.035 -0.502,0.03 -0.515,0.02 -0.527,0.03 -0.522,0.035 -0.521,0.046 H -0.53 L -0.537,0.04 -0.544,0.046 h -0.01 V 0.035 L -0.547,0.03 -0.56,0.02 -0.572,0.03 -0.566,0.035 v 0.011 h -0.01 L -0.582,0.04 -0.588,0.046 h -0.01 V 0.035 L -0.592,0.03 -0.604,0.02 -0.616,0.03 -0.611,0.035 -0.61,0.046 H -0.62 L -0.626,0.04 -0.633,0.046 h -0.01 L -0.642,0.035 -0.636,0.03 -0.648,0.02 -0.679,0.046 h -0.009 l 0.002,-0.011 0.027,-0.024 -0.027,-0.026 -0.002,-0.009 0.006,-0.001 0.003,0.001 0.031,0.026 0.012,-0.012 -0.006,-0.005 -0.001,-0.009 0.005,-0.001 0.005,0.001 0.007,0.005 0.006,-0.005 0.005,-0.001 0.005,0.001 -0.001,0.009 -0.005,0.005 0.012,0.012 0.012,-0.012 -0.006,-0.005 v -0.009 l 0.004,-0.001 0.006,0.001 0.006,0.005 0.006,-0.005 0.003,-0.001 0.007,0.001 v 0.009 l -0.006,0.005 0.012,0.012 0.013,-0.012 -0.007,-0.005 v -0.009 l 0.004,-0.001 0.006,0.001 0.007,0.005 0.007,-0.005 0.002,-0.001 0.007,0.001 -0.001,0.009 -0.005,0.005 0.012,0.012 0.013,-0.012 -0.006,-0.005 -0.001,-0.009 0.006,-0.001 0.004,0.001 0.007,0.005 0.007,-0.005 0.003,-0.001 0.006,0.001 -0.001,0.009 -0.005,0.005 0.012,0.012 0.012,-0.012 -0.005,-0.005 -0.001,-0.009 0.005,-0.001 0.005,0.001 0.006,0.005 0.008,-0.005 0.003,-0.001 0.005,0.001 -0.001,0.009 -0.004,0.005 0.011,0.012 0.013,-0.012 -0.005,-0.005 -0.001,-0.009 0.003,-0.001 0.006,0.001 0.007,0.005 0.007,-0.005 0.002,-0.001 0.006,0.001 v 0.009 l -0.004,0.005 0.012,0.012 0.011,-0.012 -0.005,-0.005 v -0.009 l 0.003,-0.001 0.006,0.001 0.007,0.005 0.006,-0.005 0.004,-0.001 0.007,0.001 -0.002,0.009 -0.005,0.005 0.012,0.012 0.012,-0.012 -0.005,-0.005 -0.001,-0.009 0.003,-0.001 0.007,0.001 0.007,0.005 0.007,-0.005 0.004,-0.001 0.005,0.001 -0.001,0.009 -0.005,0.005 0.012,0.012 0.012,-0.012 -0.005,-0.005 -0.001,-0.009 0.005,-0.001 0.005,0.001 0.006,0.005 0.007,-0.005 0.005,-0.001 0.005,0.001 -0.001,0.009 -0.005,0.005 0.011,0.012 0.013,-0.012 -0.006,-0.005 v -0.009 l 0.004,-0.001 0.006,0.001 0.006,0.005 0.007,-0.005 0.003,-0.001 0.006,0.001 v 0.009 l -0.006,0.005 0.012,0.012 0.012,-0.012 -0.004,-0.005 -0.001,-0.009 0.003,-0.001 0.006,0.001 0.006,0.005 0.008,-0.005 0.002,-0.001 0.007,0.001 -0.001,0.009 -0.005,0.005 0.012,0.012 0.012,-0.012 -0.005,-0.005 -0.001,-0.009 0.005,-0.001 0.005,0.001 0.007,0.005 0.006,-0.005 0.005,-0.001 0.005,0.001 -0.001,0.009 -0.006,0.005 0.013,0.012 0.011,-0.012 -0.004,-0.005 -0.001,-0.009 0.005,-0.001 0.004,0.001 0.007,0.005 0.007,-0.005 0.003,-0.001 0.006,0.001 v 0.009 l -0.006,0.005 0.012,0.012 0.013,-0.012 -0.006,-0.005 v -0.009 l 0.003,-0.001 0.006,0.001 0.008,0.005 0.006,-0.005 0.003,-0.001 0.007,0.001 -0.001,0.009 -0.006,0.005 0.012,0.012 0.012,-0.012 -0.006,-0.005 v -0.009 l 0.003,-0.001 0.007,0.001 L 0,-0.019 0.006,-0.024 0.009,-0.025 0.016,-0.024 0.015,-0.015 0.01,-0.01 0.021,0.002 0.052,-0.024 0.055,-0.025 0.061,-0.024 0.06,-0.015 Z"
         style="fill:#e42a34;fill-opacity:1;fill-rule:nonzero;stroke:none"
         id="path33952"
         inkscape:connector-curvature="0" />
    </g>
    <g
       id="g33954"
       transform="matrix(0.35277777,0,0,-0.35277777,56.043405,95.884246)">
      <path
         d="M 0,0 -0.012,0.01 0,0.021 0.012,0.01 Z M -0.044,0 -0.058,0.01 -0.044,0.021 -0.033,0.01 Z M -0.09,0 -0.103,0.01 -0.09,0.021 -0.077,0.01 Z M -0.134,0 -0.147,0.01 -0.134,0.021 -0.122,0.01 Z M -0.18,0 -0.191,0.01 -0.18,0.021 -0.167,0.01 Z M -0.224,0 -0.236,0.01 -0.224,0.021 -0.212,0.01 Z M -0.269,0 -0.281,0.01 -0.269,0.021 -0.257,0.01 Z M -0.313,0 -0.326,0.01 -0.313,0.021 -0.301,0.01 Z M -0.358,0 -0.37,0.01 -0.358,0.021 -0.346,0.01 Z M -0.403,0 -0.415,0.01 -0.403,0.021 -0.391,0.01 Z M -0.448,0 -0.459,0.01 -0.448,0.021 -0.436,0.01 Z M -0.492,0 -0.504,0.01 -0.492,0.021 -0.48,0.01 Z M -0.537,0 -0.549,0.01 -0.537,0.021 -0.525,0.01 Z M -0.582,0 -0.594,0.01 -0.582,0.021 -0.569,0.01 Z M -0.626,0 -0.64,0.01 -0.626,0.021 -0.614,0.01 Z M 0.032,0.01 0.06,0.035 0.061,0.045 0.052,0.046 0.021,0.021 0.01,0.029 0.015,0.035 0.016,0.045 0.006,0.046 0,0.04 -0.007,0.046 -0.017,0.045 v -0.01 l 0.006,-0.006 -0.012,-0.008 -0.012,0.008 0.006,0.006 0.001,0.01 -0.01,0.001 L -0.044,0.04 -0.052,0.046 -0.061,0.045 V 0.035 L -0.055,0.029 -0.068,0.021 -0.08,0.029 -0.074,0.035 v 0.01 L -0.083,0.046 -0.09,0.04 -0.097,0.046 -0.106,0.045 -0.105,0.035 -0.101,0.029 -0.112,0.021 -0.125,0.029 -0.119,0.035 -0.118,0.045 -0.128,0.046 -0.134,0.04 -0.141,0.046 -0.151,0.045 -0.15,0.035 -0.145,0.029 -0.157,0.021 -0.169,0.029 -0.164,0.035 -0.163,0.045 -0.172,0.046 -0.18,0.04 -0.186,0.046 -0.195,0.045 -0.194,0.035 -0.19,0.029 -0.202,0.021 -0.214,0.029 -0.208,0.035 v 0.01 L -0.217,0.046 -0.224,0.04 -0.23,0.046 -0.24,0.045 v -0.01 l 0.006,-0.006 -0.013,-0.008 -0.011,0.008 0.005,0.006 0.001,0.01 -0.01,0.001 -0.007,-0.006 -0.006,0.006 -0.01,-0.001 0.001,-0.01 0.005,-0.006 -0.012,-0.008 -0.012,0.008 0.005,0.006 0.001,0.01 L -0.306,0.046 -0.313,0.04 -0.32,0.046 -0.33,0.045 -0.329,0.035 -0.324,0.029 -0.336,0.021 -0.348,0.029 -0.343,0.035 -0.341,0.045 -0.352,0.046 -0.358,0.04 -0.365,0.046 -0.374,0.045 V 0.035 L -0.369,0.029 -0.38,0.021 -0.392,0.029 -0.388,0.035 v 0.01 L -0.396,0.046 -0.403,0.04 -0.41,0.046 -0.419,0.045 -0.418,0.035 -0.413,0.029 -0.426,0.021 -0.437,0.029 -0.433,0.035 -0.432,0.045 -0.44,0.046 -0.448,0.04 -0.454,0.046 -0.464,0.045 -0.463,0.035 -0.458,0.029 -0.47,0.021 -0.482,0.029 -0.477,0.035 -0.476,0.045 -0.485,0.046 -0.492,0.04 -0.499,0.046 -0.509,0.045 -0.508,0.035 -0.502,0.029 -0.515,0.021 -0.527,0.029 -0.522,0.035 -0.521,0.045 -0.53,0.046 -0.537,0.04 -0.544,0.046 -0.554,0.045 V 0.035 L -0.547,0.029 -0.56,0.021 -0.572,0.029 -0.566,0.035 v 0.01 L -0.576,0.046 -0.582,0.04 -0.588,0.046 -0.598,0.045 V 0.035 L -0.592,0.029 -0.604,0.021 -0.616,0.029 -0.611,0.035 -0.61,0.045 -0.62,0.046 -0.626,0.04 -0.633,0.046 -0.643,0.045 -0.642,0.035 -0.636,0.029 -0.648,0.021 -0.679,0.046 -0.688,0.045 -0.686,0.035 -0.659,0.01 -0.686,-0.014 -0.688,-0.023 -0.682,-0.025 h 0.003 l 0.031,0.027 0.012,-0.012 -0.006,-0.004 -0.001,-0.009 0.005,-0.002 h 0.005 l 0.007,0.007 0.006,-0.007 h 0.005 l 0.005,0.002 -0.001,0.009 -0.005,0.004 0.012,0.012 0.012,-0.012 -0.006,-0.004 v -0.009 l 0.004,-0.002 h 0.006 l 0.006,0.007 0.006,-0.007 h 0.003 l 0.007,0.002 v 0.009 l -0.006,0.004 0.012,0.012 0.013,-0.012 -0.007,-0.004 v -0.009 l 0.004,-0.002 h 0.006 l 0.007,0.007 0.007,-0.007 h 0.002 l 0.007,0.002 -0.001,0.009 -0.005,0.004 0.012,0.012 0.013,-0.012 -0.006,-0.004 -0.001,-0.009 0.006,-0.002 h 0.004 l 0.007,0.007 0.007,-0.007 h 0.003 l 0.006,0.002 -0.001,0.009 -0.005,0.004 0.012,0.012 0.012,-0.012 -0.005,-0.004 -0.001,-0.009 0.005,-0.002 h 0.005 l 0.006,0.007 0.008,-0.007 h 0.003 l 0.005,0.002 -0.001,0.009 -0.004,0.004 0.011,0.012 0.013,-0.012 -0.005,-0.004 -0.001,-0.009 0.003,-0.002 h 0.006 l 0.007,0.007 0.007,-0.007 h 0.002 l 0.006,0.002 v 0.009 l -0.004,0.004 0.012,0.012 0.011,-0.012 -0.005,-0.004 v -0.009 l 0.003,-0.002 h 0.006 l 0.007,0.007 0.006,-0.007 h 0.004 l 0.007,0.002 -0.002,0.009 -0.005,0.004 0.012,0.012 0.012,-0.012 -0.005,-0.004 -0.001,-0.009 0.003,-0.002 h 0.007 l 0.007,0.007 0.007,-0.007 h 0.004 l 0.005,0.002 -0.001,0.009 -0.005,0.004 0.012,0.012 0.012,-0.012 -0.005,-0.004 -0.001,-0.009 0.005,-0.002 h 0.005 l 0.006,0.007 0.007,-0.007 h 0.005 l 0.005,0.002 -0.001,0.009 -0.005,0.004 0.011,0.012 0.013,-0.012 -0.006,-0.004 v -0.009 l 0.004,-0.002 h 0.006 l 0.006,0.007 0.007,-0.007 h 0.003 l 0.006,0.002 v 0.009 l -0.006,0.004 0.012,0.012 0.012,-0.012 -0.004,-0.004 -0.001,-0.009 0.003,-0.002 h 0.006 l 0.006,0.007 0.008,-0.007 h 0.002 l 0.007,0.002 -0.001,0.009 -0.005,0.004 0.012,0.012 0.012,-0.012 -0.005,-0.004 -0.001,-0.009 0.005,-0.002 h 0.005 l 0.007,0.007 0.006,-0.007 h 0.005 l 0.005,0.002 -0.001,0.009 -0.006,0.004 0.013,0.012 0.011,-0.012 -0.004,-0.004 -0.001,-0.009 0.005,-0.002 h 0.004 l 0.007,0.007 0.007,-0.007 h 0.003 l 0.006,0.002 v 0.009 l -0.006,0.004 0.012,0.012 0.013,-0.012 -0.006,-0.004 v -0.009 l 0.003,-0.002 h 0.006 l 0.008,0.007 0.006,-0.007 h 0.003 l 0.007,0.002 -0.001,0.009 -0.006,0.004 0.012,0.012 0.012,-0.012 -0.006,-0.004 v -0.009 l 0.003,-0.002 h 0.007 L 0,-0.018 0.006,-0.025 H 0.009 L 0.016,-0.023 0.015,-0.014 0.01,-0.01 0.021,0.002 0.052,-0.025 h 0.003 l 0.006,0.002 -0.001,0.009 z"
         style="fill:#e42a34;fill-opacity:1;fill-rule:nonzero;stroke:none"
         id="path33956"
         inkscape:connector-curvature="0" />
    </g>
    <g
       id="g33958"
       transform="matrix(0.35277777,0,0,-0.35277777,55.300315,95.675471)">
      <path
         d="m 0,0 0.001,0.007 z m 0.337,-0.111 c 0.11,0 0.22,0.007 0.329,0.024 v 0.086 C 0.557,-0.017 0.447,-0.024 0.337,-0.024 c -0.11,0 -0.221,0.007 -0.332,0.023 V -0.087 C 0.116,-0.104 0.227,-0.111 0.337,-0.111 M 0,-0.099 -0.003,-0.098 V 0.007 0.015 L 0.002,0.014 c 0.111,-0.016 0.224,-0.025 0.335,-0.025 0.111,0 0.223,0.009 0.335,0.025 L 0.678,0.015 V -0.098 L 0.673,-0.099 C 0.562,-0.115 0.449,-0.125 0.337,-0.125 0.224,-0.125 0.113,-0.115 0,-0.099"
         style="fill:#e42a34;fill-opacity:1;fill-rule:nonzero;stroke:none"
         id="path33960"
         inkscape:connector-curvature="0" />
    </g>
    <g
       id="g33962"
       transform="matrix(0.35277777,0,0,-0.35277777,55.298416,95.658257)">
      <path
         d="M 0,0 0.037,0.029 V 0.022 0.016 L 0.02,0.011 0.013,0 0.02,-0.009 0.037,-0.013 0.055,-0.009 0.062,0 0.055,0.011 0.037,0.016 V 0.022 0.029 L 0.075,0 0.037,-0.026 Z"
         style="fill:#e42a34;fill-opacity:1;fill-rule:nonzero;stroke:none"
         id="path33964"
         inkscape:connector-curvature="0" />
    </g>
    <g
       id="g33966"
       transform="matrix(0.35277777,0,0,-0.35277777,55.341315,95.661713)">
      <path
         d="M 0,0 0.039,0.028 V 0.022 0.016 L 0.021,0.01 0.014,0 0.021,-0.009 0.039,-0.014 0.055,-0.009 0.061,0 0.055,0.01 0.039,0.016 V 0.022 0.028 L 0.075,0 0.039,-0.027 Z"
         style="fill:#e42a34;fill-opacity:1;fill-rule:nonzero;stroke:none"
         id="path33968"
         inkscape:connector-curvature="0" />
    </g>
    <g
       id="g33970"
       transform="matrix(0.35277777,0,0,-0.35277777,55.384567,95.665136)">
      <path
         d="M 0,0 0.038,0.029 V 0.02 0.014 L 0.02,0.01 0.014,0 0.02,-0.01 0.038,-0.016 0.055,-0.01 0.061,0 0.055,0.01 0.038,0.014 V 0.02 0.029 L 0.074,0 0.038,-0.029 Z"
         style="fill:#e42a34;fill-opacity:1;fill-rule:nonzero;stroke:none"
         id="path33972"
         inkscape:connector-curvature="0" />
    </g>
    <g
       id="g33974"
       transform="matrix(0.35277777,0,0,-0.35277777,55.427426,95.665136)">
      <path
         d="M 0,0 0.038,0.029 V 0.02 0.014 L 0.02,0.01 0.014,0 0.02,-0.01 0.038,-0.016 0.056,-0.01 0.061,0 0.056,0.01 0.038,0.014 V 0.02 0.029 L 0.075,0 0.038,-0.029 Z"
         style="fill:#e42a34;fill-opacity:1;fill-rule:nonzero;stroke:none"
         id="path33976"
         inkscape:connector-curvature="0" />
    </g>
    <g
       id="g33978"
       transform="matrix(0.35277777,0,0,-0.35277777,55.470495,95.661713)">
      <path
         d="M 0,0 0.038,0.028 V 0.022 0.016 L 0.02,0.01 0.014,0 0.02,-0.009 0.038,-0.014 0.056,-0.009 0.062,0 0.056,0.01 0.038,0.016 V 0.022 0.028 L 0.074,0 0.038,-0.027 Z"
         style="fill:#e42a34;fill-opacity:1;fill-rule:nonzero;stroke:none"
         id="path33980"
         inkscape:connector-curvature="0" />
    </g>
    <g
       id="g33982"
       transform="matrix(0.35277777,0,0,-0.35277777,55.513215,95.658257)">
      <path
         d="M 0,0 0.037,0.029 V 0.022 0.016 L 0.02,0.011 0.013,0 0.02,-0.009 0.037,-0.013 0.055,-0.009 0.061,0 0.055,0.011 0.037,0.016 V 0.022 0.029 L 0.075,0 0.037,-0.026 Z"
         style="fill:#e42a34;fill-opacity:1;fill-rule:nonzero;stroke:none"
         id="path33984"
         inkscape:connector-curvature="0" />
    </g>
    <g
       id="g33986"
       transform="matrix(0.35277777,0,0,-0.35277777,55.298416,95.763667)">
      <path
         d="M 0,0 0.037,0.029 V 0.022 0.016 L 0.02,0.012 0.013,0 0.02,-0.009 0.037,-0.014 0.055,-0.009 0.062,0 0.055,0.012 0.037,0.016 V 0.022 0.029 L 0.075,0 0.037,-0.027 Z"
         style="fill:#e42a34;fill-opacity:1;fill-rule:nonzero;stroke:none"
         id="path33988"
         inkscape:connector-curvature="0" />
    </g>
    <g
       id="g33990"
       transform="matrix(0.35277777,0,0,-0.35277777,55.341315,95.767123)">
      <path
         d="M 0,0 0.039,0.028 V 0.021 0.016 L 0.021,0.01 0.014,0 0.021,-0.01 0.039,-0.016 0.055,-0.01 0.061,0 0.055,0.01 0.039,0.016 V 0.021 0.028 L 0.075,0 0.039,-0.027 Z"
         style="fill:#e42a34;fill-opacity:1;fill-rule:nonzero;stroke:none"
         id="path33992"
         inkscape:connector-curvature="0" />
    </g>
    <g
       id="g33994"
       transform="matrix(0.35277777,0,0,-0.35277777,55.384567,95.770581)">
      <path
         d="M 0,0 0.038,0.027 V 0.02 0.014 L 0.02,0.009 0.014,0 0.02,-0.012 0.038,-0.016 0.055,-0.012 0.061,0 0.055,0.009 0.038,0.014 V 0.02 0.027 L 0.074,0 0.038,-0.029 Z"
         style="fill:#e42a34;fill-opacity:1;fill-rule:nonzero;stroke:none"
         id="path33996"
         inkscape:connector-curvature="0" />
    </g>
    <g
       id="g33998"
       transform="matrix(0.35277777,0,0,-0.35277777,55.427426,95.770581)">
      <path
         d="M 0,0 0.038,0.027 V 0.02 0.014 L 0.02,0.009 0.014,0 0.02,-0.012 0.038,-0.016 0.056,-0.012 0.061,0 0.056,0.009 0.038,0.014 V 0.02 0.027 L 0.075,0 0.038,-0.029 Z"
         style="fill:#e42a34;fill-opacity:1;fill-rule:nonzero;stroke:none"
         id="path34000"
         inkscape:connector-curvature="0" />
    </g>
    <g
       id="g34002"
       transform="matrix(0.35277777,0,0,-0.35277777,55.470495,95.767123)">
      <path
         d="M 0,0 0.038,0.028 V 0.021 0.016 L 0.02,0.01 0.014,0 0.02,-0.01 0.038,-0.016 0.056,-0.01 0.062,0 0.056,0.01 0.038,0.016 V 0.021 0.028 L 0.074,0 0.038,-0.027 Z"
         style="fill:#e42a34;fill-opacity:1;fill-rule:nonzero;stroke:none"
         id="path34004"
         inkscape:connector-curvature="0" />
    </g>
    <g
       id="g34006"
       transform="matrix(0.35277777,0,0,-0.35277777,55.513215,95.763667)">
      <path
         d="M 0,0 0.038,0.029 V 0.022 0.016 L 0.02,0.012 0.013,0 0.02,-0.009 0.038,-0.014 0.055,-0.009 0.062,0 0.055,0.012 0.038,0.016 V 0.022 0.029 L 0.075,0 0.038,-0.027 Z"
         style="fill:#e42a34;fill-opacity:1;fill-rule:nonzero;stroke:none"
         id="path34008"
         inkscape:connector-curvature="0" />
    </g>
    <g
       id="g34010"
       transform="matrix(0.35277777,0,0,-0.35277777,55.351647,95.573871)">
      <path
         d="M 0,0 0.071,-0.06 0,-0.119 -0.072,-0.06 Z"
         style="fill:#ffffff;fill-opacity:1;fill-rule:nonzero;stroke:none"
         id="path34012"
         inkscape:connector-curvature="0" />
    </g>
    <g
       id="g34014"
       transform="matrix(0.35277777,0,0,-0.35277777,55.486696,95.573871)">
      <path
         d="M 0,0 0.072,-0.06 0,-0.119 -0.072,-0.06 Z"
         style="fill:#ffffff;fill-opacity:1;fill-rule:nonzero;stroke:none"
         id="path34016"
         inkscape:connector-curvature="0" />
    </g>
    <g
       id="g34018"
       transform="matrix(0.35277777,0,0,-0.35277777,55.419166,95.56043)">
      <path
         d="M 0,0 0.096,-0.08 0,-0.159 -0.097,-0.08 Z"
         style="fill:#ffffff;fill-opacity:1;fill-rule:nonzero;stroke:none"
         id="path34020"
         inkscape:connector-curvature="0" />
    </g>
    <g
       id="g34022"
       transform="matrix(0.35277777,0,0,-0.35277777,55.321167,95.246211)">
      <path
         d="M 0,0 V 0 L 0.005,0.014 H 0 V 0.008 Z"
         style="fill:#e42a34;fill-opacity:1;fill-rule:nonzero;stroke:none"
         id="path34024"
         inkscape:connector-curvature="0" />
    </g>
    <g
       id="g34026"
       transform="matrix(0.35277777,0,0,-0.35277777,55.516856,95.246211)">
      <path
         d="M 0,0 V 0.008 0.014 H -0.005 Z"
         style="fill:#e42a34;fill-opacity:1;fill-rule:nonzero;stroke:none"
         id="path34028"
         inkscape:connector-curvature="0" />
    </g>
    <g
       id="g34030"
       transform="matrix(0.35277777,0,0,-0.35277777,55.512027,95.246566)">
      <path
         d="M 0,0 0.014,0.001 0.008,0.015 -0.005,0.012 Z"
         style="fill:#e42a34;fill-opacity:1;fill-rule:nonzero;stroke:none"
         id="path34032"
         inkscape:connector-curvature="0" />
    </g>
    <g
       id="g34034"
       transform="matrix(0.35277777,0,0,-0.35277777,55.441044,95.194564)">
      <path
         d="M 0,0 -0.001,-0.012 0.012,-0.014 0.013,-0.001 0,0.002 Z"
         style="fill:#e42a34;fill-opacity:1;fill-rule:nonzero;stroke:none"
         id="path34036"
         inkscape:connector-curvature="0" />
    </g>
    <g
       id="g34038"
       transform="matrix(0.35277777,0,0,-0.35277777,55.397476,95.198692)">
      <path
         d="M 0,0 -0.002,0.012 V 0.014 L -0.016,0.011 -0.013,-0.002 Z"
         style="fill:#e42a34;fill-opacity:1;fill-rule:nonzero;stroke:none"
         id="path34040"
         inkscape:connector-curvature="0" />
    </g>
    <g
       id="g34042"
       transform="matrix(0.35277777,0,0,-0.35277777,55.441044,95.264838)">
      <path
         d="M 0,0 -0.062,-0.053 -0.125,0 -0.062,0.053 Z M -0.139,0 -0.062,-0.068 0.013,0 -0.062,0.066 Z M -0.062,0.252 0,0.201 0.013,0.198 V 0.199 L -0.062,0.266 -0.139,0.199 V 0.198 l 0.014,0.003 z m 0,-0.106 -0.062,0.041 -0.012,-0.001 0.074,-0.053 0.074,0.053 -0.013,0.001 z m 0.329,-1.198 c -0.109,-0.014 -0.219,-0.023 -0.329,-0.023 -0.11,0 -0.219,0.009 -0.329,0.023 v 0.047 h 0.658 z m 0,-0.099 c -0.109,-0.017 -0.219,-0.024 -0.329,-0.024 -0.11,0 -0.219,0.007 -0.329,0.024 v 0.086 c 0.11,-0.017 0.219,-0.023 0.329,-0.023 0.108,0 0.22,0.006 0.329,0.023 z m 0,-0.1 c -0.109,-0.017 -0.219,-0.024 -0.329,-0.024 -0.11,0 -0.219,0.007 -0.329,0.024 v 0.028 0.058 c 0.11,-0.016 0.219,-0.023 0.329,-0.023 0.11,0 0.22,0.007 0.329,0.023 z m 0,-0.1 L 0.248,-1.354 0.228,-1.355 0.206,-1.358 0.187,-1.361 0.164,-1.363 0.145,-1.365 0.123,-1.367 0.104,-1.369 H 0.08 L 0.062,-1.37 0.038,-1.373 H 0.02 -0.008 L -0.02,-1.375 h -0.042 -0.042 l -0.014,0.002 h -0.027 -0.017 l -0.025,0.003 -0.018,0.001 h -0.024 l -0.017,0.002 -0.023,0.002 -0.019,0.002 -0.023,0.002 -0.019,0.003 -0.022,0.003 -0.019,10e-4 -0.02,0.003 v 0.011 0.075 c 0.11,-0.016 0.219,-0.024 0.329,-0.024 0.11,0 0.22,0.008 0.329,0.024 z m 0,-0.099 c -0.109,-0.017 -0.219,-0.025 -0.329,-0.025 -0.11,0 -0.219,0.008 -0.329,0.025 v 0.087 l 0.018,-0.004 0.02,-0.002 0.022,-0.002 0.019,-0.004 0.023,-10e-4 0.019,-0.002 0.022,-0.003 0.019,-10e-4 0.024,-0.001 0.018,-0.002 0.024,-0.002 h 0.017 0.028 0.014 0.042 0.042 0.013 0.027 0.019 l 0.024,0.002 0.017,0.002 0.024,0.001 0.02,10e-4 0.022,0.003 0.02,0.002 0.021,10e-4 0.02,0.004 0.022,0.002 0.021,0.002 0.017,0.004 z m 0,-0.05 -0.018,0.016 0.018,0.013 z m 0,-0.042 -0.008,0.005 0.008,0.007 z m 0,-0.03 -0.007,-0.007 -0.029,0.02 0.017,0.013 0.019,-0.014 z m 0,-0.051 -0.023,0.016 0.016,0.011 0.007,-0.004 z m 0,-0.059 -0.021,0.015 0.021,0.018 z m 0,-0.06 -0.02,0.015 0.02,0.018 z m 0,-0.059 -0.02,0.016 0.02,0.015 z m 0,-0.06 -0.02,0.015 0.02,0.018 z m 0,-0.059 -0.02,0.015 0.02,0.017 z m 0,-0.033 v -0.026 l -0.02,0.014 0.02,0.017 z M 0.263,-2.037 0.247,-2.023 0.264,-2.01 Z m -0.001,-0.019 -0.024,-0.018 -0.027,0.021 0.025,0.02 0.026,-0.02 z M 0.256,-2.09 0.248,-2.083 0.259,-2.074 Z M 0.252,-2.115 0.233,-2.131 0.21,-2.113 0.237,-2.093 0.255,-2.105 Z M 0.247,-2.141 0.244,-2.14 0.248,-2.136 Z m -0.014,-0.048 -0.025,0.021 0.025,0.02 0.01,-0.008 z m -0.031,-0.035 -0.031,0.025 0.027,0.021 0.031,-0.024 z m 0.014,-0.01 -0.003,0.002 0.007,0.005 z M 0.197,-2.276 0.177,-2.261 0.202,-2.24 0.21,-2.248 Z M 0.187,-2.293 0.166,-2.31 0.14,-2.29 0.167,-2.27 0.19,-2.288 Z m -0.04,-0.058 -0.005,0.004 0.021,0.017 z m -0.03,-0.033 -0.012,0.009 0.026,0.02 0.008,-0.006 z M 0.1,-2.397 0.083,-2.413 l -0.012,0.01 0.024,0.019 0.012,-0.011 z m -0.06,-0.045 -0.01,0.006 0.031,0.025 0.011,-0.011 z m -0.042,-0.025 -0.004,10e-4 0.026,0.022 0.008,-0.006 z m -0.018,-0.009 0.003,10e-4 h 0.001 z m -0.037,-0.012 -0.025,0.021 0.029,0.023 0.025,-0.022 z m -0.046,-0.02 -0.015,0.012 0.025,0.019 0.025,-0.019 z m -0.043,-0.012 0.018,0.015 0.009,-0.008 z m -0.046,0.026 0.024,0.019 0.029,-0.021 -0.024,-0.02 z m 0.016,-0.032 -0.053,-0.009 -0.007,0.006 0.033,0.027 0.03,-0.022 z m -0.098,0.028 0.033,0.025 0.028,-0.021 -0.035,-0.027 z m 0.004,-0.042 -0.018,-10e-4 -0.021,0.015 0.024,0.018 0.028,-0.021 z m -0.061,-0.004 0.012,0.009 0.01,-0.007 z m -0.046,0.018 0.023,0.018 0.024,-0.018 -0.023,-0.018 z m -0.021,-0.02 H -0.4 l 0.011,0.011 0.014,-0.011 z m -0.186,0.011 0.026,0.015 -0.006,0.012 -0.043,-0.023 -0.069,0.007 0.103,0.057 0.001,0.016 -0.126,-0.07 -0.063,0.008 0.19,0.1 -0.007,0.013 -0.207,-0.108 -0.045,0.006 0.255,0.139 -0.007,0.011 -0.27,-0.146 -0.06,0.01 0.334,0.172 -0.006,0.011 -0.35,-0.18 -0.059,0.01 0.414,0.218 -0.006,0.011 -0.43,-0.225 -0.041,0.009 0.478,0.255 -0.006,0.012 -0.494,-0.264 -0.052,0.012 0.555,0.299 -0.007,0.012 -0.569,-0.306 -0.057,0.011 0.638,0.337 -0.007,0.012 -0.65,-0.345 -0.022,0.005 -0.027,0.008 0.712,0.375 -0.006,0.012 -0.727,-0.383 -0.053,0.014 0.796,0.414 -0.005,0.007 0.056,0.003 0.04,0.005 0.019,0.005 0.004,-0.003 -0.006,-0.005 0.006,-0.011 0.01,0.007 0.028,-0.021 -0.025,-0.021 -0.026,0.022 -0.004,-0.016 0.019,-0.013 -0.023,-0.02 V -2.05 l -0.002,-0.013 0.025,-0.02 -0.031,-0.026 0.003,-0.003 -0.001,-10e-4 0.005,-0.004 0.002,-0.002 0.026,-0.022 -0.035,-0.027 0.005,-0.006 -0.005,-0.006 0.031,-0.022 -0.031,-0.027 0.005,-0.003 -0.005,-0.007 0.031,-0.025 -0.031,-0.024 0.005,-0.005 -0.005,-0.006 0.031,-0.023 -0.031,-0.026 0.005,-0.005 -0.005,-0.005 0.031,-0.025 -0.031,-0.025 0.005,-0.005 -0.005,-0.005 0.031,-0.024 -0.024,-0.02 0.002,-0.017 0.001,0.002 0.001,-0.009 0.021,-0.016 -0.017,-0.014 0.002,-0.015 0.027,0.021 0.026,-0.017 -0.022,-0.019 z m -1.084,0.242 -0.097,0.047 0.089,0.066 0.169,-0.15 0.008,0.011 -0.167,0.148 0.173,0.128 -0.007,0.011 -0.176,-0.13 -0.087,0.078 c 0.092,0.035 0.247,0.057 0.421,0.07 l -0.029,-0.013 0.007,-0.012 0.057,0.028 0.072,0.006 -0.143,-0.081 0.005,-0.011 0.169,0.095 0.09,0.004 -0.268,-0.142 0.005,-0.011 0.296,0.155 0.044,0.002 0.058,0.003 -0.405,-0.204 0.006,-0.012 0.432,0.217 0.065,0.002 -0.502,-0.265 0.006,-0.012 0.528,0.279 0.085,0.003 -0.616,-0.318 0.007,-0.012 0.641,0.331 0.063,0.003 -0.704,-0.372 0.006,-0.01 0.729,0.382 h 0.002 l 0.065,0.003 -0.795,-0.414 0.002,-0.003 c -0.116,0.031 -0.222,0.064 -0.304,0.1 m -0.176,0.139 0.054,0.058 0.014,0.006 0.089,-0.079 -0.091,-0.069 z m 1.426,0.23 0.014,-0.012 -0.026,-0.019 -0.004,0.003 z m 0.01,0.051 0.041,-0.033 -0.027,-0.021 -0.02,0.017 z m 0.007,0.053 0.03,-0.026 -0.024,-0.019 -0.01,0.008 z m 0,0.01 0.003,-0.004 -0.003,-0.006 z m 0.003,0.044 v 0.003 L -0.371,-1.785 -0.4,-1.809 Z m 0.003,0.061 0.025,-0.022 -0.027,-0.02 z m 0.001,0.057 0.025,-0.019 -0.025,-0.018 z m 0.001,0.048 0.009,0.004 0.016,-0.011 -0.026,-0.018 z m 0.001,0.039 0.02,0.015 0.018,-0.013 -0.03,-0.02 -0.008,0.009 z m 0,0.032 0.01,-0.008 -0.01,-0.006 z m 0.03,0.053 -0.013,0.009 0.021,-10e-4 z m 0.02,-0.032 -0.03,-0.019 -0.015,0.011 0.025,0.023 z m 0.009,0.008 -0.019,0.016 0.016,0.012 0.016,-0.001 0.013,-0.009 z m 0.056,-0.008 -0.025,-0.015 -0.018,0.014 0.024,0.017 z m 0.012,0.009 -0.019,0.016 0.008,0.004 0.03,-10e-4 0.004,-0.003 z m 0.054,-0.009 -0.024,-0.014 -0.018,0.014 0.022,0.016 z m 0.012,0.008 -0.02,0.016 0.004,0.002 0.038,-0.002 z m 0.057,-0.008 -0.024,-0.017 -0.022,0.017 0.024,0.016 z m 0.012,0.008 -0.019,0.014 0.037,-0.002 z m 0.057,-0.009 -0.023,-0.016 -0.023,0.017 0.023,0.016 z m 0.011,0.009 -0.017,0.012 h 0.017 0.018 z m 0.057,-0.008 -0.022,-0.017 -0.024,0.016 0.023,0.017 z m 0.012,0.008 -0.019,0.012 0.037,0.002 z M 0.065,-1.508 0.043,-1.525 0.019,-1.508 0.04,-1.492 Z m 0.011,0.009 -0.022,0.015 0.038,0.002 0.003,-0.002 z M 0.13,-1.508 0.112,-1.522 0.088,-1.508 0.107,-1.492 Z m 0.067,-10e-4 -0.018,-0.015 -0.026,0.016 0.019,0.016 z m 0.011,0.009 -0.024,0.018 0.012,0.009 0.017,0.001 0.015,-0.012 z m 0.012,-0.051 -0.03,0.02 0.018,0.013 0.028,-0.02 z M 0.232,-1.6 0.204,-1.582 0.22,-1.568 0.249,-1.587 Z m 0.001,-0.059 -0.027,0.019 0.027,0.023 0.029,-0.019 z m 0.001,-0.059 -0.027,0.02 0.027,0.022 0.028,-0.019 z m 10e-4,-0.06 -0.027,0.021 0.027,0.022 0.027,-0.021 z m 0.001,-0.059 -0.028,0.022 0.028,0.02 0.026,-0.019 z m 0,-0.059 -0.027,0.021 0.027,0.021 0.026,-0.021 z m 0,-0.06 -0.026,0.022 0.026,0.02 0.026,-0.02 z M 0.21,-1.994 0.236,-1.974 0.262,-1.994 0.236,-2.016 Z M 0.2,-2.044 0.175,-2.023 0.199,-2.002 0.227,-2.023 Z M 0.173,-2.083 0.2,-2.062 0.227,-2.083 0.2,-2.104 Z M 0.175,-2.142 0.2,-2.121 0.222,-2.14 0.198,-2.16 Z M 0.159,-2.19 0.136,-2.172 0.164,-2.151 0.187,-2.168 Z m -0.024,-0.037 0.024,0.02 0.032,-0.025 -0.024,-0.021 z m -0.006,-0.055 -0.03,0.024 0.026,0.022 0.03,-0.025 z M 0.105,-2.318 0.129,-2.299 0.155,-2.319 0.131,-2.338 Z M 0.07,-2.348 0.095,-2.326 0.12,-2.347 0.095,-2.367 Z m -0.036,-0.027 0.024,0.02 0.026,-0.02 -0.023,-0.02 z m -0.04,-0.031 0.03,0.023 0.025,-0.02 -0.029,-0.025 z m -0.01,-0.01 0.024,-0.02 -0.025,-0.021 -0.026,0.02 z m -0.066,0.012 0.025,0.02 0.03,-0.022 -0.026,-0.022 z m -0.041,-0.033 0.03,0.023 0.029,-0.023 -0.029,-0.023 z m -0.009,-0.007 0.028,-0.023 -0.024,-0.021 -0.029,0.022 z m -0.063,0.008 0.026,0.02 0.026,-0.021 -0.025,-0.019 z m -0.011,-0.007 0.027,-0.023 -0.024,-0.019 -0.027,0.021 z m -0.059,0.005 0.024,0.021 0.024,-0.019 -0.025,-0.019 z m -0.044,-0.034 0.033,0.026 0.025,-0.018 -0.034,-0.025 z m -0.01,-0.008 0.024,-0.018 -0.024,-0.019 -0.023,0.018 z m -0.059,0.008 0.024,0.021 0.025,-0.021 -0.025,-0.018 z m -0.011,-0.008 0.024,-0.019 -0.024,-0.021 -0.025,0.018 z m -0.038,0.03 0.027,-0.022 -0.026,-0.021 -0.027,0.02 z m 0,0.058 0.026,-0.021 -0.026,-0.021 -0.026,0.021 z m 0.001,0.061 0.027,-0.021 -0.028,-0.023 -0.026,0.022 z m -0.001,0.06 0.027,-0.021 -0.027,-0.022 -0.026,0.021 z m 0,0.058 0.026,-0.019 -0.026,-0.022 -0.026,0.022 z m 0.004,0.065 0.026,-0.021 -0.03,-0.026 -0.026,0.021 z m -0.004,0.055 0.027,-0.02 -0.023,-0.019 -0.027,0.023 z m 0.027,0.04 -0.027,-0.021 -0.026,0.019 0.026,0.023 z m 0.009,0.049 0.026,-0.019 -0.024,-0.021 -0.028,0.021 z m 0.025,0.038 -0.025,-0.019 -0.027,0.02 0.024,0.022 z m 0.01,0.052 0.027,-0.022 -0.026,-0.021 -0.027,0.021 z m 0.025,0.037 -0.025,-0.019 -0.029,0.023 0.026,0.019 z m -0.002,0.062 -0.026,-0.022 -0.027,0.023 0.027,0.019 z m 0,0.058 -0.025,-0.019 -0.028,0.02 0.028,0.021 z m 0.002,0.059 -0.027,-0.02 -0.028,0.023 0.028,0.019 z m 0.002,0.058 -0.029,-0.019 -0.028,0.023 0.03,0.019 z m 0.003,0.058 -0.029,-0.018 -0.018,0.013 0.03,0.019 z m -0.016,0.031 -0.017,0.013 0.026,0.02 0.019,-0.013 z m 0.056,-0.004 -0.029,-0.019 -0.018,0.014 0.031,0.019 z m 0.012,0.008 -0.018,0.014 0.026,0.017 0.018,-0.014 z m 0.061,-0.011 -0.025,-0.017 -0.024,0.019 0.025,0.018 z m 0.012,0.008 -0.023,0.019 0.024,0.015 0.022,-0.017 z m 0.058,-0.011 -0.023,-0.016 -0.025,0.018 0.025,0.018 z m 0.011,0.009 -0.023,0.019 0.024,0.016 0.023,-0.016 z m 0.059,-0.009 -0.024,-0.018 -0.024,0.018 0.024,0.019 z m 0.011,0.009 -0.023,0.017 0.023,0.018 0.023,-0.018 z m 0.06,-0.009 -0.025,-0.018 -0.024,0.018 0.024,0.019 z m 0.01,0.009 -0.023,0.019 0.022,0.016 0.025,-0.016 z M 0.066,-1.559 0.043,-1.577 0.02,-1.561 0.043,-1.542 Z M 0.078,-1.55 0.054,-1.533 0.077,-1.516 0.1,-1.531 Z m 0.061,-0.007 -0.024,-0.018 -0.026,0.016 0.024,0.02 z m 0.011,0.01 -0.026,0.017 0.018,0.014 0.026,-0.017 z m 0.041,-0.027 -0.029,0.019 0.017,0.014 0.029,-0.02 z m 0.003,-0.058 -0.027,0.021 0.024,0.02 0.031,-0.018 z m 0.002,-0.057 -0.028,0.019 0.027,0.022 0.027,-0.02 z m 0.001,-0.059 -0.027,0.019 0.026,0.022 0.027,-0.02 z m 0.001,-0.059 -0.027,0.02 0.027,0.021 0.026,-0.019 z m 0.001,-0.06 -0.027,0.021 0.026,0.021 0.027,-0.021 z m 0,-0.059 -0.027,0.021 0.027,0.021 0.026,-0.021 z m -0.026,-0.039 0.026,0.022 0.026,-0.022 -0.026,-0.02 z m -0.01,-0.051 -0.027,0.022 0.027,0.02 0.026,-0.02 z m 0,-0.058 -0.027,0.019 0.027,0.023 0.026,-0.021 z m -0.026,-0.039 0.026,0.02 0.026,-0.02 -0.025,-0.02 z M 0.1,-2.142 0.126,-2.121 0.152,-2.142 0.126,-2.162 Z m 0,-0.059 0.026,0.019 0.023,-0.017 -0.024,-0.02 z M 0.088,-2.248 0.064,-2.229 0.089,-2.21 0.114,-2.227 Z M 0.065,-2.286 0.088,-2.266 0.119,-2.29 0.095,-2.31 Z m -0.037,-0.028 0.026,0.021 0.03,-0.025 -0.026,-0.021 z m -0.035,-0.03 0.025,0.021 0.03,-0.025 -0.024,-0.018 z m -0.01,-0.008 0.03,-0.023 -0.029,-0.023 -0.03,0.023 z m -0.066,0.005 0.03,0.024 0.025,-0.021 -0.029,-0.023 z m -0.036,-0.028 0.025,0.02 0.027,-0.02 -0.026,-0.021 z m -0.011,-0.009 0.026,-0.021 -0.029,-0.023 -0.026,0.022 z m -0.064,0.005 0.03,0.024 0.023,-0.02 -0.028,-0.023 z m -0.012,-0.01 0.025,-0.017 -0.025,-0.022 -0.024,0.02 z m -0.06,0.008 0.025,0.022 0.026,-0.02 -0.026,-0.021 z m -0.036,-0.027 0.025,0.019 0.026,-0.019 -0.026,-0.022 z m -0.01,-0.01 0.024,-0.02 -0.031,-0.024 -0.023,0.02 z m -0.068,0.005 0.029,0.024 0.027,-0.021 -0.03,-0.024 z m -0.011,-0.009 0.026,-0.02 -0.024,-0.021 -0.027,0.021 z m 0.002,0.061 0.028,-0.02 -0.03,-0.023 -0.026,0.021 z m 0,0.06 0.027,-0.021 -0.027,-0.02 -0.027,0.02 z m -0.001,0.059 0.026,-0.022 -0.025,-0.019 -0.028,0.019 z m 0.004,0.063 0.027,-0.02 -0.031,-0.025 -0.027,0.022 z m -0.003,0.058 0.026,-0.021 -0.023,-0.02 -0.025,0.021 z m 0.027,0.039 -0.028,-0.022 -0.027,0.021 0.028,0.021 z m 0.008,0.049 0.026,-0.02 -0.024,-0.021 -0.027,0.021 z m 0.025,0.038 -0.025,-0.021 -0.026,0.022 0.025,0.019 z m 0.01,0.052 0.027,-0.022 -0.025,-0.021 -0.027,0.02 z m 0,0.058 0.026,-0.021 -0.026,-0.021 -0.026,0.021 z m 0.026,0.037 -0.027,-0.019 -0.029,0.021 0.028,0.022 z m 0,0.063 -0.028,-0.022 -0.026,0.022 0.027,0.019 z m 0,0.058 -0.027,-0.021 -0.027,0.021 0.027,0.02 z m 0.001,0.059 -0.027,-0.021 -0.028,0.021 0.028,0.02 z m 0.002,0.057 -0.027,-0.02 -0.028,0.022 0.03,0.019 z m 0.012,0.008 -0.025,0.021 0.029,0.019 0.024,-0.02 z m 0.065,-0.008 -0.029,-0.022 -0.025,0.022 0.028,0.019 z m 0.01,0.007 -0.025,0.02 0.026,0.018 0.024,-0.019 z m 0.06,-0.009 -0.025,-0.019 -0.024,0.021 0.025,0.015 z m 0.012,0.008 -0.025,0.019 0.024,0.017 0.024,-0.018 z m 0.058,-0.01 -0.023,-0.018 -0.024,0.02 0.023,0.017 z m 0.011,0.009 -0.024,0.019 0.024,0.018 0.023,-0.018 z m 0.06,-0.009 -0.024,-0.018 -0.025,0.018 0.024,0.019 z m 0.01,0.01 -0.023,0.018 0.023,0.018 0.025,-0.017 z m 0.061,-0.008 -0.025,-0.02 -0.024,0.02 0.023,0.017 z m 0.011,0.009 -0.025,0.018 0.024,0.02 0.025,-0.019 z M 0.143,-1.611 0.119,-1.633 0.09,-1.611 0.116,-1.593 Z m 0.011,0.008 -0.028,0.019 0.025,0.02 0.029,-0.019 z m 0.004,-0.059 -0.029,0.021 0.026,0.02 0.028,-0.02 z m 0.001,-0.059 -0.027,0.022 0.026,0.021 0.027,-0.02 z m 0,-0.058 -0.026,0.021 0.026,0.022 0.027,-0.021 z m 0.003,-0.059 -0.027,0.023 0.026,0.02 0.026,-0.021 z m 0.001,-0.058 -0.028,0.021 0.027,0.02 0.026,-0.02 z m -0.027,-0.038 0.027,0.02 0.025,-0.02 -0.025,-0.022 z m -0.01,-0.051 -0.026,0.02 0.025,0.022 0.027,-0.022 z m 0,-0.06 -0.026,0.021 0.026,0.022 0.026,-0.021 z M 0.1,-2.083 l 0.026,0.02 0.026,-0.02 -0.026,-0.021 z m -0.011,-0.05 -0.026,0.02 0.026,0.02 0.027,-0.02 z m -0.025,-0.039 0.025,0.02 0.026,-0.02 -0.026,-0.019 z m -0.011,-0.049 -0.026,0.02 0.026,0.021 0.026,-0.021 z m -0.024,-0.037 0.024,0.02 0.025,-0.02 -0.024,-0.019 z m -0.037,-0.029 0.026,0.021 0.025,-0.02 -0.026,-0.021 z m -0.011,-0.008 0.026,-0.019 -0.025,-0.022 -0.025,0.022 z m -0.06,0.008 0.024,0.019 0.026,-0.019 -0.024,-0.02 z m -0.04,-0.032 0.029,0.024 0.026,-0.019 -0.03,-0.024 z m -0.011,-0.009 0.026,-0.019 -0.026,-0.019 -0.023,0.018 z m -0.059,0.009 0.023,0.02 0.026,-0.02 -0.024,-0.02 z m -0.011,-0.009 0.025,-0.02 -0.031,-0.023 -0.024,0.019 z m -0.067,0.006 0.029,0.024 0.027,-0.021 -0.03,-0.023 z m -0.036,-0.03 0.025,0.022 0.027,-0.022 -0.026,-0.02 z M -0.314,-2.359 -0.288,-2.381 -0.312,-2.4 -0.34,-2.381 Z m -0.038,0.029 0.026,-0.022 -0.025,-0.02 -0.027,0.02 z m -0.001,0.059 0.027,-0.021 -0.026,-0.021 -0.027,0.021 z m 0.004,0.063 0.027,-0.021 -0.031,-0.025 -0.026,0.022 z m -0.003,0.056 0.026,-0.021 -0.023,-0.017 -0.026,0.021 z m 0.026,0.04 -0.027,-0.021 -0.026,0.02 0.027,0.022 z m 0.01,0.049 0.026,-0.02 -0.024,-0.021 -0.027,0.022 z m 0.025,0.039 -0.025,-0.02 -0.026,0.021 0.025,0.019 z m 0.01,0.05 0.026,-0.02 -0.025,-0.022 -0.027,0.022 z m -10e-4,0.06 0.027,-0.023 -0.026,-0.019 -0.027,0.02 z m -0.001,0.059 0.028,-0.022 -0.027,-0.02 -0.027,0.02 z m 0.028,0.039 -0.028,-0.022 -0.027,0.023 0.027,0.02 z m -0.001,0.059 -0.027,-0.021 -0.026,0.021 0.026,0.022 z m 0.001,0.059 -0.028,-0.022 -0.026,0.022 0.029,0.02 z m -0.025,0.036 -0.027,0.022 0.029,0.019 0.025,-0.02 z m 0.063,-0.008 -0.027,-0.019 -0.025,0.019 0.027,0.021 z m 0.011,0.008 -0.025,0.021 0.028,0.02 0.025,-0.02 z m 0.063,-0.006 -0.026,-0.021 -0.026,0.019 0.027,0.022 z m 0.011,0.008 -0.025,0.019 0.025,0.019 0.025,-0.019 z m 0.06,-0.01 -0.024,-0.019 -0.025,0.021 0.025,0.019 z m 0.011,0.008 -0.024,0.021 0.023,0.018 0.025,-0.019 z m 0.06,-0.009 -0.024,-0.018 -0.025,0.019 0.025,0.02 z m 0.01,0.009 -0.024,0.02 0.023,0.019 0.026,-0.019 z M 0.072,-1.671 0.046,-1.69 0.02,-1.67 0.044,-1.649 Z m 0.011,0.009 -0.027,0.021 0.024,0.02 0.027,-0.021 z M 0.12,-1.69 0.093,-1.671 0.119,-1.649 0.146,-1.671 Z m 0.003,-0.059 -0.027,0.02 0.025,0.022 0.027,-0.022 z m 0.001,-0.058 -0.026,0.022 0.025,0.018 0.026,-0.02 z m 0.001,-0.06 -0.026,0.021 0.026,0.021 0.026,-0.021 z M 0.099,-1.905 0.125,-1.884 0.152,-1.905 0.125,-1.926 Z m -0.01,-0.051 -0.026,0.022 0.025,0.02 0.027,-0.022 z m 0,-0.06 -0.026,0.022 0.026,0.02 0.027,-0.02 z M 0.064,-2.055 0.089,-2.033 0.116,-2.055 0.089,-2.074 Z m -0.011,-0.05 -0.026,0.022 0.026,0.02 0.026,-0.02 z m -0.026,-0.037 0.026,0.02 0.026,-0.021 -0.026,-0.019 z m -0.01,-0.05 -0.025,0.02 0.025,0.02 0.026,-0.02 z M -0.008,-2.229 0.017,-2.21 0.043,-2.229 0.018,-2.25 Z m -0.01,-0.009 0.025,-0.02 -0.026,-0.019 -0.025,0.019 z m -0.062,0.009 0.025,0.019 0.026,-0.019 -0.026,-0.021 z m -0.036,-0.029 0.025,0.019 0.026,-0.021 -0.025,-0.017 z m -0.01,-0.01 0.026,-0.019 -0.03,-0.023 -0.024,0.02 z m -0.066,0.007 0.028,0.023 0.027,-0.02 -0.029,-0.024 z M -0.203,-2.27 -0.176,-2.29 -0.2,-2.31 -0.228,-2.288 Z m -0.061,0.01 0.024,0.02 0.027,-0.021 -0.025,-0.018 z m -0.041,-0.032 0.031,0.024 0.026,-0.02 -0.03,-0.025 z m -0.01,-0.009 0.026,-0.021 -0.026,-0.02 -0.026,0.02 z m 0.003,0.063 0.026,-0.022 -0.029,-0.023 -0.026,0.019 z m -0.003,0.056 0.027,-0.019 -0.024,-0.02 -0.026,0.022 z m 0.027,0.041 -0.027,-0.021 -0.026,0.02 0.027,0.021 z m 0.01,0.048 0.027,-0.02 -0.026,-0.02 -0.026,0.021 z m 0.025,0.038 -0.025,-0.019 -0.028,0.021 0.026,0.02 z m 0.009,0.051 0.027,-0.02 -0.026,-0.021 -0.026,0.022 z m 0,0.059 0.026,-0.021 -0.026,-0.019 -0.026,0.02 z m 0.025,0.039 -0.025,-0.021 -0.027,0.021 0.025,0.021 z m -0.025,0.081 0.025,-0.021 -0.027,-0.021 -0.025,0.019 z m 0.025,0.038 -0.025,-0.021 -0.028,0.023 0.026,0.019 z m 0.001,0.06 -0.028,-0.021 -0.025,0.021 0.027,0.02 z m 0.01,0.007 -0.025,0.021 0.027,0.021 0.025,-0.02 z m 0.064,-0.007 -0.026,-0.021 -0.026,0.021 0.027,0.02 z m 0.011,0.007 -0.026,0.022 0.027,0.021 0.026,-0.021 z m 0.061,-0.007 -0.025,-0.021 -0.026,0.021 0.027,0.02 z m 0.011,0.009 -0.024,0.02 0.024,0.02 0.025,-0.02 z m 0.062,-0.009 -0.025,-0.021 -0.026,0.021 0.025,0.02 z m 0.011,0.007 -0.027,0.022 0.024,0.02 0.028,-0.021 z m 0.062,-0.009 -0.025,-0.019 -0.025,0.021 0.022,0.02 z m 0.01,0.008 -0.026,0.022 0.025,0.02 0.027,-0.02 z m 0.003,-0.057 -0.026,0.021 0.023,0.021 0.028,-0.022 z m 0.001,-0.059 -0.026,0.022 0.025,0.02 0.027,-0.021 z m -0.026,-0.038 0.026,0.02 0.027,-0.02 -0.027,-0.021 z m -0.01,-0.051 -0.027,0.021 0.026,0.021 0.027,-0.021 z m 0,-0.059 -0.027,0.02 0.027,0.022 0.027,-0.022 z m -0.025,-0.038 0.025,0.019 0.027,-0.02 -0.026,-0.021 z m -0.011,-0.051 -0.028,0.019 0.028,0.022 0.026,-0.022 z m -0.025,-0.039 0.025,0.019 0.026,-0.019 -0.025,-0.02 z m -0.011,-0.049 -0.026,0.02 0.026,0.021 0.026,-0.021 z m 0,-0.02 0.026,-0.019 -0.025,-0.02 -0.025,0.022 z m -0.061,0.011 0.024,0.02 0.026,-0.022 -0.024,-0.018 z m -0.037,-0.028 0.025,0.019 0.027,-0.021 -0.025,-0.02 z m -0.01,-0.011 0.026,-0.019 -0.024,-0.021 -0.026,0.021 z m -0.063,0.011 0.025,0.019 0.026,-0.021 -0.024,-0.02 z m -0.01,-0.009 0.026,-0.021 -0.028,-0.024 -0.026,0.022 z m -0.066,0.007 0.028,0.021 0.027,-0.019 -0.028,-0.024 z m -0.011,-0.01 0.027,-0.02 -0.023,-0.019 -0.027,0.021 z m 0.028,0.04 -0.028,-0.021 -0.026,0.02 0.027,0.023 z m 0.009,0.05 0.026,-0.021 -0.024,-0.02 -0.027,0.021 z m 0.026,0.038 -0.026,-0.021 -0.026,0.022 0.024,0.019 z m 0.009,0.05 0.026,-0.022 -0.026,-0.019 -0.026,0.021 z m -0.002,0.058 0.027,-0.02 -0.025,-0.021 -0.026,0.022 z m 0,0.061 0.026,-0.022 -0.026,-0.02 -0.026,0.02 z m 0.026,0.039 -0.026,-0.022 -0.026,0.02 0.026,0.022 z m -0.026,0.08 0.026,-0.021 -0.026,-0.022 -0.026,0.022 z m 0,0.016 -0.026,0.022 0.026,0.022 0.027,-0.022 z m 0.063,-0.006 -0.026,-0.023 -0.026,0.021 0.027,0.02 z m 0.012,0.007 -0.026,0.021 0.026,0.022 0.025,-0.022 z m 0.061,-0.007 -0.025,-0.022 -0.027,0.022 0.027,0.019 z m 0.011,0.007 -0.025,0.021 0.025,0.022 0.027,-0.021 z m 0.063,-0.007 -0.026,-0.022 -0.026,0.022 0.026,0.02 z m 0.011,0.007 -0.025,0.022 0.024,0.021 0.027,-0.022 z M 0.051,-1.807 0.025,-1.785 0.05,-1.766 0.076,-1.785 Z M 0.025,-1.846 0.051,-1.824 0.078,-1.846 0.051,-1.867 Z m -0.01,-0.05 -0.027,0.021 0.025,0.02 0.027,-0.02 z m 0,-0.06 -0.027,0.02 0.027,0.022 0.026,-0.02 z m -0.026,-0.038 0.026,0.02 0.026,-0.02 -0.025,-0.022 z m -0.01,-0.051 -0.027,0.021 0.027,0.022 0.025,-0.021 z m -0.025,-0.038 0.025,0.02 0.025,-0.021 -0.025,-0.02 z m -0.037,-0.03 0.025,0.02 0.026,-0.02 -0.025,-0.02 z m -0.036,-0.028 0.024,0.02 0.028,-0.021 -0.026,-0.02 z m -0.011,-0.01 0.026,-0.021 -0.024,-0.019 -0.027,0.02 z m -0.062,0.01 0.024,0.02 0.027,-0.021 -0.025,-0.02 z m -0.012,-0.008 0.027,-0.023 -0.025,-0.018 -0.027,0.021 z m 0.026,0.036 -0.026,-0.02 -0.026,0.021 0.024,0.019 z m 0.01,0.05 0.026,-0.02 -0.026,-0.021 -0.026,0.022 z m -0.001,0.059 0.026,-0.02 -0.025,-0.021 -0.028,0.021 z m -0.002,0.061 0.027,-0.023 -0.025,-0.02 -0.027,0.02 z m 0,0.059 0.027,-0.022 -0.027,-0.021 -0.027,0.021 z m 0.026,0.038 -0.026,-0.021 -0.027,0.021 0.027,0.021 z m 0.012,0.008 -0.027,0.022 0.027,0.021 0.026,-0.02 z m 0.062,-0.008 -0.026,-0.021 -0.027,0.021 0.027,0.022 z m 0.011,0.009 -0.026,0.022 0.025,0.02 0.027,-0.02 z m 0.038,-0.09 -0.026,0.021 0.026,0.022 0.026,-0.021 z m -0.026,-0.038 0.026,0.022 0.026,-0.022 -0.025,-0.02 z m -0.012,-0.051 -0.025,0.021 0.026,0.021 0.027,-0.02 z m -0.024,-0.039 0.024,0.022 0.028,-0.022 -0.026,-0.019 z m -0.037,-0.028 0.026,0.02 0.027,-0.02 -0.027,-0.021 z m -0.01,-0.01 0.026,-0.02 -0.025,-0.02 -0.027,0.021 z m -0.001,0.06 0.026,-0.022 -0.026,-0.019 -0.027,0.019 z m -0.001,0.058 0.026,-0.02 -0.026,-0.021 -0.026,0.021 z m 0,0.061 0.026,-0.022 -0.026,-0.02 -0.026,0.02 z m 0,0.018 -0.026,0.021 0.026,0.02 0.026,-0.02 z m 0.062,-0.01 -0.025,-0.021 -0.027,0.021 0.026,0.022 z m 0.011,0.01 -0.026,0.021 0.026,0.02 0.026,-0.02 z m -0.025,-0.04 0.025,0.022 0.026,-0.022 -0.026,-0.02 z m -0.011,-0.068 0.026,-0.02 -0.025,-0.021 -0.028,0.021 z m 0,0.018 -0.027,0.02 0.027,0.023 0.026,-0.022 z m 0.084,0.171 0.025,0.02 0.027,-0.02 -0.027,-0.022 z m 0.015,-0.031 -0.025,-0.021 -0.026,0.021 0.024,0.022 z M 0.231,-1.468 0.25,-1.466 0.239,-1.475 Z M 0.238,-1.493 0.263,-1.516 0.247,-1.527 0.22,-1.508 Z M 0.12,-1.48 0.152,-1.479 0.162,-1.483 0.142,-1.5 0.119,-1.483 0.121,-1.481 Z m -0.511,0.011 0.018,-0.015 -0.019,-0.018 z m 0,0.565 0.085,0.019 -0.027,-0.051 0.035,-0.055 h -0.093 v 0.027 z m 0.138,0.021 0.064,-0.053 -0.064,-0.053 -0.066,0.053 z m 0.028,0.09 0.075,-0.08 -0.016,-0.045 0.048,-0.073 H -0.21 l 0.035,0.055 -0.078,0.067 -0.031,-0.006 z m 0.013,0.008 v 0 h 0.3 0.001 l -0.072,-0.077 -0.079,0.031 -0.08,-0.031 -0.073,0.077 z m 0.013,0.119 h 0.273 v -0.105 h -0.273 z m 0.024,0.121 h 0.226 v -0.107 h -0.226 z m 0,0.119 h 0.226 v -0.106 h -0.226 z m 0.202,0.014 h -0.179 v 0.145 h 0.179 z m -0.186,0.237 0.097,-0.012 0.096,0.012 v -0.077 h -0.193 z m 0.097,-0.816 -0.09,0.073 0.09,0.073 0.089,-0.073 z M 0.161,-0.875 0.129,-0.869 0.05,-0.936 0.084,-0.991 h -0.092 l 0.048,0.073 -0.015,0.045 0.075,0.08 z m 0.033,-0.061 -0.065,-0.053 -0.065,0.053 0.065,0.053 z m 0.072,0.033 V -0.991 H 0.173 l 0.035,0.055 -0.028,0.051 z m -0.514,0.78 0.038,0.137 -0.038,0.129 0.031,0.017 0.019,-0.044 0.019,-0.102 -0.019,-0.108 -0.018,-0.047 z M -0.311,-0.062 -0.264,0 -0.32,0.063 -0.258,0.135 -0.255,0.131 -0.224,0.014 -0.243,-0.084 -0.258,-0.116 Z M 0.07,-0.094 0.051,0.014 0.07,0.116 0.089,0.16 0.083,0.164 0.12,0.145 0.083,0.014 0.12,-0.125 0.089,-0.141 Z m 0.209,-0.857 v 0 0.061 H 0.273 0.27 L 0.155,-0.854 0.112,-0.779 0.12,-0.771 H 0.088 v 0.119 H 0.064 v 0.24 H 0.04 v 0.144 h 0.008 v 0.097 L 0.2,-0.065 0.215,-0.068 0.292,0 0.215,0.066 V 0.053 L 0.278,0 0.215,-0.053 H 0.208 L 0.194,-0.051 0.152,0 0.201,0.052 0.196,0.063 0.139,0 0.187,-0.062 0.131,-0.118 0.115,-0.084 0.096,0.014 0.115,0.105 0.128,0.131 0.131,0.137 0.196,0.063 0.209,0.066 C 0.182,0.131 0.107,0.18 0.013,0.198 L 0.012,0.186 0.077,0.166 0.038,0.014 l 0.039,-0.16 -0.139,-0.028 -0.066,0.006 -0.045,0.012 -0.032,0.01 0.039,0.16 -0.039,0.151 0.069,0.021 -0.003,0.012 C -0.232,0.18 -0.307,0.131 -0.335,0.066 L -0.339,0.053 -0.326,0.052 -0.277,0 -0.319,-0.051 -0.333,-0.053 H -0.34 L -0.402,0 -0.34,0.053 V 0.066 L -0.416,0 l 0.076,-0.068 0.016,0.003 0.151,-0.106 v -0.097 h 0.007 v -0.144 h -0.023 v -0.24 h -0.023 v -0.119 h -0.016 -0.018 l 0.009,-0.008 -0.043,-0.076 -0.118,-0.037 h -0.006 v -0.113 -0.218 -0.026 -0.086 c 0,-0.192 -0.001,-0.332 -0.007,-0.43 -0.006,-0.116 -0.02,-0.173 -0.037,-0.183 L -0.47,-1.953 c -0.066,-0.011 -0.259,-0.015 -0.48,-0.025 -0.091,-0.001 -0.187,-0.006 -0.282,-0.013 -0.161,-0.011 -0.315,-0.026 -0.431,-0.052 l -0.139,-0.045 -0.056,-0.066 c 0.002,-0.057 0.074,-0.106 0.184,-0.153 0.332,-0.14 1.023,-0.252 1.276,-0.254 l 0.106,0.006 c 0.133,0.01 0.245,0.041 0.331,0.094 H 0.04 l 0.07,0.053 0.088,0.105 0.001,0.002 c 0.054,0.093 0.081,0.207 0.081,0.348 z"
         style="fill:#e42a34;fill-opacity:1;fill-rule:nonzero;stroke:none"
         id="path34044"
         inkscape:connector-curvature="0" />
    </g>
    <g
       id="g34046"
       transform="matrix(0.35277777,0,0,-0.35277777,55.285147,95.95385)">
      <path
         d="m 0,0 h -0.112 c -0.037,-0.201 -0.037,-0.399 0,-0.6 H 0 c -0.038,0.201 -0.038,0.399 0,0.6"
         style="fill:#ffffff;fill-opacity:1;fill-rule:nonzero;stroke:none"
         id="path34048"
         inkscape:connector-curvature="0" />
    </g>
    <g
       id="g34050"
       transform="matrix(0.35277777,0,0,-0.35277777,55.282046,96.162976)">
      <path
         d="m 0,0 c -0.017,0.097 -0.026,0.194 -0.026,0.292 0,0.098 0.009,0.195 0.026,0.293 H -0.098 C -0.115,0.487 -0.125,0.39 -0.125,0.292 -0.125,0.194 -0.115,0.099 -0.098,0 Z m -0.108,-0.015 -0.002,0.006 c -0.019,0.102 -0.028,0.201 -0.028,0.301 0,0.1 0.009,0.201 0.028,0.301 l 0.002,0.006 H 0.016 L 0.015,0.591 c -0.018,-0.1 -0.028,-0.199 -0.028,-0.299 0,-0.099 0.01,-0.197 0.028,-0.298 l 0.001,-0.009 z"
         style="fill:#e42a34;fill-opacity:1;fill-rule:nonzero;stroke:none"
         id="path34052"
         inkscape:connector-curvature="0" />
    </g>
    <g
       id="g34054"
       transform="matrix(0.35277777,0,0,-0.35277777,54.961826,95.968312)">
      <path
         d="m 0,0 -0.135,-0.02 c -0.03,-0.126 -0.03,-0.233 0,-0.359 L 0,-0.419 C -0.031,-0.293 -0.031,-0.127 0,0"
         style="fill:#ffffff;fill-opacity:1;fill-rule:nonzero;stroke:none"
         id="path34056"
         inkscape:connector-curvature="0" />
    </g>
    <g
       id="g34058"
       transform="matrix(0.35277777,0,0,-0.35277777,54.958376,96.112671)">
      <path
         d="M 0,0 -0.021,0.199 0.001,0.401 -0.12,0.384 -0.141,0.21 -0.12,0.035 Z M -0.131,0.024 -0.132,0.028 -0.154,0.21 -0.132,0.39 -0.13,0.396 0.007,0.415 0.018,0.417 0.016,0.407 -0.006,0.199 0.016,-0.008 0.019,-0.02 Z"
         style="fill:#e42a34;fill-opacity:1;fill-rule:nonzero;stroke:none"
         id="path34060"
         inkscape:connector-curvature="0" />
    </g>
    <g
       id="g34062"
       transform="matrix(0.35277777,0,0,-0.35277777,55.803976,95.785397)">
      <path
         d="m 0,0 h -0.168 c -0.021,0.051 -0.101,0.089 -0.195,0.089 -0.112,0 -0.202,-0.052 -0.202,-0.115 V -0.04 h -0.113 l -0.11,0.089 -0.106,-0.07 H -0.982 L -0.99,-0.04 h -0.269 v 0.005 L -1.37,0.069 -1.473,0.007 -1.549,0.034 -1.625,0.007 C -1.649,0.054 -1.727,0.089 -1.818,0.089 -1.914,0.089 -1.992,0.051 -2.014,0 h -0.19 L -2.22,-0.035 v -0.13 L -2.204,-0.2 h 0.19 c 0.022,-0.051 0.1,-0.09 0.196,-0.09 0.091,0 0.169,0.035 0.193,0.083 l 0.076,-0.027 0.075,0.028 0.104,-0.065 0.111,0.106 v 0.006 h 0.269 l 0.008,-0.021 h 0.088 l 0.106,-0.071 0.11,0.092 h 0.113 v -0.014 c 0,-0.064 0.09,-0.117 0.202,-0.117 0.094,0 0.174,0.039 0.195,0.09 H 0 l 0.017,0.035 v 0.13 z"
         style="fill:#ffffff;fill-opacity:1;fill-rule:nonzero;stroke:none"
         id="path34064"
         inkscape:connector-curvature="0" />
    </g>
    <g
       id="g34066"
       transform="matrix(0.35277777,0,0,-0.35277777,55.807437,95.843606)">
      <path
         d="M 0,0 -0.004,-0.021 -0.008,-0.027 H -0.01 -0.269 -0.271 L -0.278,0 v 0.13 l 0.005,0.021 0.002,0.006 0.002,0.001 H -0.01 L -0.008,0.157 0,0.13 Z m -0.234,-0.086 -0.139,-0.032 -0.14,0.032 -0.055,0.078 v 0.007 H -0.5 l 0.127,-0.085 0.105,0.045 h 0.08 z m -0.564,0.007 -0.096,0.058 h 0.04 l 0.056,-0.031 0.065,0.051 h 0.036 z m -0.195,0.092 v 0.103 l 0.002,0.018 0.002,0.005 h 0.135 L -0.851,0.116 V 0.013 L -0.853,-0.005 -0.854,-0.008 H -0.989 Z M -1.262,0.012 v 0.106 h 0.255 V 0.116 0.013 0.012 Z M -1.32,0.11 V 0.019 L -1.38,-0.059 -1.44,0.019 V 0.11 l 0.06,0.077 z M -1.275,0 -1.38,-0.099 l -0.095,0.056 0.025,0.033 0.07,-0.062 0.074,0.091 V 0.11 L -1.38,0.201 -1.45,0.139 -1.475,0.173 -1.38,0.227 -1.275,0.13 Z m -0.351,-0.039 0.006,0.018 h 0.021 l 0.04,-0.015 0.074,0.09 V 0.075 L -1.559,0.166 -1.599,0.151 H -1.62 l -0.006,0.018 0.067,0.022 0.105,-0.097 v -0.06 l -0.105,-0.096 z m -0.062,-0.047 -0.14,-0.032 -0.138,0.032 -0.046,0.045 h 0.078 l 0.106,-0.045 0.12,0.065 h 0.073 z M -2.218,-0.021 -2.223,0 v 0.13 l 0.005,0.021 0.005,0.007 h 0.279 L -1.928,0.151 -1.924,0.13 V 0 l -0.004,-0.021 -0.005,-0.006 h -0.28 z m 0.252,0.235 0.138,0.034 0.14,-0.034 0.053,-0.063 H -1.707 L -1.828,0.216 -1.934,0.172 h -0.078 z m 0.051,-0.057 -0.006,0.009 0.013,0.011 0.08,0.025 0.082,-0.025 0.023,-0.026 H -1.729 L -1.741,0.139 -1.745,0.116 V 0.013 l 0.004,-0.022 0.012,-0.012 h 0.006 l -0.023,-0.028 -0.082,-0.024 -0.08,0.024 -0.013,0.014 0.006,0.008 L -1.91,0 V 0.13 Z M -1.592,0.139 -1.588,0.116 V 0.013 l -0.003,-0.018 -0.001,-0.003 h -0.136 l -0.003,0.021 v 0.103 l 0.002,0.018 0.001,0.005 z M -1.499,0.075 V 0.054 l -0.06,-0.075 -0.022,0.003 0.004,0.009 0.003,0.022 v 0.103 l -0.003,0.023 -0.004,0.007 0.022,0.006 z m 0.701,0.132 0.101,-0.075 h -0.036 l -0.065,0.05 -0.056,-0.031 h -0.04 z M -0.74,0.012 -0.744,0.016 -0.747,0.025 v 0.078 l 0.003,0.012 0.003,0.003 H -0.5 L -0.495,0.115 -0.493,0.103 V 0.025 L -0.495,0.016 -0.498,0.012 Z M -0.839,0.139 -0.842,0.145 -0.798,0.168 -0.746,0.13 -0.761,0.103 V 0.025 L -0.746,0 l -0.052,-0.038 -0.044,0.023 0.003,0.006 0.002,0.022 v 0.103 z m 0.553,-0.166 0.006,-0.009 -0.012,-0.013 -0.081,-0.024 -0.082,0.024 -0.032,0.054 0.008,0.02 V 0.103 L -0.487,0.125 -0.455,0.177 -0.373,0.202 -0.292,0.177 -0.28,0.166 -0.286,0.157 -0.292,0.13 V 0 Z m -0.282,0.166 0.055,0.075 0.14,0.034 0.139,-0.034 0.046,-0.042 h -0.08 L -0.373,0.216 -0.5,0.132 H -0.568 Z M 0.007,0.157 -0.01,0.172 H -0.174 C -0.199,0.225 -0.279,0.26 -0.373,0.26 -0.486,0.26 -0.581,0.209 -0.582,0.139 V 0.132 h -0.1 L -0.798,0.221 -0.909,0.151 H -0.992 L -1.004,0.139 -1.005,0.132 H -1.262 L -1.38,0.24 -1.485,0.182 -1.559,0.205 -1.633,0.182 -1.828,0.26 c -0.094,0 -0.175,-0.035 -0.199,-0.088 H -2.213 L -2.231,0.157 -2.237,0.13 V 0 l 0.006,-0.027 0.018,-0.014 h 0.186 c 0.024,-0.054 0.105,-0.091 0.199,-0.091 l 0.195,0.08 0.074,-0.024 0.074,0.024 0.105,-0.06 0.118,0.111 h 0.257 l 10e-4,-0.008 0.012,-0.012 h 0.083 l 0.111,-0.071 0.116,0.091 h 0.1 v -0.007 c 0.001,-0.072 0.096,-0.124 0.209,-0.124 0.094,0 0.174,0.037 0.199,0.091 H -0.01 L 0.007,-0.027 0.013,0 v 0.13 z"
         style="fill:#e42a34;fill-opacity:1;fill-rule:nonzero;stroke:none"
         id="path34068"
         inkscape:connector-curvature="0" />
    </g>
  </g>
</svg>
