<?xml version="1.0" encoding="UTF-8" standalone="no"?>
<!-- Created with Inkscape (http://www.inkscape.org/) -->

<svg
   xmlns:dc="http://purl.org/dc/elements/1.1/"
   xmlns:cc="http://creativecommons.org/ns#"
   xmlns:rdf="http://www.w3.org/1999/02/22-rdf-syntax-ns#"
   xmlns:svg="http://www.w3.org/2000/svg"
   xmlns="http://www.w3.org/2000/svg"
   xmlns:sodipodi="http://sodipodi.sourceforge.net/DTD/sodipodi-0.dtd"
   xmlns:inkscape="http://www.inkscape.org/namespaces/inkscape"
   width="7.084836mm"
   height="4.7328668mm"
   viewBox="0 0 7.084836 4.7328668"
   version="1.1"
   id="svg8"
   inkscape:version="0.92.4 (5da689c313, 2019-01-14)"
   sodipodi:docname="republic_of_korea.svg">
  <defs
     id="defs2">
    <radialGradient
       id="radialGradient37584"
       spreadMethod="pad"
       gradientTransform="matrix(0.975099,0,0,0.975099,159.64062,365.06934)"
       gradientUnits="userSpaceOnUse"
       r="1"
       cy="0"
       cx="0"
       fy="0"
       fx="0">
      <stop
         id="stop37578"
         offset="0"
         style="stop-opacity:1;stop-color:#852c26" />
      <stop
         id="stop37580"
         offset="0.0015476"
         style="stop-opacity:1;stop-color:#852c26" />
      <stop
         id="stop37582"
         offset="1"
         style="stop-opacity:1;stop-color:#451617" />
    </radialGradient>
    <clipPath
       id="clipPath37532"
       clipPathUnits="userSpaceOnUse">
      <path
         inkscape:connector-curvature="0"
         id="path37530"
         d="M 0,400 H 400 V 0 H 0 Z" />
    </clipPath>
    <radialGradient
       id="radialGradient37522"
       spreadMethod="pad"
       gradientTransform="matrix(-0.2637247,0,0,0.2637247,159.68652,365.88965)"
       gradientUnits="userSpaceOnUse"
       r="1"
       cy="0"
       cx="0"
       fy="0"
       fx="0">
      <stop
         id="stop37516"
         offset="0"
         style="stop-opacity:1;stop-color:#852c26" />
      <stop
         id="stop37518"
         offset="0.0015476"
         style="stop-opacity:1;stop-color:#852c26" />
      <stop
         id="stop37520"
         offset="1"
         style="stop-opacity:1;stop-color:#451617" />
    </radialGradient>
    <clipPath
       id="clipPath37354"
       clipPathUnits="userSpaceOnUse">
      <path
         inkscape:connector-curvature="0"
         id="path37352"
         d="M 0,400 H 400 V 0 H 0 Z" />
    </clipPath>
    <radialGradient
       id="radialGradient37344"
       spreadMethod="pad"
       gradientTransform="matrix(0.975099,0,0,0.975099,155.76025,365.06934)"
       gradientUnits="userSpaceOnUse"
       r="1"
       cy="0"
       cx="0"
       fy="0"
       fx="0">
      <stop
         id="stop37338"
         offset="0"
         style="stop-opacity:1;stop-color:#eee54f" />
      <stop
         id="stop37340"
         offset="0.9977451"
         style="stop-opacity:1;stop-color:#e04a20" />
      <stop
         id="stop37342"
         offset="1"
         style="stop-opacity:1;stop-color:#e04a20" />
    </radialGradient>
    <clipPath
       id="clipPath37272"
       clipPathUnits="userSpaceOnUse">
      <path
         inkscape:connector-curvature="0"
         id="path37270"
         d="M 0,400 H 400 V 0 H 0 Z" />
    </clipPath>
    <radialGradient
       id="radialGradient37262"
       spreadMethod="pad"
       gradientTransform="matrix(0.2636045,0,0,0.2636045,155.71484,365.89062)"
       gradientUnits="userSpaceOnUse"
       r="1"
       cy="0"
       cx="0"
       fy="0"
       fx="0">
      <stop
         id="stop37256"
         offset="0"
         style="stop-opacity:1;stop-color:#eee54f" />
      <stop
         id="stop37258"
         offset="0.9977451"
         style="stop-opacity:1;stop-color:#e04a20" />
      <stop
         id="stop37260"
         offset="1"
         style="stop-opacity:1;stop-color:#e04a20" />
    </radialGradient>
    <radialGradient
       id="radialGradient5422"
       spreadMethod="pad"
       gradientTransform="matrix(0.1021146,-0.0756367,0.070541,0.1077099,271.97559,176.14746)"
       gradientUnits="userSpaceOnUse"
       r="1"
       cy="0"
       cx="0"
       fy="0"
       fx="0">
      <stop
         id="stop5416"
         offset="0"
         style="stop-opacity:1;stop-color:#ffffff" />
      <stop
         id="stop5418"
         offset="0.00091915"
         style="stop-opacity:1;stop-color:#ffffff" />
      <stop
         id="stop5420"
         offset="1"
         style="stop-opacity:1;stop-color:#e63e6e" />
    </radialGradient>
    <clipPath
       id="clipPath5374"
       clipPathUnits="userSpaceOnUse">
      <path
         inkscape:connector-curvature="0"
         id="path5372"
         d="M 0,400 H 400 V 0 H 0 Z" />
    </clipPath>
    <radialGradient
       id="radialGradient5364"
       spreadMethod="pad"
       gradientTransform="matrix(0.1318831,-9.013e-4,-1.001e-4,0.1311822,269.56445,176.4248)"
       gradientUnits="userSpaceOnUse"
       r="1"
       cy="0"
       cx="0"
       fy="0"
       fx="0">
      <stop
         id="stop5358"
         offset="0"
         style="stop-opacity:1;stop-color:#ffffff" />
      <stop
         id="stop5360"
         offset="0.00091915"
         style="stop-opacity:1;stop-color:#ffffff" />
      <stop
         id="stop5362"
         offset="1"
         style="stop-opacity:1;stop-color:#e63e6e" />
    </radialGradient>
    <clipPath
       id="clipPath5316"
       clipPathUnits="userSpaceOnUse">
      <path
         inkscape:connector-curvature="0"
         id="path5314"
         d="M 0,400 H 400 V 0 H 0 Z" />
    </clipPath>
    <radialGradient
       id="radialGradient5306"
       spreadMethod="pad"
       gradientTransform="matrix(0.1105445,0.0935377,-0.0930375,0.1086438,268.6875,176.89062)"
       gradientUnits="userSpaceOnUse"
       r="1"
       cy="0"
       cx="0"
       fy="0"
       fx="0">
      <stop
         id="stop5300"
         offset="0"
         style="stop-opacity:1;stop-color:#ffffff" />
      <stop
         id="stop5302"
         offset="0.00091915"
         style="stop-opacity:1;stop-color:#ffffff" />
      <stop
         id="stop5304"
         offset="1"
         style="stop-opacity:1;stop-color:#e63e6e" />
    </radialGradient>
  </defs>
  <sodipodi:namedview
     id="base"
     pagecolor="#ffffff"
     bordercolor="#666666"
     borderopacity="1.0"
     inkscape:pageopacity="0.0"
     inkscape:pageshadow="2"
     inkscape:zoom="11.2"
     inkscape:cx="24.353059"
     inkscape:cy="6.2612484"
     inkscape:document-units="mm"
     inkscape:current-layer="layer1"
     showgrid="false"
     inkscape:window-width="954"
     inkscape:window-height="630"
     inkscape:window-x="-3"
     inkscape:window-y="6"
     inkscape:window-maximized="0" />
  <metadata
     id="metadata5">
    <rdf:RDF>
      <cc:Work
         rdf:about="">
        <dc:format>image/svg+xml</dc:format>
        <dc:type
           rdf:resource="http://purl.org/dc/dcmitype/StillImage" />
        <dc:title></dc:title>
      </cc:Work>
    </rdf:RDF>
  </metadata>
  <g
     inkscape:label="Layer 1"
     inkscape:groupmode="layer"
     id="layer1"
     transform="translate(-54.841712,-98.588274)">
    <g
       id="g26476"
       transform="matrix(0.35277777,0,0,-0.35277777,54.870993,103.29186)">
      <path
         d="M 0,0 H 19.917 V 13.25 H 0 Z M 19.958,-0.042 V 0 Z M -0.083,-0.083 V 13.333 H 20 V -0.042 -0.083 Z"
         style="fill:#221f21;fill-opacity:1;fill-rule:nonzero;stroke:none"
         id="path26478"
         inkscape:connector-curvature="0" />
    </g>
    <path
       d="m 61.911736,103.30668 h -7.05556 v -4.703583 h 7.05556 z"
       style="fill:#ffffff;fill-opacity:1;fill-rule:nonzero;stroke:none;stroke-width:0.35277778"
       id="path26480"
       inkscape:connector-curvature="0" />
    <g
       id="g26482"
       transform="matrix(0.35277777,0,0,-0.35277777,59.539624,100.8493)">
      <path
         d="m 0,0 c 0.165,-1.81 -1.168,-3.409 -2.977,-3.574 -1.809,-0.165 -3.409,1.167 -3.574,2.976 -0.164,1.809 1.168,3.41 2.977,3.574 C -1.766,3.141 -0.165,1.809 0,0"
         style="fill:#c12131;fill-opacity:1;fill-rule:nonzero;stroke:none"
         id="path26484"
         inkscape:connector-curvature="0" />
    </g>
    <g
       id="g26486"
       transform="matrix(0.35277777,0,0,-0.35277777,57.391763,100.35527)">
      <path
         d="m 0,0 c -0.47,-0.777 -0.224,-1.787 0.553,-2.257 0.777,-0.47 1.786,-0.222 2.256,0.554 0.47,0.776 1.48,1.023 2.256,0.553 C 5.841,-1.62 6.088,-2.63 5.618,-3.405 4.678,-4.958 2.659,-5.452 1.106,-4.512 -0.445,-3.572 -0.94,-1.553 0,0"
         style="fill:#294588;fill-opacity:1;fill-rule:nonzero;stroke:none"
         id="path26488"
         inkscape:connector-curvature="0" />
    </g>
    <g
       id="g26490"
       transform="matrix(0.35277777,0,0,-0.35277777,55.917965,100.02041)">
      <path
         d="M 0,0 0.427,-0.288 2.272,2.448 1.846,2.736 Z"
         style="fill:#0e0f0e;fill-opacity:1;fill-rule:nonzero;stroke:none"
         id="path26492"
         inkscape:connector-curvature="0" />
    </g>
    <g
       id="g26494"
       transform="matrix(0.35277777,0,0,-0.35277777,56.149994,100.17698)">
      <path
         d="M 0,0 0.426,-0.288 2.272,2.448 1.846,2.736 Z"
         style="fill:#0e0f0e;fill-opacity:1;fill-rule:nonzero;stroke:none"
         id="path26496"
         inkscape:connector-curvature="0" />
    </g>
    <g
       id="g26498"
       transform="matrix(0.35277777,0,0,-0.35277777,56.382015,100.33357)">
      <path
         d="M 0,0 0.427,-0.287 2.272,2.449 1.845,2.736 Z"
         style="fill:#0e0f0e;fill-opacity:1;fill-rule:nonzero;stroke:none"
         id="path26500"
         inkscape:connector-curvature="0" />
    </g>
    <g
       id="g26502"
       transform="matrix(0.35277777,0,0,-0.35277777,59.934094,101.92192)">
      <path
         d="M 0,0 0.427,-0.288 1.281,0.979 0.855,1.268 Z"
         style="fill:#0e0f0e;fill-opacity:1;fill-rule:nonzero;stroke:none"
         id="path26504"
         inkscape:connector-curvature="0" />
    </g>
    <g
       id="g26506"
       transform="matrix(0.35277777,0,0,-0.35277777,59.584563,102.44004)">
      <path
         d="M 0,0 0.427,-0.288 1.282,0.98 0.855,1.268 Z"
         style="fill:#0e0f0e;fill-opacity:1;fill-rule:nonzero;stroke:none"
         id="path26508"
         inkscape:connector-curvature="0" />
    </g>
    <g
       id="g26510"
       transform="matrix(0.35277777,0,0,-0.35277777,60.166115,102.07848)">
      <path
         d="M 0,0 0.426,-0.288 1.282,0.979 0.855,1.268 Z"
         style="fill:#0e0f0e;fill-opacity:1;fill-rule:nonzero;stroke:none"
         id="path26512"
         inkscape:connector-curvature="0" />
    </g>
    <g
       id="g26514"
       transform="matrix(0.35277777,0,0,-0.35277777,59.816764,102.59629)">
      <path
         d="M 0,0 0.426,-0.289 1.282,0.979 0.854,1.267 Z"
         style="fill:#0e0f0e;fill-opacity:1;fill-rule:nonzero;stroke:none"
         id="path26516"
         inkscape:connector-curvature="0" />
    </g>
    <g
       id="g26518"
       transform="matrix(0.35277777,0,0,-0.35277777,60.397964,102.23491)">
      <path
         d="M 0,0 0.426,-0.287 1.282,0.98 0.855,1.267 Z"
         style="fill:#0e0f0e;fill-opacity:1;fill-rule:nonzero;stroke:none"
         id="path26520"
         inkscape:connector-curvature="0" />
    </g>
    <g
       id="g26522"
       transform="matrix(0.35277777,0,0,-0.35277777,60.048645,102.75307)">
      <path
         d="M 0,0 0.427,-0.287 1.282,0.98 0.855,1.269 Z"
         style="fill:#0e0f0e;fill-opacity:1;fill-rule:nonzero;stroke:none"
         id="path26524"
         inkscape:connector-curvature="0" />
    </g>
    <g
       id="g26526"
       transform="matrix(0.35277777,0,0,-0.35277777,60.467703,100.27808)">
      <path
         d="M 0,0 0.427,0.287 -1.418,3.023 -1.845,2.736 Z"
         style="fill:#0e0f0e;fill-opacity:1;fill-rule:nonzero;stroke:none"
         id="path26528"
         inkscape:connector-curvature="0" />
    </g>
    <g
       id="g26530"
       transform="matrix(0.35277777,0,0,-0.35277777,60.350405,99.603892)">
      <path
         d="M 0,0 0.426,0.288 -0.428,1.556 -0.855,1.268 Z"
         style="fill:#0e0f0e;fill-opacity:1;fill-rule:nonzero;stroke:none"
         id="path26532"
         inkscape:connector-curvature="0" />
    </g>
    <g
       id="g26534"
       transform="matrix(0.35277777,0,0,-0.35277777,60.699904,100.12201)">
      <path
         d="M 0,0 0.426,0.288 -0.429,1.556 -0.856,1.268 Z"
         style="fill:#0e0f0e;fill-opacity:1;fill-rule:nonzero;stroke:none"
         id="path26536"
         inkscape:connector-curvature="0" />
    </g>
    <g
       id="g26538"
       transform="matrix(0.35277777,0,0,-0.35277777,59.886363,99.916694)">
      <path
         d="M 0,0 0.426,0.287 -0.428,1.556 -0.854,1.268 Z"
         style="fill:#0e0f0e;fill-opacity:1;fill-rule:nonzero;stroke:none"
         id="path26540"
         inkscape:connector-curvature="0" />
    </g>
    <g
       id="g26542"
       transform="matrix(0.35277777,0,0,-0.35277777,60.235864,100.43485)">
      <path
         d="M 0,0 0.426,0.287 -0.429,1.556 -0.855,1.268 Z"
         style="fill:#0e0f0e;fill-opacity:1;fill-rule:nonzero;stroke:none"
         id="path26544"
         inkscape:connector-curvature="0" />
    </g>
    <g
       id="g26546"
       transform="matrix(0.35277777,0,0,-0.35277777,57.033133,102.5415)">
      <path
         d="M 0,0 0.426,0.288 -1.419,3.024 -1.846,2.736 Z"
         style="fill:#0e0f0e;fill-opacity:1;fill-rule:nonzero;stroke:none"
         id="path26548"
         inkscape:connector-curvature="0" />
    </g>
    <g
       id="g26550"
       transform="matrix(0.35277777,0,0,-0.35277777,56.569263,102.85435)">
      <path
         d="M 0,0 0.426,0.287 -1.419,3.023 -1.846,2.736 Z"
         style="fill:#0e0f0e;fill-opacity:1;fill-rule:nonzero;stroke:none"
         id="path26552"
         inkscape:connector-curvature="0" />
    </g>
    <g
       id="g26554"
       transform="matrix(0.35277777,0,0,-0.35277777,56.451613,102.18012)">
      <path
         d="M 0,0 0.427,0.288 -0.428,1.556 -0.855,1.269 Z"
         style="fill:#0e0f0e;fill-opacity:1;fill-rule:nonzero;stroke:none"
         id="path26556"
         inkscape:connector-curvature="0" />
    </g>
    <g
       id="g26558"
       transform="matrix(0.35277777,0,0,-0.35277777,56.801115,102.69757)">
      <path
         d="M 0,0 0.427,0.287 -0.428,1.554 -0.855,1.267 Z"
         style="fill:#0e0f0e;fill-opacity:1;fill-rule:nonzero;stroke:none"
         id="path26560"
         inkscape:connector-curvature="0" />
    </g>
  </g>
</svg>
