<?xml version="1.0" encoding="UTF-8" standalone="no"?>
<!-- Created with Inkscape (http://www.inkscape.org/) -->

<svg
   xmlns:dc="http://purl.org/dc/elements/1.1/"
   xmlns:cc="http://creativecommons.org/ns#"
   xmlns:rdf="http://www.w3.org/1999/02/22-rdf-syntax-ns#"
   xmlns:svg="http://www.w3.org/2000/svg"
   xmlns="http://www.w3.org/2000/svg"
   xmlns:sodipodi="http://sodipodi.sourceforge.net/DTD/sodipodi-0.dtd"
   xmlns:inkscape="http://www.inkscape.org/namespaces/inkscape"
   width="7.084836mm"
   height="4.7328668mm"
   viewBox="0 0 7.084836 4.7328668"
   version="1.1"
   id="svg8"
   inkscape:version="0.92.4 (5da689c313, 2019-01-14)"
   sodipodi:docname="saudi_arabia.svg">
  <defs
     id="defs2">
    <radialGradient
       id="radialGradient37584"
       spreadMethod="pad"
       gradientTransform="matrix(0.975099,0,0,0.975099,159.64062,365.06934)"
       gradientUnits="userSpaceOnUse"
       r="1"
       cy="0"
       cx="0"
       fy="0"
       fx="0">
      <stop
         id="stop37578"
         offset="0"
         style="stop-opacity:1;stop-color:#852c26" />
      <stop
         id="stop37580"
         offset="0.0015476"
         style="stop-opacity:1;stop-color:#852c26" />
      <stop
         id="stop37582"
         offset="1"
         style="stop-opacity:1;stop-color:#451617" />
    </radialGradient>
    <clipPath
       id="clipPath37532"
       clipPathUnits="userSpaceOnUse">
      <path
         inkscape:connector-curvature="0"
         id="path37530"
         d="M 0,400 H 400 V 0 H 0 Z" />
    </clipPath>
    <radialGradient
       id="radialGradient37522"
       spreadMethod="pad"
       gradientTransform="matrix(-0.2637247,0,0,0.2637247,159.68652,365.88965)"
       gradientUnits="userSpaceOnUse"
       r="1"
       cy="0"
       cx="0"
       fy="0"
       fx="0">
      <stop
         id="stop37516"
         offset="0"
         style="stop-opacity:1;stop-color:#852c26" />
      <stop
         id="stop37518"
         offset="0.0015476"
         style="stop-opacity:1;stop-color:#852c26" />
      <stop
         id="stop37520"
         offset="1"
         style="stop-opacity:1;stop-color:#451617" />
    </radialGradient>
    <clipPath
       id="clipPath37354"
       clipPathUnits="userSpaceOnUse">
      <path
         inkscape:connector-curvature="0"
         id="path37352"
         d="M 0,400 H 400 V 0 H 0 Z" />
    </clipPath>
    <radialGradient
       id="radialGradient37344"
       spreadMethod="pad"
       gradientTransform="matrix(0.975099,0,0,0.975099,155.76025,365.06934)"
       gradientUnits="userSpaceOnUse"
       r="1"
       cy="0"
       cx="0"
       fy="0"
       fx="0">
      <stop
         id="stop37338"
         offset="0"
         style="stop-opacity:1;stop-color:#eee54f" />
      <stop
         id="stop37340"
         offset="0.9977451"
         style="stop-opacity:1;stop-color:#e04a20" />
      <stop
         id="stop37342"
         offset="1"
         style="stop-opacity:1;stop-color:#e04a20" />
    </radialGradient>
    <clipPath
       id="clipPath37272"
       clipPathUnits="userSpaceOnUse">
      <path
         inkscape:connector-curvature="0"
         id="path37270"
         d="M 0,400 H 400 V 0 H 0 Z" />
    </clipPath>
    <radialGradient
       id="radialGradient37262"
       spreadMethod="pad"
       gradientTransform="matrix(0.2636045,0,0,0.2636045,155.71484,365.89062)"
       gradientUnits="userSpaceOnUse"
       r="1"
       cy="0"
       cx="0"
       fy="0"
       fx="0">
      <stop
         id="stop37256"
         offset="0"
         style="stop-opacity:1;stop-color:#eee54f" />
      <stop
         id="stop37258"
         offset="0.9977451"
         style="stop-opacity:1;stop-color:#e04a20" />
      <stop
         id="stop37260"
         offset="1"
         style="stop-opacity:1;stop-color:#e04a20" />
    </radialGradient>
    <radialGradient
       id="radialGradient5422"
       spreadMethod="pad"
       gradientTransform="matrix(0.1021146,-0.0756367,0.070541,0.1077099,271.97559,176.14746)"
       gradientUnits="userSpaceOnUse"
       r="1"
       cy="0"
       cx="0"
       fy="0"
       fx="0">
      <stop
         id="stop5416"
         offset="0"
         style="stop-opacity:1;stop-color:#ffffff" />
      <stop
         id="stop5418"
         offset="0.00091915"
         style="stop-opacity:1;stop-color:#ffffff" />
      <stop
         id="stop5420"
         offset="1"
         style="stop-opacity:1;stop-color:#e63e6e" />
    </radialGradient>
    <clipPath
       id="clipPath5374"
       clipPathUnits="userSpaceOnUse">
      <path
         inkscape:connector-curvature="0"
         id="path5372"
         d="M 0,400 H 400 V 0 H 0 Z" />
    </clipPath>
    <radialGradient
       id="radialGradient5364"
       spreadMethod="pad"
       gradientTransform="matrix(0.1318831,-9.013e-4,-1.001e-4,0.1311822,269.56445,176.4248)"
       gradientUnits="userSpaceOnUse"
       r="1"
       cy="0"
       cx="0"
       fy="0"
       fx="0">
      <stop
         id="stop5358"
         offset="0"
         style="stop-opacity:1;stop-color:#ffffff" />
      <stop
         id="stop5360"
         offset="0.00091915"
         style="stop-opacity:1;stop-color:#ffffff" />
      <stop
         id="stop5362"
         offset="1"
         style="stop-opacity:1;stop-color:#e63e6e" />
    </radialGradient>
    <clipPath
       id="clipPath5316"
       clipPathUnits="userSpaceOnUse">
      <path
         inkscape:connector-curvature="0"
         id="path5314"
         d="M 0,400 H 400 V 0 H 0 Z" />
    </clipPath>
    <radialGradient
       id="radialGradient5306"
       spreadMethod="pad"
       gradientTransform="matrix(0.1105445,0.0935377,-0.0930375,0.1086438,268.6875,176.89062)"
       gradientUnits="userSpaceOnUse"
       r="1"
       cy="0"
       cx="0"
       fy="0"
       fx="0">
      <stop
         id="stop5300"
         offset="0"
         style="stop-opacity:1;stop-color:#ffffff" />
      <stop
         id="stop5302"
         offset="0.00091915"
         style="stop-opacity:1;stop-color:#ffffff" />
      <stop
         id="stop5304"
         offset="1"
         style="stop-opacity:1;stop-color:#e63e6e" />
    </radialGradient>
  </defs>
  <sodipodi:namedview
     id="base"
     pagecolor="#ffffff"
     bordercolor="#666666"
     borderopacity="1.0"
     inkscape:pageopacity="0.0"
     inkscape:pageshadow="2"
     inkscape:zoom="11.2"
     inkscape:cx="21.547481"
     inkscape:cy="10.150073"
     inkscape:document-units="mm"
     inkscape:current-layer="layer1"
     showgrid="false"
     inkscape:window-width="954"
     inkscape:window-height="630"
     inkscape:window-x="-3"
     inkscape:window-y="6"
     inkscape:window-maximized="0" />
  <metadata
     id="metadata5">
    <rdf:RDF>
      <cc:Work
         rdf:about="">
        <dc:format>image/svg+xml</dc:format>
        <dc:type
           rdf:resource="http://purl.org/dc/dcmitype/StillImage" />
        <dc:title></dc:title>
      </cc:Work>
    </rdf:RDF>
  </metadata>
  <g
     inkscape:label="Layer 1"
     inkscape:groupmode="layer"
     id="layer1"
     transform="translate(-55.584017,-99.617194)">
    <g
       id="g14292"
       transform="matrix(0.35277777,0,0,-0.35277777,55.613298,104.32078)">
      <path
         d="M 0,0 H 19.917 L 19.916,13.251 H 0 Z M 19.958,-0.042 V 0 Z M -0.083,-0.083 V 13.333 H 20 V -0.042 -0.083 Z"
         style="fill:#221f21;fill-opacity:1;fill-rule:nonzero;stroke:none"
         id="path14294"
         inkscape:connector-curvature="0" />
    </g>
    <path
       d="M 62.65411,104.33539 H 55.59855 V 99.6318 h 7.05556 z"
       style="fill:#39953e;fill-opacity:1;fill-rule:nonzero;stroke:none;stroke-width:0.35277778"
       id="path14296"
       inkscape:connector-curvature="0" />
    <g
       id="g14298"
       transform="matrix(0.35277777,0,0,-0.35277777,58.377308,101.1134)">
      <path
         d="m 0,0 -0.027,0.002 -0.102,-0.124 -0.05,-0.189 0.089,-0.109 0.125,0.029 0.108,0.187 -0.1,-0.078 -0.105,-0.026 -0.032,0.093 z M -2.506,0.735 -2.519,0.526 -2.521,0.519 -2.549,0.432 c 0.047,0.08 0.094,0.162 0.11,0.255 L -2.477,0.851 -2.58,0.819 -2.632,0.718 Z M 0.055,0.604 0.105,0.668 0.085,0.531 0.066,0.535 Z M 0.113,0.328 0.192,0.357 0.181,0.443 0.237,0.613 0.211,0.773 0.062,0.796 -0.049,0.668 C -0.078,0.575 -0.071,0.464 0.008,0.397 -0.104,0.242 -0.252,0.117 -0.406,0.008 l -0.133,-0.099 -0.002,-0.025 0.172,0.052 c 0.187,0.091 0.367,0.214 0.482,0.392 M -1.607,0.59 -1.499,0.645 -1.447,0.59 -1.389,0.587 -1.336,0.666 -1.361,0.758 -1.429,0.661 -1.476,0.803 -1.492,0.802 -1.569,0.673 -1.62,0.686 -1.636,0.795 -1.648,0.827 -1.664,0.831 -1.696,0.697 Z m -1.03,-1.162 0.1,0.087 c 0.058,0.093 0.077,0.204 0.092,0.311 l 0.017,0.121 0.005,0.006 0.079,0.261 0.02,0.005 0.008,-0.116 -0.024,-0.202 c -0.005,-0.139 0.012,-0.294 0.101,-0.407 0.062,-0.08 0.166,-0.114 0.264,-0.111 0.015,-0.175 0.041,-0.35 0.058,-0.524 l 0.004,-0.006 0.017,-0.181 0.019,-0.233 h 0.019 l 0.066,0.187 c 0.009,0.169 -0.018,0.337 -0.022,0.506 -0.006,0.115 -0.018,0.23 -0.025,0.347 l 0.107,0.124 0.056,0.092 0.022,0.002 0.069,-0.165 0.241,-0.072 0.195,0.132 c 0.06,0.088 0.053,0.199 0.045,0.301 -0.017,0.128 -0.054,0.255 -0.086,0.381 L -1.124,0.301 -1.126,0.382 -1.188,0.48 -1.299,0.589 -1.383,0.504 -1.429,0.422 -1.375,0.264 c 0.056,-0.148 0.102,-0.301 0.12,-0.457 l -0.049,-0.09 -0.18,0.033 -0.082,0.139 c -0.03,0.122 -0.068,0.247 -0.053,0.374 0.023,0.121 -0.025,0.25 -0.118,0.327 L -1.773,0.568 C -1.806,0.478 -1.817,0.377 -1.79,0.283 c 0.026,-0.119 0.05,-0.239 0.071,-0.36 l -0.135,-0.228 -0.009,0.079 -0.011,0.095 c -0.017,0.166 -0.036,0.333 -0.047,0.5 l 0.065,0.072 c 0,0.099 -0.05,0.188 -0.094,0.274 l -0.083,0.097 -0.09,-0.134 0.035,-0.127 c -0.01,-0.094 0.035,-0.18 0.045,-0.272 0.01,-0.095 0.012,-0.195 0.023,-0.292 0.005,-0.105 0.016,-0.211 0.026,-0.317 l -0.094,0.027 -0.105,0.161 -0.018,0.067 -0.01,0.179 0.054,0.221 0.009,0.152 L -2.243,0.54 -2.362,0.445 C -2.418,0.363 -2.46,0.271 -2.488,0.176 L -2.49,0.17 C -2.532,0.023 -2.516,-0.137 -2.574,-0.279 L -2.64,-0.336 -2.727,-0.23 c -0.044,0.116 -0.059,0.241 -0.07,0.366 L -2.805,0.397 -2.83,0.396 C -2.862,0.31 -2.879,0.217 -2.879,0.123 L -2.885,0.116 c 0,-0.205 0.034,-0.413 0.125,-0.598 z m 9.71,0.104 C 7.047,-0.193 6.994,0.079 7.006,0.356 L 7.09,0.319 7.074,0.426 C 7.022,0.538 6.971,0.65 6.922,0.766 L 6.871,0.843 6.816,0.805 6.738,0.677 6.755,0.523 C 6.766,0.404 6.791,0.282 6.799,0.163 L 6.815,0.007 6.837,-0.184 C 6.879,-0.554 6.92,-0.925 6.945,-1.297 6.955,-1.479 6.959,-1.668 6.894,-1.843 6.841,-1.992 6.736,-2.121 6.615,-2.224 6.521,-2.307 6.414,-2.371 6.314,-2.445 l -0.082,-0.089 0.224,0.028 c 0.167,0.041 0.328,0.125 0.437,0.26 0.106,0.129 0.167,0.287 0.198,0.45 l 0.004,0.005 c 0.025,0.152 0.04,0.307 0.036,0.461 -0.006,0.287 -0.027,0.575 -0.058,0.862 M 5.845,-2.386 5.897,-2.233 5.886,-2.207 5.713,-2.193 5.684,-2.278 5.764,-2.353 5.65,-2.511 5.73,-2.552 5.942,-2.45 5.941,-2.39 Z M 5.546,-5.639 C 5.443,-5.65 5.339,-5.643 5.234,-5.646 L 5.152,-5.586 5.092,-5.62 5.088,-5.65 C 4.984,-5.66 4.881,-5.657 4.778,-5.659 l -0.059,0.077 -0.001,0.09 c 0.279,0.008 0.559,0.015 0.84,0.024 z m 0.261,0.357 -0.223,0.061 c -0.29,0 -0.579,-0.009 -0.869,-0.013 l 0.002,0.09 0.053,0.119 -0.079,0.122 -0.045,10e-4 -0.077,-0.125 0.062,-0.131 0.002,-0.074 C 3.565,-5.246 2.498,-5.246 1.431,-5.241 1.229,-5.244 1.027,-5.236 0.824,-5.237 c -0.541,0.002 -1.082,0.008 -1.624,0.014 -0.272,-0.001 -0.544,0.01 -0.815,0.009 0.068,-0.108 0.179,-0.181 0.298,-0.223 0.195,-0.071 0.406,-0.088 0.613,-0.1 0.223,-0.013 0.446,-0.004 0.669,-0.013 0.709,-0.007 1.418,-0.003 2.125,0.007 0.647,0.006 1.295,0.02 1.943,0.034 0.203,0.005 0.406,0.012 0.61,0.012 V -5.584 L 4.58,-5.675 4.677,-5.839 h 0.019 l 0.068,0.097 c 0.105,0 0.211,0.009 0.316,0.007 l 0.079,-0.063 0.075,0.071 c 0.114,0.002 0.227,0.003 0.339,0.003 l 0.085,-0.07 0.154,0.04 0.068,0.249 z m -8.398,2.991 -0.09,0.066 c -0.034,0.116 -0.004,0.239 0.032,0.348 l 0.013,0.244 -0.022,-0.002 -0.071,-0.219 C -2.77,-1.951 -2.785,-2.055 -2.783,-2.159 l 0.02,-0.227 0.125,-0.1 0.148,0.131 0.004,0.175 z m 0.329,1.304 0.17,0.059 -10e-4,0.124 -0.047,-0.002 C -2.252,-0.842 -2.363,-0.888 -2.464,-0.952 -2.6,-1.041 -2.729,-1.146 -2.816,-1.283 l 0.144,0.094 c 0.131,0.078 0.269,0.145 0.41,0.202 m 0.856,-0.115 -0.015,0.156 0.025,0.012 0.085,-0.037 0.084,-0.097 z m 0.427,-1.143 c 0.104,0.091 0.177,0.214 0.214,0.347 0.049,0.175 0.05,0.363 0.036,0.544 l -0.008,0.234 0.008,0.051 0.023,-0.001 0.16,-0.116 0.208,0.053 0.081,0.078 0.03,0.006 0.07,-0.074 0.184,-0.03 0.101,0.087 0.03,0.247 -0.03,0.157 -0.101,-0.065 0.008,-0.052 0.012,-0.127 -0.071,-0.098 -0.105,0.068 -0.055,0.236 -0.022,0.003 -0.104,-0.235 -0.141,-0.098 -0.098,0.065 -0.022,0.208 -0.05,0.042 -0.139,-0.115 c -0.01,0.155 -0.019,0.31 -0.031,0.465 C -0.8,-0.179 -0.82,0.007 -0.83,0.193 l 0.062,-0.033 0.045,0.038 -0.009,0.128 c -0.042,0.098 -0.074,0.199 -0.11,0.298 L -0.904,0.782 -0.992,0.721 -1.068,0.614 -1.04,0.496 -1.042,0.422 -1.022,0.168 -1.015,0.091 -1.01,0.084 -0.982,-0.164 -0.979,-0.17 c 0.027,-0.252 0.062,-0.503 0.07,-0.756 l -0.136,-0.076 -0.184,0.231 -0.156,0.063 -0.135,-0.107 -0.084,-0.207 0.004,-0.226 0.038,-0.059 0.194,-0.031 0.223,0.071 -0.011,-0.151 -0.054,-0.075 -0.242,-0.216 c -0.091,-0.062 -0.194,-0.117 -0.304,-0.135 l -0.214,0.067 c -0.104,0.117 -0.13,0.285 -0.117,0.437 l 0.008,0.149 -0.06,-0.106 c -0.023,-0.091 -0.04,-0.184 -0.04,-0.279 -0.002,-0.098 -0.001,-0.198 0.043,-0.289 0.057,-0.111 0.158,-0.207 0.284,-0.224 0.157,-0.021 0.305,0.049 0.437,0.121 0.174,0.099 0.34,0.24 0.401,0.438 l 0.004,0.007 c 0.028,0.101 0.014,0.208 0.012,0.312 l 0.105,0.06 c 0.004,-0.117 -0.003,-0.234 0,-0.349 L -0.915,-1.746 -0.918,-1.753 C -0.945,-1.856 -1.016,-1.942 -1.1,-2.006 -1.234,-2.12 -1.396,-2.199 -1.564,-2.25 -1.66,-2.278 -1.76,-2.299 -1.862,-2.295 c -0.108,0 -0.221,0.036 -0.292,0.12 -0.087,0.097 -0.111,0.231 -0.125,0.355 v 0.187 l 0.005,0.274 C -2.35,-1.492 -2.37,-1.647 -2.385,-1.797 -2.396,-1.976 -2.375,-2.159 -2.3,-2.324 l 0.107,-0.135 c 0.088,-0.066 0.201,-0.088 0.31,-0.09 0.187,-0.002 0.372,0.045 0.547,0.11 0.126,0.048 0.256,0.101 0.357,0.194 m 6.903,1.475 c -0.002,0.092 -0.016,0.185 -0.016,0.278 0.11,-0.157 0.223,-0.313 0.332,-0.469 l 0.027,-0.092 c 0.016,-0.109 0.03,-0.218 0.042,-0.33 0.01,-0.131 0.003,-0.262 0.002,-0.392 l 0.029,-0.065 0.054,0.168 0.011,0.203 c -0.009,0.105 -0.007,0.211 -0.017,0.315 0.119,-0.158 0.234,-0.32 0.342,-0.487 l 0.105,-0.172 0.019,10e-4 -0.013,0.249 c -0.052,0.179 -0.173,0.325 -0.275,0.478 -0.067,0.103 -0.14,0.2 -0.205,0.306 -0.013,0.12 -0.022,0.241 -0.032,0.361 -0.017,0.174 -0.046,0.53 -0.046,0.53 L 6.279,0.269 6.316,0.248 6.345,0.259 6.349,0.35 C 6.318,0.458 6.292,0.568 6.262,0.677 L 6.191,0.843 6.135,0.816 6.045,0.66 6.055,0.538 C 6.061,0.317 6.086,0.098 6.113,-0.122 6.133,-0.257 6.158,-0.391 6.176,-0.525 6.078,-0.387 5.977,-0.25 5.879,-0.113 5.875,0.032 5.858,0.176 5.853,0.321 L 5.918,0.297 5.911,0.363 C 5.867,0.503 5.816,0.639 5.764,0.775 L 5.714,0.818 5.607,0.634 5.639,0.467 C 5.643,0.377 5.66,0.286 5.664,0.195 L 5.509,0.417 H 5.562 L 5.581,0.442 5.555,0.496 C 5.472,0.582 5.373,0.65 5.301,0.745 L 5.197,0.789 5.191,0.742 5.186,0.529 5.28,0.331 C 5.422,0.159 5.555,-0.021 5.695,-0.195 l 0.018,-0.18 C 5.717,-0.464 5.729,-0.552 5.73,-0.643 L 5.735,-0.648 C 5.754,-0.969 5.786,-1.287 5.77,-1.607 L 5.709,-1.785 5.593,-1.854 5.45,-1.793 5.266,-1.576 5.16,-1.574 5.039,-1.742 C 4.955,-1.881 4.88,-2.024 4.811,-2.172 l -0.083,-0.117 -0.1,0.002 -0.075,0.125 0.086,-0.035 0.119,0.09 c 0.062,0.111 0.1,0.236 0.115,0.363 0.021,0.185 -0.023,0.369 -0.056,0.551 -0.008,0.117 -0.029,0.234 -0.038,0.353 L 4.775,-0.834 C 4.756,-0.652 4.732,-0.473 4.711,-0.291 4.699,-0.154 4.678,-0.019 4.672,0.118 L 4.811,0.178 4.786,0.336 C 4.723,0.432 4.684,0.542 4.646,0.65 L 4.578,0.84 4.479,0.905 4.371,0.852 4.258,0.629 C 4.237,0.52 4.264,0.41 4.29,0.305 4.316,0.207 4.326,0.107 4.338,0.007 c 0.035,-0.254 0.066,-0.509 0.1,-0.763 0.02,-0.162 0.041,-0.326 0.064,-0.488 0.023,-0.231 0.082,-0.461 0.054,-0.693 L 4.523,-2.082 4.496,-1.873 4.484,-1.624 4.466,-1.621 4.407,-1.831 C 4.38,-1.977 4.346,-2.131 4.39,-2.275 4.418,-2.373 4.506,-2.432 4.579,-2.494 l 0.134,-0.067 0.09,0.058 c 0.09,0.117 0.16,0.25 0.22,0.386 l 0.132,0.228 0.058,0.034 0.105,-0.134 c 0.079,-0.085 0.194,-0.13 0.309,-0.134 0.101,-0.003 0.191,0.06 0.248,0.142 0.081,0.12 0.09,0.268 0.095,0.409 L 5.965,-1.566 C 5.956,-1.301 5.939,-1.035 5.924,-0.77 M 5.437,-0.736 C 5.318,-0.85 5.174,-0.935 5.053,-1.045 l -0.03,-0.083 0.118,0.06 c 0.093,0.076 0.198,0.138 0.303,0.199 l 0.111,0.07 -0.006,0.138 z m -1.53,1.17 C 3.93,0.274 3.95,0.115 3.971,-0.044 4,-0.288 4.025,-0.534 4.043,-0.779 4.062,-1.022 4.067,-1.268 4.084,-1.512 4.094,-1.606 4.096,-1.702 4.092,-1.798 4.083,-1.933 4.017,-2.059 3.924,-2.156 3.807,-2.284 3.679,-2.408 3.522,-2.488 l -0.249,-0.1 V -2.61 l 0.176,-0.01 c 0.106,0.01 0.217,0.012 0.311,0.065 0.117,0.069 0.197,0.179 0.285,0.28 0.113,0.125 0.16,0.294 0.179,0.458 0.016,0.161 0.019,0.325 0.009,0.487 C 4.229,-1.068 4.209,-0.806 4.18,-0.545 4.152,-0.271 4.111,0.005 4.124,0.281 L 4.209,0.258 4.202,0.34 4.137,0.57 4.12,0.638 4.117,0.645 4.067,0.783 4.02,0.766 3.9,0.639 3.881,0.506 Z m -4.204,-2.233 0.027,0.01 0.073,0.168 -0.007,0.185 -0.153,0.034 -0.008,-0.13 0.098,-0.015 -0.004,-0.143 z M 3.629,0.069 3.59,-0.056 3.556,-0.072 3.515,0.025 3.497,0.029 l 0.024,-0.187 0.12,0.056 0.083,-0.051 0.067,0.022 0.013,0.032 -0.013,0.2 L 3.77,0.096 3.755,0.062 3.691,-0.064 3.645,0.053 Z m 1.337,-0.397 0.042,-0.002 0.039,0.037 0.128,-0.211 0.047,-0.078 0.04,0.061 c 0.005,0.105 -0.002,0.211 0,0.318 L 5.296,-0.137 5.397,-0.158 5.396,-0.094 5.351,-0.002 5.318,0.014 5.207,-0.109 5.216,-0.322 5.205,-0.421 5.139,-0.292 5.031,-0.113 4.975,-0.127 4.955,-0.193 v -0.098 z m 0.517,-1.109 0.084,0.093 c 0.029,0.105 -0.014,0.215 -0.085,0.293 L 5.411,-1.03 5.354,-1.134 5.484,-1.262 Z M 6.562,0.156 6.578,0 h 0.021 l 0.04,0.221 C 6.633,0.359 6.61,0.504 6.529,0.621 L 6.448,0.537 6.461,0.449 C 6.518,0.361 6.547,0.26 6.562,0.156 M 1.785,-0.793 1.758,-0.795 1.701,-0.7 1.652,-0.631 1.636,-0.758 1.615,-0.817 1.577,-0.818 1.519,-0.659 1.504,-0.636 1.523,-0.888 1.61,-0.926 l 0.063,0.09 h 0.024 l 0.074,-0.045 0.097,0.09 -0.046,0.219 -0.016,-0.155 z m 0.475,0.009 0.178,-0.08 0.056,-0.042 -0.228,-0.063 -0.023,0.16 z M 0.402,-0.947 C 0.443,-1.044 0.496,-1.135 0.541,-1.229 L 0.572,-1.407 0.451,-1.596 C 0.347,-1.684 0.244,-1.779 0.13,-1.855 v 0.131 L 0.128,-1.549 H 0.107 C 0.049,-1.646 0.011,-1.754 -0.026,-1.86 l -0.036,-0.129 -0.022,-0.025 c -0.189,-0.131 -0.388,-0.248 -0.591,-0.357 l -0.258,-0.137 -0.004,-0.029 0.065,-0.004 c 0.272,0.079 0.542,0.166 0.799,0.285 0.012,-0.096 0.035,-0.199 0.106,-0.269 0.078,-0.085 0.205,-0.097 0.314,-0.085 0.178,0.026 0.327,0.139 0.456,0.26 0.125,0.123 0.234,0.258 0.333,0.403 C 1.19,-2.088 1.27,-2.22 1.385,-2.319 1.566,-2.48 1.811,-2.555 2.049,-2.58 l 0.138,0.041 0.039,0.18 -0.157,0.063 -0.188,0.132 0.002,0.137 0.199,0.109 c 0.214,0.078 0.433,0.146 0.656,0.189 L 2.926,-1.68 3.001,-1.528 3.01,-1.434 2.822,-1.437 C 2.567,-1.451 2.313,-1.456 2.058,-1.456 1.953,-1.455 1.849,-1.458 1.744,-1.45 c 0.166,0.09 0.343,0.155 0.521,0.22 l 0.106,-0.014 -0.002,0.047 c 0.095,0.037 0.195,0.074 0.269,0.148 L 2.735,-0.831 2.6,-0.629 C 2.51,-0.571 2.411,-0.512 2.302,-0.516 L 2.15,-0.595 2.033,-0.831 2.09,-1.024 C 1.939,-1.069 1.792,-1.125 1.646,-1.18 L 1.439,-1.273 1.334,-1.449 1.31,-1.59 1.407,-1.618 c 0.101,-0.007 0.2,-0.003 0.3,-0.013 0.095,-0.007 0.192,-0.022 0.272,-0.076 L 2.013,-1.74 C 1.888,-1.789 1.762,-1.871 1.711,-2.001 L 1.707,-2.22 C 1.568,-2.182 1.426,-2.109 1.353,-1.98 1.266,-1.828 1.258,-1.649 1.229,-1.481 1.213,-1.37 1.187,-1.262 1.166,-1.152 v -0.016 c -0.047,0.205 -0.133,0.4 -0.219,0.592 L 0.889,-0.462 0.806,-0.599 0.783,-0.778 C 0.844,-0.943 0.899,-1.11 0.951,-1.279 L 0.955,-1.286 1.016,-1.492 1.019,-1.498 1.064,-1.669 C 0.973,-1.845 0.856,-2.006 0.713,-2.141 0.605,-2.238 0.483,-2.329 0.338,-2.354 L 0.135,-2.318 0.088,-2.16 c 0.15,0.078 0.281,0.187 0.398,0.308 0.095,0.092 0.178,0.202 0.214,0.329 0.024,0.102 0.019,0.209 0,0.31 L 0.678,-1.129 0.617,-0.955 0.684,-0.941 0.617,-0.786 0.487,-0.638 0.416,-0.634 0.353,-0.752 0.322,-0.878 Z M 2.535,-2.48 2.64,-2.53 c 0.109,-0.002 0.195,0.078 0.278,0.138 l 0.078,0.086 -0.06,-0.007 C 2.842,-2.346 2.758,-2.41 2.656,-2.42 l -0.02,0.038 0.032,0.219 -0.166,-0.068 -0.082,-0.074 0.135,0.03 z m -1.901,2.068 0.129,0.104 c 0.052,0.122 0.093,0.25 0.135,0.376 L 0.966,0.205 0.986,0.2 0.99,0.118 C 0.976,-0.006 0.971,-0.135 1,-0.258 l 0.139,-0.217 0.262,-0.009 c 0.135,0.054 0.248,0.158 0.318,0.286 0.074,-0.094 0.162,-0.193 0.286,-0.219 l 0.228,0.11 C 2.305,-0.191 2.33,-0.051 2.316,0.082 2.305,0.177 2.288,0.271 2.264,0.363 L 2.221,0.498 2.312,0.442 2.369,0.438 2.36,0.529 2.215,0.769 2.109,0.822 2.059,0.731 1.988,0.613 2.06,0.434 C 2.094,0.328 2.126,0.219 2.144,0.107 L 2.135,-0.149 2.028,-0.219 1.903,-0.125 C 1.832,-0.016 1.8,0.114 1.779,0.241 1.775,0.367 1.769,0.491 1.746,0.614 1.73,0.708 1.706,0.803 1.656,0.885 H 1.631 L 1.551,0.727 1.569,0.584 C 1.601,0.43 1.634,0.272 1.63,0.114 L 1.568,-0.119 1.381,-0.261 1.202,-0.263 1.117,-0.088 C 1.114,0.077 1.109,0.241 1.136,0.404 L 1.148,0.561 1.098,0.629 1.016,0.594 C 0.947,0.508 0.894,0.41 0.843,0.312 0.773,0.176 0.711,0.035 0.665,-0.109 L 0.569,-0.186 0.441,-0.014 0.423,0.062 C 0.403,0.166 0.401,0.272 0.409,0.378 L 0.437,0.566 0.419,0.565 C 0.367,0.462 0.34,0.346 0.326,0.23 0.304,0.043 0.358,-0.151 0.477,-0.298 Z M 3.49,0.612 3.569,0.498 3.572,0.251 3.637,0.328 C 3.69,0.458 3.658,0.605 3.596,0.727 L 3.501,0.804 3.444,0.666 Z M 2.438,0.51 2.555,0.41 C 2.721,0.189 2.89,-0.03 3.037,-0.263 3.053,-0.356 3.063,-0.452 3.075,-0.547 L 3.079,-0.553 3.1,-0.702 c 0.04,-0.325 0.088,-0.652 0.109,-0.98 0.002,-0.14 0.016,-0.286 -0.027,-0.423 L 3.17,-2.252 3.234,-2.183 c 0.088,0.205 0.107,0.432 0.102,0.653 L 3.33,-1.523 C 3.329,-1.315 3.284,-1.111 3.273,-0.904 3.269,-0.799 3.256,-0.694 3.252,-0.588 3.461,-0.92 3.678,-1.25 3.846,-1.604 l 0.111,-0.236 0.027,0.005 c 0.004,0.139 -0.042,0.274 -0.092,0.402 -0.089,0.212 -0.202,0.412 -0.318,0.609 -0.106,0.179 -0.217,0.356 -0.33,0.53 L 3.22,-0.141 C 3.211,-0.031 3.211,0.077 3.209,0.187 L 3.279,0.16 3.294,0.187 3.266,0.332 C 3.225,0.459 3.168,0.58 3.115,0.705 L 3.058,0.768 2.986,0.708 2.944,0.572 2.986,0.454 C 2.984,0.318 3.017,0.185 3.026,0.049 L 3.017,0.071 C 2.938,0.178 2.865,0.289 2.791,0.398 L 2.916,0.396 2.854,0.517 C 2.752,0.625 2.638,0.719 2.527,0.817 L 2.439,0.842 2.425,0.816 2.435,0.634 Z M 1.369,0.441 1.372,0.224 h 0.02 l 0.03,0.112 C 1.431,0.449 1.434,0.566 1.398,0.675 L 1.336,0.777 1.271,0.73 1.287,0.65 Z"
         style="fill:#ffffff;fill-opacity:1;fill-rule:nonzero;stroke:none"
         id="path14300"
         inkscape:connector-curvature="0" />
    </g>
  </g>
</svg>
