<?xml version="1.0" encoding="UTF-8" standalone="no"?>
<!-- Created with Inkscape (http://www.inkscape.org/) -->

<svg
   xmlns:dc="http://purl.org/dc/elements/1.1/"
   xmlns:cc="http://creativecommons.org/ns#"
   xmlns:rdf="http://www.w3.org/1999/02/22-rdf-syntax-ns#"
   xmlns:svg="http://www.w3.org/2000/svg"
   xmlns="http://www.w3.org/2000/svg"
   xmlns:sodipodi="http://sodipodi.sourceforge.net/DTD/sodipodi-0.dtd"
   xmlns:inkscape="http://www.inkscape.org/namespaces/inkscape"
   width="7.084836mm"
   height="4.7328668mm"
   viewBox="0 0 7.084836 4.7328668"
   version="1.1"
   id="svg8"
   inkscape:version="0.92.4 (5da689c313, 2019-01-14)"
   sodipodi:docname="slovenia.svg">
  <defs
     id="defs2">
    <radialGradient
       id="radialGradient37584"
       spreadMethod="pad"
       gradientTransform="matrix(0.975099,0,0,0.975099,159.64062,365.06934)"
       gradientUnits="userSpaceOnUse"
       r="1"
       cy="0"
       cx="0"
       fy="0"
       fx="0">
      <stop
         id="stop37578"
         offset="0"
         style="stop-opacity:1;stop-color:#852c26" />
      <stop
         id="stop37580"
         offset="0.0015476"
         style="stop-opacity:1;stop-color:#852c26" />
      <stop
         id="stop37582"
         offset="1"
         style="stop-opacity:1;stop-color:#451617" />
    </radialGradient>
    <clipPath
       id="clipPath37532"
       clipPathUnits="userSpaceOnUse">
      <path
         inkscape:connector-curvature="0"
         id="path37530"
         d="M 0,400 H 400 V 0 H 0 Z" />
    </clipPath>
    <radialGradient
       id="radialGradient37522"
       spreadMethod="pad"
       gradientTransform="matrix(-0.2637247,0,0,0.2637247,159.68652,365.88965)"
       gradientUnits="userSpaceOnUse"
       r="1"
       cy="0"
       cx="0"
       fy="0"
       fx="0">
      <stop
         id="stop37516"
         offset="0"
         style="stop-opacity:1;stop-color:#852c26" />
      <stop
         id="stop37518"
         offset="0.0015476"
         style="stop-opacity:1;stop-color:#852c26" />
      <stop
         id="stop37520"
         offset="1"
         style="stop-opacity:1;stop-color:#451617" />
    </radialGradient>
    <clipPath
       id="clipPath37354"
       clipPathUnits="userSpaceOnUse">
      <path
         inkscape:connector-curvature="0"
         id="path37352"
         d="M 0,400 H 400 V 0 H 0 Z" />
    </clipPath>
    <radialGradient
       id="radialGradient37344"
       spreadMethod="pad"
       gradientTransform="matrix(0.975099,0,0,0.975099,155.76025,365.06934)"
       gradientUnits="userSpaceOnUse"
       r="1"
       cy="0"
       cx="0"
       fy="0"
       fx="0">
      <stop
         id="stop37338"
         offset="0"
         style="stop-opacity:1;stop-color:#eee54f" />
      <stop
         id="stop37340"
         offset="0.9977451"
         style="stop-opacity:1;stop-color:#e04a20" />
      <stop
         id="stop37342"
         offset="1"
         style="stop-opacity:1;stop-color:#e04a20" />
    </radialGradient>
    <clipPath
       id="clipPath37272"
       clipPathUnits="userSpaceOnUse">
      <path
         inkscape:connector-curvature="0"
         id="path37270"
         d="M 0,400 H 400 V 0 H 0 Z" />
    </clipPath>
    <radialGradient
       id="radialGradient37262"
       spreadMethod="pad"
       gradientTransform="matrix(0.2636045,0,0,0.2636045,155.71484,365.89062)"
       gradientUnits="userSpaceOnUse"
       r="1"
       cy="0"
       cx="0"
       fy="0"
       fx="0">
      <stop
         id="stop37256"
         offset="0"
         style="stop-opacity:1;stop-color:#eee54f" />
      <stop
         id="stop37258"
         offset="0.9977451"
         style="stop-opacity:1;stop-color:#e04a20" />
      <stop
         id="stop37260"
         offset="1"
         style="stop-opacity:1;stop-color:#e04a20" />
    </radialGradient>
    <radialGradient
       id="radialGradient5422"
       spreadMethod="pad"
       gradientTransform="matrix(0.1021146,-0.0756367,0.070541,0.1077099,271.97559,176.14746)"
       gradientUnits="userSpaceOnUse"
       r="1"
       cy="0"
       cx="0"
       fy="0"
       fx="0">
      <stop
         id="stop5416"
         offset="0"
         style="stop-opacity:1;stop-color:#ffffff" />
      <stop
         id="stop5418"
         offset="0.00091915"
         style="stop-opacity:1;stop-color:#ffffff" />
      <stop
         id="stop5420"
         offset="1"
         style="stop-opacity:1;stop-color:#e63e6e" />
    </radialGradient>
    <clipPath
       id="clipPath5374"
       clipPathUnits="userSpaceOnUse">
      <path
         inkscape:connector-curvature="0"
         id="path5372"
         d="M 0,400 H 400 V 0 H 0 Z" />
    </clipPath>
    <radialGradient
       id="radialGradient5364"
       spreadMethod="pad"
       gradientTransform="matrix(0.1318831,-9.013e-4,-1.001e-4,0.1311822,269.56445,176.4248)"
       gradientUnits="userSpaceOnUse"
       r="1"
       cy="0"
       cx="0"
       fy="0"
       fx="0">
      <stop
         id="stop5358"
         offset="0"
         style="stop-opacity:1;stop-color:#ffffff" />
      <stop
         id="stop5360"
         offset="0.00091915"
         style="stop-opacity:1;stop-color:#ffffff" />
      <stop
         id="stop5362"
         offset="1"
         style="stop-opacity:1;stop-color:#e63e6e" />
    </radialGradient>
    <clipPath
       id="clipPath5316"
       clipPathUnits="userSpaceOnUse">
      <path
         inkscape:connector-curvature="0"
         id="path5314"
         d="M 0,400 H 400 V 0 H 0 Z" />
    </clipPath>
    <radialGradient
       id="radialGradient5306"
       spreadMethod="pad"
       gradientTransform="matrix(0.1105445,0.0935377,-0.0930375,0.1086438,268.6875,176.89062)"
       gradientUnits="userSpaceOnUse"
       r="1"
       cy="0"
       cx="0"
       fy="0"
       fx="0">
      <stop
         id="stop5300"
         offset="0"
         style="stop-opacity:1;stop-color:#ffffff" />
      <stop
         id="stop5302"
         offset="0.00091915"
         style="stop-opacity:1;stop-color:#ffffff" />
      <stop
         id="stop5304"
         offset="1"
         style="stop-opacity:1;stop-color:#e63e6e" />
    </radialGradient>
  </defs>
  <sodipodi:namedview
     id="base"
     pagecolor="#ffffff"
     bordercolor="#666666"
     borderopacity="1.0"
     inkscape:pageopacity="0.0"
     inkscape:pageshadow="2"
     inkscape:zoom="11.2"
     inkscape:cx="18.661671"
     inkscape:cy="10.436704"
     inkscape:document-units="mm"
     inkscape:current-layer="layer1"
     showgrid="false"
     inkscape:window-width="954"
     inkscape:window-height="630"
     inkscape:window-x="-3"
     inkscape:window-y="6"
     inkscape:window-maximized="0" />
  <metadata
     id="metadata5">
    <rdf:RDF>
      <cc:Work
         rdf:about="">
        <dc:format>image/svg+xml</dc:format>
        <dc:type
           rdf:resource="http://purl.org/dc/dcmitype/StillImage" />
        <dc:title></dc:title>
      </cc:Work>
    </rdf:RDF>
  </metadata>
  <g
     inkscape:label="Layer 1"
     inkscape:groupmode="layer"
     id="layer1"
     transform="translate(-56.347552,-99.693037)">
    <g
       id="g16962"
       transform="matrix(0.35277777,0,0,-0.35277777,56.376833,104.39627)">
      <path
         d="M 0,0 H 19.917 L 19.916,13.25 H 0 Z M 19.958,-0.043 V 0 Z M -0.083,-0.084 V 13.332 H 20 V -0.043 -0.084 Z"
         style="fill:#221f21;fill-opacity:1;fill-rule:nonzero;stroke:none"
         id="path16964"
         inkscape:connector-curvature="0" />
    </g>
    <path
       d="m 56.362195,104.41156 h 7.055561 v -1.5681 h -7.055561 z"
       style="fill:#ee2329;fill-opacity:1;fill-rule:nonzero;stroke:none;stroke-width:0.35277778"
       id="path16966"
       inkscape:connector-curvature="0" />
    <path
       d="m 56.362195,102.84311 h 7.055561 v -1.56775 h -7.055561 z"
       style="fill:#3a5fb5;fill-opacity:1;fill-rule:nonzero;stroke:none;stroke-width:0.35277778"
       id="path16968"
       inkscape:connector-curvature="0" />
    <path
       d="m 63.417756,99.707617 h -7.055561 v 1.567743 h 7.055561 z"
       style="fill:#ffffff;fill-opacity:1;fill-rule:nonzero;stroke:none;stroke-width:0.35277778"
       id="path16970"
       inkscape:connector-curvature="0" />
    <g
       id="g16972"
       transform="matrix(0.35277777,0,0,-0.35277777,57.737294,100.62113)">
      <path
         d="M 0,0 3.328,-0.002 3.406,-0.031 C 3.369,-0.639 3.33,-1.219 3.292,-1.826 3.283,-2.323 3.142,-2.823 2.839,-3.225 2.552,-3.617 2.131,-3.907 1.665,-4.051 1.071,-3.874 0.561,-3.443 0.289,-2.887 0.122,-2.56 0.055,-2.193 0.041,-1.826 c -0.037,0.609 -0.113,1.795 -0.113,1.795 z"
         style="fill:#ee2329;fill-opacity:1;fill-rule:nonzero;stroke:none"
         id="path16974"
         inkscape:connector-curvature="0" />
    </g>
    <g
       id="g16976"
       transform="matrix(0.35277777,0,0,-0.35277777,57.737294,100.62113)">
      <path
         d="m 0,0 c 1.043,0.454 2.285,0.451 3.328,-0.002 0,0 -0.073,-1.252 -0.108,-1.833 C 3.21,-2.311 3.075,-2.789 2.786,-3.172 2.51,-3.549 2.109,-3.826 1.662,-3.964 1.094,-3.795 0.605,-3.383 0.344,-2.85 0.185,-2.537 0.121,-2.187 0.107,-1.835 0.073,-1.251 0,0 0,0"
         style="fill:#3a5fb5;fill-opacity:1;fill-rule:nonzero;stroke:none"
         id="path16978"
         inkscape:connector-curvature="0" />
    </g>
    <g
       id="g16980"
       transform="matrix(0.35277777,0,0,-0.35277777,58.146054,100.60529)">
      <path
         d="M 0,0 0.054,0.11 0.101,0 0.22,0.014 0.15,-0.086 0.22,-0.184 0.101,-0.17 0.051,-0.283 0.003,-0.17 l -0.119,-0.014 0.07,0.098 -0.07,0.1 z"
         style="fill:#ead727;fill-opacity:1;fill-rule:nonzero;stroke:none"
         id="path16982"
         inkscape:connector-curvature="0" />
    </g>
    <g
       id="g16984"
       transform="matrix(0.35277777,0,0,-0.35277777,58.486094,100.56637)">
      <path
         d="M 0,0 0.05,-0.11 0.17,-0.097 0.1,-0.196 0.17,-0.294 0.05,-0.28 0.003,-0.391 -0.05,-0.284 -0.164,-0.29 -0.1,-0.194 -0.164,-0.097 -0.047,-0.11 Z"
         style="fill:#ead727;fill-opacity:1;fill-rule:nonzero;stroke:none"
         id="path16986"
         inkscape:connector-curvature="0" />
    </g>
    <g
       id="g16988"
       transform="matrix(0.35277777,0,0,-0.35277777,58.308333,100.82063)">
      <path
         d="M 0,0 0.047,0.11 0.104,0.003 0.213,0.011 0.151,-0.083 0.213,-0.184 0.097,-0.17 0.047,-0.28 0,-0.17 -0.119,-0.184 -0.05,-0.083 -0.119,0.014 Z"
         style="fill:#ead727;fill-opacity:1;fill-rule:nonzero;stroke:none"
         id="path16990"
         inkscape:connector-curvature="0" />
    </g>
    <g
       id="g16992"
       transform="matrix(0.35277777,0,0,-0.35277777,58.187403,101.28055)">
      <path
         d="M 0,0 C 0.13,0.264 0.26,0.523 0.39,0.783 0.524,0.523 0.654,0.264 0.784,0 0.871,0.117 0.957,0.233 1.044,0.35 1.264,0.057 1.48,-0.233 1.7,-0.523 1.694,-0.743 1.515,-0.943 1.291,-0.953 1.121,-0.98 0.991,-0.83 0.82,-0.84 0.667,-0.837 0.543,-0.967 0.387,-0.957 0.23,-0.96 0.11,-0.833 -0.047,-0.84 c -0.166,0.003 -0.301,-0.144 -0.47,-0.113 -0.22,0.014 -0.39,0.213 -0.4,0.43 0.22,0.287 0.437,0.58 0.657,0.873 C -0.173,0.233 -0.087,0.117 0,0"
         style="fill:#ffffff;fill-opacity:1;fill-rule:nonzero;stroke:none"
         id="path16994"
         inkscape:connector-curvature="0" />
    </g>
    <g
       id="g16996"
       transform="matrix(0.35277777,0,0,-0.35277777,58.064734,101.65466)">
      <path
         d="M 0,0 C 0.111,0.04 0.217,0.109 0.337,0.094 0.478,0.084 0.591,-0.023 0.734,-0.02 0.891,-0.03 1.011,0.097 1.168,0.094 1.325,0.104 1.449,-0.023 1.601,-0.02 1.706,-0.026 1.798,0.023 1.891,0.063 L 1.781,-0.109 C 1.642,-0.176 1.486,-0.143 1.358,-0.072 1.222,-0.003 1.062,-0.026 0.931,-0.1 0.795,-0.173 0.628,-0.15 0.495,-0.076 0.358,-0.003 0.194,-0.026 0.064,-0.1 -0.053,-0.164 -0.188,-0.153 -0.312,-0.113 L -0.413,0.063 C -0.286,0 -0.139,-0.054 0,0"
         style="fill:#ffffff;fill-opacity:1;fill-rule:nonzero;stroke:none"
         id="path16998"
         inkscape:connector-curvature="0" />
    </g>
    <g
       id="g17000"
       transform="matrix(0.35277777,0,0,-0.35277777,57.994463,101.75114)">
      <path
         d="M 0,0 C 0.156,-0.02 0.291,0.074 0.437,0.109 0.627,0.156 0.777,-0.02 0.968,0.004 1.101,0.008 1.204,0.107 1.334,0.114 1.527,0.137 1.681,-0.029 1.878,0 1.631,-0.3 1.308,-0.537 0.937,-0.664 0.57,-0.537 0.243,-0.3 0,0"
         style="fill:#ffffff;fill-opacity:1;fill-rule:nonzero;stroke:none"
         id="path17002"
         inkscape:connector-curvature="0" />
    </g>
  </g>
</svg>
