<?xml version="1.0" encoding="UTF-8" standalone="no"?>
<!-- Created with Inkscape (http://www.inkscape.org/) -->

<svg
   xmlns:dc="http://purl.org/dc/elements/1.1/"
   xmlns:cc="http://creativecommons.org/ns#"
   xmlns:rdf="http://www.w3.org/1999/02/22-rdf-syntax-ns#"
   xmlns:svg="http://www.w3.org/2000/svg"
   xmlns="http://www.w3.org/2000/svg"
   xmlns:sodipodi="http://sodipodi.sourceforge.net/DTD/sodipodi-0.dtd"
   xmlns:inkscape="http://www.inkscape.org/namespaces/inkscape"
   width="7.084836mm"
   height="4.7328668mm"
   viewBox="0 0 7.0848358 4.7328668"
   version="1.1"
   id="svg8"
   inkscape:version="0.92.4 (5da689c313, 2019-01-14)"
   sodipodi:docname="vanuatu.svg">
  <defs
     id="defs2">
    <radialGradient
       id="radialGradient37584"
       spreadMethod="pad"
       gradientTransform="matrix(0.975099,0,0,0.975099,159.64062,365.06934)"
       gradientUnits="userSpaceOnUse"
       r="1"
       cy="0"
       cx="0"
       fy="0"
       fx="0">
      <stop
         id="stop37578"
         offset="0"
         style="stop-opacity:1;stop-color:#852c26" />
      <stop
         id="stop37580"
         offset="0.0015476"
         style="stop-opacity:1;stop-color:#852c26" />
      <stop
         id="stop37582"
         offset="1"
         style="stop-opacity:1;stop-color:#451617" />
    </radialGradient>
    <clipPath
       id="clipPath37532"
       clipPathUnits="userSpaceOnUse">
      <path
         inkscape:connector-curvature="0"
         id="path37530"
         d="M 0,400 H 400 V 0 H 0 Z" />
    </clipPath>
    <radialGradient
       id="radialGradient37522"
       spreadMethod="pad"
       gradientTransform="matrix(-0.2637247,0,0,0.2637247,159.68652,365.88965)"
       gradientUnits="userSpaceOnUse"
       r="1"
       cy="0"
       cx="0"
       fy="0"
       fx="0">
      <stop
         id="stop37516"
         offset="0"
         style="stop-opacity:1;stop-color:#852c26" />
      <stop
         id="stop37518"
         offset="0.0015476"
         style="stop-opacity:1;stop-color:#852c26" />
      <stop
         id="stop37520"
         offset="1"
         style="stop-opacity:1;stop-color:#451617" />
    </radialGradient>
    <clipPath
       id="clipPath37354"
       clipPathUnits="userSpaceOnUse">
      <path
         inkscape:connector-curvature="0"
         id="path37352"
         d="M 0,400 H 400 V 0 H 0 Z" />
    </clipPath>
    <radialGradient
       id="radialGradient37344"
       spreadMethod="pad"
       gradientTransform="matrix(0.975099,0,0,0.975099,155.76025,365.06934)"
       gradientUnits="userSpaceOnUse"
       r="1"
       cy="0"
       cx="0"
       fy="0"
       fx="0">
      <stop
         id="stop37338"
         offset="0"
         style="stop-opacity:1;stop-color:#eee54f" />
      <stop
         id="stop37340"
         offset="0.9977451"
         style="stop-opacity:1;stop-color:#e04a20" />
      <stop
         id="stop37342"
         offset="1"
         style="stop-opacity:1;stop-color:#e04a20" />
    </radialGradient>
    <clipPath
       id="clipPath37272"
       clipPathUnits="userSpaceOnUse">
      <path
         inkscape:connector-curvature="0"
         id="path37270"
         d="M 0,400 H 400 V 0 H 0 Z" />
    </clipPath>
    <radialGradient
       id="radialGradient37262"
       spreadMethod="pad"
       gradientTransform="matrix(0.2636045,0,0,0.2636045,155.71484,365.89062)"
       gradientUnits="userSpaceOnUse"
       r="1"
       cy="0"
       cx="0"
       fy="0"
       fx="0">
      <stop
         id="stop37256"
         offset="0"
         style="stop-opacity:1;stop-color:#eee54f" />
      <stop
         id="stop37258"
         offset="0.9977451"
         style="stop-opacity:1;stop-color:#e04a20" />
      <stop
         id="stop37260"
         offset="1"
         style="stop-opacity:1;stop-color:#e04a20" />
    </radialGradient>
    <radialGradient
       id="radialGradient5422"
       spreadMethod="pad"
       gradientTransform="matrix(0.1021146,-0.0756367,0.070541,0.1077099,271.97559,176.14746)"
       gradientUnits="userSpaceOnUse"
       r="1"
       cy="0"
       cx="0"
       fy="0"
       fx="0">
      <stop
         id="stop5416"
         offset="0"
         style="stop-opacity:1;stop-color:#ffffff" />
      <stop
         id="stop5418"
         offset="0.00091915"
         style="stop-opacity:1;stop-color:#ffffff" />
      <stop
         id="stop5420"
         offset="1"
         style="stop-opacity:1;stop-color:#e63e6e" />
    </radialGradient>
    <clipPath
       id="clipPath5374"
       clipPathUnits="userSpaceOnUse">
      <path
         inkscape:connector-curvature="0"
         id="path5372"
         d="M 0,400 H 400 V 0 H 0 Z" />
    </clipPath>
    <radialGradient
       id="radialGradient5364"
       spreadMethod="pad"
       gradientTransform="matrix(0.1318831,-9.013e-4,-1.001e-4,0.1311822,269.56445,176.4248)"
       gradientUnits="userSpaceOnUse"
       r="1"
       cy="0"
       cx="0"
       fy="0"
       fx="0">
      <stop
         id="stop5358"
         offset="0"
         style="stop-opacity:1;stop-color:#ffffff" />
      <stop
         id="stop5360"
         offset="0.00091915"
         style="stop-opacity:1;stop-color:#ffffff" />
      <stop
         id="stop5362"
         offset="1"
         style="stop-opacity:1;stop-color:#e63e6e" />
    </radialGradient>
    <clipPath
       id="clipPath5316"
       clipPathUnits="userSpaceOnUse">
      <path
         inkscape:connector-curvature="0"
         id="path5314"
         d="M 0,400 H 400 V 0 H 0 Z" />
    </clipPath>
    <radialGradient
       id="radialGradient5306"
       spreadMethod="pad"
       gradientTransform="matrix(0.1105445,0.0935377,-0.0930375,0.1086438,268.6875,176.89062)"
       gradientUnits="userSpaceOnUse"
       r="1"
       cy="0"
       cx="0"
       fy="0"
       fx="0">
      <stop
         id="stop5300"
         offset="0"
         style="stop-opacity:1;stop-color:#ffffff" />
      <stop
         id="stop5302"
         offset="0.00091915"
         style="stop-opacity:1;stop-color:#ffffff" />
      <stop
         id="stop5304"
         offset="1"
         style="stop-opacity:1;stop-color:#e63e6e" />
    </radialGradient>
  </defs>
  <sodipodi:namedview
     id="base"
     pagecolor="#ffffff"
     bordercolor="#666666"
     borderopacity="1.0"
     inkscape:pageopacity="0.0"
     inkscape:pageshadow="2"
     inkscape:zoom="11.2"
     inkscape:cx="22.713306"
     inkscape:cy="6.356447"
     inkscape:document-units="mm"
     inkscape:current-layer="layer1"
     showgrid="false"
     inkscape:window-width="954"
     inkscape:window-height="630"
     inkscape:window-x="-3"
     inkscape:window-y="6"
     inkscape:window-maximized="0" />
  <metadata
     id="metadata5">
    <rdf:RDF>
      <cc:Work
         rdf:about="">
        <dc:format>image/svg+xml</dc:format>
        <dc:type
           rdf:resource="http://purl.org/dc/dcmitype/StillImage" />
        <dc:title></dc:title>
      </cc:Work>
    </rdf:RDF>
  </metadata>
  <g
     inkscape:label="Layer 1"
     inkscape:groupmode="layer"
     id="layer1"
     transform="translate(-43.974085,-98.613454)">
    <g
       id="g38174"
       transform="matrix(0.35277777,0,0,-0.35277777,44.003366,103.31704)">
      <path
         d="M 0,0 H 19.917 V 13.251 H 0 Z M 19.958,-0.042 V 0 Z M -0.083,-0.083 V 13.333 H 20 V -0.042 -0.083 Z"
         style="fill:#221f21;fill-opacity:1;fill-rule:nonzero;stroke:none"
         id="path38176"
         inkscape:connector-curvature="0" />
    </g>
    <path
       d="m 43.988658,98.62793 h 7.05556 v 2.35197 h -7.05556 z"
       style="fill:#c51e3d;fill-opacity:1;fill-rule:nonzero;stroke:none;stroke-width:0.35277778"
       id="path38178"
       inkscape:connector-curvature="0" />
    <path
       d="m 43.988658,100.9799 h 7.05556 v 2.35162 h -7.05556 z"
       style="fill:#399545;fill-opacity:1;fill-rule:nonzero;stroke:none;stroke-width:0.35277778"
       id="path38180"
       inkscape:connector-curvature="0" />
    <g
       id="g38182"
       transform="matrix(0.35277777,0,0,-0.35277777,51.044246,100.55889)">
      <path
         d="M 0,0 H -10.445 L -20,5.474 V 0 -2.387 -7.859 l 9.555,5.472 H 0 Z"
         style="fill:#0e0f0e;fill-opacity:1;fill-rule:nonzero;stroke:none"
         id="path38184"
         inkscape:connector-curvature="0" />
    </g>
    <g
       id="g38186"
       transform="matrix(0.35277777,0,0,-0.35277777,47.294785,100.85585)">
      <path
         d="m 0,0 -9.372,5.368 v -0.79 l 8.606,-4.93 -8.606,-4.929 V -6.07 L 0,-0.702 H 10.628 V 0 Z"
         style="fill:#f1bc24;fill-opacity:1;fill-rule:nonzero;stroke:none"
         id="path38188"
         inkscape:connector-curvature="0" />
    </g>
    <g
       id="g38190"
       transform="matrix(0.35277777,0,0,-0.35277777,44.859806,100.32048)">
      <path
         d="m 0,0 c 0.159,0.011 0.321,-0.019 0.473,-0.061 0.143,-0.04 0.282,-0.095 0.412,-0.168 0.266,-0.148 0.489,-0.366 0.632,-0.636 0.15,-0.285 0.205,-0.608 0.205,-0.927 0,-0.328 -0.064,-0.66 -0.211,-0.955 C 1.382,-3.004 1.191,-3.226 0.956,-3.392 0.711,-3.565 0.423,-3.684 0.125,-3.725 L -0.08,-3.74 v 0.698 l 0.12,0.007 c 0.298,0.033 0.561,0.201 0.748,0.431 0.095,0.12 0.171,0.252 0.227,0.393 l 0.07,0.234 0.029,0.239 -0.023,0.248 -0.074,0.233 c -0.054,0.126 -0.129,0.242 -0.221,0.343 -0.197,0.215 -0.471,0.351 -0.764,0.364 -0.156,0.006 -0.311,-0.022 -0.452,-0.087 -0.127,-0.057 -0.241,-0.144 -0.332,-0.248 -0.095,-0.106 -0.173,-0.232 -0.221,-0.365 -0.052,-0.147 -0.082,-0.301 -0.065,-0.457 0.036,-0.301 0.236,-0.566 0.502,-0.703 0.131,-0.067 0.276,-0.104 0.421,-0.112 0.156,-0.009 0.311,0.01 0.453,0.075 0.123,0.054 0.233,0.137 0.321,0.24 l 0.114,0.163 0.046,0.093 0.022,0.056 0.017,0.059 0.012,0.055 0.006,0.06 0.006,-0.127 -0.005,-0.127 -0.05,-0.226 C 0.779,-2.337 0.693,-2.461 0.586,-2.557 0.477,-2.653 0.348,-2.726 0.211,-2.773 l -0.225,-0.057 -0.245,0.002 c -0.305,0.037 -0.615,0.15 -0.843,0.36 -0.106,0.097 -0.194,0.214 -0.255,0.343 -0.07,0.15 -0.109,0.311 -0.123,0.476 l -0.004,0.252 0.031,0.242 c 0.033,0.155 0.091,0.306 0.176,0.442 0.154,0.244 0.386,0.427 0.647,0.546 C -0.433,-0.076 -0.216,-0.018 0,0"
         style="fill:#efbc26;fill-opacity:1;fill-rule:nonzero;stroke:none"
         id="path38192"
         inkscape:connector-curvature="0" />
    </g>
    <g
       id="g38194"
       transform="matrix(0.35277777,0,0,-0.35277777,45.046356,100.65364)">
      <path
         d="M 0,0 0.036,0.019 0.052,-0.004 0.028,-0.05 -0.113,-0.135 0.036,-0.09 0.087,-0.103 v -0.01 l -0.059,-0.031 -0.195,-0.034 -0.06,-0.031 0.149,0.022 0.024,-0.007 -0.01,-0.023 -0.053,-0.02 -0.139,-0.009 -0.022,-0.003 -0.039,-0.026 0.122,0.018 0.048,-0.005 0.001,-0.012 -0.026,-0.02 -0.11,-0.019 -0.079,-0.003 -0.049,-0.036 0.141,0.017 0.022,-0.009 0.001,-0.014 -0.02,-0.022 -0.078,-0.026 -0.14,-0.011 -0.051,-0.044 0.06,0.016 0.109,0.009 0.006,-0.006 v -0.01 l -0.068,-0.043 -0.176,-0.038 -0.045,-0.042 -0.008,-0.006 0.135,0.031 0.028,-0.003 -0.012,-0.024 -0.097,-0.055 -0.125,-0.03 -0.058,-0.069 0.055,0.028 0.096,0.043 0.033,0.001 0.001,-0.016 -0.056,-0.056 -0.187,-0.071 -0.028,-0.037 -0.008,-0.004 0.043,0.018 0.09,0.038 0.036,0.001 -0.041,-0.06 -0.185,-0.086 -0.03,-0.041 0.055,0.029 0.114,0.049 0.034,-0.001 -0.005,-0.026 -0.055,-0.046 -0.173,-0.06 -0.022,-0.034 -0.008,-0.005 0.044,0.019 0.119,0.05 0.041,0.003 0.009,-0.012 v -0.008 l -0.019,-0.023 -0.075,-0.041 -0.15,-0.045 -0.042,-0.086 -0.038,0.02 10e-4,0.007 0.069,0.105 -0.005,0.02 -0.02,0.057 -0.007,0.025 v 0.127 l 0.039,0.049 0.021,-0.002 0.017,-0.121 -0.004,-0.042 -0.003,-0.056 0.004,0.009 0.024,0.033 -0.002,0.024 -0.016,0.106 0.005,0.104 0.033,0.043 0.017,-0.011 0.009,-0.097 -0.002,-0.066 -0.001,-0.044 0.003,0.009 0.029,0.035 -0.003,0.021 -0.006,0.169 0.029,0.07 h 0.024 l 0.008,-0.037 -0.004,-0.121 -0.003,-0.044 0.036,0.047 0.008,0.204 0.01,0.025 0.029,0.028 0.019,0.001 0.008,-0.015 -0.015,-0.145 -0.008,-0.039 0.045,0.052 -0.003,0.109 0.007,0.054 0.034,0.066 0.025,0.003 -0.013,-0.177 0.003,0.006 0.035,0.037 0.02,0.178 0.046,0.041 0.008,-0.023 v -0.026 l -0.009,-0.055 -0.007,-0.035 -0.002,-0.025 0.04,0.038 0.029,0.176 0.059,0.031 v -0.051 l -0.001,-0.002 -0.003,-0.015 -0.007,-0.022 -0.016,-0.044 -0.005,-0.017 -0.006,-0.004 0.024,0.015 0.025,0.024 0.005,0.052 0.007,0.042 0.014,0.055 0.043,0.066 h 0.027 l -0.02,-0.107 -0.002,-0.007 -0.02,-0.056 0.038,0.028 0.027,0.109 0.008,0.021 0.048,0.063 0.031,0.004 v -0.027 l -0.044,-0.098 -0.011,-0.027 0.034,0.026 0.02,0.056 0.005,0.015 0.059,0.102 0.048,0.021 -0.006,-0.035 -0.057,-0.102 -0.017,-0.021 0.04,0.025 0.078,0.132 0.063,0.034 0.001,-0.014 -0.072,-0.108 0.047,0.027 z"
         style="fill:#efbc26;fill-opacity:1;fill-rule:nonzero;stroke:none"
         id="path38196"
         inkscape:connector-curvature="0" />
    </g>
    <g
       id="g38198"
       transform="matrix(0.35277777,0,0,-0.35277777,44.675656,100.65364)">
      <path
         d="m 0,0 -0.036,0.019 -0.017,-0.023 0.025,-0.046 0.141,-0.085 -0.148,0.045 -0.052,-0.013 v -0.01 l 0.059,-0.031 0.195,-0.034 0.06,-0.031 -0.149,0.022 -0.024,-0.007 0.01,-0.023 0.053,-0.02 0.138,-0.009 0.024,-0.003 0.038,-0.026 -0.122,0.018 -0.048,-0.005 -0.001,-0.012 0.026,-0.02 0.11,-0.019 0.079,-0.003 0.049,-0.036 -0.141,0.017 -0.022,-0.009 -0.001,-0.014 0.02,-0.022 0.078,-0.026 0.14,-0.011 0.051,-0.044 -0.06,0.016 -0.11,0.009 -0.005,-0.006 v -0.01 L 0.427,-0.495 0.604,-0.533 0.649,-0.575 0.657,-0.581 0.522,-0.55 0.494,-0.553 0.505,-0.577 0.602,-0.632 0.727,-0.662 0.786,-0.731 0.731,-0.703 0.635,-0.66 0.602,-0.659 v -0.016 l 0.054,-0.056 0.188,-0.071 0.028,-0.037 0.008,-0.004 -0.042,0.018 -0.091,0.038 -0.036,0.001 0.04,-0.06 0.186,-0.086 0.03,-0.041 -0.055,0.029 -0.115,0.049 -0.034,-0.001 0.005,-0.026 0.056,-0.046 0.173,-0.06 0.022,-0.034 0.009,-0.005 -0.046,0.019 -0.118,0.05 -0.042,0.003 -0.008,-0.012 v -0.008 l 0.018,-0.023 0.076,-0.041 0.15,-0.045 0.043,-0.086 0.037,0.02 -10e-4,0.007 -0.069,0.105 0.005,0.02 0.02,0.057 0.006,0.025 v 0.127 L 1.061,-0.8 1.039,-0.802 1.023,-0.923 1.026,-0.965 1.03,-1.021 1.026,-1.012 1.001,-0.979 1.003,-0.955 1.02,-0.849 1.015,-0.745 0.982,-0.702 0.964,-0.713 0.956,-0.81 0.958,-0.876 0.959,-0.92 0.956,-0.911 0.927,-0.876 0.93,-0.855 0.936,-0.686 0.907,-0.616 H 0.883 L 0.875,-0.653 0.879,-0.774 0.882,-0.818 0.845,-0.771 0.838,-0.567 0.828,-0.542 0.799,-0.514 0.78,-0.513 0.772,-0.528 0.787,-0.673 0.796,-0.712 0.75,-0.66 0.753,-0.551 0.746,-0.497 0.712,-0.431 0.687,-0.428 0.7,-0.605 0.696,-0.599 0.662,-0.562 0.642,-0.384 0.595,-0.343 0.587,-0.366 0.588,-0.392 0.597,-0.447 0.603,-0.482 0.606,-0.507 0.566,-0.469 0.537,-0.293 0.478,-0.262 V -0.313 L 0.479,-0.315 0.482,-0.33 0.489,-0.352 0.505,-0.396 0.51,-0.413 0.516,-0.417 0.492,-0.402 0.468,-0.378 0.462,-0.326 0.455,-0.284 0.441,-0.229 0.398,-0.163 H 0.372 L 0.391,-0.27 0.393,-0.277 0.413,-0.333 0.375,-0.305 0.348,-0.196 0.34,-0.175 0.293,-0.112 0.261,-0.108 V -0.135 L 0.304,-0.233 0.316,-0.26 0.282,-0.234 0.262,-0.178 0.257,-0.163 0.199,-0.061 0.15,-0.04 0.156,-0.075 0.213,-0.177 0.23,-0.198 0.19,-0.173 0.112,-0.041 0.049,-0.007 0.048,-0.021 0.119,-0.129 0.073,-0.102 Z"
         style="fill:#efbc26;fill-opacity:1;fill-rule:nonzero;stroke:none"
         id="path38200"
         inkscape:connector-curvature="0" />
    </g>
  </g>
</svg>
