<?xml version="1.0" encoding="UTF-8" standalone="no"?>
<!-- Created with Inkscape (http://www.inkscape.org/) -->

<svg
   xmlns:dc="http://purl.org/dc/elements/1.1/"
   xmlns:cc="http://creativecommons.org/ns#"
   xmlns:rdf="http://www.w3.org/1999/02/22-rdf-syntax-ns#"
   xmlns:svg="http://www.w3.org/2000/svg"
   xmlns="http://www.w3.org/2000/svg"
   xmlns:sodipodi="http://sodipodi.sourceforge.net/DTD/sodipodi-0.dtd"
   xmlns:inkscape="http://www.inkscape.org/namespaces/inkscape"
   width="7.084836mm"
   height="4.7328668mm"
   viewBox="0 0 7.0848359 4.7328668"
   version="1.1"
   id="svg8"
   inkscape:version="0.92.4 (5da689c313, 2019-01-14)"
   sodipodi:docname="zambia.svg">
  <defs
     id="defs2">
    <radialGradient
       id="radialGradient37584"
       spreadMethod="pad"
       gradientTransform="matrix(0.975099,0,0,0.975099,159.64062,365.06934)"
       gradientUnits="userSpaceOnUse"
       r="1"
       cy="0"
       cx="0"
       fy="0"
       fx="0">
      <stop
         id="stop37578"
         offset="0"
         style="stop-opacity:1;stop-color:#852c26" />
      <stop
         id="stop37580"
         offset="0.0015476"
         style="stop-opacity:1;stop-color:#852c26" />
      <stop
         id="stop37582"
         offset="1"
         style="stop-opacity:1;stop-color:#451617" />
    </radialGradient>
    <clipPath
       id="clipPath37532"
       clipPathUnits="userSpaceOnUse">
      <path
         inkscape:connector-curvature="0"
         id="path37530"
         d="M 0,400 H 400 V 0 H 0 Z" />
    </clipPath>
    <radialGradient
       id="radialGradient37522"
       spreadMethod="pad"
       gradientTransform="matrix(-0.2637247,0,0,0.2637247,159.68652,365.88965)"
       gradientUnits="userSpaceOnUse"
       r="1"
       cy="0"
       cx="0"
       fy="0"
       fx="0">
      <stop
         id="stop37516"
         offset="0"
         style="stop-opacity:1;stop-color:#852c26" />
      <stop
         id="stop37518"
         offset="0.0015476"
         style="stop-opacity:1;stop-color:#852c26" />
      <stop
         id="stop37520"
         offset="1"
         style="stop-opacity:1;stop-color:#451617" />
    </radialGradient>
    <clipPath
       id="clipPath37354"
       clipPathUnits="userSpaceOnUse">
      <path
         inkscape:connector-curvature="0"
         id="path37352"
         d="M 0,400 H 400 V 0 H 0 Z" />
    </clipPath>
    <radialGradient
       id="radialGradient37344"
       spreadMethod="pad"
       gradientTransform="matrix(0.975099,0,0,0.975099,155.76025,365.06934)"
       gradientUnits="userSpaceOnUse"
       r="1"
       cy="0"
       cx="0"
       fy="0"
       fx="0">
      <stop
         id="stop37338"
         offset="0"
         style="stop-opacity:1;stop-color:#eee54f" />
      <stop
         id="stop37340"
         offset="0.9977451"
         style="stop-opacity:1;stop-color:#e04a20" />
      <stop
         id="stop37342"
         offset="1"
         style="stop-opacity:1;stop-color:#e04a20" />
    </radialGradient>
    <clipPath
       id="clipPath37272"
       clipPathUnits="userSpaceOnUse">
      <path
         inkscape:connector-curvature="0"
         id="path37270"
         d="M 0,400 H 400 V 0 H 0 Z" />
    </clipPath>
    <radialGradient
       id="radialGradient37262"
       spreadMethod="pad"
       gradientTransform="matrix(0.2636045,0,0,0.2636045,155.71484,365.89062)"
       gradientUnits="userSpaceOnUse"
       r="1"
       cy="0"
       cx="0"
       fy="0"
       fx="0">
      <stop
         id="stop37256"
         offset="0"
         style="stop-opacity:1;stop-color:#eee54f" />
      <stop
         id="stop37258"
         offset="0.9977451"
         style="stop-opacity:1;stop-color:#e04a20" />
      <stop
         id="stop37260"
         offset="1"
         style="stop-opacity:1;stop-color:#e04a20" />
    </radialGradient>
    <radialGradient
       id="radialGradient5422"
       spreadMethod="pad"
       gradientTransform="matrix(0.1021146,-0.0756367,0.070541,0.1077099,271.97559,176.14746)"
       gradientUnits="userSpaceOnUse"
       r="1"
       cy="0"
       cx="0"
       fy="0"
       fx="0">
      <stop
         id="stop5416"
         offset="0"
         style="stop-opacity:1;stop-color:#ffffff" />
      <stop
         id="stop5418"
         offset="0.00091915"
         style="stop-opacity:1;stop-color:#ffffff" />
      <stop
         id="stop5420"
         offset="1"
         style="stop-opacity:1;stop-color:#e63e6e" />
    </radialGradient>
    <clipPath
       id="clipPath5374"
       clipPathUnits="userSpaceOnUse">
      <path
         inkscape:connector-curvature="0"
         id="path5372"
         d="M 0,400 H 400 V 0 H 0 Z" />
    </clipPath>
    <radialGradient
       id="radialGradient5364"
       spreadMethod="pad"
       gradientTransform="matrix(0.1318831,-9.013e-4,-1.001e-4,0.1311822,269.56445,176.4248)"
       gradientUnits="userSpaceOnUse"
       r="1"
       cy="0"
       cx="0"
       fy="0"
       fx="0">
      <stop
         id="stop5358"
         offset="0"
         style="stop-opacity:1;stop-color:#ffffff" />
      <stop
         id="stop5360"
         offset="0.00091915"
         style="stop-opacity:1;stop-color:#ffffff" />
      <stop
         id="stop5362"
         offset="1"
         style="stop-opacity:1;stop-color:#e63e6e" />
    </radialGradient>
    <clipPath
       id="clipPath5316"
       clipPathUnits="userSpaceOnUse">
      <path
         inkscape:connector-curvature="0"
         id="path5314"
         d="M 0,400 H 400 V 0 H 0 Z" />
    </clipPath>
    <radialGradient
       id="radialGradient5306"
       spreadMethod="pad"
       gradientTransform="matrix(0.1105445,0.0935377,-0.0930375,0.1086438,268.6875,176.89062)"
       gradientUnits="userSpaceOnUse"
       r="1"
       cy="0"
       cx="0"
       fy="0"
       fx="0">
      <stop
         id="stop5300"
         offset="0"
         style="stop-opacity:1;stop-color:#ffffff" />
      <stop
         id="stop5302"
         offset="0.00091915"
         style="stop-opacity:1;stop-color:#ffffff" />
      <stop
         id="stop5304"
         offset="1"
         style="stop-opacity:1;stop-color:#e63e6e" />
    </radialGradient>
  </defs>
  <sodipodi:namedview
     id="base"
     pagecolor="#ffffff"
     bordercolor="#666666"
     borderopacity="1.0"
     inkscape:pageopacity="0.0"
     inkscape:pageshadow="2"
     inkscape:zoom="11.2"
     inkscape:cx="22.970166"
     inkscape:cy="3.3844676"
     inkscape:document-units="mm"
     inkscape:current-layer="layer1"
     showgrid="false"
     inkscape:window-width="954"
     inkscape:window-height="630"
     inkscape:window-x="-3"
     inkscape:window-y="6"
     inkscape:window-maximized="0" />
  <metadata
     id="metadata5">
    <rdf:RDF>
      <cc:Work
         rdf:about="">
        <dc:format>image/svg+xml</dc:format>
        <dc:type
           rdf:resource="http://purl.org/dc/dcmitype/StillImage" />
        <dc:title></dc:title>
      </cc:Work>
    </rdf:RDF>
  </metadata>
  <g
     inkscape:label="Layer 1"
     inkscape:groupmode="layer"
     id="layer1"
     transform="translate(-43.90613,-97.827114)">
    <g
       id="g33136"
       transform="matrix(0.35277777,0,0,-0.35277777,43.935411,102.5307)">
      <path
         d="M 0,0 H 19.917 L 19.916,13.251 H 0 Z M 19.958,-0.042 V 0 Z M -0.083,-0.083 V 13.333 H 20 V -0.042 -0.083 Z"
         style="fill:#221f21;fill-opacity:1;fill-rule:nonzero;stroke:none"
         id="path33138"
         inkscape:connector-curvature="0" />
    </g>
    <path
       d="m 50.976213,102.54517 h -7.05555 v -4.703591 h 7.05555 z"
       style="fill:#3b8a3e;fill-opacity:1;fill-rule:nonzero;stroke:none;stroke-width:0.35277778"
       id="path33140"
       inkscape:connector-curvature="0" />
    <path
       d="m 50.153183,99.370517 h 0.82303 v 3.174653 h -0.82303 z"
       style="fill:#e56a21;fill-opacity:1;fill-rule:nonzero;stroke:none;stroke-width:0.35277778"
       id="path33142"
       inkscape:connector-curvature="0" />
    <path
       d="m 49.329803,99.370517 h 0.82338 v 3.174653 h -0.82338 z"
       style="fill:#0e0f0e;fill-opacity:1;fill-rule:nonzero;stroke:none;stroke-width:0.35277778"
       id="path33144"
       inkscape:connector-curvature="0" />
    <path
       d="m 48.506773,99.370167 h 0.82303 v 3.175003 h -0.82303 z"
       style="fill:#d12826;fill-opacity:1;fill-rule:nonzero;stroke:none;stroke-width:0.35277778"
       id="path33146"
       inkscape:connector-curvature="0" />
    <g
       id="g33148"
       transform="matrix(0.35277777,0,0,-0.35277777,49.81445,98.947789)">
      <path
         d="m 0,0 -0.124,-0.007 -0.053,-0.016 -0.074,0.039 -0.009,0.027 0.001,0.139 0.058,-0.054 h 0.025 L -0.182,0.23 -0.196,0.311 c 0.012,0.113 0.013,0.225 0.016,0.337 0.055,-0.107 0.115,-0.216 0.138,-0.336 L -0.047,0.095 0.01,0.106 0.016,0.029 Z M 3.111,2.136 2.997,2.073 2.77,1.939 2.883,2.052 2.983,2.234 2.973,2.298 2.875,2.277 C 2.736,2.207 2.609,2.118 2.474,2.041 L 2.676,2.254 2.689,2.332 2.646,2.317 2.448,2.214 C 2.233,2.111 2.015,2.016 1.797,1.92 L 1.866,2.053 1.798,2.084 1.726,2.045 C 1.638,2.004 1.544,1.976 1.45,1.948 1.295,1.904 1.138,1.869 0.979,1.838 0.861,1.799 0.744,1.755 0.624,1.72 L 0.496,1.693 C 0.352,1.701 0.209,1.709 0.065,1.7 -0.031,1.695 -0.129,1.687 -0.219,1.651 L -0.245,1.832 -0.124,1.914 -0.027,1.933 -0.013,1.854 0.033,1.87 0.092,1.979 0.033,2.056 -0.152,2.104 C -0.222,2.174 -0.322,2.2 -0.419,2.199 -0.531,2.2 -0.642,2.151 -0.72,2.07 -0.812,1.977 -0.863,1.847 -0.889,1.719 c -0.21,0.064 -0.429,0.093 -0.646,0.129 -0.244,0.07 -0.47,0.19 -0.695,0.303 L -2.352,2.204 -2.406,2.188 -2.383,2.127 -2.221,1.939 C -2.429,2.055 -2.643,2.156 -2.86,2.25 -2.953,2.286 -3.035,2.342 -3.119,2.394 L -3.184,2.418 -3.206,2.376 -3.152,2.228 -2.941,1.986 -3.096,2.061 -3.193,2.118 -3.404,2.303 -3.453,2.311 -3.46,2.255 c 0.017,-0.112 0.075,-0.216 0.154,-0.296 l -0.13,0.104 -0.069,0.042 -0.03,-0.025 0.027,-0.084 0.142,-0.17 -0.126,0.093 -0.054,0.021 -0.007,-0.054 0.09,-0.14 C -3.379,1.659 -3.271,1.6 -3.162,1.549 -3.064,1.507 -2.963,1.472 -2.859,1.445 L -2.95,1.424 -2.94,1.374 -2.848,1.319 C -2.752,1.289 -2.65,1.29 -2.551,1.291 L -2.765,1.246 -2.752,1.193 -2.496,1.111 -2.242,1.137 -2.315,1.111 -2.438,1.094 -2.446,1.078 -2.404,1.029 -2.241,0.978 c 0.138,-0.015 0.276,0.01 0.409,0.044 l -0.225,-0.078 0.009,-0.028 0.11,-0.068 0.187,-0.013 0.069,0.018 10e-4,0.001 0.003,-0.003 -0.001,-0.003 -0.05,-0.041 0.045,-0.038 0.235,0.011 -0.048,-0.046 0.062,-0.035 0.183,0.024 0.054,0.023 -0.042,-0.051 0.028,-0.052 0.08,-0.006 0.241,0.064 -0.063,-0.084 0.119,-0.09 0.273,0.006 -0.014,-0.082 0.049,0.028 C -0.562,0.379 -0.566,0.272 -0.593,0.171 l 0.019,-0.03 0.097,0.095 -0.011,-0.154 0.03,-0.008 -0.089,-0.112 -0.108,-0.016 -0.103,-0.055 -0.044,-0.103 -0.002,-0.109 0.023,-0.003 0.041,0.062 0.147,0.026 0.003,-0.105 0.042,-0.108 0.058,-0.006 -0.016,0.063 0.089,0.057 0.017,0.021 0.058,-0.081 0.064,-0.079 0.051,0.013 -0.035,0.082 0.05,0.086 0.038,-0.036 0.028,0.008 -0.01,0.07 0.085,0.024 0.014,-0.087 0.012,-0.061 0.059,-0.066 0.046,0.006 -0.018,0.04 -0.001,0.04 0.049,0.043 0.02,0.163 0.01,0.01 0.044,-0.088 0.075,-0.021 -0.018,-0.053 0.013,-0.024 0.098,0.059 0.008,0.147 -0.073,0.07 L 0.3,-0.042 0.373,-0.094 0.406,-0.085 0.363,0.018 0.219,0.055 0.216,0.109 0.38,0.059 0.377,0.086 C 0.332,0.169 0.267,0.245 0.242,0.339 L 0.388,0.253 0.427,0.277 0.369,0.325 0.296,0.406 0.502,0.313 0.536,0.356 C 0.613,0.309 0.705,0.262 0.798,0.289 L 0.832,0.352 0.782,0.404 0.651,0.5 C 0.736,0.451 0.826,0.407 0.923,0.384 L 1.086,0.387 1.098,0.446 0.992,0.552 1.016,0.546 1.238,0.598 1.23,0.643 1.379,0.672 1.408,0.708 1.363,0.748 c 0.133,0.009 0.265,0.05 0.383,0.115 L 1.838,0.92 1.852,0.946 C 1.996,0.97 2.141,1.003 2.277,1.052 2.436,1.107 2.587,1.184 2.713,1.293 L 2.866,1.485 2.869,1.536 2.824,1.532 3.021,1.732 3.062,1.799 3.03,1.837 2.896,1.793 3.085,1.988 3.143,2.107 Z"
         style="fill:#251b14;fill-opacity:1;fill-rule:nonzero;stroke:none"
         id="path33150"
         inkscape:connector-curvature="0" />
    </g>
    <g
       id="g33152"
       transform="matrix(0.35277777,0,0,-0.35277777,48.693421,98.105139)">
      <path
         d="M 0,0 0.044,-0.019 0.256,-0.143 C 0.499,-0.247 0.74,-0.359 0.97,-0.49 L 1.131,-0.572 0.95,-0.628 0.924,-0.645 1.004,-0.715 1.17,-0.7 1,-0.817 1.031,-0.854 1.283,-0.858 1.153,-0.977 1.166,-1.008 1.267,-1.016 1.371,-1.002 1.268,-1.07 1.27,-1.087 1.366,-1.098 c 0.095,0.004 0.187,0.03 0.276,0.061 L 1.446,-1.154 1.419,-1.176 1.434,-1.19 1.615,-1.228 c 0.113,0.005 0.219,0.047 0.322,0.089 L 1.727,-1.281 1.713,-1.311 1.77,-1.344 C 1.677,-1.436 1.558,-1.506 1.428,-1.525 1.334,-1.541 1.228,-1.528 1.156,-1.459 L 1.4,-1.371 1.456,-1.324 1.429,-1.311 C 1.322,-1.346 1.213,-1.373 1.103,-1.384 1.012,-1.392 0.92,-1.39 0.834,-1.358 l -0.066,0.041 0.141,0.026 c 0.098,0.037 0.198,0.068 0.296,0.107 l 0.024,0.022 -0.032,0.009 C 1.059,-1.193 0.919,-1.235 0.775,-1.25 l -0.218,0.024 -0.122,0.062 0.117,0.019 0.1,0.026 0.272,0.09 L 0.959,-1 0.916,-0.994 0.687,-1.061 0.573,-1.07 0.365,-1.051 0.25,-0.985 0.424,-0.963 0.642,-0.918 0.655,-0.892 0.613,-0.893 0.426,-0.934 0.365,-0.928 c -0.141,0.037 -0.28,0.082 -0.411,0.149 l -0.236,0.174 -0.071,0.128 0.161,-0.113 c 0.127,-0.054 0.254,-0.104 0.382,-0.155 0.095,-0.04 0.189,-0.08 0.286,-0.113 l 0.02,0.019 -0.054,0.025 -0.235,0.093 c -0.109,0.047 -0.217,0.098 -0.322,0.148 l -0.162,0.147 -0.053,0.114 0.079,-0.054 c 0.082,-0.066 0.163,-0.138 0.263,-0.175 0.234,-0.098 0.468,-0.195 0.704,-0.291 L 0.752,-0.836 0.724,-0.797 C 0.523,-0.71 0.315,-0.64 0.114,-0.553 l -0.133,0.072 c -0.106,0.069 -0.188,0.175 -0.223,0.297 l -0.014,0.081 0.203,-0.178 0.083,-0.052 c 0.091,-0.048 0.184,-0.091 0.277,-0.134 0.142,-0.066 0.286,-0.132 0.429,-0.197 l 0.045,-0.018 0.005,0.027 -0.027,0.014 C 0.627,-0.576 0.495,-0.514 0.363,-0.45 l -0.095,0.057 -0.207,0.231 z"
         style="fill:#e56a21;fill-opacity:1;fill-rule:nonzero;stroke:none"
         id="path33154"
         inkscape:connector-curvature="0" />
    </g>
    <g
       id="g33156"
       transform="matrix(0.35277777,0,0,-0.35277777,50.65162,98.192978)">
      <path
         d="M 0,0 C 0.093,0.043 0.184,0.089 0.274,0.136 L 0.119,-0.038 C -0.04,-0.177 -0.222,-0.286 -0.417,-0.364 -0.539,-0.415 -0.666,-0.458 -0.796,-0.489 l -0.011,-0.032 c -0.117,0.012 -0.235,0.03 -0.351,0.054 0.138,0.038 0.275,0.083 0.41,0.137 l 0.127,0.054 C -0.413,-0.187 -0.206,-0.095 0,0"
         style="fill:#e56a21;fill-opacity:1;fill-rule:nonzero;stroke:none"
         id="path33158"
         inkscape:connector-curvature="0" />
    </g>
    <g
       id="g33160"
       transform="matrix(0.35277777,0,0,-0.35277777,50.819049,98.163699)">
      <path
         d="M 0,0 0.105,0.045 0.029,-0.124 -0.211,-0.34 -0.404,-0.457 c -0.309,-0.15 -0.631,-0.272 -0.963,-0.363 l 0.002,0.025 -0.033,0.03 c 0.111,-0.006 0.228,0.02 0.31,0.098 l 0.048,0.061 -0.027,0.008 -0.189,-0.006 c 0.125,0.027 0.247,0.068 0.365,0.117 l 0.238,0.112 c 0.157,0.078 0.309,0.169 0.459,0.261 z"
         style="fill:#e56a21;fill-opacity:1;fill-rule:nonzero;stroke:none"
         id="path33162"
         inkscape:connector-curvature="0" />
    </g>
    <g
       id="g33164"
       transform="matrix(0.35277777,0,0,-0.35277777,48.974519,98.178838)">
      <path
         d="m 0,0 0.098,-0.033 c 0.241,-0.119 0.48,-0.25 0.74,-0.325 0.205,-0.036 0.413,-0.062 0.613,-0.121 l 0.095,-0.033 0.016,0.02 -0.041,0.035 c 0.028,0.124 0.077,0.249 0.17,0.339 0.084,0.083 0.207,0.122 0.324,0.107 L 2.209,-0.095 2.236,-0.105 2.402,-0.15 2.445,-0.215 2.398,-0.286 2.372,-0.227 2.234,-0.183 2.195,-0.178 2.202,-0.202 2.291,-0.236 2.131,-0.297 2.121,-0.502 2.072,-0.419 2.047,-0.43 2.154,-0.572 2.363,-0.788 2.409,-0.873 C 2.432,-0.986 2.453,-1.1 2.466,-1.215 l 0.023,-0.004 -0.005,0.09 -0.038,0.217 c 0.139,-0.151 0.297,-0.283 0.461,-0.407 l 0.146,-0.145 0.073,-0.073 -0.249,0.08 c -0.096,0.059 -0.183,0.132 -0.251,0.22 L 2.588,-1.185 2.573,-1.216 2.623,-1.294 2.779,-1.467 2.83,-1.551 2.691,-1.516 2.508,-1.395 2.395,-1.267 2.367,-1.275 2.484,-1.414 c 0.065,-0.084 0.1,-0.187 0.133,-0.287 l 0.092,-0.16 0.061,-0.04 -0.127,0.083 -0.039,0.001 V -1.875 L 2.725,-2.093 C 2.62,-2.07 2.528,-1.998 2.487,-1.901 L 2.464,-1.836 2.441,-1.841 2.367,-2.058 2.361,-1.836 C 2.33,-1.707 2.262,-1.59 2.203,-1.473 L 2.169,-1.394 1.989,-1.287 1.904,-1.24 1.844,-1.191 1.825,-1.199 1.798,-1.303 1.659,-1.102 C 1.592,-1.158 1.51,-1.218 1.416,-1.205 l 0.166,0.224 -0.1,0.195 0.029,0.177 0.01,0.056 L 1.498,-0.554 1.473,-0.619 C 1.404,-0.705 1.328,-0.787 1.235,-0.847 L 1.048,-0.936 0.818,-0.99 0.682,-0.964 C 0.8,-0.9 0.906,-0.816 1.019,-0.744 L 1.008,-0.719 C 0.898,-0.781 0.78,-0.828 0.656,-0.851 l -0.128,-0.01 0.062,0.043 0.248,0.171 0.229,0.008 -0.038,-0.058 0.004,-0.014 0.116,-0.009 0.003,0.027 -0.083,0.006 0.057,0.078 -0.009,0.023 -0.253,-0.039 0.067,0.068 -0.033,0.016 -0.233,0.021 0.071,0.058 -0.065,0.013 c -0.127,0.021 -0.246,0.076 -0.363,0.13 L 0.215,-0.26 0.032,-0.053 Z"
         style="fill:#e56a21;fill-opacity:1;fill-rule:nonzero;stroke:none"
         id="path33166"
         inkscape:connector-curvature="0" />
    </g>
    <g
       id="g33168"
       transform="matrix(0.35277777,0,0,-0.35277777,49.61911,98.222619)">
      <path
         d="M 0,0 0.147,0.08 0.245,0.039 0.221,-0.015 H 0.109 Z"
         style="fill:#251b14;fill-opacity:1;fill-rule:nonzero;stroke:none"
         id="path33170"
         inkscape:connector-curvature="0" />
    </g>
    <g
       id="g33172"
       transform="matrix(0.35277777,0,0,-0.35277777,49.647019,98.215028)">
      <path
         d="M 0,0 0.104,0.03 0.145,0.003 0.109,-0.017 Z"
         style="fill:#e56a21;fill-opacity:1;fill-rule:nonzero;stroke:none"
         id="path33174"
         inkscape:connector-curvature="0" />
    </g>
    <g
       id="g33176"
       transform="matrix(0.35277777,0,0,-0.35277777,50.85281,98.242227)">
      <path
         d="M 0,0 0.159,0.093 0.01,-0.111 -0.237,-0.301 c -0.146,-0.072 -0.29,-0.147 -0.439,-0.213 l -0.203,-0.076 0.012,-0.031 0.201,0.071 c 0.112,0.044 0.224,0.094 0.329,0.151 l 0.175,0.096 0.243,0.106 -0.06,-0.086 c -0.138,-0.155 -0.306,-0.281 -0.49,-0.379 -0.142,-0.074 -0.295,-0.133 -0.452,-0.172 -0.286,-0.069 -0.587,-0.068 -0.875,-0.013 l -0.088,0.018 -0.011,-0.03 0.075,-0.02 c 0.259,-0.059 0.535,-0.065 0.799,-0.015 0.187,0.038 0.369,0.097 0.539,0.185 l 0.234,0.128 0.14,0.08 -0.191,-0.217 C -0.43,-0.818 -0.582,-0.886 -0.738,-0.937 -0.881,-0.98 -1.027,-1.012 -1.177,-1.03 -1.315,-1.036 -1.455,-1.046 -1.593,-1.064 l -0.216,0.063 C -2,-0.949 -2.183,-0.865 -2.344,-0.75 v 0.001 l 0.253,-0.079 0.201,0.027 0.08,0.008 0.163,0.007 0.006,0.025 -0.121,-0.005 -0.116,0.004 -0.186,0.102 c 0.126,-0.027 0.253,-0.049 0.382,-0.051 l 0.09,0.009 0.014,0.035 -0.063,0.052 0.112,-0.001 -0.008,-0.018 0.035,-0.012 c 0.302,0.084 0.601,0.18 0.884,0.314 C -0.408,-0.229 -0.2,-0.123 0,0"
         style="fill:#e56a21;fill-opacity:1;fill-rule:nonzero;stroke:none"
         id="path33178"
         inkscape:connector-curvature="0" />
    </g>
    <g
       id="g33180"
       transform="matrix(0.35277777,0,0,-0.35277777,50.43766,98.233268)">
      <path
         d="M 0,0 0.065,0.033 0.03,-0.049 -0.101,-0.16 C -0.195,-0.201 -0.292,-0.236 -0.39,-0.268 -0.513,-0.307 -0.638,-0.344 -0.766,-0.364 l -0.129,-0.007 -0.024,-0.017 0.01,-0.016 0.092,-0.022 -0.014,-0.027 -0.073,-0.026 -0.24,0.015 -0.021,-0.027 0.109,-0.078 -0.248,0.01 -0.109,0.038 -0.024,-0.016 0.133,-0.083 c -0.097,-0.004 -0.199,-0.013 -0.292,0.026 l -0.008,-0.033 0.081,-0.037 -0.195,0.01 -0.047,0.047 -0.135,0.154 -0.052,0.055 c 0.133,0.041 0.273,0.043 0.412,0.043 l 0.194,-0.007 0.129,0.001 c 0.15,0.036 0.292,0.091 0.437,0.138 0.222,0.046 0.445,0.096 0.658,0.172 z"
         style="fill:#e56a21;fill-opacity:1;fill-rule:nonzero;stroke:none"
         id="path33182"
         inkscape:connector-curvature="0" />
    </g>
    <g
       id="g33184"
       transform="matrix(0.35277777,0,0,-0.35277777,49.10339,98.311828)">
      <path
         d="M 0,0 C 0.102,-0.044 0.203,-0.087 0.312,-0.103 L 0.25,-0.131 0.166,-0.223 0.071,-0.25 l -0.184,0.007 0.187,0.158 -0.024,0.013 -0.202,-0.03 -0.052,0.031 z"
         style="fill:#e56a21;fill-opacity:1;fill-rule:nonzero;stroke:none"
         id="path33186"
         inkscape:connector-curvature="0" />
    </g>
    <g
       id="g33188"
       transform="matrix(0.35277777,0,0,-0.35277777,50.16066,98.375228)">
      <path
         d="M 0,0 0.181,0.035 0.295,0.009 C 0.417,-0.014 0.54,-0.032 0.664,-0.037 l 0.111,0.006 C 0.696,-0.115 0.575,-0.146 0.463,-0.136 l -0.236,0.058 -0.01,-0.025 0.159,-0.05 0.093,-0.052 -0.242,0.004 -0.203,0.054 -0.025,-0.008 0.015,-0.019 0.155,-0.048 0.143,-0.046 0.044,-0.033 -0.209,0.004 c -0.107,0.013 -0.214,0.029 -0.316,0.065 l -0.062,0.037 -0.017,-0.02 0.048,-0.038 0.158,-0.098 0.096,-0.051 -0.243,-0.011 c -0.123,0.028 -0.233,0.089 -0.335,0.158 l 0.035,0.017 0.006,0.042 0.206,-0.007 0.032,0.009 -0.037,0.084 0.261,0.034 z"
         style="fill:#e56a21;fill-opacity:1;fill-rule:nonzero;stroke:none"
         id="path33190"
         inkscape:connector-curvature="0" />
    </g>
    <g
       id="g33192"
       transform="matrix(0.35277777,0,0,-0.35277777,49.18022,98.386938)">
      <path
         d="M 0,0 0.048,0.053 0.289,0.015 0.22,-0.045 0.065,-0.146 -0.026,-0.18 -0.187,-0.186 Z"
         style="fill:#e56a21;fill-opacity:1;fill-rule:nonzero;stroke:none"
         id="path33194"
         inkscape:connector-curvature="0" />
    </g>
    <g
       id="g33196"
       transform="matrix(0.35277777,0,0,-0.35277777,49.308699,98.565379)">
      <path
         d="M 0,0 C 0.184,0.12 0.365,0.245 0.512,0.409 L 0.53,0.216 C 0.443,0.127 0.342,0.046 0.222,0.005 Z"
         style="fill:#e56a21;fill-opacity:1;fill-rule:nonzero;stroke:none"
         id="path33198"
         inkscape:connector-curvature="0" />
    </g>
    <g
       id="g33200"
       transform="matrix(0.35277777,0,0,-0.35277777,49.913999,98.464797)">
      <path
         d="M 0,0 0.126,-0.004 0.21,-0.073 c 0.184,-0.152 0.4,-0.261 0.629,-0.323 L 1.059,-0.462 1.06,-0.471 0.905,-0.525 c -0.097,0.003 -0.191,0.036 -0.282,0.071 -0.237,0.097 -0.453,0.237 -0.667,0.376 l -0.012,-0.025 0.03,-0.025 c 0.111,-0.08 0.222,-0.158 0.337,-0.233 0.124,-0.08 0.246,-0.165 0.378,-0.229 H 0.517 l -0.125,0.028 -0.03,0.007 0.01,0.016 -0.105,0.055 -0.097,0.069 c -0.114,0.091 -0.226,0.186 -0.327,0.292 l -0.069,0.085 0.194,-0.005 z"
         style="fill:#e56a21;fill-opacity:1;fill-rule:nonzero;stroke:none"
         id="path33202"
         inkscape:connector-curvature="0" />
    </g>
    <g
       id="g33204"
       transform="matrix(0.35277777,0,0,-0.35277777,49.487491,98.511647)">
      <path
         d="m 0,0 0.038,0.035 0.051,-0.074 -0.138,-0.127 c -0.125,-0.082 -0.254,-0.154 -0.384,-0.23 l -0.088,-0.03 -0.216,-0.019 -0.027,0.015 c 0.091,0.065 0.191,0.114 0.279,0.182 l 0.033,0.052 0.26,0.057 z"
         style="fill:#e56a21;fill-opacity:1;fill-rule:nonzero;stroke:none"
         id="path33206"
         inkscape:connector-curvature="0" />
    </g>
    <g
       id="g33208"
       transform="matrix(0.35277777,0,0,-0.35277777,49.71454,98.558497)">
      <path
         d="M 0,0 0.021,-0.012 0.12,-0.179 0.221,-0.342 0.198,-0.357 0.162,-0.27 0.059,-0.152 -0.005,-0.025 Z"
         style="fill:#251b14;fill-opacity:1;fill-rule:nonzero;stroke:none"
         id="path33210"
         inkscape:connector-curvature="0" />
    </g>
    <g
       id="g33212"
       transform="matrix(0.35277777,0,0,-0.35277777,49.29907,98.687328)">
      <path
         d="M 0,0 C 0.168,0.106 0.344,0.2 0.51,0.311 L 0.462,0.227 0.482,0.211 0.631,0.232 0.736,0.3 C 0.809,0.207 0.875,0.107 0.908,-0.007 L 0.91,-0.162 0.863,-0.186 0.651,-0.189 0.533,-0.111 0.682,0.001 0.77,0.047 0.762,0.075 C 0.66,0.021 0.551,-0.016 0.441,-0.048 L 0.27,-0.074 0.248,-0.045 c 0.08,0.078 0.181,0.131 0.273,0.193 L 0.512,0.176 C 0.42,0.124 0.326,0.074 0.234,0.023 L 0.067,-0.014 Z"
         style="fill:#e56a21;fill-opacity:1;fill-rule:nonzero;stroke:none"
         id="path33214"
         inkscape:connector-curvature="0" />
    </g>
    <g
       id="g33216"
       transform="matrix(0.35277777,0,0,-0.35277777,50.041809,98.591588)">
      <path
         d="m 0,0 c 0.102,-0.057 0.207,-0.106 0.316,-0.146 l 0.041,-0.01 0.024,-0.008 -0.042,0.002 0.005,-0.029 0.24,-0.069 0.141,-0.045 -0.147,-0.028 -0.148,0.011 -0.181,0.054 0.114,0.026 0.01,0.03 -0.141,0.064 z"
         style="fill:#e56a21;fill-opacity:1;fill-rule:nonzero;stroke:none"
         id="path33218"
         inkscape:connector-curvature="0" />
    </g>
    <g
       id="g33220"
       transform="matrix(0.35277777,0,0,-0.35277777,49.62359,98.619809)">
      <path
         d="m 0,0 0.012,0.012 0.141,-0.08 0.15,-0.086 0.031,-0.101 C 0.33,-0.377 0.33,-0.499 0.316,-0.621 l 0.012,-0.064 0.008,-0.08 -0.084,0.115 -0.043,0.065 -0.026,-0.073 -0.108,-0.168 0.03,0.215 0.007,0.187 -0.026,0.004 -0.047,-0.263 -0.06,-0.068 0.053,0.265 0.04,0.131 -0.023,0.005 -0.047,-0.072 0.026,0.106 -0.034,0.188 z"
         style="fill:#e56a21;fill-opacity:1;fill-rule:nonzero;stroke:none"
         id="path33222"
         inkscape:connector-curvature="0" />
    </g>
    <g
       id="g33224"
       transform="matrix(0.35277777,0,0,-0.35277777,50.39734,98.622907)">
      <path
         d="m 0,0 0.14,0.013 c -0.15,-0.102 -0.331,-0.159 -0.512,-0.151 l -0.198,0.041 -0.027,0.01 0.073,-0.014 0.205,0.033 0.049,0.049 z"
         style="fill:#e56a21;fill-opacity:1;fill-rule:nonzero;stroke:none"
         id="path33226"
         inkscape:connector-curvature="0" />
    </g>
    <g
       id="g33228"
       transform="matrix(0.35277777,0,0,-0.35277777,50.02495,98.658398)">
      <path
         d="m 0,0 0.099,-0.074 c 0.092,-0.088 0.199,-0.158 0.297,-0.239 l 0.08,-0.089 -0.215,0.021 c -0.106,0.04 -0.203,0.096 -0.299,0.156 l -0.026,-0.02 0.201,-0.181 0.061,-0.045 -0.006,-0.026 -0.152,0.018 -0.172,0.109 -0.05,0.04 -0.012,-0.036 0.099,-0.107 -0.193,0.094 -0.051,0.065 -0.084,0.207 0.241,-0.112 0.063,0.032 -0.069,0.113 c 0.084,-0.058 0.173,-0.112 0.276,-0.128 L 0.172,-0.203 0.16,-0.146 Z"
         style="fill:#e56a21;fill-opacity:1;fill-rule:nonzero;stroke:none"
         id="path33230"
         inkscape:connector-curvature="0" />
    </g>
    <g
       id="g33232"
       transform="matrix(0.35277777,0,0,-0.35277777,50.072469,98.679078)">
      <path
         d="m 0,0 0.056,-0.011 0.055,-0.032 0.22,-0.066 0.141,-0.037 -0.168,-0.038 -0.163,0.07 z"
         style="fill:#e56a21;fill-opacity:1;fill-rule:nonzero;stroke:none"
         id="path33234"
         inkscape:connector-curvature="0" />
    </g>
    <g
       id="g33236"
       transform="matrix(0.35277777,0,0,-0.35277777,49.699718,98.847877)">
      <path
         d="M 0,0 0.034,-0.061 0.031,-0.253 0.046,-0.289 0.116,-0.332 0.085,-0.406 0.046,-0.442 0.062,-0.477 0.068,-0.597 0.03,-0.645 l 0.001,-0.06 -0.015,0.049 -0.077,0.161 h -0.033 l -0.039,-0.116 -0.071,-0.035 -0.011,-0.049 -0.011,0.084 -0.019,0.041 0.062,0.109 -0.012,0.027 -0.058,-0.037 -0.156,-0.038 -0.04,-0.02 0.028,0.092 0.098,0.066 0.119,0.019 0.106,0.153 0.036,0.062 z"
         style="fill:#e56a21;fill-opacity:1;fill-rule:nonzero;stroke:none"
         id="path33238"
         inkscape:connector-curvature="0" />
    </g>
    <g
       id="g33240"
       transform="matrix(0.35277777,0,0,-0.35277777,49.832719,98.884749)">
      <path
         d="m 0,0 0.029,0.086 0.097,-0.13 0.008,-0.092 0.041,-0.027 0.087,-0.012 0.047,-0.034 -0.086,0.022 -0.04,-0.05 0.035,-0.032 0.045,-0.095 -0.043,-0.098 -0.012,0.064 -0.07,0.016 -0.037,0.078 -0.08,-0.014 -0.01,-0.151 -0.053,-0.038 -0.004,-0.074 -0.02,0.09 -0.023,0.039 0.025,0.121 -0.033,0.009 -0.079,-0.072 -0.059,0.002 -0.008,-0.046 -0.013,0.121 0.041,0.08 0.161,0.025 0.051,0.043 -0.006,0.134 z"
         style="fill:#e56a21;fill-opacity:1;fill-rule:nonzero;stroke:none"
         id="path33242"
         inkscape:connector-curvature="0" />
    </g>
  </g>
</svg>
